<svg id="Layer_1" xmlns="http://www.w3.org/2000/svg" width="16" height="16" viewBox="0 0 16 16"><style>.st0{fill:#0aa7e2}</style><path class="st0" d="M8 0C3.6 0 0 3.6 0 8s3.6 8 8 8 8-3.6 8-8-3.6-8-8-8zm6 8v.6c-1-.3-1.9-.5-3-.5h-.5c-.1-.5-.3-1-.5-1.5 1-.5 2-1.2 2.8-2.1.8 1 1.2 2.2 1.2 3.5zm-2.3-4.7c-.8.7-1.6 1.4-2.6 1.8C8.4 4 7.5 3 6.4 2.2c.5-.1 1-.2 1.6-.2 1.4 0 2.6.5 3.7 1.3zm-7.1-.2c1.2.7 2.2 1.6 2.9 2.7-1.7.5-3.4.5-5.1 0 .5-1.1 1.2-2 2.2-2.7zM2 8v-.6c1 .3 2 .4 3 .4 1.1 0 2.3-.2 3.3-.5.2.4.3.7.5 1.1-2.1.5-4 1.7-5.4 3.4C2.5 10.8 2 9.4 2 8zm2.6 4.9c1.1-1.4 2.7-2.4 4.5-2.9v.9c0 1-.2 2-.5 3H8c-1.3.1-2.4-.3-3.4-1zm6 .5c.2-.8.3-1.6.3-2.4 0-.4 0-.8-.1-1.1h.2c.9 0 1.7.1 2.6.4-.6 1.3-1.7 2.5-3 3.1z" id="Dribbble_1"/></svg>