<svg id="Layer_1" xmlns="http://www.w3.org/2000/svg" width="16.4" height="16" viewBox="0 0 16.4 16"><style>.st0{fill:#0aa7e2}</style><path class="st0" d="M8.2 0C3.7 0 0 3.7 0 8.2c0 3.6 2.4 6.7 5.6 7.8.4.1.6-.2.6-.4v-1.4c-2.3.5-2.8-1.1-2.8-1.1-.4-.9-.9-1.2-.9-1.2-.7-.5.1-.5.1-.5.8.1 1.3.8 1.3.8.7 1.3 1.9.9 2.4.7.1-.5.3-.9.5-1.1-1.9-.2-3.8-.9-3.8-4 0-.9.3-1.6.8-2.2-.1-.2-.4-1 .1-2.2 0 0 .7-.2 2.3.8.6-.1 1.3-.2 2-.2s1.4.1 2.1.3c1.6-1.1 2.3-.8 2.3-.8.4 1.1.2 2 .1 2.2.5.6.8 1.3.8 2.2 0 3.2-1.9 3.8-3.7 4 .3.3.6.8.6 1.5v2.3c0 .2.1.5.6.4 3.3-1.1 5.6-4.2 5.6-7.8C16.4 3.7 12.7 0 8.2 0z"/></svg>