<svg id="Layer_1" xmlns="http://www.w3.org/2000/svg" width="16" height="16" viewBox="0 0 16 16"><style>.st0{fill:#0aa7e2}</style><path class="st0" d="M8 0C3.6 0 0 3.6 0 8s3.6 8 8 8 8-3.6 8-8-3.6-8-8-8zM.8 8c0-1 .2-2 .6-2.9l3.4 9.4C2.5 13.3.8 10.8.8 8zM8 15.2c-.7 0-1.4-.1-2-.3l2.2-6.3 2.2 6.1s0 .1.1.1c-.9.2-1.7.4-2.5.4zM9 4.6c.4 0 .8-.1.8-.1.4 0 .3-.6 0-.6 0 0-1.2.1-1.9.1C7.1 4.1 6 4 6 4c-.4 0-.4.6 0 .6 0 0 .4 0 .8.1l1.1 3.1-1.6 4.7-2.7-7.9c.4 0 .8-.1.8-.1.4 0 .3-.6 0-.6 0 0-1.2.1-1.9.1H2C3.3 2 5.5.8 8 .8c1.9 0 3.6.7 4.9 1.9h-.1c-.7 0-1.2.6-1.2 1.3 0 .6.3 1.1.7 1.7.3.5.6 1.1.6 2 0 .6-.2 1.3-.5 2.3l-.7 2.4L9 4.6zm5.3-.1c.6 1 .9 2.2.9 3.5 0 2.7-1.4 5-3.6 6.2l2.2-6.4c.4-1 .5-1.8.5-2.6.1-.2 0-.4 0-.7z"/></svg>