<svg id="Layer_1" xmlns="http://www.w3.org/2000/svg" width="16" height="13" viewBox="0 0 16 13"><style>.st0{fill:#0aa7e2}</style><path class="st0" d="M16 1.5c-.6.3-1.2.4-1.9.5.7-.4 1.2-1 1.4-1.8-.6.4-1.3.7-2.1.8-.6-.6-1.5-1-2.4-1-1.7 0-3.2 1.5-3.2 3.3 0 .3 0 .5.1.7C5.1 3.9 2.7 2.6 1.1.6c-.3.5-.4 1-.4 1.7 0 1.1.8 2.1 1.6 2.7C1.8 5 1 4.8 1 4.6c0 1.6 1 2.9 2.5 3.2-.3.1-.7.1-1 .1-.2 0-.5 0-.7-.1.4 1.3 1.6 2.3 3 2.3-1.1.9-2.6 1.4-4.1 1.4h-.8C1.5 12.5 3.2 13 5 13c6 0 9.3-5 9.3-9.3v-.4c.7-.5 1.3-1.1 1.7-1.8z" id="Twitter_1"/></svg>