<?xml version="1.0" encoding="UTF-8"?><svg xmlns="http://www.w3.org/2000/svg" xmlns:xlink="http://www.w3.org/1999/xlink" id="Layer_1" width="1200" height="600" viewBox="0 0 1200 600"><defs><path id="reuse-0" d="M690.24 279.11v11h-22v11h-11v11h-11v22h22v-11h11v-11h22v-11h33v-22h-44zM657.25 466.11v11.05h33v-22l-11.01-.05v-33h-11.06v-11h-21.94v11h-10.98v33h10.98v11h11.01zM712.29 532.11h-55.04v22h66.09v-11h-11.05v-11z"/></defs><path fill="#f7f7f7" d="M-14.01-17.08H1207.9v631.53H-14.01z"/><path fill="#222423" d="M232.18 433.11h11v-11h-11v-11h-22v-11h-66v11h-11v11h-11v22h-11v22h11v11h11v11h-11v11h-11v22h11v22h11v22h77v-22h11v-44h-11v-11h11v-11h11v-11h11v-22h-11v-11z"/><g fill="#ffd7d7"><path d="M188.18 521.11h11v11h-11zM122.18 444.11h22v22h-22zM232.18 466.11v-22h-33v-11h-11v22h11v11h33z"/><path d="M177.18 433.11h-22v11h11v22h-22v11h11v11h55v-11h-33v-11h11v-11h-11v-22zM133.18 543.11h22v-11h11v-11h-33v22z"/></g><g fill="red"><path d="M155.18 499.11v-11h-22v11h-11v22h44v-22h-11zM199.18 499.11v-11h-22v11h11v11h22v-11h-11zM188.18 543.11v-11h-33v11h-11v11h55v-11h-11zM210.18 422.11v-11h-66v11h-11v11h99v-11h-22z"/></g><path fill="#222423" d="M493.63 334.11v-11h11v-11h-11v-11h-22v-22h-11v-11h-44v11h-22v11h-11v11h-11v11h-11v22h-11v44h11v11h11v11h-11v22h.03-11.03v55h11v44h11v44h88.11v-22h-11v-11h21.89v-11h11v-22h11v-44h-11v-22h-11v-11h-11v-11h11v-11h11v-11h11v-11h11v-22h-11v-11h-22v-11h22Zm-33 132v-7.87h.05v7.87h-.05Z"/><g fill="red"><path d="M416.63 279.11v11h-22v11h-11v11h-11v22h22v-11h11v-11h22v-11h33v-22h-44zM383.65 466.11v11.05h33v-22l-11.02-.05v-33h-11.05v-11h-21.95v11h-10.97v33h10.97v11h11.02zM438.69 532.11h-55.04v22h66.09v-11h-11.05v-11z"/></g><g fill="#ffd7d7"><path d="M493.63 356.11h-33v-33h-44v11h-11v22h11v11h-11v11h-11v-11H383.6v-22h-21.97v33h11v11h22v11h11v11h55v-11h-22v-11h-22v-11h11v-11h11v11h11v11h33v-11h11v-22Zm-44 0h-11v-22h11v22ZM471.69 433.08h-11.06v-10.97h-33v10.97h-11v22.03h11v11.05h33v-11.05h11.06v-22.03zM471.69 466.19h10.95v22.03h-10.95zM427.68 477.14h22.03v10.95h-22.03z"/></g><path fill="#ff0800" d="M767.24 334.11v-11h11v-11h-11v-11h-22v-22h-11v-11h-44v11h-22v11h-11v11h-11v11h-11v22h-11v44h11v11h11v11h-11v22h.03-11.03v55h11v44h11v44h88.11v-22h-11v-11h21.89v-11h11v-22h11v-44h-11v-22h-11v-11h-11v-11h11v-11h11v-11h11v-11h11v-22h-11v-11h-22v-11h22Zm-33 132v-7.87h.05v7.87h-.05Z"/><g fill="#f7f7f7"><use xlink:href="#reuse-0"/></g><g fill="#ffbf39"><use xlink:href="#reuse-0"/></g><g fill="#ffe8b6"><path d="M767.24 356.11h-33v-33h-44v11h-11v22h11v11h-11v11h-11v-11h-11.03v-22h-21.97v33h11v11h22v11h11v11h55v-11h-22v-11h-22v-11h11v-11h11v11h11v11h33v-11h11v-22Zm-44 0h-11v-22h11v22ZM745.29 433.08h-11.05v-10.97h-33v10.97h-11v22.03h11v11.05h33v-11.05h11.05v-22.03zM745.29 466.19h10.95v22.03h-10.95zM701.28 477.14h22.03v10.95h-22.03z"/></g><path fill="#222423" d="M1039.32 334.58h22v-11h11v-11h-11v-11h-22v-22h-11v-22h-22v10.86h-33v-10.86h-22v44h-11v11h-11v22h-11v44h11.03-.03v11h11v11h-11v22h-11v33h-22v11.05h-22v10.95h-11v10.97h-11v11h7.11v.03h-18.11v44h10.98v11h33.02v-11h11v-22h11v-11h22v11h11v44h88.11v-22h-11.04.04v-11h21.89v-11h11v-22h11v-44h-11v-22h-11v-11h-11v-11h11v-11h11v-11h11v-11h11v-22h-11v-11h-22v-11Z"/><g fill="#ffe8b6"><path d="M973.32 279.58v-11h-11v44h11v-11h11v-22h-11zM918.32 466.64h-22v21.94h11v10.97h11v-10.97h11v-11h-11v-10.94zM885.32 499.55v-10.97h-11v10.97h-11v11h11v11.03h22v-22.03h-11z"/></g><g fill="red"><path d="M984.32 279.58v22h-11v11h22v-11h33v-22h-44zM940.32 334.58h22v-11h11v-11h-33v22zM918.32 466.64h11v11h-11zM896.32 488.55v-10.97h-11v21.97h11v11.03h11v-22.03h-11zM874.32 521.57v-10.99h-11v.02H852.3v21.99h11.02v10.99h22v-22.01h-11zM951.33 466.58v11.06h33v-22l-11.01-.06v-33h-11.06v-11h-21.94v11h-10.97v33h10.97v11h11.01zM1006.37 532.58h-55.04v22h66.1v-11h-11.06v-11z"/></g><g fill="#ffd7d7"><path d="M1039.37 433.55h-11.05v-10.97h-33v10.97h-11v22.03h11v11.06h33v-11.06h11.05v-22.03zM1039.37 466.66h10.95v22.03h-10.95zM995.36 477.61h22.03v10.95h-22.03zM1028.32 356.58v-33h-44v11h-11v22h11v11h-10.97v11h-11.08v-11h-10.95v-22h-22v33h11v11h22v11h11v11h55v-11h-22v-11h-22v-11h11v-11h11v11h11v11h33v-11h11v-22h-33Zm-22-22h11v22h-11v-22Z"/></g><path fill="#f7f7f7" d="M361.63 78.67h11v-11h44v-22h33v22h46.55v11h8.45v66h13.69v18.71h-24.69v36.29h-8.7v11h-101.3v-11h-12.56v-29.61h-20.44v-30.89h11v-60.5z"/><g fill="red"><path d="M499.13 95.17v11h-11v33h11v11h11v-55h-11zM488.13 62.17h-22v-11h-22v22h11v22h11v-11h11v-11h11v-11zM411.13 95.17v11h-11v33h11v11h44v-11h11v-33h-11v-11h-44zM367.13 95.17h-11v55h11v-11h11v-33h-11v-11zM411.13 73.17h11v-22h-22v11h-22v11h11v11h11v11h11v-22z"/></g><g fill="#222423"><path d="M466.13 51.17h22v11h-22zM488.13 84.17h11v11h11v-22h-11v-11h-11v22zM510.13 95.17v66h-22v-11h-110v11h-22v-66h-11v77h11v11h11v22h11v11h110v-11h11v-22h11v-11h11v-77h-11Zm-22 99h-11v11h-88v-11h-11v-22h11v-11h22v22h11v-22h22v22h11v-22h22v11h11v22ZM378.13 51.17h22v11h-22zM367.13 84.17h11v-22h-11v11h-11v22h11v-11zM400.13 40.17h66v11h-66z"/></g><path fill="#222423" d="M778.24 128.17v-11h11v-55h-11v-11h-22v-11h-110v11h-22v11h-11v55h11v11h22v11h33v22h-11v-11h-22v-11h-22v11h-11v33h11v11h11v11h22v11h88v-11h22v-11h11v-11h11v-33h-11v-11h-22v11h-22v11h-11v-22h33v-11h22z"/><g fill="#00bf00"><path d="M756.24 150.17v11h11v11h-11v11h-11v11h22v-11h11v-33h-22z"/><path d="M745.24 183.17v-11h11v-11h-22v11h-11v22h11v-11h11zM734.24 194.17h11v11h-11zM646.24 183.17v-11h-11v-11h11v-11h-22v33h11v11h22v-11h-11zM657.24 194.17h11v11h-11z"/><path d="M668.24 172.17v-11h-22v11h11v11h11v11h11v-22h-11zM712.24 139.17h-22v55h-11v11h44v-11h-11v-55z"/></g><g fill="#faeab3"><path d="M679.24 73.17h44v11h-44zM679.24 95.17h44v11h-44zM657.24 84.17h22v11h-22zM723.24 84.17h22v11h-22z"/></g><path fill="red" d="M767.24 73.17v-11h-22v-11h-88v11h-22v11h-11v33h11v11h22v11h88v-11h22v-11h11v-33h-11Zm-33 33v11h-66v-11h-22v-33h22v-11h66v11h22v33h-22Z"/><path fill="#222423" d="M1066.82 139.17v-11h-11v-11h-11v-11h-11v-11h-22v-11h-22v-11h-44v-22h-11v-11h-11v11h-11v22h11v22h-11v33h11v22h11v11h11v11h11v11h11v11h66v-11h33v-11h11v-11h11v-22h-22z"/><g fill="#fa3700"><path d="M923.82 51.17h11v22h-11zM978.82 95.17v11h22v11h33v-11h-22v-11h-22v-11h-33v11h22zM1033.82 117.17h11v11h-11z"/><path d="M1055.82 150.17v-11h-22v-11h-11v22h11v11h-11v-11h-11v-22h-11v-11h-22v22h11v11h-11v-11h-11v-33h-11v-11h-33v33h11v22h11v11h11v11h22v11h55v-11h22v-11h22v-11h-22zM934.82 73.17h11v11h-11z"/></g></svg>