<svg xmlns="http://www.w3.org/2000/svg" width="1500" height="548" viewBox="0 0 1500 548"><path fill="#fff" d="M-5.97-5.86h1519.79v918.58H-5.97z" data-name="Layer 2"/><g data-name="Layer 1"><path fill="#313c61" opacity=".1" d="M575.68 44.23l228.38 231.92v26.96H575.68V44.23z"/><path fill="none" stroke="#000" stroke-linecap="round" stroke-linejoin="round" stroke-width="2.11" d="M407.14 338.37h983.19M407.14 321.69v33.37M1390.33 321.69v33.37M786.51 321.69v33.37"/><path d="M382.48 401.08c0-8.56 3.08-13.16 8.19-13.16s8.16 4.6 8.16 13.16-3.08 13.32-8.16 13.32-8.19-4.76-8.19-13.32zm13.15 0c0-7.48-2-10.52-5-10.52s-5 3-5 10.52 2 10.68 5 10.68 5-3.2 5-10.68zM402 395.44c0-5.28 2.36-8.24 6-8.24s6 3 6 8.24-2.4 8.32-6 8.32-6-3.04-6-8.32zm9.39 0c0-4.2-1.39-6.2-3.43-6.2s-3.48 2-3.48 6.2 1.4 6.28 3.48 6.28 3.43-2.12 3.43-6.28zm-2.68 19l14.48-27.2h2.2l-14.47 27.2zm11.56-8.32c0-5.24 2.36-8.24 6-8.24s6 3 6 8.24-2.4 8.32-6 8.32-6-3.04-6-8.36zm9.4 0c0-4.16-1.4-6.2-3.44-6.2s-3.48 2-3.48 6.2 1.44 6.28 3.48 6.28 3.44-2.16 3.44-6.32zM379.28 469.08c0-8.56 3.08-13.16 8.19-13.16s8.16 4.6 8.16 13.16-3.08 13.32-8.16 13.32-8.19-4.76-8.19-13.32zm13.15 0c0-7.48-2-10.52-5-10.52s-5 3-5 10.52 2 10.68 5 10.68 5-3.2 5-10.68zM404 483.56v6.56h-3.28v-27.64h2.72l.28 2.24h.12A10 10 0 0 1 410 462c5 0 7.68 3.88 7.68 9.92 0 6.6-4 10.48-8.4 10.48a9 9 0 0 1-5.39-2.24zm4.75-3.92c3.2 0 5.56-2.92 5.56-7.72 0-4.28-1.44-7.16-5.12-7.16-1.64 0-3.27.92-5.19 2.64v10.2a7.65 7.65 0 0 0 4.71 2.04zM425.83 471.76l-5.83-9.28h3.56l2.6 4.28c.59 1 1.23 2.16 1.91 3.24h.16c.56-1.08 1.16-2.2 1.76-3.24l2.36-4.28h3.44l-5.88 9.64 6.32 9.8h-3.56l-2.84-4.52c-.68-1.16-1.4-2.36-2.12-3.48h-.16c-.68 1.12-1.32 2.28-2 3.48l-2.63 4.52h-3.44zM768.91 406.88h-3.48v7h-3.12v-7h-11.48v-2.16l10.92-16.32h3.68v15.84h3.48zm-6.6-2.64v-7.4c0-1.36.12-3.56.2-4.92h-.16c-.64 1.24-1.36 2.36-2.08 3.6l-6 8.72zM772.75 408.64a8.66 8.66 0 0 0 6.52 3c3.08 0 5.28-1.84 5.28-4.68 0-3-2.08-5.08-8.16-5.08v-2.48c5.44 0 7.24-2.08 7.24-4.76 0-2.48-1.68-4-4.4-4a7.74 7.74 0 0 0-5.44 2.6l-1.79-2.12a10.51 10.51 0 0 1 7.32-3.2c4.44 0 7.64 2.36 7.64 6.48 0 3.08-1.88 5-4.64 6.08v.16c3.08.72 5.52 3 5.52 6.48 0 4.52-3.72 7.28-8.4 7.28a10.84 10.84 0 0 1-8.4-3.6zM791.31 395.44c0-5.28 2.36-8.24 6-8.24s6 3 6 8.24-2.4 8.32-6 8.32-6-3.04-6-8.32zm9.4 0c0-4.2-1.4-6.2-3.44-6.2s-3.48 2-3.48 6.2 1.4 6.28 3.48 6.28 3.44-2.12 3.44-6.28zm-2.68 19l14.47-27.2h2.2l-14.47 27.2zm11.55-8.32c0-5.24 2.36-8.24 6-8.24s6 3 6 8.24-2.4 8.32-6 8.32-6-3.04-6-8.36zm9.4 0c0-4.16-1.4-6.2-3.44-6.2s-3.48 2-3.48 6.2 1.44 6.28 3.48 6.28 3.46-2.16 3.46-6.32zM730.23 479.2h5.84v-18.8h-4.64v-2.12a15.18 15.18 0 0 0 5.4-1.88h2.52v22.8h5.27v2.72h-14.39zM748.55 480c7.68-7.64 12-12.24 12-16.36 0-2.92-1.6-5-4.84-5-2.12 0-4 1.36-5.44 3.08l-1.88-1.88c2.12-2.32 4.4-3.88 7.72-3.88 4.72 0 7.64 3 7.64 7.52 0 4.8-4.36 9.56-10.4 15.88 1.4-.12 3-.24 4.28-.24H765v2.84h-16.45zM770.71 477.64a5.6 5.6 0 0 0 4.2 2c3.6 0 6.64-2.8 6.76-11a8 8 0 0 1-6 3.28c-4.4 0-7.24-2.64-7.24-7.88 0-4.88 3.44-8.2 7.52-8.2 5 0 8.8 4.08 8.8 12.28 0 10.24-4.64 14.2-9.72 14.2a8.16 8.16 0 0 1-6.16-2.68zm10.88-11.52c-.44-5-2.4-7.6-5.64-7.6-2.48 0-4.44 2.24-4.44 5.6s1.56 5.4 4.72 5.4c1.64 0 3.64-.96 5.36-3.4zM788.47 469.08c0-8.56 3.08-13.16 8.2-13.16s8.16 4.6 8.16 13.16-3.08 13.32-8.16 13.32-8.2-4.76-8.2-13.32zm13.16 0c0-7.48-2-10.52-5-10.52s-5 3-5 10.52 2 10.68 5 10.68 5-3.2 5-10.68zM813.15 483.56v6.56h-3.28v-27.64h2.72l.28 2.24h.13a10.06 10.06 0 0 1 6.19-2.72c5 0 7.68 3.88 7.68 9.92 0 6.6-4 10.48-8.4 10.48a9 9 0 0 1-5.39-2.24zm4.76-3.92c3.19 0 5.55-2.92 5.55-7.72 0-4.28-1.44-7.16-5.12-7.16-1.63 0-3.27.92-5.19 2.64v10.2a7.67 7.67 0 0 0 4.76 2.04zM835 471.76l-5.88-9.28h3.56l2.6 4.28c.6 1 1.24 2.16 1.92 3.24h.16c.56-1.08 1.16-2.2 1.76-3.24l2.35-4.28h3.44l-5.87 9.64 6.31 9.8h-3.55l-2.8-4.52c-.68-1.16-1.4-2.36-2.12-3.48h-.16c-.68 1.12-1.32 2.28-2 3.48l-2.64 4.52h-3.44zM1347.19 411.2h5.81v-18.8h-4.63v-2.12a15.25 15.25 0 0 0 5.4-1.88h2.51v22.8h5.28v2.72h-14.39zM1365.67 401.08c0-8.56 3.08-13.16 8.19-13.16s8.16 4.6 8.16 13.16-3.08 13.32-8.16 13.32-8.19-4.76-8.19-13.32zm13.15 0c0-7.48-2-10.52-5-10.52s-5 3-5 10.52 2 10.68 5 10.68 5-3.2 5-10.68zM1385.55 401.08c0-8.56 3.07-13.16 8.19-13.16s8.16 4.6 8.16 13.16-3.08 13.32-8.16 13.32-8.19-4.76-8.19-13.32zm13.15 0c0-7.48-2-10.52-5-10.52s-5 3-5 10.52 2 10.68 5 10.68 5-3.2 5-10.68zM1405.07 395.44c0-5.28 2.36-8.24 6-8.24s6 3 6 8.24-2.4 8.32-6 8.32-6-3.04-6-8.32zm9.39 0c0-4.2-1.4-6.2-3.44-6.2s-3.48 2-3.48 6.2 1.41 6.28 3.48 6.28 3.44-2.12 3.44-6.28zm-2.68 19l14.48-27.2h2.2L1414 414.4zm11.56-8.32c0-5.24 2.36-8.24 6-8.24s6 3 6 8.24-2.4 8.32-6 8.32-6-3.04-6-8.36zm9.4 0c0-4.16-1.4-6.2-3.44-6.2s-3.48 2-3.48 6.2 1.44 6.28 3.48 6.28 3.44-2.16 3.44-6.32zM1333.61 476.64a8.66 8.66 0 0 0 6.51 3c3.09 0 5.28-1.84 5.28-4.68 0-3-2.08-5.08-8.15-5.08v-2.48c5.43 0 7.23-2.08 7.23-4.76 0-2.48-1.68-4-4.4-4a7.73 7.73 0 0 0-5.43 2.6l-1.76-2.08a10.51 10.51 0 0 1 7.32-3.2c4.43 0 7.63 2.36 7.63 6.48 0 3.08-1.88 5-4.63 6.08v.16c3.07.72 5.51 3 5.51 6.48 0 4.52-3.72 7.28-8.39 7.28a10.84 10.84 0 0 1-8.4-3.6zM1352.53 469.08c0-8.56 3.08-13.16 8.19-13.16s8.16 4.6 8.16 13.16-3.08 13.32-8.16 13.32-8.19-4.76-8.19-13.32zm13.15 0c0-7.48-2-10.52-5-10.52s-5 3-5 10.52 2 10.68 5 10.68 5-3.2 5-10.68zM1372.41 469.08c0-8.56 3.08-13.16 8.19-13.16s8.16 4.6 8.16 13.16-3.08 13.32-8.16 13.32-8.19-4.76-8.19-13.32zm13.15 0c0-7.48-2-10.52-5-10.52s-5 3-5 10.52 2 10.68 5 10.68 5-3.2 5-10.68zM1392.29 469.08c0-8.56 3.08-13.16 8.19-13.16s8.16 4.6 8.16 13.16-3.08 13.32-8.16 13.32-8.19-4.76-8.19-13.32zm13.15 0c0-7.48-2-10.52-5-10.52s-5 3-5 10.52 2 10.68 5 10.68 5-3.2 5-10.68zM1417 483.56v6.56h-3.28v-27.64h2.72l.28 2.24h.12A10.06 10.06 0 0 1 1423 462c5 0 7.68 3.88 7.68 9.92 0 6.6-4 10.48-8.4 10.48a9 9 0 0 1-5.4-2.24zm4.76-3.92c3.2 0 5.56-2.92 5.56-7.72 0-4.28-1.44-7.16-5.12-7.16-1.64 0-3.28.92-5.2 2.64v10.2a7.69 7.69 0 0 0 4.72 2.04zM1438.84 471.76l-5.87-9.28h3.56l2.59 4.28c.6 1 1.24 2.16 1.92 3.24h.16c.56-1.08 1.16-2.2 1.76-3.24l2.36-4.28h3.44l-5.88 9.64 6.32 9.8h-3.56l-2.84-4.52c-.68-1.16-1.4-2.36-2.12-3.48h-.16c-.68 1.12-1.32 2.28-2 3.48l-2.64 4.52h-3.43z"/><path fill="#313c61" d="M238.59 44.23h337.08v258.88H238.59zM768.96 276.15h35.1v26.96h-35.1z"/><path d="M110.94 183.6c5.76-5.73 9-9.18 9-12.27 0-2.19-1.2-3.75-3.63-3.75a5.64 5.64 0 0 0-4.08 2.31l-1.41-1.41a7.51 7.51 0 0 1 5.79-2.91c3.54 0 5.73 2.25 5.73 5.64 0 3.6-3.27 7.17-7.8 11.91 1-.09 2.22-.18 3.21-.18h5.55v2.13h-12.36zM138.72 179.79h-2.61v5.28h-2.34v-5.28h-8.61v-1.62l8.19-12.24h2.76v11.88h2.61zm-4.95-2v-5.55c0-1 .09-2.67.15-3.69h-.12c-.48.93-1 1.77-1.56 2.7l-4.47 6.54zM140.88 175.44c0-6.42 2.31-9.87 6.15-9.87s6.12 3.45 6.12 9.87-2.31 10-6.12 10-6.15-3.58-6.15-10zm9.87 0c0-5.61-1.5-7.89-3.72-7.89s-3.75 2.28-3.75 7.89 1.5 8 3.75 8 3.72-2.39 3.72-8zM155.79 175.44c0-6.42 2.31-9.87 6.15-9.87s6.12 3.45 6.12 9.87-2.31 10-6.12 10-6.15-3.58-6.15-10zm9.87 0c0-5.61-1.5-7.89-3.72-7.89s-3.75 2.28-3.75 7.89 1.5 8 3.75 8 3.72-2.39 3.72-8zM169.74 170.49h2.55l2.76 8.28c.42 1.44.9 2.91 1.35 4.29h.12c.42-1.38.9-2.85 1.32-4.29l2.76-8.28h2.4l-5.16 14.58H175zM185.85 163.71h2.46v5.82l-.09 3c1.38-1.32 2.85-2.4 4.86-2.4 3.06 0 4.44 2 4.44 5.7v9.24h-2.46v-8.91c0-2.73-.84-3.9-2.76-3.9-1.5 0-2.52.78-4 2.25v10.56h-2.46zM817.35 296.38a6.51 6.51 0 0 0 4.83 2.19 4.13 4.13 0 0 0 4.2-4.38 3.85 3.85 0 0 0-4.08-4.2 5.39 5.39 0 0 0-3.27 1.17l-1.32-.84.63-9.21h9.57v2.13h-7.41l-.51 5.67a5.88 5.88 0 0 1 2.94-.78c3.27 0 5.94 1.86 5.94 6a6.26 6.26 0 0 1-6.45 6.48 8.39 8.39 0 0 1-6.27-2.61zM830.67 285.67h2.54L836 294c.42 1.44.9 2.91 1.35 4.29h.12c.42-1.38.9-2.85 1.32-4.29l2.76-8.28H844l-5.17 14.58h-2.87zM846.78 278.89h2.46v5.82l-.09 3c1.38-1.32 2.85-2.4 4.85-2.4 3.06 0 4.45 2 4.45 5.7v9.24H856v-8.91c0-2.73-.85-3.9-2.77-3.9-1.49 0-2.51.78-4 2.25v10.56h-2.46z"/><path fill="none" stroke="#000" stroke-linecap="round" stroke-linejoin="round" stroke-width="2.11" d="M224.48 44.23h-69.76v97.6M224.48 303.11h-69.76v-97.6"/><path d="M352.1 187.12a8.74 8.74 0 0 0 5.72 2.32c2.56 0 3.84-1.36 3.84-3 0-2-2.32-2.88-4.44-3.68-2.76-1-5.8-2.32-5.8-5.6 0-3.12 2.48-5.52 6.68-5.52a9.7 9.7 0 0 1 6 2.2l-1.56 2.08a7.22 7.22 0 0 0-4.44-1.72c-2.44 0-3.56 1.32-3.56 2.8 0 1.8 2.12 2.52 4.32 3.36 2.8 1 5.92 2.2 5.92 5.88 0 3.16-2.52 5.8-7.12 5.8a11.7 11.7 0 0 1-7.24-2.68zM377.3 171.6a8 8 0 0 1 5.67 2.32l-1.64 2.08a5.83 5.83 0 0 0-3.91-1.72c-3.52 0-6.08 3-6.08 7.52s2.44 7.44 6 7.44a6.88 6.88 0 0 0 4.55-2l1.49 2.16a9.63 9.63 0 0 1-6.32 2.52c-5.16 0-9.12-3.72-9.12-10.16s4.36-10.16 9.36-10.16zM394.06 171.6c4.95 0 7.75 3.56 7.75 9.12a11.59 11.59 0 0 1-.12 1.8h-13.11c.24 4.2 2.76 6.84 6.47 6.84a8.78 8.78 0 0 0 4.84-1.52l1.16 2.16a11.57 11.57 0 0 1-6.39 2c-5.2 0-9.32-3.8-9.32-10.16s4.28-10.24 8.72-10.24zm4.87 8.76c0-4-1.76-6.16-4.79-6.16-2.72 0-5.2 2.24-5.6 6.16zM406.62 172.08h2.72l.28 2.8h.12c1.84-1.84 3.84-3.28 6.51-3.28 4.08 0 5.92 2.64 5.92 7.6v12.32h-3.28v-11.88c0-3.64-1.12-5.2-3.68-5.2-2 0-3.35 1-5.31 3v14.08h-3.28zM435.78 171.6c5 0 7.75 3.56 7.75 9.12a11.59 11.59 0 0 1-.12 1.8H430.3c.24 4.2 2.76 6.84 6.47 6.84a8.78 8.78 0 0 0 4.84-1.52l1.16 2.16a11.57 11.57 0 0 1-6.39 2c-5.2 0-9.32-3.8-9.32-10.16s4.28-10.24 8.72-10.24zm4.87 8.76c0-4-1.76-6.16-4.79-6.16-2.72 0-5.2 2.24-5.6 6.16zM446.82 178.68c0-8.56 3.08-13.16 8.19-13.16s8.16 4.6 8.16 13.16S460.09 192 455 192s-8.18-4.76-8.18-13.32zm13.15 0c0-7.48-2-10.52-5-10.52s-5 3-5 10.52 2 10.68 5 10.68 5.03-3.2 5.03-10.68z" fill="#fff"/><path d="M74 387.68h3.36v13.16h.08l10.92-13.16h3.8l-8.24 10 9.48 16.24h-3.72l-7.84-13.64-4.48 5.32v8.32H74zM103.8 394c5 0 7.76 3.56 7.76 9.12a11.59 11.59 0 0 1-.12 1.8H98.32c.24 4.2 2.76 6.84 6.48 6.84a8.78 8.78 0 0 0 4.84-1.52l1.16 2.16a11.58 11.58 0 0 1-6.4 2c-5.2 0-9.32-3.8-9.32-10.16S99.36 394 103.8 394zm4.88 8.76c0-4-1.76-6.16-4.8-6.16-2.72 0-5.2 2.24-5.6 6.16zM116.72 419.56c2.2 0 3.6-1.76 4.4-4.16l.44-1.44-7.8-19.48h3.4l4 10.76c.6 1.68 1.28 3.68 1.88 5.48h.16c.56-1.76 1.12-3.76 1.64-5.48l3.48-10.76h3.2l-7.32 21c-1.36 3.84-3.36 6.76-7.28 6.76a6.46 6.46 0 0 1-2.28-.4l.64-2.6a5.72 5.72 0 0 0 1.44.32zM144 388.12a5.46 5.46 0 0 0-2.2-.48c-1.84 0-2.72 1.28-2.72 3.76v3.08h4.12v2.68h-4.12v16.76h-3.28v-16.76h-2.64v-2.48l2.64-.2v-3.08c0-4 1.8-6.44 5.68-6.44a9 9 0 0 1 3.24.64zM146.92 394.48h2.72l.28 3.52h.08c1.32-2.44 3.32-4 5.52-4a4.83 4.83 0 0 1 2.08.4l-.64 2.88a5.44 5.44 0 0 0-1.88-.32c-1.64 0-3.6 1.2-4.92 4.48v12.48h-3.28zM170.8 401.6c0-2.48-.84-4.88-4-4.88a10.46 10.46 0 0 0-5.8 2.08l-1.32-2.28a14.43 14.43 0 0 1 7.64-2.52c4.76 0 6.76 3.16 6.76 8v11.92h-2.72l-.28-2.32H171c-1.88 1.52-4 2.8-6.44 2.8-3.28 0-5.72-2-5.72-5.52 0-4.24 3.68-6.36 11.96-7.28zm-5.32 10.16c1.88 0 3.44-.92 5.32-2.6v-5.4c-6.52.8-8.72 2.4-8.72 4.88 0 2.2 1.48 3.12 3.4 3.12zM180.28 394.48H183l.28 2.8h.12c1.68-1.84 3.72-3.28 6-3.28a5.1 5.1 0 0 1 5.36 3.72c2-2.2 4-3.72 6.4-3.72 4 0 5.92 2.64 5.92 7.6v12.32h-3.28V402c0-3.64-1.16-5.2-3.6-5.2-1.52 0-3.08 1-4.88 3v14.08h-3.28V402c0-3.64-1.16-5.2-3.64-5.2-1.44 0-3.08 1-4.88 3v14.08h-3.28zM220.72 394c5 0 7.76 3.56 7.76 9.12a11.59 11.59 0 0 1-.12 1.8h-13.12c.24 4.2 2.76 6.84 6.48 6.84a8.78 8.78 0 0 0 4.84-1.52l1.16 2.16a11.58 11.58 0 0 1-6.4 2c-5.2 0-9.32-3.8-9.32-10.16s4.28-10.24 8.72-10.24zm4.88 8.76c0-4-1.76-6.16-4.8-6.16-2.72 0-5.2 2.24-5.6 6.16zM232.76 409.52a8.74 8.74 0 0 0 5.72 2.32c2.56 0 3.84-1.36 3.84-3 0-2-2.32-2.88-4.44-3.68-2.76-1-5.8-2.32-5.8-5.6 0-3.12 2.48-5.52 6.68-5.52a9.7 9.7 0 0 1 6 2.2l-1.56 2.08a7.22 7.22 0 0 0-4.44-1.72c-2.44 0-3.56 1.32-3.56 2.8 0 1.8 2.12 2.52 4.32 3.36 2.8 1 5.92 2.2 5.92 5.88 0 3.16-2.52 5.8-7.12 5.8a11.7 11.7 0 0 1-7.24-2.68zM251.76 395a2.5 2.5 0 1 1-2.4 2.52 2.38 2.38 0 0 1 2.4-2.52zm0 14.4a2.52 2.52 0 1 1-2.4 2.56 2.42 2.42 0 0 1 2.4-2.6zM74 455.68h7.8c5.32 0 9 1.8 9 6.4a5.7 5.7 0 0 1-4.6 5.72v.2c3.84.6 6.08 2.68 6.08 6.28 0 5.16-4.08 7.68-9.92 7.68H74zm7.24 11.2c4.44 0 6.32-1.6 6.32-4.52s-2.12-4-6.16-4h-4v8.56zm.68 12.4c4.48 0 7.12-1.64 7.12-5.2 0-3.24-2.52-4.72-7.12-4.72h-4.56v9.92zM97.12 462.48h2.72l.28 3.52h.12c1.32-2.44 3.32-4 5.52-4a4.83 4.83 0 0 1 2.08.4l-.64 2.88a5.44 5.44 0 0 0-1.88-.32c-1.64 0-3.6 1.2-4.92 4.48v12.48h-3.28zM118.16 462c4.76 0 9 3.72 9 10.24s-4.24 10.16-9 10.16-9-3.72-9-10.16 4.24-10.24 9-10.24zm0 17.68c3.36 0 5.6-3 5.6-7.44s-2.24-7.52-5.6-7.52-5.6 3-5.6 7.52 2.28 7.44 5.6 7.44zM129.8 462.48h3.36l2.84 11.24c.44 1.84.8 3.6 1.16 5.4h.16c.44-1.8.84-3.6 1.32-5.4l3-11.24h3.2l3 11.24c.48 1.84.92 3.6 1.36 5.4h.16c.44-1.8.8-3.56 1.2-5.4l2.84-11.24h3.12l-5.2 19.44h-4l-2.8-10.44c-.48-1.84-.84-3.64-1.32-5.6h-.16c-.44 2-.84 3.8-1.36 5.64l-2.68 10.4h-3.8zM160.32 477.52a8.74 8.74 0 0 0 5.72 2.32c2.56 0 3.84-1.36 3.84-3 0-2-2.32-2.88-4.44-3.68-2.76-1-5.8-2.32-5.8-5.6 0-3.12 2.48-5.52 6.68-5.52a9.7 9.7 0 0 1 6 2.2l-1.56 2.08a7.22 7.22 0 0 0-4.44-1.72c-2.44 0-3.56 1.32-3.56 2.8 0 1.8 2.12 2.52 4.32 3.36 2.8 1 5.92 2.2 5.92 5.88 0 3.16-2.52 5.8-7.12 5.8a11.7 11.7 0 0 1-7.24-2.68zM184.88 462c5 0 7.76 3.56 7.76 9.12a11.59 11.59 0 0 1-.12 1.8H179.4c.24 4.2 2.76 6.84 6.48 6.84a8.78 8.78 0 0 0 4.84-1.52l1.16 2.16a11.58 11.58 0 0 1-6.4 2c-5.2 0-9.32-3.8-9.32-10.16s4.28-10.24 8.72-10.24zm4.88 8.76c0-4-1.76-6.16-4.8-6.16-2.72 0-5.2 2.24-5.6 6.16zM197.44 462.48h2.72l.28 3.52h.12c1.32-2.44 3.32-4 5.52-4a4.83 4.83 0 0 1 2.08.4l-.64 2.88a5.44 5.44 0 0 0-1.88-.32c-1.64 0-3.6 1.2-4.92 4.48v12.48h-3.28zM217.08 462.48h3.36l2.88 11.24c.44 1.84.8 3.6 1.16 5.4h.16c.44-1.8.84-3.6 1.32-5.4l3-11.24h3.2l3 11.24c.48 1.84.92 3.6 1.36 5.4h.16c.44-1.8.8-3.56 1.2-5.4l2.84-11.24h3.12l-5.2 19.44h-4l-2.8-10.44c-.48-1.84-.84-3.64-1.32-5.6h-.16c-.44 2-.84 3.8-1.36 5.64l-2.72 10.4h-3.84zM247.52 456.36a2.29 2.29 0 0 1 4.56 0 2.29 2.29 0 0 1-4.56 0zm.6 6.12h3.28v19.44h-3.28zM265 462a8 8 0 0 1 5.44 2.24l-.16-3.32v-7.48h3.32v28.48h-2.72l-.28-2.28h-.12a8.77 8.77 0 0 1-5.88 2.76c-4.88 0-8-3.68-8-10.16-.04-6.32 3.96-10.24 8.4-10.24zm.32 17.64c1.8 0 3.36-.88 5-2.68V466.8a6.77 6.77 0 0 0-4.72-2c-3.12 0-5.6 3-5.6 7.44 0 4.6 1.92 7.4 5.32 7.4zM280.72 465.16h-2.88v-2.48l3-.2.4-5.44H284v5.44h5.24v2.68H284V476c0 2.4.76 3.76 3 3.76a7.06 7.06 0 0 0 2.2-.52l.64 2.48a12 12 0 0 1-3.6.72c-4.16 0-5.56-2.64-5.56-6.48zM293.68 453.44H297v7.76l-.12 4c1.84-1.76 3.8-3.2 6.48-3.2 4.08 0 5.92 2.64 5.92 7.6v12.32H306V470c0-3.64-1.12-5.2-3.68-5.2-2 0-3.36 1-5.32 3v14.08h-3.28zM317.16 463a2.5 2.5 0 1 1-2.4 2.52 2.38 2.38 0 0 1 2.4-2.52zm0 14.4a2.52 2.52 0 1 1-2.4 2.56 2.42 2.42 0 0 1 2.4-2.6z"/></g></svg>