<svg xmlns="http://www.w3.org/2000/svg" width="1500" height="548" viewBox="0 0 1500 548"><defs><linearGradient id="a" x1="803.96" y1="258.13" x2="1331.04" y2="258.13" gradientUnits="userSpaceOnUse"><stop offset="0" stop-color="#fff"/><stop offset="1" stop-color="#313c61"/></linearGradient><linearGradient id="b" x1="510.87" y1="116.98" x2="844.69" y2="116.98" gradientUnits="userSpaceOnUse"><stop offset="0" stop-color="#fff"/><stop offset="1" stop-color="#d95e47"/></linearGradient></defs><path fill="#fff" d="M-5.97-5.86h1519.79v568.59H-5.97z" data-name="Layer 2"/><g data-name="Layer 1"><path fill="none" stroke="#000" stroke-linecap="round" stroke-linejoin="round" stroke-width="2.11" d="M451.58 321.69v33.37M1390.33 321.69v33.37M900.94 321.69v33.37M744.67 321.69v33.37M381.06 338.37H1444.4"/><path fill="none" stroke="#313c61" stroke-miterlimit="10" stroke-width=".82" d="M685.38 219.23h118.58v77.81H685.38z"/><path d="M706 253.23h2l1.7 6.64c.26 1.08.47 2.12.69 3.19h.09c.26-1.07.5-2.13.78-3.19l1.77-6.64h1.89l1.8 6.64c.28 1.08.54 2.12.8 3.19h.09c.26-1.07.48-2.11.71-3.19l1.68-6.64h1.84l-3.07 11.48h-2.37l-1.65-6.17c-.29-1.08-.5-2.14-.78-3.3h-.1c-.26 1.16-.49 2.24-.8 3.33l-1.61 6.14h-2.27zM724 249.62a1.35 1.35 0 0 1 2.69 0 1.35 1.35 0 0 1-2.69 0zm.35 3.61h1.94v11.48h-1.94zM730.14 253.23h1.61l.16 1.65h.09a5.44 5.44 0 0 1 3.85-1.93c2.41 0 3.5 1.56 3.5 4.48v7.28h-1.94v-7c0-2.15-.66-3.07-2.17-3.07-1.18 0-2 .62-3.14 1.78v8.31h-1.94zM747.22 253a4.72 4.72 0 0 1 3.21 1.32l-.1-2v-4.42h2v16.82h-1.61l-.17-1.35h-.07A5.12 5.12 0 0 1 747 265c-2.88 0-4.75-2.17-4.75-6s2.35-6 4.97-6zm.19 10.41a3.87 3.87 0 0 0 2.92-1.58v-6a4 4 0 0 0-2.78-1.2c-1.84 0-3.31 1.77-3.31 4.39s1.16 4.34 3.17 4.34zM760.63 253c2.81 0 5.32 2.19 5.32 6s-2.51 6-5.32 6-5.31-2.19-5.31-6 2.5-6 5.31-6zm0 10.44c2 0 3.31-1.77 3.31-4.4s-1.32-4.44-3.31-4.44-3.3 1.8-3.3 4.44 1.34 4.35 3.3 4.35zM767.5 253.23h2l1.7 6.64c.26 1.08.47 2.12.68 3.19h.1c.26-1.07.49-2.13.78-3.19l1.77-6.64h1.89l1.79 6.64c.29 1.08.55 2.12.81 3.19h.09c.26-1.07.47-2.11.71-3.19l1.68-6.64h1.84l-3.07 11.48h-2.37l-1.66-6.17c-.28-1.08-.49-2.14-.78-3.3h-.09c-.26 1.16-.5 2.24-.8 3.33l-1.57 6.14h-2.27z"/><path fill="#313c61" d="M1331.04 219.23h118.58v77.81h-118.58z"/><path d="M1351.66 253.23h2l1.7 6.64c.26 1.08.47 2.12.68 3.19h.1c.26-1.07.49-2.13.78-3.19l1.77-6.64h1.89l1.79 6.64c.29 1.08.55 2.12.81 3.19h.09c.26-1.07.47-2.11.71-3.19l1.68-6.64h1.84l-3.07 11.48h-2.36l-1.66-6.17c-.28-1.08-.49-2.14-.78-3.3h-.09c-.26 1.16-.5 2.24-.8 3.33l-1.61 6.14h-2.27zM1369.64 249.62a1.35 1.35 0 0 1 2.69 0 1.35 1.35 0 0 1-2.69 0zm.35 3.61h1.94v11.48H1370zM1375.8 253.23h1.61l.16 1.65h.07a5.44 5.44 0 0 1 3.85-1.93c2.41 0 3.5 1.56 3.5 4.48v7.28h-1.94v-7c0-2.15-.66-3.07-2.17-3.07-1.18 0-2 .62-3.14 1.78v8.31h-1.94zM1392.88 253a4.72 4.72 0 0 1 3.21 1.32l-.1-2v-4.42h2v16.82h-1.6l-.17-1.35h-.07a5.14 5.14 0 0 1-3.47 1.63c-2.88 0-4.75-2.17-4.75-6s2.32-6 4.95-6zm.18 10.41a3.87 3.87 0 0 0 2.93-1.58v-6a4 4 0 0 0-2.78-1.2c-1.85 0-3.31 1.77-3.31 4.39s1.16 4.34 3.16 4.34zM1406.29 253c2.81 0 5.31 2.19 5.31 6s-2.5 6-5.31 6-5.31-2.19-5.31-6 2.5-6 5.31-6zm0 10.44c2 0 3.31-1.77 3.31-4.4s-1.33-4.44-3.31-4.44-3.31 1.8-3.31 4.44 1.35 4.35 3.31 4.35zM1413.16 253.23h2l1.7 6.64c.26 1.08.47 2.12.68 3.19h.1c.26-1.07.49-2.13.78-3.19l1.77-6.64h1.89l1.79 6.64c.29 1.08.55 2.12.81 3.19h.09c.26-1.07.47-2.11.71-3.19l1.67-6.64h1.85l-3.07 11.48h-2.37l-1.65-6.17c-.28-1.08-.49-2.14-.78-3.3h-.13c-.26 1.16-.5 2.24-.81 3.33l-1.6 6.14h-2.27z" fill="#fff"/><path d="M692.89 188.05c3.51 0 6.64 2.74 6.64 7.56s-3.13 7.5-6.64 7.5-6.65-2.75-6.65-7.5 3.13-7.56 6.65-7.56zm0 13c2.48 0 4.13-2.22 4.13-5.49s-1.65-5.56-4.13-5.56-4.14 2.25-4.14 5.56 1.69 5.54 4.14 5.54zM705.73 204v4.84h-2.42V188.4h2l.21 1.65h.09a7.42 7.42 0 0 1 4.58-2c3.69 0 5.67 2.86 5.67 7.32 0 4.87-2.93 7.74-6.2 7.74a6.63 6.63 0 0 1-4-1.66zm3.51-2.89c2.36 0 4.11-2.16 4.11-5.7 0-3.16-1.07-5.29-3.78-5.29-1.21 0-2.42.68-3.84 1.95v7.53a5.71 5.71 0 0 0 3.51 1.47zM727.4 193.66c0-1.83-.62-3.61-2.95-3.61a7.73 7.73 0 0 0-4.29 1.54l-1-1.68a10.63 10.63 0 0 1 5.64-1.86c3.51 0 5 2.33 5 5.9v8.8h-2l-.2-1.75h-.05a7.84 7.84 0 0 1-4.76 2.07 3.92 3.92 0 0 1-4.22-4.08c0-3.09 2.72-4.65 8.83-5.33zm-3.93 7.5c1.39 0 2.54-.68 3.93-1.92v-4c-4.82.59-6.44 1.77-6.44 3.6a2.2 2.2 0 0 0 2.51 2.32zM740.24 188.05a5.88 5.88 0 0 1 4.19 1.71l-1.21 1.56a4.38 4.38 0 0 0-2.89-1.27c-2.6 0-4.49 2.25-4.49 5.56s1.8 5.49 4.43 5.49a5.08 5.08 0 0 0 3.36-1.45l1.1 1.6a7.13 7.13 0 0 1-4.67 1.86c-3.81 0-6.73-2.75-6.73-7.5s3.22-7.56 6.91-7.56zM747.41 183.88a1.69 1.69 0 0 1 3.37 0 1.69 1.69 0 0 1-3.37 0zm.44 4.52h2.43v14.35h-2.43zM755.53 190.38h-2.13v-1.83l2.25-.15.29-4h2v4h3.87v2H758v8c0 1.77.56 2.78 2.22 2.78a5.12 5.12 0 0 0 1.62-.39l.47 1.83a8.74 8.74 0 0 1-2.66.54c-3.07 0-4.1-2-4.1-4.79zM765.21 206.91c1.63 0 2.66-1.29 3.25-3.07l.33-1.06L763 188.4h2.51l2.92 7.94c.44 1.24.95 2.72 1.39 4h.18c.41-1.3.82-2.78 1.21-4l2.57-7.94h2.36l-5.4 15.53c-1 2.84-2.49 5-5.38 5a4.91 4.91 0 0 1-1.68-.29l.47-1.92a4.21 4.21 0 0 0 1.06.19zM780.15 188.76a1.85 1.85 0 1 1-1.77 1.86 1.75 1.75 0 0 1 1.77-1.86zm0 10.62a1.87 1.87 0 1 1-1.77 1.89 1.78 1.78 0 0 1 1.77-1.89zM791.07 193.27c0-6.31 2.28-9.71 6-9.71s6 3.4 6 9.71-2.27 9.84-6 9.84-6-3.52-6-9.84zm9.72 0c0-5.52-1.48-7.76-3.67-7.76s-3.69 2.24-3.69 7.76 1.48 7.89 3.69 7.89 3.67-2.37 3.67-7.89z"/><path fill="none" stroke="#d95e47" stroke-miterlimit="10" stroke-width=".82" d="M392.29 78.07h118.58v77.81H392.29z"/><path d="M419.08 121a5.2 5.2 0 0 0 3.38 1.37c1.51 0 2.27-.81 2.27-1.8 0-1.18-1.37-1.7-2.62-2.17-1.63-.59-3.43-1.37-3.43-3.31s1.47-3.26 3.95-3.26a5.7 5.7 0 0 1 3.56 1.3l-.92 1.23a4.26 4.26 0 0 0-2.62-1c-1.44 0-2.1.78-2.1 1.66 0 1.06 1.25 1.48 2.55 2 1.65.61 3.5 1.3 3.5 3.47 0 1.87-1.49 3.43-4.21 3.43a6.87 6.87 0 0 1-4.27-1.59zM434 111.79a4.74 4.74 0 0 1 3.36 1.37l-1 1.25a3.47 3.47 0 0 0-2.31-1c-2.08 0-3.59 1.79-3.59 4.44s1.43 4.39 3.54 4.39a4.06 4.06 0 0 0 2.69-1.16l.87 1.28a5.67 5.67 0 0 1-3.73 1.49c-3 0-5.38-2.2-5.38-6s2.55-6.06 5.55-6.06zM443.86 111.79c2.93 0 4.58 2.1 4.58 5.39a6.48 6.48 0 0 1-.07 1.06h-7.75c.15 2.48 1.63 4 3.83 4a5.21 5.21 0 0 0 2.86-.9l.68 1.28a6.89 6.89 0 0 1-3.78 1.18c-3.07 0-5.5-2.25-5.5-6s2.53-6.01 5.15-6.01zm2.88 5.17c0-2.34-1-3.63-2.83-3.63-1.61 0-3.07 1.32-3.31 3.63zM451.27 112.07h1.61l.16 1.66h.08a5.38 5.38 0 0 1 3.85-1.94c2.41 0 3.49 1.56 3.49 4.49v7.27h-1.93v-7c0-2.15-.66-3.07-2.18-3.07-1.18 0-2 .61-3.14 1.77v8.31h-1.94zM468.49 111.79c2.93 0 4.58 2.1 4.58 5.39a6.48 6.48 0 0 1-.07 1.06h-7.74c.14 2.48 1.62 4 3.82 4a5.21 5.21 0 0 0 2.86-.9l.68 1.28a6.88 6.88 0 0 1-3.77 1.18c-3.07 0-5.51-2.25-5.51-6s2.53-6.01 5.15-6.01zm2.88 5.17c0-2.34-1-3.63-2.83-3.63-1.61 0-3.07 1.32-3.31 3.63zM474.91 122.4c4.54-4.52 7.09-7.23 7.09-9.66a2.68 2.68 0 0 0-2.86-3 4.45 4.45 0 0 0-3.21 1.82l-1.11-1.11a5.91 5.91 0 0 1 4.56-2.29 4.18 4.18 0 0 1 4.51 4.44c0 2.84-2.58 5.65-6.14 9.38.83-.07 1.75-.14 2.53-.14h4.37v1.67h-9.74zM399.8 41.41c3.51 0 6.65 2.75 6.65 7.56s-3.14 7.5-6.65 7.5-6.64-2.75-6.64-7.5 3.13-7.56 6.64-7.56zm0 13.05c2.48 0 4.14-2.21 4.14-5.49s-1.66-5.55-4.14-5.55-4.13 2.24-4.13 5.55 1.68 5.49 4.13 5.49zM412.64 57.33v4.84h-2.42v-20.4h2l.21 1.65h.09a7.41 7.41 0 0 1 4.57-2c3.69 0 5.67 2.87 5.67 7.32 0 4.88-2.92 7.74-6.2 7.74a6.68 6.68 0 0 1-4-1.65zm3.52-2.9c2.36 0 4.1-2.15 4.1-5.7 0-3.16-1.06-5.28-3.78-5.28-1.21 0-2.42.68-3.84 1.95v7.53a5.69 5.69 0 0 0 3.52 1.5zM434.31 47c0-1.83-.62-3.6-2.95-3.6a7.77 7.77 0 0 0-4.28 1.6l-1-1.68a10.65 10.65 0 0 1 5.63-1.86c3.52 0 5 2.33 5 5.91v8.8h-2l-.21-1.72h-.06a7.81 7.81 0 0 1-4.75 2.07 3.92 3.92 0 0 1-4.23-4.08c.02-3.17 2.74-4.74 8.85-5.44zm-3.92 7.5c1.38 0 2.54-.68 3.92-1.92v-4c-4.81.59-6.43 1.77-6.43 3.6a2.2 2.2 0 0 0 2.51 2.34zM447.15 41.41a6 6 0 0 1 4.2 1.71l-1.22 1.57a4.31 4.31 0 0 0-2.89-1.27c-2.6 0-4.49 2.24-4.49 5.55s1.8 5.49 4.43 5.49a5.12 5.12 0 0 0 3.37-1.46l1.09 1.6a7.11 7.11 0 0 1-4.64 1.87c-3.81 0-6.74-2.75-6.74-7.5s3.2-7.56 6.89-7.56zM454.33 37.25a1.68 1.68 0 1 1 1.67 1.56 1.56 1.56 0 0 1-1.67-1.56zm.44 4.52h2.42v14.35h-2.42zM462.45 43.74h-2.13v-1.83l2.24-.14.3-4h2v4h3.87v2h-3.87v8c0 1.77.57 2.77 2.22 2.77a5.39 5.39 0 0 0 1.62-.38l.48 1.83a9.11 9.11 0 0 1-2.66.53c-3.07 0-4.1-1.95-4.1-4.78zM472.13 60.28c1.62 0 2.66-1.3 3.25-3.07l.32-1.07-5.76-14.37h2.51l2.93 7.94c.44 1.24.94 2.71 1.38 4h.12c.41-1.3.83-2.77 1.21-4l2.57-7.94H483l-5.4 15.53c-1 2.83-2.48 5-5.37 5a4.77 4.77 0 0 1-1.69-.3l.48-1.92a4.06 4.06 0 0 0 1.11.2zM487.06 42.12a1.85 1.85 0 1 1-1.77 1.88 1.76 1.76 0 0 1 1.77-1.88zm0 10.63a1.86 1.86 0 1 1-1.77 1.89 1.79 1.79 0 0 1 1.77-1.89zM498 46.64c0-6.32 2.27-9.72 6.05-9.72s6 3.4 6 9.72-2.27 9.83-6 9.83S498 53 498 46.64zm9.71 0c0-5.52-1.48-7.77-3.66-7.77s-3.69 2.25-3.69 7.77 1.48 7.88 3.69 7.88 3.65-2.36 3.65-7.88z"/><path fill="#d95e47" d="M844.69 78.07h118.58v77.81H844.69z"/><path d="M871.48 121a5.2 5.2 0 0 0 3.38 1.37c1.51 0 2.27-.81 2.27-1.8 0-1.18-1.37-1.7-2.62-2.17-1.63-.59-3.43-1.37-3.43-3.31s1.47-3.26 3.95-3.26a5.7 5.7 0 0 1 3.56 1.3l-.92 1.23a4.26 4.26 0 0 0-2.62-1c-1.44 0-2.1.78-2.1 1.66 0 1.06 1.25 1.48 2.55 2 1.65.61 3.5 1.3 3.5 3.47 0 1.87-1.49 3.43-4.21 3.43a6.87 6.87 0 0 1-4.27-1.59zM886.36 111.79a4.74 4.74 0 0 1 3.36 1.37l-1 1.25a3.47 3.47 0 0 0-2.32-1c-2.07 0-3.59 1.79-3.59 4.44s1.45 4.39 3.55 4.39a4.06 4.06 0 0 0 2.69-1.16l.87 1.28a5.67 5.67 0 0 1-3.73 1.49c-3.05 0-5.38-2.2-5.38-6s2.6-6.06 5.55-6.06zM896.26 111.79c2.93 0 4.58 2.1 4.58 5.39a6.48 6.48 0 0 1-.07 1.06H893c.15 2.48 1.63 4 3.83 4a5.21 5.21 0 0 0 2.86-.9l.68 1.28a6.89 6.89 0 0 1-3.78 1.18c-3.07 0-5.5-2.25-5.5-6s2.55-6.01 5.17-6.01zm2.88 5.17c0-2.34-1-3.63-2.83-3.63-1.61 0-3.07 1.32-3.31 3.63zM903.67 112.07h1.61l.17 1.66h.07a5.38 5.38 0 0 1 3.85-1.94c2.41 0 3.49 1.56 3.49 4.49v7.27h-1.93v-7c0-2.15-.67-3.07-2.18-3.07-1.18 0-2 .61-3.14 1.77v8.31h-1.94zM920.89 111.79c2.93 0 4.58 2.1 4.58 5.39a6.48 6.48 0 0 1-.07 1.06h-7.74c.14 2.48 1.63 4 3.82 4a5.21 5.21 0 0 0 2.86-.9l.68 1.28a6.88 6.88 0 0 1-3.77 1.18c-3.08 0-5.51-2.25-5.51-6s2.53-6.01 5.15-6.01zm2.88 5.17c0-2.34-1-3.63-2.83-3.63-1.61 0-3.07 1.32-3.31 3.63zM927.31 122.4c4.54-4.52 7.09-7.23 7.09-9.66a2.67 2.67 0 0 0-2.86-3 4.45 4.45 0 0 0-3.21 1.82l-1.11-1.11a5.91 5.91 0 0 1 4.56-2.29 4.18 4.18 0 0 1 4.51 4.44c0 2.84-2.58 5.65-6.14 9.38.83-.07 1.75-.14 2.53-.14h4.37v1.67h-9.74z" fill="#fff"/><path d="M852.2 41.41c3.51 0 6.64 2.75 6.64 7.56s-3.13 7.5-6.64 7.5-6.64-2.75-6.64-7.5 3.13-7.56 6.64-7.56zm0 13.05c2.48 0 4.13-2.21 4.13-5.49s-1.65-5.55-4.13-5.55-4.13 2.24-4.13 5.55 1.68 5.49 4.13 5.49zM865 57.33v4.84h-2.42v-20.4h2l.21 1.65h.08a7.46 7.46 0 0 1 4.58-2c3.69 0 5.67 2.87 5.67 7.32 0 4.88-2.92 7.74-6.2 7.74a6.68 6.68 0 0 1-4-1.65zm3.52-2.9c2.36 0 4.1-2.15 4.1-5.7 0-3.16-1.06-5.28-3.78-5.28-1.21 0-2.42.68-3.84 1.95v7.53a5.69 5.69 0 0 0 3.56 1.5zM886.71 47c0-1.83-.62-3.6-3-3.6a7.77 7.77 0 0 0-4.23 1.6l-1-1.68a10.72 10.72 0 0 1 5.64-1.86c3.52 0 5 2.33 5 5.91v8.8h-2l-.21-1.72h-.06a7.81 7.81 0 0 1-4.75 2.07 3.92 3.92 0 0 1-4.23-4.08c.01-3.17 2.73-4.74 8.84-5.44zm-3.92 7.5c1.38 0 2.54-.68 3.92-1.92v-4c-4.81.59-6.43 1.77-6.43 3.6a2.2 2.2 0 0 0 2.51 2.34zM899.55 41.41a6 6 0 0 1 4.2 1.71l-1.21 1.57a4.36 4.36 0 0 0-2.9-1.27c-2.6 0-4.49 2.24-4.49 5.55s1.81 5.49 4.43 5.49A5.12 5.12 0 0 0 903 53l1.09 1.6a7.11 7.11 0 0 1-4.66 1.86c-3.81 0-6.74-2.75-6.74-7.5s3.17-7.55 6.86-7.55zM906.73 37.25a1.68 1.68 0 0 1 3.36 0 1.68 1.68 0 0 1-3.36 0zm.44 4.52h2.42v14.35h-2.42zM914.84 43.74h-2.12v-1.83l2.24-.14.3-4h2v4h3.87v2h-3.87v8c0 1.77.57 2.77 2.22 2.77a5.39 5.39 0 0 0 1.62-.38l.48 1.83a9.11 9.11 0 0 1-2.66.53c-3.07 0-4.11-1.95-4.11-4.78zM924.53 60.28c1.62 0 2.65-1.3 3.25-3.07l.32-1.07-5.76-14.37h2.51l2.93 7.94c.44 1.24.94 2.71 1.38 4h.12c.41-1.3.83-2.77 1.21-4l2.57-7.94h2.36L930 57.3c-1 2.83-2.48 5-5.37 5A4.73 4.73 0 0 1 923 62l.47-1.92a4.21 4.21 0 0 0 1.06.2zM939.46 42.12a1.85 1.85 0 1 1-1.77 1.88 1.76 1.76 0 0 1 1.77-1.88zm0 10.63a1.86 1.86 0 1 1-1.77 1.89 1.79 1.79 0 0 1 1.77-1.89zM951.42 54.11h4.31V40.23h-3.42v-1.56a11.25 11.25 0 0 0 4-1.39h1.86v16.83h3.9v2h-10.65zM1338.55 181.36c3.51 0 6.64 2.75 6.64 7.56s-3.13 7.5-6.64 7.5-6.65-2.75-6.65-7.5 3.1-7.56 6.65-7.56zm0 13c2.48 0 4.13-2.21 4.13-5.49s-1.65-5.55-4.13-5.55-4.14 2.24-4.14 5.55 1.69 5.54 4.14 5.54zM1351.39 197.27v4.85H1349v-20.41h2l.21 1.66h.09a7.44 7.44 0 0 1 4.58-2c3.69 0 5.66 2.86 5.66 7.32 0 4.87-2.92 7.74-6.2 7.74a6.63 6.63 0 0 1-4-1.66zm3.51-2.89c2.36 0 4.1-2.15 4.1-5.7 0-3.16-1.06-5.28-3.77-5.28-1.22 0-2.43.68-3.84 1.95v7.53a5.68 5.68 0 0 0 3.51 1.5zM1373.06 187c0-1.83-.62-3.6-3-3.6a7.72 7.72 0 0 0-4.28 1.53l-1-1.68a10.63 10.63 0 0 1 5.64-1.86c3.51 0 5 2.33 5 5.9v8.8h-2l-.21-1.71a7.84 7.84 0 0 1-4.76 2.07 3.92 3.92 0 0 1-4.22-4.08c0-3.16 2.77-4.72 8.83-5.37zm-3.93 7.5c1.39 0 2.54-.68 3.93-1.92v-4c-4.82.59-6.44 1.78-6.44 3.61a2.2 2.2 0 0 0 2.51 2.28zM1385.9 181.36a5.92 5.92 0 0 1 4.19 1.71l-1.21 1.57a4.33 4.33 0 0 0-2.89-1.27c-2.6 0-4.49 2.24-4.49 5.55s1.8 5.49 4.43 5.49a5.08 5.08 0 0 0 3.36-1.45l1.1 1.6a7.13 7.13 0 0 1-4.67 1.86c-3.81 0-6.73-2.75-6.73-7.5s3.22-7.56 6.91-7.56zM1393.07 177.2a1.69 1.69 0 0 1 3.37 0 1.69 1.69 0 0 1-3.37 0zm.44 4.51h2.42v14.35h-2.42zM1401.19 183.69h-2.13v-1.83l2.25-.15.29-4h2v4h3.87v2h-3.87v8c0 1.78.56 2.78 2.21 2.78a5.38 5.38 0 0 0 1.63-.38l.47 1.83a9 9 0 0 1-2.66.53c-3.07 0-4.1-1.95-4.1-4.79zM1410.87 200.23c1.63 0 2.66-1.3 3.25-3.07l.33-1.07-5.76-14.38h2.51l2.92 7.95c.44 1.24.94 2.71 1.39 4h.12c.41-1.3.82-2.77 1.21-4l2.57-7.95h2.36l-5.41 15.53c-1 2.84-2.48 5-5.37 5a4.68 4.68 0 0 1-1.68-.29l.47-1.92a4.21 4.21 0 0 0 1.09.2zM1425.81 182.07a1.85 1.85 0 1 1-1.77 1.86 1.76 1.76 0 0 1 1.77-1.86zm0 10.63a1.86 1.86 0 1 1-1.77 1.89 1.78 1.78 0 0 1 1.77-1.89zM1437.77 194.06h4.31v-13.88h-3.43v-1.57a11.2 11.2 0 0 0 4-1.38h1.86v16.83h3.89v2h-10.62z"/><path opacity=".4" fill="url(#a)" d="M803.96 219.23h527.08v77.81H803.96z"/><path opacity=".4" fill="url(#b)" d="M510.87 78.07h333.82v77.81H510.87z"/><path d="M417.94 408.64a8.66 8.66 0 0 0 6.52 3c3.08 0 5.28-1.84 5.28-4.68 0-3-2.08-5.08-8.16-5.08v-2.48c5.44 0 7.24-2.08 7.24-4.76 0-2.48-1.68-4-4.4-4a7.74 7.74 0 0 0-5.44 2.6l-1.76-2.08a10.51 10.51 0 0 1 7.32-3.2c4.44 0 7.64 2.36 7.64 6.48 0 3.08-1.88 5-4.64 6.08v.16c3.08.72 5.52 3 5.52 6.48 0 4.52-3.72 7.28-8.4 7.28a10.84 10.84 0 0 1-8.4-3.6zM449.58 391.24h-12.72v-2.84h16.44v2c-6 7.72-7.28 13.52-7.72 23.48h-3.4c.44-9.56 2.36-15.64 7.4-22.64zM456.38 395.44c0-5.28 2.36-8.24 6-8.24s6 3 6 8.24-2.4 8.32-6 8.32-6-3.04-6-8.32zm9.4 0c0-4.2-1.4-6.2-3.44-6.2s-3.48 2-3.48 6.2 1.4 6.28 3.48 6.28 3.44-2.12 3.44-6.28zm-2.68 19l14.48-27.2h2.2L465.3 414.4zm11.56-8.32c0-5.24 2.36-8.24 6-8.24s6 3 6 8.24-2.4 8.32-6 8.32-6-3.04-6-8.36zm9.4 0c0-4.16-1.4-6.2-3.44-6.2s-3.48 2-3.48 6.2 1.44 6.28 3.48 6.28 3.44-2.16 3.44-6.32zM395.3 479.2h5.84v-18.8h-4.64v-2.12a15.18 15.18 0 0 0 5.4-1.88h2.52v22.8h5.28v2.72h-14.4zM415.18 479.2H421v-18.8h-4.64v-2.12a15.18 15.18 0 0 0 5.4-1.88h2.52v22.8h5.28v2.72h-14.4zM435.06 479.2h5.84v-18.8h-4.64v-2.12a15.18 15.18 0 0 0 5.4-1.88h2.52v22.8h5.28v2.72h-14.4zM453.54 469.08c0-8.56 3.08-13.16 8.2-13.16s8.16 4.6 8.16 13.16-3.08 13.32-8.16 13.32-8.2-4.76-8.2-13.32zm13.16 0c0-7.48-2-10.52-5-10.52s-5 3-5 10.52 2 10.68 5 10.68 5-3.2 5-10.68zM478.22 483.56v6.56h-3.28v-27.64h2.72l.28 2.24h.12a10.06 10.06 0 0 1 6.2-2.72c5 0 7.68 3.88 7.68 9.92 0 6.6-4 10.48-8.4 10.48a9 9 0 0 1-5.4-2.24zm4.76-3.92c3.2 0 5.56-2.92 5.56-7.72 0-4.28-1.44-7.16-5.12-7.16-1.64 0-3.28.92-5.2 2.64v10.2a7.69 7.69 0 0 0 4.78 2.04zM500.1 471.76l-5.88-9.28h3.56l2.6 4.28c.6 1 1.24 2.16 1.92 3.24h.16c.56-1.08 1.16-2.2 1.76-3.24l2.36-4.28H510l-5.88 9.64 6.32 9.8h-3.54l-2.84-4.52c-.68-1.16-1.4-2.36-2.12-3.48h-.16c-.68 1.12-1.32 2.28-2 3.48l-2.64 4.52h-3.44zM696.11 408.64a8.66 8.66 0 0 0 6.52 3c3.08 0 5.28-1.84 5.28-4.68 0-3-2.08-5.08-8.16-5.08v-2.48c5.44 0 7.24-2.08 7.24-4.76 0-2.48-1.68-4-4.4-4a7.74 7.74 0 0 0-5.44 2.6l-1.76-2.08a10.51 10.51 0 0 1 7.32-3.2c4.44 0 7.64 2.36 7.64 6.48 0 3.08-1.88 5-4.64 6.08v.16c3.08.72 5.52 3 5.52 6.48 0 4.52-3.72 7.28-8.4 7.28a10.84 10.84 0 0 1-8.4-3.6zM727.75 391.24H715v-2.84h16.44v2c-6 7.72-7.28 13.52-7.72 23.48h-3.4c.47-9.56 2.39-15.64 7.43-22.64zM738.15 409.36a2.52 2.52 0 1 1-2.4 2.56 2.42 2.42 0 0 1 2.4-2.56zM745.71 408.76a8.68 8.68 0 0 0 6.44 2.92 5.51 5.51 0 0 0 5.6-5.84c0-3.52-2.16-5.6-5.44-5.6a7.18 7.18 0 0 0-4.31 1.56l-1.76-1.12.76-12.28h12.76v2.84h-9.88l-.68 7.56a7.84 7.84 0 0 1 3.92-1c4.36 0 7.92 2.48 7.92 8a8.34 8.34 0 0 1-8.6 8.64 11.19 11.19 0 0 1-8.36-3.48zM764.39 395.44c0-5.28 2.36-8.24 6-8.24s5.95 3 5.95 8.24-2.39 8.32-5.95 8.32-6-3.04-6-8.32zm9.4 0c0-4.2-1.4-6.2-3.44-6.2s-3.48 2-3.48 6.2 1.4 6.28 3.48 6.28 3.44-2.12 3.44-6.28zm-2.68 19l14.47-27.2h2.2l-14.47 27.2zm11.55-8.32c0-5.24 2.36-8.24 6-8.24s6 3 6 8.24-2.4 8.32-6 8.32-6-3.04-6-8.36zm9.4 0c0-4.16-1.4-6.2-3.44-6.2s-3.48 2-3.48 6.2 1.44 6.28 3.48 6.28 3.44-2.16 3.44-6.32zM688.39 479.2h5.84v-18.8h-4.64v-2.12a15.18 15.18 0 0 0 5.4-1.88h2.52v22.8h5.28v2.72h-14.4zM708.27 479.2h5.84v-18.8h-4.64v-2.12a15.18 15.18 0 0 0 5.4-1.88h2.52v22.8h5.28v2.72h-14.4zM726.59 480c7.68-7.64 12-12.24 12-16.36 0-2.92-1.6-5-4.84-5-2.12 0-4 1.36-5.44 3.08l-1.88-1.88c2.12-2.32 4.4-3.88 7.72-3.88 4.72 0 7.64 3 7.64 7.52 0 4.8-4.36 9.56-10.4 15.88 1.4-.12 3-.24 4.28-.24h7.4v2.84h-16.48zM747.47 476.76a8.68 8.68 0 0 0 6.44 2.92 5.51 5.51 0 0 0 5.6-5.84c0-3.52-2.16-5.6-5.44-5.6a7.18 7.18 0 0 0-4.36 1.56l-1.71-1.12.84-12.28h12.75v2.84h-9.87l-.72 7.56a7.84 7.84 0 0 1 3.92-1c4.36 0 7.92 2.48 7.92 8a8.34 8.34 0 0 1-8.6 8.64 11.19 11.19 0 0 1-8.36-3.48zM771.31 483.56v6.56H768v-27.64h2.72l.28 2.24h.12a10.06 10.06 0 0 1 6.19-2.72c5 0 7.68 3.88 7.68 9.92 0 6.6-4 10.48-8.4 10.48a9 9 0 0 1-5.39-2.24zm4.76-3.92c3.19 0 5.55-2.92 5.55-7.72 0-4.28-1.44-7.16-5.12-7.16-1.63 0-3.27.92-5.19 2.64v10.2a7.69 7.69 0 0 0 4.76 2.04zM793.19 471.76l-5.88-9.28h3.56l2.6 4.28c.6 1 1.24 2.16 1.92 3.24h.16c.56-1.08 1.16-2.2 1.76-3.24l2.36-4.28h3.43l-5.87 9.64 6.31 9.8H800l-2.84-4.52c-.68-1.16-1.4-2.36-2.12-3.48h-.16c-.68 1.12-1.32 2.28-2 3.48l-2.64 4.52h-3.44zM852.38 408.64a8.66 8.66 0 0 0 6.52 3c3.08 0 5.28-1.84 5.28-4.68 0-3-2.08-5.08-8.16-5.08v-2.48c5.44 0 7.24-2.08 7.24-4.76 0-2.48-1.68-4-4.4-4a7.74 7.74 0 0 0-5.44 2.6l-1.76-2.08a10.51 10.51 0 0 1 7.32-3.2c4.44 0 7.64 2.36 7.64 6.48 0 3.08-1.88 5-4.64 6.08v.16c3.08.72 5.52 3 5.52 6.48 0 4.52-3.72 7.28-8.4 7.28a10.84 10.84 0 0 1-8.4-3.6zM884 391.24h-12.7v-2.84h16.44v2c-6 7.72-7.28 13.52-7.72 23.48h-3.4c.44-9.56 2.38-15.64 7.38-22.64zM894.42 409.36a2.52 2.52 0 1 1-2.4 2.56 2.42 2.42 0 0 1 2.4-2.56zM915.34 392.68a5.56 5.56 0 0 0-4.2-2c-3.56 0-6.56 2.76-6.72 10.84a8.15 8.15 0 0 1 6-3.2c4.4 0 7.28 2.64 7.28 7.88 0 4.88-3.44 8.2-7.56 8.2-5 0-8.8-4.08-8.8-12.28 0-10.24 4.64-14.2 9.72-14.2a8 8 0 0 1 6.16 2.72zm-.8 13.52c0-3.32-1.56-5.4-4.72-5.4-1.6 0-3.6 1-5.32 3.36.4 5 2.36 7.64 5.6 7.64 2.52 0 4.44-2.24 4.44-5.6zM920.66 395.44c0-5.28 2.36-8.24 6-8.24s6 3 6 8.24-2.4 8.32-6 8.32-6-3.04-6-8.32zm9.4 0c0-4.2-1.4-6.2-3.44-6.2s-3.48 2-3.48 6.2 1.4 6.28 3.48 6.28 3.44-2.12 3.44-6.28zm-2.68 19l14.48-27.2h2.2l-14.48 27.2zm11.56-8.32c0-5.24 2.36-8.24 6-8.24s6 3 6 8.24-2.4 8.32-6 8.32-6-3.04-6-8.36zm9.4 0c0-4.16-1.4-6.2-3.44-6.2s-3.48 2-3.48 6.2 1.44 6.28 3.48 6.28 3.44-2.16 3.44-6.32zM844.66 479.2h5.84v-18.8h-4.64v-2.12a15.18 15.18 0 0 0 5.4-1.88h2.52v22.8h5.28v2.72h-14.4zM864.54 479.2h5.84v-18.8h-4.64v-2.12a15.18 15.18 0 0 0 5.4-1.88h2.52v22.8h5.28v2.72h-14.4zM882.86 480c7.68-7.64 12-12.24 12-16.36 0-2.92-1.6-5-4.84-5-2.12 0-4 1.36-5.44 3.08l-1.88-1.88c2.12-2.32 4.4-3.88 7.72-3.88 4.72 0 7.64 3 7.64 7.52 0 4.8-4.36 9.56-10.4 15.88 1.4-.12 3-.24 4.28-.24h7.4v2.84h-16.48zM907.58 468.52v-.16c-1.88-1.32-3.56-3.2-3.56-5.88 0-3.92 3.12-6.56 7.24-6.56 4.44 0 7.2 2.84 7.2 6.8 0 2.68-2 5-3.52 6.16v.12c2.28 1.32 4.44 3.12 4.44 6.56 0 3.8-3.28 6.8-8.24 6.8-4.8 0-8.36-3-8.36-7 0-3.28 2.4-5.56 4.8-6.84zm3.64 11.48c3 0 5-1.84 5-4.48 0-3.28-3.24-4.48-6.92-6-2 1.36-3.56 3.24-3.56 5.56 0 2.84 2.36 4.92 5.48 4.92zm4.4-17.08a4.26 4.26 0 0 0-4.44-4.52 4 4 0 0 0-4.12 4.12c0 3 2.8 4.32 5.88 5.52a6.88 6.88 0 0 0 2.68-5.16zM927.58 483.56v6.56h-3.28v-27.64h2.7l.28 2.24h.12a10.06 10.06 0 0 1 6.2-2.72c5 0 7.68 3.88 7.68 9.92 0 6.6-4 10.48-8.4 10.48a9 9 0 0 1-5.4-2.24zm4.76-3.92c3.2 0 5.56-2.92 5.56-7.72 0-4.28-1.44-7.16-5.12-7.16-1.64 0-3.28.92-5.2 2.64v10.2a7.69 7.69 0 0 0 4.76 2.04zM949.46 471.76l-5.88-9.28h3.56l2.6 4.28c.6 1 1.24 2.16 1.92 3.24h.16c.56-1.08 1.16-2.2 1.76-3.24l2.36-4.28h3.44l-5.88 9.64 6.32 9.8h-3.56l-2.84-4.52c-.68-1.16-1.4-2.36-2.12-3.48h-.16c-.68 1.12-1.32 2.28-2 3.48l-2.64 4.52h-3.4zM1341.77 408.64a8.66 8.66 0 0 0 6.52 3c3.08 0 5.27-1.84 5.27-4.68 0-3-2.08-5.08-8.15-5.08v-2.48c5.43 0 7.23-2.08 7.23-4.76 0-2.48-1.68-4-4.39-4a7.74 7.74 0 0 0-5.44 2.6l-1.76-2.08a10.51 10.51 0 0 1 7.32-3.2c4.43 0 7.63 2.36 7.63 6.48 0 3.08-1.88 5-4.63 6.08v.16c3.07.72 5.51 3 5.51 6.48 0 4.52-3.72 7.28-8.39 7.28a10.84 10.84 0 0 1-8.4-3.6zM1362.81 409.64a5.6 5.6 0 0 0 4.2 2c3.59 0 6.63-2.8 6.75-11a8 8 0 0 1-6 3.28c-4.4 0-7.24-2.64-7.24-7.88 0-4.88 3.44-8.2 7.51-8.2 5 0 8.8 4.08 8.8 12.28 0 10.24-4.64 14.2-9.72 14.2a8.15 8.15 0 0 1-6.15-2.68zm10.87-11.52c-.44-5-2.39-7.6-5.64-7.6-2.47 0-4.43 2.24-4.43 5.6s1.56 5.4 4.72 5.4c1.67 0 3.67-.96 5.35-3.4zM1383.81 409.36a2.52 2.52 0 1 1-2.4 2.56 2.42 2.42 0 0 1 2.4-2.56zM1391.37 408.76a8.68 8.68 0 0 0 6.43 2.92 5.51 5.51 0 0 0 5.6-5.84c0-3.52-2.16-5.6-5.44-5.6a7.17 7.17 0 0 0-4.35 1.56l-1.76-1.12.84-12.28h12.75v2.84h-9.87l-.68 7.56a7.8 7.8 0 0 1 3.91-1c4.36 0 7.92 2.48 7.92 8a8.34 8.34 0 0 1-8.6 8.64 11.18 11.18 0 0 1-8.35-3.48zM1410 395.44c0-5.28 2.37-8.24 6-8.24s6 3 6 8.24-2.4 8.32-6 8.32-6-3.04-6-8.32zm9.4 0c0-4.2-1.4-6.2-3.44-6.2s-3.48 2-3.48 6.2 1.4 6.28 3.48 6.28 3.48-2.12 3.48-6.28zm-2.68 19l14.48-27.2h2.2L1419 414.4zm11.56-8.32c0-5.24 2.36-8.24 6-8.24s6 3 6 8.24-2.4 8.32-6 8.32-5.96-3.04-5.96-8.36zm9.4 0c0-4.16-1.4-6.2-3.44-6.2s-3.48 2-3.48 6.2 1.44 6.28 3.48 6.28 3.48-2.16 3.48-6.32zM1334.05 479.2h5.83v-18.8h-4.63v-2.12a15.18 15.18 0 0 0 5.4-1.88h2.52v22.8h5.27v2.72h-14.39zM1353.93 479.2h5.83v-18.8h-4.63v-2.12a15.25 15.25 0 0 0 5.4-1.88h2.47v22.8h5.28v2.72h-14.39zM1386.6 460.68a5.56 5.56 0 0 0-4.2-2c-3.56 0-6.55 2.76-6.71 10.84a8.15 8.15 0 0 1 6-3.2c4.4 0 7.28 2.64 7.28 7.88 0 4.88-3.44 8.2-7.56 8.2-5 0-8.79-4.08-8.79-12.28 0-10.24 4.64-14.2 9.71-14.2a8 8 0 0 1 6.16 2.72zm-.8 13.52c0-3.32-1.56-5.4-4.72-5.4-1.59 0-3.59 1-5.31 3.36.4 5 2.35 7.64 5.59 7.64 2.52 0 4.44-2.24 4.44-5.6zM1393.13 476.76a8.68 8.68 0 0 0 6.43 2.92 5.51 5.51 0 0 0 5.6-5.84c0-3.52-2.16-5.6-5.44-5.6a7.15 7.15 0 0 0-4.35 1.56l-1.76-1.12.84-12.28h12.75v2.84h-9.87l-.68 7.56a7.77 7.77 0 0 1 3.91-1c4.36 0 7.92 2.48 7.92 8a8.34 8.34 0 0 1-8.6 8.64 11.18 11.18 0 0 1-8.35-3.48zM1417 483.56v6.56h-3.28v-27.64h2.72l.28 2.24h.12A10.06 10.06 0 0 1 1423 462c5 0 7.68 3.88 7.68 9.92 0 6.6-4 10.48-8.4 10.48a9 9 0 0 1-5.4-2.24zm4.76-3.92c3.2 0 5.56-2.92 5.56-7.72 0-4.28-1.44-7.16-5.12-7.16-1.64 0-3.28.92-5.2 2.64v10.2a7.69 7.69 0 0 0 4.72 2.04zM1438.84 471.76l-5.87-9.28h3.56l2.59 4.28c.6 1 1.24 2.16 1.92 3.24h.16c.56-1.08 1.16-2.2 1.76-3.24l2.36-4.28h3.44l-5.88 9.64 6.32 9.8h-3.56l-2.84-4.52c-.68-1.16-1.4-2.36-2.12-3.48h-.16c-.68 1.12-1.32 2.28-2 3.48l-2.64 4.52h-3.43zM74 387.68h3.36v13.16h.08l10.92-13.16h3.8l-8.24 10 9.48 16.24h-3.72l-7.84-13.64-4.48 5.32v8.32H74zM103.8 394c5 0 7.76 3.56 7.76 9.12a11.59 11.59 0 0 1-.12 1.8H98.32c.24 4.2 2.76 6.84 6.48 6.84a8.78 8.78 0 0 0 4.84-1.52l1.16 2.16a11.58 11.58 0 0 1-6.4 2c-5.2 0-9.32-3.8-9.32-10.16S99.36 394 103.8 394zm4.88 8.76c0-4-1.76-6.16-4.8-6.16-2.72 0-5.2 2.24-5.6 6.16zM116.72 419.56c2.2 0 3.6-1.76 4.4-4.16l.44-1.44-7.8-19.48h3.4l4 10.76c.6 1.68 1.28 3.68 1.88 5.48h.16c.56-1.76 1.12-3.76 1.64-5.48l3.48-10.76h3.2l-7.32 21c-1.36 3.84-3.36 6.76-7.28 6.76a6.46 6.46 0 0 1-2.28-.4l.64-2.6a5.72 5.72 0 0 0 1.44.32zM144 388.12a5.46 5.46 0 0 0-2.2-.48c-1.84 0-2.72 1.28-2.72 3.76v3.08h4.12v2.68h-4.12v16.76h-3.28v-16.76h-2.64v-2.48l2.64-.2v-3.08c0-4 1.8-6.44 5.68-6.44a9 9 0 0 1 3.24.64zM146.92 394.48h2.72l.28 3.52h.08c1.32-2.44 3.32-4 5.52-4a4.83 4.83 0 0 1 2.08.4l-.64 2.88a5.44 5.44 0 0 0-1.88-.32c-1.64 0-3.6 1.2-4.92 4.48v12.48h-3.28zM170.8 401.6c0-2.48-.84-4.88-4-4.88a10.46 10.46 0 0 0-5.8 2.08l-1.32-2.28a14.43 14.43 0 0 1 7.64-2.52c4.76 0 6.76 3.16 6.76 8v11.92h-2.72l-.28-2.32H171c-1.88 1.52-4 2.8-6.44 2.8-3.28 0-5.72-2-5.72-5.52 0-4.24 3.68-6.36 11.96-7.28zm-5.32 10.16c1.88 0 3.44-.92 5.32-2.6v-5.4c-6.52.8-8.72 2.4-8.72 4.88 0 2.2 1.48 3.12 3.4 3.12zM180.28 394.48H183l.28 2.8h.12c1.68-1.84 3.72-3.28 6-3.28a5.1 5.1 0 0 1 5.36 3.72c2-2.2 4-3.72 6.4-3.72 4 0 5.92 2.64 5.92 7.6v12.32h-3.28V402c0-3.64-1.16-5.2-3.6-5.2-1.52 0-3.08 1-4.88 3v14.08h-3.28V402c0-3.64-1.16-5.2-3.64-5.2-1.44 0-3.08 1-4.88 3v14.08h-3.28zM220.72 394c5 0 7.76 3.56 7.76 9.12a11.59 11.59 0 0 1-.12 1.8h-13.12c.24 4.2 2.76 6.84 6.48 6.84a8.78 8.78 0 0 0 4.84-1.52l1.16 2.16a11.58 11.58 0 0 1-6.4 2c-5.2 0-9.32-3.8-9.32-10.16s4.28-10.24 8.72-10.24zm4.88 8.76c0-4-1.76-6.16-4.8-6.16-2.72 0-5.2 2.24-5.6 6.16zM232.76 409.52a8.74 8.74 0 0 0 5.72 2.32c2.56 0 3.84-1.36 3.84-3 0-2-2.32-2.88-4.44-3.68-2.76-1-5.8-2.32-5.8-5.6 0-3.12 2.48-5.52 6.68-5.52a9.7 9.7 0 0 1 6 2.2l-1.56 2.08a7.22 7.22 0 0 0-4.44-1.72c-2.44 0-3.56 1.32-3.56 2.8 0 1.8 2.12 2.52 4.32 3.36 2.8 1 5.92 2.2 5.92 5.88 0 3.16-2.52 5.8-7.12 5.8a11.7 11.7 0 0 1-7.24-2.68zM251.76 395a2.5 2.5 0 1 1-2.4 2.52 2.38 2.38 0 0 1 2.4-2.52zm0 14.4a2.52 2.52 0 1 1-2.4 2.56 2.42 2.42 0 0 1 2.4-2.6zM74 455.68h7.8c5.32 0 9 1.8 9 6.4a5.7 5.7 0 0 1-4.6 5.72v.2c3.84.6 6.08 2.68 6.08 6.28 0 5.16-4.08 7.68-9.92 7.68H74zm7.24 11.2c4.44 0 6.32-1.6 6.32-4.52s-2.12-4-6.16-4h-4v8.56zm.68 12.4c4.48 0 7.12-1.64 7.12-5.2 0-3.24-2.52-4.72-7.12-4.72h-4.56v9.92zM97.12 462.48h2.72l.28 3.52h.12c1.32-2.44 3.32-4 5.52-4a4.83 4.83 0 0 1 2.08.4l-.64 2.88a5.44 5.44 0 0 0-1.88-.32c-1.64 0-3.6 1.2-4.92 4.48v12.48h-3.28zM118.16 462c4.76 0 9 3.72 9 10.24s-4.24 10.16-9 10.16-9-3.72-9-10.16 4.24-10.24 9-10.24zm0 17.68c3.36 0 5.6-3 5.6-7.44s-2.24-7.52-5.6-7.52-5.6 3-5.6 7.52 2.28 7.44 5.6 7.44zM129.8 462.48h3.36l2.84 11.24c.44 1.84.8 3.6 1.16 5.4h.16c.44-1.8.84-3.6 1.32-5.4l3-11.24h3.2l3 11.24c.48 1.84.92 3.6 1.36 5.4h.16c.44-1.8.8-3.56 1.2-5.4l2.84-11.24h3.12l-5.2 19.44h-4l-2.8-10.44c-.48-1.84-.84-3.64-1.32-5.6h-.16c-.44 2-.84 3.8-1.36 5.64l-2.68 10.4h-3.8zM160.32 477.52a8.74 8.74 0 0 0 5.72 2.32c2.56 0 3.84-1.36 3.84-3 0-2-2.32-2.88-4.44-3.68-2.76-1-5.8-2.32-5.8-5.6 0-3.12 2.48-5.52 6.68-5.52a9.7 9.7 0 0 1 6 2.2l-1.56 2.08a7.22 7.22 0 0 0-4.44-1.72c-2.44 0-3.56 1.32-3.56 2.8 0 1.8 2.12 2.52 4.32 3.36 2.8 1 5.92 2.2 5.92 5.88 0 3.16-2.52 5.8-7.12 5.8a11.7 11.7 0 0 1-7.24-2.68zM184.88 462c5 0 7.76 3.56 7.76 9.12a11.59 11.59 0 0 1-.12 1.8H179.4c.24 4.2 2.76 6.84 6.48 6.84a8.78 8.78 0 0 0 4.84-1.52l1.16 2.16a11.58 11.58 0 0 1-6.4 2c-5.2 0-9.32-3.8-9.32-10.16s4.28-10.24 8.72-10.24zm4.88 8.76c0-4-1.76-6.16-4.8-6.16-2.72 0-5.2 2.24-5.6 6.16zM197.44 462.48h2.72l.28 3.52h.12c1.32-2.44 3.32-4 5.52-4a4.83 4.83 0 0 1 2.08.4l-.64 2.88a5.44 5.44 0 0 0-1.88-.32c-1.64 0-3.6 1.2-4.92 4.48v12.48h-3.28zM217.08 462.48h3.36l2.88 11.24c.44 1.84.8 3.6 1.16 5.4h.16c.44-1.8.84-3.6 1.32-5.4l3-11.24h3.2l3 11.24c.48 1.84.92 3.6 1.36 5.4h.16c.44-1.8.8-3.56 1.2-5.4l2.84-11.24h3.12l-5.2 19.44h-4l-2.8-10.44c-.48-1.84-.84-3.64-1.32-5.6h-.16c-.44 2-.84 3.8-1.36 5.64l-2.72 10.4h-3.84zM247.52 456.36a2.29 2.29 0 0 1 4.56 0 2.29 2.29 0 0 1-4.56 0zm.6 6.12h3.28v19.44h-3.28zM265 462a8 8 0 0 1 5.44 2.24l-.16-3.32v-7.48h3.32v28.48h-2.72l-.28-2.28h-.12a8.77 8.77 0 0 1-5.88 2.76c-4.88 0-8-3.68-8-10.16-.04-6.32 3.96-10.24 8.4-10.24zm.32 17.64c1.8 0 3.36-.88 5-2.68V466.8a6.77 6.77 0 0 0-4.72-2c-3.12 0-5.6 3-5.6 7.44 0 4.6 1.92 7.4 5.32 7.4zM280.72 465.16h-2.88v-2.48l3-.2.4-5.44H284v5.44h5.24v2.68H284V476c0 2.4.76 3.76 3 3.76a7.06 7.06 0 0 0 2.2-.52l.64 2.48a12 12 0 0 1-3.6.72c-4.16 0-5.56-2.64-5.56-6.48zM293.68 453.44H297v7.76l-.12 4c1.84-1.76 3.8-3.2 6.48-3.2 4.08 0 5.92 2.64 5.92 7.6v12.32H306V470c0-3.64-1.12-5.2-3.68-5.2-2 0-3.36 1-5.32 3v14.08h-3.28zM317.16 463a2.5 2.5 0 1 1-2.4 2.52 2.38 2.38 0 0 1 2.4-2.52zm0 14.4a2.52 2.52 0 1 1-2.4 2.56 2.42 2.42 0 0 1 2.4-2.6z"/></g></svg>