<?xml version="1.0" encoding="UTF-8"?><svg xmlns="http://www.w3.org/2000/svg" id="Layer_1" width="550" height="100" viewBox="0 0 550 100"><g fill="#5d73a2"><path d="M64.48 80.21h-1.29c-2.14 0-4.38-.13-6.06-1.81-1.34-1.34-1.97-3.27-1.97-6.1 0-1.25.14-2.48.42-3.7-2.02-.4-3.84-.94-5.44-1.6-6.31-2.61-7.64-6.39-7.64-9.1 0-13.44 9.44-34.16 21.99-34.16 5.71 0 11.32 4.35 15.79 12.25 3.82 6.75 6.2 15.15 6.2 21.91 0 5.15-4.74 9-13.08 10.69.28 1.22.42 2.46.42 3.71 0 2.82-.63 4.76-1.97 6.1-1.68 1.67-3.93 1.81-6.09 1.81h-1.28Z"/><path d="M64.48 25.26c11.31 0 20.49 19.76 20.49 32.66 0 5.26-6.17 8.34-13.47 9.5.51 1.5.81 3.16.81 4.89 0 2.4-.49 4-1.53 5.03-1.28 1.27-3.08 1.38-5.03 1.38h-2.57c-1.94 0-3.73-.11-5-1.38-1.04-1.04-1.53-2.64-1.53-5.03 0-1.72.3-3.38.81-4.88-2.51-.4-4.81-1-6.76-1.8-4.39-1.81-6.71-4.48-6.71-7.71 0-12.9 9.18-32.66 20.49-32.66m0-3c-6.28 0-12.35 4.62-17.1 13.02-3.94 6.97-6.39 15.64-6.39 22.64 0 2.6 1.11 7.41 8.56 10.48 1.3.53 2.73.99 4.28 1.37-.12.84-.18 1.69-.18 2.54 0 2.04.25 5.01 2.41 7.16 2.26 2.25 5.3 2.25 7.12 2.25H65.75c1.83 0 4.89 0 7.15-2.25 2.16-2.15 2.41-5.11 2.41-7.16 0-.86-.06-1.71-.18-2.56 8.21-2 12.84-6.22 12.84-11.84 0-7-2.45-15.68-6.39-22.64-4.75-8.39-10.82-13.02-17.1-13.02Z"/></g><path fill="#ec2524" d="M80.44 55.54c0 12.07-38.98 12.07-38.98 0s8.73-31.66 19.49-31.66 19.49 19.59 19.49 31.66Z"/><path fill="#eaebef" d="M79.93 56.77c-.28 10.15-37.91 10.28-37.91.07 0 0 8.16-3.02 18.93-3.02s18.98 2.96 18.98 2.96Z"/><path fill="none" stroke="#14303f" stroke-miterlimit="10" stroke-width="2" d="M80.44 55.54c0 12.07-38.98 12.07-38.98 0s8.73-31.66 19.49-31.66 19.49 19.59 19.49 31.66Z"/><path fill="none" stroke="#14303f" stroke-miterlimit="10" stroke-width="2" d="M79.93 57.8c-2-2.28-9.74-3.98-18.98-3.98s-16.84 1.67-18.93 3.92"/><path fill="#f9ba19" stroke="#14303f" stroke-miterlimit="10" d="M60.95 53.82v7.02M70.87 54.28l-9.89 7.38M60.98 61.66l18.26-3.69M50.79 54.28l9.9 7.38M60.69 61.66l-18.27-3.69"/><path fill="#f9ba19" stroke="#14303f" stroke-miterlimit="10" stroke-width="2" d="M67.78 69.94c0 5.79-3.06 5.4-6.83 5.4s-6.83.39-6.83-5.4 3.42-10.49 6.83-10.49 6.83 4.7 6.83 10.49Z"/><circle cx="59.48" cy="32.1" r="3.09" fill="#eaebef"/><circle cx="68.62" cy="44.24" r="5.35" fill="#eaebef"/><circle cx="51.55" cy="44.45" r="3.79" fill="#eaebef"/><path fill="#fff" d="M60.95 22.88c11.31 0 20.49 19.76 20.49 32.66 0 5.26-6.17 8.34-13.47 9.5.51 1.5.81 3.16.81 4.89 0 2.4-.49 4-1.53 5.03-1.28 1.27-3.08 1.38-5.03 1.38h-2.57c-1.94 0-3.73-.11-5-1.38-1.04-1.04-1.53-2.64-1.53-5.03 0-1.72.3-3.38.81-4.88-2.51-.4-4.81-1-6.76-1.8-4.39-1.81-6.71-4.48-6.71-7.71 0-12.9 9.18-32.66 20.49-32.66m0-3c-6.28 0-12.35 4.62-17.1 13.02-3.94 6.97-6.39 15.64-6.39 22.64 0 2.6 1.11 7.41 8.56 10.48 1.3.53 2.73.99 4.28 1.37-.12.84-.18 1.69-.18 2.54 0 2.04.25 5.01 2.41 7.16 2.26 2.25 5.3 2.25 7.12 2.25H62.22c1.83 0 4.89 0 7.15-2.25 2.16-2.15 2.41-5.11 2.41-7.16 0-.86-.06-1.71-.18-2.56 8.21-2 12.84-6.22 12.84-11.84 0-7-2.45-15.68-6.39-22.64-4.75-8.39-10.82-13.02-17.1-13.02Z"/><g fill="#5d73a2"><path d="M127.08 80.59c-12.45 0-22.58-10.13-22.58-22.58 0-8.25 4.62-15.94 11.86-19.86v-5.54a2.5 2.5 0 0 1 2.5-2.5h.96v-3.49a2.5 2.5 0 0 1 2.5-2.5h9.52a2.5 2.5 0 0 1 2.5 2.5v3.49h.96a2.5 2.5 0 0 1 2.5 2.5v5.54c7.23 3.92 11.86 11.61 11.86 19.86 0 12.45-10.13 22.58-22.58 22.58Z"/><path d="M131.84 25.63c.55 0 1 .45 1 1v4.99h2.46c.55 0 1 .45 1 1v6.45c7.22 3.52 11.86 10.89 11.86 18.94 0 11.62-9.46 21.08-21.08 21.08S106 69.63 106 58.01c0-8.05 4.63-15.42 11.86-18.94v-6.45c0-.55.45-1 1-1h2.46v-4.99c0-.55.45-1 1-1h9.52m0-3h-9.52c-2.21 0-4 1.79-4 4v2.02a4.002 4.002 0 0 0-3.46 3.96v4.67C107.6 41.58 103 49.52 103 58.01c0 13.28 10.8 24.08 24.08 24.08s24.08-10.8 24.08-24.08c0-8.49-4.6-16.43-11.86-20.73v-4.67c0-2.02-1.51-3.7-3.46-3.96v-2.02c0-2.21-1.79-4-4-4Z"/></g><path fill="#eaebef" d="M131.13 37.26v-7.09h-16.45v7.09c-6.98 3.14-11.86 10.15-11.86 18.31 0 11.09 8.99 20.08 20.08 20.08s20.08-8.99 20.08-20.08c0-8.16-4.87-15.16-11.86-18.31Z"/><path fill="#f9ba19" stroke="#14303f" stroke-linejoin="round" stroke-width="2" d="M118.14 24.18h9.52v11.3h-9.52z"/><path fill="none" stroke="#14303f" stroke-linejoin="round" stroke-width="2" d="M131.13 37.26v-7.09h-16.45v7.09c-6.98 3.14-11.86 10.15-11.86 18.31 0 11.09 8.99 20.08 20.08 20.08s20.08-8.99 20.08-20.08c0-8.16-4.87-15.16-11.86-18.31Z"/><path fill="#5d73a2" d="M134.88 55.53c-6.2 1.51-11.77-5.25-18.36-5.25-4.31 0-7.59 1.63-9.36 2.76-.13.81-.21 1.64-.21 2.48 0 8.82 7.15 15.96 15.96 15.96s15.96-7.15 15.96-15.96c0-.44-.03-.87-.07-1.29-1.12.48-2.42.93-3.92 1.29Z"/><path fill="#eaebef" d="M121.4 58.93h-1.99l-1.73-1.72v-1.99c0-.28-.22-.5-.5-.5s-.5.22-.5.5v1.99l-1.72 1.72h-1.99c-.28 0-.5.22-.5.5s.22.5.5.5h1.99l1.72 1.72v1.99c0 .28.22.5.5.5s.5-.22.5-.5v-1.99l1.73-1.73h1.99c.28 0 .5-.22.5-.5s-.22-.5-.5-.5Z"/><path fill="#5d73a2" d="M127.71 44.16h-1.51l-1.31-1.31v-1.51a.38.38 0 1 0-.76 0v1.51l-1.31 1.31h-1.51a.38.38 0 1 0 0 .76h1.51l1.31 1.31v1.51a.38.38 0 1 0 .76 0v-1.51l1.31-1.31h1.51a.38.38 0 1 0 0-.76ZM136.23 48.95h-1.51l-1.31-1.31v-1.51a.38.38 0 1 0-.76 0v1.51l-1.31 1.31h-1.51a.38.38 0 1 0 0 .76h1.51l1.31 1.31v1.51a.38.38 0 1 0 .76 0v-1.51l1.31-1.31h1.51a.38.38 0 1 0 0-.76Z"/><path fill="#fff" d="M127.66 23.18c.55 0 1 .45 1 1v4.99h2.46c.55 0 1 .45 1 1v6.45c7.22 3.52 11.86 10.89 11.86 18.94 0 11.62-9.46 21.08-21.08 21.08s-21.08-9.46-21.08-21.08c0-8.05 4.63-15.42 11.86-18.94v-6.45c0-.55.45-1 1-1h2.46v-4.99c0-.55.45-1 1-1h9.52m0-3h-9.52c-2.21 0-4 1.79-4 4v2.02a4.002 4.002 0 0 0-3.46 3.96v4.67c-7.26 4.3-11.86 12.24-11.86 20.73 0 13.28 10.8 24.08 24.08 24.08s24.08-10.8 24.08-24.08c0-8.49-4.6-16.43-11.86-20.73v-4.67c0-2.02-1.51-3.7-3.46-3.96v-2.02c0-2.21-1.79-4-4-4Z"/><g fill="#5d73a2"><rect width="29.08" height="56.51" x="171.76" y="24.11" rx="5.49" ry="5.49"/><path d="M195.35 25.61c2.2 0 3.99 1.79 3.99 3.99v45.53c0 2.2-1.79 3.99-3.99 3.99h-18.1c-2.2 0-3.99-1.79-3.99-3.99V29.6c0-2.2 1.79-3.99 3.99-3.99h18.1m0-3h-18.1c-3.85 0-6.99 3.13-6.99 6.99v45.53c0 3.85 3.13 6.99 6.99 6.99h18.1c3.85 0 6.99-3.13 6.99-6.99V29.6c0-3.85-3.13-6.99-6.99-6.99Z"/></g><rect width="24.08" height="51.51" x="171.05" y="24.14" fill="#ffb29a" rx="2.99" ry="2.99"/><path fill="#5d73a2" d="M195.12 41.97V27.13c0-1.64-1.34-2.99-2.99-2.99h-18.1c-1.64 0-2.99 1.34-2.99 2.99v14.84h24.08Z"/><rect width="24.08" height="51.51" x="171.05" y="24.14" fill="none" stroke="#14303f" stroke-linejoin="round" stroke-width="2" rx="2.99" ry="2.99"/><path fill="none" stroke="#14303f" stroke-linejoin="round" d="M195.12 65.57c0 1.64-1.34 2.99-2.99 2.99h-18.1c-1.64 0-2.99-1.34-2.99-2.99"/><path fill="#fff" d="M192.14 23.14c2.2 0 3.99 1.79 3.99 3.99v45.53c0 2.2-1.79 3.99-3.99 3.99h-18.1c-2.2 0-3.99-1.79-3.99-3.99V27.12c0-2.2 1.79-3.99 3.99-3.99h18.1m0-3h-18.1c-3.85 0-6.99 3.13-6.99 6.99v45.53c0 3.85 3.13 6.99 6.99 6.99h18.1c3.85 0 6.99-3.13 6.99-6.99V27.12c0-3.85-3.13-6.99-6.99-6.99Z"/><g fill="#5d73a2"><path d="M238.79 80.62c-11.95 0-21.68-12.67-21.68-28.25s9.72-28.25 21.68-28.25h4.4c11.95 0 21.68 12.67 21.68 28.25s-9.72 28.25-21.68 28.25h-4.4Z"/><path d="M243.19 25.61c11.13 0 20.18 12 20.18 26.75s-9.05 26.75-20.18 26.75h-4.4c-11.13 0-20.18-12-20.18-26.75s9.05-26.75 20.18-26.75h4.4m0-3h-4.4c-12.78 0-23.18 13.35-23.18 29.75s10.4 29.75 23.18 29.75h4.4c12.78 0 23.18-13.35 23.18-29.75s-10.4-29.75-23.18-29.75Z"/></g><path fill="#f9ba19" stroke="#14303f" stroke-linejoin="round" stroke-width="2" d="M240.5 24.14h-4.4c-10.59 0-19.18 11.53-19.18 25.75s8.59 25.75 19.18 25.75h4.4c10.59 0 19.18-11.53 19.18-25.75s-8.59-25.75-19.18-25.75Z"/><path fill="none" stroke="#14303f" stroke-linejoin="round" d="M236.09 24.64c10.59 0 19.18 11.03 19.18 25.25s-8.59 25.3-19.18 25.3"/><ellipse cx="236.09" cy="49.89" fill="none" stroke="#14303f" stroke-linejoin="round" rx="14" ry="20.08"/><path fill="none" stroke="#14303f" stroke-linejoin="round" d="M233.84 39.32h4.52v21.15h-4.52z"/><path fill="#fff" d="M240.5 23.14c11.13 0 20.18 12 20.18 26.75s-9.05 26.75-20.18 26.75h-4.4c-11.13 0-20.18-12-20.18-26.75s9.05-26.75 20.18-26.75h4.4m0-3h-4.4c-12.78 0-23.18 13.35-23.18 29.75s10.4 29.75 23.18 29.75h4.4c12.78 0 23.18-13.35 23.18-29.75s-10.4-29.75-23.18-29.75Z"/><g fill="#5d73a2"><path d="M299.67 80.08a2.5 2.5 0 0 1-2.5-2.5v-3.01c-5.35-1.2-13.61-6.33-13.61-19.35s13.63-29.62 14.21-30.31c.48-.56 1.17-.88 1.91-.88s1.43.32 1.9.88c.58.69 14.21 16.89 14.21 30.31s-8.26 18.15-13.61 19.35v3.01a2.5 2.5 0 0 1-2.5 2.5Z"/><path d="M299.67 25.53c.29 0 .57.13.76.35.57.67 13.85 16.46 13.85 29.34s-8.6 17.52-13.61 18.08v4.28c0 .55-.45 1-1 1s-1-.45-1-1V73.3c-5.02-.56-13.61-5.27-13.61-18.08s13.29-28.67 13.85-29.34c.19-.22.47-.35.76-.35m0-3c-1.17 0-2.29.51-3.05 1.41-.4.47-3.94 4.69-7.42 10.49-4.74 7.88-7.14 14.88-7.14 20.79 0 13.05 7.83 18.75 13.61 20.5v1.86c0 2.21 1.79 4 4 4s4-1.79 4-4v-1.86c5.78-1.76 13.61-7.45 13.61-20.5 0-5.92-2.4-12.91-7.14-20.79-3.49-5.8-7.03-10.02-7.42-10.49-.77-.9-1.88-1.41-3.05-1.41Z"/></g><path fill="#17865a" stroke="#14303f" stroke-linejoin="round" stroke-width="2" d="M310.91 52.83c0 12.66-8.95 17.14-13.61 17.14s-13.61-4.49-13.61-17.14 13.61-28.69 13.61-28.69 13.61 16.03 13.61 28.69Z"/><path fill="#17865a" stroke="#14303f" stroke-linecap="round" stroke-linejoin="round" stroke-width="2" d="M297.3 66.56v8.63"/><path fill="#17865a" stroke="#14303f" stroke-linecap="round" stroke-linejoin="round" d="M297.3 35.43v26.6"/><path fill="none" stroke="#14303f" stroke-linecap="round" stroke-linejoin="round" d="m289.71 52.07 7.48 7.49 7.51-7.5M291.77 45.97l5.52 5.53 5.54-5.54M293.64 39.94l3.65 3.65 3.67-3.66"/><path fill="#fff" d="M297.3 23.14c.29 0 .57.13.76.35.57.67 13.85 16.46 13.85 29.34s-8.6 17.52-13.61 18.08v4.28c0 .55-.45 1-1 1s-1-.45-1-1v-4.28c-5.02-.56-13.61-5.27-13.61-18.08s13.29-28.67 13.85-29.34c.19-.22.47-.35.76-.35m0-3c-1.17 0-2.29.51-3.05 1.41-.4.47-3.94 4.69-7.42 10.49-4.74 7.88-7.14 14.88-7.14 20.79 0 13.05 7.83 18.75 13.61 20.5v1.86c0 2.21 1.79 4 4 4s4-1.79 4-4v-1.86c5.78-1.76 13.61-7.45 13.61-20.5 0-5.92-2.4-12.91-7.14-20.79-3.49-5.8-7.03-10.02-7.42-10.49-.77-.9-1.88-1.41-3.05-1.41Z"/><g fill="#5d73a2"><path d="M361.27 78.25c-.81 0-1.58-.4-2.04-1.06l-24.29-31.7c-.61-.87-.64-1.95-.12-2.8l10-16.18c.45-.73 1.27-1.19 2.13-1.19h29.16c.86 0 1.67.45 2.13 1.19l10 16.18c.53.86.49 1.95-.09 2.77l-24.87 31.81c-.43.6-1.19.99-2 .99Z"/><path d="M376.11 26.82c.35 0 .67.18.85.47l10 16.18c.21.34.2.78-.04 1.11l-24.83 31.75c-.19.26-.49.42-.81.42-.32 0-.63-.16-.81-.43l-24.33-31.75a1 1 0 0 1-.03-1.1l10-16.18c.18-.29.5-.47.85-.47h29.16m0-3h-29.16c-1.38 0-2.68.73-3.4 1.9l-10 16.18a4 4 0 0 0 .12 4.39l.04.06.04.05 24.31 31.72a3.988 3.988 0 0 0 3.21 1.63c1.28 0 2.47-.6 3.22-1.6l24.81-31.72.04-.05.04-.05c.94-1.32 1-3.05.15-4.43l-10-16.18a4.029 4.029 0 0 0-3.4-1.9Z"/></g><path fill="#ec2524" stroke="#14303f" stroke-linejoin="round" stroke-width="2" d="m383.61 41-24.83 31.75L334.45 41l10-16.18h29.16l10 16.18z"/><path fill="none" stroke="#14303f" stroke-miterlimit="10" d="M334.45 41h49.16"/><path fill="none" stroke="#14303f" stroke-linejoin="round" d="m352.77 41 6.01 31.75L365.35 41"/><path fill="none" stroke="#14303f" stroke-linejoin="round" d="M359.03 24.82 352.77 41l-8.32-16.18L341.8 41l16.98 31.75L376.75 41l-3.14-16.18L365.35 41l-6.32-16.18"/><path fill="#fff" d="M373.61 23.82c.35 0 .67.18.85.47l10 16.18c.21.34.2.78-.04 1.11l-24.83 31.75c-.19.26-.49.42-.81.42-.32 0-.63-.16-.81-.43l-24.33-31.75a1 1 0 0 1-.03-1.1l10-16.18c.18-.29.5-.47.85-.47h29.16m0-3h-29.16c-1.38 0-2.68.73-3.4 1.9l-10 16.18a4 4 0 0 0 .12 4.39l.04.06.04.05 24.31 31.72a3.988 3.988 0 0 0 3.21 1.63c1.28 0 2.47-.6 3.22-1.6l24.81-31.72.04-.05.04-.05c.94-1.32 1-3.05.15-4.43l-10-16.18a4.029 4.029 0 0 0-3.4-1.9Z"/><path fill="#eaebef" d="M370.9 40.5h-1.99l-1.73-1.72v-1.99c0-.28-.22-.5-.5-.5s-.5.22-.5.5v1.99l-1.72 1.72h-1.99c-.28 0-.5.22-.5.5s.22.5.5.5h1.99l1.72 1.72v1.99c0 .28.22.5.5.5s.5-.22.5-.5v-1.99l1.73-1.73h1.99c.28 0 .5-.22.5-.5s-.22-.5-.5-.5ZM359.34 46.22h-1.47l-1.27-1.27v-1.47c0-.2-.16-.37-.37-.37s-.37.16-.37.37v1.47l-1.27 1.27h-1.47c-.2 0-.37.16-.37.37s.16.37.37.37h1.47l1.27 1.27v1.47c0 .2.16.37.37.37s.37-.16.37-.37v-1.47l1.27-1.27h1.47c.2 0 .37-.16.37-.37s-.16-.37-.37-.37Z"/><g fill="#5d73a2"><path d="M422.22 79.08a2.5 2.5 0 0 1-2.5-2.5V58.61c-7.31-2.6-12.14-9.39-12.14-17.25 0-10.11 8.23-18.34 18.34-18.34s18.34 8.23 18.34 18.34c0 7.86-4.83 14.65-12.14 17.25v2.35h2.33a2.5 2.5 0 0 1 2.5 2.5v4.59c0 .79-.37 1.5-.95 1.96.58.46.95 1.17.95 1.96v4.6a2.5 2.5 0 0 1-2.5 2.5h-12.23Zm3.7-47.17c-.83 0-1.51.68-1.51 1.51s.68 1.51 1.51 1.51 1.51-.68 1.51-1.51-.68-1.51-1.51-1.51Z"/><path d="M425.92 24.53c9.28 0 16.84 7.55 16.84 16.84 0 7.54-4.95 14.08-12.14 16.15v4.94h3.83c.55 0 1 .45 1 1v4.59c0 .55-.45 1-1 1h-3.83v1.93h3.83c.55 0 1 .45 1 1v4.6c0 .55-.45 1-1 1h-12.23c-.55 0-1-.45-1-1V57.52a16.764 16.764 0 0 1-12.14-16.15c0-9.28 7.55-16.84 16.84-16.84m0 11.9c1.66 0 3.01-1.35 3.01-3.01s-1.35-3.01-3.01-3.01-3.01 1.35-3.01 3.01 1.35 3.01 3.01 3.01m0-14.9c-10.94 0-19.84 8.9-19.84 19.84 0 8.14 4.79 15.22 12.14 18.28v16.94c0 2.21 1.79 4 4 4h12.23c2.21 0 4-1.79 4-4v-4.6c0-.71-.19-1.38-.52-1.96.33-.58.52-1.25.52-1.96v-4.59c0-2.21-1.79-4-4-4h-.42c7.11-3.14 11.72-10.11 11.72-18.1 0-10.94-8.9-19.84-19.84-19.84Z"/></g><path fill="#fff" d="M423.22 23.14c9.28 0 16.84 7.55 16.84 16.84 0 7.54-4.95 14.08-12.14 16.15v4.94h3.83c.55 0 1 .45 1 1v4.59c0 .55-.45 1-1 1h-3.83v1.93h3.83c.55 0 1 .45 1 1v4.6c0 .55-.45 1-1 1h-12.23c-.55 0-1-.45-1-1V56.13a16.764 16.764 0 0 1-12.14-16.15c0-9.28 7.55-16.84 16.84-16.84m0 11.9c1.66 0 3.01-1.35 3.01-3.01s-1.35-3.01-3.01-3.01-3.01 1.35-3.01 3.01 1.35 3.01 3.01 3.01m0-14.9c-10.94 0-19.84 8.9-19.84 19.84 0 8.14 4.79 15.22 12.14 18.28V75.2c0 2.21 1.79 4 4 4h12.23c2.21 0 4-1.79 4-4v-4.6c0-.71-.19-1.38-.52-1.96.33-.58.52-1.25.52-1.96v-4.59c0-2.21-1.79-4-4-4h-.42c7.11-3.14 11.72-10.11 11.72-18.1 0-10.94-8.9-19.84-19.84-19.84Z"/><path fill="#f9ba19" d="M439.06 39.97c0-8.75-7.09-15.84-15.84-15.84s-15.84 7.09-15.84 15.84c0 7.47 5.18 13.72 12.14 15.38v19.83h12.23v-4.59h-4.83v-3.93h4.83v-4.59h-4.83v-6.71c6.96-1.67 12.14-7.91 12.14-15.38Zm-15.84-4.43c-1.94 0-3.51-1.57-3.51-3.51s1.57-3.51 3.51-3.51 3.51 1.57 3.51 3.51-1.57 3.51-3.51 3.51Z"/><path fill="none" stroke="#14303f" stroke-linejoin="round" stroke-width="2" d="M439.06 39.97c0-8.75-7.09-15.84-15.84-15.84s-15.84 7.09-15.84 15.84c0 7.47 5.18 13.72 12.14 15.38v19.83h12.23v-4.59h-4.83v-3.93h4.83v-4.59h-4.83v-6.71c6.96-1.67 12.14-7.91 12.14-15.38Z"/><circle cx="423.22" cy="32.03" r="3.51" fill="none" stroke="#14303f" stroke-linejoin="round"/><g fill="#14303f"><path d="M423.3 46.69h-.84v1.7h-1.29v-1.7h-3.1v-.48l3.83-5.65h.56v5.5h.84v.63Zm-2.13-.63v-3.33l-2.21 3.33h2.21ZM428.38 47.75l-.21.63h-4.21v-.42l2.36-3.78c.44-.71.74-1.39.74-1.91 0-.67-.46-1.17-1.28-1.17-.58 0-1.06.2-1.41.67h-.11l-.3-.48c.46-.56 1.11-.82 1.89-.82 1.36 0 2.32.86 2.32 2.17 0 .79-.32 1.54-.84 2.38l-1.71 2.73h2.77Z"/></g><g fill="#5d73a2"><path d="M485.03 79.81c-1.03 0-1.97-.65-2.33-1.61l-16.35-42.62a5.224 5.224 0 0 1-4.33-5.15v-1.45c0-2.88 2.34-5.23 5.23-5.23h35.58c2.88 0 5.23 2.34 5.23 5.23v1.45c0 2.58-1.88 4.73-4.33 5.15L487.38 78.2c-.37.96-1.31 1.6-2.33 1.6Z"/><path d="M502.82 25.26c2.05 0 3.73 1.67 3.73 3.73v1.45c0 2.05-1.67 3.73-3.73 3.73h-.17l-16.69 43.5a.994.994 0 0 1-1.86 0l-16.69-43.5h-.17c-2.05 0-3.73-1.67-3.73-3.73v-1.45c0-2.05 1.67-3.73 3.73-3.73h35.58m0-3h-35.58c-3.71 0-6.73 3.02-6.73 6.73v1.45c0 3.01 1.99 5.56 4.71 6.42l16.07 41.89c.59 1.54 2.09 2.57 3.73 2.57s3.14-1.03 3.73-2.57l16.07-41.89a6.736 6.736 0 0 0 4.71-6.42v-1.45c0-3.71-3.02-6.73-6.73-6.73Z"/></g><path fill="#f9ba19" d="m465.35 29.02 17.71 46.17 17.71-46.17"/><path fill="#17865a" d="m475.473 46.615 2.264.701-1.49 4.815-2.264-.701zM482.106 64.53l2.194-.894 1.902 4.667-2.194.895zM484.307 35.577l1.586-1.761 3.746 3.37-1.585 1.763z"/><circle cx="478.94" cy="39.56" r="4.94" fill="#ec2524"/><path fill="#ec2524" d="m493.02 48.36 3.01-8.59a4.886 4.886 0 0 0-3.27-1.27c-2.73 0-4.94 2.21-4.94 4.94s2.21 4.94 4.94 4.94c.09 0 .17-.02.26-.03Z"/><circle cx="485.03" cy="55.84" r="4.94" fill="#ec2524"/><path fill="none" stroke="#14303f" stroke-linejoin="round" stroke-width="2" d="m465.35 29.02 17.71 46.17 17.71-46.17"/><rect width="41.03" height="6.9" x="462.54" y="24.14" fill="#ffb29a" stroke="#14303f" stroke-linejoin="round" stroke-width="2" rx="2.73" ry="2.73"/><path fill="#14303f" d="M482.36 48.82c.97 0 .97-1.5 0-1.5s-.97 1.5 0 1.5ZM491.93 35.9c.97 0 .97-1.5 0-1.5s-.97 1.5 0 1.5ZM471.57 35c.97 0 .97-1.5 0-1.5s-.97 1.5 0 1.5Z"/><path fill="#fff" d="M500.85 23.14c2.05 0 3.73 1.67 3.73 3.73v1.45c0 2.05-1.67 3.73-3.73 3.73h-.17l-16.69 43.5a.994.994 0 0 1-1.86 0l-16.69-43.5h-.17c-2.05 0-3.73-1.67-3.73-3.73v-1.45c0-2.05 1.67-3.73 3.73-3.73h35.58m0-3h-35.58c-3.71 0-6.73 3.02-6.73 6.73v1.45c0 3.01 1.99 5.56 4.71 6.42l16.07 41.89c.59 1.54 2.09 2.57 3.73 2.57s3.14-1.03 3.73-2.57l16.07-41.89a6.736 6.736 0 0 0 4.71-6.42v-1.45c0-3.71-3.02-6.73-6.73-6.73Z"/></svg>