<?xml version="1.0" encoding="utf-8"?>
<!-- Generator: Adobe Illustrator 17.1.0, SVG Export Plug-In . SVG Version: 6.00 Build 0)  -->
<!DOCTYPE svg PUBLIC "-//W3C//DTD SVG 1.1//EN" "http://www.w3.org/Graphics/SVG/1.1/DTD/svg11.dtd">
<svg version="1.1" xmlns="http://www.w3.org/2000/svg" xmlns:xlink="http://www.w3.org/1999/xlink" x="0px" y="0px"
	 viewBox="0 0 647.1 569.1" enable-background="new 0 0 647.1 569.1" xml:space="preserve">
<g id="Background_xA0_Image_1_" display="none">
</g>
<g id="evenstar_copy_1_" display="none">
	<g id="Layer_9_copy_xA0_Image_1_" display="inline">
		
			<image overflow="visible" opacity="0.5" width="339" height="572" id="Layer_9_copy_xA0_Image" xlink:href="4A3B5FB015F39EFF.png"  transform="matrix(1 0 0 1 158.8169 94.5483)">
		</image>
	</g>
</g>
<g id="Layer_4">
	<path fill="#67490F" d="M493,47.7c-36.8-6.4-67.3,3.9-86.4,13.6c-11.2,5.7-19.9,11.9-25.5,16.4c-22.7-21.2-40.8-34.9-47.8-40
		c1.3-1.8,3.9-5.3,6.2-9.5c5-8.9,6.2-15.8,3.8-21c-1.6-3.3-5.4-7.3-14.8-7.3s-13.2,3.9-14.8,7.3c-2.5,5.1-1.2,12,3.8,21
		c2.3,4.1,4.8,7.7,6.2,9.4c-7,5.1-25.1,18.8-47.9,40.1c-5.6-4.5-14.3-10.7-25.5-16.4c-19.1-9.7-49.6-20-86.4-13.6l-7.5,1.3l4.2,6.4
		c0.2,0.3,19.4,29.8,22.4,56.7c0.6,5.1,0.8,11.9,1.1,19.7c1.3,35.5,3.2,89.1,39.1,104.3l0.1-0.2c1.1,10.1,3,19.8,5.8,29.1l-0.3,0.7
		l0.5-0.1c8.3,27,23.8,50.4,46.3,69.3c-1.4,9.9-3.7,30.7-1.9,54.6c3.1,42.9,18.1,75,43.2,93c-22.4,33.8-20.6,55.3-14.5,67.8
		c6.7,13.7,19.6,19,26.3,19.1v0c0,0,0.1,0,0.1,0c0,0,0.1,0,0.1,0v0c6.7-0.1,19.6-5.3,26.3-19.1c6.1-12.5,7.9-34.1-14.5-67.9
		c25.1-18,40-50,43.2-92.9c1.7-23.8-0.5-44.6-1.9-54.5c30.4-25.4,48.1-59.2,52.1-98.9l0,0.1c35.9-15.2,37.8-68.8,39.1-104.3
		c0.3-7.8,0.5-14.5,1.1-19.7c2.9-26.9,22.2-56.4,22.4-56.7l4.2-6.4L493,47.7z M421.5,249.8l-25.9-55.2c-0.7-1.6-6.9-14.7-22.7-17.6
		c2.7-1.3,5.5-2.7,8.4-4.2c11.7-6.2,22.2-13.5,31.3-21.8c3.7,10.1,10.9,33.2,11.9,61C424.9,225.2,423.9,237.8,421.5,249.8z
		 M328.4,465.8c-18.1-25-23.7-48.9-16.6-71.1c5.6-17.5,17.5-27.5,17.6-27.6l-0.5-0.6c2.7,2.6,11.8,12.4,16.5,27.5
		C352.3,416.7,346.6,440.8,328.4,465.8z M328.5,352.4c-21.2-23.6-27.2-51.7-17.8-83.5c5.2-17.5,13.9-31.7,18.9-39
		c21.4,30.8,27.5,60.9,18.1,89.6C342.5,335.6,333.4,347,328.5,352.4z M217.2,90.7c8.2,1.9,22.3,5.9,37.8,14.4
		c30.2,16.5,51.6,41.2,63.5,73.6c-9.4-2.4-23.3-6.9-38-14.7C248.3,146.9,227.1,122.2,217.2,90.7z M328,190.9l0.1,0.1l0,0l0,0.1
		c0.1,0,0.2,0,0.5-0.1c0.3,0,0.4,0.1,0.5,0.1l0-0.1c0.6-0.1,1.6-0.3,2.7-0.5c-1.6,1.7-2.9,3.4-3.9,5.1c-1.4-2-3.3-3.9-5.6-5.8
		C324.9,190.4,326.8,190.7,328,190.9z M309.8,193.8c9,4.5,13.1,10,12.5,16.8c-0.9,11.9-14.7,23.7-19.3,25.2
		c-8.6,2.7-39.9,10.7-56.4,14.8l23.9-49.6l0.1-0.2c0.1-0.1,5.3-12.2,20-12.2C296.3,188.5,302.8,190.3,309.8,193.8z M334.8,208.5
		c-0.5-6.9,3.6-12.4,12.5-16.8c7-3.5,13.5-5.3,19.2-5.3c14.5,0,19.8,11.8,20,12.2l22.3,47.6c-15.9-3.4-46.2-9.9-54.8-12.5
		C349.5,232.2,335.7,220.4,334.8,208.5z M376.9,163.8c-14.8,7.9-28.8,12.4-38.3,14.8c11.9-32.3,33.1-57,63.2-73.4
		c15.5-8.5,29.8-12.6,38.1-14.5C430.1,122.1,408.9,146.7,376.9,163.8z M343.1,137.1c-3.9,16.1-10.4,28.8-14.7,35.9
		c-17.3-29.3-22.3-59.3-14.8-89.4c3.9-15.7,10.5-27.6,14.6-34.1C345.6,76.6,350.6,106,343.1,137.1z M322.6,11.6
		c0.5-1,2.7-1.6,5.8-1.6s5.3,0.6,5.8,1.6c1.2,2.6-1.7,9.3-5.8,15.6C324.3,20.9,321.4,14.1,322.6,11.6z M193.8,131.4
		c-0.3-8-0.5-14.9-1.1-20.4c-2.4-21.6-13.7-43.7-19.9-54.5C233.8,49.6,275.6,91,276,91.4l3.6-3.5l3.6-3.5c0,0,0,0,0,0
		c10.6-9.9,20.3-18.2,28.2-24.6c-2.7,6-5.3,13-7.3,21c-3.3,13.1-5.3,30.2-2,49.8c-13.7-16.3-29.1-27.1-42.2-34.3
		c-25.9-14.1-48-16.8-49-16.9l-7.2-0.8l1.7,7c5.3,21.7,15.7,40.9,30.6,57.1c-2.3,5.6-12.9,33.4-13.9,69.1c-0.1,4.3-0.1,8.5,0.1,12.7
		C196.6,208.7,194.9,162.5,193.8,131.4z M232,212.3c0.8-28.5,8.2-52.2,11.7-62c9.3,8.6,20,16.1,32,22.5c4.1,2.2,8.2,4.1,12.2,5.9
		c-18.5,1.3-25.7,16.3-26.5,18.1l-26.1,54.3C232.8,238.9,231.7,226,232,212.3z M286,330.5l-0.1,0c-23.4-18.3-39.3-40.8-47.4-67.4
		l0.3-0.1c2.3-0.6,55.3-13.8,67.3-17.6c1.2-0.4,2.5-1,4-1.8c-3.2,6.5-6.3,14-8.8,22.2c-10.6,35.6-3.4,68.2,20.9,94.5
		c-3.2,2.9-14,13.6-19.7,30.9c-10.7,32.3,4.3,62.5,19.5,82.7C266.9,434.1,285.8,331.5,286,330.5z M345.9,545.7
		c-4.6,9.4-13.5,13.4-17.4,13.5c-3.9-0.1-12.8-4-17.4-13.5c-3.4-7-3.9-15.6-1.5-25.5c2.7-11.2,9.1-23.8,18.9-37.6
		c9.9,13.8,16.2,26.4,18.9,37.6C349.8,530.1,349.3,538.7,345.9,545.7z M371.1,330.4l-0.3,0.1c0.2,1,19.1,103.4-35.8,143.2
		c15.1-20.2,30.1-50.4,19.8-83.1c-5.4-17.2-15.6-28.1-19-31.3c5.5-6,15.3-18.4,21.3-36.2c10.1-30.2,3.1-58.3-8.4-80.9
		c0.8,0.4,1.7,0.8,2.4,1c12.1,3.8,63.3,14.4,65.5,14.8l2.9,0.6c-1.2,4.7-2.7,9.2-4.4,13.6C406.3,294.9,391.6,314.5,371.1,330.4z
		 M464,111c-0.6,5.5-0.9,12.4-1.1,20.4c-1.1,31.2-2.8,77.3-28.4,93c0.1-4.2,0.1-8.4,0-12.7c-1.2-34.2-11.2-61.2-14.1-68.3
		c15.3-16.3,25.9-35.8,31.3-57.8l1.7-7l-7.2,0.8c-0.9,0.1-23.1,2.8-49,16.9c-13.3,7.2-28.9,18.3-42.8,35c3.4-19.5,3.2-44.6-9.2-71.4
		c7.9,6.4,17.5,14.7,28.1,24.6c0,0,0,0,0,0l7.1,7c0.4-0.4,42-41.9,103.3-34.9C477.7,67.3,466.3,89.4,464,111z"/>
</g>
</svg>
