<?xml version="1.0" encoding="utf-8"?>
<!-- Generator: Adobe Illustrator 17.1.0, SVG Export Plug-In . SVG Version: 6.00 Build 0)  -->
<!DOCTYPE svg PUBLIC "-//W3C//DTD SVG 1.1//EN" "http://www.w3.org/Graphics/SVG/1.1/DTD/svg11.dtd">
<svg version="1.1" xmlns="http://www.w3.org/2000/svg" xmlns:xlink="http://www.w3.org/1999/xlink" x="0px" y="0px"
	 viewBox="0 0 402.7 397.3" enable-background="new 0 0 402.7 397.3" xml:space="preserve">
<g id="Layer_9" display="none">
	<circle display="inline" fill="none" stroke="#CCCCCC" stroke-miterlimit="10" cx="201.3" cy="196" r="201.3"/>
	<circle display="inline" fill="none" stroke="#CCCCCC" stroke-miterlimit="10" cx="201.3" cy="166.9" r="172.3"/>
	<circle display="inline" fill="none" stroke="#CCCCCC" stroke-miterlimit="10" cx="201.3" cy="197.3" r="142"/>
	<circle display="inline" fill="none" stroke="#CCCCCC" stroke-miterlimit="10" cx="201.3" cy="170.7" r="115.4"/>
	<circle display="inline" fill="none" stroke="#CCCCCC" stroke-miterlimit="10" cx="201.3" cy="196" r="90.3"/>
	<circle display="inline" fill="none" stroke="#CCCCCC" stroke-miterlimit="10" cx="201.3" cy="302.6" r="94.7"/>
	<circle display="inline" fill="none" stroke="#CCCCCC" stroke-miterlimit="10" cx="201.5" cy="302.8" r="36"/>
	<circle display="inline" fill="none" stroke="#CCCCCC" stroke-miterlimit="10" cx="201.3" cy="179.2" r="73.5"/>
</g>
<g id="Layer_10">
</g>
<g id="Layer_11">
</g>
<g id="Layer_12">
</g>
<g id="Layer_17">
</g>
<g id="Layer_13">
</g>
<g id="Layer_14" display="none">
	<path display="inline" d="M204.3,372.4c-0.6,0-1.2,0-1.8,0c-30.8,0-57.1-19.3-67.6-46.4C72.7,300,29,238.6,29,166.9
		C29,90,79.5,24.8,149.1,2.7c-0.3-0.3-0.7-0.6-1-0.9C62.8,25.1,0,103.2,0,196c0,111.2,90.1,201.3,201.3,201.3c1,0,2,0,3,0V372.4z"/>
	<g display="inline">
		<path d="M130.2,300c0-11.8,2.9-23,7.9-32.8C106.7,246.6,86,211.1,86,170.7C86,108,136,56.9,198.4,55.4c-77,1.6-139,64.5-139,141.9
			c0,53.9,30,100.7,74.2,124.8C131.4,315.1,130.2,307.7,130.2,300z"/>
	</g>
	<g display="inline">
		<path d="M140.5,262.7c5.3-8.7,12.3-16.2,20.6-22c-20-13.1-33.3-35.8-33.3-61.5c0-40.6,32.9-73.5,73.5-73.5
			c-49.9,0-90.3,40.4-90.3,90.3C111.1,222.4,122.4,246.2,140.5,262.7z"/>
	</g>
</g>
<g id="Layer_16">
</g>
<g id="Layer_15">
	<g>
		<path fill="#353535" d="M296.1,303c29-26,47.2-63.7,47.2-105.7c0-45.6-21.5-86.1-54.9-112.1c-10.5-8.2-11.7-14.8-21.8-22.7
			c-0.1-0.1-0.1-0.1-0.2-0.1c-0.1-0.1-0.2-0.1-0.3-0.2c-1.9-1.5-3.5-2.4-4.8-3c-0.2-0.1-0.3-0.2-0.4-0.2
			c-10.5-5.5-21.5-5.1-24.5,0.7c-3,5.8,3,15,13.5,20.5c1.6,0.8,3.3,1.5,4.9,2.1c11.4,5.5,20-1.3,28.9,7.7
			c20.5,20.8,33.1,49.4,33.1,80.9c0,32.3-13.2,61.4-34.6,82.3c-16.7-27.1-46.6-45.2-80.8-45.2c-21.1,0-40.6,6.9-56.3,18.5
			c-10.7-12.8-17.2-29.2-17.2-47.2c0-19.5,9.1-37.2,21.4-50.3c5.3-5.6,15.1-2.7,22.3-5.6c0,0,0,0,0.1,0c1.2-0.3,2.4-0.8,3.6-1.3
			c8.5-3.6,13.7-10.4,11.6-15.1c-2-4.7-10.5-5.6-19-2c-1.9,0.8-3.6,1.8-5.2,2.9c0,0-0.1,0-0.1,0.1c-6.9,4.1-11.4,12.6-17.6,17.6
			c-20.7,16.5-34,42-34,70.6c0,18.3,5.4,35.2,14.7,49.4c-1.9,2.5-3.6,5-5.2,7.7C99.2,232.1,86,203,86,170.7
			c0-31.5,12.6-60,33.1-80.9c8.9-9,17.5-2.2,28.9-7.7c1.6-0.6,3.2-1.3,4.9-2.1c10.5-5.5,16.5-14.6,13.5-20.5c-3-5.8-14-6.2-24.5-0.7
			c-0.2,0.1-0.3,0.2-0.4,0.2c-1.3,0.6-2.8,1.6-4.8,3c-0.1,0.1-0.2,0.1-0.3,0.2c-0.1,0-0.1,0.1-0.2,0.1
			c-10.1,7.8-11.3,14.5-21.8,22.7c-33.4,26-54.9,66.5-54.9,112.1c0,42,18.2,79.7,47.2,105.7c0,2.7,0.1,5.4,0.4,8.1
			c-47-30.8-78-83.9-78-144.2c0-49.3,20.7-93.8,53.9-125.2c8.4-8,16.9,0.2,30.8-6.7c0,0,0.1,0,0.1-0.1c2-0.8,4.1-1.7,6.1-2.8
			c12.5-6.9,19.5-18.2,15.6-25.2c-3.9-7-17.1-7-29.6-0.1c-1.3,0.7-2.6,1.5-3.8,2.3c-1,0.6-2,1.3-3,2.3c0,0,0,0,0,0
			c-3.3,2.7-5.9,5.7-7.6,8.7c-4.2,5.9-7,11.5-13.3,16.4C30.6,73.5,0,131.2,0,196c0,111.2,90.1,201.3,201.3,201.3c1,0,2,0,3,0v0
			C255.1,395.7,295.8,354.1,296.1,303z M201.5,266.8c19.9,0,36,16.1,36,36c0,19.9-16.1,36-36,36c-19.9,0-36-16.1-36-36
			C165.5,282.9,181.7,266.8,201.5,266.8z"/>
		<path fill="#353535" d="M247.6,0c0.7,0.5,1.5,1,2.2,1.5c71.6,20.9,123.9,87.1,123.9,165.4c0,57-27.7,107.6-70.4,138.9
			c-0.7,36.7-21.3,68.5-51.5,85c86.8-22.4,150.9-101.2,150.9-195C402.7,100.7,336.5,20.9,247.6,0z"/>
	</g>
</g>
<g id="Layer_1" display="none">
</g>
<g id="Layer_2">
</g>
<g id="Layer_3">
</g>
<g id="Layer_8">
</g>
<g id="Layer_6">
</g>
<g id="Layer_7">
</g>
<g id="Layer_5">
</g>
</svg>
