<?xml version="1.0" encoding="utf-8"?>
<!-- Generator: Adobe Illustrator 17.1.0, SVG Export Plug-In . SVG Version: 6.00 Build 0)  -->
<!DOCTYPE svg PUBLIC "-//W3C//DTD SVG 1.1//EN" "http://www.w3.org/Graphics/SVG/1.1/DTD/svg11.dtd">
<svg version="1.1" id="Layer_1" xmlns="http://www.w3.org/2000/svg" xmlns:xlink="http://www.w3.org/1999/xlink" x="0px" y="0px"
	 viewBox="0 0 12.4 10" enable-background="new 0 0 12.4 10" xml:space="preserve">
<path id="Right_2" fill="#02B8CE" d="M1.5,0.1C1.3,0,1,0,0.9,0.1L0.2,0.9C0,1.1,0,1.4,0.2,1.6L3.5,5L0.1,8.4C0,8.6,0,8.9,0.1,9.1
	l0.7,0.7C1,10,1.3,10,1.5,9.9l4.3-4.5C6,5.1,6,4.8,5.9,4.6L1.5,0.1z"/>
<path id="Right_2_1_" fill="#02B8CE" d="M8,0.1C7.8,0,7.5,0,7.4,0.1L6.7,0.9c-0.2,0.2-0.2,0.5,0,0.7L10,5L6.6,8.4
	c-0.2,0.2-0.2,0.5,0,0.7l0.7,0.7C7.5,10,7.8,10,8,9.9l4.3-4.5c0.2-0.2,0.2-0.5,0-0.7L8,0.1z"/>
</svg>
