<?xml version="1.0" encoding="utf-8"?>
<!-- Generator: Adobe Illustrator 17.1.0, SVG Export Plug-In . SVG Version: 6.00 Build 0)  -->
<!DOCTYPE svg PUBLIC "-//W3C//DTD SVG 1.1//EN" "http://www.w3.org/Graphics/SVG/1.1/DTD/svg11.dtd">
<svg version="1.1" id="Layer_1" xmlns="http://www.w3.org/2000/svg" xmlns:xlink="http://www.w3.org/1999/xlink" x="0px" y="0px"
	 viewBox="0 0 12 16" enable-background="new 0 0 12 16" xml:space="preserve">
<g id="Pinterest_1">
	<path fill="#B2B2B2" d="M4.9,10.6C4.5,12.8,4,14.9,2.6,16c-0.5-3.3,0.7-5.8,1.2-8.5C2.9,6,3.9,2.9,5.7,3.6C8,4.6,3.7,9.4,6.6,10
		c3,0.6,4.2-5.4,2.4-7.4c-2.7-2.8-7.8-0.1-7.2,4c0.2,1,1.1,1.3,0.4,2.7C0.5,8.9-0.1,7.5,0,5.6c0.1-3.1,2.7-5.2,5.2-5.5
		c3.2-0.4,6.3,1.2,6.7,4.4c0.5,3.6-1.5,7.4-4.9,7.2C6.1,11.5,5.7,11,4.9,10.6z"/>
</g>
</svg>
