<?xml version="1.0" encoding="utf-8"?>
<!-- Generator: Adobe Illustrator 17.1.0, SVG Export Plug-In . SVG Version: 6.00 Build 0)  -->
<!DOCTYPE svg PUBLIC "-//W3C//DTD SVG 1.1//EN" "http://www.w3.org/Graphics/SVG/1.1/DTD/svg11.dtd">
<svg version="1.1" id="Layer_1" xmlns="http://www.w3.org/2000/svg" xmlns:xlink="http://www.w3.org/1999/xlink" x="0px" y="0px"
	 viewBox="0 0 16.4 16" enable-background="new 0 0 16.4 16" xml:space="preserve">
<path fill-rule="evenodd" clip-rule="evenodd" fill="#B2B2B2" d="M8.2,0C3.7,0,0,3.7,0,8.2c0,3.6,2.4,6.7,5.6,7.8
	c0.4,0.1,0.6-0.2,0.6-0.4c0-0.2,0-0.7,0-1.4c-2.3,0.5-2.8-1.1-2.8-1.1c-0.4-0.9-0.9-1.2-0.9-1.2c-0.7-0.5,0.1-0.5,0.1-0.5
	c0.8,0.1,1.3,0.8,1.3,0.8c0.7,1.3,1.9,0.9,2.4,0.7c0.1-0.5,0.3-0.9,0.5-1.1C4.9,11.6,3,10.9,3,7.8c0-0.9,0.3-1.6,0.8-2.2
	c-0.1-0.2-0.4-1,0.1-2.2c0,0,0.7-0.2,2.3,0.8C6.8,4.1,7.5,4,8.2,4c0.7,0,1.4,0.1,2.1,0.3c1.6-1.1,2.3-0.8,2.3-0.8
	c0.4,1.1,0.2,2,0.1,2.2c0.5,0.6,0.8,1.3,0.8,2.2c0,3.2-1.9,3.8-3.7,4c0.3,0.3,0.6,0.8,0.6,1.5c0,1.1,0,2,0,2.3
	c0,0.2,0.1,0.5,0.6,0.4c3.3-1.1,5.6-4.2,5.6-7.8C16.4,3.7,12.7,0,8.2,0z"/>
</svg>
