<?xml version="1.0" encoding="utf-8"?>
<!-- Generator: Adobe Illustrator 17.1.0, SVG Export Plug-In . SVG Version: 6.00 Build 0)  -->
<!DOCTYPE svg PUBLIC "-//W3C//DTD SVG 1.1//EN" "http://www.w3.org/Graphics/SVG/1.1/DTD/svg11.dtd">
<svg version="1.1" id="Layer_1" xmlns="http://www.w3.org/2000/svg" xmlns:xlink="http://www.w3.org/1999/xlink" x="0px" y="0px"
	 viewBox="0 0 16 16" enable-background="new 0 0 16 16" xml:space="preserve">
<path fill="#B2B2B2" d="M8,0C3.6,0,0,3.6,0,8c0,4.4,3.6,8,8,8c4.4,0,8-3.6,8-8C16,3.6,12.4,0,8,0z M0.8,8c0-1,0.2-2,0.6-2.9l3.4,9.4
	C2.5,13.3,0.8,10.8,0.8,8z M8,15.2c-0.7,0-1.4-0.1-2-0.3l2.2-6.3l2.2,6.1c0,0,0,0.1,0.1,0.1C9.6,15,8.8,15.2,8,15.2z M9,4.6
	c0.4,0,0.8-0.1,0.8-0.1c0.4,0,0.3-0.6,0-0.6c0,0-1.2,0.1-1.9,0.1C7.1,4.1,6,4,6,4c-0.4,0-0.4,0.6,0,0.6c0,0,0.4,0,0.8,0.1l1.1,3.1
	l-1.6,4.7L3.6,4.6c0.4,0,0.8-0.1,0.8-0.1c0.4,0,0.3-0.6,0-0.6c0,0-1.2,0.1-1.9,0.1c-0.1,0-0.3,0-0.5,0c1.3-2,3.5-3.2,6-3.2
	c1.9,0,3.6,0.7,4.9,1.9c0,0-0.1,0-0.1,0c-0.7,0-1.2,0.6-1.2,1.3c0,0.6,0.3,1.1,0.7,1.7c0.3,0.5,0.6,1.1,0.6,2c0,0.6-0.2,1.3-0.5,2.3
	l-0.7,2.4L9,4.6z M14.3,4.5c0.6,1,0.9,2.2,0.9,3.5c0,2.7-1.4,5-3.6,6.2l2.2-6.4c0.4-1,0.5-1.8,0.5-2.6C14.4,5,14.3,4.8,14.3,4.5z"/>
</svg>
