<?xml version="1.0" encoding="utf-8"?>
<!-- Generator: Adobe Illustrator 17.1.0, SVG Export Plug-In . SVG Version: 6.00 Build 0)  -->
<!DOCTYPE svg PUBLIC "-//W3C//DTD SVG 1.1//EN" "http://www.w3.org/Graphics/SVG/1.1/DTD/svg11.dtd">
<svg version="1.1" id="Layer_1" xmlns="http://www.w3.org/2000/svg" xmlns:xlink="http://www.w3.org/1999/xlink" x="0px" y="0px"
	 viewBox="0 0 16 16" enable-background="new 0 0 16 16" xml:space="preserve">
<g id="Instagram_1">
	<path fill="#B2B2B2" d="M2,0H1C0.4,0,0,0.4,0,1v1v6v6v1c0,0.6,0.4,1,1,1h1h12h1c0.6,0,1-0.4,1-1v-1V8V2V1c0-0.6-0.4-1-1-1h-1H2z
		 M8,6c1.1,0,2,0.9,2,2s-0.9,2-2,2S6,9.1,6,8S6.9,6,8,6z M14,14H2V8h2c0,2.2,1.8,4,4,4s4-1.8,4-4h2V14z M14,5h-3V2h3V5z"/>
</g>
</svg>
