<?xml version="1.0" encoding="utf-8"?>
<!-- Generator: Adobe Illustrator 17.1.0, SVG Export Plug-In . SVG Version: 6.00 Build 0)  -->
<!DOCTYPE svg PUBLIC "-//W3C//DTD SVG 1.1//EN" "http://www.w3.org/Graphics/SVG/1.1/DTD/svg11.dtd">
<svg version="1.1" id="Layer_1" xmlns="http://www.w3.org/2000/svg" xmlns:xlink="http://www.w3.org/1999/xlink" x="0px" y="0px"
	 viewBox="0 0 16 13" enable-background="new 0 0 16 13" xml:space="preserve">
<g id="Twitter_1">
	<path fill="#B2B2B2" d="M16,1.5c-0.6,0.3-1.2,0.4-1.9,0.5c0.7-0.4,1.2-1,1.4-1.8c-0.6,0.4-1.3,0.7-2.1,0.8c-0.6-0.6-1.5-1-2.4-1
		C9.3,0,7.8,1.5,7.8,3.3c0,0.3,0,0.5,0.1,0.7C5.1,3.9,2.7,2.6,1.1,0.6c-0.3,0.5-0.4,1-0.4,1.7c0,1.1,0.8,2.1,1.6,2.7
		C1.8,5,1,4.8,1,4.6c0,0,0,0,0,0c0,1.6,1,2.9,2.5,3.2c-0.3,0.1-0.7,0.1-1,0.1c-0.2,0-0.5,0-0.7-0.1c0.4,1.3,1.6,2.3,3,2.3
		c-1.1,0.9-2.6,1.4-4.1,1.4c-0.3,0-0.5,0-0.8,0C1.5,12.5,3.2,13,5,13c6,0,9.3-5,9.3-9.3c0-0.1,0-0.3,0-0.4C15,2.8,15.6,2.2,16,1.5z"
		/>
</g>
</svg>
