<?xml version="1.0" encoding="utf-8"?>
<!-- Generator: Adobe Illustrator 17.1.0, SVG Export Plug-In . SVG Version: 6.00 Build 0)  -->
<!DOCTYPE svg PUBLIC "-//W3C//DTD SVG 1.1//EN" "http://www.w3.org/Graphics/SVG/1.1/DTD/svg11.dtd">
<svg version="1.1" id="Layer_1" xmlns="http://www.w3.org/2000/svg" xmlns:xlink="http://www.w3.org/1999/xlink" x="0px" y="0px"
	 viewBox="0 0 12 10" enable-background="new 0 0 12 10" xml:space="preserve">
<path id="Left_2" fill="#02B8CE" d="M10.5,9.9c0.2,0.2,0.5,0.2,0.7,0l0.7-0.7c0.2-0.2,0.2-0.5,0-0.7L8.5,5l3.3-3.4
	c0.2-0.2,0.2-0.5,0-0.7l-0.7-0.7C11,0,10.7,0,10.5,0.1L6.1,4.7C6,4.9,6,5.2,6.1,5.4L10.5,9.9z"/>
<path id="Left_2_1_" fill="#02B8CE" d="M4.5,9.9c0.2,0.2,0.5,0.2,0.7,0l0.7-0.7C6,8.9,6,8.6,5.8,8.4L2.5,5l3.3-3.4
	C6,1.4,6,1.1,5.9,0.9L5.2,0.1C5,0,4.7,0,4.5,0.1L0.1,4.7C0,4.9,0,5.2,0.1,5.4L4.5,9.9z"/>
</svg>
