<?xml version="1.0" encoding="utf-8"?>
<!-- Generator: Adobe Illustrator 18.1.1, SVG Export Plug-In . SVG Version: 6.00 Build 0)  -->
<svg version="1.1" id="Layer_1" xmlns="http://www.w3.org/2000/svg" xmlns:xlink="http://www.w3.org/1999/xlink" x="0px" y="0px"
	 viewBox="0 0 580 500" enable-background="new 0 0 580 500" xml:space="preserve">
<g id="Instagram_1">
	<path fill="#FAAF5C" d="M102.5,0H71.2C52.5,0,40,12.5,40,31.2v31.2V250v187.5v31.2c0,18.8,12.5,31.2,31.2,31.2h31.2h375h31.2
		c18.8,0,31.2-12.5,31.2-31.2v-31.2V250V62.5V31.2C540,12.5,527.5,0,508.8,0h-31.2H102.5z M290,187.5c34.4,0,62.5,28.1,62.5,62.5
		s-28.1,62.5-62.5,62.5s-62.5-28.1-62.5-62.5S255.6,187.5,290,187.5z M477.5,437.5h-375V250H165c0,68.8,56.2,125,125,125
		s125-56.2,125-125h62.5V437.5z M477.5,156.2h-93.8V62.5h93.8V156.2z"/>
</g>
</svg>
