<?xml version="1.0" encoding="utf-8"?>
<!-- Generator: Adobe Illustrator 18.1.1, SVG Export Plug-In . SVG Version: 6.00 Build 0)  -->
<svg version="1.1" id="Layer_1" xmlns="http://www.w3.org/2000/svg" xmlns:xlink="http://www.w3.org/1999/xlink" x="0px" y="0px"
	 viewBox="0 0 580 500" enable-background="new 0 0 580 500" xml:space="preserve">
<path fill="#FAAF5C" d="M290,0C152.5,0,40,112.5,40,250s112.5,250,250,250s250-112.5,250-250S427.5,0,290,0z M65,250
	c0-31.2,6.2-62.5,18.8-90.6L190,453.1C118.1,415.6,65,337.5,65,250z M290,475c-21.9,0-43.8-3.1-62.5-9.4l68.8-196.9L365,459.4
	c0,0,0,3.1,3.1,3.1C340,468.8,315,475,290,475z M321.2,143.8c12.5,0,25-3.1,25-3.1c12.5,0,9.4-18.8,0-18.8c0,0-37.5,3.1-59.4,3.1
	c-25,3.1-59.4,0-59.4,0c-12.5,0-12.5,18.8,0,18.8c0,0,12.5,0,25,3.1l34.4,96.9l-50,146.9l-84.4-246.9c12.5,0,25-3.1,25-3.1
	c12.5,0,9.4-18.8,0-18.8c0,0-37.5,3.1-59.4,3.1c-3.1,0-9.4,0-15.6,0C143.1,62.5,211.9,25,290,25c59.4,0,112.5,21.9,153.1,59.4H440
	c-21.9,0-37.5,18.8-37.5,40.6c0,18.8,9.4,34.4,21.9,53.1c9.4,15.6,18.8,34.4,18.8,62.5c0,18.8-6.2,40.6-15.6,71.9l-21.9,75
	L321.2,143.8z M486.9,140.6C505.6,171.9,515,209.4,515,250c0,84.4-43.8,156.2-112.5,193.8l68.8-200c12.5-31.2,15.6-56.2,15.6-81.2
	C490,156.2,486.9,150,486.9,140.6z"/>
</svg>
