<?xml version="1.0" encoding="utf-8"?>
<!-- Generator: Adobe Illustrator 18.1.1, SVG Export Plug-In . SVG Version: 6.00 Build 0)  -->
<svg version="1.1" id="Layer_1" xmlns="http://www.w3.org/2000/svg" xmlns:xlink="http://www.w3.org/1999/xlink" x="0px" y="0px"
	 viewBox="0 0 580 500" enable-background="new 0 0 580 500" xml:space="preserve">
<path fill="#FAAF5C" d="M290,0C149.4,0,33.8,115.6,33.8,256.2c0,112.5,75,209.4,175,243.8c12.5,3.1,18.8-6.2,18.8-12.5
	c0-6.2,0-21.9,0-43.7c-71.9,15.6-87.5-34.4-87.5-34.4c-12.5-28.1-28.1-37.5-28.1-37.5c-21.9-15.6,3.1-15.6,3.1-15.6
	c25,3.1,40.6,25,40.6,25c21.9,40.6,59.4,28.1,75,21.9c3.1-15.6,9.4-28.1,15.6-34.4c-59.4-6.2-118.8-28.1-118.8-125
	c0-28.1,9.4-50,25-68.7c-3.1-6.2-12.5-31.2,3.1-68.8c0,0,21.9-6.2,71.9,25c18.8-3.1,40.6-6.3,62.5-6.3s43.7,3.1,65.6,9.4
	c50-34.4,71.9-25,71.9-25c12.5,34.4,6.2,62.5,3.1,68.8c15.6,18.7,25,40.6,25,68.8c0,100-59.4,118.8-115.6,125
	c9.4,9.4,18.8,25,18.8,46.9c0,34.4,0,62.5,0,71.9c0,6.2,3.1,15.6,18.8,12.5c103.1-34.4,175-131.2,175-243.8
	C546.2,115.6,430.6,0,290,0z"/>
</svg>
