<?xml version="1.0" encoding="utf-8"?>
<!-- Generator: Adobe Illustrator 18.1.1, SVG Export Plug-In . SVG Version: 6.00 Build 0)  -->
<svg version="1.1" id="Layer_1" xmlns="http://www.w3.org/2000/svg" xmlns:xlink="http://www.w3.org/1999/xlink" x="0px" y="0px"
	 viewBox="0 0 580 500" enable-background="new 0 0 580 500" xml:space="preserve">
<g id="Pinterest_1">
	<path fill="#FAAF5C" d="M255.6,331.2C243.1,400,227.5,465.6,183.8,500c-15.6-103.1,21.9-181.2,37.5-265.6
		c-28.1-46.9,3.1-143.8,59.4-121.9c71.9,31.2-62.5,181.2,28.1,200c93.8,18.8,131.2-168.8,75-231.2c-84.4-87.5-243.8-3.1-225,125
		c6.2,31.2,34.4,40.6,12.5,84.4c-53.1-12.5-71.9-56.2-68.8-115.6c3.1-97,84.4-162.6,162.5-172C365-9.4,461.9,40.6,474.4,140.6
		c15.6,112.5-46.9,231.2-153.1,225C293.1,359.4,280.6,343.8,255.6,331.2z"/>
</g>
</svg>
