<?xml version="1.0" encoding="utf-8"?>
<!-- Generator: Adobe Illustrator 18.1.1, SVG Export Plug-In . SVG Version: 6.00 Build 0)  -->
<svg version="1.1" id="Layer_1" xmlns="http://www.w3.org/2000/svg" xmlns:xlink="http://www.w3.org/1999/xlink" x="0px" y="0px"
	 viewBox="0 0 580 500" enable-background="new 0 0 580 500" xml:space="preserve">
<g id="Dribbble_1">
	<path fill="#FAAF5C" d="M290,0C152.5,0,40,112.5,40,250s112.5,250,250,250s250-112.5,250-250S427.5,0,290,0z M477.5,250
		c0,6.2,0,12.5,0,18.8c-31.2-9.4-59.4-15.6-93.8-15.6c-6.2,0-12.5,0-15.6,0c-3.1-15.6-9.4-31.2-15.6-46.9
		c31.2-15.6,62.5-37.5,87.5-65.6C465,171.9,477.5,209.4,477.5,250z M405.6,103.1c-25,21.9-50,43.8-81.2,56.2
		c-21.9-34.4-50-65.6-84.4-90.6c15.6-3.1,31.2-6.2,50-6.2C333.8,62.5,371.2,78.1,405.6,103.1z M183.8,96.9
		c37.5,21.9,68.8,50,90.6,84.4c-53.1,15.6-106.2,15.6-159.4,0C130.6,146.9,152.5,118.8,183.8,96.9z M102.5,250c0-6.2,0-12.5,0-18.8
		c31.2,9.4,62.5,12.5,93.8,12.5c34.4,0,71.9-6.2,103.1-15.6c6.2,12.5,9.4,21.9,15.6,34.4c-65.6,15.6-125,53.1-168.8,106.2
		C118.1,337.5,102.5,293.8,102.5,250z M183.8,403.1c34.4-43.8,84.4-75,140.6-90.6c0,9.4,0,18.8,0,28.1c0,31.2-6.2,62.5-15.6,93.8
		c-6.2,0-12.5,0-18.8,0C249.4,437.5,215,425,183.8,403.1z M371.2,418.8c6.2-25,9.4-50,9.4-75c0-12.5,0-25-3.1-34.4
		c3.1,0,3.1,0,6.2,0c28.1,0,53.1,3.1,81.2,12.5C446.2,362.5,411.9,400,371.2,418.8z"/>
</g>
</svg>
