<?xml version="1.0" encoding="utf-8"?>
<!-- Generator: Adobe Illustrator 18.1.1, SVG Export Plug-In . SVG Version: 6.00 Build 0)  -->
<svg version="1.1" id="Layer_1" xmlns="http://www.w3.org/2000/svg" xmlns:xlink="http://www.w3.org/1999/xlink" x="0px" y="0px"
	 viewBox="0 0 580 500" enable-background="new 0 0 580 500" xml:space="preserve">
<g id="Twitter_1">
	<path fill="#FAAF5C" d="M580,68.8c-21.8,10.9-43.5,14.5-68.9,18.1c25.4-14.5,43.5-36.2,50.8-65.2c-21.8,14.5-47.1,25.4-76.1,29
		c-21.8-21.8-54.4-36.2-87-36.2c-61.6,0-116,54.4-116,119.6c0,10.9,0,18.1,3.6,25.4C184.9,155.8,97.9,108.6,39.9,36.1
		C29,54.2,25.4,72.4,25.4,97.8c0,39.9,29,76.1,58,97.9c-18.1,0-47.1-7.2-47.1-14.5l0,0c0,58,36.2,105.1,90.6,116
		c-10.9,3.6-25.4,3.6-36.2,3.6c-7.2,0-18.1,0-25.4-3.6c14.5,47.1,58,83.4,108.8,83.4c-39.9,32.6-94.2,50.8-148.6,50.8
		c-10.9,0-18.1,0-29,0c58,36.2,119.6,54.4,184.9,54.4c217.5,0,337.1-181.2,337.1-337.1c0-3.6,0-10.9,0-14.5
		C543.8,115.9,565.5,94.1,580,68.8z"/>
</g>
</svg>
