<?xml version="1.0" encoding="UTF-8"?><svg id="uuid-135cf9b3-21b7-4d3b-af51-4d99e2649ffe" xmlns="http://www.w3.org/2000/svg" viewBox="0 0 153 25"><path d="M41.51,2.06h3.46l-9.15,20.93h-3.46L41.51,2.06Z" fill="#4000f5"/><path d="M17.44,22.98h-4.53V5.62c0-.17-.06-.32-.18-.45s-.26-.19-.44-.19h-1.75c-.17,0-.32.06-.44.19-.12.13-.18.28-.18.45v17.37h-4.53V6c0-2.85,1.34-4.27,4.01-4.27h4.01c2.67,0,4.01,1.42,4.01,4.27v16.98Z" fill="#4000f5"/><path d="M19.28,5.91v-3.85h11.32v3.85h-3.4v17.08h-4.53V5.91h-3.4Z" fill="#4000f5"/><path d="M53.85,19.23h5.01v3.75h-9.54V2.06h9.54v3.69h-5.01v4.92h4.69v3.56h-4.69v5.01Z" fill="#4000f5"/><path d="M60.28,5.91v-3.85h11.32v3.85h-3.4v17.08h-4.53V5.91h-3.4Z" fill="#4000f5"/><path d="M81.47,19.56v-3.23h4.3v2.72c0,2.85-1.34,4.27-4.01,4.27h-4.08c-2.67,0-4.01-1.42-4.01-4.27V6c0-2.85,1.34-4.27,4.01-4.27h4.08c2.67,0,4.01,1.42,4.01,4.27v1.97h-4.3v-2.52c0-.17-.06-.32-.18-.45-.12-.13-.26-.19-.44-.19h-2.04c-.17,0-.32.06-.44.19-.12.13-.18.28-.18.45v14.1c0,.17.06.32.18.45.12.13.26.19.44.19h2.04c.17,0,.32-.06.44-.19.12-.13.18-.28.18-.45Z" fill="#4000f5"/><path d="M93.01,19.23h5.01v3.75h-9.54V2.06h9.54v3.69h-5.01v4.92h4.69v3.56h-4.69v5.01Z" fill="#4000f5"/><path d="M99.45,5.91v-3.85h11.32v3.85h-3.4v17.08h-4.53V5.91h-3.4Z" fill="#4000f5"/><path d="M117.37,19.23h5.01v3.75h-9.54V2.06h9.54v3.69h-5.01v4.92h4.69v3.56h-4.69v5.01Z" fill="#4000f5"/><path d="M129.53,14.41v8.57h-4.53V2.06h8.05c2.67,0,4.01,1.42,4.01,4.27v2.43c0,1.73-.61,2.83-1.84,3.3,1.08.39,1.62,1.27,1.62,2.65v8.28h-4.53v-7.92c0-.43-.21-.65-.61-.65h-2.17ZM129.53,5.13v6.11h2.39c.17,0,.32-.06.44-.19.12-.13.18-.28.18-.45v-4.82c0-.17-.06-.32-.18-.45-.12-.13-.26-.19-.44-.19h-2.39Z" fill="#4000f5"/><path d="M148.29,1.73c2.67,0,4.01,1.42,4.01,4.27v16.98h-4.53v-7.02h-3.27v7.02h-4.53V6c0-2.85,1.34-4.27,4.01-4.27h4.3ZM144.5,12.47h3.27v-7.02c0-.17-.06-.32-.18-.45-.12-.13-.26-.19-.44-.19h-2.04c-.17,0-.32.06-.44.19-.12.13-.18.28-.18.45v7.02Z" fill="#4000f5"/><rect y="10.66" width="2.5" height="3.56" fill="#4000f5"/><rect y="2.06" width="2.82" height="3.69" fill="#4000f5"/><rect y="19.23" width="2.82" height="3.75" fill="#4000f5"/></svg>