<?xml version="1.0" encoding="UTF-8"?><svg id="uuid-05427a09-12ef-4b36-8e89-266d49bbb22d" xmlns="http://www.w3.org/2000/svg" viewBox="0 0 90 88"><path d="M33.35,73.76l-1.28,1.78s-3.2.41-13.11-3.21c-9.91-3.63-12.08-6.01-12.08-6.01l.17-2.18" fill="#4000f5" stroke="#4000f5" stroke-linejoin="round"/><path d="M56.7,14.66c.06.02.13.03.2.03.27-.02.48-.25.46-.53-.08-1.26-7.98-4.41-14.6-6.83s-14.68-5.12-15.62-4.27c-.2.18-.22.5-.04.7l.29.17s.3,1.73-1.58,2.88-2.53,1.45-3.79,4.89c-1.26,3.44-16.64,45.43-17.33,47.32s-.22,3.06,1.23,4.35,10.02,5.12,13.92,6.55c3.91,1.43,12.92,4.04,14.86,3.99s3.06-.64,3.75-2.53,16.07-43.88,17.33-47.32.96-4.09.26-6.18.65-3.22.65-3.22Z" fill="#4000f5" stroke="#4000f5" stroke-linejoin="round"/><path d="M32.21,71.36l-1.28,1.78s-3.2.41-13.11-3.21c-9.91-3.63-12.08-6.01-12.08-6.01l.17-2.18" fill="#cef565" stroke="#4000f5" stroke-linejoin="round"/><path d="M55.55,12.26c.06.02.13.03.2.03.27-.02.48-.25.46-.53-.08-1.26-7.98-4.41-14.6-6.83S26.95-.19,26,.66c-.2.18-.22.5-.04.7l.29.17s.3,1.73-1.58,2.88c-1.89,1.15-2.53,1.45-3.79,4.89-1.26,3.44-16.64,45.43-17.33,47.32s-.22,3.06,1.23,4.35,10.02,5.12,13.92,6.55c3.91,1.43,12.92,4.04,14.86,3.99s3.06-.64,3.75-2.53,16.07-43.88,17.33-47.32c1.26-3.44.96-4.09.26-6.18s.65-3.22.65-3.22Z" fill="#cef565" stroke="#4000f5" stroke-linejoin="round"/><path d="M17.65,52.99c-9.5-1.7-9.32-13.72.17-14.66,8.02,4.62,20.39,6.02,27.5-.91,3.98-4.09,5.24-10.79,1.36-15.29,6.04,4.71,2.28,14.48-3.08,18.23-4.07,2.98-9.1,2.67-13.87,2.45,5.05,6.88-5.1,12.23-11.14,10.21,5.58.91,13.42-4.05,9.78-10.19-3.53-1.37-7.37-2.41-10.75-4.23-8.74,1.79-8.05,12.67.04,14.38Z" fill="#4000f5"/><path d="M24.66,34.68c-5.46,3.36-7.2-3.4-2.34-5.16,4.41-.73,2.13,5.25-1.15,3.67.09,2.48,3.92,1.07,4.28-.61.5-1.65.42-4.01,2.74-2.66,5.42-2.05,3.14,6.6-1.34,5.57-1.09.16-.75,2.04-1.22,2.96-.61-.01-1.31-.03-2.01-.04.28-1.26,1.04-2.57,1.03-3.73ZM26.67,34.48c1.75.22,3.98-2.77,1.98-3.6-1.57.05-1.31,2.44-1.98,3.6ZM21.34,31.61c-.58,1.67,1.99.66,1.9-.35-.04-1.58-1.56-.49-1.9.35Z" fill="#4000f5"/><path d="M26.47,28.66c1.15-3.09,2.41-6.15,2.64-9.39,3.01-.37,8.27-.16,7.32,4.05-.48,5.01-5.73,5.92-9.96,5.34ZM29.36,27.51c3.65.91,7.04-7.27,2.36-6.96-1.36,1.96-1.54,4.66-2.36,6.96Z" fill="#4000f5"/><path d="M46.46,32.03c-.1-3.4-1.95,2.17-2.08,3.02-.21.9-1.26.4-2.01.6.18-.34.29-.56.48-.92-5.68,4.38-6.98-4.83-1.24-5.17,3.37.35,1.04,5.17-1.87,3.97.1,2.16,3.31.7,3.65-.74.54-1.38.54-3.95,2.62-2.94-.01.05-.02.1-.04.16,2.22-1.97,2.53,2.33.37,2.23.04-.07.08-.13.12-.2ZM39.63,32.4c1.15.67,2.47-.65,1.76-1.66-.98-.27-1.24,1.02-1.76,1.66Z" fill="#4000f5"/><path d="M32.66,29.65c.57,0,1.26,0,1.98,0,.01.2.02.35.03.52,5.37-2.57,2.97,6.63-1.33,5.51-1.91.98.61,3.65-3.5,2.94,1.13-2.92,2.01-5.88,2.82-8.96ZM35.68,32.63c.54-1.15-.65-2.42-1.47-1.12-.26.84-.54,1.67-.79,2.51-.16,1.66,2.17-.52,2.26-1.39Z" fill="#4000f5"/><path d="M37.59,22.81c.53.09,1.59-.28,2,.34,3.33-1.72,3.52,3.36.63,2.33.19-.39.65-.73.14-1.13-2.06-.37-1.88,3.18-2.57,4.6-.62-.01-1.36-.03-2.17-.05.82-2.12,1.4-3.87,1.98-6.08Z" fill="#4000f5"/><path d="M20.97,47.23c.4,2.38,4.17,0,3.14-1.74.47-.34.75-1.15,1.69-.86,0,.15,0,.31-.02.49.19.05.37.1.58.16.1.73-.79.42-1.04.96-.31.68-.72,1.48-.35,2.21.13.28.13.47-.17.52-.47.08-.99.25-1.32-.34-.05-.1-.34-.1-.51-.09-2.05.78-4.08-.52-2.76-2.5,2.78-3.64,5.41,2.22.74,1.19ZM21.07,46.38c0,.82,1.2.51,1.37-.15.13-1.14-.9-1.07-1.37.15Z" fill="#4000f5"/><path d="M13.01,48.13l1.99-5.45c1.07.3,3.37-.04,3.36,1.66.16,2.6-2.44,4.58-5.36,3.79ZM14.51,47.49c1.73.57,3.91-3.3,1.83-3.91-1.16.59-1.11,2.64-1.83,3.91Z" fill="#4000f5"/><path d="M17.71,48.4l1.34-3.65c.26.03.58.07.99.12-.79,1.17-.49,3.99-2.33,3.53Z" fill="#4000f5"/><path d="M19.46,43.86c.27-.79,1.16-.71,1.04.05-.18.55-.97.56-1.04-.05Z" fill="#4000f5"/><path d="M22.41,6.36s3.88.11,16.63,4.78c12.75,4.67,16.37,7.3,16.37,7.3" fill="none" stroke="#4000f5" stroke-miterlimit="10" stroke-width=".5"/><path d="M15.96,63.73l.64-1.76-.44-.16.14-.38c.21.08.39.08.56-.03l.46.17-.86,2.35-.5-.18Z" fill="#4000f5"/><path d="M16.83,64.05l.14-.38,1.17-.48c.25-.11.41-.2.47-.36.05-.15,0-.29-.19-.36-.29-.11-.56,0-.76.42l-.28-.45c.21-.46.73-.62,1.26-.43.49.18.66.56.51.98-.13.37-.53.55-.91.65l-.37.12-.37.08.46.1.81.3-.16.45-1.77-.65Z" fill="#4000f5"/><path d="M19.96,63.86c.25-.68.92-1.03,1.62-.77s.99.96.74,1.64-.92,1.03-1.62.78-.99-.96-.74-1.64ZM21.79,64.53c.15-.42.05-.8-.39-.96s-.76.07-.92.48-.04.8.39.96.76-.06.92-.48Z" fill="#4000f5"/><path d="M21.96,65.92l.14-.39,1.35-.82.48-.25-.34-.1-.87-.32.16-.45,1.81.66-.14.39-1.4.84-.44.22.32.1,1.04.38-.16.45-1.95-.71Z" fill="#4000f5"/><path d="M34.04,39.44l.72-1.96,1.05-.05-.14.37-.74.04-.15.41.62-.03-.14.37-.62.03-.16.43.74-.04-.14.37-1.05.05Z" fill="#4000f5"/><path d="M35.24,39.12l.25-.29c.04.12.15.24.3.23.08,0,.15-.04.17-.12s-.02-.1-.12-.13l-.12-.04c-.16-.06-.26-.15-.17-.41.1-.28.33-.46.59-.47.23-.01.34.12.37.24l-.24.29c-.05-.14-.15-.21-.27-.21-.07,0-.13.04-.16.11-.03.08,0,.1.13.15l.1.04c.2.07.25.19.17.41-.1.28-.33.44-.57.46-.23.01-.4-.09-.42-.26Z" fill="#4000f5"/><path d="M36.46,38.9l.25-.69h-.16s.12-.31.12-.31h.16s.06-.18.06-.18l.39-.23-.14.39h.29s-.12.3-.12.3h-.29s-.22.63-.22.63c-.04.12-.01.16.04.15.07,0,.15-.08.21-.16l-.04.34c-.07.08-.22.19-.38.2-.23.01-.27-.17-.17-.44Z" fill="#4000f5"/><path d="M37.07,39.29l.17-.45.33-.02-.17.45-.33.02Z" fill="#4000f5"/><path d="M37.69,39.25l.54-1.47h-.27s.12-.31.12-.31c.13,0,.24-.06.36-.19h.28s-.72,1.95-.72,1.95l-.31.02Z" fill="#4000f5"/><path d="M38.36,38.71c.07-.2.24-.41.51-.49-.18-.03-.2-.21-.12-.44.11-.3.38-.55.73-.57.34-.02.44.22.33.51-.08.23-.25.41-.47.47.22.06.25.26.17.46-.12.32-.39.56-.78.58s-.5-.2-.38-.52ZM39.2,38.58c.05-.14.02-.26-.13-.25-.15,0-.27.13-.32.27-.05.13-.04.25.14.24.18,0,.27-.13.32-.27ZM39.45,37.82c.05-.12.03-.23-.12-.22-.14,0-.24.12-.29.24-.05.13-.03.23.11.23.13,0,.24-.11.29-.25Z" fill="#4000f5"/><path d="M39.66,38.65c.07-.2.24-.41.51-.49-.18-.03-.2-.21-.12-.44.11-.3.38-.55.73-.57.34-.02.44.22.33.51-.08.23-.25.41-.47.47.22.06.25.26.17.46-.12.32-.39.56-.78.58-.39.02-.5-.2-.38-.52ZM40.5,38.51c.05-.14.02-.26-.13-.25-.15,0-.27.13-.32.27-.05.13-.04.25.14.24.17,0,.27-.13.32-.27ZM40.75,37.75c.05-.12.03-.23-.12-.22-.14,0-.24.12-.29.24-.05.13-.03.23.11.23.13,0,.24-.11.29-.25Z" fill="#4000f5"/><path d="M40.94,38.67l.35-.31c-.04.23.04.34.21.33.15,0,.28-.12.35-.33.08-.22.01-.31-.13-.31-.12,0-.22.07-.29.19v.02s-.28-.03-.28-.03l.45-1.1.94-.05-.14.38-.65.03-.26.61c.11-.18.28-.32.47-.33.25-.01.34.2.2.6s-.48.7-.81.72c-.3.02-.44-.18-.41-.43Z" fill="#4000f5"/><path d="M26.35,2c.28-.05,2.44-.12,14.74,4.38,12.2,4.47,13.8,5.91,13.99,6.13" fill="none" stroke="#4000f5" stroke-miterlimit="10" stroke-width=".5"/><path d="M23.8,18.97c-3-.15-5.52,1.45-7.3,3.81l-2.81,7.68c-.07,1.1,0,2.17.24,3.16.05-.01.1-.02.15-.03-.5-5.03,2.51-12.38,8.31-12.4,4.36.9.99,7.27-2.5,6.53.6-1.96,1.17-3.84,1.74-5.72-.04-.04-.09-.09-.13-.13-5.05,1.31-3.85,9.85-6.86,13.73,1.14-.06,2.18-.11,3.1-.16.61-2.05.64-5.13,2.18-6.39,5.84,1.08,10.81-8.32,3.86-10.07Z" fill="#4000f5"/><path d="M86.09,80.08l-.27,2.17s-2.61,1.89-13.05,3.45c-10.44,1.56-13.49.51-13.49.51l-.9-2" fill="#4000f5" stroke="#4000f5" stroke-linejoin="round"/><path d="M78.29,17.02c.07,0,.13-.03.19-.07.23-.15.3-.45.15-.69-.67-1.06-9.12-.05-16.09.99s-15.34,2.53-15.76,3.73c-.09.26.05.54.3.63h.33s1.09,1.38-.01,3.29-1.53,2.48-.99,6.11,7.15,47.85,7.44,49.84,1.28,2.79,3.17,3.23,11.25-.3,15.36-.91c4.11-.61,13.28-2.64,14.96-3.61s2.38-2.03,2.08-4.02-6.9-46.22-7.44-49.84c-.54-3.63-1.11-4.05-2.73-5.55s-.97-3.14-.97-3.14Z" fill="#4000f5" stroke="#4000f5" stroke-linejoin="round"/><path d="M83.94,78.52l-.27,2.17s-2.61,1.89-13.05,3.45c-10.44,1.56-13.49.51-13.49.51l-.9-2" fill="#cef565" stroke="#4000f5" stroke-linejoin="round"/><path d="M76.14,15.46c.07,0,.13-.03.19-.07.23-.15.3-.45.15-.69-.67-1.06-9.12-.05-16.09.99-6.96,1.04-15.34,2.53-15.76,3.73-.09.26.05.54.3.63h.33s1.09,1.38-.01,3.29c-1.11,1.91-1.53,2.48-.99,6.11.54,3.63,7.15,47.85,7.44,49.84s1.28,2.79,3.17,3.23,11.25-.3,15.36-.91c4.11-.61,13.28-2.64,14.96-3.61s2.38-2.03,2.08-4.02-6.9-46.22-7.44-49.84-1.11-4.05-2.73-5.55-.97-3.14-.97-3.14Z" fill="#cef565" stroke="#4000f5" stroke-linejoin="round"/><path d="M62.36,69.37c-9.15,3.06-14.75-7.58-6.87-12.95,9.25.22,20.79-4.48,23.71-13.96,1.53-5.49-.57-11.98-6.12-14.07,7.55,1.24,8.93,11.62,6.03,17.47-2.14,4.57-6.71,6.7-11,8.8,7.73,3.62,1.38,13.18-4.89,14.29,5.34-1.87,9.85-9.98,3.71-13.62-3.76.48-7.62,1.41-11.47,1.44-6.82,5.76-1,14.98,6.92,12.61Z" fill="#4000f5"/><path d="M59.75,49.93c-3.18,5.57-7.95.46-4.53-3.41,3.52-2.75,4.38,3.59.75,3.77,1.27,2.13,3.95-.94,3.47-2.58-.35-1.69-1.55-3.72,1.13-3.65,3.78-4.4,5.91,4.29,1.49,5.53-.88.66.31,2.15.35,3.18-.54.28-1.17.61-1.78.93-.36-1.24-.32-2.75-.88-3.77ZM61.42,48.8c1.64-.64,2.17-4.34.02-4.11-1.35.8.01,2.77-.02,4.11ZM55.36,48.83c.29,1.74,2.06-.37,1.49-1.22-.79-1.37-1.61.32-1.49,1.22Z" fill="#4000f5"/><path d="M58.46,43.78c-.47-3.26-.83-6.55-2.18-9.51,2.46-1.77,7.19-4.1,8.37.05,1.98,4.62-2.2,7.94-6.19,9.45ZM60.44,41.39c3.64-.94,2.7-9.75-1.26-7.24-.25,2.37.88,4.83,1.26,7.24Z" fill="#4000f5"/><path d="M77.62,37.17c-1.71-2.94-.67,2.84-.38,3.65.25.89-.92.95-1.47,1.49,0-.38-.01-.63-.02-1.04-2.89,6.56-8.44-.89-3.56-3.95,3.13-1.3,3.39,4.04.26,4.38,1.12,1.85,3.24-.97,2.85-2.4-.18-1.47-1.41-3.72.89-3.84.01.05.03.1.04.16,1.01-2.79,3.33.84,1.39,1.78,0-.08,0-.15,0-.23ZM71.8,40.76c1.33.03,1.85-1.76.75-2.3-.99.23-.6,1.49-.75,2.3Z" fill="#4000f5"/><path d="M64.37,41.69c.5-.27,1.1-.61,1.73-.95.11.17.18.29.27.44,3.49-4.83,5.78,4.4,1.47,5.48-1.21,1.77,2.28,2.91-1.66,4.25-.41-3.1-1.05-6.12-1.81-9.22ZM68.44,42.86c-.07-1.27-1.73-1.81-1.83-.28.17.86.33,1.72.51,2.58.66,1.54,1.66-1.5,1.32-2.3Z" fill="#4000f5"/><path d="M65.42,33.32c.51-.18,1.27-1,1.92-.66,2.1-3.1,4.7,1.27,1.67,1.75-.02-.44.22-.95-.42-1.06-1.98.66-.12,3.69-.06,5.27-.55.28-1.21.62-1.93.99-.29-2.25-.62-4.06-1.18-6.29Z" fill="#4000f5"/><path d="M62.52,62.72c1.49,1.9,3.66-2,1.93-3.03.25-.53.11-1.37,1.07-1.56.07.14.14.28.22.44.19-.05.38-.09.58-.14.43.59-.49.74-.46,1.34.05.75.07,1.64.75,2.11.25.18.33.35.1.53-.38.3-.75.69-1.32.33-.09-.06-.35.07-.49.17-1.42,1.67-3.83,1.49-3.62-.87.7-4.52,5.81-.64,1.22.69ZM62.2,61.92c.4.72,1.29-.13,1.13-.79-.43-1.06-1.3-.51-1.13.79Z" fill="#4000f5"/><path d="M55.96,67.32l-.86-5.74c1.08-.25,2.93-1.65,3.75-.15,1.38,2.2.05,5.19-2.89,5.89ZM56.97,66.03c1.79-.33,1.85-4.77-.27-4.3-.73,1.08.28,2.85.27,4.3Z" fill="#4000f5"/><path d="M60.21,65.31l-.57-3.85c.24-.09.55-.22.93-.37-.14,1.41,1.48,3.74-.36,4.21Z" fill="#4000f5"/><path d="M59.57,60.48c-.15-.82.68-1.18.93-.45.11.57-.58.96-.93.45Z" fill="#4000f5"/><path d="M44.21,26.15s3.46-1.76,16.89-3.76c13.43-2.01,17.86-1.43,17.86-1.43" fill="none" stroke="#4000f5" stroke-miterlimit="10" stroke-width=".5"/><path d="M66.02,79.6l-.28-1.85-.47.07-.06-.4c.22-.03.38-.12.48-.3l.48-.07.37,2.47-.53.08Z" fill="#4000f5"/><path d="M66.94,79.46l-.06-.4.79-.98c.17-.21.27-.37.24-.54-.02-.15-.15-.25-.34-.22-.31.05-.5.27-.46.73l-.46-.27c-.03-.51.34-.9.9-.98.52-.08.85.18.92.62.06.39-.2.73-.48,1.01l-.27.29-.29.25.45-.13.86-.13.07.47-1.87.28Z" fill="#4000f5"/><path d="M69.59,77.8c-.11-.71.32-1.35,1.05-1.46s1.33.37,1.43,1.08-.32,1.35-1.05,1.46-1.33-.37-1.43-1.09ZM71.52,77.51c-.07-.44-.34-.73-.8-.66s-.64.42-.57.86.35.73.8.66.64-.42.57-.86Z" fill="#4000f5"/><path d="M72.34,78.65l-.06-.41.8-1.36.3-.45-.35.07-.91.14-.07-.47,1.9-.28.06.41-.83,1.41-.28.4.33-.07,1.09-.16.07.47-2.05.31Z" fill="#4000f5"/><path d="M70.26,49.62l-.31-2.06.9-.55.06.39-.64.39.06.43.53-.33.06.39-.53.33.07.46.64-.39.06.39-.9.55Z" fill="#4000f5"/><path d="M71.16,48.77l.08-.37c.09.09.24.14.38.06.07-.04.11-.11.1-.19s-.07-.08-.17-.06l-.13.02c-.17.03-.3,0-.34-.27-.04-.3.07-.56.29-.69.19-.12.36-.06.44.03l-.07.37c-.11-.1-.23-.12-.34-.05-.06.04-.1.1-.08.18.01.08.05.09.18.07l.11-.02c.21-.03.31.05.35.28.04.29-.08.55-.29.68-.2.12-.39.11-.5-.03Z" fill="#4000f5"/><path d="M72.13,47.99l-.11-.73-.13.08-.05-.34.13-.08-.03-.18.23-.39.06.41.25-.15.05.34-.25.15.1.65c.02.12.06.14.11.11.06-.03.09-.14.11-.24l.13.31c-.03.11-.1.27-.24.35-.2.12-.32-.02-.36-.3Z" fill="#4000f5"/><path d="M72.85,48.03l-.07-.48.28-.17.07.48-.28.17Z" fill="#4000f5"/><path d="M73.38,47.71l-.23-1.54-.23.14-.05-.34c.11-.07.18-.16.22-.34l.24-.15.31,2.06-.26.16Z" fill="#4000f5"/><path d="M73.71,46.91c-.03-.21.01-.47.21-.68-.17.06-.28-.09-.32-.32-.05-.31.07-.67.37-.85.29-.18.49-.02.54.29.04.24-.02.49-.18.63.22-.06.34.11.37.32.05.34-.07.67-.41.88s-.53.06-.58-.27ZM74.38,46.39c-.02-.15-.11-.23-.24-.15-.13.08-.18.24-.15.39.02.14.09.24.24.15.15-.09.18-.25.16-.39ZM74.24,45.6c-.02-.13-.09-.21-.21-.14-.12.07-.15.22-.14.35.02.14.09.22.21.14.11-.07.16-.21.13-.35Z" fill="#4000f5"/><path d="M74.81,46.23c-.03-.21.01-.47.21-.68-.17.06-.28-.09-.32-.32-.05-.31.07-.67.37-.85.29-.18.49-.02.54.29.04.24-.02.48-.18.63.23-.06.34.11.37.32.05.34-.07.67-.41.88-.33.2-.53.06-.58-.27ZM75.49,45.71c-.02-.15-.11-.23-.24-.15-.13.08-.18.24-.15.39.02.14.09.24.24.15.15-.09.18-.25.16-.39ZM75.35,44.93c-.02-.13-.09-.21-.21-.14-.12.07-.15.22-.14.35.02.14.09.22.21.14.11-.07.15-.21.13-.35Z" fill="#4000f5"/><path d="M75.95,45.64l.16-.44c.08.22.2.28.34.19.13-.08.18-.24.15-.46-.03-.23-.14-.28-.26-.21-.1.06-.16.17-.16.31v.02s-.25.11-.25.11l-.13-1.18.8-.49.06.4-.56.34.07.66c.01-.21.09-.42.26-.52.22-.13.4,0,.46.43s-.08.84-.37,1.02c-.26.16-.47.05-.57-.18Z" fill="#4000f5"/><path d="M45.58,20.43c.22-.17,2.09-1.28,15.04-3.21,12.85-1.92,14.95-1.42,15.22-1.31" fill="none" stroke="#4000f5" stroke-miterlimit="10" stroke-width=".5"/><path d="M51.47,36.55c-2.7,1.3-4.15,3.92-4.58,6.84l1.21,8.09c.47.99,1.05,1.9,1.73,2.66.04-.03.08-.07.12-.1-2.85-4.17-3.72-12.07,1.36-14.87,4.26-1.3,4.35,5.91.94,6.93-.41-2-.81-3.93-1.21-5.86-.06-.02-.12-.04-.18-.06-3.81,3.57,1.34,10.49.55,15.34.97-.6,1.86-1.14,2.64-1.62-.45-2.09-1.9-4.81-1.15-6.65,5.65-1.85,5.51-12.48-1.43-10.7Z" fill="#4000f5"/></svg>