<?xml version="1.0" encoding="UTF-8"?><svg id="uuid-2b4ef7dc-064b-459f-b383-209ea9a8913b" xmlns="http://www.w3.org/2000/svg" xmlns:xlink="http://www.w3.org/1999/xlink" viewBox="0 0 178 108"><defs><clipPath id="uuid-094c475c-525e-4db0-ab8e-ad4c75a58035"><rect x="-86" width="45" height="108" transform="translate(-127 108) rotate(180)" fill="none"/></clipPath><clipPath id="uuid-00dbf603-2f15-404e-8127-947a6b317bc6"><rect width="178" height="108" transform="translate(178 108) rotate(180)" fill="none"/></clipPath></defs><g clip-path="url(#uuid-094c475c-525e-4db0-ab8e-ad4c75a58035)"><rect x="-142.82" y="7.13" width="150.19" height="13.92" fill="#4000f5" stroke="#4000f5" stroke-linejoin="round" stroke-width="2"/><rect x="-142.82" y="90.77" width="150.19" height="14.06" fill="#4000f5" stroke="#4000f5" stroke-linejoin="round" stroke-width="2"/><rect x="-142.82" y="85.45" width="150.19" height="14.06" fill="#cef565" stroke="#4000f5" stroke-linejoin="round" stroke-width="2"/><rect x="-142.82" y="1.81" width="150.19" height="13.92" fill="#cef565" stroke="#4000f5" stroke-linejoin="round" stroke-width="2"/></g><g clip-path="url(#uuid-00dbf603-2f15-404e-8127-947a6b317bc6)"><path d="M31.06,26.46v59.03c0,12.89-6.06,19.34-18.16,19.34H-6.58c-12.11,0-18.16-6.45-18.16-19.34V26.46c0-12.89,6.05-19.34,18.16-19.34H12.9c12.11,0,18.16,6.45,18.16,19.34ZM10.55,87.84V23.97c0-.78-.27-1.46-.81-2.05-.54-.59-1.2-.88-1.98-.88H-1.46c-.78,0-1.44.29-1.98.88-.54.59-.81,1.27-.81,2.05v63.87c0,.78.27,1.46.81,2.05.54.59,1.19.88,1.98.88H7.77c.78,0,1.44-.29,1.98-.88.54-.59.81-1.27.81-2.05Z" fill="#4000f5" stroke="#4000f5" stroke-linejoin="round" stroke-width="2"/><path d="M66.66,64.55v38.82h-20.51V8.59h36.47c12.11,0,18.16,6.44,18.16,19.34v10.99c0,7.81-2.78,12.79-8.35,14.94,4.88,1.76,7.32,5.76,7.32,12.01v37.5h-20.51v-35.89c0-1.95-.93-2.93-2.78-2.93h-9.81ZM66.66,22.51v27.69h10.84c.78,0,1.44-.29,1.98-.88.54-.59.81-1.27.81-2.05v-21.83c0-.78-.27-1.46-.81-2.05-.54-.59-1.2-.88-1.98-.88h-10.84Z" fill="#4000f5" stroke="#4000f5" stroke-linejoin="round" stroke-width="2"/><path d="M173,8.59l-16.11,43.5,19.19,51.27h-20.95l-14.06-37.5h-6.59v37.5h-20.51V8.59h20.51v39.7h4.98l14.79-39.7h18.75Z" fill="#4000f5" stroke="#4000f5" stroke-linejoin="round" stroke-width="2"/><path d="M23.5,21.15v59.03c0,12.89-6.06,19.34-18.16,19.34H-14.14c-12.11,0-18.16-6.45-18.16-19.34V21.15C-32.31,8.26-26.25,1.81-14.14,1.81H5.34c12.11,0,18.16,6.45,18.16,19.34ZM3,82.52V18.65c0-.78-.27-1.46-.81-2.05-.54-.59-1.2-.88-1.98-.88h-9.23c-.78,0-1.44.29-1.98.88-.54.59-.81,1.27-.81,2.05v63.87c0,.78.27,1.46.81,2.05.54.59,1.19.88,1.98.88H.21c.78,0,1.44-.29,1.98-.88.54-.59.81-1.27.81-2.05Z" fill="#cef565" stroke="#4000f5" stroke-linejoin="round" stroke-width="2"/><path d="M59.1,59.23v38.82h-20.51V3.27h36.47c12.11,0,18.16,6.44,18.16,19.34v10.99c0,7.81-2.78,12.79-8.35,14.94,4.88,1.76,7.32,5.76,7.32,12.01v37.5h-20.51v-35.89c0-1.95-.93-2.93-2.78-2.93h-9.81ZM59.1,17.19v27.69h10.84c.78,0,1.44-.29,1.98-.88.54-.59.81-1.27.81-2.05v-21.83c0-.78-.27-1.46-.81-2.05-.54-.59-1.2-.88-1.98-.88h-10.84Z" fill="#cef565" stroke="#4000f5" stroke-linejoin="round" stroke-width="2"/><path d="M165.44,3.27l-16.11,43.5,19.19,51.27h-20.95l-14.06-37.5h-6.59v37.5h-20.51V3.27h20.51v39.7h4.98l14.79-39.7h18.75Z" fill="#cef565" stroke="#4000f5" stroke-linejoin="round" stroke-width="2"/></g></svg>