<?xml version="1.0" encoding="UTF-8"?><svg id="uuid-d9c75ab5-24d4-48fc-9535-4f7fec174615" xmlns="http://www.w3.org/2000/svg" xmlns:xlink="http://www.w3.org/1999/xlink" viewBox="0 0 49 50"><defs><clipPath id="uuid-651426d4-80ff-4a8f-afaf-c84f768fea23"><rect x="-.83" width="49.83" height="50.4" fill="none"/></clipPath></defs><g clip-path="url(#uuid-651426d4-80ff-4a8f-afaf-c84f768fea23)"><path d="M23.87,4.9c5.31,0,7.96,2.83,7.96,8.48v24.59c0,5.65-2.65,8.48-7.96,8.48H7.36V4.9h16.5ZM22.84,39V12.29c0-.34-.12-.64-.35-.9-.24-.26-.52-.39-.87-.39h-5.26v29.28h5.26c.34,0,.63-.13.87-.39.23-.26.35-.56.35-.9Z" fill="#4000f5" stroke="#4000f5" stroke-linejoin="round"/><path d="M47.49,39h9.95v7.45h-18.94V4.9h18.94v7.32h-9.95v9.76h9.31v7.06h-9.31v9.95Z" fill="#4000f5" stroke="#4000f5" stroke-linejoin="round"/><path d="M20.95,2.05c5.31,0,7.96,2.83,7.96,8.48v24.59c0,5.65-2.65,8.48-7.96,8.48H4.45V2.05h16.5ZM19.93,36.15V9.44c0-.34-.12-.64-.35-.9-.24-.26-.52-.39-.87-.39h-5.26v29.28h5.26c.34,0,.63-.13.87-.39.23-.26.35-.56.35-.9Z" fill="#cef565" stroke="#4000f5" stroke-linejoin="round"/><path d="M44.58,36.15h9.95v7.45h-18.94V2.05h18.94v7.32h-9.95v9.76h9.31v7.06h-9.31v9.95Z" fill="#cef565" stroke="#4000f5" stroke-linejoin="round"/></g></svg>