<?xml version="1.0" encoding="UTF-8"?><svg id="c" xmlns="http://www.w3.org/2000/svg" viewBox="0 0 62 89"><rect x="3.84" y="3.14" width="57.2" height="84.75" rx="3.08" ry="3.08" fill="#4000f5" stroke="#4000f5" stroke-miterlimit="10" stroke-width="2"/><rect x="1.4" y="1" width="57.2" height="84.75" rx="3.08" ry="3.08" fill="#cef565" stroke="#4000f5" stroke-miterlimit="10" stroke-width="2"/><path d="M19.45,21.1c-.22,0-.34-.11-.34-.34v-4.75c0-.22.11-.34.34-.34s.34.11.34.34v4.42h2.22c.22,0,.34.11.34.34s-.11.34-.34.34h-2.55Z" fill="#4000f5"/><path d="M23.78,21.1c-.11,0-.2-.03-.25-.08s-.08-.14-.08-.25v-4.74c0-.12.03-.2.08-.26s.14-.08.25-.08.2.03.26.08c.05.05.08.14.08.26v4.74c0,.11-.03.2-.08.25-.05.05-.14.08-.26.08Z" fill="#4000f5"/><path d="M27.38,21.1c-.61,0-1.06-.15-1.35-.44s-.44-.74-.44-1.35v-1.84c0-.62.15-1.07.44-1.36.29-.29.74-.44,1.35-.43h.97c.5,0,.88.1,1.15.31.26.21.42.53.46.98.02.11,0,.2-.06.26s-.14.09-.26.09c-.2,0-.32-.11-.35-.34-.03-.25-.11-.41-.25-.5s-.37-.13-.68-.13h-.97c-.28,0-.5.03-.67.1-.16.07-.28.18-.34.35s-.1.39-.1.68v1.84c0,.29.03.51.1.67s.18.28.35.35c.16.07.39.1.67.1h.96c.25,0,.44-.03.58-.08.14-.05.24-.15.29-.29.06-.14.08-.33.08-.59v-.38h-.62c-.22,0-.34-.12-.34-.34s.11-.34.34-.34h.96c.22,0,.34.12.34.34v.71c0,.57-.13.98-.4,1.24-.26.26-.68.39-1.24.39h-.96Z" fill="#4000f5"/><path d="M31.7,21.1c-.09,0-.17-.03-.23-.1-.07-.07-.1-.15-.1-.23v-4.75c0-.09.03-.17.1-.23.07-.07.15-.1.23-.1s.17.03.23.1c.07.07.1.15.1.23v2.01h3.26v-2.01c0-.09.03-.17.1-.23.07-.07.15-.1.24-.1s.17.03.23.1c.07.07.1.15.1.23v4.75c0,.09-.03.17-.1.23s-.15.1-.23.1-.17-.03-.24-.1-.1-.15-.1-.23v-2.07h-3.26v2.07c0,.09-.03.17-.1.23-.07.07-.15.1-.23.1Z" fill="#4000f5"/><path d="M39.26,21.1c-.11,0-.2-.03-.25-.08s-.08-.14-.08-.25v-4.41h-1.55c-.11,0-.2-.03-.25-.08-.06-.06-.08-.14-.08-.25s.03-.2.08-.25c.06-.06.14-.08.25-.08h3.78c.11,0,.2.03.25.08.06.06.08.14.08.25s-.03.2-.08.25c-.06.06-.14.08-.25.08h-1.55v4.41c0,.11-.03.19-.09.25s-.14.09-.25.09Z" fill="#4000f5"/><path d="M19.45,21.1c-.22,0-.34-.11-.34-.34v-4.75c0-.22.11-.34.34-.34s.34.11.34.34v4.42h2.22c.22,0,.34.11.34.34s-.11.34-.34.34h-2.55Z" fill="none" stroke="#4000f5" stroke-miterlimit="10" stroke-width=".25"/><path d="M23.78,21.1c-.11,0-.2-.03-.25-.08s-.08-.14-.08-.25v-4.74c0-.12.03-.2.08-.26s.14-.08.25-.08.2.03.26.08c.05.05.08.14.08.26v4.74c0,.11-.03.2-.08.25-.05.05-.14.08-.26.08Z" fill="none" stroke="#4000f5" stroke-miterlimit="10" stroke-width=".25"/><path d="M27.38,21.1c-.61,0-1.06-.15-1.35-.44s-.44-.74-.44-1.35v-1.84c0-.62.15-1.07.44-1.36.29-.29.74-.44,1.35-.43h.97c.5,0,.88.1,1.15.31.26.21.42.53.46.98.02.11,0,.2-.06.26s-.14.09-.26.09c-.2,0-.32-.11-.35-.34-.03-.25-.11-.41-.25-.5s-.37-.13-.68-.13h-.97c-.28,0-.5.03-.67.1-.16.07-.28.18-.34.35s-.1.39-.1.68v1.84c0,.29.03.51.1.67s.18.28.35.35c.16.07.39.1.67.1h.96c.25,0,.44-.03.58-.08.14-.05.24-.15.29-.29.06-.14.08-.33.08-.59v-.38h-.62c-.22,0-.34-.12-.34-.34s.11-.34.34-.34h.96c.22,0,.34.12.34.34v.71c0,.57-.13.98-.4,1.24-.26.26-.68.39-1.24.39h-.96Z" fill="none" stroke="#4000f5" stroke-miterlimit="10" stroke-width=".25"/><path d="M31.7,21.1c-.09,0-.17-.03-.23-.1-.07-.07-.1-.15-.1-.23v-4.75c0-.09.03-.17.1-.23.07-.07.15-.1.23-.1s.17.03.23.1c.07.07.1.15.1.23v2.01h3.26v-2.01c0-.09.03-.17.1-.23.07-.07.15-.1.24-.1s.17.03.23.1c.07.07.1.15.1.23v4.75c0,.09-.03.17-.1.23s-.15.1-.23.1-.17-.03-.24-.1-.1-.15-.1-.23v-2.07h-3.26v2.07c0,.09-.03.17-.1.23-.07.07-.15.1-.23.1Z" fill="none" stroke="#4000f5" stroke-miterlimit="10" stroke-width=".25"/><path d="M39.26,21.1c-.11,0-.2-.03-.25-.08s-.08-.14-.08-.25v-4.41h-1.55c-.11,0-.2-.03-.25-.08-.06-.06-.08-.14-.08-.25s.03-.2.08-.25c.06-.06.14-.08.25-.08h3.78c.11,0,.2.03.25.08.06.06.08.14.08.25s-.03.2-.08.25c-.06.06-.14.08-.25.08h-1.55v4.41c0,.11-.03.19-.09.25s-.14.09-.25.09Z" fill="none" stroke="#4000f5" stroke-miterlimit="10" stroke-width=".25"/><path d="M20.81,72.75c-.22,0-.34-.11-.34-.34v-4.75c0-.22.11-.34.34-.34h1.93c.7,0,1.21.16,1.54.49.33.33.49.84.49,1.54v1.36c0,.7-.16,1.21-.49,1.54-.33.33-.84.49-1.54.49h-1.93ZM21.15,72.08h1.59c.34,0,.61-.04.81-.13.2-.08.34-.23.42-.42.08-.2.13-.47.13-.81v-1.36c0-.34-.04-.61-.13-.81-.08-.2-.23-.34-.42-.43-.2-.09-.47-.13-.81-.13h-1.59v4.08Z" fill="#4000f5"/><path d="M25.91,72.72c-.21-.08-.28-.23-.19-.44l1.9-4.69c.08-.18.21-.26.38-.26h.02c.17,0,.29.1.35.26l1.94,4.69c.09.21.02.36-.18.44-.21.08-.36.02-.44-.18l-.43-1.05h-2.49l-.41,1.05c-.08.21-.23.27-.43.18ZM27.02,70.81h1.95l-1-2.42-.96,2.42Z" fill="#4000f5"/><path d="M34.98,72.77c-.09.06-.17.07-.25.05s-.15-.08-.2-.16l-1.24-2.06h-1.12v1.82c0,.22-.11.34-.34.34s-.34-.11-.34-.34v-4.75c0-.22.11-.34.34-.34h1.87c.49,0,.86.13,1.12.39.26.26.39.63.39,1.12v.24c0,.42-.1.76-.3,1.01-.2.25-.48.41-.86.47l1.05,1.75c.1.19.06.34-.13.46ZM32.17,69.92h1.54c.3,0,.52-.06.65-.19.13-.13.19-.34.19-.65v-.24c0-.3-.06-.52-.19-.65-.13-.13-.34-.19-.65-.19h-1.54v1.92Z" fill="#4000f5"/><path d="M36.83,72.75c-.22,0-.34-.11-.34-.34v-4.75c0-.22.11-.34.34-.34s.34.11.34.34v1.9l2.04-2.11c.15-.17.31-.17.47,0,.17.15.17.31,0,.47l-1.7,1.76,2,2.49c.14.18.12.34-.05.47-.17.14-.33.12-.47-.05l-1.96-2.42-.35.36v1.89c0,.22-.11.34-.34.34Z" fill="#4000f5"/><path d="M20.81,72.75c-.22,0-.34-.11-.34-.34v-4.75c0-.22.11-.34.34-.34h1.93c.7,0,1.21.16,1.54.49.33.33.49.84.49,1.54v1.36c0,.7-.16,1.21-.49,1.54-.33.33-.84.49-1.54.49h-1.93ZM21.15,72.08h1.59c.34,0,.61-.04.81-.13.2-.08.34-.23.42-.42.08-.2.13-.47.13-.81v-1.36c0-.34-.04-.61-.13-.81-.08-.2-.23-.34-.42-.43-.2-.09-.47-.13-.81-.13h-1.59v4.08Z" fill="none" stroke="#4000f5" stroke-miterlimit="10" stroke-width=".25"/><path d="M25.91,72.72c-.21-.08-.28-.23-.19-.44l1.9-4.69c.08-.18.21-.26.38-.26h.02c.17,0,.29.1.35.26l1.94,4.69c.09.21.02.36-.18.44-.21.08-.36.02-.44-.18l-.43-1.05h-2.49l-.41,1.05c-.08.21-.23.27-.43.18ZM27.02,70.81h1.95l-1-2.42-.96,2.42Z" fill="none" stroke="#4000f5" stroke-miterlimit="10" stroke-width=".25"/><path d="M34.98,72.77c-.09.06-.17.07-.25.05s-.15-.08-.2-.16l-1.24-2.06h-1.12v1.82c0,.22-.11.34-.34.34s-.34-.11-.34-.34v-4.75c0-.22.11-.34.34-.34h1.87c.49,0,.86.13,1.12.39.26.26.39.63.39,1.12v.24c0,.42-.1.76-.3,1.01-.2.25-.48.41-.86.47l1.05,1.75c.1.19.06.34-.13.46ZM32.17,69.92h1.54c.3,0,.52-.06.65-.19.13-.13.19-.34.19-.65v-.24c0-.3-.06-.52-.19-.65-.13-.13-.34-.19-.65-.19h-1.54v1.92Z" fill="none" stroke="#4000f5" stroke-miterlimit="10" stroke-width=".25"/><path d="M36.83,72.75c-.22,0-.34-.11-.34-.34v-4.75c0-.22.11-.34.34-.34s.34.11.34.34v1.9l2.04-2.11c.15-.17.31-.17.47,0,.17.15.17.31,0,.47l-1.7,1.76,2,2.49c.14.18.12.34-.05.47-.17.14-.33.12-.47-.05l-1.96-2.42-.35.36v1.89c0,.22-.11.34-.34.34Z" fill="none" stroke="#4000f5" stroke-miterlimit="10" stroke-width=".25"/><circle cx="7.52" cy="6.99" r="2.31" fill="none" stroke="#4000f5" stroke-miterlimit="10"/><circle cx="52.48" cy="6.99" r="2.31" fill="none" stroke="#4000f5" stroke-miterlimit="10"/><circle cx="7.52" cy="79.76" r="2.31" fill="none" stroke="#4000f5" stroke-miterlimit="10"/><circle cx="52.48" cy="79.76" r="2.31" fill="none" stroke="#4000f5" stroke-miterlimit="10"/></svg>