<?xml version="1.0" encoding="UTF-8"?><svg id="uuid-c8efe68b-b3f2-4249-bd16-626591b8319b" xmlns="http://www.w3.org/2000/svg" viewBox="0 0 122 25"><path d="M15.78,1.73c2.67,0,4.01,1.42,4.01,4.27v16.98h-4.53v-7.02h-3.27v7.02h-4.53V6c0-2.85,1.34-4.27,4.01-4.27h4.3ZM12,12.47h3.27v-7.02c0-.17-.06-.32-.18-.45-.12-.13-.26-.19-.44-.19h-2.04c-.17,0-.32.06-.44.19-.12.13-.18.28-.18.45v7.02Z" fill="#4000f5"/><path d="M33.38,11.53c1.4.5,2.1,1.64,2.1,3.43v3.75c0,2.85-1.34,4.27-4.01,4.27h-8.31V2.06h8.05c2.67,0,4.01,1.42,4.01,4.27v1.91c0,1.73-.61,2.83-1.84,3.3ZM30.08,5.13h-2.39v5.6h2.39c.17,0,.32-.06.44-.19.12-.13.18-.28.18-.45v-4.3c0-.17-.06-.32-.18-.45-.12-.13-.26-.19-.44-.19ZM30.95,19.23v-4.69c0-.17-.06-.32-.18-.45-.12-.13-.26-.19-.44-.19h-2.65v5.98h2.65c.17,0,.32-.06.44-.19.12-.13.18-.28.18-.45Z" fill="#4000f5"/><path d="M50.91,6v13.03c0,2.85-1.34,4.27-4.01,4.27h-4.3c-2.67,0-4.01-1.42-4.01-4.27V6c0-2.85,1.34-4.27,4.01-4.27h4.3c2.67,0,4.01,1.42,4.01,4.27ZM46.38,19.56V5.45c0-.17-.06-.32-.18-.45-.12-.13-.26-.19-.44-.19h-2.04c-.17,0-.32.06-.44.19-.12.13-.18.28-.18.45v14.1c0,.17.06.32.18.45.12.13.26.19.44.19h2.04c.17,0,.32-.06.44-.19.12-.13.18-.28.18-.45Z" fill="#4000f5"/><path d="M61.71,2.06h4.53v16.98c0,2.85-1.34,4.27-4.01,4.27h-4.01c-2.67,0-4.01-1.42-4.01-4.27V2.06h4.53v17.37c0,.17.06.32.18.45.12.13.26.19.44.19h1.75c.17,0,.32-.06.44-.19s.18-.28.18-.45V2.06Z" fill="#4000f5"/><path d="M68.15,5.91v-3.85h11.32v3.85h-3.4v17.08h-4.53V5.91h-3.4Z" fill="#4000f5"/><path d="M96.38,2.06c2.67,0,4.01,1.42,4.01,4.27v12.39c0,2.85-1.34,4.27-4.01,4.27h-8.31V2.06h8.31ZM95.86,19.23V5.78c0-.17-.06-.32-.18-.45-.12-.13-.26-.19-.44-.19h-2.65v14.75h2.65c.17,0,.32-.06.44-.19.12-.13.18-.28.18-.45Z" fill="#4000f5"/><path d="M108.28,19.23h5.01v3.75h-9.54V2.06h9.54v3.69h-5.01v4.92h4.69v3.56h-4.69v5.01Z" fill="#4000f5"/><path d="M122,19.85h-1.17c-.17,0-.32-.06-.44-.19-.12-.13-.18-.28-.18-.45v-2.33h-4.3v2.17c0,2.85,1.34,4.27,4.01,4.27h2.08v-3.46Z" fill="#4000f5"/><path d="M120.39,10.08c-.12-.13-.18-.28-.18-.45v-3.72c0-.17.06-.32.18-.45.12-.13.26-.19.44-.19h1.17V1.73h-2.08c-2.67,0-4.01,1.42-4.01,4.27v4.17c0,2.85,1.34,4.27,4.01,4.27h2.08v-4.17h-1.17c-.17,0-.32-.06-.44-.19Z" fill="#4000f5"/></svg>