<?xml version="1.0" encoding="UTF-8"?><svg xmlns="http://www.w3.org/2000/svg" xmlns:xlink="http://www.w3.org/1999/xlink" viewBox="0 0 58 100"><defs><clipPath id="uuid-c1fd0ca1-7a15-45a2-8e5b-733780f70282"><rect x="-284" y="103.77" width="317" height="50.4" transform="translate(-251 257.95) rotate(180)" fill="none"/></clipPath><clipPath id="uuid-dd665c43-a197-41f5-ab03-59cf86435bea"><rect x="-334.48" y="1.25" width="333.39" height="99.23" fill="none"/></clipPath><clipPath id="uuid-64b02834-cd87-467d-bffa-b5ae1b8053ed"><rect x="58.09" y="103.77" width="153.91" height="50.4" fill="none"/></clipPath><clipPath id="uuid-e030d4f5-5e4d-41e1-8b1c-8e80bfe0d948"><rect x="-309.39" y="1.25" width="333.39" height="99.23" fill="none"/></clipPath><clipPath id="uuid-483d7eb4-273b-4769-bcf9-d394634d2167"><rect x="37" y="103.77" width="18" height="50.4" fill="none"/></clipPath><clipPath id="uuid-d3bc5201-71db-45c3-9775-20a565276992"><rect x="-336.53" y="1.25" width="340" height="99.23" fill="none"/></clipPath><clipPath id="uuid-c0872bed-b4c2-4261-8620-4609f48cf5c9"><rect x=".09" y=".77" width="57.91" height="99.23" fill="none"/></clipPath></defs><g id="uuid-40175eaa-9586-4723-aa3a-1fe773a63594"><g clip-path="url(#uuid-c1fd0ca1-7a15-45a2-8e5b-733780f70282)"><g clip-path="url(#uuid-dd665c43-a197-41f5-ab03-59cf86435bea)"><path d="M23.21,36.4H7.02v-6.21c0-.65-.22-1.22-.67-1.71-.45-.49-1-.73-1.64-.73H-2c-.65,0-1.2.24-1.64.73-.45.49-.67,1.06-.67,1.71v14c0,.65.22,1.22.67,1.71.44.49.99.73,1.64.73h10.96c10.07.16,15.1,5.52,15.1,16.07v16.93c0,10.72-5.03,16.07-15.1,16.07H-5.4c-10.07,0-15.1-5.36-15.1-16.07v-8.16H-4.31v8.77c0,.65.22,1.22.67,1.7.44.49.99.73,1.64.73h7.55c.65,0,1.2-.24,1.64-.73.45-.49.67-1.05.67-1.7v-15.46c0-.65-.22-1.22-.67-1.7-.45-.49-1-.73-1.64-.73H-5.4c-10.07,0-15.1-5.36-15.1-16.07v-15.71c0-10.72,5.03-16.07,15.1-16.07h13.52c10.06,0,15.1,5.36,15.1,16.07v5.84Z" fill="#4000f5"/><path d="M52.31,63.55v30.93h-17.05V15.7h17.05v33h13.52V15.7h17.05v78.78h-17.05v-30.93h-13.52Z" fill="#4000f5"/><path d="M23.21,36.4H7.02v-6.21c0-.65-.22-1.22-.67-1.71-.45-.49-1-.73-1.64-.73H-2c-.65,0-1.2.24-1.64.73-.45.49-.67,1.06-.67,1.71v14c0,.65.22,1.22.67,1.71.44.49.99.73,1.64.73h10.96c10.07.16,15.1,5.52,15.1,16.07v16.93c0,10.72-5.03,16.07-15.1,16.07H-5.4c-10.07,0-15.1-5.36-15.1-16.07v-8.16H-4.31v8.77c0,.65.22,1.22.67,1.7.44.49.99.73,1.64.73h7.55c.65,0,1.2-.24,1.64-.73.45-.49.67-1.05.67-1.7v-15.46c0-.65-.22-1.22-.67-1.7-.45-.49-1-.73-1.64-.73H-5.4c-10.07,0-15.1-5.36-15.1-16.07v-15.71c0-10.72,5.03-16.07,15.1-16.07h13.52c10.06,0,15.1,5.36,15.1,16.07v5.84Z" fill="#cef565"/><path d="M52.31,63.55v30.93h-17.05V15.7h17.05v33h13.52V15.7h17.05v78.78h-17.05v-30.93h-13.52Z" fill="#cef565"/><path d="M23.21,36.4H7.02v-6.21c0-.65-.22-1.22-.67-1.71-.45-.49-1-.73-1.64-.73H-2c-.65,0-1.2.24-1.64.73-.45.49-.67,1.06-.67,1.71v14c0,.65.22,1.22.67,1.71.44.49.99.73,1.64.73h10.96c10.07.16,15.1,5.52,15.1,16.07v16.93c0,10.72-5.03,16.07-15.1,16.07H-5.4c-10.07,0-15.1-5.36-15.1-16.07v-8.16H-4.31v8.77c0,.65.22,1.22.67,1.7.44.49.99.73,1.64.73h7.55c.65,0,1.2-.24,1.64-.73.45-.49.67-1.05.67-1.7v-15.46c0-.65-.22-1.22-.67-1.7-.45-.49-1-.73-1.64-.73H-5.4c-10.07,0-15.1-5.36-15.1-16.07v-15.71c0-10.72,5.03-16.07,15.1-16.07h13.52c10.06,0,15.1,5.36,15.1,16.07v5.84Z" fill="none" stroke="#4000f5" stroke-linejoin="round"/><path d="M52.31,63.55v30.93h-17.05V15.7h17.05v33h13.52V15.7h17.05v78.78h-17.05v-30.93h-13.52Z" fill="none" stroke="#4000f5" stroke-linejoin="round"/><path d="M18.42,31.18H2.22v-6.21c0-.65-.22-1.22-.67-1.71-.45-.49-1-.73-1.64-.73h-6.7c-.65,0-1.2.24-1.64.73-.45.49-.67,1.06-.67,1.71v14c0,.65.22,1.22.67,1.71.44.49.99.73,1.64.73H4.17c10.07.16,15.1,5.52,15.1,16.07v16.93c0,10.72-5.03,16.07-15.1,16.07h-14.37c-10.07,0-15.1-5.36-15.1-16.07v-8.16H-9.1v8.77c0,.65.22,1.22.67,1.7.44.49.99.73,1.64.73H.76c.65,0,1.2-.24,1.64-.73.45-.49.67-1.05.67-1.7v-15.46c0-.65-.22-1.22-.67-1.7-.45-.49-1-.73-1.64-.73h-10.96c-10.07,0-15.1-5.36-15.1-16.07v-15.71c0-10.72,5.03-16.07,15.1-16.07H3.32c10.06,0,15.1,5.36,15.1,16.07v5.84Z" fill="#4000f5"/><path d="M47.52,58.34v30.93h-17.05V10.48h17.05v33h13.52V10.48h17.05v78.78h-17.05v-30.93h-13.52Z" fill="#4000f5"/><path d="M18.42,31.18H2.22v-6.21c0-.65-.22-1.22-.67-1.71-.45-.49-1-.73-1.64-.73h-6.7c-.65,0-1.2.24-1.64.73-.45.49-.67,1.06-.67,1.71v14c0,.65.22,1.22.67,1.71.44.49.99.73,1.64.73H4.17c10.07.16,15.1,5.52,15.1,16.07v16.93c0,10.72-5.03,16.07-15.1,16.07h-14.37c-10.07,0-15.1-5.36-15.1-16.07v-8.16H-9.1v8.77c0,.65.22,1.22.67,1.7.44.49.99.73,1.64.73H.76c.65,0,1.2-.24,1.64-.73.45-.49.67-1.05.67-1.7v-15.46c0-.65-.22-1.22-.67-1.7-.45-.49-1-.73-1.64-.73h-10.96c-10.07,0-15.1-5.36-15.1-16.07v-15.71c0-10.72,5.03-16.07,15.1-16.07H3.32c10.06,0,15.1,5.36,15.1,16.07v5.84Z" fill="#4000f5"/><path d="M47.52,58.34v30.93h-17.05V10.48h17.05v33h13.52V10.48h17.05v78.78h-17.05v-30.93h-13.52Z" fill="#4000f5"/><path d="M18.42,31.18H2.22v-6.21c0-.65-.22-1.22-.67-1.71-.45-.49-1-.73-1.64-.73h-6.7c-.65,0-1.2.24-1.64.73-.45.49-.67,1.06-.67,1.71v14c0,.65.22,1.22.67,1.71.44.49.99.73,1.64.73H4.17c10.07.16,15.1,5.52,15.1,16.07v16.93c0,10.72-5.03,16.07-15.1,16.07h-14.37c-10.07,0-15.1-5.36-15.1-16.07v-8.16H-9.1v8.77c0,.65.22,1.22.67,1.7.44.49.99.73,1.64.73H.76c.65,0,1.2-.24,1.64-.73.45-.49.67-1.05.67-1.7v-15.46c0-.65-.22-1.22-.67-1.7-.45-.49-1-.73-1.64-.73h-10.96c-10.07,0-15.1-5.36-15.1-16.07v-15.71c0-10.72,5.03-16.07,15.1-16.07H3.32c10.06,0,15.1,5.36,15.1,16.07v5.84Z" fill="none" stroke="#4000f5" stroke-linejoin="round" stroke-width="2"/><path d="M47.52,58.34v30.93h-17.05V10.48h17.05v33h13.52V10.48h17.05v78.78h-17.05v-30.93h-13.52Z" fill="none" stroke="#4000f5" stroke-linejoin="round" stroke-width="2"/></g></g><g clip-path="url(#uuid-64b02834-cd87-467d-bffa-b5ae1b8053ed)"><g clip-path="url(#uuid-e030d4f5-5e4d-41e1-8b1c-8e80bfe0d948)"><path d="M48.3,36.4h-16.2v-6.21c0-.65-.22-1.22-.67-1.71-.45-.49-1-.73-1.64-.73h-6.7c-.65,0-1.2.24-1.64.73-.45.49-.67,1.06-.67,1.71v14c0,.65.22,1.22.67,1.71.44.49.99.73,1.64.73h10.96c10.07.16,15.1,5.52,15.1,16.07v16.93c0,10.72-5.03,16.07-15.1,16.07h-14.37c-10.07,0-15.1-5.36-15.1-16.07v-8.16h16.2v8.77c0,.65.22,1.22.67,1.7.44.49.99.73,1.64.73h7.55c.65,0,1.2-.24,1.64-.73.45-.49.67-1.05.67-1.7v-15.46c0-.65-.22-1.22-.67-1.7-.45-.49-1-.73-1.64-.73h-10.96c-10.07,0-15.1-5.36-15.1-16.07v-15.71c0-10.72,5.03-16.07,15.1-16.07h13.52c10.06,0,15.1,5.36,15.1,16.07v5.84Z" fill="#4000f5"/><path d="M48.3,36.4h-16.2v-6.21c0-.65-.22-1.22-.67-1.71-.45-.49-1-.73-1.64-.73h-6.7c-.65,0-1.2.24-1.64.73-.45.49-.67,1.06-.67,1.71v14c0,.65.22,1.22.67,1.71.44.49.99.73,1.64.73h10.96c10.07.16,15.1,5.52,15.1,16.07v16.93c0,10.72-5.03,16.07-15.1,16.07h-14.37c-10.07,0-15.1-5.36-15.1-16.07v-8.16h16.2v8.77c0,.65.22,1.22.67,1.7.44.49.99.73,1.64.73h7.55c.65,0,1.2-.24,1.64-.73.45-.49.67-1.05.67-1.7v-15.46c0-.65-.22-1.22-.67-1.7-.45-.49-1-.73-1.64-.73h-10.96c-10.07,0-15.1-5.36-15.1-16.07v-15.71c0-10.72,5.03-16.07,15.1-16.07h13.52c10.06,0,15.1,5.36,15.1,16.07v5.84Z" fill="#cef565"/><path d="M48.3,36.4h-16.2v-6.21c0-.65-.22-1.22-.67-1.71-.45-.49-1-.73-1.64-.73h-6.7c-.65,0-1.2.24-1.64.73-.45.49-.67,1.06-.67,1.71v14c0,.65.22,1.22.67,1.71.44.49.99.73,1.64.73h10.96c10.07.16,15.1,5.52,15.1,16.07v16.93c0,10.72-5.03,16.07-15.1,16.07h-14.37c-10.07,0-15.1-5.36-15.1-16.07v-8.16h16.2v8.77c0,.65.22,1.22.67,1.7.44.49.99.73,1.64.73h7.55c.65,0,1.2-.24,1.64-.73.45-.49.67-1.05.67-1.7v-15.46c0-.65-.22-1.22-.67-1.7-.45-.49-1-.73-1.64-.73h-10.96c-10.07,0-15.1-5.36-15.1-16.07v-15.71c0-10.72,5.03-16.07,15.1-16.07h13.52c10.06,0,15.1,5.36,15.1,16.07v5.84Z" fill="none" stroke="#4000f5" stroke-linejoin="round"/><path d="M43.5,31.18h-16.2v-6.21c0-.65-.22-1.22-.67-1.71-.45-.49-1-.73-1.64-.73h-6.7c-.65,0-1.2.24-1.64.73-.45.49-.67,1.06-.67,1.71v14c0,.65.22,1.22.67,1.71.44.49.99.73,1.64.73h10.96c10.07.16,15.1,5.52,15.1,16.07v16.93c0,10.72-5.03,16.07-15.1,16.07h-14.37c-10.07,0-15.1-5.36-15.1-16.07v-8.16H15.98v8.77c0,.65.22,1.22.67,1.7.44.49.99.73,1.64.73h7.55c.65,0,1.2-.24,1.64-.73.45-.49.67-1.05.67-1.7v-15.46c0-.65-.22-1.22-.67-1.7-.45-.49-1-.73-1.64-.73h-10.96C4.82,57.12-.21,51.76-.21,41.05v-15.71C-.21,14.62,4.82,9.26,14.88,9.26h13.52c10.06,0,15.1,5.36,15.1,16.07v5.84Z" fill="#4000f5"/><path d="M72.6,58.34v30.93h-17.05V10.48h17.05v33h13.52V10.48h17.05v78.78h-17.05v-30.93h-13.52Z" fill="#4000f5"/><path d="M43.5,31.18h-16.2v-6.21c0-.65-.22-1.22-.67-1.71-.45-.49-1-.73-1.64-.73h-6.7c-.65,0-1.2.24-1.64.73-.45.49-.67,1.06-.67,1.71v14c0,.65.22,1.22.67,1.71.44.49.99.73,1.64.73h10.96c10.07.16,15.1,5.52,15.1,16.07v16.93c0,10.72-5.03,16.07-15.1,16.07h-14.37c-10.07,0-15.1-5.36-15.1-16.07v-8.16H15.98v8.77c0,.65.22,1.22.67,1.7.44.49.99.73,1.64.73h7.55c.65,0,1.2-.24,1.64-.73.45-.49.67-1.05.67-1.7v-15.46c0-.65-.22-1.22-.67-1.7-.45-.49-1-.73-1.64-.73h-10.96C4.82,57.12-.21,51.76-.21,41.05v-15.71C-.21,14.62,4.82,9.26,14.88,9.26h13.52c10.06,0,15.1,5.36,15.1,16.07v5.84Z" fill="#4000f5"/><path d="M72.6,58.34v30.93h-17.05V10.48h17.05v33h13.52V10.48h17.05v78.78h-17.05v-30.93h-13.52Z" fill="#4000f5"/><path d="M43.5,31.18h-16.2v-6.21c0-.65-.22-1.22-.67-1.71-.45-.49-1-.73-1.64-.73h-6.7c-.65,0-1.2.24-1.64.73-.45.49-.67,1.06-.67,1.71v14c0,.65.22,1.22.67,1.71.44.49.99.73,1.64.73h10.96c10.07.16,15.1,5.52,15.1,16.07v16.93c0,10.72-5.03,16.07-15.1,16.07h-14.37c-10.07,0-15.1-5.36-15.1-16.07v-8.16H15.98v8.77c0,.65.22,1.22.67,1.7.44.49.99.73,1.64.73h7.55c.65,0,1.2-.24,1.64-.73.45-.49.67-1.05.67-1.7v-15.46c0-.65-.22-1.22-.67-1.7-.45-.49-1-.73-1.64-.73h-10.96C4.82,57.12-.21,51.76-.21,41.05v-15.71C-.21,14.62,4.82,9.26,14.88,9.26h13.52c10.06,0,15.1,5.36,15.1,16.07v5.84Z" fill="none" stroke="#4000f5" stroke-linejoin="round" stroke-width="2"/><path d="M72.6,58.34v30.93h-17.05V10.48h17.05v33h13.52V10.48h17.05v78.78h-17.05v-30.93h-13.52Z" fill="none" stroke="#4000f5" stroke-linejoin="round" stroke-width="2"/></g></g><g clip-path="url(#uuid-483d7eb4-273b-4769-bcf9-d394634d2167)"><g clip-path="url(#uuid-d3bc5201-71db-45c3-9775-20a565276992)"><path d="M28.25,36.4H11.73v-6.21c0-.65-.23-1.22-.68-1.71-.46-.49-1.01-.73-1.68-.73H2.54c-.66,0-1.22.24-1.68.73-.46.49-.68,1.06-.68,1.71v14c0,.65.23,1.22.68,1.71.45.49,1.01.73,1.68.73h11.18c10.26.16,15.4,5.52,15.4,16.07v16.93c0,10.72-5.13,16.07-15.4,16.07H-.93c-10.27,0-15.4-5.36-15.4-16.07v-8.16H.19v8.77c0,.65.23,1.22.68,1.7.45.49,1.01.73,1.68.73h7.7c.66,0,1.22-.24,1.68-.73.45-.49.68-1.05.68-1.7v-15.46c0-.65-.23-1.22-.68-1.7-.46-.49-1.01-.73-1.68-.73H-.93c-10.27,0-15.4-5.36-15.4-16.07v-15.71c0-10.72,5.13-16.07,15.4-16.07h13.78c10.26,0,15.4,5.36,15.4,16.07v5.84Z" fill="#4000f5"/><path d="M57.93,63.55v30.93h-17.39V15.7h17.39v33h13.78V15.7h17.39v78.78h-17.39v-30.93h-13.78Z" fill="#4000f5"/><path d="M28.25,36.4H11.73v-6.21c0-.65-.23-1.22-.68-1.71-.46-.49-1.01-.73-1.68-.73H2.54c-.66,0-1.22.24-1.68.73-.46.49-.68,1.06-.68,1.71v14c0,.65.23,1.22.68,1.71.45.49,1.01.73,1.68.73h11.18c10.26.16,15.4,5.52,15.4,16.07v16.93c0,10.72-5.13,16.07-15.4,16.07H-.93c-10.27,0-15.4-5.36-15.4-16.07v-8.16H.19v8.77c0,.65.23,1.22.68,1.7.45.49,1.01.73,1.68.73h7.7c.66,0,1.22-.24,1.68-.73.45-.49.68-1.05.68-1.7v-15.46c0-.65-.23-1.22-.68-1.7-.46-.49-1.01-.73-1.68-.73H-.93c-10.27,0-15.4-5.36-15.4-16.07v-15.71c0-10.72,5.13-16.07,15.4-16.07h13.78c10.26,0,15.4,5.36,15.4,16.07v5.84Z" fill="#cef565"/><path d="M57.93,63.55v30.93h-17.39V15.7h17.39v33h13.78V15.7h17.39v78.78h-17.39v-30.93h-13.78Z" fill="#cef565"/><path d="M28.25,36.4H11.73v-6.21c0-.65-.23-1.22-.68-1.71-.46-.49-1.01-.73-1.68-.73H2.54c-.66,0-1.22.24-1.68.73-.46.49-.68,1.06-.68,1.71v14c0,.65.23,1.22.68,1.71.45.49,1.01.73,1.68.73h11.18c10.26.16,15.4,5.52,15.4,16.07v16.93c0,10.72-5.13,16.07-15.4,16.07H-.93c-10.27,0-15.4-5.36-15.4-16.07v-8.16H.19v8.77c0,.65.23,1.22.68,1.7.45.49,1.01.73,1.68.73h7.7c.66,0,1.22-.24,1.68-.73.45-.49.68-1.05.68-1.7v-15.46c0-.65-.23-1.22-.68-1.7-.46-.49-1.01-.73-1.68-.73H-.93c-10.27,0-15.4-5.36-15.4-16.07v-15.71c0-10.72,5.13-16.07,15.4-16.07h13.78c10.26,0,15.4,5.36,15.4,16.07v5.84Z" fill="none" stroke="#4000f5" stroke-linejoin="round"/><path d="M57.93,63.55v30.93h-17.39V15.7h17.39v33h13.78V15.7h17.39v78.78h-17.39v-30.93h-13.78Z" fill="none" stroke="#4000f5" stroke-linejoin="round"/><path d="M23.36,31.18H6.84v-6.21c0-.65-.23-1.22-.68-1.71-.46-.49-1.01-.73-1.68-.73H-2.35c-.66,0-1.22.24-1.68.73-.46.49-.68,1.06-.68,1.71v14c0,.65.23,1.22.68,1.71.45.49,1.01.73,1.68.73h11.18c10.26.16,15.4,5.52,15.4,16.07v16.93c0,10.72-5.13,16.07-15.4,16.07H-5.82c-10.27,0-15.4-5.36-15.4-16.07v-8.16H-4.71v8.77c0,.65.23,1.22.68,1.7.45.49,1.01.73,1.68.73h7.7c.66,0,1.22-.24,1.68-.73.45-.49.68-1.05.68-1.7v-15.46c0-.65-.23-1.22-.68-1.7-.46-.49-1.01-.73-1.68-.73H-5.82c-10.27,0-15.4-5.36-15.4-16.07v-15.71c0-10.72,5.13-16.07,15.4-16.07H7.96c10.26,0,15.4,5.36,15.4,16.07v5.84Z" fill="#4000f5"/><path d="M53.04,58.34v30.93h-17.39V10.48h17.39v33h13.78V10.48h17.39v78.78h-17.39v-30.93h-13.78Z" fill="#4000f5"/><path d="M23.36,31.18H6.84v-6.21c0-.65-.23-1.22-.68-1.71-.46-.49-1.01-.73-1.68-.73H-2.35c-.66,0-1.22.24-1.68.73-.46.49-.68,1.06-.68,1.71v14c0,.65.23,1.22.68,1.71.45.49,1.01.73,1.68.73h11.18c10.26.16,15.4,5.52,15.4,16.07v16.93c0,10.72-5.13,16.07-15.4,16.07H-5.82c-10.27,0-15.4-5.36-15.4-16.07v-8.16H-4.71v8.77c0,.65.23,1.22.68,1.7.45.49,1.01.73,1.68.73h7.7c.66,0,1.22-.24,1.68-.73.45-.49.68-1.05.68-1.7v-15.46c0-.65-.23-1.22-.68-1.7-.46-.49-1.01-.73-1.68-.73H-5.82c-10.27,0-15.4-5.36-15.4-16.07v-15.71c0-10.72,5.13-16.07,15.4-16.07H7.96c10.26,0,15.4,5.36,15.4,16.07v5.84Z" fill="#4000f5"/><path d="M53.04,58.34v30.93h-17.39V10.48h17.39v33h13.78V10.48h17.39v78.78h-17.39v-30.93h-13.78Z" fill="#4000f5"/><path d="M23.36,31.18H6.84v-6.21c0-.65-.23-1.22-.68-1.71-.46-.49-1.01-.73-1.68-.73H-2.35c-.66,0-1.22.24-1.68.73-.46.49-.68,1.06-.68,1.71v14c0,.65.23,1.22.68,1.71.45.49,1.01.73,1.68.73h11.18c10.26.16,15.4,5.52,15.4,16.07v16.93c0,10.72-5.13,16.07-15.4,16.07H-5.82c-10.27,0-15.4-5.36-15.4-16.07v-8.16H-4.71v8.77c0,.65.23,1.22.68,1.7.45.49,1.01.73,1.68.73h7.7c.66,0,1.22-.24,1.68-.73.45-.49.68-1.05.68-1.7v-15.46c0-.65-.23-1.22-.68-1.7-.46-.49-1.01-.73-1.68-.73H-5.82c-10.27,0-15.4-5.36-15.4-16.07v-15.71c0-10.72,5.13-16.07,15.4-16.07H7.96c10.26,0,15.4,5.36,15.4,16.07v5.84Z" fill="none" stroke="#4000f5" stroke-linejoin="round" stroke-width="2"/><path d="M53.04,58.34v30.93h-17.39V10.48h17.39v33h13.78V10.48h17.39v78.78h-17.39v-30.93h-13.78Z" fill="none" stroke="#4000f5" stroke-linejoin="round" stroke-width="2"/></g></g></g><g id="uuid-c61f20ce-273c-4128-b8ed-7cf534cd9d92"><g clip-path="url(#uuid-c0872bed-b4c2-4261-8620-4609f48cf5c9)"><polygon points="60.43 61.85 -1.85 61.85 -1.68 48.27 59 48.27 60.43 61.85" fill="#cef565" stroke="#4000f5" stroke-miterlimit="10"/><polygon points="58.47 56.64 -.57 56.64 -.57 40.93 58.99 40.93 58.47 56.64" fill="#4000f5" stroke="#4000f5" stroke-miterlimit="10" stroke-width="2"/><polygon points="58.75 27.27 -1.85 27.27 -1.68 13.27 59 13.27 58.75 27.27" fill="#cef565" stroke="#4000f5" stroke-miterlimit="10"/><polygon points="58.15 22.06 -1.19 22.05 -1.68 8.78 59 8.78 58.15 22.06" fill="#4000f5" stroke="#4000f5" stroke-miterlimit="10" stroke-width="2"/><polygon points="62.02 95.22 -3.54 95.22 -.62 81.16 59.65 81.16 62.02 95.22" fill="#cef565" stroke="#4000f5" stroke-miterlimit="10"/><polygon points="-.96 76.97 58.7 76.97 62.21 90 -2.41 90 -.96 76.97" fill="#4000f5" stroke="#4000f5" stroke-miterlimit="10" stroke-width="2"/></g></g></svg>