<?xml version="1.0" encoding="UTF-8"?><svg id="uuid-50ab06c1-fc75-4bbd-a628-919ade305c33" xmlns="http://www.w3.org/2000/svg" viewBox="0 0 126 96"><path d="M125,86.8l-10.89-24.05c0-.55-.27-1.02-.67-1.28V4.71c0-.82-.61-1.49-1.35-1.49H17.47c-.74,0-1.35.67-1.35,1.49v56.74c-.42.25-.7.74-.7,1.3l-10.21,24.05c0,.07.01.15.02.22h-.02v5.06c0,.82.6,1.49,1.34,1.49h117.12c.74,0,1.34-.67,1.34-1.49v-4.9h-.05c.03-.12.05-.25.05-.38Z" fill="#4000f5" stroke="#4000f5" stroke-linejoin="round" stroke-width="2"/><path d="M13.8,58.81V2.49c0-.82.61-1.49,1.35-1.49h94.62c.74,0,1.35.67,1.35,1.49v56.32" fill="#cef565" stroke="#4000f5" stroke-linejoin="round" stroke-width="2"/><path d="M122.68,84.96v4.9c0,.82-.6,1.49-1.34,1.49H4.22c-.74,0-1.34-.67-1.34-1.49v-5.06" fill="#cef565" stroke="#4000f5" stroke-linejoin="round" stroke-width="2"/><path d="M121.34,86.07H4.22c-.74,0-1.34-.67-1.34-1.49l10.21-24.05c0-.82.6-1.49,1.34-1.49h96.02c.74,0,1.34.67,1.34,1.49l10.89,24.05c0,.82-.6,1.49-1.34,1.49Z" fill="#cef565" stroke="#4000f5" stroke-linejoin="round"/><path d="M2.88,86.92v-2.34s10.21-24.05,10.21-24.05l.7-1.72" fill="#cef565" stroke="#4000f5" stroke-linejoin="round" stroke-width="2"/><path d="M111.12,58.81l.67,1.72,10.89,24.05v2.25" fill="none" stroke="#4000f5" stroke-linejoin="round" stroke-width="2"/><rect x="19.35" y="6.76" width="86.2" height="46.29" rx="3.01" ry="3.01" fill="#4000f5" stroke="#4000f5" stroke-linejoin="round" stroke-width="2"/><path d="M79.51,80.99h-36.3c-.63,0-1.15-.85-1.15-1.9l1.72-7.26c0-1.04.52-1.9,1.15-1.9h32.85c.63,0,1.15.85,1.15,1.9l1.72,7.26c0,1.04-.52,1.9-1.15,1.9Z" fill="#cef565" stroke="#4000f5" stroke-linejoin="round"/><path d="M29.32,22.36c-.22,0-.33-.11-.33-.33v-4.65c0-.22.11-.33.33-.33h2.04c.42,0,.73.11.96.33.22.22.33.53.33.94v.21c0,.35-.11.63-.33.82.42.23.62.66.62,1.27v.27c0,.48-.13.85-.38,1.1-.25.25-.62.38-1.1.38h-2.15ZM29.65,19.16h1.86c.19,0,.32-.06.39-.18.07-.12.1-.27.1-.45v-.21c0-.23-.05-.39-.14-.48-.09-.09-.26-.13-.49-.13h-1.72v1.45ZM29.65,21.71h1.82c.29,0,.51-.06.63-.19s.19-.33.19-.62v-.27c0-.29-.06-.5-.18-.62-.12-.12-.34-.19-.64-.19h-1.82v1.89Z" fill="#cef565"/><path d="M34.59,22.36c-.22,0-.33-.11-.33-.33v-4.65c0-.22.11-.33.33-.33s.33.11.33.33v4.32h2.17c.22,0,.33.11.33.33s-.11.33-.33.33h-2.5Z" fill="#cef565"/><path d="M38.25,22.33c-.21-.08-.27-.22-.19-.43l1.86-4.59c.08-.17.2-.26.37-.26h.02c.17,0,.29.09.34.26l1.9,4.59c.08.21.02.35-.18.43-.21.08-.35.02-.43-.18l-.42-1.03h-2.44l-.4,1.03c-.08.2-.22.26-.42.18ZM39.33,20.47h1.91l-.98-2.37-.94,2.37Z" fill="#cef565"/><path d="M44.04,22.36c-.09,0-.16-.03-.23-.1-.07-.07-.1-.14-.1-.23v-4.65c0-.09.03-.16.1-.23s.14-.1.23-.1.16.03.23.1c.07.07.1.14.1.23v1.97h3.2v-1.97c0-.09.03-.16.1-.23.07-.07.14-.1.23-.1s.16.03.23.1c.07.07.1.14.1.23v4.65c0,.09-.03.16-.1.23-.07.07-.14.1-.23.1s-.17-.03-.23-.1c-.07-.07-.1-.14-.1-.23v-2.03h-3.2v2.03c0,.09-.03.16-.1.23-.07.07-.14.1-.23.1Z" fill="#cef565"/><path d="M52.64,22.36c-.22,0-.33-.11-.33-.33v-4.65c0-.22.11-.33.33-.33h2.04c.42,0,.73.11.96.33.22.22.33.53.33.94v.21c0,.35-.11.63-.33.82.42.23.62.66.62,1.27v.27c0,.48-.13.85-.38,1.1-.25.25-.62.38-1.1.38h-2.15ZM52.97,19.16h1.86c.19,0,.32-.06.39-.18.07-.12.1-.27.1-.45v-.21c0-.23-.05-.39-.14-.48-.09-.09-.26-.13-.49-.13h-1.72v1.45ZM52.97,21.71h1.82c.29,0,.51-.06.63-.19s.19-.33.19-.62v-.27c0-.29-.06-.5-.18-.62-.12-.12-.34-.19-.64-.19h-1.82v1.89Z" fill="#cef565"/><path d="M57.92,22.36c-.22,0-.33-.11-.33-.33v-4.65c0-.22.11-.33.33-.33s.33.11.33.33v4.32h2.17c.22,0,.33.11.33.33s-.11.33-.33.33h-2.5Z" fill="#cef565"/><path d="M61.57,22.33c-.21-.08-.27-.22-.19-.43l1.86-4.59c.08-.17.2-.26.37-.26h.02c.17,0,.29.09.34.26l1.9,4.59c.08.21.02.35-.18.43-.21.08-.35.02-.43-.18l-.42-1.03h-2.44l-.4,1.03c-.08.2-.22.26-.42.18ZM62.66,20.47h1.91l-.98-2.37-.94,2.37Z" fill="#cef565"/><path d="M67.37,22.36c-.09,0-.16-.03-.23-.1-.07-.07-.1-.14-.1-.23v-4.65c0-.09.03-.16.1-.23s.14-.1.23-.1.16.03.23.1c.07.07.1.14.1.23v1.97h3.2v-1.97c0-.09.03-.16.1-.23.07-.07.14-.1.23-.1s.16.03.23.1c.07.07.1.14.1.23v4.65c0,.09-.03.16-.1.23-.07.07-.14.1-.23.1s-.17-.03-.23-.1c-.07-.07-.1-.14-.1-.23v-2.03h-3.2v2.03c0,.09-.03.16-.1.23-.07.07-.14.1-.23.1Z" fill="#cef565"/><path d="M75.97,22.36c-.22,0-.33-.11-.33-.33v-4.65c0-.22.11-.33.33-.33h2.04c.42,0,.73.11.96.33.22.22.33.53.33.94v.21c0,.35-.11.63-.33.82.42.23.62.66.62,1.27v.27c0,.48-.13.85-.38,1.1-.25.25-.62.38-1.1.38h-2.15ZM76.3,19.16h1.86c.19,0,.32-.06.39-.18.07-.12.1-.27.1-.45v-.21c0-.23-.05-.39-.14-.48-.09-.09-.26-.13-.49-.13h-1.72v1.45ZM76.3,21.71h1.82c.29,0,.51-.06.63-.19s.19-.33.19-.62v-.27c0-.29-.06-.5-.18-.62-.12-.12-.34-.19-.64-.19h-1.82v1.89Z" fill="#cef565"/><path d="M81.24,22.36c-.22,0-.33-.11-.33-.33v-4.65c0-.22.11-.33.33-.33s.33.11.33.33v4.32h2.17c.22,0,.33.11.33.33s-.11.33-.33.33h-2.5Z" fill="#cef565"/><path d="M84.9,22.33c-.21-.08-.27-.22-.19-.43l1.86-4.59c.08-.17.2-.26.37-.26h.02c.17,0,.29.09.34.26l1.9,4.59c.08.21.02.35-.18.43-.21.08-.35.02-.43-.18l-.42-1.03h-2.44l-.4,1.03c-.08.2-.22.26-.42.18ZM85.99,20.47h1.91l-.98-2.37-.94,2.37Z" fill="#cef565"/><path d="M90.7,22.36c-.09,0-.16-.03-.23-.1-.07-.07-.1-.14-.1-.23v-4.65c0-.09.03-.16.1-.23s.14-.1.23-.1.16.03.23.1c.07.07.1.14.1.23v1.97h3.2v-1.97c0-.09.03-.16.1-.23.07-.07.14-.1.23-.1s.16.03.23.1c.07.07.1.14.1.23v4.65c0,.09-.03.16-.1.23-.07.07-.14.1-.23.1s-.17-.03-.23-.1c-.07-.07-.1-.14-.1-.23v-2.03h-3.2v2.03c0,.09-.03.16-.1.23-.07.07-.14.1-.23.1Z" fill="#cef565"/><path d="M29.32,31.82c-.22,0-.33-.11-.33-.33v-4.65c0-.22.11-.33.33-.33h2.04c.42,0,.73.11.96.33.22.22.33.53.33.94v.21c0,.35-.11.63-.33.82.42.23.62.66.62,1.27v.27c0,.48-.13.85-.38,1.1-.25.25-.62.38-1.1.38h-2.15ZM29.65,28.61h1.86c.19,0,.32-.06.39-.18.07-.12.1-.27.1-.45v-.21c0-.23-.05-.39-.14-.48-.09-.09-.26-.13-.49-.13h-1.72v1.45ZM29.65,31.16h1.82c.29,0,.51-.06.63-.19s.19-.33.19-.62v-.27c0-.29-.06-.5-.18-.62-.12-.12-.34-.19-.64-.19h-1.82v1.89Z" fill="#cef565"/><path d="M34.59,31.82c-.22,0-.33-.11-.33-.33v-4.65c0-.22.11-.33.33-.33s.33.11.33.33v4.32h2.17c.22,0,.33.11.33.33s-.11.33-.33.33h-2.5Z" fill="#cef565"/><path d="M38.25,31.78c-.21-.08-.27-.22-.19-.43l1.86-4.59c.08-.17.2-.26.37-.26h.02c.17,0,.29.09.34.26l1.9,4.59c.08.21.02.35-.18.43-.21.08-.35.02-.43-.18l-.42-1.03h-2.44l-.4,1.03c-.08.2-.22.26-.42.18ZM39.33,29.92h1.91l-.98-2.37-.94,2.37Z" fill="#cef565"/><path d="M44.04,31.82c-.09,0-.16-.03-.23-.1-.07-.07-.1-.14-.1-.23v-4.65c0-.09.03-.16.1-.23s.14-.1.23-.1.16.03.23.1c.07.07.1.14.1.23v1.97h3.2v-1.97c0-.09.03-.16.1-.23.07-.07.14-.1.23-.1s.16.03.23.1c.07.07.1.14.1.23v4.65c0,.09-.03.16-.1.23-.07.07-.14.1-.23.1s-.17-.03-.23-.1c-.07-.07-.1-.14-.1-.23v-2.03h-3.2v2.03c0,.09-.03.16-.1.23-.07.07-.14.1-.23.1Z" fill="#cef565"/><path d="M52.64,31.82c-.22,0-.33-.11-.33-.33v-4.65c0-.22.11-.33.33-.33h2.04c.42,0,.73.11.96.33.22.22.33.53.33.94v.21c0,.35-.11.63-.33.82.42.23.62.66.62,1.27v.27c0,.48-.13.85-.38,1.1-.25.25-.62.38-1.1.38h-2.15ZM52.97,28.61h1.86c.19,0,.32-.06.39-.18.07-.12.1-.27.1-.45v-.21c0-.23-.05-.39-.14-.48-.09-.09-.26-.13-.49-.13h-1.72v1.45ZM52.97,31.16h1.82c.29,0,.51-.06.63-.19s.19-.33.19-.62v-.27c0-.29-.06-.5-.18-.62-.12-.12-.34-.19-.64-.19h-1.82v1.89Z" fill="#cef565"/><path d="M57.92,31.82c-.22,0-.33-.11-.33-.33v-4.65c0-.22.11-.33.33-.33s.33.11.33.33v4.32h2.17c.22,0,.33.11.33.33s-.11.33-.33.33h-2.5Z" fill="#cef565"/><path d="M61.57,31.78c-.21-.08-.27-.22-.19-.43l1.86-4.59c.08-.17.2-.26.37-.26h.02c.17,0,.29.09.34.26l1.9,4.59c.08.21.02.35-.18.43-.21.08-.35.02-.43-.18l-.42-1.03h-2.44l-.4,1.03c-.08.2-.22.26-.42.18ZM62.66,29.92h1.91l-.98-2.37-.94,2.37Z" fill="#cef565"/><path d="M67.37,31.82c-.09,0-.16-.03-.23-.1-.07-.07-.1-.14-.1-.23v-4.65c0-.09.03-.16.1-.23s.14-.1.23-.1.16.03.23.1c.07.07.1.14.1.23v1.97h3.2v-1.97c0-.09.03-.16.1-.23.07-.07.14-.1.23-.1s.16.03.23.1c.07.07.1.14.1.23v4.65c0,.09-.03.16-.1.23-.07.07-.14.1-.23.1s-.17-.03-.23-.1c-.07-.07-.1-.14-.1-.23v-2.03h-3.2v2.03c0,.09-.03.16-.1.23-.07.07-.14.1-.23.1Z" fill="#cef565"/><path d="M75.97,31.82c-.22,0-.33-.11-.33-.33v-4.65c0-.22.11-.33.33-.33h2.04c.42,0,.73.11.96.33.22.22.33.53.33.94v.21c0,.35-.11.63-.33.82.42.23.62.66.62,1.27v.27c0,.48-.13.85-.38,1.1-.25.25-.62.38-1.1.38h-2.15ZM76.3,28.61h1.86c.19,0,.32-.06.39-.18.07-.12.1-.27.1-.45v-.21c0-.23-.05-.39-.14-.48-.09-.09-.26-.13-.49-.13h-1.72v1.45ZM76.3,31.16h1.82c.29,0,.51-.06.63-.19s.19-.33.19-.62v-.27c0-.29-.06-.5-.18-.62-.12-.12-.34-.19-.64-.19h-1.82v1.89Z" fill="#cef565"/><path d="M81.24,31.82c-.22,0-.33-.11-.33-.33v-4.65c0-.22.11-.33.33-.33s.33.11.33.33v4.32h2.17c.22,0,.33.11.33.33s-.11.33-.33.33h-2.5Z" fill="#cef565"/><path d="M84.9,31.78c-.21-.08-.27-.22-.19-.43l1.86-4.59c.08-.17.2-.26.37-.26h.02c.17,0,.29.09.34.26l1.9,4.59c.08.21.02.35-.18.43-.21.08-.35.02-.43-.18l-.42-1.03h-2.44l-.4,1.03c-.08.2-.22.26-.42.18ZM85.99,29.92h1.91l-.98-2.37-.94,2.37Z" fill="#cef565"/><path d="M90.7,31.82c-.09,0-.16-.03-.23-.1-.07-.07-.1-.14-.1-.23v-4.65c0-.09.03-.16.1-.23s.14-.1.23-.1.16.03.23.1c.07.07.1.14.1.23v1.97h3.2v-1.97c0-.09.03-.16.1-.23.07-.07.14-.1.23-.1s.16.03.23.1c.07.07.1.14.1.23v4.65c0,.09-.03.16-.1.23-.07.07-.14.1-.23.1s-.17-.03-.23-.1c-.07-.07-.1-.14-.1-.23v-2.03h-3.2v2.03c0,.09-.03.16-.1.23-.07.07-.14.1-.23.1Z" fill="#cef565"/><path d="M29.32,41.27c-.22,0-.33-.11-.33-.33v-4.65c0-.22.11-.33.33-.33h2.04c.42,0,.73.11.96.33.22.22.33.53.33.94v.21c0,.35-.11.63-.33.82.42.23.62.66.62,1.27v.27c0,.48-.13.85-.38,1.1-.25.25-.62.38-1.1.38h-2.15ZM29.65,38.06h1.86c.19,0,.32-.06.39-.18.07-.12.1-.27.1-.45v-.21c0-.23-.05-.39-.14-.48-.09-.09-.26-.13-.49-.13h-1.72v1.45ZM29.65,40.61h1.82c.29,0,.51-.06.63-.19s.19-.33.19-.62v-.27c0-.29-.06-.5-.18-.62-.12-.12-.34-.19-.64-.19h-1.82v1.89Z" fill="#cef565"/><path d="M34.59,41.27c-.22,0-.33-.11-.33-.33v-4.65c0-.22.11-.33.33-.33s.33.11.33.33v4.32h2.17c.22,0,.33.11.33.33s-.11.33-.33.33h-2.5Z" fill="#cef565"/><path d="M38.25,41.24c-.21-.08-.27-.22-.19-.43l1.86-4.59c.08-.17.2-.26.37-.26h.02c.17,0,.29.09.34.26l1.9,4.59c.08.21.02.35-.18.43-.21.08-.35.02-.43-.18l-.42-1.03h-2.44l-.4,1.03c-.08.2-.22.26-.42.18ZM39.33,39.37h1.91l-.98-2.37-.94,2.37Z" fill="#cef565"/><path d="M44.04,41.27c-.09,0-.16-.03-.23-.1-.07-.07-.1-.14-.1-.23v-4.65c0-.09.03-.16.1-.23s.14-.1.23-.1.16.03.23.1c.07.07.1.14.1.23v1.97h3.2v-1.97c0-.09.03-.16.1-.23.07-.07.14-.1.23-.1s.16.03.23.1c.07.07.1.14.1.23v4.65c0,.09-.03.16-.1.23-.07.07-.14.1-.23.1s-.17-.03-.23-.1c-.07-.07-.1-.14-.1-.23v-2.03h-3.2v2.03c0,.09-.03.16-.1.23-.07.07-.14.1-.23.1Z" fill="#cef565"/><path d="M52.64,41.27c-.22,0-.33-.11-.33-.33v-4.65c0-.22.11-.33.33-.33h2.04c.42,0,.73.11.96.33.22.22.33.53.33.94v.21c0,.35-.11.63-.33.82.42.23.62.66.62,1.27v.27c0,.48-.13.85-.38,1.1-.25.25-.62.38-1.1.38h-2.15ZM52.97,38.06h1.86c.19,0,.32-.06.39-.18.07-.12.1-.27.1-.45v-.21c0-.23-.05-.39-.14-.48-.09-.09-.26-.13-.49-.13h-1.72v1.45ZM52.97,40.61h1.82c.29,0,.51-.06.63-.19s.19-.33.19-.62v-.27c0-.29-.06-.5-.18-.62-.12-.12-.34-.19-.64-.19h-1.82v1.89Z" fill="#cef565"/><path d="M57.92,41.27c-.22,0-.33-.11-.33-.33v-4.65c0-.22.11-.33.33-.33s.33.11.33.33v4.32h2.17c.22,0,.33.11.33.33s-.11.33-.33.33h-2.5Z" fill="#cef565"/><path d="M61.57,41.24c-.21-.08-.27-.22-.19-.43l1.86-4.59c.08-.17.2-.26.37-.26h.02c.17,0,.29.09.34.26l1.9,4.59c.08.21.02.35-.18.43-.21.08-.35.02-.43-.18l-.42-1.03h-2.44l-.4,1.03c-.08.2-.22.26-.42.18ZM62.66,39.37h1.91l-.98-2.37-.94,2.37Z" fill="#cef565"/><path d="M67.37,41.27c-.09,0-.16-.03-.23-.1-.07-.07-.1-.14-.1-.23v-4.65c0-.09.03-.16.1-.23s.14-.1.23-.1.16.03.23.1c.07.07.1.14.1.23v1.97h3.2v-1.97c0-.09.03-.16.1-.23.07-.07.14-.1.23-.1s.16.03.23.1c.07.07.1.14.1.23v4.65c0,.09-.03.16-.1.23-.07.07-.14.1-.23.1s-.17-.03-.23-.1c-.07-.07-.1-.14-.1-.23v-2.03h-3.2v2.03c0,.09-.03.16-.1.23-.07.07-.14.1-.23.1Z" fill="#cef565"/><path d="M75.97,41.27c-.22,0-.33-.11-.33-.33v-4.65c0-.22.11-.33.33-.33h2.04c.42,0,.73.11.96.33.22.22.33.53.33.94v.21c0,.35-.11.63-.33.82.42.23.62.66.62,1.27v.27c0,.48-.13.85-.38,1.1-.25.25-.62.38-1.1.38h-2.15ZM76.3,38.06h1.86c.19,0,.32-.06.39-.18.07-.12.1-.27.1-.45v-.21c0-.23-.05-.39-.14-.48-.09-.09-.26-.13-.49-.13h-1.72v1.45ZM76.3,40.61h1.82c.29,0,.51-.06.63-.19s.19-.33.19-.62v-.27c0-.29-.06-.5-.18-.62-.12-.12-.34-.19-.64-.19h-1.82v1.89Z" fill="#cef565"/><path d="M81.24,41.27c-.22,0-.33-.11-.33-.33v-4.65c0-.22.11-.33.33-.33s.33.11.33.33v4.32h2.17c.22,0,.33.11.33.33s-.11.33-.33.33h-2.5Z" fill="#cef565"/><path d="M84.9,41.24c-.21-.08-.27-.22-.19-.43l1.86-4.59c.08-.17.2-.26.37-.26h.02c.17,0,.29.09.34.26l1.9,4.59c.08.21.02.35-.18.43-.21.08-.35.02-.43-.18l-.42-1.03h-2.44l-.4,1.03c-.08.2-.22.26-.42.18ZM85.99,39.37h1.91l-.98-2.37-.94,2.37Z" fill="#cef565"/><path d="M90.7,41.27c-.09,0-.16-.03-.23-.1-.07-.07-.1-.14-.1-.23v-4.65c0-.09.03-.16.1-.23s.14-.1.23-.1.16.03.23.1c.07.07.1.14.1.23v1.97h3.2v-1.97c0-.09.03-.16.1-.23.07-.07.14-.1.23-.1s.16.03.23.1c.07.07.1.14.1.23v4.65c0,.09-.03.16-.1.23-.07.07-.14.1-.23.1s-.17-.03-.23-.1c-.07-.07-.1-.14-.1-.23v-2.03h-3.2v2.03c0,.09-.03.16-.1.23-.07.07-.14.1-.23.1Z" fill="#cef565"/></svg>