<?xml version="1.0" encoding="UTF-8"?><svg id="uuid-14602b42-eb7c-478e-8921-5f8148ccde09" xmlns="http://www.w3.org/2000/svg" viewBox="0 0 84 112"><path d="M77.86,58.66h.19c3.6-9.27,4.87-19,4.83-25.53-.1-16.03-19.18-28.92-39.62-28.91C22.81,4.45,3.81,17.57,3.91,33.6c.04,6.53,1.5,16.25,5.21,25.47h.12c-.37.79-.77,1.58-1.26,2.39-3.09,5.15-.56,12.72,7.06,15.09l.14,23.87,21.1,10,15.41-.09,20.98-10.25-.14-23.92h-.14c7.49-2.51,9.93-10.07,6.75-15.12-.5-.79-.91-1.58-1.28-2.37Z" fill="#4000f5" stroke="#4000f5" stroke-linejoin="round" stroke-width="2"/><path d="M42.99,4.21c.09,0,.18,0,.27,0,.09,0,.18,0,.27,0h-.53Z" fill="#4000f5" stroke="#4000f5" stroke-linejoin="round" stroke-width="2"/><path d="M75.7,56.37l.13.05c3.39-8.75,4.97-18.57,4.92-25.64-.02-3.96-1.28-7.82-3.59-11.48-2.19-3.46-4.69-6.59-8.59-9.3C60.91,4.7,50.92,1.64,41.07,1.58c-.01,0-.03,0-.05,0h-.53s-.03,0-.04,0c-9.85.18-19.66,3.57-27.24,8.97-3.87,2.75-6.33,5.7-8.48,9.18-2.27,3.69-3.63,7.57-3.6,11.52.04,7.07,1.73,16.87,5.23,25.58l.04-.02c-.34.71-.72,1.42-1.15,2.14-1.61,2.68-1.76,6.07-.41,9.07,1.35,3,4,5.26,7.43,6.39l.14,23.66c0,.1.05.19.13.24l21.1,10s.1.05.16.05l15.41-.09c.06,0,.11-.02.16-.05l20.98-10.25c.08-.05.13-.15.13-.25l-.14-23.75c3.31-1.2,5.85-3.47,7.12-6.44,1.3-3.01,1.09-6.38-.56-9.01-.45-.72-.85-1.44-1.2-2.16Z" fill="#cef565"/><polyline points="70.1 73.87 70.24 97.79 49.27 108.04 33.85 108.13 12.76 98.13 12.61 74.21" fill="none" stroke="#4000f5" stroke-linejoin="round" stroke-width="2"/><path d="M75.14,57.14c3.88-9.26,5.34-19.77,5.3-26.3-.1-16.1-19.34-29.04-39.89-28.91h.53C20.55,2.04,1.38,15.21,1.48,31.31c.04,6.53,1.72,16.98,5.58,26.23" fill="none" stroke="#4000f5" stroke-linejoin="round" stroke-width="2"/><path d="M8.43,41.16s2.86,8.44-2.88,18.01c-3.32,5.53-.17,13.84,8.81,15.53,8.97,1.69,8.85,11.5,8.85,11.5" fill="#cef565" stroke="#4000f5" stroke-linecap="round" stroke-linejoin="round"/><path d="M73.61,40.77s-2.44,9.16,3.09,17.97c3.43,5.46.33,13.84-8.62,15.63-8.95,1.8-8.72,11.61-8.72,11.61" fill="#cef565" stroke="#4000f5" stroke-linecap="round" stroke-linejoin="round"/><path d="M37.19,87.56l-.03-4.84c0-1.13.91-2.06,2.04-2.07h0c1.13,0,2.06.91,2.07,2.04l.03,4.77-4.11.1Z" fill="none" stroke="#4000f5" stroke-linejoin="round"/><path d="M41.3,87.53l-.03-4.84c0-1.13.91-2.06,2.04-2.07h0c1.13,0,2.06.91,2.07,2.04l.03,4.77-4.11.1Z" fill="none" stroke="#4000f5" stroke-linejoin="round"/><path d="M45.41,87.51l-.02-4.1c0-1.13.91-2.06,2.04-2.07h0c1.13,0,2.06.91,2.07,2.04l.02,4.03-4.11.1Z" fill="none" stroke="#4000f5" stroke-linejoin="round"/><path d="M49.52,87.26l-.02-3.37c0-1.13.91-2.06,2.04-2.07h0c1.13,0,2.06.91,2.07,2.04l.02,3.29-4.11.1Z" fill="none" stroke="#4000f5" stroke-linejoin="round"/><path d="M53.62,86.57v-2.5c-.02-.84.66-1.53,1.5-1.53h0c.84,0,1.53.68,1.53,1.51v2.44s-3.03.07-3.03.07Z" fill="none" stroke="#4000f5" stroke-linejoin="round"/><path d="M56.82,86.04v-2.09c-.02-.7.55-1.28,1.26-1.29h0c.7,0,1.28.57,1.29,1.27v2.05s-2.54.06-2.54.06Z" fill="none" stroke="#4000f5" stroke-linejoin="round"/><path d="M37.19,87.56l-.02-4.1c0-1.13-.94-2.05-2.07-2.04h0c-1.13,0-2.05.94-2.04,2.07l.02,4.03,4.11.05Z" fill="none" stroke="#4000f5" stroke-linejoin="round"/><path d="M33.08,87.36l-.02-3.37c0-1.13-.94-2.05-2.07-2.04h0c-1.13,0-2.05.94-2.04,2.07l.02,3.29,4.11.05Z" fill="none" stroke="#4000f5" stroke-linejoin="round"/><path d="M28.97,86.71v-2.5c-.02-.84-.71-1.52-1.55-1.51h0c-.84,0-1.52.69-1.51,1.53v2.44s3.06.04,3.06.04Z" fill="none" stroke="#4000f5" stroke-linejoin="round"/><path d="M25.77,86.23v-2.09c-.02-.7-.59-1.27-1.3-1.27h0c-.7,0-1.27.58-1.27,1.29v2.05s2.57.03,2.57.03Z" fill="none" stroke="#4000f5" stroke-linejoin="round"/><path d="M45.41,87.51l.03,4.84c0,1.13-.91,2.06-2.04,2.07h0c-1.13,0-2.06-.91-2.07-2.04l-.03-4.77,4.11-.1Z" fill="none" stroke="#4000f5" stroke-linejoin="round"/><path d="M41.3,87.53l.03,4.84c0,1.13-.91,2.06-2.04,2.07h0c-1.13,0-2.06-.91-2.07-2.04l-.03-4.77,4.11-.1Z" fill="none" stroke="#4000f5" stroke-linejoin="round"/><path d="M37.19,87.56l.02,4.1c0,1.13-.91,2.06-2.04,2.07h0c-1.13,0-2.06-.91-2.07-2.04l-.02-4.03,4.11-.1Z" fill="none" stroke="#4000f5" stroke-linejoin="round"/><path d="M33.08,87.36l.02,3.37c0,1.13-.91,2.06-2.04,2.07h0c-1.13,0-2.06-.91-2.07-2.04l-.02-3.29,4.11-.1Z" fill="none" stroke="#4000f5" stroke-linejoin="round"/><path d="M28.97,86.71v2.48c.02.83-.66,1.52-1.5,1.52h0c-.84,0-1.53-.67-1.53-1.5v-2.43s3.03-.07,3.03-.07Z" fill="none" stroke="#4000f5" stroke-linejoin="round"/><path d="M25.77,86.23v2.09c.02.7-.55,1.28-1.26,1.29h0c-.7,0-1.28-.57-1.29-1.27v-2.05s2.54-.06,2.54-.06Z" fill="none" stroke="#4000f5" stroke-linejoin="round"/><path d="M45.41,87.51l.02,4.1c0,1.13.94,2.05,2.07,2.04h0c1.13,0,2.05-.94,2.04-2.07l-.02-4.03-4.11-.05Z" fill="none" stroke="#4000f5" stroke-linejoin="round"/><path d="M49.52,87.26l.02,3.37c0,1.13.94,2.05,2.07,2.04h0c1.13,0,2.05-.94,2.04-2.07l-.02-3.29-4.11-.05Z" fill="none" stroke="#4000f5" stroke-linejoin="round"/><path d="M53.62,86.57v2.5c.02.84.71,1.52,1.55,1.51h0c.84,0,1.52-.69,1.51-1.53v-2.44s-3.06-.04-3.06-.04Z" fill="none" stroke="#4000f5" stroke-linejoin="round"/><path d="M56.82,86.04v2.09c.02.7.59,1.27,1.3,1.27h0c.7,0,1.27-.58,1.27-1.29v-2.05s-2.57-.03-2.57-.03Z" fill="none" stroke="#4000f5" stroke-linejoin="round"/><line x1="25.88" y1="80.15" x2="25.9" y2="83.56" fill="none" stroke="#4000f5" stroke-linecap="round" stroke-linejoin="round"/><line x1="28.93" y1="80.13" x2="28.95" y2="83.54" fill="none" stroke="#4000f5" stroke-linecap="round" stroke-linejoin="round"/><line x1="53.66" y1="79.98" x2="53.68" y2="83.39" fill="#cef565" stroke="#4000f5" stroke-linecap="round" stroke-linejoin="round"/><line x1="56.71" y1="79.96" x2="56.73" y2="83.37" fill="#cef565" stroke="#4000f5" stroke-linecap="round" stroke-linejoin="round"/><line x1="33.03" y1="79.2" x2="33.06" y2="83.51" fill="none" stroke="#4000f5" stroke-linecap="round" stroke-linejoin="round"/><line x1="37.14" y1="79.18" x2="37.17" y2="83.49" fill="none" stroke="#4000f5" stroke-linecap="round" stroke-linejoin="round"/><line x1="45.36" y1="79.13" x2="45.39" y2="83.44" fill="#cef565" stroke="#4000f5" stroke-linecap="round" stroke-linejoin="round"/><line x1="49.47" y1="79.1" x2="49.5" y2="83.42" fill="#cef565" stroke="#4000f5" stroke-linecap="round" stroke-linejoin="round"/><line x1="41.24" y1="78.08" x2="41.28" y2="83.47" fill="none" stroke="#4000f5" stroke-linecap="round" stroke-linejoin="round"/><path d="M34.55,48.97c-1.44-3.71-5.26-5.01-8.97-5-3.72.01-8.32,1.04-9.65,5.03-.5,1.5-1.39,10.82,4.21,11.54,8.12,2.13,10.71-.68,11.3-2.16,4.7.1,3.78-7.67,3.1-9.41Z" fill="#4000f5"/><path d="M50.96,44.33c-3.9,1.35-5.09,6.54-3.14,10.33.88,1.7,2.38,3.01,4.16,3.69.98.38,2.03.56,2.72,1.41.66.81,1.27,1.37,2.29,1.74,6.65,2.39,8.96-3.43,9.59-5.27,1.25-3.65-.52-17.12-15.62-11.91Z" fill="#4000f5"/><path d="M38.01,73.5c1.75.26,3.04-1.64,3.81-1.9.84-.29,2.68.64,3.81.4s1.98-3.64,1.97-5.91c-.03-4.86-3.88-8.79-6.55-8.77s-6.34,3.98-6.32,8.85c.02,3.08,2.54,7.23,3.29,7.34Z" fill="#4000f5"/><path d="M56.58,64.03s.01.03,0,0c0,0,0,0,0,0ZM56.61,64.07s0-.01-.01-.02c.01.02,0,.01.01.02ZM56.58,64.03s0,0,0-.02c0,0,0,0,0,0,0,0,0,.01,0,.02ZM56.62,64.09s0-.01-.01-.02c0,0,0,.01.01.02Z" fill="#eb6c82"/></svg>