<?xml version="1.0" encoding="UTF-8"?><svg id="uuid-cb7e8057-b523-4ed7-849c-ba79729b135c" xmlns="http://www.w3.org/2000/svg" xmlns:xlink="http://www.w3.org/1999/xlink" viewBox="0 0 234 108"><defs><clipPath id="uuid-8e93ec9f-99de-435e-9106-3a1e0fe416ed"><rect width="234" height="108" transform="translate(234 108) rotate(180)" fill="none"/></clipPath></defs><g clip-path="url(#uuid-8e93ec9f-99de-435e-9106-3a1e0fe416ed)"><path d="M23.69,51.7c6.35,2.25,9.52,7.42,9.52,15.53v16.99c0,12.89-6.06,19.34-18.16,19.34H-22.6V8.78H13.88c12.11,0,18.16,6.44,18.16,19.34v8.64c0,7.81-2.78,12.79-8.35,14.94ZM8.75,22.7H-2.09v25.34h10.84c.78,0,1.44-.29,1.98-.88.54-.59.81-1.27.81-2.05v-19.48c0-.78-.27-1.46-.81-2.05-.54-.59-1.2-.88-1.98-.88ZM12.71,86.56v-21.24c0-.78-.27-1.46-.81-2.05-.54-.59-1.2-.88-1.98-.88H-2.09v27.1h12.01c.78,0,1.44-.29,1.98-.88.54-.59.81-1.27.81-2.05Z" fill="#4000f5" stroke="#4000f5" stroke-linejoin="round" stroke-width="2"/><path d="M103.08,26.65v59.03c0,12.89-6.06,19.34-18.16,19.34h-19.48c-12.11,0-18.16-6.45-18.16-19.34V26.65c0-12.89,6.05-19.34,18.16-19.34h19.48c12.11,0,18.16,6.45,18.16,19.34ZM82.58,88.03V24.16c0-.78-.27-1.46-.81-2.05-.54-.59-1.2-.88-1.98-.88h-9.23c-.78,0-1.44.29-1.98.88-.54.59-.81,1.27-.81,2.05v63.87c0,.78.27,1.46.81,2.05.54.59,1.19.88,1.98.88h9.23c.78,0,1.44-.29,1.98-.88.54-.59.81-1.27.81-2.05Z" fill="#4000f5" stroke="#4000f5" stroke-linejoin="round" stroke-width="2"/><path d="M152.01,8.78h20.51v76.9c0,12.89-6.06,19.34-18.16,19.34h-18.16c-12.11,0-18.16-6.45-18.16-19.34V8.78h20.51v78.66c0,.78.27,1.46.81,2.05.54.59,1.19.88,1.98.88h7.91c.78,0,1.44-.29,1.98-.88.54-.59.81-1.27.81-2.05V8.78Z" fill="#4000f5" stroke="#4000f5" stroke-linejoin="round" stroke-width="2"/><path d="M181.16,26.21V8.78h51.27v17.43h-15.38v77.34h-20.51V26.21h-15.38Z" fill="#4000f5" stroke="#4000f5" stroke-linejoin="round" stroke-width="2"/><path d="M16.13,46.38c6.35,2.25,9.52,7.42,9.52,15.53v16.99c0,12.89-6.06,19.34-18.16,19.34H-30.16V3.46H6.32c12.11,0,18.16,6.44,18.16,19.34v8.64c0,7.81-2.78,12.79-8.35,14.94ZM1.19,17.38h-10.84v25.34H1.19c.78,0,1.44-.29,1.98-.88.54-.59.81-1.27.81-2.05v-19.48c0-.78-.27-1.46-.81-2.05-.54-.59-1.2-.88-1.98-.88ZM5.15,81.25v-21.24c0-.78-.27-1.46-.81-2.05-.54-.59-1.2-.88-1.98-.88h-12.01v27.1H2.36c.78,0,1.44-.29,1.98-.88.54-.59.81-1.27.81-2.05Z" fill="#cef565" stroke="#4000f5" stroke-linejoin="round" stroke-width="2"/><path d="M95.52,21.34v59.03c0,12.89-6.06,19.34-18.16,19.34h-19.48c-12.11,0-18.16-6.45-18.16-19.34V21.34c0-12.89,6.05-19.34,18.16-19.34h19.48c12.11,0,18.16,6.45,18.16,19.34ZM75.02,82.71V18.85c0-.78-.27-1.46-.81-2.05-.54-.59-1.2-.88-1.98-.88h-9.23c-.78,0-1.44.29-1.98.88-.54.59-.81,1.27-.81,2.05v63.87c0,.78.27,1.46.81,2.05.54.59,1.19.88,1.98.88h9.23c.78,0,1.44-.29,1.98-.88.54-.59.81-1.27.81-2.05Z" fill="#cef565" stroke="#4000f5" stroke-linejoin="round" stroke-width="2"/><path d="M144.45,3.46h20.51v76.9c0,12.89-6.06,19.34-18.16,19.34h-18.16c-12.11,0-18.16-6.45-18.16-19.34V3.46h20.51v78.66c0,.78.27,1.46.81,2.05.54.59,1.19.88,1.98.88h7.91c.78,0,1.44-.29,1.98-.88.54-.59.81-1.27.81-2.05V3.46Z" fill="#cef565" stroke="#4000f5" stroke-linejoin="round" stroke-width="2"/><path d="M173.6,20.9V3.46h51.27v17.43h-15.38v77.34h-20.51V20.9h-15.38Z" fill="#cef565" stroke="#4000f5" stroke-linejoin="round" stroke-width="2"/></g></svg>