<?xml version="1.0" encoding="UTF-8"?><svg id="uuid-0601d8ee-4496-4ab5-8597-a28a5ce812d4" xmlns="http://www.w3.org/2000/svg" xmlns:xlink="http://www.w3.org/1999/xlink" viewBox="0 0 154 50"><defs><clipPath id="uuid-cb948cdd-41c5-4431-8a84-5429b3b80989"><rect width="153.91" height="50.4" fill="none"/></clipPath></defs><g clip-path="url(#uuid-cb948cdd-41c5-4431-8a84-5429b3b80989)"><path d="M-2.28,30.14v16.31h-8.99V4.9H-2.28v17.4h7.13V4.9h8.99v41.54H4.85v-16.31H-2.28Z" fill="#4000f5" stroke="#4000f5" stroke-linejoin="round"/><path d="M29.25,39h9.95v7.45h-18.94V4.9h18.94v7.32h-9.95v9.76h9.31v7.06h-9.31v9.95Z" fill="#4000f5" stroke="#4000f5" stroke-linejoin="round"/><path d="M72.72,4.9h7.96l4.82,31.27,3.6-31.27h8.73l-6.74,41.54h-10.21l-4.17-25.49-4.17,25.49h-10.21l-6.74-41.54h8.73l3.6,31.27,4.82-31.27Z" fill="#4000f5" stroke="#4000f5" stroke-linejoin="round"/><path d="M111.76,39h9.95v7.45h-18.94V4.9h18.94v7.32h-9.95v9.76h9.31v7.06h-9.31v9.95Z" fill="#4000f5" stroke="#4000f5" stroke-linejoin="round"/><path d="M147.2,23.72c2.78.99,4.17,3.25,4.17,6.81v7.45c0,5.65-2.65,8.48-7.96,8.48h-16.5V4.9h15.99c5.31,0,7.96,2.83,7.96,8.48v3.79c0,3.43-1.22,5.61-3.66,6.55ZM140.65,11h-4.75v11.11h4.75c.34,0,.63-.13.87-.39.23-.26.35-.56.35-.9v-8.54c0-.34-.12-.64-.35-.9-.24-.26-.52-.39-.87-.39ZM142.39,39v-9.31c0-.34-.12-.64-.35-.9-.24-.26-.52-.39-.87-.39h-5.26v11.88h5.26c.34,0,.63-.13.87-.39.23-.26.35-.56.35-.9Z" fill="#4000f5" stroke="#4000f5" stroke-linejoin="round"/><path d="M-5.19,27.29v16.31h-8.99V2.05H-5.19v17.4H1.94V2.05h8.99v41.54H1.94v-16.31h-7.13Z" fill="#cef565" stroke="#4000f5" stroke-linejoin="round"/><path d="M26.34,36.15h9.95v7.45h-18.94V2.05h18.94v7.32h-9.95v9.76h9.31v7.06h-9.31v9.95Z" fill="#cef565" stroke="#4000f5" stroke-linejoin="round"/><path d="M69.81,2.05h7.96l4.82,31.27,3.6-31.27h8.73l-6.74,41.54h-10.21l-4.17-25.49-4.17,25.49h-10.21L52.66,2.05h8.73l3.6,31.27,4.82-31.27Z" fill="#cef565" stroke="#4000f5" stroke-linejoin="round"/><path d="M108.85,36.15h9.95v7.45h-18.94V2.05h18.94v7.32h-9.95v9.76h9.31v7.06h-9.31v9.95Z" fill="#cef565" stroke="#4000f5" stroke-linejoin="round"/><path d="M144.29,20.87c2.78.99,4.17,3.25,4.17,6.81v7.45c0,5.65-2.65,8.48-7.96,8.48h-16.5V2.05h15.99c5.31,0,7.96,2.83,7.96,8.48v3.79c0,3.43-1.22,5.61-3.66,6.55ZM137.74,8.15h-4.75v11.11h4.75c.34,0,.63-.13.87-.39.23-.26.35-.56.35-.9v-8.54c0-.34-.12-.64-.35-.9-.24-.26-.52-.39-.87-.39ZM139.47,36.15v-9.31c0-.34-.12-.64-.35-.9-.24-.26-.52-.39-.87-.39h-5.26v11.88h5.26c.34,0,.63-.13.87-.39.23-.26.35-.56.35-.9Z" fill="#cef565" stroke="#4000f5" stroke-linejoin="round"/></g></svg>