<svg id="Layer_1" data-name="Layer 1" xmlns="http://www.w3.org/2000/svg" width="41" height="38" viewBox="0 0 41 38"><title>Artboard 2</title><path d="M6.87,18.85a13.24,13.24,0,0,1,.34-3,8.26,8.26,0,0,1,1-2.58,5.41,5.41,0,0,1,1.86-1.79,5.24,5.24,0,0,1,2.77-.68,5.29,5.29,0,0,1,2.77.68,5.59,5.59,0,0,1,1.86,1.79,8,8,0,0,1,1,2.58,14.6,14.6,0,0,1,0,6.08,8.18,8.18,0,0,1-1,2.59A5.16,5.16,0,0,1,12.88,27a5.36,5.36,0,0,1-2.8-.68,5.46,5.46,0,0,1-1.86-1.81,7.94,7.94,0,0,1-1-2.59A14.45,14.45,0,0,1,6.87,18.85Zm2.49,0A14.89,14.89,0,0,0,9.5,21l6.15-6.17a3.6,3.6,0,0,0-1.07-1.32,2.75,2.75,0,0,0-1.7-.51,2.87,2.87,0,0,0-2.62,1.55A8.62,8.62,0,0,0,9.36,18.85Zm3.52,5.89a2.74,2.74,0,0,0,1.73-.52,3.52,3.52,0,0,0,1.07-1.35,6.7,6.7,0,0,0,.55-1.9,13.64,13.64,0,0,0,.17-2.11,12.81,12.81,0,0,0-.15-2L10.15,23a3.49,3.49,0,0,0,1,1.25A2.81,2.81,0,0,0,12.88,24.74Z" fill="#789"/><path d="M31.57,15.31A5,5,0,0,1,31,17.57a8.4,8.4,0,0,1-1.62,2.18l-4.9,4.71h4.59V22.31H31.3V26.7H21.21V24.35l6.31-6a6.09,6.09,0,0,0,1.18-1.58,3.1,3.1,0,0,0,.37-1.42,2.33,2.33,0,0,0-.23-1.06,2.24,2.24,0,0,0-.6-.72,2.35,2.35,0,0,0-.84-.41,3.31,3.31,0,0,0-.93-.13,3.08,3.08,0,0,0-2.32.87,3.48,3.48,0,0,0-.85,2.55H21a5.81,5.81,0,0,1,1.41-4.15,5.37,5.37,0,0,1,4.09-1.5,6.24,6.24,0,0,1,1.94.29,5,5,0,0,1,1.63.86,3.94,3.94,0,0,1,1.11,1.43A4.45,4.45,0,0,1,31.57,15.31Z" fill="#789"/></svg>