<svg id="Layer_1" data-name="Layer 1" xmlns="http://www.w3.org/2000/svg" width="41" height="38" viewBox="0 0 41 38"><title>Artboard 2</title><path d="M6.87,18.85a13.24,13.24,0,0,1,.34-3,8.26,8.26,0,0,1,1-2.58,5.41,5.41,0,0,1,1.86-1.79,5.24,5.24,0,0,1,2.77-.68,5.29,5.29,0,0,1,2.77.68,5.59,5.59,0,0,1,1.86,1.79,8,8,0,0,1,1,2.58,14.6,14.6,0,0,1,0,6.08,8.18,8.18,0,0,1-1,2.59A5.16,5.16,0,0,1,12.88,27a5.36,5.36,0,0,1-2.8-.68,5.46,5.46,0,0,1-1.86-1.81,7.94,7.94,0,0,1-1-2.59A14.45,14.45,0,0,1,6.87,18.85Zm2.49,0A14.89,14.89,0,0,0,9.5,21l6.15-6.17a3.6,3.6,0,0,0-1.07-1.32,2.75,2.75,0,0,0-1.7-.51,2.87,2.87,0,0,0-2.62,1.55A8.62,8.62,0,0,0,9.36,18.85Zm3.52,5.89a2.74,2.74,0,0,0,1.73-.52,3.52,3.52,0,0,0,1.07-1.35,6.7,6.7,0,0,0,.55-1.9,13.64,13.64,0,0,0,.17-2.11,12.81,12.81,0,0,0-.15-2L10.15,23a3.49,3.49,0,0,0,1,1.25A2.81,2.81,0,0,0,12.88,24.74Z" fill="#789"/><path d="M31.75,22.45a4.11,4.11,0,0,1-.42,1.87,4.58,4.58,0,0,1-1.12,1.42,5.28,5.28,0,0,1-1.63.91,5.61,5.61,0,0,1-1.92.32,6.83,6.83,0,0,1-2.12-.31,5,5,0,0,1-1.74-.93,4.53,4.53,0,0,1-1.21-1.61A6.19,6.19,0,0,1,21,21.78l2.33-.38a3.74,3.74,0,0,0,1,2.44,3.09,3.09,0,0,0,2.3.9,2.77,2.77,0,0,0,1.89-.63,2.1,2.1,0,0,0,.71-1.66,2.22,2.22,0,0,0-.91-2,6.19,6.19,0,0,0-3.2-.6V17.6a7.06,7.06,0,0,0,1.5-.15A4.24,4.24,0,0,0,27.86,17a2.58,2.58,0,0,0,.81-.76,1.83,1.83,0,0,0,.29-1,2.16,2.16,0,0,0-.59-1.59A2.25,2.25,0,0,0,26.66,13a3.06,3.06,0,0,0-2.27.8,3.54,3.54,0,0,0-.79,2.55H21.24a6.86,6.86,0,0,1,.39-2.42,5,5,0,0,1,1.11-1.75,4.58,4.58,0,0,1,1.7-1.06,6.54,6.54,0,0,1,2.22-.35,5.79,5.79,0,0,1,1.88.3,4.62,4.62,0,0,1,1.52.89,3.92,3.92,0,0,1,1,1.39,4.45,4.45,0,0,1,.37,1.86,3.73,3.73,0,0,1-.21,1.25,3.25,3.25,0,0,1-.6,1,2.79,2.79,0,0,1-1,.74,3.32,3.32,0,0,1-1.29.33,3.57,3.57,0,0,1,1.44.42,3.8,3.8,0,0,1,1.06.88,3.69,3.69,0,0,1,.66,1.2A4.64,4.64,0,0,1,31.75,22.45Z" fill="#789"/></svg>