<svg id="Layer_1" data-name="Layer 1" xmlns="http://www.w3.org/2000/svg" width="41" height="38" viewBox="0 0 41 38"><title>Artboard 2</title><path d="M6.87,18.85a13.24,13.24,0,0,1,.34-3,8.26,8.26,0,0,1,1-2.58,5.41,5.41,0,0,1,1.86-1.79,5.24,5.24,0,0,1,2.77-.68,5.29,5.29,0,0,1,2.77.68,5.59,5.59,0,0,1,1.86,1.79,8,8,0,0,1,1,2.58,14.6,14.6,0,0,1,0,6.08,8.18,8.18,0,0,1-1,2.59A5.16,5.16,0,0,1,12.88,27a5.36,5.36,0,0,1-2.8-.68,5.46,5.46,0,0,1-1.86-1.81,7.94,7.94,0,0,1-1-2.59A14.45,14.45,0,0,1,6.87,18.85Zm2.49,0A14.89,14.89,0,0,0,9.5,21l6.15-6.17a3.6,3.6,0,0,0-1.07-1.32,2.75,2.75,0,0,0-1.7-.51,2.87,2.87,0,0,0-2.62,1.55A8.62,8.62,0,0,0,9.36,18.85Zm3.52,5.89a2.74,2.74,0,0,0,1.73-.52,3.52,3.52,0,0,0,1.07-1.35,6.7,6.7,0,0,0,.55-1.9,13.64,13.64,0,0,0,.17-2.11,12.81,12.81,0,0,0-.15-2L10.15,23a3.49,3.49,0,0,0,1,1.25A2.81,2.81,0,0,0,12.88,24.74Z" fill="#789"/><path d="M32,21.44a5,5,0,0,1-.47,2.16,5.67,5.67,0,0,1-1.26,1.76,6.15,6.15,0,0,1-1.85,1.18,5.64,5.64,0,0,1-2.2.43,6.45,6.45,0,0,1-2.09-.33,5,5,0,0,1-1.68-1,4.46,4.46,0,0,1-1.17-1.53,5.9,5.9,0,0,1-.55-2.09l2.37-.35A3.63,3.63,0,0,0,24,23.9a2.88,2.88,0,0,0,2.24.84,3.44,3.44,0,0,0,1.36-.26,3.15,3.15,0,0,0,1-.7,3.27,3.27,0,0,0,.63-1.05,3.64,3.64,0,0,0,.22-1.29A3.47,3.47,0,0,0,28.64,19a2.75,2.75,0,0,0-2.14-.88,3.49,3.49,0,0,0-1.58.36,2.58,2.58,0,0,0-1.15,1.16H21.29V11H31.1v2.23H23.77v4.08A3.8,3.8,0,0,1,27,15.87a4.85,4.85,0,0,1,1.92.39,4.8,4.8,0,0,1,1.6,1.11,5.25,5.25,0,0,1,1.09,1.75A6.11,6.11,0,0,1,32,21.44Z" fill="#789"/></svg>