<svg id="Layer_1" data-name="Layer 1" xmlns="http://www.w3.org/2000/svg" width="41" height="38" viewBox="0 0 41 38"><title>Artboard 2</title><path d="M6.87,18.85a13.24,13.24,0,0,1,.34-3,8.26,8.26,0,0,1,1-2.58,5.41,5.41,0,0,1,1.86-1.79,5.24,5.24,0,0,1,2.77-.68,5.29,5.29,0,0,1,2.77.68,5.59,5.59,0,0,1,1.86,1.79,8,8,0,0,1,1,2.58,14.6,14.6,0,0,1,0,6.08,8.18,8.18,0,0,1-1,2.59A5.16,5.16,0,0,1,12.88,27a5.36,5.36,0,0,1-2.8-.68,5.46,5.46,0,0,1-1.86-1.81,7.94,7.94,0,0,1-1-2.59A14.45,14.45,0,0,1,6.87,18.85Zm2.49,0A14.89,14.89,0,0,0,9.5,21l6.15-6.17a3.6,3.6,0,0,0-1.07-1.32,2.75,2.75,0,0,0-1.7-.51,2.87,2.87,0,0,0-2.62,1.55A8.62,8.62,0,0,0,9.36,18.85Zm3.52,5.89a2.74,2.74,0,0,0,1.73-.52,3.52,3.52,0,0,0,1.07-1.35,6.7,6.7,0,0,0,.55-1.9,13.64,13.64,0,0,0,.17-2.11,12.81,12.81,0,0,0-.15-2L10.15,23a3.49,3.49,0,0,0,1,1.25A2.81,2.81,0,0,0,12.88,24.74Z" fill="#789"/><path d="M32.08,21.36a6.16,6.16,0,0,1-.42,2.33,5.19,5.19,0,0,1-1.18,1.76,5.26,5.26,0,0,1-1.77,1.13,6.08,6.08,0,0,1-2.19.39,5.57,5.57,0,0,1-2.91-.68A5,5,0,0,1,21.8,24.5a7.91,7.91,0,0,1-.93-2.58,16.77,16.77,0,0,1-.27-3A11.9,11.9,0,0,1,21,15.81a7.86,7.86,0,0,1,1.21-2.6,5.75,5.75,0,0,1,4.92-2.45,6.81,6.81,0,0,1,2.23.35,5.39,5.39,0,0,1,1.82,1.05L29.83,14a3.8,3.8,0,0,0-1.27-.77A4.44,4.44,0,0,0,27.12,13a3.91,3.91,0,0,0-1.8.41A3.56,3.56,0,0,0,24,14.55a5.36,5.36,0,0,0-.8,1.74,8.58,8.58,0,0,0-.27,2.21,4,4,0,0,1,1.41-2.05,4.33,4.33,0,0,1,2.72-.79,4.43,4.43,0,0,1,1.93.43,5.27,5.27,0,0,1,1.6,1.18,5.82,5.82,0,0,1,1.09,1.8A6.3,6.3,0,0,1,32.08,21.36Zm-2.48,0a3.81,3.81,0,0,0-.81-2.48,2.86,2.86,0,0,0-2.34-1,3.14,3.14,0,0,0-2.36.92,3.36,3.36,0,0,0-.88,2.43,4.32,4.32,0,0,0,.2,1.37,3.14,3.14,0,0,0,.6,1.11,2.65,2.65,0,0,0,1,.75,3.81,3.81,0,0,0,1.51.27,2.92,2.92,0,0,0,2.19-.89A3.41,3.41,0,0,0,29.6,21.37Z" fill="#789"/></svg>