<svg id="Layer_1" data-name="Layer 1" xmlns="http://www.w3.org/2000/svg" width="41" height="38" viewBox="0 0 41 38"><title>Artboard 2</title><path d="M6.87,18.85a13.24,13.24,0,0,1,.34-3,8.26,8.26,0,0,1,1-2.58,5.41,5.41,0,0,1,1.86-1.79,5.24,5.24,0,0,1,2.77-.68,5.29,5.29,0,0,1,2.77.68,5.59,5.59,0,0,1,1.86,1.79,8,8,0,0,1,1,2.58,14.6,14.6,0,0,1,0,6.08,8.18,8.18,0,0,1-1,2.59A5.16,5.16,0,0,1,12.88,27a5.36,5.36,0,0,1-2.8-.68,5.46,5.46,0,0,1-1.86-1.81,7.94,7.94,0,0,1-1-2.59A14.45,14.45,0,0,1,6.87,18.85Zm2.49,0A14.89,14.89,0,0,0,9.5,21l6.15-6.17a3.6,3.6,0,0,0-1.07-1.32,2.75,2.75,0,0,0-1.7-.51,2.87,2.87,0,0,0-2.62,1.55A8.62,8.62,0,0,0,9.36,18.85Zm3.52,5.89a2.74,2.74,0,0,0,1.73-.52,3.52,3.52,0,0,0,1.07-1.35,6.7,6.7,0,0,0,.55-1.9,13.64,13.64,0,0,0,.17-2.11,12.81,12.81,0,0,0-.15-2L10.15,23a3.49,3.49,0,0,0,1,1.25A2.81,2.81,0,0,0,12.88,24.74Z" fill="#789"/><path d="M32,22.29a4.57,4.57,0,0,1-.45,2.11,4,4,0,0,1-1.21,1.44,5.34,5.34,0,0,1-1.83.86,9.3,9.3,0,0,1-4.45,0,5.37,5.37,0,0,1-1.82-.86A4.05,4.05,0,0,1,21,24.4a4.7,4.7,0,0,1-.43-2.11A3.7,3.7,0,0,1,20.81,21a4.44,4.44,0,0,1,.67-1.2,3.82,3.82,0,0,1,1.07-.93,3.68,3.68,0,0,1,1.39-.46A2.65,2.65,0,0,1,22.76,18a3.62,3.62,0,0,1-.87-.83,4.27,4.27,0,0,1-.55-1,3.25,3.25,0,0,1-.2-1.07,4,4,0,0,1,.42-1.87,3.87,3.87,0,0,1,1.12-1.35A5,5,0,0,1,24.34,11a6.94,6.94,0,0,1,1.94-.27,7,7,0,0,1,1.95.27,5.08,5.08,0,0,1,1.65.81,3.93,3.93,0,0,1,1.54,3.22,3.23,3.23,0,0,1-.19,1.07,4.3,4.3,0,0,1-.56,1,3.33,3.33,0,0,1-.88.83,2.69,2.69,0,0,1-1.2.42,3.57,3.57,0,0,1,1.39.46,3.69,3.69,0,0,1,1.07.93,4.25,4.25,0,0,1,.69,1.2A3.52,3.52,0,0,1,32,22.29Zm-2.49-.14a2.47,2.47,0,0,0-.26-1.2,2.09,2.09,0,0,0-.7-.8,2.86,2.86,0,0,0-1-.45,5.41,5.41,0,0,0-1.24-.14A5.48,5.48,0,0,0,25,19.7a2.79,2.79,0,0,0-1,.45,2.17,2.17,0,0,0-.7.8,2.59,2.59,0,0,0-.26,1.2,2.51,2.51,0,0,0,.26,1.16,2.29,2.29,0,0,0,.7.81,2.66,2.66,0,0,0,1,.47,5,5,0,0,0,1.24.15,4.9,4.9,0,0,0,1.24-.15,2.73,2.73,0,0,0,1-.47,2.19,2.19,0,0,0,.7-.81A2.39,2.39,0,0,0,29.5,22.15Zm-.56-6.94a2,2,0,0,0-.7-1.62,2.93,2.93,0,0,0-2-.6,2.93,2.93,0,0,0-2,.6,2,2,0,0,0-.69,1.62,1.91,1.91,0,0,0,.65,1.55,3,3,0,0,0,2,.57,3,3,0,0,0,2-.57A1.94,1.94,0,0,0,28.94,15.21Z" fill="#789"/></svg>