<svg id="Layer_1" data-name="Layer 1" xmlns="http://www.w3.org/2000/svg" width="41" height="38" viewBox="0 0 41 38"><title>Artboard 2</title><path d="M6.87,18.85a13.24,13.24,0,0,1,.34-3,8.26,8.26,0,0,1,1-2.58,5.41,5.41,0,0,1,1.86-1.79,5.24,5.24,0,0,1,2.77-.68,5.29,5.29,0,0,1,2.77.68,5.59,5.59,0,0,1,1.86,1.79,8,8,0,0,1,1,2.58,14.6,14.6,0,0,1,0,6.08,8.18,8.18,0,0,1-1,2.59A5.16,5.16,0,0,1,12.88,27a5.36,5.36,0,0,1-2.8-.68,5.46,5.46,0,0,1-1.86-1.81,7.94,7.94,0,0,1-1-2.59A14.45,14.45,0,0,1,6.87,18.85Zm2.49,0A14.89,14.89,0,0,0,9.5,21l6.15-6.17a3.6,3.6,0,0,0-1.07-1.32,2.75,2.75,0,0,0-1.7-.51,2.87,2.87,0,0,0-2.62,1.55A8.62,8.62,0,0,0,9.36,18.85Zm3.52,5.89a2.74,2.74,0,0,0,1.73-.52,3.52,3.52,0,0,0,1.07-1.35,6.7,6.7,0,0,0,.55-1.9,13.64,13.64,0,0,0,.17-2.11,12.81,12.81,0,0,0-.15-2L10.15,23a3.49,3.49,0,0,0,1,1.25A2.81,2.81,0,0,0,12.88,24.74Z" fill="#789"/><path d="M20.5,16.37A6.19,6.19,0,0,1,20.93,14a5.14,5.14,0,0,1,1.18-1.76,5.21,5.21,0,0,1,1.77-1.11,6.05,6.05,0,0,1,2.17-.39,5.56,5.56,0,0,1,2.92.68,5,5,0,0,1,1.81,1.8,7.83,7.83,0,0,1,.94,2.59,16.39,16.39,0,0,1,.27,3,11.49,11.49,0,0,1-.4,3.07,7.72,7.72,0,0,1-1.21,2.59A5.73,5.73,0,0,1,25.47,27a7.09,7.09,0,0,1-2.23-.35,5.59,5.59,0,0,1-1.83-1l1.35-1.83a3.8,3.8,0,0,0,1.27.77,4.44,4.44,0,0,0,1.44.22,4,4,0,0,0,1.79-.4,3.64,3.64,0,0,0,1.32-1.15,5.32,5.32,0,0,0,.8-1.75,8.63,8.63,0,0,0,.27-2.23,3.82,3.82,0,0,1-1.4,2.05,4.37,4.37,0,0,1-2.74.79,4.48,4.48,0,0,1-1.91-.43A5.19,5.19,0,0,1,22,20.43a5.48,5.48,0,0,1-1.09-1.79A6.27,6.27,0,0,1,20.5,16.37Zm2.49,0a3.74,3.74,0,0,0,.82,2.47,2.82,2.82,0,0,0,2.33,1,3.13,3.13,0,0,0,2.36-.93,3.34,3.34,0,0,0,.88-2.42,4.32,4.32,0,0,0-.2-1.37,3.14,3.14,0,0,0-.6-1.11,2.65,2.65,0,0,0-1-.75A3.81,3.81,0,0,0,26,13a3,3,0,0,0-2.19.89A3.44,3.44,0,0,0,23,16.37Z" fill="#789"/></svg>