<svg id="Layer_1" data-name="Layer 1" xmlns="http://www.w3.org/2000/svg" width="41" height="38" viewBox="0 0 41 38"><title>Artboard 2</title><path d="M16.61,26.7H9.09V24.46h2.52V15.55a2.49,2.49,0,0,1-.58,1,3.51,3.51,0,0,1-1,.77,5.46,5.46,0,0,1-1.29.47A7.19,7.19,0,0,1,7.27,18V15.5a4.83,4.83,0,0,0,1.59-.27,4.09,4.09,0,0,0,1.39-.82,4.37,4.37,0,0,0,1-1.39,4.86,4.86,0,0,0,.37-2H14.1V24.46h2.51Z" fill="#789"/><path d="M20.3,18.85a13.24,13.24,0,0,1,.34-3,8.26,8.26,0,0,1,1-2.58,5.41,5.41,0,0,1,1.86-1.79,5.27,5.27,0,0,1,2.77-.68,5.29,5.29,0,0,1,2.77.68,5.59,5.59,0,0,1,1.86,1.79,8,8,0,0,1,1,2.58,14.6,14.6,0,0,1,0,6.08,8.41,8.41,0,0,1-1,2.59,5.46,5.46,0,0,1-1.86,1.81,5.34,5.34,0,0,1-2.79.68,5.36,5.36,0,0,1-2.8-.68,5.46,5.46,0,0,1-1.86-1.81,7.94,7.94,0,0,1-1-2.59A14.45,14.45,0,0,1,20.3,18.85Zm2.49,0A14.89,14.89,0,0,0,22.93,21l6.15-6.17A3.6,3.6,0,0,0,28,13.5a2.73,2.73,0,0,0-1.7-.51,2.87,2.87,0,0,0-2.62,1.55A8.62,8.62,0,0,0,22.79,18.85Zm3.52,5.89A2.74,2.74,0,0,0,28,24.22a3.42,3.42,0,0,0,1.07-1.35,6.7,6.7,0,0,0,.55-1.9,13.64,13.64,0,0,0,.17-2.11,12.81,12.81,0,0,0-.15-2L23.58,23a3.49,3.49,0,0,0,1.05,1.25A2.81,2.81,0,0,0,26.31,24.74Z" fill="#789"/></svg>