<svg xmlns="http://www.w3.org/2000/svg" viewBox="0 0 240 80"><path d="M232.92 74v-3.94c-.17-14-.73-60.39-.59-63.7L7.08 6c.9 4.7.12 67.55.12 67.55z" fill="#e45c4c"/><path fill="#f7e563" d="M226.88 67.33L12.6 66.89l.07-54.1 213.64.25.57 54.29z"/><path d="M233.36 74c-.25-19.7-.74-64.8-.63-67.64a.46.46 0 0 0-.45-.45L16.21 5.55c-1.92 0-7.86-.22-8.76 0-.54 0-.85.29-.8.56A56.11 56.11 0 0 1 7 14.88c.08 5.45-.2 56.05-.23 58.65a.44.44 0 0 0 .43.47h22.49l54 .12 65.05.14 84.18.19c.44.02.44-.29.44-.45zM7.63 73c.16-.44.2-20.24.24-26.62C8 34 7.7 7.37 7.58 6.42c10.58 0 223.9.46 224.26.43a2.43 2.43 0 0 1 0 .51c-.5 4.75.62 63.64.65 66.22-11.63-.02-213.23-.98-224.86-.51z" fill="#1e1e1e"/><path d="M226.76 13c0-.18 0-.45-.45-.44l-213.82-.33a.45.45 0 0 0-.43.56c.4 2.29.12 52 .09 54.09a.46.46 0 0 0 .45.45l214.28.44a.44.44 0 0 0 .44-.44c-.12-10.12-.86-46.33-.56-54.33zM13.06 66.44c.19-.43.66-50.89-.07-53.32 0 0 212 .43 212.87.37-.18 5.44.32 33.69.43 42.35 0 1.68-.32 9.36.17 10.91.04.1-212.46-.34-213.4-.31z" fill="#1e1e1e"/><path d="M40.62 49.29a.41.41 0 0 0-.41-.4h-8.08c-.15-2.4.08-4.89.11-7.28.09-6.57.1-13.14.16-19.71a.46.46 0 0 0-.69-.39 51.91 51.91 0 0 0-7.14.85.38.38 0 0 0-.27.36c0 .3 0 .6.07.9-.44.08-.87.15-1.3.25a.35.35 0 0 0-.26.35c.9 11.27.65 22.73.68 34a.39.39 0 0 0 .39.39h15.7a.39.39 0 0 0 .42-.31c0-.3 0-.6-.07-.89h.93a.39.39 0 0 0 .39-.39c-.25-2.56-.44-5.14-.63-7.73z" fill="#1e1e1e"/><path d="M40.41 56.65a8 8 0 0 1-.1-1.2c-.09-1.23-.43-5.73-.43-5.79-.64-.07-6.13.09-8.19.11a.45.45 0 0 1-.45-.44c0-9 .14-18 .23-27-1.19.1-5.62-.23-6.42.87-.24.37.08 2 .11 2.43.2 4 1.24 29.82 1.06 30.48.27-.01 12.25.55 14.19.54z" fill="#e45c4c"/><path d="M39.87 49.57c0-.2-.16-.12 0 0z" fill="#e45c4c"/><path d="M57.74 25.9c-1.86-.06-3.71-.14-5.57-.19a.41.41 0 0 0-.36.21c-.17.35-.34.7-.5 1.06-.13 0-.6-.24-.75.19q-2 4.16-3.92 8.3c-1.36-2.35-5-9.18-5.63-9.42-.84-.34-2.22.64-3.07 1-.23-.06-.34.65-.3.77-.34.18-.67.36-1 .48-.23-.06-.52.1-.43.4a45 45 0 0 0 5.28 10.1c1.26 2 1.47 2.08 1.66 4.31.43 5 .88 10 1.31 15 0 .19.16.39.37.37 1.59-.09 3.18-.18 4.77-.25a.4.4 0 0 0 .38-.39v-.81h.92a.4.4 0 0 0 .38-.39c-.13-2.64-.95-14.5-1-16.24 0 .06 6.5-11.46 7.86-13.85a.41.41 0 0 0-.4-.65z" fill="#1e1e1e"/><path d="M50.45 38.39c2.21-3.87 4.39-7.78 6.59-11.67-1.36 0-4.44-.13-4.61-.13a.83.83 0 0 0-.08.12c-.33.5-3.6 7.47-5 10.38a.38.38 0 0 1-.65 0c-1.32-2.32-5.18-8.66-6-10.3a20.36 20.36 0 0 0-2.42.72c1.4 4 3.79 7.6 6.09 11.08.83 1.26.76 2.26.9 3.8.25 2.94 1 13.79 1.13 14.22 0-.32 3.8-.35 4.08-.35-.42-2.07-1-12.71-1-15.26a4.41 4.41 0 0 1 .97-2.61z" fill="#e45c4c"/><path d="M77.19 26.09a.47.47 0 0 0-.45-.46l-3.95.11a.45.45 0 0 0-.45.45v.78h-.81a.45.45 0 0 0-.45.45c.07 5 .14 10 .18 14.94C68.68 37 66.3 31.48 64 26a.39.39 0 0 0-.36-.27L61 25.8a.41.41 0 0 0-.39.39v.83h-.85a.41.41 0 0 0-.39.39c-.15 10.5-.13 21-.2 31.52 0 1 2.64.53 3.65.57a.47.47 0 0 0 .46-.46v-.85q.39 0 .78.06a.47.47 0 0 0 .46-.46q.14-7 .29-14l8 15.59a.48.48 0 0 0 .42.24l3.11-.28a.49.49 0 0 0 .49-.48v-.7l.78-.07a.49.49 0 0 0 .49-.48q-.47-15.76-.91-31.52z" fill="#1e1e1e"/><path d="M61.16 57.47c.8 0 1.62-.08 2.43-.1 0-.21.29-15 .37-19a.48.48 0 0 1 .88-.24c2.92 5.65 9.4 18.7 9.9 19.27.06 0 1.78-.22 2.35-.25 0-.3-.55-28.77-.78-30.65a7 7 0 0 1-3.07.11c0 .21.3 13.83.25 20.41a.46.46 0 0 1-.85.23c-2.84-5.67-8.91-19.53-9.23-20.89-.2-.11-1.58.36-2.08.2.5 1.52-.06 24.03-.17 30.91z" fill="#e45c4c"/><path d="M100.35 25.74a.47.47 0 0 0-.46-.45L94.73 25a.46.46 0 0 0-.46.45v.85l-.81-.05a.46.46 0 0 0-.46.45q.12 7.57.19 15.14c-2.54-5.33-4.88-10.76-7.14-16.2a.38.38 0 0 0-.35-.27l-3.61-.3a.4.4 0 0 0-.39.38v.94l-.85-.07a.4.4 0 0 0-.39.38c-.15 10.64-.12 21.29-.21 31.93 0 .81 3.58 0 5-.26a.45.45 0 0 0 .33-.44v-.7l.9-.11a.45.45 0 0 0 .33-.44c.1-3.82.17-7.63.25-11.44q3.63 6.69 7.25 13.4a.49.49 0 0 0 .42.24l4.33-.27a.49.49 0 0 0 .49-.49v-.72h.77a.49.49 0 0 0 .49-.49q-.22-15.6-.46-31.17z" fill="#1e1e1e"/><path d="M87.14 39.78c3.66 5.93 9 16.62 9.1 16.82a8.13 8.13 0 0 1 3.61-.16c0-1.8 0-3.61-.07-5.41-.09-6.87-.4-24.67-.34-24.89-1.28-.12-2.69.21-4.25-.23 0 .2.26 14 .24 20.61a.46.46 0 0 1-.85.23C91.66 41 85.45 26.67 85.41 26a10.33 10.33 0 0 1-2.91-.16c.21 3.19-.1 24-.22 31.19.74-.17 3.21-.68 3.69-.78.31-1.44.22-12.42.29-16.25a.48.48 0 0 1 .88-.22z" fill="#e45c4c"/><path d="M128.31 21.31c-4 0-8 .07-12.07.05a.32.32 0 0 0-.5.26v1H115a.32.32 0 0 0-.51.26c-.06 11.74.09 23.48.2 35.21a.35.35 0 0 0 .34.34c1.87-.06 3.73-.1 5.6-.12a.37.37 0 0 0 .36-.37v-.91h.86a.36.36 0 0 0 .36-.36c.13-3.68.25-12.44.22-13.14.56 0 3.17.07 4 .05a.37.37 0 0 0 .37-.37v-.87h.9a.37.37 0 0 0 .36-.37c0-2.07-.07-4.15-.11-6.22a.38.38 0 0 0-.37-.37c-1.82-.64-5.66-.49-5.74-.51 0-.23-.17-4.68-.19-5.16h5.07a.37.37 0 0 0 .36-.37v-.88h.92a.37.37 0 0 0 .36-.37c.12-2.13.24-4.25.35-6.38a.4.4 0 0 0-.4-.4z" fill="#1e1e1e"/><path d="M116.41 21.89c.09 3.08.28 31.26.7 34.36h4.41c-.09-.7.24-10.12.37-14.08a14.2 14.2 0 0 1 5.48-.5c0-.17-.07-2.44-.08-3.3a11.16 11.16 0 0 0 0-2.31c-.33-.08-4.17-.37-5.72-.51a.37.37 0 0 1-.36-.37q-.16-3.54-.31-7.08a.37.37 0 0 1 .37-.36 60.32 60.32 0 0 0 6.44 0c0-.07.13-4.59.21-5.68-.4.12-9.5-.14-11.51-.17z" fill="#e45c4c"/><path d="M136.34 25.39a.33.33 0 0 0-.42-.32 22.35 22.35 0 0 0-3.25.58.34.34 0 0 0-.5.3v.75l-.77.2a.34.34 0 0 0-.5.3c.19 10.26.46 20.52.73 30.78a.36.36 0 0 0 .35.36c1.25.11 2.5.25 3.76.37a.36.36 0 0 0 .36-.37v-1l.92.09a.36.36 0 0 0 .36-.37c-.38-10.54-.71-21.06-1.04-31.67z" fill="#1e1e1e"/><path d="M135.72 26.35a3.73 3.73 0 0 0 0-.58 21.27 21.27 0 0 1-2.85.41c.15 5 .31 25.14.72 30.19v.12a23.82 23.82 0 0 0 3 .26c.3-1.54-1.03-28.32-.87-30.4z" fill="#e45c4c"/><path d="M155.89 44.4c-.64-2.21-2.69-3.59-4.64-4.56-2.32-1.16-4.09-1.67-5.35-4.2a5.39 5.39 0 0 1-.5-3.38 3 3 0 0 1 1.35.09 2.61 2.61 0 0 1 1.77 2.31.38.38 0 0 0 .38.28c1.42-.09 2.83-.28 4.24-.38a.37.37 0 0 0 .52-.39 7.85 7.85 0 0 0-.19-.77l.92-.09a.37.37 0 0 0 .52-.39c-.58-3.09-3.29-7.66-6.82-7.76-2.36-.07-4.84 1.48-6.54 3.46a10.43 10.43 0 0 0-3.06 4.28c-1.59 4.68 2.69 9.15 6.25 11.57 1.68 1.13 3.89 2 3.72 4.43a5.63 5.63 0 0 1-.43 1.72c-1.65.53-2.39-2.55-2.71-3.76a.41.41 0 0 0-.49-.28 17.21 17.21 0 0 0-4.1.94.38.38 0 0 0-.2.35v.52a6.05 6.05 0 0 0-1.06.38.38.38 0 0 0-.2.35c0 2.79 1.6 7.37 4 9 2.84 1.88 7.84-.21 10-3a7.21 7.21 0 0 0 2.06-2.55 13.86 13.86 0 0 0 .56-8.17z" fill="#1e1e1e"/><path d="M142 50.93c.54 1.81 1.41 4.49 3.25 5.41 2.46 1.25 6.73-.79 8.43-2.66s1.9-5.44 1.62-8c-.32-2.8-2.57-4.27-4.92-5.38-3-1.39-5.62-3.08-6-6.75a3 3 0 0 1 5-2.52 7.26 7.26 0 0 1 1 1.88 18.05 18.05 0 0 0 3.72-.15c-.6-2.39-2.2-5.32-4.39-6.45-2.56-1.32-5.58.61-7.36 2.44a6.76 6.76 0 0 0-.71 9.24c1.9 2.69 4.31 4.09 6.86 6a4.39 4.39 0 0 1 1.2 6c-1.45 2.45-3.53 1.48-4.51-.76a9.35 9.35 0 0 1-.45-1.85c-.19-.07-3.42.77-3.45.77.08.22.51 2.05.71 2.78z" fill="#e45c4c"/><path d="M175.68 25.69a.41.41 0 0 0-.4-.39h-5.66a.4.4 0 0 0-.39.39v.86h-.86a.4.4 0 0 0-.39.39v9.11c-.57 0-3.95.32-4 .32-.07-1.06-.17-8.16-.23-10.63a.38.38 0 0 0-.39-.39h-4.12a.34.34 0 0 0-.57.23v1H158a.34.34 0 0 0-.57.23c-.07 10.44-.16 20.91.05 31.34a.34.34 0 0 0 .34.34c1.41 0 2.82-.12 4.22-.12a.32.32 0 0 0 .32-.31v-.92h.93a.32.32 0 0 0 .32-.31c.06-2.85 0-10.63 0-11.66l4.25-.14c.2 1.43.19 10 .85 12.6a.33.33 0 0 0 .32.25c1.83-.12 3.67-.18 5.5-.24a.39.39 0 0 0 .38-.38v-.84h.87a.39.39 0 0 0 .38-.38c0-10.11-.3-20.24-.48-30.35z" fill="#1e1e1e"/><path d="M170.52 56c0-.08 4.86-.21 4.85-.26-.46-1.56-.07-4.18-.1-5.79l-.28-17.52c0-1.94-.07-6.19-.08-6.34A37.74 37.74 0 0 1 170 26v10.41a.4.4 0 0 1-.39.39l-6 .35a.4.4 0 0 1-.4-.4c-.06-2.84-.21-10.61-.2-10.65-1.21-.09-2.45-.22-3.67-.28v8.24c0 7.47-.33 15 0 22.49h.08c.9-.07 3.41 0 3.5 0s-.23-3.49-.08-12.91a.36.36 0 0 1 .35-.35c2.06-.06 4.12-.14 6.18-.21a.38.38 0 0 1 .35.27c.59 2.25.63 10.14.71 11.57a7.22 7.22 0 0 0 .09 1.08z" fill="#e45c4c"/><path d="M194.44 50.21a.43.43 0 0 0-.43-.43 58 58 0 0 0-7.22.33 42.16 42.16 0 0 0 .21-4.4l5.34-.86a.44.44 0 0 0 .32-.42v-.69l.89-.14a.44.44 0 0 0 .32-.42l.33-5.4a.43.43 0 0 0-.43-.42c-1.8.06-7.07.29-7.13.29-.05-.59.25-3.52.26-4.33a12.73 12.73 0 0 0 4.28-.44.41.41 0 0 0 .31-.4v-.61a5 5 0 0 0 .95-.24.41.41 0 0 0 .31-.4q-.06-3-.13-6a.43.43 0 0 0-.42-.43l-12.06.74a.44.44 0 0 0-.43.43v.77l-.81.05a.44.44 0 0 0-.43.43q-.21 15.4-.41 30.82a.43.43 0 0 0 .43.43c2.43-.15 12.09-.43 14.27-1a.4.4 0 0 0 .3-.3 6.5 6.5 0 0 0 .15-.79 7.08 7.08 0 0 0 .8-.16.4.4 0 0 0 .3-.3c.47-1.73.14-3.92.13-5.71z" fill="#1e1e1e"/><path d="M193.64 50.62l-7.31.39a.43.43 0 0 1-.43-.43l.3-6.3a.35.35 0 0 1 .31-.4L192 43a7 7 0 0 0 1.1-.16c.25-.78.1-3.86.23-4.28a.86.86 0 0 0 .06-.38c-.54 0-5.28.25-7.08.31a.43.43 0 0 1-.43-.42l.2-6.5a.44.44 0 0 1 .43-.43 23.3 23.3 0 0 1 5.44-.23 28 28 0 0 1-.14-5.24c-.56.42-4.18.26-5.86.37s-5.37.4-5.36.43a10 10 0 0 1 0 2.83c0 1.41-.38 26.36-.36 27 .37-.06 12.93-.64 13.37-.85-.35-1.01.2-3.54.04-4.83z" fill="#e45c4c"/><path d="M218.12 53.92L214 47.55c-1.37-2.11-3.38-4.43-4.35-6.72a2 2 0 0 1 .27-.43 11 11 0 0 0 .82-.76l.54-.59a8 8 0 0 0 .71-.66 14.85 14.85 0 0 0 2.55-3.31 9.6 9.6 0 0 0-.15-7.87c-2.51-5.51-10.68-3.45-14.62-.93-.69.44-1.36.78-1.64 1.49a2.65 2.65 0 0 0-1.29 1.33 13.27 13.27 0 0 0 0 3.45l-.09 14.18-.06 10.4a.45.45 0 0 0 .56.43l3.67-.6a.44.44 0 0 0 .32-.43v-.67l.93-.15a.44.44 0 0 0 .32-.43v-9.7l5.8 8.06c.53.73 1.23 2.32 2.13 2.61s2.26-.15 3-.21l3.07-.2a.45.45 0 0 0 .38-.67l-.33-.5 1.2-.08a.45.45 0 0 0 .38-.67zm-13-23c2.71-.5 3.16 2.56 2.09 4.49a5 5 0 0 1-4 0 5.42 5.42 0 0 1-.11-2.12v-1.57a6.3 6.3 0 0 1 2.06-.83z" fill="#1e1e1e"/><path d="M202.39 41c2.43 3.37 9.26 12.93 9.41 13.09a22.84 22.84 0 0 0 5.17-.33c-2-3.49-7.25-10.41-8.22-12.68a.43.43 0 0 1 0-.55c.72-1.74 3.15-3.26 4.23-4.76 2.8-3.86 1.28-10-3.65-11a12.72 12.72 0 0 0-8.82 2 7.5 7.5 0 0 0-1.57 1c-.2 1.09-.16 21.35-.2 27.5.57-.09 2.46-.35 2.8-.45a24.52 24.52 0 0 0 0-4v-9.66a.44.44 0 0 1 .85-.16zm.2-10.41a6.44 6.44 0 0 1 2.29-1.38 4.43 4.43 0 0 1 3.21-.37c2.89 1 2.07 5.47.1 7a5.59 5.59 0 0 1-5.45.24.35.35 0 0 1-.13-.14c-.54-.72-.3-2.26-.28-3.09-.01-.67-.16-1.7.26-2.25z" fill="#e45c4c"/></svg>