<svg xmlns="http://www.w3.org/2000/svg" viewBox="0 0 82 82"><path d="M75.1 75.07v-3.94c-.17-13.94-.73-60.39-.59-63.7L6.89 7c.9 4.7.12 67.55.12 67.55z" fill="#e45c4c"/><path fill="#f7e563" d="M69.06 68.37l-56.65-.44.07-54.09 56.02.24.56 54.29z"/><path d="M75.54 75.07c-.25-19.7-.74-64.8-.63-67.64a.45.45 0 0 0-.45-.43L16 6.59c-1.92 0-7.87-.22-8.77 0-.54 0-.85.28-.8.56a54.75 54.75 0 0 1 .35 8.78c.1 5.44-.18 56.07-.21 58.64A.45.45 0 0 0 7 75h22.5c18 0 45.46.45 45.59.45.45.06.45-.25.45-.38zm-68.09-1c.17-.43.21-20.24.25-26.62.07-12.36-.2-39-.31-40 10.57 0 66.26.47 66.62.43a2.43 2.43 0 0 1 0 .51c-.5 4.75.62 63.64.65 66.22-11.66-.01-55.58-.97-67.21-.5z" fill="#1e1e1e"/><path d="M68.94 14.08c0-.18 0-.45-.45-.44-7.1 0-56.07-.37-56.19-.37a.45.45 0 0 0-.43.56c.41 2.29.13 52 .1 54.1a.44.44 0 0 0 .44.44c7.1 0 56.54.44 56.65.44a.44.44 0 0 0 .44-.44c-.12-10.11-.86-46.37-.56-54.29zm-56.07 53.4c.19-.43.67-50.89-.07-53.32 0 0 54.35.44 55.24.37-.17 5.44.32 33.69.43 42.35 0 1.68-.32 9.37.17 10.91.04.11-54.79-.34-55.77-.31z" fill="#1e1e1e"/><path d="M40.43 50.33a.41.41 0 0 0-.4-.4h-8.09c-.14-2.4.09-4.89.12-7.28.09-6.57.1-13.14.16-19.71a.46.46 0 0 0-.69-.39 53.31 53.31 0 0 0-7.14.85.36.36 0 0 0-.27.36l.06.9c-.43.08-.86.15-1.29.25a.36.36 0 0 0-.27.35c.91 11.28.65 22.73.68 34.05a.4.4 0 0 0 .39.39H39.4a.4.4 0 0 0 .39-.39c0-.3 0-.59-.07-.89h.93a.39.39 0 0 0 .39-.39c-.21-2.53-.41-5.11-.61-7.7z" fill="#1e1e1e"/><path d="M40.22 57.69a9.53 9.53 0 0 1-.09-1.19c-.1-1.24-.44-5.74-.44-5.8-.64-.07-6.13.1-8.18.11a.45.45 0 0 1-.45-.44c0-9 .14-18 .22-27-1.19.1-5.62-.23-6.41.87-.25.37.08 2 .1 2.43.21 4 1.24 29.82 1.06 30.49.27-.02 12.26.54 14.19.53z" fill="#e45c4c"/><path d="M39.68 50.61c0-.2-.15-.12 0 0z" fill="#e45c4c"/><path d="M58 22.35c-4 0-8 .07-12.07 0a.32.32 0 0 0-.5.26v1h-.75a.32.32 0 0 0-.51.26c-.06 11.74.09 23.48.2 35.21a.35.35 0 0 0 .34.34c1.87-.05 3.73-.1 5.6-.12a.37.37 0 0 0 .36-.37v-.91h.86a.36.36 0 0 0 .36-.36c.13-3.67.25-12.44.22-13.13.56 0 3.17.06 4 0a.38.38 0 0 0 .37-.37v-.87h.9a.36.36 0 0 0 .36-.36c0-2.08-.07-4.15-.11-6.23a.36.36 0 0 0-.37-.36c-1.82-.64-5.66-.5-5.74-.52 0-.22-.17-4.68-.19-5.16h5.07a.37.37 0 0 0 .36-.37v-.88h.84a.37.37 0 0 0 .36-.37q.18-3.18.35-6.38a.4.4 0 0 0-.31-.31z" fill="#1e1e1e"/><path d="M46.14 22.94c.09 3.07.28 31.25.7 34.36h4.41c-.09-.7.24-10.12.37-14.07a14.15 14.15 0 0 1 5.48-.51c0-.17-.07-2.44-.08-3.29a11.25 11.25 0 0 0 0-2.32c-.33-.07-4.17-.36-5.72-.51a.37.37 0 0 1-.36-.36q-.16-3.55-.31-7.09a.38.38 0 0 1 .37-.36 57.81 57.81 0 0 0 6.44 0c0-.07.13-4.59.21-5.68-.4.11-9.5-.11-11.51-.17z" fill="#e45c4c"/></svg>