<svg xmlns="http://www.w3.org/2000/svg" viewBox="0 0 200 390"><path d="M119.94 356c.18 1.9.35 3.69.47 5.06l7.67-.46c0-.94.1-2.62.15-4.6z" fill="#fff"/><path d="M127.78 356c0 1.54-.08 3.07-.15 4.6 0 .58.87.58.9 0 .07-1.53.11-3.06.15-4.6zM119.43 356a26.76 26.76 0 0 0 .71 5.13.28.28 0 0 0 .54-.07 24.1 24.1 0 0 0-.28-5.06z" fill="#1e1e1e"/><path d="M119.94 356c.18 1.9.35 3.69.47 5.06l3.15-.19c-.35-1.6-.6-3.23-.8-4.87z" fill="#1e1e1e" opacity=".15"/><path d="M73.46 356.35v1.82l7 3.2c.18-1.65.34-3.33.49-5z" fill="#fff"/><path d="M80.42 356.35c-.14 1.67-.3 3.35-.47 5-.07.58.83.58.9 0 .18-1.67.34-3.35.49-5z" fill="#1e1e1e"/><path d="M78.73 356.35c-.07 1.79-.14 3.35-.2 4.25l1.87.77c.18-1.65.34-3.33.49-5z" fill="#1e1e1e" opacity=".15"/><path d="M128.51 357.74s.36 3.11 1.5 4c1.34 1 13.29 4.19 13.72 7.67.45 1 2.38 5.79-4.31 5.44-1.9 1.06-18.08-5.08-18.62-5.76-2-2.54-.17-9.77-.17-9.77l3.57 1.23-.12-2.17s3.84-1.19 4.43-.64z" fill="#525252"/><path d="M120.17 366.54c3.42 3.19 12.9 5.68 14.41 6 7 1.32 8.44.21 9.77-1.22.08.43.78 4.69-7.73 3.34-2.69-.12-16-4.88-16.05-5.82-.01-.32-.36-1.84-.4-2.3z" fill="#fff"/><path d="M140.72 365.8c-2.35-1.08-4.81-1.91-7.21-2.87-1-.39-4.29-1.15-4.67-5.28-.22-1.22-3.68-.06-4.88.3a.45.45 0 0 0-.32.42c0 .52 0 1.05.08 1.57a19.89 19.89 0 0 1-2.86-1 .47.47 0 0 0-.67.27c-.52 2.55-1.32 6.73-.23 9.22 1.2 2.85 15.27 7.29 21.34 6.69 5.7-.59 3.22-7.58-.58-9.32zm1 8.49c-6.24 1.26-18.14-4-19.65-5-2.49-1.59-1.64-6.67-1.1-9.4a23.6 23.6 0 0 0 3.11 1 .45.45 0 0 0 .57-.43c-.06-.54-.11-1.81-.11-1.85a13.3 13.3 0 0 1 3.66-.74c.15 1.38.48 3.1 1.55 4a12.57 12.57 0 0 0 3.56 1.65c2.16.87 8.07 2.52 9.37 4.58s2.02 5.59-.96 6.19z" fill="#1e1e1e"/><path d="M143.89 371.35c-3.47 3.13-8.91.76-12.82-.36-3.67-1.05-7.75-2.06-10.62-4.71-.39-.36-1 .22-.58.58 3.34 3.08 8.39 4.21 12.66 5.36 3.79 1 8.59 2.77 11.83-.4.31-.3-.15-.76-.47-.47zM132.46 363a22.1 22.1 0 0 0-3 2.31.45.45 0 1 0 .72.54c.33-.49 2.36-1.94 2.69-2.42a.31.31 0 0 0-.43-.43zM130.75 362.46c-1 .93-2 1.82-3 2.7-.46.4.21 1 .66.66a24.91 24.91 0 0 0 2.89-2.83.37.37 0 0 0-.53-.53zM129.75 361.64a26.25 26.25 0 0 0-2.76 2.08c-.53.27 0 1.08.47.79a25.86 25.86 0 0 0 2.54-2.21c.34-.21.16-.81-.25-.66zM129.08 361.12c-.26-.47-1.82.71-2.28.88-1.07-.06-.67 1.23-.17 1.07a6 6 0 0 0 2.45-1.95zM128.83 359.66c-.54-.12-3.72.7-3.17 1.58.38.53 2.84-.8 3.24-1a.32.32 0 0 0-.07-.58z" fill="#1e1e1e"/><path d="M135.39 361.62c-.27-.67-2.35-1-2.52-1 .38-.44 1.09-3.48-1.75-2.29-2 1.35-1.84 2.81-1.64 3 .62.48 2.93.11 3.3.14 2-.14 2.83 1.49-.9.67a.38.38 0 0 0-.21.74c.78.25 4.44.51 3.72-1.26zm-3-2.32c.2.64-1.05 1.85-2.63 1.45.67-1.53 2.41-2.25 2.67-1.45z" fill="#1e1e1e"/><path d="M126.44 357.77l-2.36.6s0 1.67.12 2.17a18.83 18.83 0 0 1-3.57-1.23 66.38 66.38 0 0 0-.38 8.32c0 2.35 13.2 6.44 13.2 6.44s-12.45-5.35-7.01-16.3z" fill="#1e1e1e" opacity=".3"/><path d="M73.71 357.74s-.35 3.11-1.5 4c-1.34 1-13.29 4.19-13.72 7.67-.45 1-2.38 5.79 4.31 5.44 1.9 1.06 18.08-5.08 18.62-5.76 2-2.54.17-9.77.17-9.77L78 360.54l.12-2.17s-3.81-1.18-4.41-.63z" fill="#525252"/><path d="M82.05 366.54c-3.42 3.19-12.9 5.68-14.4 6-7 1.32-8.44.21-9.78-1.22-.08.43-.67 9.52 23.78-2.48.01-.32.35-1.84.4-2.3z" fill="#fff"/><path d="M60.93 375.1c6.06.6 19.12-3.63 21.33-6.69 1-2.53.29-6.67-.23-9.22a.47.47 0 0 0-.67-.27 20.21 20.21 0 0 1-2.85 1c0-.52.06-1.05.07-1.57a.44.44 0 0 0-.32-.42c-1.19-.36-4.42-1.59-4.88-.3-.2 1.3 0 4-4.67 5.28-2.4 1-4.86 1.79-7.21 2.87-3.8 1.76-6.32 8.75-.57 9.32zm-1.38-6.88a5.8 5.8 0 0 1 2.89-2c2.13-.91 9.1-3.4 10-4.21s1.41-2.66 1.55-4a13.3 13.3 0 0 1 3.67.74s-.06 1.31-.11 1.85c0 .3.3.49.56.43a23.6 23.6 0 0 0 3.11-1c.54 2.73 1.39 7.81-1.09 9.4-1.51 1-13.2 6.12-19.66 5-2.96-.68-2.32-4.3-.92-6.21z" fill="#1e1e1e"/><path d="M58.33 371.35c3.47 3.13 8.91.76 12.82-.36 3.67-1.05 7.75-2.06 10.62-4.71.39-.36 1 .22.58.58-3.34 3.08-8.39 4.21-12.66 5.36-3.79 1-8.59 2.77-11.83-.4-.31-.3.15-.76.47-.47zM69.76 363a22.1 22.1 0 0 1 3 2.31.45.45 0 1 1-.72.54c-.33-.49-2.36-1.94-2.69-2.42a.31.31 0 0 1 .43-.43zM71.47 362.46c1 .93 2 1.82 3 2.7.46.4-.2 1-.66.66a24.91 24.91 0 0 1-2.87-2.82.37.37 0 0 1 .53-.53zM72.47 361.64a26.25 26.25 0 0 1 2.76 2.08c.53.27 0 1.08-.47.79a25.86 25.86 0 0 1-2.57-2.21c-.31-.21-.13-.81.28-.66zM73.14 361.12c.18-.88 1.82.71 2.28.88 1.21 0 .68 1.23.17 1.07a6.24 6.24 0 0 1-2.45-1.95zM73.4 359.66a7 7 0 0 1 3.09 1 .51.51 0 0 1 .07.61c-.38.53-2.83-.8-3.24-1a.32.32 0 0 1 .08-.58z" fill="#1e1e1e"/><path d="M71 358.25c-.79-.39-3.27.12-1.63 2.34-.78-.08-2.25.36-2.52 1-.72 1.77 2.94 1.51 3.72 1.2a.38.38 0 0 0-.2-.74c-1.64.85-4.57-.35-.91-.67.37 0 2.88.26 3.5-.22.16-.9-.96-2.43-1.96-2.91zm-1.19 1.05c.26-.8 1.78-.61 2.63 1.45-1.6.31-2.85-.81-2.65-1.45z" fill="#1e1e1e"/><path d="M75.78 357.77l2.36.6s0 1.67-.12 2.17a18.6 18.6 0 0 0 3.57-1.23 66.38 66.38 0 0 1 .38 8.32c0 2.35-13.2 6.44-13.2 6.44s12.47-5.35 7.01-16.3z" fill="#1e1e1e" opacity=".3"/><path d="M139.28 233.14s-1.15-6.54-2.11-10.92l-8.87.25c.3 3.43 0 22.11-.46 25.4-.24 2 1.7 7.15 3.5.44.31.46-.2 9 1.52 9.52s2-1.39 2-1.39c2.27 5 3.78-1.46 3.78-1.46 1.81-.71 3-3.49 3.07-5.35.83-8.29-2.01-13.81-2.43-16.49z" fill="#d7936d"/><path d="M130.91 248.19c-.25.83-.75 3.34-1.7 3.15-.15 0-.43 1.1-.13 1.14 1.14.15 1.83-1.28 2.24-2.55v-2a.42.42 0 0 0-.41.26zM141.12 238.34c-.91-3.4-1.61-6.82-2.29-10.26l-.76.45-.23.13c.32 1.37.67 2.74.91 4 .68 3.72 2 7.14 2.3 10.94a43 43 0 0 1 .19 6 7.8 7.8 0 0 1-.83 3.06c-.22.43-.89 1.95-1.61 1.56a3.21 3.21 0 0 0 0 1 .46.46 0 0 0 .63 0 8.18 8.18 0 0 0 2.7-6.47 38.82 38.82 0 0 0-1.01-10.41z" fill="#1e1e1e"/><path d="M138.27 243.75a30.41 30.41 0 0 1 .29 9.75 14.4 14.4 0 0 1-.65 2.42c-.21.56-1.45 3.71-2.44.9-.19-.51-1-.29-.83.23 1 2.89 3 1.63 3.85-.49a20.05 20.05 0 0 0 .28-12.94.26.26 0 0 0-.5.13z" fill="#1e1e1e"/><path d="M135.37 242.72c0 4.27.82 8.8-.64 12.94-.6 1.71-2.1 2.59-2.62 0a20.26 20.26 0 0 1 0-4 35.6 35.6 0 0 0-1.38-10.53c-.15-.49-.92-.28-.77.21a34.38 34.38 0 0 1 1.33 9c.07 1.8-.18 3.64 0 5.43.18 1.57 1.36 3.47 3.05 2.13s1.78-4.81 1.93-6.78c.18-2.55.56-6-.45-8.44-.1-.25-.51-.25-.51.07z" fill="#1e1e1e"/><path d="M123.32 159c-.35-.81-15.32-14.1-4.72 26.69 4.08 15.72 8.46 25.74 8.93 47.65 3.71.12 8.51-.89 11.44-3.17A172.86 172.86 0 0 0 123.32 159z" fill="#e45c4c"/><path d="M136 208.69a155.65 155.65 0 0 1-5.73-21.9c-.6-2.89-3.09-8.45-.92-11.12a2.59 2.59 0 0 1 .45-.43c-2.78-8.2-5.38-13.75-6.45-16.2-.35-.81-1.2-2.43-1.2-2.43-14.12 9.83 4.94 54.86 5.41 76.77 3.71.12 8.51-.89 11.44-3.17-.05-5.44-.34-10.64-.81-15.58-.73-1.99-1.5-3.96-2.19-5.94z" fill="#1e1e1e" opacity=".2"/><path d="M138.74 223.83c.38 2.26-.06 4.08.23 6.38-2.93 2.28-7.73 3.29-11.44 3.17-.24-2.18.11-4.84-.14-6.88 3.86.64 7.77-1.21 11.35-2.67z" fill="#af2f25"/><path d="M139.38 227.4c0-1.22-.07-2.44-.13-3.67a179.87 179.87 0 0 0-2.67-23.83 170 170 0 0 0-9.58-33.33 88.89 88.89 0 0 0-4.57-10.15c-.24-.43-.88 0-.65.38 5.88 11.47 9.86 24.25 12.61 36.79a176.64 176.64 0 0 1 4.05 33.35c0 1.53.26 2.63-.9 3.67a10.58 10.58 0 0 1-4.07 1.62v1a18.88 18.88 0 0 0 3.56-1.27c.68-.33 2.07-.87 2.38-1.65a9.9 9.9 0 0 0-.03-2.91z" fill="#1e1e1e"/><path d="M138.58 223.56c-3.26 1.59-7.06 2.92-10.72 2.58-.55 0-.56.83 0 .86a16.92 16.92 0 0 0 6.24-.84 15.21 15.21 0 0 0 4.86-2.11c.3-.24-.08-.64-.38-.49zM123.11 158.34s4.47 10.71 4.59 10.3c2.3-7.84-2.51-12.35-4.59-10.3z" fill="#1e1e1e"/><path d="M74.12 84.92s37.73 3.8 42.09 0c4.79-18.33-30.58-38.54-42.09 0z" fill="#2d2b28"/><path d="M72.52 256.67c-.64 33.28-.48 66.57-.12 99.87 3.58 2.73 9.64 1.28 9.88-.54.73-5.6 3.93-35.34 4.69-42.58 1.33-12.62 2.67-31.08 3.85-47.21-2.38-1.05-14.52-7.54-18.3-9.54zM108.86 265.56c.3 2.85 6.17 49.94 7.72 61.78 1.09 8.3 1.28 28.36 2 28.87 4.84 3.55 11.55-.78 11.58-1.77.25-7.85-1.18-61.61-4.87-102.72-2.19 1.79-12.81 11.28-16.43 13.84z" fill="#4069aa"/><path d="M90.25 266c-.75 10.57-1.41 21.14-2.29 31.69-1.08 13-2.78 26-4.26 38.93-.36 3.11-1.13 15.59-1.76 18.55-.38 1.78-1.76 2.18-3.42 2.39s-4.76.17-5.51-1.49-.28-10.64-.3-13c-.26-28.72-.31-57.45.22-86.17l-.87-.47c-.33 16.74-.44 33.48-.43 50.22 0 15.63.13 31.27.29 46.9 0 2.57-.47 3.41 2.11 4.39a9.74 9.74 0 0 0 6.33.11 3.31 3.31 0 0 0 2.35-1.92c.78-2.17.58-5.23.79-7.53 1.14-12.8 3-25.51 4.25-38.29.94-9.55 1.67-19.12 2.39-28.69q.58-7.59 1.13-15.2zM130 324.37c-.64-18-1.52-36-2.77-53.93-.45-6.38-.91-12.77-1.47-19.16l-1 .83c1.64 18.09 2.66 36.23 3.49 54.37.67 14.86 1.43 46.26 1.37 47-.13 1.61-1.63 2.24-3.08 2.82-2 .77-6.8 1.58-7.73-1-.51-1.38-1.16-23.64-2.42-33-1.55-11.34-3.14-22.68-4.59-34-1-7.69-1.72-15.4-2.55-23.1l-.87.61c.29 2.77.55 5.54.82 8.31 1.71 18.24 5 36.27 7 54.47.91 8.38.77 16.83 1.46 25.23.22 2.7 1 3.69 4 4.12 2.35.33 8-.61 8.87-3.43.47-1.03-.28-23.58-.53-30.14z" fill="#1e1e1e"/><g opacity=".2" fill="#1e1e1e"><path d="M72.66 256.74c-.25 10.7-.42 19-.42 19 20.81 1.08 7.36 67.66 7.16 82.08 1.6-.34 2.78-1.06 2.88-1.84.73-5.6 7.36-73.66 8.54-89.79-2.38-1.03-14.44-7.47-18.16-9.45zM108.86 265.56c.3 2.85 6.17 49.94 7.72 61.78 1.09 8.3 1.28 28.36 2 28.87a7.27 7.27 0 0 0 4.77 1.36c.37-4.19-14.89-84.05 3.79-80.26-.54-6-1.39-15.35-2.36-25.17-2.01 1.66-12.3 10.86-15.92 13.42z"/></g><path d="M103.76 138.16a59.63 59.63 0 0 1 3-16.34c2.42-6.69 10.88-15.37 9.21-27.42C113.5 77.31 96.68 66.34 95.45 58c-2.25 12.83-20.21 18.29-20.21 42.66.27 7.11 7 14.47 9.38 21.16a60.39 60.39 0 0 1 3 16.34c2.82 9.84 15.71 7.01 16.14 0z" fill="#f6a87b"/><path d="M102.55 69c-2.75-3.32-5.64-6.76-6.68-11a.44.44 0 0 0-.84 0c-1.9 7.84-9 13.68-13.15 20.36-4.3 6.89-7.76 14.48-7.1 22.74.59 7.34 6 13.13 8.84 19.65a44.12 44.12 0 0 1 3.13 12.55c.93 15.9 13.7 13 16.32 8 1.2-2.22 1.3-7.57 1.92-11.19a40.22 40.22 0 0 1 3.66-11.42c3.26-6.37 7.67-11.92 8-19.33.35-7.85-2.83-18.58-14.1-30.36zm10.15 40.81c-1.7 3.19-3.7 6.19-5.27 9.44-5.35 11.33-2.54 15.2-5.19 21.51-2.11 3.7-6.83 4.35-10.39 2.34-4.58-2.59-3.76-8-4.46-12.48-1.65-10.57-4.28-12.54-9.72-23.05-4.47-9.64-.59-19.57 4.58-28.06 4-6.63 10.78-12.41 13.21-19.92 2.05 6 7.28 10.49 10.86 15.52 14.22 17.22 9.79 27.12 6.38 34.65z" fill="#1e1e1e"/><path d="M92.13 98.92a3.27 3.27 0 0 0 3.45 3.31 3.12 3.12 0 0 0 2.14-.81 4.31 4.31 0 0 0 1-2.65c.07-.35-.44-.63-.61-.26a5.74 5.74 0 0 0-.34 1.43 2 2 0 0 1-1.86 1.57c-1.83.19-2.89-1-3.19-2.67 0-.33-.57-.24-.57.08zM99.35 77.93c3-.74 5.69-1.57 8.7-.45.53.2.11-3.48-8.91 0a.28.28 0 0 0 .21.5zM83.24 77.35a12.31 12.31 0 0 1 7.31.93c.49.26.92-.47.44-.74a10.1 10.1 0 0 0-7.83-.77c-.29.11-.29.63.08.58zM84.74 108.26c4.51-.11 9-.67 13.51-.58 2.81.06 5.63.28 8.43.53.57.05.58-.86 0-.89-7.35-.36-14.7-1-22 .31-.36.06-.27.63.08.63zM91.85 111.33c1.6 1.4 5 1.19 6.75.13a.42.42 0 0 0-.43-.73 7.35 7.35 0 0 1-6 .09c-.28-.12-.52.32-.3.51z" fill="#1e1e1e"/><path d="M116.8 81.14v-.08l.06.08zM109 52.68l-.15-.07c.22.03.27.05.15.07z" fill="#6e8828"/><path d="M140.23 105.5c.84-11.21-2.76-40.7-5.71-41 4.14-1.61 2.43-23-7.07-19.53 0 0-11.72-36.55-32.63-27.78 0 0-5.94-3.46-14.77 2.61 0 0-9.24 2-16.78 12.27-5.89-1.54-12.74 15-7.13 17.93 0 0-3 10.44-3 13.82 0 0-3.25.61-4.39 9s-.43 10.3 1.78 11.49c0 0-1.15 15 .25 20.79-3.3.39-5.71 15.69 1.25 22-.37 3.65 1.93 10.43 1.64 11.25-1.68 1.7-1.68 19.91 3.61 19.91 0 0 3.59 17.36 4.1 25.56 0 0-.47 68.57 11 76.76 0 0 16.54-1.48 19.21 11.23 6.73 3.77 16.14 0 16.14 0s.33-13.35 17.93-11.38c0 0 10.86-21.36 7.16-44.93-4.45-22.89-12.48-34.1-12.48-34.1 3.88-4.51 2.47-11.94-1.15-13.56 0 0-.18-7.85 5.14-10.35 5.4 1.44 3.5 11.09 3.5 11.09l1.49 4.41.74-9.67c1.85 2.93 9.29-12.28 2.37-14.33l6.06-23.31c6.59.06 6.68-20.78 1.74-20.18zm-24.89.27c-.53 2.33-5.35 11.66-10 13.25-3.81.85-7.62 1.94-11.52 1.84-8-.2-14-5.9-16.36-13.5a27.48 27.48 0 0 1-1.06-6.18c-.51-7.32-.75-14.76 2.15-21.5a26.65 26.65 0 0 1 3.15-5.61 18.83 18.83 0 0 1 21.46-5.82c2.44 1 3.65 2.14 5.57 3.92a20 20 0 0 1 3.83 5.6c2.68 5.18 3.62 10.66 4 16.49a40.76 40.76 0 0 1-1.22 11.51z" fill="#6e8828"/><path d="M99.68 249.57a196.24 196.24 0 0 1-26.26 4.92c-1.62.21-3.25.26-4.88.31 1.1 2.74 2.37 4.77 3.83 5.81 0 0 16.54-1.48 19.21 11.23 6.73 3.77 16.14 0 16.14 0s.33-13.35 17.93-11.38a85.81 85.81 0 0 0 7.56-27.55c-11.51 7.09-20.51 12.97-33.53 16.66z" fill="#556d1a" opacity=".6"/><g opacity=".72" fill="#556d1a"><path d="M125.72 220.14a2 2 0 0 0-2.71 1 11.13 11.13 0 0 0-.49 2.52 16.49 16.49 0 0 1-1.06 2.87c-.59 1.3-1.11 2.41-2.67 2.71a11.88 11.88 0 0 1-3.09-.12 1 1 0 0 0-.49 1.81l.25.1a1.22 1.22 0 0 0 .13.46c1.6 2.74 5.58 2 7.7.39a10 10 0 0 0 3.68-8.69c-.08-1.01-.24-2.5-1.25-3.05zM109.75 196.61c-.6 3-2.2 6-5.3 6.9a11.09 11.09 0 0 1-4.93.21 7.46 7.46 0 0 1-4.1-2.45c-.12-.2-.23-.4-.33-.61-.82-1.63-3.21-.2-2.44 1.43a11 11 0 0 0 11.41 6.17 10.12 10.12 0 0 0 6-3.85c1.61-2 1.87-4.61 2.38-7 .38-1.81-2.31-2.57-2.69-.8zM74.63 139.55c-.11.82-.21 1.64-.3 2.47a5.59 5.59 0 0 0-.18 4.29 1.11 1.11 0 0 0 .51.59 4.89 4.89 0 0 0 1 1.67c1.62 1.82 3.82 1.47 5.91.75a5.19 5.19 0 0 0 3.12-1.3c.94-.83 0-2.62-1.25-2.16-.63.25-1.52.69-2.44 1-2-.22-3.49-3.64-3.86-5.3a1.22 1.22 0 0 0-.33-.64c0-.48.06-1 .07-1.4-.05-1.43-2.07-1.33-2.25.03zM61.22 151.5a3.28 3.28 0 0 0-.17-.5c-.65-1.48-2.84-.2-2.18 1.28a3.87 3.87 0 0 1 .13 2.42 23 23 0 0 0-1.43 4.24.85.85 0 0 0 .14.7 6 6 0 0 0 .34 2.63 1.24 1.24 0 0 0 2.37 0 37 37 0 0 0 1.29-4.6c.29-1.59.18-3.21.49-4.79a1.1 1.1 0 0 0-.98-1.38zM119.28 184.73a37.21 37.21 0 0 1 4 6.49c.77 1.52 2.89.18 2.24-1.32a27.87 27.87 0 0 0-4.2-6.6 1.12 1.12 0 0 0-.58-1.16 1.55 1.55 0 0 0-2 .32 2.92 2.92 0 0 1-3.4-1.49c-.48-.85-.57-1.78-1.1-2.61s-2-.31-1.64.69c.73 2 .7 3.85 2.71 5.1a5.13 5.13 0 0 0 3.97.58zM86.37 239.37a8.61 8.61 0 0 0-1.3 3.88 1.12 1.12 0 0 0 1 1.12 6.72 6.72 0 0 1-2.22 3.57 5.47 5.47 0 0 1-7.28-.24c-.64-.54-1.91-.25-1.83.75a1.33 1.33 0 0 0 .69 1.2 7.34 7.34 0 0 0 9.36.86c3.65-2.37 4.65-6.76 4-10.82a1.34 1.34 0 0 0-2.42-.32zM119.53 149.9c2.56.36 4.46-1.31 6-3.1.75-.86.13-2.45-1.06-2.25a1.32 1.32 0 0 0-1.5-.21 6.08 6.08 0 0 1-6.5-.57 1 1 0 0 0-1.19-.12 1.07 1.07 0 0 0-1.32 1.5c1.13 2.29 2.93 4.37 5.57 4.75zM109.08 120a1.14 1.14 0 0 0-1.15-2 24.34 24.34 0 0 1-9.54 2.71c-2.72.19-5.57-.71-8.21-.23-.77.15-.61 1.2 0 1.42.36.13.72.25 1.08.35a.87.87 0 0 0 .48.6c5.26 2.66 12.89.41 17.34-2.85zM58.65 126.78l.19-.24a1 1 0 0 0 .21-.75c1.14-2 2-4.55.06-6.08a15.7 15.7 0 0 0-.22-2.37c-.12-.69-1-.5-1.22 0-.8 1.91-.1 8.69-3.72 7.44a1.23 1.23 0 0 0-1.38 1.79l.11.18a19.34 19.34 0 0 0-.21 3v.62a6.39 6.39 0 0 0 .34 1.54 1.24 1.24 0 0 0 2.42-.33c0-1.64.45-2.17 1.7-3.11a9.09 9.09 0 0 0 1.7-1.75zM54.31 85.63a9.76 9.76 0 0 0 2.95-3.37c.45-.81-.31-2.08-1.31-1.7-.79.3-1.25.94-2 1.29-.9.45-1.9-.29-2.86-.22a1 1 0 0 0-.51.18l-.21-.11a1 1 0 0 0-1 1.65 8.8 8.8 0 0 0 2.22 1.09 2.4 2.4 0 0 0-.64.5c-1.18 1.36-1.31 3.83-1.33 5.52a1.24 1.24 0 0 0 2.48 0 11.35 11.35 0 0 1 .39-3c.36-1.1.92-1.18 1.82-1.83zM55.88 50.59a9.53 9.53 0 0 0-.69 4.24c0 .89 1.42 1.44 1.83.5.62-1.47.62-3.29 1.4-4.62a6.72 6.72 0 0 0 2.11-1.83 4.08 4.08 0 0 0 1.23-1.72c0-.08.07-.16.11-.25.47-1.21-1.32-1.77-2-.83-.08.11-.17.22-.25.34-1.54 1.06-3.53 0-3.07-1.94.23-1-1.12-2-1.86-1.08a5.49 5.49 0 0 0 .81 7 2.54 2.54 0 0 0 .38.19zM72.15 48.79c-.75-1-2.86-.46-2.27 1l.12.3a15.44 15.44 0 0 0 .78 1.58c.8 2.74 2.34 5.25 5.07 6.44a5.58 5.58 0 0 0 3.85.3c2.51-.35 4.64-3.9 5.88-5.88a1.29 1.29 0 0 0-2.23-1.31 6 6 0 0 1-4.61 2.92c-2.74-.47-4.87-3.03-6.59-5.35zM137.43 73.46a3.43 3.43 0 0 0-.06-.34.17.17 0 0 1 0-.05 19.8 19.8 0 0 0-2.26-6.94 10.36 10.36 0 0 1 .54-3.37 1.27 1.27 0 0 0-1.84-1.41A15.57 15.57 0 0 0 131 63.9c-1.45 1.55-2.88 1.56-4.86 1.56-1.15 0-1.48 1.86-.28 2.06a13.28 13.28 0 0 0 2.36.21 1.09 1.09 0 0 0 .77.47c3.26.56 4.8 2.65 5.84 5.61.49 1.28 2.79 1.19 2.6-.35zm-4.87-7.63v.23a1.21 1.21 0 0 0-.06.43l-.46-.17zM69.26 32.86l.24-.57a1.14 1.14 0 0 0 .09-.54A10.66 10.66 0 0 1 71 28.9c1.39-1.28 2.61-2.8 3.95-4.16 1.09-.93 2.2-1.78 3.19-2.52a1.14 1.14 0 0 0-1.16-2 14.9 14.9 0 0 0-3.32 2.57 27.54 27.54 0 0 0-4.49 4.54 10.39 10.39 0 0 0-1.5 2.15.78.78 0 0 0-.08.51 9.72 9.72 0 0 0-.59 1.92c-.26 1.28 1.68 2.31 2.26.95zM82.79 214.06a5.21 5.21 0 0 1-1.32-.85c-.85-.74-1.38-2-2.51-2.28a1 1 0 0 0-1.14.46l-.09.16a.85.85 0 0 0 .3 1.15c.51.23 1.13 1.61 1.54 2.05a8.41 8.41 0 0 0 1.1 1 .53.53 0 0 0 .06.1 5 5 0 0 0 4.45 1.15 5.87 5.87 0 0 0 2.35-.83 1.31 1.31 0 0 0-1.32-2.25 4.08 4.08 0 0 1-3.42.14zM70 214.14c.94-8.58 3.54-16.47 6.09-24.66a.89.89 0 0 0-1.61-.68c-3.86 7.43-5.71 16.18-6.7 24.44a89.53 89.53 0 0 0-.61 13.1c.1 4.19.17 8.84 1.36 12.87a1 1 0 0 0 2-.27c-.16-4.21-1-8.37-1.1-12.6a90.42 90.42 0 0 1 .57-12.2z"/></g><path d="M62.42 88.39v-.34.37z" fill="#6e8828"/><path d="M69.14 32.22c4.78-5.3 9.43-13 16.71-14.95 2.64-.7 5.69-1.16 8.18.24 2.22 1.25 3.52 4.06 4.71 6.27a53.82 53.82 0 0 1 5.46 15.42c.11.57 1 .33.87-.24a54.59 54.59 0 0 0-6.42-17.14c-1.13-1.93-2.14-4-4.19-5a9.42 9.42 0 0 0-6-.81c-4.86.68-8.24 2.86-11.54 6.34a84.69 84.69 0 0 0-8.17 9.58c-.17.24.22.55.42.32z" fill="#1e1e1e"/><path d="M95.17 20.93c1.94-.47 3.93-.86 5.82-1.48a.38.38 0 0 0-.2-.73c-2 .43-3.86 1.11-5.76 1.69a.27.27 0 0 0 .14.52zM97 25.6c1.7-.32 3.4-.49 5.1-.75.46-.07.35-.83-.11-.81a25.88 25.88 0 0 0-5.17.88c-.45.11-.26.77.18.68zM97.53 29.52a13 13 0 0 1 6.17-1c.58 0 .56-.84 0-.9a12 12 0 0 0-6.51 1.32c-.4.2 0 .77.34.59zM80.81 18.81a35.84 35.84 0 0 0-17.9 13c-.32.43.4.85.72.42A38 38 0 0 1 81 19.47c.4-.15.25-.79-.18-.66z" fill="#1e1e1e"/><path d="M63 31.69c-3.83-.23-5.95 3.1-7.36 6.2S52.44 45 53.93 48.3A3.76 3.76 0 0 0 58 50.53c2.3-.34 3-2.45 3.56-4.49a.38.38 0 0 0-.74-.21c-.46 1.59-.92 3.49-2.71 3.9-2.11.48-3.5-1.06-3.84-3-.5-2.82.84-5.93 2-8.45 1.32-2.9 3.13-5.9 6.69-5.89a.35.35 0 0 0 0-.7zM78.46 37.71c3.45-.44 7.93-.45 7.7 4.25a13.23 13.23 0 0 1-1 4.21 9.38 9.38 0 0 0-.9 2.39c0 .45.73.56.8.11.3-1.86 1.51-3.53 1.8-5.47a7.75 7.75 0 0 0-.24-4.27c-1.32-2.77-5.85-2.68-8.27-1.78-.28.1-.27.6.07.56zM101.86 48.62a82.3 82.3 0 0 0-.19 11.43.36.36 0 0 0 .72 0c.18-3.78.12-7.64.07-11.43a.3.3 0 0 0-.6 0z" fill="#1e1e1e"/><path d="M100.6 53.55c1.26-.12 2.55-.23 3.81-.46.46-.08.36-.87-.12-.83-1.27.1-2.54.34-3.79.56a.37.37 0 0 0 .1.73zM100.78 56.31c1.36 0 2.7.17 4 .27.47 0 .58-.75.11-.82a20.66 20.66 0 0 0-4.16-.13.34.34 0 0 0 0 .68zM73 40.17c-2.27 3.75-5.14 8.76-2 12.83 2.27 3 6.71 5.84 10 2.59.42-.42-.25-1.09-.66-.65-3.1 3.34-8.51-.79-9.65-4.18s1.51-7.33 3-10.27a.33.33 0 0 0-.58-.33zM55.94 49.85c-1.8 3.9-2.6 9.51-3.23 13.74-.07.5.69.72.77.21.63-4.35 1.94-9.5 2.89-13.77.05-.25-.31-.44-.43-.18z" fill="#1e1e1e"/><path d="M57.66 76.45c1.09-3.83 1.72-8.17-.84-11.52-1.77-2.33-4.92-1.86-6.43.58-1.27 2-1.58 4.87-2 7.18a25.25 25.25 0 0 0-.59 8c.35 2.67 3.09 5.88 5.68 3.3a.39.39 0 0 0-.55-.56c-1.38 1.73-3.8-.11-4.28-2.43a9.65 9.65 0 0 1-.17-1.85 27.58 27.58 0 0 1 .4-4.89c.42-2.54.74-6.53 2.4-8.58 1.16-1.41 3.09-2 4.59-.67a7.41 7.41 0 0 1 1.59 2.71c.9 2.61.1 6-.5 8.54a.38.38 0 0 0 .73.21z" fill="#1e1e1e"/><path d="M50.26 84.57a61.85 61.85 0 0 0 .18 20.63c.06.36.68.28.65-.09a121.19 121.19 0 0 1-.26-20.34c.03-.33-.57-.2-.57-.2z" fill="#1e1e1e"/><path d="M52.77 104.35c-4.06-.5-5.24 4.08-5.53 7.22-.44 4.67-.08 9.77 2.62 13.76 2.07 3.07 5.26 3.82 8.24 1.4 1.44-1.17 2.13-2.17 2-4-.24-3.12-.82-6.25-1.21-9.36a.34.34 0 1 0-.68.09q.38 2.76.73 5.53c.23 1.75.83 3.71.17 5.36a5.29 5.29 0 0 1-4.71 3.16c-2.41 0-3.77-1.92-4.77-3.88-2.12-4.15-4.18-18.51 3.14-18.72a.28.28 0 0 0 0-.55zM57 158.29a43.86 43.86 0 0 0 1.24 6.26c.49 2.6.89 5.2 1.26 7.82 1 7.15 1.78 14.33 2.58 21.51.06.49.85.5.79 0-.82-7-1.57-14.07-2.55-21.08-.37-2.64-.78-5.28-1.28-7.9-.4-2.17-.65-4.73-1.62-6.72a.22.22 0 0 0-.42.11z" fill="#1e1e1e"/><path d="M51.81 127.44c-.7 3.63 1.13 7.34 1.44 10.94 0 .5.83.51.78 0a33.11 33.11 0 0 0-.83-4.53 62.35 62.35 0 0 1-1-6.35c0-.23-.39-.34-.44-.06zM76.82 135.68a12.76 12.76 0 0 0-2.53 9.71c.09.47.81.27.72-.2-.59-3.24.85-6.34 2.2-9.21.11-.23-.2-.53-.39-.3zM76.12 148.6c.38.43.81 1.06 1.39 1.22a1.73 1.73 0 0 0 1.55-.5.34.34 0 0 0-.33-.57c-.39.12-.81.49-1.22.25a9.36 9.36 0 0 1-1-.84.31.31 0 0 0-.44.44zM81.59 132.41c2.2.49 4.33 1.59 5.29 3.76s-.37 4.31-.85 6.38a.39.39 0 0 0 .75.21c.88-2.47 2-5 .6-7.47a7.15 7.15 0 0 0-5.71-3.49.31.31 0 0 0-.08.61zM98 120.88c3 8.12 1.64 16.27 2 24.69 0 .49.79.49.77 0-.43-8.31 1.4-17.09-2.22-24.93-.15-.33-.71-.1-.59.24z" fill="#1e1e1e"/><path d="M98.36 138.3a9.77 9.77 0 0 0 4-1.13c.4-.23.14-.93-.33-.77a34.47 34.47 0 0 1-3.73 1.2.36.36 0 0 0 .1.7zM97.78 135.31c1.49-.34 3-.74 4.44-1.11a.44.44 0 0 0-.23-.85c-1.47.43-2.94.84-4.38 1.31a.34.34 0 0 0 .17.65zM98.33 127.5a14.42 14.42 0 0 0 2.78-.38.39.39 0 0 0-.1-.76 14.58 14.58 0 0 0-2.78.41.37.37 0 0 0 .1.73zM96.82 124.33c1.54 0 3.07-.16 4.6-.25.56 0 .54-.93 0-.87-1.56.17-3.13.27-4.68.53-.34.05-.25.59.08.59zM78.7 211.36c.38 1.67 1.85 2.5 3.42 2.89a9.55 9.55 0 0 0 2.91.34 16.14 16.14 0 0 0 2.74-.86c.44-.11.36-.87-.11-.82a2.89 2.89 0 0 0-1.07.29 5.58 5.58 0 0 1-3 .45c-1.82-.22-3.52-.75-4.34-2.54-.16-.35-.67-.1-.59.25zM98.82 162c-.31 6.19-.6 12.92.49 19.05 1 5.87 5.28 10.89 4.94 17 0 .48.72.48.75 0 .31-5.66-3.2-10.27-4.6-15.55-1.72-6.51-.9-13.85-1-20.52a.29.29 0 0 0-.57 0z" fill="#1e1e1e"/><path d="M102.69 193a25.53 25.53 0 0 0 3.38-.65c.35-.12.31-.7-.1-.68a25.78 25.78 0 0 0-3.47.63c-.46.09-.26.78.19.7zM103.33 194.89a9.4 9.4 0 0 1 1.75-.29 6.94 6.94 0 0 0 1.51-.11.39.39 0 0 0 0-.74c-1-.33-2.47.16-3.45.45a.36.36 0 0 0 .19.69zM92.38 194c2-6.94 8.8-11.06 15.76-7.77.5.23.94-.51.44-.75-6.87-3.23-15.78.47-16.76 8.45 0 .33.47.37.56.07zM98.08 179.09a5.69 5.69 0 0 0 3.06.07.38.38 0 0 0-.1-.75 11.41 11.41 0 0 0-1.43.07h-1.44a.32.32 0 0 0-.09.63zM94.67 173.69a35.14 35.14 0 0 0 7.1-.65c.43-.1.32-.73-.11-.75a35.36 35.36 0 0 0-7.08.77c-.36.06-.27.64.09.63zM97.32 171.61a13.61 13.61 0 0 0 3-.9c.4-.2.11-.74-.28-.67a8.27 8.27 0 0 0-1.52.52c-.46.17-.92.34-1.37.54-.29.13-.08.57.22.51zM116.45 167.55c4.91.28 6.61 5.44 5.66 9.65-.44 1.92-1.51 4.35-3.71 4.74-3.76.68-4.68-4.28-4.75-6.85a.42.42 0 0 0-.83 0c.07 2.53.81 6.6 3.6 7.59 2.38.84 4.64-.89 5.68-2.91 2.45-4.77.81-12.93-5.65-12.89a.34.34 0 0 0 0 .67zM93.15 200.74c1.28 4.33 7 5.65 11 5.22 4.63-.51 6.72-5.08 6.4-9.28 0-.55-.9-.56-.86 0 .32 4.13-1.77 8.33-6.35 8.49-3.87.14-7.85-1-9.7-4.64a.27.27 0 0 0-.49.21zM72.21 241.92c-.45-3.17-.67-6.18 2.4-8.07a9.35 9.35 0 0 1 8.53-.71c.45.19.84-.46.39-.67a10 10 0 0 0-9.81 1.09c-2.85 2.1-2.92 5.33-2 8.49a.25.25 0 0 0 .48-.13zM74 249.48a7.47 7.47 0 0 0 9.9 1.35c3.77-2.57 4-6.87 2.93-10.93a.44.44 0 0 0-.85.23c1 3.62 1 7.34-2.27 9.82-3 2.3-6.68 1.51-9.31-.87a.28.28 0 0 0-.4.4zM112.23 243.27c1.37 2.87 1.27 4.85 4.78 5.58 2.66.56 5.36.11 7-2.25.34-.5-.46-.95-.8-.47-1.56 2.2-5 2.6-7.34 1.51-2.09-.95-2-3-3.13-4.65a.27.27 0 0 0-.47.28zM98.86 266.67a7.28 7.28 0 0 0 4.81-.35c.4-.21.11-.79-.29-.7A11.57 11.57 0 0 1 99 266c-.41-.06-.6.54-.18.64zM99.76 264.18c1.57-.36 3.44.32 4.8-.74.4-.32-.11-.83-.5-.66-1.45.64-3 .24-4.47.75a.34.34 0 0 0 .17.65zM101.53 253.55a10.05 10.05 0 0 0 5.49-.8c.39-.18.11-.87-.3-.7a11 11 0 0 1-5.19.85c-.42 0-.4.6 0 .65zM98 181.49a6.62 6.62 0 0 0 3.44-.69c.37-.21.11-.88-.3-.71a7.8 7.8 0 0 1-3.14.73.34.34 0 0 0 0 .67z" fill="#1e1e1e"/><path d="M120.07 181.59a80.07 80.07 0 0 1 9.43 21c4.88 16.15 5.1 33.53-.91 49.41-.88 2.33-1.79 5.38-3.29 7.4-.6.79.19.42-.84.54-1.56.18-3.17-.05-4.75.17-4.31.6-8.5 2.6-10.61 6.58a10.16 10.16 0 0 0-1.29 3.74c0 1 .17.93-.86 1.24a29 29 0 0 1-10.42 1.23c-2-.17-4-.26-4.72-2.23a14.92 14.92 0 0 0-1.57-3.62 13.43 13.43 0 0 0-5.47-4.6 24.16 24.16 0 0 0-7.16-2c-1.45-.2-3.52.15-4.88-.3-1.77-.57-3.64-4.86-4.5-6.63A33.92 33.92 0 0 1 64.45 238a.46.46 0 0 0-.91 0 35.88 35.88 0 0 0 5.18 18.35c.68 1.17 2.08 4.09 3.48 4.65a5.45 5.45 0 0 0 1.76 0 25 25 0 0 1 10.77 2.42 12 12 0 0 1 5.12 4.7 19.51 19.51 0 0 1 1.27 3.6c.36 1 .51 1 1.75 1.38 4.82 1.52 10.59.74 15.31-.89a.47.47 0 0 0 .33-.43c1.09-8.36 9-11.91 16.74-10.88a.43.43 0 0 0 .38-.22c12.19-23.41 10.29-50.88-1.78-73.91a52.19 52.19 0 0 0-3.26-5.54c-.22-.32-.74 0-.52.31zM128.14 169.22c.79-1.85.49-4.13.16-6.06-.29-1.67-.75-4.57-2.27-5.68-1.36-1-3.19.18-4.11 1.26-2 2.39-2.7 6-3.14 9-.07.52.7.75.79.22a25 25 0 0 1 2.08-7.31c.92-1.74 3.24-4 4.59-1.53a14.37 14.37 0 0 1 1.27 9.82c-.11.36.47.62.63.26zM122.14 49.79c1.93-2.56 4.46-4.91 7.91-4.81 3.83.11 4.7 4.29 5.45 7.32s1.87 7.32.17 10.17c-1.45 2.43-6.25 5.16-9 4-.56-.22-.8.68-.25.91 3.11 1.29 7.61-1.36 9.55-3.79 2.65-3.31 1.19-8.77.17-12.44-.88-3.22-1.92-6.82-5.79-7.09a9.4 9.4 0 0 0-8.74 5.39.3.3 0 0 0 .51.3z" fill="#1e1e1e"/><path d="M95 17.38c7.89-3.64 15.41 1.05 20.69 6.84s8.68 12.84 11.23 20.15c.2.57 1.12.33.92-.26-2.78-8.18-6.86-16.18-13.14-22.24-2.93-2.82-6.45-5.63-10.56-6.33-3-.51-6.85-.53-9.4 1.39a.26.26 0 0 0 .26.45zM134.86 64.86c4.89 17 5.63 34.29 4.36 51.83-.8 11-4.86 21.5-7.23 32.23a138.32 138.32 0 0 0-3.11 24.58c0 .55.83.54.86 0 .58-13.87 3.64-26.89 7.24-40.21 3.56-13.12 4.15-26.54 3.57-40.1-.42-9.58-1.6-19.49-5.05-28.51-.15-.39-.76-.24-.64.18z" fill="#1e1e1e"/><path d="M133 149.78c2.93 1.87 2 5.26 1.2 8-.46 1.59-1.36 5.51-3.52 5.48a.46.46 0 0 0 0 .91c3 .08 4.05-4.84 4.6-7 .74-2.83 1.29-6.73-2-8.07-.38-.15-.6.45-.27.65zM140 105.08c3 2.56 3.37 5.54 3.15 9.29-.18 3-.17 10.9-4.65 10.87a.47.47 0 0 0 0 .94c4.76 0 5-6.11 5.39-9.59.38-4 .92-10-3.59-11.9-.23-.09-.53.19-.3.39zM103.34 67.78a.35.35 0 0 0-.3 0 19.25 19.25 0 0 0-23.77 9.49c-2.81 5.45-3.63 11.41-3.54 17.49.08 5.66.31 11.52 3 16.63a18.79 18.79 0 0 0 9.13 8.61c5.2 2.19 10.62 1.1 15.91-.12 8.24-1.9 12.15-12.23 13.11-19.74 1.43-11.14-2-27.51-13.54-32.36zm3.51 49.86c-1.7 1.22-4 1.46-6 1.89a26.54 26.54 0 0 1-8.37.76 16.5 16.5 0 0 1-11.62-7c-2.94-4.15-3.81-8.93-4.11-13.92-.33-5.53-.4-11.2 1.19-16.56s4.73-10.55 9.89-13.24a18.76 18.76 0 0 1 15-1 .38.38 0 0 0 .18.15c9.83 4.16 12.92 16.91 13.17 26.56.16 7.8-2.56 17.5-9.33 22.36zM104.77 245.15c-.91 4.63-.92 9.44-1.78 14.1a88.9 88.9 0 0 1-3.76 13.69c-.15.42.51.6.66.19a86.2 86.2 0 0 0 3.92-14.1c.82-4.42 1.75-9.31 1.47-13.81 0-.28-.45-.38-.51-.07z" fill="#1e1e1e"/><path d="M103.17 248.21a.56.56 0 0 0 .6.3h.29l1-.16c.62-.1 1.23-.19 1.84-.34.39-.1.32-.77-.1-.73-.75.08-1.49.23-2.23.38-.49.09-1.3.09-1.64.51a.35.35 0 0 0 0 .39.49.49 0 0 0 .24.21.29.29 0 0 0 .34 0c.25-.2-.07-.58-.33-.43zM115.24 133.61c1.48-3 7.31-3.36 9.11-.53 1.33 2.1 1.34 5.21 1 7.59-.35 2.7-1.66 5.45-4.5 6.24s-5.45-.74-7.21-2.88c-.36-.44-1 .19-.61.62 2.08 2.58 5.51 4.21 8.79 2.85s4.52-5.21 4.52-8.58c0-2.87-.39-6.79-3.38-8.16-2.64-1.21-7.25-.28-8.35 2.6-.13.34.43.58.59.25zM57.89 138.54c.28-2.73-3.21-1.95-4.38-.61-2.59 3-1.63 8.72-1.14 12.25.32 2.3 1 8.19 4.26 8.5 3.08.3 2.88-5.75 3.09-7.47.06-.43-.63-.43-.68 0-.18 1.39-.27 2.82-.53 4.2s-.82 4.14-3.61 1.16c-1.27-1.36-1.54-4.73-1.78-6.45a42.66 42.66 0 0 1-.39-6.09 17.54 17.54 0 0 1 .17-2.71 8.86 8.86 0 0 1 .33-1.35c.48-1.81 3.33-3.25 4.18-1.37a.25.25 0 0 0 .48-.06zM119 212.36c-2.39.7-5.16 1.85-6.29 4.25-1.39 3-.19 7.25.19 10.34.07.52.89.54.84 0a52.38 52.38 0 0 1-.73-7.68c.17-3.74 3.19-5 6.19-6.19.44-.17.28-.87-.2-.72zM119.46 231.74c1.46 1.3 3.73-1.15 4.44-2.33 1.72-2.86 1.21-6.46.46-9.54-.13-.55-.9-.31-.82.22.32 2.14.81 4.25.43 6.41-.28 1.54-2 5.51-4.2 4.71a.32.32 0 0 0-.31.53z" fill="#1e1e1e"/><path d="M69 239.72c-.11-2.05-2.13-5-2.71-7.06L57 229.55c-.6 4.44-.89 5.88-.89 5.88-.2 2.7-1.9 8.58-1 16.63.19 1.85 1.5 5.13 3.5 5.12a20.45 20.45 0 0 0 1.57 2.82c1.22 1.23 2-.92 2.13-1.72 0 0 .57 1.9 2.26 1.21s.73-9.62.73-9.62c2.27 7.21 3.85 1.21 3.44-.73-.68-3.22.43-6.14.26-9.42z" fill="#f6a87b"/><path d="M58.14 256.62a.79.79 0 0 1-.27.16 23.37 23.37 0 0 1-1.41-2 8.16 8.16 0 0 1-1-3.48 58 58 0 0 1-.23-6c0-3.52 1-6.86 1.39-10.35.12-1.18.23-2.36.35-3.54h-.87c-.07.68-.15 1.37-.21 2.06-.28 2.79-.89 5.49-1.31 8.26a36.75 36.75 0 0 0 .08 10.42 7.9 7.9 0 0 0 3.22 5.5.43.43 0 0 0 .53-.07s-.26-.95-.27-.96zM66.73 232.58v-1.16h-.89v1.26a.28.28 0 0 0 0 .09.14.14 0 0 0 0 .07c.62 1.89 1.72 3.58 2.34 5.47.83 2.51 0 5.27-.12 7.83-.06 1.56.38 3.08.27 4.62 0 .39 0 1.32-.32 1.64-1 1.12-2-1.92-2.32-2.64a.48.48 0 0 0-.58-.29v1.22c.48 1.32 1.34 3.44 2.73 3.17 1-.2 1.27-1.9 1.36-2.73a9.12 9.12 0 0 0 0-2.09 34.85 34.85 0 0 1 .18-6.7c.3-3.95-1.49-6.14-2.65-9.76z" fill="#1e1e1e"/><path d="M66.2 223.89l-8.86.49c-.6 4.43-1.29 11.86-1.35 12.27 8.45.77 12 6.38 12.62 8.48.17-1.47 1.25-5.93-2.33-12.47 0 0-.1-5.33-.08-8.77z" fill="#1e1e1e" opacity=".15"/><path d="M57.51 245.81a20.18 20.18 0 0 0 1.3 12.82c1 2 3.2 3.34 3.91.28.12-.53-.69-.76-.82-.23-.91 3.55-3.27-2.66-3.43-3.27a30.78 30.78 0 0 1-.45-9.53.26.26 0 0 0-.51-.07z" fill="#1e1e1e"/><path d="M60.31 244.61c-.76 2.37-.16 5.56.18 8 .28 2.05.59 5.6 2.42 7 1.37 1.06 2.66 0 2.93-1.47.37-2-.26-4.18-.34-6.18a34.67 34.67 0 0 1 .57-9c.11-.5-.66-.72-.77-.22a36 36 0 0 0-.51 10.66c.11 1.29.64 3 .34 4.24-.59 2.45-1.95 1.42-2.61-.09-1.76-4-1.35-8.54-1.7-12.79a.26.26 0 0 0-.51-.07z" fill="#1e1e1e"/><path d="M75.08 187.19s3.74-19.15-4.37-29c0 0-.8 1.64-1.13 2.46A173.05 173.05 0 0 0 56 232.24c3 2.19 7.82 3.06 11.52 2.83-.16-21.91 2.16-37.58 7.56-47.88z" fill="#e45c4c"/><path d="M56 225.85c-.31 2.27.18 4.08 0 6.39 3 2.19 7.82 3.06 11.52 2.83.18-2.18-.25-4.83 0-6.87-3.89.8-7.86-1-11.52-2.35z" fill="#af2f25"/><path d="M70.71 158.18s-4.3 10.85-5.64 14.49c.83-1 1.78-2.94 4.08-2.87s3.21 14.11-.91 28.94a86.47 86.47 0 0 0-3.11 21.18 74.36 74.36 0 0 0 .73 15.14h1.66c-.16-21.91 2.93-40.59 7.56-47.88 1.75-3.18 2.06-21.58-4.37-29z" fill="#1e1e1e" opacity=".2"/><path d="M70.17 158.23a135.34 135.34 0 0 0-7.94 21.89 175.85 175.85 0 0 0-6.61 42q-.13 3.66-.12 7.33c0 1.54-.43 2.72.85 3.62 3.09 2.16 7.51 2.67 11.17 2.52a.48.48 0 0 0 .47-.48c-.11-15.73.09-33.55 7.54-47.87.26-.52-.52-1-.78-.46-3.62 7.09-5.34 15-6.36 22.81-.7 5.39-1 10.82-1.23 16.24 0 1.52-.08 3-.1 4.55 0 .9.43 3.74-.25 4.29s-3-.15-3.71-.25a17.94 17.94 0 0 1-5-1.44c-1.74-.83-1.66-1.69-1.66-3.53v-4.62c.06-2.95.19-5.91.4-8.85q.59-8.4 2-16.7a173 173 0 0 1 6-24.6 165 165 0 0 1 6-16c.2-.44-.43-.83-.65-.38z" fill="#1e1e1e"/><path d="M55.88 226.12a15.57 15.57 0 0 0 5.23 2 16.69 16.69 0 0 0 5.88.56c.56-.05.55-.93 0-.87-3.64.45-7.49-.77-10.79-2.26a.31.31 0 0 0-.32.54zM74.78 190.85a50.16 50.16 0 0 0 1.38-19.28c-.53-4.16-1.74-9.36-4.43-12.7-1.85-2.3-3.7-1.46-5 .87a18.28 18.28 0 0 0-2 12c.13.57 1 .33.89-.25a17.34 17.34 0 0 1 1.52-10.57c.66-1.39 1.68-3.29 3.36-2.07 1.28.94 2.11 3.27 2.64 4.65 3.36 8.62 3 18.31 1 27.22a.31.31 0 0 0 .59.16z" fill="#1e1e1e"/><path d="M70.71 158.18l-5.12 12.64c-2.27-.9.41-14.25 5.12-12.64z" fill="#1e1e1e"/><path d="M70.6 84.9c-.06 17.94 10.55 17 19.25 14.11.85-.8 4.88-11.32 2.73-14.67s-19.25-2.85-21.98.56z" fill="#fff"/><path d="M87 91.83s0-1.29-1-1.42a1.33 1.33 0 0 0-1.4.91 1.46 1.46 0 0 0 .27 1.59 1.28 1.28 0 0 0 1.57.23 1.25 1.25 0 0 0 .56-1.31z" fill="#1e1e1e"/><path d="M120 84.9c.44.91-1 12.91-4.38 14.55-5.19.57-19.87 6.73-17.59-15.11 2.18-3.34 20.69-2.18 21.97.56z" fill="#fff"/><path d="M116.91 82.79a34.73 34.73 0 0 0-15.09-1.07c-2.5.43-4 1.49-4.65 3.15a4.14 4.14 0 0 0-3.64 0 4.51 4.51 0 0 0-3-2.76c-5-1.67-11.81-.84-16.8.66a4.06 4.06 0 0 0-4.1 4.3c.32 3.39 4 12.25 4.93 12.91 2.17 1.61 11.36 1.72 14.31.46 4.66-1.53 5.14-12.78 5-14.11 1-.16 2-.56 2.93.1-.16 6.38 2.61 12.08 3.5 13 2.67 3.09 14.73 1.85 16.39-.1 1.1-1.28 3.74-9.18 4.16-11.37.56-2.96-.74-5.36-3.94-5.17zM89.85 97.56c-1.58 3.72-10.94 2.16-12.47 1.76a4.1 4.1 0 0 1-3.19-2.47C73.79 96 72 91 71.59 89.4c-1.71-5.48 2.31-5.53 2.38-5.6 4.41-.36 8.81-1.22 13.25-.8 1.88.18 4.44.48 5.07 2.58.91 3.92-1.63 10.27-2.44 11.98zm27.87-3.87c-1 2.68-1.34 4.89-4.46 5.63-1.43.33-10.53 2.29-12.41-1.61-.95-1.62-3.38-8.21-2.55-11.93.52-2.16 2.9-2.54 4.83-2.75 4.53-.48 16.53.09 16.53 3.3.11.92-1.43 5.95-1.94 7.36z" fill="#1e1e1e"/><path d="M106.17 91.76a1.57 1.57 0 0 0-1-1.31 1.28 1.28 0 0 0-1.57 1.36 1.21 1.21 0 0 0 .23 1 1.24 1.24 0 0 0 1.58.33 1.4 1.4 0 0 0 .76-1.38z" fill="#1e1e1e"/></svg>