<svg xmlns="http://www.w3.org/2000/svg" viewBox="0 0 270 340"><path d="M109.56 289.84q-.07 6.84-.07 13.67h7.77c.31-3.62.63-7.2 1-9.86.17-1.27.33-2.54.49-3.81zM154.38 289.84c.34 4 .61 9.09.85 13.67h8.71c.05-3.76.08-8.4.09-13.67z" fill="#f6a87b"/><path d="M110 289.84h-.91c0 3.76-.06 7.52-.06 11.28v2.39h.9v-4.39c.01-3.12.07-6.18.07-9.28zM118.22 289.84c-.37 3-.73 6-1 9-.15 1.55-.28 3.1-.41 4.65h1q.66-6.84 1.48-13.67zM163.51 289.84c0 4.56 0 9.11-.09 13.67h1q.06-5 .09-10v-3.65zM153.87 289.84c0 .37.07.73.1 1.1.33 4.19.54 8.38.76 12.57h1c-.25-4.56-.5-9.12-.87-13.67z" fill="#1e1e1e"/><path d="M163.79 302.45c0-2.95-.1-6.5-.2-10.52h-8.88c.23 3.41.42 7.14.6 10.52zM117.2 302.45c.33-3.81.66-7.65 1-10.52h-8.89l.12 10.52z" fill="#1e1e1e" opacity=".15"/><path d="M108 167.1c-1.94 46.09-.84 80.2-.33 126.69.83 3.11 12.16 2.17 11.31-1.62.73-5.61 1.17-18.52 1.89-24.12 2.83-16.89 6-83.21 7.43-85 .41-.5 8.85-.79 9.81.22 2.29 2.8 5.67 48.32 13.25 86.53 1.08 8.29 1.77 23.6 2.47 24.11 4.83 3.55 11.54-.78 11.58-1.77.33-10.55-3.3-91.75-10.51-125.26a.94.94 0 0 0-.93-.75H109a1 1 0 0 0-1 .97z" fill="#4069aa"/><path d="M165.84 283.69c-.15-5.84-.4-11.68-.68-17.51q-1.17-24.44-3.22-48.82c-1.31-15.26-2.77-30.6-5.52-45.68-.34-1.9-.72-3.78-1.13-5.66h-1.18c.49 2.9 1.3 5.81 1.79 8.7.69 4.05 1.27 8.11 1.8 12.18 2.45 18.77 3.93 37.67 5.14 56.56.95 14.6 1.8 29.23 2.06 43.86 0 1.28.48 3.7-.14 4.85-.93 1.71-4.8 2.48-6.42 2.49-1.18 0-3.59-.23-4.18-1.44a6.71 6.71 0 0 1-.3-1.94c-1.09-9.23-1.38-18.5-2.9-27.69-1.82-11-4.18-21.92-5.75-33-1.76-12.4-2.58-24.91-4.5-37.31-.31-2.05-.65-4.1-1-6.14a14.79 14.79 0 0 0-.87-3.73c-1-2.05-5-1.48-6.82-1.42-1.55 0-3.76-.3-4.34 1.4a27.15 27.15 0 0 0-.78 6c-1.85 19.77-2.59 39.64-4.39 59.42-.56 6.1-1.22 12.2-1.91 18.29-.4 3.49-.89 7-1.26 10.46-.4 3.75-.36 7.52-.55 11.28-.08 1.55.21 4.37-1.13 5.35a7.09 7.09 0 0 1-3.11.86 11.38 11.38 0 0 1-4.07-.23c-.6-.15-1.65-.33-2-.83-.6-.73-.27-2.52-.28-3.4q-.14-11.13-.29-22.26c-.37-27.3-.74-54.6 0-81.9.17-6.83.41-13.65.68-20.47h-.78c-1.12 24.23-1.33 48.49-1.13 72.74.1 12.19.29 24.37.46 36.56q.07 4.5.13 9l.06 4.86c0 1.34-.48 3.82.07 5.06.43 1 2.58 1.47 3.53 1.65a12.78 12.78 0 0 0 5.47-.17c4-1 3.31-4.1 3.46-7.76.29-6.68.91-13.21 1.68-19.86 1.17-10.26 2.18-20.53 3-30.83 1.28-16.53 1.88-33.15 3.62-49.64.1-.89 0-3.67.7-4.38.38-.37 2.6-.25 3.29-.27 1.45 0 4.12-.41 5.41.34 1.47.86 1.57 5.38 1.82 6.9.87 5.14 1.57 10.31 2.22 15.48 1.32 10.45 2 21 3.78 31.34 1.63 9.79 3.66 19.52 5.18 29.33 1.28 8.26 1.49 16.62 2.46 24.91.32 2.74 1 3.82 4.05 4.3 2.6.41 6.83-.47 8.58-2.69.74-.94.48-2.33.47-3.48-.18-1.85-.22-3.76-.28-5.66z" fill="#1e1e1e"/><g opacity=".2" fill="#1e1e1e"><path d="M108.06 166q-.82 19.14-1.2 38.28c.06-.61 3.34-32.31 7.18-30.34 8.35 4.29 32.61 1.54 37.3-1.34 3.24-2 7.52 27.61 8.2 29.54-1.31-14.48-2.89-27.39-4.79-36.14z"/><path d="M142.24 185.34c-2.8-6-15.09-5-17.18-1.54-.65 1.06-9.17 97.2-9.37 111.62 5-.58 3.3-7.69 3.88-12.83 4.8-39.72 7.33-97.91 8.75-99.65.41-.5 8.85-.79 9.81.21 2.73 5.74 5.76 49.52 13.25 86.53 1.84 26.61 1.7 25 7.23 25.48.39-4.16-15.61-108.1-16.37-109.82z"/></g><path d="M91.42 150.21l6-10.72s-1.1-.17-1.6-.28c0 0-23.63-16.19-24.82-19.25 3.22-1.68.18-7.57 3.3-12.3 1.94-3 .86-8.76-5.27 1.06-.83-2.17-8-14.18-9.42-13.06-2.16 1.67 3.71 9.17 4.17 12l-.86.29a27.43 27.43 0 0 0-5.37-8c-5.3-5-4.14.66-3.7 1.36s5.23 6.6 6.19 8.5l-1 1.08c-1.57-2.08-6.75-9.29-8.28-8-.9 2 5.42 9.8 6.17 10.71.61.74 4.75 11.83 9.52 12.76 0 0 15.63 15.14 22.91 22.25a19 19 0 0 0 2.06 1.6z" fill="#f6a87b"/><path d="M91.72 149.65a27.44 27.44 0 0 1-4.48-3.52c-3.79-3.69-17-16.57-19.9-19.31-1.09-1-3.79-.86-7.09-7.38-1.93-5.61-7.25-11.44-8.76-14.33-1.9-3.68 3-.54 7.31 6 .12.19 1.55-1.32 1.5-1.4-1.66-3.09-7.32-7.61-6.57-10.37 1.12-4.16 7.65 5.82 8.89 8.75.07.16 1.46-.33 1.44-.45-.5-2.35-4.7-8.61-4.65-10.36.07-2.54 1.64-.51 2.28.26a59.34 59.34 0 0 1 7.06 11.26c0 .33.49-.22.45-.25-1.53-3-6.75-13.6-9.43-13.22-3.86.55 4.2 10.81 3.64 12.15-.26.64-6-11.51-9.61-9.75-4.37 2.12 6.08 11.25 5.86 12 0 .08-.57.71-.68.56-2.49-3.53-6.59-8.54-8.16-7.79-2.45 1.16 4.35 9.1 5.86 11.32 1.72 2.5 4.46 11.22 9.68 12.92 1.71 1.9 15.92 15.43 21.52 20.9a18.83 18.83 0 0 0 3.47 2.69z" fill="#1e1e1e"/><path d="M58.8 112c.69-1 3.59-4 6.11-4 .5.09.61-.74.09-.79-2.76.06-6.09 3.19-6.64 4.57-.1.26.28.48.44.24zM66.32 119.92c-1.21-3.43-.76-7.2 2.73-9 .11-.07.26-.18.23-.32-.44-2.44 5.79-10 5.6-5.27-.07 1.87-2.09 3.76-2.54 5.69-.65 2.81 1 6.61-1.62 8.65a.53.53 0 0 0-.12.49c.46 2.22 22.43 18 24.67 19.21a6.38 6.38 0 0 0 1.85.55l.49-.71a6.58 6.58 0 0 1-1.85-.51c-1.88-1-22.51-15.92-23.67-17.88-.56-.94-.27-.75.28-1.69 1.57-2.69-.2-6 1.11-9 .6-1.41 3.87-5.67 1.17-7.07-1.6-.82-4.79 3.28-5.58 5a7.91 7.91 0 0 0-.36 2.18 7.7 7.7 0 0 0-2.91 10c.14.25.63.02.52-.32z" fill="#1e1e1e"/><path d="M167.86 164.89a55.82 55.82 0 0 1-8.16 3.73c.81 6.9 1.21 12.09.88 13-4.38 9.48-1.12 9.05-2.21 16.59.49 8.93 4.24.82 4.24.82-1.56 13.12 3.13 8.52 3.13 8.52.16.79 1.84 4 3.73-2.17 0 0 6.38.54 1.37-21.45-.43-1.17-1.6-9.2-2.98-19.04z" fill="#f6a87b"/><path d="M162.08 198.74c-3.23 6.53-3.33-.28-3.22-1.38.39-4-.93-7.82.61-11.65.73-1.83 1.55-3.36 1.5-5.34-.06-2.17-.13-4.35-.23-6.52-.08-1.81-.23-3.63-.43-5.44l-.75.26c.23 2.47.39 4.89.41 7.18 0 1.75.3 3.6.18 5.34-.16 2.22-1.67 4.15-2.17 6.31-.66 2.9.32 6 .18 9-.07 1.71-.4 3.24.33 4.87 1.59 3.54 3.52-.72 4.12-2.47.12-.35-.38-.48-.53-.16zM172.77 190.55c-.39-2.27-1.15-4.45-1.49-6.73-.69-4.53-1.24-9.08-2.22-13.55-.4-1.81-.71-3.64-1-5.49l-.66.35c.41 2.73.85 5.45 1.34 8.17.64 3.57 1.1 7.16 1.66 10.74.59 3.85 1.73 7.4 1.83 11.34.09 3.55.43 7.66-2.69 10.07-.45.35.18 1 .63.63 3-2.3 3-5.92 3-9.37a38.4 38.4 0 0 0-.4-6.16z" fill="#1e1e1e"/><path d="M169.94 194.39a20.2 20.2 0 0 1-.69 12.78c-.9 2.06-3 3.56-3.93.51-.15-.52.66-.74.83-.22.89 2.86 2.31-.41 2.49-.85a23.23 23.23 0 0 0 .8-12.15c-.06-.29.43-.35.5-.07z" fill="#1e1e1e"/><path d="M167.09 193.32c.92 2.46.6 13.18-2 15.15-1.52 1.12-2.72-.29-2.95-1.8-.28-1.9.9-10.91-.86-14.85a.4.4 0 0 1 .77-.21 35.49 35.49 0 0 1 1 10.58c-.82 7.62 1.77 5.83 2.44 4.11 1.61-4.1 1-8.64 1.13-12.91a.26.26 0 0 1 .51-.07z" fill="#1e1e1e"/><path d="M175.28 109.24c-3.66-7.93-7.23-16.1-8.41-24.83s.12-17.81.68-26.54c.93-14.29 2.36-32.11-8.33-43.43-4.7-5-11.36-8.11-18.26-7.08a.45.45 0 0 0-.12-.06 29.34 29.34 0 0 0-15.32-1c-9.82 2.1-14.92 10.3-17.86 19.3-3.73 11.41-2.17 22.69-.27 34.27 1.76 10.75 2.23 21.24-1.22 31.72a55.42 55.42 0 0 1-9.16 17c-.55.7-2.08 1.9-2.3 2.78-.31 1.2 1.84 1.89 2.74 2.31 5.17 2.42 11.19 3 16.82 3.29a159.74 159.74 0 0 0 22.73-.66q11.9-1.06 23.66-3.17c4.77-.85 9.75-1.62 14.34-3.23a.49.49 0 0 0 .28-.67z" fill="#2d2b28"/><path d="M108.78 163.6c-1.1 4.5-1.86 7.89-1.64 8.15 7.08 8.57 46.16 5.19 49.36-.67.42-.77.06-3.65-.61-7.48z" fill="#d2d2d2"/><path d="M155.69 163.6c.06.49.13 1 .19 1.49.19 1.57.67 3.66.3 5.24-.55 2.39-4.71 3.25-6.7 3.79a79.36 79.36 0 0 1-14.24 2 83.63 83.63 0 0 1-14.33-.11c-3.84-.39-8.17-1-11.51-3.1-1.34-.83-1.86-1.19-1.59-2.7.32-1.84.79-3.66 1.23-5.48.1-.39.2-.79.29-1.18h-1.11c-.29 1.23-.59 2.47-.87 3.71s-.93 2.86-.77 4.09c.31 2.34 4.47 3.65 6.37 4.23a50.1 50.1 0 0 0 13.51 1.8 92.21 92.21 0 0 0 15.22-1c3.84-.55 8.9-1.25 12.43-2.95 2.36-1.13 3.18-2.29 3.07-4.9-.07-1.67-.23-3.35-.44-5z" fill="#1e1e1e"/><path d="M152.4 122.58s-5.4-23.84-7.57-27.14c-.75-1.13-22.41-1.24-24.71.73-4.94 28.14 32.28 26.41 32.28 26.41z" fill="#fff"/><path d="M152.49 122.72s-.82-4.23-2.19-9.76c-1.25-.07-21.28-1.77-23.63-17.85-2.85.24-6 .64-6.7 1.19-3.33 26.42 32.52 26.42 32.52 26.42z" fill="#1e1e1e" opacity=".2"/><path d="M166.77 159.36c-2.66 1.19-5.36 2.33-8.19 2.15.86 5.44 1.92 18 2 20.69 2.45.27 2-8.35 8.72-7.5-.3-1.96-2.53-15.34-2.53-15.34zM89.69 135.28l-8.6-6.65c-1.71 1.17-2.66 7.41-10.59 1.67 4.23 4.42 10.4 10.86 14.91 15.6 1.29-3.59 2.79-7.1 4.28-10.62z" fill="#1e1e1e" opacity=".15"/><path d="M163.59 125.53c-1.27-6.66-2.62-13.88-5.37-20.09a31.88 31.88 0 0 0-8.9-11.91c1.72-3.61-3.89-5.29-3.89-5.29.52-1.39-12.86 22.5-13.46 21.92-3-2.83-13.09-21.29-12.57-20 0 0-9.31 1-5.06 8.63-3.33 3.17-5.49 8.41-6.26 10.35-4.56 11.49-5.13 16-12.18 27.9-.61 1-7.6-4.07-12.16-7.72-2.72 2.52-6.77 9.27-5.43 11.22 0 0 13.67 15.24 21.2 13.95 2.62-.44 7.25-6.38 11.42-13.25-2 5.85-4.84 14.75-5.28 20.62-.49 17.94 50 8.62 52 .58.38 3.1.77 6.36 1.19 9.85 3.71.09 8.49-1.18 11.39-3.48-2.29-17.42-3.37-25.97-6.64-43.28z" fill="#e45c4c"/><path d="M85.49 139.36a30.11 30.11 0 0 1 4.27-5.45c-2-1.43-4.21-3.1-6-4.55-2.72 2.52-6.77 9.27-5.43 11.22 0 0 1.84 2 4.53 4.58a31 31 0 0 1 2.63-5.8z" fill="#af2f25"/><path d="M110.89 140.43c-2.42 4-5 8.23-8.41 11.55-1.07 1.05-2.17 2.06-3.72 2.15-2 .12-4-.85-5.73-1.77a49.75 49.75 0 0 1-10.11-7.77c-1.31-1.24-4.45-3.34-4.39-5.34.06-2.28 1.8-4.8 3-6.6.39-.57 1.43-2.46 2.13-2.64.52-.12 7.25 5.4 9.41 6.64.7.4 1.93 1.27 2.8.95.68-.26 5.72-10.37 6.72-12.77 2.21-5.3 3.9-10.79 6.09-16.09 1.37-3.35 3.27-7.41 6.2-9.92a5.36 5.36 0 0 1-.77-.55c-5.35 4.48-7.73 13.87-9.79 19.57a108.08 108.08 0 0 1-6.8 15.42 25.72 25.72 0 0 1-1.32 2.35c-.58.84-.65 1-1.53.88a10.23 10.23 0 0 1-2.92-1.71c-2.68-1.77-5.23-3.73-7.74-5.73a.46.46 0 0 0-.63 0 22.91 22.91 0 0 0-5 7.28c-.59 1.38-1.32 3.19-.44 4.6.63 1 6.4 6.34 8.4 8 3.31 2.7 8 6.6 12.56 6.17 4.93-.46 11.25-11.66 12.33-13.41.32-.94-.03-1.77-.34-1.26z" fill="#1e1e1e"/><path d="M99.63 147.83c-3.35 2.77-11.58-1.92-15.72-1.69-.13 0 9.27 8.47 13.65 8.47 6.28 0 10-7.74 13.37-13.33 3.54-5.64.48-16.22.48-16.22-1.16 2.03-3.7 17.26-11.78 22.77z" fill="#1e1e1e" opacity=".25"/><path d="M89.57 133.61c-1.65 1-2.92 3-4 4.58a20.88 20.88 0 0 0-3 6.07.43.43 0 0 0 .83.23c1-3.86 3.73-7.65 6.58-10.38a.32.32 0 0 0-.39-.5z" fill="#1e1e1e"/><path d="M157.93 164.49c.31 2.5.62 5.1.95 7.84 3.71.09 8.49-1.18 11.39-3.48-.38-2.89-.64-4.77-1-7.25-3.39 2.21-7.2 2.71-11.34 2.89z" fill="#af2f25"/><path d="M155.45 133.91c-.48-4.71-.65-9.43-1.74-14a95.88 95.88 0 0 0-.94 10.48s4.07 22 6 38.71c4.98-11.57-2.69-28.95-3.32-35.19z" fill="#1e1e1e" opacity=".25"/><path d="M158.53 165.08a20.54 20.54 0 0 0 10.54-2.66c.51-.26.06-1-.45-.77a29.29 29.29 0 0 1-10.09 2.74.35.35 0 0 0 0 .69z" fill="#1e1e1e"/><path d="M131.1 110h2s-1.83 61.87-1.39 63.16l-1.88-.1z" fill="#d8d8d8"/><path d="M132.22 173.17c.05-.64-2.32-.7-2.38-.1s2.32.74 2.38.1zM132.56 110.06c.05-.64-1.32-.69-1.38-.1s1.33.75 1.38.1z" fill="#1e1e1e"/><path d="M156.62 164.07c-9 6-25.06 4.21-25.06 4.21-.3 1.64.34 3.56.4 5.23 2.9.38 22.56-.39 25.29-4.2.06-.11-.47-4.53-.63-5.24z" fill="#af2f25"/><path d="M157.63 168c-.14-1.55-.32-3.1-.54-4.64-.25.32-.53.62-.81.92.14 1.39.49 4.75.51 4.78-.29.22-6.9 3.06-10.06 3.41s-6.35.52-9.53.63a18 18 0 0 1-4.27 0c-.81-.19-.54 0-.7-.87a15.55 15.55 0 0 1-.34-4c0-.44-.62-.42-.67 0a27 27 0 0 0 .33 5.23.43.43 0 0 0 .41.41 51.64 51.64 0 0 0 9.22-.09 42.64 42.64 0 0 0 8.67-1c1.58-.44 7.05-2.47 7.6-3.16.41-.4.23-.94.18-1.62z" fill="#1e1e1e"/><path d="M129.84 169c-9.35 3.8-22.71-2.74-22.71-2.74-.38 1.76-.7 4.2-.7 4.2a35.83 35.83 0 0 0 23.85 3c-.34-1.86-.2-2.4-.44-4.46z" fill="#af2f25"/><path d="M130.72 173.38a37.79 37.79 0 0 1-.33-4.63 3.56 3.56 0 0 1-.9.39c0 .6 0 1.21.06 1.81 0 .39.44 1.92.12 2.3-.76.9-4 .57-5.09.56a48.36 48.36 0 0 1-9.85-.71c-2.66-.6-5-1.87-7.58-2.7a1.32 1.32 0 0 1-.35-.19c0-.25.13-.57.16-.72.15-1 .31-2 .47-3l-.65-.52c-.29 1.45-.5 2.92-.71 4.38a.38.38 0 0 0 .17.42c3 1.41 6.29 2.94 9.62 3.42a69.81 69.81 0 0 0 7.23.46 18 18 0 0 0 7.31-.74.48.48 0 0 0 .32-.53z" fill="#1e1e1e"/><path d="M110.43 118c.48 4.38.77 8.89 1.64 13.21a11.46 11.46 0 0 1-.21 6c-1.81 5.71-3.86 11.33-5.29 17.16-.7 2.84-1.6 6.11-1.37 9.07s2.31 4 4.76 4.91a36.19 36.19 0 0 0 20.32 1.34.46.46 0 0 0 .33-.44c-.4-13.73.24-27.39.83-41.1.15-3.52.28-7 .36-10.57 0-2 .08-4 .09-6a5.1 5.1 0 0 0-.15-2.31c-.38-.77-2.62-2.93-1.49-.29a6.43 6.43 0 0 1 .71 3.56q-.06 4.93-.23 9.87c-.2 6.08-.53 12.15-.8 18.23s-.48 12.31-.45 18.48c0 1.49.77 9.14 0 9.87s-2.89.48-3.8.55a39.48 39.48 0 0 1-4.35.09 37.7 37.7 0 0 1-8.58-1.21 19.26 19.26 0 0 1-4.16-1.54c-2.16-1.18-2.68-3.08-2.46-5.45.48-5.07 2-10.07 3.57-14.9 1.1-3.5 2.79-7.12 3.39-10.74a14.36 14.36 0 0 0-.37-5.31c-.77-4.1-1-8.32-1.58-12.46-.06-.42-.74-.44-.69 0z" fill="#1e1e1e"/><path d="M129.56 144.68a84.34 84.34 0 0 1-11 .57.4.4 0 0 0-.39.39 24.66 24.66 0 0 1-.94 4.75c-.72 2.28-2.18 3.6-4 5.06-.66.54-1.51 1-1.78 1.74-.18.51.34 1.8.42 2.32.16 1.06.29 2.12.38 3.19a50.87 50.87 0 0 1 .13 5.66.4.4 0 0 0 .79 0 49.53 49.53 0 0 0-.34-7.6c-.08-.64-.16-1.29-.28-1.92a8.83 8.83 0 0 1-.41-1.54c3.15-2.21 5.25-4.44 6.06-7.56.3-1.18.68-3.7.69-3.72.39 0 7.64 0 10.77-.59.42-.08.34-.81-.1-.75zM164.2 126.37c-2.27-12-4.9-25.26-14.65-33.15-.06.33-.14.65-.21 1 6.38 5.51 9.77 13.28 11.8 21.66 2.31 9.61 3.88 19.47 5.37 29.23.69 4.45 1.31 8.91 1.91 13.37.34 2.52.67 5 1 7.56.19 1.48.59 2.57-.89 3.42a17 17 0 0 1-4.17 1.69c-1.14.31-2.92.91-4.06.69-.73-.14-.48.26-1.06-.44-.16-.19-.8-6.62-1.1-9a5.5 5.5 0 0 0 .29-1.86 48.28 48.28 0 0 0-2.2-12.54c-.87-5.91-3.21-17.79-3.21-17.9.23-4.3 1-8.62 1.45-12.9.05-.45-.63-.43-.68 0-.84 6.36-2.17 12.95-1.25 19.37.81 5.63 2.92 11 4.08 16.53.55 2.59 1.76 6.68.67 9.44a11.06 11.06 0 0 1-.6 1.06c-1.47 1.9-5.53 2.66-7.75 3.22-5 1.28-10.64 2.06-15.83 1.28-1.64-.24-1.23-1.33-1.21-2.77 0-1.82.27-11.55.4-14.6.23-5.63.56-11.27.8-16.9.25-6 .38-12 .3-18.07 0-1.53 0-3.07-.09-4.6a5.16 5.16 0 0 1 0-1.88c.32-.87-.8-.66-1 0-.49 1.59.12 4.36.15 6.07v6.45c-.05 6.87-1.53 37.83-1.5 46.46a.44.44 0 0 0 .32.43c5.36 1.23 11.21.44 16.51-.73 3.08-.69 7.5-1.53 9.52-4.1q.54 4.24 1.06 8.49a.5.5 0 0 0 .48.49 19.6 19.6 0 0 0 11.63-3.57.47.47 0 0 0 .23-.4c-1.88-14.23-3.86-28.41-6.51-42.5z" fill="#1e1e1e"/><path d="M132 145.23c2-.17 9.56-1.32 9.9-.94-.3-.34.12 1.83.15 2a9.48 9.48 0 0 0 .79 2.24 10.25 10.25 0 0 0 2.77 3.37c.84.69 3.87 2.08 3.76 2.73-.59 3.79.11 8.31 1 12 .15.62 1.1.36 1-.27a53 53 0 0 1-1.13-9.56c0-.91.34-2.54-.25-3.31s-2.47-1.33-3.33-1.94a9.55 9.55 0 0 1-4-7.67.43.43 0 0 0-.41-.42 18.58 18.58 0 0 0-3.79.36c-2.14.22-4.27.44-6.41.68-.45.05-.47.76 0 .73z" fill="#1e1e1e"/><path d="M119.4 90.2c-6.59 5.19 2.34 8.5 3.37 9.65 1.16 1.3 7 7.62 7.8 8.82 0 0-5.81-8.65-6.43-9.9-2.43-5.55 4-14.2 4-14.2-2 0-12.27-.42-11.12 6.19-.02 0 2.52-.64 2.38-.56z" fill="#b34d41"/><path d="M131.41 109.46c-1.48-3.51-4.15-6.57-6.21-9.74-3.25-5 .6-10.57 3.25-14.94a.42.42 0 0 0-.36-.63c-3.41.09-13 .8-11.64 6.32a6 6 0 0 0-3.08 3c-.94 2-.85 4.44 1 5.83a10.6 10.6 0 0 0 2.6 1.2 28.92 28.92 0 0 1 5.21 2.77 88.46 88.46 0 0 1 8.55 6.64c.27.18.85-.03.68-.45zm-10.18-7.79a31.45 31.45 0 0 0-4.69-2.23c-2.42-1-3.61-3.13-2.4-5.64a5.94 5.94 0 0 1 5.55-3.24.34.34 0 0 0 0-.67 7.67 7.67 0 0 0-2.45.3c-1-4.3 6.81-5 10.1-5.18-2.48 4-5.89 9.39-3.51 14 1.62 3.16 4.16 5.85 5.92 8.94a69.81 69.81 0 0 0-8.52-6.28z" fill="#1e1e1e"/><path d="M139.31 96.45c-.07.77-5.79 10.69-6.24 12.22.83-.87 7.11-10.24 8-11 8.54-5.17 3.54-9.3 3.54-9.3a3.88 3.88 0 0 0 1 .09c.2-.81-1.36-3.42-11.3-3.68a15.63 15.63 0 0 1 5 11.67z" fill="#b34d41"/><path d="M146 88.35c.49-3.48-9.77-4-11.63-4a.42.42 0 0 0-.29.71 14.9 14.9 0 0 1 4.49 7.79c.69 2.79.23 4.51-1.06 6.93-1.74 3.27-4.14 6.34-5.53 9.79-.17.42.42.66.7.41 3-2.73 5.33-6.09 8.21-8.93a17.37 17.37 0 0 1 5.56-3.69 5.32 5.32 0 0 0 3-2.62c1.72-3.69-.57-5.5-3.45-6.39zm3.08 4.91c-.46 2.6-2.44 3-4.42 3.94-4.58 2.16-7.46 6.82-10.89 10.51 1.73-3.28 4.08-6.28 5.51-9.72 1.72-4.15-.8-9.55-3.81-12.74 2.83.24 10 1.08 9.73 2.88a21.62 21.62 0 0 0-2.42-.43c-.37 0-.46.6-.09.66 1.93.32 5.87.65 6.43 3a5 5 0 0 1-.07 1.9z" fill="#1e1e1e"/><path d="M135.8 105.74c.5 11.38 1.65 22.7 1.6 34.11a.44.44 0 0 0 .88 0c0-5.82-.22-11.64-.51-17.45-.29-5.55-.39-11.26-1.31-16.75-.06-.38-.67-.29-.66.09z" fill="#fff"/><path d="M136.81 137.79a11.19 11.19 0 0 0 1.92.46c.6.09.88-.81.26-.93a10.57 10.57 0 0 0-2.09-.16.35.35 0 0 0-.09.63zM127.06 105.71c-.54 6.05-.62 12.18-.82 18.25a156.9 156.9 0 0 0 0 16.23c0 .57.93.57.89 0-.82-11.48.7-23 .57-34.48a.33.33 0 0 0-.66 0z" fill="#fff"/><path d="M127.35 138.62c.61 0 .59-.88 0-.94a3.65 3.65 0 0 0-1.87.36c-.25.13-.15.58.14.55 0 0 1.16.01 1.73.03zM156.37 317.63l-1.37-17.2s7.4.15 9.2-1.41c.17-.14-.17 18.15-.17 18.15" fill="#fff"/><path d="M164.65 298.61a.45.45 0 0 0-.56-.07c-2.14 1.55-5.56 1.22-8.07 1.37-1.22.07-1.41.07-1.5 1.26-.19 2.57 1.56 13 1.58 16.76 0 .33.52.23.55-.07.2-2.32-1.23-16.39-1.21-17.08 0-.27 6 0 8.45-1 0 .12 0 13.27-.32 17.62 0 .61.91.61.94 0 .18-3.82.49-18.4.14-18.79z" fill="#1e1e1e"/><path d="M158.06 300.26l-3.05.17 1.36 17.43 3.15-.19a93 93 0 0 1-1.46-17.41z" fill="#1e1e1e" opacity=".15"/><path d="M109.26 315c.07-4.64 0-13.9 0-13.9a13.51 13.51 0 0 0 8.49.43c-.61 5.47-1 11.2-1.57 16.68" fill="#fff"/><path d="M117.65 301a12.92 12.92 0 0 1-8.26-.35c-.23-.1-.49.14-.49.37 0 4.63-.09 9.28.08 13.9a.29.29 0 0 0 .57 0c.27-4.43.13-8.91.13-13.35a13.93 13.93 0 0 0 7.57.45c-.6 5.36-.93 10.75-1.5 16.11-.07.59.87.59.93 0 .61-5.56 1-11.13 1.56-16.68a.47.47 0 0 0-.59-.45z" fill="#1e1e1e"/><path d="M114.76 301.83c.13 2.15-.22 12.52-.41 15.56l1.86.78c.61-5.48 1-11.21 1.57-16.68a15.44 15.44 0 0 1-3.02.34z" fill="#1e1e1e" opacity=".15"/><path d="M163.74 314.1s.35 3.11 1.49 4c1.34 1 13.29 4.19 13.72 7.68.45 1 2.38 5.79-4.3 5.44-1.91 1.05-18.09-5.09-18.63-5.76-2-2.54-.17-9.78-.17-9.78l3.57 1.23-.12-2.17s3.84-1.19 4.44-.64z" fill="#525252"/><path d="M155.4 322.91c3.41 3.18 12.9 5.68 14.4 6 7 1.33 8.44.21 9.77-1.22.08.43.79 4.7-7.73 3.35-2.69-.13-16-4.88-16.05-5.82-.01-.34-.36-1.9-.39-2.31z" fill="#fff"/><path d="M175.94 322.16c-2.35-1.07-4.81-1.91-7.21-2.86-1-.4-4.28-1.16-4.67-5.29-.22-1.21-3.68-.05-4.88.3a.46.46 0 0 0-.32.42c0 .53 0 1 .08 1.58a21.23 21.23 0 0 1-2.86-1 .46.46 0 0 0-.66.27c-.52 2.55-1.33 6.74-.23 9.22 1.19 2.85 15.26 7.29 21.33 6.69 5.74-.59 3.22-7.58-.58-9.33zm1 8.5c-6.24 1.25-18.15-4-19.66-5-2.49-1.59-1.64-6.68-1.1-9.41a23.74 23.74 0 0 0 3.12 1 .45.45 0 0 0 .56-.43c-.06-.54-.11-1.81-.11-1.84a12.93 12.93 0 0 1 3.66-.74c.15 1.37.49 3.1 1.55 4a12.66 12.66 0 0 0 3.57 1.66c2.15.86 8.07 2.52 9.36 4.57s2.04 5.59-.89 6.19z" fill="#1e1e1e"/><path d="M179.11 327.71c-3.47 3.13-8.91.77-12.81-.35-3.67-1.06-7.76-2.07-10.62-4.72-.4-.36-1 .23-.59.59 3.34 3.07 8.39 4.2 12.66 5.36 3.8 1 8.59 2.77 11.84-.4.31-.31-.16-.76-.48-.48zM167.68 319.31a22.94 22.94 0 0 0-3 2.31.46.46 0 1 0 .72.55c.33-.5 2.36-1.94 2.7-2.42.18-.26-.18-.61-.44-.44zM166 318.82c-1 .94-2 1.82-3 2.7-.45.4.21 1 .67.66a26.44 26.44 0 0 0 2.88-2.82.38.38 0 0 0-.53-.54zM165 318a24.79 24.79 0 0 0-2.76 2.07c-.53.28-.05 1.09.47.8a28.81 28.81 0 0 0 2.57-2.21c.29-.21.1-.8-.28-.66zM164.3 317.49c-.26-.48-1.82.7-2.27.87-1.08-.06-.68 1.23-.18 1.07a6 6 0 0 0 2.45-1.94zM164.05 316c-.54-.13-3.72.69-3.17 1.58.38.52 2.84-.81 3.24-1a.32.32 0 0 0-.07-.58z" fill="#1e1e1e"/><path d="M170.61 318c-.27-.67-2.35-1-2.52-1 .38-.45 1.1-3.49-1.75-2.3-2 1.35-1.84 2.82-1.64 3 .63.48 2.93.11 3.31.14 2-.14 2.82 1.49-.91.67a.39.39 0 0 0-.21.75c.78.23 4.44.5 3.72-1.26zm-3-2.33c.21.64-1 1.85-2.63 1.45.67-1.54 2.41-2.26 2.67-1.46z" fill="#1e1e1e"/><path d="M161.66 314.13l-2.36.6s0 1.68.12 2.17a18.39 18.39 0 0 1-3.57-1.23 64.43 64.43 0 0 0-.37 8.33c0 2.34 13.2 6.43 13.2 6.43s-12.48-5.34-7.02-16.3z" fill="#1e1e1e" opacity=".3"/><path d="M108.79 314.1s-.35 3.11-1.5 4c-1.34 1-13.29 4.19-13.72 7.68-.45 1-2.38 5.79 4.31 5.44 1.9 1.05 18.08-5.09 18.62-5.76 2-2.54.17-9.78.17-9.78l-3.57 1.23.12-2.17s-3.84-1.19-4.43-.64z" fill="#525252"/><path d="M117.13 322.91c-3.42 3.18-12.9 5.68-14.4 6-7 1.33-8.45.21-9.78-1.22-.08.43-.67 9.52 23.78-2.47.01-.34.36-1.9.4-2.31z" fill="#fff"/><path d="M96 331.46c6.07.6 19.13-3.63 21.34-6.69 1-2.52.29-6.67-.23-9.22a.47.47 0 0 0-.67-.27 21.6 21.6 0 0 1-2.85 1c0-.53 0-1.05.07-1.58a.46.46 0 0 0-.32-.42c-1.2-.35-4.42-1.59-4.88-.3-.2 1.3 0 4-4.67 5.29-2.4.95-4.86 1.79-7.21 2.86-3.8 1.78-6.32 8.77-.58 9.33zm-1.37-6.88a5.85 5.85 0 0 1 2.89-2c2.13-.92 9.1-3.41 10-4.22s1.41-2.66 1.55-4a13.1 13.1 0 0 1 3.67.74s-.06 1.3-.12 1.84a.45.45 0 0 0 .57.43 23.6 23.6 0 0 0 3.11-1c.54 2.73 1.39 7.82-1.09 9.41-1.51 1-13.2 6.11-19.66 5-2.96-.66-2.32-4.29-.92-6.2z" fill="#1e1e1e"/><path d="M93.41 327.71c3.47 3.13 8.91.77 12.82-.35 3.67-1.06 7.75-2.07 10.62-4.72.39-.36 1 .23.58.59-3.34 3.07-8.39 4.2-12.66 5.36-3.79 1-8.59 2.77-11.83-.4-.31-.31.15-.76.47-.48zM104.84 319.31a22.94 22.94 0 0 1 3 2.31.46.46 0 1 1-.72.55c-.33-.5-2.36-1.94-2.69-2.42a.32.32 0 0 1 .43-.44zM106.55 318.82c1 .94 2 1.82 3 2.7.46.4-.2 1-.66.66a25.66 25.66 0 0 1-2.89-2.82.38.38 0 0 1 .53-.54zM107.55 318a24.79 24.79 0 0 1 2.76 2.07c.53.28 0 1.09-.47.8a28.81 28.81 0 0 1-2.57-2.21c-.27-.21-.13-.8.28-.66zM108.22 317.49c.18-.88 1.82.7 2.28.87 1.21 0 .68 1.23.17 1.07a6.25 6.25 0 0 1-2.45-1.94zM108.47 316a6.76 6.76 0 0 1 3.1 1 .51.51 0 0 1 .07.61c-.38.52-2.84-.81-3.24-1a.32.32 0 0 1 .07-.58z" fill="#1e1e1e"/><path d="M106.06 314.62c-.79-.39-3.27.11-1.63 2.34-.78-.09-2.25.36-2.52 1-.72 1.77 2.94 1.5 3.72 1.2a.39.39 0 0 0-.2-.75c-1.64.86-4.57-.34-.91-.67.37 0 2.88.27 3.5-.22.17-.89-1.02-2.43-1.96-2.9zm-1.19 1c.26-.8 1.78-.61 2.63 1.45-1.58.36-2.83-.77-2.63-1.41z" fill="#1e1e1e"/><path d="M110.86 314.13l2.36.6s0 1.68-.12 2.17a17.94 17.94 0 0 0 3.57-1.23c.39 1.65.37 7.38.38 8.33 0 2.34-13.2 6.43-13.2 6.43s12.47-5.34 7.01-16.3z" fill="#1e1e1e" opacity=".3"/><path d="M142.16 15.88c-3 9.71-25.82 23.36-25.4 40.28-.45 7.11 5.21 15.08 6.94 22 1.35 5.37.85 9.5.66 15-1.28 8 13.27 11.13 16.18-.52 1.23-4.32 1.52-8.89 3.06-13.1.92-2.5 10.66-9 13.17-22.57 2.89-15.51-14.94-29.22-14.61-41.09z" fill="#f6a87b"/><path d="M153 38.63c-3.36-7.67-10.36-13.86-10.38-22.75 0-.62-1-.64-1 .27-2.44 6.26-8.35 10.73-12.76 15.57s-18.32 16.73-10.16 34.87c2.7 6.64 5.53 12.46 5.48 19.81 0 5.1-2.08 12.32 4.57 13.9 4.8 1.15 9.5-.22 11.41-5 1.23-3.06 2.43-12 3.62-14.81a12.19 12.19 0 0 1 3.48-4.81 33.17 33.17 0 0 0 9.38-16.21c2.21-6.71-2.11-17.42-3.64-20.84zm-1.44 30.71c-1.85 2.8-4.36 4.81-6.57 7.27-1.75 1.94-2.4 4.15-3 6.68-1.36 6-1.32 16-9.38 16.39-1.42.07-7.75 0-7.86-6.13 0-3.19.37-6.36.2-9.55-.64-12.39-11.49-22.74-6.47-35.5 2.76-7 7.84-13 13-18.36 3.66-3.83 8-7.55 10.27-12.43.58 5.49 3.66 10.14 6.62 14.74 11.73 18.13 7.9 29.29 3.21 36.89z" fill="#1e1e1e"/><path d="M127.63 34.34a56 56 0 0 1 7-1.26c.44-.09.33-.77-.11-.77a16 16 0 0 0-7 1.53c-.22.13-.13.52.13.5zM145.46 34.09A8.88 8.88 0 0 1 151.1 37c.41.38 1-.23.62-.62-1.62-1.61-3.73-3.27-6.17-3-.32 0-.48.56-.09.63z" fill="#1e1e1e"/><path d="M117.14 36.71c-2.14 16.1 3.76 18.17 16.66 17.08 1.06-.47 6.68-10.35 5.11-14s-18.51-5.45-21.77-3.08zM144.19 40c-2.51 18.6 2.81 17.5 13.63 17.65 1.07-.68 7.33-10.92 5.29-14.65-1.49-2.72-15.6-5-18.92-3z" fill="#fff"/><path d="M161.11 40.56c-4.58-2.07-13.19-2.56-16.33-1.56a2.42 2.42 0 0 0-1.7 1.86 3.53 3.53 0 0 0-3.36-.42 4.73 4.73 0 0 0-3-3.45c-4.66-2.15-14.61-1.85-16.48-2-1.39-.48-4.21.83-4.44 3.4-.32 3.43.58 7.34 1.42 10.65s2.24 3.93 5.65 4.79c2.91.73 7.05 2 10.07 1.07 4.64-1.45 6.8-11.71 6.85-13 1.09 0 2.12-.19 3 .71a91.71 91.71 0 0 0 .82 10.74c.23 1.23.37 2.25 1.46 3 1.49 1 9.31 2.25 11.07 2.24 3.37 0 4.26-3 5.4-5.6 1.77-3.99 4.88-9.99-.43-12.43zm-26.94 11.6c-1.7 2.58-5.15 1.56-7.78 1.07-1.62-.31-6.89-.83-7.42-3.21-.23-.71-4.57-13.74 1.31-13.73.12 0 8.36-.18 13.69 1.32 1.75.49 4.15 1.19 4.45 3.27s-2.02 8.66-4.25 11.28zm25.13 2.76c-1.26 4.55-12.7 1.32-13.74-.26-1-1.34-2.48-13.76-.46-14.45 2.82-.63 14.2-.33 16.79 2.45 2.61 1.95-1.64 10.34-2.59 12.26z" fill="#1e1e1e"/><path d="M131.43 44.69a1.3 1.3 0 0 0-1.54.61 1.49 1.49 0 0 0-.08 1.56 1.31 1.31 0 0 0 1.48.62 1.26 1.26 0 0 0 .88-1.3 1.37 1.37 0 0 0-.74-1.49zM150.19 47.42a1 1 0 0 0-1.38-.64 1.46 1.46 0 0 0-.89 1.19c0 2 2 1.12 2.15 1a1.27 1.27 0 0 0 .12-1.55zM129.23 79.67a8.91 8.91 0 0 0 8.06 1.71.48.48 0 0 0-.25-.92 9.25 9.25 0 0 1-7.42-1.3c-.31-.19-.68.27-.39.51zM136.45 54.1a3.24 3.24 0 0 0 2.13 3.7c1.7.53 3.51-.77 4.28-2.24.17-.32-.27-.72-.53-.41-.76.94-1.62 2.13-3 2.08-1.69-.06-2.3-1.62-2.33-3 0-.32-.51-.41-.57-.08zM131.63 71.5c1.4 1.6 4.85 1.79 6.69 1 .44-.19.13-1-.32-.78a7.3 7.3 0 0 1-6-.68c-.3-.18-.59.23-.36.48z" fill="#1e1e1e"/><path d="M137.38 61.5c-2.51-.43-8.81-4.11-10.74-2.86-2.64 10.81 21.36 14.1 22.58 3.27-1.22-1.39-9.32.02-11.84-.41z" fill="#5a2d22"/><path d="M131.85 66.76c4.54-3.43 9.62.51 9.5 1.6-.1.84-8.64.04-9.5-1.6z" fill="#f67566"/><path d="M141.59 68.18c-2-3.24-6.94-3.8-10-1.71a.23.23 0 0 0 .18.4c5.35-2.14 8 .32 9.14 1.81.36.43.94-.07.68-.5z" fill="#1e1e1e"/><path d="M149.69 61.71c-1.23-2.09-9.49-.13-12.27-.54-3.14-.67-8.75-4.38-11.13-2.7-2.22 1.94 1.78 6.74 3.32 7.93 3.27 2.51 9.48 3.43 13.4 2.33 1.9-.53 8.49-4.28 6.68-7.02zm-5.45 5.41a12.28 12.28 0 0 1-6.73 1.09c-4.63-.39-9-2.26-10.74-7-1.46-4 3.81-1.91 5.47-1.25a30.16 30.16 0 0 0 5.1 1.84c3.81.47 9.6-.75 11.11 0 2.37 1.2-3.08 4.73-4.21 5.32z" fill="#1e1e1e"/></svg>