<svg xmlns="http://www.w3.org/2000/svg" viewBox="0 0 400 350"><path d="M333.13 119.66c-.18-.94-1.69-2.32-2.23-3.09a64.13 64.13 0 0 1-11.06-47.52c1.64-11.16 4.1-22.08 1.63-33.32-2.16-9.81-9-30.48-34.5-23.06-.05 0-21-3.16-26.36 24.64a77.84 77.84 0 0 0-.07 23.36c6.46 33.4 0 45.05-4.26 55.63a.49.49 0 0 0 .17.66c4.27 2.06 9.07 3.16 13.67 4.2 39.21 9.08 63.03 2.64 63.01-1.5zM59.94 119.66c.18-.94 1.69-2.32 2.23-3.09a64.13 64.13 0 0 0 11.06-47.52C71.59 57.89 69.13 47 71.6 35.73c2.16-9.81 9-30.48 34.5-23.06.05 0 21-3.16 26.36 24.64a77.84 77.84 0 0 1 .07 23.36c-6.46 33.4 0 45.05 4.26 55.63a.49.49 0 0 1-.17.66c-4.27 2.06-9.07 3.16-13.67 4.2-39.21 9.08-63.03 2.64-63.01-1.5z" fill="#2d2b28"/><path d="M129.92 318.64s.36 3.11 1.5 4c1.34 1 13.29 4.19 13.72 7.68.45 1 2.38 5.79-4.3 5.44-1.91 1.05-18.09-5.09-18.63-5.76-2-2.54-.17-9.78-.17-9.78l3.57 1.23-.12-2.17s3.84-1.19 4.43-.64z" fill="#525252"/><path d="M121.58 327.45c3.42 3.18 12.91 5.68 14.41 6 7 1.33 8.44.21 9.77-1.22.08.43.78 4.7-7.73 3.35-2.69-.13-16-4.88-16-5.82-.03-.34-.41-1.9-.45-2.31z" fill="#fff"/><path d="M142.13 326.7c-2.35-1.07-4.81-1.91-7.21-2.86-1-.4-4.29-1.16-4.67-5.29-.22-1.21-3.68-.05-4.88.3a.46.46 0 0 0-.32.42c0 .53 0 1.05.08 1.58a21.23 21.23 0 0 1-2.86-1 .45.45 0 0 0-.66.27c-.53 2.55-1.33 6.74-.24 9.22 1.2 2.85 15.27 7.29 21.34 6.69 5.74-.59 3.22-7.58-.58-9.33zm1 8.5c-6.25 1.25-18.15-4-19.66-4.95-2.49-1.59-1.64-6.68-1.1-9.41a23.6 23.6 0 0 0 3.11 1 .45.45 0 0 0 .57-.43c-.06-.54-.11-1.81-.11-1.84a12.93 12.93 0 0 1 3.66-.74c.15 1.37.48 3.1 1.55 4a12.6 12.6 0 0 0 3.56 1.66c2.16.86 8.07 2.52 9.37 4.57s2.03 5.54-.94 6.14z" fill="#1e1e1e"/><path d="M145.3 332.25c-3.47 3.13-8.91.77-12.82-.35-3.67-1.06-7.75-2.07-10.62-4.72-.39-.36-1 .23-.58.59 3.34 3.07 8.39 4.2 12.66 5.36 3.79 1 8.59 2.77 11.84-.4.31-.31-.16-.76-.48-.48zM133.87 323.85a22.94 22.94 0 0 0-3 2.31.46.46 0 1 0 .72.55c.33-.5 2.36-1.94 2.69-2.42a.32.32 0 0 0-.43-.44zM132.16 323.36c-1 .94-2 1.82-3 2.7-.46.4.21 1 .66.66a25.66 25.66 0 0 0 2.89-2.82c.32-.37-.18-.88-.53-.54zM131.16 322.55a24.79 24.79 0 0 0-2.76 2.07c-.53.28-.05 1.09.47.8a28.81 28.81 0 0 0 2.57-2.21c.32-.21.13-.82-.28-.66zM130.49 322c-.26-.48-1.82.7-2.28.87-1.07-.06-.67 1.23-.17 1.07a6 6 0 0 0 2.45-1.94zM130.24 320.57c-.54-.13-3.72.69-3.17 1.58.38.52 2.84-.81 3.24-1a.32.32 0 0 0-.07-.58z" fill="#1e1e1e"/><path d="M136.8 322.53c-.27-.68-2.35-1-2.52-1 .38-.45 1.09-3.49-1.75-2.3-2 1.35-1.84 2.82-1.64 3 .62.48 2.93.11 3.3.14 2-.14 2.83 1.49-.9.67a.39.39 0 0 0-.21.75c.78.21 4.44.51 3.72-1.26zm-3-2.33c.2.64-1.05 1.85-2.63 1.45.67-1.53 2.41-2.25 2.67-1.45z" fill="#1e1e1e"/><path d="M127.85 318.67l-2.36.6s.05 1.68.12 2.17a18.16 18.16 0 0 1-3.57-1.23 64.43 64.43 0 0 0-.37 8.33c0 2.34 13.2 6.43 13.2 6.43s-12.48-5.34-7.02-16.3z" fill="#1e1e1e" opacity=".3"/><path d="M75.12 318.64s-.35 3.11-1.49 4c-1.35 1-13.3 4.19-13.73 7.68-.45 1-2.38 5.79 4.31 5.44 1.9 1.05 18.09-5.09 18.62-5.76 2-2.54.17-9.78.17-9.78l-3.57 1.23.12-2.17s-3.83-1.19-4.43-.64z" fill="#525252"/><path d="M83.46 327.45c-3.42 3.18-12.9 5.68-14.4 6-7 1.33-8.44.21-9.78-1.22-.08.43-.67 9.52 23.78-2.47.02-.34.36-1.9.4-2.31z" fill="#fff"/><path d="M62.34 336c6.06.6 19.12-3.63 21.33-6.69 1-2.53.29-6.67-.23-9.22a.47.47 0 0 0-.67-.27 21.6 21.6 0 0 1-2.85 1c0-.53.06-1.05.07-1.58a.45.45 0 0 0-.32-.42c-1.19-.35-4.42-1.59-4.88-.3-.2 1.3 0 4-4.67 5.29-2.4 1-4.86 1.79-7.21 2.86-3.8 1.78-6.32 8.77-.57 9.33zM61 329.12a5.78 5.78 0 0 1 2.89-2c2.13-.92 9.11-3.41 10-4.22 1.07-.93 1.41-2.66 1.55-4a12.94 12.94 0 0 1 3.67.74s-.06 1.3-.11 1.84a.44.44 0 0 0 .56.43 23.6 23.6 0 0 0 3.11-1c.54 2.73 1.39 7.82-1.09 9.41-1.51 1-13.2 6.11-19.66 4.95-3-.61-2.35-4.27-.92-6.15z" fill="#1e1e1e"/><path d="M59.74 332.25c3.47 3.13 8.91.77 12.82-.35 3.67-1.06 7.76-2.07 10.62-4.72.39-.36 1 .23.59.59-3.35 3.07-8.4 4.2-12.67 5.36-3.79 1-8.59 2.77-11.83-.4-.31-.31.15-.76.47-.48zM71.18 323.85a23.53 23.53 0 0 1 3 2.31.46.46 0 1 1-.72.55c-.33-.5-2.36-1.94-2.69-2.42-.18-.26.18-.61.44-.44zM72.89 323.36c1 .94 2 1.82 3 2.7.46.4-.2 1-.66.66a25.66 25.66 0 0 1-2.89-2.82.38.38 0 0 1 .54-.54zM73.88 322.55a24.79 24.79 0 0 1 2.76 2.07c.53.28 0 1.09-.47.8a28.81 28.81 0 0 1-2.57-2.21c-.31-.21-.13-.82.28-.66zM74.55 322c.18-.88 1.83.7 2.28.87 1.21 0 .68 1.23.17 1.07a6.33 6.33 0 0 1-2.45-1.94zM74.81 320.57a6.76 6.76 0 0 1 3.09 1 .53.53 0 0 1 .08.61c-.39.52-2.84-.81-3.25-1a.32.32 0 0 1 .08-.58z" fill="#1e1e1e"/><path d="M72.39 319.16c-.79-.39-3.27.11-1.63 2.34-.78-.09-2.24.35-2.52 1-.72 1.77 2.94 1.5 3.72 1.2a.39.39 0 0 0-.2-.75c-1.64.86-4.57-.35-.91-.67.37 0 2.88.27 3.51-.22.17-.89-1-2.43-1.97-2.9zm-1.18 1c.25-.8 1.77-.61 2.62 1.45-1.58.39-2.83-.77-2.62-1.41z" fill="#1e1e1e"/><path d="M77.19 318.67l2.36.6s0 1.68-.12 2.17a17.94 17.94 0 0 0 3.57-1.23c.39 1.65.37 7.38.38 8.33 0 2.34-13.2 6.43-13.2 6.43s12.47-5.34 7.01-16.3z" fill="#1e1e1e" opacity=".3"/><path d="M329.92 318.64s.36 3.11 1.5 4c1.34 1 13.29 4.19 13.72 7.68.45 1 2.38 5.79-4.3 5.44-1.91 1.05-18.09-5.09-18.63-5.76-2-2.54-.17-9.78-.17-9.78l3.57 1.23-.12-2.17s3.84-1.19 4.43-.64z" fill="#525252"/><path d="M321.58 327.45c3.42 3.18 12.91 5.68 14.41 6 7 1.33 8.44.21 9.77-1.22.08.43.78 4.7-7.73 3.35-2.69-.13-16-4.88-16-5.82-.03-.34-.41-1.9-.45-2.31z" fill="#fff"/><path d="M342.13 326.7c-2.35-1.07-4.81-1.91-7.21-2.86-1-.4-4.29-1.16-4.67-5.29-.22-1.21-3.68-.05-4.88.3a.46.46 0 0 0-.32.42c0 .53 0 1.05.08 1.58a21.23 21.23 0 0 1-2.86-1 .45.45 0 0 0-.66.27c-.53 2.55-1.33 6.74-.24 9.22 1.2 2.85 15.27 7.29 21.34 6.69 5.74-.59 3.22-7.58-.58-9.33zm1 8.5c-6.25 1.25-18.15-4-19.66-4.95-2.49-1.59-1.64-6.68-1.1-9.41a23.6 23.6 0 0 0 3.11 1 .45.45 0 0 0 .57-.43c-.06-.54-.11-1.81-.11-1.84a12.93 12.93 0 0 1 3.66-.74c.15 1.37.48 3.1 1.55 4a12.6 12.6 0 0 0 3.56 1.66c2.16.86 8.07 2.52 9.37 4.57s2.03 5.54-.94 6.14z" fill="#1e1e1e"/><path d="M345.3 332.25c-3.47 3.13-8.91.77-12.82-.35-3.67-1.06-7.75-2.07-10.62-4.72-.39-.36-1 .23-.58.59 3.34 3.07 8.39 4.2 12.66 5.36 3.79 1 8.59 2.77 11.84-.4.31-.31-.16-.76-.48-.48zM333.87 323.85a22.94 22.94 0 0 0-3 2.31.46.46 0 1 0 .72.55c.33-.5 2.36-1.94 2.69-2.42a.32.32 0 0 0-.43-.44zM332.16 323.36c-1 .94-2 1.82-3 2.7-.46.4.21 1 .66.66a25.66 25.66 0 0 0 2.89-2.82c.32-.37-.18-.88-.53-.54zM331.16 322.55a24.79 24.79 0 0 0-2.76 2.07c-.53.28 0 1.09.47.8a28.81 28.81 0 0 0 2.57-2.21c.32-.21.13-.82-.28-.66zM330.49 322c-.26-.48-1.82.7-2.28.87-1.07-.06-.67 1.23-.17 1.07a6 6 0 0 0 2.45-1.94zM330.24 320.57c-.54-.13-3.72.69-3.17 1.58.38.52 2.84-.81 3.24-1a.32.32 0 0 0-.07-.58z" fill="#1e1e1e"/><path d="M336.8 322.53c-.27-.68-2.35-1-2.52-1 .38-.45 1.09-3.49-1.75-2.3-2 1.35-1.84 2.82-1.64 3 .62.48 2.93.11 3.3.14 2-.14 2.83 1.49-.9.67a.39.39 0 0 0-.21.75c.78.21 4.44.51 3.72-1.26zm-3-2.33c.2.64-1 1.85-2.63 1.45.67-1.53 2.41-2.25 2.67-1.45z" fill="#1e1e1e"/><path d="M327.85 318.67l-2.36.6s.05 1.68.12 2.17a18.16 18.16 0 0 1-3.57-1.23 64.43 64.43 0 0 0-.37 8.33c0 2.34 13.2 6.43 13.2 6.43s-12.48-5.34-7.02-16.3z" fill="#1e1e1e" opacity=".3"/><path d="M275.12 318.64s-.35 3.11-1.49 4c-1.35 1-13.3 4.19-13.73 7.68-.45 1-2.38 5.79 4.31 5.44 1.9 1.05 18.09-5.09 18.62-5.76 2-2.54.17-9.78.17-9.78l-3.57 1.23.12-2.17s-3.83-1.19-4.43-.64z" fill="#525252"/><path d="M283.46 327.45c-3.42 3.18-12.9 5.68-14.4 6-7 1.33-8.44.21-9.78-1.22-.08.43-.67 9.52 23.78-2.47.02-.34.36-1.9.4-2.31z" fill="#fff"/><path d="M262.34 336c6.06.6 19.12-3.63 21.33-6.69 1-2.53.29-6.67-.23-9.22a.47.47 0 0 0-.67-.27 21.6 21.6 0 0 1-2.85 1c0-.53.06-1.05.07-1.58a.45.45 0 0 0-.32-.42c-1.19-.35-4.42-1.59-4.88-.3-.2 1.3 0 4-4.67 5.29-2.4 1-4.86 1.79-7.21 2.86-3.8 1.78-6.32 8.77-.57 9.33zm-1.34-6.88a5.78 5.78 0 0 1 2.89-2c2.13-.92 9.11-3.41 10-4.22s1.41-2.66 1.55-4a12.94 12.94 0 0 1 3.67.74s-.06 1.3-.11 1.84a.44.44 0 0 0 .56.43 23.6 23.6 0 0 0 3.11-1c.54 2.73 1.39 7.82-1.09 9.41-1.51 1-13.2 6.11-19.66 4.95-3-.61-2.35-4.27-.92-6.15z" fill="#1e1e1e"/><path d="M259.74 332.25c3.47 3.13 8.91.77 12.82-.35 3.67-1.06 7.76-2.07 10.62-4.72.39-.36 1 .23.59.59-3.35 3.07-8.4 4.2-12.67 5.36-3.79 1-8.59 2.77-11.83-.4-.31-.31.15-.76.47-.48zM271.18 323.85a23.53 23.53 0 0 1 3 2.31.46.46 0 1 1-.72.55c-.33-.5-2.36-1.94-2.69-2.42-.18-.26.18-.61.44-.44zM272.89 323.36c1 .94 2 1.82 3 2.7.46.4-.2 1-.66.66a25.66 25.66 0 0 1-2.89-2.82.38.38 0 0 1 .54-.54zM273.88 322.55a24.79 24.79 0 0 1 2.76 2.07c.53.28.05 1.09-.47.8a28.81 28.81 0 0 1-2.57-2.21c-.31-.21-.13-.82.28-.66zM274.55 322c.18-.88 1.83.7 2.28.87 1.21 0 .68 1.23.17 1.07a6.33 6.33 0 0 1-2.45-1.94zM274.81 320.57a6.76 6.76 0 0 1 3.09 1 .53.53 0 0 1 .08.61c-.39.52-2.84-.81-3.25-1a.32.32 0 0 1 .08-.58z" fill="#1e1e1e"/><path d="M272.39 319.16c-.79-.39-3.27.11-1.63 2.34-.78-.09-2.24.35-2.52 1-.72 1.77 2.94 1.5 3.72 1.2a.39.39 0 0 0-.2-.75c-1.64.86-4.57-.35-.91-.67.37 0 2.88.27 3.51-.22.17-.89-1-2.43-1.97-2.9zm-1.18 1c.25-.8 1.77-.61 2.62 1.45-1.58.39-2.83-.77-2.62-1.41z" fill="#1e1e1e"/><path d="M277.19 318.67l2.36.6s-.05 1.68-.12 2.17a17.94 17.94 0 0 0 3.57-1.23c.39 1.65.37 7.38.38 8.33 0 2.34-13.2 6.43-13.2 6.43s12.47-5.34 7.01-16.3z" fill="#1e1e1e" opacity=".3"/><path d="M164.36 153.75a25 25 0 0 0 4.46 4.77c1.31 6.67-1.95 6.82.26 10.34-3.51 5.59.25 4.68 1.76 4.09-2 1.93.2 5.4 3.52.94 3.4 8.71 5.83-8.52 1.34-15.61a76.59 76.59 0 0 0-4.3-8.68c-2.4 1.4-4.72 2.74-7.04 4.15z" fill="#f6a87b"/><path d="M168.79 168.67a5.07 5.07 0 0 0 .55.42c-.85 1.4-3.47 5.17 1.29 3.66.07.24.14.48.22.72-6.36 1.68-3.13-2.97-2.06-4.8z" fill="#1e1e1e"/><path d="M169.53 175.07c-.19-1.76 2.14-3.11 2.52-4.62a16.43 16.43 0 0 0-.22-3.88c.17-.53.38-1 .55-1.58v-.06c.14 1.11.72 5 .15 6.11-.37.73-4.73 5.69.1 4.23a3.61 3.61 0 0 0 1.56-1.68 8.16 8.16 0 0 0 .19 1.1c-1.74 2.31-4.68 1.97-4.85.38zM164.67 153.56l-.56.34a35.23 35.23 0 0 0 4.67 5c-.05-.35.28-.74-.21-1.21-1.32-1.23-2.57-2.69-3.9-4.13z" fill="#1e1e1e"/><path d="M171.05 149.8a112.37 112.37 0 0 1 5.35 11 20.25 20.25 0 0 1 .79 12.82c-.95 4.1-2.23 1.07-2.37.68-.7-2 .09-5.76-2.11-10.85-.05.41-.16 1.36-.19 1.42 1.4 3.56.78 10.6 2.9 11.52 3.65 1.69 3.14-11.28 2.73-12.59a75.31 75.31 0 0 0-6.46-14.33z" fill="#1e1e1e"/><path d="M173.19 161.74c-.2 1.93-.91 7-2.83 7.76-1.31.54-3.24-1.29-2-4.83.89-2.79.32-5.66-.37-8.46a.39.39 0 1 1 .75-.18c2.41 8.25-1.6 9.84.41 12.22s3.27-5.63 3.56-6.59a.25.25 0 0 1 .49.08z" fill="#1e1e1e"/><path d="M48.26 189.85c.65-4.1-2.41-2.95-3.82-9.61a25.49 25.49 0 0 0 2.22-6.08l-8.08-1.23a78 78 0 0 0-.56 9.79c-1.35 8.29 7.66 23.18 7.36 13.83 4.81 2.8 5.45-1.25 2.88-2.24 1.61-.05 5.42-.7 0-4.46z" fill="#f6a87b"/><path d="M48.45 189.56a5.89 5.89 0 0 1-.33.61c1.33 1 5.22 3.39.25 3.87 0 .25.05.5.08.75 6.55-.96 1.71-3.96 0-5.23z" fill="#1e1e1e"/><path d="M50.29 195.74c-.52-1.7-3.19-2-4.14-3.26a16.41 16.41 0 0 1-1.32-3.65c-.36-.42-.76-.82-1.12-1.24v-.05c.31 1.07 1.3 4.87 2.27 5.68.63.52 6.58 3.37 1.57 3.92a3.55 3.55 0 0 1-2.09-.93 10.12 10.12 0 0 1 .25 1.09c2.46 1.38 5.04-.03 4.58-1.56zM46.28 174.1c-.58 1.84-1.21 3.64-1.93 5.34-.27.62.19.86.28 1.2a35.29 35.29 0 0 0 2.29-6.42z" fill="#1e1e1e"/><path d="M42.79 186.28c0 5.54 2.17 8.67 2.32 10.81 0 .4 0 3.7-2.44.29a20.25 20.25 0 0 1-4.32-12.09A114.93 114.93 0 0 1 39 173l-.72-.11a76 76 0 0 0-.33 15.85c.14 1.37 4.77 13.5 7.46 10.5 1.59-1.67-1.75-7.9-1.86-11.72-.08-.06-.55-.89-.76-1.24z" fill="#1e1e1e"/><path d="M41.69 184.92c.94 1.7 3.58 6.06 5.65 6 1.42 0 2.47-2.46-.05-5.24-1.92-2.21-2.52-5.08-3-7.92a.38.38 0 1 0-.75.13c1 8.53 5.33 8.42 4.42 11.39s-5.22-3.89-5.86-4.66a.25.25 0 0 0-.42.27z" fill="#1e1e1e"/><path d="M172.06 149l3.66 9.52s-4.33.78-6.7 3.73c0 0 .07-8.82-2-10.15z" fill="#1e1e1e" opacity=".15"/><path d="M107.08 93.94c11.51.47 37 11.77 42.74 20.27 1.39 2.06 3 4 4.36 6.07 7 11 20.62 31 20.58 31.95s-7.23 6.8-8.31 6.79c-2.42 0-23.94-34.1-26.49-35.8s-21.12-5.65-27.26-6" fill="#e45c4c"/><path d="M110.05 203.48c1.24 8.09 2.78 20.82 3.9 33.15 1.08 11.9 2.81 41.31 4.36 53.16 1.09 8.3 1.28 28.35 2 28.86 4.84 3.56 11.55-.77 11.58-1.77.27-8.55.25-71.6-3.49-113.4zM77.08 203.48c-1.74 38.48-3.36 77-3 115.5 3.58 2.73 9.9 1.28 10.13-.53.73-5.6 1.33-15.3 2.06-20.91.93-7.21 1.62-14.43 2.38-21.67 2.15-20.39 5.92-56 8.21-72.39z" fill="#4069aa"/><path d="M132.47 306.5q0-9.84-.11-19.69c-.22-18-.67-36-1.54-53.93-.47-9.78-1-19.62-1.87-29.4h-1.09c.11 1.24.22 2.49.32 3.74 1.69 20.52 2.4 41.13 2.85 61.71.33 14.87.43 46.25.36 47-.15 1.62-1.63 2.25-3.09 2.82-2 .77-6.8 1.58-7.73-1-.5-1.38-1.41-23.91-2.37-33.44-2.39-23.78-3.31-47.66-6.34-71.39-.41-3.17-.81-6.35-1.3-9.52h-1c1.75 10.66 2.78 21.49 3.77 32.22 1.71 18.46 2.61 37 4.6 55.4.91 8.38.77 16.83 1.46 25.22.22 2.71.95 3.69 4 4.13 2.35.32 8-.61 8.88-3.43.42-1.01.19-8.24.2-10.44zM96.44 203.48C93.67 222.47 85 306 84.73 309.14c-.13 1.49-.4 7.94-1 9.24-1.14 2.31-7.93 2.43-9 .09-.69-1.55-.22-10.63-.22-13 0-34 1.48-68 3-102h-.88c-1 21.86-1.93 43.72-2.5 65.6-.4 15.63-.59 31.27-.47 46.91 0 2.52-.48 3.38 2 4.35a10.22 10.22 0 0 0 6.26.24 3.92 3.92 0 0 0 2.67-1.76c.37-.76.66-5.63.79-7 2-22.37 4.64-44.72 7.08-67.06 1.08-9.83 2.18-19.67 3.37-29.5.47-3.89.87-7.83 1.42-11.74z" fill="#1e1e1e"/><g opacity=".2" fill="#1e1e1e"><path d="M77.08 203.48c-.06.8-.7 13.3-.7 13.3s12.87-2.65 13.11 6.05c.37 13.9-8 87.57-8.11 97.45 1.6-.34 2.78-1 2.88-1.83.73-5.6 1.33-15.3 2.06-20.91.93-7.21 1.62-14.43 2.38-21.67 2.15-20.39 5.92-56 8.21-72.39zM128.45 203.48h-18.4c1.24 8.09 2.78 20.82 3.9 33.15 1.08 11.9 2.81 41.31 4.36 53.16 1.09 8.3 1.28 28.35 2 28.86a7.28 7.28 0 0 0 4.77 1.37c.27-3-10.24-90.87-6.89-98 4-8.47 11.23-5.34 11.23-5.34s-.71-10.45-.97-13.2z"/></g><path d="M38.72 172.72l-.64 10.37s4.29-1.31 7.52.64c0 0-2.57-7.87-1.11-9.82z" fill="#1e1e1e" opacity=".15"/><path d="M171.66 147c-2.14 3.64-5.66 4.84-9.6 7 .94 2 2.21 3.25 4.39 5a21.29 21.29 0 0 0 8.28-7c-1.01-2.23-1.93-2.6-3.07-5z" fill="#af2f25"/><path d="M174.46 150.61c-3.39-5.8-7.3-11.33-11-16.94-4.56-6.91-8.78-14.28-14-20.7-4.88-6-13-9.77-19.83-12.84s-14.8-6.32-22.53-6.51c-.42 0-.41.62 0 .65 7 .54 13.88 3.08 20.25 5.8 6.64 2.83 13.51 6.21 19 11 3 2.61 5.32 6.13 7.48 9.43 1.91 2.92 3.79 5.87 5.71 8.79 4 6.09 8.06 12.15 12 18.3.6.95 1.21 1.9 1.79 2.86.19.32 1.05 1.36 1 1.78-.06.6-1.64 1.7-2 2.05a40.65 40.65 0 0 1-3.93 3.14c-1.66 1.16-1.85 1.32-3.15-.11a60.32 60.32 0 0 1-3.76-4.81c-.3-.4-.58-.8-.87-1.2-.22.27-.45.53-.67.79q1.27 1.72 2.59 3.44a16.43 16.43 0 0 0 3 3.5c1.12.8 1.85.21 2.94-.53 2.14-1.44 4.82-3.26 6.32-5.39.67-1.01.25-1.49-.34-2.5z" fill="#1e1e1e"/><path d="M80.08 98.38c-10.65 4.38-30.72 23.74-33.19 33.69-.61 2.42-1.48 4.76-2 7.2-2.82 12.7-8.73 36.23-8.38 37.07s9.13 3.91 10.14 3.53c2.26-.85 10.79-40.24 12.59-42.71s17.9-12.56 23.56-15" fill="#e45c4c"/><path d="M162.43 154.08a26.29 26.29 0 0 0 6.17-3.38c1.28-.9 3-2 3.47-3.57.17-.52-.64-.73-.81-.23-.56 1.63-2.78 2.88-4.11 3.76-1.6 1.05-3.29 1.91-5 2.8a.34.34 0 0 0 .27.62z" fill="#1e1e1e"/><path d="M49.66 172.1s-7.2.61-11.46-3a18.29 18.29 0 0 0-1.7 7.22c3.44 1.78 6.71 3.56 10.42 3.48a50.19 50.19 0 0 0 2.74-7.7z" fill="#af2f25"/><path d="M48 175.73c-.26.78-.71 3.21-1.52 3.64-.55.3-2.22-.4-2.78-.56a44.12 44.12 0 0 1-4.7-1.61c-.61-.25-1.88-.61-2.07-1.19s.3-1.77.4-2.29c1.35-6.64 3-13.23 4.57-19.82 1.82-7.67 3.1-15.74 5.82-23.15 2.65-7.21 8.66-13.51 14-18.81 6.07-6 13-11.86 21.1-15 .38-.15.23-.76-.18-.63-7 2.29-13.14 7.26-18.53 12.15-5.74 5.2-11.26 11.1-15.21 17.81-3.77 6.42-4.81 14.26-6.49 21.43-1.79 7.64-3.67 15.26-5.38 22.92-.32 1.45-1.38 4-1.07 5.47s2.5 1.89 3.69 2.34a45.65 45.65 0 0 0 4.47 1.57c.69.19 1.91.69 2.65.4s1.11-1.47 1.4-2.19.52-1.34.76-2a6.93 6.93 0 0 0-.93-.48zM162.43 154.08a26.29 26.29 0 0 0 6.17-3.38c1.28-.9 3-2 3.47-3.57.17-.52-.64-.73-.81-.23-.56 1.63-2.78 2.88-4.11 3.76-1.6 1.05-3.29 1.91-5 2.8a.34.34 0 0 0 .27.62z" fill="#1e1e1e"/><path d="M37.74 169.25c3.18 3 7.83 3.92 12 3.27.54-.09.31-.92-.23-.84-4.29.68-7.87-.59-11.39-3a.35.35 0 0 0-.42.54z" fill="#1e1e1e"/><path d="M124.32 96l.79 1.48-2.39 4.74-1.54-.15c-.11-3.68 3.14-6.07 3.14-6.07z" fill="#6d6652"/><path d="M114.45 94.37c-.41.12-3.78 4.19-3.54 7.86 2.35 7.1 10.35-.7 10.35-.7.13-1.32 2-5.12 3.15-5.72-2.61-1.44-8.36-1.92-9.96-1.44z" fill="#bab3a6"/><path d="M68.73 103.28c1.24.06 3.1 6.5 3.1 6.5l-1.73.8s-.41-5.36-3.25-5.93c.47-.71.64-1.43 1.88-1.37z" fill="#6d6652"/><path d="M71.65 109.44c-.41-1.64-1.52-5.46-3.08-6.15 2.32-1.52 8.11-4.66 8.28-4.64s3.45 2.5 3.56 5.8" fill="#bab3a6"/><path d="M76.94 98.31c-1-.13-2.33 1-3.13 1.39a39.31 39.31 0 0 0-5.51 3.41 3.17 3.17 0 0 0-1.59 1.36.4.4 0 0 0 .24.58c2.78 1.39 2.59 4.68 2.81 5.62a.35.35 0 0 0 .69-.09c0-1.94-.86-5-2.77-6.07a3.91 3.91 0 0 1 .9-.77c1.68 1.2 2.19 3.94 2.79 5.78a.29.29 0 0 0 .57-.15c-.39-2-1.08-4.75-2.78-6.07a30.28 30.28 0 0 1 6.26-3.65c1.72-.68 2.32.14 3.17 1.5a9.49 9.49 0 0 1 1.45 3.4c.08.49.83.28.75-.21-.26-1.57-1.92-5.76-3.85-6.03zM124.76 96a.4.4 0 0 0-.14-.58 16.31 16.31 0 0 0-6.54-1.67c-1.64-.08-3.7-.28-4.87 1.11a14.36 14.36 0 0 0-2.66 7.34c0 .4.64.5.71.09a20.2 20.2 0 0 1 1.95-6c1.78-3.18 7.46-1.76 10.41-.42a9.49 9.49 0 0 0-2.75 5.63c0 .44.65.52.77.1.43-1.6 1.24-3.88 2.57-5.1a3.57 3.57 0 0 0 .48 1 9 9 0 0 0-2.3 4.41.4.4 0 0 0 .79.11c.25-1.26 1-3.2 2.08-4a.38.38 0 0 0 .2-.34 4.25 4.25 0 0 0-.7-1.68z" fill="#1e1e1e"/><path d="M82.15 105.92c8.34 2.77 9.7-16.36 9.7-16.36-2 .19-12.54 1.29-10.7 6.77-8.21 6.94 1 9.59 1 9.59z" fill="#e45c4c"/><path d="M92.21 89.77c.12-.25 0-.66-.36-.63-3.43.39-12.85 1.86-11.11 7.28a6 6 0 0 0-2.81 3.17c-.69 1.81-.6 4.11 1 5.43C94.67 114 90 94.3 92.21 89.77zM81 105.16a4.17 4.17 0 0 1-1.57-6.5 6 6 0 0 1 4.54-2.42c.42 0 .44-.69 0-.67a7.57 7.57 0 0 0-2.43.5c-1.19-4.24 6.35-5.59 9.62-6-2.16 4.2 5.09 22.27-10.16 15.09z" fill="#1e1e1e"/><path d="M110.13 100.83c-4.52 2.15-6.14 1.9-6.11-.37s-1.88-11 .15-11c5.59 0 5.4 2.28 5.4 2.28 9.16 3.45 1.76 8.51.56 9.09z" fill="#e45c4c"/><path d="M110 91.84a.24.24 0 0 0 0-.08c.19-3.39-10.18-3.05-11.89-3a.42.42 0 0 0-.21.77c3 20.58 10.68 12.53 12.45 11.59 1.59-.83 2.93-1.46 3.63-3.2 1.51-3.77-.98-5.42-3.98-6.08zm-1 9.2c-4.09 2.65-5.88 4.43-4.8.82 1.28-4.25-1.71-9.35-4.94-12.25 2.86 0 9.89.19 10 2.08a20.25 20.25 0 0 0-2.4-.23c-.44 0-.43.63 0 .67 2 .16 6 .18 6.64 2.68.1.8.92 3.87-4.57 6.19z" fill="#1e1e1e"/><path d="M83.66 95.91c-6.93 6.11 3 8.26 4.16 9.33s4-15.68 4-15.68c-2 .19-12.19.64-10.57 7.1.03 0 2.54-.85 2.41-.75zM104 100.46c0 .77 1 1.9 1.89 1 9.82-7.74 2.75-9.56 2.75-9.56a4 4 0 0 0 1 0c.13-.82-2.1-2.24-3.56-2.47-1.99-.27-2.03 8.76-2.08 11.03z" fill="#1e1e1e" opacity=".2"/><path d="M105.64 23.06c-3 9.7-25.82 23.35-25.4 40.27-.45 7.11 5.2 15.08 6.94 22 1.35 5.37.85 9.51.66 15-1.29 8 13.27 11.12 16.17-.52 1.24-4.32 1.52-8.89 3.07-13.11.92-2.5 10.66-9 13.16-22.56 2.9-15.51-14.94-29.22-14.6-41.08z" fill="#f6a87b"/><path d="M116.5 45.8c-3.36-7.67-10.36-13.86-10.38-22.74 0-.62-1-.65-1 .27-2.44 6.25-8.35 10.72-12.76 15.56S74 55.62 82.17 73.76c2.71 6.64 5.54 12.46 5.49 19.81 0 5.1-2.08 12.32 4.57 13.91 4.8 1.14 9.5-.23 11.41-5 1.23-3.06 2.43-12.05 3.61-14.81a12.27 12.27 0 0 1 3.49-4.82 33.07 33.07 0 0 0 9.37-16.21c2.21-6.71-2.11-17.41-3.61-20.84zm-1.45 30.71c-1.85 2.8-4.35 4.82-6.57 7.27-1.75 2-2.4 4.15-3 6.69-1.36 6-1.32 16-9.38 16.38-1.42.08-7.75 0-7.86-6.13 0-3.18.36-6.36.2-9.55C87.83 78.78 77 68.43 82 55.67c2.76-7 7.84-13 13-18.36 3.66-3.83 8-7.54 10.27-12.42.58 5.48 3.66 10.14 6.62 14.74 11.68 18.12 7.86 29.29 3.16 36.88z" fill="#1e1e1e"/><path d="M91.11 41.51a57.64 57.64 0 0 1 7-1.25.4.4 0 0 0-.1-.78A16 16 0 0 0 91 41c-.23.12-.14.52.13.49zM108.94 41.27a8.86 8.86 0 0 1 5.64 2.94c.41.38 1-.22.62-.62-1.62-1.61-3.73-3.27-6.17-3-.33 0-.48.56-.09.64z" fill="#1e1e1e"/><path d="M80.62 43.88C78.45 60 84.38 62.06 97.28 61c1-.48 6.68-10.36 5.1-14s-18.5-5.49-21.76-3.12zM107.66 47.14c-2.5 18.63 2.84 17.53 13.63 17.69 1.08-.69 7.34-10.93 5.3-14.66-1.49-2.72-15.59-4.97-18.93-3.03z" fill="#fff"/><path d="M124.58 47.73c-4.57-2.06-13.19-2.54-16.33-1.52a2.4 2.4 0 0 0-1.69 1.86 3.56 3.56 0 0 0-3.36-.42 4.75 4.75 0 0 0-3-3.45c-4.66-2.15-14.61-1.85-16.49-2-1.39-.48-4.2.83-4.44 3.39-.27 3.46.63 7.41 1.47 10.67s2.26 3.94 5.64 4.79c2.92.74 7.06 2 10.07 1.07 4.65-1.45 6.8-11.71 6.86-13 1.08 0 2.12-.2 3 .7a91.71 91.71 0 0 0 .82 10.74c.22 1.24.37 2.26 1.46 3 1.49.95 9.3 2.24 11.07 2.23 3.36 0 4.26-3 5.4-5.59 1.72-4.02 4.84-10.07-.48-12.47zm-26.93 11.6c-1.71 2.58-5.15 1.57-7.78 1.07-1.63-.31-6.89-.83-7.42-3.21-.23-.71-4.57-13.74 1.3-13.72.13 0 8.37-.18 13.7 1.32 1.74.49 4.15 1.18 4.44 3.26s-2.02 8.66-4.24 11.28zm25.12 2.76c-1.25 4.55-12.69 1.33-13.73-.25-1-1.34-2.48-13.77-.46-14.45 2.81-.63 14.2-.33 16.79 2.44 2.63 1.95-1.64 10.32-2.6 12.26z" fill="#1e1e1e"/><path d="M94.91 51.86a1.31 1.31 0 0 0-1.54.61 1.49 1.49 0 0 0-.08 1.53 1.29 1.29 0 0 0 1.48.62 1.25 1.25 0 0 0 .88-1.29 1.38 1.38 0 0 0-.74-1.47zM113.67 54.6a1 1 0 0 0-1.38-.64 1.43 1.43 0 0 0-.89 1.19c0 2 2 1.11 2.15 1a1.28 1.28 0 0 0 .12-1.55zM92.7 86.84a8.9 8.9 0 0 0 8.07 1.71.48.48 0 0 0-.25-.92 9.22 9.22 0 0 1-7.43-1.3c-.3-.19-.67.27-.39.51zM99.93 61.28a3.23 3.23 0 0 0 2.12 3.72c1.71.53 3.52-.77 4.29-2.24.17-.32-.28-.72-.53-.41-.76.94-1.62 2.13-3 2.08-1.68-.06-2.29-1.62-2.32-3.05 0-.31-.51-.41-.57-.07z" fill="#1e1e1e"/><path d="M89.75 66.36a34.06 34.06 0 0 0 9.34 3c3.72.61 7.35.15 11.06.25-1.81 3.34-5 6.2-8.93 6.38a12.16 12.16 0 0 1-10-4.42 52.7 52.7 0 0 1-1.47-5.21z" fill="#787878"/><path d="M89.29 65.73c1.53.52 8.22 4.48 21.66 3.52-3.69 9.53-20.44 10.6-21.66-3.52z" fill="#5a2d22"/><path d="M103.23 75.54c-3.16-4.84-10.23-3.72-11.12-2.68 1.77 2.7 10.09 5.03 11.12 2.68z" fill="#f67566"/><path d="M92.1 72.28c2-1.1 8.27-1.91 11.6 3.39.35.48-.38 1-.73.56A8.45 8.45 0 0 0 92.39 73c-.39.17-.76-.45-.29-.72z" fill="#1e1e1e"/><path d="M88.7 65.61c.62 6.15 3.81 11.7 13 11.22 4.3-.29 7.75-3.75 9.55-7.43a.45.45 0 0 0-.35-.62c-3.63-.17-7.22.35-10.85-.15a32.81 32.81 0 0 1-10.74-3.5.46.46 0 0 0-.61.48zm1 .75a34.06 34.06 0 0 0 9.34 3c3.72.61 7.35.15 11.06.25-6.15 10.94-17 5.57-18.89 2a52.7 52.7 0 0 1-1.46-5.25zM96.18 78.46c1.4 1.6 4.86 1.79 6.7 1 .44-.2.12-1-.33-.78a7.31 7.31 0 0 1-6-.68.31.31 0 0 0-.37.48z" fill="#1e1e1e"/><path d="M48.61 140.38c-4.49 5.26-3.69 13.19-5.85 18-.42 3.65 3.43 11.13 3.71 13.84C45.7 177.44 51 179 52 183.31c.8 5.6 4.64 6.69 6.33 8 .02.03-7.46-51.26-9.72-50.93zM65.88 110.43c-2.43 3.93-7.63 4.74-8.86 6s-.6 3-1.43 4.27c-5.38 3-5.64 6.32-5.09 7 13.4-.37 22.44-19 22.44-19-2.47.05-5.14.17-7.06 1.73zM136.65 108.13c-1.52-1-4.5.39-8.51-5.92-2.69-1.93-5.24.45-9.84-1.44-3.07-1.2-4.87.43-5.1 1.4l24.8 10.47a4.19 4.19 0 0 0-1.35-4.51z" fill="#a9cc46"/><path d="M46 129.48c-.41.8 3.67 13.63 3.67 13.63 6.4-1.07 5.59-16.28 5.59-16.28-2.83.55-8.86 1.85-9.26 2.65zM145.29 111.8c-.56-.64-5.15.3-7.26.84l6.66 7.8c.23-3.05 1.16-8 .6-8.64z" fill="#f7e563"/><path d="M159.5 142.54c-.86-1.87-.69-4.1-1.65-5.92-1.21-2.29-5.74-3-7.66-12.88-1-2.16-5.38-4.29-5.38-4.29-2.23 1.3 4.2 63.63 7.12 70.09 2.64 1.81 4.37-2.94 4.8-4 1.51-3.89 4.34-7.47 4.3-11.65 0-3.33-1.93-6.62-1.12-9.86 2.2-4.39 1-8.08 1.11-10.16.14-2.43 2.98-5.43-1.52-11.33z" fill="#a9cc46"/><path d="M138.5 200.37c-.51.23 9.67 2.75 11.61 1.73s1.92-15.28 2-16.44c-1.32.08-7.22 11.83-13.61 14.71zM59.57 194.8s1.07 9.4 1.69 9.87c1.5 1.12 5.34-1.66 7.39-3.09a31.26 31.26 0 0 1-9.08-6.78z" fill="#f7e563"/><path d="M50.62 170.36c-11-10.85 1.05-30.51 1.05-30.51-1.27-13.35 14.19-24.35 14.19-24.35 7.08-9.28 21-13.85 27-13.39 6.1-1.87 10-.58 10-.58.22-.57 4.71-1.88 6.36.08 0 0 27 .73 36.24 21.16 0 0 5.5 4 4.62 9.91 15.2 13.89 7.5 32.41 7.5 32.41 2 3.15-.49 12.35-.79 13.86-2 13.28-7.89 10.56-7.89 10.56-3.72 6.91-10.7 16.55-31.84 15.63 0 0-.35 2.82-5.48 3.57-2.39.32-19 1.47-23.67-2.74a16.16 16.16 0 0 1-14.78-3.41c-9.5.63-16-10.29-16.24-16-.51.12-9.07-8.9-6.27-16.2z" fill="#cf9f59"/><path d="M92.86 101.68c-4.92 0-10.31 1.8-14.74 3.83a33.33 33.33 0 0 0-12.58 9.75c-.28.36.22.86.49.5a32.84 32.84 0 0 1 12.08-9.52C83 104 87.81 103.4 93 102.29c.35-.07.26-.61-.09-.61z" fill="#1e1e1e"/><path d="M90.21 104.65c4.18-2.87 8.79-4.19 13.66-2.07a.44.44 0 1 0 .34-.81c-4.6-1.92-10.82-1.39-14.32 2.47-.19.21.06.59.32.41z" fill="#1e1e1e"/><path d="M103 101.62a6.51 6.51 0 0 1 2.3-.48 4.12 4.12 0 0 1 3.59.76c.37.37.9-.18.57-.56-1-1.11-2.62-1.17-4-1-.76.1-2.31.21-2.85.89a.28.28 0 0 0 .39.39z" fill="#1e1e1e"/><path d="M107.16 102.13c3.22.45 6.46.44 9.68 1.05a46 46 0 0 1 8 2.25 39.39 39.39 0 0 1 12.21 7.41 36.07 36.07 0 0 1 6.07 7c.48.74.91 1.51 1.34 2.27.12.22.59 1.11.47.82.22.55 1.11.31.9-.25-1.51-3.94-5.07-8-8.39-10.82a40.26 40.26 0 0 0-11.44-6.95c-5.63-2.24-12.64-4-18.72-3.3-.27 0-.4.47-.07.52z" fill="#1e1e1e"/><path d="M143.59 122c1.77 1.35 3.37 2.45 4.54 4.41a12 12 0 0 1 1.69 6 .44.44 0 0 0 .88 0c0-4.29-2.6-9.47-6.91-10.94-.3-.1-.42.32-.2.48z" fill="#1e1e1e"/><path d="M146.84 130.31c4.91 4.87 9.51 9.21 11.33 16.16s.68 14.55-2.31 21.12c-.23.52.55 1 .78.45 2.91-6.61 4.26-13.86 2.59-21s-6.32-12.68-11.87-17.26c-.36-.29-.85.18-.52.52z" fill="#1e1e1e"/><path d="M142.91 186.31a11.26 11.26 0 0 0 7.72 3.72c2.64 0 4.05-2.91 4.91-5 1.38-3.43 1.87-7.28 2.57-10.89.58-2.94 1.35-6.43-.27-9.17a.34.34 0 0 0-.59.34c1.53 2.69.6 6.21 0 9-.49 2.51-.92 5.05-1.53 7.53s-1.49 5.8-3.85 7c-2.66 1.33-6.52-1.34-8.41-3.11a.42.42 0 0 0-.59.59z" fill="#1e1e1e"/><path d="M117 205.42a19.36 19.36 0 0 0 8.73-.23 83.76 83.76 0 0 0 9-2.19c6.68-2.2 11.13-6.85 14.34-13 .24-.45-.43-.86-.69-.4-3.55 6.2-7.94 10.79-15 12.83-2.42.71-4.89 1.25-7.35 1.79a37.34 37.34 0 0 1-9 .63.29.29 0 0 0-.07.56z" fill="#1e1e1e"/><path d="M88.16 206.06l-.26-.31-.45.58c6 3.62 13.23 3.26 20 3.14 2.64-.05 6 0 8.17-1.77s2.58-4.76 2.49-7.44c0-.61-1-.61-1 0 .13 3.53-.81 6.76-4.53 7.78-2.76.75-6 .52-8.81.51-5.72 0-10.86-.09-16-2.86-.49-.26-.8.58-.29.68l.4.08a.23.23 0 0 0 .23-.39z" fill="#1e1e1e"/><path d="M71.49 200.78c3.75 6.38 12.61 8 18.7 4.26a.44.44 0 0 0-.44-.77 12.87 12.87 0 0 1-10.27 1.44c-3.17-.9-5.34-3-7.54-5.27a.29.29 0 0 0-.45.34z" fill="#1e1e1e"/><path d="M56.54 186.53c-.19 1.09.6 2.64 1 3.63a20.79 20.79 0 0 0 3 6.18c2.27 2.87 8.74 8.82 12.8 6.61.5-.27.06-1-.44-.75-2.68 1.35-6.86-1.92-8.74-3.48a16.19 16.19 0 0 1-4.16-4.66 37.67 37.67 0 0 1-2.86-7.53c-.08-.29-.57-.34-.63 0z" fill="#1e1e1e"/><path d="M55.63 164.48a13.85 13.85 0 0 0-5.4 5.79c-1.38 2.56-.45 5.53.51 8.09a21.82 21.82 0 0 0 4.11 7c2.06 2.27 4.87 3.34 7.71 4.3.48.16.68-.59.21-.76-2.45-.86-4.92-1.73-6.84-3.56a18.54 18.54 0 0 1-3.85-5.8c-1.26-2.78-2.6-6.4-1-9.25a15.44 15.44 0 0 1 4.92-5.22.34.34 0 0 0-.35-.59z" fill="#1e1e1e"/><path d="M53.87 136.75c-4.49 4.21-7 10.86-7.82 16.85-.72 5.55-.48 12.89 4 16.85a.4.4 0 1 0 .49-.63c-4.82-3.51-4.42-12.49-3.47-17.67 1.07-5.8 3.83-10.34 7.26-15 .21-.3-.25-.62-.5-.38z" fill="#1e1e1e"/><path d="M51.91 139.86c-.44-6.27 2.19-11.56 6.15-16.28 3.49-4.16 7.37-8.38 12.77-9.86.55-.15.31-1-.23-.85-5.76 1.81-9.91 6.27-13.61 10.87s-6.48 10.2-5.7 16.12c.05.39.65.42.62 0zM113.41 102.29c1.88-3 5.12-.65 7.7-.3 3.24.44 6-1.19 8.15 2.3.74 1.2 1.33 2.36 2.69 3a15.3 15.3 0 0 0 2.68.61 3.67 3.67 0 0 1 3 4.65c-.11.58.77.82.88.25.4-2.15-.11-4.45-2.3-5.38s-4.15-.33-5.67-2.61a9.52 9.52 0 0 0-2.16-2.91 5.85 5.85 0 0 0-3.62-.76 17.9 17.9 0 0 1-6.32-.69c-1.93-.59-4.89-.87-5.44 1.69a.25.25 0 0 0 .45.19z" fill="#1e1e1e"/><path d="M138.62 112.69A30.75 30.75 0 0 1 143 112c1.38-.1 2.06-.27 2 1.24-.08 2.66-.61 5.29-.69 7.95 0 .42.59.39.64 0q.38-2.82.67-5.64c.1-1 .6-2.84.11-3.78-.88-1.7-6-.19-7.31.17a.38.38 0 0 0 .2.73z" fill="#1e1e1e"/><path d="M144.71 119.81c4.37 1.25 5.28 4.58 6.3 8.51a10.17 10.17 0 0 0 3.68 5.53c1.47 1.25 2.75 2.37 3.31 4.31a34.15 34.15 0 0 0 1.13 4.48 28.86 28.86 0 0 0 1.71 2.76c1.28 2.18.69 4.08.18 6.35a12.27 12.27 0 0 0-.29 3.87 13.07 13.07 0 0 1-.62 6.58 11.27 11.27 0 0 0-.27 7.21 14.82 14.82 0 0 1-1.07 10.88c-.68 1.44-1.46 2.82-2.09 4.29-.77 1.81-1.43 5.44-4.44 4.8-.52-.11-.75.7-.22.81 2.77.59 3.95-1.72 4.84-3.92 1.35-3.32 3.53-6.49 4.31-10 .94-4.16-1.78-8.08-.85-12.15.39-1.71 1.38-3.14 1.49-4.93.14-2.48-.68-4.71-.11-7.23a13 13 0 0 0 .69-4.49c-.19-1.54-1.09-2.6-1.87-3.88-1.83-3-1.22-6.57-3.91-9.13-1.44-1.38-3.2-2.43-4.12-4.27s-.93-3.93-1.62-5.82a8.21 8.21 0 0 0-6-5.26.37.37 0 0 0-.2.72z" fill="#1e1e1e"/><path d="M138.65 200.84a20.27 20.27 0 0 0 8.45 1.84c1.27 0 2.92.34 3.68-.82 1-1.51.92-4.42 1.11-6.17s.9-4.28.23-5.93c-.19-.49-1-.28-.8.22.48 1.18 0 3-.06 4.19a42 42 0 0 1-.82 6c-.48 2-1.74 1.73-3.62 1.63a21.92 21.92 0 0 1-7.8-1.61c-.42-.18-.78.41-.37.62zM59 193.74c.19 2.07.48 4.14.77 6.19.19 1.34.19 3.74 1.05 4.89 1.5 2 6.71-2 8-2.91.4-.28 0-.94-.38-.66a34.13 34.13 0 0 1-4.33 2.55c-.54.26-1.88 1.06-2.48.74-.41-.23-.51-1.11-.61-1.55-.69-3.07-.75-6.25-1.38-9.33-.07-.35-.66-.28-.63.08zM72.94 108.3a21.75 21.75 0 0 0-6.6 1.42 7.58 7.58 0 0 0-2.19 1.92 11.65 11.65 0 0 1-5.39 3.28 4 4 0 0 0-2.26 1.56c-1 1.61-.47 3.43-2.11 4.78-1.11.91-2.43 1.26-3.33 2.44a5.51 5.51 0 0 0-1.06 3.39.39.39 0 0 0 .77 0c.09-2.49 1.57-3.59 3.52-4.79a4.6 4.6 0 0 0 1.79-1.71c.49-.92.38-2 .77-2.93.87-2.09 2.73-2 4.44-2.72 2.33-1 3.42-3.67 5.68-4.57 1.91-.77 4.09-.82 6.08-1.3.42-.1.34-.82-.11-.77z" fill="#1e1e1e"/><path d="M55.25 126.45a37.94 37.94 0 0 0-7.58 1.77c-1.18.41-2 .58-2.06 1.85-.07 1.89 1 4.25 1.48 6 .7 2.38 1.49 4.74 2.16 7.13.15.54 1 .28.83-.23a91.8 91.8 0 0 1-3.4-11.26c-.1-.44-.54-1.56-.35-2s1.8-.82 2.34-1c2.21-.62 4.48-1 6.68-1.58.39-.11.33-.79-.1-.74z" fill="#1e1e1e"/><path d="M48.38 140.16a17.48 17.48 0 0 0-3.38 5.75c-.83 2.7-.54 5.6-1.43 8.31-.74 2.24-1.58 4.12-1.19 6.52.47 3 2.11 5.67 3 8.54.68 2.28.3 5.07 1.35 7.22.93 1.9 3 3 4 4.92 1.16 2.1 1 4.76 2.58 6.65 1.24 1.52 3.19 2.52 4.84 3.53.29.18.64-.25.37-.48-1.38-1.28-3.32-2.12-4.52-3.62-1.36-1.74-1.37-4.19-2.36-6.16-.87-1.74-2.22-2.77-3.44-4.22-1.63-1.92-1.15-4.87-1.74-7.2s-1.68-4.53-2.5-6.81c-1.15-3.19-.54-5.58.46-8.66.72-2.19.68-4.42 1.06-6.68.46-2.78 2-4.88 3.38-7.22.19-.31-.27-.68-.5-.39z" fill="#1e1e1e"/><path d="M108.35 144.76c1.62-.24 3.84 3.87 2.58 4.53-1.72.9-4.18-4.29-2.58-4.53zM107 125.17c1.46 1.1.86 6-.71 5.92-2.7-.09-1.38-7.48.71-5.92zM84.68 125.42c1.65.84 1.95 6.27.4 6.59-2.68.55-2.75-7.8-.4-6.59zM78 139.09c1.72-.67 4.54 5.47 3.32 6.51-1.71 1.4-5.82-5.6-3.32-6.51zM93 147c1.62-.24 2.86 5.63 1.6 6.29-1.75.9-3.95-5.94-1.6-6.29zM121.73 131.17c1.62-.23 2.73 5.92 1.47 6.57-1.72.9-3.79-6.23-1.47-6.57zM133.05 148.26c1.62-.25 2.71 6.07 1.93 6.47-1.74.87-3.69-6.19-1.93-6.47zM121.21 156.43c1.62-.26 2.44 4.81 1.65 5.2-1.73.87-3.41-4.93-1.65-5.2zM113.69 168.26c1.61-.26 3.27 5.38 1.43 5.87-2.23.6-3.19-5.58-1.43-5.87zM92 175.82c1.29-.21 3.23 5.29 1.75 5.66-1.83.46-3.2-5.43-1.75-5.66zM97.25 163.16c1.3-.21 2.57 4 1.1 4.36-1.79.48-2.5-4.13-1.1-4.36z" fill="#e7bc81"/><path d="M79.65 139.12a1.67 1.67 0 0 0-3 .61c-.61 1.69.89 4.08 1.9 5.35.73.93 2.54 1.78 3.22.3.41-.89-.09-2.12-.39-2.95a15.52 15.52 0 0 0-1.78-3.4c-.26-.39-.88 0-.62.36a13.76 13.76 0 0 1 1.49 2.81 10.36 10.36 0 0 1 .44 1.33 4.83 4.83 0 0 1 .21 1.07c-.6.77-1.11.91-1.54.42-.67-.37-1.12-1.55-1.48-2.2a5.14 5.14 0 0 1-.7-1.82c-.13-1 .53-2.35 1.84-1.46a.3.3 0 0 0 .41-.41z" fill="#1e1e1e"/><path d="M78.49 136.72a6.21 6.21 0 0 1 .9 2.61c.06.54.92.56.87 0a4.71 4.71 0 0 0-1.4-2.9c-.18-.2-.53.06-.37.29zM76.15 147.35a3.05 3.05 0 0 0 4-1.27c.17-.38-.3-.84-.63-.48a3.44 3.44 0 0 1-1.35 1.07 3.54 3.54 0 0 1-1.74.11c-.31-.05-.59.4-.24.57zM81.88 123.62c1.34 1 3.3 2.46 3.76 4.15.19.69.33 2.9-.12 3.51a1.11 1.11 0 0 1-1.28.22c-1.14-.51-.92-2.32-.76-3.37a19.59 19.59 0 0 1 2.2-6c.19-.37-.38-.7-.56-.32-1.23 2.59-2.92 5.55-2.38 8.54.24 1.36 1.27 2.45 2.7 1.82 1.23-.54 1-2.2 1-3.34-.06-2.62-2.13-4.33-4.16-5.78-.31-.23-.73.3-.42.55zM105.77 124.75c-1.29.85-1.58 3.22-1.45 4.63.12 1.23.9 2.91 2.35 2 2.21-1.37 2.57-7.58-1-6.79-.43.09-.24.7.17.64 1.84-.28 1.88 2.14 1.69 3.23a3.82 3.82 0 0 1-.31 1c-.38.84-.5 1.16-1.38.82s-.8-.6-.8-1.39a7.89 7.89 0 0 1 .21-1.61 6.07 6.07 0 0 1 .91-2.16c.16-.23-.15-.54-.39-.39z" fill="#1e1e1e"/><path d="M104.21 122.31l.11-.11-.55-.07c.3.47.65.88.91 1.37s.33 1 .57 1.54c.18.35.71.16.72-.2a4.43 4.43 0 0 0-1.72-3.18.36.36 0 0 0-.48.12l-.06.14a.32.32 0 0 0 .5.39zM107.78 125.81a6.08 6.08 0 0 1 .75-.59 4 4 0 0 0 .85-.44.37.37 0 0 0-.16-.62 1.54 1.54 0 0 0-1.09.37 2.2 2.2 0 0 0-.82.81c-.15.27.17.69.47.47zM105.58 131.43a5.4 5.4 0 0 0-.39 1.35 5 5 0 0 1-.85 1.46c-.32.4.2 1 .57.57a4.59 4.59 0 0 0 1-1.64 2.26 2.26 0 0 0 .13-1.74.27.27 0 0 0-.45 0zM121.56 130.86c-1.74 0-1.27 2.6-1 3.71s.77 3.84 2.28 3.7 1.35-1.66 1.31-2.68c-.06-1.55-.37-3.72-1.74-4.68-.4-.27-.77.37-.38.64.84.58 1.13 2 1.25 2.91.06.45.38 2.49-.12 2.8-.81.52-1.49-1.67-1.68-2.27-.25-.8-1-3.24.15-3.57a.29.29 0 0 0-.08-.56z" fill="#1e1e1e"/><path d="M122 131.31a.33.33 0 0 0 0-.66.33.33 0 0 0 0 .66zM133.1 148c-1.65.23-1.22 2.71-.93 3.79s.87 3.47 2.17 3.67 1.33-1.83 1.28-2.63c-.12-1.77-.61-3.67-2.17-4.7a.32.32 0 0 0-.39.51 5.14 5.14 0 0 1 1.54 2.56c.11.46.59 2.57.14 3.06-.77.84-1.47-1.39-1.62-1.81-.39-1.17-1.1-3.05.17-4a.25.25 0 0 0-.19-.45z" fill="#1e1e1e"/><path d="M134.12 149a6 6 0 0 0 .32-2.6.33.33 0 0 0-.66 0c0 .85-.05 1.69-.14 2.54 0 .29.39.31.48.06zM132.14 149.36a3.32 3.32 0 0 0-1.45-1 9.26 9.26 0 0 0-2.52-.12c-.39 0-.53.65-.1.71.79.12 1.64 0 2.41.19.56.13.86.74 1.45.72a.31.31 0 0 0 .21-.53zM133.7 154.67a6.26 6.26 0 0 1-.39 1.47 6.18 6.18 0 0 1-.95 1.21.38.38 0 0 0 .46.6 3.38 3.38 0 0 0 1.49-3.28.32.32 0 0 0-.61 0zM111.5 147.5a5.74 5.74 0 0 0-3.57-3.21h-.05c-.17-.62-.29-1.21-.16-1.35a.25.25 0 0 0-.24-.42c-.4.09-.46.35-.45.74a16.69 16.69 0 0 0 .76 3.31c.3 1.19 1 3.41 2.63 3.34 1.37-.08 1.47-1.43 1.08-2.41zm-2 1.19a5.15 5.15 0 0 1-1.15-2.78c0-.15-.15-.48-.27-.86a5.21 5.21 0 0 1 2.14 1.75 3.74 3.74 0 0 1 .65 1.27c.23 1.11-.66 1.23-1.35.62zM120.9 156.06c-1.25.9-1 2.39-.48 3.66.29.73 1.28 2.79 2.41 2.4s.42-2.76.23-3.44c-.27-.91-1-3.06-2.23-2.44a.32.32 0 0 0 .25.58c1.14-.39 2.09 4.5 1.35 4.52s-1.22-1.49-1.4-1.94c-.38-1-.67-2.11.18-2.93.21-.2-.07-.58-.31-.41zM95.26 150.83a10 10 0 0 0-.63-3.38.29.29 0 0 0-.48-.1c-.42-.67-1.18-1.26-1.84-.6-1.27 1.27-.15 4.5.38 5.85.33.83 1.34 2.18 2.21 1a4.94 4.94 0 0 0 .36-2.77zm-1.2 1.78c-.46.56-.72.43-.79-.42a12.62 12.62 0 0 1-.66-2.33c-.07-.42-.3-1.94 0-2.35.55-.77 1.07.06 1.39.6a.22.22 0 0 0 .2.1 14.71 14.71 0 0 1 .36 2.38 4.38 4.38 0 0 1 0 1.2.64.64 0 0 1-.5.82zM95.27 160.16c.24.5.57 1 .81 1.47a11.45 11.45 0 0 1 .63 1.69.37.37 0 0 0 .72-.19 7.07 7.07 0 0 0-1.7-3.33.3.3 0 0 0-.46.36z" fill="#1e1e1e"/><path d="M96.87 162.89c-1 .87-.77 2.55-.39 3.66.25.72.84 2.09 1.83 1.66s.9-2 .87-2.75a2.8 2.8 0 0 0-1.62-2.65c-.3-.12-.51.38-.22.53a2.16 2.16 0 0 1 1.22 1.83c0 .4 0 1.91-.34 2.19l-.65-.15a3.38 3.38 0 0 1-.27-.58 5.08 5.08 0 0 1-.31-.93 3.51 3.51 0 0 1 .26-2.51.24.24 0 0 0-.38-.3z" fill="#1e1e1e"/><path d="M97.22 167.5a11 11 0 0 0-1 1.21 9.72 9.72 0 0 0-.94 1.2.37.37 0 0 0 .57.45 6.53 6.53 0 0 0 1-1.17 6.88 6.88 0 0 0 .88-1.34.29.29 0 0 0-.46-.35zM98 167.87a3.36 3.36 0 0 0 3.23 1.66.36.36 0 0 0 0-.68 9.88 9.88 0 0 1-1.51-.4 5.19 5.19 0 0 1-1.25-.94.3.3 0 0 0-.47.36zM113.56 168.14c-1.67.28-1.1 2.52-.86 3.65.19.86.75 3.2 2.08 3s1.48-2.56 1.33-3.51-1-3.29-2.29-3.33a.28.28 0 0 0 0 .56c.85 0 1.41 1.84 1.55 2.44s.28 2.58-.68 2.77c-.56.11-.67-.25-.9-.82a7.21 7.21 0 0 1-.31-1.1c-.21-.9-.77-2.69.27-3.22.28-.14.07-.51-.19-.46z" fill="#1e1e1e"/><path d="M113.83 176.33a5.45 5.45 0 0 1 1.52-1.94c.36-.27 0-.87-.36-.62a3.37 3.37 0 0 0-1.7 2.41c0 .29.41.38.54.15zM91.46 175.43a5.69 5.69 0 0 0-.15 4.4c.32.83 1.54 2.88 2.75 2.42s.72-2.54.49-3.37c-.36-1.33-1.15-3-2.6-3.41a.38.38 0 0 0-.2.73 4 4 0 0 1 2 2.7 5 5 0 0 1 .21 1.29 4 4 0 0 1 0 .6c-.22.61-.47.72-.76.35-.75-.33-1.25-1.6-1.43-2.33a6.9 6.9 0 0 1 .17-3.19c.06-.26-.35-.47-.47-.19z" fill="#1e1e1e"/><path d="M88.56 173.74a4.89 4.89 0 0 0 1.37 1.31c.51.4 1 .79 1.57 1.15s.81-.4.4-.68-1.08-.74-1.59-1.13a6.34 6.34 0 0 0-1.46-1c-.22-.09-.39.19-.29.38zM92.31 183.92a11.42 11.42 0 0 0 .73-1.13 7.43 7.43 0 0 0 .67-1.16c.12-.35-.36-.57-.59-.34a5.3 5.3 0 0 0-.77 1.1 7.46 7.46 0 0 0-.62 1.19c-.12.31.37.61.58.34z" fill="#1e1e1e"/><path d="M80.46 161.58c1.29-.22 3.39 7.24 1.56 7.51s-2.97-7.27-1.56-7.51z" fill="#e7bc81"/><path d="M80.77 161.47c-1.45-1-1.49 2.13-1.41 2.76a15.56 15.56 0 0 0 1.16 3.89c.22.53.48 1.55 1.16 1.69 1.21.24 1.55-1.88 1.52-2.63a12.09 12.09 0 0 0-.9-3.63c-.29-.79-.54-1.71-1.36-2.09a.31.31 0 0 0-.31.53c1 .63 2.74 6.06 1.47 6.79s-2.84-7.1-1.52-6.85a.25.25 0 0 0 .19-.46z" fill="#1e1e1e"/><path d="M358.24 181.2c-1.31-3.94 1.89-3.3 2.2-10.1a24.75 24.75 0 0 1-3.18-5.64l7.76-2.53a77.28 77.28 0 0 1 2.16 9.57c2.68 8-3.78 24.11-5 14.84-4.28 3.55-5.58-.34-3.2-1.74-1.61.22-5.48.2-.74-4.4z" fill="#f6a87b"/><path d="M358 181a5.6 5.6 0 0 0 .43.54c-1.16 1.16-4.6 4.2.39 3.87v.74c-6.54.07-2.3-3.67-.82-5.15z" fill="#1e1e1e"/><path d="M357.2 187.34c.23-1.75 2.81-2.51 3.55-3.89a16.65 16.65 0 0 0 .7-3.81c.29-.48.62-.93.91-1.41v-.06c-.13 1.11-.49 5-1.31 6-.54.62-5.95 4.4-.91 4.13a3.58 3.58 0 0 0 1.91-1.26 10.34 10.34 0 0 0-.07 1.11c-2.21 1.76-4.98.78-4.78-.81zM357.62 165.34c.87 1.72 1.79 3.4 2.78 5 .36.57 0 .87-.08 1.22a35.73 35.73 0 0 1-3.31-5.95z" fill="#1e1e1e"/><path d="M363.05 176.79c.93 5.46-.73 8.91-.52 11 0 .4.56 3.66 2.46-.11a20.33 20.33 0 0 0 2.28-12.64 112 112 0 0 0-2.62-12l.69-.22a76 76 0 0 1 2.92 15.58c.08 1.37-2.51 14.1-5.65 11.58-1.84-1.39.44-8.08-.08-11.87.04-.04.37-.94.52-1.32z" fill="#1e1e1e"/><path d="M363.92 175.26c-.66 1.83-2.55 6.57-4.59 6.87-1.41.21-2.84-2-.81-5.17 1.53-2.5 1.65-5.42 1.66-8.3a.38.38 0 1 1 .76 0c.38 8.59-3.89 9.18-2.5 12s4.52-4.69 5-5.56a.25.25 0 0 1 .46.19z" fill="#1e1e1e"/><path d="M236.6 153.2a25.28 25.28 0 0 1-4.47 4.77c-1.31 6.67 2 6.82-.26 10.34 3.51 5.59-.25 4.68-1.75 4.09 2 1.93-.21 5.4-3.53.94-3.4 8.71-5.83-8.52-1.34-15.61a78.35 78.35 0 0 1 4.3-8.68c2.37 1.35 4.72 2.74 7.05 4.15z" fill="#f6a87b"/><path d="M232.16 168.12a5.07 5.07 0 0 1-.55.42c.85 1.4 3.47 5.17-1.29 3.66-.07.24-.14.48-.22.72 6.36 1.68 3.13-2.92 2.06-4.8z" fill="#1e1e1e"/><path d="M231.42 174.52c.19-1.76-2.14-3.11-2.52-4.62a16.43 16.43 0 0 1 .22-3.88c-.17-.53-.38-1.05-.55-1.58v-.06c-.14 1.11-.72 5-.15 6.11.37.73 4.73 5.69-.1 4.23a3.61 3.61 0 0 1-1.56-1.68 8.16 8.16 0 0 1-.19 1.1c1.74 2.26 4.68 1.97 4.85.38zM236.28 153l.57.34a35.71 35.71 0 0 1-4.68 5.05c0-.35-.28-.74.21-1.21 1.32-1.27 2.62-2.7 3.9-4.18z" fill="#1e1e1e"/><path d="M229.9 149.25a112.37 112.37 0 0 0-5.35 11 20.25 20.25 0 0 0-.79 12.82c1 4.1 2.23 1.07 2.37.68.7-2-.09-5.76 2.11-10.85 0 .41.16 1.36.19 1.42-1.4 3.56-.78 10.6-2.9 11.52-3.65 1.69-3.14-11.28-2.73-12.59a75.31 75.31 0 0 1 6.46-14.33z" fill="#1e1e1e"/><path d="M227.76 161.19c.2 1.93.91 7 2.83 7.76 1.31.54 3.24-1.29 2-4.83-.89-2.79-.32-5.66.37-8.46a.39.39 0 1 0-.75-.18c-2.41 8.25 1.6 9.84-.41 12.22s-3.27-5.63-3.56-6.59a.25.25 0 0 0-.49.08z" fill="#1e1e1e"/><path d="M229.21 148.45l-4.16 9.55s4.6.17 7 3.12c0 0 .16-8.21 2.2-9.54z" fill="#1e1e1e" opacity=".15"/><path d="M294.19 93.44c-11.51.47-36.51 12.11-42.74 20.27-2 2.63-25 37.11-24.94 38s7.24 6.8 8.31 6.79c2.42 0 23.94-34.1 26.49-35.8s21.12-5.65 27.26-6" fill="#e45c4c"/><path d="M323.43 201h-18.95c1.35 7.8 3.23 21.95 4.47 35.6 1.08 11.9 6.31 41.31 7.86 53.16 1.09 8.3 2.78 28.35 3.47 28.86 4.84 3.56 11.55-.77 11.58-1.77.28-8.69-3.12-74.07-8.43-115.85zM272.37 201c-.54 39.31 1.34 78.62 1.76 118 3.58 2.73 10.15 1.28 10.38-.53.73-5.6 1.93-35.34 2.69-42.58 2.27-21.48 3.89-59.82 5.18-74.84z" fill="#4069aa"/><path d="M331.41 290.75q-1.49-27.6-3.86-55.14c-1-11.52-2.07-23.08-3.55-34.58h-1.08q.68 5.33 1.27 10.65c2.35 21.28 4 42.65 5.32 64q.83 13 1.43 26c.13 3 .82 13 .43 14.68-.44 1.87-3.71 2.75-5.38 3-1.4.21-4.44.26-5.34-1.1-.23-.36-1.45-11-1.94-15.8-1-9.81-2.35-19.52-3.91-29.25-1.83-11.47-3.87-22.94-5.14-34.49-1.39-12.59-2.45-25.26-4.7-37.74h-1c1 5.49 1.71 11 2.4 16.53 1.42 11.23 2.31 22.49 4 33.69 1.56 10.5 3.33 21 4.93 31.45 1.38 9 3.92 35 4.41 35.87 1.58 3 7.1 2 9.52.91 2.14-1 3.16-1.75 3.16-4 0-1.77-.63-18.28-.97-24.68zM291.92 201c-.3 3.47-.53 6.94-.75 10.41-1.39 21.81-2.55 43.61-4.52 65.37-.85 9.41-2.07 36.35-2.45 40.35-.25 2.64-3.11 3-5.43 2.88-2-.09-4-.41-4.21-2.56s-.06-4.68-.1-7c-.56-35.92-2.1-71.83-1.7-107.76v-1.71h-.87c-.36 24 .23 48 .82 72q.3 12 .57 23.95c.09 4-.09 21.34.5 22.28.79 1.24 3.69 1.58 4.95 1.63 1.71.08 4-.13 5.36-1.23 1.6-1.28 1.17-4.88 1.29-6.7.61-8.95 1-17.93 1.53-26.89.46-8 1.31-15.88 1.92-23.83 1.51-19.5 2.27-39.06 3.76-58.56.07-.89.13-1.79.2-2.69z" fill="#1e1e1e"/><g opacity=".2" fill="#1e1e1e"><path d="M304.48 201c1.35 7.8 3.23 21.95 4.47 35.6 1.08 11.9 6.31 41.31 7.86 53.16 1.09 8.3 2.78 28.35 3.47 28.86a7.28 7.28 0 0 0 4.77 1.37c.27-3-14.1-95.69-11.11-101.7s11.12-3.29 11.12-3.29-1.39-11.77-1.63-14zM272.37 201c0 3.79-.06 12.33-.06 12.33s11.95-2.14 13.12 10.12c2.77 29-3.7 89.47-3.8 96.8 1.6-.34 2.78-1 2.88-1.83.63-4.86 5.68-93 7.94-117.42z"/></g><path d="M365.29 163.11l2.29 10.13s-4.9-.15-7.78 2.3c0 0 1.74-8.65 0-10.34z" fill="#1e1e1e" opacity=".15"/><path d="M229.61 146.52c2.14 3.64 5.66 4.84 9.6 7-.94 2-2.21 3.25-4.39 5a21.19 21.19 0 0 1-8.27-7c1-2.25 1.93-2.62 3.06-5z" fill="#af2f25"/><path d="M294.19 93.12c-6.94.17-13.94 2.87-20.27 5.53-6.73 2.84-13.59 6.22-19.21 11-2.7 2.28-4.61 5.16-6.67 8-2.37 3.27-4.46 6.77-6.67 10.14-4.25 6.48-8.58 12.9-12.75 19.43-.68 1.08-2.4 3-2.53 4.29-.14 1.52 2.45 3.14 3.44 4 1.17 1 3.65 3.65 5.32 3.54.88-.05 1.68-1.19 2.19-1.77 1.24-1.42 2.39-2.92 3.51-4.44l-.8-.63c-.68.93-3.82 5.48-4.78 5.77-1.4.41-7.91-5.57-8-6.2 0-.39.74-1.34.92-1.64 3.31-5.51 7-10.82 10.49-16.18 4.49-6.8 8.77-13.76 13.65-20.28 4.44-5.93 12.28-9.66 18.83-12.7 7.24-3.35 15.27-6.54 23.31-7.16.43-.08.45-.71.02-.7z" fill="#1e1e1e"/><path d="M312 95.81c11.22 2.63 34.12 19 38.14 28.47 2 2.82 17.52 41.16 17.31 42.05s-8.39 5.31-9.44 5.1c-2.37-.48-17.07-38-19.25-40.16s-19.67-9.55-25.64-11" fill="#e45c4c"/><path d="M239.11 153c-1.7-.89-3.39-1.75-5-2.8-1.34-.89-3.55-2.13-4.11-3.76-.17-.5-1-.29-.81.23.52 1.56 2.19 2.67 3.48 3.57a26 26 0 0 0 6.16 3.38.34.34 0 0 0 .27-.62z" fill="#1e1e1e"/><path d="M353.79 164.23s7.21-.54 10.85-4.77a18.24 18.24 0 0 1 2.82 6.87c-3.11 2.3-6 4.58-9.72 5.09a50.25 50.25 0 0 1-3.95-7.19z" fill="#af2f25"/><path d="M367.28 164.17c-2.42-6.56-5.25-13-7.92-19.44-3.07-7.39-5.61-15.48-9.7-22.38-4-6.65-10.74-11.89-17-16.29-6.92-4.92-15-10-23.56-11.33-.4-.06-.59.54-.17.63 7.26 1.53 14 5.26 20.17 9.31 6.32 4.15 12.54 9 17.38 14.84s15.6 34.13 18.41 41.17c.52 1.3 2.14 3.91 2 5.37-.12 1.24-8 5.12-8.76 4.89-.38-.11-1.68-2.42-2-3.1l-.81.56a9.78 9.78 0 0 0 1.86 3c.94.89 1.85.37 3-.12 2.23-1 5.71-2.3 7.32-4.21.76-.95.18-1.83-.22-2.9zM239.11 153c-1.7-.89-3.39-1.75-5-2.8-1.34-.89-3.55-2.13-4.11-3.76-.17-.5-1-.29-.81.23.52 1.56 2.19 2.67 3.48 3.57a26 26 0 0 0 6.16 3.38.34.34 0 0 0 .27-.62z" fill="#1e1e1e"/><path d="M364.58 159.08c-3.13 2.93-6.41 4.71-10.79 4.72a.44.44 0 0 0 0 .87 14.44 14.44 0 0 0 11.34-5.17c.25-.33-.27-.68-.55-.42z" fill="#1e1e1e"/><path d="M326.11 100.08l.59 1.56-3 4.39-1.5-.34c.37-3.69 3.91-5.61 3.91-5.61z" fill="#6d6652"/><path d="M316.52 97.21c-.41.06-4.27 3.66-4.51 7.33 1.42 7.35 10.35.63 10.35.63.31-1.28 2.61-4.82 3.86-5.26-2.4-1.76-8.04-2.97-9.7-2.7z" fill="#bab3a6"/><path d="M269.74 99.65c1.22.22 2.25 6.85 2.25 6.85l-1.83.57s.28-5.37-2.46-6.3c.56-.64.82-1.34 2.04-1.12z" fill="#6d6652"/><path d="M271.85 106.14c-.2-1.69-.82-5.61-2.27-6.5 2.49-1.2 8.64-3.58 8.8-3.54s3.49 4.66 3.18 7.94" fill="#bab3a6"/><path d="M280.86 99.71c-.4-1.06-.88-2.81-1.8-3.54s-2.3 0-3.44.45a51.16 51.16 0 0 0-6.22 2.72.2.2 0 0 0-.09.09 3.17 3.17 0 0 0-1.69 1.1.41.41 0 0 0 .08.63c2.1 1 1.93 4 2.11 5.91 0 .36.64.52.7.09.26-1.91-.18-5.16-2-6.43a4.55 4.55 0 0 1 1-.63c1.49 1.42 1.69 4.22 2 6.12a.29.29 0 0 0 .57-.08c-.14-2-.44-4.84-2-6.41a41.47 41.47 0 0 1 4.25-1.91c1.24-.49 3.4-1.86 4.47-.69 1.25 1.38 2.24 5.06 2.28 6.91 0 .5.8.51.78 0a13.79 13.79 0 0 0-1-4.33zM326.54 100.17a.44.44 0 0 0-.11-.63 16.67 16.67 0 0 0-7-2.57c-1.38-.2-2.84-.49-4 .43-1.74 1.37-3.43 4.86-3.78 7a.36.36 0 0 0 .7.2 20.88 20.88 0 0 1 2.83-5.88c2-2.79 7.56-.5 10.23 1.14a9.54 9.54 0 0 0-3.43 5.17.39.39 0 0 0 .75.21 11.22 11.22 0 0 1 3.24-4.72c.08.29.51.83.24 1.16a7.51 7.51 0 0 0-2.77 3.91.41.41 0 0 0 .78.22 6.91 6.91 0 0 1 2.6-3.62.41.41 0 0 0 .19-.35 4.07 4.07 0 0 0-.47-1.67z" fill="#1e1e1e"/><path d="M314.16 103.5c-1.34 4.81-11.66 1.24-10.93 0 1.59-2.61-2.75-14.49-2.75-14.49 10.86.5 11.33 5.48 10.7 6.77 0 .05 4.33 2.91 2.98 7.72z" fill="#e45c4c"/><path d="M314.39 99.09a5.85 5.85 0 0 0-2.81-3.16c1.74-5.45-7.68-6.9-11.1-7.29-.34 0-.36.35-.36.63-.05 20.84 12.22 16.13 13.29 15.25 1.59-1.32 1.67-3.63.98-5.43zm-2.48 5.33c-12.2 5.69-8.6-10.66-10.72-14.86 3.29.42 10.81 1.78 9.62 6a7.57 7.57 0 0 0-2.43-.5c-.43 0-.42.63 0 .67 4.05.36 8.37 6.01 3.53 8.69z" fill="#1e1e1e"/><path d="M282.19 100.33c9.13 8.27 12.05-11.61 12.05-11.61-2-.14-10.91-.47-11.58 2.72-3.12.12-8.1 5.33-.47 8.89z" fill="#e45c4c"/><path d="M294.24 88.31c-1.73-.1-12.09-.43-11.9 3a.24.24 0 0 0 0 .08c-3 .66-5.52 2.31-4 6.13.64 1.59 1.85 2.3 3.33 3.06a15.5 15.5 0 0 1 4.55 3.71c2.78 3.06 8.46-15.96 8.02-15.98zm-10.85 12.23c-1.34-.87-3.11-1.29-4-2.76a5.74 5.74 0 0 1-.46-3.47c.69-2.5 4.63-2.52 6.64-2.68.43 0 .44-.69 0-.67a20.25 20.25 0 0 0-2.4.23c.07-1.89 7.09-2.09 9.95-2.08-3.23 2.9-6.22 8-4.94 12.25 1.1 3.64-.7 1.85-4.79-.82z" fill="#1e1e1e"/><path d="M311 96.16a3.28 3.28 0 0 0-.78-3.75c-1-1-5.52-3.35-9.78-3.35 0 0 4.24 11.48 3 14 .53.41 12.17-2.38 5.19-7.67-.09-.08 2.37.77 2.37.77zM293.5 112.67c-6.59-13.54-15.6-14.36-9.84-21.23-1 0-.74.08-1 0 .42-3.19 9.55-2.86 11.58-2.72 0 0-1.06 22.38-.74 23.95z" fill="#1e1e1e" opacity=".2"/><path d="M287.39 22.88c3 9.7 25.82 23.35 25.4 40.28.45 7.1-5.2 15.07-6.94 22-1.35 5.36-.85 9.5-.66 15 1.29 8-13.27 11.12-16.17-.52-1.24-4.32-1.52-8.89-3.07-13.11-.92-2.49-10.66-9-13.16-22.56-2.9-15.52 14.94-29.22 14.6-41.09z" fill="#f6a87b"/><path d="M272.92 66.5a33.16 33.16 0 0 0 9.37 16.21 12.17 12.17 0 0 1 3.49 4.81c1.18 2.76 2.38 11.75 3.61 14.81 1.91 4.74 6.61 6.11 11.41 5 6.65-1.59 4.61-8.8 4.57-13.91-.05-7.35 2.79-13.17 5.49-19.8 8.15-18.15-5.75-30-10.23-34.88s-10.31-9.3-12.76-15.56c0-.92-1-.89-1-.27 0 8.88-7 15.08-10.38 22.74-1.49 3.4-5.78 14.11-3.57 20.85zm8.23-27c3-4.6 6-9.26 6.62-14.74 2.27 4.88 6.62 8.6 10.27 12.42 5.15 5.39 10.23 11.35 13 18.37 5 12.75-5.83 23.11-6.47 35.49-.16 3.19.16 6.37.2 9.55-.11 6.14-6.44 6.21-7.86 6.14-8.06-.42-8-10.42-9.37-16.39-.58-2.54-1.23-4.74-3-6.68-2.22-2.46-4.72-4.48-6.57-7.28-4.69-7.64-8.51-18.81 3.18-36.93z" fill="#1e1e1e"/><path d="M301.92 41.34a56 56 0 0 0-7-1.26.39.39 0 0 1 .1-.77 16 16 0 0 1 7 1.53.27.27 0 0 1-.13.5zM284.09 41.09a8.91 8.91 0 0 0-5.64 2.91.44.44 0 0 1-.62-.62c1.62-1.61 3.73-3.27 6.17-2.95.33 0 .48.55.09.63z" fill="#1e1e1e"/><path d="M312.41 43.7c2.17 16.1-3.76 18.18-16.66 17.09-1.05-.48-6.68-10.36-5.1-14s18.5-5.45 21.76-3.09zM285.37 47c2.5 18.63-2.84 17.53-13.63 17.69-1.08-.68-7.34-10.92-5.3-14.66 1.49-2.75 15.61-5.03 18.93-3.03z" fill="#fff"/><path d="M268 60c1.14 2.63 2 5.57 5.4 5.59 1.77 0 9.58-1.27 11.07-2.23 1.09-.7 1.24-1.72 1.46-3a91.4 91.4 0 0 0 .82-10.73c.88-.9 1.91-.68 3-.71.06 1.27 2.21 11.53 6.86 13 3 1 7.15-.34 10.07-1.07 3.41-.86 4.77-1.36 5.64-4.79s1.74-7.22 1.43-10.65c-.24-2.57-3.05-3.88-4.44-3.4-1.88.13-11.83-.17-16.49 2a4.77 4.77 0 0 0-3 3.45 3.56 3.56 0 0 0-3.36.42 2.42 2.42 0 0 0-1.68-1.88c-3.14-1-11.76-.54-16.33 1.53C263.13 50 266.25 56 268 60zm23.16-12.13c.29-2.08 2.7-2.77 4.44-3.26 5.33-1.5 13.57-1.33 13.7-1.32 5.88 0 1.54 13 1.31 13.72-.54 2.38-5.8 2.91-7.43 3.21-2.62.5-6.07 1.51-7.78-1.06-2.24-2.62-4.56-9.22-4.26-11.29zm-23.48 1.78c2.59-2.77 14-3.07 16.79-2.44 2 .68.58 13.11-.46 14.45-1 1.58-12.48 4.81-13.73.25-.97-1.91-5.22-10.31-2.62-12.26z" fill="#1e1e1e"/><path d="M298.12 51.69a1.31 1.31 0 0 1 1.54.6 1.48 1.48 0 0 1 .08 1.57 1.3 1.3 0 0 1-1.48.61 1.23 1.23 0 0 1-.87-1.29 1.34 1.34 0 0 1 .73-1.49zM279.36 54.42a1 1 0 0 1 1.38-.64 1.44 1.44 0 0 1 .89 1.19c0 2-2 1.12-2.15 1a1.27 1.27 0 0 1-.12-1.55zM300.33 86.66a8.9 8.9 0 0 1-8.07 1.71.48.48 0 0 1 .25-.92 9.26 9.26 0 0 0 7.43-1.29c.3-.2.67.26.39.5zM293.1 61.1a3.24 3.24 0 0 1-2.1 3.7c-1.71.52-3.52-.78-4.29-2.24-.17-.33.28-.73.53-.41.76.93 1.62 2.12 3 2.08 1.68-.06 2.29-1.62 2.32-3.05 0-.32.51-.42.57-.08z" fill="#1e1e1e"/><path d="M301.64 71.17a12.16 12.16 0 0 1-10 4.42c-3.94-.18-7.12-3-8.94-6.38 3.72-.1 7.34.36 11.07-.25a34.06 34.06 0 0 0 9.34-3 52.7 52.7 0 0 1-1.47 5.21z" fill="#787878"/><path d="M303.61 65.3c-1.53.52-8.22 4.48-21.66 3.52 3.68 9.53 20.44 10.6 21.66-3.52z" fill="#5a2d22"/><path d="M289.67 75.12c3.15-4.85 10.25-3.73 11.12-2.69-1.79 2.7-10.09 5.03-11.12 2.69z" fill="#f67566"/><path d="M300.8 71.85c-2-1.1-8.28-1.91-11.61 3.39-.35.48.39 1 .74.56a8.45 8.45 0 0 1 10.58-3.25c.37.19.76-.43.29-.7z" fill="#1e1e1e"/><path d="M303.56 64.7a32.87 32.87 0 0 1-10.75 3.5c-3.62.5-7.21 0-10.84.15a.45.45 0 0 0-.35.62c1.79 3.68 5.25 7.14 9.55 7.43 9.22.48 12.41-5.07 13-11.22a.46.46 0 0 0-.61-.48zm-1.92 6.47c-1.94 3.61-12.74 9-18.9-2 3.72-.1 7.34.36 11.07-.25a34.06 34.06 0 0 0 9.34-3 52.7 52.7 0 0 1-1.51 5.25zM296.51 78a7.31 7.31 0 0 1-6 .68c-.45-.17-.78.58-.33.78 1.84.81 5.3.62 6.7-1a.31.31 0 0 0-.37-.48z" fill="#1e1e1e"/><path d="M247.6 133.54c-5.12 4.62-5.36 12.6-8.13 17.12-.88 3.56 2 11.48 1.89 14.2-1.44 5 3.65 7.26 4.07 11.68.07 5.66 3.73 7.24 5.24 8.78 0 0-.78-51.82-3.07-51.78zM268.61 106.07c-2.92 3.58-8.17 3.71-9.56 4.79s-1 2.89-2 4c-5.72 2.28-6.41 5.54-5.95 6.27 13.34 1.36 24.71-15.91 24.71-15.91-2.43-.22-5.1-.45-7.2.85zM339.08 113c-1.37-1.2-4.51-.19-7.67-7-2.41-2.27-5.25-.24-9.57-2.71-2.89-1.59-4.89-.21-5.24.73l23.27 13.59a4.19 4.19 0 0 0-.79-4.61z" fill="#a9cc46"/><path d="M246.42 122.38c-.51.74 1.88 14 1.88 14 6.48-.24 7.7-15.38 7.7-15.38-2.92.14-9.07.64-9.58 1.38zM347.17 117.71c-.47-.71-5.14-.36-7.3-.11l5.59 8.61c.63-3 2.19-7.78 1.71-8.5z" fill="#f7e563"/><path d="M357.28 150c-.6-2-.14-4.16-.86-6.08-.91-2.43-5.31-3.71-5.93-13.77-.7-2.27-4.78-5-4.78-5-2.38 1-4.08 63.64-2 70.42 2.38 2.14 4.72-2.35 5.28-3.38 2-3.67 5.27-6.85 5.78-11 .4-3.31-1.06-6.82.16-9.92 2.75-4.07 2-7.88 2.42-9.93.43-2.26 3.65-4.87-.07-11.34z" fill="#a9cc46"/><path d="M329 204.66c-.53.16 9.23 4 11.29 3.21s3.89-14.9 4.09-16c-1.33-.13-8.7 10.76-15.38 12.79zM251.43 188.92s-.16 9.45.4 10c1.34 1.31 5.51-1 7.72-2.11a31.21 31.21 0 0 1-8.12-7.89z" fill="#f7e563"/><path d="M245.72 163.52c-9.55-12.19 5-30.11 5-30.11.47-13.4 17.22-22.31 17.22-22.31 8.23-8.29 22.66-11 28.53-9.78 6.29-1.07 10 .72 10 .72.29-.53 4.92-1.26 6.29.91 0 0 26.69 4.21 33.21 25.67 0 0 4.93 4.63 3.29 10.43 13.27 15.74 3.24 33.1 3.24 33.1 1.59 3.39-2.08 12.19-2.58 13.65-3.73 12.9-9.19 9.45-9.19 9.45-4.58 6.36-12.75 15-33.59 11.36 0 0-.72 2.76-5.9 2.84-2.41 0-19.05-1-23.11-5.79a16.14 16.14 0 0 1-14.22-5.29c-9.5-.61-14.56-12.28-14-17.93-.59.01-7.91-10.05-4.19-16.92z" fill="#cf9f59"/><path d="M296.46 100.88c-5-.64-11 .54-15.77 2.11a33.34 33.34 0 0 0-13.08 7.86.35.35 0 0 0 .5.5 32.77 32.77 0 0 1 13.5-7.95c4.95-1.52 9.77-1.48 14.85-1.89a.32.32 0 0 0 0-.63z" fill="#1e1e1e"/><path d="M293.51 103.47c4.56-2.34 9.24-3 13.83-.23a.44.44 0 0 0 .45-.76c-4.37-2.54-10.56-2.81-14.59.58-.24.2.06.54.31.41z" fill="#1e1e1e"/><path d="M306.54 102.16a6 6 0 0 1 2.24-.2c1.25 0 2.76.12 3.57 1.19.3.39 1 0 .69-.4a4.49 4.49 0 0 0-3.87-1.56c-.77 0-2.34-.07-3 .54-.21.21.08.61.34.43z" fill="#1e1e1e"/><path d="M310.65 103.19c3.11.87 6.31 1.28 9.4 2.28a45.25 45.25 0 0 1 8.06 3.47 39.88 39.88 0 0 1 10.71 8.63c2.62 3 5.72 7.41 6.63 11.18.14.58 1 .33.89-.25-1-4.1-4-8.53-6.95-11.8a40.34 40.34 0 0 0-10.83-8.52c-5.25-2.85-11.81-5.38-17.84-5.51a.27.27 0 0 0-.07.52z" fill="#1e1e1e"/><path d="M344.15 127.54c3.26 3.21 5.34 6.49 4.85 11.25-.06.56.8.55.87 0 .5-4.24-1.37-9.64-5.4-11.66a.26.26 0 0 0-.32.41z" fill="#1e1e1e"/><path d="M346.35 136.3c4.51 5.82 8.62 11 9.23 18.66a32.19 32.19 0 0 1-5.18 19.49c-.3.49.48 1 .78.46 3.8-6.27 6-13.41 5.21-20.79-.8-7.17-4.69-13.16-9.53-18.33-.32-.35-.79.15-.51.51z" fill="#1e1e1e"/><path d="M335.14 191.25c1.66 2.3 4.65 4.75 7.67 4.79 2.33 0 4-2.6 5.05-4.42 1.76-3.13 2.71-6.72 3.84-10.1 1-3 2.33-6.47 1-9.54-.15-.35-.77-.09-.62.27 1.08 2.64 0 5.67-.86 8.24s-1.6 4.94-2.5 7.37c-1 2.64-2.18 5.75-4.95 6.82-1.77.68-3.11 0-4.71-.93a13.07 13.07 0 0 1-3.28-3c-.3-.36-.94.12-.66.51z" fill="#1e1e1e"/><path d="M307 206.89c3 1.16 6.05 1.09 9.15.85a80.31 80.31 0 0 0 8.74-1c6.91-1.31 11.9-5.39 15.88-11.05.3-.42-.39-.8-.7-.4-4.23 5.58-9.09 9.53-16.16 10.7-2.56.42-5.17.64-7.76.86a37.37 37.37 0 0 1-9-.52.29.29 0 0 0-.15.55z" fill="#1e1e1e"/><path d="M278.34 203.8l-.21-.32-.59.45c5.48 4.33 12.41 4.88 19.12 5.69 2.94.35 6.72 1 9.24-1 2.06-1.64 2.67-4.25 2.91-6.75.06-.6-.89-.6-.95 0-.37 3.89-2.08 6.89-6.27 7.11a44.67 44.67 0 0 1-8.08-.68c-5.7-.76-10.74-1.52-15.52-4.94-.41-.29-.83.5-.29.69l.37.12a.24.24 0 0 0 .27-.35z" fill="#1e1e1e"/><path d="M262.49 196.42c2.91 6.86 11.5 9.45 18 6.59.52-.23.07-1-.45-.77a12.86 12.86 0 0 1-10.93-.21c-2.71-1.37-4.42-3.49-6.15-5.9a.29.29 0 0 0-.5.29z" fill="#1e1e1e"/><path d="M249.48 180.36c-.3.94.26 2.58.45 3.49a22.43 22.43 0 0 0 2 6.35c1.76 3.22 7.67 10.26 12 8.6.51-.2.3-1-.24-.85-2.77 1-6.33-2.51-8-4.29a16.57 16.57 0 0 1-3.86-5.8 38 38 0 0 1-1.73-7.5c-.05-.34-.54-.28-.63 0z" fill="#1e1e1e"/><path d="M251.5 158.32a13.78 13.78 0 0 0-5.95 4.79c-1.69 2.24-1.45 4.75-1 7.4a21.89 21.89 0 0 0 3.56 8.72c1.73 2.36 4.28 3.72 6.85 5 .45.22.85-.45.4-.68a19.77 19.77 0 0 1-5.92-3.9 17.9 17.9 0 0 1-3.61-7.14c-.73-2.53-1.59-6-.12-8.36a14.89 14.89 0 0 1 6-5.18c.34-.17.1-.76-.26-.63z" fill="#1e1e1e"/><path d="M253.33 130.59c-5.08 3.63-8.5 10-10 15.93-1.39 5.42-2 12.56 1.91 17.06.34.39.95-.21.57-.57-4.21-4-2.84-12.45-1.37-17.39 1.74-5.87 5.16-10.18 9.3-14.53.24-.25-.08-.72-.38-.5z" fill="#1e1e1e"/><path d="M251 133.41c.35-6 3.35-10.7 7.6-14.75s8.79-7.87 14.6-8.69c.56-.08.33-1-.23-.86-6.15 1.09-11.18 5.33-15.5 9.64-3.88 3.88-7.12 9-7.09 14.66a.31.31 0 0 0 .62 0zM316.77 104.18c2.3-2.81 5.15 0 7.7.68a18.09 18.09 0 0 0 3.2.33c2.41.19 3.7 1 4.7 3.27a5.69 5.69 0 0 0 2.42 3.14 16.73 16.73 0 0 0 2.37.85c2.35.85 3 2.85 2.27 5-.19.56.7.8.88.24.78-2.39.22-4.73-2.16-5.84-2-.91-3.59-.86-4.75-3.1-.57-1.1-.82-2.28-1.79-3.14a5.91 5.91 0 0 0-3.5-1.21 14.52 14.52 0 0 1-4.74-.8c-.69-.3-1.32-.71-2-1-1.79-.7-4.22-.86-5 1.29-.08.23.26.43.41.24z" fill="#1e1e1e"/><path d="M340.39 117.74a34.25 34.25 0 0 1 4.05-.12 5.22 5.22 0 0 1 1.94.18c.6.3.46.45.35 1.18-.4 2.66-1.31 5.23-1.74 7.89a.33.33 0 0 0 .63.17c.51-1.9 1-3.81 1.44-5.73.2-.85.9-2.63.56-3.54-.27-.7-.95-.77-1.64-.86a21.35 21.35 0 0 0-5.59.07c-.47.06-.5.8 0 .76z" fill="#1e1e1e"/><path d="M345.52 125.56c4.23 1.83 4.69 5.17 5.2 9.3a10 10 0 0 0 3 6 8.87 8.87 0 0 1 2.68 4.89 31.05 31.05 0 0 0 .56 4.42c.54 1.78 1.89 3.23 1.87 5.19 0 1.68-1 3.28-1.48 4.85a13.34 13.34 0 0 0-.51 3.93 12.3 12.3 0 0 1-1.7 5.91c-1.38 2.58-1.08 5.08-.83 7.91a13.84 13.84 0 0 1-2.62 9.49c-.88 1.33-1.82 2.61-2.63 4-1 1.78-2.11 5.17-5 4.14-.51-.18-.73.62-.22.8 2.74 1 4.26-1.44 5.4-3.54 1.69-3.1 4.24-5.8 5.45-9.16 1.36-3.79-.5-7.6.47-11.37.5-1.94 2-3.39 2.34-5.38s-.11-4.1.45-6.14c.42-1.58 1.35-3 1.58-4.64a6.8 6.8 0 0 0-.83-4 14 14 0 0 1-1.29-4.65c-.06-.63 0-1.25-.13-1.88a7.55 7.55 0 0 0-1.53-3.69c-1.28-1.69-3-3-3.73-5-.67-1.9-.4-4-.84-5.92a8.19 8.19 0 0 0-5.28-6c-.39-.15-.68.52-.29.68z" fill="#1e1e1e"/><path d="M329.1 205.17a20.42 20.42 0 0 0 8.57 3c1.27.19 2.52.57 3.36-.52 1.2-1.57 1.49-4.45 1.94-6.32.38-1.59 1.3-3.81.87-5.45a.41.41 0 0 0-.79.22c.33 1.3-.44 3.26-.72 4.52a41.82 41.82 0 0 1-1.51 5.5c-.78 2.06-2.38 1.39-4.3 1a21.85 21.85 0 0 1-7.06-2.52c-.4-.25-.73.35-.36.61zM251 187.84c-.09 2.23-.07 4.47 0 6.7 0 1.2-.27 3.51.46 4.59 1.34 2 6.8-1.23 8.29-2 .43-.22.05-.88-.39-.66a32.27 32.27 0 0 1-4.53 1.93 5.17 5.17 0 0 1-2.17.53c-.9-.24-.8-1.29-.85-2-.24-3 .07-6.06-.14-9.08a.32.32 0 0 0-.64 0zM275.84 104.87c-2.1 0-4.71-.12-6.73.57a7.73 7.73 0 0 0-2.41 1.65 10.61 10.61 0 0 1-5.34 2.45 4.27 4.27 0 0 0-3 1.53c-1.08 1.47-.7 3.17-2.52 4.28-1.25.76-2.57.87-3.64 2a5.51 5.51 0 0 0-1.48 3.17c-.07.49.66.7.74.21.41-2.45 2-3.37 4.07-4.33a5.19 5.19 0 0 0 1.84-1.18c.69-.78.65-1.7 1.14-2.55 1.4-2.38 3.06-2 5.27-2.78s3.59-3 5.76-3.67c2-.59 4.26-.31 6.3-.52a.4.4 0 0 0 0-.79z" fill="#1e1e1e"/><path d="M256 120.58a36.72 36.72 0 0 0-7.75.78c-1.26.26-2.06.33-2.24 1.61-.26 1.88.42 4.31.71 6.16.38 2.45.86 4.89 1.21 7.36.08.53 1 .32.83-.23a87.94 87.94 0 0 1-1.91-11.73c0-.37-.28-1.34-.09-1.69.45-.83 2.56-.83 3.28-.92 2-.26 4-.31 6.06-.6.43-.06.31-.74-.1-.74z" fill="#1e1e1e"/><path d="M247.38 133.31a17.27 17.27 0 0 0-4 5.24c-1.16 2.57-1.27 5.45-2.48 8-1 2.14-2.12 3.86-2 6.31.07 2.61 1.07 5.1 1.6 7.63s0 5.22.47 7.78c.38 2.13 2.16 3.37 3.1 5.24 1.19 2.37.73 5.09 1.84 7.4.94 1.94 3 3.31 4.61 4.63a.31.31 0 0 0 .44-.44c-1.48-1.69-3.73-2.92-4.52-5.12-.68-1.87-.45-3.95-1.19-5.84s-2.11-3-3-4.68c-1.09-2-.23-5.19-.56-7.42-.35-2.4-1.18-4.69-1.64-7.07-.67-3.53.74-5.68 2-8.76.78-1.87 1-3.88 1.59-5.8.84-2.68 2.53-4.52 4.25-6.65.26-.31-.15-.74-.45-.45z" fill="#1e1e1e"/><path d="M306.28 145.61c1.63 0 3.31 4.34 2 4.83-1.85.66-3.62-4.8-2-4.83zM307.47 126c1.32 1.28.09 6-1.46 5.78-2.67-.42-.41-7.59 1.46-5.78zM285.31 123.37c1.53 1 1.12 6.47-.46 6.59-2.72.2-1.71-8.09.46-6.59zM276.88 136.05c1.79-.43 3.79 6 2.44 6.89-1.83 1.18-5-6.27-2.44-6.89zM290.73 145.85c1.63 0 2.11 6 .77 6.44-1.82.71-3.11-6.4-.77-6.44zM321.3 133.87c1.64 0 1.95 6.22.61 6.71-1.82.66-2.91-6.67-.61-6.71zM330.32 152.29c1.63 0 1.9 6.37 1.07 6.66-1.83.63-2.85-6.61-1.07-6.66zM317.52 158.84c1.64 0 1.8 5.09 1 5.38-1.87.64-2.78-5.33-1-5.38zM308.53 169.61c1.63-.05 2.54 5.75.66 6-2.29.3-2.44-5.94-.66-6zM286 174.29c1.31 0 2.52 5.66 1 5.84-1.83.22-2.42-5.8-1-5.84zM292.89 162.42c1.31 0 2 4.28.53 4.46-1.84.23-1.95-4.41-.53-4.46z" fill="#e7bc81"/><path d="M278.54 136.27c-.85-1.4-2.63-.85-3.13.57a4.18 4.18 0 0 0 .29 2.78 11.19 11.19 0 0 0 1.27 2.82c.75 1 2.44 1.53 3 .09a4.79 4.79 0 0 0-.12-2.65 15.29 15.29 0 0 0-1.36-3.71c-.21-.42-.83 0-.62.36.41.82 2.57 6.85.3 5.89-1-.41-1.24-1.63-1.58-2.51a12 12 0 0 1-.43-1.19l-.17-.85c-.09-1.26.58-1.67 2-1.24.25.22.66 0 .48-.36z" fill="#1e1e1e"/><path d="M277.72 133.8a6.09 6.09 0 0 1 .54 2.73.44.44 0 0 0 .87 0 4.74 4.74 0 0 0-1-3 .24.24 0 0 0-.42.24zM274.05 144a3 3 0 0 0 4.08-.81c.25-.4-.3-.76-.62-.48a3.14 3.14 0 0 1-3.22.72.31.31 0 0 0-.24.57zM282.8 121.26c2 2 4.23 4.65 2.71 7.69-.7 1.4-2-.12-2.09-1.24a7.31 7.31 0 0 1 .76-3 24.53 24.53 0 0 1 2.57-4.51c.24-.34-.33-.67-.56-.32-1.57 2.43-3.68 5.26-3.47 8.35.08 1.3 1 2.7 2.49 2.07 1.23-.52 1.31-2.22 1.43-3.36.26-2.57-1.57-4.54-3.35-6.2a.35.35 0 0 0-.49.5zM306.28 125.46c-1.42.68-2 3.17-2 4.59 0 1.23.65 2.79 2.12 2.07 2.25-1.11 3.5-7.17-.12-6.85-.41 0-.43.67 0 .66 2.54-.05 1.55 4.62 0 5.36s-1.17-2.11-1-2.82a6.32 6.32 0 0 1 1.35-2.56.29.29 0 0 0-.35-.45z" fill="#1e1e1e"/><path d="M305.05 122.84l.12-.09-.48-.13a14.33 14.33 0 0 1 .71 1.48c.17.5.2 1 .35 1.51.1.32.68.4.74 0a4.55 4.55 0 0 0-1.25-3.41.36.36 0 0 0-.55.07l-.08.13c-.17.26.18.62.44.44zM308.21 126.73a7.77 7.77 0 0 1 .78-.48 4.57 4.57 0 0 0 .86-.29.37.37 0 0 0-.09-.67 1.66 1.66 0 0 0-1.12.25 2.34 2.34 0 0 0-.9.71c-.22.29.19.64.47.48zM305.28 132c-.35.33-.39 1-.61 1.37a5.55 5.55 0 0 1-1.05 1.32c-.38.37.18.89.58.57a4.51 4.51 0 0 0 1.2-1.57c.22-.46.55-1.14.29-1.63a.27.27 0 0 0-.41-.06zM321.14 133.53c-1.72-.18-1.55 2.51-1.42 3.59s.24 3.89 1.78 3.94c1.24.05 1.5-1.22 1.61-2.18.18-1.57.24-4-1.06-5.15-.35-.32-.87.21-.52.53a4.22 4.22 0 0 1 .9 2.91c0 .74.14 2.3-.41 2.87-.87.89-1.33-1.81-1.4-2.19-.15-.77-.69-3.57.6-3.75.35 0 .22-.53-.08-.57z" fill="#1e1e1e"/><path d="M321.55 134a.33.33 0 0 0 0-.66.33.33 0 0 0 0 .66zM330.43 152c-1.67 0-1.59 2.47-1.44 3.59s.38 3.49 1.62 4 1.55-1.3 1.63-2.09c.21-1.81 0-4-1.48-5.24a.32.32 0 0 0-.46.45 5 5 0 0 1 1.19 2.9 10.73 10.73 0 0 1 0 1.5c-.05.59.06 1-.6 1.11s-.69-.39-.87-1a9.29 9.29 0 0 1-.22-1c-.23-1.23-.56-3 .75-3.72a.24.24 0 0 0-.12-.45z" fill="#1e1e1e"/><path d="M331.26 153.21a5.86 5.86 0 0 0 .67-2.62c0-.36-.59-.47-.65-.09-.13.85-.26 1.68-.46 2.52-.07.26.31.44.44.19zM329.25 153.23a3.1 3.1 0 0 0-1.44-1.17 10.22 10.22 0 0 0-2.38-.4c-.42 0-.48.59-.1.71.73.21 1.54.21 2.26.46s.81.86 1.44.92c.29 0 .37-.34.22-.52zM330.12 158.76a6 6 0 0 1-.6 1.41 6.19 6.19 0 0 1-1.1 1.07c-.28.24 0 .78.37.64a3.38 3.38 0 0 0 1.95-3 .32.32 0 0 0-.62-.08zM305.67 143.27c-.42.17-.44.24-.51.72a16.41 16.41 0 0 0 .39 3.8c.14 1.1.74 3.25 2.27 3.19 1.22 0 1.48-1.15 1.25-2.12a5.68 5.68 0 0 0-3.11-3.75c-.36-.19-.68.35-.32.54a5.25 5.25 0 0 1 2 1.8 5.34 5.34 0 0 1 .64 1.42l.14.71c-.18.62-.49.74-.94.36-1.27-.39-1.25-2.4-1.37-3.49-.06-.49-.52-2.36-.19-2.76.14-.17 0-.52-.25-.42zM317.23 158.46c-1.41.75-1.24 2.41-.87 3.74.2.74.91 2.69 2 2.5 1.67-.29.88-6.77-1.13-6.1a.32.32 0 0 0 .16.61c.6-.12.94 1.64 1 2s.29 3-.64 2.27a3.14 3.14 0 0 1-.76-1.66c-.26-1-.46-2.25.51-3a.26.26 0 0 0-.26-.45zM292 146.93c-.13-1-1.18-2.24-2.1-1.24-1.14 1.26-.59 4-.25 5.47.2.88 1 2.56 2.08 1.5.57-.53.62-1.73.71-2.44a10.29 10.29 0 0 0-.16-3.75c-.08-.31-.6-.26-.57.08a20.8 20.8 0 0 1 .12 2.62 5.59 5.59 0 0 1-.25 2l-.13.51c-.68.17-1 0-1.08-.47a6.74 6.74 0 0 1-.4-2.79c0-.31-.1-1.45.15-1.68l1.14-.28a3.19 3.19 0 0 1 .32.64c.11.27.45.06.42-.17zM291.3 159.15c.19.56.47 1.09.65 1.66a15.26 15.26 0 0 1 .4 1.75c.07.4.77.32.72-.1a7.25 7.25 0 0 0-1.28-3.6c-.18-.23-.58 0-.49.29z" fill="#1e1e1e"/><path d="M292.57 162.09c-1 .69-1.09 2.18-.93 3.3.11.76.43 2.3 1.47 2.21s1.24-1.62 1.36-2.37a2.89 2.89 0 0 0-1.2-3.1.29.29 0 0 0-.29.5 2.2 2.2 0 0 1 1 2c0 .53-.26 1.95-.85 2s-.48-.26-.61-.73a5 5 0 0 1-.18-1.09 3.36 3.36 0 0 1 .57-2.31c.16-.2-.05-.55-.3-.38z" fill="#1e1e1e"/><path d="M292.33 166.7a13.25 13.25 0 0 0-1.19 1.06 7.68 7.68 0 0 0-1.14 1.14c-.22.31.2.66.5.49a5.79 5.79 0 0 0 1.19-1.08 7.47 7.47 0 0 0 1-1.21c.16-.24-.16-.58-.4-.4zM293 167.15a3.34 3.34 0 0 0 3 2.11c.3 0 .53-.49.17-.66a13.78 13.78 0 0 1-1.45-.59 5.11 5.11 0 0 1-1.17-1.15.3.3 0 0 0-.5.29zM308.45 169.46c-1.71.07-1.45 2.28-1.36 3.47.07.9.32 3.32 1.67 3.31s1.74-2.09 1.78-3c0-1.12-.45-3.7-1.8-3.92-.36-.06-.51.5-.15.55 1.46.19 1.76 4.52.57 5.2-.16.4-.36.36-.61-.12a.9.9 0 0 1-.53-.78 4.66 4.66 0 0 1-.19-1.49c-.06-.81-.27-2.4.69-2.74.25-.09.23-.51-.07-.5z" fill="#1e1e1e"/><path d="M307.64 177.59a5.48 5.48 0 0 1 1.78-1.71c.42-.23.05-.8-.36-.62a3.31 3.31 0 0 0-1.94 2.11.29.29 0 0 0 .52.22zM285.54 173.86a5.69 5.69 0 0 0-.62 4.64c.27.82 1.18 2.72 2.33 2.44s1-2.49.92-3.33c-.21-1.4-.77-3.12-2.18-3.68-.39-.16-.66.49-.29.68a3.78 3.78 0 0 1 1.63 2.77c.16.79.34 3.34-1 2.1s-.91-3.84-.31-5.42c.1-.28-.33-.44-.47-.2z" fill="#1e1e1e"/><path d="M282.89 171.75a4.28 4.28 0 0 0 1.1 1.41c.47.49 1 1 1.47 1.41s.94-.22.56-.56-1-.86-1.42-1.32a6.2 6.2 0 0 0-1.33-1.23c-.19-.1-.46.06-.38.29zM285.34 182.33a11.93 11.93 0 0 0 .85-1 6.27 6.27 0 0 0 .77-1c.15-.28-.17-.7-.48-.48a4.72 4.72 0 0 0-.9 1 6.59 6.59 0 0 0-.79 1.09.35.35 0 0 0 .55.42z" fill="#1e1e1e"/><path d="M276.44 158.68c1.31-.05 2.43 7.62.58 7.65s-2.02-7.59-.58-7.65z" fill="#e7bc81"/><path d="M276.79 158.63c-1.18-1.07-1.73 1.38-1.78 2.13a13.53 13.53 0 0 0 .52 4c.15.59.3 2 1.06 2.28 1.18.42 1.79-1.73 1.85-2.45a12.25 12.25 0 0 0-.44-3.71 3.15 3.15 0 0 0-1.09-2.23c-.29-.19-.65.26-.38.48.84.69 2 6.87.58 7-.85.07-1.06-2.3-1.16-2.85s-.62-4.57.6-4.17a.25.25 0 0 0 .24-.42z" fill="#1e1e1e"/></svg>