<svg xmlns="http://www.w3.org/2000/svg" width="70" height="70" viewBox="0 0 70 70"><path d="M69.41,13.15c-2.41,1.03-5.51,1.72-8.26,2.06,3.1-1.72,5.16-4.47,6.19-7.57-2.75,1.72-5.85,3.1-8.95,3.44-2.75-2.75-6.54-4.13-10.32-4.13-7.57,.34-13.76,6.54-13.76,14.11,0,1.03,0,2.06,.34,3.1-11.35-.34-22.02-5.51-29.25-14.45-1.38,2.06-1.72,4.82-1.72,7.23,.34,4.82,3.1,8.95,6.88,11.7-2.06,0-5.51-.69-5.51-1.72-.34,6.54,4.13,12.39,10.67,13.76-1.38,.34-2.75,.34-4.13,.34-1.03,0-2.06,0-3.1-.34,1.72,5.85,6.88,9.63,12.73,9.98-5.16,3.78-11.35,6.19-17.55,5.85H.59c6.54,4.13,14.11,6.54,22.02,6.54,22.02,0,39.91-17.55,39.91-39.57h0v-2.75c2.75-2.06,5.16-4.47,6.88-7.57Z" fill="#14303f"/></svg>
