<svg xmlns="http://www.w3.org/2000/svg" width="575" height="350" viewBox="0 0 575 350"><defs><linearGradient id="a" x1="-6.5" y1="344.25" x2="581.5" y2="4.76" gradientUnits="userSpaceOnUse"><stop offset="0" stop-color="#39847e"/><stop offset="1" stop-color="#286f92"/></linearGradient></defs><path fill="url(#a)" d="M-.9-4.93h576.81v358.87H-.9z"/><g opacity=".9" fill="#fff"><path d="M101.34 156.05l-7.89 2a.72.72 0 0 0-.6.63l-5 26.47-7.13 1.1 4.9-25.1c.07-.34-.09-.63-.36-.63l-8 2.31a.75.75 0 0 0-.62.64l-12.16 57.77c-.08.39.08.72.37.72h8.28c.29 0 .59-.32.67-.72L79.19 194l7.2-1.11L81 221.22c-.08.4.09.73.38.73h8.24c.29 0 .58-.32.65-.72l11.41-64.54c.1-.36-.07-.64-.34-.64zM120.91 150.6s-4.07 1-6.92 1.64a10.85 10.85 0 0 0-6.53 4.25 18.92 18.92 0 0 0-4 9l-7.54 42.35a16.88 16.88 0 0 0 .84 9.89c1.25 2.8 3.1 4.22 5.5 4.22h8.3c2.4 0 4.71-1.45 6.85-4.29a21.21 21.21 0 0 0 4-9.85l6.59-42.37c.5-3.46.39-7.4-.84-9.89s-4.01-4.96-6.25-4.95zm-1.71 14.85l-7 42.35a9.19 9.19 0 0 1-1.74 4.24 3.63 3.63 0 0 1-2.81 1.74 2.41 2.41 0 0 1-2.2-1.74 7.31 7.31 0 0 1-.39-4.23l7.21-42.35a11.48 11.48 0 0 1 1.77-4.71 3.42 3.42 0 0 1 2.61-1.55 2.33 2.33 0 0 1 2.17 1.55 9.45 9.45 0 0 1 .38 4.7zM144.83 213.75H133l9-67.22c0-.35-.13-.63-.4-.63l-8.06 1.83a.67.67 0 0 0-.57.63l-10.21 72.83c-.06.4.13.73.42.73h20.73c.29 0 .56-.32.61-.72l.78-6.72c.01-.41-.18-.73-.47-.73zM169.63 213.73h-11.81l7.18-72.05c0-.35-.15-.63-.42-.63l-7.76 1.68a.66.66 0 0 0-.56.63l-8.53 77.82c-.05.4.15.72.44.72h20.73c.29 0 .55-.33.59-.73l.59-6.72c.04-.4-.17-.72-.45-.72zM197.44 135.74l-7.73.9a.62.62 0 0 0-.52.63l-3.11 40a7.6 7.6 0 0 1-1.32 3.95 3.14 3.14 0 0 1-2.57 1.62 2.63 2.63 0 0 1-2.3-1.61 6.72 6.72 0 0 1-.76-3.95l3.36-38.7c0-.35-.17-.63-.44-.63l-7.87 1.3a.7.7 0 0 0-.63.62l-3.36 37.42c-.64 7.52 1.69 12 6.94 13.21l-2.33 30.62c0 .4.18.73.47.73h8.32c.28 0 .54-.32.57-.72l2.05-30.63c5.4-1.23 8.34-5.71 8.76-13.23l2.92-40.92c.02-.35-.18-.61-.45-.61zM240.55 130.51l-7.78.51a.58.58 0 0 0-.49.64l-2.63 76a8 8 0 0 1-1.15 4.24 3 3 0 0 1-2.52 1.75h-3.63l3.3-81.21c0-.35-.2-.64-.47-.64l-7.76.69a.59.59 0 0 0-.51.63l-3.6 74.55a8.25 8.25 0 0 1-1.23 4.25 3.12 3.12 0 0 1-2.6 1.74h-3.58l4.23-79.22a.54.54 0 0 0-.46-.63l-7.85.82a.62.62 0 0 0-.53.63l-5.06 85.84c0 .4.19.72.48.72h10.77a9.33 9.33 0 0 0 5.41-1.61v.88c0 .4.21.72.5.72h10.72c4.07 0 7.62-2.4 10.52-7.08a30.84 30.84 0 0 0 4.32-16.34l2.05-67.25a.57.57 0 0 0-.45-.63zM259.53 128.64l-7.82.45c-2.25 0-4.21 1.26-5.84 3.74a16.21 16.21 0 0 0-2.43 9l-.85 65.84a18.45 18.45 0 0 0 2.59 9.91c1.75 2.81 3.86 4.24 6.27 4.24h8.34c2.42 0 4.49-1.45 6.14-4.29a18.41 18.41 0 0 0 2.26-9.88l-.09-65.85a16.66 16.66 0 0 0-2.67-9c-1.69-2.46-3.65-4.16-5.9-4.16zm-.28 13.18l-.25 65.84a7.79 7.79 0 0 1-1 4.25 2.93 2.93 0 0 1-2.51 1.75 3 3 0 0 1-2.52-1.75 8.1 8.1 0 0 1-1.13-4.24l.5-65.84a7 7 0 0 1 1-3.94 2.78 2.78 0 0 1 2.36-1.56 2.91 2.91 0 0 1 2.44 1.55 7.14 7.14 0 0 1 1.11 3.94zM286.15 128h-7.79c-2.26 0-4.18 1.25-5.72 3.74a15.8 15.8 0 0 0-2.14 9l2 66.84a18.89 18.89 0 0 0 2.91 9.92c1.85 2.81 4 4.24 6.43 4.24h8.35c2.41 0 4.43-1.45 6-4.29a17.89 17.89 0 0 0 1.94-9.88l-2.91-66.86a17.13 17.13 0 0 0-3-9c-1.78-2.41-3.81-3.71-6.07-3.71zm.17 12.75l2.58 66.84a7.59 7.59 0 0 1-.87 4.25 2.79 2.79 0 0 1-2.45 1.75 3.14 3.14 0 0 1-2.58-1.74 8.19 8.19 0 0 1-1.28-4.25l-2.31-66.84a6.84 6.84 0 0 1 .86-3.94 2.67 2.67 0 0 1 2.31-1.56 3 3 0 0 1 2.5 1.55 7.28 7.28 0 0 1 1.24 3.98zM312.91 128.93l-15.6-.5c-.27 0-.47.29-.45.64l6.42 92c0 .4.29.72.58.72h16.71c2.42 0 4.39-1.45 5.86-4.3a17.69 17.69 0 0 0 1.57-9.89l-5.66-65.94a17.77 17.77 0 0 0-3.28-9c-1.81-2.47-3.89-3.74-6.15-3.73zm-6.76 7.26h3.42a3.13 3.13 0 0 1 2.56 1.55 7.52 7.52 0 0 1 1.37 3.93l5.33 65.94a7.59 7.59 0 0 1-.73 4.25 2.7 2.7 0 0 1-2.4 1.75h-3.59zM350.57 131.56l-7.81-.5c-2.26 0-4.09 1.78-5.45 4.26a15.15 15.15 0 0 0-1.46 9l8.4 76.7c.05.4.32.73.61.73h8.36c.3 0 .49-.32.44-.73l-4.74-42.23 7.14.4L361 221c.06.4.33.73.62.73h8.32c.29 0 .48-.33.43-.73l-9.77-76.7a18.53 18.53 0 0 0-3.67-9c-1.93-2.48-4.1-3.74-6.36-3.74zM348 171l-3.21-26.7a6.55 6.55 0 0 1 .57-3.94 2.43 2.43 0 0 1 2.19-1.56 3.31 3.31 0 0 1 2.63 1.55 7.84 7.84 0 0 1 1.54 3.94l3.35 27.1zM391.42 174.35l-12.06-.56c-.28 0-.45.3-.4.67l1 7c.06.38.34.69.62.69h3.58l4 25.38c.51 3.91-.35 5.84-2.68 6a3.58 3.58 0 0 1-2.77-1.71 9 9 0 0 1-1.75-4.29L372.63 148a6.44 6.44 0 0 1 .44-3.94 2.35 2.35 0 0 1 2.14-1.56h1.89c2 0 2.93 1.81 3.84 5.56a.71.71 0 0 0 .59.59h6.55a.36.36 0 0 0 .32-.2.64.64 0 0 0 .06-.48c-1.76-8.52-5.46-12.37-10.61-12.97l-7.67-.82c-2.32 0-4.13 2.31-5.37 4.83a15.14 15.14 0 0 0-1.11 9l8 59.55a21 21 0 0 0 4 9.93c2.15 2.82 4.48 4.25 6.91 4.25H391c2.14 0 4-1.22 5.42-3.59s1.8-6 1-10.61L392 175a.75.75 0 0 0-.58-.65zM409.52 139.89l-20.13-3.13c-.27 0-.44.28-.38.63L403.06 221c.07.4.37.73.66.73h20.93c.3 0 .47-.32.38-.72l-1.35-6.75c-.08-.4-.38-.72-.67-.72H411.1l-5.43-31.26 7.54.63c.28 0 .45-.31.38-.69l-1.26-6.42c-.08-.38-.36-.68-.64-.68l-7.48-.62-4.76-28.6 11.63 1.74c.27 0 .44-.29.36-.65l-1.3-6.46a.74.74 0 0 0-.62-.64zM453.31 180.94l-12.08-.56c-.28 0-.44.3-.36.67l1.47 7c.09.38.39.69.67.69h3.58l4.41 18.72c.79 3.92.07 5.85-2.25 6a3.92 3.92 0 0 1-2.9-1.71 9.7 9.7 0 0 1-2.06-4.3l-10.69-49c-.36-1.57-.75-3.13-.3-4.21a2.18 2.18 0 0 1 2-1.57l2.35.26c2 0 3.06 1.81 4.24 5.57a.78.78 0 0 0 .64.59h6.55a.33.33 0 0 0 .31-.2.65.65 0 0 0 0-.48c-2.37-8.5-6-12-11.27-13.07a43.09 43.09 0 0 0-7.88-1c-2.33 0-4.12 2.67-5.18 5.18a14.88 14.88 0 0 0-.48 9l10.35 49a22.68 22.68 0 0 0 4.73 9.95c2.37 2.82 4.81 4.25 7.24 4.25h8.39c2.14 0 3.88-1.21 5.18-3.59s1.36-6 .23-10.62l-6.2-25.89a.82.82 0 0 0-.69-.68zM465.78 151.84c-3.71-.8-5.9-1.43-7.65-1.64s-3.93 1.27-4.95 3.76-1.2 7.4-.33 10.92l14 56.08c.1.4.42.72.71.72h8.4c.29 0 .45-.33.34-.73l-8.49-32.53 7.3.64 8.51 31.94c.11.4.43.72.73.72h8.35c.29 0 .44-.33.33-.73l-15.34-56.09a21.51 21.51 0 0 0-4.92-9c-2.32-2.56-3.27-3.27-6.99-4.06zm0 28.79l-4-15.76a6.36 6.36 0 0 1 0-4 2.07 2.07 0 0 1 2-1.56 3.93 3.93 0 0 1 2.85 1.55 9.18 9.18 0 0 1 2.1 4l4.27 16.41zM502.45 163.5a16 16 0 0 0-7-4.14c-5.59-1.94-17.05-4.18-17.05-4.18-.27 0-.41.29-.31.64l18.23 65.12c.11.4.44.72.73.72h8.41c.29 0 .43-.33.32-.73l-8.47-29.13 7.8.26c2.36 0 4-1.38 4.86-4.06a15.6 15.6 0 0 0-.4-9.34l-1.92-6.17a22.49 22.49 0 0 0-5.2-8.99zm-12.9 1.83s2.52.62 3.89 1.06a7.57 7.57 0 0 1 3.44 2 9.63 9.63 0 0 1 1.87 4.09l1.85 6.17a6.44 6.44 0 0 1 .13 4 2 2 0 0 1-2 1.62l-3.66-.27z"/></g></svg>