<?xml version="1.0" encoding="UTF-8"?><svg id="j" xmlns="http://www.w3.org/2000/svg" viewBox="0 0 1150 700"><rect width="1150" height="700" fill="#ffd3bf" stroke-width="0"/><polygon points="417 131.11 382.22 111.03 347.44 131.11 417 171.27 486.56 131.11 451.78 111.03 417 131.11" fill="#b7303d" stroke="#1c2126" stroke-linejoin="round" stroke-width="2.07"/><polygon points="382.22 70.88 382.22 111.03 347.44 131.11 347.44 90.96 382.22 70.88" fill="#ea4f4b" stroke="#1c2126" stroke-linejoin="round" stroke-width="2.07"/><polygon points="382.22 70.88 382.22 111.03 417 131.11 417 90.96 382.22 70.88" fill="#ff6b60" stroke="#1c2126" stroke-linejoin="round" stroke-width="2.07"/><polygon points="451.78 70.88 451.78 111.03 417 131.11 417 90.96 451.78 70.88" fill="#ea4f4b" stroke="#1c2126" stroke-linejoin="round" stroke-width="2.07"/><polygon points="451.78 70.88 451.78 111.03 486.56 131.11 486.56 90.96 451.78 70.88" fill="#ff6b60" stroke="#1c2126" stroke-linejoin="round" stroke-width="2.07"/><path d="M539.96,143.6c-3.83,0-7.06-.67-9.67-2.01-2.61-1.34-4.6-3.23-5.97-5.68-1.37-2.44-2.14-5.29-2.34-8.55-.05-.86-.07-1.92-.07-3.16s.02-2.3.07-3.16c.19-3.31.99-6.17,2.41-8.59,1.41-2.42,3.42-4.3,6.04-5.64,2.61-1.34,5.79-2.01,9.52-2.01s6.91.67,9.52,2.01c2.61,1.34,4.62,3.22,6.04,5.64,1.41,2.42,2.22,5.28,2.41,8.59.05.86.07,1.92.07,3.16s-.03,2.3-.07,3.16c-.19,3.26-.97,6.11-2.34,8.55-1.37,2.44-3.35,4.34-5.96,5.68-2.61,1.34-5.83,2.01-9.67,2.01ZM539.96,136.48c2.54,0,4.5-.8,5.89-2.41,1.39-1.6,2.16-3.96,2.3-7.08.05-.72.07-1.65.07-2.8s-.03-2.08-.07-2.8c-.14-3.11-.91-5.47-2.3-7.08-1.39-1.6-3.35-2.41-5.89-2.41s-4.5.8-5.89,2.41c-1.39,1.61-2.16,3.97-2.3,7.08-.05.72-.07,1.65-.07,2.8s.02,2.08.07,2.8c.14,3.12.91,5.47,2.3,7.08,1.39,1.61,3.35,2.41,5.89,2.41Z" fill="#1c2126" stroke-width="0"/><path d="M580.14,143.6c-2.88,0-5.33-.34-7.37-1.01-2.04-.67-3.7-1.51-5-2.52-1.29-1.01-2.25-2.01-2.88-3.02-.62-1.01-.96-1.84-1.01-2.52-.05-.53.11-.95.47-1.26s.75-.47,1.19-.47h5.68c.19,0,.36.03.5.07.14.05.33.19.58.43.62.53,1.28,1.08,1.98,1.65.69.58,1.52,1.07,2.48,1.47.96.41,2.16.61,3.59.61,1.87,0,3.44-.37,4.71-1.11,1.27-.74,1.9-1.81,1.9-3.2,0-1.01-.28-1.82-.83-2.44-.55-.62-1.57-1.19-3.05-1.69-1.49-.5-3.59-1.04-6.33-1.62-2.68-.62-4.91-1.41-6.68-2.37-1.77-.96-3.09-2.16-3.95-3.59-.86-1.44-1.29-3.11-1.29-5.03s.56-3.65,1.69-5.35c1.13-1.7,2.8-3.1,5.03-4.21,2.23-1.1,5-1.65,8.3-1.65,2.59,0,4.84.32,6.76.97,1.92.65,3.51,1.45,4.78,2.41,1.27.96,2.24,1.93,2.91,2.91.67.98,1.03,1.83,1.08,2.55.05.53-.1.95-.43,1.26-.34.31-.72.47-1.15.47h-5.32c-.24,0-.46-.05-.65-.14-.19-.1-.38-.22-.58-.36-.53-.48-1.1-.99-1.72-1.54-.62-.55-1.38-1.02-2.26-1.4-.89-.38-2.05-.58-3.49-.58-1.82,0-3.21.4-4.17,1.19-.96.79-1.44,1.79-1.44,2.98,0,.82.23,1.52.68,2.12.45.6,1.38,1.16,2.77,1.69,1.39.53,3.5,1.08,6.33,1.65,3.21.58,5.76,1.43,7.65,2.55,1.89,1.13,3.23,2.42,4.02,3.88.79,1.46,1.19,3.08,1.19,4.85,0,2.16-.64,4.1-1.91,5.82s-3.14,3.08-5.61,4.06c-2.47.98-5.52,1.47-9.16,1.47Z" fill="#1c2126" stroke-width="0"/><path d="M618.37,143.6c-2.88,0-5.33-.34-7.37-1.01-2.04-.67-3.7-1.51-5-2.52-1.29-1.01-2.25-2.01-2.88-3.02-.62-1.01-.96-1.84-1.01-2.52-.05-.53.11-.95.47-1.26s.75-.47,1.19-.47h5.68c.19,0,.36.03.5.07.14.05.33.19.58.43.62.53,1.28,1.08,1.98,1.65.69.58,1.52,1.07,2.48,1.47.96.41,2.16.61,3.59.61,1.87,0,3.44-.37,4.71-1.11,1.27-.74,1.9-1.81,1.9-3.2,0-1.01-.28-1.82-.83-2.44-.55-.62-1.57-1.19-3.05-1.69-1.49-.5-3.59-1.04-6.33-1.62-2.68-.62-4.91-1.41-6.68-2.37-1.77-.96-3.09-2.16-3.95-3.59-.86-1.44-1.29-3.11-1.29-5.03s.56-3.65,1.69-5.35c1.13-1.7,2.8-3.1,5.03-4.21,2.23-1.1,5-1.65,8.3-1.65,2.59,0,4.84.32,6.76.97,1.92.65,3.51,1.45,4.78,2.41,1.27.96,2.24,1.93,2.91,2.91.67.98,1.03,1.83,1.08,2.55.05.53-.1.95-.43,1.26-.34.31-.72.47-1.15.47h-5.32c-.24,0-.46-.05-.65-.14-.19-.1-.38-.22-.58-.36-.53-.48-1.1-.99-1.72-1.54-.62-.55-1.38-1.02-2.26-1.4-.89-.38-2.05-.58-3.49-.58-1.82,0-3.21.4-4.17,1.19-.96.79-1.44,1.79-1.44,2.98,0,.82.23,1.52.68,2.12.45.6,1.38,1.16,2.77,1.69,1.39.53,3.5,1.08,6.33,1.65,3.21.58,5.76,1.43,7.65,2.55,1.89,1.13,3.23,2.42,4.02,3.88.79,1.46,1.19,3.08,1.19,4.85,0,2.16-.64,4.1-1.91,5.82s-3.14,3.08-5.61,4.06c-2.47.98-5.52,1.47-9.16,1.47Z" fill="#1c2126" stroke-width="0"/><path d="M643.75,142.88c-.48,0-.89-.17-1.22-.5-.34-.33-.5-.74-.5-1.22v-7.12c0-.53.17-.96.5-1.29s.74-.5,1.22-.5h7.19c.48,0,.89.17,1.22.5.33.34.5.77.5,1.29v7.12c0,.48-.17.89-.5,1.22s-.74.5-1.22.5h-7.19Z" fill="#1c2126" stroke-width="0"/><path d="M663.51,142.88c-.48,0-.89-.17-1.22-.5-.34-.33-.5-.74-.5-1.22v-47.58c0-.48.17-.89.5-1.22s.74-.5,1.22-.5h5.97c.48,0,.89.17,1.22.5.33.34.5.74.5,1.22v47.58c0,.48-.17.89-.5,1.22s-.74.5-1.22.5h-5.97Z" fill="#1c2126" stroke-width="0"/><path d="M697.29,143.6c-3.83,0-7.06-.67-9.67-2.01-2.61-1.34-4.6-3.23-5.97-5.68-1.37-2.44-2.14-5.29-2.34-8.55-.05-.86-.07-1.92-.07-3.16s.02-2.3.07-3.16c.19-3.31.99-6.17,2.41-8.59,1.41-2.42,3.42-4.3,6.04-5.64,2.61-1.34,5.79-2.01,9.52-2.01s6.91.67,9.52,2.01c2.61,1.34,4.62,3.22,6.04,5.64,1.41,2.42,2.22,5.28,2.41,8.59.05.86.07,1.92.07,3.16s-.03,2.3-.07,3.16c-.19,3.26-.97,6.11-2.34,8.55-1.37,2.44-3.35,4.34-5.96,5.68-2.61,1.34-5.83,2.01-9.67,2.01ZM697.29,136.48c2.54,0,4.5-.8,5.89-2.41,1.39-1.6,2.16-3.96,2.3-7.08.05-.72.07-1.65.07-2.8s-.03-2.08-.07-2.8c-.14-3.11-.91-5.47-2.3-7.08-1.39-1.6-3.35-2.41-5.89-2.41s-4.5.8-5.89,2.41c-1.39,1.61-2.16,3.97-2.3,7.08-.05.72-.07,1.65-.07,2.8s.02,2.08.07,2.8c.14,3.12.91,5.47,2.3,7.08,1.39,1.61,3.35,2.41,5.89,2.41Z" fill="#1c2126" stroke-width="0"/><path d="M735.17,142.88c-.77,0-1.33-.18-1.69-.54s-.66-.78-.9-1.26l-13.44-33.35c-.1-.24-.14-.46-.14-.65,0-.43.16-.8.47-1.11s.68-.47,1.11-.47h5.82c.58,0,1.01.16,1.29.47.29.31.48.61.58.9l9.56,25.23,9.56-25.23c.1-.29.29-.59.58-.9.29-.31.72-.47,1.29-.47h5.89c.38,0,.73.16,1.04.47.31.31.47.68.47,1.11,0,.19-.02.41-.07.65l-13.51,33.35c-.19.48-.48.9-.86,1.26-.38.36-.96.54-1.72.54h-5.32Z" fill="#1c2126" stroke-width="0"/><path d="M777.93,143.6c-5.32,0-9.54-1.53-12.65-4.6-3.12-3.07-4.79-7.43-5.03-13.08-.05-.48-.07-1.09-.07-1.83s.02-1.33.07-1.76c.19-3.64,1.02-6.77,2.48-9.38,1.46-2.61,3.49-4.62,6.07-6.04,2.59-1.41,5.63-2.12,9.13-2.12,3.88,0,7.14.8,9.77,2.41,2.63,1.61,4.62,3.83,5.97,6.68,1.34,2.85,2.01,6.15,2.01,9.88v1.51c0,.48-.17.89-.5,1.22-.34.34-.77.5-1.29.5h-23.86v.58c.05,1.68.37,3.22.97,4.64.6,1.41,1.48,2.55,2.66,3.41,1.17.86,2.58,1.29,4.21,1.29,1.34,0,2.47-.2,3.38-.61.91-.41,1.65-.87,2.23-1.4s.98-.96,1.22-1.29c.43-.58.78-.92,1.04-1.04.26-.12.66-.18,1.19-.18h6.18c.48,0,.87.14,1.19.43.31.29.44.65.39,1.08-.05.77-.44,1.7-1.19,2.8-.74,1.1-1.81,2.18-3.2,3.23-1.39,1.05-3.13,1.93-5.21,2.62-2.08.69-4.47,1.04-7.15,1.04ZM770.02,120.96h15.88v-.22c0-1.87-.31-3.51-.93-4.92-.62-1.41-1.53-2.52-2.73-3.31-1.2-.79-2.64-1.19-4.31-1.19s-3.12.4-4.31,1.19c-1.2.79-2.1,1.89-2.7,3.31-.6,1.41-.9,3.05-.9,4.92v.22Z" fill="#1c2126" stroke-width="0"/><rect y="221.33" width="1151.76" height="478.67" fill="#054861" stroke-width="0"/><circle cx="921.4" cy="460.66" r="175.71" fill="#5cebdf" opacity=".1" stroke-width="0"/><rect x="58.97" y="487" width="639.09" height="96.91" rx="12.09" ry="12.09" fill="#1c2126" opacity=".3" stroke-width="0"/><circle cx="921.4" cy="460.66" r="160.39" fill="#5cebdf" stroke="#1c2126" stroke-miterlimit="10" stroke-width="1.92"/><path d="M925.65,503.48c-2.57-10.92-9.69-20.16-15.85-29.28-6.49-9.62-11.97-19.78-14.4-31.24-2.54-12-1.62-24.37,3.43-35.61,2.96-6.59,7.72-12.22,12.8-17.28,11.12-11.07,24.38-19.85,34.89-31.55,4.31-4.8,8.2-10.33,9.62-16.72,1.59-7.13-.8-14.08-4.51-20.15-9.1-14.93-26.6-19.55-43.03-20.61-.61-.04-1.22-.07-1.83-.1-81.73,7.39-145.77,76.07-145.77,159.72,0,33.59,10.33,64.76,27.98,90.53.62-2.85,1.47-5.66,2.57-8.41,6.54-16.5,20.73-28.78,38.69-30.55,9.25-.91,18.17,1.41,26.69,4.82,10.62,4.26,20.27,11.07,31.34,14.17,18.42,5.16,42.55-5.73,37.38-27.75Z" fill="#30c8c9" stroke="#1c2126" stroke-miterlimit="10" stroke-width="1.92"/><path d="M1006.45,375.66c-4.74,7.55-10.91,14.07-16.55,20.94-5.47,6.66-10.16,14.11-14.68,21.45-4.81,7.81-9.29,15.99-12.08,24.76-2.29,7.2-4.63,16.98-.24,23.85,4.02,6.3,12.28,9.13,19.43,7.32,7.8-1.98,13.2-9.32,18.72-14.66,7.89-7.64,23.25-17.41,34.42-10.44,8.18,5.1,8.29,16.84,8.96,25.32.47,5.93.49,19.41,8.9,19.95,7.63.49,17.86-8.36,27.13-12.69.88-6.8,1.34-13.74,1.34-20.79,0-54.36-27.05-102.39-68.41-131.39,2.9,15.74,1.73,32.59-6.93,46.39Z" fill="#30c8c9" stroke="#1c2126" stroke-miterlimit="10" stroke-width="1.92"/><path d="M1040.67,533.1c-18.21-.9-34.89,7.62-46.63,21.21-9.99,11.57-15.17,27.54-29.8,34.54-18.92,9.06-40.46,3.48-59.91,9.77-9.97,3.22-18.04,9.32-24.48,16.99,13.25,3.55,27.18,5.45,41.56,5.45,60.13,0,112.53-33.1,139.99-82.06-6.31-3.42-13.33-5.53-20.72-5.89Z" fill="#30c8c9" stroke="#1c2126" stroke-miterlimit="10" stroke-width="1.92"/><path d="M746.14,305.83h-61.87c-5.94,0-10.75,4.81-10.75,10.75v25.31c0,5.94,4.81,10.75,10.75,10.75h38.26l20.34,22.08v-22.08h3.27c5.94,0,10.75-4.81,10.75-10.75v-25.31c0-5.94-4.81-10.75-10.75-10.75Z" fill="#fff" stroke="#1c2126" stroke-linecap="round" stroke-linejoin="round" stroke-width="1.92"/><path d="M718.38,317.11v21.85h-4.87v-9.93h-8.46v9.93h-4.87v-21.85h4.87v7.29h8.46v-7.29h4.87Z" fill="#1c2126" stroke-width="0"/><path d="M727.42,318.32c0,1.47-1.04,2.71-2.71,2.71s-2.68-1.24-2.68-2.71,1.01-2.71,2.68-2.71,2.71,1.21,2.71,2.71ZM726.99,322.49v16.47h-4.49v-16.47c.58.4,1.24.66,2.25.66s1.7-.26,2.25-.66Z" fill="#1c2126" stroke-width="0"/><path d="M100.1,443.02c-.42,0-.77-.13-1.04-.4-.27-.27-.4-.61-.4-1.04v-12.67l-13.48-24.36c-.04-.12-.08-.22-.12-.32s-.06-.2-.06-.32c0-.31.12-.58.38-.83s.53-.37.83-.37h6.16c.5,0,.9.13,1.21.4.31.27.52.52.63.75l9.04,15.84,9.04-15.84c.12-.23.33-.48.63-.75.31-.27.73-.4,1.27-.4h6.1c.35,0,.63.12.86.37.23.25.35.53.35.83,0,.12-.01.22-.03.32-.02.1-.07.2-.14.32l-13.48,24.36v12.67c0,.42-.14.77-.4,1.04s-.62.4-1.04.4h-6.33Z" fill="#fff" stroke-width="0"/><path d="M134.94,443.6c-3.19,0-5.86-.53-8-1.58-2.15-1.06-3.79-2.56-4.92-4.52-1.13-1.96-1.76-4.24-1.87-6.85-.04-.77-.06-1.64-.06-2.62s.02-1.83.06-2.56c.12-2.65.77-4.94,1.96-6.88,1.19-1.94,2.86-3.44,5.01-4.49,2.15-1.05,4.76-1.58,7.83-1.58s5.62.53,7.77,1.58c2.15,1.06,3.82,2.55,5.01,4.49,1.19,1.94,1.86,4.23,2.02,6.88.04.73.06,1.58.06,2.56s-.02,1.85-.06,2.62c-.15,2.61-.8,4.9-1.93,6.85-1.13,1.96-2.77,3.46-4.92,4.52-2.15,1.06-4.8,1.58-7.95,1.58ZM134.94,437.2c1.88,0,3.29-.58,4.23-1.73.94-1.15,1.47-2.86,1.58-5.12.04-.58.06-1.34.06-2.3s-.02-1.73-.06-2.3c-.12-2.23-.64-3.92-1.58-5.1-.94-1.17-2.35-1.76-4.23-1.76s-3.3.59-4.26,1.76c-.96,1.17-1.5,2.87-1.61,5.1-.04.58-.06,1.34-.06,2.3s.02,1.73.06,2.3c.12,2.27.65,3.97,1.61,5.12.96,1.15,2.38,1.73,4.26,1.73Z" fill="#fff" stroke-width="0"/><path d="M166.85,443.6c-2.23,0-4.19-.51-5.9-1.53-1.71-1.02-3.04-2.5-4-4.43-.96-1.94-1.44-4.29-1.44-7.05v-16.07c0-.42.14-.77.43-1.04.29-.27.62-.4,1.01-.4h6.16c.38,0,.71.14.98.4.27.27.4.62.4,1.04v15.72c0,4.3,1.88,6.45,5.64,6.45,1.8,0,3.23-.57,4.29-1.7,1.06-1.13,1.58-2.72,1.58-4.75v-15.72c0-.42.13-.77.4-1.04.27-.27.61-.4,1.04-.4h6.1c.38,0,.71.14.98.4.27.27.4.62.4,1.04v27.07c0,.42-.13.77-.4,1.04-.27.27-.6.4-.98.4h-5.7c-.38,0-.71-.13-.98-.4-.27-.27-.4-.61-.4-1.04v-2.25c-1,1.38-2.28,2.44-3.86,3.17-1.57.73-3.49,1.09-5.76,1.09Z" fill="#fff" stroke-width="0"/><path d="M206.35,443.02c-.42,0-.77-.13-1.04-.4-.27-.27-.4-.61-.4-1.04v-38.01c0-.42.13-.77.4-1.04.27-.27.61-.4,1.04-.4h6.22c.42,0,.77.13,1.04.4.27.27.4.61.4,1.04v12.96c1-1.23,2.25-2.21,3.77-2.94,1.52-.73,3.33-1.09,5.44-1.09,2.26,0,4.27.51,6.02,1.53,1.75,1.02,3.11,2.5,4.09,4.43.98,1.94,1.47,4.29,1.47,7.05v16.07c0,.42-.14.77-.4,1.04s-.61.4-1.04.4h-6.28c-.38,0-.71-.13-.98-.4-.27-.27-.4-.61-.4-1.04v-15.72c0-2.03-.5-3.62-1.5-4.75-1-1.13-2.42-1.7-4.26-1.7s-3.24.57-4.32,1.7c-1.08,1.13-1.61,2.72-1.61,4.75v15.72c0,.42-.13.77-.4,1.04s-.62.4-1.04.4h-6.22Z" fill="#fff" stroke-width="0"/><path d="M250.52,443.6c-2.04,0-3.86-.39-5.47-1.18-1.61-.79-2.9-1.85-3.86-3.2-.96-1.34-1.44-2.84-1.44-4.49,0-2.73,1.1-4.88,3.31-6.45,2.21-1.57,5.12-2.65,8.72-3.23l7.54-1.09v-1.04c0-1.5-.35-2.65-1.04-3.46-.69-.81-1.9-1.21-3.63-1.21-1.27,0-2.27.25-3.02.75-.75.5-1.33,1.15-1.76,1.96-.31.5-.77.75-1.38.75h-5.47c-.42,0-.75-.12-.98-.37s-.33-.55-.29-.89c0-.65.25-1.42.75-2.3.5-.88,1.27-1.76,2.3-2.62,1.04-.86,2.37-1.58,4-2.16,1.63-.58,3.6-.86,5.9-.86,2.42,0,4.49.29,6.22.86,1.73.58,3.12,1.38,4.18,2.42,1.05,1.04,1.82,2.24,2.3,3.6.48,1.36.72,2.83.72,4.41v17.79c0,.42-.13.77-.4,1.04s-.6.4-.98.4h-5.7c-.38,0-.71-.13-.98-.4-.27-.27-.4-.61-.4-1.04v-2.13c-.5.73-1.17,1.41-2.02,2.04-.84.63-1.85,1.14-3.02,1.53-1.17.38-2.54.58-4.12.58ZM252.83,437.61c1.27,0,2.4-.27,3.4-.81,1-.54,1.79-1.36,2.36-2.48.58-1.11.86-2.51.86-4.2v-.98l-5.36.86c-2.04.35-3.53.86-4.49,1.55-.96.69-1.44,1.54-1.44,2.53,0,.73.22,1.35.66,1.87.44.52,1.02.92,1.73,1.21.71.29,1.47.43,2.27.43Z" fill="#fff" stroke-width="0"/><path d="M286.23,443.6c-1.92,0-3.63-.32-5.12-.95-1.5-.63-2.76-1.56-3.8-2.76s-1.82-2.65-2.36-4.32c-.54-1.67-.86-3.52-.98-5.56-.04-.73-.06-1.39-.06-1.99s.02-1.24.06-1.93c.08-2,.39-3.82.95-5.47.56-1.65,1.34-3.08,2.36-4.29,1.02-1.21,2.28-2.15,3.8-2.82,1.52-.67,3.23-1.01,5.15-1.01s3.71.34,5.13,1.01c1.42.67,2.59,1.53,3.51,2.56v-12.5c0-.42.13-.77.4-1.04.27-.27.61-.4,1.04-.4h5.93c.42,0,.77.13,1.04.4.27.27.4.61.4,1.04v38.01c0,.42-.13.77-.4,1.04s-.62.4-1.04.4h-5.53c-.38,0-.71-.13-.98-.4-.27-.27-.4-.61-.4-1.04v-1.96c-.96,1.15-2.17,2.1-3.63,2.85-1.46.75-3.28,1.12-5.47,1.12ZM288.88,436.69c1.42,0,2.56-.33,3.43-.98.86-.65,1.5-1.48,1.9-2.48.4-1,.62-2.07.66-3.22.08-.73.12-1.46.12-2.19s-.04-1.44-.12-2.13c-.04-1.07-.28-2.08-.72-3.02-.44-.94-1.08-1.72-1.93-2.33s-1.96-.92-3.34-.92c-1.46,0-2.61.32-3.46.95-.84.63-1.45,1.47-1.81,2.5-.37,1.04-.59,2.17-.66,3.4-.08,1.19-.08,2.38,0,3.57.08,1.23.3,2.36.66,3.4.36,1.04.97,1.87,1.81,2.5.84.63,2,.95,3.46.95Z" fill="#fff" stroke-width="0"/><path d="M325.04,443.02c-.38,0-.72-.13-1.01-.4-.29-.27-.43-.61-.43-1.04v-27.07c0-.42.14-.77.43-1.04.29-.27.62-.4,1.01-.4h5.36c.42,0,.77.14,1.04.4.27.27.4.62.4,1.04v1.96c.81-1.07,1.89-2,3.25-2.76,1.36-.77,2.98-1.17,4.87-1.21,4.41-.08,7.47,1.61,9.16,5.07.88-1.5,2.15-2.72,3.8-3.66,1.65-.94,3.47-1.41,5.47-1.41s3.8.45,5.41,1.35c1.61.9,2.9,2.28,3.86,4.15.96,1.86,1.44,4.25,1.44,7.17v16.41c0,.42-.14.77-.43,1.04-.29.27-.62.4-1.01.4h-5.7c-.42,0-.77-.13-1.04-.4-.27-.27-.4-.61-.4-1.04v-15.95c0-1.57-.22-2.8-.66-3.69-.44-.88-1.04-1.53-1.79-1.93-.75-.4-1.58-.6-2.5-.6-.81,0-1.58.2-2.33.6-.75.4-1.36,1.05-1.84,1.93-.48.88-.72,2.11-.72,3.69v15.95c0,.42-.13.77-.4,1.04-.27.27-.6.4-.98.4h-5.7c-.42,0-.77-.13-1.04-.4-.27-.27-.4-.61-.4-1.04v-15.95c0-1.57-.23-2.8-.69-3.69-.46-.88-1.07-1.53-1.81-1.93-.75-.4-1.56-.6-2.45-.6-.81,0-1.58.2-2.33.6-.75.4-1.36,1.05-1.84,1.93-.48.88-.72,2.09-.72,3.63v16.01c0,.42-.14.77-.4,1.04s-.61.4-1.04.4h-5.82Z" fill="#fff" stroke-width="0"/><path d="M389.37,443.6c-4.42,0-7.92-1.23-10.51-3.69s-3.96-6.03-4.12-10.71v-2.42c.15-2.99.83-5.56,2.02-7.69,1.19-2.13,2.86-3.76,5.01-4.9,2.15-1.13,4.67-1.7,7.54-1.7,3.26,0,5.97.66,8.12,1.99,2.15,1.33,3.77,3.13,4.87,5.41,1.09,2.29,1.64,4.91,1.64,7.86v1.32c0,.38-.14.72-.4,1.01-.27.29-.61.43-1.04.43h-18.77v.4c.04,1.23.27,2.35.69,3.37.42,1.02,1.04,1.83,1.87,2.45.83.62,1.83.92,3.02.92.92,0,1.69-.14,2.3-.43.61-.29,1.12-.61,1.53-.98.4-.36.7-.68.89-.95.35-.42.62-.68.83-.78.21-.1.53-.14.95-.14h6.1c.35,0,.64.12.89.35.25.23.35.52.32.86-.04.65-.36,1.43-.95,2.33-.6.9-1.47,1.79-2.62,2.65-1.15.86-2.58,1.58-4.29,2.16-1.71.58-3.68.86-5.9.86ZM383.72,425.23h11.23v-.17c0-1.34-.22-2.52-.66-3.54s-1.08-1.81-1.93-2.39c-.85-.58-1.86-.86-3.05-.86s-2.2.29-3.02.86c-.83.58-1.46,1.37-1.9,2.39s-.66,2.2-.66,3.54v.17Z" fill="#fff" stroke-width="0"/><path d="M431.29,443.6c-2.04,0-3.86-.39-5.47-1.18-1.61-.79-2.9-1.85-3.86-3.2-.96-1.34-1.44-2.84-1.44-4.49,0-2.73,1.1-4.88,3.31-6.45,2.21-1.57,5.12-2.65,8.72-3.23l7.54-1.09v-1.04c0-1.5-.35-2.65-1.04-3.46-.69-.81-1.9-1.21-3.63-1.21-1.27,0-2.27.25-3.02.75-.75.5-1.33,1.15-1.76,1.96-.31.5-.77.75-1.38.75h-5.47c-.42,0-.75-.12-.98-.37s-.33-.55-.29-.89c0-.65.25-1.42.75-2.3.5-.88,1.27-1.76,2.3-2.62,1.04-.86,2.37-1.58,4-2.16,1.63-.58,3.6-.86,5.9-.86,2.42,0,4.49.29,6.22.86,1.73.58,3.12,1.38,4.18,2.42,1.05,1.04,1.82,2.24,2.3,3.6.48,1.36.72,2.83.72,4.41v17.79c0,.42-.13.77-.4,1.04s-.6.4-.98.4h-5.7c-.38,0-.71-.13-.98-.4-.27-.27-.4-.61-.4-1.04v-2.13c-.5.73-1.17,1.41-2.02,2.04-.84.63-1.85,1.14-3.02,1.53-1.17.38-2.54.58-4.12.58ZM433.59,437.61c1.27,0,2.4-.27,3.4-.81,1-.54,1.79-1.36,2.36-2.48.58-1.11.86-2.51.86-4.2v-.98l-5.36.86c-2.04.35-3.53.86-4.49,1.55-.96.69-1.44,1.54-1.44,2.53,0,.73.22,1.35.66,1.87.44.52,1.02.92,1.73,1.21.71.29,1.47.43,2.27.43Z" fill="#fff" stroke-width="0"/><path d="M470.05,443.02c-2.38,0-4.41-.39-6.08-1.18-1.67-.79-2.95-2.01-3.83-3.66-.88-1.65-1.33-3.72-1.33-6.22v-12.09h-4.49c-.42,0-.77-.13-1.04-.4-.27-.27-.4-.59-.4-.98v-3.97c0-.42.13-.77.4-1.04.27-.27.61-.4,1.04-.4h4.49v-9.5c0-.42.14-.77.43-1.04s.62-.4,1.01-.4h5.7c.38,0,.71.13.98.4s.4.61.4,1.04v9.5h7.2c.42,0,.77.14,1.04.4.27.27.4.62.4,1.04v3.97c0,.38-.14.71-.4.98s-.62.4-1.04.4h-7.2v11.4c0,1.46.27,2.6.81,3.43.54.83,1.44,1.24,2.71,1.24h4.2c.42,0,.77.13,1.04.4.27.27.4.6.4.98v4.26c0,.42-.13.77-.4,1.04s-.62.4-1.04.4h-5.01Z" fill="#fff" stroke-width="0"/><path d="M113.21,566.36v-27.41h-22.92v27.41h-10.37v-62.88h10.37v26.28h22.92v-26.28h10.37v62.88h-10.37Z" fill="#fff" stroke-width="0"/><path d="M177.89,553.42c-1.13,8.19-9.24,13.9-19.92,13.9-13.6,0-21.44-7.8-21.44-21.4v-7.45c0-12.51,8.41-20.79,21.09-20.79s20.35,8.24,20.35,21.48v5.8h-31.46v2.31c0,7.28,4.49,11.98,11.42,11.98,5.27,0,9.33-2.31,10.33-5.84h9.63ZM146.51,538.17h21.62c0-7.76-4.01-12.46-10.68-12.46s-10.94,4.66-10.94,12.46Z" fill="#fff" stroke-width="0"/><path d="M192.5,566.36v-8.11h15.65v-49.94h-15.12v-8.11h25.23v58.05h14.86v8.11h-40.62Z" fill="#fff" stroke-width="0"/><path d="M247.67,566.36v-8.11h15.65v-49.94h-15.12v-8.11h25.23v58.05h14.86v8.11h-40.62Z" fill="#fff" stroke-width="0"/><path d="M300.98,546.14v-7.28c0-12.99,8.32-21.18,21.49-21.18s21.48,8.19,21.48,21.18v7.28c0,12.99-8.32,21.18-21.48,21.18s-21.49-8.19-21.49-21.18ZM311,539.43v6.14c0,8.24,4.4,13.33,11.46,13.33s11.46-5.1,11.46-13.33v-6.14c0-8.24-4.4-13.34-11.46-13.34s-11.46,5.1-11.46,13.34Z" fill="#fff" stroke-width="0"/><path d="M432.51,528.49l-7.67,37.87h-9.41l-10.2-62.88h9.67l3.05,23.14,2.96,25.41h.61l7.02-34.17h8.54l7.02,34.17h.61l2.96-25.41,3.05-23.14h9.67l-10.2,62.88h-9.41l-7.67-37.87h-.61Z" fill="#fff" stroke-width="0"/><path d="M466.51,546.14v-7.28c0-12.99,8.32-21.18,21.49-21.18s21.48,8.19,21.48,21.18v7.28c0,12.99-8.32,21.18-21.48,21.18s-21.49-8.19-21.49-21.18ZM476.54,539.43v6.14c0,8.24,4.4,13.33,11.46,13.33s11.46-5.1,11.46-13.33v-6.14c0-8.24-4.4-13.34-11.46-13.34s-11.46,5.1-11.46,13.34Z" fill="#fff" stroke-width="0"/><path d="M543.4,530.85c1.96-9.2,7.28-13.47,16.34-13.47,2.7,0,5.19.35,6.84,1v11.03c-2.13-.83-5.27-1.35-7.89-1.35-11.03,0-16.82,6.01-16.82,17.04v13.68h14.21v7.58h-33.25v-7.58h9.28v-32.55h-10.2v-7.58h20v12.2h1.48Z" fill="#fff" stroke-width="0"/><path d="M578.74,566.36v-8.11h15.65v-49.94h-15.12v-8.11h25.23v58.05h14.86v8.11h-40.62Z" fill="#fff" stroke-width="0"/><path d="M662.9,558.52c-2,5.58-6.84,8.58-13.77,8.58-10.94,0-17.74-7.67-17.74-20.4v-8.5c0-12.68,6.8-20.39,17.74-20.39,6.88,0,11.81,3.09,13.6,8.63h.87v-26.24h10.46v66.15h-10.28v-7.84h-.87ZM641.72,546.1c0,7.5,4.23,12.16,11.07,12.16s11.03-4.66,11.03-12.16v-7.45c0-7.54-4.23-12.2-11.03-12.2s-11.07,4.71-11.07,12.2v7.45Z" fill="#fff" stroke-width="0"/><path d="M1027.37,340.28c15.2,24.26,24,52.94,24,83.69,0,87.17-70.66,157.83-157.83,157.83-46.24,0-87.84-19.89-116.71-51.58,25.91,53.75,80.9,90.84,144.57,90.84,88.58,0,160.39-71.81,160.39-160.39,0-47.96-21.06-91-54.42-120.39Z" fill="#054861" opacity=".1" stroke-width="0"/><path d="M972.82,247.86c1.85,0,1.86-2.88,0-2.88s-1.86,2.88,0,2.88h0Z" fill="#fff" stroke-width="0"/><path d="M898.56,257.99c1.85,0,1.86-2.88,0-2.88s-1.86,2.88,0,2.88h0Z" fill="#fff" stroke-width="0"/><path d="M652.36,267.42c1.85,0,1.86-2.88,0-2.88s-1.86,2.88,0,2.88h0Z" fill="#fff" stroke-width="0"/><path d="M609.87,401.56c1.85,0,1.86-2.88,0-2.88s-1.86,2.88,0,2.88h0Z" fill="#fff" stroke-width="0"/><path d="M702.35,449.88c1.85,0,1.86-2.88,0-2.88s-1.86,2.88,0,2.88h0Z" fill="#fff" stroke-width="0"/><path d="M589.88,629.84c1.85,0,1.86-2.88,0-2.88s-1.86,2.88,0,2.88h0Z" fill="#fff" stroke-width="0"/><path d="M756.9,609.66c1.85,0,1.86-2.88,0-2.88s-1.86,2.88,0,2.88h0Z" fill="#fff" stroke-width="0"/><path d="M830.65,663.16c1.85,0,1.86-2.88,0-2.88s-1.86,2.88,0,2.88h0Z" fill="#fff" stroke-width="0"/><path d="M1090.59,634.84c1.85,0,1.86-2.88,0-2.88s-1.86,2.88,0,2.88h0Z" fill="#fff" stroke-width="0"/><path d="M1126.42,445.71c1.85,0,1.86-2.88,0-2.88s-1.86,2.88,0,2.88h0Z" fill="#fff" stroke-width="0"/><path d="M1071.25,331.57c1.85,0,1.86-2.88,0-2.88s-1.86,2.88,0,2.88h0Z" fill="#fff" stroke-width="0"/><path d="M1116.42,278.25c1.85,0,1.86-2.88,0-2.88s-1.86,2.88,0,2.88h0Z" fill="#fff" stroke-width="0"/><path d="M314.01,318.66c1.85,0,1.86-2.88,0-2.88s-1.86,2.88,0,2.88h0Z" fill="#fff" stroke-width="0"/><path d="M177.35,340.53c1.85,0,1.86-2.88,0-2.88s-1.86,2.88,0,2.88h0Z" fill="#fff" stroke-width="0"/><path d="M97.54,281.49c1.85,0,1.86-2.88,0-2.88s-1.86,2.88,0,2.88h0Z" fill="#fff" stroke-width="0"/><path d="M841.43,287.29c-.1-1.01-.58-1.93-1.11-2.8-.92-1.52-2.13-3-3.83-3.53-1.78-.55-3.71.07-5.33,1-1.44.83-2.74,1.9-3.84,3.15-.35-2.3-1.18-4.58-2.71-6.33-1.55-1.77-3.89-2.93-6.24-2.73-2.35.2-4.58,1.94-5.03,4.25-.43,2.22.72,4.4,1.85,6.36,2.81,4.89,5.7,9.74,8.67,14.54,4.11-2.41,8.21-4.81,12.32-7.22,2.59-1.52,5.54-3.7,5.25-6.69Z" fill="#ff6b60" stroke="#1c2126" stroke-linejoin="round" stroke-width="1.92"/><path d="M799.27,260.03c-.82-.83-1.92-1.31-3.02-1.7-1.93-.69-4.09-1.14-5.99-.38-1.99.79-3.27,2.76-4.05,4.76-.69,1.79-1.07,3.69-1.15,5.61-1.98-1.81-4.38-3.25-7.02-3.7-2.68-.46-5.62.2-7.57,2.09-1.96,1.89-2.69,5.06-1.42,7.46,1.23,2.3,3.84,3.42,6.27,4.35,6.07,2.34,12.18,4.58,18.32,6.73,1.93-5.14,3.86-10.28,5.79-15.42,1.22-3.24,2.28-7.34-.16-9.8Z" fill="#ff6b60" stroke="#1c2126" stroke-linejoin="round" stroke-width="1.92"/><path d="M815.21,321.94c-.98-.77-2.21-1.13-3.42-1.39-2.13-.47-4.47-.66-6.37.39-2,1.1-3.09,3.35-3.64,5.56-.5,1.98-.64,4.04-.47,6.07-2.33-1.65-5.05-2.84-7.9-2.97-2.89-.13-5.9.96-7.72,3.21-1.81,2.25-2.17,5.7-.5,8.06,1.6,2.26,4.51,3.1,7.2,3.76,6.72,1.66,13.46,3.22,20.23,4.66,1.35-5.68,2.71-11.36,4.06-17.04.85-3.58,1.43-8.05-1.47-10.32Z" fill="#ff6b60" stroke="#1c2126" stroke-linejoin="round" stroke-width="1.92"/><path d="M383.29,648.72c1.85,0,1.86-2.88,0-2.88s-1.86,2.88,0,2.88h0Z" fill="#fff" stroke-width="0"/><path d="M158.9,632.46c1.85,0,1.86-2.88,0-2.88s-1.86,2.88,0,2.88h0Z" fill="#fff" stroke-width="0"/><path d="M82.48,655.23c1.85,0,1.86-2.88,0-2.88s-1.86,2.88,0,2.88h0Z" fill="#fff" stroke-width="0"/><path d="M472.72,273.11c1.85,0,1.86-2.88,0-2.88s-1.86,2.88,0,2.88h0Z" fill="#fff" stroke-width="0"/><path d="M30.45,453.6c1.85,0,1.86-2.88,0-2.88s-1.86,2.88,0,2.88h0Z" fill="#fff" stroke-width="0"/><path d="M790.83,414.29s9.76-10.07,19.83,0" fill="none" stroke="#1c2126" stroke-linecap="round" stroke-miterlimit="10" stroke-width="1.92"/><path d="M824.83,414.29s9.76-10.07,19.83,0" fill="none" stroke="#1c2126" stroke-linecap="round" stroke-miterlimit="10" stroke-width="1.92"/><path d="M796.62,426.07c.35,10.65,9.79,19.18,21.41,19.18s21.06-8.54,21.41-19.18h-42.82Z" fill="#7a122d" stroke="#1c2126" stroke-linecap="round" stroke-linejoin="round" stroke-width="1.92"/></svg>