<svg xmlns="http://www.w3.org/2000/svg" width="575" height="350" viewBox="0 0 575 350"><path fill="#ffc802" d="M-8.06-9.71h587.18V359.7H-8.06z"/><path d="M415.57 282.44s14.65 5.76 48.31 4.7 45.75-8.59 45.75-8.59l4.76 81.18-37.64-.44-6.86-46.63-6.05 2.06-2.1 46.55-36.51-.06z" fill="#262521" stroke="#262521" stroke-linecap="round" stroke-linejoin="round" stroke-width=".71"/><path d="M456.34 121.31c15.84 0 19-9.71 19.62-12.41a16.9 16.9 0 0 1-3.41-1.63c-2.12-1.82-1.58-15.13-1.58-15.13l-30.88 1.41s1.44 9.06 0 12.74c-.33.85-1.9 1.91-4.13 3 1.09 3.05 5.29 12.02 20.38 12.02z" fill="#fff"/><path d="M475.67 64.33s.42 40.8-20.16 40.8-21.58-39.61-21.58-39.61l2.76-21.06h30.1z" fill="#fff"/><path d="M475.06 71.66s3-4.89 4.36-1.25-.88 5.92-1.36 8.42-1.2 8.41-4.42 5.23M434.43 71.92s-3.33-4.67-4.43-1 1.27 5.85 1.93 8.31 1.77 8.31 4.76 4.91" fill="#fff"/><path d="M475.67 64.33s.42 40.8-20.16 40.8-21.58-39.61-21.58-39.61" fill="none" stroke="#262521" stroke-linecap="round" stroke-miterlimit="10" stroke-width=".71"/><path d="M466.63 90.24c-1.61-5.44-6.29-5.08-10.85-3.87-5.33.59-7.65 0-9.07 5.59-1.66 3.81-8.84-6.67-10.41-9.29 4.28 25.39 29.25 32.19 36.38 4.44-.11.19-4.54 6.47-6.05 3.13zm-2.89 2.15c-1.07 5.86-4.21 3.86-7.08 3.94s-4.33 3.25-5.6.09c-1-2.39-4.28-3.78 0-6.75 1.59-1.85 4.11.43 5.92-.81 2.08-1.42 3.15.08 4.58-.26 3.03-.71 2.63 2.46 2.18 3.79z" fill="#262521" opacity=".09"/><path d="M475.06 74.53s.5-10.08-4.49-14.82c0 0 4.27-18.74-17.07-9.73 0 0-21.83-7.35-17.08 12.1 0 0-2.05 6.27-2.05 9.35 0 0-2.46-4.13-2.7-7.69s.48-9.49-1.18-10.68-5.92-6.31.47-8.06c0 0-2.61-7.59 4-7.59 0 0 1.43-5.46 9-4.75 0 0 24.9-17.07 28.22 12.81 0 0 8.54-.95 4.75 16.13z" fill="#262521" stroke="#262521" stroke-linecap="round" stroke-linejoin="round" stroke-width=".71"/><path d="M445 32a3.55 3.55 0 0 0-5.49 1M460.88 70.41a7.29 7.29 0 0 1 3.78-.77" fill="none" stroke="#262521" stroke-linecap="round" stroke-miterlimit="10" stroke-width=".71"/><path d="M470 67.39s-3.44-5.23-9.13-2.06c0 0-2.76-1.38-4 3.53a23 23 0 0 0 6.53-1.69c2.38-1.26 6.6.22 6.6.22z" fill="#262521" stroke="#262521" stroke-linecap="round" stroke-linejoin="round" stroke-width=".71"/><circle cx="463.13" cy="71.12" r="1.54" fill="#262521"/><circle cx="462.6" cy="70.67" r=".3" fill="#fff"/><circle cx="445.26" cy="71.92" r="1.54" fill="#262521"/><circle cx="445.82" cy="71.43" r=".3" fill="#fff"/><path d="M443.11 70.85a6.55 6.55 0 0 1 4-.11" fill="none" stroke="#262521" stroke-linecap="round" stroke-miterlimit="10" stroke-width=".71"/><path d="M450.72 67.86s-7.68-5.18-12.39.07c0 0-.06 1.69 2.24 1 4.62-1.5 11.36 1.43 10.15-1.07z" fill="#262521" stroke="#262521" stroke-linecap="round" stroke-miterlimit="10" stroke-width=".71"/><path d="M434.43 71.92s-3.33-4.67-4.43-1 1.27 5.85 1.93 8.31 1.77 8.31 4.76 4.91M475.06 71.66s3-4.89 4.36-1.25-.88 5.92-1.36 8.42-1.2 8.41-4.42 5.23" fill="none" stroke="#262521" stroke-linecap="round" stroke-miterlimit="10" stroke-width=".71"/><path d="M451.79 83.46s.32-.8 1.59.24 2.24 1.38 3.69-.27 2-.53 2-.53M454 96.2a5.32 5.32 0 0 1 5.25-.7M448.77 91.93a9.39 9.39 0 0 0 1.89.21c1.81 0 2.18-1 3.25-1.1s1 .45 2.43.32 1.71-.89 3.14-.89 2.72.55 4.08-.7" fill="none" stroke="#262521" stroke-linecap="round" stroke-linejoin="round" stroke-width=".71"/><path d="M450.66 92.14s1.53-2 2.93-2.24 1.6.32 2.57.26 2-.84 3.13-.88a5.66 5.66 0 0 1 2.71 1.16 3.63 3.63 0 0 1-2.39 1.46 36.13 36.13 0 0 1-3.81.32c-1.07.09-2.73.9-5.16-.08" fill="#262521"/><path d="M451.19 71.43a6.19 6.19 0 0 1 .95 4.78" fill="none" stroke="#262521" stroke-linecap="round" stroke-linejoin="round" stroke-width=".71"/><path d="M471 92.14s-.54 13.31 1.58 15.13a17.31 17.31 0 0 0 3.41 1.64" fill="none" stroke="#262521" stroke-linecap="round" stroke-miterlimit="10" stroke-width=".71"/><path d="M440.2 94.31s5.59 10.79 16 10.81 14.81-13 14.81-13-1.57 18.51-14.31 18.51-16.5-16.32-16.5-16.32z" fill="#262521" stroke="#262521" stroke-linecap="round" stroke-linejoin="round" stroke-width=".71"/><path d="M431 72.66s1.6-2.46 3.84 2.64M475 75.09s1.86-4 3-3.72M440.09 93.55s1.44 9.06 0 12.74c-.3.78-1.86 1.76-4.2 2.83" fill="none" stroke="#262521" stroke-linecap="round" stroke-miterlimit="10" stroke-width=".71"/><path d="M417.52 321.24c1.5-2.42-3.06-3.76-3.06-3.76a1.93 1.93 0 0 0 .87-1.21c2.69-.19.29-2.43.25-2.46a42.56 42.56 0 0 0-1.47-8.56c2.19-13.58-2.64-17.15-4.31-20.75a5.36 5.36 0 0 1-.39-1.28l1.21-22.45s3.25-26.31 5.89-31.95c.15-2.86.43-8.58.74-14.93.63-12.79 1.38-28.18 1.38-28.18l-1-1.81c-4.78 7.6-20.2 1.19-20.2 1.19v21.48s-2.75 7-2.57 18.68 3.54 47.29 2.57 51.72a8.68 8.68 0 0 0 1.51 7.27s-.52 15.47-1.66 19.25.08 5.19 1.23 6.43 5.49 10.29 5.49 10.29 7 4.22 8.53 4.4 3.7.7 3.7.7a2 2 0 0 0 .69-1.05c3.08-2.07.6-3.02.6-3.02zm-8.32-16.69a14.63 14.63 0 0 0 0 4.84c.05.44.12.92.22 1.41l-.95-.4-2-3.56zm-1 10.68l-.23-1a26.2 26.2 0 0 1 2.66.73l.52 1.44z" fill="#fff"/><path d="M416.51 228.82s-5.83 24-5.92 32.89-2.47 19.18-.79 22.79 6.5 7.17 4.31 20.75c0 0 3.07 10.87.35 12.23s-4.89-4.49-5.26-8.09a14.63 14.63 0 0 1 0-4.84l-2.2-2.73" fill="none" stroke="#262521" stroke-linecap="round" stroke-miterlimit="10" stroke-width=".71"/><path d="M409.2 304.55c-1 1-2.39 1.26-2.87 2.68-.24 1.18.24 2.13 0 3.32a3 3 0 0 0 .24 1.42 10.73 10.73 0 0 1 1.9 5.22c1.18.71 2.37.95 3.08 2.14.47 1.18 1.42 1.42 2.61 1.89.95.48 1.9.72 2.37 1.66.48.72 1 1.9-.24 2.38a6.41 6.41 0 0 1-3.55-.72c-3.09-.71-5.46-2.6-8.31-4a2.35 2.35 0 0 1-.94-1.18c-1.9-4-3.56-7.83-6.41-11.39a4.58 4.58 0 0 1-.24-1.9c1.66-7.35 1.9-14.47 2.14-21.82a7.82 7.82 0 0 1-1.66-3.8c0-4.5.24-9.25 0-13.75-.71-15.9-2.85-31.31-2.37-47.21a40.73 40.73 0 0 1 2.61-13s0-18.51-.1-21.33M416.51 228.82a38.48 38.48 0 0 1-1.21 5.2" fill="none" stroke="#262521" stroke-linecap="round" stroke-miterlimit="10" stroke-width=".71"/><path fill="none" stroke="#262521" stroke-linecap="round" stroke-miterlimit="10" stroke-width=".71" d="M406.45 306.84l2.02 3.56.94.37M415.58 313.81s2.46 2.26-.25 2.46M407.6 313.81l3.21 1.23M408.1 315.42l3.65 1.11M414.46 317.48s4.69 1.1 3.19 3.52M411.75 319.36s10.45 1.52 5.19 4.94"/><path d="M516.32 320.6a1.91 1.91 0 0 0 .82.95s2.11-.8 3.57-1.16 7.91-5.44 7.91-5.44 3.14-9.53 4.12-10.89 2-2.92.41-6.53-4.07-18.89-4.07-18.89a8.66 8.66 0 0 0 .59-7.4c-1.52-4.28-2.67-40.06-4-51.64s-4.9-18.2-4.9-18.2l-2.56-20.23a27.26 27.26 0 0 1-17.69 2.9s2.86 34 4.37 42.54c3.33 5.26 9.65 30.21 9.65 30.21l4 22.12a6.13 6.13 0 0 1-.23 1.32c-1.2 3.78-5.55 7.93-1.66 21.13a42.78 42.78 0 0 0-.39 8.67s-2.14 2.56.56 2.41a1.87 1.87 0 0 0 1 1.09s-4.36 1.91-2.57 4.12c.11-.04-2.2 1.21 1.07 2.92zm8.21-18.6l-1.53 3.75-.89.52v-1.43c-.08-3.63-.6-4.8-.6-4.8zM521 312l.33-1.49a25.91 25.91 0 0 1 2.55-1.06l-.09 1.06z" fill="#fff"/><path d="M523.64 312.13c0-.52 0-1.05.1-1.57l-1.44.76c.44.29.89.56 1.34.81z" fill="#262521" opacity=".09"/><path d="M521.52 300l3 1.92.63 5c-1 .57-1.41 5.68-1.41 5.68-3 1.53-3.16 3.77-3.16 3.77-7 3.19-3.42 5.13-3.42 5.13s2.11-.8 3.57-1.16 7.91-5.44 7.91-5.44 3.14-9.53 4.12-10.89 2-2.92.41-6.53-4.07-18.89-4.07-18.89a8.66 8.66 0 0 0 .59-7.4c-1.52-4.28-2.67-40.06-4-51.64s-4.9-18.2-4.9-18.2l-2.56-20.23" fill="none" stroke="#262521" stroke-linecap="round" stroke-miterlimit="10" stroke-width=".71"/><path d="M505.08 226.89s8.47 22 9.67 30.82 4.86 18.72 3.65 22.51-5.55 7.93-1.66 21.13c0 0-1.69 11.17 1.19 12.17s4.28-5.06 4.19-8.68-.6-4.8-.6-4.8l1.86-3" fill="none" stroke="#262521" stroke-linecap="round" stroke-miterlimit="10" stroke-width=".71"/><path fill="none" stroke="#262521" stroke-linecap="round" stroke-miterlimit="10" stroke-width=".71" d="M524.53 301.96l-1.55 3.79-.89.48M516.35 310s-2.16 2.56.56 2.41M524.27 309.02l-3.04 1.62M523.97 310.69l-3.47 1.55M517.93 313.52s-4.52 1.69-2.73 3.9M520.85 315.05s-10.17 2.82-4.53 5.55M524.74 307.49s1.91 1.75 6 1.53M523.84 311.77a7 7 0 0 0 5.24 1.63"/><path d="M415.34 278.55s-1 23.54 1.26 23.41 26.2-4 35.35-3.71 31.18 2.12 35.16.92 26.53 1.6 25.74-.13-2.08-21.44-2.08-21.44zM435.71 108.51z" fill="#262521" stroke="#262521" stroke-linecap="round" stroke-linejoin="round" stroke-width=".71"/><path d="M527.71 229.9c-.91-13.25-5.42-29.56-5.42-29.56s-3.46-72.81-12.55-78.74c-2.58-1.69-33.75-13.33-33.75-13.33s-.59 13-19.65 13c-15.44 0-19.48-9.31-20.45-12.19a3 3 0 0 1-.18-.61c-.25.15-23.94 14.87-34.5 21.23s-6.33 76.92-6.33 76.92a147.32 147.32 0 0 0-.85 30.39c1.31 16.23-.45 42.51 3.43 46.95l14.46-.36a17.26 17.26 0 0 1-1.11-6.4c.54-7.17 1.32-24.73 3.65-32.08s5.08-20.95 5.09-20.95a88.78 88.78 0 0 1-.25 11.94c-.85 5.2-7.51 24.38-4.22 31.56-.79 7-1.35 15.88-1.35 15.88s22.7 6.07 41 5.85c32.63-.39 57-8.43 57-8.43s-.54-8.47-1.26-14.36c2.36-5.36-1-19.81-4.25-33.91 4.05 11.19 9.55 30 10.07 38.51.39 6.26.69 8.15.69 8.15h13.78a9.79 9.79 0 0 0 1.26-4.48c.12-2.88-3.02-25.7-4.31-44.98z" fill="#262521" stroke="#262521" stroke-linecap="round" stroke-linejoin="round" stroke-width=".71"/><path d="M413.73 283.59s22.7 6.07 41 5.85c32.63-.39 57-8.43 57-8.43" fill="none" stroke="#636363" stroke-linecap="round" stroke-linejoin="round" stroke-width=".24"/><path d="M66.39 282.44s14.65 5.76 48.31 4.7 45.75-8.59 45.75-8.59l4.77 81.18-37.65-.44-6.85-46.63-6.06 2.06-2.09 46.55-36.52-.06z" fill="#262521" stroke="#262521" stroke-linecap="round" stroke-linejoin="round" stroke-width=".71"/><path d="M107.16 121.31c15.84 0 19-9.71 19.62-12.41a16.9 16.9 0 0 1-3.41-1.63c-2.12-1.82-1.58-15.13-1.58-15.13l-30.88 1.41s1.44 9.06 0 12.74c-.33.85-1.9 1.91-4.13 3 1.09 3.05 5.29 12.02 20.38 12.02z" fill="#fff"/><path d="M126.49 64.33s.42 40.8-20.16 40.8-21.58-39.61-21.58-39.61l2.76-21.06h30.1z" fill="#fff"/><path d="M125.88 71.66s3-4.89 4.36-1.25-.88 5.92-1.36 8.42-1.2 8.41-4.42 5.23M85.25 71.92s-3.33-4.67-4.43-1 1.27 5.85 1.93 8.31 1.77 8.31 4.76 4.91" fill="#fff"/><path d="M126.49 64.33s.42 40.8-20.16 40.8-21.58-39.61-21.58-39.61" fill="none" stroke="#262521" stroke-linecap="round" stroke-miterlimit="10" stroke-width=".71"/><path d="M117.45 90.24c-1.61-5.44-6.29-5.08-10.85-3.87-5.33.59-7.65 0-9.06 5.59-1.67 3.81-8.85-6.67-10.42-9.29 4.29 25.39 29.25 32.19 36.38 4.44-.11.19-4.5 6.47-6.05 3.13zm-2.89 2.15c-1.07 5.86-4.21 3.86-7.08 3.94s-4.33 3.25-5.6.09c-1-2.39-4.28-3.78 0-6.75 1.59-1.85 4.11.43 5.93-.81 2.07-1.42 3.14.08 4.57-.26 3.03-.71 2.62 2.46 2.18 3.79z" fill="#262521" opacity=".09"/><path d="M125.88 74.53s.5-10.08-4.49-14.82c0 0 4.27-18.74-17.07-9.73 0 0-21.83-7.35-17.08 12.1 0 0-2 6.27-2 9.35 0 0-2.47-4.13-2.71-7.69s.48-9.49-1.18-10.68-5.92-6.31.47-8.06c0 0-2.61-7.59 4-7.59 0 0 1.43-5.46 9-4.75 0 0 24.9-17.07 28.23 12.81 0 0 8.53-.95 4.74 16.13z" fill="#262521" stroke="#262521" stroke-linecap="round" stroke-linejoin="round" stroke-width=".71"/><path d="M95.85 32a3.54 3.54 0 0 0-5.48 1M111.7 70.41a7.31 7.31 0 0 1 3.78-.77" fill="none" stroke="#262521" stroke-linecap="round" stroke-miterlimit="10" stroke-width=".71"/><path d="M120.77 67.39s-3.44-5.23-9.13-2.06c0 0-2.76-1.38-4 3.53a23 23 0 0 0 6.53-1.69c2.43-1.26 6.6.22 6.6.22z" fill="#262521" stroke="#262521" stroke-linecap="round" stroke-linejoin="round" stroke-width=".71"/><circle cx="113.95" cy="71.12" r="1.54" fill="#262521"/><circle cx="113.42" cy="70.67" r=".3" fill="#fff"/><circle cx="96.08" cy="71.92" r="1.54" fill="#262521"/><circle cx="96.64" cy="71.43" r=".3" fill="#fff"/><path d="M93.93 70.85a6.55 6.55 0 0 1 4-.11" fill="none" stroke="#262521" stroke-linecap="round" stroke-miterlimit="10" stroke-width=".71"/><path d="M101.54 67.86s-7.68-5.18-12.39.07c0 0-.06 1.69 2.24 1 4.61-1.5 11.36 1.43 10.15-1.07z" fill="#262521" stroke="#262521" stroke-linecap="round" stroke-miterlimit="10" stroke-width=".71"/><path d="M85.25 71.92s-3.33-4.67-4.43-1 1.27 5.85 1.93 8.31 1.77 8.31 4.76 4.91M125.88 71.66s3-4.89 4.36-1.25-.88 5.92-1.36 8.42-1.2 8.41-4.42 5.23" fill="none" stroke="#262521" stroke-linecap="round" stroke-miterlimit="10" stroke-width=".71"/><path d="M102.61 83.46s.32-.8 1.59.24 2.24 1.38 3.69-.27 2-.53 2-.53M104.86 96.2a5.32 5.32 0 0 1 5.25-.7M99.59 91.93a9.39 9.39 0 0 0 1.89.21c1.81 0 2.18-1 3.25-1.1s1 .45 2.43.32 1.72-.89 3.14-.89 2.72.55 4.08-.7" fill="none" stroke="#262521" stroke-linecap="round" stroke-linejoin="round" stroke-width=".71"/><path d="M101.48 92.14s1.53-2 2.93-2.24 1.6.32 2.57.26 2-.84 3.13-.88a5.66 5.66 0 0 1 2.73 1.16 3.63 3.63 0 0 1-2.39 1.46 36.13 36.13 0 0 1-3.81.32c-1.07.09-2.73.9-5.16-.08" fill="#262521"/><path d="M102 71.43a6.22 6.22 0 0 1 1 4.78" fill="none" stroke="#262521" stroke-linecap="round" stroke-linejoin="round" stroke-width=".71"/><path d="M121.79 92.14s-.54 13.31 1.58 15.13a17.31 17.31 0 0 0 3.41 1.64" fill="none" stroke="#262521" stroke-linecap="round" stroke-miterlimit="10" stroke-width=".71"/><path d="M91 94.31s5.59 10.79 16 10.81 14.81-13 14.81-13-1.57 18.51-14.31 18.51S91 94.31 91 94.31z" fill="#262521" stroke="#262521" stroke-linecap="round" stroke-linejoin="round" stroke-width=".71"/><path d="M81.85 72.66s1.6-2.46 3.85 2.64M125.82 75.09s1.86-4 3-3.72M90.91 93.55s1.44 9.06 0 12.74c-.3.78-1.86 1.76-4.2 2.83" fill="none" stroke="#262521" stroke-linecap="round" stroke-miterlimit="10" stroke-width=".71"/><path d="M68.34 321.24c1.5-2.42-3.06-3.76-3.06-3.76a1.89 1.89 0 0 0 .87-1.21c2.69-.19.29-2.43.25-2.46a42.56 42.56 0 0 0-1.47-8.56c2.2-13.58-2.64-17.15-4.31-20.75a5.36 5.36 0 0 1-.39-1.28l1.21-22.45s3.25-26.31 5.9-31.95l.73-14.93c.63-12.79 1.38-28.18 1.38-28.18l-1-1.81c-4.78 7.6-20.2 1.19-20.2 1.19v21.48s-2.74 7-2.57 18.68 3.54 47.29 2.57 51.72a8.68 8.68 0 0 0 1.51 7.27s-.52 15.47-1.66 19.25.08 5.19 1.23 6.43 5.45 10.29 5.45 10.29 7 4.22 8.53 4.4 3.7.7 3.7.7a2 2 0 0 0 .69-1.05c3.09-2.07.64-3.02.64-3.02zM60 304.55a14.63 14.63 0 0 0 0 4.84c0 .44.12.92.22 1.41l-1-.4-2-3.56zm-1 10.68l-.23-1a26.2 26.2 0 0 1 2.66.73l.52 1.44z" fill="#fff"/><path d="M67.34 228.82s-5.84 24-5.93 32.89-2.41 19.18-.79 22.79 6.51 7.17 4.31 20.75c0 0 3.07 10.87.35 12.23S60.4 313 60 309.39a14.63 14.63 0 0 1 0-4.84l-2.22-2.73" fill="none" stroke="#262521" stroke-linecap="round" stroke-miterlimit="10" stroke-width=".71"/><path d="M60 304.55c-1 1-2.39 1.26-2.87 2.68-.23 1.18.24 2.13 0 3.32a3 3 0 0 0 .24 1.42 10.73 10.73 0 0 1 1.9 5.22c1.18.71 2.37.95 3.08 2.14.48 1.18 1.42 1.42 2.61 1.89 1 .48 1.9.72 2.37 1.66.48.72 1 1.9-.23 2.38a6.43 6.43 0 0 1-3.56-.72c-3.09-.71-5.46-2.6-8.3-4a2.32 2.32 0 0 1-.95-1.18c-1.9-4-3.56-7.83-6.41-11.39a4.58 4.58 0 0 1-.24-1.9c1.67-7.35 1.9-14.47 2.14-21.82a7.82 7.82 0 0 1-1.66-3.8c0-4.5.24-9.25 0-13.75-.71-15.9-2.85-31.31-2.37-47.21a41 41 0 0 1 2.61-13s0-18.51-.1-21.33M67.34 228.82a38.59 38.59 0 0 1-1.22 5.2" fill="none" stroke="#262521" stroke-linecap="round" stroke-miterlimit="10" stroke-width=".71"/><path fill="none" stroke="#262521" stroke-linecap="round" stroke-miterlimit="10" stroke-width=".71" d="M57.28 306.84l2.01 3.56.94.37M66.4 313.81s2.46 2.26-.25 2.46M58.42 313.81l3.21 1.23M58.92 315.42l3.65 1.11M65.28 317.48s4.69 1.1 3.19 3.52M62.57 319.36s10.45 1.52 5.19 4.94"/><path d="M167.14 320.6a1.91 1.91 0 0 0 .82.95s2.11-.8 3.57-1.16 7.92-5.44 7.92-5.44 3.13-9.53 4.11-10.89 2-2.92.42-6.53-4.08-18.89-4.08-18.89a8.66 8.66 0 0 0 .59-7.4c-1.52-4.28-2.67-40.06-4-51.64s-4.89-18.2-4.89-18.2l-2.57-20.23a27.23 27.23 0 0 1-17.68 2.9s2.85 34 4.36 42.54c3.33 5.26 9.65 30.21 9.65 30.21l4 22.12a5.11 5.11 0 0 1-.23 1.32c-1.2 3.78-5.55 7.93-1.66 21.13a42.78 42.78 0 0 0-.39 8.67s-2.14 2.56.56 2.41a1.87 1.87 0 0 0 1 1.09s-4.36 1.91-2.57 4.12c.11-.04-2.2 1.21 1.07 2.92zm8.21-18.6l-1.55 3.79-.89.52c0-.5.05-1 0-1.43a14.68 14.68 0 0 0-.61-4.8zm-3.49 10l.33-1.49a27 27 0 0 1 2.55-1.06l-.09 1.06z" fill="#fff"/><path d="M174.46 312.13c0-.52 0-1.05.1-1.57l-1.44.76c.44.29.88.56 1.34.81z" fill="#262521" opacity=".09"/><path d="M172.34 300l3 1.92.63 5c-1 .57-1.41 5.68-1.41 5.68-3 1.53-3.15 3.77-3.15 3.77-7 3.19-3.43 5.13-3.43 5.13s2.11-.8 3.57-1.16 7.92-5.44 7.92-5.44 3.13-9.53 4.11-10.89 2-2.92.42-6.53-4.08-18.89-4.08-18.89a8.66 8.66 0 0 0 .59-7.4c-1.52-4.28-2.67-40.06-4-51.64s-4.89-18.2-4.89-18.2l-2.57-20.23" fill="none" stroke="#262521" stroke-linecap="round" stroke-miterlimit="10" stroke-width=".71"/><path d="M155.9 226.89s8.47 22 9.67 30.82 4.86 18.72 3.65 22.51-5.55 7.93-1.66 21.13c0 0-1.69 11.17 1.19 12.17s4.28-5.06 4.2-8.68a14.68 14.68 0 0 0-.61-4.8l1.86-3" fill="none" stroke="#262521" stroke-linecap="round" stroke-miterlimit="10" stroke-width=".71"/><path fill="none" stroke="#262521" stroke-linecap="round" stroke-miterlimit="10" stroke-width=".71" d="M175.35 301.96l-1.55 3.79-.89.48M167.17 310s-2.16 2.56.56 2.41M175.09 309.02l-3.03 1.62M174.79 310.69l-3.47 1.55M168.75 313.52s-4.52 1.69-2.73 3.9M171.67 315.05s-10.17 2.82-4.53 5.55M175.56 307.49s1.91 1.75 5.95 1.53M174.66 311.77a7 7 0 0 0 5.24 1.63"/><path fill="#ffc802" d="M136.3 52.34l-70.18 6.87-21.69-45.05H140l-3.7 38.18z"/><path d="M150.12 274s10.33 60.11 8 61.89c-16.42 12.78-80.74 5.79-80.74 5.79L75.59 278zM86.53 109.15z" fill="#262521" stroke="#262521" stroke-linecap="round" stroke-linejoin="round" stroke-width=".71"/><path d="M178.53 230.54c-.9-13.25-5.42-29.56-5.42-29.56s-3.46-72.81-12.55-78.74c-2.58-1.69-33.75-13.33-33.75-13.33s-15.74 11.31-19.33 11.53-19.8-7.8-20.77-10.68a3 3 0 0 1-.18-.61c-.25.15-23.94 14.87-34.5 21.23S45.7 207.3 45.7 207.3a147.32 147.32 0 0 0-.85 30.39c1.31 16.23-.45 42.51 3.43 46.95l14.46-.36a17.26 17.26 0 0 1-1.11-6.4c.54-7.17 1.32-24.74 3.65-32.08s5.09-21 5.09-21c.11 5.62-8.74 48.24-3 84 3.06 6.6 96.31 5.27 97.71-1.42 1.31-6.3-4.82-60-8.08-74.1 4.05 11.19 9.55 30 10.07 38.51.39 6.26 14.47 8.15 14.47 8.15a9.79 9.79 0 0 0 1.26-4.48c.2-2.8-2.94-25.65-4.27-44.92z" fill="#262521" stroke="#262521" stroke-linecap="round" stroke-linejoin="round" stroke-width=".71"/><path d="M67.34 308.9c3.06 6.6 96.31 5.27 97.71-1.42" fill="none" stroke="#636363" stroke-linecap="round" stroke-linejoin="round" stroke-width=".24"/><path d="M121.9 67.68a3.08 3.08 0 0 1 1.68 2.14 11.7 11.7 0 0 1-.43 6.8 3.51 3.51 0 0 1-2.08 2 15.13 15.13 0 0 1-4.76 1 14.25 14.25 0 0 1-3.32-.19 4.28 4.28 0 0 1-3.2-2.41 18.56 18.56 0 0 1-1.32-2.91 4.53 4.53 0 0 1 .61-4.51 5.18 5.18 0 0 1 2.5-1.35 23.61 23.61 0 0 1 7.84-1 21.41 21.41 0 0 1 2.48.43zM91.25 68.93a23 23 0 0 1 8.18.16c.34.08.67.2 1 .3a3.22 3.22 0 0 1 2.3 2.61 6.71 6.71 0 0 1-.33 4 18.72 18.72 0 0 1-1.05 2.59 4.09 4.09 0 0 1-2.88 2 15.31 15.31 0 0 1-7.37.08 4.05 4.05 0 0 1-2.88-2.84 12.91 12.91 0 0 1-.85-5.32 3.41 3.41 0 0 1 1.32-2.66c.12-.16 2.44-.91 2.56-.92z" fill="#221717" opacity=".95"/><path d="M125.5 66.5c-1.22-.25-8-1.22-12.6.08-1.55.44-4.16 1-5.61 2.85a3.29 3.29 0 0 0-3.58.41c-.69-.14-1.9-2.13-7.19-2.32-1.51 0-7.32-.44-11.74 1.77-.27.14-.43.22-.42.52.1 1.53.1 2.75.48 3.13s2.75 1.79 2.94 1.91a12.15 12.15 0 0 1-.1-2.26A3.28 3.28 0 0 1 89 70.05c.11-.08 2.33-.8 2.44-.81a21.92 21.92 0 0 1 7.83.15c.32.08.63.2 1 .28a3.09 3.09 0 0 1 2.19 2.53 6.71 6.71 0 0 1 .17 1.71s0 .38.52.37.64-.77.7-1c.11-.43.53-1.36 1-1.41s1-.1 1.53-.11 1 .82 1.14 1.21c.07.16.34.9.84.81s.4-.54.41-.56a4.5 4.5 0 0 1 .79-3.49 4.93 4.93 0 0 1 2.36-1.29 21.62 21.62 0 0 1 7.41-1 15.89 15.89 0 0 1 2.34.44 2.92 2.92 0 0 1 1.49 2.12 12.25 12.25 0 0 1 .29 2.81 27.11 27.11 0 0 0 2.62-2.81c.37-.56.11-1.37.08-2.83-.02-.68-.15-.56-.65-.67z" fill="#d2d6d3" stroke="#636363" stroke-linecap="round" stroke-linejoin="round" stroke-width=".47"/><path d="M83.77 110.65c-5.39.3 1.66-8.19.55-11.58-3.32-10.16-6.19-20.62-6.39-31.31A32 32 0 0 1 79.56 56c1.78-4.76 5.19-8.7 8.64-12.43 2.9-3.14 6-6.26 9.82-8.11s8.68-2.21 12.26.14a23.5 23.5 0 0 1 4.72 4.89 49 49 0 0 0 8.23 7.73c2.89 2.14 6.23 4.22 7.37 7.63 1 3.14-.08 6.58.29 9.86.31 2.8 1.7 5.46 1.63 8.28s1 7.3-.72 9.57c-.86 1.09-.66 3.38-1.17 4.68-1.32 3.35-2.1 6.2-3.34 9.58-.12.32-2.58 8.09 1.1 9.8 6.24 2.92 1 3.47-1 4.6a19.53 19.53 0 0 0-7.52 8.1l-7.61-1.94 5.29-4.13a8.86 8.86 0 0 0 1.76-1.64 9 9 0 0 0 1.37-3.58c1.14-5.16-1-10.74 2-16.89s2.42-18.7 2-28.72a10.54 10.54 0 0 0-.66-3.87 3.66 3.66 0 0 0-3-2.29c-1.43-.07-2.64 1-4 1.5-2.47 1-5.24.19-7.85-.37a42.78 42.78 0 0 0-13.11-.77c-4.61.45-9.68 2.06-11.75 6.2a11.63 11.63 0 0 0-.76 8.62c6 18.52 8.62 31.61 15.14 46.68z" fill="#262521"/><path d="M83.77 109.59c-.61 0-.92.07-1-.49a6.4 6.4 0 0 1 .69-2.58c.74-2 1.78-3.92 2-6a8.33 8.33 0 0 0-.7-3.52q-.93-2.92-1.79-5.88a115.54 115.54 0 0 1-2.86-12.17c-1.37-7.85-2.35-17.14 1.3-24.52a40.31 40.31 0 0 1 6.68-9.16 43.88 43.88 0 0 1 8.25-7.63c3-1.94 6.71-3.16 10.31-2.38 3.79.82 5.81 3.91 8.2 6.65a50.71 50.71 0 0 0 8.33 7.57c2.63 1.92 5.79 3.94 6.61 7.31.49 2 .13 4.17 0 6.22a18.07 18.07 0 0 0 .61 5.62 23.61 23.61 0 0 1 1.07 5.82c0 1.53.23 3 .27 4.56a7.11 7.11 0 0 1-.93 4.13c-.78 1.32-.68 2.82-1 4.26-.45 1.81-1.28 3.57-1.87 5.35s-1.14 3.25-1.68 4.89c-1 3.1-2 8.56 1.23 10.69.64.42 1.37.68 2 1.08.15.1.5.46.66.48.31.05 0 .28.18-.07a7.62 7.62 0 0 1-1.72.74 16.78 16.78 0 0 0-6.82 5 23.45 23.45 0 0 0-2.82 4.21l1.21-.49-7.61-1.94.47 1.79 3.78-3a16.25 16.25 0 0 0 3.43-3c1.46-2 1.8-4.88 1.87-7.3.08-2.72-.22-5.45.09-8.16s1.7-5 2.49-7.64c1.44-4.75 1.5-10 1.49-14.87 0-2.87-.11-5.74-.22-8.61-.1-2.54.17-5.57-1.1-7.88a4.48 4.48 0 0 0-6.11-1.91 9.87 9.87 0 0 1-4.14 1.38 21.16 21.16 0 0 1-4.8-.76c-5.71-1.24-12-1.63-17.73-.15-4.86 1.26-8.78 4.35-9.72 9.48-.57 3.06.2 5.65 1.12 8.55s1.86 6 2.74 9c3.53 11.94 6.75 24 11.69 35.41l1.46-1.46-15.09-8.47c-1.2-.67-2.28 1.17-1.08 1.84L98.32 120a1.08 1.08 0 0 0 1.46-1.46c-4-9.32-6.86-19-9.68-28.78-1.58-5.43-3.17-10.86-4.9-16.24-.91-2.83-1.27-5.44-.19-8.3a8.92 8.92 0 0 1 4.62-4.85c4.63-2.3 10.52-2.22 15.53-1.64 2.89.33 5.7 1.28 8.6 1.49a8.87 8.87 0 0 0 3.72-.47c1.14-.44 2.41-1.58 3.68-1.46 3 .27 2.56 5 2.64 7 .11 2.59.21 5.17.25 7.76a64.6 64.6 0 0 1-.89 14.37c-.52 2.46-1.74 4.56-2.45 7a27.56 27.56 0 0 0-.73 8.49c.07 2.69.17 5.64-1 8.15-.66 1.45-2.09 2.34-3.3 3.29l-4.16 3.25a1.07 1.07 0 0 0 .47 1.78l7.61 1.94a1.1 1.1 0 0 0 1.21-.49c1.66-3.17 4.19-6.37 7.51-7.92 1.34-.62 4.06-1 4.11-3 .06-2.59-3.9-2.54-4.67-4.63s-.2-4.44.32-6.4c.81-3.06 2-6.11 3.08-9.08a14.47 14.47 0 0 0 .77-2.39 24.18 24.18 0 0 1 .41-2.55 19.24 19.24 0 0 1 1-1.86 7.78 7.78 0 0 0 .51-2.14 29.79 29.79 0 0 0-.15-5.17 29.05 29.05 0 0 0-.55-5.34 25.47 25.47 0 0 1-1.22-6.29 54.93 54.93 0 0 0 .16-6.54c-.41-3.63-2.74-6.14-5.53-8.28a70.19 70.19 0 0 1-9.17-7.79c-2.54-2.73-4.6-6.17-8.17-7.69a14.06 14.06 0 0 0-10.4.13 27.73 27.73 0 0 0-9.45 6.83 68.86 68.86 0 0 0-7.77 9.11 26.05 26.05 0 0 0-4.36 11.15 52.77 52.77 0 0 0 0 13 96.18 96.18 0 0 0 2.4 13c.54 2.14 1.13 4.26 1.76 6.38.32 1 .65 2.11 1 3.16a24.19 24.19 0 0 1 .91 2.85c.35 1.92-1.07 4.27-1.75 6-.6 1.54-1.64 4-.31 5.4a3.12 3.12 0 0 0 2.5.82c1.39.09 1.4-2.05.02-2z" fill="#262521"/><path d="M89 48.48a22.27 22.27 0 0 0-7.78.94A5.3 5.3 0 0 1 84 47.19l-1.54-.39c.24-.55 1-.61 1.56-.83s1-1.13.39-1.33l1.71-.79-.58-1.09 2-.39a11.82 11.82 0 0 0-3.38-2.62 12.18 12.18 0 0 1 4.61.47L86.05 36a20.87 20.87 0 0 1 5.36 4.31l-.88-1.62 1.33 1.25a10 10 0 0 0-1-4.82 13 13 0 0 1 2.59 2.59l-.13-4.47 1.52.91-.1-1.24 2 1.6-.29-4.91a2.8 2.8 0 0 1 .82 1.55 20.59 20.59 0 0 0-4.54-4.59 17 17 0 0 1 6.33 5.07 6 6 0 0 0 0-2.54 7.63 7.63 0 0 1 .76 3l1.55-3.09a5.39 5.39 0 0 1 .57 3 15.14 15.14 0 0 1 3.86-3.45l-1.07 2.69a41.56 41.56 0 0 1 4.35-3.35l-.65 1.93 4.35-1.56a10.53 10.53 0 0 0-4.22 3.91l3.75.77a1.11 1.11 0 0 1 .68.32 1.08 1.08 0 0 1 .15.79l-.18 2.8a16.87 16.87 0 0 1 3-2.16 8.8 8.8 0 0 1-1.82 5.54" fill="#262521"/><path d="M89 48.13a23.84 23.84 0 0 0-7.88.94l.4.53a5.26 5.26 0 0 1 2.59-2.06.36.36 0 0 0 0-.69l-1.54-.39.21.52c.51-.77 1.72-.48 2.15-1.42a.89.89 0 0 0-.33-1.23V45l1.71-.79a.36.36 0 0 0 .13-.48l-.58-1.1-.22.52 2-.38a.36.36 0 0 0 .16-.6 13.23 13.23 0 0 0-3.45-2.68l-.18.67a13 13 0 0 1 4.52.46.36.36 0 0 0 .4-.53l-2.74-4.29-.48.48a22 22 0 0 1 5.29 4.27c.28.3.74-.09.56-.44l-.88-1.62-.56.43 1.33 1.25a.36.36 0 0 0 .61-.25 11.33 11.33 0 0 0-1-5l-.49.49a13.64 13.64 0 0 1 2.46 2.46c.2.25.67.21.66-.18l-.13-4.47-.53.31 1.52.91a.36.36 0 0 0 .54-.31l-.1-1.24-.61.25 2 1.6c.21.18.62.09.6-.25l-.28-4.91-.61.26a2.85 2.85 0 0 1 .75 1.38l.6-.22a22.71 22.71 0 0 0-4.67-4.72l-.36.61a17.58 17.58 0 0 1 6.26 5 .35.35 0 0 0 .59-.16 7.37 7.37 0 0 0 0-2.73l-.65.28a8.21 8.21 0 0 1 .72 2.72c0 .32.49.52.66.18l1.52-3.07h-.61a5.69 5.69 0 0 1 .52 2.81.36.36 0 0 0 .61.25 16.12 16.12 0 0 1 3.81-3.35l-.52-.4-1.07 2.68c-.15.36.35.56.59.35a42.64 42.64 0 0 1 4.28-3.29l-.52-.4-.65 1.92a.36.36 0 0 0 .44.44l4.34-1.55-.27-.65a11.39 11.39 0 0 0-4.35 4 .35.35 0 0 0 .21.52l1.88.39a8.77 8.77 0 0 1 2 .41c.88.46.32 2.68.27 3.54a.36.36 0 0 0 .61.25A18 18 0 0 1 116.1 35l-.53-.31A9 9 0 0 1 113.8 40c-.27.37.34.72.61.36a9.58 9.58 0 0 0 1.87-5.72.36.36 0 0 0-.54-.31 19.31 19.31 0 0 0-3 2.22l.61.25c.06-.92.18-1.87.18-2.8a1.4 1.4 0 0 0-.35-1.13 3.07 3.07 0 0 0-1.45-.47l-3-.62.21.52a10.65 10.65 0 0 1 4.1-3.78c.35-.18.11-.79-.27-.65l-4.35 1.56.44.43.64-1.92a.35.35 0 0 0-.52-.4 42.87 42.87 0 0 0-4.42 3.4l.59.34 1.07-2.68c.12-.29-.27-.56-.52-.4a16.19 16.19 0 0 0-3.93 3.5l.6.25a6.27 6.27 0 0 0-.62-3.16.35.35 0 0 0-.61 0l-1.52 3.06.66.18a9.29 9.29 0 0 0-.82-3.15c-.17-.39-.71-.09-.65.27a6.46 6.46 0 0 1 0 2.36l.59-.16a17.86 17.86 0 0 0-6.4-5.13.35.35 0 0 0-.36.61A21.53 21.53 0 0 1 97 31.31a.36.36 0 0 0 .65-.28 3.73 3.73 0 0 0-.92-1.7.36.36 0 0 0-.6.25l.28 4.91.61-.25-2-1.6c-.21-.18-.63-.09-.61.25l.11 1.24.53-.3-1.52-.92a.36.36 0 0 0-.54.31l.13 4.47.66-.18a14.49 14.49 0 0 0-2.71-2.71c-.32-.25-.62.2-.49.48a10.32 10.32 0 0 1 .94 4.64l.6-.25-1.33-1.25a.36.36 0 0 0-.56.43l.88 1.62.56-.43a22.3 22.3 0 0 0-5.44-4.37c-.29-.17-.68.18-.48.48l2.77 4.25.4-.52a13.86 13.86 0 0 0-4.71-.49.36.36 0 0 0-.18.67 12.49 12.49 0 0 1 3.31 2.57l.15-.6-2 .39a.36.36 0 0 0-.21.52l.56 1.06.12-.48-1.71.78a.36.36 0 0 0 0 .62c.13.08-.76.79-.91.87s-.35.11-.52.2a1.61 1.61 0 0 0-.64.6.37.37 0 0 0 .21.53l1.54.39v-.69a6.11 6.11 0 0 0-3 2.39.36.36 0 0 0 .4.52 23.26 23.26 0 0 1 7.67-.89c.46 0 .46-.69 0-.71z" fill="#262521"/><path d="M90.11 44.05a3.61 3.61 0 0 1 2.56-.62l-1.25 2.18 2.64-.46a2.79 2.79 0 0 1-.29 1.35c.43-.2.91 2.37.8 2.76.44-.36 1.18-1.81 1.62-2.17a17.32 17.32 0 0 1 .28 4.25 2.39 2.39 0 0 0 1.46-1l.25 3.09.72-.5a2 2 0 0 1 .35 2.07l2.31-1.42a27.35 27.35 0 0 0 1.34 6.49l.76-1.6a11.15 11.15 0 0 0 4.49 3.43l.93-2.64 1 .36a1.92 1.92 0 0 1 .09-1.36 1 1 0 0 1 1.37-.35l.4-3.2a4.64 4.64 0 0 1 2.07 1 13.22 13.22 0 0 0-3.78-7.13 9.84 9.84 0 0 1 3.22 1.36l.3-1.9a13.21 13.21 0 0 1 3.39 2 4.59 4.59 0 0 0-.18-2.54l1 .13a9.56 9.56 0 0 0-2.9-5.12l.85-.2" fill="#262521" stroke="#636363" stroke-linecap="round" stroke-linejoin="round" stroke-width=".24"/><path d="M114.56 39.76a4.91 4.91 0 0 0 3.22-1.61.56.56 0 0 1 0 .52 11.17 11.17 0 0 1-.51 1.51 1.92 1.92 0 0 1-1 1.21" fill="#262521"/><path d="M114.56 40.12A5.29 5.29 0 0 0 118 38.4l-.56-.07v.21c0 .1-.09.32-.14.48-.1.32-.21.64-.34.95s-.39.93-.84 1.07-.24.83.19.69a2.37 2.37 0 0 0 1.32-1.51c.15-.37.28-.74.4-1.13s.26-.8 0-1.12a.36.36 0 0 0-.56-.07 4.5 4.5 0 0 1-3 1.5.38.38 0 0 0-.36.36.37.37 0 0 0 .36.36zM73.8 119.64a10.41 10.41 0 0 0-3.92-2.35l2.45-.47a3.57 3.57 0 0 0-.6-1.48l7.15.06a15.87 15.87 0 0 0-9.61-.57c2.29-1.67 5.37-1.63 8.2-1.51l3.48.14a7.37 7.37 0 0 0-4.22-2.26l4.13-1.43-1-.94 2.37-.43c.19 0 .4-.09.47-.26s0-.42-.2-.59l-1.82-2.16 3-2.57-2.15-.6 2-2.89-1.26.47.21-1.57-2 1.57a28 28 0 0 0 2.15-3.8 7.41 7.41 0 0 0-3.34 3.14 16.35 16.35 0 0 1 2.16-6.36l-1.85-.18a10.22 10.22 0 0 0 2.2-4.07 5.68 5.68 0 0 1-5.38 1 6.32 6.32 0 0 0 1.79-2.16l-1.84-.31a6.41 6.41 0 0 0 2.54-4.72l-1 .17a11.47 11.47 0 0 0 .59-4.23 16.14 16.14 0 0 0-2.7 2.42l2.2-5.38a2.21 2.21 0 0 0-1.77.85c0-1.88 2.92-4.48 4.26-5.79l11.68 42.1z" fill="#262521"/><path d="M74.05 119.39A11.43 11.43 0 0 0 70 117v.69l2.45-.48a.36.36 0 0 0 .24-.44 4.55 4.55 0 0 0-.64-1.56l-.3.53 7.15.06c.42 0 .45-.56.09-.7a16.64 16.64 0 0 0-9.8-.56l.28.65c3.26-2.25 7.77-1.48 11.5-1.33a.35.35 0 0 0 .25-.6 8.07 8.07 0 0 0-4.37-2.35v.68l4.15-1.48a.36.36 0 0 0 .16-.59l-1-.94-.15.6c.73-.14 2.83-.06 3.09-1 .11-.36-.1-.63-.3-.9-.53-.75-1.22-1.44-1.82-2.15v.5l3-2.57a.36.36 0 0 0-.15-.6l-2.15-.59.21.52 2-2.89a.36.36 0 0 0-.4-.52l-1.26.47.45.34.2-1.57c0-.34-.4-.41-.6-.25l-2 1.57.56.43a30.93 30.93 0 0 0 2.19-3.84.36.36 0 0 0-.49-.48A8.21 8.21 0 0 0 79 98.92l.65.28a17.26 17.26 0 0 1 2.13-6.28.37.37 0 0 0-.31-.54l-1.85-.14.25.61a11.25 11.25 0 0 0 2.29-4.23c.11-.37-.33-.54-.59-.34a5.42 5.42 0 0 1-5 .91l.16.6a7.47 7.47 0 0 0 1.84-2.23.36.36 0 0 0-.21-.52l-1.85-.32.16.6a7 7 0 0 0 2.65-5 .36.36 0 0 0-.45-.34l-1 .16.44.44a12.88 12.88 0 0 0 .61-4.32c0-.24-.31-.47-.54-.3a18.82 18.82 0 0 0-2.75 2.45l.59.35 2.25-5.38A.36.36 0 0 0 78 75a2.81 2.81 0 0 0-2 1l.61.26c.13-2.21 2.69-4.11 4.15-5.54l-.59-.16 3.94 14.2 6.29 22.67 1.45 5.24.25-.44-18.39 7.07c-.43.16-.24.85.18.69l18.42-7.16a.37.37 0 0 0 .25-.44l-3.94-14.2-6.29-22.67-1.46-5.24a.35.35 0 0 0-.59-.15c-1.63 1.58-4.22 3.57-4.36 6a.36.36 0 0 0 .61.25 2.16 2.16 0 0 1 1.47-.71l-.34-.45-2.2 5.38c-.14.34.37.6.59.35a17.12 17.12 0 0 1 2.61-2.35l-.54-.31a12 12 0 0 1-.58 4.13c-.09.28.19.48.44.44l1-.17-.45-.34a6.3 6.3 0 0 1-2.45 4.47.35.35 0 0 0 .16.59l1.85.31-.21-.52a6.83 6.83 0 0 1-1.74 2.08.37.37 0 0 0 .16.6 6.18 6.18 0 0 0 5.72-1.1l-.59-.34a10.48 10.48 0 0 1-2.11 3.91.36.36 0 0 0 .25.61l1.85.14-.31-.54A17.82 17.82 0 0 0 79 99c0 .37.43.65.65.27a7.47 7.47 0 0 1 3.21-3l-.48-.49a32.26 32.26 0 0 1-2.19 3.84c-.25.37.26.66.56.44l2-1.58-.61-.25-.2 1.57a.35.35 0 0 0 .45.34l1.25-.47-.4-.52-2 2.89a.37.37 0 0 0 .22.53l2.15.59-.16-.59-3 2.57a.37.37 0 0 0 0 .5c.42.5 1.57 1.45 1.61 2.11.2.26.15.38-.14.35l-.71.13-1.42.26a.36.36 0 0 0-.16.6l1 .93.15-.59-4.12 1.43c-.3.1-.37.61 0 .68a7.43 7.43 0 0 1 4 2.17l.26-.61c-3.87-.16-8.47-.91-11.86 1.42a.36.36 0 0 0 .27.65 16 16 0 0 1 9.42.57l.1-.7-7.12-.04a.36.36 0 0 0-.31.54 4.34 4.34 0 0 1 .57 1.39l.25-.44-2.45.48c-.37.07-.31.58 0 .69a10.69 10.69 0 0 1 3.76 2.25c.33.29.84-.21.5-.52z" fill="#262521"/><path d="M241.76 282.44s14.66 5.76 48.32 4.7 45.74-8.59 45.74-8.59l4.77 81.18-37.65-.44-6.85-46.63-6 2.06-2.1 46.55-36.52-.06z" fill="#262521" stroke="#262521" stroke-linecap="round" stroke-linejoin="round" stroke-width=".71"/><path d="M282.53 121.31c15.85 0 19-9.71 19.63-12.41a17.09 17.09 0 0 1-3.42-1.63c-2.12-1.82-1.58-15.13-1.58-15.13l-30.87 1.41s1.43 9.06 0 12.74c-.33.85-1.91 1.91-4.14 3 1.1 3.05 5.29 12.02 20.38 12.02z" fill="#fff"/><path d="M301.87 64.33s.42 40.8-20.16 40.8-21.59-39.61-21.59-39.61l2.77-21.06H293z" fill="#fff"/><path d="M301.25 71.66s3-4.89 4.36-1.25-.87 5.92-1.36 8.42-1.2 8.41-4.41 5.23M260.62 71.92s-3.33-4.67-4.43-1 1.28 5.85 1.93 8.31 1.77 8.31 4.77 4.91" fill="#fff"/><path d="M301.87 64.33s.42 40.8-20.16 40.8-21.59-39.61-21.59-39.61" fill="none" stroke="#262521" stroke-linecap="round" stroke-miterlimit="10" stroke-width=".71"/><path d="M292.82 90.24c-1.61-5.44-6.29-5.08-10.85-3.87-5.33.59-7.65 0-9.06 5.59-1.67 3.81-8.84-6.67-10.41-9.29 4.28 25.39 29.25 32.19 36.38 4.44-.11.19-4.55 6.47-6.06 3.13zm-2.88 2.15c-1.07 5.86-4.22 3.86-7.08 3.94s-4.33 3.25-5.61.09c-1-2.39-4.28-3.78.05-6.75 1.58-1.85 4.1.43 5.92-.81 2.08-1.42 3.14.08 4.58-.26 2.99-.71 2.59 2.46 2.14 3.79z" fill="#262521" opacity=".09"/><path d="M301.26 74.53s.49-10.08-4.49-14.82c0 0 4.27-18.74-17.08-9.73 0 0-21.82-7.35-17.08 12.1 0 0-2 6.27-2 9.35 0 0-2.47-4.13-2.7-7.69s.47-9.49-1.19-10.68-5.91-6.31.48-8.06c0 0-2.61-7.59 4-7.59 0 0 1.42-5.46 9-4.75 0 0 24.91-17.07 28.23 12.81 0 0 8.54-.95 4.74 16.13z" fill="#262521" stroke="#262521" stroke-linecap="round" stroke-linejoin="round" stroke-width=".71"/><path d="M271.23 32a3.55 3.55 0 0 0-5.49 1M287.08 70.41a7.28 7.28 0 0 1 3.77-.77" fill="none" stroke="#262521" stroke-linecap="round" stroke-miterlimit="10" stroke-width=".71"/><path d="M296.15 67.39s-3.45-5.23-9.13-2.06c0 0-2.76-1.38-4 3.53a23.12 23.12 0 0 0 6.54-1.69c2.44-1.26 6.59.22 6.59.22z" fill="#262521" stroke="#262521" stroke-linecap="round" stroke-linejoin="round" stroke-width=".71"/><circle cx="289.32" cy="71.12" r="1.54" fill="#262521"/><circle cx="288.79" cy="70.67" r=".3" fill="#fff"/><circle cx="271.46" cy="71.92" r="1.54" fill="#262521"/><circle cx="272.02" cy="71.43" r=".3" fill="#fff"/><path d="M269.31 70.85a6.55 6.55 0 0 1 4-.11" fill="none" stroke="#262521" stroke-linecap="round" stroke-miterlimit="10" stroke-width=".71"/><path d="M276.92 67.86s-7.68-5.18-12.39.07c0 0-.07 1.69 2.24 1 4.62-1.5 11.35 1.43 10.15-1.07z" fill="#262521" stroke="#262521" stroke-linecap="round" stroke-miterlimit="10" stroke-width=".71"/><path d="M260.62 71.92s-3.33-4.67-4.43-1 1.28 5.85 1.93 8.31 1.77 8.31 4.77 4.91M301.25 71.66s3-4.89 4.36-1.25-.87 5.92-1.36 8.42-1.2 8.41-4.41 5.23" fill="none" stroke="#262521" stroke-linecap="round" stroke-miterlimit="10" stroke-width=".71"/><path d="M278 83.46s.32-.8 1.59.24 2.23 1.38 3.68-.27 2-.53 2-.53M280.23 96.2a5.33 5.33 0 0 1 5.26-.7M275 91.93a9.56 9.56 0 0 0 1.9.21c1.8 0 2.18-1 3.25-1.1s1 .45 2.42.32 1.72-.89 3.14-.89 2.72.55 4.08-.7" fill="none" stroke="#262521" stroke-linecap="round" stroke-linejoin="round" stroke-width=".71"/><path d="M276.86 92.14s1.52-2 2.92-2.24 1.6.32 2.58.26 2-.84 3.13-.88a5.66 5.66 0 0 1 2.72 1.16 3.6 3.6 0 0 1-2.39 1.46 36.18 36.18 0 0 1-3.8.32c-1.08.09-2.74.9-5.16-.08" fill="#262521"/><path d="M277.38 71.43a6.17 6.17 0 0 1 1 4.78" fill="none" stroke="#262521" stroke-linecap="round" stroke-linejoin="round" stroke-width=".71"/><path d="M297.16 92.14s-.54 13.31 1.58 15.13a17.51 17.51 0 0 0 3.42 1.64" fill="none" stroke="#262521" stroke-linecap="round" stroke-miterlimit="10" stroke-width=".71"/><path d="M266.4 94.31s5.59 10.79 16 10.81 14.8-13 14.8-13-1.56 18.51-14.3 18.51-16.5-16.32-16.5-16.32z" fill="#262521" stroke="#262521" stroke-linecap="round" stroke-linejoin="round" stroke-width=".71"/><path d="M257.22 72.66s1.61-2.46 3.85 2.64M301.19 75.09s1.87-4 3-3.72M266.29 93.55s1.43 9.06 0 12.74c-.31.78-1.86 1.76-4.21 2.83" fill="none" stroke="#262521" stroke-linecap="round" stroke-miterlimit="10" stroke-width=".71"/><path d="M243.72 321.24c1.5-2.42-3.07-3.76-3.07-3.76a1.91 1.91 0 0 0 .88-1.21c2.69-.19.28-2.43.25-2.46a43 43 0 0 0-1.48-8.56c2.2-13.58-2.64-17.15-4.31-20.75a5.37 5.37 0 0 1-.38-1.28l1.2-22.45s3.25-26.31 5.9-31.95l.73-14.93 1.39-28.18-1-1.81c-4.78 7.6-20.21 1.19-20.21 1.19v21.48s-2.74 7-2.56 18.68 3.53 47.29 2.56 51.72a8.67 8.67 0 0 0 1.52 7.27s-.53 15.47-1.67 19.25.09 5.19 1.23 6.43 5.46 10.29 5.46 10.29 7 4.22 8.53 4.4 3.69.7 3.69.7a1.94 1.94 0 0 0 .69-1.05c3.09-2.07.65-3.02.65-3.02zm-8.32-16.69s-.38 1.23 0 4.84c0 .44.12.92.21 1.41l-1-.4-2-3.56zm-1 10.68l-.22-1a26.2 26.2 0 0 1 2.66.73l.51 1.44z" fill="#fff"/><path d="M242.71 228.82s-5.84 24-5.93 32.89-2.46 19.18-.79 22.79 6.51 7.17 4.31 20.75c0 0 3.08 10.87.35 12.23s-4.88-4.49-5.25-8.09 0-4.84 0-4.84l-2.22-2.73" fill="none" stroke="#262521" stroke-linecap="round" stroke-miterlimit="10" stroke-width=".71"/><path d="M235.4 304.55c-1 1-2.4 1.26-2.87 2.68-.24 1.18.23 2.13 0 3.32a3.08 3.08 0 0 0 .23 1.42 10.73 10.73 0 0 1 1.9 5.22c1.19.71 2.37.95 3.09 2.14.47 1.18 1.42 1.42 2.61 1.89.94.48 1.89.72 2.37 1.66.47.72 1 1.9-.24 2.38a6.44 6.44 0 0 1-3.56-.72c-3.08-.71-5.45-2.6-8.3-4a2.43 2.43 0 0 1-.95-1.18c-1.9-4-3.56-7.83-6.4-11.39A4.58 4.58 0 0 1 223 306c1.66-7.35 1.9-14.47 2.13-21.82a7.91 7.91 0 0 1-1.66-3.8c0-4.5.24-9.25 0-13.75-.71-15.9-2.84-31.31-2.37-47.21a41.28 41.28 0 0 1 2.61-13s0-18.51-.1-21.33M242.71 228.82a38.48 38.48 0 0 1-1.21 5.2" fill="none" stroke="#262521" stroke-linecap="round" stroke-miterlimit="10" stroke-width=".71"/><path fill="none" stroke="#262521" stroke-linecap="round" stroke-miterlimit="10" stroke-width=".71" d="M232.65 306.84l2.01 3.56.95.37M241.77 313.81s2.47 2.26-.24 2.46M233.8 313.81l3.21 1.23M234.3 315.42l3.64 1.11M240.65 317.48s4.7 1.1 3.2 3.52M237.94 319.36s10.45 1.52 5.19 4.94"/><path d="M342.52 320.6a2 2 0 0 0 .82.95s2.12-.8 3.58-1.16 7.91-5.44 7.91-5.44S358 305.38 359 304s2-2.92.41-6.53-4.07-18.89-4.07-18.89a8.68 8.68 0 0 0 .58-7.4c-1.52-4.28-2.67-40.06-4-51.64s-4.89-18.2-4.89-18.2l-2.56-20.23a27.26 27.26 0 0 1-17.69 2.9s2.86 34 4.36 42.54c3.34 5.26 9.65 30.21 9.65 30.21l4 22.12a5.59 5.59 0 0 1-.22 1.32c-1.2 3.78-5.56 7.93-1.67 21.13a42.32 42.32 0 0 0-.38 8.67s-2.14 2.56.55 2.41a1.87 1.87 0 0 0 1 1.09s-4.36 1.91-2.56 4.12c.05.02-2.26 1.27 1.01 2.98zm8.2-18.64l-1.55 3.79-.89.52a14.12 14.12 0 0 0 0-1.43c-.08-3.63-.61-4.8-.61-4.8zm-3.48 10l.33-1.49a25.87 25.87 0 0 1 2.54-1.06l-.09 1.06z" fill="#fff"/><path d="M349.84 312.13c0-.52 0-1.05.09-1.57l-1.43.76c.43.29.88.56 1.34.81z" fill="#262521" opacity=".09"/><path d="M347.71 300l3 1.92.63 5c-1 .57-1.4 5.68-1.4 5.68-3 1.53-3.16 3.77-3.16 3.77-7 3.19-3.43 5.13-3.43 5.13s2.12-.8 3.58-1.16 7.91-5.44 7.91-5.44S358 305.38 359 304s2-2.92.41-6.53-4.07-18.89-4.07-18.89a8.68 8.68 0 0 0 .58-7.4c-1.52-4.28-2.67-40.06-4-51.64s-4.89-18.2-4.89-18.2l-2.56-20.23" fill="none" stroke="#262521" stroke-linecap="round" stroke-miterlimit="10" stroke-width=".71"/><path d="M331.28 226.89s8.46 22 9.67 30.82 4.85 18.72 3.65 22.51-5.56 7.93-1.67 21.13c0 0-1.68 11.17 1.19 12.17s4.28-5.06 4.2-8.68-.61-4.8-.61-4.8l1.86-3" fill="none" stroke="#262521" stroke-linecap="round" stroke-miterlimit="10" stroke-width=".71"/><path fill="none" stroke="#262521" stroke-linecap="round" stroke-miterlimit="10" stroke-width=".71" d="M350.72 301.96l-1.55 3.79-.88.48M342.55 310s-2.16 2.56.55 2.41M350.46 309.02l-3.03 1.62M350.17 310.69l-3.48 1.55M344.12 313.52s-4.51 1.69-2.72 3.9M347.05 315.05s-10.18 2.82-4.53 5.55M350.93 307.49s1.91 1.75 5.95 1.53M350 311.77a7 7 0 0 0 5.25 1.63"/><path d="M262 108.51zM326.86 184c13.85 2.7 28.11-9.47 28.11-9.47s-16.19-51.62-19-53-33.75-13.33-33.75-13.33-.6 13-19.66 13c-15.43 0-19.47-9.31-20.45-12.19a2.33 2.33 0 0 1-.17-.61c-.25.15-31.74 19.89-34.5 21.23-.52.25-3.68 4-3.75 10.73-3.73 15.27-9 41-9 41s24.48 12 29.24 2.45l1 1.81-4.76 96.38a182.84 182.84 0 0 0 50 5.12c28.28-.95 46.45-8.83 46.45-8.83L326.86 184z" fill="#fff"/><path d="M223.65 140.46c-3.73 15.27-9 41-9 41s24.48 12 29.24 2.45" fill="none" stroke="#262521" stroke-linecap="round" stroke-miterlimit="10" stroke-width=".71"/><path d="M326.79 184c13.85 2.7 28.11-9.47 28.11-9.47s-16.19-51.62-19-53-33.76-13.33-33.76-13.33-.59 13-19.65 13c-15.43 0-19.47-9.31-20.45-12.19-.23-.67-.17-.62-.17-.62s-31.73 19.9-34.5 21.24c-.67.32-5.76 6.52-2.88 17.37" fill="none" stroke="#262521" stroke-linecap="round" stroke-linejoin="round" stroke-width=".71"/><path d="M232.65 147.64s2.89 20.8 6.3 27.14l5.88 10.93L240.1 282a182.76 182.76 0 0 0 50 5.12c28.28-.95 46.45-8.83 46.45-8.83L326.47 181l2.42-6.75" fill="none" stroke="#262521" stroke-linecap="round" stroke-miterlimit="10" stroke-width=".71"/><path d="M327.77 148.7s-3.84 19.32-3 25.21 1.53 5.19 2 10.12M338.88 136s1.62-5.53-.49-9.76" fill="none" stroke="#262521" stroke-linecap="round" stroke-miterlimit="10" stroke-width=".71"/><path d="M241 236.15c.62-2.85 1.09-6.05 1.69-7.33.42-8.63 2.12-43.11 2.12-43.11l-1-1.81c-4.78 7.6-20.21 1.19-20.21 1.19l.06 6.59c23.43-6.59 17.34 43.95 17.34 44.47zM345 185.44l-.54-4.31a27.26 27.26 0 0 1-17.69 2.9s2.86 34 4.36 42.54a18.25 18.25 0 0 1 1.17 2.32c-.22-2.57-5.3-42.45 12.7-43.45z" fill="#262521"/><path d="M76.12 158.94a.42.42 0 0 1 .41-.43H82a7.85 7.85 0 1 1 0 15.7h-5.47a.42.42 0 0 1-.41-.43zm5.65 11.95a4.54 4.54 0 0 0 0-9.08h-2.15v9.08zM92.61 158.94a.42.42 0 0 1 .42-.43h6.71a4.79 4.79 0 0 1 1.57 9.35l3.07 5.7a.42.42 0 0 1-.38.65h-3a.42.42 0 0 1-.36-.2l-3-5.95h-1.51v5.72a.44.44 0 0 1-.43.43H93a.42.42 0 0 1-.42-.43zm6.84 6.28a1.8 1.8 0 0 0 1.7-1.8 1.71 1.71 0 0 0-1.7-1.7h-3.32v3.5zM107.64 158.94a.42.42 0 0 1 .42-.43h9.29a.43.43 0 0 1 .43.43v2.44a.43.43 0 0 1-.43.43h-6.21v2.78h5.11a.45.45 0 0 1 .43.42v2.45a.43.43 0 0 1-.43.43h-5.11v3h6.21a.43.43 0 0 1 .43.43v2.44a.43.43 0 0 1-.43.43h-9.29a.42.42 0 0 1-.42-.43zM119.89 172.08l1-1.86a.58.58 0 0 1 .76-.14 6.66 6.66 0 0 0 3.19 1.24 1.4 1.4 0 0 0 1.54-1.35c0-.94-.78-1.66-2.31-2.26-1.92-.77-4.35-2.27-4.35-5 0-2.22 1.73-4.46 5.18-4.46a8.34 8.34 0 0 1 4.8 1.68.57.57 0 0 1 .14.72l-1.15 1.72c-.15.25-.56.45-.76.29a7.05 7.05 0 0 0-3.21-1.34 1.3 1.3 0 0 0-1.41 1.14c0 .83.67 1.46 2.45 2.18s4.53 2.06 4.53 5.11c0 2.31-2 4.65-5.3 4.65a7.12 7.12 0 0 1-5-1.73c-.22-.19-.28-.28-.1-.59zM132.18 172.08l1-1.86a.58.58 0 0 1 .76-.14 6.66 6.66 0 0 0 3.19 1.24 1.41 1.41 0 0 0 1.55-1.35c0-.94-.79-1.66-2.31-2.26-1.93-.77-4.36-2.27-4.36-5 0-2.22 1.73-4.46 5.19-4.46a8.4 8.4 0 0 1 4.8 1.68.58.58 0 0 1 .13.72l-1.13 1.76c-.16.25-.56.45-.77.29a7.05 7.05 0 0 0-3.2-1.34 1.31 1.31 0 0 0-1.42 1.14c0 .83.68 1.46 2.45 2.18s4.53 2.06 4.53 5.11c0 2.31-2 4.65-5.29 4.65a7.14 7.14 0 0 1-5.05-1.73c-.19-.23-.25-.32-.07-.63z" fill="#fff"/><path d="M250.77 158.93a.42.42 0 0 1 .41-.43h5.47a7.85 7.85 0 1 1 0 15.7h-5.47a.42.42 0 0 1-.41-.43zm5.66 11.95a4.54 4.54 0 0 0 0-9.08h-2.16v9.08zM265.09 173.62l7-15.1a.44.44 0 0 1 .38-.24h.22a.44.44 0 0 1 .38.24l7 15.1a.39.39 0 0 1-.38.58h-2.49c-.4 0-.58-.14-.78-.56l-.81-1.77h-6.1l-.81 1.79a.84.84 0 0 1-.81.54h-2.46a.39.39 0 0 1-.34-.58zm9.21-4.8l-1.7-3.7-1.69 3.7zM278.68 159.08a.39.39 0 0 1 .38-.58h3a.42.42 0 0 1 .38.25l3.7 8.18h.14l3.7-8.18a.42.42 0 0 1 .38-.25h3a.39.39 0 0 1 .38.58l-7 15.1a.42.42 0 0 1-.38.24h-.22a.42.42 0 0 1-.38-.24zM295.55 158.93a.44.44 0 0 1 .42-.43h2.69a.44.44 0 0 1 .43.43v14.84a.44.44 0 0 1-.43.43H296a.44.44 0 0 1-.42-.43zM303 158.93a.42.42 0 0 1 .4-.43h5.47a7.85 7.85 0 1 1 0 15.7h-5.47a.42.42 0 0 1-.4-.43zm5.65 11.95a4.54 4.54 0 0 0 0-9.08h-2.15v9.08z"/><path d="M430 159.54a.42.42 0 0 1 .43-.42h6.7A4.87 4.87 0 0 1 442 164a4.93 4.93 0 0 1-3.32 4.51l3.07 5.7a.42.42 0 0 1-.38.65h-3a.43.43 0 0 1-.36-.21l-3-5.94h-1.55v5.72a.45.45 0 0 1-.43.43h-2.66a.43.43 0 0 1-.43-.43zm6.84 6.28a1.79 1.79 0 0 0 1.7-1.79 1.72 1.72 0 0 0-1.7-1.71h-3.32v3.5zM451.9 158.89a8.08 8.08 0 1 1-8.06 8.1 8.06 8.06 0 0 1 8.06-8.1zm0 12.56a4.49 4.49 0 1 0-4.47-4.46 4.49 4.49 0 0 0 4.47 4.46zM461.79 172.69l1-1.87a.59.59 0 0 1 .77-.13 6.74 6.74 0 0 0 3.18 1.23 1.41 1.41 0 0 0 1.55-1.34c0-.94-.79-1.66-2.31-2.27-1.93-.76-4.35-2.26-4.35-4.95 0-2.23 1.72-4.47 5.18-4.47a8.4 8.4 0 0 1 4.8 1.68.57.57 0 0 1 .13.72l-1.09 1.71c-.16.25-.56.45-.76.29a7.09 7.09 0 0 0-3.21-1.35 1.3 1.3 0 0 0-1.41 1.15c0 .83.67 1.46 2.44 2.17s4.53 2.07 4.53 5.12c0 2.31-2 4.64-5.29 4.64a7.11 7.11 0 0 1-5.05-1.73c-.22-.2-.29-.29-.11-.6zM475 159.54a.42.42 0 0 1 .42-.42h9.29a.42.42 0 0 1 .42.42V162a.42.42 0 0 1-.42.42h-6.21v2.78h5.11a.45.45 0 0 1 .43.43v2.45a.43.43 0 0 1-.43.42h-5.11v3h6.21a.42.42 0 0 1 .42.43v2.44a.42.42 0 0 1-.42.43h-9.31a.43.43 0 0 1-.42-.43z" fill="#fff"/></svg>