<svg xmlns="http://www.w3.org/2000/svg" width="720" height="1100" viewBox="0 0 720 1100"><path d="M159.12 928.31c-2.26 132.91-121.88 247.18-121.88 247.18l645.52 7.31s-46.27-244.29-90.07-281.46-66.51-314.8-66.51-314.8l-334.85 8.86s-29.55 176.98-32.21 332.91z" fill="#37373f" stroke="#222229" stroke-linecap="round" stroke-linejoin="round" stroke-width="8"/><path d="M428.59 961c-2.66-21.81-5.52-44.42-2.43-66.34a173.92 173.92 0 001.84-28.49 115.61 115.61 0 00-2.61-23c-3.84-19.09-10.22-37.56-14.16-56.62a633.47 633.47 0 01-9.49-64c-2.62-25.7-4-51.51-4.7-77.34-21.45 24.79-49.11 45.1-77.74 60.38-14.93 8-31 15.14-47.68 18.42a86 86 0 01-20.73 1.78c-.63 31 2 61.83 21.86 86.12 11.75 14.35 25 28.21 29.53 46.77 2.35 9.56 2.84 19.53 0 29-2.41 8.07-6.29 15.61-9 23.56-.7 2-1.34 4-1.84 6.12-.24 1-.46 2-.62 3 0 .1 0 .17-.05.24s0 .32 0 .52c0 .82.37 3.29.19 3a6.17 6.17 0 01.34 1.27c.23.43.47.85.68 1.24a42.63 42.63 0 002.95 4.78c-.29-.5 2.12 2.2 2.63 2.68.17.17.36.32.54.48a10 10 0 001 .69c1.12.62 2.32 1.22 3.4 1.9a.73.73 0 01.13.09c.74.25 1.47.54 2.2.8 1 .35 2 .66 3 1 2.68.87 5.31 1.77 7.91 2.86A33 33 0 01331.56 955c4.78 7.79 6 17.34 6.53 26.27.61 10.36-1 20.78-3.47 30.83-4.54 18.77-13 38.05-9 57.15 7.84 37.5 24 72.7 32.93 109.85l33.5.37c.33-8.87 1-17.74 2.11-26.58 3.31-25.26 11.14-48.56 21-71.92 7.74-18.33 15.63-37 17.16-57 1.59-21.06-1.19-42.11-3.73-62.97z" fill="#e2d9d7"/><path d="M230.56 786.09c1.4 4.31 2.92 8.59 4.64 12.78.11.23 1 2.3 1 2.3.35.76.7 1.52 1.06 2.28 1 2.06 2 4.1 3.11 6.1a120.72 120.72 0 0016.19 22.77 132.87 132.87 0 0010.28 10.41 75.9 75.9 0 008.38 6.79A111.08 111.08 0 00287.3 857l6 3 .88.39c1 .4 1.93.78 2.91 1.15a122.94 122.94 0 0024.91 6.29c-.17 0 3.25.4 3.63.44l2.61.24q3.32.27 6.64.41c5 .21 10.11.19 15.16 0 9.9-.41 19.21-1.08 28.28-3.21 19.11-4.49 36.39-16.34 51.4-29.63 15.87-14 31.11-31.3 43.22-47.32a534.88 534.88 0 0040.61-62.83c6.25-11.24 12-22.67 20.11-32.7 1.17-1.45 2.4-2.85 3.65-4.23-7.36-56.77-11.1-102.45-11.1-102.45l-334.88 8.85s-3.42 20.5-8.05 53.7c17.64 57.12 44.29 127.79 47.28 136.99z" fill="#222229" opacity=".55"/><path d="M639.74 304.48c-6.92 19.75-11.52 39.87-24 57.27-14 19.59-37.24 28.09-60.48 21-10.62-3.25-21.42-8.66-27.18-18.64-5.12-8.88-5.61-19.21-3.23-29a125.34 125.34 0 014.65-13.95c.66-1.78 1.34-3.56 2-5.34a1.85 1.85 0 00.09-.23c.26-.78.53-1.56.78-2.34.6-1.91 1-3.84 1.52-5.78.09-.39.17-.66.24-.88s0-.48 0-.87v-.93c-.07 1.63 0 .56-.15-.18-.12-.14-.28-.32-.48-.58-.35-.43-.67-.89-1-1.34-.19-.14-1.73-1.92-1.94-2.14-.7-.7-1.41-1.39-2.1-2.1-2.07-2.11-4-4.29-5.91-6.58a40.57 40.57 0 01-7.12-12.72c-4-12-3-26.47 3.5-37.2 94.45-155 156.6-141 153.21-148C654.26 56.63 520.07 156.14 494.62 197s-45.87 111.18-45.87 111.18-57.2 2.06-81.83 8.5-48.08-15.7-94.62-8.16c0 0-9.7-94.81-48.41-150.61S128.56 9 113.86 4.82A4 4 0 00110.11 6c19.31 48.6 50.36 91.27 75.68 136.79 12.19 21.91 24 44.93 31.5 69 5.13 16.46 7.37 34.13 8.75 51.26 2.9 35.84 3.45 79.1-19.46 109.06-10.83 14.15-28.77 24.45-46.88 24.27-19.72-.2-58.4-48.95-63-59.82-3.31-7.89-6.4-15.87-9.38-23.89-1.15 19.3-1 38.47 3.56 40.82 8.88 4.56 7 17.05 13.59 23.82s51 38.52 57 57.35-27.95 106.9-11.43 149.07 55.09 69.83 63.73 96.72 27.28 80.26 42 84.43S285.29 823.6 337 823.3s96.83-28.16 98-37.43 23.09-23.75 35.91-48.64 30.59-15.77 32.08-29.6-6-23.29 5.67-28.53 63.48-47.1 63.76-115.45S552.2 450 566.71 430.47s79.67-56.77 83.61-90.67a125 125 0 00-3.84-49.56 78 78 0 00-6.74 14.24z" fill="#37373f"/><path d="M91.34 271.7c-.7 4.54-2.91 22.79-4 40.92 3 8 6.07 16 9.38 23.89 4.57 10.87 43.25 59.62 63 59.82 18.11.18 36.05-10.12 46.88-24.27 22.91-30 22.36-73.22 19.46-109.06-1.38-17.13-3.62-34.8-8.75-51.26-7.47-24-19.31-47-31.5-69C160.47 97.27 129.42 54.6 110.11 6c-14 12.05-30.78 105.61-39.85 149.33C60.36 203 92.78 262.34 91.34 271.7zM87.25 314.38V314c.02.12.01.25 0 .38zM110.11 6l.46-.37zM87.07 318c0-.35 0-.69.05-1-.02.26-.03.6-.05 1zM87 319.7c0-.32 0-.65.05-1-.05.35-.05.68-.05 1zM86.92 321.45v-.93c.08.31.02.62 0 .93zM87.16 316.17v-.89c.03.3.01.6 0 .89zM110.64 5.59a6.81 6.81 0 01.74-.46 6.81 6.81 0 00-.74.46zM112.31 4.79h.27zM148 44.7l1.1 1.56zM155.4 55.42l1.22 1.78zM151.64 50c.39.55.77 1.11 1.16 1.67-.39-.6-.8-1.16-1.16-1.67zM111.59 5l.33-.13zM163.16 66.87l1.31 1.93zM135.56 27.54zM86.87 323.19v-.92zM113.26 4.72zM167.15 72.8l1.33 2zM87.28 343c0-.22 0-.44-.07-.67.03.25.05.47.07.67zM87.42 344.23c0-.21 0-.42-.07-.64.02.22.05.41.07.64zM87 339.05v-.75c-.06.25 0 .5 0 .75zM87.05 340.43v-.73c-.05.3-.05.49 0 .73zM87.16 341.75l-.06-.7zM88 347.5c0-.18-.07-.35-.11-.53 0 .18.03.35.11.53zM86.82 324.9v-.9c.02.3.01.6 0 .9zM87.76 346.47c0-.18-.06-.37-.1-.57.04.2.07.39.1.57zM87.58 345.39c0-.2-.06-.41-.08-.61.02.22.05.41.08.61zM86.76 328.27v-.89c.01.3 0 .62 0 .89zM86.75 329.92zM86.75 330.68zM86.78 326.61v-.92c.02.31.01.61 0 .92zM86.79 334.66v-.82c-.01.28-.01.55 0 .82zM86.83 336.17v-.81c-.01.27-.01.54 0 .81zM86.89 337.64v-.79zM86.76 333.11v-.83.83zM142.69 37.24q1.62 2.25 3.28 4.6-1.66-2.35-3.28-4.6zM502 688.37v0zM502.72 684.53a9.81 9.81 0 00-.6 2.25 9.81 9.81 0 01.6-2.25zM519.07 169q3.9-3.74 8.17-7.58-4.24 3.8-8.17 7.58zM513.65 174.28v.05a.12.12 0 000-.05zM389.15 814.21l2.53-.89zM400.25 810l-.81.34zM496.89 193.58c.31-.43.63-.88 1-1.33-.37.45-.69.9-1 1.33zM395.42 811.94l1.1-.43zM409.77 805.65h.05zM506.35 182c.84-.93 1.7-1.87 2.59-2.82-.89.93-1.75 1.87-2.59 2.82zM113.86 4.82c3.45 1 9.19 6.84 16.47 16-7.28-9.12-13-15-16.47-16zM595.26 110.45c3.19-2 6.36-3.83 9.49-5.61-3.13 1.78-6.3 3.66-9.49 5.61zM527.91 160.77zM584.08 117.56q2.1-1.4 4.2-2.73-2.1 1.34-4.2 2.73zM616.49 98.53zM88.18 348.46l-.12-.5zM544.75 146.43q5.32-4.32 10.88-8.59-5.55 4.26-10.88 8.59zM559 135.27q3.5-2.62 7-5.2-3.51 2.58-7 5.2zM611.06 101.35l.66-.35zM219.62 151.67c1 1.48 2 2.94 3 4.38-.98-1.44-1.99-2.9-3-4.38zM206 131.47l3.3 4.95zM383 816.16c.94-.28 1.88-.57 2.81-.87-.89.3-1.81.59-2.81.87zM202 125.41l1.35 2zM197.9 119.27l1.37 2.08zM130.33 20.78zM191.73 109.94l3.46 5.23zM237.81 181.84c.74 1.5 1.47 3 2.18 4.54-.71-1.52-1.44-3.04-2.18-4.54zM180.05 92.24c.92 1.39 1.84 2.79 2.77 4.18-.93-1.42-1.82-2.79-2.77-4.18zM255.28 226.94q1.3 4.25 2.47 8.41-1.17-4.17-2.47-8.41zM264 260.28c4.07 18.23 6.37 33.4 7.47 41.6-1.07-8.2-3.37-23.37-7.47-41.6zM272.3 308.49s-.23-2.26-.76-6.28c.53 4.02.76 6.28.76 6.28zM379.05 817.31c.85-.24 1.69-.47 2.52-.72-.83.25-1.67.48-2.52.72zM262.09 251.91q.89 3.68 1.69 7.23-.78-3.56-1.69-7.23zM259.06 240.09c.41 1.49.8 3 1.18 4.44a294.9 294.9 0 00-1.18-4.44zM260.63 246.06c.38 1.49.75 3 1.11 4.43-.36-1.49-.74-2.94-1.11-4.43zM254.31 223.82q-.83-2.62-1.69-5.25.87 2.63 1.69 5.25zM570.07 127.16q5-3.59 10.09-7-5.05 3.42-10.09 7zM575.78 421l-.36.33zM626 378.24q-1.61 1.58-3.25 3.13 1.61-1.56 3.25-3.13zM626 378.24c1.6-1.56 3.16-3.14 4.66-4.73-1.54 1.59-3.1 3.17-4.66 4.73zM572.42 563.65a131.67 131.67 0 01-1.36 18.51 133.16 133.16 0 001.37-18.51c.11-27.45-3.13-51.17-6.11-71 2.98 19.83 6.22 43.55 6.1 71zM578.3 418.78l-.51.45zM602.35 399l-.77.63zM487 720.23c5.66-2.94 10.73-3.82 13.62-6.86-2.94 3.04-8.01 3.92-13.62 6.86zM620.24 383.65c-4.9 4.49-10 8.88-15.14 13.1 5.1-4.22 10.24-8.61 15.14-13.1zM597.18 403.22l-.8.65zM648.33 347.79zM569.5 590.88a132.85 132.85 0 01-4.59 16.33 132.85 132.85 0 004.59-16.33zM564.91 607.21c-.91 2.59-1.88 5.13-2.92 7.6 1.01-2.47 2.01-5.01 2.92-7.6zM570.6 585.11a125.44 125.44 0 000 0zM503.64 682.87zM505.11 681.27a14.62 14.62 0 013.54-2.17c2.55-1.14 7-4 12.46-8.58-5.44 4.54-9.91 7.44-12.46 8.58a14.62 14.62 0 00-3.54 2.17zM527.26 665c-2.15 2-4.21 3.87-6.15 5.5 1.94-1.61 4-3.44 6.15-5.5zM557.58 624.33q-2.33 4.59-4.87 8.83 2.53-4.24 4.87-8.83zM562 614.81c-1.37 3.29-2.85 6.46-4.41 9.52 1.55-3.06 3.03-6.23 4.41-9.52zM527.26 665a153.14 153.14 0 0025.45-31.86A153.14 153.14 0 01527.26 665zM650.69 312.67zM651.18 327.62c0 1.16-.08 2.33-.14 3.52.06-1.14.11-2.36.14-3.52zM650.7 336zM651 316.5c-.06-1-.13-2-.21-2.92.06.95.13 1.93.21 2.92zM647 351c-.75 1.62-1.61 3.23-2.56 4.85A66.49 66.49 0 00647 351zM672.17 93.9c3.37 7-58.78-7-153.21 148-6.54 10.73-7.52 25.23-3.5 37.2a40.57 40.57 0 007.12 12.72c1.87 2.29 3.84 4.47 5.91 6.58.69.71 1.4 1.4 2.1 2.1.21.22 1.75 2 1.94 2.14.32.45.64.91 1 1.34.2.26.36.44.48.58.18.74.08 1.81.15.18v1.8c0 .21-.15.49-.24.88-.49 1.94-.92 3.87-1.52 5.78-.25.78-.52 1.56-.78 2.34a1.85 1.85 0 01-.09.23c-.67 1.78-1.35 3.56-2 5.34a125.34 125.34 0 00-4.65 13.95c-2.38 9.81-1.89 20.14 3.23 29 5.76 10 16.56 15.39 27.18 18.64 23.24 7.1 46.49-1.4 60.48-21 12.43-17.4 17-37.52 24-57.27a78 78 0 016.74-14.24 62.53 62.53 0 00-2.51-7.09s27.26-21.25 15-124.1c0 0 31.08-27.83 13.17-65.1zM651.13 319.77c0-1.06-.08-2.11-.14-3.14.06 1.03.11 2.08.14 3.14zM651.21 323.16c0-.81 0-1.61-.05-2.41.02.8.04 1.6.05 2.41zM651 332.22c-.05.89-.12 1.79-.19 2.7.05-.92.12-1.81.19-2.7z" fill="#74473c"/><path d="M648 296.1c-.15-.64-.3-1.26-.45-1.85.18.59.33 1.21.45 1.85zM647.52 294c-.35-1.38-.7-2.64-1-3.77.3 1.15.65 2.41 1 3.77zM638.9 363.92zM644.42 355.86a79.24 79.24 0 01-5.52 8.06 79.24 79.24 0 005.52-8.06zM651.18 327.54v-3.35c.04 1.1.03 2.22 0 3.35zM649.64 304.28zM648.12 296.45q.5 2.16 1 4.62-.5-2.46-1-4.62zM649.53 303.61c-.11-.67-.23-1.33-.34-2 .11.67.23 1.33.34 2zM444.67 771.64q-1.51 1.67-2.85 3.19 1.34-1.53 2.85-3.19zM100.83 371.33zM121.61 391.56zM98 362.84c-.2-.56-.4-1.11-.62-1.64.21.53.41 1.08.62 1.64zM98.55 364.52c-.18-.56-.37-1.13-.56-1.68.19.55.38 1.16.56 1.68zM162.08 444.59zM101.18 372.14a16.84 16.84 0 003.32 5.12c1.86 1.91 6.71 5.79 12.85 10.8-6.14-5-11-8.89-12.85-10.8a16.84 16.84 0 01-3.32-5.12zM97 360.4a19.33 19.33 0 00-1.18-2.26A19.33 19.33 0 0197 360.4zM162.23 441.62a22.2 22.2 0 00-.72-7c-4-12.36-24.43-30.28-39.9-43.05 15.47 12.77 35.93 30.69 39.9 43.05a22.2 22.2 0 01.72 7zM89 350.9c-.06-.12-.11-.25-.16-.38.02.13.07.26.16.38zM89.6 352.14l-.19-.3zM95.39 357.43a14.61 14.61 0 00-1-1.32 14.61 14.61 0 011 1.32zM161.78 447.88c.11-1.06.21-2.08.29-3.05-.07.97-.18 1.99-.29 3.05zM88.68 350.16c-.05-.14-.1-.27-.14-.42.04.15.09.26.14.42zM89.27 351.56l-.17-.34zM90.5 353.18a3.42 3.42 0 00.4.26 3.42 3.42 0 01-.4-.26zM90.11 352.82a2.68 2.68 0 00.26.23 2.68 2.68 0 01-.26-.23zM90 352.64c-.07-.09-.14-.17-.21-.27.03.1.1.18.21.27zM283.65 797.07C295.57 810.71 312 823.44 337 823.3q3.63 0 7.22-.22-3.59.2-7.22.22c-25 .14-41.43-12.59-53.35-26.23zM88.42 349.35c0-.15-.09-.3-.13-.46.04.16.09.31.13.46zM367.39 820.09q3.09-.63 6.07-1.34-2.98.71-6.07 1.34zM367.39 820.09q-4.31.87-8.75 1.53 4.44-.62 8.75-1.53zM150.08 583.68c-10.53-26.88-.54-72.41 6.53-106.77-7.07 34.36-17.06 79.89-6.53 106.77 16.52 42.17 55.09 69.83 63.73 96.72 3.92 12.19 9.89 29.81 16.61 45.83-6.72-16-12.69-33.64-16.61-45.83-8.64-26.89-47.21-54.55-63.73-96.72zM458.58 755.88zM469.67 739.53c-.83 1.52-1.7 3-2.59 4.43.92-1.43 1.76-2.91 2.59-4.43zM485 721.31a33.25 33.25 0 00-2.88 2 33.25 33.25 0 012.88-2zM464.34 748.16q-1.41 2-2.85 4 1.44-1.96 2.85-4zM344.23 823.08q5.85-.33 11.53-1.07-5.67.74-11.53 1.07zM233.24 732.74zM236.86 740.46c-1-2-1.94-4-2.9-6.13.96 2.11 1.93 4.16 2.9 6.13zM283.65 797.07zM160.39 457.42c.2-1.17.38-2.31.56-3.42-.18 1.11-.36 2.25-.56 3.42zM157.31 473.48c1.12-5.48 2.14-10.63 2.95-15.33-.81 4.7-1.83 9.85-2.95 15.33zM239.06 744.79c-.49-.93-1-1.88-1.47-2.86.49.98.98 1.93 1.47 2.86zM278.22 790.45zM243.22 752.06c.19.3.38.61.58.9-.2-.29-.39-.6-.58-.9z" fill="#74473c"/><path d="M553.42 498a40.69 40.69 0 01-5.22-3.2c-8.31-5.94-13.63-13.86-18.85-22.42-8-13.15-22.42-21.62-35-31.83a98.77 98.77 0 01-17.13-17.72c-4.52-6.08-6.19-10.09-10.91-14.32-.44-.39-4.16-3.2-3.77-3a47.94 47.94 0 00-4-2.25c-3.34-1.67-1.65-1.11-5.3-2.07-1.6-.43-3.22-.7-4.84-1-.49-.1-.83-.17-1.08-.24s-.61.06-1.13.08c-1.1 0-2.19 0-3.29.08-.2 0-3.47.46-3.26.34a37.68 37.68 0 00-7.61 2.5c.08.06-3 1.83-3 1.84a44 44 0 00-4 2.84c.11 0-3 3-2.75 2.72-.67.71-1.35 1.44-2 2.19s-4 5.57-2.82 3.63c-6.38 10-12.17 20.38-19 30.11s-15.82 19.72-27.63 23.56c-14.87 4.78-29.75-1.32-40.27-12.18-6.22-6.42-11.14-13.76-16.17-21.11-1.91-2.8-3.84-5.6-5.95-8.26q-1.94-2.55-1-1.22L305.6 425c-.47-.52-1.27-1.41-1.53-1.68a95.56 95.56 0 00-13.73-12.56c-.13-.06-1.22-.75-1.42-.87-1-.58-2.06-1.13-3.12-1.64a8.08 8.08 0 01-1.42-.41c.39.33-1.58.41-.26-.09l-.19-.06a18.74 18.74 0 01-7.65-.14c-12.32 2.84-24.73 5.37-36.51 10.05-13.1 5.21-23.48 15.58-32.85 25.79s-17.75 21-26.61 31.53c-3.75 4.46-8.87 9.5-11.77 13.84a26.6 26.6 0 00-4.95 12.24 20.1 20.1 0 00-.17 6.09c.07 1.16.18 2.33.35 3.48-.12-.82-.72-2.54.21.76.65 2.32 1.31 4.62 2.17 6.87.35.9.72 1.82 1.12 2.71.09.14.81 1.55.88 1.67 6.13 11 14 20.46 19.35 32.06 10.75 23.34 14.68 49.53 17.36 74.89 1.66 15.76 5.27 31.38 7.54 47.1.52 1.26 1 2.51 1.41 3.76 6.7 20.84 19.39 57.54 31.61 75a191.22 191.22 0 015-33.36c3.51-14.33 9.59-30.69 9.5-45.09a19.72 19.72 0 01-9-9.92c-8.16-19.1-8.88-40.06-.66-59.24 8.89-20.74 26.61-31.58 44.93-42.9a75 75 0 009.5-6.57c1.63-1.44 2.93-3.17 4.45-4.71.22-.23.37-.37.49-.48s.16-.36.31-.66c3-6 5.42-12.23 8.49-18.16 8-15.59 24.43-27.55 42.78-22.79 16.23 4.22 22.2 18.39 29.53 31.67.8 1.44 1.67 2.82 2.55 4.21.25.4.54.8.83 1.18l.46.43c2.39 2.24 4.73 3.38 8 5.44 5.24 3.31 9.74 6.69 13.69 11.49 2.1 2.54 4.12 6.05 6 8.2 2.49 2.81 4.64 3.67 8.8 5.53a85.4 85.4 0 0110.55 5.1c9.29 5.8 16.44 14.63 17.3 25.88 1 13.88-7.45 23.57-18.66 28.47a43.45 43.45 0 011.95 11.38c.17 6.18-1.95 12.23-2.45 18.35a49.68 49.68 0 00.94 14c4.51 21.12 21.41 32.62 33.08 49.43 12.44-18.65 27.77-11.8 29.15-24.61a38.47 38.47 0 00.15-6.12c-2.42-8.22-4.12-16.51-2.95-25.23 1.58-11.87 8.72-22.21 15.55-31.69 6.14-8.52 13.24-16.37 18.93-25.2a133.07 133.07 0 0013-26.1c6.27-17.39 9-37.52 10.12-55.61.64-10 1.82-20.31-.91-29.64-.92-3.43-2.12-6.76-3.4-10.07z" fill="#fff" opacity=".2"/><path d="M113.86 4.81A4 4 0 00110.11 6c19.31 48.59 50.36 91.26 75.68 136.79 12.19 21.91 24 44.93 31.5 69 5.13 16.45 7.37 34.13 8.75 51.26 2.9 35.84 3.45 79.09-19.46 109.05-10.83 14.16-28.78 24.46-46.88 24.28-19.72-.2-30.95-14.88-41.5-31.32-6.39-9.95-27.88-44.37-30.85-52.39" fill="none" stroke="#222229" stroke-linecap="round" stroke-linejoin="round" stroke-width="8"/><path d="M512.63 492.2s9 23.66-20.88 30.4-36.48-15.6-36.48-15.6l6.79-25z" fill="#222229"/><path d="M646.48 290.24a77.71 77.71 0 00-6.74 14.24c-6.92 19.75-11.52 39.87-24 57.26-14 19.59-37.24 28.1-60.48 21-10.62-3.24-21.42-8.65-27.18-18.63-5.13-8.88-5.61-19.22-3.23-29a125.34 125.34 0 014.65-13.95c.66-1.79 1.34-3.57 2-5.35 0-.06.06-.14.09-.22.26-.78.53-1.56.78-2.35.6-1.91 1-3.83 1.51-5.77.1-.39.18-.66.24-.88s0-.48 0-.88v-.93h0v0c-.07 1.64 0 .57-.15-.18-.12-.13-.28-.31-.48-.57-.35-.43-.67-.89-1-1.35-.19-.13-1.73-1.92-1.94-2.13-.7-.71-1.41-1.4-2.1-2.11-2.07-2.1-4-4.28-5.91-6.57a40.57 40.57 0 01-7.12-12.72c-4-12-3-26.47 3.5-37.2 94.45-155 156.6-141 153.21-148" fill="none" stroke="#222229" stroke-linecap="round" stroke-linejoin="round" stroke-width="8"/><path d="M479.48 725.49c5.64-18-2.79-21.71-13.34-34.45-8.77-21.16-27-55.17-31.8-60.55s-39.88-17.27-50-17.27-38.37 11.53-85.85 2.8a42 42 0 00-20.07 9.27c-34.42 31.92-35.49 101.34-27.09 136.92 11.27 5.2 15.25 12.38 26 27.12 38 58.32 116.31 28.09 147.87 7.17 8.64-7.35 29.38-36.6 54.28-71.01z" fill="#e2d9d7"/><path d="M323.11 725.79c-17.51 8.58-41.53 42.83-29.7 55.21 4.15 2.44 73.78 2.17 103.74.8 7.72-.35 12.57-.78 13.35-1.26 1.49-15.14-6.65-51.23-18.24-59.18" fill="#74473c" opacity=".4"/><path fill="none" stroke="#222229" stroke-linecap="round" stroke-linejoin="round" stroke-width="10.75" d="M351.95 734.7l-.94 39.13"/><path d="M286.33 693s2.87 20.71 15.83 27.36 35.78 33.93 79.79 14.38 38.34-37.21 38.34-37.21 13.92-52.6-40.32-51.39-92.7-10.78-93.64 46.86z" fill="#37373f" stroke="#222229" stroke-linecap="round" stroke-linejoin="round" stroke-width="8"/><path d="M331.3 685c11 .9 18.39 16.3 31.53 13.47 74.26-20.41-11-54.27-46.4-34.4-10.72 10.43 4.3 18.29 14.87 20.93zM324.34 717.23c4.86-.22 11.66-1.76 12.28-7.61s-9.58-6.93-13.7-7.78a5.58 5.58 0 01-2.82-1.42A38 38 0 01316 703c-5.23 4.39-14.67 3.43-22.46-1.23 5.89 10.1 20.01 15.95 30.8 15.46zM386.45 704.72c-4.95.51-10.41 1.56-11.21 4.48-1.33 4.82 9.75 8.26 12.94 8.74 10.64 1.62 21.05-2.88 25.83-11.51-3.64 3.03-25.46 10.03-27.56-1.71z" fill="#fff" opacity=".27"/><path d="M375.52 723.52c-7.79-4.43-14.13-10.34-21.89-17.3-12.33 2.93-24.66 17.23-39.18 22.3 20.09 14.4 44.32 19.39 76.78 1.73a76.53 76.53 0 01-15.71-6.73zM320.68 683.13c-15.36 0-6 8.65-13.62 13.4-12.23 14.58 12.74 19.07 21.31 11.84 10.63-6.04 7.11-27.37-7.69-25.24zM395.32 700.77c9.51-24.26-30.82-12.8-23 6.11 7.34 12.56 36.77 7.45 23-6.11z" fill="#222229"/><path d="M390.4 711.63s22.24 3.56 29.89-14.11M313.14 710.05s-16.68-3.88-26.81-17.06" fill="none" stroke="#222229" stroke-miterlimit="10" stroke-width="2.69"/><path d="M412.46 780.26s-75.53-20.34-122.46-2.44c0 0 59.05 57.25 122.46 2.44z" fill="#222229"/><path d="M272.3 308.49s-9.7-94.81-48.41-150.61S128.56 9 113.86 4.82s-33.71 102.82-43.6 150.51 22.52 107 21.08 116.37-9.32 77.18-.43 81.74 7 17.05 13.59 23.82 51 38.52 57 57.35-27.95 106.9-11.43 149.07 55.09 69.83 63.73 96.72 27.28 80.26 42 84.43 29.49 58.77 81.2 58.47 96.83-28.16 98-37.43 23.09-23.75 35.91-48.64 30.59-15.77 32.08-29.6-6-23.29 5.67-28.53 63.48-47.1 63.76-115.45S552.2 450 566.71 430.47s79.67-56.77 83.61-90.67-6.32-56.7-6.32-56.7 27.26-21.25 15-124.1c0 0 31.13-27.81 13.21-65.08S520.07 156.14 494.62 197s-45.87 111.18-45.87 111.18-57.2 2.06-81.83 8.5-48.08-15.68-94.62-8.19z" fill="none" stroke="#222229" stroke-linecap="round" stroke-linejoin="round" stroke-width="8"/><ellipse cx="485.74" cy="493.43" rx="26.95" ry="26.52" transform="rotate(-17.82 485.729 493.433)" fill="#72453e"/><path d="M501.76 472a39.73 39.73 0 014.13 10.61c2.7 11.39 2.52 23.23-6.23 32.05a46 46 0 01-3.44 3.15 26.7 26.7 0 0015.18-32.61 26.08 26.08 0 00-9.64-13.2z" fill="#fefdff" opacity=".51"/><path d="M455.27 507s-4-30.51 19-43.18 44.54 11.64 44.18 15.47-2.82 9.38-9.28 2.45-38.52-35.26-53.9 25.26z" fill="#222229"/><ellipse cx="484.19" cy="493.93" rx="13.47" ry="13.26" transform="rotate(-17.82 484.184 493.91)" fill="#222229"/><path fill="#fff" d="M462.92 490.63l1.01 3.15 8.27.93-.27-2.94-9.01-1.14zM473.16 477.46l1 3.05 8.25.28-1.05-3.27s-6.09-1.52-8.2-.06zM490.83 485.55l-.73 2.15 2.53 1.58.31-2.25-2.11-1.48z"/><ellipse cx="491.87" cy="479.46" rx=".56" ry="2.23" transform="rotate(-53.85 491.914 479.474)" fill="#fff"/><ellipse cx="493.99" cy="485.03" rx=".56" ry="1.19" transform="rotate(-33.91 493.99 485.042)" fill="#fff"/><ellipse cx="478.71" cy="471.55" rx=".56" ry="1.2" transform="rotate(-53.85 478.744 471.56)" fill="#fff"/><path d="M456.25 501s-2.69 7.92 5.12 11.54a37 37 0 01-5.12-11.54z" fill="#fff"/><path d="M200 492s5.6 36.68 39.2 27.59c26.34-7.17 23.2-28.59 23.2-28.59l-20.68-9.49-33.92-.46s-9.8.05-7.8 10.95z" fill="#222229"/><ellipse cx="233.06" cy="490.14" rx="26.95" ry="26.52" transform="rotate(-17.82 233.035 490.12)" fill="#72453e"/><ellipse cx="231.73" cy="491.31" rx="13.47" ry="13.26" transform="rotate(-17.82 231.71 491.285)" fill="#222229"/><path d="M262.4 491s-5.81-32.5-24.81-31.63-34.82 12.54-37.27 23 4.35 11 5.82 7.73 6-25.18 30.22-24.84c18.71.32 26.04 25.74 26.04 25.74z" fill="#222229"/><path fill="#fff" d="M229.3 489.62l-.12 2.51 5.46 1 .19-2.81-5.53-.7zM226.08 482.49l.49-2.68 4.2-2.12.2 3.23-4.89 1.57zM239.26 476.06l-.23 2.69 8.29.11.21-3.26-8.27.46z"/><ellipse cx="230.9" cy="472.77" rx="3.45" ry=".48" transform="rotate(-24.97 230.837 472.698)" fill="#fff"/><ellipse cx="241.53" cy="469.74" rx="1.18" ry=".61" transform="rotate(-17.82 241.527 469.722)" fill="#fff"/><path d="M207.93 478.05s-12.68 14.81.35 29.39c0 0-8.54-17-.35-29.39z" fill="#fff"/><path d="M272.12 712.11c2.6 0 2.6-4 0-4s-2.59 4 0 4zM262.71 700.94c2.59 0 2.6-4 0-4s-2.6 4 0 4zM258 719.19c2.59 0 2.6-4 0-4s-2.6 4 0 4zM280.55 723.6c2.59 0 2.59-4 0-4s-2.6 4 0 4zM266.46 729.58c2.59 0 2.59-4 0-4s-2.6 4 0 4zM272.3 736.44c2.59 0 2.6-4 0-4s-2.6 4 0 4zM286.7 742.73c2.59 0 2.6-4 0-4s-2.6 4 0 4zM280.29 757.9c2.59 0 2.6-4 0-4s-2.6 4 0 4zM272 754.74c2.6 0 2.6-4 0-4s-2.59 4 0 4zM430.91 743c2.59 0 2.59-4 0-4s-2.6 4 0 4zM439.84 737.91c2.59 0 2.59-4 0-4s-2.6 4 0 4zM433.89 720.53c2.59 0 2.59-4 0-4s-2.6 4 0 4zM449.43 732.65c2.59 0 2.59-4 0-4s-2.6 4 0 4zM444.17 711.77c2.6 0 2.6-4 0-4s-2.6 4 0 4zM455.06 708.27c2.59 0 2.6-4 0-4s-2.6 4 0 4zM450 721.91c2.59 0 2.6-4 0-4s-2.6 4 0 4zM420.35 736.17c2.59 0 2.6-4 0-4s-2.6 4 0 4zM441 692.78c2.59 0 2.6-4 0-4s-2.6 4 0 4z" fill="#222229"/><path d="M424.43 743a77.77 77.77 0 0122 41.33M433.94 740s20.72 16.27 26.45 30.23M446.45 724.63s18.79 7.66 26.27 27.07M455.85 715.22s33.42 3.45 42.2 9.24M468.62 707.44s22.15 1 30.16 6.58M264 720s-24.17 13.17-30.21 30.32M268.05 732.52s-21 16-25.12 35.37M277.13 743.79s-19.34 18.21-20.21 31.69" fill="none" stroke="#aaa19f" stroke-miterlimit="10" stroke-width="1.34"/><path d="M273.22 782.83c9.91-.14 14.26-4.16 25.32-6M408.91 780.84s22.19 6.15 25 3.52" fill="none" stroke="#222229" stroke-miterlimit="10" stroke-width="2.69"/><path d="M466.05 473.71a15.22 15.22 0 014.29-5M479.33 519.4s21.88 6 31.68-17.33M250.38 471.12a9.58 9.58 0 012.27 3.33M255.34 477.57s4 6.1 3.9 10.59M236.93 518.87A28.65 28.65 0 00261 500.41" fill="none" stroke="#fff" stroke-linecap="round" stroke-linejoin="round" stroke-width="1.01"/><path d="M260.35 673.47S233 649 196 654.29M453.73 683.81s41.28-14.68 64.12-2.44M190.19 483.57c.71-1.27 1.17-2.65 1.79-4a17.77 17.77 0 018-8.17M194.64 480.2a27.43 27.43 0 017.56-5.53M197.11 475.76a9.54 9.54 0 002-1.33 15.06 15.06 0 015.18-2.57M199.13 469q6.24-2.13 12.56-3.95M204.34 463.94a31.57 31.57 0 005.29-1.85c1.05-.57 1.85-1.42 2.94-1.94a31.59 31.59 0 0111.66-2.62c.68 0 1.56.08 1.73.75M218.93 456.15a20.17 20.17 0 016.58-1.7 8.42 8.42 0 016.29 2.13M214 461.49a10.18 10.18 0 015.69-1.26M228.25 452.27a5.81 5.81 0 013.34.73 24.22 24.22 0 013.36 1.91 4.52 4.52 0 012.1 2.51M235.13 452.83a1.62 1.62 0 01.89.43c1.81 1.4 3.71 2.91 4.51 5.05.4 1.06 1.95 1.67 2.62 2.58M226.24 456.65a3.36 3.36 0 013.85 1.46" fill="none" stroke="#fff" stroke-miterlimit="10" stroke-width=".67"/><path d="M214.31 457.27c-.1.07-.08-.16 0-.21 1.5-.62 3.2-.18 4.75.32s2.92 1 4.35 1.53M199.77 463.22a9.84 9.84 0 013.94-1c3.37-.29 7 0 9.7 2.07M202 466.72a9.8 9.8 0 017.62-.5M192.19 509.16a6.41 6.41 0 014.81 1.72M190.06 504.07a2.42 2.42 0 012.34.22 14.57 14.57 0 014.25 3.22M184.17 492.59l-.21-.38a9.58 9.58 0 012.48 1.33 25.16 25.16 0 014.95 4.18 11.06 11.06 0 012.76 5.79M195.57 501.36a6.91 6.91 0 002.26 3.8M197.75 508.92a5.69 5.69 0 003 1.92M196.65 512.1a5.3 5.3 0 013.16.88l5.38 2.8M202.36 521.07a58.46 58.46 0 007.69-2.15M208.93 527.51a17.88 17.88 0 004.56-2.76 20.27 20.27 0 01-7.16-.29M245.26 524.41l1.28-3.09M201.94 451.59c9.44-3.42 19-6.87 29.06-7.45 3.88-.22 8.09.12 11 2.64" fill="none" stroke="#fff" stroke-miterlimit="10" stroke-width=".67"/><path d="M206.32 452.72c2.45-1 5-1.82 7.47-2.64 2.71-.9 5.58-1.8 8.38-1.22M203.37 457.06l7.75-2.49M210.06 442.2c7-1.69 14.22 1.81 21.43 1.75M221 438.28a46.06 46.06 0 0117.88 2c5 1.58 10.11 4.41 12.08 9.28M233.1 430.28a22.54 22.54 0 0121.3 20.92M246.41 426.7c5.6 5.17 8.13 12.78 10.45 20 1.64 5.16 3.3 10.34 4.44 15.64M244.24 426.58a47.25 47.25 0 0111.34 29.15M263.11 437.08c2.1 5.22 4 10.59 4.64 16.19s-.17 11.51-3.17 16.28" fill="none" stroke="#fff" stroke-miterlimit="10" stroke-width=".67"/><path d="M260.4 436.86a103.25 103.25 0 015.15 19.41c.51 3.13.84 6.53-.66 9.33M279.33 439.63c1.18 2.57 1 5.53.77 8.34a42.56 42.56 0 01-2.4 11.45 19.63 19.63 0 01-6.93 9.25M272.78 441.89a47.17 47.17 0 01-.66 30.33M268.26 441.64a53.66 53.66 0 013.74 13.57 23.25 23.25 0 01-2.3 13.7 6.76 6.76 0 00-1.13 2.89M276.77 471.87c1.81-8.93 8.46-16.55 9.08-25.64.32-4.63-1-9.2-2.28-13.66" fill="none" stroke="#fff" stroke-miterlimit="10" stroke-width=".67"/><path d="M266.36 422.34a87 87 0 017.69 17.38c1.22 3.88 2.15 8.2.5 11.92M278.09 477.87a57.83 57.83 0 0014.81-51M279 471.65a38.23 38.23 0 005.36-39.8M280.88 480.5c3.83-.87 6.82-3.84 9.23-6.93 5.71-7.34 9.44-16 13-24.61.8-2 1.57-4.35.38-6.12" fill="none" stroke="#fff" stroke-miterlimit="10" stroke-width=".67"/><path d="M285.59 473.89c4-6.47 8-13 10.79-20.15s4.22-14.89 3-22.43M282.5 482a40.18 40.18 0 0012.67-5.66c7.53-5.38 9.26-14.12 11.95-22.47M282.36 486.45a48.26 48.26 0 0017.86-7.61c2.83-2 5.67-4.64 5.8-8.08M287.57 490.62l8.89-2.86M287.09 496.24a55.3 55.3 0 0012.45-4.86 27.94 27.94 0 009.86-8.9" fill="none" stroke="#fff" stroke-miterlimit="10" stroke-width=".67"/><path d="M296.12 498.51a117.43 117.43 0 009.79-8.15c4-3.71 7.83-7.81 10-12.83 3-7.14 2.35-15.26 1.59-23M303.93 482.61a22.65 22.65 0 006.81-22M285.56 485c5.93-6.54 12.11-13.55 13.71-22.23 1-5.23.16-10.6-.64-15.86M269.94 466.39L262 441.51a34.1 34.1 0 00-3.87-9M249.48 455.16c-.79-4.13-4.4-7.06-7.9-9.4a103.27 103.27 0 00-16.08-8.82M270.74 531.32c1.44-.87 2-2.63 2.48-4.25 1.31-4.74 2.42-9.54 3.31-14.37a7.78 7.78 0 000-4c2.52 7.42 2.84 17.62 1.3 25.3M279.21 507.92l7.44 23.16M283.15 506.42q2.21 8.64 4.93 17.12c.36 1.12 1 2.45 2.15 2.5M287.73 514.09a11.12 11.12 0 004 4.82M288.74 510.11a3.6 3.6 0 004.15 2M293.76 504.87a20.51 20.51 0 0012.37-6.78 40.07 40.07 0 007.31-12.34M251.12 526.6c-.67 3.82.85 7.06.08 11-1 5.11-2.48 10.57-6.59 13.77M258.26 527a52.63 52.63 0 01-1.88 12.9M245.86 531.21a50.13 50.13 0 01-9.72 11.18M238.67 529.29a66 66 0 01-10 8.37M240.07 532.51a18.59 18.59 0 00-4.24 4.43M236 544.47a32.44 32.44 0 01-9.79 10.17M225 545.29a82.68 82.68 0 01-18.8 14.31M218.75 538.53l-8.27 2.66M214.8 535.48a38.36 38.36 0 01-6.34 1.56M185.26 537.93a27.32 27.32 0 009.59 9.4c1.6.92 3.44 1.71 5.25 1.35M192.82 538.86c3.92 5 8.94.85 12.15-2.6M203.71 531.5a15.53 15.53 0 01-13 0M201.15 527.77a3 3 0 01-2.45-.16 32.57 32.57 0 01-6.12-3M200.24 522.12c-1.3.72-2.92.11-4.24-.58a37.21 37.21 0 01-7.37-5.06M197.69 519.39a14.32 14.32 0 01-4.31-2.71 65 65 0 01-8.41-8.43" fill="none" stroke="#fff" stroke-miterlimit="10" stroke-width=".67"/><path d="M188.68 528.49a18.28 18.28 0 0017.35.33c.3.69 1.44 2.87.91 3.41-3.49 3.58-8.94 4.36-13.94 4.25M192.34 545.81a47 47 0 0013.41-5.23c-3.75 2.68-8.95 4.09-13.41 5.23zM206.24 547.24a37.79 37.79 0 01-14.78 5.09M183 576.37a17 17 0 001.88 4.41 33.82 33.82 0 0029.34 16.63M186.4 567.86c-.57 2.68 1.32 5.45 3.82 6.58a12.23 12.23 0 008.06.22c2.65-.7 5.16-1.85 7.8-2.58M200.57 580.76a19.19 19.19 0 0013.13-4.06M220.45 576a60.7 60.7 0 0011.23-10M209.85 568.55A79.14 79.14 0 00225 553.3M216.06 584.08a51.49 51.49 0 0026.19-13.93" fill="none" stroke="#fff" stroke-miterlimit="10" stroke-width=".67"/><path d="M229.67 586c-.11-.25-.53.12-.35.34s.51.18.77.09c2.22-.69 3.94-2.41 5.46-4.17a58.45 58.45 0 0011.09-19.21M207.07 589a27.41 27.41 0 0013.19 1.41M240.91 583.24c.33.22.73-.13 1-.45 4.09-5.57 5.44-12.63 6.69-19.42M250.78 571.68a115.34 115.34 0 004.9-14M244.65 555.63c-1.06 3.22-3.92 5.45-6.64 7.47M236.73 552.43a16.22 16.22 0 01-5 4.39M237.28 555.32a24 24 0 01-7.71 8.94M223.12 567a17.72 17.72 0 01-7.34 5.3M225.86 577.2c-3.78 1.39-7.88 2.79-11.75 1.68M289.14 558a78.27 78.27 0 018.34-2.62A12.17 12.17 0 01300 555c2.73-.09 5.19 1.51 7.44 3M293.64 549.19a16.12 16.12 0 0112.47.61M288 537.08a30.79 30.79 0 0113.93-2.41M308.63 526.16c1.12 3.47 1.72 9.58 4.53 11.89a5 5 0 01-2.68-1.79 55.09 55.09 0 01-7.45-10M302.86 538.37a23.33 23.33 0 018.31 2.24M301.57 510.15l5.16 3c1.78 1 3.56 2.1 5.25 3.29a9.29 9.29 0 013.64 4.1M311.6 527.89a12.86 12.86 0 008.37 5.76M318 520.31q3.88 6.26 8.37 12.13M323.85 509.52l7.71 13.23M318.3 502.16l6.51 20.25c.11.37.33.8.7.79M318.38 493.45c-.29-.09-.5.26-.59.54-.64 1.92-1.23 3.86-1.8 5.8a11.77 11.77 0 00-.56 2.93 10.66 10.66 0 00.49 3 52.12 52.12 0 001.92 5.69M328.11 485.67L335.3 508M340.87 504.24a167.32 167.32 0 01-3.87-20.08M350.21 474.61c-1.13 9.16-2.22 18.78 1.18 27.37M340.82 472.7a47.51 47.51 0 001.57 16.61M336.39 480.61c-1.26 13.12-2.26 26.9 3 39M325.46 489.86l4.65 14.5a8 8 0 001.28 2.73M355.59 509.31q.63 4.24 1 8.53M363.31 515.42c0-.11.15-.19.25-.11a.44.44 0 01.09.34 57.07 57.07 0 01-.43 6.26M361.74 494q1.51 5.19 3.26 10.3M369.16 502q1.84 5.4 3.29 10.94M398 516a49.35 49.35 0 01-4.22 6.58M386.44 540a15.11 15.11 0 007.62-4.89 43.73 43.73 0 005.08-7.64c1.74-3.09 3.52-6.48 3-10M401.2 534q5.74-6.35 12.11-12.11M423.73 537.67c-5.47 1.67-11.12 4.86-16.54 6.67M420.58 530a38.81 38.81 0 00-10.16 4.33M410.57 499.93a42.72 42.72 0 01-2.6 4M415.67 504l-2.81 3.49c-2 2.51-4.12 5.08-6.91 6.7M413.2 510.93a12 12 0 01-8.77 10.29M472 463.43c4.65-1.17 9.23-2.44 13.81-3.68 4.32-1.17 8.64 1.83 11.64 4.78M479.13 458.58a9.73 9.73 0 017.43 3.21M492.31 458.38a3.3 3.3 0 012.4-.27 33.88 33.88 0 0113.72 5.32M508.37 469.54c1.77-.85 3.89-.27 5.72.45a42.23 42.23 0 017.91 4.11M512 473.33a7.72 7.72 0 015.47 2.53M503.55 466.64c-.34-.05.09-.52.43-.5l10 .64M477.64 456.93c10.18-3.28 20-4.92 30.72-3M501.05 455a53.52 53.52 0 0119.68 9c2.77 2 4 7.79 5.71 10.75M476.62 451.89c8.32-1.71 16.24-7.12 24.6-5.59a30.38 30.38 0 017.06 2.53l9.46 4.28" fill="none" stroke="#fff" stroke-miterlimit="10" stroke-width=".67"/><path d="M495.93 450.18L515 444a10.56 10.56 0 015.35-.75M508.88 452.93a57.37 57.37 0 0113.4 6.18M526.18 426.17l8.06 4.85M467.68 452.76a17.83 17.83 0 016.54-10.38 23.42 23.42 0 0111.46-4.66M472.88 450.85a29.12 29.12 0 0125.4-12M477.55 450.19a219.19 219.19 0 0123.63-7.66c1.76-.46 3.75-.87 5.32.05" fill="none" stroke="#fff" stroke-miterlimit="10" stroke-width=".67"/><path d="M468.43 454.81c-1.19-1.69-1.33-3.89-1.4-6-.16-4.55-.16-9.17 1.06-13.55s3.82-8.55 7.79-10.77" fill="none" stroke="#fff" stroke-miterlimit="10" stroke-width=".67"/><path d="M465.56 459.1c1.09-.19 1.79-1.23 2.35-2.19q3.25-5.54 6.1-11.3c2.06-4.2 4.38-8.88 8.78-10.45M457.8 445.19a33.09 33.09 0 015.59-13.78M457.32 450.31l5.59-13c.37-.86.88-1.83 1.8-2M450.65 460.51a41.49 41.49 0 01-6.4-16.59c-.51-3.37-.55-7 1.24-9.93 1.92-3.12 5.52-4.71 8.9-6.13" fill="none" stroke="#fff" stroke-miterlimit="10" stroke-width=".67"/><path d="M451.14 453.28a51.86 51.86 0 00-2.14-6.86 16 16 0 01-1-7.06 7 7 0 013.87-5.68" fill="none" stroke="#fff" stroke-miterlimit="10" stroke-width=".67"/><path d="M455.43 461.38a42.89 42.89 0 01-1.5-31.82c1.35-3.87 3.36-7.64 6.57-10.19M444.93 463.41a118.46 118.46 0 01-5.48-14.12c-2.13-6.73-3.66-13.79-3-20.81s3.8-14.05 9.51-18.19" fill="none" stroke="#fff" stroke-miterlimit="10" stroke-width=".67"/><path d="M449.08 418a48.15 48.15 0 00-6.44 14.83 27.82 27.82 0 00-.92 8.41 30.14 30.14 0 002 8.33M441.62 467.85a58.62 58.62 0 01-6.53-51.59c-5.9 13.82-9.8 28.08-4.42 42.12a32.17 32.17 0 003.44 6.8c2.95 4.23 7.3 7.28 10.66 11.2" fill="none" stroke="#fff" stroke-miterlimit="10" stroke-width=".67"/><path d="M427.36 437.66c-2.72 5.5-1.5 12-.23 18 1.17 5.52 2.36 11.08 4.54 16.27s5.47 10.08 10.1 13.29" fill="none" stroke="#fff" stroke-miterlimit="10" stroke-width=".67"/><path d="M423.19 446.26c3.14 7.66 4 16.32 8.54 23.22a7.43 7.43 0 002.27 2.42M420.33 468.24c2.27 10.1 4.05 18.87 11.56 26-5-.88-8.66-5.33-10.66-10s-2.8-9.78-4.78-14.46M418.9 447.34c2.94 9.6 5.88 19.21 9.28 28.66 2.37 6.59 1.42 15.79 8.82 19.45M434.4 511.41a3.87 3.87 0 00-2.52 2 20.23 20.23 0 00-3.14 7.79M420.62 505.49l9.13-2.94c-3.18 1.69-9.61-.22-12-2.95M425.51 497.75c-4.36-1-8.23-3.4-12-5.78-2.05-1.28-4.28-2.81-4.79-5.18M424.37 492.2a2.66 2.66 0 01-2.46-.7 31.7 31.7 0 01-10.19-12.44M433.38 499.16a21.22 21.22 0 01-17.11-4.94M448.26 541.37a79.12 79.12 0 01-4.32-19.93c1.14 5.82 2.43 14.31 4.32 19.93zM442.41 518.93a32.7 32.7 0 00-.23 18.16M449 525.7l5.67 18.64M460 529.3c1.47 4.56 4 9.08 5.48 13.65a22.61 22.61 0 01.35-15.16M468.78 532.65l2.85 8.94a2.59 2.59 0 001.15 1.74M474.27 535.08l3.25 10a8 8 0 001.12 2.45 2.64 2.64 0 002.34 1.1M459.55 526.39c-.71 3.29-2.54 6.21-3.76 9.34s-1.76 6.87 0 9.72M451.44 525.79a18.18 18.18 0 00-4.61 13.92M510.05 529.84a41.76 41.76 0 008.21-.51 85.64 85.64 0 0011.76-3l9.38-2.91c1.85-.57 3.83-1.24 4.94-2.83M513.64 522.63c3 1.06 6.37.13 9.45-.8 4.37-1.31 8.81-2.66 12.61-5.19M515.1 517.21q7.78-2 15.4-4.66M519.75 516a29.43 29.43 0 0020.8 3M541.45 501.85c-.63 1.42-2.35 1.95-3.86 2.3a156.82 156.82 0 01-18.51 3.12c4.7.18 10.49-3.56 14.7-5.66M527.88 499.81a138.12 138.12 0 0015.89-5M527.41 492.83A30.09 30.09 0 00540 490.5" fill="none" stroke="#fff" stroke-miterlimit="10" stroke-width=".67"/><path d="M523.87 503.5a19.26 19.26 0 0011.49 4.14 35.38 35.38 0 0012.22-1.9" fill="none" stroke="#fff" stroke-miterlimit="10" stroke-width=".67"/><path d="M520.88 527.81a64.38 64.38 0 0010.41-3.81c3.34-1.57 6.63-3.49 8.94-6.36 2.53-3.15 1.84-5.66 2.56-9.16.49-2.37 3.49-4.52 2.55-7.45M525.28 535.08a65.28 65.28 0 0026-16.32c1.7-1.75 3.41-4.31 2.22-6.44M490.81 544.13c-.45.53 0 1.33.45 1.86a42.74 42.74 0 0022 13.62 13 13 0 005.49.44M508.22 543.74a6.06 6.06 0 002.9 4 16.6 16.6 0 004.75 1.83c5.88 1.57 12.15 2.81 18 1.16M508.51 550.94c3.47 1.08 6.72 2.76 10.11 4s7.06 2.19 10.65 1.64M512.46 537.86c-.25.64.49 1.21 1.11 1.51 4.08 2 8.75 4 13 2.41M516.16 536.48a8.05 8.05 0 007.29 2.13M532.28 544.84a57.93 57.93 0 0013.5-5.2 7.76 7.76 0 002.35-1.72 2.83 2.83 0 00.61-2.74M534.31 538.2a22.54 22.54 0 0012.28-6M263.57 575.92c-1.35.81-2.65 1.72-3.94 2.63L239.17 593M243.84 597.35a46.89 46.89 0 01-8.18 5M230.41 597.26l-12.66 7.52M232.73 623.8A46.14 46.14 0 00218 636.28M225 638.83a22.38 22.38 0 0112.86-7.56M233.4 617.61a80.42 80.42 0 00-17.17 11.79M227.25 616.78c-10.81 6.07-17.89 17-27 25.35M232.73 631.18c-2.63 1.31-5.15 2.83-7.66 4.34l-20.39 12.29M215.67 633.36a26.3 26.3 0 00-12.37 6.83M238.34 644.94a95.25 95.25 0 01-10.16 7.1M238.83 649.78q-7.31 7.34-15.09 14.17M228.19 661.12a83.62 83.62 0 00-11.6 11M242.09 663.09c-5.38 4-8.81 10.62-14.92 13.43M222.45 660.26a77.58 77.58 0 00-10.61 10.83M237.1 663.07c-5.76 1.72-8.95 8.11-14.45 10.55M233.05 634.31a133.43 133.43 0 00-17.1 20.1 63.55 63.55 0 0114.62-7M227.26 692.49a14.22 14.22 0 00-8.62 5.61M224.57 676.71l-10.48 3.37M224 681.5l-9.35 3.23M233.5 679.86a145.1 145.1 0 01-12.22 9.44M243.85 668.44l-13.44 4.32M248.56 665.9a93.85 93.85 0 01-8.91 17M225.47 691.31a143.54 143.54 0 0011.34-22.91M310.5 586.34l-4.53-.52M309.73 575.51a23 23 0 01-7.16 1.74M285.71 551.52l-9.4 3M283.29 544.93a44 44 0 00-10.09 3.7M371.91 552.53a7.67 7.67 0 015.17-6.35M379.29 555.83a14.86 14.86 0 016.82-3.67M392 574.26l6.72-2.16M419.78 574q5.69 4.38 11.58 8.46M423 557.23a19.57 19.57 0 0110.32 8.48M419.23 551a23.18 23.18 0 017-1.65 9.21 9.21 0 016.68 2.25M420.26 545a18.72 18.72 0 0116.8 2M432.15 531.55a32.8 32.8 0 0112.3 11.92M461.5 567.78a325.26 325.26 0 0032.39 41.73M483 589.82a23.64 23.64 0 007.74 8 87 87 0 0012.11 6.5l8.13 3.83M483.84 581.5c.38 1.93 1.91 3.41 3.41 4.67A63.48 63.48 0 00499 594c1.9 1 4.13 1.88 6.12 1.1M470.49 564.78c-.22.45.2.93.58 1.24a154.67 154.67 0 0021.72 15.16M485 563.13a16.62 16.62 0 005.86 3.11q12.18 4.43 24.52 8.4c2.27.73 4.63 1.46 7 1.13" fill="none" stroke="#fff" stroke-miterlimit="10" stroke-width=".67"/><path d="M488.38 544.21c.14 3.55 2.9 6.41 5.73 8.56a45 45 0 015.41 4.3c1 1 1.57 2.77 2.6 3.67 2.82 2.47 8.3 2.26 11.71 1.42M486.24 538.39a82.22 82.22 0 004.19 19.36M470.08 526.64q4.86 14.6 9.32 29.32M478.71 579.9c1.83 6.5 3.7 13 6.77 19s7.44 11.53 13.28 14.91a10.29 10.29 0 002.61 1.14M469 581.84c1.76 7.36 3.54 14.78 6.79 21.62s8.12 13.14 14.76 16.77" fill="none" stroke="#fff" stroke-miterlimit="10" stroke-width=".67"/><path d="M476.68 591.23c.74 4 3.41 7.37 6.18 10.35 3.42 3.68 7.12 7.08 10.82 10.48 3.36 3.09 6.89 6.28 11.29 7.5" fill="none" stroke="#fff" stroke-miterlimit="10" stroke-width=".67"/><path d="M484.47 603a271.17 271.17 0 0016.91 23.76c1.88 2.35 4 4.82 7 5.44M483 611.71c1.37 5.44 4.87 10.08 8.5 14.35a155.84 155.84 0 0011.81 12.43M473.08 605.43a79.75 79.75 0 0017.29 27.65M473.64 611.76c4.29 12.52 9.38 25.43 19.35 34.13M471.84 635.49a108.44 108.44 0 0022.94 22.23" fill="none" stroke="#fff" stroke-miterlimit="10" stroke-width=".67"/><path d="M471.89 626.26c7.37 3.51 13.59 9.2 21.17 12.22a7.06 7.06 0 002.8.64M467.68 624q11.25 10.93 23.11 21.22M467.64 631.48c3.43 11 5.44 24 12.19 33.57a59.52 59.52 0 005.64 6.56M461.27 636.2c3.07 7.34 4.6 15.24 7.4 22.7s7.2 14.76 14.19 18.56" fill="none" stroke="#fff" stroke-miterlimit="10" stroke-width=".67"/><path d="M457.29 634.89l18.32 18.24a34.46 34.46 0 0010.88 7.08 6.55 6.55 0 012.71 1.68M469.65 638a32.5 32.5 0 0015.8 19.13M478.39 681.16c-3.73-6.33-8.73-9.94-11.09-17.35l-8.79-27.62M457.92 650c3.3 11.29 6.92 23 15 31.51M450.55 653.05a24.73 24.73 0 0020.35 22" fill="none" stroke="#fff" stroke-miterlimit="10" stroke-width=".67"/><path d="M455 651.87c.8 3.3 1.72 6.83 4.28 9.08a14.18 14.18 0 003.61 2.16 47.78 47.78 0 0014.36 4M262.14 629.42a81.67 81.67 0 0112.15-3.56c2-.42 4.44-.57 5.54 1.11M268.54 621.93a60.68 60.68 0 0118.61-5M279.46 610.23a33.08 33.08 0 019.82 1.34c3.12 1.11 6 3.37 7.05 6.52M287.52 600.11a36.27 36.27 0 0115.69 13.76M352.1 614.73a14.45 14.45 0 00-.22 10.24c.4-4.33 4.09-11 6.3-14.78M358.9 618c3.23-5.07 6.84-10.45 12.48-12.52M380.26 618.54l3.63-2.21c5.39-3.29 10.86-6.62 16.91-8.44M416.12 627.15q7.75-2.7 15.68-4.93M417.24 631.67q6.9-2.38 13.91-4.39M424.64 632.33a42.09 42.09 0 0116.51-.18M298.54 758.54a21.3 21.3 0 00-2.54 20.87M295.81 740.48a14 14 0 00-5.9 10.9M296.83 732.32a16.81 16.81 0 00-9.82 5M303.22 757.39a3.8 3.8 0 00-.68 1.29 29 29 0 00-1.54 11.57M310.05 763.45a16 16 0 001.47 10.3M319.07 758a40.6 40.6 0 003 14.34M327 759.6a21.77 21.77 0 001.3 12.68M333.56 764.1a92.18 92.18 0 001.29 9.64M338.81 761.73a47.24 47.24 0 013.39 12.95M345.48 757c.54 1.67-1.65 2.94-.91 4.54A36.73 36.73 0 01348 777.4M357 764.69a32.22 32.22 0 012.86 10.86M364.34 763.32a17.86 17.86 0 011.07 13.73M368.43 762a31.77 31.77 0 013.57 14.88M382.32 764a51.18 51.18 0 019.08 21.21M385.81 751.83c3.06 6.71 6.19 13.84 5.36 21.17M393.82 748.28l5.88 18.3M401.42 759.18a106.94 106.94 0 015.75 20M405.51 754.26c.44-.26.93.22 1.2.65a58.32 58.32 0 017 15.65M414 763a93.55 93.55 0 014.6 11.62c.84 2.62 1.57 5.42.93 8.1M303.19 781.33a64.35 64.35 0 003.81 13.76c-.82 3.22 1.8 3.13 2.29 6.42M314.81 795.8a36.13 36.13 0 002.75 9.88M326.11 791.64a18.28 18.28 0 00-.43 14.38M331.18 795.77a50 50 0 002.35 8M344.15 798.45a38.43 38.43 0 012.35 9.34M339.7 801.83l3.3 10.33M360 794.35a15.39 15.39 0 011.6 9M367.68 795.78a11.59 11.59 0 01.86 7.27M377.36 794c1.59 3.39 3.16 7.4 1.4 10.7M386.4 793.36a7 7 0 01.41 6.78M394.62 790.69a11.62 11.62 0 011.43 4.51 4 4 0 01-2.2 3.88M283.13 755.62a6.18 6.18 0 00-5.72 6.31M282.57 734.54a25.69 25.69 0 00-13 8.36M503.92 239.15a127.78 127.78 0 00-16.5 16.8M514.87 244.74c-8.33 5.71-13.74 16.5-18.88 25.18M508.56 259.94a166.34 166.34 0 00-26.25 29.15M513.93 254.26a73.16 73.16 0 00-17.82 21.94M496.57 287.54A123.87 123.87 0 00487 301.1M520.45 261.63q-7.58 12.12-14.71 24.51c-.77 1.33-1.56 2.86-1.11 4.32M511.24 283.52c-1.92-.5-3.38 1.71-4.08 3.57a73.81 73.81 0 00-4 15.33M502.09 282.68a64.13 64.13 0 00-6.93 6.15M529.06 278.57a56.11 56.11 0 00-14.26 27.28M509 299.38a130.55 130.55 0 00-6.82 18.36M502.82 326a87.85 87.85 0 015.82-13.87c.9-1.7 2.14-3.56 4.05-3.72M523.24 318.86c-4.24 5.68-10.86 9.53-10.21 16.59a38.47 38.47 0 0113.35-25.26M526.78 324.79a33.43 33.43 0 00-13.43 19.75" fill="none" stroke="#fff" stroke-miterlimit="10" stroke-width=".67"/><path d="M516.37 284.33c-4.51 13.36-10.23 30.82-8 44.74a23.85 23.85 0 0110.14-19.75M542.51 351a30.66 30.66 0 01-7.67 12.8M554 348a47.05 47.05 0 01-8.39 18c1.4 3.74 3.3 5.63 3.73 9.6.08.71 1 1.51 1.29.86M560.82 355a34.28 34.28 0 00.06 27.23M567.14 370.77a123.4 123.4 0 00-7.67 24.61M570.82 381c-2.46 3.9-1.67 16.26-2.79 20" fill="none" stroke="#fff" stroke-miterlimit="10" stroke-width=".67"/><path d="M553.24 363.61c-.52 5.1 2.77 15.56 2.25 20.67l3.44-29.6M544.53 356.54l-2.18 12.55M528.63 335.69a58.26 58.26 0 00-22.29 8.61M174 369.36l3.7 10.8c.68 2 1.31 4.27.17 6M185.78 354.16q4.17 11.7 7.35 23.71M182 369.8l5 15.57M200.3 332.92a47.82 47.82 0 015.7 25.47M196.6 356.78c1.52 3.77 2.67 14.91 3.41 18.9" fill="none" stroke="#fff" stroke-miterlimit="10" stroke-width=".67"/><path d="M207.21 365.45c2.38-2.57 2.53-6.53 1.74-9.94s-2.38-6.6-3-10c1.55 9.67 2.73 23.56-3.3 31.28M213.06 327.71a64.46 64.46 0 017.67 20.78M204 304.89c9.81 4.79 15.8 18.6 18 29.29a19.79 19.79 0 00-10.72-14.89M219 295.24c3.42 9.81-.36 15.84 2.29 25.88a77.25 77.25 0 00-9.05-20.31M232.94 315.22c3.3 10.35 2.84 24.13-1.89 33.91M226 327.94a24.59 24.59 0 012.49 16.55M212.76 340a80.21 80.21 0 015.36 18.83M179.26 369.56a33.24 33.24 0 01.58 20.17M172.31 380.12c3.06 7.48 6.16 15.8 3.51 23.43" fill="none" stroke="#fff" stroke-miterlimit="10" stroke-width=".67"/></svg>