<svg xmlns="http://www.w3.org/2000/svg" width="400" height="800" viewBox="0 0 400 800"><defs><clipPath id="a"><path fill="none" d="M0 0h14v8H0z"/></clipPath><clipPath id="b"><path fill="none" d="M0 0h14.68v8.16H0z"/></clipPath><pattern id="c" width="14" height="8" patternTransform="translate(-38.44 -1.65)" patternUnits="userSpaceOnUse" viewBox="0 0 14 8"><path fill="none" d="M0 0h14v8H0z"/><g clip-path="url(#a)" fill="#b70433"><ellipse rx="3" ry="2.85"/><ellipse cx="14" rx="3" ry="2.85"/><ellipse cx="14" cy="8" rx="3" ry="2.85"/><ellipse cy="8" rx="3" ry="2.85"/><ellipse cx="7" cy="4" rx="3" ry="2.85"/></g></pattern><pattern id="d" width="14.68" height="8.16" patternTransform="matrix(.99 0 0 .99 -41.64 .66)" patternUnits="userSpaceOnUse" viewBox="0 0 14.68 8.16"><path fill="none" d="M0 0h14.68v8.16H0z"/><g clip-path="url(#b)" fill="#683c1d"><circle r="2.98"/><circle cy="8.16" r="2.98"/><circle cx="14.68" r="2.98"/><circle cx="14.68" cy="8.16" r="2.98"/><circle cx="7.33" cy="4.08" r="2.98"/></g></pattern></defs><path d="M408.27 36.14c-3.54 1.46-6.65 2.89-9.24 4.23-4.7-1.82-17.76-10.81-47.39-16.36-55.19-10.35-87-1.05-103.92 8.57-21.14 12-34.14 32.22-38.64 60.1-5.55 1.33-44 11.59-63.18 43-11.94 19.49-14.29 43.22-7 70.53-14.56 9-31.72 23.29-41.89 44.51-12.83 26.8-12 58.66 2.52 94.69a1 1 0 00.35.44 458.19 458.19 0 00.43 47.18c3.17 52 17.11 129 65.53 201.09a1 1 0 00.83.44l241.6-6.56z" fill="#f7e303"/><path d="M648.52 480.67c-1.27-27.28-3.38-54.65-4.75-81.35-7.53-37.47 1-55.08-16.25-101.3-17.93-47.1-24-63.63-74.44-74.35-19.38-4.12-109.93-61.74-116.27-64.67-18.57 25.23-51.18 63.87-91 70.32 0 0 48-44 21.12-59.15 0 0-26.3 44.17-86.33 59.15 0 0 17.44-18.93 10.26-26.82 0 0-96.57 17.08-122.82 133.63 1.7 17 4.76 33.55 2.9 48.43h-.92c-3.31 26.76-5.77 51.38-7.36 74.09l.19 9.24c-.2 3.25-.39 6.46-.55 9.64l.76-.12 1.94 86.8c.07 8.74.65 18.6 1.7 29.36 11.16 61.42 37.74 100.6 80.94 134.35 123 106.35 294.57 32.54 317.33.83 57.88-42.65 77.87-101.5 83.1-165.54v-2.65z" fill="#e4e9df"/><path d="M648.52 480.67c-1.27-27.28-3.38-54.65-4.75-81.35-7.53-37.47 1-55.08-16.25-101.3-17.93-47.1-24-63.63-74.44-74.35-19.38-4.12-109.93-61.74-116.27-64.67-18.57 25.23-51.18 63.87-91 70.32 0 0 48-44 21.12-59.15 0 0-26.3 44.17-86.33 59.15 0 0 17.44-18.93 10.26-26.82 0 0-96.57 17.08-122.82 133.63 1.7 17 4.76 33.55 2.9 48.43h-.92c-3.31 26.76-5.77 51.38-7.36 74.09l.19 9.24c-.2 3.25-.39 6.46-.55 9.64l.76-.12 1.94 86.8c.07 8.74.65 18.6 1.7 29.36 11.16 61.42 37.74 100.6 80.94 134.35 123 106.35 294.57 32.54 317.33.83 57.88-42.65 77.87-101.5 83.1-165.54v-2.65z" fill="url(#c)"/><path d="M407.42 588.68v-64.87a22.54 22.54 0 01-6.26.4c-16.85-1.3-28.53 12.72-45.38 38.94-26.63 41.42 10.14 18.68 18.63 17.38 7.12-1.09 21.32 5.87 33.01 8.15zM407.42 699c-18.33 9.79-33.56 20.74-32.69 32 .75 9.78 13.81 19.64 32.69 26.73z" fill="#fff"/><path d="M216.54 327.14s-33.53 25.31-21 140.74c6.57 60.73-28.63-126-28.63-126l49.68-14.7" fill="#222229"/><path d="M292.05 522.56c-3.59-9-57.65-2-53 10.28s19.23 26.74 32 18.51 24.67-19.53 21-28.79zM405.1 363.84l-21.62 2.07-17.05 70.29s6.2 23.65 22.93 24.16a56.34 56.34 0 0115.1 2.93c2.03-33.06 1.08-66.29.64-99.45zM340 340.71c-6.85-12.56-85.66-11.51-85.66-11.51s-13.48 28.25 6.41 30.21l-4.15 5.06s3.16 14.45 14.89 17.23 6.08 27-10.74 25.59c-31.26-2.62-58.91 22.86-58.53 48.55s2.27 32.76 18.28 32.9 109 3.77 114.36-109.62c-.01 0 20.71-9.83 5.14-38.41zM218.33 347.28c5.6-.28-11.43 62.07-16.81 60s11.22-59.72 16.81-60z" fill="#fff"/><path d="M368.83 492.54c-5.68 5.68-7.64 12.92-4.39 16.18s10.51 1.3 16.19-4.38c.71-.71.52-4.43 1.11-5.17 4.14-5.24 6.12-8.17 3.27-11-3.26-3.27-10.5-1.31-16.18 4.37zM349 473.72s-21.39 28.7 8.27 46.9l-6.67 6.55s-29.23-4.27-10.6-48.61c28.07-66.64 9-4.84 9-4.84z" fill="#222229"/><path d="M405.23 781.94c-134.22 0-239.89-91.08-240.86-219.57l-3.83-179.6" fill="none" stroke="#222229" stroke-miterlimit="10" stroke-width="8"/><path d="M410.5 612.46s-9.8.08-24.38-3.16c-22.34-5-30.92.94-48 11.71S313 627.57 313 627.57" fill="none" stroke="#222229" stroke-linecap="round" stroke-miterlimit="10" stroke-width="8"/><path fill="#fff" d="M382.01 350.16l3.22 9.25 11.97-9.25h-15.19z"/><path d="M140 210.57a4 4 0 01-3.83-2.93c-7.71-28.41-5.29-53.14 7.18-73.52 18.52-30.26 53.18-41.26 63.11-43.87 4.94-27.8 18.31-48.07 39.78-60.26 25.28-14.35 60.92-17.35 105.94-8.91 33.22 6.23 47.73 16.43 48.82 16.86a4 4 0 11-3 7.36c-1-.41-92.91-42.69-149.48-10.55-19.9 11.32-30.52 32.71-34.64 59.35a4 4 0 01-3.11 3.27c-.4.09-41.2 9.06-60.68 40.95-11.25 18.42-6.69 37 .42 63.22.57 2.11-7.34 8.32-9.46 8.89a3.77 3.77 0 01-1.05.14z" fill="#222229"/><path d="M100.43 349a4 4 0 01-3.68-2.49C81.92 309.69 81.1 277 94.31 249.44c20.72-43.26 72.76-52.28 74.76-52.89s-50.4 16-69.56 56.1c-12.18 25.48-10.63 54.45 3.32 89.11.82 2 1.12 6.14-.92 7a3.83 3.83 0 01-1.48.24z" fill="#222229"/><path d="M163.35 595.78c-48.79-72.64-62.83-150.25-66-202.57-3.46-56.68 4.49-95.63 4.83-97.26.45-2.15 5.3-5.15 4.85-3-.08.4-5.18 44.36-1.75 100 3.16 51.27 11.37 98.32 59.11 169.39 1.2 1.85-.27 34.58-1.04 33.44zM406.59 34.69a177.07 177.07 0 00-22.65 11c-1.8 1.25-7.81 18.13-6 16.87a271.64 271.64 0 0128.67-15.09zM406.59 183.72c-14.39 16.2-30.8 30.88-47.45 37.65 9.44-10.63 21.36-27 19.84-40.27-.69-6.1 9.61-46.89 9.61-46.89-7.81-2.74-47.83 71.17-97.39 87.87 4.5-7.08 8.15-16.21 2.63-22.27a4 4 0 00-3.62-1.23c-1 .18-26.12 4.79-54.49 24.69-26.11 18.32-59.93 53.62-72.75 117.79a4 4 0 003.11 4.67 4.11 4.11 0 00.78.07 4 4 0 003.89-3.19c12.27-61.4 49.44-101 74.25-118.48 21.53-15.18 36.41-15.28 43.68-17.08.3 4.62-1.83 16.63-7.07 22.33-1.19 1.29-1.7 4.2 0 3.77 51.55-12.87 78.63-46.28 86.42-57.38a9.74 9.74 0 013.07 6.23c1.59 13.95-19.62 36.77-27.93 44.39a4 4 0 003.32 6.84c20.94-3.4 42-18.14 60.1-35.2z" fill="#222229"/><path d="M308.31 199.52S377.48 159 370.8 129zM201.38 256.42s-46.38 56.07-77.79 66.19c-.93 3.44 56-7.38 69.28-43.19zM169.1 331.56s-25 68.33-51.28 88.34c.27 3.55 50.36-25.64 50.92-63.82l.36-24.52zM145.31 455.84s.25 68.37 22.38 83.21v37.1s-21.69-21.32-26.1-37.63-2.59-68.37 3.72-82.68zM370.8 50.28S291.69.4 223.94 88.88c0 0 62.74-52.61 146.86-38.6zM156.09 228.1s72.61-5.75 91.1-29.53S312.93 173 312.93 173s-39.71-15.24-70 12.08c-25.68 23.16-86.84 43.02-86.84 43.02zM386.35 513.29v5c27.08 25.24 40.4-5 40.4-5-17.83 16.51-40.4 0-40.4 0z" fill="#222229"/><path d="M328.53 358.31l-35-16.9-49.89 28.93s12.48 21.33 38 19.77 50-15.27 50-15.27l6-8.31z" fill="#fff"/><circle cx="290.9" cy="364.47" r="19.43" fill="url(#d)"/><circle cx="290.9" cy="364.47" r="19.43" fill="none" stroke="#222229" stroke-miterlimit="10" stroke-width="5"/><circle cx="290.9" cy="361.37" r="10.26" fill="#222229"/><path d="M329.17 374.88c-.39.09-4.34 1.07-23.73 10-12.78 5.89-26.81 3.77-36.65.78l-19.71-8.8c-.24-.16-.58 0-.92.24-3.18.83-13.41 3.55-13.64 4.51-.27 1.12 5.57.51 5.57.51l1.52 4.93 9.09-4.58c.89.48 1.92 1 3.08 1.59l-6.44 3.83 10.22-2.08.51.22-4.25 4.75 7.62-3.38c1.25.49 2.57 1 3.94 1.42l-3 2.84 6.84-1.67c.81.23 1.61.44 2.41.63l-2.5 2.55 6-1.76a61.07 61.07 0 0016.74 1.07 45.3 45.3 0 0015.26-3.93c18.74-8.63 22.7-9.67 22.91-9.72a2 2 0 00-.87-3.95zM293.92 338.87c-19.79.21-62.64 27.79-59.41 28.1 0 0 3.24 13.38 21.07-.18s22-16.08 22-16.08 25.4-8 57.75 16.54c2.88 2.18 2.36-1.08 3.62-.31 1.46-.12-25.25-28.28-45.03-28.07z" fill="#222229"/><path d="M328.94 375.91s8.3-5.06 5.64-10.63 3.06 1.25 3.06 1.25-3 11.29-6.71 11-1.99-1.62-1.99-1.62z" fill="#222229"/><path fill="#fff" d="M300.188 350.838l2.312 2.312-7.955 7.955-2.312-2.312z"/><path d="M355.64 279.31S407 329.87 371.49 394.4c0 0 12.75-45.07-15.85-115.09z" fill="#222229"/><path d="M404.09 337.93c-17.51-.26-33.95-9.14-40.21-12.95-.84-.57-1.71-1.12-2.61-1.67a73.83 73.83 0 00-14.72-6.66c-27.7-9.24-78.62-7.65-99.22-6.53-19.74 1.06-52.81 4-70.52 9.05l-33.36 7.17c-2 .42-3.47 1.56-3.47 3.47l1.7 13.42s78.14-11.79 107.2-13.33c40.34-2.15 103.91 11 107.84 14.49 5.74.62 26.5 2.34 47.43 4z" fill="#fff"/><path d="M166.86 341.84s-26.79-11.86-26.53-7.49c.48 8.14-.74 20.12-.16 23.91s12-1.67 13 9.27c.55 5.95 13.69-25.69 13.69-25.69zM309.54 481.79l-1.23-3.79c20-6.5 42-43.42 52.37-87.77l.13-.54c4.23-18.1 5.29-40.15-24.38-50l1.26-3.76c33.07 11 31.24 36.5 27 54.7l-.12.54c-10.84 46.33-33.46 83.61-55.03 90.62zM211.9 487.47c-17.71-10.78-35.75-57.54-39.39-102.11-1.61-19.78 2.54-35 12.36-45.24 13-13.55 30.91-13 31.67-13l-.35 8.92.18-4.46-.16 4.46c-.16 0-14.83-.35-25 10.31-7.92 8.31-11.22 21.19-9.83 38.26 3.62 44.49 21.62 86.96 35.16 95.24z" fill="#fff"/><path d="M404.09 342.88c-17.51-.25-33.95-9.13-40.21-12.94a55.56 55.56 0 00-2.61-1.67 73.83 73.83 0 00-14.72-6.66c-27.7-9.24-78.62-7.65-99.22-6.53-19.74 1.06-52.81 4-70.52 9.05l-33.36 7.17c-2 .42-3.47 1.56-3.47 3.47v14.87a3.48 3.48 0 003.47 3.47s10-.55 10 18.77a16.7 16.7 0 00.12 2.15c1.51 39.24 17.29 93.16 33.87 109.75 12.32 12.31 44.54 18.32 76.51 18.32 20.53 0 41-2.48 56-7.35 18.54-6 34.35-22.83 47-49.93a248.13 248.13 0 0016.14-48l.13-.53c.64-2.76 1.48-6.38 2.14-10.56s4.26-17.09 18.89-18.12zm-40.36 48.84l-.12.54c-10.65 45.65-29.32 76.89-49.94 83.6-16.22 5.27-41.29 7.52-65.42 5.86-25.88-1.78-42.2-7.31-46.89-12-14.12-14.12-31.1-77.52-24.18-111.4 4-19.58 33.42-21.46 71.64-23.5 40.34-2.14 74.51-.06 91.41 5.57 30.39 10.13 28.07 31.81 23.5 51.33zM180.41 570a2.47 2.47 0 01-2.46-2.22l-7-67.12a2.48 2.48 0 114.93-.51l4.62 57.65c.14 1.37 1.51 12.05.15 12.19zM190.32 597c-1.26 0-4-35.17-4.11-36.45l-6.58-50.08a2.48 2.48 0 114.93-.48l8.24 84.29c.13 1.4-1.08 9.21-2.48 2.72zM205.54 622.18c-1.24 0-3.08-15.19-3.23-16.45l-9.1-69.81c-.16-1.36-.18-2.59 1.18-2.75a2.47 2.47 0 012.75 2.17l9.94 84.11c.16 1.36-1.44 2.73-1.54 2.73z" fill="#222229"/></svg>