<svg xmlns="http://www.w3.org/2000/svg" width="400" height="800" viewBox="0 0 400 800"><path d="M404.33 35.47a38.94 38.94 0 00-4.72 2.22s-15-15-57.14-8.06c-363.89 59.65-179.22 603-179.22 603h241.08z" fill="#222229"/><path d="M404.33 139.87C400 138 397.58 137 397.58 137s-212 63-238.35 167.06c-4.52 28.59-5.73 173.24-5.9 176.44 0 0 3.29 106.19 4.35 117 34.1 170.91 192.65 193.13 246.65 191.17z" fill="#b5b5b5"/><path d="M296.83 538.84s22.93-23-24.2-22.26-110.34 40.49-80.85 95.5 58.23 71.09 60.79 60.09-8.51-72.78-8.51-72.78L311 570.55" fill="#fff" opacity=".3"/><path d="M404.3 787.42q-3 .06-6 .06c-135.35 0-241.9-91.84-242.88-221.41L151.52 385" fill="none" stroke="#222229" stroke-miterlimit="10" stroke-width="8"/><path d="M404.33 519.53c-229.15-17.08-174.74 148.62-128.72 92.11 6.48-5.81 16.06 27 36.76 4.06 8.78-13 16.27 24.2 43.29-6.27 43.77 28.33 31.77-2.1 48.67 3.39z" fill="#222229"/><path d="M403.09 352c-18.87 1.33-39.14 6.44-38.22 9.44 9.6 31.21-10.95 99.4-17.55 102.88-16.17 8.51-23.28 53.76-20.7 60.3 3.85 9.77 19.1 11.63 28.82 5.41 6 5.43 16.3 21.27 40.76 22.63a47.7 47.7 0 006.89-.12z" fill="#edb072"/><path d="M346.9 502.88c2.45-15.67 14-21 21.49-36.22A124.28 124.28 0 00381 421.57c1.47-16.77-17.58-75.92-16-70.89 9.6 31.21-11 110.12-17.6 113.6-16.17 8.51-23.28 53.76-20.7 60.3 2.68 6.82 20.78 6.35 28.82 5.41-1.45-6.5-11.07-11.45-8.62-27.11z" fill="#cc813e"/><path d="M338.65 483.32c-11.77 10.43-26.15 63.39 17.65 49" fill="none" stroke="#222229" stroke-linecap="round" stroke-linejoin="round" stroke-width="8"/><path d="M404.7 539.88c-16.5.48-35-2.69-48.4-15.3-3.52-3.31 4.09 12.5 9.62 15.37l30.28 12.67c2.28 1.19 5.22 1.17 8.5.37z" fill="#cc813e"/><path d="M349.58 519.58c6 6 31.36 34.48 50.48 33.5 4.31.22 8.95-1.06 13.61-3.23" fill="none" stroke="#222229" stroke-linecap="round" stroke-linejoin="round" stroke-width="8"/><path d="M405.54 660.1a70.27 70.27 0 01-13.33-.91c-10.34-2.58-35.93-12.09-46.33-7.49 24 18.35 44.32 26.45 59.66 30.67zM405.54 728.83c-6.05 7.12-9.85 15.45-7.23 26.27a32 32 0 007.23 13.34z" fill="#fff" opacity=".4"/><path d="M208 328.87s-33.81 25.52-21.22 141.92c6.62 61.24-28.88-127.11-28.88-127.11l50.1-14.81" fill="#222229"/><path d="M404.33 138.48q-3.34-.85-6.75-1.49s-101 38.6-124.95 49.58S185.79 304 247 320.78c52.78 14.45 96.07 12.09 107 11.16-4.32-7.86-19.63-32.95-41.24-36.5-25.68-4.23-23.17-27 13.59-16.9s60.19 35.82 56 72.59c-1.83 16 9.11 16.75 22.06 12.52zM252.57 361.4c-5.69 3.36-4.19 5.11-4.19 5.11s3.18 14.57 15 17.37 36.55 19.19 19.59 17.77c-31.53-2.63-95.79 5.1-95.41 31s8.26 59 24.4 59.17 109.9 3.8 115.32-110.54c.01 0-12.19-56.83-74.71-19.88zM209.8 349.18c5.64-.29-11.53 62.58-17 60.47s11.36-60.19 17-60.47z" fill="#fff" opacity=".5"/><circle cx="282.98" cy="366.51" r="19.59" fill="#494949"/><circle cx="282.98" cy="363.38" r="10.34" fill="#222229"/><path d="M333.89 383.16h-.1l-22.43-.5s13.14-8 5.17-16.23c-4.11-4.22-11.11-10.88-23-12.64-25.57-3.75-49.21 16.49-49.44 16.7 0 0 21.86-29.35 51.47-25 16.88 2.48 30.59 12.42 42.16 30.75a4.5 4.5 0 01-3.8 6.91z" fill="#222229"/><circle cx="292.25" cy="363.38" r="4.58" fill="#fff"/><path fill="#fff" d="M374.85 352.08l3.25 9.32 12.07-9.32h-15.32z"/><path d="M156.57 339.49l1.06-6.73c-1-129.57 240-195.77 240-195.77s2.37.63 6.63 1.89" fill="none" stroke="#222229" stroke-miterlimit="10" stroke-width="8"/><path d="M402.77 339.57c-1.39.1-2.81.16-4.25.18-18.18.22-35.47-9.12-41.95-13.06-.85-.57-1.72-1.14-2.64-1.69h-.05a74.51 74.51 0 00-14.88-6.75c-27.93-9.31-79.28-7.7-100.05-6.58-19.91 1.07-53.26 4.07-71.11 9.13l-33.62 7.2c-2 .42-3.5 1.57-3.5 3.5l1.72 13.53s78.8-11.89 108.1-13.45c40.68-2.16 104.78 11.09 108.75 14.61 6.3.7 30.59 2.68 53.48 4.49z" fill="#fff"/><path d="M157.89 343.68s-27-12-26.75-7.55c.49 8.21-.74 20.29-.16 24.11s12.05-1.68 13.09 9.35c.57 6 13.82-25.91 13.82-25.91zM301.77 484.81l-1.24-3.8c20.17-6.56 42.38-43.78 52.82-88.51l.12-.54c4.27-18.26 5.34-40.49-24.58-50.46l1.27-3.79c33.35 11.12 31.5 36.8 27.21 55.16l-.13.54c-10.9 46.75-33.71 84.33-55.47 91.4zM203.32 490.54c-17.87-10.87-36-58-39.72-103-1.63-19.95 2.56-35.3 12.45-45.62 13.09-13.66 31.17-13.11 31.94-13.08l-.35 9 .18-4.49-.17 4.49c-.15 0-15-.35-25.17 10.39-8 8.39-11.32 21.37-9.91 38.59 3.66 44.84 21.72 87.67 35.42 96z" fill="#fff"/><path d="M402.77 344.57c-1.39.1-2.81.16-4.25.18-18.18.22-35.47-9.12-41.95-13.06-.85-.57-1.72-1.14-2.64-1.69h-.05a74.51 74.51 0 00-14.88-6.75c-27.93-9.31-79.28-7.7-100.05-6.58-19.91 1.07-53.26 4.07-71.11 9.13l-33.62 7.2c-2 .42-3.5 1.57-3.5 3.5v15a3.52 3.52 0 003.5 3.5s10-.56 10 18.93a19.24 19.24 0 00.12 2.17c1.52 39.57 17.43 93.94 34.16 110.67 12.42 12.42 44.91 18.47 77.15 18.47 20.7 0 41.31-2.5 56.43-7.41 18.7-6.08 34.63-23 47.37-50.35a249.84 249.84 0 0016.28-48.42l.12-.54c.65-2.77 1.5-6.43 2.17-10.65s4.58-18.32 20.46-18.32a17.43 17.43 0 014.25.51zM356.42 394l-.13.54c-10.73 46-29.56 77.54-50.35 84.3-16.36 5.31-41.64 7.58-66 5.91-26.1-1.79-42.56-7.36-47.29-12.1-14.23-14.23-31.36-78.16-24.38-112.33 4-19.75 33.7-21.64 72.24-23.7 40.68-2.16 75.14-.06 92.18 5.62 30.68 10.2 28.31 32.06 23.73 51.76z" fill="#222229"/><path d="M300.65 643.77s-2.11-15.33 11.63-14.27 52.54-5.25 75.32 1.7a116 116 0 0017.94 4.09" fill="none" stroke="#222229" stroke-linecap="round" stroke-miterlimit="10" stroke-width="8"/><path d="M166 286.23c12 90 165.26 62.46 181.65 48.18 53.25-32.08 30.29-134.64 4.13-82.51-8.57-15.31-16.33-18.35-24.75.13-10.07-17-19-7.87-24.8 4.17-9.4-11.55-20.18-18.95-27.4-.31-10.93-16.67-13.4-1-25.27 3-9.5-3.66-18.78-14.26-23.74 1.92-5.89-10.72-16.52-17.75-20.87-.32-5.16-6.43-13.68-6.31-17 3.73-16.9-12.06-24.95 8.98-21.95 22.01z" fill="#222229"/></svg>