<svg xmlns="http://www.w3.org/2000/svg" width="400" height="800" viewBox="0 0 400 800"><path d="M408.68 30.71h-3.57c-70.32 0-129.23 9.45-175.09 39.92-41 27.21-71.84 66.53-91.81 116.87-44.1 111.16-24.51 246.9-8.9 317.92 21.63 98.45 60.61 189.69 94.81 221.89l2.74-2.91 181.82-35.91z" fill="#222229"/><path d="M347.2 107.23s-148.35 9.69-148.35 278c0 191.75 33 193.12 79.78 225.91" fill="none" stroke="#fc5b41" stroke-miterlimit="10" stroke-width="12"/><path d="M329.84 56.36s-196 28.11-196 281.57c0 191.75 67.21 339.18 114 372" fill="none" stroke="#fc5b41" stroke-miterlimit="10" stroke-width="12"/><path d="M338.53 79.5s-171.37 25.21-171.37 282.34c0 191.74 47.18 270.39 94 303.19" fill="none" stroke="#fc5b41" stroke-miterlimit="10" stroke-width="12"/><path d="M329.84 56.36s34.63-8 81.44-8.16M341.14 78s30.61-6.67 72.21-6.19M351.08 105.1s26.24-5.69 62.27-5M359 124.32s22.77-3.15 54.32-.09" fill="none" stroke="#487676" stroke-miterlimit="10" stroke-width="12"/><path d="M410.37 205.67L370 133.8c-190.71 0-159.34 183.67-159.34 183.67l16.17 406.89c45.31 33.2 72.17 59.78 141.13 66a228 228 0 0042.38-.09z" fill="#ebebeb"/><path d="M265.55 754.27L318.11 780c-39.73-123-35.75-247.43-10.86-345.17-4.14 1-71.38-34.23-72.85-34.41-.68-.07 31.15 353.85 31.15 353.85z" fill="#222229"/><path d="M280.26 763.42c-2.38-7.8-19.78-65.66-14.39-182.31 1.38-29.66-37.76-70.49-12.82-86.61 41.1-26.56 5.07-84.24 5.48-85.46-18.26-16.14-25-44.41-32-67.55-2.65-8.78 4-14.67 11.05-15.33-16.44-105.89 52.11-176.27 54.27-178.55C189.27 190.32 211 317.47 211 317.47s-26.72-59.2-53.44-51.31S84 357.56 144.17 421c15 15.87 40.47 28.21 40.47 28.21l39.2 275.12s35.43 28.67 56.42 39.09z" fill="#fc5b41"/><path d="M409.52 400.19c-8.12 14.55-29.41 23.7-66.7 27.64-71.92 7.61-97.51-47.71-106.5-71.23s70.54-36 107.19-36.65 56.71 25.59 56.71 25.59a129.47 129.47 0 019.3 19.77v-45.2c-32.38-13.71-110.32-44-191.18-11.07-96.83 39.46-9 66.43 12.45 95.48s70.54 45 123.1 38.72c23.52-2.78 42.17-10.92 55.63-22.16z" fill="#222229"/><path d="M407.44 223.65L371 133.8c-190.71 0-159.34 183.67-159.34 183.67s-26.72-59.2-53.45-51.31-73.48 91.4-13.35 154.84c15 15.87 29.78 25.23 39.49 28.21l42.51 275.12h0c44 41.54 106.18 66 176.09 66M369.43 525.81l41.07-12.02" fill="none" stroke="#222229" stroke-linecap="round" stroke-linejoin="round" stroke-width="8"/><ellipse cx="368.45" cy="494.5" rx="26.41" ry="8.59" transform="rotate(-26.83 368.52 494.57)" fill="#222229"/><path d="M405.08 659.08c-12.16 7.89-20.53 15.88-13 25.78 3.37 4.41 9 7.65 15.29 11M398.36 375.44s-49.09-96.85-132.49-2.69c0 0 71.29 97.51 132.49 2.69z" fill="none" stroke="#222229" stroke-linecap="round" stroke-linejoin="round" stroke-width="8"/><path d="M283.94 373.17s53.58 69.88 97.44 1.93c0 0-37.68-69.4-97.44-1.93" fill="none" stroke="#222229" stroke-linecap="round" stroke-linejoin="round" stroke-width="8"/><circle cx="336.81" cy="374.24" r="27.07" fill="#222229"/><path d="M361.09 154.45s-33.65-87-37.86-98.51a14.21 14.21 0 015.28-17.32l44.32 110.44z" fill="#ebebeb"/><path d="M350.6 606.22s18.57 7.77 48.7 0l5.79-1.49" fill="none" stroke="#222229" stroke-linecap="round" stroke-linejoin="round" stroke-width="8"/><path d="M413.46 653.92s-13.58 25.32 16.4 31.4 22.59 58.2.49 85.41c0 0 18.54-56.41-10.45-70.69s-48.06-21.46-6.44-46.12zM414.61 226.89c-.56-24.29-1.32-48.57-2.12-72.85l-36.72-3.63L415 246.06q-.17-9.59-.39-19.17zM185.51 332.13c-16.26-27.26-29.47-50.76-22.24-.05-2.61 12.77-15.08 19.51-18.18 33.46-3.26 21.71 30.66 21.95 34.45 43.5 2.73-1.21 4.07-5.85 2.47-10.54-19.3-35.65 34-7.57 23.35-34.94" fill="#222229"/></svg>