<svg xmlns="http://www.w3.org/2000/svg" width="400" height="800" viewBox="0 0 400 800"><path d="M138.4 254.69s-81.74-53-83.24 54.47c0 0-125.42 120.46 9 247.11 0 0-37.52 130.43 124.78 119.47S138.4 254.69 138.4 254.69z" fill="#222229"/><path d="M411.34 19.18c-2.6 0-5.22-.07-7.87-.07C-38.33 19.11 166.29 626 166.29 626h245.05z" fill="#222229"/><path d="M411.34 127.34c-6.81-2.92-10.72-4.49-10.72-4.49s-211.95 70.46-238.35 174.56c-4.51 28.58 5.92 57.91 2.82 82.69h-.92c-3.34 27-5.83 51.8-7.43 74.71l.2 9.31q-.31 4.92-.57 9.72l.77-.12 1.86 87.56c.07 8.82.65 18.76 1.71 29.61 11.26 61.94 38.06 101.44 81.62 135.47 52.58 45.48 114 58.28 169 55.52z" fill="#26cbff"/><path d="M211 322.23s-33.81 25.51-21.22 141.91c6.62 61.24-28.88-127.1-28.88-127.1l50.1-14.81" fill="#222229"/><path d="M411.34 125.47a95.2 95.2 0 00-10.72-2.62s-101 46.09-124.95 57.07S188.84 297.38 250 314.13c52.78 14.46 96.07 12.09 107 11.17-4.32-7.87-19.63-32.95-41.24-36.51-25.68-4.22-23.17-27 13.59-16.89s60.19 35.82 56 72.58c-2 17.6 11.45 16.76 26 11.1zM410 586.67c.44 0 .89 0 1.35-.06v-68.74c-4.16 1.78-8.42 3.51-14.14 3.07-17-1.31-28.77 12.84-45.76 39.27-26.85 41.77 10.23 18.84 18.79 17.53s27.3 8.93 39.76 8.93zM411.34 693.17c-21.74 10.83-41.79 23.37-40.79 36.33.85 11.16 17.62 22.43 40.79 29.63zM287.17 519.28c-3.61-9.12-58.12-2.07-53.46 10.37s19.39 27 32.25 18.66 24.91-19.69 21.21-29.03z" fill="#fff" opacity=".5"/><path d="M411.34 354.32l-32 7-17.2 70.88s6.25 23.84 23.13 24.36c7.48.23 17.6 3 26 7.52zM335.52 335.91c-6.9-12.67-86.38-11.61-86.38-11.61s-13.6 28.48 6.47 30.46l-4.19 5.1s3.18 14.57 15 17.38 1.95 8.89-15 7.47c-31.53-2.63-61.19 15.39-60.81 41.3s8.26 59 24.4 59.17 109.9 3.82 115.33-110.54c0 0 20.89-9.91 5.18-38.73z" fill="#fff" opacity=".5"/><path d="M212.84 342.53c5.64-.28-11.53 62.59-17 60.47s11.36-60.18 17-60.47z" fill="#fff" opacity=".5"/><circle cx="286.02" cy="359.86" r="19.59" fill="#4c3b38"/><circle cx="286.02" cy="356.73" r="10.34" fill="#222229"/><path d="M336.93 376.51h-.1L314.4 376s13.14-8 5.17-16.22c-4.11-4.22-11.11-10.89-23-12.64-25.58-3.76-49.21 16.49-49.45 16.69 0 0 21.86-29.35 51.47-25 16.88 2.48 30.59 12.42 42.17 30.75a4.5 4.5 0 01-3.81 6.9z" fill="#222229"/><ellipse cx="370.55" cy="494.96" rx="14.66" ry="8.41" transform="rotate(-45 370.55 494.963)" fill="#222229"/><path d="M433.85 503.76l-5.28-20.56c-3.75.7-13.68 4.42-14.48 12.84-.68 7.13-5.2 10.63-10.62 10.63s-10-3.5-10.63-10.63c-.8-8.42-10.73-12.14-14.48-12.84l-5.28 20.56c8.1-4.23 19.12 6.85 30.39 6.85s22.74-11.99 30.38-6.85zM344.6 470s-24.88 36 8.33 47.29-45.64 24.78-17.37-42.41 9.04-4.88 9.04-4.88z" fill="#222229"/><circle cx="295.29" cy="356.73" r="4.58" fill="#fff"/><path d="M437.65 778.5a282.24 282.24 0 01-36.34 2.34c-135.31 0-241.9-91.84-242.88-221.41l-3.87-181.11" fill="none" stroke="#222229" stroke-miterlimit="10" stroke-width="8"/><path d="M406.62 609.94s-9.88.08-24.59-3.19c-22.52-5-31.18.94-48.38 11.81s-25.32 6.61-25.32 6.61" fill="none" stroke="#222229" stroke-linecap="round" stroke-miterlimit="10" stroke-width="8"/><path fill="#fff" d="M377.89 345.44l3.25 9.32 12.07-9.32h-15.32z"/><path d="M159.61 332.85l1.06-6.73c-1-129.57 240-203.27 240-203.27s14.7 4.36 36.79 12.92" fill="none" stroke="#222229" stroke-miterlimit="10" stroke-width="8"/><path d="M415.14 331.7a76.13 76.13 0 01-13.58 1.4c-18.18.22-35.47-9.11-41.95-13.05-.85-.58-1.72-1.14-2.64-1.69h-.05a74.77 74.77 0 00-14.84-6.72C314.15 302.3 262.81 303.9 242 305c-19.9 1.08-53.26 4.08-71.11 9.14l-33.64 7.22c-2 .43-3.5 1.58-3.5 3.5l1.71 13.53s78.8-11.88 108.1-13.44c40.68-2.17 104.79 11.09 108.75 14.61 7.17.79 37.63 3.25 62.81 5.22z" fill="#fff"/><path d="M160.93 337s-27-12-26.74-7.55c.48 8.21-.75 20.29-.17 24.11s12-1.68 13.09 9.35c.57 6.09 13.82-25.91 13.82-25.91zM304.81 478.17l-1.23-3.81c20.16-6.55 42.37-43.77 52.81-88.5l.12-.55c4.27-18.25 5.34-40.48-24.58-50.45l1.27-3.79c33.35 11.11 31.5 36.8 27.21 55.15l-.13.55c-10.9 46.74-33.71 84.33-55.47 91.4zM206.36 483.9c-17.86-10.87-36.05-58-39.72-103-1.64-19.9 2.56-35.27 12.45-45.6 13.09-13.65 31.18-13.11 31.94-13.07l-.35 9 .18-4.5-.16 4.5c-.16 0-15-.35-25.18 10.39-8 8.39-11.32 21.37-9.91 38.59 3.66 44.83 21.72 87.67 35.43 96z" fill="#fff"/><path d="M415.14 336.7a76.13 76.13 0 01-13.58 1.4c-18.18.22-35.47-9.11-41.95-13.05-.85-.58-1.72-1.14-2.64-1.69h-.05a74.77 74.77 0 00-14.84-6.72C314.15 307.3 262.81 308.9 242 310c-19.9 1.08-53.26 4.08-71.11 9.14l-33.64 7.22c-2 .43-3.5 1.58-3.5 3.5v15a3.51 3.51 0 003.5 3.5s10-.56 10 18.93a19.24 19.24 0 00.12 2.17c1.53 39.57 17.44 93.94 34.16 110.66 12.42 12.42 44.91 18.48 77.15 18.48 20.7 0 41.31-2.5 56.43-7.41 18.7-6.08 34.64-23 47.37-50.35a250 250 0 0016.28-48.43l.13-.53c.65-2.78 1.5-6.43 2.16-10.65s4.58-18.32 20.46-18.32a17.76 17.76 0 0113.58 6.44zm-55.68 50.65l-.13.54c-10.73 46-29.56 77.54-50.35 84.29-16.36 5.32-41.64 7.59-66 5.92-26.1-1.79-42.56-7.37-47.29-12.1-14.23-14.24-31.36-78.17-24.37-112.33 4-19.76 33.69-21.65 72.23-23.7 40.68-2.17 75.14-.07 92.18 5.61 30.68 10.22 28.34 32.08 23.73 51.77z" fill="#222229"/></svg>