<svg xmlns="http://www.w3.org/2000/svg" width="3500" height="800" viewBox="0 0 3500 800"><path d="M1686.67 102.36c.07-2.08 0 48 0 48M1660.47 105.12v317.9M1625.5 105.12v409.36M1862.21 105.12v418.17" fill="none" stroke="#222229" stroke-linecap="round" stroke-linejoin="round" stroke-width="8"/><path d="M1764.53 152.81c14.84-2.54 29.74 7.26 37.21 20.33s8.88 28.72 8.72 43.78c-.2 18.68-2.54 37.3-2.8 56s7.26 36.48 15.11 53.44c-14.51 5.17-111 22.4-136.09 3.88-.49-.36 28.12-26.82 24-72.5-1.51-16.81-6.32-33.34-5.88-50.21a84.32 84.32 0 018.11-33.92c2.32-4.91 5-9.76 8.93-13.53 16.89-16.29 42.69-7.27 42.69-7.27z" fill="#2d2b28" stroke="#1e1e1e" stroke-miterlimit="10" stroke-width="2"/><path d="M1791.47 686.7c-.8-9.35-2.93-29.74-2.36-30.29.33-.32 13.06.11 16.18-2.59.3-.25-.17 25.68-.49 32.09M1709.85 681.66c.11-8 .05-24.15.05-24.15a23.44 23.44 0 0014.74.73c-1.05 9.52-1.66 19.48-2.71 29" fill="#fff" stroke="#1e1e1e" stroke-linecap="round" stroke-linejoin="round" stroke-width="2"/><path d="M1804.27 680.17s.62 5.41 2.6 6.93c2.34 1.8 18.49 7.13 20.79 9a11.29 11.29 0 013.06 4.38 11.15 11.15 0 011.2 5.55c-.09.85-2.62 6.74-16.56 3.28-2.85-.7-18.79-6.51-21.45-7.75a8.5 8.5 0 01-2.26-1.36c-1.21-1.1-1.65-1.16-1.73-2.79a52.22 52.22 0 01-.29-6.48 65.5 65.5 0 01.94-8 31.89 31.89 0 006.21 2.14c-.12-.86-.21-3.77-.21-3.77s6.67-2.09 7.7-1.13z" fill="#525252" stroke="#1e1e1e" stroke-linecap="round" stroke-linejoin="round" stroke-width="2"/><path d="M1811.41 689.7c-.92.92-4.14 3.25-4.63 3.73M1808.62 688.84a62.91 62.91 0 01-5.13 4.8M1806.59 687.56a3.16 3.16 0 00-.86.64 34.84 34.84 0 01-3.7 3M1804.85 686.29c0-.11-.23 0-.32.05a8.63 8.63 0 01-3.75 2.28M1804.67 684.05a2.58 2.58 0 00-1 .32 24.81 24.81 0 01-3.33 1.27c-.14 0-.33.18-.24.3M1805.89 685.32a12.18 12.18 0 013.94-3.77 1.79 1.79 0 011.36.24 1.85 1.85 0 01.47 2.29 3.56 3.56 0 01-1.89 1.62 7 7 0 01-2.54.56 2.52 2.52 0 01-1.43-.29" fill="none" stroke="#1e1e1e" stroke-linecap="round" stroke-linejoin="round" stroke-width="2"/><path d="M1806.29 686a6.36 6.36 0 002.57 0 10.14 10.14 0 016.12.72 1.14 1.14 0 01.61.61c.08.28-2.07 2.82-5.74 1.55" fill="none" stroke="#1e1e1e" stroke-linecap="round" stroke-linejoin="round" stroke-width="2"/><path d="M1797.86 692.35c.17-4 1.54-8.15 2.81-12.12-2 .4-4.1 1-4.1 1s.09 2.91.21 3.77a31.89 31.89 0 01-6.21-2.14c-.67 2.87-.71 12.83-.65 14.47.16 4.23 17.5 9.43 22.94 11.19-2.34-1.16-15.28-9.7-15-16.17z" fill="#1e1e1e" opacity=".4"/><path d="M1709 680.17s-.61 5.41-2.59 6.93c-2.34 1.8-18.49 7.13-20.8 9a11.5 11.5 0 00-3.06 4.38 11.14 11.14 0 00-1.19 5.55c.09.85 2.43 3.34 3.2 3.44a40.74 40.74 0 0013.36-.16c2.88-.57 18.78-6.51 21.44-7.75a8.4 8.4 0 002.27-1.36c1.21-1.1 1.65-1.16 1.73-2.79a54.23 54.23 0 00.29-6.48 63.67 63.67 0 00-1-8 31.8 31.8 0 01-6.2 2.14c.12-.86.21-3.77.21-3.77s-6.6-2.09-7.66-1.13z" fill="#525252"/><path d="M1708.14 679.93c-.35 2.12-.72 5.5-2.76 6.67a57 57 0 01-7.89 3.33c-3.13 1.21-6.28 2.38-9.36 3.72a18.29 18.29 0 00-2.77 1.37 11.77 11.77 0 00-3.83 5.32c-.78 1.83-1.83 4.67-.84 6.6a7.9 7.9 0 003.26 3.34 12 12 0 003.49.5 42.8 42.8 0 004.8.19 28.5 28.5 0 006.57-.77 78.28 78.28 0 008-2.74c3.24-1.23 6.48-2.45 9.71-3.71 1.09-.42 2.19-.84 3.27-1.31 1.66-.71 4-2 4.55-3.85a18.23 18.23 0 00.37-3.39 31.4 31.4 0 00.18-3.63 49.35 49.35 0 00-1-9 1.22 1.22 0 00-1.77-.72 32.45 32.45 0 01-5.91 2l1.51 1.16a36.62 36.62 0 00.2-3.77 1.19 1.19 0 00-.86-1.14c-1.32-.39-2.65-.73-4-1a10.89 10.89 0 00-2.72-.33 2.91 2.91 0 00-1.19.34c-.18.1-.75.61-.49.41-.72.54 0 1.78.72 1.23-.35.27-.49-.07-.11.05a1.9 1.9 0 00.25 0c.34.06.68.13 1 .18a22 22 0 012.53.46q1.68.38 3.33.9l-.87-1.14c0 1.25-.07 2.52-.23 3.77-.1.81.84 1.31 1.51 1.15a34.72 34.72 0 006.5-2.25l-1.77-.72a54.15 54.15 0 01.93 7.92 51.48 51.48 0 01-.26 5.69c0 .87 0 1.32-.65 1.91a10.86 10.86 0 01-2.71 1.9c-.77.37-1.56.69-2.35 1-5.61 2.24-11.32 4.34-17.11 6.09a33.46 33.46 0 01-12.21.95 5.75 5.75 0 01-2.86-.54 7.39 7.39 0 01-1.71-1.82c-.56-.82-.28-2-.06-2.9a16.23 16.23 0 011.61-4 7.36 7.36 0 013-3.15c1.08-.57 2.22-1 3.35-1.5 3-1.23 6-2.37 9.07-3.56 2.38-.94 5.15-1.75 7.25-3.24 2.25-1.59 2.91-5.26 3.09-7.84.1-.9-1.59-1.15-1.76-.13z" fill="#1e1e1e"/><path d="M1701.89 689.7a20.28 20.28 0 003 2.49 11.86 11.86 0 011.65 1.24M1704.68 688.84a62.91 62.91 0 005.13 4.8M1706.71 687.56c.33.14 3.26 2.76 4.55 3.69l-.09-.11M1708.76 686.34a10.27 10.27 0 003.51 1.89M1708.63 684.05a2.58 2.58 0 011 .32 24.81 24.81 0 003.33 1.27c.14 0 .32.18.23.3M1707.41 685.32a7.28 7.28 0 00-2.66-3.2 3.64 3.64 0 00-1.29-.57 1.8 1.8 0 00-1.36.24 1.87 1.87 0 00-.47 2.29 3.61 3.61 0 001.9 1.62 7 7 0 002.54.56 2.52 2.52 0 001.43-.29" fill="none" stroke="#1e1e1e" stroke-linecap="round" stroke-linejoin="round" stroke-width="2"/><path d="M1707 686a6.42 6.42 0 01-2.58 0 10.1 10.1 0 00-6.11.72 1.14 1.14 0 00-.61.61.78.78 0 00.27.78 2 2 0 00.76.39 7.45 7.45 0 004.62-.1" fill="none" stroke="#1e1e1e" stroke-linecap="round" stroke-linejoin="round" stroke-width="2"/><path d="M1724.87 690.89a76.72 76.72 0 00-1-8.3 1.21 1.21 0 00-1.76-.72 31.35 31.35 0 01-4.28 1.57c0-.72.07-1.45.09-2.17a1.22 1.22 0 00-.88-1.16 33.24 33.24 0 00-6.24-1.36 1.21 1.21 0 00-1 1.81c1.34 2.36 2.54 4.91 3.66 7.39a7.37 7.37 0 01.79 4.8 10.94 10.94 0 01-2.35 4 24.59 24.59 0 01-3.46 3.06c-1.32 1.06-2.65 2.13-4 3.16a60.77 60.77 0 01-8.29 5.45c-1.29.68-.33 2.39.92 2.19 4.54-.72 9-2.71 13.26-4.29 2.34-.87 4.68-1.75 7-2.67a18.55 18.55 0 005.92-3.3c1.2-1.09 1.3-2.29 1.41-3.84a33.4 33.4 0 00.21-5.62z" fill="#1e1e1e" opacity=".4"/><path fill="#f6a87b" d="M3597.95 320.98h-1686.2l-67.45-1.69v16.58L3597.95 334v-13.02z"/><path d="M1909.55 330.56c-4.48-2.83-1.53-9.07-1.72-10.63l-12.85-.62-.82 16.54L3598 333.74v-4s-1684 3.65-1688.45.82z" fill="#cb8c68"/><path fill="none" stroke="#1e1e1e" stroke-linecap="round" stroke-linejoin="round" stroke-width="2" d="M1911.75 320.98l-67.45-1.69v16.58L3597.95 334v-13.02h-1686.2z"/><path d="M1773.07 298.59c18.47 0 25.8 7.28 29.83 10.11 14.92 10.49 88.69 9.78 97.39 9.35 2.45 5.84 3.31 15.59.65 19.61-2.51.8-104.46.37-122 7.79" fill="#e45c4c" stroke="#1e1e1e" stroke-linecap="round" stroke-linejoin="round" stroke-width="2"/><path d="M1789 329.83l-10 15.62c17.54-7.42 119.49-7 122-7.79 1.8-2.73 2.45-3.15 1.62-8.14-20.94 2.05-25.56 5.65-113.62.31z" fill="#1e1e1e" opacity=".3"/><path d="M1890.26 318.31c1.58 1.23 3.12 13.84 2 19.64" fill="none" stroke="#1e1e1e" stroke-linecap="round" stroke-linejoin="round" stroke-width="2"/><path fill="#f6a87b" d="M-112.9 321.05l1.48 12.93 1762.64 1.89v-16.58l-67.63 1.76H-112.9z"/><path d="M1589.12 330c4.47-2.83.67-7.44.87-9l12.84-.62 1.67 14.9L-89 333.21v-4s1673.65 3.66 1678.12.79z" fill="#cb8c68"/><path fill="none" stroke="#1e1e1e" stroke-linecap="round" stroke-linejoin="round" stroke-width="2" d="M1583.59 321.05H-112.9l1.48 12.93 1762.64 1.89v-16.58l-67.63 1.76z"/><path d="M1725 298.59c-18.47 0-25.8 7.28-29.83 10.11-14.91 10.49-88.69 9.78-97.39 9.35-2.45 5.84-3.31 15.59-.65 19.61 2.51.8 104.46.37 122 7.79" fill="#e45c4c" stroke="#1e1e1e" stroke-linecap="round" stroke-linejoin="round" stroke-width="2"/><path d="M1607.76 318.31c-1.58 1.23-3.12 13.84-2 19.64" fill="none" stroke="#1e1e1e" stroke-linecap="round" stroke-linejoin="round" stroke-width="2"/><path d="M1709.39 329.83l10 15.62c-17.53-7.42-119.48-7-122-7.79-1.81-2.73-2.46-3.15-1.63-8.14 20.93 2.05 25.55 5.65 113.63.31z" fill="#1e1e1e" opacity=".3"/><path d="M1710.51 430.86c-3.64 82.61-3.37 165.27-2.48 248 6.22 4.75 16.77 2.23 17.17-.92 1.27-9.74 2.31-26.6 3.58-36.33 1.62-12.55 3.25-25.1 4.58-37.68 4.89-46.33 9.79-137.88 12.27-140.9.71-.88 15.38-1.38 17 .37s7.09 38 10.22 72.33c1.88 20.68 9.23 71.81 11.93 92.4 1.89 14.42 2.22 49.28 3.43 50.16 8.4 6.18 20.07-1.34 20.12-3.07.6-18.93-4.4-191.27-17.74-245.67z" fill="#4069aa" stroke="#1e1e1e" stroke-linecap="round" stroke-linejoin="round" stroke-width="2"/><path d="M1785.5 349s-9.34-41.44-13.15-47.18c-1.3-2-38.95-2.16-42.94 1.26s-11.65 48.34-11.65 48.34z" fill="#fff"/><path d="M1786.41 348.77c-1.8-9.2-4-18.32-6.41-27.39a170.54 170.54 0 00-4.89-16.4c-.48-1.29-1-3.47-2.24-4.3s-2.81-.78-4-.91a140.78 140.78 0 00-17.06-.6 116.94 116.94 0 00-18 1.11 12.64 12.64 0 00-4.86 1.46c-1.22.8-1.79 2.31-2.32 3.61a96.73 96.73 0 00-4.13 15c-2.24 10-4.12 20.08-5.88 30.17 0 .19-.06.39-.1.59a1.41 1.41 0 001.33 1.75c7.65-.27 15.3-.62 22.94-.89 12.16-.45 24.37-.71 36.5-1.61l6-.44 1.68-.13c.13 0 .71-.08.45 0h.17c.9 0 .9-1.43 0-1.4h-6.83c-5.38 0-10.73.1-16.11.29-12.17.45-24.34.81-36.5 1.24-2.77.09-5.54.13-8.31.23l1.34 1.75c1.42-8.42 3-16.83 4.83-25.18 1.2-5.59 2.45-11.19 4.09-16.67.3-1 .62-2 1-3a11.66 11.66 0 01.8-1.92c.13-.24.28-.48.43-.72-.2.31.36-.3 0 0a4 4 0 01.7-.39c-.3.14 0 0 .17-.05l.6-.19c4.85-1.42 10.25-1.5 15.27-1.72a175.76 175.76 0 0118.22 0 36.93 36.93 0 015.49.58 5.12 5.12 0 01.77.2c.22.07 0 0 0 0s.08 0 .09.05-.2-.13-.21-.2.2.35.3.54q.27.54.51 1.08a112.67 112.67 0 014.55 14.39c2.75 10 5.12 20.08 7.71 30.11 0 .2.11.39.16.59.24 1.06 1.98.6 1.75-.63z" fill="#1e1e1e"/><path d="M1785.5 349c-1.44-33.34-35.79-8.66-46.18-48-31.12 16.48 46.18 48 46.18 48z" fill="#1e1e1e" opacity=".2"/><path d="M1775.35 493.85c-1.9-11.64-3.42-24.84-2-27 2.43-3.57 12.55-6 15.65-3.78 5.43 3.84 9.67 29.89 10.86 33.26-2.49-27.63-5.56-52-9.29-67.14l-80.42 1.35q-1.53 34.76-2.21 69.51c.12-1.05 4.33-26.52 6.46-33.74s15.41-5.45 18.94-2.95 2.27 11.29 1.76 18.73c-.92 13.4-14.88 174.47-15.23 199.63 2.79-.59 4.85-1.84 5-3.2 1.27-9.77 2.32-26.69 3.58-36.47 1.64-12.59 3.27-25.19 4.6-37.82 4.91-46.51 9.83-138.4 12.32-141.44.72-.88 15.44-1.38 17.11.37s7.11 38.12 10.26 72.61c1.89 20.76 9.27 72.08 12 92.75 1.89 14.48 2.22 49.47 3.43 50.36a12.72 12.72 0 008.32 2.38c.68-7.26-17.41-164.5-21.14-187.41z" fill="#1e1e1e" opacity=".3"/><path d="M1747.33 326.19l4.39.34c1.6 59.78 1.65 127.65 1.65 127.65l-6.11.15c-10.77-65 .07-128.14.07-128.14z" fill="#d8d8d8" stroke="#1e1e1e" stroke-linecap="round" stroke-linejoin="round"/><path d="M1750.7 445.35c-.51 2.85.59 6.19.7 9.09 5 .65 23.79-.54 28.79-1.38s15.06-5.75 15.17-5.93-.6-7.17-1.1-10.41M1710 439.24c-.67 3.05-1.67 9.93-1.67 9.93s11 4.62 16.8 5.9 17.95 1.78 23.35-.65a77 77 0 01-.66-10.42" fill="#e45c4c" stroke="#1e1e1e" stroke-linecap="round" stroke-linejoin="round" stroke-width="2"/><path d="M1711.19 328.92c.77 6.38-.11 28.4.52 50.34s-4.89 40-6 55.43c-.17 2.16-.21 4.49 1 6.3a9.32 9.32 0 003.73 2.87c9.86 5 27.16 6.26 37.88 3.56-1.48-40.5-.12-80.41 0-121.06l-21-23.57" fill="#e45c4c" stroke="#1e1e1e" stroke-linecap="round" stroke-linejoin="round" stroke-width="2"/><path d="M1746.36 405.42c-6 1-18.27 1-18.27 1s-.94 9.06-3.56 12.63c-2 2.72-8.16 7.11-8.13 7.25a80.22 80.22 0 011.65 19.61" fill="none" stroke="#1e1e1e" stroke-linecap="round" stroke-linejoin="round" stroke-width="2"/><path d="M1789 329.83c-.77 6.38-.77 33.79.16 51.4s7.22 34.37 8.36 49.76c.16 2.16.21 4.5-1 6.3a9.24 9.24 0 01-3.73 2.87c-9.86 5-31.58 8.26-42.3 5.56 0-41.1 1.58-79.21.18-119.9l21.5-33.82" fill="#e45c4c" stroke="#1e1e1e" stroke-linecap="round" stroke-linejoin="round" stroke-width="2"/><path d="M1751.66 405.08c6.07-.58 17.59-1.84 17.59-1.71.19 13.89 13.45 16.42 13.15 17.65s.06 14.15 1.94 21.66" fill="none" stroke="#1e1e1e" stroke-linecap="round" stroke-linejoin="round" stroke-width="2"/><path d="M1728.21 292.74c-11.31-.75-16.22 14.71-4.55 17.09 8.48 1.73 17.67 11 24.24 16.53-1.3-3.36-10.86-16.59-12-18.77-2.38-4.75-.76-10.44 1.53-15.23 1.46-3.06 5.34-9.46 5.34-9.46-3.53 0-21.82-.65-19.51 10.17M1768.94 291.55c15.83 2 15.46 10.84 3.91 13.52-8.48 2-16.06 15.74-22.62 21.46 1.29-3.49 11.28-19.12 12.09-23 2-9.22-8.64-20.33-8.64-20.33a47 47 0 0110.5 1.33c2.5.61 12.67 2.55 10.71 7.72" fill="#e45c4c" stroke="#1e1e1e" stroke-linecap="round" stroke-linejoin="round" stroke-width="2"/><path d="M1727.72 292.7c-11.37 7.83 5 13.57 9.19 20.43 4.71 4.63 13.66 16.5 8.22 8.38-15-19.72-10.9-24.05-2.31-38.61-10.39-3.35-29.58 10.57-15.1 9.8zM1762.32 303.55c-.13 1.34-10.06 18.58-10.85 21.26 14.59-24.42 27.91-23.76 23-32.82 6.06-3-16.57-9.56-20.75-8.77 3.9 2.38 9.37 14.1 8.6 20.33z" fill="#1e1e1e" opacity=".3"/><path d="M1757.22 319.7c1.6 15 3.48 56.39 3.39 71.45M1759.13 387.06c1.09.15 2.17.32 3.25.5M1742 319.66l-.57 14.86c-.44 11.16-.62 45.66.25 56.79M1739.81 388a10.85 10.85 0 013-.25" fill="none" stroke="#fff" stroke-linecap="round" stroke-linejoin="round" stroke-width="2"/><path d="M1766.18 165.82c-2.73 8.58-11.92 16.81-18.16 23.3-9.46 9.85-19.52 21.84-23.8 34.81-1.14 3.44-1.13 7-1.36 10.58-.77 12.13 8.88 25.71 11.85 37.49 2.3 9.15 1.44 16.21 1.12 25.64-.08 2.47-.11 5.45 1.3 7.48a11.25 11.25 0 007.63 4.14c4.67.61 9.85.48 13.52-2.49 2.74-2.22 4.16-6.62 5.13-10 2.1-7.36 2.6-15.16 5.23-22.35 1.56-4.26 7.13-7.84 11.65-13.38 6.58-8.07 8.52-15.84 10.8-25.1s-2.81-19.22-6-28.2c-2.61-7.3-7.36-13.6-11.45-20.2s-7.64-13.96-7.46-21.72z" fill="#f6a87b" stroke="#1e1e1e" stroke-linecap="round" stroke-linejoin="round" stroke-width="2"/><path d="M1741.41 196.84a59.73 59.73 0 0111.76-2.33M1772 196.35c4.23-.4 8.77 3.82 10 5" fill="none" stroke="#1e1e1e" stroke-linecap="round" stroke-miterlimit="10" stroke-width="2"/><path d="M1728.86 199.56c-1.94.06-4.11.29-5.35 1.78-1.1 1.31-1.12 3.19-1 4.9a82.35 82.35 0 003 18.12 5.79 5.79 0 001.32 2.68c2.39 2.34 12.42 3.81 17.56 4.47 2.59.33 5.45.49 7.57-1 1.61-1.16 11.4-17.67 8.71-23.91s-21.67-7.32-31.81-7.04zM1770.92 206.31a2.48 2.48 0 00-1.28.59 2.76 2.76 0 00-.57 1.7 79.4 79.4 0 001 22.51 4.43 4.43 0 001 2.35c1.83 1.91 12.1 3.49 17.56 4a8.45 8.45 0 004.24-.38c2-.88 11.13-20.15 9-25s-21.53-7.98-30.95-5.77z" fill="#fff" stroke="#1e1e1e" stroke-linecap="round" stroke-linejoin="round" stroke-width="3"/><path d="M1761.35 209.24a6.27 6.27 0 017 1.49" fill="none" stroke="#1e1e1e" stroke-linecap="round" stroke-linejoin="round" stroke-width="3"/><path d="M1749.87 216.71c-2.1-8.64-11.27 6.1-.89 3a3.6 3.6 0 00.89-3zM1780.93 220.82c-1.14-9.44-11.69 5-.83 2a2.83 2.83 0 00.83-2z" fill="#1e1e1e"/><path d="M1744.94 275.49a15 15 0 0013.15 2.52M1756.92 231.14c-.14 6 7.21 6.55 10 2.06" fill="#f6a87b" stroke="#1e1e1e" stroke-linecap="round" stroke-linejoin="round" stroke-width="2"/><path fill="none" stroke="#222229" stroke-linecap="round" stroke-linejoin="round" stroke-width="8" d="M1881.04 102.36v176.22"/><path fill="#b28c3f" stroke="#222229" stroke-linejoin="round" stroke-width="6" d="M-125.35 70.59h3728.81v42.69H-125.35z"/><path fill="none" stroke="#222229" stroke-linecap="round" stroke-linejoin="round" stroke-width="8" d="M1655.43 65.47v53.32M1665.51 65.47v53.32M1821.51 65.47v53.32M1851.01 65.47v53.32M1871.38 65.47v53.32M1840.93 65.47v53.32M1634.17 65.47v53.32M1611.83 65.47v53.32M1888.68 65.47l-15.28 53.32"/></svg>