<svg xmlns="http://www.w3.org/2000/svg" width="88" height="28" viewBox="0 0 88 28"><path d="M12.27 23c4 4.72 8.79 2.32 10.7 1.4" fill="none" stroke="#1e1e1e" stroke-linecap="round" stroke-linejoin="round" stroke-width="2"/><path d="M21.37 6.63c-4.28-.77-15-7.15-18.28-5s2.54 10.55 5.35 12.7c5 3.84 17.56 5.41 22.66 3.75S43.57 9.89 41.55 7.5s-15.9-.1-20.18-.87z" fill="#5a2d22"/><path d="M11.43 15.46c2.76-1.21 6.24-2.17 9.22-1.75A10.2 10.2 0 0128 18.37l-8.78-.16z" fill="#f67566"/><path d="M21.37 6.63c-4.28-.77-15-7.15-18.28-5s2.54 10.55 5.35 12.7c5 3.84 17.56 5.41 22.66 3.75S43.57 9.89 41.55 7.5s-15.9-.1-20.18-.87z" fill="none" stroke="#1e1e1e" stroke-linecap="round" stroke-linejoin="round" stroke-width="2"/><path d="M69.68 8.64C64.7-.68 50.1 14.05 60.81 20c4.76 2.58 11.78-4.21 8.87-11.36z" fill="#5a2d22" stroke="#1e1e1e" stroke-linecap="round" stroke-linejoin="round" stroke-width="2"/><path d="M55.44 23c.59.55 5.11 6.09 12.54 1.65" fill="none" stroke="#1e1e1e" stroke-linecap="round" stroke-linejoin="round" stroke-width="2"/></svg>