<svg xmlns="http://www.w3.org/2000/svg" width="1677.89" height="1494.94" viewBox="0 0 1677.89 1494.94"><path d="M1024.94-2.24s-21.61 178.89 26.79 210.87L883.38 390.4 632.59 245.79s40.61-44.07 52.71-63.09-18.54-202.3-18.54-202.3" fill="#26cbff"/><path d="M1051.73 208.63c-21.32-21.1-29.56-89.76-29.56-89.76-58 92.15-187.78 116.4-286.38 120.55-71.12 3-126-4.48-126-4.48l309.89 185.53z" fill="#fff" opacity=".5"/><path d="M1161.52 616.84a260.48 260.48 0 0124.87-22.09 54.42 54.42 0 00-78.51 37.06c22.24-19.2 53.64-14.97 53.64-14.97z" fill="#222229"/><path d="M1098.41 643a62.79 62.79 0 0195.31-53.7c15.39-10.86 29-17.13 40.26-20.65a104.34 104.34 0 00-169.1 114.85l35.29-25.76a62.87 62.87 0 01-1.76-14.74zM1101.17 661.47l-35.58 23.69a100.69 100.69 0 005.37 10.56l34.12-24.56a62.91 62.91 0 01-3.91-9.69z" fill="#222229"/><path d="M1120.35 665.9c-.2.14-2.65 1.69-6.46 4.09a54.44 54.44 0 00100.94-36.37 258.17 258.17 0 01-30.9 16s-7.72 32.06-35 45.4c0 0 5.92-20.24.81-28.74l-16.94 3.11-8.25-12.07 9-14.65c-5.24-6.78-21.63-9-26-9.55a53.39 53.39 0 00-.1 19.3c7-5.09 11.58-8.45 11.82-8.61a2.32 2.32 0 112.65 3.81c-.25.18-5.6 3.75-13.57 9a54.08 54.08 0 003.48 9.6l5.77-4.14a2.32 2.32 0 112.66 3.81z" fill="#222229"/><path d="M1222.33 628.81a62.77 62.77 0 01-115.48 45.62c-10.39 6.54-24.71 15.55-35.35 22.23a104.4 104.4 0 007.19 10.51l28.36-20.38a2.33 2.33 0 012.66 3.82c-.48.33-14.43 9.15-29.39 18.61q3.35 4.08 7.12 7.87a104.34 104.34 0 00168.12-118.25c-7.21 9.21-17.77 19.56-33.23 29.97z" fill="#222229"/><path d="M1626.29 933.58c-12.39-189-92.26-537.88-148.86-570.51S1243 271.54 1243 271.54s12.71-11.14 4.62-20.69-43.89-50.15-57.75-66.86-47.36-5.57-47.36-5.57-16.17-50.94-55.44-49.35c-23.6 1-47.62 9.39-63 16 4.23 29 12.52 53.55 27.74 63.6l-83 73-120.58 67.51L735.6 290l-103-44.22s40.61-44.07 52.71-63.09c3.24-5.08 3.88-19.15 3.08-37-25.61-3.89-67.08-9.72-79.56-8.64a55.42 55.42 0 00-30 11.94s-78.55-2.39-84.32 16.71-19.64 70.84-34.65 79.59-34.66 20.7-31.19 38.21c0 0-160.56 57.3-206.76 75.61s-95.79 291.81-129.48 497.8S0 1494.94 0 1494.94h1677.89s-39.21-372.41-51.6-561.36zm-465.1-177.64a112.39 112.39 0 01-87.93-42.26l-29.73 18.78L1072 712a110.53 110.53 0 01-7.46-11l-7.53 4.73 7.24-5.21a113.07 113.07 0 01-5.61-10.76l-26.53 17.65 26-19a112.6 112.6 0 01185.21-122.26c17.7-3.68 27.81-.35 27.81-.35s-.54 10.4-10.06 25.29a112.61 112.61 0 01-99.8 164.74z" fill="#222229"/><path d="M632.59 245.79s40.61-44.07 52.71-63.09-18.54-202.3-18.54-202.3M1024.94-2.24s-21.61 178.89 26.79 210.87" fill="none" stroke="#222229" stroke-miterlimit="10" stroke-width="8"/><path fill="#686868" d="M842.16 355.33h11.53v1156.5h-11.53z"/><rect x="839.12" y="345.99" width="17.6" height="31.91" rx="3.5" fill="#b7b7b7"/><path d="M854.78 413.79h-13.72a4.55 4.55 0 01-4.53-4.53l3.88-32.26a4.55 4.55 0 014.54-4.53h5.95a4.55 4.55 0 014.53 4.53l3.89 32.26a4.55 4.55 0 01-4.54 4.53z" fill="#9b9b9b"/><path fill="#686868" d="M844.58 360.44h6.69v21.11h-6.69z"/><path d="M756.82 373.35c-.3-.19-2-1.67-1.18-.85-2.2-2.32-1.09-1.63-.76-.89.11.24.23.51.36.73.27.45-.91-2.41-.29-.64.68 1.95 1.26 3.94 1.77 5.95 1.77 6.93 3.08 14 4.32 21 1.86 10.52 3.46 21.09 4.94 31.67.2 1.49.41 3 .61 4.46 0 .37.37 2.75.21 1.54s.05.39.07.54l.21 1.55c.43 3.3.86 6.59 1.27 9.89q1.36 10.82 2.58 21.64 5.91 52.37 9.28 105 4.14 62.65 5.07 125.47c.62 44.89-.06 89.8-2.53 134.63q-.46 8.31-1 16.62c-.26 3.92 3.63 7.67 7.5 7.5a7.68 7.68 0 007.5-7.5c3-45.36 4-90.84 3.69-136.29Q800 651.2 796 587.11q-3.33-54.36-9.11-108.54c-2.85-26.32-6.09-52.63-10.49-78.74-1.31-7.79-2.7-15.58-4.5-23.27-1-4.24-2-9-4.21-12.78a9.77 9.77 0 00-3.29-3.38 7.56 7.56 0 00-10.26 2.69 7.65 7.65 0 002.69 10.26zM918.42 358.45c-4.29 10.6-6.51 22-8.26 33.29-2.48 15.88-3.89 31.91-4.81 47.95-1.06 18.62-1.47 37.28-1.54 55.93-.08 20.72.27 41.44.89 62.16q1 32.1 2.7 64.19 1.67 31.42 3.89 62.82 2 29 4.47 58.05 2.06 24.55 4.4 49.1 1.76 18.39 3.72 36.75c.82 7.58 1.65 15.16 2.69 22.71q.15 1.14.33 2.25c.65 4 5.62 6.23 9.22 5.24 4.26-1.17 5.89-5.21 5.24-9.22-.12-.77-.22-1.54-.33-2.3-.08-.51.34 2.62.15 1.12l-.12-.9-.24-1.89c-.44-3.55-.84-7.1-1.24-10.64-1.24-11.06-2.37-22.13-3.46-33.21q-2.29-23.25-4.3-46.51-2.42-27.89-4.47-55.81-2.28-30.94-4.08-61.93-1.86-32.08-3-64.2c-.76-20.83-1.27-41.68-1.39-62.53-.12-19.26.08-38.53.87-57.78.67-16.39 1.73-32.8 3.76-49.09.1-.82.21-1.63.31-2.45.17-1.34.13-.65 0 .32.08-.49.13-1 .2-1.47.24-1.74.5-3.47.77-5.2q.76-4.81 1.69-9.59a153.55 153.55 0 014.11-16.5c.71-2.25 1.5-4.48 2.39-6.67 1.47-3.65-1.61-8.4-5.24-9.23-4.35-1-7.65 1.33-9.23 5.24z" fill="#e5e5e5"/><path d="M794 809.44l-9.35-1.21c-1.33-.17-2.67-.44-4-.48a10.88 10.88 0 00-7.47 2.74 10.29 10.29 0 00-3.33 5.85 11.93 11.93 0 00-.23 3.21 14.08 14.08 0 001.48 5.22 21.74 21.74 0 004.9 6.7c4.26 4 10.3 6.92 16.28 6.23a18.69 18.69 0 006.26-1.71 14.85 14.85 0 003.52-2.46 17.55 17.55 0 004.62-7.28 16.46 16.46 0 00.45-9.25 14 14 0 00-6.17-8.48 7.49 7.49 0 00-10.26 2.69 7.68 7.68 0 002.69 10.26c.13.08.24.16.36.25l-1.52-1.18a6.65 6.65 0 011.19 1.18l-1.17-1.52a7.27 7.27 0 01.81 1.41l-.76-1.79a8.2 8.2 0 01.48 1.78l-.27-2a9.56 9.56 0 010 2.33l.27-2a11.26 11.26 0 01-.74 2.73l.76-1.79a10.8 10.8 0 01-1.33 2.28l1.17-1.51a9.75 9.75 0 01-1.53 1.55l1.52-1.17a8.58 8.58 0 01-1.87 1.1l1.79-.76a10.56 10.56 0 01-2.27.6l2-.27a12.05 12.05 0 01-2.94 0l2 .27a13.81 13.81 0 01-3.39-1l1.79.76a17 17 0 01-3.36-2l1.52 1.17a17.73 17.73 0 01-3.17-3.19l1.17 1.52A16.39 16.39 0 01784 817l.76 1.79a6 6 0 01-.35-1.19l.27 2a5.53 5.53 0 010-1.22l-.27 2a5.09 5.09 0 01.31-1.16l-.82 1.78a5.84 5.84 0 01.48-.8l-1.17 1.52a4.19 4.19 0 01.61-.58l-1.52 1.18a2.51 2.51 0 01.45-.26l-1.79.76a4 4 0 011-.26l-2 .27c2.12-.18 4.41.4 6.51.67l7.6 1c1.77.23 4.11-1 5.31-2.2a7.51 7.51 0 000-10.6l-1.52-1.18a7.5 7.5 0 00-3.79-1zM939.62 807.39c-5-.91-10.54-1.86-15.47 0a18.32 18.32 0 00-4.09 2 16.82 16.82 0 00-4.47 4.35 12.89 12.89 0 00-2.38 8.39 13.62 13.62 0 004 8.91 15.52 15.52 0 007.13 3.72 31 31 0 006.65.69 23.82 23.82 0 007.84-1 14.8 14.8 0 008.47-6.71 12.64 12.64 0 00.12-12.18 7.56 7.56 0 00-10.26-2.69 7.66 7.66 0 00-2.69 10.26q.13.24.24.48l-.75-1.79a5.09 5.09 0 01.26 1l-.26-2a5.83 5.83 0 010 1.32l.27-2a6.47 6.47 0 01-.38 1.3l.76-1.79a7.34 7.34 0 01-.84 1.43l1.23-1.58a7.26 7.26 0 01-1.17 1.18l1.52-1.17a9.09 9.09 0 01-1.6.92l1.79-.76a12.71 12.71 0 01-3.15.82l2-.27a27.31 27.31 0 01-6.7 0l2 .27a13.25 13.25 0 01-3.16-.82l1.79.75a8 8 0 01-1.65-1l1.52 1.17a6.89 6.89 0 01-1-1l1.17 1.52a6.89 6.89 0 01-.73-1.3l.76 1.79a7.13 7.13 0 01-.38-1.37l.27 2a7.15 7.15 0 010-1.73l-.26 2a7.23 7.23 0 01.38-1.38l-.76 1.79a8 8 0 011-1.76l-1.17 1.52a8.28 8.28 0 011.27-1.24l-1.52 1.17a12.12 12.12 0 012.28-1.33l-1.79.76a13.19 13.19 0 013-.82l-2 .27a22.36 22.36 0 015.72.13l-2-.27c1.06.15 2.11.34 3.17.53a8.07 8.07 0 005.78-.76 7.51 7.51 0 002.69-10.26 7.35 7.35 0 00-4.48-3.44z" fill="#e5e5e5"/></svg>