<svg xmlns="http://www.w3.org/2000/svg" width="420" height="800" viewBox="0 0 420 800"><defs><linearGradient id="a" x1="322.17" y1="668.96" x2="356.7" y2="668.96" gradientUnits="userSpaceOnUse"><stop offset="0" stop-color="#ee65de"/><stop offset="1" stop-color="#26cbff"/></linearGradient></defs><path fill="#b28c3f" stroke="#222229" stroke-linecap="round" stroke-linejoin="round" stroke-width="6" d="M416.19 732.72H23.81l46.29-57.66h293.68l52.41 57.66z"/><ellipse cx="214.6" cy="704.98" rx="97.53" ry="17.77" fill="#222229" opacity=".3"/><path stroke-width="6" stroke="#222229" stroke-linecap="round" stroke-linejoin="round" fill="#b28c3f" d="M23.81 732.72h392.37v22.01H23.81z"/><path d="M316.57 691.43c0 9.12 46.24 9.34 46.26.11s-46.24-9.22-46.26-.11z" fill="#222229" opacity=".3"/><path d="M320.91 629.12s3.48 58.75 3.55 60.35c0 6.58 30.53 6.58 30.31.5 0 0 3.32-59.08 3.27-60.36" fill="#fff"/><path d="M341.34 681.82a1 1 0 01-.54-.16c-2-1.28-3-3.52-3.9-5.49l-.06-.13a100.06 100.06 0 00-8.29-14.91c.43 1.71 1.05 3.42 1.68 5.18a55.57 55.57 0 011.82 5.65 27.72 27.72 0 01.8 7.32 1 1 0 01-.69.92c-.34.12-1.51.34-2.4-1.36-1.13-2.2-2.44-4.31-3.7-6.35s-2.61-4.21-3.78-6.48a1 1 0 011.78-.91c1.14 2.19 2.44 4.3 3.7 6.34 1 1.63 2 3.3 3 5a27.44 27.44 0 00-.66-4 53.19 53.19 0 00-1.76-5.45c-1.13-3.14-2.31-6.39-2.42-9.85a1 1 0 011.8-.63 101.28 101.28 0 0110.94 18.71l.05.13a22.56 22.56 0 001.46 2.86 43.93 43.93 0 00-2.13-8.08 37.77 37.77 0 01-2.39-10.39c-.06-1.44.51-2.47 1.51-2.74.51-.14 1.8-.25 2.78 1.79 2.71 5.63 5.2 11.44 7.41 17.3a8.54 8.54 0 00-.08-1.61c-.47-3.67-.91-7.41-1.29-11.11a6 6 0 01.11-2.43 2.64 2.64 0 012.38-1.92 1 1 0 01.95.64 60.6 60.6 0 012.18 7.41c.3 1.21.6 2.44.95 3.68.53-1.72 1.11-3.48 2.5-4.62a1 1 0 011.27 1.55c-1 .8-1.44 2.29-1.92 3.87a17.79 17.79 0 01-1 2.76 1 1 0 01-1.84-.11c-.79-2.24-1.35-4.48-1.89-6.65-.48-2-1-4-1.66-6a4.16 4.16 0 000 1.58c.38 3.69.81 7.41 1.28 11.06.14 1.07.5 3.91-1.52 5.17a1 1 0 01-.85.1 1 1 0 01-.62-.6c-2.38-6.51-5.12-13-8.12-19.23a2.29 2.29 0 00-.43-.65 2.14 2.14 0 00-.06.66c.12 3.32 1.17 6.48 2.29 9.83 1.2 3.64 2.45 7.39 2.39 11.33a1 1 0 01-.53.87 1 1 0 01-.5.15z" fill="url(#a)"/><path d="M320.91 629.12s3.48 58.75 3.55 60.35c0 6.58 30.53 6.58 30.31.5 0 0 3.32-59.08 3.27-60.36" fill="none" stroke="#1e1e1e" stroke-linecap="round" stroke-linejoin="round" stroke-width="2"/><path d="M358.89 627.92l.05 12.35c0 6.91-38.44 6.89-38.47.08l-.29-11.16" fill="#fff" stroke="#1e1e1e" stroke-linecap="round" stroke-linejoin="round" stroke-width="2"/><path d="M359.74 625.88l-.25 2.7c0 6.9-39.86 6.67-39.86-.14l-.31-2.69" fill="#fff" stroke="#1e1e1e" stroke-linecap="round" stroke-linejoin="round" stroke-width="2"/><path d="M319.31 625.93c0 5.8 40.43 6.06 40.42.18s-40.43-5.97-40.42-.18z" fill="#fff" stroke="#1e1e1e" stroke-linecap="round" stroke-linejoin="round" stroke-width="2"/><ellipse cx="339.22" cy="626" rx="3.83" ry="1.18" fill="#1e1e1e"/><path d="M338 626c-.19-6.85-1.74-22.61-1.74-22.61l2.2-.81 1.69 23.33" fill="#fff" stroke="#1e1e1e" stroke-linecap="round" stroke-linejoin="round" stroke-width="2"/></svg>