<svg xmlns="http://www.w3.org/2000/svg" width="400" height="800" viewBox="0 0 400 800"><defs><clipPath id="a"><path d="M197 553.45c-17.06 0-28.6-5.85-29.39-6.26l10.17-19.51h-.08c.92.46 22.8 11 49.31-5 25.4-15.4 46.61-49.27 63-100.65 22.39-70.06 34.9-170.85 37.19-299.56l22 .39c-2.34 131.4-15.3 234.61-38.53 306.76-18.2 56.55-42.76 94.34-73 112.3-14.95 8.84-29.06 11.53-40.67 11.53z" fill="none"/></clipPath></defs><path d="M234 473.67S364.08 722.91 377.81 76M227.75 420.37s57.41 85 57.41-344.41M205.38 388.77S311.53 393.42 311.53 76" fill="none" stroke="#222229" stroke-miterlimit="10" stroke-width="8"/><g clip-path="url(#a)"><path d="M197 553.45c-17.06 0-28.6-5.85-29.39-6.26l10.17-19.51h-.08c.92.46 22.8 11 49.31-5 25.4-15.4 46.61-49.27 63-100.65 22.39-70.06 34.9-170.85 37.19-299.56l22 .39c-2.34 131.4-15.3 234.61-38.53 306.76-18.2 56.55-42.76 94.34-73 112.3-14.95 8.84-29.06 11.53-40.67 11.53z" fill="#222229"/><path fill="#fff" d="M248.384 485.777l1.074-2.802 45.238 17.348-1.074 2.8zM236.751 503.524l1.376-2.666 43.054 22.221-1.376 2.666zM216.058 515.93l1.89-2.31 37.307 30.524-1.89 2.31zM202.115 520.73l2.573-1.542 24.91 41.556-2.573 1.542zM275.863 425.577l.338-2.981 48.142 5.46-.339 2.98zM315.142 142.015l48.45-.093.006 3-48.45.093zM315.184 163.895l48.45-.093.006 3-48.45.093zM315.226 185.774l48.45-.093.006 3-48.45.093zM315.268 207.654l48.45-.093.006 3-48.45.093zM315.31 229.534l48.45-.093.006 3-48.45.093zM315.342 251.414l48.45-.093.006 3-48.45.093zM309.794 273.305l48.45-.093.006 3-48.45.093zM300.806 295.202l48.45-.093.006 3-48.45.093zM299.238 318.818l.152-2.997 48.388 2.46-.152 2.996zM295.96 340.624l.194-2.993 48.348 3.135-.194 2.993zM285.744 361.889l.194-2.994 48.349 3.135-.194 2.994zM284.337 383.729l.194-2.994 48.348 3.135-.194 2.994zM278.329 403.843l.338-2.981 48.141 5.46-.338 2.98zM262.434 446.323l.51-2.94 47.481 8.237-.51 2.94zM259.33 467.846l.84-2.88 46.511 13.566-.84 2.88z"/></g><path d="M243.31 261.53c-4.2-76-34.54-226.77-244.55-226.77q-3.37 0-6.69.05v726.12c82.2 1 154.17-35.18 168.4-55 58.37-43 78.53-102.36 83.8-166.93.01-.91 1.78-227.81-.96-277.47z" fill="#bf9f17"/><path d="M-1.24 101.57s-2.43-.22-6.69-.3V337.8c16.53 1.91 50.52-21.54 50.52-21.54S29.34 284.4 55.9 272.58s45.15-1.69 62-15.21S82.05 116.73-1.24 101.57zM222.06 433.8s9.36 182.89-50.06 262.44c0 0 47.88-42.83 63-94.88s5-227.63 5-227.63l-17.94 60.07" fill="#fff" opacity=".5"/><path d="M183 497.7c-24.84-22.89-56.26 27.6-71.58 14.38-26.35-22.75-67.63-10.26-67.63-10.26-27.4-18.73-31.43-.85-48.43-2.16a27.61 27.61 0 00-3.27-.06v62.53c5.66 1.77 11.32 3.25 16.06 3.25 12.45 0 31.67-15.39 47.77-4.93s45.86 32.9 53.2 33.74c14.77 1.69 1.06 20-13.35 10.52-9.8-6.47-4.3 0-4.3 0-26.8 20.72-73.88 18.51-73.88 18.51s47.08 8.5 44.21 20.27C59.89 651.26 19 665-7.93 681.35v49.74c32.87 15.82 92.84 22.84 130.31-.7C175.54 697 207.83 520.58 183 497.7zM61.78 448.24c-12.73-22.81-33-119.42-33-119.42l-36.73 8v99.57c16.77 3.65 37.62 15.51 32.71 29.63C19 482.77 49 492.25 63.86 487.37c4.85-1.59 10.65-16.32-2.08-39.13zM172.3 301.12s24.67 56.47 16.15 59.95-27.79-10.54-25.92-3.07 32 39 40.68 27.8-9.13-88.8-9.13-88.8z" fill="#fff" opacity=".5"/><path d="M165.38 225.07c3.35 13.16 35.26 59 30.24 71.91s18.93 16.22 11-9.11-44.62-75.97-41.24-62.8zM105.83 297s21.76 11.29 21.76 27.17l-9.34 34s-16.46 6.83 4.75 6.46S189.38 388 186.7 417s-15.21 45.5-55 45.64-71.1-9.78-76.82-30S25.3 328.82 25.3 328.82L71.68 303z" fill="#fff" opacity=".5"/><path d="M200.4 304.67s29.76 84.42 5 140.05 34.56-71 34.56-71l-5-64.5z" fill="#222229"/><circle cx="118.25" cy="338.58" r="19.59" fill="#f22f7e"/><circle cx="118.25" cy="335.45" r="10.34" fill="#222229"/><path d="M67.33 355.23h.1l22.44-.5s-13.15-8-5.18-16.22c4.11-4.23 11.11-10.89 23-12.64 25.58-3.76 49.21 16.48 49.45 16.69 0 0-21.86-29.35-51.48-25-16.84 2.5-30.55 12.44-42.13 30.77a4.5 4.5 0 003.8 6.9z" fill="#222229"/><ellipse cx="34.45" cy="473.67" rx="8.41" ry="14.66" transform="rotate(-45 34.454 473.679)" fill="#222229"/><path d="M26.71 461.92c-3.75.7-13.68 4.42-14.48 12.84-.68 7.13-5.2 10.63-10.62 10.63a9.94 9.94 0 01-9.54-6.19v8a26.87 26.87 0 009.54 2.1c11.26 0 22.74-12 30.38-6.85zM56.59 448.74s24.88 36-8.34 47.3 45.65 24.78 17.37-42.42-9.03-4.88-9.03-4.88z" fill="#222229"/><circle cx="127.59" cy="335.45" r="4.58" fill="#fff"/><path d="M188.39 572.55c-17.29 13.92-85.34 31.34-85.34 31.34s-8.12 4.25-25.32-6.61-25.86-16.82-48.38-11.81c-14.71 3.27-24.59 3.18-24.59 3.18s-9.88.09-24.59-3.18M-.02 34.76v724.8" fill="none" stroke="#9b800e" stroke-miterlimit="10" stroke-width="8"/><circle cx="12.22" cy="85.23" r="2.68" fill="#9b800e"/><circle cx="12.22" cy="131.87" r="2.68" fill="#9b800e"/><circle cx="12.22" cy="178.52" r="2.68" fill="#9b800e"/><circle cx="12.22" cy="225.16" r="2.68" fill="#9b800e"/><circle cx="12.22" cy="271.81" r="2.68" fill="#9b800e"/><circle cx="12.22" cy="626.94" r="2.68" fill="#9b800e"/><circle cx="12.22" cy="673.59" r="2.68" fill="#9b800e"/><circle cx="12.22" cy="720.23" r="2.68" fill="#9b800e"/><circle cx="12.22" cy="383.61" r="2.68" fill="#9b800e"/><circle cx="12.22" cy="430.26" r="2.68" fill="#9b800e"/><circle cx="12.22" cy="510.58" r="2.68" fill="#9b800e"/><circle cx="12.22" cy="557.23" r="2.68" fill="#9b800e"/><path d="M244.82 463.93s-49.21 32.77-54.58 90.62-18.77 141.45-52.4 167.11M189.54 113.66s-53.83 132.7-83.23 134.14S0 247.8 0 247.8" fill="none" stroke="#9b800e" stroke-miterlimit="10" stroke-width="8"/><path d="M-6.34 34.79h5.1c200.64 0 245 138.67 246 268.24M244.82 353.36l-1.13 181.1C244.67 664 134.8 759.56-.55 759.56q-3.37 0-6.72-.08" fill="none" stroke="#222229" stroke-miterlimit="10" stroke-width="8"/><path d="M263.89 300.1l-33.65-7.23c-17.86-5.07-51.21-8.06-71.11-9.14-20.78-1.11-72.13-2.73-100.06 6.6a71.3 71.3 0 00-17.63 8.51 1 1 0 01-.14.11c-.37.25-.75.51-1.11.77A77.06 77.06 0 01-.3 311.82q-2.56 0-5.1-.18V322c18.73 1.5 38.29 3 48.07 3.71 0 0 10.77-12.46 22.73-16.45 17-5.68 51.5-7.78 92.18-5.61 33.83 1.8 108.68 16.38 108.68 14.46l1.13-14.55c0-1.88-1.51-3.03-3.5-3.46z" fill="#fff"/><path d="M54 309.23s-13.32 28.26-9.56 44.13c5.09 21.46 15.42 88.8 50.34 101.23l-18.59-6L51 416.81l-22.2-67.57 13.79-33zM254.14 341.67c1.05-11 12.5-5.54 13.09-9.35s-.65-15.91-.16-24.12c.26-4.4-26.75 7.56-26.75 7.56s13.25 31.9 13.82 25.91zM194.92 460.61l-4.68-7.68c13.71-8.35 31.77-49.18 35.43-94 1.41-17.28-1.94-30.29-10-38.67-10.32-10.76-24.95-10.32-25.09-10.31l-.35-9c.76 0 18.85-.57 31.94 13.08 9.89 10.33 14.08 25.68 12.45 45.63-3.62 44.93-21.83 90.08-39.7 100.95z" fill="#fff"/><path d="M263.89 305.1l-33.65-7.23c-17.86-5.07-51.21-8.06-71.11-9.14-20.78-1.11-72.13-2.73-100.06 6.6a71.3 71.3 0 00-17.63 8.51 1 1 0 01-.14.11c-.37.25-.75.51-1.11.77A77.06 77.06 0 01-.3 316.82q-2.56 0-5.1-.18v25.71a18.65 18.65 0 015.1-.7c15.88 0 20.64 20.07 20.64 20.07.62 3.48 1.32 4.51 1.88 6.9l.13.53a249.55 249.55 0 0016.28 48.43C51.36 444.91 67.3 461.85 86 467.92c15.13 4.92 35.73 7.42 56.44 7.42 32.24 0 64.73-6.06 77.15-18.48 16.72-16.73 32.63-69.1 34.15-108.66a17.26 17.26 0 00.12-2.17c0-19.49 10-18.94 10-18.94a3.5 3.5 0 003.5-3.5v-15c.03-1.91-1.48-3.06-3.47-3.49zm-58.46 137.62c-4.73 4.73-21.19 10.31-47.29 12.1-24.33 1.67-49.61-.6-66-5.92-20.8-6.75-39.62-36.27-50.36-82.29l-.12-.55c-4.61-19.68-7-41.54 23.7-51.76 17-5.68 51.5-7.78 92.18-5.61 38.53 2.05 68.19 3.94 72.23 23.69 7.03 34.17-10.1 96.1-24.34 110.34z" fill="#222229"/></svg>