<svg xmlns="http://www.w3.org/2000/svg" width="400" height="800" viewBox="0 0 400 800"><path d="M62.88 30.3C21.61 24.58-.39 37.69-.39 37.69a25.48 25.48 0 00-6.25-4v599h241.13S422.48 80.16 62.88 30.3z" fill="#222229"/><path d="M218.51 279.29C185.52 192.9-2.42 137-2.42 137s-3.39 1-9.35 3v648.81c216.18-7.62 249.59-157.32 254.86-221.89.01-.92 5.57-220-24.58-287.63z" fill="#b5b5b5"/><path d="M112.52 682.47C68.49 635.8 32 664-4.61 659.65q.19 9.84.41 19.69C29.26 691 45 683.28 32.87 702.28c-9.51 14.94-40.93 26.59-34.56 52.82 13 47.14 101.23 18.53 119.14 5.72 25.73-17.56 14.42-63.93-4.93-78.35z" fill="#fff" opacity=".4"/><path d="M81.77 538.84s-22.93-23 24.2-22.26 110.34 40.49 80.85 95.5-58.23 71.09-60.82 60.09 33.32-36.31 8.51-72.78-66.92-28.84-66.92-28.84" fill="#fff" opacity=".3"/><path d="M-2.42 137l-9.35 3.58v224.56c15.19 5.25 53.18-20.95 53.18-20.95s-13.25-31.86 13.31-43.69 45.15-1.69 62-15.2S80.87 152.16-2.42 137z" fill="#fff" opacity=".5"/><path d="M171.12 329.05s24.67 56.47 16.15 59.95-27.79-10.55-25.92-3.08 32 39 40.68 27.8-9.13-88.81-9.13-88.81z" fill="#fff" opacity=".4"/><path d="M164.2 253c3.35 13.17 35.26 59 30.24 71.92s18.93 16.21 11-9.11-44.58-75.99-41.24-62.81zM126.41 352.08l-9.34 34s-27 20.24-5.75 19.86 65.06 20.8 62.39 49.82-3.41 34.62-43.19 34.77-71.1-9.78-76.82-30-19.35-67.91-19.35-67.91 72.37-60.03 92.06-40.54z" fill="#fff" opacity=".5"/><path d="M199.22 332.59s29.76 84.42 5 140.05 34.56-71 34.56-71l-5-64.5z" fill="#222229"/><circle cx="117.07" cy="366.51" r="19.59" fill="#494949"/><circle cx="117.07" cy="363.38" r="10.34" fill="#222229"/><path d="M66.15 383.16h.1l22.44-.5s-13.15-8-5.18-16.23c4.11-4.22 11.11-10.88 23-12.64 25.58-3.75 49.21 16.49 49.44 16.7 0 0-21.85-29.35-51.47-25-16.84 2.51-30.55 12.43-42.13 30.76a4.51 4.51 0 003.8 6.91z" fill="#222229"/><ellipse cx="33.27" cy="501.6" rx="8.41" ry="14.66" transform="rotate(-45 33.27 501.6)" fill="#222229"/><path d="M55.41 476.67s24.87 36-8.34 47.29 45.65 24.78 17.37-42.41-9.03-4.88-9.03-4.88z" fill="#222229"/><circle cx="126.41" cy="363.38" r="4.58" fill="#fff"/><path d="M243.64 381.28l-1.13 181.11c1 129.57-108.9 225.09-244.24 225.09q-5 0-10-.17M-2.42 137s236.2 62.6 237.18 192.17l3.83 6.72" fill="none" stroke="#222229" stroke-miterlimit="10" stroke-width="8"/><path d="M173.54 587.71c-15.9-76.15-139.08-66.44-187.54-68.4v101.8c20.62-10.67 3.09-10.5 30.17-6.78 11.54.85 19.5-6.07 31.95-5.35 9.87 7.37 21.71 14 28.77.25 29.37 30.87 25.35-7.09 39.1 5.76 14.13 4.92 13.46-4.59 22.61-5.73 20.5 10 37.75-3.68 34.94-21.55z" fill="#222229"/><path d="M55.42 471.54c-6.23-4.8-31-35.85-21.21-110.14 1.53-11.64-26-11-46.88-7.55V551.4a52.59 52.59 0 008.87 1.22C20.66 554 38.69 536 42.67 532.26h.06c6.56 2.67 14.64 5.41 20.78.44 14.98-12.08 5.49-50.7-8.09-61.16z" fill="#edb072"/><path d="M55.42 471.54c-6.23-4.8-31.08-54.28-21.33-128.57.68-5.15-17.14 70.54-16 89.1C20.35 466.4 37.37 484 45.4 491.71c18 17.34-.44 37.28-2.73 40.55 5.74 2 15.81 4.55 20.84.47C78.49 520.62 69 482 55.42 471.54z" fill="#cc813e"/><path d="M41.29 532.33c43.81 14.38 29.42-38.58 17.66-49" fill="none" stroke="#222229" stroke-linecap="round" stroke-linejoin="round" stroke-width="8"/><path d="M-14 537.94v10.41l10.2 4.27c11.7 6.08 40.48-19.34 46.47-20.36z" fill="#cc813e"/><path d="M.06 553.08c18.24.93 42.56-25.09 49-31.3" fill="none" stroke="#222229" stroke-linecap="round" stroke-linejoin="round" stroke-width="8"/><path d="M262.71 328l-33.65-7.23c-17.86-5.06-51.21-8.06-71.12-9.13-20.77-1.12-72.11-2.73-100 6.58a71.66 71.66 0 00-17.63 8.51l-.14.1-1.11.78a77.25 77.25 0 01-40.54 12.14 58.54 58.54 0 01-9-.63v10.54c19.87 1.59 41.52 3.26 52 4 0 0 10.77-12.47 22.73-16.45 17-5.68 51.5-7.78 92.18-5.62 33.83 1.81 108.68 16.39 108.68 14.47l1.13-14.55c-.03-1.91-1.54-3.06-3.53-3.51z" fill="#fff"/><path d="M52.8 337.15s-13.32 28.26-9.56 44.13c5.09 21.47 15.42 90.8 50.34 103.24l-18.59-6-25.19-31.78-22.19-69.57 13.8-33zM253 369.59c1-11 12.5-5.53 13.09-9.35s-.65-15.9-.16-24.11c.26-4.41-26.75 7.55-26.75 7.55s13.21 31.91 13.82 25.91zM193.74 490.54l-4.68-7.69c13.71-8.34 31.77-51.17 35.43-96 1.41-17.27-2-30.28-10-38.66-10.32-10.77-24.95-10.32-25.09-10.32l-.35-9c.76 0 18.85-.57 31.94 13.08 9.89 10.32 14.08 25.67 12.45 45.62-3.65 44.95-21.83 92.1-39.7 102.97z" fill="#fff"/><path d="M262.71 333l-33.65-7.23c-17.86-5.06-51.21-8.06-71.12-9.13-20.77-1.12-72.11-2.73-100 6.58a71.66 71.66 0 00-17.63 8.51l-.14.1-1.11.78a77.25 77.25 0 01-40.54 12.14 58.54 58.54 0 01-9-.63v27.78a18 18 0 019-2.32c15.88 0 20.64 20.07 20.64 20.07.62 3.48 1.32 6.51 1.88 8.89l.13.54a250 250 0 0016.27 48.42c12.74 27.33 28.68 44.27 47.37 50.35 15.13 4.91 35.73 7.41 56.44 7.41 32.24 0 64.73-6.05 77.15-18.47 16.72-16.73 32.63-71.1 34.15-110.67a17.14 17.14 0 00.12-2.17c0-19.49 10-18.93 10-18.93a3.51 3.51 0 003.5-3.5v-15c.04-1.92-1.47-3.07-3.46-3.52zm-58.46 139.64c-4.73 4.74-21.19 10.31-47.29 12.1-24.33 1.67-49.61-.6-66-5.91-20.79-6.76-39.61-38.27-50.35-84.3l-.12-.54c-4.61-19.69-7-41.55 23.7-51.76 17-5.68 51.5-7.78 92.18-5.62 38.53 2.06 68.19 3.95 72.23 23.7 7.02 34.17-10.11 98.1-24.35 112.33z" fill="#222229"/><path d="M-12.4 631.2c30.48 9.3 41.49 2.53 60.51 2s63.43 18.5 63.43 18.5" fill="none" stroke="#222229" stroke-linecap="round" stroke-miterlimit="10" stroke-width="8"/><path d="M219 263.79c-4.37-3.73-11.54-4.45-17.3.41-2.28-6.81-10.51-12.58-17-3.73-4.07-15.29-13.71-12.91-20.87.32-8.37-20.31-17.6.67-25.79-2.31-11.71-8.66-14.6-16-23.22-2.59-7.6-17.83-17-12.43-27.4.31-7.32-15.53-16-18.65-24.8-4.17-7.4-16.43-15.81-17.2-24.75-.13-24.09-41.14-30.06 14.49-27.11 34.1 9 43 37.41 68.5 121.89 61.52 86.7 4.84 100.77-66.68 86.35-83.73z" fill="#222229"/></svg>