<svg xmlns="http://www.w3.org/2000/svg" width="400" height="800" viewBox="0 0 400 800"><path d="M314.17 375.53a402.54 402.54 0 00-9.12-61.46c9.58-74.79-1.67-132.64-33.45-171.93-16-19.82-38.37-31.72-58-38.8a3.86 3.86 0 00-.51-1.69c-26.28-45.08-59.59-72.35-99-81.07C69.74 10.78 23.81 26.82.15 37.47c-1.49-.88-10.2 4.9-10.42 5 0 4.44-2 739 4.7 739.23v1.52c83 2.06 156.18-34.54 170.5-54.49 25.5-18.79 43.64-40.74 56.41-64.88a166.33 166.33 0 0017.48-38.81 139.07 139.07 0 003.8-18.92 215.92 215.92 0 003.6-22.44 3.88 3.88 0 002.35.8 4 4 0 003-1.4 260.1 260.1 0 0054.21-105.69c8.01-31.62 10.83-65.9 8.39-101.86z" fill="#26cbff"/></svg>