<svg xmlns="http://www.w3.org/2000/svg" width="40" height="20" viewBox="0 0 40 20"><path d="M7.91,2.22A7.75,7.75,0,0,0,2.33,4.6a5.78,5.78,0,0,1,2.32-.49,5.89,5.89,0,0,1,0,11.77,5.78,5.78,0,0,1-2.32-.49A7.77,7.77,0,1,0,7.91,2.22Z" fill="none" stroke="#411f19" stroke-linecap="round" stroke-linejoin="round"/><circle cx="29.29" cy="10" r="4.11" fill="none" stroke="#411f19" stroke-linecap="round" stroke-linejoin="round"/><line x1="29.29" y1="1.62" x2="29.29" y2="3.52" fill="none" stroke="#411f19" stroke-linecap="round" stroke-linejoin="round"/><line x1="29.29" y1="16.48" x2="29.29" y2="18.38" fill="none" stroke="#411f19" stroke-linecap="round" stroke-linejoin="round"/><line x1="37.67" y1="10" x2="35.77" y2="10" fill="none" stroke="#411f19" stroke-linecap="round" stroke-linejoin="round"/><line x1="22.81" y1="10" x2="20.91" y2="10" fill="none" stroke="#411f19" stroke-linecap="round" stroke-linejoin="round"/><line x1="35.22" y1="15.93" x2="33.87" y2="14.58" fill="none" stroke="#411f19" stroke-linecap="round" stroke-linejoin="round"/><line x1="24.71" y1="5.42" x2="23.36" y2="4.07" fill="none" stroke="#411f19" stroke-linecap="round" stroke-linejoin="round"/><line x1="35.22" y1="4.07" x2="33.87" y2="5.42" fill="none" stroke="#411f19" stroke-linecap="round" stroke-linejoin="round"/><line x1="24.71" y1="14.58" x2="23.36" y2="15.93" fill="none" stroke="#411f19" stroke-linecap="round" stroke-linejoin="round"/></svg>