<svg xmlns="http://www.w3.org/2000/svg" width="800" height="600" viewBox="0 0 800 600"><path d="M181.07 145.75h-.23a16.42 16.42 0 0 1-10.59 14.91c-9.86 3.57-21.12 2.9-31.59 2.67v2.37a2.79 2.79 0 0 0 .79 2 2.85 2.85 0 0 0 2 .83h39.65a2.76 2.76 0 0 0 2.74-2.76v-17.28a2.76 2.76 0 0 0-2.77-2.74zM115.88 201.62v-4.77a5.39 5.39 0 0 0-5.39-5.4H77.24a5.39 5.39 0 0 0-5.39 5.4v4.77zM150.87 179.45h-21a1.26 1.26 0 0 0-1.25 1.26v51.54a1.25 1.25 0 0 0 1.25 1.26h21z" fill="#32a7df" opacity=".2" style="isolation:isolate"/><path d="M188.46 234.78h-58.6a2.52 2.52 0 0 1-2.51-2.51v-51.56a2.52 2.52 0 0 1 2.51-2.51h58.6a2.52 2.52 0 0 1 2.51 2.51v51.56a2.52 2.52 0 0 1-2.51 2.51zm-58.6-54.07v51.56h58.6v-51.56zM110.49 227.25H77.25a6.67 6.67 0 0 1-6.66-6.66v-23.74a6.67 6.67 0 0 1 6.66-6.66h33.24a6.67 6.67 0 0 1 6.66 6.66v23.74a6.67 6.67 0 0 1-6.66 6.66zm-33.24-34.54a4.15 4.15 0 0 0-4.15 4.14v23.74a4.15 4.15 0 0 0 4.15 4.15h33.24a4.15 4.15 0 0 0 4.15-4.15v-23.74a4.15 4.15 0 0 0-4.15-4.14zM181.07 169.78h-39.65a4 4 0 0 1-4-4v-17.29a4 4 0 0 1 4-4h7.66l2.95-3.22a1.25 1.25 0 0 1 .91-.41 1.35 1.35 0 0 1 .92.39l3.11 3.23h24.1a4 4 0 0 1 4 4v17.22a4 4 0 0 1-1.13 2.86 4.06 4.06 0 0 1-2.86 1.22zM141.42 147a1.5 1.5 0 0 0-1.5 1.49v17.26a1.51 1.51 0 0 0 1.5 1.5h39.64a1.49 1.49 0 0 0 1.49-1.53v-17.24a1.5 1.5 0 0 0-1.49-1.48h-24.62a1.26 1.26 0 0 1-.91-.39L153 144l-2.41 2.64a1.27 1.27 0 0 1-.93.41z" fill="#32a7df"/><path d="M174.43 190h-16.66a.82.82 0 1 1 0-1.64h16.66a.82.82 0 0 1 0 1.64zM164 197h-6.2a.82.82 0 1 1 0-1.64h6.2a.82.82 0 0 1 0 1.64zM178.94 210.82h-21.17a.82.82 0 0 1-.77-.82.82.82 0 0 1 .82-.81h21.17a.82.82 0 0 1 .82.81.82.82 0 0 1-.87.82zM172.18 203.89h-14.41a.82.82 0 1 1 0-1.63h14.41a.82.82 0 0 1 0 1.63z" fill="#32a7df"/><rect x="90.06" y="215.57" width="19.93" height="5.27" rx="2.63" fill="#32a7df"/><path d="M83.88 214a.82.82 0 0 1-.72-.44c-15.2-28.33 8-51.28 8.19-51.51a.82.82 0 1 1 1.14 1.18c-.23.22-22.5 22.33-7.89 49.56a.82.82 0 0 1-.34 1.11.86.86 0 0 1-.38.1z" fill="#32a7df"/><path d="M83.88 214a.85.85 0 0 1-.35-.08L77.38 211a.82.82 0 0 1 .7-1.48l5.33 2.5 1.93-5.48a.82.82 0 0 1 1.54.55l-2.23 6.32a.81.81 0 0 1-.46.48.87.87 0 0 1-.31.11zM140.16 211.76a.82.82 0 0 1-.79-.84c1-36.2-21.47-46.58-21.7-46.68a.82.82 0 0 1 .66-1.5c.24.11 23.73 10.88 22.67 48.23a.81.81 0 0 1-.84.79z" fill="#32a7df"/><path d="M140.16 211.76a.83.83 0 0 1-.61-.26l-4.06-4.45a.82.82 0 0 1 1.21-1.11l3.45 3.78 3.33-3.77a.81.81 0 0 1 1.15-.07.83.83 0 0 1 .08 1.16l-3.94 4.45a.81.81 0 0 1-.61.27zM154.78 157.75a.83.83 0 0 1-.4-.11c-12.81-7.15-30-4.68-30.14-4.66a.81.81 0 1 1-.24-1.61c.72-.11 17.87-2.59 31.18 4.84a.83.83 0 0 1 .31 1.12.84.84 0 0 1-.71.42z" fill="#32a7df"/><path d="M150.87 160.41a.82.82 0 0 1-.3-1.58l4.76-1.88-2.33-4.44a.82.82 0 1 1 1.44-.77l2.76 5.26a.8.8 0 0 1 0 .66.84.84 0 0 1-.46.48l-5.61 2.21a.8.8 0 0 1-.26.06zM74.72 146.33a1.25 1.25 0 0 1 1.28-1.26h3.2c3.59 0 6.07 2.47 6.07 5.68a5.72 5.72 0 0 1-6.07 5.71H76a1.25 1.25 0 0 1-1.25-1.26zm4.45 7.89a3.26 3.26 0 0 0 3.44-3.41 3.28 3.28 0 0 0-3.44-3.44h-1.94v6.88zM86.18 154.87l4-9a1.56 1.56 0 0 1 1.47-1h.14a1.52 1.52 0 0 1 1.45 1l4 9a1.28 1.28 0 0 1 .13.51 1.19 1.19 0 0 1-1.19 1.21 1.29 1.29 0 0 1-1.2-.87l-.77-1.79h-5l-.8 1.87a1.24 1.24 0 0 1-1.16.79 1.17 1.17 0 0 1-1.25-1.18 1.37 1.37 0 0 1 .18-.54zm7.06-3.16l-1.58-3.77-1.58 3.77zM100.58 147.39h-2.41a1.16 1.16 0 0 1 0-2.32h7.33a1.16 1.16 0 0 1 0 2.32h-2.41v7.94a1.26 1.26 0 1 1-2.51 0zM106.47 154.87l4-9a1.57 1.57 0 0 1 1.47-1h.15a1.54 1.54 0 0 1 1.45 1l4 9a1.28 1.28 0 0 1 .13.51 1.19 1.19 0 0 1-1.19 1.21 1.29 1.29 0 0 1-1.21-.87l-.77-1.79h-5l-.8 1.87a1.23 1.23 0 0 1-1.15.79 1.16 1.16 0 0 1-1.16-1.18 1.22 1.22 0 0 1 .08-.54zm7-3.16l-1.58-3.77-1.58 3.77zM443.27 169.15a11.95 11.95 0 1 1 11.94-11.94 12 12 0 0 1-11.94 11.94zm0-21.37a9.43 9.43 0 1 0 9.43 9.43 9.44 9.44 0 0 0-9.43-9.43z" fill="#32a7df"/><path d="M545.72 139H445.15a2.52 2.52 0 0 0-2.51 2.51v4.59c2.73 0 8.13 2.7 8.18 2.77h97.42v-7.36a2.52 2.52 0 0 0-2.52-2.51z" fill="#32a7df" opacity=".2"/><path d="M545.72 184.06H445.15a3.77 3.77 0 0 1-3.77-3.77v-12.4a1.26 1.26 0 0 1 2.52 0v12.4a1.26 1.26 0 0 0 1.25 1.26h100.57a1.26 1.26 0 0 0 1.26-1.26v-38.8a1.25 1.25 0 0 0-1.26-1.25H445.15a1.25 1.25 0 0 0-1.25 1.25v5a1.26 1.26 0 1 1-2.52 0v-5a3.77 3.77 0 0 1 3.77-3.77h100.57a3.77 3.77 0 0 1 3.77 3.77v38.8a3.77 3.77 0 0 1-3.77 3.77z" fill="#32a7df"/><path d="M441.14 161a.82.82 0 0 1-.58-.24l-2.29-2.29a.81.81 0 0 1 0-1.15.82.82 0 0 1 1.16 0l1.71 1.71 4.89-4.88a.81.81 0 1 1 1.15 1.15l-5.46 5.46a.82.82 0 0 1-.58.24zM482.11 162.86h-18.23a1.26 1.26 0 0 1 0-2.51h18.23a1.26 1.26 0 0 1 0 2.51zM532.19 162.86h-42.06a1.26 1.26 0 1 1 0-2.51h42.06a1.26 1.26 0 1 1 0 2.51zM443.27 223a11.95 11.95 0 1 1 11.94-11.94A12 12 0 0 1 443.27 223zm0-21.37a9.43 9.43 0 1 0 9.43 9.43 9.44 9.44 0 0 0-9.43-9.42z" fill="#32a7df"/><path d="M545.72 192.84H445.15a2.52 2.52 0 0 0-2.51 2.51v4.59c2.73 0 8.13 2.7 8.18 2.77h97.42v-7.36a2.52 2.52 0 0 0-2.52-2.51z" fill="#32a7df" opacity=".2"/><path d="M545.72 237.92H445.15a3.77 3.77 0 0 1-3.77-3.77v-12.4a1.26 1.26 0 0 1 2.52 0v12.4a1.26 1.26 0 0 0 1.25 1.26h100.57a1.26 1.26 0 0 0 1.26-1.26v-38.8a1.25 1.25 0 0 0-1.26-1.25H445.15a1.25 1.25 0 0 0-1.25 1.25v5.05a1.26 1.26 0 0 1-2.52 0v-5.05a3.77 3.77 0 0 1 3.77-3.77h100.57a3.77 3.77 0 0 1 3.77 3.77v38.8a3.77 3.77 0 0 1-3.77 3.77z" fill="#32a7df"/><path d="M482.11 216.72h-18.23a1.26 1.26 0 0 1 0-2.51h18.23a1.26 1.26 0 0 1 0 2.51zM532.19 216.72h-42.06a1.26 1.26 0 1 1 0-2.51h42.06a1.26 1.26 0 1 1 0 2.51zM446.36 215a.82.82 0 0 1-.58-.24l-6.24-6.25a.81.81 0 0 1 1.15-1.15l6.25 6.24a.82.82 0 0 1-.58 1.4z" fill="#32a7df"/><path d="M440.12 215a.82.82 0 0 1-.58-1.4l6.24-6.24a.82.82 0 0 1 1.16 0 .81.81 0 0 1 0 1.15l-6.25 6.25a.78.78 0 0 1-.57.24zM268.61 174a17.19 17.19 0 1 1 17.19-17.18A17.21 17.21 0 0 1 268.61 174zm0-31.86a14.68 14.68 0 1 0 14.67 14.68 14.69 14.69 0 0 0-14.67-14.68zM355.57 234.13a17.19 17.19 0 1 1 17.19-17.19 17.21 17.21 0 0 1-17.19 17.19zm0-31.86a14.67 14.67 0 1 0 14.67 14.67 14.69 14.69 0 0 0-14.67-14.67zM311.13 205a17.19 17.19 0 1 1 17.19-17.19A17.21 17.21 0 0 1 311.13 205zm0-31.86a14.67 14.67 0 1 0 14.68 14.67 14.69 14.69 0 0 0-14.68-14.69z" fill="#32a7df"/><path d="M258.17 169.69c-3.44-2.58-4.75-7-4.78-11.48a16.89 16.89 0 0 1 2.4-10.88 15.91 15.91 0 1 0 20.81 24c-6.02 2.41-13.03 2.41-18.43-1.64zM349.08 230.94c-6.11-2.91-8.41-8-8.54-13.49a2.69 2.69 0 0 1-.31-1.3 24.29 24.29 0 0 1 1.12-7.5 15.92 15.92 0 0 0 22 23 18.66 18.66 0 0 1-14.27-.71zM302.28 201.28c-3.88-2-6-7.52-6.6-11.58-.7-4.42 1.29-8 3.14-11.78a15.92 15.92 0 1 0 20.37 24.34 23.65 23.65 0 0 1-16.91-.98z" fill="#32a7df" opacity=".2"/><path d="M267.31 152.94l-2.13.53-.56-2.2 3.5-1H270v12.28h-2.64zM306.56 191.14l4.06-3.33c1.51-1.25 2.11-1.91 2.11-2.92a1.5 1.5 0 0 0-1.64-1.59c-.94 0-1.59.53-2.49 1.64l-1.88-1.51a5.08 5.08 0 0 1 4.54-2.53c2.53 0 4.2 1.48 4.2 3.76 0 2-1 3-3.2 4.72l-2 1.53h5.31v2.32h-9zM350.82 221.88l1.85-1.76a3.73 3.73 0 0 0 2.94 1.46 1.53 1.53 0 0 0 1.73-1.48c0-1-.89-1.55-2.39-1.55h-1.11l-.42-1.7 2.91-2.93h-4.79v-2.3h8.24v2l-3.09 3c1.66.28 3.28 1.15 3.28 3.41 0 2.29-1.67 4-4.39 4a6 6 0 0 1-4.76-2.15zM347 188.61h-11.78a.82.82 0 0 1 0-1.64H347a14.67 14.67 0 1 0 0-29.34h-56.14a.82.82 0 1 1 0-1.63H347a16.31 16.31 0 1 1 0 32.61z" fill="#32a7df"/><path d="M339.64 194.8a.82.82 0 0 1-.59-.26l-5.86-6.19a.83.83 0 0 1 0-1.15l5.86-5.63a.81.81 0 0 1 1.15 0 .82.82 0 0 1 0 1.15l-5.27 5.07 5.3 5.6a.83.83 0 0 1-.6 1.38zM330.46 220.07h-55.58a16.31 16.31 0 1 1 0-32.61h11.51a.82.82 0 0 1 0 1.64h-11.51a14.67 14.67 0 0 0 0 29.34h55.58a.82.82 0 1 1 0 1.63z" fill="#32a7df"/><path d="M326.05 226.26a.79.79 0 0 1-.56-.22.82.82 0 0 1 0-1.16l5.3-5.6-5.27-5.06a.82.82 0 0 1 1.13-1.18l5.86 5.62a.84.84 0 0 1 0 1.16l-5.87 6.18a.81.81 0 0 1-.59.26z" fill="#32a7df"/><path d="M675.37 155.9s-13.28 8.21-16.13 17.23c0 0-22.34 2.21-28.43 22.58 0 0 15.71 6.51 31.24-1.63 0 0 10.84 19.18 36.77 14.91 0 0 8.15-23.94-19.85-33.78.03 0 1.88-11.87-3.6-19.31z" fill="#32a7df" opacity=".2" style="isolation:isolate"/><path d="M659.24 173.13s-4.91 6.62 2.81 21A32.7 32.7 0 0 0 679 175.21a44 44 0 0 0-19.76-2.08z" fill="#32a7df" opacity=".2" style="isolation:isolate"/><path d="M718.88 215.54a2.72 2.72 0 0 1-1.48-.47l-10.88-6.58a41.84 41.84 0 0 1-13.44 2.14c-20 0-36.33-13.43-36.33-29.92s16.29-29.92 36.32-30.05 36.34 13.42 36.34 29.92a26.48 26.48 0 0 1-7.41 18.13l-.85 14.38a2.13 2.13 0 0 1-1.2 2.19 2.19 2.19 0 0 1-1.07.26zm-12.22-9.69a1.28 1.28 0 0 1 .65.18l11.3 6.83.87-14.75a1.26 1.26 0 0 1 .34-.79 24.16 24.16 0 0 0 7.08-16.74c0-15.11-15.17-27.4-33.82-27.4s-33.82 12.47-33.82 27.53 15.17 27.4 33.82 27.4a39 39 0 0 0 13.15-2.18 1.06 1.06 0 0 1 .43-.08z" fill="#32a7df"/><path d="M618.57 204.09a2.5 2.5 0 0 1-.85-.15 1.12 1.12 0 0 1-.49-.3 2.82 2.82 0 0 1-.87-2l-.85-14.31a26.47 26.47 0 0 1-7.45-18.12c0-16.5 16.3-29.92 36.33-29.92s36.2 13.47 36.33 30-16.3 29.93-36.33 29.93a44.83 44.83 0 0 1-13.39-2.13l-11 6.61a3.19 3.19 0 0 1-1.43.39zm25.82-62.31c-18.65 0-33.82 12.3-33.82 27.41a24.14 24.14 0 0 0 7.08 16.73 1.31 1.31 0 0 1 .34.79l.87 14.76 11.3-6.83a1.25 1.25 0 0 1 1.05-.12 42.21 42.21 0 0 0 13.18 2.2c18.65 0 33.82-12.3 33.82-27.41s-15.29-27.53-33.82-27.53z" fill="#32a7df"/><path d="M639.16 236.37a2.11 2.11 0 0 1-1-.26 2.18 2.18 0 0 1-1.2-2.26l-.86-14.31a26.51 26.51 0 0 1-7.44-18.13c0-16.5 16.3-29.92 36.33-29.92s36.33 13.61 36.33 30S685 231.46 665 231.46a41.79 41.79 0 0 1-13.44-2.14l-10.93 6.61a2.58 2.58 0 0 1-1.47.44zM664.94 174c-18.64 0-33.81 12.29-33.81 27.4a24.19 24.19 0 0 0 7.07 16.74 1.22 1.22 0 0 1 .35.79l.87 14.75 11.3-6.83a1.21 1.21 0 0 1 1.08-.1 39 39 0 0 0 13.2 2.19c18.65 0 33.82-12.29 33.82-27.4s-15.23-27.41-33.88-27.54z" fill="#32a7df"/><path d="M509.31 378.47v71.19h19.31a1.27 1.27 0 0 0 1.26-1.26v-69.93zM531.75 380.48a2.6 2.6 0 0 1-1.08-.22v65.88h15.69a1.1 1.1 0 0 0 1-1.15v-64.32c-5.19-.06-10.36-.17-15.61-.19z" fill="#32a7df" opacity=".2"/><path d="M508.06 457.4H434a2.51 2.51 0 0 1-2.51-2.51v-94.84a2.52 2.52 0 0 1 2.51-2.52h74.06a2.52 2.52 0 0 1 2.51 2.52v94.84a2.51 2.51 0 0 1-2.51 2.51zm0-2.51zM434 360.05v94.84h74.05v-94.84z" fill="#32a7df"/><path d="M528.62 450.91h-19.31a1.26 1.26 0 0 1 0-2.51h19.31v-80.11h-19.31a1.26 1.26 0 0 1 0-2.51h19.31a2.52 2.52 0 0 1 2.52 2.51v80.11a2.52 2.52 0 0 1-2.52 2.51z" fill="#32a7df"/><path d="M546.36 447.4h-15.69a1.26 1.26 0 0 1 0-2.52h15.46v-73.25h-15.46a1.26 1.26 0 1 1 0-2.51h15.69a2.34 2.34 0 0 1 2.28 2.4V445a2.35 2.35 0 0 1-2.28 2.4zm0-75.77z" fill="#32a7df"/><path fill="#32a7df" d="M442.91 372.89h4.1v20.84h-4.1zM449.33 379.79h4.1v13.93h-4.1zM455.84 383.31h4.1v10.42h-4.1zM462.26 376.16h4.1v17.56h-4.1zM468.85 378.74h4.1v14.99h-4.1zM475.27 372.89h4.1v20.84h-4.1zM482.04 374.47h4.1v19.25h-4.1zM488.63 381.79h4.1v11.94h-4.1zM495.05 377.84h4.1v15.89h-4.1zM442.91 408.97h56.25v26.49h-56.25zM442.91 439.01h56.25v7.76h-56.25z" opacity=".2"/><path d="M445 390.4a.81.81 0 0 1-.62-.29.8.8 0 0 1 .09-1.15l6.42-5.48a.8.8 0 0 1 1 0l5.86 4.93 5.9-7.7a.81.81 0 0 1 1-.22l6.15 3.42 5.86-6.61a.83.83 0 0 1 .84-.25l6.77 2a.75.75 0 0 1 .42.3l6.08 8.15 5.76-4.78a.82.82 0 0 1 1.05 1.25l-6.42 5.34a.82.82 0 0 1-.62.19.82.82 0 0 1-.56-.33l-6.43-8.63-6-1.73-5.95 6.72a.83.83 0 0 1-1 .17l-6.1-3.4-6 7.82a.76.76 0 0 1-.56.31.84.84 0 0 1-.61-.18l-6-5-5.89 5a.85.85 0 0 1-.44.15zM499.15 402h-56.24a.82.82 0 0 1-.82-.81.82.82 0 0 1 .82-.82h56.24a.82.82 0 0 1 .82.82.82.82 0 0 1-.82.81zM486.71 430.06a7.85 7.85 0 1 1 8.17-7.84 8 8 0 0 1-8.17 7.84zm0-14.05a6.22 6.22 0 1 0 6.53 6.21 6.38 6.38 0 0 0-6.53-6.22zM529.88 379.92h-20.57a.82.82 0 0 1 0-1.64h20.57a.82.82 0 1 1 0 1.64zM529.88 387.86h-20.57a.82.82 0 0 1 0-1.64h20.57a.82.82 0 0 1 0 1.64zM529.88 395.8h-20.57a.82.82 0 0 1 0-1.63h20.57a.82.82 0 1 1 0 1.63zM529.88 403.75h-20.57a.82.82 0 0 1 0-1.64h20.57a.82.82 0 0 1 0 1.64zM529.88 411.69h-20.57a.82.82 0 0 1 0-1.64h20.57a.82.82 0 0 1 0 1.64zM529.88 419.63h-20.57a.82.82 0 0 1 0-1.63h20.57a.82.82 0 1 1 0 1.63zM529.88 427.58h-20.57a.82.82 0 0 1 0-1.64h20.57a.82.82 0 0 1 0 1.64zM529.88 435.52h-20.57a.82.82 0 0 1 0-1.64h20.57a.82.82 0 0 1 0 1.64zM529.88 443.46h-20.57a.82.82 0 0 1 0-1.63h20.57a.82.82 0 1 1 0 1.63z" fill="#32a7df"/><path d="M517.68 449.78a.82.82 0 0 1-.82-.81v-69.24a.82.82 0 1 1 1.64 0V449a.82.82 0 0 1-.82.78zM547.39 382.5h-17.51a.82.82 0 1 1 0-1.64h17.51a.82.82 0 0 1 0 1.64zM547.39 389.7h-17.51a.82.82 0 1 1 0-1.64h17.51a.82.82 0 0 1 0 1.64zM547.39 396.9h-17.51a.82.82 0 1 1 0-1.64h17.51a.82.82 0 0 1 0 1.64zM547.39 404.1h-17.51a.82.82 0 1 1 0-1.64h17.51a.82.82 0 0 1 0 1.64zM547.39 411.3h-17.51a.82.82 0 1 1 0-1.64h17.51a.82.82 0 0 1 0 1.64zM547.39 418.5h-17.51a.82.82 0 1 1 0-1.64h17.51a.82.82 0 0 1 0 1.64zM547.39 425.7h-17.51a.82.82 0 1 1 0-1.64h17.51a.82.82 0 0 1 0 1.64zM547.39 432.9h-17.51a.82.82 0 1 1 0-1.64h17.51a.82.82 0 0 1 0 1.64zM547.39 440.1h-17.51a.82.82 0 1 1 0-1.64h17.51a.82.82 0 0 1 0 1.64z" fill="#32a7df"/><path d="M538.63 447a.82.82 0 0 1-.82-.82v-63.93a.82.82 0 1 1 1.64 0v63.89a.82.82 0 0 1-.82.86zM324.82 459h-71.77a2.51 2.51 0 0 1-2.51-2.51V377a2.52 2.52 0 0 1 2.51-2.52h37.12a1.26 1.26 0 0 1 0 2.52h-37.12v79.56h71.77v-21.97a1.26 1.26 0 0 1 2.52 0v21.92a2.51 2.51 0 0 1-2.52 2.49z" fill="#32a7df"/><path d="M365.32 435.84h-69.68a6.74 6.74 0 0 1-6.73-6.73v-66.46a6.74 6.74 0 0 1 6.73-6.74h69.68a6.74 6.74 0 0 1 6.73 6.74v66.46a6.74 6.74 0 0 1-6.73 6.73zm-69.68-77.41a4.23 4.23 0 0 0-4.22 4.22v66.46a4.23 4.23 0 0 0 4.22 4.22h69.68a4.23 4.23 0 0 0 4.22-4.22v-66.46a4.23 4.23 0 0 0-4.22-4.22z" fill="#32a7df"/><path d="M360.29 439h-69.67a5.49 5.49 0 0 1-5.48-5.48v-66.47a5.49 5.49 0 0 1 5.48-5.48l-.45 67.54s-.42 5.57 5.47 5.48 70.13-.45 70.13-.45c0 3.01-2.47 4.86-5.48 4.86z" fill="#32a7df" opacity=".2"/><rect x="300.08" y="378.65" width="62.06" height="7.17" rx="1" fill="#32a7df" opacity=".2"/><rect x="300.08" y="403.95" width="62.06" height="7.17" rx="1" fill="#32a7df" opacity=".2"/><rect x="300.08" y="391.3" width="21.96" height="7.17" rx="1" fill="#32a7df" opacity=".2"/><rect x="325.67" y="391.3" width="36.48" height="7.17" rx="1" fill="#32a7df" opacity=".2"/><rect x="331.12" y="418.46" width="31.03" height="5.52" rx="1.84" fill="#32a7df"/><path d="M290.17 402.81h-25.61a3.34 3.34 0 0 1-3.33-3.33v-10.93a3.34 3.34 0 0 1 3.33-3.33h25.61a.81.81 0 0 1 .81.81.82.82 0 0 1-.81.82h-25.61a1.7 1.7 0 0 0-1.69 1.7v10.93a1.69 1.69 0 0 0 1.69 1.69h25.61a.82.82 0 0 1 0 1.64zM290.17 425.14h-25.61a3.34 3.34 0 0 1-3.33-3.33v-10.93a3.34 3.34 0 0 1 3.33-3.33h25.61a.82.82 0 0 1 0 1.63h-25.61a1.7 1.7 0 0 0-1.69 1.7v10.93a1.7 1.7 0 0 0 1.69 1.7h25.61a.82.82 0 0 1 0 1.63z" fill="#32a7df"/><path fill="#32a7df" d="M268.8 390.63l.89 1.81 2 .29-1.44 1.41.34 2-1.79-.94-1.8.94.35-2-1.45-1.41 2-.29.9-1.81zM268.8 413.59l.89 1.81 2 .29-1.44 1.42.34 1.99-1.79-.94-1.8.94.35-1.99-1.45-1.42 2-.29.9-1.81zM331.12 362.75l1.26 2.57 2.83.41-2.04 2 .48 2.81-2.53-1.33-2.54 1.33.49-2.81-2.05-2 2.83-.41 1.27-2.57zM290.43 446.59h-.28c-14.4-.32-18.94-15.35-19-15.5a.83.83 0 0 1 .56-1 .82.82 0 0 1 1 .55c.17.58 4.27 14 17.46 14.33h.23c13.09 0 22.06-24.63 22.15-24.88a.82.82 0 0 1 1.54.55c-.37 1.05-9.44 25.95-23.66 25.95z"/><path d="M269.67 438a.65.65 0 0 1-.27-.05.8.8 0 0 1-.49-1l2.27-6.29a.81.81 0 0 1 1.14-.44l6.46 3.34a.82.82 0 0 1-.75 1.45L272.4 432l-2 5.4a.82.82 0 0 1-.73.6z" fill="#32a7df"/><path d="M91.75 384.54l-3.27-9a6.3 6.3 0 0 1 3.76-8.06l22.45-8.17a6.27 6.27 0 0 1 8 3.76l6 16.54" fill="#fff"/><path d="M90.57 385l-3.27-9a7.54 7.54 0 0 1 4.51-9.67l22.45-8.17a7.54 7.54 0 0 1 9.66 4.51l6 16.53-2.36.86-6-16.53a5 5 0 0 0-6.44-3l-22.45 8.17a5 5 0 0 0-3 6.45l3.26 9z" fill="#33a9e0"/><path d="M124.05 379.65l6-16.54a6.27 6.27 0 0 1 8.05-3.76l22.45 8.17a6.3 6.3 0 0 1 3.76 8.06l-1.27 3.47" fill="#fff"/><path d="M125.23 380.07l-2.36-.86 6-16.53a7.53 7.53 0 0 1 9.66-4.51l22.47 8.17a7.54 7.54 0 0 1 4.51 9.67l-1.27 3.47-2.36-.86 1.26-3.47a5 5 0 0 0-3-6.45l-22.45-8.17a5 5 0 0 0-6.44 3z" fill="#33a9e0"/><path d="M100.63 378.81V360.2a6.29 6.29 0 0 1 6.29-6.29h40.23a6.29 6.29 0 0 1 6.28 6.29v18.61" fill="#fff"/><path d="M154.69 378.81h-2.51V360.2a5 5 0 0 0-5-5h-40.26a5 5 0 0 0-5 5v18.61h-2.54V360.2a7.55 7.55 0 0 1 7.54-7.54h40.23a7.55 7.55 0 0 1 7.54 7.54z" fill="#33a9e0"/><path d="M146.52 362.9h-37.71a.82.82 0 1 1 0-1.63h37.71a.82.82 0 1 1 0 1.63zM141.49 367.93h-32.68a.82.82 0 1 1 0-1.63h32.68a.82.82 0 1 1 0 1.63zM137.72 373h-12.57a.82.82 0 0 1 0-1.64h12.57a.82.82 0 1 1 0 1.64zM121.38 373h-12.57a.82.82 0 0 1 0-1.64h12.57a.82.82 0 0 1 0 1.64z" fill="#33a9e0"/><rect x="96.86" y="395.4" width="19.49" height="17.6" rx="1.26" fill="#32a7df" opacity=".2" style="isolation:isolate"/><path d="M169.15 378.81H83a1.29 1.29 0 0 0-1.25 1.38v51.16h88.65v-51.16a1.36 1.36 0 0 0-1.25-1.38zm-3.77 46.89c-.76.75-7.8 1.13-9.81 1.13-5.78-.13-25.52-.5-26-.5H119c-.63 0-29.92.62-30.8-.13s-1.51-3.27-1.38-4.4c0-.5-.51-34.57.12-35.2a8.85 8.85 0 0 1 5.66-2.14c.75-.12 1.63-.12 2.39-.25 7.79-.5 54.43-.5 61-.5 11.69.38 9.43 2.26 9.05 9.3-.42 8.8 1.34 31.68.34 32.69zM181 454.86L171 433a1.28 1.28 0 0 0-1.25-1.38H82.41a1.29 1.29 0 0 0-1.26 1.38l-9.3 21.87v4.9a1.29 1.29 0 0 0 1.25 1.39h106.61a1.29 1.29 0 0 0 1.25-1.39v-4.52h-.12c.16-.14.16-.14.16-.39zm-39.22-5.15l-.38.37a1.39 1.39 0 0 1-1.25.88h-.38a11.92 11.92 0 0 1-3.65.38 107.09 107.09 0 0 1-11.22-.34c-5.41 1-10.69 2-16-.12a1.52 1.52 0 0 1-1-1.64c.12-.5.37-1 .5-1.63a7.38 7.38 0 0 1 1.13-3.77 1.21 1.21 0 0 0 .13-.5 1.41 1.41 0 0 1 2.26-1 15.21 15.21 0 0 1 5-.5c4.65.12 9.17.63 13.83.37 2.51-.12 5.15-.62 7.41.26 3.2.7 5.97 4.22 3.58 7.24z" fill="#d6edf9"/><rect x="121.87" y="395.84" width="33.94" height="7.17" rx="1.26" fill="#32a7df" opacity=".2" style="isolation:isolate"/><rect x="121.87" y="405.9" width="33.94" height="7.17" rx="1.26" fill="#32a7df" opacity=".2" style="isolation:isolate"/><path d="M179.71 462.28H73.1a2.55 2.55 0 0 1-2.51-2.64V455h2.51v4.65a.21.21 0 0 0 0 .13h106.6v-4.65h2.51v4.53a2.55 2.55 0 0 1-2.5 2.62zm-96.55-30.8h-2.51v-51.29a2.55 2.55 0 0 1 2.51-2.64h86.11a2.55 2.55 0 0 1 2.52 2.64v51.16h-2.52v-51.16a.32.32 0 0 0 0-.13h-86.1v.13z" fill="#33a9e0"/><path d="M179.71 457.5H73.1a2.55 2.55 0 0 1-2.51-2.64v-.25l9.32-21.91a2.53 2.53 0 0 1 2.5-2.35h87.37a2.55 2.55 0 0 1 2.5 2.33l9.94 21.91v.27a2.61 2.61 0 0 1-2.51 2.64zm-97.29-24.64a1.09 1.09 0 0 0 0 .13v.25L73.16 455h106.48l-9.86-21.73V433v-.13zm80.19-5.4h-73a3.91 3.91 0 0 1-3.9-3.9v-36.71a3.91 3.91 0 0 1 3.9-3.9h73a3.91 3.91 0 0 1 3.9 3.9v36.58a3.68 3.68 0 0 1-1 2.75 4 4 0 0 1-2.9 1.28zm-73-42a1.39 1.39 0 0 0-1.38 1.38v36.71a1.39 1.39 0 0 0 1.38 1.38h73a1.42 1.42 0 0 0 1-.46 1.2 1.2 0 0 0 .34-.94v-36.68a1.39 1.39 0 0 0-1.38-1.38z" fill="#33a9e0"/><path d="M141.62 452.85h-33.07c-1.24 0-2.26-1.3-2.26-2.89v-.3l1.6-6.53a2.59 2.59 0 0 1 2.26-2.72h29.92a2.6 2.6 0 0 1 2.26 2.72l1.67 6.77v.24c-.29 2-1.42 2.71-2.38 2.71zm-32.74-2.51h32.48a2.08 2.08 0 0 0 .1-.34l-1.6-6.7a1.17 1.17 0 0 0-.07-.38h-29.28a1 1 0 0 0-.07.38v.3l-1.59 6.48a.89.89 0 0 0 .03.26zM179.19 394.22a.81.81 0 0 1-.21-1.6c9-2.42 11.55-9.33 10.1-14.73-1.52-5.66-7.6-10.56-17.38-7.94a.81.81 0 0 1-.43-1.57c10.87-2.92 17.67 2.67 19.39 9.09 1.65 6.16-1.17 14-11.25 16.73z" fill="#33a9e0"/><path d="M184.07 397.31a.72.72 0 0 1-.35-.08l-6-2.89a.83.83 0 0 1-.35-1.17l3.66-6a.82.82 0 0 1 1.4.85l-3.19 5.21 5.22 2.51a.81.81 0 0 1-.35 1.55z" fill="#32a7df"/><rect x="617.14" y="407.67" width="72.52" height="14.28" rx="1" fill="#32a7df" opacity=".2"/><path d="M650.21 381.17h-33.07a.82.82 0 0 1 0-1.64h33.07a.82.82 0 0 1 0 1.64zM629.44 388.1h-12.3a.82.82 0 1 1 0-1.64h12.3a.82.82 0 1 1 0 1.64zM659.17 402h-42a.82.82 0 0 1-.82-.82.81.81 0 0 1 .82-.81h42a.81.81 0 0 1 .81.81.82.82 0 0 1-.81.82zM645.74 395h-28.6a.82.82 0 1 1 0-1.63h28.6a.82.82 0 1 1 0 1.63z" fill="#32a7df"/><path d="M706.4 432h-94.55a3.77 3.77 0 0 1-3.77-3.77v-66a3.77 3.77 0 0 1 3.77-3.77h94.55a3.77 3.77 0 0 1 3.77 3.77v66a3.77 3.77 0 0 1-3.77 3.77zm-94.55-71.06a1.26 1.26 0 0 0-1.26 1.26v66a1.26 1.26 0 0 0 1.26 1.25h94.55a1.26 1.26 0 0 0 1.26-1.25v-66a1.26 1.26 0 0 0-1.26-1.26z" fill="#32a7df"/><path d="M708.91 369.55v-7.37a2.52 2.52 0 0 0-2.51-2.52h-94.55a2.52 2.52 0 0 0-2.51 2.52v7.37z" fill="#32a7df" opacity=".2" style="isolation:isolate"/><path d="M708.91 371h-99.57a1.26 1.26 0 1 1 0-2.51h99.57a1.26 1.26 0 1 1 0 2.51z" fill="#32a7df"/><circle cx="615.06" cy="364.64" r="2.12" fill="#32a7df"/><circle cx="621.01" cy="364.64" r="2.12" fill="#32a7df"/><circle cx="627.09" cy="364.64" r="2.12" fill="#32a7df"/><rect x="633.88" y="388.63" width="53.58" height="66.65" rx="4" fill="#fff"/><path d="M682.43 388.63h-43.52a5 5 0 0 0-5 5v56.59a5 5 0 0 0 5 5h43.52a5 5 0 0 0 5-5v-56.57a5 5 0 0 0-5-5.02zm-.94 53.82a1.26 1.26 0 0 1-1.26 1.25h-38.37a1.26 1.26 0 0 1-1.26-1.25V397a1.27 1.27 0 0 1 1.26-1.26h38.37a1.27 1.27 0 0 1 1.26 1.26z" fill="#32a7df" opacity=".2" style="isolation:isolate"/><path d="M682.43 456.53h-43.52a6.29 6.29 0 0 1-6.29-6.29v-56.59a6.29 6.29 0 0 1 6.29-6.28h43.52a6.29 6.29 0 0 1 6.29 6.28v56.59a6.29 6.29 0 0 1-6.29 6.29zm-43.52-66.65a3.77 3.77 0 0 0-3.77 3.77v56.59a3.78 3.78 0 0 0 3.77 3.78h43.52a3.78 3.78 0 0 0 3.77-3.78v-56.59a3.77 3.77 0 0 0-3.77-3.77z" fill="#32a7df"/><path d="M680.23 445h-38.37a2.52 2.52 0 0 1-2.52-2.51V397a2.52 2.52 0 0 1 2.52-2.51h38.37a2.52 2.52 0 0 1 2.51 2.51v45.47a2.52 2.52 0 0 1-2.51 2.53zm0-2.51zM641.86 397v45.47h38.36V397z" fill="#32a7df"/><circle cx="662.02" cy="449.36" r="2.12" fill="#32a7df"/><rect x="646.69" y="401.01" width="27.95" height="24.08" rx="1" fill="#32a7df" opacity=".2"/><rect x="646.69" y="429.73" width="27.95" height="8.33" rx="1" fill="#32a7df" opacity=".2"/><rect x="698.43" y="398.52" width="29.73" height="50.55" rx="2.34" fill="#fff"/><path d="M725.21 450.33h-23.84a4.21 4.21 0 0 1-4.2-4.2v-44.67a4.21 4.21 0 0 1 4.2-4.2h23.84a4.2 4.2 0 0 1 4.2 4.2v44.67a4.21 4.21 0 0 1-4.2 4.2zm-23.84-50.56a1.69 1.69 0 0 0-1.68 1.69v44.67a1.68 1.68 0 0 0 1.68 1.68h23.84a1.69 1.69 0 0 0 1.69-1.68v-44.67a1.69 1.69 0 0 0-1.69-1.69z" fill="#32a7df"/><path fill="#32a7df" d="M702.64 403.25h21.3v41.51h-21.3z" opacity=".2"/><path d="M723.94 446h-21.3a1.27 1.27 0 0 1-1.26-1.26v-41.49a1.26 1.26 0 0 1 1.26-1.25h21.3a1.25 1.25 0 0 1 1.26 1.25v41.51a1.26 1.26 0 0 1-1.26 1.24zm-20-2.52h18.78v-39H703.9z" fill="#32a7df"/></svg>