<svg xmlns="http://www.w3.org/2000/svg" width="2000" height="1000" viewBox="0 0 2000 1000"><g id="bg"><rect x="939.35" y="456.07" width="120.26" height="8.89" fill="#e8e8d1" stroke="#411f19" stroke-width="0.2"/><circle cx="944.11" cy="462.79" r="0.92" fill="#d95e47" stroke="#411f19" stroke-width="0.2"/><circle cx="946.66" cy="462.79" r="0.92" fill="#e5ba21" stroke="#411f19" stroke-width="0.2"/><circle cx="949.21" cy="462.79" r="0.92" fill="#7dc0a1" stroke="#411f19" stroke-width="0.2"/><path d="M884.47,429V570.22h231V429Zm174,108.18a2,2,0,0,1-2,2h-113a2,2,0,0,1-2-2v-75a2,2,0,0,1,2-2h113a2,2,0,0,1,2,2Z" fill="#d95e47"/><rect x="941.52" y="460.23" width="116.95" height="78.97" rx="1.99" fill="none" stroke="#411f19" stroke-linejoin="round" stroke-width="0.2"/><rect x="886.79" y="431.78" width="226.42" height="4.34" fill="#e5a59c" stroke="#411f19" stroke-width="0.2"/><path d="M1059.06,463.36h-.58v74.13a2,2,0,0,1-2,2H944.11v.85a2,2,0,0,0,2,2h113a2,2,0,0,0,2-2v-75A2,2,0,0,0,1059.06,463.36Z" fill="#411f19" opacity="0.2"/><rect x="972.05" y="556.38" width="55.9" height="11.27" fill="#e5a59c" stroke="#411f19" stroke-width="0.2"/><rect x="995.05" y="553.47" width="11.7" height="11.7" fill="#411f19" opacity="0.2"/><rect x="1009.54" y="553.47" width="11.7" height="11.7" rx="0.81" fill="#411f19" opacity="0.2"/><rect x="980.43" y="553.47" width="11.7" height="11.7" rx="0.81" fill="#411f19" opacity="0.2"/><polygon points="1099.14 458.21 1096.9 460.87 1096.9 468.07 1105.79 468.07 1105.79 458.21 1099.14 458.21" fill="#411f19" opacity="0.3"/><path d="M2030.14-32.82H-44.2V825.37H2030.53Zm-913.45,603H885V430.63h231.66Z" fill="#e8e8d1"/><rect x="-43.7" y="579.98" width="2074.53" height="475.36" fill="#411f19" opacity="0.2"/><rect x="895.29" y="571.72" width="210.15" height="9.22" fill="#411f19" opacity="0.08"/><rect x="-44.2" y="581" width="2074.53" height="475.36" fill="#fff" stroke="#411f19" stroke-linejoin="round" stroke-width="0.2"/><polygon points="1193.35 526.97 1136.4 526.97 1136.4 458.28 1192 458.28 1193.35 526.97" fill="#411f19" opacity="0.2"/><g opacity="0.8"><path d="M1186.25,515.29v0a5.48,5.48,0,0,1,11,0v0a5.48,5.48,0,0,1-11,0Zm8.59,0v0a3.13,3.13,0,0,0-3.12-3.24,3.08,3.08,0,0,0-3.1,3.21v0a3.13,3.13,0,0,0,3.12,3.24A3.08,3.08,0,0,0,1194.84,515.29Z" fill="#411f19"/><path d="M1199.22,510.11h2.44l2.71,4.36,2.71-4.36h2.45v10.31h-2.26v-6.73l-2.9,4.4h-.06l-2.87-4.36v6.69h-2.22Z" fill="#411f19"/><path d="M1212,510.11h7.77v2h-5.52v2.09h4.86v2h-4.86v2.17h5.59v2H1212Z" fill="#411f19"/></g><rect x="947.22" y="380.86" width="105.56" height="30.82" fill="#411f19"/><rect x="949.75" y="383.23" width="100.5" height="30.82" fill="#411f19" opacity="0.2"/><path d="M854.94,521.14s-32.42,1.8-47.38,1.8-43.37-1.68-43.37-1.68V491.89h90.75Z" fill="#411f19" opacity="0.2"/><rect x="1047.18" y="375.43" width="4.31" height="8.17" transform="translate(251.89 -401.01) rotate(24.5)" fill="#e8e8d1" stroke="#411f19" stroke-width="0.2"/><rect x="945.07" y="376.92" width="4.31" height="8.17" transform="translate(-58.8 206.87) rotate(-12.09)" fill="#e8e8d1" stroke="#411f19" stroke-width="0.2"/><path d="M969.57,389.14h-2.13v-1.42h5.8v1.42h-2.13v5.58h-1.54Z" fill="#e5ba21"/><path d="M974.42,387.72H976v2.77h2.84v-2.77h1.54v7H978.8v-2.81H976v2.81h-1.54Z" fill="#e5ba21"/><path d="M984.42,387.67h1.42l3,7.05h-1.61l-.64-1.57h-3l-.64,1.57h-1.57Zm1.62,4.12-.93-2.27-.93,2.27Z" fill="#e5ba21"/><path d="M989.92,387.72h1.42l3.28,4.31v-4.31h1.52v7h-1.31l-3.39-4.45v4.45h-1.52Z" fill="#e5ba21"/><path d="M997.82,387.72h1.54v3.06l2.84-3.06h1.86l-2.85,3,3,4h-1.85l-2.17-3-.81.84v2.14h-1.54Z" fill="#e5ba21"/><path d="M1010.09,392l-2.69-4.24h1.8l1.67,2.81,1.7-2.81h1.75l-2.69,4.21v2.79h-1.54Z" fill="#e5ba21"/><path d="M1014.37,391.24v0a3.72,3.72,0,0,1,7.44,0v0a3.72,3.72,0,0,1-7.44,0Zm5.83,0v0a2.13,2.13,0,0,0-2.12-2.2,2.09,2.09,0,0,0-2.1,2.18v0a2.13,2.13,0,0,0,2.12,2.2A2.09,2.09,0,0,0,1020.2,391.24Z" fill="#e5ba21"/><path d="M1023.07,391.72v-4h1.54v4c0,1.14.57,1.73,1.51,1.73s1.51-.57,1.51-1.68v-4h1.54v3.95a2.82,2.82,0,0,1-3.07,3.16A2.78,2.78,0,0,1,1023.07,391.72Z" fill="#e5ba21"/><path d="M965.09,397.72h5.33v1.4h-3.79v1.49H970V402h-3.34v2.71h-1.54Z" fill="#e5ba21"/><path d="M971.34,401.24v0a3.72,3.72,0,0,1,7.44,0v0a3.72,3.72,0,0,1-7.44,0Zm5.83,0v0a2.13,2.13,0,0,0-2.12-2.2,2.09,2.09,0,0,0-2.1,2.18v0a2.13,2.13,0,0,0,2.12,2.2A2.09,2.09,0,0,0,977.17,401.24Z" fill="#e5ba21"/><path d="M980.15,397.72h3.2a2.79,2.79,0,0,1,2,.71,2.2,2.2,0,0,1,.6,1.6v0a2.17,2.17,0,0,1-1.5,2.17l1.71,2.5h-1.8l-1.5-2.24h-1.21v2.24h-1.54Zm3.1,3.4c.75,0,1.18-.4,1.18-1v0c0-.66-.46-1-1.21-1h-1.53v2Z" fill="#e5ba21"/><path d="M989.79,397.72h1.69l1.83,4.93,1.83-4.93h1.66l-2.83,7h-1.36Z" fill="#e5ba21"/><path d="M998,397.72h1.54v7H998Z" fill="#e5ba21"/><path d="M1000.76,403.7l.91-1.09a3.21,3.21,0,0,0,2.09.85c.63,0,1-.25,1-.66v0c0-.39-.24-.59-1.41-.89-1.41-.36-2.32-.75-2.32-2.14v0a2.19,2.19,0,0,1,2.45-2.11,4.05,4.05,0,0,1,2.6.89l-.8,1.16a3.28,3.28,0,0,0-1.82-.69c-.59,0-.9.27-.9.61v0c0,.46.3.61,1.51.92,1.42.37,2.22.88,2.22,2.1v0c0,1.39-1.06,2.17-2.57,2.17A4.45,4.45,0,0,1,1000.76,403.7Z" fill="#e5ba21"/><path d="M1007.71,397.72h1.54v7h-1.54Z" fill="#e5ba21"/><path d="M1012.63,399.14h-2.13v-1.42h5.8v1.42h-2.13v5.58h-1.54Z" fill="#e5ba21"/><path d="M1017.55,397.72h1.54v7h-1.54Z" fill="#e5ba21"/><path d="M1020.84,397.72h1.42l3.28,4.31v-4.31h1.52v7h-1.31l-3.39-4.45v4.45h-1.52Z" fill="#e5ba21"/><path d="M1028.43,401.24v0a3.59,3.59,0,0,1,3.67-3.62,3.84,3.84,0,0,1,2.75,1l-1,1.17a2.58,2.58,0,0,0-1.83-.71,2.1,2.1,0,0,0-2,2.18v0a2.1,2.1,0,0,0,2.12,2.22,2.46,2.46,0,0,0,1.45-.42v-1h-1.55v-1.33h3v3a4.54,4.54,0,0,1-3,1.11A3.5,3.5,0,0,1,1028.43,401.24Z" fill="#e5ba21"/><rect x="758.93" y="408.42" width="99.66" height="112.53" fill="#fff" stroke="#411f19" stroke-linejoin="round" stroke-width="0.2"/><rect x="759.29" y="404.81" width="4.31" height="11.64" transform="translate(600.71 -439.42) rotate(50.96)" fill="#e8e8d1" stroke="#411f19" stroke-width="0.2"/><rect x="852.99" y="402.26" width="4.31" height="14.91" transform="translate(1637.55 -126.01) rotate(120)" fill="#e8e8d1" stroke="#411f19" stroke-width="0.2"/><rect x="855.55" y="515.13" width="4.31" height="11.64" transform="translate(993.38 1515.25) rotate(-129.04)" fill="#e8e8d1" stroke="#411f19" stroke-width="0.2"/><rect x="760.13" y="512.89" width="4.31" height="13.03" transform="translate(-68.67 919.86) rotate(-60)" fill="#e8e8d1" stroke="#411f19" stroke-width="0.2"/><rect x="1134.65" y="456.27" width="56.95" height="68.69" fill="#fff" stroke="#411f19" stroke-linejoin="round" stroke-width="0.2"/><rect x="1136.71" y="452.19" width="4.31" height="8.17" transform="translate(-70.31 248.69) rotate(-12.09)" fill="#e8e8d1" stroke="#411f19" stroke-width="0.2"/><rect x="1184.84" y="451.28" width="4.31" height="8.17" transform="translate(41.16 -95.43) rotate(4.69)" fill="#e8e8d1" stroke="#411f19" stroke-width="0.2"/><path d="M1139.28,484.38v0a5.24,5.24,0,0,1,5.37-5.33,5.31,5.31,0,0,1,4.07,1.59l-1.45,1.66a3.79,3.79,0,0,0-2.63-1.16,3.05,3.05,0,0,0-3,3.21v0a3.06,3.06,0,0,0,3,3.24,3.76,3.76,0,0,0,2.71-1.21l1.44,1.46a5.28,5.28,0,0,1-4.23,1.84A5.2,5.2,0,0,1,1139.28,484.38Z" fill="#411f19"/><path d="M1149.89,488l1.34-1.61a4.71,4.71,0,0,0,3.08,1.25c.92,0,1.48-.36,1.48-1v0c0-.57-.35-.87-2.07-1.31-2.08-.53-3.42-1.1-3.42-3.15v0c0-1.87,1.5-3.11,3.61-3.11a6,6,0,0,1,3.83,1.32l-1.18,1.7a4.84,4.84,0,0,0-2.68-1c-.87,0-1.33.4-1.33.9v0c0,.67.45.89,2.23,1.35,2.09.54,3.27,1.3,3.27,3.09v0c0,2.05-1.56,3.2-3.79,3.2A6.58,6.58,0,0,1,1149.89,488Z" fill="#411f19"/><path d="M1159.16,488l1.34-1.61a4.71,4.71,0,0,0,3.08,1.25c.93,0,1.49-.36,1.49-1v0c0-.57-.36-.87-2.08-1.31-2.08-.53-3.42-1.1-3.42-3.15v0c0-1.87,1.51-3.11,3.61-3.11a6,6,0,0,1,3.83,1.32l-1.18,1.7a4.84,4.84,0,0,0-2.68-1c-.87,0-1.32.4-1.32.9v0c0,.67.44.89,2.22,1.35,2.09.54,3.27,1.3,3.27,3.09v0c0,2.05-1.56,3.2-3.78,3.2A6.59,6.59,0,0,1,1159.16,488Z" fill="#411f19"/><path d="M1139.84,493.91h2.26v10.31h-2.26Z" fill="#411f19"/><path d="M1144,502.72l1.34-1.61a4.71,4.71,0,0,0,3.08,1.25c.93,0,1.49-.37,1.49-1v0c0-.57-.36-.87-2.08-1.31-2.08-.53-3.42-1.1-3.42-3.15v0c0-1.87,1.51-3.11,3.61-3.11a6,6,0,0,1,3.83,1.31l-1.18,1.71a4.84,4.84,0,0,0-2.68-1c-.87,0-1.32.39-1.32.89v0c0,.68.44.9,2.22,1.36,2.09.54,3.27,1.29,3.27,3.09v0c0,2.05-1.56,3.2-3.79,3.2A6.58,6.58,0,0,1,1144,502.72Z" fill="#411f19"/><path d="M1143.27,508.56h2.09l4.42,10.38h-2.38l-.94-2.31h-4.36l-.94,2.31h-2.31Zm2.38,6.06-1.37-3.34-1.37,3.34Z" fill="#411f19"/><path d="M1149.24,508.63h2.43l2.14,7,2.31-7h1.94l2.31,7,2.14-7h2.37L1161.36,519h-2l-2.33-6.74-2.33,6.74h-2Z" fill="#411f19"/><path d="M1166.55,508.63h7.78v2h-5.53v2.09h4.86v2h-4.86v2.16h5.6v2h-7.85Z" fill="#411f19"/><path d="M1175.71,517.44l1.34-1.61a4.69,4.69,0,0,0,3.07,1.25c.93,0,1.49-.37,1.49-1v0c0-.57-.35-.87-2.08-1.31-2.07-.53-3.41-1.1-3.41-3.15v0c0-1.87,1.5-3.11,3.61-3.11a5.93,5.93,0,0,1,3.82,1.31l-1.17,1.71a4.87,4.87,0,0,0-2.68-1c-.87,0-1.33.39-1.33.89v0c0,.68.44.9,2.22,1.36,2.1.54,3.27,1.29,3.27,3.09v0c0,2.05-1.56,3.19-3.78,3.19A6.55,6.55,0,0,1,1175.71,517.44Z" fill="#411f19"/><path d="M1191.6,516.94a3.47,3.47,0,0,1-.73.08,3.13,3.13,0,0,1-3.12-3.24v0a3.07,3.07,0,0,1,3.85-3.11v-2.12a5.82,5.82,0,0,0-.73-.07,5.33,5.33,0,0,0-5.49,5.33v0a5.28,5.28,0,0,0,5.46,5.3,6.31,6.31,0,0,0,.76-.07Z" fill="#411f19"/><polygon points="974.4 584.29 969.95 598.99 1030.05 598.99 1025.6 584.29 974.4 584.29" fill="#adaca1" stroke="#411f19" stroke-linejoin="round" stroke-width="0.2"/><polygon points="894.56 580.94 882.35 590.32 1117.65 590.32 1105.44 580.94 894.56 580.94" fill="#411f19" opacity="0.2"/><polygon points="1027.92 580.95 972.44 580.95 969.25 590.32 1031.15 590.32 1027.92 580.95" fill="#411f19" opacity="0.1"/><path d="M1006.52,592.28s-2,1.38-6.58,1.38-6.46-1.38-6.46-1.38V569.7h13Z" fill="#adaca1" stroke="#411f19" stroke-linejoin="round" stroke-width="0.2"/><path d="M1006.46,575.57a26.49,26.49,0,0,1-6.57.57,24.88,24.88,0,0,1-6.46-.57l.05-6.64h13Z" fill="#411f19" opacity="0.2"/><path d="M1117.65,427.71H882.35v144h235.3Zm-4.44,4.07V567.65H886.79V431.78Z" fill="#686652" stroke="#411f19" stroke-linejoin="round" stroke-width="0.2"/><rect x="969.95" y="598.99" width="60.11" height="1.91" fill="#9b9989" stroke="#411f19" stroke-linejoin="round" stroke-width="0.2"/><path d="M1105.45,445l-9.81,7.13a.76.76,0,0,0,.76.76h9a.77.77,0,0,0,.77-.76v-6.36A.78.78,0,0,0,1105.45,445Z" fill="#411f19" opacity="0.3"/><path d="M1104.81,444.29h-5.08v-.21a.76.76,0,0,0-.76-.76h-3.21a.76.76,0,0,0-.76.76v7.34a.76.76,0,0,0,.76.76h9a.76.76,0,0,0,.76-.76v-6.36A.77.77,0,0,0,1104.81,444.29Z" fill="#d1e5e5" stroke="#411f19" stroke-linejoin="round" stroke-width="0.2"/><polygon points="827.79 459.2 827.79 455.79 820.9 455.79 820.9 452.41 806.93 452.41 806.93 442.24 803.46 442.24 803.46 438.85 796.58 438.85 796.58 442.24 793.19 442.24 793.19 462.62 789.61 462.62 789.61 459.25 782.8 459.25 782.8 462.63 779.41 462.63 779.41 469.72 782.8 469.72 782.8 473.11 786.42 473.11 786.42 480.28 789.8 480.28 789.8 483.66 793.19 483.66 793.19 487.05 796.58 487.05 796.58 490.44 796.56 490.44 796.56 493.82 813.9 493.82 813.9 490.44 817.46 490.44 817.46 493.82 824.4 493.82 824.4 483.24 827.79 483.24 827.79 476.76 831.17 476.76 831.17 459.2 827.79 459.2" fill="#e5ba21"/><polygon points="799.95 459.25 799.95 438.85 806.96 438.85 806.96 452.41 831.17 452.41 831.17 473.37 827.79 473.37 827.79 479.85 824.4 479.85 824.4 487.05 803.35 487.05 803.35 483.66 799.96 483.66 799.96 480.28 796.58 480.28 796.58 476.89 793.19 476.89 793.19 469.72 789.8 469.72 789.8 466.33 786.18 466.33 786.18 459.25 799.95 459.25" fill="#e8e8d1"/><rect x="821.01" y="466.34" width="3.39" height="13.52" fill="#e8e8d1"/><polygon points="810.32 452.41 817.28 452.41 817.28 459.23 820.67 459.23 820.67 452.41 824.28 452.41 824.28 449.02 810.32 449.02 810.32 438.85 806.93 438.85 806.93 459.23 810.32 459.23 810.32 452.41" fill="#e8e8d1"/><rect x="831.17" y="455.82" width="3.39" height="17.55" fill="#e8e8d1"/><polygon points="824.4 487.05 820.84 487.05 820.84 490.44 827.79 490.44 827.79 479.85 824.4 479.85 824.4 487.05" fill="#e8e8d1"/><rect x="827.79" y="473.37" width="3.39" height="6.48" fill="#e8e8d1"/><rect x="817.29" y="483.66" width="3.56" height="3.39" fill="#e8e8d1"/><polygon points="803.35 483.66 799.96 483.66 799.96 487.05 799.95 487.05 799.95 490.44 817.28 490.44 817.28 487.05 803.35 487.05 803.35 483.66" fill="#e8e8d1"/><rect x="796.58" y="480.28" width="3.39" height="3.39" fill="#e8e8d1"/><rect x="793.19" y="476.89" width="3.39" height="3.39" fill="#e8e8d1"/><rect x="789.8" y="469.72" width="3.39" height="7.17" fill="#e8e8d1"/><rect x="782.8" y="459.25" width="3.39" height="7.09" fill="#e8e8d1"/><polygon points="827.67 459.23 827.67 455.79 831.17 455.79 831.17 452.41 824.28 452.41 824.28 459.23 827.67 459.23" fill="#e8e8d1"/><rect x="799.96" y="435.46" width="6.88" height="3.39" fill="#e8e8d1"/><polygon points="793 462.62 796.58 462.62 796.58 466.33 799.96 466.33 799.96 438.85 796.58 438.85 796.58 459.23 793 459.23 793 455.86 786.18 455.86 786.18 459.25 793 459.25 793 462.62" fill="#e8e8d1"/><rect x="786.18" y="466.34" width="3.62" height="3.39" fill="#e8e8d1"/><rect x="806.96" y="466.34" width="3.39" height="13.52" fill="#e8e8d1"/><rect x="813.93" y="466.34" width="3.39" height="13.52" fill="#e8e8d1"/><rect x="821.01" y="466.34" width="3.39" height="13.52" fill="#411f19"/><polygon points="810.32 452.41 817.28 452.41 817.28 459.23 820.67 459.23 820.67 452.41 824.28 452.41 824.28 449.02 810.32 449.02 810.32 438.85 806.93 438.85 806.93 459.23 810.32 459.23 810.32 452.41" fill="#411f19"/><rect x="831.17" y="455.82" width="3.39" height="17.55" fill="#411f19"/><polygon points="824.4 487.05 820.84 487.05 820.84 490.44 827.79 490.44 827.79 479.85 824.4 479.85 824.4 487.05" fill="#411f19"/><rect x="827.79" y="473.37" width="3.39" height="6.48" fill="#411f19"/><rect x="817.29" y="483.66" width="3.56" height="3.39" fill="#411f19"/><polygon points="803.35 483.66 799.96 483.66 799.96 487.05 799.95 487.05 799.95 490.44 817.28 490.44 817.28 487.05 803.35 487.05 803.35 483.66" fill="#411f19"/><rect x="796.58" y="480.28" width="3.39" height="3.39" fill="#411f19"/><rect x="793.19" y="476.89" width="3.39" height="3.39" fill="#411f19"/><rect x="789.8" y="469.72" width="3.39" height="7.17" fill="#411f19"/><rect x="782.8" y="459.25" width="3.39" height="7.09" fill="#411f19"/><polygon points="827.67 459.23 827.67 455.79 831.17 455.79 831.17 452.41 824.28 452.41 824.28 459.23 827.67 459.23" fill="#411f19"/><rect x="799.96" y="435.46" width="6.88" height="3.39" fill="#411f19"/><polygon points="793 462.62 796.58 462.62 796.58 466.33 799.96 466.33 799.96 438.85 796.58 438.85 796.58 459.23 793 459.23 793 455.86 786.18 455.86 786.18 459.25 793 459.25 793 462.62" fill="#411f19"/><rect x="786.18" y="466.34" width="3.62" height="3.39" fill="#411f19"/><rect x="806.96" y="466.34" width="3.39" height="13.52" fill="#411f19"/><rect x="813.93" y="466.34" width="3.39" height="13.52" fill="#411f19"/></g><g id="terminal"><rect x="1057.94" y="510.9" width="51.43" height="52.93" rx="1.68" fill="#411f19" opacity="0.2"/><rect x="1055.59" y="509.08" width="51.43" height="52.93" rx="1.68" fill="#411f19" stroke="#411f19" stroke-linejoin="round" stroke-width="0.2"/><path d="M1107,513.7v-2.94a1.69,1.69,0,0,0-1.68-1.68h-48.08a1.69,1.69,0,0,0-1.68,1.68v2.94Z" fill="#e8e8d1" stroke="#411f19" stroke-width="0.2"/><circle cx="1058.51" cy="511.4" r="0.92" fill="#d95e47" stroke="#411f19" stroke-width="0.2"/><circle cx="1061.06" cy="511.4" r="0.92" fill="#e5ba21" stroke="#411f19" stroke-width="0.2"/><circle cx="1063.61" cy="511.4" r="0.92" fill="#7dc0a1" stroke="#411f19" stroke-width="0.2"/><polygon points="1081.09 518.57 1068.37 518.57 1068.37 516.41 1081.09 516.41 1082.58 517.49 1081.09 518.57" fill="#e5ba21"/><polygon points="1070.3 518.57 1057.59 518.57 1057.59 516.41 1070.3 516.41 1071.79 517.49 1070.3 518.57" fill="#d95e47"/><rect id="cursor" x="1057.59" y="519.94" width="1.42" height="2.63" fill="#7dc0a1"/></g><g id="terminal-icon"><rect x="1008.69" y="552.56" width="11.7" height="11.7" rx="0.81" fill="#411f19" stroke="#411f19" stroke-linejoin="round" stroke-width="0.2"/><path d="M1011.55,556.16a.37.37,0,0,0-.13-.29,1,1,0,0,0-.4-.21l-.31-.12a1.46,1.46,0,0,1-.24-.17.91.91,0,0,1-.15-.23.84.84,0,0,1-.05-.29.64.64,0,0,1,.05-.28.61.61,0,0,1,.13-.22.8.8,0,0,1,.21-.15,1.07,1.07,0,0,1,.27-.08v-.41h.28v.41a.69.69,0,0,1,.48.27.89.89,0,0,1,.18.59h-.34a.85.85,0,0,0,0-.23.68.68,0,0,0-.09-.17.35.35,0,0,0-.15-.12.38.38,0,0,0-.19-.05.44.44,0,0,0-.34.12.42.42,0,0,0-.12.32.41.41,0,0,0,0,.16.38.38,0,0,0,.09.13.71.71,0,0,0,.17.11,1.33,1.33,0,0,0,.24.1l.32.13a.81.81,0,0,1,.23.17.48.48,0,0,1,.15.22.78.78,0,0,1,0,.28.84.84,0,0,1,0,.29.55.55,0,0,1-.14.22.7.7,0,0,1-.23.15,1,1,0,0,1-.29.07v.36h-.28v-.35a1.28,1.28,0,0,1-.28-.07.73.73,0,0,1-.4-.4,1,1,0,0,1-.06-.36h.35a.68.68,0,0,0,0,.26.4.4,0,0,0,.12.16.56.56,0,0,0,.17.09.58.58,0,0,0,.19,0,.66.66,0,0,0,.21,0,.34.34,0,0,0,.17-.08.36.36,0,0,0,.1-.14A.48.48,0,0,0,1011.55,556.16Z" fill="#7dc0a1"/><rect x="1012.55" y="553.71" width="1.77" height="3.52" fill="#7dc0a1" opacity="0.5"/></g><g id="player"><rect x="894.83" y="443.67" width="43.19" height="18.23" rx="1.68" fill="#411f19" opacity="0.2"/><rect x="892.56" y="441.76" width="43.19" height="18.23" rx="1.68" fill="#411f19" stroke="#411f19" stroke-linejoin="round" stroke-width="0.2"/><line x1="932.7" y1="443.16" x2="934.29" y2="444.76" fill="none" stroke="#e8e8d1" stroke-width="0.2"/><line x1="934.29" y1="443.16" x2="932.7" y2="444.76" fill="none" stroke="#e8e8d1" stroke-width="0.2"/><rect x="895.56" y="444.73" width="11.84" height="11.84" fill="#7dc0a1"/><rect x="909.76" y="454.37" width="23.74" height="0.49" fill="#e8e8d1"/><rect x="909.76" y="454.37" width="13.57" height="0.49" fill="#7dc0a1"/><polygon points="926.7 447.57 926.7 449.26 927.77 448.42 926.7 447.57" fill="#e8e8d1"/><rect x="927.72" y="447.66" width="0.19" height="1.51" fill="#e8e8d1"/><polygon points="916.96 447.57 916.96 449.26 915.89 448.42 916.96 447.57" fill="#e8e8d1"/><rect x="915.76" y="447.66" width="0.19" height="1.51" transform="translate(1831.7 896.83) rotate(-180)" fill="#e8e8d1"/><circle cx="921.83" cy="448.42" r="2.47" fill="#e8e8d1"/><polygon points="921.42 447.34 921.42 449.49 922.79 448.42 921.42 447.34" fill="#411f19"/><circle cx="900.19" cy="446.76" r="0.23" fill="#a4f27d" stroke="#411f19" stroke-linejoin="round" stroke-width="0.1"/><rect x="900.06" y="446.6" width="1.2" height="1.15" rx="0.38" transform="translate(580 -505.89) rotate(45)" fill="#e7d9b2" stroke="#411f19" stroke-linejoin="round" stroke-width="0.1"/><circle cx="900.96" cy="447.41" r="0.23" fill="#a4f27d" stroke="#411f19" stroke-linejoin="round" stroke-width="0.1"/><path d="M899.31,447.15s.34-.56,0-.56S898.94,447,899.31,447.15Z" fill="#d37134" stroke="#411f19" stroke-linejoin="round" stroke-width="0.1"/><path d="M903.38,452c0-.66-.1-4.16-.1-4.16l-4.28.44s.1,2.06,0,2.56a7.11,7.11,0,0,0,.27,2.78c.3.51,3.13.44,3.26.36s.15-.14.15-.21.53-.05.57-.27A8,8,0,0,0,903.38,452Z" fill="#fef8f3" stroke="#411f19" stroke-linejoin="round" stroke-width="0.1"/><path d="M900.66,447.59a.27.27,0,0,0-.42-.07.38.38,0,0,0-.56-.06s-.39-.09-.39.18c0,0-.63-.21-.48.35,0,0-.14.87.61.31,0,0,.4.43.44,0,0,0,.25.16.26-.08,0,0,.54.55.61-.11,0,0,.44.31.46-.18S900.66,447.59,900.66,447.59Z" fill="#743e22" stroke="#411f19" stroke-linejoin="round" stroke-width="0.1"/><circle cx="900.51" cy="449.93" r="1" fill="#fff" stroke="#411f19" stroke-miterlimit="10" stroke-width="0.1"/><circle cx="903.29" cy="449.93" r="1" fill="#fff" stroke="#411f19" stroke-miterlimit="10" stroke-width="0.1"/><circle cx="900.32" cy="449.72" r="0.34" fill="#411f19"/><circle cx="903.29" cy="449.72" r="0.34" fill="#411f19"/><path d="M902.32,446.47s-.51-.72-.94-.5-.32,1-.18,1.21a.73.73,0,0,0-.07.81c.26.39.8,0,.8,0s.39.5.75.26c0,0,1.11.57.79-.43,0,0,.69.15.57-.51s-1-.65-1-.65.33-.28,0-.44S902.32,446.47,902.32,446.47Z" fill="#fdfb43" stroke="#411f19" stroke-linejoin="round" stroke-width="0.1"/><path d="M899.51,451.1a1.34,1.34,0,0,0-1.24,1.5" fill="none" stroke="#411f19" stroke-linecap="round" stroke-linejoin="round" stroke-width="0.1"/><path d="M898.58,452.85s-.1-.41-.34-.21a.35.35,0,0,0-.48.21" fill="none" stroke="#411f19" stroke-linecap="round" stroke-linejoin="round" stroke-width="0.1"/><path d="M898.17,453.19a2,2,0,0,1,.07-.55c-.27,0-.38.49-.38.49" fill="none" stroke="#411f19" stroke-linecap="round" stroke-linejoin="round" stroke-width="0.1"/><path d="M904.6,452.36a1.56,1.56,0,0,0-1.22-1.06" fill="none" stroke="#411f19" stroke-linecap="round" stroke-linejoin="round" stroke-width="0.1"/><path d="M905.09,452.49s-.24-.29-.45-.12a.27.27,0,0,0-.31.29" fill="none" stroke="#411f19" stroke-linecap="round" stroke-linejoin="round" stroke-width="0.1"/><path d="M904.56,452.37a.59.59,0,0,1,.15.41" fill="none" stroke="#411f19" stroke-linecap="round" stroke-linejoin="round" stroke-width="0.1"/><path d="M904.6,452.39s.16,0,.27.27" fill="none" stroke="#411f19" stroke-linecap="round" stroke-linejoin="round" stroke-width="0.1"/><path d="M902,451c.3,0,.63-.3.67-.23a.86.86,0,0,1-.6,1.11c-.82.26-1.1-1.06-.81-1.06S901.69,451,902,451Z" fill="#411f19"/><path d="M900.12,453.39a4.36,4.36,0,0,0,.79.05c.64,0,2-.05,2-.05" fill="none" stroke="#411f19" stroke-linecap="round" stroke-linejoin="round" stroke-width="0.1"/><line x1="902.71" y1="453.76" x2="902.67" y2="453.4" fill="none" stroke="#411f19" stroke-linecap="round" stroke-linejoin="round" stroke-width="0.1"/><path d="M902.1,454a5.92,5.92,0,0,1-.05,1.09" fill="none" stroke="#411f19" stroke-linecap="round" stroke-linejoin="round" stroke-width="0.1"/><path d="M900.21,453.94a2,2,0,0,0,.19,1.12" fill="none" stroke="#411f19" stroke-linecap="round" stroke-linejoin="round" stroke-width="0.1"/><path d="M900.37,455a3,3,0,0,0-.63.18c-.11.08,0,.19,0,.19s.61,0,.69-.08A.18.18,0,0,0,900.37,455Z" fill="#411f19"/><path d="M902.06,455.08s.43-.11.62,0-.07.21-.23.24S901.71,455.4,902.06,455.08Z" fill="#411f19"/><circle cx="900.17" cy="449.64" r="0.08" fill="#fff"/><circle cx="903.16" cy="449.64" r="0.08" fill="#fff"/><path d="M902.53,451l0,.2s.07,0,.05-.22Z" fill="#fff"/><path d="M902.38,451s.07.17,0,.22l-.28,0,0-.18Z" fill="#fff"/><polygon points="901.94 451.12 901.66 451.07 901.67 451.3 901.96 451.3 901.94 451.12" fill="#fff"/><path d="M901.5,451l-.23-.08s0,.16,0,.2a1,1,0,0,0,.21.12Z" fill="#fff"/><path d="M900.84,448s.3.72.4.59.15-.36.21-.29,0,.62.17.59,0-.8.18-.94S900.84,448,900.84,448Z" fill="#ecd045" stroke="#411f19" stroke-linejoin="round" stroke-width="0.1"/><circle cx="899.86" cy="447.41" r="0.23" fill="#d37134" stroke="#411f19" stroke-linejoin="round" stroke-width="0.1"/><path d="M902.68,448.26s-.23-.13-.24-.23" fill="#d37134" stroke="#411f19" stroke-linecap="round" stroke-linejoin="round" stroke-width="0.1"/></g><g id="player-icon"><rect x="979.62" y="552.56" width="11.7" height="11.7" rx="0.81" fill="#7dc0a1" stroke="#411f19" stroke-width="0.2"/><path d="M987.5,558.22a6.37,6.37,0,0,0-1.14-2.21,3.92,3.92,0,0,1-.47-1.47,0,0,0,0,0,0,0h-.08a0,0,0,0,0,0,0V560a1.29,1.29,0,0,0-1.53,0c-.64.37-1,1-.71,1.46a1.2,1.2,0,0,0,1.62.12,1.37,1.37,0,0,0,.79-1.21v-4a3.59,3.59,0,0,1,1.25,1.74A2.72,2.72,0,0,1,987,560c-.13.21,0,.4.16.32A3,3,0,0,0,987.5,558.22Z" fill="#411f19"/></g><g id="pic-window"><rect x="897.83" y="510.45" width="49.94" height="49.94" fill="#411f19" opacity="0.2"/><rect x="895.43" y="508.09" width="49.94" height="49.94" fill="#e8e8d1" stroke="#411f19" stroke-width="0.2"/><rect x="897.41" y="510.06" width="45.97" height="45.97" fill="#e5ba21" stroke="#411f19" stroke-width="0.2"/><path d="M931.48,543.64a22.31,22.31,0,0,1-1.35-4,12.32,12.32,0,0,1,0-4.57c.33-2,.8-3.89,1-5.86H911.88a1.6,1.6,0,0,0-.39.83c.14.43-.83,12.07-.45,15.37.18,1.56,4.51-3.33,4.51-3.33.81-.9,16.82,4.84,16.57,3.62A11.53,11.53,0,0,0,931.48,543.64Z" fill="#411f19" stroke="#411f19" stroke-linejoin="round" stroke-width="0.2"/><path d="M927.66,547.94s0,0,0,0Z" fill="#333"/><path d="M923.91,542.81a2.8,2.8,0,0,0-.24-.65c-.17-.33-.39-.63-.58-.93a4.51,4.51,0,0,1-.48-1,7.49,7.49,0,0,1-.23-2.36c0-.19,0-.38,0-.58,0,0,.21-1.6-.43-1.78a3.1,3.1,0,0,0-.86-.07,6.3,6.3,0,0,0-2.65.65,2.48,2.48,0,0,0-.71.57l.11,0,.56.09a0,0,0,0,0,0,0,10.42,10.42,0,0,1,.45,2.48,9,9,0,0,1,0,1.27c0,.42-.11.84-.19,1.26a10.07,10.07,0,0,0-.25,2.56,4.59,4.59,0,0,0,.72,2.12,4.1,4.1,0,0,0,.37.48.16.16,0,0,1,0,.1,1.87,1.87,0,0,0,1.46.76,2.64,2.64,0,0,0,1.69-.9,4.92,4.92,0,0,0,1.07-2,4.36,4.36,0,0,0,.27-2.08A.18.18,0,0,1,923.91,542.81Z" fill="#cbb591" stroke="#411f19" stroke-width="0.1"/><path d="M924,542.86a.18.18,0,0,1-.07-.05,2.8,2.8,0,0,0-.24-.65c-.17-.33-.39-.63-.58-.93a4.51,4.51,0,0,1-.48-1,7.49,7.49,0,0,1-.23-2.36c0-.19,0-.38,0-.58,0,0,.21-1.6-.43-1.78a3.1,3.1,0,0,0-.86-.07,6.3,6.3,0,0,0-2.65.65,2.48,2.48,0,0,0-.71.57l.11,0,.56.09a0,0,0,0,0,0,0,11.53,11.53,0,0,1,.33,1.41c.26-.07.53-.14.8-.19a2,2,0,0,1,.85,0,.79.79,0,0,1,.45.35c.12.19.59,2.14.79,2.92a9.51,9.51,0,0,1,.28,1.41,4.29,4.29,0,0,1,0,1.29,1.59,1.59,0,0,1-.48.91,1.42,1.42,0,0,1-1.28.45,2.62,2.62,0,0,1-1.75-1.22,1.93,1.93,0,0,0,0,.24,4.59,4.59,0,0,0,.72,2.12,4.1,4.1,0,0,0,.37.48.16.16,0,0,1,0,.1,1.87,1.87,0,0,0,1.46.76,2.64,2.64,0,0,0,1.69-.9,4.92,4.92,0,0,0,1.07-2A4.36,4.36,0,0,0,924,542.86Z" fill="#411f19" stroke="#411f19" stroke-linejoin="round" stroke-width="0.2" opacity="0.3"/><path d="M932.56,544.23c-.81-.71-5.74-1.67-5.74-1.67.26-.49-.39-1.1-.59-1.47s-.68-.12-.68-.12-.23-1.12-.8-1.08a11.92,11.92,0,0,0-2.2.11,3.39,3.39,0,0,0,.76,1.63l-.94,1.6-1.74,1.48L919,543.42l-.4-1.19a9.21,9.21,0,0,0,.27-2.14,9.79,9.79,0,0,0-1.46-.2,5.52,5.52,0,0,0-1,.44s-1-.08-1.21.36-.88,1.17-.83,1.56a35.81,35.81,0,0,0-5.13,1.37c-1,.68-2.76,12.35-2.76,12.35h29.08S933.38,545,932.56,544.23Z" fill="#7dc0a1" stroke="#411f19" stroke-width="0.1"/><path d="M919,543.42l-.4-1.19a9.21,9.21,0,0,0,.27-2.14c-2.42-.27-3,1.39-1.39,3.07.52.85,3.18,1.79,3.81,2.09Z" fill="#519372" stroke="#411f19" stroke-linejoin="round" stroke-width="0.1"/><path d="M921,544.61c2.53-.56,6.57-4.74,1.56-4.61a3.39,3.39,0,0,0,.76,1.63,8.54,8.54,0,0,1-2.64,3.06Z" fill="#519372" stroke="#411f19" stroke-linejoin="round" stroke-width="0.1"/><path d="M912,528.17c-.25-.62-.5-1.43-.52-1.4s-1.32,2.91.72,3.91C912.17,529.84,912.05,529,912,528.17Z" fill="#cbb591" stroke="#411f19" stroke-width="0.1"/><path d="M922.33,519.82s-5.78,3.13-6.57,3.39c-3.73,1.24-2.55,7.75-2.33,7.72l.08.06c.1.72.22,1.44.37,2.15.11.49.22,1,.36,1.45.07.24.14.48.22.72a2.78,2.78,0,0,0,.25.62.84.84,0,0,0,.51.35c.25.06.5.09.75.13l1.58.25.57.09,4.13.44c.52,0,1-.09,1.56-.14s1-.09,1.55-.15a1.32,1.32,0,0,0,.61-.19,1.08,1.08,0,0,0,.34-.56c.32-1,.6-2,.86-3q.24-.88.45-1.77a.66.66,0,0,1,.24-.11c.28-.06.44.08.69-.13s.38-1,.4-1.44.24-4.93.26-5.34A58.25,58.25,0,0,0,922.33,519.82Z" fill="#cbb591" stroke="#411f19" stroke-width="0.1"/><path d="M928.13,523.54c.4,1.32-.58,8.16-.51,7.87a.66.66,0,0,1,.24-.11c.28-.06.44.08.69-.13s.38-1,.4-1.44.24-4.93.26-5.34A7.22,7.22,0,0,0,928.13,523.54Z" fill="#411f19" stroke="#411f19" stroke-linejoin="round" stroke-width="0.2" opacity="0.3"/><path d="M922.41,519.8a25.85,25.85,0,0,0-.48,5.64,28.85,28.85,0,0,0,.76,6,6.11,6.11,0,0,0-2.76-.36" fill="none" stroke="#411f19" stroke-linecap="round" stroke-miterlimit="10" stroke-width="0.1"/><path d="M916.78,532.24a1.47,1.47,0,0,0,.62,1,4.57,4.57,0,0,0,5.72,0" fill="none" stroke="#411f19" stroke-linecap="round" stroke-miterlimit="10" stroke-width="0.08"/><path d="M928.47,532.11Z" fill="#333"/><path d="M922.7,516.57c-4.77-1.38-8.92-.31-11.29,4.28-1,2.88.27,7.46.8,10.36.07.22,1.39.39,1.37.3-.53-3.59.78-8.25,5.13-9.22a6.28,6.28,0,0,0,3.68-2.46,5.47,5.47,0,0,0,2.47,3.06,16.42,16.42,0,0,1,3.08,2.76,8.34,8.34,0,0,1,.53,6.46h0c-.1,0,2.45-1.42,2.51-1.84C931.51,526.69,932.83,515.48,922.7,516.57Zm5.78,15.53Zm0-.1Z" fill="#411f19" stroke="#411f19" stroke-linejoin="round" stroke-width="0.2"/><polygon points="912.16 552.47 912.16 556.04 911.21 556.04 912.16 552.47" fill="#519372" stroke="#411f19" stroke-width="0.1"/><polygon points="930.17 552.41 930.17 555.98 931.12 555.98 930.17 552.41" fill="#519372" stroke="#411f19" stroke-width="0.1"/><polygon points="923.81 531.52 923.81 530.25 923.13 530.25 923.13 528.98 922.32 528.98 922.32 527.71 920.62 527.71 920.62 528.98 919.88 528.98 919.88 530.25 919.07 530.25 919.07 531.52 913.91 531.52 913.91 530.25 913.18 530.25 913.18 528.98 912.47 528.98 912.47 527.71 911.71 527.71 911.71 526.44 909.6 526.44 909.6 527.71 907.1 527.71 907.1 526.28 908.69 526.28 908.69 525.01 930.53 525.01 930.53 527.71 929.76 527.71 929.76 528.98 929.15 528.98 929.15 530.25 928.52 530.25 928.52 531.52 923.81 531.52"/><path d="M930.46,525.09v2.54h-.78v1.27h-.61v1.27h-.63v1.27h-4.55v-1.27h-.68V528.9h-.81v-1.27h-1.87v1.27h-.73v1.27H919v1.27h-5v-1.27h-.73V528.9h-.71v-1.27h-.76v-1.27h-2.27v1.27h-2.34v-1.27h1.59v-1.27h21.69m.16-.16h-22v1.27H907v1.59h2.66v-1.27h2v1.27h.76v1.27h.71v1.27h.73v1.27h5.32v-1.27H920v-1.27h.73v-1.27h1.55v1.27h.81v1.27h.68v1.27h4.87v-1.27h.63v-1.27h.61v-1.27h.78v-2.86Z" fill="#fdfeff"/><rect x="913.35" y="526.36" width="0.65" height="1.27" fill="#fcf7f5"/><rect x="914.87" y="526.36" width="0.65" height="1.27" fill="#fcf7f5"/><rect x="913.99" y="527.63" width="0.65" height="1.27" fill="#fcf7f5"/><rect x="915.52" y="527.63" width="0.65" height="1.27" fill="#fcf7f5"/><rect x="914.64" y="528.9" width="0.65" height="1.27" fill="#fcf7f5"/><rect x="916.17" y="528.9" width="0.65" height="1.27" fill="#fcf7f5"/><rect x="923.34" y="526.36" width="0.65" height="1.27" fill="#fcf7f5"/><rect x="924.86" y="526.36" width="0.65" height="1.27" fill="#fcf7f5"/><rect x="923.99" y="527.63" width="0.65" height="1.27" fill="#fcf7f5"/><rect x="925.51" y="527.63" width="0.65" height="1.27" fill="#fcf7f5"/><rect x="924.63" y="528.9" width="0.65" height="1.27" fill="#fcf7f5"/><rect x="926.16" y="528.9" width="0.65" height="1.27" fill="#fcf7f5"/></g><g id="pic-icon"><rect x="994.15" y="552.56" width="11.7" height="11.7" fill="#e8e8d1" stroke="#411f19" stroke-width="0.2"/><rect x="995.1" y="553.47" width="9.81" height="8.16" fill="#c4d5f2" stroke="#411f19" stroke-linejoin="round" stroke-width="0.1"/><polygon points="996.44 561.64 1000.13 556.85 1001.34 558.54 1003.21 556.35 1004.9 557.89 1004.9 561.64 996.44 561.64" fill="#7dc0a1" stroke="#411f19" stroke-width="0.1"/></g><g id="doc-window"><rect x="1064.98" y="471.49" width="46.25" height="35.46" rx="1.68" fill="#411f19" opacity="0.2"/><rect x="1062.64" y="469.67" width="46.25" height="35.46" rx="1.68" fill="#fff" stroke="#411f19" stroke-linejoin="round" stroke-width="0.2"/><path d="M1108.89,474.29v-2.94a1.69,1.69,0,0,0-1.68-1.68h-42.9a1.68,1.68,0,0,0-1.67,1.68v2.94Z" fill="#e8e8d1" stroke="#411f19" stroke-width="0.2"/><circle cx="1065.55" cy="471.99" r="0.92" fill="#d95e47" stroke="#411f19" stroke-width="0.2"/><circle cx="1068.1" cy="471.99" r="0.92" fill="#e5ba21" stroke="#411f19" stroke-width="0.2"/><circle cx="1070.65" cy="471.99" r="0.92" fill="#7dc0a1" stroke="#411f19" stroke-width="0.2"/><line x1="1098.73" y1="485.23" x2="1098.73" y2="489.22" fill="none" stroke="#7dc0a1" stroke-width="0.2"/><path d="M1065,476.64h.51l.63,2,.65-2h.4l.65,2,.64-2h.49l-.93,2.68h-.4l-.66-1.91-.65,1.91h-.4Z"/><path d="M1069.39,476.53h.45v1.08a.74.74,0,0,1,.63-.36.7.7,0,0,1,.72.78v1.27h-.46v-1.14c0-.31-.16-.49-.43-.49a.45.45,0,0,0-.46.5v1.13h-.45Z"/><path d="M1071.63,478.31h0a1.05,1.05,0,0,1,1.07-1.05,1,1,0,0,1,1.07,1h0a1.05,1.05,0,0,1-1.07,1.05A1,1,0,0,1,1071.63,478.31Zm1.68,0h0a.61.61,0,0,0-.61-.64.6.6,0,0,0-.61.63h0a.63.63,0,0,0,.61.65A.6.6,0,0,0,1073.31,478.31Z"/><path d="M1075.38,476.53h.46v1.65l.83-.88h.56l-.8.81.83,1.19h-.54l-.6-.86-.28.29v.57h-.46Z"/><path d="M1077.59,477.3h.46v.31a.74.74,0,0,1,.63-.36.69.69,0,0,1,.71.78v1.27h-.46v-1.14c0-.31-.15-.49-.43-.49a.45.45,0,0,0-.45.5v1.13h-.46Z"/><path d="M1079.84,478.31h0a1.07,1.07,0,0,1,2.14,0h0a1.06,1.06,0,0,1-1.08,1.05A1,1,0,0,1,1079.84,478.31Zm1.68,0h0a.62.62,0,0,0-.62-.64.6.6,0,0,0-.6.63h0a.62.62,0,0,0,.61.65A.61.61,0,0,0,1081.52,478.31Z"/><path d="M1082.18,477.3h.47l.41,1.37.44-1.38h.39l.45,1.38.41-1.37h.46l-.66,2h-.41l-.45-1.37-.45,1.37h-.41Z"/><path d="M1085.4,479l.21-.31a1.13,1.13,0,0,0,.65.25c.2,0,.32-.09.32-.22h0c0-.15-.22-.21-.45-.28s-.63-.21-.63-.59h0a.63.63,0,0,1,.71-.61,1.4,1.4,0,0,1,.74.23l-.18.33a1.13,1.13,0,0,0-.57-.19c-.18,0-.28.08-.28.2h0c0,.15.22.21.45.29s.63.22.63.58h0c0,.42-.33.63-.75.63A1.4,1.4,0,0,1,1085.4,479Z"/><path d="M1088.44,477.3h.47l.4,1.37.44-1.38h.4l.44,1.38.41-1.37h.46l-.65,2h-.41L1090,478l-.45,1.37h-.41Z"/><path d="M1091.88,476.53h.45v1.08a.74.74,0,0,1,.63-.36.7.7,0,0,1,.72.78v1.27h-.46v-1.14c0-.31-.16-.49-.43-.49a.45.45,0,0,0-.46.5v1.13h-.45Z"/><path d="M1094.12,478.31h0a1,1,0,0,1,1-1.05,1,1,0,0,1,1,1.08v.13h-1.48a.56.56,0,0,0,.58.51.71.71,0,0,0,.54-.24l.27.24a1,1,0,0,1-1.85-.66Zm1.49-.15a.52.52,0,0,0-.51-.53.54.54,0,0,0-.52.53Z"/><path d="M1096.53,477.3h.46v.45a.7.7,0,0,1,.71-.49v.48h0c-.4,0-.68.27-.68.8v.76h-.46Z"/><path d="M1097.92,478.31h0a1,1,0,0,1,1-1.05,1,1,0,0,1,1,1.08s0,.09,0,.13h-1.47a.56.56,0,0,0,.57.51.72.72,0,0,0,.55-.24l.27.24a1,1,0,0,1-1.85-.66Zm1.48-.15a.52.52,0,0,0-.51-.53.55.55,0,0,0-.52.53Z"/><path d="M1065.28,483.31v-1.06H1065v-.39h.26v-.56h.46v.56h.54v.39h-.54v1c0,.18.09.26.24.26a.69.69,0,0,0,.29-.07v.37a.75.75,0,0,1-.42.11A.51.51,0,0,1,1065.28,483.31Z"/><path d="M1066.74,481.09h.46v1.08a.72.72,0,0,1,.63-.36.69.69,0,0,1,.71.77v1.28h-.46v-1.14c0-.31-.15-.49-.43-.49a.45.45,0,0,0-.45.5v1.13h-.46Z"/><path d="M1069,482.87h0a1,1,0,0,1,1.07-1.05,1,1,0,0,1,1.06,1h0a1,1,0,0,1-1.07,1.05A1,1,0,0,1,1069,482.87Zm1.68,0h0a.62.62,0,0,0-.62-.64.6.6,0,0,0-.6.63h0a.62.62,0,0,0,.61.65A.61.61,0,0,0,1070.67,482.87Z"/><path d="M1071.57,483.13v-1.27h.46V483c0,.31.16.49.43.49a.45.45,0,0,0,.45-.5v-1.13h.46v2h-.46v-.31a.71.71,0,0,1-.62.35A.69.69,0,0,1,1071.57,483.13Z"/><path d="M1074,484.24l.17-.35a1.24,1.24,0,0,0,.71.21.56.56,0,0,0,.64-.61v-.16a.84.84,0,0,1-.71.37.9.9,0,0,1-.91-.94h0a.9.9,0,0,1,.91-.95.84.84,0,0,1,.7.35v-.3h.46v1.59a1.07,1.07,0,0,1-.25.76,1.17,1.17,0,0,1-.83.27A1.74,1.74,0,0,1,1074,484.24Zm1.52-1.48h0a.57.57,0,0,0-.59-.56.54.54,0,0,0-.57.55h0a.55.55,0,0,0,.57.55A.56.56,0,0,0,1075.47,482.76Z"/><path d="M1076.5,481.09h.46v1.08a.71.71,0,0,1,.62-.36.7.7,0,0,1,.72.77v1.28h-.46v-1.14c0-.31-.16-.49-.43-.49a.45.45,0,0,0-.45.5v1.13h-.46Z"/><path d="M1079,483.31v-1.06h-.26v-.39h.26v-.56h.46v.56h.54v.39h-.54v1c0,.18.09.26.24.26a.69.69,0,0,0,.29-.07v.37a.75.75,0,0,1-.42.11A.51.51,0,0,1,1079,483.31Z"/><path d="M1080.25,483.6l.2-.31a1.16,1.16,0,0,0,.66.25c.2,0,.31-.09.31-.22h0c0-.15-.21-.21-.45-.28s-.62-.21-.62-.59h0a.63.63,0,0,1,.71-.61,1.43,1.43,0,0,1,.74.23l-.19.33a1.13,1.13,0,0,0-.56-.19c-.18,0-.28.08-.28.2h0c0,.14.21.2.45.28s.62.22.62.58h0c0,.42-.32.63-.74.63A1.38,1.38,0,0,1,1080.25,483.6Z"/><path d="M1083.34,482.87h0a1,1,0,0,1,1-1.05,1,1,0,0,1,.8.35l-.28.31a.67.67,0,0,0-.52-.25.6.6,0,0,0-.58.63h0a.61.61,0,0,0,.6.65.69.69,0,0,0,.52-.25l.28.27a1.05,1.05,0,0,1-1.86-.66Z"/><path d="M1085.45,482.87h0a1.05,1.05,0,0,1,1.07-1.05,1,1,0,0,1,1.07,1h0a1.07,1.07,0,0,1-2.14,0Zm1.68,0h0a.61.61,0,0,0-.61-.64.6.6,0,0,0-.61.63h0a.63.63,0,0,0,.61.65A.6.6,0,0,0,1087.13,482.87Z"/><path d="M1088.06,481.86h.46v.3a.71.71,0,0,1,.61-.35.63.63,0,0,1,.6.36.79.79,0,0,1,.68-.36.67.67,0,0,1,.7.77v1.28h-.46v-1.14c0-.32-.15-.49-.4-.49s-.43.18-.43.5v1.13h-.46v-1.14c0-.31-.16-.49-.41-.49s-.43.19-.43.5v1.13h-.46Z"/><path d="M1091.56,482.87h0a1,1,0,0,1,1-1.05,1,1,0,0,1,1,1.08.57.57,0,0,1,0,.13H1092a.56.56,0,0,0,.58.51.71.71,0,0,0,.54-.24l.27.24a1,1,0,0,1-1.85-.66Zm1.49-.15a.52.52,0,0,0-.51-.53.54.54,0,0,0-.52.53Z"/><path d="M1095.21,482.25H1095v-.38h.26v-.15a.64.64,0,0,1,.16-.49.61.61,0,0,1,.45-.16,1.35,1.35,0,0,1,.38.05v.39a.91.91,0,0,0-.27-.05c-.18,0-.27.09-.27.3v.11h.53v.38h-.52v1.61h-.46Z"/><path d="M1096.53,481.86h.46v.45a.71.71,0,0,1,.71-.49v.48h0c-.41,0-.69.27-.69.8v.76h-.46Z"/><path d="M1097.92,482.87h0a1.06,1.06,0,0,1,1.08-1.05,1,1,0,0,1,1.06,1h0a1.07,1.07,0,0,1-2.14,0Zm1.68,0h0a.61.61,0,0,0-.61-.64.6.6,0,0,0-.61.63h0a.63.63,0,0,0,.62.65A.6.6,0,0,0,1099.6,482.87Z"/><path d="M1100.53,481.86h.46v.3a.71.71,0,0,1,.61-.35.63.63,0,0,1,.6.36.81.81,0,0,1,.68-.36.67.67,0,0,1,.7.77v1.28h-.46v-1.14c0-.32-.15-.49-.4-.49s-.43.18-.43.5v1.13h-.46v-1.14c0-.31-.16-.49-.41-.49a.44.44,0,0,0-.43.5v1.13h-.46Z"/><path d="M1104.45,482.41l0,0c.48,0,.7-.18.7-.43h0c0-.21-.16-.36-.44-.36a.86.86,0,0,0-.62.3l-.28-.3a1.15,1.15,0,0,1,.92-.42.77.77,0,0,1,.88.77h0c0,.48-.34.69-.76.76l0,.31h-.31Zm0,.93h.5v.52h-.5Z"/><path d="M1065.89,486.2h-.84v-.44h2.15v.44h-.84v2.22h-.47Z"/><path d="M1067.61,485.65h.46v1.08a.72.72,0,0,1,.62-.36.7.7,0,0,1,.72.78v1.27H1069v-1.14c0-.31-.16-.49-.43-.49a.45.45,0,0,0-.45.5v1.13h-.46Z"/><path d="M1069.85,487.43h0a1,1,0,0,1,1-1.05,1,1,0,0,1,1,1.08v.13h-1.48a.56.56,0,0,0,.58.51.71.71,0,0,0,.54-.24l.27.24a1,1,0,0,1-1.85-.66Zm1.49-.15a.52.52,0,0,0-.51-.53.54.54,0,0,0-.52.53Z"/><path d="M1072.1,488.92l.15-.34a.68.68,0,0,0,.27.07c.13,0,.21,0,.29-.23l-.84-2h.49l.57,1.49.52-1.49h.48l-.8,2.06c-.16.41-.33.56-.66.56A.89.89,0,0,1,1072.1,488.92Z"/><path d="M1075.25,489v-.37l.13,0c.13,0,.21-.07.21-.25v-2h.46v2a.52.52,0,0,1-.58.59Zm.32-3.35h.5v.44h-.5Z"/><path d="M1076.63,487.69v-1.27h.46v1.14c0,.31.16.49.43.49a.45.45,0,0,0,.45-.5v-1.13h.46v2H1078v-.31a.71.71,0,0,1-.62.35A.69.69,0,0,1,1076.63,487.69Z"/><path d="M1078.85,488.16l.2-.31a1.16,1.16,0,0,0,.66.25c.2,0,.31-.09.31-.22h0c0-.15-.21-.21-.45-.28s-.62-.21-.62-.59h0a.63.63,0,0,1,.71-.61,1.43,1.43,0,0,1,.74.23l-.19.33a1.1,1.1,0,0,0-.56-.19c-.18,0-.28.08-.28.2h0c0,.14.21.2.45.28s.62.22.62.58h0c0,.42-.32.63-.74.63A1.38,1.38,0,0,1,1078.85,488.16Z"/><path d="M1081,487.87v-1.06h-.26v-.39h.26v-.56h.46v.56h.54v.39h-.54v1c0,.18.09.26.24.26a.69.69,0,0,0,.29-.07v.37a.75.75,0,0,1-.42.11A.51.51,0,0,1,1081,487.87Z"/><path d="M1084.8,488.42v-.25a.8.8,0,0,1-.65.29.64.64,0,0,1-.72-.62h0c0-.45.35-.66.82-.66a1.64,1.64,0,0,1,.55.08v0c0-.28-.17-.43-.49-.43a1.54,1.54,0,0,0-.58.12l-.12-.37a1.68,1.68,0,0,1,.76-.16.77.77,0,0,1,.88.84v1.19Zm0-.84a1.46,1.46,0,0,0-.46-.08c-.29,0-.46.12-.46.31h0c0,.19.17.3.39.3s.53-.17.53-.42Z"/><path d="M1085.8,486.42h.46v.33a.81.81,0,0,1,.68-.38,1,1,0,0,1,.94,1.05h0a1,1,0,0,1-.94,1,.81.81,0,0,1-.68-.35V489h-.46Zm1.61,1h0a.58.58,0,1,0-1.16,0h0a.6.6,0,0,0,.58.64A.58.58,0,0,0,1087.41,487.42Z"/><path d="M1088.35,486.42h.46v.33a.78.78,0,0,1,.68-.38,1,1,0,0,1,.93,1.05h0a1,1,0,0,1-.93,1,.81.81,0,0,1-.68-.35V489h-.46Zm1.6,1h0a.6.6,0,0,0-.57-.65.61.61,0,0,0-.59.65h0a.6.6,0,0,0,.59.64A.58.58,0,0,0,1090,487.42Z"/><path d="M1090.78,487.43h0a1,1,0,0,1,1-1.05,1,1,0,0,1,1,1.08v.13h-1.48a.56.56,0,0,0,.58.51.71.71,0,0,0,.54-.24l.27.24a1,1,0,0,1-1.85-.66Zm1.49-.15a.52.52,0,0,0-.51-.53.54.54,0,0,0-.52.53Z"/><path d="M1094.41,488.42v-.25a.77.77,0,0,1-.65.29.63.63,0,0,1-.71-.62h0c0-.45.35-.66.81-.66a1.71,1.71,0,0,1,.56.08v0c0-.28-.18-.43-.5-.43a1.49,1.49,0,0,0-.57.12l-.12-.37a1.68,1.68,0,0,1,.76-.16.77.77,0,0,1,.88.84v1.19Zm0-.84a1.52,1.52,0,0,0-.46-.08c-.29,0-.46.12-.46.31h0c0,.19.17.3.38.3s.54-.17.54-.42Z"/><path d="M1095.42,486.42h.46v.45a.7.7,0,0,1,.71-.49v.48h0c-.4,0-.68.27-.68.8v.76h-.46Z"/><path d="M1096.62,487.9h.5v.52h-.5Z"/></g><g id="doc-icon"><polygon points="1104.78 467.25 1095.89 467.25 1095.89 460.05 1098.13 457.39 1104.78 457.39 1104.78 467.25" fill="#e8e8d1" stroke="#411f19" stroke-width="0.2"/><polyline points="1098.13 457.39 1098.13 460.12 1095.89 460.12" fill="none" stroke="#411f19" stroke-linejoin="round" stroke-width="0.2"/></g>
<script>
var docIcon = document.querySelector('#doc-icon');
docIcon.onclick = function() {
  var docWindow = document.querySelector('#doc-window');
  docWindow.classList.toggle('active');
}
var picIcon = document.querySelector('#pic-icon');
picIcon.onclick = function() {
  var picWindow = document.querySelector('#pic-window');
  picWindow.classList.toggle('active');
}
var terminalIcon = document.querySelector('#terminal-icon');
terminalIcon.onclick = function() {
  var terminalWindow = document.querySelector('#terminal');
  terminalWindow.classList.toggle('inactive');
}
var playerIcon = document.querySelector('#player-icon');
playerIcon.onclick = function() {
  var playerWindow = document.querySelector('#player');
  playerWindow.classList.toggle('inactive');
}
var playerBtn = document.querySelector('#player');
playerBtn.onclick = function() {
  window.open("https://www.youtube.com/watch?v=LiL_lSkAddk", "_blank");
}
</script>
</svg>
