<svg xmlns="http://www.w3.org/2000/svg" width="4000" height="2000" viewBox="0 0 4000 2000"><path d="M-29.27-86.87v2261.23H4119V-86.87zm2052.68 1109.8h-46.82v-45.86h46.82z" fill="#d95e47"/><path fill="#f3f4e1" stroke="#411f19" stroke-miterlimit="10" stroke-width=".1" d="M-27.91 1042.35h4086.13v1057.23H-27.91z"/><path fill="#411f19" opacity=".25" d="M1966.66 1101.61l100.87-59.26h28.08l-62.27 59.28-66.68-.02z"/><path d="M1966.66 965.28v136.33h66.68V965.28zm56.3 58h-46v-46h46z" fill="#7dc0a1" stroke="#411f19" stroke-miterlimit="10" stroke-width=".1"/><path d="M1968.28 967.38v132.53h63V967.38zm54.52 55.55h-45.92V977h45.92z" fill="#7dc0a1" stroke="#411f19" stroke-miterlimit="10" stroke-width=".1"/><path fill="none" stroke="#411f19" stroke-linejoin="round" stroke-width=".1" d="M1974.55 974.9h50.89v50.36h-50.89z"/><path fill="#411f19" opacity=".3" d="M2023.95 976.24h-47.9l-1.5-1.34h50.9l-1.5 1.34z"/><path fill="#fff" opacity=".4" d="M1976.05 1023.91h47.9l1.5 1.35h-50.9l1.5-1.35z"/><path fill="#411f19" opacity=".5" d="M1976.05 1023.91l-1.5 1.35V974.9l1.5 1.34v47.67z"/><path fill="#fff" opacity=".2" d="M2023.95 1023.91l1.5 1.35V974.9l-1.5 1.34v47.67z"/><path d="M2024 977.07v-1h-47.9v47.88h47.9v-46.88zm-46 17.07h13.68v12.7H1978zm15.64 0h12.7v12.7h-12.7zm0-2V978h12.7v14.14zm14.66 2h13.7v12.7h-13.68zm13.68-2h-13.68V978h13.7zM1991.69 978v14.14H1978V978zm-13.69 44v-13.2h13.68v13.2zm15.64 0v-13.2h12.7v13.2zm14.66 0v-13.2h13.7v13.2z" fill="#f3f4e1" stroke="#411f19" stroke-miterlimit="10" stroke-width=".1"/><path fill="none" stroke="#411f19" stroke-linejoin="round" stroke-width=".1" d="M1974.34 1031.94h50.89v23h-50.89z"/><path fill="#411f19" opacity=".3" d="M2023.74 1033.29h-47.89l-1.5-1.35h50.89l-1.5 1.35z"/><path fill="#fff" opacity=".4" d="M1975.85 1053.59h47.89l1.5 1.35h-50.89l1.5-1.35z"/><path fill="#411f19" opacity=".5" d="M1975.85 1053.59l-1.5 1.35v-23l1.5 1.35v20.3z"/><path fill="#fff" opacity=".2" d="M2023.74 1053.59l1.5 1.35v-23l-1.5 1.35v20.3z"/><path fill="none" stroke="#411f19" stroke-linejoin="round" stroke-width=".1" d="M1974.34 1060.49h50.89v23h-50.89z"/><path fill="#411f19" opacity=".3" d="M2023.74 1061.84h-47.89l-1.5-1.35h50.89l-1.5 1.35z"/><path fill="#fff" opacity=".4" d="M1975.85 1082.14h47.89l1.5 1.35h-50.89l1.5-1.35z"/><path fill="#411f19" opacity=".5" d="M1975.85 1082.14l-1.5 1.35v-23l1.5 1.35v20.3z"/><path fill="#fff" opacity=".2" d="M2023.74 1082.14l1.5 1.35v-23l-1.5 1.35v20.3z"/><path fill="#e5ba21" stroke="#411f19" stroke-width=".1" d="M2026.36 1031.81h3.73v15.28h-3.73z"/><ellipse cx="2029.22" cy="1038.63" rx="2.41" ry="2.58" transform="rotate(-8.59 2029.148 1038.626)" fill="#411f19" opacity=".2"/><circle cx="2028.23" cy="1035.32" r="2.03" fill="#e5ba21" stroke="#411f19" stroke-width=".1"/><path fill="#411f19" d="M2028.23 1038.93l-.39 1.5h.78l-.39-1.5z"/><circle cx="2028.23" cy="1038.97" r=".34" fill="#411f19"/><path fill="#ba0000" stroke="#411f19" stroke-linejoin="round" stroke-width=".1" d="M1968.28 1098.47v3.16M2031.3 1099.36v2.27"/><path d="M2005.05 1103.44c4-.15 7.28-3.09 11-4.59a15.94 15.94 0 0 1 5.78-1.17c2.81 0 5.6.68 8.4.47 2.33-.18 4.58-1 6.91-1.17 3.52-.26 12.36 4 14.92 6.46M1948.36 1101.63c3.51.41 10.33-3.72 13.86-3.91a26.56 26.56 0 0 1 3.78.15l3.53.31a33.82 33.82 0 0 1 4.13.54 33.19 33.19 0 0 1 3.76 1.14c3.43 1.18 6.92 2.4 9.81 4.6" fill="#f3f4e1" stroke="#411f19" stroke-miterlimit="10" stroke-width=".1"/><path fill="#411f19" opacity=".2" d="M2023.95 976.09h-44.6v-.04h-3.3v47.9h2.8v-44.56h45.1v-3.3z"/><path d="M1988.89 959.08l3 5.18 3-5.18zm1.72 1h2.64l-1.32 2.24zM1977 960.08l-1.33 2.24-1.33-2.24h2.66m1.74-1h-6.15l3.08 5.18 3.07-5.18z" fill="#7dc0a1" stroke="#411f19" stroke-miterlimit="10" stroke-width=".1"/><path d="M1975.66 953.88l6.17 10.4h-12.35l6.18-10.4m0-1.94l-7.92 13.34h15.84l-7.92-13.34zM2021.27 959.08l3.07 5.18 3.08-5.18zm1.74 1h2.66l-1.33 2.24zM2005 959.08l3.08 5.18 3.07-5.18zm1.75 1h2.66l-1.33 2.24zM1991.93 953.88l6.13 10.4h-12.25l6.12-10.4m0-1.94l-7.85 13.34h15.71l-7.86-13.34z" fill="#7dc0a1" stroke="#411f19" stroke-miterlimit="10" stroke-width=".1"/><path d="M2008.09 953.88l6.11 10.4H2002l6.12-10.4m0-1.94l-7.84 13.34h15.67l-7.83-13.34zM2024.34 953.88l6.18 10.4h-12.35l6.17-10.4m0-1.94l-7.92 13.34h15.84l-7.92-13.34z" fill="#7dc0a1" stroke="#411f19" stroke-miterlimit="10" stroke-width=".1"/><path d="M1966.66 950.88v14.4h66.68v-14.4zm33.59 1.06h15.67v13.34h-15.67zm-.5 13.34h-15.67v-13.34h15.67zm-32-13.34h15.84v13.34h-15.84zm64.52 13.34h-15.84v-13.34h15.84z" fill="#7dc0a1" stroke="#411f19" stroke-miterlimit="10" stroke-width=".1"/><path d="M2095.6 1025v-6.09h-28.19v23.44h28.19V1025zm-27-.42l2.61-4.4 2.61 4.4zm2.61-5.22l-3.35 5.64v-5.64h6.7v5.64zm3.56 0h6.63v5.64l-3.31-5.61-3.32 5.64zm.73 5.22l2.59-4.4 2.6 4.4zm8.13-2.2l1.3 2.19 1.29-2.18 1.29 2.19h-5.17l2.58-4.4 1.3 2.2zm1.87.42l-.57 1-.56-1zm-.58-3.44l-3.31 5.64v-5.64h6.63v5.64zm4.27 5.22l2.61-4.4 2.61 4.4zm2.61-5.22l-3.35 5.64v-5.64h6.7v5.64z" fill="#411f19" opacity=".2"/><path d="M2078.09 1024.57l1.29-2.19h-2.58zm0-.82l-.55-1h1.11zM2071.21 1024.57l1.3-2.19h-2.6zm0-.82l-.56-1h1.12zM2091.8 1024.57l1.3-2.19h-2.6zm0-.82l-.56-1h1.12z" fill="#411f19" opacity=".2"/></svg>