<svg xmlns="http://www.w3.org/2000/svg" width="1500" height="900" viewBox="0 0 1500 900"><path d="M258.34 174.12a1.13 1.13 0 0 0 0-2.25 1.13 1.13 0 0 0 0 2.25zM547.46 275.59a1.13 1.13 0 0 0 0-2.25 1.13 1.13 0 0 0 0 2.25zM503.42 128.16a1.13 1.13 0 0 0 0-2.25 1.13 1.13 0 0 0 0 2.25zM384.71 321.55a1.13 1.13 0 0 0 0-2.25 1.13 1.13 0 0 0 0 2.25zM151.12 310.06a1.13 1.13 0 0 0 0-2.25 1.13 1.13 0 0 0 0 2.25zM80.28 86a1.13 1.13 0 0 0 0-2.25 1.13 1.13 0 0 0 0 2.25zM262.17 26.69a1.13 1.13 0 0 0 0-2.25 1.13 1.13 0 0 0 0 2.25zM327.27 107.1a1.13 1.13 0 0 0 0-2.25 1.13 1.13 0 0 0 0 2.25zM710.21 72.64a1.13 1.13 0 0 0 0-2.25 1.13 1.13 0 0 0 0 2.25zM783 258.36a1.13 1.13 0 0 0 0-2.25 1.13 1.13 0 0 0 0 2.25zM997.41 103.27a1.13 1.13 0 0 0 0-2.25 1.13 1.13 0 0 0 0 2.25zM1083.57 227.73a1.13 1.13 0 0 0 0-2.25 1.13 1.13 0 0 0 0 2.25zM924.65 193.26a1.13 1.13 0 0 0 0-2.25 1.13 1.13 0 0 0 0 2.25zM1250.15 89.87a1.13 1.13 0 0 0 0-2.25 1.13 1.13 0 0 0 0 2.25zM1395.67 53.49a1.13 1.13 0 0 0 0-2.25 1.13 1.13 0 0 0 0 2.25zM1393.75 271.76a1.13 1.13 0 0 0 0-2.25 1.13 1.13 0 0 0 0 2.25zM1273.13 225.81a1.13 1.13 0 0 0 0-2.25 1.13 1.13 0 0 0 0 2.25zM1273.13 386.65a1.13 1.13 0 0 0 0-2.25 1.13 1.13 0 0 0 0 2.25zM1447.36 386.65a1.13 1.13 0 0 0 0-2.25 1.13 1.13 0 0 0 0 2.25zM1142.93 356a1.13 1.13 0 0 0 0-2.25 1.13 1.13 0 0 0 0 2.25zM943.8 467.06a1.13 1.13 0 0 0 0-2.25 1.13 1.13 0 0 0 0 2.25zM890.19 319.63a1.13 1.13 0 0 0 0-2.25 1.13 1.13 0 0 0 0 2.25zM629.79 419.2a1.13 1.13 0 0 0 0-2.25 1.13 1.13 0 0 0 0 2.25zM647 612.58a1.13 1.13 0 0 0 0-2.25 1.13 1.13 0 0 0 0 2.25zM526.4 497.7a1.13 1.13 0 0 0 0-2.25 1.13 1.13 0 0 0 0 2.25zM526.4 375.16a1.13 1.13 0 0 0 0-2.25 1.13 1.13 0 0 0 0 2.25zM356 610.66a1.13 1.13 0 0 0 0-2.25 1.13 1.13 0 0 0 0 2.25zM298.55 493.87a1.13 1.13 0 0 0 0-2.25 1.13 1.13 0 0 0 0 2.25zM222 428.77a1.13 1.13 0 0 0 0-2.25 1.13 1.13 0 0 0 0 2.25zM74.53 486.21a1.13 1.13 0 0 0 0-2.25 1.13 1.13 0 0 0 0 2.25zM220.05 612.58a1.13 1.13 0 0 0 0-2.25 1.13 1.13 0 0 0 0 2.25zM82.19 765.75a1.13 1.13 0 0 0 0-2.25 1.13 1.13 0 0 0 0 2.25zM267.92 865.32a1.13 1.13 0 0 0 0-2.25 1.13 1.13 0 0 0 0 2.25zM394.29 796.39a1.13 1.13 0 0 0 0-2.25 1.13 1.13 0 0 0 0 2.25zM612.56 828.94a1.13 1.13 0 0 0 0-2.25 1.13 1.13 0 0 0 0 2.25zM1106.55 608.75a1.13 1.13 0 0 0 0-2.25 1.13 1.13 0 0 0 0 2.25zM1231 539.82a1.13 1.13 0 0 0 0-2.25 1.13 1.13 0 0 0 0 2.25zM1296.1 691.08a1.13 1.13 0 0 0 0-2.25 1.13 1.13 0 0 0 0 2.25zM1422.47 576.2a1.13 1.13 0 0 0 0-2.25 1.13 1.13 0 0 0 0 2.25zM1420.56 794.47a1.13 1.13 0 0 0 0-2.25 1.13 1.13 0 0 0 0 2.25zM633.92 171.58a1.13 1.13 0 0 0 0-2.25 1.13 1.13 0 0 0 0 2.25zM592.57 55.18a1.13 1.13 0 0 0 0-2.25 1.13 1.13 0 0 0 0 2.25zM1130.17 759.73a1.13 1.13 0 0 0 0-2.25 1.13 1.13 0 0 0 0 2.25zM1206.76 723a1.13 1.13 0 0 0 0-2.25 1.13 1.13 0 0 0 0 2.25zM1232.79 842.44a1.13 1.13 0 0 0 0-2.25 1.13 1.13 0 0 0 0 2.25zM934.12 667.83a1.13 1.13 0 0 0 0-2.25 1.13 1.13 0 0 0 0 2.25zM1059.72 372.23a1.13 1.13 0 0 0 0-2.25 1.13 1.13 0 0 0 0 2.25zM1137.83 36.8a1.13 1.13 0 0 0 0-2.25 1.13 1.13 0 0 0 0 2.25zM298.49 239a1.13 1.13 0 0 0 0-2.25 1.13 1.13 0 0 0 0 2.25zM84.06 202.22a1.13 1.13 0 0 0 0-2.25 1.13 1.13 0 0 0 0 2.25zM407.24 413.58a1.13 1.13 0 0 0 0-2.25 1.13 1.13 0 0 0 0 2.25zM520.58 713.78a1.13 1.13 0 0 0 0-2.25 1.13 1.13 0 0 0 0 2.25zM895.83 59.77a1.13 1.13 0 0 0 0-2.25 1.13 1.13 0 0 0 0 2.25zM692.12 214.47a1.13 1.13 0 0 0 0-2.25 1.13 1.13 0 0 0 0 2.25zM1131.71 450.34a1.13 1.13 0 0 0 0-2.25 1.13 1.13 0 0 0 0 2.25zM404.18 49.05a1.13 1.13 0 0 0 0-2.25 1.13 1.13 0 0 0 0 2.25z" fill="#fff"/></svg>