<svg xmlns="http://www.w3.org/2000/svg" width="1500" height="1000" viewBox="0 0 1500 1000"><path fill="#313c61" d="M784.19 561.99h-36.07l3.37 438.01h274.18L784.19 561.99z"/><path fill="#ba0000" d="M713.14 561.99l-241.57 438.18 279.92-.17-1.58-438.01h-36.77z"/><path fill="#e5ba21" d="M763.41 561.99h-29.49L637.86 1000h221.61l-96.06-438.01z"/><path fill="#d95e47" d="M730.15 561.99L582.46 1000h110.8l50.3-438.01h-13.41z"/><path fill="#7aa480" d="M769.77 561.99h-13.24L804.06 1000h110.81l-145.1-438.01z"/><ellipse cx="750" cy="590.5" rx="43.32" ry="14.67" fill="#411f19" stroke="#411f19" stroke-width=".25" opacity=".2"/><path d="M817.32 568.6c0 12.52-30.14 22.68-67.32 22.68s-67.32-10.16-67.32-22.68v-7.35s40.76-15.33 67.32-15.33c31 0 67.32 17.16 67.32 17.16z" fill="#ddddc0" stroke="#411f19" stroke-miterlimit="10" stroke-width=".25"/><ellipse cx="750" cy="563.08" rx="67.32" ry="22.68" fill="#f3f4e1" stroke="#411f19" stroke-miterlimit="10" stroke-width=".25"/><path d="M761.43 498.69v-20.23A11.45 11.45 0 0 0 750 467.05a11.45 11.45 0 0 0-11.41 11.41v20.27" fill="#ddddc0" opacity=".2"/><path d="M741.29 497.9v-20.27c0-4.71 3.63-9.62 7.54-10.52a11.46 11.46 0 0 0-10.23 11.35v20.27z" fill="#ddddc0" opacity=".3"/><path d="M758.73 497.9v-20.27c0-4.71-3.62-9.62-7.53-10.52a11.46 11.46 0 0 1 10.23 11.35v20.27z" fill="#ddddc0" opacity=".4"/><path d="M761.43 498.69v-20.23A11.45 11.45 0 0 0 750 467.05a11.45 11.45 0 0 0-11.41 11.41v20.27" fill="none" stroke="#ddddc0" stroke-width=".25"/><path d="M760.14 559.92s-2.62 1.92-10 1.92-9.66-1.92-9.66-1.92v-57.68h19.64z" fill="#f3f4e1" stroke="#411f19" stroke-miterlimit="10" stroke-width=".25"/><path fill="#f3f4e1" stroke="#411f19" stroke-miterlimit="10" stroke-width=".25" d="M732.2 500.18h35.61v4.13H732.2z"/><path d="M749.6 502.59s-1.77-1.47-5.48-1.47-6 2.24-8.6 2.24-2.27-2.24-1.31-2.24m16.19 1.47s1.77-1.47 5.48-1.47 6 2.24 8.6 2.24 2.27-2.24 1.31-2.24" fill="none" stroke="#411f19" stroke-linecap="round" stroke-miterlimit="10" stroke-width=".25"/><path fill="none" stroke="#411f19" stroke-linecap="round" stroke-linejoin="round" stroke-width=".25" d="M749.2 501.7h1.6l-.78 1.66-.82-1.66z"/><path d="M760.14 559.92a13 13 0 0 1-5.73 1.72v-57.33h5.73zm-13.82 1.69a10.11 10.11 0 0 1-5.73-1.67v-55.63h5.73z" fill="#411f19" opacity=".1"/><path fill="#411f19" opacity=".2" d="M740.5 504.31h19.64v2.96H740.5z"/><path d="M743.46 561.13a9.05 9.05 0 0 1-3-1.21v-55.61h3zM760 560a13.61 13.61 0 0 1-3 1.12v-56.8h3z" fill="#411f19" opacity=".1"/><path fill="#f3f4e1" stroke="#411f19" stroke-miterlimit="10" stroke-width=".25" d="M731.56 498.73h36.89v1.45h-36.89z"/><path fill="#e5ba21" stroke="#411f19" stroke-width=".25" d="M736.6 495.49h26.83v3.24H736.6z"/><path d="M742.74 477.26l7.25 15.1 7.27-15.1a10.26 10.26 0 0 0-14.52 0z" fill="#c69c63" stroke="#411f19" stroke-linejoin="round" stroke-width=".15"/><path d="M743.38 478.59l6.62 13.77 6.67-13.84c-1.93-1.48-3.81-2.74-6.65-2.74a9.49 9.49 0 0 0-6.64 2.81z" fill="#e5ba21" stroke="#411f19" stroke-linejoin="round" stroke-width=".15"/><circle cx="747.29" cy="479.44" r="1.25" fill="#ba0000" stroke="#411f19" stroke-miterlimit="10" stroke-width=".15"/><circle cx="750.68" cy="483.31" r="1.25" fill="#ba0000" stroke="#411f19" stroke-miterlimit="10" stroke-width=".15"/><circle cx="752.21" cy="478.19" r="1.25" fill="#ba0000" stroke="#411f19" stroke-miterlimit="10" stroke-width=".15"/><path d="M754.86 480.38a1.25 1.25 0 0 0-.29 2.47l1.06-2.19a1.23 1.23 0 0 0-.77-.28zm-6.06 6.46a1.24 1.24 0 0 0-1.12.71l.84 1.76a1.35 1.35 0 0 0 .28 0 1.26 1.26 0 1 0 0-2.51z" fill="#ba0000" stroke="#411f19" stroke-miterlimit="10" stroke-width=".15"/><circle cx="747.47" cy="483.69" r=".82" fill="#c69c63" stroke="#411f19" stroke-width=".15"/><circle cx="748.61" cy="478.19" r=".82" fill="#c69c63" stroke="#411f19" stroke-width=".15"/><path d="M752.64 485.42a.82.82 0 0 0-.82.82.81.81 0 0 0 .73.81l.67-1.39a.85.85 0 0 0-.58-.24z" fill="#c69c63" stroke="#411f19" stroke-width=".15"/><path fill="#7aa480" stroke="#411f19" stroke-linejoin="round" stroke-width=".15" d="M751.8 480.16l.84 2.25.6-.25-.56-2.25-.88.25zm-1.34 5.54l-2.29.75.23.6 2.28-.47-.22-.88zm-6.51-5.92l.59 1.23.38-1.86-.9-.14-.07.77z"/><path d="M749.43 480.92a.23.23 0 0 0 0-.45.23.23 0 0 0 0 .45zm-2.43 1.37a.23.23 0 0 0 0-.45.23.23 0 0 0 0 .45zm2 2.96a.23.23 0 0 0 0-.45.23.23 0 0 0 0 .45zm3.93-.9a.23.23 0 0 0 0-.45.23.23 0 0 0 0 .45zm-2.14 5.57a.38.38 0 0 0 0-.75.38.38 0 0 0 0 .75zm-4.95-11.83a.23.23 0 0 0 0-.45.23.23 0 0 0 0 .45zm4.37-.71a.23.23 0 0 0 0-.45.23.23 0 0 0 0 .45zm4.79 1.72a.23.23 0 0 0 0-.45.23.23 0 0 0 0 .45z" fill="#411f19"/><ellipse cx="753.46" cy="470.43" rx=".52" ry="2.18" transform="rotate(-47.39 753.487 470.439)" fill="#ddddc0" opacity=".4"/></svg>