<svg xmlns="http://www.w3.org/2000/svg" width="4000" height="2000" viewBox="0 0 4000 2000"><path fill="#f3f4e1" stroke="#411f19" stroke-miterlimit="10" stroke-width=".75" d="M2811.45 988.06h945.05v588.16h-945.05z"/><path d="M3345.08 1337.73a104.62 104.62 0 0 1-32.11 29.45c-10.74 6.3-33.44 17.44-38.95-.79-4.56-15.08 9.75-25.67 22.4-29.54 16.73-5.11 32.71-2.41 49.27 1.62 12.89 3.14 26.26 5.77 39.07 1 9.43-3.55 18.49-11.39 18.9-22.16.19-5-1.94-10.29-6.87-12.23-5.39-2.12-12-.41-16.95 2.16-12.09 6.31-18.88 20.53-22.09 33.22-1.33 5.22-1.7 11.27 2 15.67 3.3 4 8.48 4.83 13.35 4.1 12.91-1.94 24.9-12.81 33.35-22.09 7.52-8.25 19.36-25.82 32.54-17.58 5.46 3.42 8.12 10.51 7.8 16.74-.38 7.45-4.9 14.12-9.92 19.32-5.23 5.4-12.17 12-20 12.78a17.31 17.31 0 0 1-18.27-11.82c-5.15-16.15 12.66-26.47 26.59-23.76 7.81 1.53 14.82 5.93 20.68 11.17 4.36 3.91 8.61 9 14.84 9.65 4.84.46 9.51-1.95 10.58-6.93.7-3.24 0-6.85-.22-10.11l-1-13c-1-13.6-4.86-32.88 5.69-43.9 3.46-3.63 8.36-4.66 11.82-.42 3.07 3.77 2.76 8.74 1.89 13.24-1.48 7.68-3.21 15-3.49 22.9-.26 7.36-1.13 30 11.64 28.45 5.64-.67 10-6.83 13.14-11a71.59 71.59 0 0 0 14.4-38.2 1.51 1.51 0 0 0-2.79-.76 109.55 109.55 0 0 0-12.19 41.23c-.41 4.71-1.89 12.39 1.35 16.53 3.11 4 8.67 1.25 12.19-.66a34.28 34.28 0 0 0 12.47-11.63c2.93-4.59 3.74-12.73 8.48-15.69 3.54-2.21 8.05-.23 10.6 2.57 2.88 3.17 3.49 7.69 3.52 11.81.07 7.33-.22 16.55-4.9 22.55h2.11c-5.9-5.84.25-17.41 4.36-22.69 6.32-8.11 16.43-7.63 23 0 6.28 7.22 6.25 17.66 6 26.68a22.27 22.27 0 0 1-.24 3.83c-.32 1.58-2.5 7.27-5.06 2.91-.85-1.46-.31-4.53-.29-6.19a72.43 72.43 0 0 1 2.11-16.18c1.79-7.25 5.74-22.86 16-21.11 8.27 1.4 12.24 10.81 16 17.21 2.94 5 6.75 10.54 12.59 12.37 6 1.89 12-.92 15.8-5.69s5.1-11.45 5.7-17.36c.36-3.53.56-9.87-4.08-10.79s-7.07 5.4-7.89 9c-1.64 7.11.55 15.44 3.84 21.83 7.47 14.53 26.14-2.56 32.1-10.18 3.82-4.9 6.59-11.5 4.35-17.71-2-5.49-8.07-6.32-11.94-2.14-5.25 5.67-.75 14.65 1.39 20.66 3.18 8.93 6.44 17.91 8.18 27.27s1.86 19.3-1.2 28.41c-2.9 8.61-8.88 15.31-15.72 21.07-13.8 11.63-29.65 24.2-47.26 29.16-9.29 2.61-19.28 3-28.43-.37-6.55-2.43-12.27-6.62-17.36-11.34-10-9.31-18-20.7-28.55-29.46-12.53-10.38-27.4-13.62-43.45-12.64-16.88 1-34.53 4.88-47.93 15.77a47.34 47.34 0 0 0-13.48 17.16c-2.1 4.69-4.6 11.55.17 15.46 3.57 2.93 9.21 2.42 12.92 0 5.17-3.31 5.82-10.16 4.21-15.61-4.2-14.18-18.29-21.52-30.83-27-14.56-6.36-33.2-3.8-48.13-.09-18.25 4.53-35.78 12.23-52.81 20.1s-33.53 16.87-49.91 26.08c-15.93 9-32 17.93-49.22 24.23-15.35 5.63-33.68 10.54-50.08 7.33-7.77-1.52-15.67-5.73-17.77-14-2-7.71 1.77-17.83 9.84-20.42 9.62-3.1 12 10.28 6.81 15.81-5.85 6.26-16 6.55-24 5.92-18.58-1.47-34.53-11.46-45.7-26.07-10.15-13.27-17.66-28.21-29.16-40.48a129.54 129.54 0 0 0-38.6-28.17 126.17 126.17 0 0 0-21.8-8.06 101.94 101.94 0 0 1-19.93-7.85c-14.56-7.39-28.77-16.44-40.8-27.52a144.42 144.42 0 0 1-29.86-38.94c-7.22-13.76-13.36-29.74-14.25-45.41-.46-7.89.59-16.63 6-22.8 5.57-6.37 14.4-8.09 22.44-6.42 17.49 3.62 27.35 20.72 35.42 35.07 18.25 32.42 31.1 68.56 33.13 105.93.54 9.93.84 20.34-1.86 30-2.45 8.74-7 16.86-12 24.39a126.46 126.46 0 0 1-36.19 35.91c-14.51 9.44-32.89 18.1-50.54 13.54-18.56-4.8-25.74-23.93-28.23-41.18-2.51-17.46 1-35.71 13.55-48.68s31-23.62 49.5-23.75c9.49-.08 19 1.63 28.44 2.75 8.72 1 17.44 2.13 26.12 3.56 13.52 2.25 28.86 5 38.19-7.88 4.82-6.68 6.2-15 6.36-23.12.15-7.65-.78-13.24-8.22-16.72-5.74-2.68-12.33-2.53-16.28 3-4.35 6.08-4 15.77-2.67 22.77 1.51 7.93 6.21 14.92 11.77 20.62 4.5 4.63 11.25 9 17.8 5.7 6.7-3.34 7.67-11.5 8.15-18.13.62-8.7 1.15-17.74-1.46-26.19s-8.46-15.75-11.14-24.3c-.81-2.58-1.49-5.43.62-7.58 1.5-1.52 4.05-2.72 6-3.63a36.91 36.91 0 0 1 6.51-2.42c4.16-1.11 6.61.52 7.79 4.49 2.68 9-.42 18.65-.34 27.82.08 7.89 2.54 16.14 7.64 22.28 8.48 10.2 24.12 3.4 27.79-7.66 2.12-6.39 3.84-12.81 3.8-19.6 0-5.93.07-14.91-4.79-19.27-4.51-4.05-10.55-1.36-13.88 2.8-4.29 5.36-5.4 12.7-4.26 19.33s4.64 13.82 10.53 17.4c5.71 3.47 11.6 1.2 15.48-3.75a53.77 53.77 0 0 0 5.13-8.77c2.12-4.11 3.9-9.42 7-12.86 4.81-5.27 8.53 2.62 9.79 6.69a26.09 26.09 0 0 1 .37 14.47c-.3 1.09-.84 3.66-2 4.22l-2-.36c-1.7.3-2.57-.38-2.62-2a23.47 23.47 0 0 1-.59-6.36 34.93 34.93 0 0 1 3.61-14.63c3.49-7.19 11.86-19.06 21.28-16.18s12.56 16.61 11.92 25.18a19.31 19.31 0 0 1-2 7.89c-1.73 3-5.95 5.32-8.46 1.56-3-4.54.69-11 3.83-14.34 6.48-6.93 18.78-11.49 26.47-3.7 7.55 7.64 0 19.58-1.25 28.34-.89 6.48-1.14 15.35 4.49 19.93 5.24 4.27 12.38 1.48 16.65-2.8 4.65-4.64 8.57-12.86 8.22-19.53-.27-5-4.67-9.91-10-7.58-5.83 2.56-7.23 10.63-6.57 16.23a18.89 18.89 0 0 0 6.87 12.87c6.64 5.11 15.95 7 23.75 3.56 11.2-5 18.63-19.59 18.9-31.33.1-4.38-2.06-11.71-8-8.43-6.27 3.48-2.87 14.55-2 20 2.91 18.55 8.32 39.06-.29 57a50 50 0 0 1-33.24 26.32c-6.14 1.38-13.24 1.46-18.32-2.82-7-5.88-5.91-14.89-1.63-22 4.64-7.76 12.78-13.26 21-16.71 8.46-3.56 17.67-4 26.62-5.46 11.35-1.89 24.08-4.07 33.87-10.56 8.15-5.42 10.77-13.42 9.77-23-1.34-13-8.22-24.91-15.16-35.68-3.6-5.59-7.24-11.15-11-16.61-4.51-6.49-9.92-12.44-13.75-19.38-8.89-16.13-7.67-36.24 1.77-51.83a58.66 58.66 0 0 1 40.69-27.3c16.63-2.71 34.39 1.92 46.34 14.09 10.77 11 16.71 27.15 14.13 42.45-3 17.75-16.57 34.59-30.71 45.09s-31.42 16.2-48.87 17.36c-3.9.26-8.52.79-12.31-.4-6.61-2.06-5.11-9.13-2.37-13.7 4.83-8 13.26-13.23 21.85-16.44 8.86-3.32 18.36-5.23 27.65-6.91 10.26-1.86 20.82-2.89 31.2-1.41 16.9 2.42 34.65 11.63 45.37 25.12 5.8 7.3 8.19 16 5.64 25.17-2.43 8.68-8 16.18-13.38 23.25-1.17 1.54 1.43 3 2.59 1.52 9.81-13 20-28.87 11.76-45.24-7.25-14.42-23.88-24.63-38.67-29.68-18.29-6.25-37.37-3.58-55.82.53-15.48 3.44-34.55 8.92-41.9 24.68-2.51 5.37-2.57 12.33 3.41 15.31 6.21 3.08 15.49 1.37 22 .49 17-2.29 33.46-8.84 46.8-19.76 12.69-10.39 24.53-25.68 28.18-41.94 3.18-14.18-.62-29.48-9.06-41.17-18.53-25.7-56.21-28.65-81-10.27-12.62 9.36-21.69 23.49-23.86 39.15a54.9 54.9 0 0 0 2.09 24.42c2.88 8.84 8.41 15.8 13.9 23.14 6.47 8.65 12.52 17.81 18.12 27.06 4.77 7.88 9.16 16.67 10.9 25.77 1.12 5.84 1.41 12.75-2 17.94-5.78 8.83-18.74 11.7-28.29 13.82-8.34 1.85-16.78 2.88-25.22 4.13a54.28 54.28 0 0 0-23.19 9.48c-10.33 7.29-21.48 22.49-12.18 34.81 7.25 9.6 20.25 8.24 30.29 4.52 12.9-4.78 24.65-15.7 29.84-28.54 6.92-17.17 2.79-35.91-.13-53.44-.81-4.9-2-10.14-1.86-15.13l.23-2q1.43-4.41 3.63-1.77c1.6 1.1 1.55 1.89 1.62 3.73a32.13 32.13 0 0 1-.59 7.26c-1.29 6.56-6.08 14.44-11 19a20.23 20.23 0 0 1-27.66-.61 16.3 16.3 0 0 1-4.23-8.74c-.73-4.33-.13-12.71 5.13-14.1 7.81-2.06 4.75 10 3.38 13.57-1.64 4.23-4.22 8.51-8.16 10.94-6.17 3.8-12 .62-13.32-6.22-1-5.12-.26-10.75 1-15.74 2-7.68 6.2-16.28 1.1-23.7-9.13-13.29-28.92-5.59-35.68 6-2.65 4.53-4.27 12.73 1.1 16.14 5.83 3.7 11.39-2.34 12.94-7.55 3.5-11.76-2-36.74-18.57-34.38-7.19 1-12.93 7.75-16.67 13.49a38.86 38.86 0 0 0-6.54 22.53c.18 4.3 2.08 13.36 8.48 10.36 5.76-2.7 5.92-12.74 5.26-18s-3.17-14.88-9.42-15.9c-6.85-1.12-10.22 9.09-12.54 13.59-3.73 7.22-10 21.58-19.91 12.66-6.62-6-9.16-16.83-6.4-25.19 1.35-4.09 5.32-10.59 10.54-9.12 5 1.41 5.2 9.19 5.51 13.26a56.25 56.25 0 0 1-3 22.39c-2.44 7.46-9.37 13.5-17.75 11.37-5.3-1.35-8.4-7.51-10.15-12.28a36.47 36.47 0 0 1-2-14.47c.41-9 2.84-18.34-.27-27.08-2.59-7.3-8.58-6.42-14.85-4-5.47 2.1-13 5.27-12.26 12.26.89 8.44 6.89 15.94 10.26 23.49 4.25 9.55 3.84 19.83 3.11 30-.34 4.76-.68 10.2-4.26 13.79-5.16 5.18-12 1.14-16.13-3-7.1-7.06-11.78-15.66-12-25.81-.1-4.92-.13-11.07 3.38-15 4-4.41 10.49-2.7 14.79.37 4.6 3.29 3.84 9.62 3.59 14.64-.26 5.22-1.11 10.57-3.44 15.31-4.67 9.49-13.74 13.21-24 12.6-7.53-.44-15-2.39-22.5-3.45-8.19-1.16-16.41-2.09-24.63-3.08-9.68-1.16-19.47-2.77-29.22-1.34a67.89 67.89 0 0 0-24.49 9.12c-14.31 8.46-27.12 20.06-32 36.4-4.61 15.4-2.76 32.47 2.7 47.41 2.74 7.5 6.67 14.79 13.07 19.79a37.7 37.7 0 0 0 20.64 7.44c16.87 1.17 33.61-7.26 47.19-16.49a130.28 130.28 0 0 0 34.44-34.52 99 99 0 0 0 11.92-22.73c3.11-9 3.49-18.41 3.29-27.83-.78-37.23-12.4-73.55-29.67-106.31-7.53-14.28-15.94-30.84-30.18-39.56-11.51-7-28.29-7.61-37.31 3.74s-6.58 27.61-3.22 40.49a146 146 0 0 0 51.93 78.16 206.87 206.87 0 0 0 21.69 14.33c7.38 4.33 15.27 8.79 23.37 11.63 5.94 2.08 12.17 3.22 18.11 5.41a126.27 126.27 0 0 1 60.39 47.31c9.53 14 17.51 29.43 31.38 39.7 12.69 9.39 29.82 14.55 45.59 12.08 6.37-1 13.5-3.89 16.43-10.09a13.9 13.9 0 0 0-1.87-14.56c-4.16-4.69-10.7-3.52-15.26 0a20.77 20.77 0 0 0-7.7 15.49c-.68 15 13.64 21.93 26.57 22.86 16.69 1.2 34-3.54 49.41-9.58 16.9-6.62 32.76-15.55 48.54-24.44 16.89-9.51 33.94-18.62 51.62-26.6 18.14-8.2 36.92-16.28 56.63-19.77 10.2-1.81 20.81-2.22 31-.16 6.9 1.39 13.66 4.87 19.65 8.5 7.07 4.27 14 10.86 16.09 19.11 1.07 4.16.71 9.39-3.32 11.83-2.5 1.51-6.5 2-9 .17-4.13-3.09-.46-10.41 1.38-14a43.11 43.11 0 0 1 7.51-10.33 58.07 58.07 0 0 1 23.68-14.22 106.77 106.77 0 0 1 28.76-4.85c9.74-.41 19.77.55 28.63 4.92 13 6.43 22 18.43 31.65 28.86 9.36 10.15 20.13 19.64 34.29 21.73 17.94 2.64 35-5.63 49.32-15.6 7.22-5 14.38-10.35 21.11-16 6.25-5.28 11.89-11.35 15.16-18.95 7-16.35 3.23-34.59-2.17-50.79-1.59-4.75-3.33-9.45-5-14.18-1.41-4-4.92-14.13 2.06-15.25s4.78 10.06 3.17 13.32c-2 4-5.11 7.23-8.39 10.13a51.2 51.2 0 0 1-9.53 7c-2.31 1.24-5.26 2.5-7.93 1.68-3.35-1-4.49-4.78-5.5-7.69-1.5-4.32-3-8.89-2.52-13.53.21-1.94 2.2-11.17 5.6-8.69 2.19 1.61.86 8 .5 10.07a35.28 35.28 0 0 1-3 10.23c-2 3.75-5.45 7.06-9.77 7.67-4.6.65-8.41-2-11.26-5.32-6.93-8.15-13.91-30.66-28.88-23.82-6.52 3-9.28 11.18-11.32 17.48-2.68 8.3-4.78 18.62-3.45 27.37.79 5.23 6.48 7.17 9.76 2.47 1.93-2.76 1.65-6.71 1.72-9.89a71.6 71.6 0 0 0-.73-13.41c-1.19-7.08-4.43-13.67-10.48-17.79-5.26-3.59-11.95-4.42-17.55-1.1s-8.88 9.39-11.14 15.18c-2.14 5.46-3.22 12.14 1.34 16.66a1.51 1.51 0 0 0 2.12 0c3.82-4.9 4.81-10.66 5.35-16.71.55-6.23 1.18-13.19-1.86-18.93-2.21-4.16-6.84-7.47-11.67-7.36s-7.94 3.88-9.74 8.11c-2.71 6.41-5 12.11-10.4 16.8-2.59 2.23-6 4.66-9.42 5.54-6.53 1.72-5.57-5.37-5.43-9.39a105.47 105.47 0 0 1 12.33-45.57l-2.8-.76c-1.24 15.64-7.78 31.11-18.87 42.34-3.44 3.48-8.24 5.83-11.39.64-2-3.29-2.34-7.42-2.65-11.15a91.36 91.36 0 0 1 1.53-26.14c1.33-6.45 3.86-13.53 1-19.93-2.1-4.72-6.81-8.17-12.1-6.78-5.56 1.47-9.26 7.28-11.23 12.29-2.49 6.35-2.83 13.36-2.61 20.1.27 8.15 1.11 16.29 1.73 24.42.32 4.2.82 8.43.92 12.64.13 5.6-3.92 8.76-9.31 7.21-3.93-1.14-6.9-4.43-9.79-7.13a66.2 66.2 0 0 0-8-6.52 40.77 40.77 0 0 0-19.05-7.28c-11-1-23.43 5-26.77 16.07a20.37 20.37 0 0 0 16.57 25.79c7 1 13.06-2 18.49-6.16a62 62 0 0 0 13.69-13.88c6.37-9.38 7.88-22.2-.18-31.16-8.27-9.19-20.2-5.16-28.1 2.12-5.14 4.74-9.27 10.42-14.15 15.4a87.44 87.44 0 0 1-19.32 15.09c-5.52 3.08-14.75 6.43-20 1.12-5.9-5.93-1.3-16.42 1.3-22.88 3.17-7.86 7.61-15.69 14.83-20.49 6.16-4.1 19.14-7.83 21.64 2.19 3.56 14.24-13.27 23.4-24.73 25.16-16.06 2.47-31.81-4.83-47.47-7.1-14.23-2.07-30.25-.48-42.92 6.75-10 5.68-17.21 16-14.32 27.86 3.27 13.41 16.8 15.11 28.15 11a102.88 102.88 0 0 0 35.09-22.23 109.17 109.17 0 0 0 13.56-15.72c1.13-1.58-1.47-3.08-2.59-1.52zM3541.33 1249.07a4.78 4.78 0 0 0-4.52 3.66 5.32 5.32 0 0 0 1.85 5.68 8.12 8.12 0 0 0 6.49 1.47 3.83 3.83 0 0 0 1.84-.84 3.08 3.08 0 0 0 .94-2.14 12.12 12.12 0 0 0-.22-3.75 6 6 0 0 0-2.29-3.65 4.36 4.36 0 0 0-4-.69 1.54 1.54 0 0 0-1 1.85 1.53 1.53 0 0 0 1.85 1l.33-.11c.3-.09-.06 0-.07 0h.34c.07 0 .18-.07-.06 0a1.37 1.37 0 0 1 .55.15c-.34-.11 0 0 .07 0l.3.19c.32.18-.13-.14 0 0l.22.2.17.17c0 .06.25.36.06.07.11.18.22.35.32.54s0 .08 0 0a3 3 0 0 1 .15.45c.07.22.12.44.17.66s0 .23.05.34v.09c0 .48.06 1 .06 1.46v.67c0 .22-.09.44 0 .11l-.07.24c0-.08.23-.29.11-.19s.31-.11 0 0 .23 0 0 0l-.4.11h-.34.06a2.74 2.74 0 0 0-.56 0 5.42 5.42 0 0 1-.57 0h-.45.11a6.3 6.3 0 0 1-1-.25l-.32-.11c-.27-.1 0 0 .05 0a1.86 1.86 0 0 1-.59-.31l-.23-.14c-.07-.06-.3-.17 0 0a2 2 0 0 1-.41-.36l-.18-.2c-.21-.23 0 0 0 0s-.33-.54-.35-.57c-.12-.19.09.05 0 .1s-.09-.25-.09-.27-.06-.29-.1-.43 0 .39 0 .07v-.24a2 2 0 0 1 0-.25c0-.31.07-.08 0 0 .08-.09.09-.43.13-.57s.05-.15.07-.23c.11-.36-.12.22 0 0a4.91 4.91 0 0 1 .28-.5l.11-.16-.06.08.06-.07.19-.19.11-.1c.08-.07 0 0-.13.09.11 0 .36-.22.47-.28.26-.14-.25.05-.07 0a2.81 2.81 0 0 0 .31-.08c.19-.06 0 .08-.12 0a2.5 2.5 0 0 0 .38 0 1.5 1.5 0 0 0 0-3zM2903.72 1102.64c25.87-3.4 51.88-6.82 78-6.32 25.9.49 51.44 5.47 77.3 6.55s51.63-2.37 77.44-3.77a281.65 281.65 0 0 1 38.54.23c12.62 1 25.15 3 37.7 4.62 51.43 6.76 103.71 3.74 155.42 2.91 25.5-.41 51.18-.11 76.51-3.51 25.84-3.47 51.21-9.25 77.22-11.6 51.31-4.63 102.94-1.48 154.14 3q9.61.85 19.23 1.75c1.92.18 1.91-2.82 0-3-51.21-4.77-102.72-9-154.18-6.16-25.46 1.38-50.42 5.12-75.48 9.59a376.41 376.41 0 0 1-39.54 5.28c-12.79.9-25.62 1.11-38.43 1.31q-38.92.63-77.85 1.25c-26 .4-52.1.62-78.05-1.71-25.35-2.27-50.35-7.52-75.88-7.56-25.88 0-51.57 3.64-77.42 4.41s-51.47-3.35-77.27-5.55c-26.1-2.24-52-.41-78 2.75-6.49.79-13 1.65-19.45 2.5-1.89.25-1.91 3.25 0 3z" fill="#411f19"/><path d="M3482.16 1069.28q-.69 30.73.38 61.49.3 8.67.74 17.34c.1 1.92 3.1 1.93 3 0q-1.56-30.72-1.37-61.48.06-8.67.25-17.35c0-1.93-3-1.93-3 0zM3288.55 1069.27a402 402 0 0 0 4.74 57.25q1.26 8.12 2.85 16.17c.37 1.89 3.26 1.09 2.89-.8a397 397 0 0 1-7-56.45q-.42-8.09-.5-16.17a1.5 1.5 0 0 0-3 0zM3106.9 1068.16a252.19 252.19 0 0 1-4.46 60.38c-.37 1.88 2.52 2.69 2.89.8a255.25 255.25 0 0 0 4.57-61.18c-.09-1.93-3.09-1.94-3 0z" fill="#411f19"/></svg>