<svg xmlns="http://www.w3.org/2000/svg" width="575" height="350" viewBox="0 0 575 350"><path fill="#30a565" d="M-5.88-5.97h599.97v360.92H-5.88z"/><path d="M110.82 108.65h-9.63a1.2 1.2 0 0 1-1.2-1.2v-5.16a1.2 1.2 0 0 1 1.2-1.2h27.51a1.2 1.2 0 0 1 1.2 1.2v5.16a1.2 1.2 0 0 1-1.2 1.2h-9.63V144a1.24 1.24 0 0 1-1.2 1.19H112a1.24 1.24 0 0 1-1.2-1.19zM133.8 102.29a1.24 1.24 0 0 1 1.2-1.2h5.35a1.24 1.24 0 0 1 1.2 1.2v19.14a11.63 11.63 0 0 1 6.67-2.08c8 0 11.27 6.17 11.27 12.53V144a1.24 1.24 0 0 1-1.2 1.19h-5.09A1.19 1.19 0 0 1 152 144v-12.18c0-3.47-1.95-5.67-5-5.67a5.5 5.5 0 0 0-5.48 4.47V144c0 .69-.38 1.19-1.32 1.19H135a1.24 1.24 0 0 1-1.2-1.19zM177.5 119.35a11.54 11.54 0 0 1 11.77 11.71 16.19 16.19 0 0 1-.12 1.7 1.22 1.22 0 0 1-1.2 1.07h-16.12a6 6 0 0 0 6 5.48 8.81 8.81 0 0 0 4.91-1.57c.63-.38 1.2-.51 1.64 0l2.58 2.95a1 1 0 0 1-.07 1.64 13.53 13.53 0 0 1-9.38 3.46c-7.55 0-12.9-6-12.9-13.22s5.39-13.22 12.89-13.22zm4.41 10.08a4.72 4.72 0 0 0-4.6-4.29 5 5 0 0 0-4.91 4.29zM210.43 102.29a1.2 1.2 0 0 1 1.2-1.2h25.62a1.2 1.2 0 0 1 1.2 1.2v5.16a1.2 1.2 0 0 1-1.2 1.2h-18.63v11.84h15.55a1.23 1.23 0 0 1 1.19 1.19v5.16a1.24 1.24 0 0 1-1.19 1.2h-15.55V144a1.24 1.24 0 0 1-1.2 1.19h-5.79a1.19 1.19 0 0 1-1.2-1.19zM252.74 119.35a13.22 13.22 0 1 1-12.9 13.16 13.15 13.15 0 0 1 12.9-13.16zm0 19.64a6.27 6.27 0 0 0 6.05-6.48 6.06 6.06 0 1 0-6.05 6.48zM282.21 119.35a13.22 13.22 0 1 1-12.91 13.16 13.15 13.15 0 0 1 12.91-13.16zm0 19.64a6.26 6.26 0 0 0 6-6.48 6.05 6.05 0 1 0-6 6.48zM311.3 119.35a14.88 14.88 0 0 1 5.6 1.14v-18.2a1.24 1.24 0 0 1 1.2-1.2h5.35a1.24 1.24 0 0 1 1.2 1.2V144a1.24 1.24 0 0 1-1.2 1.19H321c-.57 0-1-.5-1.2-1.19l-.63-1.95a11.06 11.06 0 0 1-8.25 3.77c-6.86 0-12.09-6-12.09-13.22s4.98-13.25 12.47-13.25zm.57 19.64a5.48 5.48 0 0 0 5.28-4.09v-7.3a8.12 8.12 0 0 0-4.91-1.45 6.19 6.19 0 0 0-6.1 6.42c0 3.53 2.39 6.43 5.73 6.43zM348.07 102.29a1.2 1.2 0 0 1 1.2-1.2h14.79a14 14 0 1 1 .07 28.08h-7.87V144a1.24 1.24 0 0 1-1.2 1.19h-5.79a1.19 1.19 0 0 1-1.2-1.19zm15.49 19.2a6.49 6.49 0 0 0 6.48-6.55 6.28 6.28 0 0 0-6.48-6.1h-7.3v12.65zM382.64 102.29a1.24 1.24 0 0 1 1.2-1.2h5.28a1.24 1.24 0 0 1 1.2 1.2V144a1.24 1.24 0 0 1-1.2 1.19h-5.28a1.24 1.24 0 0 1-1.2-1.19zM406.12 129.24a16.27 16.27 0 0 1 4.6.69c.06-3.21-.94-4.35-3.27-4.35a30.27 30.27 0 0 0-7.05 1c-.89.25-1.33-.32-1.45-1.13l-.57-3.28a1.24 1.24 0 0 1 .88-1.57 33.63 33.63 0 0 1 8.56-1.2c7.87 0 9.7 4.09 9.7 11V144a1.24 1.24 0 0 1-1.2 1.19h-2.26c-.44 0-.76-.18-1.07-.88l-.76-1.7a10.8 10.8 0 0 1-7.68 3.21c-5 0-8.5-3.27-8.5-8.62 0-4.5 3.65-7.96 10.07-7.96zm.13 11.2a5.82 5.82 0 0 0 4.34-2.45v-3.47a9.91 9.91 0 0 0-3.52-.75c-2.46 0-4.09 1.38-4.09 3.4a3.13 3.13 0 0 0 3.27 3.27zM436.22 119.35a11.54 11.54 0 0 1 9.32 4.47 1.19 1.19 0 0 1-.32 1.76l-2.89 2.77c-.57.51-1.14.19-1.58-.18a5.89 5.89 0 0 0-4.34-2 6.32 6.32 0 0 0-6.17 6.42 6.23 6.23 0 0 0 6.11 6.42c2.7 0 3.9-1.32 5-2.39a1.19 1.19 0 0 1 1.58-.19l2.7 2.33c.63.51.88 1.14.44 1.77a11.21 11.21 0 0 1-9.94 5.28 13.28 13.28 0 0 1-13.35-13.22 13.46 13.46 0 0 1 13.44-13.24zM462.54 119.35a11.54 11.54 0 0 1 11.77 11.71 16.19 16.19 0 0 1-.12 1.7 1.22 1.22 0 0 1-1.2 1.07h-16.12a6 6 0 0 0 6.05 5.48 8.81 8.81 0 0 0 4.91-1.57c.63-.38 1.19-.51 1.63 0l2.59 2.95a1 1 0 0 1-.07 1.64 13.53 13.53 0 0 1-9.38 3.46c-7.55 0-12.9-6-12.9-13.22s5.35-13.22 12.84-13.22zm4.46 10.08a4.72 4.72 0 0 0-4.6-4.29 5 5 0 0 0-4.91 4.29zM143.79 182.05l-.71 1.63a11.37 11.37 0 0 1-.76 1.46 9.63 9.63 0 0 1 1.43.18 5.58 5.58 0 0 1 .13 1h-4.38a3.28 3.28 0 0 1 .36-1 4.49 4.49 0 0 1 .95-.21l5.9-12.29h1.08l3.4 12.25a7.55 7.55 0 0 1 1.1.17 6.27 6.27 0 0 1 .12 1.09h-4.58a4.25 4.25 0 0 1 .31-1 13 13 0 0 1 1.41-.23 6.49 6.49 0 0 1-.59-1.57l-.37-1.45zm3-7.26a16 16 0 0 1-.7 1.85l-1.88 4.36h4.16l-1.15-4.37a10.14 10.14 0 0 1-.27-1.81zM160 178.77a3.14 3.14 0 0 1 2.9-1.73 1.86 1.86 0 0 1 2.1 1.73h.09A3 3 0 0 1 168 177c1.13 0 2.16.46 2.16 2.32 0 1.15-.6 4.74-.71 5.61a1 1 0 0 0 .1.33l1.46-.16a2.68 2.68 0 0 1-.3 1.07 7.65 7.65 0 0 1-2.25.44 2.89 2.89 0 0 1-.67-1.41 50.83 50.83 0 0 0 .74-5.34c0-1-.38-1.6-1.29-1.6A2.85 2.85 0 0 0 165 180l-.71 6.28a5.67 5.67 0 0 1-.9.07 2.25 2.25 0 0 1-.68-.07c.44-3 .74-5.69.74-6.52s-.44-1.47-1.3-1.47a2.9 2.9 0 0 0-2.25 1.71l-.7 6.28a6 6 0 0 1-.92.07 2.4 2.4 0 0 1-.7-.07l1-7.88-1.4.15a2.16 2.16 0 0 1 .35-1 3.55 3.55 0 0 1 1.75-.44 2.23 2.23 0 0 1 .65.08l-.17 1.54zM172.57 183a7.37 7.37 0 0 1 1-3.85 4.21 4.21 0 0 1 3.59-2.1c1.94 0 3.14 1.28 3.14 3.56a7.66 7.66 0 0 1-1.18 4.32 4.06 4.06 0 0 1-3.36 1.73c-2.09-.01-3.19-1.27-3.19-3.66zm5.3 1.22a7.29 7.29 0 0 0 .74-3.43c0-1.55-.57-2.64-1.66-2.64a2.47 2.47 0 0 0-2.15 1.53 7.18 7.18 0 0 0-.57 3.15c0 1.66.57 2.71 1.67 2.71a2.3 2.3 0 0 0 1.97-1.33zM188.76 184.9a3 3 0 0 0 .09.4l1.47-.14a2.68 2.68 0 0 1-.3 1.05 7.53 7.53 0 0 1-2.25.44 5.44 5.44 0 0 1-.48-1.41h-.1a3.54 3.54 0 0 1-2.82 1.41c-1.45 0-2.52-1-2.52-3.38a7.51 7.51 0 0 1 1.24-4.31 4.31 4.31 0 0 1 3.55-1.92 3.82 3.82 0 0 1 1.53.36l.49-3.66-1.37.15a2.14 2.14 0 0 1 .34-1 4.22 4.22 0 0 1 1.87-.44 4.67 4.67 0 0 1 .78.08zm-.75-6.47a2.66 2.66 0 0 0-1.31-.34 2.86 2.86 0 0 0-2.37 1.43 7.11 7.11 0 0 0-.84 3.51c0 1.62.67 2.29 1.68 2.29a2.52 2.52 0 0 0 2.12-1.36zM193.54 182.38v.62c0 1.56.54 2.33 1.59 2.33a5.84 5.84 0 0 0 2.86-.9 2.66 2.66 0 0 1-.23 1.05 5.14 5.14 0 0 1-3.32 1.22c-1.7 0-2.59-1.2-2.59-3.24a7.61 7.61 0 0 1 1.43-4.79 4.32 4.32 0 0 1 3.3-1.58 2 2 0 0 1 2.19 2.1c0 1.47-.95 3.02-5.23 3.19zm.75-3.11a5.33 5.33 0 0 0-.63 2c3.15-.11 3.57-1.08 3.57-2 0-.65-.29-1.16-1-1.16a2.29 2.29 0 0 0-1.94 1.16zM202.89 179.16a2.78 2.78 0 0 1 2.54-2.12 2.38 2.38 0 0 1 .91.17 2.58 2.58 0 0 1 .14.86 3.18 3.18 0 0 1-.14.88 2.3 2.3 0 0 0-1.3-.39 2.49 2.49 0 0 0-2.25 1.87l-.59 5.86a5.91 5.91 0 0 1-.91.07 2.43 2.43 0 0 1-.71-.07l1-7.88-1.41.15a2.14 2.14 0 0 1 .34-1 3.63 3.63 0 0 1 1.76-.44 2.23 2.23 0 0 1 .65.08l-.25 1.93zM210 178.77a3.16 3.16 0 0 1 3-1.77c1.14 0 2.21.46 2.21 2.36 0 1.15-.59 4.7-.7 5.57a1 1 0 0 0 .09.33l1.47-.16a2.68 2.68 0 0 1-.3 1.07 7.77 7.77 0 0 1-2.26.44 2.86 2.86 0 0 1-.66-1.41 52.18 52.18 0 0 0 .74-5.3c0-1-.38-1.64-1.3-1.64A2.9 2.9 0 0 0 210 180l-.71 6.28a5.91 5.91 0 0 1-.91.07 2.43 2.43 0 0 1-.71-.07l1-7.88-1.39.15a2.14 2.14 0 0 1 .34-1 3.58 3.58 0 0 1 1.75-.44 2.23 2.23 0 0 1 .65.08l-.17 1.54zM223 182.38v.62c0 1.56.54 2.33 1.59 2.33a5.84 5.84 0 0 0 2.86-.9 2.66 2.66 0 0 1-.23 1.05 5.17 5.17 0 0 1-3.32 1.22c-1.7 0-2.6-1.2-2.6-3.24a7.61 7.61 0 0 1 1.44-4.79A4.3 4.3 0 0 1 226 177a2 2 0 0 1 2.19 2.1c-.01 1.56-.97 3.11-5.19 3.28zm.75-3.11a5.16 5.16 0 0 0-.63 2c3.14-.11 3.56-1.08 3.56-2 0-.65-.28-1.16-1-1.16a2.29 2.29 0 0 0-1.98 1.16zM234.64 185.24a3.31 3.31 0 0 1-2.69 1.41c-1.41 0-2.46-1-2.46-3.41a7.48 7.48 0 0 1 1.26-4.31 4.3 4.3 0 0 1 3.55-1.93 5 5 0 0 1 2.84.86l-.91 7a2 2 0 0 0 .09.4l1.49-.14a2.54 2.54 0 0 1-.31 1.05 8.13 8.13 0 0 1-2.27.44 5.1 5.1 0 0 1-.49-1.41zm.88-6.91a2.63 2.63 0 0 0-1.24-.28 2.79 2.79 0 0 0-2.33 1.43 7.71 7.71 0 0 0-.82 3.55c0 1.62.63 2.32 1.61 2.32a2.41 2.41 0 0 0 2-1.39zM241.51 174.94a2.66 2.66 0 0 1 1.22-.31l-.29 2.73h2.64v.35a4.77 4.77 0 0 1-.07.76h-2.75l-.53 5.42c-.1 1 .13 1.5.91 1.5a4.82 4.82 0 0 0 1.63-.36 2.47 2.47 0 0 1-.25 1 4.83 4.83 0 0 1-2.22.61c-1.23 0-1.75-.7-1.75-1.89s.5-4.38.82-6.29h-1.37a2.41 2.41 0 0 1 .36-1 4.62 4.62 0 0 1 1.09-.33zM247.46 182.38v.62c0 1.56.53 2.33 1.58 2.33a5.84 5.84 0 0 0 2.86-.9 2.49 2.49 0 0 1-.23 1.05 5.12 5.12 0 0 1-3.31 1.22c-1.7 0-2.6-1.2-2.6-3.24a7.61 7.61 0 0 1 1.43-4.79 4.33 4.33 0 0 1 3.3-1.58 2 2 0 0 1 2.2 2.1c0 1.47-.96 3.02-5.23 3.19zm.74-3.11a5.52 5.52 0 0 0-.63 2c3.15-.11 3.57-1.08 3.57-2 0-.65-.29-1.16-1-1.16a2.31 2.31 0 0 0-1.94 1.16zM256.8 179.16a2.79 2.79 0 0 1 2.54-2.12 2.4 2.4 0 0 1 .92.17 2.85 2.85 0 0 1 .13.86 3.6 3.6 0 0 1-.13.88 2.3 2.3 0 0 0-1.3-.39 2.48 2.48 0 0 0-2.25 1.87l-.59 5.86a6 6 0 0 1-.92.07 2.36 2.36 0 0 1-.7-.07l1-7.88-1.41.15a2.14 2.14 0 0 1 .34-1 3.55 3.55 0 0 1 1.75-.44 2.23 2.23 0 0 1 .65.08l-.25 1.93zM260.81 178.51a2.29 2.29 0 0 1 .3-1 3.9 3.9 0 0 1 1.82-.4 2.43 2.43 0 0 1 .68.1l1.2 5.49a18.71 18.71 0 0 1 .27 2.33h.13a38.35 38.35 0 0 0 2.71-6.43 1 1 0 0 0-.07-.32l-1.53.13a1.94 1.94 0 0 1 .42-1 7.92 7.92 0 0 1 2.16-.38 2.56 2.56 0 0 1 .61 1.26 53.37 53.37 0 0 1-4.64 9.25 8.74 8.74 0 0 1-3.79 3.24 3.2 3.2 0 0 1-.42-1.45 5.9 5.9 0 0 0 3.47-2.63l-2-8.34zM279.48 177.36a4.1 4.1 0 0 1-.06 1.11H277l-1.13 10.72a6.48 6.48 0 0 1-1 .07 2.65 2.65 0 0 1-.74-.07l1.31-10.72h-1.47a2.74 2.74 0 0 1 .37-1 6.76 6.76 0 0 1 1.22-.33l.13-1c.34-2.67 2-3.72 3.72-3.72a5.75 5.75 0 0 1 1.85.33 6.61 6.61 0 0 1-.53 2.25 2.33 2.33 0 0 1-1-.31l.18-1.2a1.38 1.38 0 0 0-.6-.13c-.89 0-1.86.61-2.09 2.63l-.17 1.39zM279.69 183a7.37 7.37 0 0 1 .95-3.85 4.21 4.21 0 0 1 3.59-2.1c1.94 0 3.15 1.28 3.15 3.56a7.59 7.59 0 0 1-1.19 4.32 4.06 4.06 0 0 1-3.35 1.73c-2.04-.01-3.15-1.27-3.15-3.66zm5.3 1.22a7.17 7.17 0 0 0 .75-3.43c0-1.55-.58-2.64-1.66-2.64a2.47 2.47 0 0 0-2.16 1.53 7.18 7.18 0 0 0-.57 3.15c0 1.66.57 2.71 1.68 2.71a2.29 2.29 0 0 0 1.97-1.33zM291.67 179.16a2.78 2.78 0 0 1 2.53-2.16 2.4 2.4 0 0 1 .92.17 2.85 2.85 0 0 1 .13.86 3.17 3.17 0 0 1-.13.88 2.3 2.3 0 0 0-1.3-.39 2.49 2.49 0 0 0-2.25 1.87l-.59 5.86a6 6 0 0 1-.92.07 2.4 2.4 0 0 1-.7-.07l1-7.88-1.41.15a2.14 2.14 0 0 1 .34-1 3.6 3.6 0 0 1 1.76-.44 2.2 2.2 0 0 1 .64.08l-.24 1.93zM301.77 174.94a2.67 2.67 0 0 1 1.23-.31l-.29 2.73h2.63a2.18 2.18 0 0 1 0 .35 4.78 4.78 0 0 1-.08.76h-2.74l-.54 5.42c-.09 1 .14 1.5.92 1.5a4.82 4.82 0 0 0 1.62-.36 2.47 2.47 0 0 1-.25 1 4.76 4.76 0 0 1-2.21.61c-1.24 0-1.76-.7-1.76-1.89s.5-4.38.82-6.29h-1.37a2.56 2.56 0 0 1 .36-1 4.76 4.76 0 0 1 1.09-.33zM308.18 173.74l-1.37.15a2.14 2.14 0 0 1 .34-1 4.22 4.22 0 0 1 1.87-.44 4.67 4.67 0 0 1 .78.08l-.28 2.76a24.47 24.47 0 0 1-.54 3.24h.19a3.24 3.24 0 0 1 2.88-1.52c1.13 0 2.22.46 2.22 2.36 0 1.15-.59 4.7-.71 5.57a1 1 0 0 0 .1.33l1.46-.16a2.68 2.68 0 0 1-.3 1.07 7.77 7.77 0 0 1-2.25.44 2.89 2.89 0 0 1-.67-1.41 49.73 49.73 0 0 0 .75-5.3c0-1-.44-1.64-1.38-1.64a2.85 2.85 0 0 0-2.31 1.77l-.7 6.22a6 6 0 0 1-.92.07 2.4 2.4 0 0 1-.7-.07zM316.76 178.56a2.16 2.16 0 0 1 .35-1 4.18 4.18 0 0 1 1.89-.44 4.79 4.79 0 0 1 .78.08l-1 7.74a1.22 1.22 0 0 0 .1.33l1.49-.16a2.69 2.69 0 0 1-.31 1.07 8.34 8.34 0 0 1-2.27.44 2.89 2.89 0 0 1-.67-1.41l1-6.83zm3.67-4.67a1 1 0 0 1-1 1.13c-.69 0-1-.39-1-1.13a1 1 0 0 1 1-1 1 1 0 0 1 1 1zM327 178.3a2.42 2.42 0 0 0-1.15-.25c-.74 0-1.35.4-1.35 1.14 0 1.91 3.51 2.2 3.51 4.56 0 2-1.7 2.9-3.47 2.9-1.53 0-2.71-.53-2.71-1.93a1.94 1.94 0 0 1 1.54-.68 1.38 1.38 0 0 0 1.6 1.52 1.35 1.35 0 0 0 1.51-1.27c0-1.87-3.51-2-3.51-4.56 0-1.51 1.07-2.69 3.15-2.69a5.56 5.56 0 0 1 2.19.47 8.12 8.12 0 0 1-.36 2.12 2.33 2.33 0 0 1-1.05-.28zM337.27 185.14a2.69 2.69 0 0 1-.31 1.07 8.34 8.34 0 0 1-2.27.44 2.89 2.89 0 0 1-.67-1.41l1.51-11.5-1.37.15a2.14 2.14 0 0 1 .34-1 4.22 4.22 0 0 1 1.87-.44 4.67 4.67 0 0 1 .78.08L335.68 185a1.22 1.22 0 0 0 .1.33zM339 178.56a2.14 2.14 0 0 1 .34-1 4.25 4.25 0 0 1 1.89-.44 4.67 4.67 0 0 1 .78.08l-.95 7.74a1.22 1.22 0 0 0 .1.33l1.48-.16a2.68 2.68 0 0 1-.3 1.07 8.34 8.34 0 0 1-2.27.44 2.89 2.89 0 0 1-.67-1.41l1-6.83zm3.66-4.67a1 1 0 0 1-1 1.13c-.68 0-1.05-.39-1.05-1.13a1 1 0 0 1 1.05-1 1 1 0 0 1 1 1zM349.55 177.36a4.1 4.1 0 0 1-.06 1.11h-2.38L346 189.19a6.48 6.48 0 0 1-1 .07 2.77 2.77 0 0 1-.75-.07l1.32-10.72h-1.47a2.93 2.93 0 0 1 .36-1 7 7 0 0 1 1.22-.33l.14-1c.34-2.67 2-3.72 3.72-3.72a5.75 5.75 0 0 1 1.85.33 6.4 6.4 0 0 1-.54 2.25 2.33 2.33 0 0 1-1-.31l.17-1.2a1.34 1.34 0 0 0-.59-.13c-.89 0-1.87.61-2.09 2.63l-.18 1.39zM351.46 182.38v.62c0 1.56.53 2.33 1.58 2.33a5.84 5.84 0 0 0 2.86-.9 2.66 2.66 0 0 1-.23 1.05 5.14 5.14 0 0 1-3.32 1.22c-1.7 0-2.59-1.2-2.59-3.24a7.61 7.61 0 0 1 1.43-4.79 4.32 4.32 0 0 1 3.3-1.58 2 2 0 0 1 2.19 2.1c0 1.47-.95 3.02-5.22 3.19zm.74-3.11a5.52 5.52 0 0 0-.63 2c3.15-.11 3.57-1.08 3.57-2 0-.65-.29-1.16-1-1.16a2.29 2.29 0 0 0-1.94 1.16zM366.9 185.24a3.31 3.31 0 0 1-2.69 1.41c-1.41 0-2.46-1-2.46-3.41a7.48 7.48 0 0 1 1.26-4.31 4.3 4.3 0 0 1 3.55-1.89 5 5 0 0 1 2.84.86l-.91 7a2 2 0 0 0 .09.4l1.49-.14a2.54 2.54 0 0 1-.31 1.05 8.13 8.13 0 0 1-2.27.44 5.1 5.1 0 0 1-.49-1.41zm.88-6.91a2.63 2.63 0 0 0-1.24-.28 2.79 2.79 0 0 0-2.33 1.43 7.71 7.71 0 0 0-.82 3.55c0 1.62.63 2.32 1.61 2.32a2.41 2.41 0 0 0 2-1.39zM374.55 178.77a3.16 3.16 0 0 1 2.94-1.73c1.14 0 2.21.46 2.21 2.36 0 1.15-.59 4.7-.71 5.57a1 1 0 0 0 .1.33l1.47-.16a2.54 2.54 0 0 1-.31 1.07 7.71 7.71 0 0 1-2.25.44 2.89 2.89 0 0 1-.67-1.41 49.73 49.73 0 0 0 .75-5.3c0-1-.38-1.64-1.3-1.64a2.9 2.9 0 0 0-2.32 1.71l-.71 6.28a6 6 0 0 1-.92.07 2.4 2.4 0 0 1-.7-.07l1.05-7.88-1.39.15a2.14 2.14 0 0 1 .34-1 3.55 3.55 0 0 1 1.75-.44 2.23 2.23 0 0 1 .65.08l-.17 1.54zM389 184.9a2 2 0 0 0 .09.4l1.47-.14a2.68 2.68 0 0 1-.3 1.05 7.59 7.59 0 0 1-2.26.44 5.09 5.09 0 0 1-.47-1.41h-.1a3.55 3.55 0 0 1-2.82 1.41c-1.45 0-2.52-1-2.52-3.38a7.51 7.51 0 0 1 1.24-4.31 4.31 4.31 0 0 1 3.55-1.92 3.86 3.86 0 0 1 1.53.36l.49-3.66-1.37.15a2.14 2.14 0 0 1 .34-1 4.22 4.22 0 0 1 1.87-.44 4.67 4.67 0 0 1 .78.08zm-.75-6.47a2.66 2.66 0 0 0-1.31-.34 2.86 2.86 0 0 0-2.37 1.43 7.11 7.11 0 0 0-.84 3.51c0 1.62.67 2.29 1.68 2.29a2.53 2.53 0 0 0 2.12-1.36zM401 185.24a3.31 3.31 0 0 1-2.69 1.41c-1.41 0-2.46-1-2.46-3.41a7.48 7.48 0 0 1 1.26-4.31 4.3 4.3 0 0 1 3.55-1.89 5 5 0 0 1 2.84.86l-.91 7a2 2 0 0 0 .09.4l1.49-.14a2.54 2.54 0 0 1-.31 1.05 8.13 8.13 0 0 1-2.27.44 5.1 5.1 0 0 1-.49-1.41zm.88-6.91a2.63 2.63 0 0 0-1.24-.28 2.79 2.79 0 0 0-2.33 1.43 7.71 7.71 0 0 0-.82 3.55c0 1.62.63 2.32 1.61 2.32a2.41 2.41 0 0 0 2-1.39zM411.05 177.36a4.55 4.55 0 0 1-.05 1.11h-2.39l-1.12 10.72a6.52 6.52 0 0 1-1 .07 2.69 2.69 0 0 1-.74-.07l1.32-10.72h-1.47a2.73 2.73 0 0 1 .36-1 6.76 6.76 0 0 1 1.22-.33l.13-1c.35-2.67 2-3.72 3.72-3.72a5.7 5.7 0 0 1 1.85.33 6.39 6.39 0 0 1-.53 2.25 2.29 2.29 0 0 1-1-.31l.17-1.2a1.34 1.34 0 0 0-.59-.13c-.9 0-1.87.61-2.1 2.63l-.17 1.39zM413.55 174.94a2.66 2.66 0 0 1 1.22-.31l-.28 2.73h2.63a2.18 2.18 0 0 1 0 .35 4.78 4.78 0 0 1-.08.76h-2.75l-.53 5.42c-.1 1 .13 1.5.92 1.5a4.82 4.82 0 0 0 1.62-.36 2.47 2.47 0 0 1-.25 1 4.83 4.83 0 0 1-2.21.61c-1.24 0-1.76-.7-1.76-1.89s.5-4.38.82-6.29h-1.37a2.56 2.56 0 0 1 .36-1 4.62 4.62 0 0 1 1.09-.33zM419.5 182.38v.62c0 1.56.54 2.33 1.58 2.33a5.91 5.91 0 0 0 2.87-.9 2.66 2.66 0 0 1-.23 1.05 5.17 5.17 0 0 1-3.32 1.22c-1.7 0-2.6-1.2-2.6-3.24a7.67 7.67 0 0 1 1.43-4.79 4.33 4.33 0 0 1 3.3-1.58 2 2 0 0 1 2.2 2.1c0 1.47-.96 3.02-5.23 3.19zm.75-3.11a5.16 5.16 0 0 0-.63 2c3.14-.11 3.56-1.08 3.56-2 0-.65-.28-1.16-1-1.16a2.29 2.29 0 0 0-1.93 1.16zM428.85 179.16a2.78 2.78 0 0 1 2.53-2.12 2.4 2.4 0 0 1 .92.17 2.85 2.85 0 0 1 .13.86 3.17 3.17 0 0 1-.13.88 2.3 2.3 0 0 0-1.3-.39 2.49 2.49 0 0 0-2.25 1.87l-.59 5.86a5.91 5.91 0 0 1-.91.07 2.43 2.43 0 0 1-.71-.07l1-7.88-1.41.15a2.14 2.14 0 0 1 .34-1 3.6 3.6 0 0 1 1.76-.44 2.2 2.2 0 0 1 .64.08l-.24 1.93zM433.94 185.3a1.14 1.14 0 0 1-1.15 1.26c-.76 0-1.16-.42-1.16-1.26a1.15 1.15 0 0 1 1.16-1.17 1.07 1.07 0 0 1 1.15 1.17zM261.63 231.47h13.8l-11.61 8.58 4.71-13.7 4.68 13.27-11.58-8.15zM280.6 231.47h13.8l-11.61 8.58 4.71-13.7 4.68 13.27-11.58-8.15zM299.57 231.47h13.8l-11.61 8.58 4.71-13.7 4.68 13.27-11.58-8.15z" fill="#fff"/><g opacity=".54" fill="#fff"><path d="M503.55 258.05c-4.81-3.17-15.78-4.4-21.34-2.12-.81-.9-8.12-6.4-7.8-3.58-.46 2.17-5.19 5.08-4.25 6.54 2.76 1.7 6.94 5.22 10.27 3.15.7.72 1.46-.68 2.11-.88.87 1.23 4 .94 5.19 1.12 3.78.1 9.82 3.5 12.6.84-.41-2.18 4.37-2.45 3.22-5.07z" opacity=".3"/><path d="M474.6 251.15c0-.08.07 0 .1 0s.06-.2.12-.17c.49.22.86.07 1.42.37 0-.08 0-.05-.05-.08a33.12 33.12 0 0 1 4 2.06 14.87 14.87 0 0 0 2.65 2.61c0 .15-.05.2.07.2-.23.27-.37.21-.6.39a4 4 0 0 1-1-.58c-.15-.25-.35-.57-.61-.61-1.42-2.01-4.5-2.34-6.1-4.19z" fill-rule="evenodd"/><path d="M469.81 258.32c0-.09.06 0 .08-.05s-.09-.19 0-.21c.45-.16.49-.54.92-.84-.06-.07 0 0-.09 0a11.69 11.69 0 0 0 2.2-3.19c.83-.53 1.09-2 1.11-2.9.15-.06.2-.06.14-.16.36.08.37.22.64.32.56 1.53-2.93 7.71-5 7.03z" fill-rule="evenodd"/><path d="M482.86 260.41c.09 0 0 .1 0 .14s.2 0 .17.13a3.31 3.31 0 0 1-1.45 1.89c0 .08.09 0 .14 0-2.13 1.42-5 .5-7.16-.09-1.58-1.09-3.72-2.07-5-3.53 0-.21 0-.24-.15-.35.32-.17.5 0 .81-.1 3.27 2.5 9.01 5.92 12.64 1.91zM503.54 260.6c-.09 0 0-.17 0-.24-.42-.1-.13-.93-.27-1.37 0-.17 0 .15-.08 0s.08-1.07-.13-1.19a5 5 0 0 1-.7-.27c0 .08.12.08.16.12a32.18 32.18 0 0 0-10.65-2c-2.58-.25-6.42-1.16-8.6.41-.23 0-.28 0-.37.27-.24-.25 0-.62-.08-.94a3.75 3.75 0 0 1 3.63-1c5.54-.06 11.55.23 16.8 2.5a1.14 1.14 0 0 1 .65 1.41 9 9 0 0 1-.36 2.3z" fill-rule="evenodd"/><path d="M500.21 263.84c-.09 0 0 0 0-.06s-.2 0-.19-.08a.61.61 0 0 0 0-.3c-.14 0-.09-.08-.08-.21a.56.56 0 0 1-.06-.34h-.05c0-.7-.32-1.32.14-2 .26-.3.85-.38 1-.6a2 2 0 0 0 1.38-.27 1 1 0 0 0 .7-.27c.07 0 .15.16.21 0 .08.12.08.17.15.1 0 .37-.09.4-.09.68-.19.12-.39.3-.56.39-.27-.07-.27.05-.47.08-.29.31-1.07.2-1.54.54-.11 0-.22.16-.06.05-.3-.34-.42-.3.13-.2-.03.84.26 2.09-.61 2.49z" fill-rule="evenodd"/><path d="M500.3 263.6c.09 0 0 .1 0 .14s.21.06.14.17a3.16 3.16 0 0 1-2.59.87c0 .09.1 0 .15.06-2.72.12-5.51-1.2-8.12-1.4-2.08-.85-4.81-.85-6.81-2-.1-.21-.07-.25-.32-.32.26-.25.54-.1.81-.31a21.48 21.48 0 0 0 4.17 1c3.98.61 8.59 2.76 12.57 1.79zM488.35 259.44c0-.09.08 0 .12 0s0-.21.09-.2c.64.13 1-.09 1.78.09 0-.09-.07 0-.09-.07 1.73.18 3.67.72 5.34.74 1.25.64 3.13.56 4.49.78.09.16.09.21.25.17-.13.34-.32.32-.45.6a9.83 9.83 0 0 1-2.62-.14c-2.84-.66-6.35-.41-8.91-1.97zM488 240.15c0 .13-.19 0-.28.08s.13.26-.08.28a6.44 6.44 0 0 1-4.43-.76c-.07.1.13.11.18.18-2.15-1.3-4.39.06-6.74.09-2.08-.32-4.17-.88-4.61 1.64a4.91 4.91 0 0 0-1.4 4c.17.32.79.44 1.41 1 1.24 1.36 1.05 2.79 2.17 3.75 0 .23 0 .32.26.27-.13.46-.67.38-1 .47-1.28-.88-1.43-2.54-2.32-3.65-3.24-1-1.46-5.13-.07-7 .41-2.2 3.34-2.32 4.92-1.94 2 .32 3.26-.53 5.66-.54 2.18.21 3.97 2.06 6.33 2.13z" fill-rule="evenodd"/><path d="M470 258.36a18 18 0 0 1-3.81-2.48c-1 .08-3.79-3.28-3.61-5.41-.12 0 0 .39 0 .56.13-3.72-4.66-4.77-4.26-8.48 1.6-5.58 3.76-11.6 9.8-13.58 3.16-2 6.18-1 9.61-.58 4.29-1.61 10.7.05 11.73 5.06 2.76 3.09 3.41 6.39-1.62 7.56 2.76-2.67 3.68-3.16.75-6.6-.81-1-.69-2.67-1.66-3.27-2.59-1.76-5-2.79-8.26-1.61-2.71.6-5.16-.9-7.23-.34-3.16 1-7.19 2.82-8.8 5.82-.6 2.83-3.68 6.48-2.58 9.34 6.82 6.45.41 6.65 9.94 14.01z" fill-rule="evenodd"/><path d="M479.65 236.57c-.29.05-.13 0-.32-.07.19-.26-.07-1.19-.15-1.3s.12-.2 0-.31c.29-.23-.08-.46 0-.72a3.85 3.85 0 0 1 .05-2.85A7 7 0 0 0 480 230c.14 0 .34-.12.32-.28.21.07.1-.19.18-.32s.25-.13.07-.38c.18.05 0-.13.07-.2.12-.25.36-.51.36-.8s.4-.11.39-.36c.71-.21 2.18 1.53 1.76 2 .21.55-.61.34-.65.7a4.91 4.91 0 0 0-1.81 1.9c.12.59-.53 2.28-.58 3.08.15.25-.19.38 0 .58-.2.29-.11.58-.46.65zM472.09 235.73c-.3 0-.13 0-.32-.07a.59.59 0 0 0-.11-.77c.11-.1.09-.09 0-.15.2-.24-.17-.14 0-.31a9.92 9.92 0 0 0-.53-1.37 3.82 3.82 0 0 1 .13-1.58c.07-.1.17-.15.11-.27a1.27 1.27 0 0 0 .41-.78c.34-.05.14-.27.33-.24-.12-.24.17-.36-.12-.54.19 0 0-.1 0-.15s.08-.44-.07-.59.27-.17.11-.31a3 3 0 0 1 2.35.3c.38.13.15.42.35.64 0 .24-.24.49-.44.58 0 .23-.12.4-.31.59-.57.39-.77 1.12-1.11 1.55.13.2-.08.37.07.55-.14.16-.05.31-.18.48.16.27-.17.77-.14 1.19a1.27 1.27 0 0 0 0 .58c-.1.09-.16.14-.05.25-.1.08-.15.25-.25.28s.1.09-.23.14zM467.79 239.72c-.2.22-.14 0-.3.15 0-.36-.76-.8-.9-.82 0-.34-.26-.05-.24-.34a6.24 6.24 0 0 0-1.42-.77 4.45 4.45 0 0 1-1.39-1.9 4.63 4.63 0 0 0-.27-1.32 1.28 1.28 0 0 0 .09-1c0-.14.16-.26-.11-.42.2 0 0-.16 0-.24 0-.28.14-.61 0-.86s.3-.23.14-.39a2.49 2.49 0 0 1 2.34.41c.38.19.09.5.29.76 0 .26-.24.48-.44.57.09.27-.22.48-.32.72-.31.57.18 1.24.2 1.73.26.07.25.38.51.43 0 .25.25.32.29.56.41.18.55.84.89 1.2a2 2 0 0 0 .47.53c0 .16 0 .24.18.28 0 .14.09.32 0 .43s.2.02-.01.29zM466.36 246.05c.05.29-.05.13-.06.32a1.19 1.19 0 0 0-1 .06c-.09-.11-.1-.1-.2 0-.23-.24-.23.12-.37-.13a7.54 7.54 0 0 0-1.47.15 3.77 3.77 0 0 1-1.5-.51c-.06-.21-.26-.12-.26-.3-.22-.1-.39-.44-.64-.47 0-.34-.23-.21-.16-.39-.27.06-.31-.25-.56 0 .05-.18-.11 0-.16 0s-.41-.2-.6-.09-.1-.32-.28-.2c-.16-.75.43-1.4.73-2 .17-.21.28-.2.43-.35s.3.14.49 0 .4.36.43.58c.24 0 .36.22.49.45.24.65.91 1 1.25 1.46.22-.08.34.17.55.06.12.19.3.13.43.31.35-.08.71.37 1.12.45a1 1 0 0 0 .58.1c.09.11.14.18.27.07.13.19.41.1.49.43zM470.05 253.43c.13.26 0 .13.08.3a.43.43 0 0 0-.58.26c-.11-.07-.1-.07-.11.06-.12 0-.16-.07-.17.09-.25-.21-.23.18-.41.19a2 2 0 0 1-1.8.91c-.1-.05-.17-.14-.27-.05a1.31 1.31 0 0 0-.75-.26c-.08-.33-.25-.1-.24-.29-.23.15-.31-.13-.47.16 0-.18-.09 0-.14 0s-.4-.06-.53.07-.13-.27-.27-.13c-.2-.71.28-1.43.46-2.07a3.68 3.68 0 0 1 .3-.44c.14-.05.21 0 .32-.12s.28.25.31.39c.23-.09.35.27.5.41.35.49 1 .41 1 .56.1-.19.26 0 .33-.22.21.12.17-.06.38 0 .12-.31.47.06.71-.14.27.1.55-.17.77 0 .06-.17.14 0 .27 0s.07 0 .11.06.02-.03.2.26z" fill-rule="evenodd"/></g><g opacity=".54" fill="#fff"><path d="M577.43 198.84c2-3.28-2.59-8.45-3.5-12.12-.42-1.11-.81-4.25-2.2-4.84.06-.68 1.27-1.72.41-2.25 1.32-3.7-3-7-5.25-9.37-1.62-.62-3.49 4.65-5.49 5.55-2.81.29 4.08 6.23 5.15 6.86-1 5.89 2.5 16.39 6.61 20.4 2.84.57 2.06-4.16 4.27-4.23z" opacity=".3"/><path d="M560 176.43c.08-.05.05 0 .08.06s.15-.14.19-.09c.3.44.7.5 1 1 .08-.05 0-.06 0-.1.91 1 1.85 2.45 3 3 .55 1.1 2.29 1.28 3.17 2 0 .17 0 .21.11.26-.3.21-.43.1-.68.29-2.65-.69-6.18-3.37-6.87-6.42z" fill-rule="evenodd"/><path d="M566 170c.09 0 0 .06 0 .08s.21 0 .2.06c-.08.5.09.85-.25 1.37.08.05.05 0 .09 0-.6 1.25-1.83 2.23-2.48 3.3-1 .43-2 1.69-3 2-.13-.1-.14-.15-.24 0 0-.36.08-.42 0-.72A28.36 28.36 0 0 0 566 170z" fill-rule="evenodd"/><path d="M571.22 182.61c0-.08.09-.07.12-.11s-.16-.14-.07-.2c.65-.47.7-1.05 1-1.87-.09 0 0 .07-.09.09.6-2.07-.52-4.58-1.87-6.07-.67-1.7-2.63-2.94-4.17-3.77-.06-.19 0-.23-.24-.27.24-.27.47-.16.72-.36 4 1.17 10.25 9.95 4.6 12.56zM575.59 202.23c0 .09-.16 0-.23.07 0 .43-.88.31-1.29.52.09.23-.75.19-1.15.38s-.83-.52-1-.86c-.08 0 .06.13.07.19-2.14-2.93-3.43-6.73-4.71-10.06-.07-3.07-2.87-6.54-1.32-9.51.28-.16.3-.12.51-.44.16.33-.14.65.06 1-.55 1.4.29 2.91.57 4.29 1 3.18 1.8 6.68 3.33 9.76a41.1 41.1 0 0 0 2.64 4.86s0-.13-.13 0c-.19.41-.1.23-.12.26s0-.41 0-.35a12.34 12.34 0 0 1 2.77-.11z" fill-rule="evenodd"/><path d="M578 198.32v.05c0 .05.11.17.08.19a1.53 1.53 0 0 0-.27.17c.08.13 0 .13-.18.18s-.2.19-.33.17 0 0 .06 0c-.43.24-1 .12-1.36.36-.13 0-.1 0 0-.07a2.14 2.14 0 0 1 0 .76h.08a1.39 1.39 0 0 0-.11 1.29.76.76 0 0 0 .18.67c0 .06-.17.12 0 .18-.14.07-.19.08-.11.14a5 5 0 0 1-.69-.11 3.73 3.73 0 0 1-.33-.62c0-.16.12-.28 0-.42a14.08 14.08 0 0 1 .07-2.19c.14-.95 2.07-1.01 2.91-.75z" fill-rule="evenodd"/><path d="M578 199c0-.08.12-.08.15-.14s-.18-.12-.09-.2c.52-.76-.08-1.47-.19-2.46-.09 0 0 .1 0 .15a35.82 35.82 0 0 0-3.44-7.33 14.12 14.12 0 0 0-3.22-5.9c0-.21 0-.25-.17-.36.31-.18.53 0 .85-.06 1.27.94 1.81 2.38 2.64 3.61.75 3.87 6.59 9.06 3.47 12.69zM571 188c.09 0 0 .08.07.1s.17-.12.2 0c.24.61.64.81.89 1.54.08 0 0-.08 0-.11.78 1.56 1.38 3.49 2.27 4.91.14 1.41 1.23 2.94 1.77 4.22-.08.15-.13.17 0 .29-.35.07-.45-.11-.76-.08a10.09 10.09 0 0 1-1.3-2.28c-.96-2.75-3.03-5.59-3.14-8.59zM552.76 191.62c-.13 0 0-.22-.06-.3s-.27.11-.29-.09c-.21-1.57-1-2.27-2.11-3.64-.1.07.08.16.1.23-2.2-1.73-1-4.76-1.78-6.95-.81-2.82-2.08-4.09.66-6.21 1.59-1.46 5-3.36 6.79-1.11 1.2.81 3.27-.05 4.46 1.26a2.59 2.59 0 0 0 .42.92c-.49 0-.77-.51-1.29-.26-1.38-.69-3.23.28-4.46-1-.53-.32-.82-.71-1.33-.81a9.79 9.79 0 0 0-2.82 1.36c-3.41 2.51-1.52 2.8-.82 6.45-.64 5.36 3.18 6.04 2.53 10.15z" fill-rule="evenodd"/><path d="M566.59 169.92c-3.21-1.39-4.78-5.06-9.52-4.42 0 .12.4 0 .56.06-3.42 1.13-5.8-3-8.88-2.3-6.73 3.49-11.23 7.56-10.41 15.72 3 6.66-.9 9.11 5.34 13.68 1.28.51 4.3.9 5.55 1.66 1.64.16 2.6-1.41 2.63-3 2 3.59-2.47 5.4-5.32 3.24-4.7 0-9.08-5.09-7.94-9.71-2.82-6.84-2.33-16.85 5.55-20.24 1.55-1.23 4.35-3.8 7-2.69 7.1 4.82 8.62-.69 15.44 8z" fill-rule="evenodd"/><path d="M547.05 185.72c0 .29-.07.12-.12.3-.3-.37-.74 0-.93-.1-.09.14-.11.11-.24 0-.08.22-.39-.16-.47.19a1.42 1.42 0 0 0-.78.59c-.17.23-.56.13-.62.42-.53.29-1.22.28-1.63.67-.3-.15-.28.15-.42 0-.05.26-.36.26-.21.55-.17-.1 0 .09-.07.15s-.31.38-.25.6-.34.05-.26.27a2.55 2.55 0 0 1-2-1.27c-.28-.32.11-.5.05-.83.74-.81 2-1 3-1.45.31.09.51-.38.78-.21.13-.25.44-.19.57-.42.13 0 .3.05.39-.1a.52.52 0 0 0 .49-.17 2.93 2.93 0 0 0 1 0 3.63 3.63 0 0 0 1 .08c.1.13.16.15.3.09.08.11.26.18.29.3s.13 0 .13.34zM544.83 178.5c0 .29-.06.12-.08.3-.32-.35-.74 0-.93-.13-.13.24-.18-.13-.33.11-.21-.31-.71.2-.94.48-.59.27-.44.36-.76.38-.41.25-.91 0-1.29.35-.09-.08-.28-.13-.33 0-.11-.17-.14.06-.25.13s-.23 0-.17.26c-.12-.15-.08.07-.12.11s-.45.24-.52.47-.35-.1-.42.12c-.63-.21-1.27-2.28-.75-2.59 0-.37.43-.29.69-.15.37-.35 1.09 0 1.58-.18.36 0 .75-.25 1-.14.11-.23.38-.12.49-.35.12 0 .25.1.33 0a.37.37 0 0 0 .43-.1c.59.21 1.32.15 1.79.49.16-.12.19 0 .32.14s.07.06.1.1.11-.14.16.2zM546.75 173.14c-.2.22-.14.05-.29.16 0-.5-.67-.5-.74-.77-.16 0-.16 0-.21-.16-.23.09-.19-.41-.51-.24a9.74 9.74 0 0 0-1.75-.43c-.25-.09-.56-.37-.79-.38 0-.15-.5-.38-.63-.3-.13-.34-.2 0-.25-.23-.14.21-.37 0-.34.36-.1-.16-.07.06-.11.1s-.45.24-.52.47-.39-.06-.48.18c-.93-.27-1-1.63-1.06-2.4.3-.36.63-.71 1.2-.47a1.89 1.89 0 0 1 1.7.07 16.92 16.92 0 0 1 2.25 1.05c.22-.06.3.08.43.22.18 0 .21.13.3.23.47.06.76.72 1.11 1.05a2.41 2.41 0 0 0 .5.51c0 .16 0 .23.18.27 0 .28.26.5.01.71zM552.09 169.23c-.29 0-.12 0-.3-.08.38-.24-.08-.57.07-.69-.14-.05-.11-.05 0-.17-.25 0 .15-.31-.22-.33-.15-.36-1-.66-1.2-1.16-.34-.33-.26-.89-.66-1.17.15-.31-.15-.27 0-.41-.27 0-.21-.35-.53-.22.11-.16-.09-.06-.14-.09s-.35-.36-.58-.37 0-.36-.23-.36c0-.66 1.84-1.88 2.28-1.43.37-.08.42.34.35.64.45.27.25 1.08.59 1.5.06.36.44.7.38 1 .25.05.22.34.46.39.05.11 0 .27.13.32a.38.38 0 0 0 .22.38c-.06.6.26 1.36-.06 1.83.12.15 0 .19-.13.3s-.06.05-.11.07.02.06-.32.05zM560.15 170.89c-.27-.1-.09-.09-.26-.17a.36.36 0 0 0 .21-.54c.13 0 .13 0 0-.1.1-.06.16-.05 0-.15.14 0 .23-.17.06-.24.06-.17-.09-.37-.27-.56s.09-.32-.13-.36c0-.12 0-.28.1-.37-.1-.05 0-.05 0-.1s.12-.35 0-.42c.27-.19 0-.2.16-.28-.25-.08 0-.27-.36-.19.16-.1 0 0-.09-.07s-.2-.29-.36-.27.12-.26-.08-.26c.38-.63 1.21-.81 1.8-1.13a4.77 4.77 0 0 1 .52-.09c.14.07.13.2.33.18s0 .44-.05.58c.31.43-.17 1.13-.1 1.67-.18.16.13.43-.13.53.18.13 0 .31.16.45 0 .09-.17.15-.06.25-.11.14-.13.16 0 .33-.38.32-.5.93-.89 1.1.07.17-.08.12-.21.17s-.08 0-.12 0 .1.15-.23.04z" fill-rule="evenodd"/></g><g opacity=".54" fill="#fff"><path d="M523.76 47.86c-.12-.26 3.15-.62 3.89.67-.36.3-.86.7-.32.7 2.41-.17 4.8 1 7.08.92 2.3 2.22-.17 3.18-2.19 3.37a.51.51 0 0 0-.91.31c.51 4.56-4.58 1.16-6.28 1.77-7 .43-9.45-6.91-1.66-7.94a.45.45 0 0 0 .39.2z" opacity=".3"/><path d="M518.39 48.88c.05.33-1.24.29-.88.69-14.85 1.33-16.2 23.21-4.22 29.71 6.83 3.78 19.8 1.28 23.89-5.42a17.28 17.28 0 0 0-2.51-7.33c-.42-1.67-1.67-3.12-3.54-2.39a3.69 3.69 0 0 0-3 1.11c-1.57 1.93-2.86 5.1-6.1 4.36-11.33-.66-5.52-9.42-2.29-15.81 1-.49 0 1.57-.64 3-2.5 6-6.18 10.79 3.06 11.81 3.13.54 3.26-2.22 4.88-4.08 3.23-2.76 7.56-2.1 9.43 1.79 1.23 3 3.38 8.07-.19 10.26-5.84 4.51-12.82 7.54-20.22 5.51-8.89-3.81-15-13.2-11.63-22.84 2.02-5.35 7.93-11.1 13.96-10.37z" fill-rule="evenodd"/><path d="M531.63 53.34c.27.13.14.23.53.37-2.75 1.42.26 2.37-1.39 3.11-1.18.16-1-1.47-2.35-.34-.81.56-1.43-.21-2.1-.48a15.7 15.7 0 0 1-1.64.46c-.14-.48-.78-.11-.69-.69-.72.28-2 .7-2.23-.27-.38-.21-.92.33-1.21-.1.25-.85.57-.5 1-.82.25 0 .4.34.64.17.09.37.55.31.83.44.64-.22 1.13-.81 1.64 0 .36-.34.6-.51 1-.13.51.14 1.11-.11 1.5.26.37-.34.46-1 1-.38.46.11.92 0 1.35.24.32 0 .68-.41.86-.34.12 1.36.26.78-.48.44-.21-.43-.05-.69.37-.78a1.55 1.55 0 0 1 1.37-1.16z" fill-rule="evenodd"/><path d="M523.2 50.47c-.14-.27.19-.34-.07-.67 1.65-.36 3.07.21 4.65-.39 1.39-1.19 2.87-.56 4.29.46 1.53.35 4.45-1 5.11.85-.65 2.2-3.12 3.13-5.16 3.41-.47-.48-1.49.12-1.83-.53a11.38 11.38 0 0 1-3.62.73 3.46 3.46 0 0 1-1.18-.38c-.89-.09-1.55.61-2.49.32-.21-.69.38-.69.78-.84.57-.55 1.47-.06 2-.32 1.15.54 2.71 0 3.8-.51 1-.1 1.82.62 2.73-.17a3.1 3.1 0 0 0 3.58-1.18c0-.28-.28-.49-.44-.63l.88 1.15c-1.33-.2-2.91-.72-4.32-1.06-1.11-.12-1.89.38-2.7-.28-.81 0-1.75.65-2.54 0a12 12 0 0 1-3.47.04z" fill-rule="evenodd"/><path d="M518.41 50.11c-.22-.22 0-.27-.37-.53 1.67-.34 1.83-.69 2-2.21 1-.76 1.6.81 2.61-.56.77-.7 1.56 0 2.3.21a14.27 14.27 0 0 1 1.71-.56c.17.48.84.09.78.68 2.68-1.12 1.84 1.51.35 2.28a1.07 1.07 0 0 1-.65-.11c-.43.12-.43.89-.93.79-.45-.77 0-.77.11-1.28.19-.2.55 0 .61-.34a1 1 0 0 0 1.16-.62c-.53.47-.9.34-1.33-.16-.36.36-.6.53-1 .18-.54-.11-1.13.2-1.58-.14-.19.17-.31.62-.47.71-.51-.35-1.15 0-1.73-.14-.47.24-.41.82-1 .48-.28.29-.15 1-.8.74a1.7 1.7 0 0 1-1.77.58zM518.16 54.11c.38 1.3-.78 2.16-1.88 2.27l-.54-.26a.16.16 0 0 1 0-.12v-.07h.11a1.73 1.73 0 0 0 1.89-1.44c0-.37-.28-.6 0-.81a1.86 1.86 0 0 1 .42.43zM531.73 69.27c.12.16.11.36.26.5.29 1.32-.7 2.18-1.69 2.73.2.72.53 2-.35 2.58-.2-.06-.4-.16-.6-.2a1.78 1.78 0 0 0 .48-2.09c-.22-.27-.3-.42-.13-.76a1.75 1.75 0 0 0 1.47-2.63c-.25-.18-.75-.35-.48-.66a1.63 1.63 0 0 1 1.04.53zM508.86 62.74a1.79 1.79 0 0 1 2.46-1.68c-.14-1.32.87-2.6 2.23-2.13a1.78 1.78 0 0 0-.08.45 1.6 1.6 0 0 0-1.39.37c-.45.53 0 1.53-.48 1.88-1-.42-2.24-.1-2.31 1.16a1.9 1.9 0 0 1 0 .49 6 6 0 0 0-.43-.54zM522.14 76.52a1.61 1.61 0 0 0 1.41 0c.51-.38.47-1.15.77-1.58a9.23 9.23 0 0 0 .07 1.18c-.46 1.58-2.31 1.08-3.21.32-.65 1.24-2.12 1.06-3 .32 0-.23-.28-.48-.06-.59h.06c.06 0 .06 0 .08.07a1.75 1.75 0 0 0 2.38.25c.36-1.02.85-.42 1.5.03zM509.89 68.3a.38.38 0 0 0 .16-.12c1.29-.37 2.23.56 2.82 1.53a2 2 0 0 1 3 1.3c1.08-.48 2.63 0 2.6 1.4-.15.07-.3.14-.44.22a1.29 1.29 0 0 0-1.71-1.27c-.71.5-.92.11-1.06-.7-.48-.91-1.89-.76-2.51-.24-.14 0-.13-.08-.32-.09a1.74 1.74 0 0 0-2.54-1.4z" fill-rule="evenodd"/></g><g opacity=".54" fill="#fff"><path d="M388.92 307.43c-.07.28-2.81-1.54-2.55-3 .46 0 1.1 0 .69-.33-2-1.41-3.07-3.81-4.85-5.23-.34-3.18 2.17-2.34 3.84-1.19 0 .42.57.77.89.34 2.49-3.82 4.26 2 6 2.67 5.65 4.15 2.83 11.35-3.81 7.15a.47.47 0 0 0-.21-.41z" opacity=".3"/><path d="M393.7 310.09c.17-.28 1.14.57 1.11 0 12.27 8.49 27.32-7.45 22.27-20.11-2.82-7.28-14.37-13.67-21.82-11.14a17.47 17.47 0 0 0-2.76 7.24c-.75 1.55-.71 3.46 1.19 4.1a3.67 3.67 0 0 0 3 1.05c2.44-.48 5.46-2.09 7.48.56 8.27 7.76-1.79 10.77-8.37 13.61-1.11-.29 1-1.18 2.43-1.93 5.79-3 11.67-4.33 5.23-11-2.06-2.42-3.93-.39-6.36 0-4.26 0-7.16-3.23-6.1-7.42.86-2.68 2-6.37 4.75-7.62 6.33-.32 12.92.85 17.69 5.13 5.92 4.16 6.79 13.82 4.87 20.19-3.74 8.93-16.95 14.51-24.61 7.34z" fill-rule="evenodd"/><path d="M386.39 298.18c-.12-.27 0-.26-.17-.62 3 .69 1.33-2 3.06-1.5 1 .63-.14 1.8 1.59 1.77 1 .09 1 1.07 1.3 1.71.46.25 1.09.38 1.55.69-.2.47.53.6.1 1 .72.25 1.94.71 1.53 1.63.16.41.93.34.87.86-.74.49-.76 0-1.28 0-.21-.15-.09-.51-.39-.54.16-.34-.23-.59-.36-.87-.63-.23-1.39-.1-1.24-1.07-.49 0-.79 0-.87-.55-.3-.43-.92-.62-1-1.16-.5 0-1 .44-1-.31-.28-.38-.72-.57-.88-1.05-.23-.23-.79-.12-.88-.29.78-1.12.3-.77.65 0-.11.46-.41.56-.78.36a1.54 1.54 0 0 1-1.8-.06z" fill-rule="evenodd"/><path d="M391 305.79c-.07.29-.36.14-.38.56-1.49-.79-2.22-2.13-3.82-2.68-1.84 0-2.57-1.41-3-3.1-.95-1.25-4.08-2.06-3.38-3.93 1.9-1.28 4.4-.41 6.14.69.06.67 1.22.86 1.07 1.57a11.56 11.56 0 0 1 3.25 1.76 3.36 3.36 0 0 1 .66 1c.63.64 1.58.52 2.12 1.35-.28.67-.73.29-1.14.14-.79.06-1.16-.89-1.76-1-.53-1.15-2.08-1.73-3.24-2-.86-.58-1-1.65-2.2-1.62a3.11 3.11 0 0 0-3.51-1.39 1 1 0 0 0-.06.77l.06-1.45c.89 1 1.77 2.41 2.63 3.58.78.81 1.7.92 1.9 1.95.61.52 1.75.62 2 1.59a12.19 12.19 0 0 1 2.66 2.21z" fill-rule="evenodd"/><path d="M394.48 309.13c0 .31-.14.24-.06.65-1.5-.81-1.85-.65-2.95.42-1.25-.06-.71-1.65-2.36-1.25-1 .05-1.21-1-1.63-1.63a12.85 12.85 0 0 1-1.67-.66c.17-.49-.59-.61-.17-1-2.77-.86-.44-2.34 1.19-2a1.08 1.08 0 0 1 .44.5c.4.18.89-.41 1.22 0-.15.88-.53.56-.91.91-.27 0-.45-.31-.69-.13a1 1 0 0 0-1.29-.26c.69 0 .9.31.91 1 .5-.05.8 0 .92.54.35.43 1 .57 1.13 1.11.25 0 .63-.27.81-.24.17.6.86.77 1.24 1.22.52.11.84-.37 1 .24.41 0 .76-.66 1.09-.05a1.72 1.72 0 0 1 1.78.63zM397.22 306.22a1.89 1.89 0 0 1 2.9-.54c.08.19.16.37.25.55a.14.14 0 0 1-.07.09s0 .05-.05.05-.07 0-.09-.06a1.73 1.73 0 0 0-2.38-.1c-.24.28-.16.64-.53.6a1.94 1.94 0 0 1-.03-.59zM396.52 285.88c0-.19.14-.34.12-.55.61-1.19 1.93-1.22 3.05-1 .3-.68.85-1.86 1.92-1.75a5.84 5.84 0 0 0 .33.53 1.79 1.79 0 0 0-1.71 1.3c0 .35 0 .52-.39.66a1.76 1.76 0 0 0-2.82 1.09c.08.29.36.75 0 .8a1.63 1.63 0 0 1-.5-1.08zM409.9 305.55a1.79 1.79 0 0 1-3-.29c-.73 1.1-2.34 1.44-3.07.21a1.66 1.66 0 0 0 .34-.3 1.62 1.62 0 0 0 1.31.61c.68-.11 1-1.17 1.57-1.14a1.53 1.53 0 0 0 2.52.59 1.57 1.57 0 0 1 .29-.39 4.19 4.19 0 0 0 .04.71zM408.52 286.46a1.6 1.6 0 0 0-1.06-.92c-.64 0-1.11.59-1.61.73.2-.34.55-.61.71-1 1.35-.92 2.46.65 2.66 1.81 1.3-.54 2.31.55 2.54 1.7-.16.17-.09.55-.32.49a.05.05 0 0 1-.08 0v-.11a1.77 1.77 0 0 0-1.67-1.72c-.96.56-.96-.22-1.17-.98zM412.66 300.62a.4.4 0 0 0-.19 0c-1.23-.54-1.35-1.85-1.19-3a2 2 0 0 1-1.47-2.92c-1.14-.33-2-1.72-1.1-2.74l.48.11a1.29 1.29 0 0 0 .5 2.07c.86.07.78.5.36 1.22-.21 1 1 1.8 1.78 1.79.12.08.05.14.18.27a1.74 1.74 0 0 0 1.06 2.71z" fill-rule="evenodd"/></g><g opacity=".54" fill="#fff"><path d="M544.33 329.52c0 .28 3-1.18 2.91-2.67-.47-.05-1.1-.12-.65-.42 2.12-1.14 3.52-3.38 5.47-4.58.74-3.11-1.85-2.59-3.66-1.66a.51.51 0 0 1-.93.23c-2-4.1-4.48 1.45-6.25 1.89-6.13 3.42-4.24 10.92 2.88 7.58a.45.45 0 0 1 .23-.37z" opacity=".3"/><path d="M539 331c.1.26-1 .84-.51 1-7.94 2.69-20.17-2.65-22.26-11.14-.42-6.55 1.51-15.76 7.72-19.13 4.23-2.84 17.41-5.74 19.87.12 1.86 3.59 3.42 11.76-2.74 11.63-2.95 1.87-6.18-1.95-8.3.48-7.44 6.26 1.7 7.16 6.38 10.5.22 1.55-11.72-4.26-10.32-6.88.73-2.23 3.67-5.62 6.29-5.62 2.88 1 7.31 1.5 9.1-1.38-.52-3.22-.47-8.49-3.3-10.61-7.23-1.4-14.58 1.21-19.88 6.05-9.75 13.32 2.5 29.68 17.95 24.98z" fill-rule="evenodd"/><path d="M548.34 320.12c-.17.25-.25.11-.43.48-.32-.64-.87-1.91-1.71-1.25-.2-.12-.65.14-.57.3s.34 0 .17 0c-.36.14-.83-.21-1.15-.14-.59.5-.44 2-1.52 1.8-.16.22-.53.18-.7.34-.24.45-.29 1.09-.49 1.56-.48-.13-.46.58-.9.24-.09.73 0 1.93-1 1.87-.29.29.13.91-.32 1.06-.79-.42-.39-.64-.61-1.11.06-.25.43-.29.33-.57 1.34-.31-.09-2 1.41-2.1-.13-.49-.11-.8.44-.95.42-.35.61-1 1.18-1.07 0-.25-.17-.68-.08-.86.66-.09 1.1-.76 1.77-.9.5-1.28 1.59-.8 2.59-.73.44-.11.54.14.6.49a1.57 1.57 0 0 1 .99 1.54z" fill-rule="evenodd"/><path d="M542.5 328.26c0-.3.31-.26.17-.66a4.06 4.06 0 0 0 4.87-2.92c.65-.8 1.85-.88 2.75-1.28 1.15-1.13 1.37-2.64 2.73-3.62l-.08.91a1.76 1.76 0 0 0-1.53-1.21c-.95.17-1.6 1.36-2.37 2-.67-.12-1.16.94-1.81.6a11.22 11.22 0 0 1-2.58 2.65 3.33 3.33 0 0 1-1.18.36c-.79.42-.94 1.38-1.88 1.66-.57-.44-.08-.78.17-1.13.16-.77 1.18-.88 1.49-1.41 1.25-.2 2.23-1.53 2.84-2.56 2.12-.91 4.58-4.64 7.19-2.36 1.59.15 1.32.82.9 2.07-1.21.67-2.1 1.94-3.32 2.67-.82.81-1.05 1.78-2.14 1.88-1.22 1.7-4.06 3.29-6.22 2.35z" fill-rule="evenodd"/><path d="M538.47 331.14c.06-.3.19-.19.24-.6 2.44 2.43 2-.88 3.5.11 1.06 1.17 1.21-1.12 2.18-1.21a2.3 2.3 0 0 0 1.08-.24 14.12 14.12 0 0 0 .63-1.56c.48.15.49-.57.94-.22a7.44 7.44 0 0 1 .14-.91l1 1.69a1 1 0 0 1-1.44.16c-.45 0-.63.75-1.1.54-.24-.85.23-.73.42-1.22.23-.14.54.09.68-.18a1 1 0 0 0 1.27-.33c.22.69-.12 1-.79 1.12.11.52 0 .83-.53 1-.46.35-.75 1-1.35 1 0 .56.17 1.09-.62 1-.84.43-1.91.69-2.7 1.13-.54-.57-.88.19-1.5.15-.63-.57-1.75-.33-2.05-1.43zM536.24 327.27a1.87 1.87 0 0 0-2.81-.89c-.1.17-.2.34-.31.51a.11.11 0 0 0 0 .09s0 .06.05.07.07 0 .09-.06a1.75 1.75 0 0 1 2.38.2c.2.31.08.65.45.67a1.7 1.7 0 0 0 .15-.59zM539.49 307.18c0-.19-.09-.35 0-.56-.46-1.26-1.76-1.45-2.89-1.38-.21-.72-.62-1.95-1.69-2a4.42 4.42 0 0 1-.4.48 1.8 1.8 0 0 1 1.54 1.5c0 .35 0 .53.3.71a1.76 1.76 0 0 1 2.66 1.43c-.11.29-.45.7-.05.81a1.59 1.59 0 0 0 .53-.99zM523.75 325a1.8 1.8 0 0 0 3 .09c.59 1.18 2.14 1.72 3 .58a1.55 1.55 0 0 1-.3-.33 1.65 1.65 0 0 1-1.37.44c-.67-.2-.82-1.29-1.42-1.33a1.53 1.53 0 0 1-2.58.27 1.52 1.52 0 0 0-.23-.43 5.52 5.52 0 0 1-.1.71zM527.51 306.25a1.66 1.66 0 0 1 1.18-.78c.63 0 1 .72 1.5.92a9.75 9.75 0 0 1-.58-1c-1.23-1.07-2.53.34-2.87 1.47-1.22-.7-2.36.25-2.74 1.36.14.19 0 .56.26.53a.05.05 0 0 0 .08 0v-.11a1.77 1.77 0 0 1 1.87-1.49c.9.61 1-.15 1.3-.9zM521.63 319.77a.65.65 0 0 1 .19 0c1.29-.39 1.58-1.68 1.55-2.81a2 2 0 0 0 1.83-2.71c1.17-.18 2.2-1.45 1.44-2.58l-.5.06a1.28 1.28 0 0 1-.75 2c-.87 0-.84.4-.51 1.17.08 1-1.19 1.66-2 1.55-.13.07-.07.13-.22.25a1.74 1.74 0 0 1-1.38 2.55c.12.17.23.35.35.52z" fill-rule="evenodd"/></g><g opacity=".54" fill="#fff"><path d="M6.88 226.94c0 .29-3-1.09-3-2.58.47-.07 1.1-.15.64-.43-2.15-1.09-3.62-3.29-5.6-4.42-.83-3.09 1.78-2.65 3.61-1.77a.51.51 0 0 0 .94.2c1.86-4.16 4.51 1.32 6.3 1.71 6.23 3.23 4.55 10.79-2.66 7.66a.46.46 0 0 0-.23-.37z" opacity=".3"/><path d="M12 228.83c.13-.31 1.22.39 1.11-.14C26.55 235.19 39 217.12 32 205.38c-3.91-6.75-16.31-11.28-23.28-7.63a17.35 17.35 0 0 0-1.61 7.57c-.5 1.65-.17 3.53 1.81 3.87a3.68 3.68 0 0 0 3.11.58c2.34-.85 5.08-2.91 7.48-.61 9.38 6.4-.11 10.92-6.17 14.74-1.14-.11.85-1.32 2.11-2.28 5.25-3.88 10.85-6.07 3.46-11.7-2.41-2.07-3.94.22-6.28 1-4.2.71-7.57-2.09-7.17-6.39.49-3.22 1.25-8.65 5.43-8.7 7.33-.86 14.88.13 20.18 5.68 3.48 5.28 6.13 13.21 2.94 19-2.89 8.1-14.62 13.55-22.01 8.32z" fill-rule="evenodd"/><path d="M3 218.19c-.17-.25 0-.26-.27-.58 3.05.21 1-2.16 2.79-2 1.1.47.14 1.8 1.84 1.5 1-.06 1.12.92 1.55 1.49a16.85 16.85 0 0 1 1.65.45c-.13.49.61.51.24.95.76.14 2 .4 1.77 1.38.22.37 1 .19 1 .71-.65.6-.75.13-1.27.19-.23-.12-.17-.5-.47-.48.12-.35-.31-.54-.49-.8-.65-.13-1.38.12-1.39-.86-.48.1-.78.13-.94-.42-.36-.38-1-.46-1.15-1-.49.1-.89.59-1-.15-.34-.34-.8-.46-1-.9-.26-.2-.79 0-.91-.16.6-1.23.17-.8.64-.13 0 .48-.32.61-.71.48a1.56 1.56 0 0 1-1.88.33z" fill-rule="evenodd"/><path d="M8.71 225c0 .3-.33.19-.29.62-1.59-.55-2.52-1.77-4.19-2.06-1.8.3-2.75-1-3.44-2.6-1.13-1.09-4.34-1.41-3.94-3.36 1.68-1.56 4.28-1.09 6.18-.27.15.65 1.33.66 1.29 1.39A11.09 11.09 0 0 1 7.8 220a3.24 3.24 0 0 1 .82.93c.72.53 1.64.27 2.3 1-.17.7-.68.39-1.1.31-.77.18-1.29-.7-1.9-.76-.7-1.05-2.32-1.39-3.52-1.51-.94-.45-1.24-1.48-2.42-1.26a3.13 3.13 0 0 0-3.69-.83 1 1 0 0 0 .06.76l-.16-1.44c1 .87 2.12 2.12 3.15 3.14.89.67 1.82.64 2.17 1.63.69.42 1.83.34 2.2 1.27a11.92 11.92 0 0 1 3 1.76z" fill-rule="evenodd"/><path d="M12.63 227.77c.08.29-.09.25 0 .64-1.61-.57-1.93-.35-2.85.87-1.24.14-1-1.51-2.53-.86-1 .21-1.34-.79-1.86-1.36a16.28 16.28 0 0 1-1.75-.4c.1-.51-.67-.51-.32-1-2.87-.42-.8-2.23.87-2.13a1.06 1.06 0 0 1 .5.42c.43.13.82-.53 1.21-.19 0 .89-.43.63-.76 1-.26.07-.49-.24-.7 0a1 1 0 0 0-1.31-.06c.69-.13.94.17 1.06.82.48-.12.78-.15 1 .39.4.38 1.07.41 1.28.93.25 0 .58-.37.77-.36.26.56 1 .62 1.41 1 .53 0 .77-.5 1.07.08.39-.11.64-.78 1.06-.22a1.7 1.7 0 0 1 1.85.43zM14.9 224.46a1.88 1.88 0 0 1 2.78-1l.33.5a.12.12 0 0 1-.05.1l-.05.06c-.05.06-.07 0-.09-.05a1.74 1.74 0 0 0-2.37.26c-.19.32-.06.66-.43.69a2 2 0 0 1-.12-.56zM11.07 204.48c0-.19.08-.36 0-.56.42-1.28 1.72-1.51 2.85-1.47.2-.72.57-2 1.63-2 .14.15.26.34.41.47a1.81 1.81 0 0 0-1.49 1.55c.06.35 0 .52-.28.72a1.75 1.75 0 0 0-2.61 1.5c.12.28.47.69.07.81a1.64 1.64 0 0 1-.58-1.02zM27.32 221.85a1.79 1.79 0 0 1-3 .17c-.55 1.2-2.08 1.78-3 .68a2 2 0 0 0 .3-.35 1.57 1.57 0 0 0 1.38.4c.66-.22.78-1.31 1.38-1.37a1.53 1.53 0 0 0 2.58.2 1.46 1.46 0 0 1 .22-.43 4.27 4.27 0 0 0 .14.7zM23 203.2a1.62 1.62 0 0 0-1.19-.75c-.63.07-1 .75-1.48 1a8.88 8.88 0 0 0 .55-1.06c1.2-1.11 2.54.27 2.92 1.38 1.19-.73 2.36.19 2.77 1.29-.13.19 0 .56-.25.54h-.07c-.07 0-.05-.05 0-.1a1.76 1.76 0 0 0-1.94-1.5c-.85.69-.97-.08-1.31-.8zM29.29 216.55a.41.41 0 0 0-.19 0c-1.3-.34-1.63-1.62-1.64-2.76a2 2 0 0 1-1.9-2.65c-1.18-.15-2.24-1.39-1.51-2.53h.49a1.3 1.3 0 0 0 .82 2c.86-.07.84.37.54 1.14-.06 1 1.24 1.63 2 1.5.12.06.07.13.22.24a1.74 1.74 0 0 0 1.5 2.51z" fill-rule="evenodd"/></g><g opacity=".54" fill="#fff"><path d="M58.38 32.47c.27.1.35-3.19-1-3.82-.27.38-.62.92-.67.37 0-2.4-1.36-4.69-1.51-7-2.41-2.02-3.2.47-3.2 2.5a.51.51 0 0 1-.23.93c-4.59-.12-.77 4.66-1.23 6.41.17 7 7.69 8.83 8 1a.47.47 0 0 1-.16-.39z" opacity=".3"/><path d="M57.18 37.87c.27 0 .26 1.3.66.93-1.31 8.27-11.73 16.61-20.22 14.51-8.08-3.44-15.41-11.51-13.13-20.89.89-3.53 3.61-10.24 6.58-12.12 4.49-1.05 14.73 1.29 11.58 7.59.33 3.34-4.6 4.6-3.44 7.56 2.08 9.5 7.13 1.83 12.26-.76 1.48.53-9.22 8.39-10.89 5.93-1.63-1.68-3.27-5.86-2-8.17 2.18-2.11 4.72-5.78 3-8.71-3.09-1-7.74-3.53-10.93-2-4.65 5.73-5.74 13.46-3.92 20.4C34 57 54.18 53.73 57.18 37.87z" fill-rule="evenodd"/><path d="M51.93 24.54c.15.26 0 .27.22.61-.7 0-2.09-.12-1.9.93-.2.12-.17.63 0 .64s.13-.31.07-.15c0 .38-.58.63-.66.95.16.75 1.55 1.31.88 2.18.13.24-.08.56 0 .78.29.42.83.76 1.15 1.16-.34.37.3.68-.21.91.61.41 1.7.93 1.19 1.75.12.39.87.31.79.78-.74.5-.75.05-1.27 0-.19-.16 0-.51-.34-.56.35-1.33-1.81-.84-1.2-2.22-.5-.12-.77-.27-.64-.84-.12-.53-.62-1-.41-1.54-.2-.14-.67-.16-.79-.33.22-.62-.16-1.33 0-2-.89-1 0-1.78.56-2.63.11-.44.38-.42.72-.31a1.56 1.56 0 0 1 1.84-.11z" fill-rule="evenodd"/><path d="M56.42 33.5c-.28-.12-.09-.4-.51-.46a4.06 4.06 0 0 0-.31-5.67c-.41-.95.08-2.05.15-3-.47-1.54-1.7-2.44-1.94-4.1l.77.49a1.79 1.79 0 0 0-1.79.79c-.29.93.46 2.06.68 3-.42.53.29 1.47-.31 1.88A11.27 11.27 0 0 1 54.3 30a3.21 3.21 0 0 1-.23 1.22c0 .89.79 1.47.6 2.44-.66.29-.72-.3-.92-.69-.61-.49-.23-1.44-.56-2 .41-1.2-.31-2.69-.94-3.71.18-2.31-2-6.22 1.26-7.46.87-1.35 1.34-.79 2.25.16 0 1.39.74 2.76.81 4.18.34 1.1 1.09 1.76.68 2.77.92 1.86 1.01 5.09-.83 6.59z" fill-rule="evenodd"/><path d="M57.09 38.41c-.24-.2-.08-.26-.42-.5 3.29-1 .13-2.14 1.73-3 1.53-.39-.43-1.58 0-2.48a2.43 2.43 0 0 0 .28-1.07A16.39 16.39 0 0 0 57.55 30c.35-.36-.28-.7.23-.93a7.34 7.34 0 0 1-.73-.55l1.95-.03a1 1 0 0 1-.53 1.35c-.2.39.37.9 0 1.22-.88-.18-.55-.54-.89-.94 0-.27.33-.44.15-.68a1 1 0 0 0 .27-1.28c.7.13.84.59.62 1.22.51.15.76.36.61.93.09.57.55 1.13.29 1.67.47.31 1 .36.57 1 0 1-.28 2-.25 2.91-.77.22-.24.87-.57 1.4-.76.26-1.06 1.36-2.18 1.12zM52.63 38.58c-1.32-.27-2.09 1-2.1 2.07.11.17.21.34.31.51a.11.11 0 0 0 .11 0h.08c.08 0 0-.06 0-.1a1.73 1.73 0 0 1 1.28-2c.37 0 .62.23.8-.09a1.64 1.64 0 0 0-.48-.39zM36.36 26.35c-.16-.11-.36-.08-.51-.22-1.34-.18-2.11.89-2.58 1.92-.73-.14-2-.36-2.54.57a4.23 4.23 0 0 1 .25.58 1.79 1.79 0 0 1 2-.66c.29.2.45.27.77.06a1.76 1.76 0 0 1 2.5-1.69c.2.24.41.73.69.43a1.56 1.56 0 0 0-.58-.99zM44.82 48.58A1.79 1.79 0 0 0 46.29 46c1.32 0 2.51-1.1 1.92-2.41a1.69 1.69 0 0 1-.44.12 1.63 1.63 0 0 1-.24 1.42c-.49.49-1.53.12-1.84.63a1.53 1.53 0 0 1-1 2.41 1.36 1.36 0 0 0-.49 0 4 4 0 0 1 .62.41zM30 36.52a1.63 1.63 0 0 1-.14-1.4c.33-.54 1.11-.57 1.51-.9a9.49 9.49 0 0 1-1.19 0c-1.52.59-.87 2.4 0 3.23-1.18.75-.87 2.21-.06 3.05.23 0 .51.24.59 0 0 0 .05 0 .05-.06s0-.07-.08-.08a1.77 1.77 0 0 1-.45-2.35c.88-.43.24-.89-.23-1.49zM39.19 48a.59.59 0 0 1 .1-.17c.26-1.31-.74-2.17-1.76-2.68A2 2 0 0 0 36 42.3c.38-1.12-.26-2.62-1.62-2.47l-.18.46a1.29 1.29 0 0 1 1.41 1.59c-.44.75 0 .93.79 1 .94.4.92 1.83.44 2.49 0 .14.09.12.12.3a1.75 1.75 0 0 1 1.62 2.42z" fill-rule="evenodd"/></g><g opacity=".54" fill="#fff"><path d="M219.89 320.56c-.91-5.41-8.06-14.57-13.37-16.76.08-1.21-1.09-10.28-2.88-8.08-1.94 1.2-7.12-.21-7.65 1.51.71 3.17 1.1 8.61 4.91 9.56 0 1 1.5.57 2.1.89-.27 1.49 2.14 3.54 2.82 4.51 2.38 3.35 4 7.06 7.2 9.77a.65.65 0 0 0 1-.16c1.27-1.8 4.8 1.42 5.87-1.24z" opacity=".3"/><path d="M204.64 295c.08 0 0 .06.05.08s.19-.1.21 0c.18.51.55.66.72 1.27.09 0 0-.06 0-.09a35.2 35.2 0 0 1 1.34 4.33 14.87 14.87 0 0 0 0 3.71c-.12.1-.17.11-.08.2-.37 0-.42-.12-.71-.16a4.09 4.09 0 0 1-.27-1.11c.07-.29.16-.65 0-.87.44-2.47-1.49-4.9-1.26-7.36z" fill-rule="evenodd"/><path d="M196.15 296.59c0-.08.06 0 .1 0s.06-.2.12-.17c.42.21.72 0 1.25.06 0-.09-.05 0-.07-.06a11.6 11.6 0 0 0 3.82-.65c1 .23 2.21-.64 2.85-1.22.15.06.18.1.22 0 .19.31.09.42.22.68-.66 1.5-7.56 3.32-8.51 1.36z" fill-rule="evenodd"/><path d="M203.77 307.39c0 .09-.1.05-.13.08s.13.17 0 .22a3.33 3.33 0 0 1-2.37.28c0 .08.09 0 .12.09-2.5-.54-3.84-3.23-4.93-5.2-.32-1.88-1.11-4.11-1-6.06.15-.15.2-.15.14-.36.35.11.34.38.64.51.55 4.16 2.11 10.64 7.53 10.44zM218.06 322.34c-.06-.07.11-.12.15-.19-.22-.37.57-.74.79-1.14.09-.15-.11.08-.06-.07s.83-.69.77-.92a3.89 3.89 0 0 1-.3-.69c-.08 0 0 .14 0 .2a32.16 32.16 0 0 0-6-9c-1.61-2-3.64-5.41-6.29-5.88-.19-.13-.21-.18-.45-.07 0-.36.42-.45.62-.72a3.75 3.75 0 0 1 3.24 1.9c3.92 3.93 7.9 8.44 9.94 13.79a1.13 1.13 0 0 1-.56 1.44c-.55.36-1.27 1.21-1.85 1.35z" fill-rule="evenodd"/><path d="M213.41 322.22v-.06c0-.06-.11-.17-.08-.19a.53.53 0 0 0 .23-.19c-.11-.08.08-.22.3-.48-.06-.07-.05 0-.07 0 .52-.46.72-1.15 1.51-1.27.39 0 .86.34 1.13.3a1.94 1.94 0 0 0 1.16.8 1 1 0 0 0 .68.32c.05.05 0 .22.13.17 0 .14-.07.18 0 .18-.27.25-.35.21-.56.41-.21-.06-.48-.07-.66-.14-.14-.23-.23-.15-.39-.27-.42 0-.89-.63-1.46-.73-.11-.05-.27-.05-.08 0 0-.49-.07-.49.24-.05-.49.46-1.19 1.53-2.08 1.2z" fill-rule="evenodd"/><path d="M213.65 322.11c0 .09-.09.05-.13.08s.11.19 0 .21a3.18 3.18 0 0 1-2.43-1.24c-.08 0 .05.09.06.14-2-1.86-3-4.78-4.66-6.79-.85-2.08-2.75-4-3.34-6.25.08-.21.13-.23 0-.45.36 0 .45.31.79.36.63 1.15 1.24 2.31 1.93 3.35 2.63 3.27 4.13 8.37 7.78 10.59zM208.29 310.65c.08 0 .05.06.08.08s.16-.14.2-.07c.36.55.79.67 1.18 1.33.08 0 0-.07 0-.11 1.07 1.37 2 3.14 3.19 4.35.41 1.34 1.79 2.63 2.57 3.76 0 .17-.09.2.05.29-.32.15-.45 0-.74.1a10 10 0 0 1-1.73-2c-1.51-2.47-4.09-4.82-4.8-7.73zM221.83 296.91c-.09.09-.17-.12-.25-.15s-.1.27-.26.14a6.47 6.47 0 0 1-2.54-3.71c-.13 0 0 .18 0 .25-.57-2.44-3.11-3.1-4.77-4.76-1.22-1.72-2.28-3.6-4.39-2.15a4.91 4.91 0 0 0-3.82 1.76c-.11.35.24.87.28 1.69-.1 1.84-1.26 2.7-1.16 4.17-.15.18-.2.25 0 .38-.42.22-.73-.22-1.06-.42-.26-1.54.83-2.8 1-4.22-1.52-3 2.65-4.62 5-4.94 1.87-1.24 4 .78 4.83 2.17 1.15 1.64 2.65 2 4.34 3.67 1.31 1.84 1.24 4.41 2.8 6.12z" fill-rule="evenodd"/><path d="M196.26 296.76a18.32 18.32 0 0 1-.88-4.47c-.75-.65-.3-5 1.36-6.36-.09-.09-.26.3-.39.41 2.76-2.5.16-6.66 3.11-9 5.11-2.75 10.92-5.4 16.56-2.46 3.63.88 5 3.72 7.12 6.49 4.14 2 7.43 7.69 4.56 11.93-.29 4.14-2.2 6.9-6.54 4.12 3.83.11 4.83.43 5.24-4.07.13-1.25 1.44-2.36 1.19-3.48-.54-3.08-1.51-5.55-4.61-7-2.33-1.53-3-4.32-4.8-5.42-3-1.54-7-3.19-10.31-2.24-2.44 1.54-7.21 1.88-8.49 4.67.12 9.29-4.51 5.02-3.12 16.88z" fill-rule="evenodd"/><path d="M218.6 288.46c-.24-.17 0-.13-.18-.28.32-.05.81-.88.83-1s.23-.05.21-.24c.17 0 .41-.14.35-.35a4 4 0 0 1 3.54-2.32c.14-.17.3 0 .5 0s.1-.09.16 0c.2-.24.5 0 .61-.4.09.17.13-.05.19-.08a2.29 2.29 0 0 0 .83-.3c.16-.07.36.2.53 0 .64.36.42 2.63-.24 2.69-.24.53-.67-.2-1 0a4.88 4.88 0 0 0-2.63 0c-.34.5-2 1.21-2.61 1.74-.07.28-.4.12-.42.39-.27.09-.43.32-.67.15zM213.93 282.45c-.22-.2-.06-.13-.18-.28a.59.59 0 0 0 .48-.61c.14 0 .12 0 .09-.12.3 0 0-.22.25-.19a12.57 12.57 0 0 0 .61-1.34 3.71 3.71 0 0 1 1.22-1c.12 0 .23 0 .27-.11a1.29 1.29 0 0 0 .84-.24c.27.2.29-.09.41.06.09-.25.37-.13.3-.46.13.14.06-.08.1-.12s.36-.25.36-.46.32.07.3-.14a3 3 0 0 1 1.43 1.9c.17.35-.2.39-.21.69s-.52.17-.73.09c-.14.19-.37.2-.64.19a5.8 5.8 0 0 0-1.88.29c0 .23-.32.2-.35.43-.21 0-.25.19-.47.2-.1.33-.67.43-.95.74a1.31 1.31 0 0 0-.4.41c-.14 0-.21 0-.22.14-.13 0-.28.07-.38 0s.01.14-.25-.07zM208.07 282.16c-.3 0-.13-.07-.32-.11.25-.26.05-1.11 0-1.22.22-.26-.14-.22.08-.41a6.67 6.67 0 0 0-.44-1.56 4.39 4.39 0 0 1 .39-2.31 5.42 5.42 0 0 0 .76-1.11.52.52 0 0 0 .44-.31c.2.1.19-.21.33-.33s.31-.07.24-.37c.15.11.1-.12.16-.17s.53-.34.6-.61c.1-.11.38.06.39-.17a2.53 2.53 0 0 1 1.34 2c.12.4-.3.41-.34.73s-.51.16-.73.09c-.12.25-.49.17-.74.27-.61.18-.75 1-1.09 1.35.13.23-.1.44.05.66-.15.21-.06.4-.2.6.15.43-.21 1-.24 1.48a1.84 1.84 0 0 0-.05.71c-.12.1-.17.17-.08.32-.24.16-.26.46-.55.47zM202.54 285.55c-.17.24-.13.06-.28.18a1.18 1.18 0 0 0-.76-.69c0-.15 0-.14-.14-.14 0-.34-.24-.09-.17-.36a6.51 6.51 0 0 0-1.12-.94 3.64 3.64 0 0 1-.72-1.74c.18-.14-.1-.89 0-1s.08-.19 0-.25c.19-.07 0-.16-.07-.27s.08-.21-.21-.21c.17-.09-.06-.09-.09-.13s-.15-.43-.35-.5.15-.28-.06-.33c.43-.64 1.31-.67 1.94-.88a2.84 2.84 0 0 1 .56.07c.14.13.11.31.33.36s0 .53-.11.71a.7.7 0 0 1 0 .66 5.57 5.57 0 0 0-.17 1.91c.21.11.11.37.34.45-.05.21.12.3.08.51.35.31.26 1 .63 1.46.25.09 0 .38.3.4.02.34.24.46.07.73zM199.82 293.34c-.09.28-.08.1-.16.27a.43.43 0 0 0-.58-.23c0-.13 0-.12-.13 0-.06-.1 0-.16-.18-.06 0-.32-.28 0-.42-.16a2 2 0 0 1-1.9-.65c0-.11 0-.22-.16-.23a1.3 1.3 0 0 0-.34-.72c.18-.29-.11-.25 0-.38-.26-.06-.12-.31-.44-.22.14-.12-.07-.05-.11-.08s-.23-.33-.42-.33.11-.29-.1-.29c.37-.64 1.22-.8 1.81-1.12a4.39 4.39 0 0 1 .52-.09c.13.06.12.18.31.14s0 .39-.06.51c.22.1.05.43.05.64-.11.59.37 1 .29 1.1.21-.06.19.18.39.09.07.24.17.08.24.3.21-.1.39.35.72.57.1.17.42.15.41.39.17-.07.12.08.18.21s0 .08 0 .12.17-.12.08.22z" fill-rule="evenodd"/></g><g opacity=".54" fill="#fff"><path d="M307.2 315.71c-3.66-1.16-7.59 4.54-10.94 6.3-1 .68-3.93 1.8-4.18 3.29-.67.1-2-.81-2.28.14-3.9-.39-6.1 4.6-7.83 7.34-.1 1.8 5.29 2.23 6.69 4 1 2.66 5.08-5.44 5.43-6.64 6-.39 15.32-6.34 18.23-11.29-.12-2.85-4.52-1-5.12-3.14z" opacity=".3"/><path d="M289.59 338c-.07-.06 0-.05 0-.09s-.17-.11-.13-.16c.36-.4.32-.79.76-1.25-.07-.06-.06 0-.1 0 .8-1.14 1.93-2.38 2.24-3.67.94-.79.69-2.52 1.19-3.55.17 0 .21 0 .23-.17.27.24.2.39.44.59-.06 2.83-1.82 6.9-4.63 8.3z" fill-rule="evenodd"/><path d="M282 333.74c0-.09.06 0 .08 0s0-.21 0-.21c.5 0 .8-.29 1.39-.08 0-.09-.05-.05-.06-.08 1.35.29 2.6 1.24 3.8 1.62.64.86 2.11 1.5 2.68 2.44-.06.16-.11.18 0 .25-.34.14-.43 0-.71.13a28.49 28.49 0 0 0-7.18-4.07zM292.92 325.63c-.07.06-.09-.08-.13-.1s-.11.19-.18.12c-.62-.52-1.19-.43-2.06-.56 0 .09.08 0 .11.06-2.16-.08-4.33 1.6-5.45 3.27-1.49 1.05-2.23 3.26-2.67 4.95-.17.1-.22.09-.2.29-.32-.16-.27-.42-.53-.61.19-4.13 7.19-12.29 11.11-7.42zM310.93 316.69c.08 0 .08.15.12.2.43-.08.51.79.81 1.14.2-.14.37.68.64 1s-.3.93-.58 1.22c.06.07.12-.08.18-.11-2.34 2.79-5.73 4.94-8.66 7-3 .8-5.65 4.35-8.91 3.56-.22-.23-.19-.27-.55-.4.29-.23.67 0 1-.29 1.49.2 2.75-1 4-1.58 2.85-1.72 6.06-3.35 8.68-5.57a38.59 38.59 0 0 0 4.09-3.72v.05c0 .05-.08 0 .09.06l.28.06s-.4.11-.35.07a12 12 0 0 1-.84-2.69z" fill-rule="evenodd"/><path d="M306.56 315.32c.07-.06 0 0 .06 0s.14-.15.16-.12a1.75 1.75 0 0 0 .24.23c.11-.12.13 0 .22.12s.23.15.24.28c.08 0 0 0 0-.07.34.36.36 1 .68 1.23.07.12 0 .1-.07 0 .2-.16.68-.06.74-.24a1.41 1.41 0 0 0 1.29-.21.72.72 0 0 0 .6-.33c.06 0 .16.13.19 0 .09.11.11.16.16.07.08.36 0 .41.06.69a3.25 3.25 0 0 1-.53.47c-.15 0-.3 0-.4.13a13.63 13.63 0 0 1-2.14.46c-1.06-.03-1.56-1.86-1.5-2.71z" fill-rule="evenodd"/><path d="M307.19 315.09c-.07.06-.11-.09-.18-.11s-.07.2-.17.14c-.86-.33-1.41.42-2.34.76 0 .09.1 0 .15 0a35.57 35.57 0 0 0-6.29 5.09 13.85 13.85 0 0 0-5 4.54c-.21.05-.25 0-.32.25-.24-.26-.09-.52-.26-.81.61-1.46 1.88-2.33 2.88-3.43 3.64-1.64 7.34-8.52 11.53-6.43zM298.24 324.52c-.05-.07.06 0 .08-.09s-.15-.14-.09-.19c.54-.38.63-.81 1.28-1.23-.05-.07-.07 0-.11 0 1.33-1.13 3.07-2.18 4.23-3.37 1.34-.48 2.57-1.9 3.68-2.74.17.05.2.09.28-.06.15.33 0 .46.1.76a10.09 10.09 0 0 1-1.9 1.81c-2.43 1.59-4.67 4.31-7.55 5.11zM306.08 341.4c0 .12-.2.07-.28.13s.18.23 0 .3c-1.48.58-2 1.5-3 2.92.1.08.14-.12.21-.16-1.17 2.55-4.39 2.11-6.33 3.39-2.54 1.46-3.47 3-6.19.85-1.79-1.2-4.47-4.09-2.7-6.33.51-1.36-.83-3.16.16-4.63a2.67 2.67 0 0 0 .8-.63c.11.47-.32.87.05 1.32-.34 1.5 1 3.07.06 4.58-.18.59-.49 1-.46 1.48a9.91 9.91 0 0 0 2 2.41c3.25 2.71 3.09.8 6.46-.75 5.33-.66 5.07-4.53 9.22-4.88z" fill-rule="evenodd"/><path d="M281.7 333.15c-.58 3.46-3.77 5.85-2 10.3.13 0-.07-.39-.07-.55 1.92 3.05-1.54 6.34-.11 9.17 5 5.7 10 9.1 17.75 6.35 5.75-4.48 9.07-1.3 12-8.45.19-1.37-.16-4.4.28-5.79-.23-1.63-2-2.19-3.53-1.84 3-2.77 5.82 1.11 4.41 4.4 1.16 4.55-2.77 10-7.53 10-6 4.37-15.81 6.28-21-.56-1.56-1.21-4.73-3.31-4.28-6.12 2.99-8.06-2.72-8.21 4.08-16.91z" fill-rule="evenodd"/><path d="M301.71 348.35c.3-.05.14 0 .33 0-.29.39.22.71.12.94.16.05.13.07.09.22.24 0-.06.41.3.41a1.41 1.41 0 0 0 .76.61c.27.12.26.52.56.5.41.45.56 1.12 1 1.43-.07.33.21.23.13.4.26 0 .34.29.58.07-.05.19.11 0 .16 0 .2.05.45.2.64.09s.14.32.33.19a2.52 2.52 0 0 1-.75 2.25c-.25.36-.51 0-.82.16-1-.53-1.46-1.7-2.14-2.61 0-.32-.49-.4-.38-.71-.28-.06-.29-.38-.55-.45-.07-.12 0-.3-.19-.35a.52.52 0 0 0-.28-.44 2.73 2.73 0 0 0-.22-1 3.38 3.38 0 0 0-.15-1c.1-.14.1-.2 0-.32.09-.1.11-.3.22-.35s-.06.04.26-.04zM284.5 347.39c.05.29 0 .13 0 .32-.32-.32-.53.21-.68.09 0 .17 0 .12-.16.09 0 .24-.33-.08-.27.29-.31.23-.39 1.16-.84 1.44-.22.38-.82.49-1 .92-.33-.07-.22.2-.39.12 0 .27-.29.29-.08.57-.18-.07 0 .1 0 .16s-.28.43-.22.65-.36.08-.3.31c-.65.13-2.27-1.34-1.94-1.87-.16-.34.24-.49.54-.49.16-.5 1-.51 1.32-.94.34-.14.54-.56.84-.6 0-.25.28-.29.27-.54.1-.07.27 0 .27-.2a.38.38 0 0 0 .33-.3c.59-.08 1.26-.57 1.79-.38.11-.15.18 0 .32.06s.06.05.09.08.03-.1.11.22zM284.18 339.17c0 .29-.06.12-.1.3a.35.35 0 0 0-.57-.08c-.05-.12 0-.12-.11 0-.08-.07-.08-.14-.16 0-.06-.31-.58.16-.72.4s-.33 0-.32.21c-.12 0-.27.08-.39 0 0 .11 0 0-.09 0s-.37 0-.41.13c-.25-.22-.19.06-.31-.1 0 .27-.25.1-.1.4-.14-.13 0 .07 0 .1s-.23.27-.18.42-.28-.06-.23.14c-.71-.22-1.08-1-1.53-1.47-.14-.24-.11-.3-.21-.49s.16-.18.09-.36.42-.15.58-.09c.34-.41 1.14-.11 1.64-.3.2.14.39-.23.55 0 .09-.21.31-.07.4-.26.1 0 .19.13.26 0 .16.08.19.09.33 0 .4.3 1 .26 1.28.6.14-.11.13.05.22.17.06 0 0 .07.05.1s.04-.16.03.18z" fill-rule="evenodd"/></g><g opacity=".54" fill="#fff"><path d="M70.72 313.54c-5.49-.17-15.87 5.07-19 9.85-1.17-.31-10.3-.94-8.49 1.25.79 2.07-1.58 7.09 0 7.8 3.24-.08 8.66.59 10.32-3 1 .22.86-1.36 1.29-1.88 1.4.55 3.89-1.41 5-1.9 3.76-1.68 7.71-2.55 11-5.15a.64.64 0 0 0 0-1c-1.59-1.57 2.27-4.4-.12-5.97z" opacity=".3"/><path d="M42.69 323.53c0-.1.06 0 .09 0s-.07-.19 0-.2c.53-.08.76-.42 1.39-.47 0-.09-.06 0-.09 0a35.6 35.6 0 0 1 4.51-.47 15.31 15.31 0 0 0 3.64.75c.07.14.07.19.17.12 0 .36-.2.39-.29.66a5 5 0 0 1-2.17-.21c-2.32-.8-4.94.47-7.25-.18zM42.58 332.15c-.07-.06 0 0 0-.09s-.18-.1-.14-.15c.29-.38.12-.72.31-1.21-.09 0 0 0-.07.05a11.77 11.77 0 0 0 .1-3.87c.41-.89-.19-2.3-.64-3 .09-.12.13-.15 0-.21.34-.13.43 0 .71-.08 1.39.92 1.84 8.02-.27 8.56z" fill-rule="evenodd"/><path d="M54.65 326.79c.1 0 0 .1.06.13s.19-.08.22 0a3.29 3.29 0 0 1-.19 2.37c.08.05.07-.07.11-.09-1 2.35-3.91 3.13-6.06 3.82-1.91-.05-4.24.29-6.14-.22-.11-.17-.1-.22-.31-.21.17-.31.43-.26.62-.52 4.17.34 10.83.07 11.69-5.28zM72.1 315.68c-.08 0-.1-.14-.15-.19-.41.15-.62-.7-1-1-.12-.12.07.12-.07 0s-.52-.94-.76-.93a4.1 4.1 0 0 1-.73.15c0 .1.15 0 .21 0a31.87 31.87 0 0 0-10 4.15c-2.3 1.19-6 2.51-7 5-.16.16-.22.17-.16.43-.34-.08-.36-.5-.58-.74a3.76 3.76 0 0 1 2.5-2.82c4.61-3.07 9.81-6.1 15.46-7.06.49-.2 1.15.29 1.3.83s.96 1.58.98 2.18z" fill-rule="evenodd"/><path d="M71.07 320.21c-.09 0 0 0 0 0s-.19.08-.2 0a.57.57 0 0 0-.15-.26c-.1.09-.2-.12-.41-.38-.08 0 0 0 0 .07-.35-.6-1-.93-.95-1.73 0-.39.5-.78.52-1a2 2 0 0 0 1-1 1 1 0 0 0 .45-.6s.21.05.18-.1c.14.07.17.11.19 0 .2.31.14.38.29.62a6.32 6.32 0 0 1-.26.63c-.26.09-.2.2-.34.33-.09.41-.79.75-1 1.28-.06.1-.1.26 0 .08-.47-.13-.5 0 0-.24.27.61 1.19 1.49.68 2.3z" fill-rule="evenodd"/><path d="M71 320c.09 0 0 .1 0 .14s.21-.07.2.06a3.17 3.17 0 0 1-1.69 2.15c0 .08.1 0 .15 0-2.21 1.58-5.27 2-7.57 3.25-2.2.43-4.48 1.91-6.78 2.07-.19-.13-.19-.18-.43-.1.07-.35.39-.38.5-.7 1.25-.39 2.51-.76 3.66-1.24 3.79-2.04 9.09-2.53 11.96-5.63zM58.73 323c0-.09.07 0 .1-.07s-.11-.18 0-.21c.62-.24.82-.65 1.54-.9 0-.08-.07 0-.1 0 1.55-.79 3.47-1.4 4.88-2.29 1.4-.14 2.92-1.24 4.19-1.79.16.08.18.13.29 0 .09.35-.09.45 0 .75a9.92 9.92 0 0 1-2.27 1.32c-2.83.97-5.65 3.07-8.63 3.19zM47.89 307c.07.1-.15.14-.2.21s.25.16.09.29a6.45 6.45 0 0 1-4.13 1.77c0 .12.17 0 .24.06-2.5.08-3.64 2.44-5.6 3.74-1.92.87-4 1.54-3 3.9a4.85 4.85 0 0 0 1 4.09c.32.17.9-.07 1.7 0 1.79.46 2.41 1.77 3.87 2 .14.18.2.25.36.09.14.45-.35.68-.61 1-1.56 0-2.59-1.36-3.94-1.8-3.28.9-4-3.5-3.88-5.84-1-2.95 2.65-3.89 4.35-5.09 2.86-3.8 5.86-2.9 9.75-4.42z" fill-rule="evenodd"/><path d="M42.76 332.08a18.19 18.19 0 0 1-4.55 0c-.78.61-5-.68-6-2.56-.11.06.24.31.32.45-1.92-3.19-6.5-1.45-8.19-4.79-1.7-5.55-3.17-11.77.82-16.73 1.56-3.38 4.62-4.21 7.74-5.72 2.72-3.68 9-5.78 12.59-2.15 4 1.09 6.34 3.5 2.77 7.22.85-3.74 1.36-4.65-3-5.93-1.19-.37-2-1.87-3.17-1.84-3.13-.07-5.74.39-7.8 3.15-2 2-4.81 2.06-6.25 3.65-2.08 2.6-4.49 6.28-4.21 9.68 1 2.69.45 7.43 2.93 9.23 9.24 1.7 3.99 5.36 16 6.34z" fill-rule="evenodd"/><path d="M39 308.55c-.22.2-.15 0-.32.12 0-.32-.71-1-.83-1s0-.23-.19-.25c0-.16-.06-.43-.27-.41a4.06 4.06 0 0 1-1.59-3.93c-.14-.17 0-.29.1-.48s-.06-.12 0-.16c-.2-.24.07-.5-.27-.67.18-.06 0-.14 0-.21a2.27 2.27 0 0 0-.13-.87c0-.17.27-.31.12-.52.49-.56 2.66.1 2.59.76.48.34-.33.62-.16.94a4.85 4.85 0 0 0-.48 2.58c.42.43.8 2.2 1.19 2.9.27.13.05.42.31.49-.07.27.12.51-.07.71zM32.17 312c-.24.17-.13 0-.31.11a.58.58 0 0 0-.5-.58c0-.14 0-.12-.11-.11 0-.31-.22 0-.14-.29a8.6 8.6 0 0 0-1.19-.85 3.88 3.88 0 0 1-.75-1.4c0-.12.07-.22-.05-.29a1.26 1.26 0 0 0-.08-.87c.25-.22 0-.3.14-.39-.23-.13-.05-.39-.4-.38.17-.1-.06-.08-.09-.12s-.18-.41-.38-.45.13-.29-.08-.32a2.93 2.93 0 0 1 2.14-1c.38-.1.35.27.64.34s.07.54-.06.73c.16.18.12.4.06.66a5.94 5.94 0 0 0-.08 1.91c.22.09.14.35.36.42 0 .22.13.29.11.5.28.14.27.74.53 1.08a1.31 1.31 0 0 0 .32.47c0 .14 0 .2.1.25 0 .12 0 .28-.06.37s.14-.04-.12.21zM30.74 317.66c0 .29-.09.1-.16.28-.22-.29-1.08-.25-1.21-.19-.21-.26-.24.09-.38-.16a6.36 6.36 0 0 0-1.62.13 4.38 4.38 0 0 1-2.19-.84 5.37 5.37 0 0 0-.95-1 .5.5 0 0 0-.22-.49c.14-.18-.16-.23-.25-.39s0-.31-.32-.3c.14-.13-.09-.13-.14-.19-.14-.24-.22-.59-.47-.71-.09-.12.13-.36-.09-.42a2.49 2.49 0 0 1 2.19-.92c.42-.05.34.37.65.47s.06.53-.06.73c.22.17.07.51.12.78.06.64.83.93 1.11 1.33.26-.08.42.19.67.08.16.19.38.14.55.32.44-.07.92.4 1.4.52a2.07 2.07 0 0 0 .68.19c.08.13.14.19.3.13.07.13.26.22.27.34s.14-.03.12.31zM33 323.74c.21.21 0 .14.13.31a1.16 1.16 0 0 0-.83.61c-.14-.05-.14 0-.17.1-.32-.07-.13.23-.38.1a7.69 7.69 0 0 0-1.15.92 3.5 3.5 0 0 1-1.83.37c-.11-.2-.9-.07-1-.23s-.16-.12-.24 0c0-.2-.16 0-.28 0s-.19-.12-.24.17c-.06-.18-.1 0-.15.06s-.45.06-.55.25-.26-.21-.35 0c-.54-.55-.4-1.42-.48-2.08a3.62 3.62 0 0 1 .18-.53c.15-.12.32-.05.41-.25s.53.08.68.25c.21-.11.42 0 .65.11a5.88 5.88 0 0 0 1.84.54c.15-.19.38 0 .51-.25.2.09.31-.05.52 0 .36-.28 1.06-.05 1.55-.33.14-.23.38 0 .44-.22.34.06.52-.12.74.1zM40.11 327.92c.25.14.08.1.23.21a.42.42 0 0 0-.34.53c-.13 0-.12 0-.06.11-.11.05-.17 0-.1.17-.32 0-.09.27-.23.38a2 2 0 0 1-1 1.74c-.12 0-.22 0-.25.11a1.24 1.24 0 0 0-.78.2c-.24-.24-.26.05-.36-.12-.11.25-.33.06-.3.39-.09-.16-.07.06-.1.09s-.37.17-.41.35-.26-.16-.3 0c-.56-.49-.55-1.35-.75-2v-.53c0-.21.21-.08.21-.27s.38.05.48.15c.14-.2.43 0 .64.07.56.23 1-.17 1.14-.06 0-.22.21-.16.16-.37.24 0 .11-.15.34-.17-.07-.32.43-.2.52-.5.28-.06.37-.45.64-.43 0-.17.1-.1.24-.13s.09 0 .12 0-.05-.07.26.08z" fill-rule="evenodd"/></g><g opacity=".54" fill="#fff"><path d="M106 229c-.25-.16 2.31-2.22 3.64-1.54-.15.45-.35 1.05.11.76 1.92-1.45 4.54-1.79 6.44-3.06 3.13.62 1.58 2.76 0 4-.41-.11-.9.31-.59.75 2.9 3.51-3.18 3.46-4.33 4.89-5.65 4.15-11.68-.69-5.69-5.77a.5.5 0 0 0 .42-.03z" opacity=".3"/><path d="M102 232.77c.22.25-.88.92-.36 1.06-11.77 9.16-1.06 28.29 12.54 27.26 7.79-.51 17.33-9.63 17.15-17.49a17.3 17.3 0 0 0-6.08-4.8c-1.26-1.18-3.09-1.72-4.28-.09a3.69 3.69 0 0 0-1.89 2.53c-.27 2.48.36 5.84-2.77 7-9.88 5.57-9.74-4.93-10.48-12.06.6-1 .81 1.35 1.11 2.9 1.16 6.43.64 12.42 9 8.28 2.93-1.24 1.55-3.63 1.89-6.07 1.23-4.08 5.23-5.86 8.91-3.6 2.3 1.62 5.49 3.78 5.85 6.81-1.88 7.71-6.67 15-14.48 17.49-9.53 1.61-19.79-3-22.14-12.9-1.28-5.63.58-13.66 6.03-16.32z" fill-rule="evenodd"/><path d="M115.56 229.36c.3 0 .24.12.65 0-1.55 2.64 1.49 1.86.52 3.37-.91.77-1.68-.68-2.16 1-.39.9-1.32.59-2 .73a16.58 16.58 0 0 1-1.13 1.27c-.38-.33-.72.33-1-.2-.45.62-1.25 1.64-2 1-.43 0-.59.78-1.07.57-.25-.85.22-.73.39-1.22.2-.15.52.07.63-.21.27.26.63 0 .94-.09.41-.52.51-1.29 1.39-.86.12-.48.22-.76.79-.66.5-.16.86-.7 1.4-.6.12-.48-.13-1 .58-.83.45-.16.77-.52 1.27-.53.29-.15.35-.71.54-.75.84 1.08.64.51-.16.62-.41-.24-.42-.55-.12-.85a1.55 1.55 0 0 1 .54-1.76z" fill-rule="evenodd"/><path d="M106.92 231.51c-.26-.15 0-.39-.42-.53 1.19-1.19 2.69-1.48 3.7-2.84.52-1.76 2.11-2 3.85-1.94 1.48-.53 3.18-3.27 4.76-2 .65 2.2-.92 4.32-2.49 5.66-.66-.15-1.19.9-1.82.55a11.55 11.55 0 0 1-2.66 2.57 3.36 3.36 0 0 1-1.19.32c-.8.4-1 1.35-1.92 1.61-.56-.46-.06-.78.2-1.13.18-.76 1.2-.84 1.52-1.36 1.26-.16 2.28-1.47 2.92-2.48.81-.65 1.87-.47 2.2-1.62a3.12 3.12 0 0 0 2.38-2.94 1.1 1.1 0 0 0-.72-.28l1.37.49c-1.24.55-2.84 1-4.21 1.44-1 .5-1.38 1.35-2.42 1.23-.69.43-1.12 1.49-2.11 1.41a12.32 12.32 0 0 1-2.94 1.84z" fill-rule="evenodd"/><path d="M102.69 233.8c-.29-.07-.18-.2-.59-.25 1.21-1.17 1.18-1.56.48-2.93.44-1.22 1.74-.13 1.89-1.89.26-1 1.3-.86 2-1.06a12.46 12.46 0 0 1 1.14-1.4c.41.31.76-.38 1 .15 1.6-2.38 2.39.28 1.53 1.72a1 1 0 0 1-.6.27c-.3.33.12 1-.36 1.16-.79-.4-.38-.66-.6-1.14 0-.26.43-.33.33-.61a1 1 0 0 0 .64-1.15c-.19.68-.58.77-1.21.59-.1.49-.21.77-.79.71-.51.2-.84.79-1.39.75-.08.23.07.68 0 .84-.62 0-1 .59-1.53.82-.27.46.1.91-.55.92-.08.4.41.92-.27 1.05a1.71 1.71 0 0 1-1.12 1.45zM104.65 237.29a1.88 1.88 0 0 1-.35 2.93l-.6.07-.06-.09a.05.05 0 0 1 0-.07c.06 0 .05 0 .09-.06a1.74 1.74 0 0 0 .81-2.24c-.2-.31-.56-.35-.42-.69a1.78 1.78 0 0 1 .53.15zM124.27 242.7c.18.06.29.24.49.28 1 .94.59 2.21.06 3.21.55.49 1.51 1.37 1.09 2.36a3.13 3.13 0 0 0-.6.16 1.82 1.82 0 0 0-.73-2c-.34-.1-.49-.19-.52-.56a1.76 1.76 0 0 0-.19-3c-.31 0-.82.12-.76-.28a1.56 1.56 0 0 1 1.16-.17zM101.5 249.59a1.8 1.8 0 0 1 1.16-2.75c-.83-1-.67-2.66.73-3a1.94 1.94 0 0 0 .17.42 1.62 1.62 0 0 0-1 1.06c-.09.69.84 1.28.62 1.84-1 .17-1.93 1.13-1.32 2.23a1.37 1.37 0 0 1 .29.39 5.31 5.31 0 0 0-.65-.19zM120.14 254a1.61 1.61 0 0 0 1.19-.74c.22-.59-.23-1.23-.21-1.75a11.23 11.23 0 0 0 .7 1c.47 1.57-1.36 2.16-2.53 2 .13 1.4-1.21 2-2.38 1.92-.11-.2-.5-.26-.37-.46a.05.05 0 0 1 0-.08h.11a1.76 1.76 0 0 0 2.13-1.08c-.19-1.09.56-.81 1.36-.81zM105.39 253.7a.48.48 0 0 0 .07-.18c.88-1 2.17-.74 3.19-.24a2 2 0 0 1 3.23-.54c.65-1 2.23-1.39 2.94-.23a3.7 3.7 0 0 0-.25.43 1.29 1.29 0 0 0-2.13-.14c-.32.8-.71.59-1.26 0-.9-.49-2 .4-2.25 1.17-.11.09-.15 0-.31.09a1.75 1.75 0 0 0-2.9.2z" fill-rule="evenodd"/></g></svg>