<?xml version="1.0" encoding="UTF-8"?><svg id="lynn" xmlns="http://www.w3.org/2000/svg" width="1500" height="700" viewBox="0 0 1500 700"><g id="lynn-shadow" opacity="0"><path d="M858.81,724.89c-1.07-4.04-26.38-99.12-33.73-105.56-2.79-2.44-10.67-5.16-19.47-7.61-7.57-40-6.31-100.47-4.56-116.95,7.28-52.88,2.09-87.58-15.87-106.08-11.35-11.69-27.87-16.47-49.09-14.2-22.4-6.49-42.78-7.55-58.94-3.06-18.59,5.17-31.78,17.37-39.2,36.28-3.23,8.23-5.15,16.16-5.86,24.21-1.98,17-1.29,29.86-.68,41.21,.15,2.72,.29,5.39,.39,8.05l.18,4.66c1.71,43.28,3.22,81.57-2.1,122.95-6.86,1.84-12.67,3.68-14.63,5.02-8.91,6.11-32.51,106.8-33.51,111.09-.03,.15,0,.31,.1,.42,.09,.12,.24,.19,.39,.19h276.09c.16,0,.3-.07,.4-.2s.13-.28,.09-.43Z" fill="#14303f" opacity=".5"/></g><g id="leaves-bg" opacity="0"><path d="M1211.18,493.86c-4.35-1-8.16,3.2-9.87,7.33-1.17,2.82-1.88,6.06-.76,8.91,1.78,4.49,7.41,6.19,12.21,5.7,.21,2.44-1.53,4.59-2.11,6.96-1.05,4.33,2.33,8.99,6.67,10s9.04-1.21,11.68-4.8c1.45,3.41,3.25,7.16,6.73,8.45,4.35,1.61,9.68-2.54,9.19-7.15" fill="#17865a" stroke="#14303f" stroke-linecap="round" stroke-linejoin="round"/><path d="M144.95,422.43c-4.35-1-8.16,3.2-9.87,7.33-1.17,2.82-1.88,6.06-.76,8.91,1.78,4.49,7.41,6.19,12.21,5.7,.21,2.44-1.53,4.59-2.11,6.96-1.05,4.33,2.33,8.99,6.67,10s9.04-1.21,11.68-4.8c1.45,3.41,3.25,7.16,6.73,8.45,4.35,1.61,9.68-2.54,9.19-7.15" fill="#17865a" stroke="#14303f" stroke-linecap="round" stroke-linejoin="round"/><path d="M1182.14,671.55c3.61-2.62,2.95-8.26,.97-12.25-1.36-2.74-3.33-5.4-6.21-6.42-4.55-1.61-9.53,1.51-12.32,5.46-1.97-1.45-2.45-4.17-3.86-6.17-2.57-3.64-8.31-4.16-11.92-1.55s-5.03,7.61-4.06,11.96c-3.53-1.15-7.53-2.26-10.79-.49-4.07,2.22-4.45,8.96-.65,11.62" fill="#17865a" stroke="#14303f" stroke-linecap="round" stroke-linejoin="round"/><path d="M556.93,378.89c4.41,.68,6.4,5.99,6.47,10.46,.04,3.06-.49,6.33-2.59,8.56-3.31,3.52-9.17,3.02-13.45,.79-1.09,2.19-.27,4.83-.61,7.25-.62,4.41-5.49,7.5-9.89,6.83-4.41-.67-7.96-4.46-9.08-8.78-2.61,2.63-5.67,5.46-9.37,5.37-4.64-.11-8.06-5.93-5.9-10.04" fill="#17865a" stroke="#14303f" stroke-linecap="round" stroke-linejoin="round"/><path d="M977.88,555.55c.25,7.24,5.23,14.1,12.04,16.58,6.81,2.48,15.03,.43,19.88-4.96,1.23,6.63,5.26,13.22,11.65,15.37s14.75-2.02,15.16-8.75c6.67,4.37,15.16,6.66,22.73,4.17s13.41-10.72,11.5-18.45c9.92,7.07,25.93,2.43,30.54-8.84" fill="#17865a" stroke="#14303f" stroke-linecap="round" stroke-linejoin="round"/><path d="M48.6,635.56c.25,7.24,5.23,14.1,12.04,16.58,6.81,2.48,15.03,.43,19.88-4.96,1.23,6.63,5.26,13.22,11.65,15.37s14.75-2.02,15.16-8.75c6.67,4.37,15.16,6.66,22.73,4.17s13.41-10.72,11.5-18.45c9.92,7.07,25.93,2.43,30.54-8.84" fill="#17865a" stroke="#14303f" stroke-linecap="round" stroke-linejoin="round"/><path d="M572.77,521.34c.2-7.25-4.35-14.39-11-17.29s-14.98-1.35-20.15,3.73c-.82-6.7-4.44-13.51-10.69-16.06s-14.85,1.11-15.67,7.8c-6.39-4.77-14.72-7.58-22.43-5.55s-14.04,9.87-12.61,17.71c-9.47-7.66-25.73-4.02-31.03,6.95" fill="#17865a" stroke="#14303f" stroke-linecap="round" stroke-linejoin="round"/><path d="M1468.18,498.58c.2-7.25-4.35-14.39-11-17.29s-14.98-1.35-20.15,3.73c-.82-6.7-4.44-13.51-10.69-16.06s-14.85,1.11-15.67,7.8c-6.39-4.77-14.72-7.58-22.43-5.55s-14.04,9.87-12.61,17.71c-9.47-7.66-25.73-4.02-31.03,6.95" fill="#17865a" stroke="#14303f" stroke-linecap="round" stroke-linejoin="round"/><path d="M1153.6,347.93c1.5,7.14,3.63,14.52,8.71,19.75s13.93,7.47,19.79,3.13c1.96,4.39,2.24,9.44,4.59,13.64,4.25,7.58,15.49,10.07,22.54,5" fill="#17865a" stroke="#14303f" stroke-linecap="round" stroke-linejoin="round"/><path d="M925.3,457.78c11.34,12.38,33.76,11.79,44.43-1.18,4.62,3.96,10.58,6.79,16.64,6.22s11.92-5.26,12.4-11.33c6.82,4.85,14.74,9.17,23.08,8.44,12.69-1.11,22.07-16.06,17.54-27.97,3.91,2.45,8.17,5,12.77,4.65s9.04-5.15,7.2-9.37" fill="#17865a" stroke="#14303f" stroke-linecap="round" stroke-linejoin="round"/><path d="M383.91,650c4.88-8.13,14.11-13.47,23.59-13.63s18.89,4.85,24.05,12.81c1.21-5.68,4.44-10.92,8.98-14.55,1.63-1.3,3.48-2.43,5.54-2.73,6.75-1,11.32,6.48,13.94,12.78,7.07-3.36,15.15-5.35,22.75-3.47,7.6,1.88,14.38,8.38,14.73,16.2,5.07-2.39,10.38-4.84,15.98-4.68s11.54,3.79,12.31,9.34" fill="#17865a" stroke="#14303f" stroke-linecap="round" stroke-linejoin="round"/><path d="M313.65,356.56c5.93,4.93,14.2,6.92,21.72,5.23,7.53-1.69,14.15-7.02,17.4-14.01,3.63,4.71,9.91,7.21,15.78,6.31s11.1-5.2,13.14-10.78" fill="#17865a" stroke="#14303f" stroke-linecap="round" stroke-linejoin="round"/><path d="M1356.25,639.89c5.93,4.93,14.2,6.92,21.72,5.23,7.53-1.69,14.15-7.02,17.4-14.01,3.63,4.71,9.91,7.21,15.78,6.31s11.1-5.2,13.14-10.78" fill="#17865a" stroke="#14303f" stroke-linecap="round" stroke-linejoin="round"/><path d="M686.56,313.86c-5.53-5.38-13.61-8.01-21.25-6.92-7.64,1.09-14.65,5.89-18.45,12.61-3.25-4.98-9.31-7.97-15.23-7.52s-11.47,4.31-13.94,9.71" fill="#17865a" stroke="#14303f" stroke-linecap="round" stroke-linejoin="round"/><path d="M71.23,416.12c2.6-7.26,1.64-15.71-2.53-22.2-4.17-6.49-11.44-10.88-19.13-11.55,3.18-5.02,3.38-11.78,.52-16.98s-8.68-8.65-14.63-8.65" fill="#17865a" stroke="#14303f" stroke-linecap="round" stroke-linejoin="round"/><path d="M314.28,535.92c3.59-4.1,7.98-7.87,13.31-8.95s11.68,1.39,13.44,6.55c1.44,4.21-.4,8.97,.8,13.25,4.91-1.24,10.03-2.48,14.98-1.45s9.68,5.06,9.74,10.13c.03,2.79-1.33,5.42-2.98,7.67,5.09-.18,10.21,2.09,13.49,5.98,3.29,3.89,4.67,9.31,3.65,14.3" fill="#17865a" stroke="#14303f" stroke-linecap="round" stroke-linejoin="round"/><path d="M1325.05,357.17c1.01-5.35,2.89-10.83,6.94-14.46s10.78-4.72,14.91-1.17c3.37,2.9,4.2,7.93,7.41,11.01,3.61-3.56,7.38-7.22,12.18-8.85s10.91-.55,13.53,3.79c1.44,2.39,1.6,5.35,1.32,8.13,4.3-2.73,9.86-3.37,14.66-1.68s8.75,5.66,10.4,10.48" fill="#17865a" stroke="#14303f" stroke-linecap="round" stroke-linejoin="round"/><path d="M1014.67,318.44c-4.33,6.48-13.72,8.96-20.68,5.45-3.6,5.72-10.28,9.77-16.99,8.98-6.71-.79-12.61-7.31-11.57-13.99-5.09,2.37-11.48,1.62-15.89-1.86-4.41-3.48-6.62-9.52-5.5-15.02-3.69,1.51-7.8,2.36-11.68,1.41-3.87-.95-7.39-4.01-7.99-7.95" fill="#17865a" stroke="#14303f" stroke-linecap="round" stroke-linejoin="round"/></g><g id="hair"><path d="M838.36,607.23c-11.41-37.92-9.98-113.88-8.07-131.85,6.2-45.01,11.19-127.87-64.51-119.71-42.16-12.24-82-6.95-97.63,32.9-3.35,8.55-5.15,16.46-5.83,24.08-2.44,20.94-.84,35.19-.29,49.19,2.08,52.92,4.24,98.38-5.51,150.44-.31,1.65-.62,3.36-.18,4.97,.47,1.73,1.74,3.12,3,4.39,13.33,13.39,30.95,21.93,49.24,26.67,18.29,4.74,37.31,5.87,56.2,6.04,14.16,.12,29.36-.63,40.65-9.18,6.97-5.28,11.77-13.09,19.01-18.01,5.41-3.67,12.66-6.41,14.15-12.78,.55-2.34,.46-4.86-.23-7.16Z" fill="#14303f" stroke="#14303f" stroke-linejoin="round"/></g><g id="hoodie"><g id="hoodie-fill"><path d="M854.48,600.38c-7.32-6.41-51.51-15-51.51-15,2.34-4.38-.71-10.79-2.51-14.07-1.79-3.29-9.45-4.94-9.45-4.94,0,0-5.31-6.15-10.26-7.33-7.72-1.83-43.98-8.17-60.14-1.54-5.84,2.4-9.28,5.39-9.28,5.39,0,0-10.62,1.74-12.6,5.7-1.98,3.96-7.88,10.52-7.43,13.96,0,0-40.29,8.4-46.04,12.35-8.86,6.08-33.31,110.79-33.31,110.79h276.09s-26.25-98.9-33.57-105.32Z" fill="#eaebef" stroke="#14303f" stroke-linejoin="round"/></g><g id="hood-hole"><path d="M759.46,561.26c.55,5.69-23.93-.78-23.93-.78-9.66-1.2-20.54,3.53-25.67,12.4-.32,6.8,6.35,12.2,9.47,17.9,4.64,7.62,28.47,16,34.13,18.67l-5.71-4.57c1.05-.4,2.31-.95,2.95-1.1,6.02-1.53,11.65-4.61,17.11-7.52,6.34-5.89,12.75-12.17,17.89-19.16,8.37-13.09-20.35-15.62-26.23-15.84Z" fill="#14303f"/></g><g id="arm-shadows"><polygon points="667.06 673.7 667.06 705.69 658.52 705.69 667.06 673.7" fill="#14303f"/><polygon points="834.87 673.7 834.87 705.69 843.41 705.69 834.87 673.7" fill="#14303f"/></g><g id="strings"><line x1="733.13" y1="609.45" x2="730.54" y2="684.34" fill="none" stroke="#14303f" stroke-linecap="round" stroke-miterlimit="10"/><line x1="759.86" y1="608.53" x2="762.62" y2="685.35" fill="none" stroke="#14303f" stroke-linecap="round" stroke-miterlimit="10"/><path d="M730.52,678.79l-.69-.09c-.27-.01-.53,.05-.77,.17-.25,.08-.46,.22-.64,.41l-.31,.4c-.18,.31-.27,.65-.27,1.01,.03,.25,.04,.54,.13,.79,.07,.2,.16,.39,.24,.58,.02,.05,.05,.09,.07,.13,.14,.22,.3,.43,.48,.61,.03,.03,.06,.06,.1,.09,.16,.14,.33,.27,.51,.39,.08,.06,.16,.1,.25,.14,.23,.1,.48,.23,.73,.28,.19,.03,.39,.06,.58,.08,.02,0,.05,0,.07,0,.01,0,.03,0,.04,0l.26-.04c.1,0,.19-.02,.28-.04,.18-.05,.37-.13,.53-.22,.32-.19,.59-.46,.77-.78v-.02c.07-.16,.14-.32,.21-.48,0-.01,0-.02,0-.03,.02-.08,.05-.37,.04-.28,.01-.08,.03-.2,.04-.3,0-.03,0-.05,0-.08-.02-.2-.05-.4-.08-.6-.01-.08-.02-.15-.04-.23-.02-.15-.05-.3-.07-.45-.06-.26-.18-.49-.36-.68-.14-.22-.33-.39-.56-.51-.23-.15-.48-.22-.74-.24-.26-.06-.53-.05-.79,.04l-.48,.2c-.3,.18-.54,.42-.71,.71l-.2,.48c-.09,.35-.09,.71,0,1.06,.04,.24,.08,.48,.11,.71l-.07-.53c0,.05,.01,.1,0,.15l.07-.53s0,.03-.01,.05l.2-.48s-.01,.03-.03,.05l.31-.4s-.02,.02-.02,.03l.4-.31s-.02,.02-.03,.02l.48-.2s-.04,.01-.06,.02l.53-.07s-.08,0-.12,0l.53,.07c-.1-.01-.2-.04-.29-.08l.48,.2c-.11-.04-.2-.1-.3-.17l.4,.31c-.09-.07-.17-.15-.24-.24l.31,.4c-.07-.09-.13-.19-.17-.3l.2,.48c-.04-.09-.07-.19-.08-.29l.07,.53v-.02c-.67,.66-1.33,1.33-1.99,1.99l.69,.09c.27,.01,.53-.05,.77-.17,.25-.08,.46-.22,.64-.41,.19-.18,.33-.39,.41-.64,.12-.24,.18-.49,.17-.77l-.07-.53c-.09-.34-.27-.63-.51-.88l-.4-.31c-.31-.18-.65-.27-1.01-.27h0Z" fill="#14303f"/><path d="M762.91,679.17c-.21-.06-.44-.1-.66-.08-.06,0-.41,.03-.59,.09-.12,.04-.37,.15-.49,.21-.02,0-.03,.01-.05,.02-.36,.22-.72,.55-.9,.94-.08,.17-.2,.4-.25,.61,0,.01,0,.03,0,.04-.03,.17-.06,.38-.07,.55,0,.03,0,.07,0,.1,.02,.51,.13,.86,.36,1.32,.1,.19,.29,.4,.4,.54,.04,.05,.08,.1,.13,.14,.36,.3,.7,.55,1.17,.66,.22,.05,.45,.09,.68,.09,.01,0,.03,0,.04,0,.16-.01,.39-.05,.55-.07,.03,0,.06-.01,.09-.02,.2-.07,.42-.14,.61-.27s.37-.25,.51-.41c.01-.01,.02-.02,.03-.04,.11-.14,.23-.29,.33-.43,.02-.02,.03-.05,.05-.08,.1-.19,.21-.41,.25-.63,.03-.16,.06-.38,.07-.55,0-.02,0-.04,0-.05,0-.18-.07-.58-.07-.6,0-.03-.01-.06-.02-.09-.05-.14-.14-.36-.21-.49,0-.02-.02-.04-.03-.06-.13-.23-.3-.42-.51-.56-.19-.18-.42-.29-.68-.36-.26-.08-.53-.09-.79-.04-.27,.01-.51,.09-.74,.24l-.4,.31c-.25,.25-.42,.54-.51,.88l-.07,.53c0,.36,.09,.69,.27,1.01,.01,.02,.02,.04,.03,.06l-.2-.48s.02,.07,.03,.11l-.07-.53s0,.08,0,.12l.07-.53s-.02,.09-.04,.14l.2-.48s-.05,.1-.08,.14l.31-.4s-.07,.08-.12,.12l.4-.31s-.08,.05-.13,.07l.48-.2s-.08,.03-.13,.03l.53-.07c-.05,0-.1,0-.16,0l.53,.07c-.05,0-.1-.02-.15-.04l.48,.2c-.06-.03-.12-.06-.17-.1l.4,.31c-.06-.05-.11-.1-.15-.16l.31,.4c-.04-.06-.08-.12-.11-.19l.2,.48c-.03-.07-.05-.14-.06-.21l.07,.53c0-.05,0-.1,0-.15l-.07,.53c0-.06,.03-.12,.05-.18l-.2,.48s.04-.09,.07-.13l-.31,.4s.05-.06,.09-.09l-.4,.31s.05-.03,.08-.04l-.48,.2s.04-.02,.07-.02l-.53,.07s.05,0,.07,0l-.53-.07s.04,0,.06,.01c.26,.08,.53,.09,.79,.04,.27-.01,.51-.09,.74-.24,.23-.13,.42-.3,.56-.51,.18-.19,.29-.42,.36-.68l.07-.53c0-.36-.09-.69-.27-1.01l-.31-.4c-.25-.25-.54-.42-.88-.51h0Z" fill="#14303f"/></g></g><g id="neck"><g class="skin"><path d="M728.04,534.23c2.12,7.19,3.65,14.47,4,21.97,.18,3.73,.1,7.47-.24,11.19,0,.02,0,.05,0,.07-.32,4.66-1.46,10.45-2.06,13.25-.11,.6-.22,1.2-.33,1.8l3.53,10.52,14.39,11.52,15.75-13.16,8.38-14.35c-1.62-1.63-4.78-6.66-6.15-11.56-.1-.31-.21-.62-.3-.94-2.03-6.72-2.19-13.82-2.02-20.78,.04-1.72,.11-3.43,.18-5.15,.01-.27-.06-.5-.18-.67,.53-.02-36.63-4.2-34.97-3.93,0,.07,.01,.14,.04,.21Z" fill="#b4b9c5"/></g><g class="shadow"><path d="M728.04,533.88c1.04,3.52,1.93,7.06,2.62,10.64,1.53,.41,3.06,.83,4.58,1.28,7.11,2.1,13.92,4.8,20.54,8.12,2.65,1.33,5.36,2.76,7.91,4.41-.77-4.92-.82-9.95-.7-14.92,.04-1.72,.11-3.43,.18-5.15,.01-.27,4.9-50.79,4.77-50.96,.53-.02-52.97-4.2-51.32-3.93,0,.07,11.4,50.43,11.42,50.51Z" fill="#5d73a2"/></g><path d="M728.04,534.23c2.12,7.19,3.65,14.47,4,21.97,.18,3.73,.1,7.47-.24,11.19,0,.02,0,.05,0,.07-.32,4.66-1.46,10.45-2.06,13.25-.11,.6-.22,1.2-.33,1.8l3.53,10.52,14.39,11.52,15.75-13.16,8.38-14.35c-1.62-1.63-4.78-6.66-6.15-11.56-.1-.31-.21-.62-.3-.94-2.03-6.72-2.19-13.82-2.02-20.78,.04-1.72,.11-3.43,.18-5.15,.01-.27,4.9-51.14,4.77-51.31,.53-.02-51.32-3.93-51.32-3.93,0,0,11.4,50.78,11.42,50.86Z" fill="none" stroke="#14303f" stroke-linejoin="round"/></g><path d="M809.65,632.92c.04,.26-.06,.42,0,0h0Z" fill="#333"/><g id="head"><g class="skin"><path d="M763.66,379.34c-14.59,3.48-105.25,40.52-75.79,122.74,7.13,32.96,6.49,26.63,37.41,31.93,19.46,2.49,50.46,6.16,69.4-.36,1.63-1.2,2.41-3.04,3.02-4.9,4.47-13.79,8.11-27.84,11.61-41.9,2.67-2.03,5.53-.48,8.19-2.91,3.26-2.75,3.33-8.09,3.53-11.97,.18-3.54,2.31-47.15,2.31-47.15l-59.67-45.47Z" fill="#b4b9c5"/></g><g class="shadow"><path d="M763.66,379.34s-6.29,1.96-15.37,6.1c3.76,8.58,8.92,16.49,15.7,23.05,4.38,4.24,9.31,7.85,14.57,10.91,5.27,3.06,10.92,5.4,16.13,8.59,5.21,3.2,9.86,6.99,12.95,12.35,3.18,5.52,2.62,11.52,2.96,17.85,.71,13.05-16.8,76.1-15.92,75.46,1.63-1.2,2.42-3.04,3.02-4.91,2.83-8.68,5.29-17.5,7.63-26.32,1.38-5.18,2.69-10.38,3.98-15.58,.62-.46,1.31-.81,2.08-.99,2.44-.57,3.9-.05,6.11-1.92,3.26-2.75,3.33-8.09,3.53-11.97,.18-3.54,2.31-47.15,2.31-47.15l-59.67-45.47Z" fill="#5d73a2"/><path d="M696.05,429.89c3.17-2.93,6.64-5.58,10.39-7.73,4-2.29,8.51-3.75,13-4.74,9.31-2.05,15.72-4.05,25.01-6.28,9.36-2.25,21.68-11.37,28.63-18.17,1.6-1.57-9.42-13.63-9.42-13.63,0,0-56.4,17.54-75.19,58.73,2.31-2.96,4.88-5.7,7.58-8.18Z" fill="#5d73a2"/></g><g><path d="M816.78,493.02s0,0,0,0c-.06,.04-.13,.08,0,0Z" fill="#333"/><path d="M765.72,371.65c-42.16-12.24-115.17,14.56-82.15,171.04,0,0,8.14-10.27,7.47-27.75-4.65-16.36-5.78-27.12-5.8-27.27-4.77-31.75,6.84-72.92,45.27-81.49,20.01-3.79,32.16-20.88,32.56-21.68,3.44,11.57,11.64,20.79,21.83,26.98,9.4,6.21,19.59,15.75,27.18,24.42,10.17,18.7,12.57,43.66,2.3,50.09-.02,.01,2.41,7.01,2.4,7.02-.93,.47,3.39,5.56,3.92,1.88,4.7-31.72,34.58-132.89-54.99-123.24Z" fill="#14303f"/></g><g><g class="stroke"><path d="M702.76,446.19c2.7-.21,5.34-.92,7.99-1.49,8.48-1.82,17.26-2.2,25.87-1.13-.54-.86-1.09-1.72-1.63-2.58" fill="none" stroke="#14303f" stroke-linecap="round" stroke-linejoin="round"/><path d="M705.61,456.51c2.85,1.55,6.28,1.48,9.51,1.25,6.78-.48,20.74-3.27,20.94-3.06,.19,.21-.66,3.07-1.01,4.21" fill="none" stroke="#14303f" stroke-linecap="round" stroke-linejoin="round"/></g><path d="M726.16,442.73c-.71-.79-14.69,.95-15.17,1.65-2.87,4.41,.21,10.47,4.88,12.12,9.24,4.21,16.2-6.26,10.29-13.77Z" fill="#14303f"/><path d="M721.53,450.99c3.85,0,3.85-5.98,0-5.98s-3.85,5.98,0,5.98h0Z" fill="#fff"/></g><g><path d="M794.45,443.84c-.74-.27-11.62,1.32-12.79,2.19-10.39,6.22,4.68,16.53,12.49,12.05,5.71-2.43,6.16-11.77,.29-14.24Zm-6.4,12.92s0,0,0,0c0,0,0,0-.01,0,0,0,0,0,.01,0Z" fill="#14303f"/><path d="M789.75,452.13c3.85,0,3.85-5.98,0-5.98s-3.85,5.98,0,5.98h0Z" fill="#fff"/><g class="stroke-2"><path d="M773.99,445.16c.13,.17,6.6,.61,14.58-1.1,3.98-.85,12.34,.5,16.23,1.71" fill="none" stroke="#14303f" stroke-linecap="round" stroke-miterlimit="10"/><path d="M774.12,456.6c9.36,3.31,19.98,2.92,29.08-1.05" fill="none" stroke="#14303f" stroke-linecap="round" stroke-miterlimit="10"/></g></g><g class="stroke-3"><path d="M763.66,379.34c-14.59,3.48-105.25,40.52-75.79,122.74,7.13,32.96,6.49,26.63,37.41,31.93,19.46,2.49,50.46,6.16,69.4-.36,1.63-1.2,2.41-3.04,3.02-4.9,4.47-13.79,8.11-27.84,11.61-41.9,2.67-2.03,5.53-.48,8.19-2.91,3.26-2.75,3.33-8.09,3.53-11.97,.18-3.54,2.31-47.15,2.31-47.15l-59.67-45.47Z" fill="none" stroke="#14303f" stroke-linejoin="round"/><path d="M763.2,384.19c-6.66,33.54-5.39,69.93,2.52,103.12-7.53-3.46-16.14-3.35-24.42-3.18" fill="none" stroke="#14303f" stroke-linecap="round" stroke-linejoin="round"/><path d="M713.46,494.13c8.19,20.64,40.59,21.9,56.05,8.49" fill="none" stroke="#14303f" stroke-linecap="round" stroke-miterlimit="10"/></g><g><path d="M696.83,457.1c-.56-2.31-1.92-11.24,.06-14.06,3.21-4.56,13.52-6.28,16.31-7.41-9.68,1.33-23.19,2.96-23.19,2.96,0,0,2.74,35.62,9.29,38.23,1.06,.42,2.68,.97,4.67,1.51-4.84-4.97-5.69-15.22-7.14-21.23Z" fill="#eaebef"/><path d="M789.96,434.07s.02,0,.02,0c2.2,.77,4.42,1.49,6.63,2.22,2.66,.88,5.35,1.65,8,2.54,2.67,.89,5.44,1.9,7.7,3.62,.91,.69,1.73,1.49,2.19,2.55,.52,1.21,.64,2.57,.66,3.88,.03,2.79-.53,5.54-.8,8.31-.37,3.81-1.1,7.62-2.85,11.06-1.42,2.79-3.6,5.23-5.92,7.3-1.73,1.55-3.64,2.98-5.66,4.22,5.1-.82,9.37-2.14,11.49-2.98,6.56-2.61,9.29-38.23,9.29-38.23,0,0-15.24-4.43-30.75-4.51Z" fill="#eaebef"/><path d="M690.01,438.58s2.74,35.62,9.29,38.23c6.56,2.61,33.84,9.85,42.52-7.74,8.68-17.58,5.84-26.78,5.84-26.78-15.41-16.01-57.66-3.71-57.66-3.71" fill="none" stroke="#14303f" stroke-linecap="round" stroke-miterlimit="10" stroke-width="4.78"/><path d="M820.72,438.58s-2.74,35.62-9.29,38.23c-6.56,2.61-33.84,9.85-42.52-7.74-8.68-17.58-5.84-26.78-5.84-26.78,15.41-16.01,57.66-3.71,57.66-3.71" fill="none" stroke="#14303f" stroke-linecap="round" stroke-miterlimit="10" stroke-width="4.78"/><path d="M748.11,445.77s9.8-5.62,14.51,1.2" fill="none" stroke="#14303f" stroke-linecap="round" stroke-miterlimit="10" stroke-width="4.78"/></g></g><g id="leaves-sm" opacity="0"><g id="leaves-sm2"><path d="M778.1,341.37c-5.72,5.53-10.26,13.61-7.98,21.23,2.27,7.59,11.85,11.99,19.09,8.79-2.82,5.38-3.35,12.22-.22,17.42,3.14,5.2,10.38,7.91,15.72,5.02-.43,6.73,.19,14.07,4.61,19.18,4.41,5.11,13.71,6.2,17.5,.62,1.78,4.72,6.65,8.11,11.7,8.13,5.05,.03,9.95-3.31,11.78-8.01,0,0,8-44.32-13.49-65.82s-58.71-6.56-58.71-6.56Z" fill="#17865a"/><path d="M778.1,341.37c-5.72,5.53-10.26,13.61-7.98,21.23,2.27,7.59,11.85,11.99,19.09,8.79-2.82,5.38-3.35,12.22-.22,17.42s10.38,7.91,15.72,5.02c-.43,6.73,.19,14.07,4.61,19.18s13.71,6.2,17.5,.62c1.78,4.72,6.65,8.11,11.7,8.13s9.95-3.31,11.78-8.01" fill="none" stroke="#14303f" stroke-linecap="round" stroke-linejoin="round"/></g><g id="leaves-sm1"><path d="M742.35,341.31s-39.06-15.33-75.59,2.15-36.53,61.22-36.53,61.22c4.37,6.79,13.54,10.04,21.2,7.51,7.66-2.52,13.11-10.59,12.59-18.64,1.38,4.55,6.62,7.51,11.24,6.42,4.63-1.08,7.99-5.99,7.41-10.71,4.04,5.04,11.92,6.48,17.48,3.19,5.56-3.29,8.09-10.89,5.61-16.86,3.09,2.15,6.36,4.38,10.11,4.75,3.75,.37,8.04-1.87,8.54-5.6,.4-2.99-.04-8.87-.04-8.87,5.48,1.78,11.99-.34,15.36-5.01,3.94-5.46,3.37-12.86,2.62-19.55Z" fill="#17865a"/><path d="M742.35,341.31c.75,6.69,1.33,14.09-2.62,19.55-3.37,4.67-9.88,6.79-15.36,5.01,0,0,.44,5.89,.04,8.87-.5,3.73-4.79,5.97-8.54,5.6s-7.02-2.59-10.11-4.75c2.48,5.97-.05,13.57-5.61,16.86s-13.44,1.85-17.48-3.19c.58,4.72-2.78,9.62-7.41,10.71s-9.86-1.88-11.24-6.42c.52,8.05-4.92,16.12-12.59,18.64s-16.84-.73-21.2-7.51" fill="none" stroke="#14303f" stroke-linecap="round" stroke-linejoin="round"/></g><g id="leaves-sm5"><path d="M850.18,506.05c-6.52,2.79-10.71,10.22-9.72,17.24-7.66,.66-16.39,1.93-20.64,8.34-4.54,6.87-1.52,16.27,3.26,22.97-6.75,.94-12.53,6.75-13.42,13.52-.89,6.76,3.17,13.87,9.45,16.54-32.88,6.48-12.99,40-.16,36.56-8.53,6.75-9.46,13.45-9.82,21.35-.41,8.98,7.68,15.77,14.97,21.01-11.69,2.12-20.01,15.4-16.8,26.84-4.36-.92-32.06-2.31-20.43,25.49l105.28,12.1-22.78-212.8-19.2-9.16Z" fill="#17865a"/><path d="M850.18,506.05c-6.52,2.79-10.71,10.22-9.72,17.24-7.66,.66-16.39,1.93-20.64,8.34-4.54,6.87-1.52,16.27,3.26,22.97-6.75,.94-12.53,6.75-13.42,13.52-.89,6.76,3.17,13.87,9.45,16.54-32.88,6.48-12.99,40-.16,36.56-8.53,6.75-9.46,13.45-9.82,21.35-.41,8.98,7.68,15.77,14.97,21.01-11.69,2.12-20.01,15.4-16.8,26.84-4.36-.92-32.06-2.31-20.43,25.49" fill="none" stroke="#14303f" stroke-linecap="round" stroke-linejoin="round"/></g><g id="leaves-sm4"><path d="M654.6,531.71c8.08-.78,16.39,4.15,19.58,11.61s1.01,16.87-5.14,22.17c6.94,1.8,12.39,8.32,12.92,15.47,.53,7.15-3.89,14.41-10.49,17.22,10.13,1.87,18.89,9.79,21.78,19.67,2.89,9.88-.22,21.28-7.74,28.31,7.23,.97,14.2,5.42,17.07,12.13,2.87,6.71,.81,15.51-5.38,19.38,8.7-1.67,17.26,4.99,20.81,13.11,3.54,8.12,3.27,17.32,2.93,26.17h-132.6l48.02-174.26,18.24-10.99Z" fill="#17865a"/><path d="M654.6,531.71c8.08-.78,16.39,4.15,19.58,11.61s1.01,16.87-5.14,22.17c6.94,1.8,12.39,8.32,12.92,15.47,.53,7.15-3.89,14.41-10.49,17.22,10.13,1.87,18.89,9.79,21.78,19.67,2.89,9.88-.22,21.28-7.74,28.31,7.23,.97,14.2,5.42,17.07,12.13,2.87,6.71,.81,15.51-5.38,19.38,8.7-1.67,17.26,4.99,20.81,13.11,3.54,8.12,3.27,17.32,2.93,26.17" fill="none" stroke="#14303f" stroke-linecap="round" stroke-linejoin="round"/></g><g id="leaves-sm3"><path d="M655,432.48c5.85,2.37,11.7,5.75,14.73,11.29s2.08,13.62-3.41,16.73c3.26,3.11,6.67,6.47,7.76,10.85s-1.29,9.93-5.77,10.48c4.85,4.16,5.82,11.92,2.7,17.51-3.12,5.58-9.71,8.8-16.1,8.53" fill="#17865a" stroke="#14303f" stroke-linecap="round" stroke-linejoin="round"/></g></g><g id="leaves-lg" opacity="0"><path d="M580.01,711.17c1.47-6.02,1.89-12.58-.63-18.24-2.52-5.66-8.59-10.06-14.71-9.08,3.61-4.76,5.56-11.1,3.86-16.83s-7.67-10.26-13.54-9.15c4.66-6.16,6.13-14.61,3.83-21.98-.84-2.68-2.32-5.39-4.87-6.55-1.37-.62-2.91-.74-4.41-.77-5.13-.11-10.28,.65-15.16,2.23l-6.52,76.12,52.15,4.24Z" fill="#17865a"/><path d="M535.61,531.15c6.83,2.28,15.07-1.07,18.39-7.45s1.31-15.05-4.48-19.33c4.36-3.08,5.15-9.52,3.25-14.51s-5.86-8.86-9.7-12.57c6.14-.01,12.01-4.42,13.73-10.32,1.72-5.89-.87-12.77-6.04-16.07,10.25-8.17,8.99-26.71-2.27-33.41,6.16-4.3,8.96-12.85,6.55-19.96-2.42-7.11-9.85-12.19-17.35-11.84l-63.4-.02-44.14,108.46,33.42,49.83,72.06-12.81Z" fill="#17865a"/><path d="M516.22,336.3c5.33,3.39,18.28,4.01,26.65-6.64,2.9-4.34,2.21-10.06,1.39-15.22,4.04,1.5,8.67-.28,11.64-3.4,5.01-5.26,2.5-15.84,2.5-15.84,0,0,17.67-1.52,20.89-8.06s-.52-13.55-1.38-19.01h-73.5l11.8,68.18Z" fill="#17865a"/><path d="M908.29,708.34c-4.26-2.81-5.45-8.87-3.81-13.7s5.54-8.57,9.73-11.49c-4.68-5.37-5.82-13.56-2.79-20,3.04-6.44,10.08-10.77,17.2-10.58-5.55-4.91-7.86-13.17-5.67-20.24s8.77-12.58,16.12-13.49c-1.43-6.55-2.37-25.94,16.75-23.98l22.05,113.49h-69.59Z" fill="#17865a"/><path d="M951.36,535.05c-6.14,2.01-13.46-.44-17.17-5.73s-3.49-13.01,.5-18.09c-8.42,.15-14.29-9.58-13.17-17.93,1.12-8.35,7-15.2,12.95-21.16-7.38,.97-12.98-8.09-11.18-15.31,1.8-7.22,8.33-12.25,14.95-15.65-4.34-.43-7.23-4.94-7.79-9.26-1.44-11.17,10.67-21.76,21.55-18.85l162.34-17.17-46.29,124.97-116.7,14.2Z" fill="#17865a"/><path d="M963.58,354.99c-7.88,2.23-16.61-3.47-19.24-11.23-2.63-7.76,.02-16.62,5.21-22.95-6.92-1.23-12.26-8.34-11.51-15.33,.71-6.57,10.26-18.04,10.21-18.6-.09-.93-18.7-1.99-9.67-21.21h95.73v61.48l-70.74,27.84Z" fill="#17865a"/><path d="M938.6,265.67c-9.04,19.22,9.58,20.28,9.67,21.21,.05,.56-9.5,12.03-10.21,18.6-.76,6.99,4.58,14.1,11.51,15.33-5.19,6.34-7.84,15.19-5.21,22.95,2.63,7.76,11.35,13.46,19.24,11.23" fill="none" stroke="#14303f" stroke-linecap="round" stroke-linejoin="round"/><path d="M952.01,413.05c-10.88-2.91-22.99,7.68-21.55,18.85,.56,4.32,3.45,8.83,7.79,9.26-6.62,3.4-13.15,8.43-14.95,15.65-1.8,7.22,3.8,16.28,11.18,15.31-5.95,5.96-11.83,12.81-12.95,21.16-1.12,8.35,4.75,18.08,13.17,17.93-3.99,5.08-4.2,12.8-.5,18.09s11.02,7.74,17.17,5.73" fill="none" stroke="#14303f" stroke-linecap="round" stroke-linejoin="round"/><path d="M999.49,448c7.21,15.16,28.83,21.16,42.82,11.89,3.26,5.14,8.13,9.59,14.08,10.83,5.96,1.24,12.93-1.54,15.18-7.2,5.1,6.63,11.41,13.09,19.59,14.83,12.46,2.66,25.81-8.89,24.97-21.6,3.02,3.49,6.35,7.17,10.84,8.19s10.16-2.27,9.63-6.85" fill="#17865a" stroke="#14303f" stroke-linecap="round" stroke-linejoin="round"/><path d="M955.82,594.85c-19.12-1.96-18.18,17.43-16.75,23.98-7.35,.91-13.92,6.42-16.12,13.49s.12,15.33,5.67,20.24c-7.12-.2-14.16,4.14-17.2,10.58-3.04,6.44-1.9,14.63,2.79,20-4.18,2.93-8.08,6.66-9.73,11.49s-.46,10.9,3.81,13.7" fill="none" stroke="#14303f" stroke-linecap="round" stroke-linejoin="round"/><path d="M577.91,268.12c.85,5.45,4.59,12.47,1.38,19.01s-20.89,8.06-20.89,8.06c0,0,2.51,10.59-2.5,15.84-2.97,3.12-7.6,4.9-11.64,3.4,.81,5.16,1.51,10.88-1.39,15.22-8.37,10.66-21.32,10.03-26.65,6.64" fill="none" stroke="#14303f" stroke-linecap="round" stroke-linejoin="round"/><path d="M537.67,385.68c7.5-.34,14.94,4.73,17.35,11.84,2.42,7.11-.39,15.66-6.55,19.96,11.26,6.7,12.53,25.24,2.27,33.41,5.17,3.3,7.76,10.18,6.04,16.07-1.72,5.89-7.59,10.31-13.73,10.32,3.84,3.7,7.8,7.58,9.7,12.57s1.11,11.43-3.25,14.51c5.79,4.28,7.8,12.94,4.48,19.33s-11.56,9.73-18.39,7.45" fill="none" stroke="#14303f" stroke-linecap="round" stroke-linejoin="round"/><path d="M534.39,630.8c4.88-1.58,10.03-2.34,15.16-2.23,1.5,.03,3.04,.15,4.41,.77,2.55,1.16,4.03,3.87,4.87,6.55,2.3,7.37,.83,15.82-3.83,21.98,5.87-1.11,11.85,3.42,13.54,9.15s-.26,12.07-3.86,16.83c6.12-.97,12.19,3.42,14.71,9.08,2.52,5.66,2.11,12.22,.63,18.24" fill="none" stroke="#14303f" stroke-linecap="round" stroke-linejoin="round"/><path d="M510.98,450.96c.2-7.25-4.35-14.39-11-17.29s-14.98-1.35-20.15,3.73c-.82-6.7-4.44-13.51-10.69-16.06s-14.85,1.11-15.67,7.8c-6.39-4.77-14.72-7.58-22.43-5.55s-14.04,9.87-12.61,17.71c-9.47-7.66-25.73-4.02-31.03,6.95" fill="#17865a" stroke="#14303f" stroke-linecap="round" stroke-linejoin="round"/></g></svg>
