<?xml version="1.0" encoding="UTF-8"?><svg xmlns="http://www.w3.org/2000/svg" width="52" height="63" viewBox="0 0 52 63"><path class="shadow" d="M51.26,38.61c0-7-2.45-15.68-6.39-22.64C40.11,7.58,34.04,2.95,27.77,2.95S15.42,7.58,10.67,15.97c-3.94,6.97-6.39,15.64-6.39,22.64,0,2.6,1.11,7.41,8.56,10.48,1.3,.53,2.73,.99,4.28,1.37-.12,.84-.18,1.69-.18,2.54,0,2.04,.25,5.01,2.41,7.16,2.26,2.25,5.3,2.25,7.12,2.25h.49s.16,0,.16,0h.66s.64,0,.64,0h.62c1.83,0,4.89,0,7.15-2.25,2.16-2.15,2.41-5.11,2.41-7.16,0-.86-.06-1.71-.18-2.56,8.21-2,12.84-6.22,12.84-11.84Z" fill="#14303f"/><path d="M43.72,36.24c0,12.07-38.98,12.07-38.98,0S13.47,4.58,24.23,4.58s19.49,19.59,19.49,31.66Z" fill="#ff5f5f"/><path d="M43.22,37.47c-.28,10.15-37.91,10.28-37.91,.07,0,0,8.16-3.02,18.93-3.02s18.98,2.96,18.98,2.96Z" fill="#eaebef"/><path d="M43.72,36.24c0,12.07-38.98,12.07-38.98,0S13.47,4.58,24.23,4.58s19.49,19.59,19.49,31.66Z" fill="none" stroke="#14303f" stroke-miterlimit="10" stroke-width="2"/><path d="M43.22,38.5c-2-2.28-9.74-3.98-18.98-3.98s-16.84,1.67-18.93,3.92" fill="none" stroke="#14303f" stroke-miterlimit="10" stroke-width="2"/><line x1="24.23" y1="34.51" x2="24.23" y2="41.54" fill="#f9ba19" stroke="#14303f" stroke-miterlimit="10"/><line x1="34.16" y1="34.98" x2="24.26" y2="42.36" fill="#f9ba19" stroke="#14303f" stroke-miterlimit="10"/><line x1="24.26" y1="42.36" x2="42.53" y2="38.67" fill="#f9ba19" stroke="#14303f" stroke-miterlimit="10"/><line x1="14.07" y1="34.98" x2="23.97" y2="42.36" fill="#f9ba19" stroke="#14303f" stroke-miterlimit="10"/><line x1="23.97" y1="42.36" x2="5.7" y2="38.67" fill="#f9ba19" stroke="#14303f" stroke-miterlimit="10"/><path d="M31.06,50.64c0,5.79-3.06,5.4-6.83,5.4s-6.83,.39-6.83-5.4,3.42-10.49,6.83-10.49,6.83,4.7,6.83,10.49Z" fill="#f9ba19" stroke="#14303f" stroke-miterlimit="10" stroke-width="2"/><circle cx="22.77" cy="12.8" r="3.09" fill="#fff"/><circle cx="31.91" cy="24.94" r="5.35" fill="#fff"/><circle cx="14.84" cy="25.14" r="3.79" fill="#fff"/><g class="outline"><path d="M24.23,3.58c11.31,0,20.49,19.76,20.49,32.66,0,5.26-6.17,8.34-13.47,9.5,.51,1.5,.81,3.16,.81,4.89,0,2.4-.49,4-1.53,5.03-1.28,1.27-3.08,1.38-5.03,1.38-.2,0-.4,0-.6,0h-.67s-.67,0-.67,0c-.21,0-.42,0-.63,0-1.94,0-3.73-.11-5-1.38-1.04-1.04-1.53-2.64-1.53-5.03,0-1.72,.3-3.38,.81-4.88-2.51-.4-4.81-1-6.76-1.8-4.39-1.81-6.71-4.48-6.71-7.71C3.74,23.34,12.92,3.58,24.23,3.58m0-3C17.96,.58,11.89,5.2,7.14,13.6,3.19,20.56,.74,29.24,.74,36.24c0,2.6,1.11,7.41,8.56,10.48,1.3,.53,2.73,.99,4.28,1.37-.12,.84-.18,1.69-.18,2.54,0,2.04,.25,5.01,2.41,7.16,2.26,2.25,5.3,2.25,7.12,2.25h.49s.16,0,.16,0h.66s.64,0,.64,0h.62c1.83,0,4.89,0,7.15-2.25,2.16-2.15,2.41-5.11,2.41-7.16,0-.86-.06-1.71-.18-2.56,8.21-2,12.84-6.22,12.84-11.84,0-7-2.45-15.68-6.39-22.64C36.58,5.2,30.51,.58,24.23,.58h0Z" fill="#fff"/></g></svg>
