<?xml version="1.0" encoding="UTF-8"?><svg class="icons" xmlns="http://www.w3.org/2000/svg" width="37" height="63" viewBox="0 0 37 63"><g><rect class="shadow" x="4.07" y="2.98" width="32.08" height="59.51" rx="6.99" ry="6.99" fill="#14303f"/><rect x="4.86" y="4.51" width="24.08" height="51.51" rx="2.99" ry="2.99" fill="#ffb29a"/><rect x="4.86" y="4.51" width="24.08" height="51.51" rx="2.99" ry="2.99" fill="none" stroke="#14303f" stroke-linejoin="round" stroke-width="2"/><path d="M28.93,45.94c0,1.64-1.34,2.99-2.99,2.99H7.84c-1.64,0-2.99-1.34-2.99-2.99" fill="none" stroke="#14303f" stroke-linejoin="round"/><g class="outline"><path d="M25.94,3.51c2.2,0,3.99,1.79,3.99,3.99V53.03c0,2.2-1.79,3.99-3.99,3.99H7.84c-2.2,0-3.99-1.79-3.99-3.99V7.5c0-2.2,1.79-3.99,3.99-3.99H25.94m0-3H7.84C3.99,.51,.86,3.64,.86,7.5V53.03c0,3.85,3.13,6.99,6.99,6.99H25.94c3.85,0,6.99-3.13,6.99-6.99V7.5c0-3.85-3.13-6.99-6.99-6.99h0Z" fill="#fff"/></g><g><path d="M17.11,36.55c.75,0,1.62,.71,1.62,1.89,0,1.34-1.09,2.57-2.63,2.57-3.26,0-5.21-3-5.21-6.11,0-3.31,1.32-4.83,3.33-4.83s3.56,1.49,3.56,3.16c0,.88-.23,1.59-.78,1.59-.23,0-.5-.22-.5-.45,0-.41,.5-.6,.5-.99,0-1.39-1.04-2.4-2.8-2.4-1.62,0-2.55,1.18-2.55,3.82,0,2.86,1.85,5.23,4.42,5.23,1.19,0,1.95-.65,1.95-1.61,0-.73-.38-1.03-.65-1.03-.35,0-.36,.1-.55,.1s-.38-.15-.38-.46c0-.35,.33-.48,.66-.48Zm-4.19-2.25c.3,0,.46,.25,.6,.51,.12,.22,.53,.55,1.03,.55,1.12,0,3-.3,5.13-.3,1.56,0,2.45,1.04,2.45,1.95,0,.65-.26,1.03-.65,1.03-.31,0-.53-.25-.53-.45,0-.36,.25-.41,.25-.65s-.25-.96-1.59-.96c-1.77,0-3.54,.27-4.98,.27s-2.14-.84-2.14-1.44c0-.3,.2-.51,.43-.51Z" fill="#14303f"/><path d="M13.9,27.8c.51,0,.84,.51,.84,.91s-.31,.68-.66,.68c-.51,0-.94-.3-.94-.76,0-.41,.25-.83,.76-.83Zm5.58,2.22c-1.71,0-3.28-.38-3.28-.83,0-.41,.28-.65,.68-.65s1.03,.5,2.38,.5,1.94-.48,1.94-.98c0-.58-.73-1.21-1.16-1.52-.17-.12-.28-.2-.28-.33,0-.15,.18-.33,.33-.33,.13,0,.21,.05,.38,.17,.58,.41,1.61,1.19,1.61,2.04,0,1.13-.89,1.94-2.6,1.94Z" fill="#14303f"/><path d="M20.51,22.9c-1.08,0-2.29-.45-2.8-.45-.25,0-.33,.08-.33,.26,0,.66,2.38,2.37,3.38,2.75,.78,.3,1.09,.43,1.09,.79s-.23,.55-.58,.55-3.61-.22-4.19-.22-.84-.05-.84-.41c0-.41,.36-.66,1.01-.66s2.1,.05,2.14,.05c-.15-.08-3.03-1.75-3.03-3.31,0-.51,.38-.94,.93-.94,1.03,0,2.28,.58,3.21,.58,.56,0,.75-.23,.75-.68,0-.58-.76-1.19-1.19-1.51-.17-.12-.28-.2-.28-.33,0-.15,.18-.33,.33-.33,.13,0,.21,.05,.38,.17,.58,.41,1.59,1.24,1.59,2.22,0,.84-.65,1.47-1.56,1.47Z" fill="#14303f"/><path d="M20.28,17.96c-.12,.33-.23,.48-.48,.48-.28,0-.43-.28-.43-.6,0-.36-1.09-1.74-2.02-1.74-.18,0-.28,.12-.28,.28,0,.68,1.59,1.82,2.29,2.22,.46,.26,1.04,.31,1.37,.31,.28,0,.55-.05,.7-.05,.31,0,.5,.3,.5,.6s-.18,.4-.61,.4-2.71-.13-4.24-.13c-3.84,0-5.2-.56-5.2-1.62,0-.68,.51-1.11,1.36-1.11,2.27,0,4.92,1.85,4.92,1.85l.55,.05c-.12-.07-2.4-1.44-2.4-2.8,0-.56,.38-.96,1.03-.96,1.14,0,2.23,1.42,2.53,2.07,0,0,1.03-.66,1.03-1.54,0-.61-.4-.93-.83-1.24-.17-.12-.28-.2-.28-.33,0-.15,.18-.33,.33-.33,.13,0,.21,.05,.38,.17,.58,.41,1.18,.83,1.18,1.82s-.76,1.77-1.38,2.2Zm-3.28,.94s-2.17-1.08-3.84-1.08c-.28,0-.5,.13-.5,.31,0,.73,4.01,.76,4.34,.76Z" fill="#14303f"/></g></g></svg>
