<?xml version="1.0" encoding="UTF-8"?><svg id="asinglediv" xmlns="http://www.w3.org/2000/svg" width="1070" height="330" xmlns:xlink="http://www.w3.org/1999/xlink" viewBox="0 0 1070 330"><defs><clipPath id="a"><path d="m451.2 87.88h134.03v161.66h-134.03z"/></clipPath></defs><g class="off-canvas-text" opacity=".7"><path d="M464.15,156.77v-.07c0-6.9,5.2-12.54,12.65-12.54,4.57,0,7.31,1.52,9.56,3.74l-3.39,3.92c-1.87-1.7-3.78-2.74-6.2-2.74-4.09,0-7.04,3.4-7.04,7.55v.07c0,4.16,2.88,7.62,7.04,7.62,2.77,0,4.47-1.11,6.38-2.84l3.4,3.43c-2.5,2.67-5.27,4.33-9.95,4.33-7.14,0-12.44-5.51-12.44-12.48Z" fill="#14303f"/><path d="M489.13,165.29l3.15-3.78c2.18,1.8,4.47,2.95,7.24,2.95,2.18,0,3.5-.87,3.5-2.29v-.07c0-1.35-.83-2.05-4.89-3.08-4.89-1.25-8.04-2.6-8.04-7.42v-.07c0-4.4,3.53-7.31,8.49-7.31,3.53,0,6.55,1.11,9.01,3.08l-2.77,4.02c-2.15-1.49-4.26-2.39-6.31-2.39s-3.12,.94-3.12,2.11v.07c0,1.59,1.04,2.11,5.23,3.19,4.92,1.28,7.69,3.05,7.69,7.28v.07c0,4.82-3.67,7.52-8.91,7.52-3.67,0-7.38-1.28-10.29-3.88Z" fill="#14303f"/><path d="M510.95,165.29l3.15-3.78c2.18,1.8,4.47,2.95,7.24,2.95,2.18,0,3.5-.87,3.5-2.29v-.07c0-1.35-.83-2.05-4.89-3.08-4.89-1.25-8.04-2.6-8.04-7.42v-.07c0-4.4,3.53-7.31,8.49-7.31,3.53,0,6.55,1.11,9.01,3.08l-2.77,4.02c-2.15-1.49-4.26-2.39-6.31-2.39s-3.12,.94-3.12,2.11v.07c0,1.59,1.04,2.11,5.23,3.19,4.92,1.28,7.69,3.05,7.69,7.28v.07c0,4.82-3.67,7.52-8.91,7.52-3.67,0-7.38-1.28-10.29-3.88Z" fill="#14303f"/><path d="M465.47,179.21h5.34v24.26h-5.34v-24.26Z" fill="#14303f"/><path d="M475.2,199.93l3.15-3.78c2.18,1.8,4.47,2.95,7.24,2.95,2.18,0,3.5-.87,3.5-2.29v-.07c0-1.35-.83-2.05-4.89-3.08-4.89-1.25-8.04-2.6-8.04-7.42v-.07c0-4.4,3.53-7.31,8.49-7.31,3.53,0,6.55,1.11,9.01,3.08l-2.77,4.02c-2.15-1.49-4.26-2.39-6.31-2.39s-3.12,.94-3.12,2.11v.07c0,1.59,1.04,2.11,5.23,3.19,4.92,1.28,7.69,3.05,7.69,7.28v.07c0,4.82-3.67,7.52-8.91,7.52-3.67,0-7.38-1.28-10.29-3.88Z" fill="#14303f"/><path d="M473.54,213.68h4.92l10.4,24.43h-5.58l-2.22-5.44h-10.26l-2.22,5.44h-5.44l10.4-24.43Zm5.61,14.28l-3.22-7.87-3.22,7.87h6.45Z" fill="#14303f"/><path d="M487.6,213.85h5.72l5.03,16.43,5.44-16.5h4.57l5.44,16.5,5.03-16.43h5.58l-8.28,24.43h-4.64l-5.47-15.87-5.48,15.87h-4.64l-8.28-24.43Z" fill="#14303f"/><path d="M528.34,213.85h18.3v4.75h-12.99v4.92h11.43v4.75h-11.43v5.09h13.17v4.75h-18.47v-24.26Z" fill="#14303f"/><path d="M549.89,234.57l3.15-3.78c2.18,1.8,4.47,2.95,7.24,2.95,2.18,0,3.5-.87,3.5-2.29v-.07c0-1.35-.83-2.05-4.89-3.08-4.89-1.25-8.04-2.6-8.04-7.42v-.07c0-4.4,3.53-7.31,8.49-7.31,3.53,0,6.55,1.11,9.01,3.08l-2.77,4.02c-2.15-1.49-4.26-2.39-6.31-2.39s-3.12,.94-3.12,2.11v.07c0,1.59,1.04,2.11,5.23,3.19,4.92,1.28,7.69,3.05,7.69,7.28v.07c0,4.82-3.67,7.52-8.91,7.52-3.67,0-7.38-1.28-10.29-3.88Z" fill="#14303f"/><path d="M603.16,213.9h5.75l6.38,10.26,6.38-10.26h5.75v24.26h-5.3v-15.84l-6.83,10.36h-.14l-6.76-10.26v15.73h-5.23v-24.26Z" fill="#14303f"/><path d="M633.23,213.9h18.3v4.75h-12.99v4.92h11.43v4.75h-11.43v5.09h13.17v4.75h-18.47v-24.26Z" fill="#14303f"/><path d="M572.64,226.1v-.07c0-6.9,5.44-12.54,12.93-12.54s12.86,5.58,12.86,12.48v.07c0,6.9-5.44,12.55-12.93,12.55s-12.86-5.58-12.86-12.48Zm20.2,0v-.07c0-4.16-3.05-7.62-7.35-7.62s-7.28,3.4-7.28,7.55v.07c0,4.16,3.05,7.62,7.35,7.62s7.28-3.4,7.28-7.55Z" fill="#14303f"/></g><g class="canvas-shadow" opacity=".3"><polygon points="589.36 254.26 455.34 254.26 455.34 92.6 586.19 92.6 589.36 254.26" fill="#14303f"/></g><g class="fill-swap"><rect x="451.2" y="87.88" width="134.03" height="161.66" fill="#eaebef"/></g><g clip-path="url(#a)"><g class="canvas-text"><path d="M461.28,153.99v-.07c0-6.9,5.2-12.54,12.65-12.54,4.57,0,7.31,1.52,9.56,3.74l-3.39,3.92c-1.87-1.7-3.78-2.74-6.2-2.74-4.09,0-7.04,3.4-7.04,7.55v.07c0,4.16,2.88,7.62,7.04,7.62,2.77,0,4.47-1.11,6.38-2.84l3.4,3.43c-2.5,2.67-5.27,4.33-9.95,4.33-7.14,0-12.44-5.51-12.44-12.48Z" fill="#14303f"/><path d="M486.26,162.52l3.15-3.78c2.18,1.8,4.47,2.95,7.24,2.95,2.18,0,3.5-.87,3.5-2.29v-.07c0-1.35-.83-2.05-4.89-3.08-4.89-1.25-8.04-2.6-8.04-7.42v-.07c0-4.4,3.53-7.31,8.49-7.31,3.53,0,6.55,1.11,9.01,3.08l-2.77,4.02c-2.15-1.49-4.26-2.39-6.31-2.39s-3.12,.94-3.12,2.11v.07c0,1.59,1.04,2.11,5.23,3.19,4.92,1.28,7.69,3.05,7.69,7.28v.07c0,4.82-3.67,7.52-8.91,7.52-3.67,0-7.38-1.28-10.29-3.88Z" fill="#14303f"/><path d="M508.08,162.52l3.15-3.78c2.18,1.8,4.47,2.95,7.24,2.95,2.18,0,3.5-.87,3.5-2.29v-.07c0-1.35-.83-2.05-4.89-3.08-4.89-1.25-8.04-2.6-8.04-7.42v-.07c0-4.4,3.53-7.31,8.49-7.31,3.53,0,6.55,1.11,9.01,3.08l-2.77,4.02c-2.15-1.49-4.26-2.39-6.31-2.39s-3.12,.94-3.12,2.11v.07c0,1.59,1.04,2.11,5.23,3.19,4.92,1.28,7.69,3.05,7.69,7.28v.07c0,4.82-3.67,7.52-8.91,7.52-3.67,0-7.38-1.28-10.29-3.88Z" fill="#14303f"/><path d="M462.6,176.43h5.34v24.26h-5.34v-24.26Z" fill="#14303f"/><path d="M472.33,197.16l3.15-3.78c2.18,1.8,4.47,2.95,7.24,2.95,2.18,0,3.5-.87,3.5-2.29v-.07c0-1.35-.83-2.05-4.89-3.08-4.89-1.25-8.04-2.6-8.04-7.42v-.07c0-4.4,3.53-7.31,8.49-7.31,3.53,0,6.55,1.11,9.01,3.08l-2.77,4.02c-2.15-1.49-4.26-2.39-6.31-2.39s-3.12,.94-3.12,2.11v.07c0,1.59,1.04,2.11,5.23,3.19,4.92,1.28,7.69,3.05,7.69,7.28v.07c0,4.82-3.67,7.52-8.91,7.52-3.67,0-7.38-1.28-10.29-3.88Z" fill="#14303f"/><path d="M470.67,210.9h4.92l10.4,24.43h-5.58l-2.22-5.44h-10.26l-2.22,5.44h-5.44l10.4-24.43Zm5.61,14.28l-3.22-7.87-3.22,7.87h6.45Z" fill="#14303f"/><path d="M484.73,211.07h5.72l5.03,16.43,5.44-16.5h4.57l5.44,16.5,5.03-16.43h5.58l-8.28,24.43h-4.64l-5.47-15.87-5.48,15.87h-4.64l-8.28-24.43Z" fill="#14303f"/><path d="M525.47,211.07h18.3v4.75h-12.99v4.92h11.43v4.75h-11.43v5.09h13.17v4.75h-18.47v-24.26Z" fill="#14303f"/><path d="M547.02,231.8l3.15-3.78c2.18,1.8,4.47,2.95,7.24,2.95,2.18,0,3.5-.87,3.5-2.29v-.07c0-1.35-.83-2.05-4.89-3.08-4.89-1.25-8.04-2.6-8.04-7.42v-.07c0-4.4,3.53-7.31,8.49-7.31,3.53,0,6.55,1.11,9.01,3.08l-2.77,4.02c-2.15-1.49-4.26-2.39-6.31-2.39s-3.12,.94-3.12,2.11v.07c0,1.59,1.04,2.11,5.23,3.19,4.92,1.28,7.69,3.05,7.69,7.28v.07c0,4.82-3.67,7.52-8.91,7.52-3.67,0-7.38-1.28-10.29-3.88Z" fill="#14303f"/><path d="M600.29,211.13h5.75l6.38,10.26,6.38-10.26h5.75v24.26h-5.3v-15.84l-6.83,10.36h-.14l-6.76-10.26v15.73h-5.23v-24.26Z" fill="#14303f"/><path d="M630.36,211.13h18.3v4.75h-12.99v4.92h11.43v4.75h-11.43v5.09h13.17v4.75h-18.47v-24.26Z" fill="#14303f"/><path d="M569.78,223.32v-.07c0-6.9,5.44-12.54,12.93-12.54s12.86,5.58,12.86,12.48v.07c0,6.9-5.44,12.55-12.93,12.55s-12.86-5.58-12.86-12.48Zm20.2,0v-.07c0-4.16-3.05-7.62-7.35-7.62s-7.28,3.4-7.28,7.55v.07c0,4.16,3.05,7.62,7.35,7.62s7.28-3.4,7.28-7.55Z" fill="#14303f"/></g></g><g class="canvas-border"><rect x="451.2" y="87.88" width="134.03" height="161.66" fill="none" stroke="#14303f" stroke-linecap="round" stroke-linejoin="round"/></g><g class="fill-white"><rect x="456.06" y="78.26" width="10.13" height="19.24" transform="translate(-8.18 98.54) rotate(-12.09)" fill="#b4b9c5" stroke="#14303f" stroke-linecap="round" stroke-linejoin="round"/><rect x="569.34" y="76.12" width="10.13" height="19.24" transform="translate(8.92 -46.63) rotate(4.69)" fill="#b4b9c5" stroke="#14303f" stroke-linecap="round" stroke-linejoin="round"/></g></svg>
