<?xml version="1.0" encoding="UTF-8"?><svg id="manual" xmlns="http://www.w3.org/2000/svg" width="1070" height="330" viewBox="0 0 1070 330"><g class="simple"><g class="fill-white"><rect x="462.64" y="73.91" width="144.72" height="182.18" fill="#eaebef"/></g><g class="fill-grey-light"><polygon points="535 135 535 73.91 525.97 73.91 533.02 135 535 135" fill="#b4b9c5"/><polygon points="535 256.09 535 197.25 526.97 197.25 533.26 256.09 535 256.09" fill="#b4b9c5"/><polygon points="535 197.25 535 135.58 543.03 135.58 536.74 197.25 535 197.25" fill="#b4b9c5"/><polygon points="462.64 127.1 462.64 135 535 135 535 131.18 462.64 127.1" fill="#b4b9c5"/><polygon points="607.36 135 607.36 126.56 535 135 607.36 135" fill="#b4b9c5"/><polygon points="607.36 197.25 607.36 188.8 535 197.25 607.36 197.25" fill="#b4b9c5"/><polygon points="462.64 197.25 462.64 188.8 535 197.25 462.64 197.25" fill="#b4b9c5"/></g><rect x="462.64" y="73.91" width="144.72" height="182.18" fill="none" stroke="#14303f" stroke-linejoin="round"/><line x1="535" y1="73.91" x2="535" y2="256.09" fill="none" stroke="#14303f" stroke-miterlimit="10"/><line x1="607.36" y1="197.25" x2="462.64" y2="197.25" fill="none" stroke="#14303f" stroke-miterlimit="10"/><line x1="607.36" y1="135" x2="462.64" y2="135" fill="none" stroke="#14303f" stroke-miterlimit="10"/><g id="manual-details" opacity="0"><g><rect x="589.84" y="111.52" width="32.1" height="9.06" fill="#eaebef" opacity=".5"/><rect x="612.88" y="111.52" width="9.06" height="9.06" fill="#ffb29a"/><rect x="589.84" y="111.52" width="32.1" height="9.06" fill="none" stroke="#14303f" stroke-linejoin="round" stroke-width=".5"/></g><g><rect x="589.84" y="222.25" width="32.1" height="9.06" fill="#eaebef" opacity=".5"/><rect x="612.88" y="222.25" width="9.06" height="9.06" fill="#f9ba19"/><rect x="589.84" y="222.25" width="32.1" height="9.06" fill="none" stroke="#14303f" stroke-linejoin="round" stroke-width=".5"/></g><g><rect x="448.06" y="170.77" width="32.1" height="9.06" transform="translate(928.22 350.59) rotate(180)" fill="#eaebef" opacity=".5"/><rect x="448.06" y="170.77" width="9.06" height="9.06" transform="translate(905.17 350.59) rotate(180)" fill="#00ced4"/><rect x="448.06" y="170.77" width="32.1" height="9.06" transform="translate(928.22 350.59) rotate(180)" fill="none" stroke="#14303f" stroke-linejoin="round" stroke-width=".5"/></g><line x1="471.99" y1="100.57" x2="514.62" y2="100.57" fill="none" stroke="#14303f" stroke-linecap="round" stroke-miterlimit="10"/><line x1="471.99" y1="107.47" x2="495.56" y2="107.47" fill="none" stroke="#14303f" stroke-linecap="round" stroke-miterlimit="10"/><rect x="471.99" y="115.19" width="40.92" height="5.39" fill="#f9ba19"/><rect x="553.71" y="239.3" width="40.92" height="5.39" fill="#f9ba19"/><rect x="546.69" y="168.25" width="29.99" height="3.56" fill="#00ced4"/><rect x="555.68" y="175.29" width="29.99" height="3.56" fill="#00ced4"/></g></g></svg>
