<svg xmlns="http://www.w3.org/2000/svg" width="496" height="590" viewBox="0 0 496 590"><defs><clipPath id="a"><path fill="none" d="M153.27 350.34h186.85v167.29H153.27z"/></clipPath></defs><path d="M326.15 541.91V529.7h-156.3v12.21a4.55 4.55 0 1 0 0 9.09v12.47h156.3V551a4.55 4.55 0 1 0 0-9.09z" fill="#7a7a7a"/><path d="M229.47 543.23a1.57 1.57 0 0 0-.62.14.66.66 0 0 0-.31.36 8.44 8.44 0 0 0-.31.94l-1.65 6.11h-.81l-2-5.71-1.9 5.71H221l-1.84-6.28a4 4 0 0 0-.31-.83.72.72 0 0 0-.32-.36 1.23 1.23 0 0 0-.52-.08v-.54h3.44v.54a2.07 2.07 0 0 0-.59.06c-.13 0-.19.16-.19.35a2.54 2.54 0 0 0 .13.63l1.16 4 1.87-5.55h.76l2 5.55 1-3.73a2.31 2.31 0 0 0 .1-.61c0-.29-.08-.47-.26-.55a1.88 1.88 0 0 0-.68-.12v-.54h2.72zM237 550.63h-3.74v-.54a2.9 2.9 0 0 0 .74-.09.31.31 0 0 0 .21-.32.92.92 0 0 0-.07-.36l-.37-.94h-2.58l-.19.52a2.07 2.07 0 0 0-.17.62.41.41 0 0 0 .28.45 2 2 0 0 0 .63.09v.54H229v-.54a1.18 1.18 0 0 0 .55-.12 1.26 1.26 0 0 0 .44-.47 5.68 5.68 0 0 0 .45-1l2.29-6h.55l2.42 6.19c.18.44.31.74.39.89a1 1 0 0 0 .34.36 1.29 1.29 0 0 0 .61.12zm-3.49-2.79l-1.1-2.77-1 2.77zM245.81 546.73a3.94 3.94 0 0 1-.3 1.56 3.47 3.47 0 0 1-.75 1.15 3.39 3.39 0 0 1-1 .7 6.73 6.73 0 0 1-2.73.49h-3.62v-.54a2.49 2.49 0 0 0 .76-.09.57.57 0 0 0 .33-.29 1.39 1.39 0 0 0 .08-.55v-5a1 1 0 0 0-.21-.73 1.46 1.46 0 0 0-1-.21v-.55h3.14a11 11 0 0 1 1.66.11 5.2 5.2 0 0 1 1.25.34 3.41 3.41 0 0 1 1 .59 3.83 3.83 0 0 1 .75.86 4.13 4.13 0 0 1 .46 1 4.28 4.28 0 0 1 .18 1.16zm-1.9 0a4.22 4.22 0 0 0-.47-2.07 2.58 2.58 0 0 0-1.28-1.15 2.42 2.42 0 0 0-.75-.18 11.15 11.15 0 0 0-1.14 0v5.58a3.71 3.71 0 0 0 0 .7.47.47 0 0 0 .28.34 1.78 1.78 0 0 0 .71.11 2.15 2.15 0 0 0 2-1 4.47 4.47 0 0 0 .65-2.37zM255.06 546.73a3.94 3.94 0 0 1-.3 1.56 3.47 3.47 0 0 1-.75 1.15 3.39 3.39 0 0 1-1 .7 6.7 6.7 0 0 1-2.73.49h-3.62v-.54a2.45 2.45 0 0 0 .76-.09.62.62 0 0 0 .34-.29 1.63 1.63 0 0 0 .07-.55v-5a1 1 0 0 0-.21-.73 1.46 1.46 0 0 0-1-.21v-.55H249.76a10.94 10.94 0 0 1 1.66.11 5.28 5.28 0 0 1 1.26.34 3.71 3.71 0 0 1 1 .59 3.79 3.79 0 0 1 .74.86 4.13 4.13 0 0 1 .46 1 4.28 4.28 0 0 1 .18 1.16zm-1.9 0a4.22 4.22 0 0 0-.47-2.07 2.54 2.54 0 0 0-1.28-1.15 2.42 2.42 0 0 0-.75-.18 10.93 10.93 0 0 0-1.13 0v5.58a3.93 3.93 0 0 0 0 .7.5.5 0 0 0 .28.34 1.78 1.78 0 0 0 .71.11 2.14 2.14 0 0 0 2-1 4.47 4.47 0 0 0 .64-2.37zM263 548l-.05 2.65h-7.08v-.54a1.41 1.41 0 0 0 .94-.21 1 1 0 0 0 .21-.72v-5a1.47 1.47 0 0 0-.07-.53.53.53 0 0 0-.32-.3 2.14 2.14 0 0 0-.76-.1v-.54h4v.54a2.08 2.08 0 0 0-.75.1.51.51 0 0 0-.33.29 1.28 1.28 0 0 0-.08.54v4.57a3.74 3.74 0 0 0 .05.78.53.53 0 0 0 .29.35 1.75 1.75 0 0 0 .76.12 6 6 0 0 0 1.19-.1 1.78 1.78 0 0 0 .93-.55 2.22 2.22 0 0 0 .54-1.35zM270.8 548l-.06 2.61h-7.08v-.54a1.41 1.41 0 0 0 .94-.21 1 1 0 0 0 .21-.72v-5a1.88 1.88 0 0 0-.06-.53.59.59 0 0 0-.32-.3 2.13 2.13 0 0 0-.77-.1v-.54h6.59l.11 2.06h-.54a2.61 2.61 0 0 0-.42-1 1 1 0 0 0-.53-.37 4.92 4.92 0 0 0-.89-.06h-1.49v2.8h.81a2 2 0 0 0 .62-.07.47.47 0 0 0 .29-.28 2.41 2.41 0 0 0 .11-.64h.56v2.64h-.54a1.67 1.67 0 0 0-.12-.65.5.5 0 0 0-.29-.28 2.29 2.29 0 0 0-.62-.07h-.82v2.56a.82.82 0 0 0 .13.36.67.67 0 0 0 .33.21 2.85 2.85 0 0 0 .66.06h.64a2.76 2.76 0 0 0 .77-.1 1.54 1.54 0 0 0 .72-.53 2.77 2.77 0 0 0 .49-1.33zM277.6 548.35a2.05 2.05 0 0 1-.16.78 2.79 2.79 0 0 1-.48.8 2.46 2.46 0 0 1-.8.61 2.54 2.54 0 0 1-1.13.24 3 3 0 0 1-1.25-.28 2.65 2.65 0 0 1-1.06-.82 2.82 2.82 0 0 0-.24.81h-.54v-2.72h.54a5.76 5.76 0 0 0 .4 1.1 2.7 2.7 0 0 0 .73.89 1.87 1.87 0 0 0 1.16.37 1.37 1.37 0 0 0 1-.33 1.07 1.07 0 0 0 .36-.83 1.1 1.1 0 0 0-.11-.49 1.31 1.31 0 0 0-.33-.38 3.38 3.38 0 0 0-.57-.35l-.84-.41a6.59 6.59 0 0 1-1.18-.68 3.24 3.24 0 0 1-.7-.67 2.09 2.09 0 0 1-.33-.62 2 2 0 0 1 .2-1.64 2.21 2.21 0 0 1 .84-.85 2.56 2.56 0 0 1 2.34-.09 2.89 2.89 0 0 1 .87.69 3.3 3.3 0 0 0 .19-.69h.49V545h-.55c-.39-1.21-1.07-1.81-2-1.81a1.2 1.2 0 0 0-.84.28 1 1 0 0 0-.12 1.32 1.71 1.71 0 0 0 .52.43c.22.12.57.3 1.05.53a11.87 11.87 0 0 1 1.38.72 2.91 2.91 0 0 1 .84.76 1.91 1.91 0 0 1 .32 1.12z" fill="#333"/><circle cx="168.64" cy="546.43" r=".98" fill="#333"/><circle cx="327.08" cy="546.43" r=".98" fill="#333"/><g clip-path="url(#a)"><path d="M305.15 423.73c-3.67-1.67-5.29-9.94-13.47-10.64S281.57 421 281.57 421s5.41 23.42 18.64 22.89c7.23-.28 11.08-4.92 13.19-10s-4.57-8.49-8.25-10.16z" fill="#727272"/><path d="M183.73 518.11s.68-21 5.87-27.07c0 0-10.61-23.87 7.45-41.25l1.35-6.25 14-19.14s14.56-13.61 35-13.61c28.93 0 38.19 14.37 38.19 14.37s13.23 22.68 17 25.71c3.55 2.83 16.9 22.78 5.47 43.8 0 0 4.7 3.54 4.53 23.44" fill="#727272"/><path d="M229.4 457.8l1.23 4.69 37.83-1.56.32-3.13s-4.62-14-20.61-13.39-18.77 13.39-18.77 13.39" fill="#515151"/><path d="M216.41 421.09s0-10-7.39-8-13.56 9.14-16.63 10.64-9.49 5.1-6 11.25 12.71 9.68 16.85 8.18.08-8.18.08-12.22" fill="#727272"/><path d="M215.44 421.79s-.74-5.63-3-6.68-6-.65-8 6.26a31.35 31.35 0 0 0-.17 15.25 57.59 57.59 0 0 1 11.17-14.83z" fill="#515151"/><path d="M216.41 421.09s0-10-7.39-8-13.56 9.14-16.63 10.64-9.49 5.1-6 11.25 12.71 9.68 16.85 8.18.08-8.18.08-12.22 1.06-11.7 2.73-13.55" fill="none" stroke="#111" stroke-linecap="round" stroke-linejoin="round"/><path d="M271.78 449.6s-6.91 10.55-.79 28.52" fill="none" stroke="#111" stroke-linecap="round" stroke-miterlimit="10"/><path d="M283 422.14s7.56-7.38 10-1.23c5.78 7.92-2 19.23 3.08 22.16 0 0-3.08 3.26-4.57-6.15a25 25 0 0 0-8.51-14.78z" fill="#515151"/><path d="M281.57 420.38s1.93-8 10.11-7.29 9.8 9 13.47 10.64 10.36 5 8.25 10.11-6 10.55-13.19 10-6.42-3.16-5.36-12-2.73-12.49-2.73-12.49" fill="none" stroke="#111" stroke-linecap="round" stroke-linejoin="round"/><path d="M242.86 441.39a9.93 9.93 0 0 1 10.55 0" fill="none" stroke="#111" stroke-linecap="round" stroke-miterlimit="10"/><circle cx="225.76" cy="438.42" r="3.88" fill="#111"/><circle cx="269.39" cy="439.02" r="7.98" fill="#595959"/><circle cx="269.39" cy="439.39" r="3.88" fill="#111"/><path d="M268.78 457.8s-4.62-14-20.61-13.39-18.77 13.39-18.77 13.39M268.46 460.93l-37.83 1.56" fill="none" stroke="#111" stroke-miterlimit="10"/><path d="M246.77 470.05a12.72 12.72 0 0 0 9.77-1.69M224.36 449s11.2 10.94 3.65 29.17" fill="none" stroke="#111" stroke-linecap="round" stroke-miterlimit="10"/><ellipse cx="258.45" cy="453.45" rx="1.65" ry="3.85" transform="rotate(-45 258.445 453.449)" fill="#212121"/><ellipse cx="240.94" cy="453.45" rx="3.85" ry="1.65" transform="rotate(-45 240.948 453.456)" fill="#212121"/><path d="M212.43 424.4s14.56-13.61 35-13.61c28.93 0 38.19 14.37 38.19 14.37M307.89 495s4.88 3.22 4.71 23.12" fill="none" stroke="#111" stroke-linecap="round" stroke-linejoin="round"/><path d="M305.44 498.88c15.88-22.49.94-45-2.84-48l-4.9-6.46M198.4 443.54l-1.35 6.25s-19.52 16.91-5.78 43.39M183.73 518.11s-.4-17.56 5.87-27.07" fill="none" stroke="#111" stroke-linecap="round" stroke-linejoin="round"/></g></svg>