<svg xmlns="http://www.w3.org/2000/svg" width="496" height="590" viewBox="0 0 496 590"><defs><clipPath id="a"><path fill="none" d="M123.78 350.34h255.65v167.29H123.78z"/></clipPath></defs><path d="M326.15 541.91V529.7h-156.3v12.21a4.55 4.55 0 1 0 0 9.09v12.47h156.3V551a4.55 4.55 0 1 0 0-9.09z" fill="#7a7a7a"/><path d="M221.42 544.94h-.56a2.43 2.43 0 0 0-.32-1.09 1.05 1.05 0 0 0-.54-.43 2.21 2.21 0 0 0-.66-.08h-1v5.82a1.51 1.51 0 0 0 .07.53.55.55 0 0 0 .33.3 2.1 2.1 0 0 0 .76.1v.54h-4v-.54a1.41 1.41 0 0 0 .94-.21 1 1 0 0 0 .22-.72v-5.82h-.85a3.15 3.15 0 0 0-.82.08 1 1 0 0 0-.58.43 2.12 2.12 0 0 0-.29 1.09h-.55v-2.25h7.85zM231.32 550.63h-3.91v-.54a1.9 1.9 0 0 0 .72-.1.52.52 0 0 0 .32-.31 1.52 1.52 0 0 0 .07-.52v-2.39h-3.69v2.39a1 1 0 0 0 .21.71 1.34 1.34 0 0 0 .94.22v.54H222v-.54a1.9 1.9 0 0 0 .72-.1.55.55 0 0 0 .33-.3 1.89 1.89 0 0 0 .07-.53v-5a1.48 1.48 0 0 0-.07-.52.54.54 0 0 0-.31-.3 1.77 1.77 0 0 0-.74-.11v-.54h4v.54a1.41 1.41 0 0 0-.94.21 1 1 0 0 0-.21.72v2h3.69v-2a1.81 1.81 0 0 0-.06-.52.54.54 0 0 0-.31-.3 1.77 1.77 0 0 0-.74-.11v-.54h3.91v.54a1.74 1.74 0 0 0-.74.11.51.51 0 0 0-.31.3 1.48 1.48 0 0 0-.07.52v5a1.78 1.78 0 0 0 .06.51.58.58 0 0 0 .31.31 2 2 0 0 0 .75.11zM239.05 548l-.06 2.61h-7.08v-.54a1.41 1.41 0 0 0 .94-.21 1 1 0 0 0 .21-.72v-5a1.54 1.54 0 0 0-.07-.53.57.57 0 0 0-.31-.3 2.17 2.17 0 0 0-.77-.1v-.54h6.59l.1 2.06h-.53a3 3 0 0 0-.42-1 1 1 0 0 0-.54-.37 4.72 4.72 0 0 0-.88-.06h-1.49v2.8h.81a2 2 0 0 0 .62-.07.46.46 0 0 0 .28-.28 2 2 0 0 0 .12-.64h.56v2.64h-.54a2.15 2.15 0 0 0-.12-.65.5.5 0 0 0-.29-.28 2.35 2.35 0 0 0-.62-.07h-.82v2.56a.82.82 0 0 0 .13.36.67.67 0 0 0 .33.21 2.79 2.79 0 0 0 .66.06h.64a2.8 2.8 0 0 0 .77-.1 1.59 1.59 0 0 0 .72-.53 2.77 2.77 0 0 0 .49-1.33zM250.61 550.55h-.55a2.63 2.63 0 0 0-.4-.9 4.64 4.64 0 0 1-1 .79 3 3 0 0 1-1.56.34 4.08 4.08 0 0 1-2-.52 4 4 0 0 1-1.46-1.46 4.12 4.12 0 0 1-.54-2.11 4.43 4.43 0 0 1 .29-1.58 3.93 3.93 0 0 1 .85-1.33 3.86 3.86 0 0 1 1.3-.91 4.31 4.31 0 0 1 1.66-.32 3.34 3.34 0 0 1 2.47 1 4 4 0 0 0 .25-.73h.52l.1 2.92H250a3.72 3.72 0 0 0-.55-1.32 2.86 2.86 0 0 0-.95-.89 2.28 2.28 0 0 0-1.15-.31 2.05 2.05 0 0 0-1.2.37 2.36 2.36 0 0 0-.83 1.11 5.09 5.09 0 0 0-.3 1.87 5.59 5.59 0 0 0 .25 1.82 2.87 2.87 0 0 0 .62 1.09 2.18 2.18 0 0 0 .75.5 2 2 0 0 0 .7.13 2.29 2.29 0 0 0 1.3-.39 3.26 3.26 0 0 0 .95-1 3.66 3.66 0 0 0 .49-1.17h.56zM261 550.63h-4v-.54a1.9 1.9 0 0 0 .72-.1.52.52 0 0 0 .32-.31 1.52 1.52 0 0 0 .07-.52v-2.39h-3.68v2.39a1 1 0 0 0 .2.71 1.34 1.34 0 0 0 .94.22v.54h-3.94v-.54a1.9 1.9 0 0 0 .72-.1.55.55 0 0 0 .33-.3 1.58 1.58 0 0 0 .07-.53v-5a1.48 1.48 0 0 0-.07-.52.54.54 0 0 0-.31-.3 1.77 1.77 0 0 0-.74-.11v-.54h3.94v.54a1.41 1.41 0 0 0-.94.21 1.09 1.09 0 0 0-.2.72v2h3.68v-2a1.81 1.81 0 0 0-.06-.52.54.54 0 0 0-.31-.3 1.77 1.77 0 0 0-.74-.11v-.54h4v.54a1.74 1.74 0 0 0-.74.11.54.54 0 0 0-.31.3 1.76 1.76 0 0 0-.07.52v5a1.78 1.78 0 0 0 .06.51.62.62 0 0 0 .31.31 2 2 0 0 0 .75.11zM265.51 550.63h-4v-.54a2.41 2.41 0 0 0 .76-.09.59.59 0 0 0 .34-.29 1.6 1.6 0 0 0 .08-.55v-5a1 1 0 0 0-.22-.72 1.46 1.46 0 0 0-1-.21v-.54h4v.54a2.1 2.1 0 0 0-.76.1.53.53 0 0 0-.34.29 1.46 1.46 0 0 0-.08.54v5a1.52 1.52 0 0 0 .08.53.56.56 0 0 0 .32.3 2.19 2.19 0 0 0 .78.1zM273.17 548l-.05 2.65H266v-.54a1.41 1.41 0 0 0 .94-.21 1 1 0 0 0 .21-.72v-5a1.47 1.47 0 0 0-.07-.53.5.5 0 0 0-.32-.3 2.14 2.14 0 0 0-.76-.1v-.54h4v.54a2.08 2.08 0 0 0-.75.1.51.51 0 0 0-.33.29 1.28 1.28 0 0 0-.08.54v4.57a4.6 4.6 0 0 0 .05.78.53.53 0 0 0 .29.35 1.78 1.78 0 0 0 .77.12 6 6 0 0 0 1.18-.1 1.78 1.78 0 0 0 .93-.55 2.22 2.22 0 0 0 .54-1.35zM282.19 546.73a4.13 4.13 0 0 1-.29 1.56 3.66 3.66 0 0 1-.76 1.15 3.39 3.39 0 0 1-1 .7 6.68 6.68 0 0 1-2.72.49h-3.62v-.54a2.41 2.41 0 0 0 .76-.09.56.56 0 0 0 .34-.29 1.6 1.6 0 0 0 .08-.55v-5a1 1 0 0 0-.21-.73 1.48 1.48 0 0 0-1-.21v-.55H277a11.13 11.13 0 0 1 1.66.11 5.33 5.33 0 0 1 1.25.34 3.41 3.41 0 0 1 1 .59 3.79 3.79 0 0 1 .74.86 4.16 4.16 0 0 1 .47 1 4.27 4.27 0 0 1 .07 1.16zm-1.9 0a4.12 4.12 0 0 0-.47-2.07 2.5 2.5 0 0 0-1.28-1.15 2.29 2.29 0 0 0-.75-.18 10.93 10.93 0 0 0-1.13 0v5.58a3.71 3.71 0 0 0 0 .7.48.48 0 0 0 .27.34 1.81 1.81 0 0 0 .71.11 2.17 2.17 0 0 0 2-1 4.47 4.47 0 0 0 .65-2.37z" fill="#333"/><circle cx="168.64" cy="546.43" r=".98" fill="#333"/><circle cx="327.08" cy="546.43" r=".98" fill="#333"/><g clip-path="url(#a)"><path d="M328.67 527.52l-24.4-52.67.31-.25c4.25-3.24-1.42-10.12-2-16.76S288.16 445 288.16 445l-81.22 13.7s-7.09-3.07-9.42 2.39c-1.61 3.79-5.46 13.42-3.74 20.91l-25.65 43.12z" fill="#727272"/><path fill="#5b5b5b" d="M249.02 537.6l1.55-37.15 11.93-1.07v39.25M327.79 393.39c-3.62 1.21-55.79 20.15-55.79 20.15s-46.36-24.54-72.75 18.74c0 0-59.84 12.49-63.87 13.9s7.05 7.86 13.5 8.06c5.74.18 12.37 20.61 46.67 12.23 0 0 1.44-12.38 11.39-7.77 4.77 6.5 6.86 10.4 11.92 11 13 3.43 34.32 1 33.71 6.34 7.64-3.48 13.7-6 13.7-6l7.22-17.87 2.12-2.5c55.21-18.14 42.51-37.48 47.15-43.32s8.66-14.17 5.03-12.96z"/><path d="M286.15 415.71c-3.7 1.71-7.54 15.22-7.54 15.22l.79 8.7c26.54 1.2 43.73-40.67 43.73-40.67s-33.7 15.23-36.98 16.75z" fill="#686868"/><path d="M275.7 424.24s10.72 17.66-4 28.77M328.67 396.45s-39.21 17.8-42.52 19.26-7.54 15.22-7.54 15.22" fill="none" stroke="#111" stroke-linecap="round" stroke-linejoin="round"/><path d="M195.55 466.47c-34.3 8.38-40.93-12.05-46.67-12.23-6.45-.2-17.53-6.65-13.5-8.06s63.87-13.9 63.87-13.9C225.64 389 272 413.54 272 413.54s52.19-18.94 55.81-20.15-.4 7.05-5 12.9 8.06 25.18-47.15 43.32M202 441.24s.66 28.05 22.35 26.19" fill="none" stroke="#111" stroke-linecap="round" stroke-linejoin="round"/><path d="M190 443.06c-6.35.64-48 4.68-48 4.68 25.16 5.8 28.5 25.57 63.76 8.71-.04 0-9.43-14.02-15.76-13.39z" fill="#686868"/><path d="M135.2 448.4s48.43-4.7 54.78-5.34 15.74 13.39 15.74 13.39M248.45 426.83s7.54-10.19 22.49-2M210.48 440.58s5.43-11.42 18.66-9.41" fill="none" stroke="#111" stroke-linecap="round" stroke-linejoin="round"/><path d="M234.69 441.37s-10.71-9.39-20.63 2c0-.01 8.99 12.55 20.63-2zM250.57 436.48s4.63-13.89 18-8.34c-.01 0-.67 13.23-18 8.34z" fill="#111" stroke="#111" stroke-linecap="round" stroke-linejoin="round"/><path fill="none" stroke="#111" stroke-linecap="round" stroke-linejoin="round" d="M273.89 451.17l-7.62 18.31M252.57 476a122.9 122.9 0 0 1 26.91-9.68c15.38-3.57 12.55-12 12.55-12M304.58 474.6l18.97 42.31M193.71 481.71l-21.94 37.32"/><path d="M288.16 445s13.79 6.19 14.39 12.84 6.28 13.52 2 16.76-18.49 17.57-32.18 22.3-28.27 3.39-28.27 3.39" fill="none" stroke="#111" stroke-linecap="round" stroke-linejoin="round"/><path d="M206.94 458.7s-7.09-3.07-9.42 2.39-9.3 23 2.43 28.89 40.94 18 43.34 15.18S241 482.9 252.57 476c0 0 .81-3.85-10.52-3.85S207.64 470 204 461.09M241 466.59s11.36 2 16.14-5.5M232.46 458.7S238 454 241 453s3.11.66 5.26 0 4.19-2.64 6.7-3.26 8.49 0 8.49 0M239.28 442.2s-.36 3.58 4.78 2.15 2.63-4.27 2.63-4.27" fill="none" stroke="#111" stroke-linecap="round" stroke-linejoin="round"/></g></svg>