<svg xmlns="http://www.w3.org/2000/svg" width="496" height="590" viewBox="0 0 496 590"><defs><clipPath id="a"><path fill="none" d="M127.89 227.22h247.4v290.42h-247.4z"/></clipPath></defs><g clip-path="url(#a)"><path d="M202.45 529.7s11.71-29.13 16.08-35.74c5.05-7.66 5.52-46.5 5.52-46.5l46.19 1.22s1.1 24.67 4.44 45.92c2.73 17.42 16.81 34.09 16.81 34.09" fill="#333" stroke="#111" stroke-linecap="round" stroke-linejoin="round"/><path d="M224.07 462.8c3.5 11.32 3.33 43.91 8.68 54.84 2.51 5.52 25.67 7 27.69 3.64 15-19.09 9.49-55.67 9.49-72 5.29-1.31-48-1.42-45.88-1.77.43-.32-1.05 8.94.02 15.29z" fill="#5b5b5b"/><path d="M225.38 476.58c13 35 44 15.28 45.78-1 .31-2.78.07-8.69 0-12.7-.94-9.62-.54-15.1-1.19-14.23l-45.91-1.21s-.15 12.07-1.15 24.08c.93 1.63 1.67 3.37 2.47 5.06z" fill="#222229" opacity=".45"/><path d="M259.08 409.23s-6.15-3.21-12.36-1.81-20.27 6-21.61 5.62-7-5.59-9.4-6.27-11.82-1.29-21.55 4.21-17.38 3-17.82 4.95 16.3 10.69 17.27 9.29 2.68-2.53 3.41-.11 2.89 4.42 6.55 5.73a12.44 12.44 0 0 1 7.46 6.94c1 2.76 11.17 31 17.82 32.93 0 0 11.23 12.73 16.64 13.68s18.12.33 21.65-5.93c0 0 7-3.9 5.06-13.58 0 0 6.51-25.84 5.74-32.57s-4.25-9.25-2.89-10.12 2.61.07 3.66-3.94 5.51-7.2 5.33-10.15c0 0 2-.17 4.15-3.09s11-15.18 9.53-16.78-9.13 3.44-12 3.18-24.54-.2-25.7 3.79 1.8 2.72.95 5.37-2.56 3.79-1.89 8.66z" fill="#5b5b5b"/><path d="M237.58 428.4c-5.39-3.8-11-2.38-16.19 1l-1.34 1.53c-4.74 12.59 6 .08 8.95 8 1.38 3.16 2.75 5.12 8 5.32 4.4.13 7.76-10.53.58-15.85zM237.72 479.32c-3.64-8.95-.75-13.34-2.89-19.7-2.38-6.59-7.82-3.07-11.9-6.63-3-2.13-5.13-4.45-8.45-6.31 9.88 23.71 10.15 19.84 23.36 33zM278.1 434.06c-4.1-2.72-5.84 9.09-7.53 10.3-4.43 5.17-20.07-4.64 2.2 18.7 1.36-5.6 5.23-21.99 5.33-29zM268.67 420.33c-21.09-9.38-20.4 18-13.63 18.76 12.94 1.46 1.93-10.28 7.55-12.46 3.16-1 5.6 1.33 8.77 1.27 4.32-2.69-.58-6.63-2.69-7.57zM261.8 477.08c-2.88 0-6.49 1.89-9.13 2.9-1.28.49-4.77.27-6.11.57a11 11 0 0 0-3.87 2.38 14.41 14.41 0 0 0 2.89 1.56c5.41.94 18.12.33 21.65-5.92 0 0-1-.88-.87-1-1.78-.79-2.57-.49-4.56-.49z" fill="#727272"/><path d="M297.72 388.25c-6.51 8-12.07 21.37-15.54 11.32-1.55-1.27-3.89.79-5.92.28-1.35-.35-.87-2 .09-2.93-9.52-.76-16.45 3.74-12.42 19-.39-1.46 11.87 7 13.61 5 .76-1.4 6.23-12.87 7.14-12.85 4.5-1.62 15.07-19.79 13.04-19.82zM214.81 411.66c-4.38-3.16-12.83.51-18.86 3.14 4.41-1.93 5.4 5.51.23 2.28a13.28 13.28 0 0 1-1.46 6.58 3.52 3.52 0 0 1 1.78.43c4.64-6.24 2.32 3 3.66 5.09 1.89 1.41 7.22 2.17 9.85 7.57-.01 0 20.22-15.33 4.8-25.09z" fill="#1c1c1c" opacity=".41"/><path d="M254.08 447.49c-10.28-12.67-9.53.18-8.67 8.36 10.19-3.85 17.2 1.56 8.67-8.36z" fill="#333"/><path d="M275.05 422.19c1.26-.82 2.42-.07 3.42-3.12-5.8 4.27-19-8.6-19.5-12.83a13.72 13.72 0 0 0 .11 3c-10.45-6.38-29 4.73-34.35 3.65-3.59-2.13-7.74-7-12.43-6.53 18.59 21.08-5.8 18.35-3 27.37 1.71 4.74 2.25 5.18 4.78 12.12 3.55-4.88 1.31-9.38 7.8-15s2-13.31 9.27-16.51c6-2.47 8 2.65 10.16.12a8.69 8.69 0 0 1 6.26-3.52c9.46-.75 12.49 5.95 17.21 9.9 8.75 4.82 12.55 15.64 11.54 25.42 4.68-21.91-2.72-20.17-1.27-24.07z" fill="#333"/><path d="M259.08 409.23s-6.15-3.21-12.36-1.81-20.27 6-21.61 5.62-7-5.59-9.4-6.27-11.82-1.29-21.55 4.21-17.38 3-17.82 4.95 16.3 10.69 17.27 9.29 2.68-2.53 3.41-.11 2.89 4.42 6.55 5.73a12.44 12.44 0 0 1 7.46 6.94c1 2.76 11.17 31 17.82 32.93 0 0 11.23 12.73 16.64 13.68s18.12.33 21.65-5.93c0 0 7-3.9 5.06-13.58 0 0 6.51-25.84 5.74-32.57s-4.25-9.25-2.89-10.12 2.61.07 3.66-3.94 5.51-7.2 5.33-10.15c0 0 2-.17 4.15-3.09s11-15.18 9.53-16.78-9.13 3.44-12 3.18-24.54-.2-25.7 3.79 1.8 2.72.95 5.37-2.56 3.79-1.89 8.66zM267.21 456.18s4.65 4.93 5 8.7" fill="none" stroke="#111" stroke-linecap="round" stroke-linejoin="round"/><path d="M235.9 464.35a24.35 24.35 0 0 0 2.66 15.9" fill="none" stroke="#111" stroke-linecap="round" stroke-linejoin="round" stroke-width=".76"/><path fill="#333" stroke="#111" stroke-linecap="round" stroke-linejoin="round" d="M255.23 473.12l1.54 5.05"/><path d="M251.07 456.39c4.33-.95 10.64-.63 12.36 3.23s1.41 6.4-.6 8.66-5 4-5.47 5.32-1.87 1.8-3.32 1.15-6 0-9.67-4.05-3.56-12.06 6.7-14.31z" fill="#333"/><path d="M194.58 424.18s1.42-5 1.09-5.94 3-1.24 4.25.05M284 408.1s-2.75-1.33-2.84-3.92-1.95-2.08-2.14-.78" fill="none" stroke="#111" stroke-linecap="round" stroke-linejoin="round"/><path d="M263.93 402.56s.44-6.76 15.17-5.77M193.09 419.34s-.44-3.77 2.86-4.54 8.87-5.41 14.94-3.92" fill="none" stroke="#111" stroke-linecap="round" stroke-miterlimit="10"/><path d="M242.65 483.21s1.5-3.19 7.58-2.81c2.2.14 8.61-3.16 10.72-3.16s4.93-1 6.19 1.22" fill="none" stroke="#111" stroke-miterlimit="10"/><path d="M247.07 480.55s11.29 6.21 17.77-3.48a19.56 19.56 0 0 0-6 .65c-2.32.83-6.59 2.7-8.17 2.67s-3.6.16-3.6.16z" fill="#1c1c1c" opacity=".41"/><path d="M218.89 440.45s1.09-7.16 6.23-7.07 11.48 5.68 11.58 7.37-5.86-.69-9.24 0-8.9 7.25-8.57-.3zM257.21 433s.12-5.65 4.28-7.29 8.9.78 9.84 4-3.83 2.2-6.48 3.16-8.33 7.53-7.64.13z" fill="#3d3d3d"/><ellipse cx="248.84" cy="467.15" rx="3.13" ry="1.53" transform="rotate(-17.82 248.827 467.141)" fill="#111"/><ellipse cx="258.39" cy="464.09" rx="3.13" ry="1.53" transform="rotate(-17.82 258.393 464.066)" fill="#111"/><circle cx="265.08" cy="435.3" r="4.81" fill="#111"/><circle cx="228.16" cy="443.24" r="4.81" fill="#111"/></g><path d="M326.15 541.91V529.7h-156.3v12.21a4.55 4.55 0 1 0 0 9.09v12.47h156.3V551a4.55 4.55 0 1 0 0-9.09z" fill="#7a7a7a"/><path d="M239.93 550.63H236v-.54a1.9 1.9 0 0 0 .72-.1.52.52 0 0 0 .32-.31 1.52 1.52 0 0 0 .07-.52v-2.39h-3.69v2.39a1 1 0 0 0 .21.71 1.34 1.34 0 0 0 .94.22v.54h-3.94v-.54a1.9 1.9 0 0 0 .72-.1.55.55 0 0 0 .33-.3 1.89 1.89 0 0 0 .07-.53v-5a1.76 1.76 0 0 0-.07-.52.54.54 0 0 0-.31-.3 1.77 1.77 0 0 0-.74-.11v-.54h3.94v.54a1.41 1.41 0 0 0-.94.21 1 1 0 0 0-.21.72v2h3.69v-2a1.81 1.81 0 0 0-.06-.52.54.54 0 0 0-.31-.3 1.77 1.77 0 0 0-.74-.11v-.54h3.9v.54a1.72 1.72 0 0 0-.73.11.51.51 0 0 0-.31.3 1.48 1.48 0 0 0-.07.52v5a1.78 1.78 0 0 0 .06.51.58.58 0 0 0 .31.31 2 2 0 0 0 .74.11zM247.67 548l-.07 2.61h-7.07v-.54a1.43 1.43 0 0 0 .94-.21 1 1 0 0 0 .21-.72v-5a1.54 1.54 0 0 0-.07-.53.57.57 0 0 0-.31-.3 2.17 2.17 0 0 0-.77-.1v-.54h6.59l.1 2.06h-.54a2.8 2.8 0 0 0-.41-1 1 1 0 0 0-.54-.37 4.77 4.77 0 0 0-.89-.06h-1.48v2.8h.81a2 2 0 0 0 .62-.07.46.46 0 0 0 .28-.28 1.8 1.8 0 0 0 .11-.64h.57v2.64h-.54a2.15 2.15 0 0 0-.12-.65.49.49 0 0 0-.3-.28 2.21 2.21 0 0 0-.61-.07h-.82v1.87a6.16 6.16 0 0 0 0 .69.82.82 0 0 0 .13.36.63.63 0 0 0 .33.21 2.73 2.73 0 0 0 .66.06h.64a2.8 2.8 0 0 0 .77-.1 1.59 1.59 0 0 0 .72-.53 2.87 2.87 0 0 0 .49-1.33zM255.53 548l-.06 2.65h-7.07v-.54a1.43 1.43 0 0 0 .94-.21 1 1 0 0 0 .21-.72v-5a1.47 1.47 0 0 0-.07-.53.55.55 0 0 0-.33-.3 2.08 2.08 0 0 0-.75-.1v-.54h4v.54a2.08 2.08 0 0 0-.75.1.56.56 0 0 0-.34.29 1.5 1.5 0 0 0-.07.54v4.57a3.74 3.74 0 0 0 .05.78.5.5 0 0 0 .29.35 1.75 1.75 0 0 0 .76.12 5.84 5.84 0 0 0 1.18-.1 1.8 1.8 0 0 0 .94-.55A2.22 2.22 0 0 0 255 548zM265.08 546.66a4.12 4.12 0 0 1-.52 2 3.83 3.83 0 0 1-1.52 1.52 4.8 4.8 0 0 1-2.39.57 5.07 5.07 0 0 1-2-.36 3.91 3.91 0 0 1-1.4-1 4 4 0 0 1-.8-1.33 4.17 4.17 0 0 1-.26-1.46 4.27 4.27 0 0 1 .49-2 3.91 3.91 0 0 1 1.5-1.52 4.79 4.79 0 0 1 2.4-.57 5 5 0 0 1 2.16.41 3.73 3.73 0 0 1 1.39 1 4.1 4.1 0 0 1 .71 1.33 4.24 4.24 0 0 1 .24 1.41zm-1.9 0a6.44 6.44 0 0 0-.12-1.27 3.18 3.18 0 0 0-.4-1.08 2.13 2.13 0 0 0-.78-.77 2.43 2.43 0 0 0-1.23-.28 2.29 2.29 0 0 0-1.58.5 2.49 2.49 0 0 0-.76 1.25 6.11 6.11 0 0 0-.21 1.65 9.21 9.21 0 0 0 .07 1 3.82 3.82 0 0 0 .31 1.09 2.3 2.3 0 0 0 .78 1 2.41 2.41 0 0 0 1.4.38 2.26 2.26 0 0 0 1.38-.39 2.39 2.39 0 0 0 .77-1 4.11 4.11 0 0 0 .31-1.09 8.74 8.74 0 0 0 .06-1.01z" fill="#333"/><circle cx="168.64" cy="546.43" r=".98" fill="#333"/><circle cx="327.08" cy="546.43" r=".98" fill="#333"/></svg>