<svg xmlns="http://www.w3.org/2000/svg" width="496" height="590" viewBox="0 0 496 590"><defs><clipPath id="a"><path fill="none" d="M127.89 201.47h247.4v316.16h-247.4z"/></clipPath></defs><g clip-path="url(#a)"><path d="M209.57 484.68c-.44 25.82-23.68 48-23.68 48l125.43 1.42s-9-47.46-17.5-54.69-12.92-61.17-12.92-61.17L215.83 420s-1.05 33.91-6.26 64.68z" fill="#333" stroke="#111" stroke-linecap="round" stroke-linejoin="round"/><path fill="#848484" d="M222.87 435.84l19.31 85.13h17.95l10.6-87.03-47.86 1.9z"/><path d="M223.27 455.05a29.38 29.38 0 0 0 1.1 2.93c3 6.76 9.23 12.07 16.67 13 21.82 3.72 31.73-20 41.83-34.75-1.43-11-2.15-19.91-2.15-19.91L215.65 418l-.36 12.43z" fill="#222229" opacity=".55"/><path d="M231.57 364.24s-1.89-18.43-9.41-29.27-18.53-28.97-21.38-29.74-6.55 20-8.47 29.25 4.37 20.79 4.09 22.61-1.24 14.06-.58 15.88c1.8 5 13 12.11 14.22 15.77s-5.43 20.78-2.22 29 10.7 13.57 12.38 18.79 5.3 15.6 8.16 16.41 5.73 11.42 15.78 11.36 18.82-5.47 19-7.27 12.92-12.52 13.21-15.21-1.17-4.52 1.1-5.54 12.34-9.15 12.39-22.43-3.92-22.09-1.11-25.88 15.49-11 16.25-17.62a22.57 22.57 0 0 0-1.23-11s5.3-4.13 2.91-24.12c0 0 6.05-5.4 2.57-12.64s-29.56 12.09-34.5 20-8.92 21.6-8.92 21.6-25.2-1.42-34.24.05z" fill="#333"/><path d="M196.4 357.09c-.43 1.85-1.35 9.51 1 12.59.89 2.11 8.4 11.59 12.24 11.62 16.45-1.76 14.06-24.14 11.19-35.86-4.69-14.41-15.26-26-20.83-40-2.73 2.34-6 20.52-7.74 29-1.88 9.3 4.42 20.83 4.14 22.65z" fill="#474747"/><path d="M195.61 365.38zM200.05 305.46l.09-.07zM195.57 366.07a1.27 1.27 0 0 0 0-.2 1.27 1.27 0 0 1 0 .2zM195.56 366.41a1.28 1.28 0 0 1 0-.19 1.28 1.28 0 0 0 0 .19zM195.55 366.75zM195.59 365.73zM200.15 305.38a.6.6 0 0 1 .15-.09.6.6 0 0 0-.15.09zM200.48 305.22zM207.41 313l.21.3zM208.85 315.06l.24.35zM208.12 314c.08.11.15.22.23.32-.08-.1-.15-.21-.23-.32zM200.34 305.27h.06zM210.36 317.29l.25.37zM205 309.64l.35.48zM195.53 367.09a1.09 1.09 0 0 0 0-.18 1.09 1.09 0 0 1 0 .18zM200.66 305.21zM211.13 318.44c.09.13.18.26.26.39-.08-.13-.17-.26-.26-.39zM195.61 370.94a.49.49 0 0 0 0-.12.49.49 0 0 1 0 .12zM195.64 371.18v-.12.12zM195.55 370.17a.71.71 0 0 0 0-.14.71.71 0 0 1 0 .14zM195.57 370.44v-.14.14zM195.59 370.7v-.14.14zM195.75 371.82a.43.43 0 0 1 0-.11.43.43 0 0 0 0 .11zM195.52 367.43a1.09 1.09 0 0 0 0-.18 1.09 1.09 0 0 1 0 .18zM195.71 371.62v-.11c0-.03-.01.07 0 .11zM195.67 371.41v-.12.12zM195.51 368.08a.91.91 0 0 1 0-.17.91.91 0 0 0 0 .17zM195.51 368.4zM195.51 368.55zM195.52 367.76zM195.52 369.32zM195.53 369.61v-.15.15zM195.54 369.9v-.15.15zM195.51 369zM206.38 311.53l.64.89zM276.2 438.05a1.09 1.09 0 0 0 0 .18 1.09 1.09 0 0 1 0-.18zM276.34 437.3a2.2 2.2 0 0 0-.12.44 2.2 2.2 0 0 1 .12-.44zM279.52 337.12c.5-.48 1-1 1.58-1.47-.55.5-1.1.99-1.58 1.47zM278.46 338.16zM254.27 462.5l.49-.17zM256.43 461.69l-.16.06zM275.21 341.91l.18-.26zM255.49 462.06l.21-.08zM258.28 460.84zM277 339.65l.51-.54zM200.78 305.23c.67.19 1.79 1.33 3.2 3.1-1.41-1.77-2.53-2.91-3.2-3.1zM294.32 325.75l1.85-1.09zM281.23 335.53c.64-.57 1.3-1.14 2-1.72-.7.58-1.36 1.19-2 1.72zM292.15 327.13l.82-.53zM298.45 323.44l.95-.47zM195.79 372a.29.29 0 0 1 0-.09.29.29 0 0 0 0 .09zM284.51 332.75zM287.28 330.58c.45-.34.9-.68 1.36-1-.46.32-.91.66-1.36 1zM297.39 324l.13-.07zM221.33 333.76l.58.85zM218.68 329.84l.64 1zM253.08 462.88l.55-.17zM217.9 328.66l.26.4zM217.11 327.47l.27.4zM204 308.33c.15.18.3.38.45.58-.17-.2-.32-.4-.45-.58zM215.91 325.66c.23.33.45.67.67 1-.22-.33-.44-.66-.67-1zM224.86 339.63c.15.29.29.58.43.88-.14-.3-.29-.59-.43-.88zM213.64 322.22l.54.81zM228.26 348.39zM230 354.87a95.86 95.86 0 0 1 1.45 8.08c-.25-1.59-.7-4.54-1.45-8.08zM231.57 364.24s0-.44-.15-1.22c.1.78.15 1.22.15 1.22zM252.31 463.11l.49-.14zM229.58 353.24q.18.72.33 1.41-.15-.65-.33-1.41zM229 351zM229.3 352.11l.21.86zM228.07 347.78l-.33-1zM289.43 329c.65-.46 1.3-.92 2-1.36-.7.44-1.35.9-2 1.36zM290.54 386.1l-.07.06zM300.29 377.79l-.64.61zM300.29 377.79zM289.88 413.82a24.56 24.56 0 0 1-.26 3.59 24.56 24.56 0 0 0 .26-3.59A86.65 86.65 0 0 0 288.7 400a86.65 86.65 0 0 1 1.18 13.82zM291 385.67l-.1.08zM295.7 381.83l-.15.12zM273.28 444.24c1.1-.57 2.08-.74 2.64-1.33-.56.59-1.54.76-2.64 1.33zM299.18 378.84c-1 .87-2 1.73-2.95 2.55.99-.82 1.99-1.68 2.95-2.55zM294.69 382.64l-.15.13zM304.63 371.87a5.59 5.59 0 0 1-.26.63 5.59 5.59 0 0 0 .26-.63zM289.32 419.11a25.87 25.87 0 0 1-.9 3.17 25.87 25.87 0 0 0 .9-3.17zM288.42 422.28zM289.53 418c-.06.38-.14.75-.21 1.12.07-.38.15-.75.21-1.12zM276.52 437l-.08.13zM276.8 436.67a3.15 3.15 0 0 1 .69-.42 11.56 11.56 0 0 0 2.42-1.67 11.56 11.56 0 0 1-2.42 1.67 3.15 3.15 0 0 0-.69.42zM281.11 433.51zM287 425.61zM287.86 423.76a34.82 34.82 0 0 0 0 0zM281.11 433.51a29.47 29.47 0 0 0 4.94-6.19 29.47 29.47 0 0 1-4.94 6.19zM305.09 365.05v-.42c-.03.14-.01.28 0 .42zM305.19 368v.69zM305.09 369.59c0 .24 0 .48-.07.73.03-.25.05-.49.07-.73zM305.15 365.79v-.57c-.03.19-.01.38 0 .57zM304.37 372.5a8.57 8.57 0 0 1-.5.94 8.57 8.57 0 0 0 .5-.94z" fill="#74473c"/><path d="M309.27 322.54c.65 1.37-11.43-1.36-29.78 28.76-2.82 4.16 0 9.83 3 12.21-.63 3.79-3.53 7.73-1.17 11.53 3.93 5.71 13.3 5.29 17-.46 3.11-4.16 3.47-9.47 6-13.89a11.61 11.61 0 0 0-.48-1.39s5.3-4.13 2.91-24.12c-.05 0 6-5.4 2.52-12.64z" fill="#474747"/><path d="M305.18 366.43v-.61zM305.19 367.09v-.47.47zM305.15 368.85v.52c-.02-.18-.01-.37 0-.52zM304.58 361.83q0-.19-.09-.36.04.17.09.36zM304.48 361.42zM302.8 375c-.32.41-.67.83-1 1.24.33-.4.68-.82 1-1.24zM303.87 373.44a16.19 16.19 0 0 1-1.07 1.56 16.19 16.19 0 0 0 1.07-1.56zM305.19 367.94zM304.89 363.42c.05.33.1.68.14 1.05-.03-.37-.09-.72-.14-1.05zM304.59 361.9zM304.87 363.29c0-.13-.05-.26-.07-.39.02.1.04.26.07.39zM265.06 454.23l-.55.62zM198.25 376.45c-.05-.11-.09-.22-.13-.33.04.11.08.22.13.33zM202.29 380.38l-.83-.68zM197.69 374.8a1.75 1.75 0 0 0-.12-.32 1.75 1.75 0 0 1 .12.32zM197.8 375.12a3 3 0 0 0-.11-.32 3 3 0 0 1 .11.32zM210.15 390.68v-.56c.02.18.01.36 0 .56zM198.31 376.6a3.52 3.52 0 0 0 .65 1c.36.37 1.3 1.12 2.5 2.1-1.2-1-2.14-1.73-2.5-2.1a3.52 3.52 0 0 1-.65-1zM197.51 374.32c-.07-.15-.15-.3-.23-.44.08.12.16.29.23.44zM210.18 390.11a4.39 4.39 0 0 0-.14-1.37c-.77-2.4-4.75-5.88-7.75-8.36 3 2.48 7 6 7.75 8.36a4.39 4.39 0 0 1 .14 1.37zM195.94 372.48v-.08zM196.07 372.72v-.06zM197.19 373.75a2.56 2.56 0 0 0-.2-.26 2.56 2.56 0 0 1 .2.26zM210.09 391.32l.06-.59zM195.89 372.33v-.08zM196 372.61v-.07zM196.24 372.92l.08.05zM196.16 372.85h.05zM196.14 372.81v-.05zM233.77 459.17c2.32 2.65 5.5 5.13 10.37 5.1h1.4-1.4c-4.87.03-8.05-2.45-10.37-5.1zM195.84 372.18v-.09zM250 463.65c.4-.08.8-.17 1.18-.27-.34.1-.74.19-1.18.27zM250 463.65c-.55.11-1.12.21-1.7.29.62-.08 1.19-.18 1.7-.29zM207.82 417.71c-2-5.22-.11-14.07 1.27-20.75-1.38 6.68-3.32 15.53-1.27 20.75 3.21 8.19 10.7 13.57 12.38 18.79.76 2.37 1.92 5.8 3.23 8.91-1.31-3.11-2.47-6.54-3.23-8.91-1.68-5.22-9.2-10.6-12.38-18.79zM267.76 451.17zM269.92 448c-.16.3-.33.58-.51.86.18-.29.35-.57.51-.86zM272.9 444.45a6.15 6.15 0 0 0-.56.38 6.15 6.15 0 0 1 .56-.38zM268.88 449.67l-.55.77zM245.54 464.23c.76 0 1.51-.12 2.24-.21-.73.09-1.48.17-2.24.21zM224 446.67l-.42-.94zM224.68 448.17zM233.77 459.17c-.3-.34-.58-.68-.85-1 .27.32.55.66.85 1zM209.82 393.18c0-.23.08-.45.11-.67-.03.22-.07.49-.11.67zM209.22 396.29zM225.11 449l-.29-.55zM232.72 457.89q-.21-.25-.39-.51.18.26.39.51zM225.92 450.43a1.63 1.63 0 0 0 .11.17 1.63 1.63 0 0 1-.11-.17z" fill="#74473c"/><path d="M287.07 403.81c-1.58-8.44-13.27-27.94-27.29-18.66s-18.51-1.44-25.59-1.53-22.92 8.51-23.71 19.88c-.51 7.35 3.65 8.38 6.09 15.06 4.78 12.47 3 22.44 10.92 33.84 0-5.16 1.44-11.53 1.67-16.57-7.92-8.25 11.57-32.67 19.69-32.15s24.43 25 17.13 28.67c-8.78 4.46-2.05 8.42 5 16.16 0 0 5.77-6 5.45-7.9-1.98-11.73 13.19-23.2 10.64-36.8z" fill="#fff" opacity=".2"/><path d="M200.78 305.23a.76.76 0 0 0-.73.23c6.63 17 21.61 31 22.53 49.94 1.17 9.73-.34 25.33-12.89 25.9-7.08-.3-10.91-11.47-14.06-16.26M304.27 360.69c-3.37 7.85-6.08 21.43-17.71 18-8.18-1.92-6.21-9.26-4.11-15.15-2.95-2.38-5.79-8.05-2.95-12.21 18.35-30.12 30.43-27.39 29.77-28.76" fill="none" stroke="#111" stroke-linecap="round" stroke-linejoin="round"/><path d="M272.13 447.24s-.79-14.82-9.08-20.44-19.51-7.7-28.85-.61-8.34 19.3-6.71 26.21c2.19 1 3 2.4 5.06 5.27 7.38 11.33 22.6 5.46 28.73 1.39 1.72-1.43 10.85-11.82 10.85-11.82z" fill="#848484"/><path fill="none" stroke="#111" stroke-linecap="round" stroke-linejoin="round" d="M247.04 447.05l-.06 7.25"/><path d="M234.29 439c0 6.46 9.79 11.3 18.58 8.11 10.44-3.79 10.44-17-.38-17.22-10.49-.23-18.13-2.18-18.2 9.11z" fill="#333"/><path d="M231.57 364.24s-1.89-18.43-9.41-29.27-18.53-28.97-21.38-29.74-6.55 20-8.47 29.25 4.37 20.79 4.09 22.61-1.24 14.06-.58 15.88c1.8 5 13 12.11 14.22 15.77s-5.43 20.78-2.22 29 10.7 13.57 12.38 18.79 5.3 15.6 8.16 16.41 5.73 11.42 15.78 11.36 18.82-5.47 19-7.27 12.92-12.52 13.21-15.21-1.17-4.52 1.1-5.54 12.34-9.15 12.39-22.43-3.92-22.09-1.11-25.88 15.49-11 16.25-17.62a22.57 22.57 0 0 0-1.23-11s5.3-4.13 2.91-24.12c0 0 6.05-5.4 2.57-12.64s-29.56 12.09-34.5 20-8.92 21.6-8.92 21.6-25.2-1.42-34.24.05z" fill="none" stroke="#111" stroke-linecap="round" stroke-linejoin="round"/><path d="M231.74 456.41a42.66 42.66 0 0 0 5.88-1M255.7 455.95l7.53.88" fill="none" stroke="#111" stroke-miterlimit="10"/><circle cx="224.82" cy="406.41" r="5.31" fill="#111"/><ellipse cx="241.32" cy="441.88" rx="2.91" ry="1.77" fill="#111"/><ellipse cx="253.55" cy="441.88" rx="2.91" ry="1.77" fill="#111"/><circle cx="270.33" cy="405.91" r="5.31" fill="#111"/><path d="M258.8 455.91s-14.67-4-23.8-.48c0 0 11.48 11.13 23.8.48z" fill="#222229"/></g><path d="M326.15 541.91V529.7h-156.3v12.21a4.55 4.55 0 1 0 0 9.09v12.47h156.3V551a4.55 4.55 0 1 0 0-9.09z" fill="#7a7a7a"/><path d="M227.33 548.53a1.7 1.7 0 0 1-.34 1.1 2.21 2.21 0 0 1-.86.64 4.14 4.14 0 0 1-1 .29 6.39 6.39 0 0 1-1 .07h-4v-.54a2 2 0 0 0 .75-.1.51.51 0 0 0 .31-.3 1.52 1.52 0 0 0 .08-.53v-5a1 1 0 0 0-.22-.73 1.38 1.38 0 0 0-.92-.21v-.55H224a6.37 6.37 0 0 1 1.27.13 2.6 2.6 0 0 1 1.21.57 1.54 1.54 0 0 1 .55 1.28 1.5 1.5 0 0 1-.44 1.08 3.36 3.36 0 0 1-1.46.74 3.77 3.77 0 0 1 1.2.42 2.12 2.12 0 0 1 .78.73 2 2 0 0 1 .22.91zm-2-3.92a1.32 1.32 0 0 0-.2-.72 1.39 1.39 0 0 0-.58-.48 2.23 2.23 0 0 0-.94-.17H223v2.84h.48a2.11 2.11 0 0 0 1.4-.39 1.39 1.39 0 0 0 .44-1.08zm.21 3.82a1.77 1.77 0 0 0-.42-1.25 1.53 1.53 0 0 0-1.18-.45h-1v2.07a2.88 2.88 0 0 0 .06.67.55.55 0 0 0 .26.38 1.28 1.28 0 0 0 .67.13 1.69 1.69 0 0 0 1.08-.37 1.39 1.39 0 0 0 .52-1.18zM237.18 546.66a4.22 4.22 0 0 1-.51 2 3.92 3.92 0 0 1-1.53 1.52 4.8 4.8 0 0 1-2.39.57 5.07 5.07 0 0 1-2-.36 3.91 3.91 0 0 1-1.4-1 4 4 0 0 1-.8-1.33 4.41 4.41 0 0 1-.26-1.46 4.28 4.28 0 0 1 .5-2 3.78 3.78 0 0 1 1.5-1.52 4.75 4.75 0 0 1 2.39-.57 5.09 5.09 0 0 1 2.17.41 3.77 3.77 0 0 1 1.38 1 4.13 4.13 0 0 1 .72 1.33 4.53 4.53 0 0 1 .23 1.41zm-1.9 0a7.32 7.32 0 0 0-.11-1.27 3.4 3.4 0 0 0-.4-1.08 2.16 2.16 0 0 0-.79-.77 2.43 2.43 0 0 0-1.23-.28 2.24 2.24 0 0 0-1.57.5 2.44 2.44 0 0 0-.77 1.25 6.54 6.54 0 0 0-.2 1.65 9.12 9.12 0 0 0 .06 1 4.17 4.17 0 0 0 .31 1.09 2.32 2.32 0 0 0 .79 1 2.38 2.38 0 0 0 1.39.38 2.26 2.26 0 0 0 1.38-.39 2.42 2.42 0 0 0 .78-1 4.07 4.07 0 0 0 .3-1.09 8.74 8.74 0 0 0 .06-1.01zM247.18 546.66a4.23 4.23 0 0 1-.52 2 3.79 3.79 0 0 1-1.53 1.52 4.74 4.74 0 0 1-2.38.57 5.07 5.07 0 0 1-2-.36 3.91 3.91 0 0 1-1.4-1 4 4 0 0 1-.8-1.33 4.17 4.17 0 0 1-.26-1.46 4.27 4.27 0 0 1 .49-2 3.91 3.91 0 0 1 1.5-1.52 4.79 4.79 0 0 1 2.4-.57 5 5 0 0 1 2.16.41 3.73 3.73 0 0 1 1.39 1 4.1 4.1 0 0 1 .71 1.33 4.24 4.24 0 0 1 .24 1.41zm-1.9 0a6.44 6.44 0 0 0-.12-1.27 3.18 3.18 0 0 0-.4-1.08 2.13 2.13 0 0 0-.78-.77 2.43 2.43 0 0 0-1.23-.28 2.29 2.29 0 0 0-1.58.5 2.49 2.49 0 0 0-.76 1.25 6.11 6.11 0 0 0-.21 1.65 9.21 9.21 0 0 0 .07 1 3.82 3.82 0 0 0 .31 1.09 2.23 2.23 0 0 0 .78 1 2.41 2.41 0 0 0 1.4.38 2.26 2.26 0 0 0 1.38-.39 2.39 2.39 0 0 0 .77-1 4.11 4.11 0 0 0 .31-1.09 8.74 8.74 0 0 0 .06-1.01zM259.08 550.63h-4v-.54a2 2 0 0 0 .76-.1.54.54 0 0 0 .31-.3 1.52 1.52 0 0 0 .08-.53v-5l-3 6.46h-.36l-3-6.46V549.47a.79.79 0 0 0 .14.34.66.66 0 0 0 .34.21 2.75 2.75 0 0 0 .65.06v.54h-2.94v-.54a2.21 2.21 0 0 0 .65-.07.56.56 0 0 0 .34-.21.69.69 0 0 0 .13-.34v-5.07a4 4 0 0 0-.05-.72.51.51 0 0 0-.29-.34 2 2 0 0 0-.8-.11v-.54H251l2.63 5.6 2.65-5.6h2.84v.54a1.45 1.45 0 0 0-.95.21 1 1 0 0 0-.21.72v5a1.56 1.56 0 0 0 .07.52.5.5 0 0 0 .32.3 1.93 1.93 0 0 0 .77.11zM266.8 548l-.06 2.61h-7.08v-.54a1.41 1.41 0 0 0 .94-.21 1 1 0 0 0 .21-.72v-5a1.54 1.54 0 0 0-.07-.53.57.57 0 0 0-.31-.3 2.17 2.17 0 0 0-.77-.1v-.54h6.59l.1 2.06h-.53a3 3 0 0 0-.42-1 1 1 0 0 0-.54-.37 4.72 4.72 0 0 0-.88-.06h-1.49v2.8h.81a2 2 0 0 0 .62-.07.46.46 0 0 0 .28-.28 2 2 0 0 0 .12-.64h.56v2.64h-.54a2.15 2.15 0 0 0-.12-.65.5.5 0 0 0-.29-.28 2.35 2.35 0 0 0-.62-.07h-.82v2.56a.82.82 0 0 0 .13.36.67.67 0 0 0 .33.21 2.73 2.73 0 0 0 .66.06h.64a2.8 2.8 0 0 0 .77-.1 1.59 1.59 0 0 0 .72-.53 2.77 2.77 0 0 0 .49-1.33zM276.12 550.63H274a2.82 2.82 0 0 1-.29-.37 8.4 8.4 0 0 1-.38-.58l-.34-.55-.54-.89a7.86 7.86 0 0 0-.55-.82.82.82 0 0 0-.42-.28 3.77 3.77 0 0 0-.81-.06h-.3v2.08a1.81 1.81 0 0 0 .07.52.53.53 0 0 0 .34.31 2.08 2.08 0 0 0 .75.1v.54h-4v-.54a1.38 1.38 0 0 0 .93-.21 1 1 0 0 0 .21-.72v-5a1.05 1.05 0 0 0-.2-.72c-.13-.15-.45-.22-.94-.22v-.55l1.84-.06H271c.4 0 .77 0 1.11.07a5.26 5.26 0 0 1 .82.14 2.46 2.46 0 0 1 .83.37 2 2 0 0 1 .64.67 1.88 1.88 0 0 1 .25 1 1.77 1.77 0 0 1-.17.78 1.66 1.66 0 0 1-.56.66 2.88 2.88 0 0 1-1 .47 2.59 2.59 0 0 1 .73.62c.2.25.51.71.94 1.37a8.13 8.13 0 0 0 .61.86 1.5 1.5 0 0 0 .44.39 1.41 1.41 0 0 0 .51.13zm-3.29-5.83a1.3 1.3 0 0 0-.58-1.26 3.14 3.14 0 0 0-1.51-.31h-.37v3.19h.37a3.47 3.47 0 0 0 1.49-.29c.4-.13.6-.63.6-1.33z" fill="#333"/><circle cx="168.64" cy="546.43" r=".98" fill="#333"/><circle cx="327.08" cy="546.43" r=".98" fill="#333"/></svg>