<svg xmlns="http://www.w3.org/2000/svg" width="452" height="550" viewBox="0 0 452 550"><path d="M158.46 293c-1.88-4.6-3.71-10.72-3.91-10.45-.65.87-11.79 20.93 7 30-.27-6.27-2.76-13.25-3.09-19.55z" fill="#cbb591"/><path d="M303.3 405.41c-4-9.71-15.91-19.7-18.11-30-2.42-11.37-4.08-21.22-2.12-32.63 2.53-14.68 6.15-29 7.66-43.95l-116.46 8.44s-2.33 24.49-5.41 57.45c-2.37 25.28-18.28 34.72-12.86 54.56 3.09 11.28 154 10.74 152.15 1.64a85.29 85.29 0 0 0-4.85-15.51zM275.76 441.21c0 .23-.05.36 0 0z" fill="#333"/><path d="M247.63 402.72a20.38 20.38 0 0 0-1.81-4.88c-1.27-2.43-2.88-4.65-4.34-7a31.31 31.31 0 0 1-3.57-7.64c-1.73-5.7-1.86-11.72-1.72-17.63 0-1.45.09-2.91.15-4.36a.86.86 0 0 0-.16-.57c.45 0-31.06-3.56-29.65-3.33a.67.67 0 0 0 0 .18 78.71 78.71 0 0 1 3.47 18.66 68.32 68.32 0 0 1-.2 9.49c-.3 3.19-.85 6.34-1.43 9.49-1.15 6.31-2.41 12.74-1.9 19.18a33.72 33.72 0 0 0 5.42 15.83 34.39 34.39 0 0 0 2.74 3.62c.06.29 20.29 3.17 23.54-.28a37.44 37.44 0 0 0 8.06-14.78c1.52-4.91 2.94-10.43 2-15.6a1.7 1.7 0 0 1-.6-.38z" fill="#cbb591"/><path d="M206.53 357.34a.67.67 0 0 0 0 .18c.88 3 1.64 6 2.22 9.05h2.78a59.56 59.56 0 0 1 10.67.88 39.3 39.3 0 0 1 9.78 3.3c1.46.7 2.87 1.48 4.25 2.32-.14-2.48-.13-5-.07-7.44 0-1.45.09-2.91.15-4.36a.86.86 0 0 0-.16-.57c.45 0 1.73-11.43-3.08-12.75a22.25 22.25 0 0 0-6.46-.58 51 51 0 0 0-6.52.6 39.73 39.73 0 0 0-13.31 4.29 19.17 19.17 0 0 0-5.32 4.3l.82.13z" fill="#a38a6c"/><path d="M236.77 226.18s-81.89 25.45-67.06 88c.74 5.4 1.64 10.77 2.78 16.1.78 3.67 1.67 7.31 2.7 10.91.51 1.8 1.06 3.6 1.64 5.38a19.8 19.8 0 0 0 1.86 4.6 6.19 6.19 0 0 0 3.86 2.68c1.83.45 3.75.64 5.61.94l11.84 1.87 4.22.68c0 .05 30.55 3.3 31 3.27 3.91-.21 7.81-.64 11.71-1s7.75-.71 11.62-1.14a9.24 9.24 0 0 0 4.52-1.41 7.88 7.88 0 0 0 2.56-4.16c2.41-7.36 4.48-14.84 6.47-22.32 1.17-4.39 2.28-8.8 3.37-13.21a4.82 4.82 0 0 1 1.77-.84c2.07-.49 3.3-.05 5.18-1.63 2.76-2.33 2.82-6.86 3-10.15.16-3 2-40 2-40z" fill="#cbb591"/><path d="M279.28 258.36c3 9.87-4.34 61.13-3.81 59 .53-.39 4.78-.68 6.95-1.84 6.79-3.62 4.95-50.76 4.95-50.76a98.69 98.69 0 0 0-8.09-6.4z" fill="#a38a6c"/><path d="M281.81 322.58c-.04.02-.1.06 0 0z" fill="#333"/><path d="M238.56 206.1c-35.75-10.38-74-5.18-84.61 32.11-12.47 43.88 13.63 62.23 14.91 126.49 0 0 6.9-8.71 6.33-23.53a152.88 152.88 0 0 1-4.92-23.12c-4-26.93 5.8-61.84 38.39-69.11 17-3.21 27.27-17.7 27.61-18.38 2.91 9.81 9.87 17.63 18.51 22.87 8 5.27 16.62 13.36 23 20.71 8.63 15.86 10.66 37 1.95 42.48 0 0 2.05 5.94 2 5.95-.79.4 4.38 4.07 4.83.95 4.07-26.9 27.95-125.61-48-117.42z" fill="#333"/><path d="M236.38 230.28a198.43 198.43 0 0 0-3.6 42.31 214.57 214.57 0 0 0 5.74 45.14c-6.39-2.94-13.69-2.85-20.71-2.7" fill="none" stroke="#333" stroke-linecap="round" stroke-miterlimit="10"/><path d="M185.12 283.05a50.58 50.58 0 0 0 6.78-1.27 66 66 0 0 1 21.94-.95l-1.39-2.19M187.54 291.62c2.42 1.31 5.33 1.26 8.07 1.06 5.75-.41 17.59-2.77 17.75-2.59a16.48 16.48 0 0 1-.85 3.57" fill="none" stroke="#333" stroke-linecap="round" stroke-linejoin="round"/><path d="M205 279.93c-.6-.67-12.46.81-12.86 1.39a6.36 6.36 0 0 0-.37 6 7.9 7.9 0 0 0 4.5 4.32 9.78 9.78 0 0 0 6.47.24 5.21 5.21 0 0 0 2.66-1.88 7.54 7.54 0 0 0 1.14-3.12 8.12 8.12 0 0 0-1.54-6.95z" fill="#333"/><path d="M201 286.37c2.54 0 2.54-3.95 0-3.95s-2.55 3.95 0 3.95z" fill="#fff"/><path d="M262.87 280.87c-.62-.23-9.85 1.11-10.84 1.85a.52.52 0 0 0-.17 0c-2.26.63-3 3.44-2.47 5.49a7.66 7.66 0 0 0 5.35 4.92 11.33 11.33 0 0 0 7.89-.21 7 7 0 0 0 3.84-5.54c.25-2.38-1.15-5.63-3.6-6.51zm-5.42 10.95z" fill="#333"/><path d="M258.89 287.34c2.54 0 2.54-3.94 0-3.94s-2.55 3.94 0 3.94z" fill="#fff"/><path d="M245.52 282a39.81 39.81 0 0 0 12.37-.94c3.37-.72 10.46.42 13.76 1.45M245.64 291.69a34 34 0 0 0 24.66-.89" fill="none" stroke="#333" stroke-linecap="round" stroke-miterlimit="10"/><path d="M0-.62V550h452V-.62zm398.74 502.2H53.22l-.5-453.28h347.06z" fill="#5db2a5"/><path fill="none" stroke="#30877a" stroke-miterlimit="10" stroke-width="2" d="M399.78 48.3l55.93-51.12M53.22 48.3L-3-2.37M398.78 501.58l56.16 51.1M53.22 501.58L-1.87 551.5"/><path d="M425.24 25.5v498.38H26.76V25.5h398.48m10-10H16.76v518.38h418.48V15.5z" fill="#30877a"/><path d="M406.58 41.87V507H45.42V41.87h361.16m4-4H41.42V511h369.16V37.87z" fill="#30877a"/><ellipse cx="443.48" cy="521.96" rx="4.47" ry="11.92" fill="#5db2a5" stroke="#30877a" stroke-linecap="round" stroke-miterlimit="10"/><path fill="none" stroke="#30877a" stroke-linecap="round" stroke-miterlimit="10" d="M441.15 525.7l2.33 4.62 2.45-4.62M441.15 520.1l2.33 4.61 2.45-4.61M441.57 515.39l1.91 3.78 2.02-3.79M443.48 512.23v24.96"/><ellipse cx="443.48" cy="437.01" rx="4.47" ry="11.92" fill="#5db2a5" stroke="#30877a" stroke-linecap="round" stroke-miterlimit="10"/><path fill="none" stroke="#30877a" stroke-linecap="round" stroke-miterlimit="10" d="M445.82 433.27l-2.34-4.61-2.44 4.61M445.82 438.88l-2.34-4.61-2.44 4.61M445.4 443.58l-1.92-3.78-2.01 3.8M443.48 446.75v-24.96"/><ellipse cx="443.48" cy="404.45" rx="4.47" ry="11.92" fill="#5db2a5" stroke="#30877a" stroke-linecap="round" stroke-miterlimit="10"/><path fill="none" stroke="#30877a" stroke-linecap="round" stroke-miterlimit="10" d="M441.15 408.19l2.33 4.61 2.45-4.61M441.15 402.58l2.33 4.61 2.45-4.61M441.57 397.88l1.91 3.78 2.02-3.8M443.48 394.71v24.96"/><ellipse cx="443.48" cy="495.48" rx="4.47" ry="11.92" fill="#5db2a5" stroke="#30877a" stroke-linecap="round" stroke-miterlimit="10"/><path fill="none" stroke="#30877a" stroke-linecap="round" stroke-miterlimit="10" d="M445.82 491.75l-2.34-4.62-2.44 4.62M445.82 497.35l-2.34-4.61-2.44 4.61M445.4 502.05l-1.92-3.77-2.01 3.79M443.48 505.22v-24.96"/><ellipse cx="443.48" cy="462.92" rx="4.47" ry="11.92" fill="#5db2a5" stroke="#30877a" stroke-linecap="round" stroke-miterlimit="10"/><path fill="none" stroke="#30877a" stroke-linecap="round" stroke-miterlimit="10" d="M441.15 466.66l2.33 4.61 2.45-4.61M441.15 461.05l2.33 4.62 2.45-4.62M441.57 456.35l1.91 3.78 2.02-3.8M443.48 453.18v24.97"/><ellipse cx="443.48" cy="378.5" rx="4.47" ry="11.92" fill="#5db2a5" stroke="#30877a" stroke-linecap="round" stroke-miterlimit="10"/><path fill="none" stroke="#30877a" stroke-linecap="round" stroke-miterlimit="10" d="M445.82 374.76l-2.34-4.61-2.44 4.61M445.82 380.37l-2.34-4.62-2.44 4.62M445.4 385.07l-1.92-3.78-2.01 3.79M443.48 388.24v-24.97"/><ellipse cx="443.48" cy="345.93" rx="4.47" ry="11.92" fill="#5db2a5" stroke="#30877a" stroke-linecap="round" stroke-miterlimit="10"/><path fill="none" stroke="#30877a" stroke-linecap="round" stroke-miterlimit="10" d="M441.15 349.67l2.33 4.62 2.45-4.62M441.15 344.06l2.33 4.62 2.45-4.62M441.57 339.36l1.91 3.78 2.02-3.79M443.48 336.2v24.96"/><ellipse cx="443.48" cy="319.98" rx="4.47" ry="11.92" fill="#5db2a5" stroke="#30877a" stroke-linecap="round" stroke-miterlimit="10"/><path fill="none" stroke="#30877a" stroke-linecap="round" stroke-miterlimit="10" d="M445.82 316.25l-2.34-4.62-2.44 4.62M445.82 321.85l-2.34-4.61-2.44 4.61M445.4 326.55l-1.92-3.78-2.01 3.8M443.48 329.72v-24.96"/><ellipse cx="443.48" cy="287.42" rx="4.47" ry="11.92" fill="#5db2a5" stroke="#30877a" stroke-linecap="round" stroke-miterlimit="10"/><path fill="none" stroke="#30877a" stroke-linecap="round" stroke-miterlimit="10" d="M441.15 291.16l2.33 4.61 2.45-4.61M441.15 285.55l2.33 4.61 2.45-4.61M441.57 280.85l1.91 3.78 2.02-3.8M443.48 277.68v24.97"/><ellipse cx="443.48" cy="261.47" rx="4.47" ry="11.92" fill="#5db2a5" stroke="#30877a" stroke-linecap="round" stroke-miterlimit="10"/><path fill="none" stroke="#30877a" stroke-linecap="round" stroke-miterlimit="10" d="M445.82 257.73l-2.34-4.61-2.44 4.61M445.82 263.34l-2.34-4.61-2.44 4.61M445.4 268.04l-1.92-3.78-2.01 3.8M443.48 271.21v-24.97"/><ellipse cx="443.48" cy="231.02" rx="4.47" ry="11.92" fill="#5db2a5" stroke="#30877a" stroke-linecap="round" stroke-miterlimit="10"/><path fill="none" stroke="#30877a" stroke-linecap="round" stroke-miterlimit="10" d="M441.15 234.76l2.33 4.61 2.45-4.61M441.15 229.15l2.33 4.61 2.45-4.61M441.57 224.45l1.91 3.78 2.02-3.8M443.48 221.28v24.96"/><ellipse cx="443.48" cy="205.07" rx="4.47" ry="11.92" fill="#5db2a5" stroke="#30877a" stroke-linecap="round" stroke-miterlimit="10"/><path fill="none" stroke="#30877a" stroke-linecap="round" stroke-miterlimit="10" d="M445.82 201.33l-2.34-4.61-2.44 4.61M445.82 206.94l-2.34-4.62-2.44 4.62M445.4 211.64l-1.92-3.78-2.01 3.8M443.48 214.81v-24.97"/><ellipse cx="443.48" cy="172.5" rx="4.47" ry="11.92" fill="#5db2a5" stroke="#30877a" stroke-linecap="round" stroke-miterlimit="10"/><path fill="none" stroke="#30877a" stroke-linecap="round" stroke-miterlimit="10" d="M441.15 176.24l2.33 4.61 2.45-4.61M441.15 170.63l2.33 4.62 2.45-4.62M441.57 165.93l1.91 3.78 2.02-3.79M443.48 162.77v24.96"/><ellipse cx="443.48" cy="146.55" rx="4.47" ry="11.92" fill="#5db2a5" stroke="#30877a" stroke-linecap="round" stroke-miterlimit="10"/><path fill="none" stroke="#30877a" stroke-linecap="round" stroke-miterlimit="10" d="M445.82 142.81l-2.34-4.61-2.44 4.61M445.82 148.42l-2.34-4.61-2.44 4.61M445.4 153.12l-1.92-3.78-2.01 3.8M443.48 156.29v-24.96"/><ellipse cx="443.48" cy="113.82" rx="4.47" ry="11.92" fill="#5db2a5" stroke="#30877a" stroke-linecap="round" stroke-miterlimit="10"/><path fill="none" stroke="#30877a" stroke-linecap="round" stroke-miterlimit="10" d="M441.15 117.56l2.33 4.61 2.45-4.61M441.15 111.95l2.33 4.61 2.45-4.61M441.57 107.25l1.91 3.78 2.02-3.8M443.48 104.08v24.97"/><ellipse cx="443.48" cy="87.87" rx="4.47" ry="11.92" fill="#5db2a5" stroke="#30877a" stroke-linecap="round" stroke-miterlimit="10"/><path fill="none" stroke="#30877a" stroke-linecap="round" stroke-miterlimit="10" d="M445.82 84.13l-2.34-4.61-2.44 4.61M445.82 89.74l-2.34-4.61-2.44 4.61M445.4 94.44l-1.92-3.78-2.01 3.8M443.48 97.61V72.64"/><ellipse cx="443.48" cy="55.39" rx="4.47" ry="11.92" fill="#5db2a5" stroke="#30877a" stroke-linecap="round" stroke-miterlimit="10"/><path fill="none" stroke="#30877a" stroke-linecap="round" stroke-miterlimit="10" d="M441.15 59.13l2.33 4.62 2.45-4.62M441.15 53.52l2.33 4.62 2.45-4.62M441.57 48.83l1.91 3.77 2.02-3.79M443.48 45.66v24.96"/><ellipse cx="443.48" cy="29.44" rx="4.47" ry="11.92" fill="#5db2a5" stroke="#30877a" stroke-linecap="round" stroke-miterlimit="10"/><path fill="none" stroke="#30877a" stroke-linecap="round" stroke-miterlimit="10" d="M445.82 25.7l-2.34-4.61-2.44 4.61M445.82 31.31l-2.34-4.61-2.44 4.61M445.4 36.01l-1.92-3.78-2.01 3.8M443.48 39.18V14.22"/><ellipse cx="8.33" cy="521.96" rx="4.47" ry="11.92" fill="#5db2a5" stroke="#30877a" stroke-linecap="round" stroke-miterlimit="10"/><path fill="none" stroke="#30877a" stroke-linecap="round" stroke-miterlimit="10" d="M5.99 525.7l2.34 4.62 2.45-4.62M5.99 520.1l2.34 4.61 2.45-4.61M6.42 515.39l1.91 3.78 2.01-3.79M8.33 512.23v24.96"/><ellipse cx="8.33" cy="437.01" rx="4.47" ry="11.92" fill="#5db2a5" stroke="#30877a" stroke-linecap="round" stroke-miterlimit="10"/><path fill="none" stroke="#30877a" stroke-linecap="round" stroke-miterlimit="10" d="M10.66 433.27l-2.33-4.61-2.45 4.61M10.66 438.88l-2.33-4.61-2.45 4.61M10.24 443.58l-1.91-3.78-2.01 3.8M8.33 446.75v-24.96"/><ellipse cx="8.33" cy="404.45" rx="4.47" ry="11.92" fill="#5db2a5" stroke="#30877a" stroke-linecap="round" stroke-miterlimit="10"/><path fill="none" stroke="#30877a" stroke-linecap="round" stroke-miterlimit="10" d="M5.99 408.19l2.34 4.61 2.45-4.61M5.99 402.58l2.34 4.61 2.45-4.61M6.42 397.88l1.91 3.78 2.01-3.8M8.33 394.71v24.96"/><ellipse cx="8.33" cy="495.48" rx="4.47" ry="11.92" fill="#5db2a5" stroke="#30877a" stroke-linecap="round" stroke-miterlimit="10"/><path fill="none" stroke="#30877a" stroke-linecap="round" stroke-miterlimit="10" d="M10.66 491.75l-2.33-4.62-2.45 4.62M10.66 497.35l-2.33-4.61-2.45 4.61M10.24 502.05l-1.91-3.77-2.01 3.79M8.33 505.22v-24.96"/><ellipse cx="8.33" cy="462.92" rx="4.47" ry="11.92" fill="#5db2a5" stroke="#30877a" stroke-linecap="round" stroke-miterlimit="10"/><path fill="none" stroke="#30877a" stroke-linecap="round" stroke-miterlimit="10" d="M5.99 466.66l2.34 4.61 2.45-4.61M5.99 461.05l2.34 4.62 2.45-4.62M6.42 456.35l1.91 3.78 2.01-3.8M8.33 453.18v24.97"/><ellipse cx="8.33" cy="378.5" rx="4.47" ry="11.92" fill="#5db2a5" stroke="#30877a" stroke-linecap="round" stroke-miterlimit="10"/><path fill="none" stroke="#30877a" stroke-linecap="round" stroke-miterlimit="10" d="M10.66 374.76l-2.33-4.61-2.45 4.61M10.66 380.37l-2.33-4.62-2.45 4.62M10.24 385.07l-1.91-3.78-2.01 3.79M8.33 388.24v-24.97"/><ellipse cx="8.33" cy="345.93" rx="4.47" ry="11.92" fill="#5db2a5" stroke="#30877a" stroke-linecap="round" stroke-miterlimit="10"/><path fill="none" stroke="#30877a" stroke-linecap="round" stroke-miterlimit="10" d="M5.99 349.67l2.34 4.62 2.45-4.62M5.99 344.06l2.34 4.62 2.45-4.62M6.42 339.36l1.91 3.78 2.01-3.79M8.33 336.2v24.96"/><ellipse cx="8.33" cy="319.98" rx="4.47" ry="11.92" fill="#5db2a5" stroke="#30877a" stroke-linecap="round" stroke-miterlimit="10"/><path fill="none" stroke="#30877a" stroke-linecap="round" stroke-miterlimit="10" d="M10.66 316.25l-2.33-4.62-2.45 4.62M10.66 321.85l-2.33-4.61-2.45 4.61M10.24 326.55l-1.91-3.78-2.01 3.8M8.33 329.72v-24.96"/><ellipse cx="8.33" cy="287.42" rx="4.47" ry="11.92" fill="#5db2a5" stroke="#30877a" stroke-linecap="round" stroke-miterlimit="10"/><path fill="none" stroke="#30877a" stroke-linecap="round" stroke-miterlimit="10" d="M5.99 291.16l2.34 4.61 2.45-4.61M5.99 285.55l2.34 4.61 2.45-4.61M6.42 280.85l1.91 3.78 2.01-3.8M8.33 277.68v24.97"/><ellipse cx="8.33" cy="261.47" rx="4.47" ry="11.92" fill="#5db2a5" stroke="#30877a" stroke-linecap="round" stroke-miterlimit="10"/><path fill="none" stroke="#30877a" stroke-linecap="round" stroke-miterlimit="10" d="M10.66 257.73l-2.33-4.61-2.45 4.61M10.66 263.34l-2.33-4.61-2.45 4.61M10.24 268.04l-1.91-3.78-2.01 3.8M8.33 271.21v-24.97"/><ellipse cx="8.33" cy="231.02" rx="4.47" ry="11.92" fill="#5db2a5" stroke="#30877a" stroke-linecap="round" stroke-miterlimit="10"/><path fill="none" stroke="#30877a" stroke-linecap="round" stroke-miterlimit="10" d="M5.99 234.76l2.34 4.61 2.45-4.61M5.99 229.15l2.34 4.61 2.45-4.61M6.42 224.45l1.91 3.78 2.01-3.8M8.33 221.28v24.96"/><ellipse cx="8.33" cy="205.07" rx="4.47" ry="11.92" fill="#5db2a5" stroke="#30877a" stroke-linecap="round" stroke-miterlimit="10"/><path fill="none" stroke="#30877a" stroke-linecap="round" stroke-miterlimit="10" d="M10.66 201.33l-2.33-4.61-2.45 4.61M10.66 206.94l-2.33-4.62-2.45 4.62M10.24 211.64l-1.91-3.78-2.01 3.8M8.33 214.81v-24.97"/><ellipse cx="8.33" cy="172.5" rx="4.47" ry="11.92" fill="#5db2a5" stroke="#30877a" stroke-linecap="round" stroke-miterlimit="10"/><path fill="none" stroke="#30877a" stroke-linecap="round" stroke-miterlimit="10" d="M5.99 176.24l2.34 4.61 2.45-4.61M5.99 170.63l2.34 4.62 2.45-4.62M6.42 165.93l1.91 3.78 2.01-3.79M8.33 162.77v24.96"/><ellipse cx="8.33" cy="146.55" rx="4.47" ry="11.92" fill="#5db2a5" stroke="#30877a" stroke-linecap="round" stroke-miterlimit="10"/><path fill="none" stroke="#30877a" stroke-linecap="round" stroke-miterlimit="10" d="M10.66 142.81l-2.33-4.61-2.45 4.61M10.66 148.42l-2.33-4.61-2.45 4.61M10.24 153.12l-1.91-3.78-2.01 3.8M8.33 156.29v-24.96"/><ellipse cx="8.33" cy="113.82" rx="4.47" ry="11.92" fill="#5db2a5" stroke="#30877a" stroke-linecap="round" stroke-miterlimit="10"/><path fill="none" stroke="#30877a" stroke-linecap="round" stroke-miterlimit="10" d="M5.99 117.56l2.34 4.61 2.45-4.61M5.99 111.95l2.34 4.61 2.45-4.61M6.42 107.25l1.91 3.78 2.01-3.8M8.33 104.08v24.97"/><ellipse cx="8.33" cy="87.87" rx="4.47" ry="11.92" fill="#5db2a5" stroke="#30877a" stroke-linecap="round" stroke-miterlimit="10"/><path fill="none" stroke="#30877a" stroke-linecap="round" stroke-miterlimit="10" d="M10.66 84.13l-2.33-4.61-2.45 4.61M10.66 89.74l-2.33-4.61-2.45 4.61M10.24 94.44l-1.91-3.78-2.01 3.8M8.33 97.61V72.64"/><ellipse cx="8.33" cy="55.39" rx="4.47" ry="11.92" fill="#5db2a5" stroke="#30877a" stroke-linecap="round" stroke-miterlimit="10"/><path fill="none" stroke="#30877a" stroke-linecap="round" stroke-miterlimit="10" d="M5.99 59.13l2.34 4.62 2.45-4.62M5.99 53.52l2.34 4.62 2.45-4.62M6.42 48.83l1.91 3.77 2.01-3.79M8.33 45.66v24.96"/><ellipse cx="8.33" cy="29.44" rx="4.47" ry="11.92" fill="#5db2a5" stroke="#30877a" stroke-linecap="round" stroke-miterlimit="10"/><path fill="none" stroke="#30877a" stroke-linecap="round" stroke-miterlimit="10" d="M10.66 25.7l-2.33-4.61-2.45 4.61M10.66 31.31L8.33 26.7l-2.45 4.61M10.24 36.01l-1.91-3.78-2.01 3.8M8.33 39.18V14.22"/><ellipse cx="28.94" cy="7.76" rx="10.77" ry="4.47" fill="#5db2a5" stroke="#30877a" stroke-linecap="round" stroke-miterlimit="10"/><path fill="none" stroke="#30877a" stroke-linecap="round" stroke-miterlimit="10" d="M25.56 5.43l-4.17 2.33 4.17 2.45M30.63 5.43l-4.17 2.33 4.17 2.45M34.87 5.85l-3.41 1.91 3.43 2.02M37.74 7.76H15.19"/><ellipse cx="52.38" cy="7.76" rx="10.77" ry="4.47" fill="#5db2a5" stroke="#30877a" stroke-linecap="round" stroke-miterlimit="10"/><path fill="none" stroke="#30877a" stroke-linecap="round" stroke-miterlimit="10" d="M55.76 10.1l4.16-2.34-4.16-2.44M50.69 10.1l4.17-2.34-4.17-2.44M46.45 9.68l3.41-1.92-3.43-2.01M43.58 7.76h22.55"/><ellipse cx="81.79" cy="7.76" rx="10.77" ry="4.47" fill="#5db2a5" stroke="#30877a" stroke-linecap="round" stroke-miterlimit="10"/><path fill="none" stroke="#30877a" stroke-linecap="round" stroke-miterlimit="10" d="M78.42 5.43l-4.17 2.33 4.17 2.45M83.48 5.43l-4.16 2.33 4.16 2.45M87.73 5.85l-3.42 1.91 3.43 2.02M90.59 7.76H68.04"/><ellipse cx="105.24" cy="7.76" rx="10.77" ry="4.47" fill="#5db2a5" stroke="#30877a" stroke-linecap="round" stroke-miterlimit="10"/><path fill="none" stroke="#30877a" stroke-linecap="round" stroke-miterlimit="10" d="M108.61 10.1l4.17-2.34-4.17-2.44M103.55 10.1l4.16-2.34-4.16-2.44M99.3 9.68l3.41-1.92-3.43-2.01M96.44 7.76h22.55"/><ellipse cx="134.65" cy="7.76" rx="10.77" ry="4.47" fill="#5db2a5" stroke="#30877a" stroke-linecap="round" stroke-miterlimit="10"/><path fill="none" stroke="#30877a" stroke-linecap="round" stroke-miterlimit="10" d="M131.27 5.43l-4.16 2.33 4.16 2.45M136.34 5.43l-4.17 2.33 4.17 2.45M140.58 5.85l-3.41 1.91 3.43 2.02M143.45 7.76H120.9"/><ellipse cx="158.09" cy="7.76" rx="10.77" ry="4.47" fill="#5db2a5" stroke="#30877a" stroke-linecap="round" stroke-miterlimit="10"/><path fill="none" stroke="#30877a" stroke-linecap="round" stroke-miterlimit="10" d="M161.47 10.1l4.16-2.34-4.16-2.44M156.4 10.1l4.17-2.34-4.17-2.44M152.16 9.68l3.41-1.92-3.43-2.01M149.29 7.76h22.55"/><ellipse cx="187.5" cy="7.76" rx="10.77" ry="4.47" fill="#5db2a5" stroke="#30877a" stroke-linecap="round" stroke-miterlimit="10"/><path fill="none" stroke="#30877a" stroke-linecap="round" stroke-miterlimit="10" d="M184.13 5.43l-4.17 2.33 4.17 2.45M189.19 5.43l-4.16 2.33 4.16 2.45M193.44 5.85l-3.41 1.91 3.43 2.02M196.3 7.76h-22.55"/><ellipse cx="210.95" cy="7.76" rx="10.77" ry="4.47" fill="#5db2a5" stroke="#30877a" stroke-linecap="round" stroke-miterlimit="10"/><path fill="none" stroke="#30877a" stroke-linecap="round" stroke-miterlimit="10" d="M214.32 10.1l4.17-2.34-4.17-2.44M209.26 10.1l4.16-2.34-4.16-2.44M205.01 9.68l3.42-1.92L205 5.75M202.15 7.76h22.55"/><ellipse cx="240.36" cy="7.76" rx="10.77" ry="4.47" fill="#5db2a5" stroke="#30877a" stroke-linecap="round" stroke-miterlimit="10"/><path fill="none" stroke="#30877a" stroke-linecap="round" stroke-miterlimit="10" d="M236.98 5.43l-4.16 2.33 4.16 2.45M242.05 5.43l-4.17 2.33 4.17 2.45M246.29 5.85l-3.41 1.91 3.43 2.02M249.16 7.76h-22.55"/><ellipse cx="263.8" cy="7.76" rx="10.77" ry="4.47" fill="#5db2a5" stroke="#30877a" stroke-linecap="round" stroke-miterlimit="10"/><path fill="none" stroke="#30877a" stroke-linecap="round" stroke-miterlimit="10" d="M267.18 10.1l4.17-2.34-4.17-2.44M262.11 10.1l4.17-2.34-4.17-2.44M257.87 9.68l3.41-1.92-3.43-2.01M255 7.76h22.55"/><ellipse cx="291.31" cy="7.76" rx="10.77" ry="4.47" fill="#5db2a5" stroke="#30877a" stroke-linecap="round" stroke-miterlimit="10"/><path fill="none" stroke="#30877a" stroke-linecap="round" stroke-miterlimit="10" d="M287.93 5.43l-4.17 2.33 4.17 2.45M293 5.43l-4.17 2.33 4.17 2.45M297.24 5.85l-3.41 1.91 3.43 2.02M300.1 7.76h-22.55"/><ellipse cx="314.75" cy="7.76" rx="10.77" ry="4.47" fill="#5db2a5" stroke="#30877a" stroke-linecap="round" stroke-miterlimit="10"/><path fill="none" stroke="#30877a" stroke-linecap="round" stroke-miterlimit="10" d="M318.13 10.1l4.16-2.34-4.16-2.44M313.06 10.1l4.17-2.34-4.17-2.44M308.81 9.68l3.42-1.92-3.43-2.01M305.95 7.76h22.55"/><ellipse cx="344.16" cy="7.76" rx="10.77" ry="4.47" fill="#5db2a5" stroke="#30877a" stroke-linecap="round" stroke-miterlimit="10"/><path fill="none" stroke="#30877a" stroke-linecap="round" stroke-miterlimit="10" d="M340.79 5.43l-4.17 2.33 4.17 2.45M345.85 5.43l-4.16 2.33 4.16 2.45M350.1 5.85l-3.42 1.91 3.43 2.02M352.96 7.76h-22.55"/><ellipse cx="367.6" cy="7.76" rx="10.77" ry="4.47" fill="#5db2a5" stroke="#30877a" stroke-linecap="round" stroke-miterlimit="10"/><path fill="none" stroke="#30877a" stroke-linecap="round" stroke-miterlimit="10" d="M370.98 10.1l4.17-2.34-4.17-2.44M365.92 10.1l4.16-2.34-4.16-2.44M361.67 9.68l3.41-1.92-3.43-2.01M358.81 7.76h22.55"/><ellipse cx="397.17" cy="7.76" rx="10.77" ry="4.47" fill="#5db2a5" stroke="#30877a" stroke-linecap="round" stroke-miterlimit="10"/><path fill="none" stroke="#30877a" stroke-linecap="round" stroke-miterlimit="10" d="M393.8 5.43l-4.17 2.33 4.17 2.45M398.86 5.43l-4.17 2.33 4.17 2.45M403.11 5.85l-3.42 1.91 3.43 2.02M405.97 7.76h-22.55"/><ellipse cx="420.61" cy="7.76" rx="10.77" ry="4.47" fill="#5db2a5" stroke="#30877a" stroke-linecap="round" stroke-miterlimit="10"/><path fill="none" stroke="#30877a" stroke-linecap="round" stroke-miterlimit="10" d="M423.99 10.1l4.17-2.34-4.17-2.44M418.92 10.1l4.17-2.34-4.17-2.44M414.68 9.68l3.41-1.92-3.43-2.01M411.82 7.76h22.55"/><ellipse cx="28.94" cy="542.14" rx="10.77" ry="4.47" fill="#5db2a5" stroke="#30877a" stroke-linecap="round" stroke-miterlimit="10"/><path fill="none" stroke="#30877a" stroke-linecap="round" stroke-miterlimit="10" d="M25.56 539.8l-4.17 2.34 4.17 2.45M30.63 539.8l-4.17 2.34 4.17 2.45M34.87 540.23l-3.41 1.91 3.43 2.01M37.74 542.14H15.19"/><ellipse cx="52.38" cy="542.14" rx="10.77" ry="4.47" fill="#5db2a5" stroke="#30877a" stroke-linecap="round" stroke-miterlimit="10"/><path fill="none" stroke="#30877a" stroke-linecap="round" stroke-miterlimit="10" d="M55.76 544.48l4.16-2.34-4.16-2.45M50.69 544.48l4.17-2.34-4.17-2.45M46.45 544.05l3.41-1.91-3.43-2.01M43.58 542.14h22.55"/><ellipse cx="81.79" cy="542.14" rx="10.77" ry="4.47" fill="#5db2a5" stroke="#30877a" stroke-linecap="round" stroke-miterlimit="10"/><path fill="none" stroke="#30877a" stroke-linecap="round" stroke-miterlimit="10" d="M78.42 539.8l-4.17 2.34 4.17 2.45M83.48 539.8l-4.16 2.34 4.16 2.45M87.73 540.23l-3.42 1.91 3.43 2.01M90.59 542.14H68.04"/><ellipse cx="105.24" cy="542.14" rx="10.77" ry="4.47" fill="#5db2a5" stroke="#30877a" stroke-linecap="round" stroke-miterlimit="10"/><path fill="none" stroke="#30877a" stroke-linecap="round" stroke-miterlimit="10" d="M108.61 544.48l4.17-2.34-4.17-2.45M103.55 544.48l4.16-2.34-4.16-2.45M99.3 544.05l3.41-1.91-3.43-2.01M96.44 542.14h22.55"/><ellipse cx="134.65" cy="542.14" rx="10.77" ry="4.47" fill="#5db2a5" stroke="#30877a" stroke-linecap="round" stroke-miterlimit="10"/><path fill="none" stroke="#30877a" stroke-linecap="round" stroke-miterlimit="10" d="M131.27 539.8l-4.16 2.34 4.16 2.45M136.34 539.8l-4.17 2.34 4.17 2.45M140.58 540.23l-3.41 1.91 3.43 2.01M143.45 542.14H120.9"/><ellipse cx="158.09" cy="542.14" rx="10.77" ry="4.47" fill="#5db2a5" stroke="#30877a" stroke-linecap="round" stroke-miterlimit="10"/><path fill="none" stroke="#30877a" stroke-linecap="round" stroke-miterlimit="10" d="M161.47 544.48l4.16-2.34-4.16-2.45M156.4 544.48l4.17-2.34-4.17-2.45M152.16 544.05l3.41-1.91-3.43-2.01M149.29 542.14h22.55"/><ellipse cx="187.5" cy="542.14" rx="10.77" ry="4.47" fill="#5db2a5" stroke="#30877a" stroke-linecap="round" stroke-miterlimit="10"/><path fill="none" stroke="#30877a" stroke-linecap="round" stroke-miterlimit="10" d="M184.13 539.8l-4.17 2.34 4.17 2.45M189.19 539.8l-4.16 2.34 4.16 2.45M193.44 540.23l-3.41 1.91 3.43 2.01M196.3 542.14h-22.55"/><ellipse cx="210.95" cy="542.14" rx="10.77" ry="4.47" fill="#5db2a5" stroke="#30877a" stroke-linecap="round" stroke-miterlimit="10"/><path fill="none" stroke="#30877a" stroke-linecap="round" stroke-miterlimit="10" d="M214.32 544.48l4.17-2.34-4.17-2.45M209.26 544.48l4.16-2.34-4.16-2.45M205.01 544.05l3.42-1.91-3.43-2.01M202.15 542.14h22.55"/><ellipse cx="240.36" cy="542.14" rx="10.77" ry="4.47" fill="#5db2a5" stroke="#30877a" stroke-linecap="round" stroke-miterlimit="10"/><path fill="none" stroke="#30877a" stroke-linecap="round" stroke-miterlimit="10" d="M236.98 539.8l-4.16 2.34 4.16 2.45M242.05 539.8l-4.17 2.34 4.17 2.45M246.29 540.23l-3.41 1.91 3.43 2.01M249.16 542.14h-22.55"/><ellipse cx="263.8" cy="542.14" rx="10.77" ry="4.47" fill="#5db2a5" stroke="#30877a" stroke-linecap="round" stroke-miterlimit="10"/><path fill="none" stroke="#30877a" stroke-linecap="round" stroke-miterlimit="10" d="M267.18 544.48l4.17-2.34-4.17-2.45M262.11 544.48l4.17-2.34-4.17-2.45M257.87 544.05l3.41-1.91-3.43-2.01M255 542.14h22.55"/><ellipse cx="291.31" cy="542.14" rx="10.77" ry="4.47" fill="#5db2a5" stroke="#30877a" stroke-linecap="round" stroke-miterlimit="10"/><path fill="none" stroke="#30877a" stroke-linecap="round" stroke-miterlimit="10" d="M287.93 539.8l-4.17 2.34 4.17 2.45M293 539.8l-4.17 2.34 4.17 2.45M297.24 540.23l-3.41 1.91 3.43 2.01M300.1 542.14h-22.55"/><ellipse cx="314.75" cy="542.14" rx="10.77" ry="4.47" fill="#5db2a5" stroke="#30877a" stroke-linecap="round" stroke-miterlimit="10"/><path fill="none" stroke="#30877a" stroke-linecap="round" stroke-miterlimit="10" d="M318.13 544.48l4.16-2.34-4.16-2.45M313.06 544.48l4.17-2.34-4.17-2.45M308.81 544.05l3.42-1.91-3.43-2.01M305.95 542.14h22.55"/><ellipse cx="344.16" cy="542.14" rx="10.77" ry="4.47" fill="#5db2a5" stroke="#30877a" stroke-linecap="round" stroke-miterlimit="10"/><path fill="none" stroke="#30877a" stroke-linecap="round" stroke-miterlimit="10" d="M340.79 539.8l-4.17 2.34 4.17 2.45M345.85 539.8l-4.16 2.34 4.16 2.45M350.1 540.23l-3.42 1.91 3.43 2.01M352.96 542.14h-22.55"/><ellipse cx="367.6" cy="542.14" rx="10.77" ry="4.47" fill="#5db2a5" stroke="#30877a" stroke-linecap="round" stroke-miterlimit="10"/><path fill="none" stroke="#30877a" stroke-linecap="round" stroke-miterlimit="10" d="M370.98 544.48l4.17-2.34-4.17-2.45M365.92 544.48l4.16-2.34-4.16-2.45M361.67 544.05l3.41-1.91-3.43-2.01M358.81 542.14h22.55"/><ellipse cx="397.17" cy="542.14" rx="10.77" ry="4.47" fill="#5db2a5" stroke="#30877a" stroke-linecap="round" stroke-miterlimit="10"/><path fill="none" stroke="#30877a" stroke-linecap="round" stroke-miterlimit="10" d="M393.8 539.8l-4.17 2.34 4.17 2.45M398.86 539.8l-4.17 2.34 4.17 2.45M403.11 540.23l-3.42 1.91 3.43 2.01M405.97 542.14h-22.55"/><ellipse cx="420.61" cy="542.14" rx="10.77" ry="4.47" fill="#5db2a5" stroke="#30877a" stroke-linecap="round" stroke-miterlimit="10"/><path fill="none" stroke="#30877a" stroke-linecap="round" stroke-miterlimit="10" d="M423.99 544.48l4.17-2.34-4.17-2.45M418.92 544.48l4.17-2.34-4.17-2.45M414.68 544.05l3.41-1.91-3.43-2.01M411.82 542.14h22.55"/><path d="M49.71 45.66v458.06h352.58V45.66zM398.59 500H54l-.29-450.63h344.58z" fill="#30877a"/><path d="M304.15 521.17V509h-156.3v12.21a4.55 4.55 0 1 0 0 9.1v12.46h156.3v-12.5a4.55 4.55 0 0 0 0-9.1z" fill="#f4e04e"/><path d="M192.6 519.51v2.65h-7.08v-.54a1.41 1.41 0 0 0 .94-.21 1 1 0 0 0 .21-.72v-5a1.51 1.51 0 0 0-.07-.53.53.53 0 0 0-.32-.3 2.14 2.14 0 0 0-.76-.1v-.54h4v.54a2.08 2.08 0 0 0-.75.1.51.51 0 0 0-.33.29 1.31 1.31 0 0 0-.08.54v4.57a4.6 4.6 0 0 0 0 .78.53.53 0 0 0 .29.35 1.78 1.78 0 0 0 .77.12 6 6 0 0 0 1.18-.1 1.83 1.83 0 0 0 .93-.54 2.27 2.27 0 0 0 .54-1.36zM200.3 514.76a1.19 1.19 0 0 0-.54.14 1.79 1.79 0 0 0-.43.41c-.14.19-.35.49-.63.91l-1.7 2.59v1.88a1.74 1.74 0 0 0 .07.51.57.57 0 0 0 .32.31 1.87 1.87 0 0 0 .77.11v.54h-4v-.54a2.45 2.45 0 0 0 .76-.09.54.54 0 0 0 .33-.29 1.6 1.6 0 0 0 .08-.55v-1.78l-2-3.32a.22.22 0 0 1-.05-.08v-.06a1.84 1.84 0 0 0-.46-.55 1.29 1.29 0 0 0-.6-.14v-.54h3.72v.54h-.44a.66.66 0 0 0-.27.1.27.27 0 0 0-.1.24.67.67 0 0 0 .07.27c.05.1.15.3.32.59l1.24 2.09 1.18-1.86a2 2 0 0 0 .38-.89c0-.24-.08-.4-.24-.46a2 2 0 0 0-.67-.09v-.54h2.89zM209.37 514.76a2 2 0 0 0-.81.11.54.54 0 0 0-.31.34 4 4 0 0 0-.05.72v6.3h-.54l-5.2-6.17v4.37a3.12 3.12 0 0 0 .06.73.54.54 0 0 0 .31.34 2 2 0 0 0 .82.12v.54h-3v-.54a1.78 1.78 0 0 0 .76-.12.49.49 0 0 0 .29-.34 3.12 3.12 0 0 0 .06-.73v-4a6.73 6.73 0 0 0 0-.74 1.14 1.14 0 0 0-.12-.43.81.81 0 0 0-.33-.3 1.81 1.81 0 0 0-.62-.15v-.54H203l4.53 5.34v-3.63a2.44 2.44 0 0 0-.07-.68.54.54 0 0 0-.3-.36 1.67 1.67 0 0 0-.77-.13v-.54h3zM218.49 514.76a2 2 0 0 0-.81.11.52.52 0 0 0-.31.34 3.08 3.08 0 0 0-.06.72v6.3h-.54l-5.19-6.17v4.37a3.12 3.12 0 0 0 .06.73.52.52 0 0 0 .31.34 2 2 0 0 0 .82.12v.54h-3v-.54a1.81 1.81 0 0 0 .77-.12.51.51 0 0 0 .29-.34 3.12 3.12 0 0 0 .06-.73v-4a6.73 6.73 0 0 0 0-.74 1.14 1.14 0 0 0-.13-.43.72.72 0 0 0-.32-.3 1.81 1.81 0 0 0-.62-.15v-.54h2.31l4.52 5.34v-3.63a3 3 0 0 0-.06-.68.54.54 0 0 0-.3-.36 1.69 1.69 0 0 0-.77-.13v-.54h3zM228.53 516.28H228a2.55 2.55 0 0 0-.39-1 1 1 0 0 0-.55-.37 3.69 3.69 0 0 0-.84-.07h-1.42v2.8h.75a1 1 0 0 0 .71-.18 1.28 1.28 0 0 0 .23-.8h.51v2.64h-.55a2.52 2.52 0 0 0-.1-.65.5.5 0 0 0-.27-.28 1.71 1.71 0 0 0-.58-.07h-.72v2.36a1.16 1.16 0 0 0 .19.71c.13.15.43.22.91.22h.12v.54h-4v-.54a1.4 1.4 0 0 0 .93-.21 1 1 0 0 0 .21-.72v-5a1.84 1.84 0 0 0-.07-.53.58.58 0 0 0-.32-.29 1.85 1.85 0 0 0-.75-.11v-.54h6.5zM233.07 522.16h-4v-.54a2.45 2.45 0 0 0 .76-.09.59.59 0 0 0 .34-.29 1.6 1.6 0 0 0 .08-.55v-5a1 1 0 0 0-.25-.69 1.46 1.46 0 0 0-1-.21v-.54h4v.54a2.1 2.1 0 0 0-.76.1.53.53 0 0 0-.34.29 1.5 1.5 0 0 0-.08.54v5a1.52 1.52 0 0 0 .08.53.56.56 0 0 0 .32.3 2.19 2.19 0 0 0 .78.1zM239.67 519.88a2.36 2.36 0 0 1-.16.79 3 3 0 0 1-.48.79 2.46 2.46 0 0 1-.8.61 2.54 2.54 0 0 1-1.13.24 3 3 0 0 1-1.26-.28 2.69 2.69 0 0 1-1.05-.82 2.82 2.82 0 0 0-.24.81H234v-2.72h.54a5 5 0 0 0 .4 1.1 2.7 2.7 0 0 0 .73.89 1.79 1.79 0 0 0 1.16.37 1.34 1.34 0 0 0 .95-.33 1 1 0 0 0 .37-.83 1 1 0 0 0-.15-.5 1.25 1.25 0 0 0-.32-.38 3.14 3.14 0 0 0-.58-.35c-.24-.13-.52-.26-.83-.4a6.82 6.82 0 0 1-1.18-.69 3 3 0 0 1-.7-.67 2.09 2.09 0 0 1-.33-.62 2 2 0 0 1-.09-.59 2.12 2.12 0 0 1 .28-1 2.36 2.36 0 0 1 .84-.85 2.48 2.48 0 0 1 1.29-.33 2.33 2.33 0 0 1 1.06.25 2.71 2.71 0 0 1 .87.68 4.06 4.06 0 0 0 .19-.69h.55v2.21h-.55c-.39-1.2-1.07-1.81-2-1.81a1.2 1.2 0 0 0-.84.28.89.89 0 0 0-.32.72.91.91 0 0 0 .2.6 1.6 1.6 0 0 0 .52.43c.22.13.57.3 1.05.53a11.87 11.87 0 0 1 1.38.72 2.88 2.88 0 0 1 .83.76 1.84 1.84 0 0 1 .35 1.08zM249.76 522.16h-3.91v-.54a2 2 0 0 0 .73-.1.52.52 0 0 0 .32-.31 1.76 1.76 0 0 0 .07-.52v-2.39h-3.69v2.39a1 1 0 0 0 .21.71 1.31 1.31 0 0 0 .93.22v.54h-3.93v-.54a2 2 0 0 0 .72-.1.53.53 0 0 0 .32-.3 1.52 1.52 0 0 0 .08-.53v-5a1.76 1.76 0 0 0-.07-.52.54.54 0 0 0-.31-.3 1.77 1.77 0 0 0-.74-.11v-.54h3.93v.54a1.4 1.4 0 0 0-.93.21 1 1 0 0 0-.21.72v2H247v-2a1.48 1.48 0 0 0-.07-.52.49.49 0 0 0-.3-.3 1.79 1.79 0 0 0-.75-.11v-.54h3.91v.54a1.77 1.77 0 0 0-.74.11.49.49 0 0 0-.3.3 1.48 1.48 0 0 0-.07.52v5a1.78 1.78 0 0 0 .06.51.52.52 0 0 0 .31.31 2 2 0 0 0 .74.11zM257.5 519.55l-.07 2.61h-7.08v-.54a1.45 1.45 0 0 0 1-.21 1 1 0 0 0 .21-.72v-5a1.54 1.54 0 0 0-.07-.53.52.52 0 0 0-.32-.29 1.87 1.87 0 0 0-.77-.11v-.54h6.6l.1 2.06h-.54a2.68 2.68 0 0 0-.42-1 .88.88 0 0 0-.53-.36 4 4 0 0 0-.89-.07h-1.49v2.8h.77a1.91 1.91 0 0 0 .62-.07.45.45 0 0 0 .29-.28 2.06 2.06 0 0 0 .11-.64h.57v2.64H255a2.15 2.15 0 0 0-.12-.65.47.47 0 0 0-.3-.27 1.91 1.91 0 0 0-.62-.07h-.82v1.86a5.51 5.51 0 0 0 0 .69.81.81 0 0 0 .12.36.56.56 0 0 0 .34.21 2.73 2.73 0 0 0 .66.06h.74a2.8 2.8 0 0 0 .77-.1 1.45 1.45 0 0 0 .71-.53 2.72 2.72 0 0 0 .5-1.33zM266.82 522.16h-2.13a4 4 0 0 1-.29-.37l-.38-.58-.34-.55-.53-.89a7.9 7.9 0 0 0-.55-.81.87.87 0 0 0-.42-.29 3.77 3.77 0 0 0-.81-.06h-.3v2.08a1.48 1.48 0 0 0 .07.52.54.54 0 0 0 .33.31 2.18 2.18 0 0 0 .76.1v.54h-4v-.54a1.4 1.4 0 0 0 .93-.21 1 1 0 0 0 .21-.72v-5a1.05 1.05 0 0 0-.2-.72 1.34 1.34 0 0 0-.94-.22v-.55l1.84-.06h1.59c.4 0 .76 0 1.11.07a5.1 5.1 0 0 1 .81.14 2.51 2.51 0 0 1 .84.37 1.9 1.9 0 0 1 .64.68 1.82 1.82 0 0 1 .25 1 1.92 1.92 0 0 1-.17.78 1.84 1.84 0 0 1-.56.67 2.87 2.87 0 0 1-1 .46 2.59 2.59 0 0 1 .73.62c.2.25.51.71.93 1.37a9.94 9.94 0 0 0 .61.86 1.52 1.52 0 0 0 .45.39 1.35 1.35 0 0 0 .51.13zm-3.29-5.83a1.31 1.31 0 0 0-.58-1.26 3.29 3.29 0 0 0-1.51-.31h-.37V518h.37a3.33 3.33 0 0 0 1.49-.29c.4-.23.6-.71.6-1.38z" fill="#333"/><circle cx="146.64" cy="525.69" r=".98" fill="#333"/><circle cx="305.08" cy="525.69" r=".98" fill="#333"/></svg>