<svg xmlns="http://www.w3.org/2000/svg" width="20" height="28" viewBox="0 0 20 28"><title>Artboard 3</title><path d="M10,6l-6.87,0,3.37,21.3h8.22l3.37-21.3Z" fill="#ff9100" fill-rule="evenodd"/><path d="M10,6l-6.87,0,3.37,21.3H13l3.38-21.3Z" fill="#fd0" fill-rule="evenodd"/><path d="M1.14,5.93H18.86V4H1.14Z" fill="#fff" fill-rule="evenodd"/><path d="M1.14,5.93H18.86V4H1.14Z" fill="none" stroke="#000" stroke-width="0.92"/><path d="M15.43.77h-11l-1.29,3H16.71Z" fill="#fff" fill-rule="evenodd"/><path d="M15.43.77h-11l-1.29,3H16.71Z" fill="none" stroke="#050505" stroke-width="0.92"/><path d="M10,6l-8.09,0,3.37,21.3h9.44l3.37-21.3Z" fill="none" stroke="#000" stroke-width="0.92"/><path d="M18.31,11.94H1.57l1.51,8.48,6.86-.08,6.86.08Z" fill="#fff" fill-rule="evenodd"/><path d="M18.31,11.94H1.57l1.51,8.48,6.86-.08,6.86.08Z" fill="none" stroke="#000" stroke-width="0.92"/></svg>