<svg xmlns="http://www.w3.org/2000/svg" width="210" height="420" viewBox="0 0 210 420"><path d="M210 189.82c-51.53-8.91-51.09 39.78-78.73 38.58-14.09-1.21-18.88-2-28.37-1.92-23.47.24-45.77 17.35-52.08 40-6.22-4.63-13.42-8.38-21.16-8.77s-16 3.24-19.45 10.19C8 272.3 8 277.46 7.49 282.39c-.75 7.36-3.22 15.07-7.49 21v67.22c8.76 6 21.69 5.06 29.42-2.25 4.17-3.93 8.61-10 14-8.13a11.29 11.29 0 0 1 4.3 3.19c6.73 7.06 12.36 15.17 19.69 21.6s17 11.15 26.64 9.48c17.56-3 26.29-25 43.43-29.85a25.89 25.89 0 0 1 20.65 3.05c5.72 3.62 9.84 9.3 15.21 13.41 12.82 9.82 32.44 8.9 44.83-1.45s16.91-28.83 11.49-44C277.2 333.62 329.1 210.4 210 189.82z" fill="#c6588a"/><path d="M282.89 261.7c-1.88 3.73-18.79 32.57-52.27 35.63-30.34 2.77-43.45-5.23-72.35 7.39s-34.46 37.74-55.91 44.14c-9.85 2.93-20.7 2.83-29.43-3.08a55.43 55.43 0 0 1-10.35-9.6c-3.71-4.24-7-9-11.68-12.26-5-3.44-10.78-4.32-15.62-.11-3.82 3.32-5.16 7.36-6.72 12-1.46 4.37-3.48 8.49-7.49 11a18.86 18.86 0 0 1-13.62 2.81 19.47 19.47 0 0 1-7.45-3.4v24.42c8.76 6 21.69 5.06 29.42-2.25 4.17-3.93 8.61-10 14-8.13a11.29 11.29 0 0 1 4.3 3.19c6.73 7.06 12.36 15.17 19.69 21.6s17 11.15 26.64 9.48c17.56-3 26.29-25 43.43-29.85a25.89 25.89 0 0 1 20.65 3.05c5.72 3.62 9.84 9.3 15.21 13.41 12.82 9.82 32.44 8.9 44.83-1.45s16.91-28.83 11.49-44c29.76.16 54.44-39.61 53.23-73.99z" fill="#a3336b"/><path d="M83.49 318.55a1.5 1.5 0 0 0 0-3 1.5 1.5 0 0 0 0 3z" fill="#dbc8a3"/><circle cx="151.17" cy="228.24" r="17.97" fill="#f0f8ff"/><path d="M138.81 215.34a16.59 16.59 0 1 0 30.33 13.33 18 18 0 1 1-30.33-13.33z" fill="#c4d9e8"/><circle cx="149.27" cy="219.83" r="3.6" fill="#c4d9e8"/><circle cx="160.82" cy="221.15" r="1.8" fill="#c4d9e8"/><circle cx="156.43" cy="230.04" r="1.8" fill="#c4d9e8"/><circle cx="100.67" cy="335.84" r="28.68" fill="#5db2a5"/><path d="M129.23 338.39a26.48 26.48 0 1 1-46.75-24.69 28.67 28.67 0 1 0 46.75 24.69z" fill="#30877a"/><path d="M135.55 349.45c1.21-3.08-2.57-7-6.47-10-.07.5-.13 1-.22 1.49 4.13 3.32 6.16 6.25 5.47 8-.79 2-5.2 2.75-11.81 2-7.07-.84-16-3.26-25.09-6.81s-17.3-7.81-23.07-12c-5.39-3.9-8.15-7.43-7.36-9.45.69-1.76 4.17-2.55 9.47-2.19l.28-.4c.17-.26.33-.52.51-.77l.06-.08c-4.92-.42-10.33-.12-11.54 3a3.84 3.84 0 0 0 0 2.67c1 2.86 4.53 6 7.78 8.31 5.86 4.24 14.16 8.55 23.36 12.14s18.23 6 25.42 6.89c5.3.62 11.87.64 13.21-2.8z" fill="#f4e04e"/><path d="M81.8 278.12a1.5 1.5 0 0 0 0-3 1.5 1.5 0 0 0 0 3zM113.65 249.62a1.5 1.5 0 0 0 0-3 1.5 1.5 0 0 0 0 3zM190.61 288.46a1.5 1.5 0 0 0 0-3 1.5 1.5 0 0 0 0 3zM193.07 211.9a1.5 1.5 0 0 0 0-3 1.5 1.5 0 0 0 0 3zM151.18 348.26a1.5 1.5 0 0 0 0-3 1.5 1.5 0 0 0 0 3zM196.18 360.92a1.5 1.5 0 0 0 0-3 1.5 1.5 0 0 0 0 3zM27 301a1.5 1.5 0 0 0 0-3 1.5 1.5 0 0 0 0 3zM8.49 360.92a1.5 1.5 0 0 0 0-3 1.5 1.5 0 0 0 0 3zM54.27 350.7a1.5 1.5 0 0 0 0-3 1.5 1.5 0 0 0 0 3zM129.31 284.06a1.5 1.5 0 0 0 0-3 1.5 1.5 0 0 0 0 3z" fill="#c4d9e8"/><path d="M-9.39 310.64v53.94c.52.07 1 .13 1.55.23 3.64.67 4.69 3.41 7.79 5.8l.05-1v-66.39a24.48 24.48 0 0 1-9.39 7.42z" fill="#c6588a"/><path d="M-2.73 345.6a7.29 7.29 0 0 0-3.15 1.4c-1.19.8-2.3 1.69-3.47 2.48v15.06c.51.06 1 .12 1.51.21 3.64.67 4.69 3.41 7.79 5.8l.05-1v-23.32a3.91 3.91 0 0 0-2.73-.63z" fill="#a3336b"/><path d="M1.47 44a.64.64 0 0 1 .61-.65h8.38a12 12 0 1 1 0 24H2.08a.64.64 0 0 1-.61-.65zm8.65 18.29a7 7 0 0 0 0-13.9h-3.3v13.9zM28.07 44a.65.65 0 0 1 .65-.65h14.21a.66.66 0 0 1 .65.65v3.74a.66.66 0 0 1-.65.65h-9.51v4.26h7.83a.68.68 0 0 1 .65.65V57a.65.65 0 0 1-.65.65h-7.83v4.63h9.51a.66.66 0 0 1 .65.66v3.74a.66.66 0 0 1-.65.65H28.72a.65.65 0 0 1-.65-.65zM48.18 64.11l1.61-2.85a.87.87 0 0 1 1.17-.2c.14.06 2.61 1.88 4.87 1.88a2.15 2.15 0 0 0 2.37-2.06c0-1.44-1.2-2.54-3.53-3.46C51.72 56.25 48 54 48 49.83c0-3.39 2.65-6.83 7.94-6.83a12.71 12.71 0 0 1 7.34 2.58.88.88 0 0 1 .21 1.1l-1.75 2.64c-.24.38-.86.69-1.17.45s-2.81-2.06-4.91-2.06a2 2 0 0 0-2.16 1.75c0 1.27 1 2.23 3.74 3.32s6.93 3.16 6.93 7.83c0 3.53-3.05 7.1-8.1 7.1-4.46 0-6.93-1.85-7.72-2.64-.35-.34-.44-.48-.17-.96zM69.74 44a.67.67 0 0 1 .65-.65h4.12a.68.68 0 0 1 .65.65v22.72a.68.68 0 0 1-.65.65h-4.12a.67.67 0 0 1-.65-.65zM93 43a13.21 13.21 0 0 1 8.37 3.23.59.59 0 0 1 .07.92l-2.71 2.88a.74.74 0 0 1-.93 0 6.3 6.3 0 0 0-4.49-1.65 6.88 6.88 0 0 0 0 13.76 8.16 8.16 0 0 0 3.06-.55v-2h-2.09a.63.63 0 0 1-.66-.62v-3.3a.63.63 0 0 1 .66-.65h6.89a.64.64 0 0 1 .62.65v9.23a.84.84 0 0 1-.28.55A17.32 17.32 0 0 1 93 67.68 12.32 12.32 0 1 1 93 43zM107.87 43.62a.65.65 0 0 1 .65-.62h.86l13.69 13.18V44a.65.65 0 0 1 .65-.65h4.12a.68.68 0 0 1 .65.65v23.1a.64.64 0 0 1-.65.61h-.55a1 1 0 0 1-.45-.17l-13.51-13.62v12.8a.65.65 0 0 1-.65.65h-4.08a.68.68 0 0 1-.66-.65zM135.81 44a.65.65 0 0 1 .65-.65h14.21a.65.65 0 0 1 .65.65v3.74a.65.65 0 0 1-.65.65h-9.51v4.26H149a.68.68 0 0 1 .65.65V57a.65.65 0 0 1-.65.65h-7.83v4.63h9.51a.65.65 0 0 1 .65.66v3.74a.65.65 0 0 1-.65.65h-14.22a.65.65 0 0 1-.65-.65zM157.29 44a.66.66 0 0 1 .66-.65h10.26a7.33 7.33 0 0 1 2.4 14.31l4.7 8.71a.65.65 0 0 1-.58 1h-4.57a.61.61 0 0 1-.54-.31L165.05 58h-2.37v8.75a.68.68 0 0 1-.65.65H158a.66.66 0 0 1-.66-.65zm10.47 9.61a2.76 2.76 0 0 0 2.61-2.75 2.62 2.62 0 0 0-2.61-2.6h-5.08v5.35zM8.42 94a.65.65 0 0 1 .65-.65h8.27a7.65 7.65 0 1 1 0 15.3h-3.6v8.07a.68.68 0 0 1-.65.65h-4a.65.65 0 0 1-.65-.65zm8.58 9.64a2.69 2.69 0 0 0 2.71-2.71A2.62 2.62 0 0 0 17 98.39h-3.23v5.25zM29.9 94a.66.66 0 0 1 .66-.65h10.26a7.33 7.33 0 0 1 2.4 14.31l4.7 8.71a.65.65 0 0 1-.58 1h-4.57a.64.64 0 0 1-.55-.31L37.66 108h-2.37v8.75a.68.68 0 0 1-.65.65h-4.08a.66.66 0 0 1-.66-.65zm10.47 9.61a2.76 2.76 0 0 0 2.63-2.75 2.62 2.62 0 0 0-2.61-2.6h-5.1v5.35zM64.84 93a12.36 12.36 0 1 1-12.32 12.39A12.34 12.34 0 0 1 64.84 93zm0 19.22a6.86 6.86 0 1 0-6.84-6.83 6.88 6.88 0 0 0 6.84 6.83zM79 114.35l2.34-2.3a.65.65 0 0 1 .92 0 2.18 2.18 0 0 0 1.75.72c1 0 2-.89 2-2.61V94a.65.65 0 0 1 .65-.65h4.19a.65.65 0 0 1 .65.65v16.2a7.11 7.11 0 0 1-7.38 7.51 6.61 6.61 0 0 1-5.22-2.5.74.74 0 0 1 .1-.86zM98.24 94a.66.66 0 0 1 .65-.65h14.21a.65.65 0 0 1 .65.65v3.74a.65.65 0 0 1-.65.65h-9.5v4.26h7.82a.68.68 0 0 1 .65.65v3.7a.65.65 0 0 1-.65.65h-7.82v4.63h9.5a.65.65 0 0 1 .65.66v3.74a.65.65 0 0 1-.65.65H98.89a.66.66 0 0 1-.65-.65zM130.37 93a11.51 11.51 0 0 1 8.3 3.2.64.64 0 0 1 0 1L136 99.94a.6.6 0 0 1-.86 0 7 7 0 0 0-4.63-1.75 7 7 0 0 0 0 14 7.2 7.2 0 0 0 4.6-1.65.68.68 0 0 1 .89 0l2.68 2.85a.68.68 0 0 1 0 .92 11.78 11.78 0 0 1-8.34 3.33 12.36 12.36 0 1 1 0-24.71zM147.29 98.39h-4.91a.65.65 0 0 1-.65-.65V94a.65.65 0 0 1 .65-.65h15.24a.65.65 0 0 1 .65.65v3.74a.65.65 0 0 1-.65.65h-4.91v18.33a.68.68 0 0 1-.65.65h-4.12a.68.68 0 0 1-.65-.65zM161.71 114.11l1.61-2.85a.87.87 0 0 1 1.17-.2c.13.06 2.6 1.88 4.87 1.88a2.16 2.16 0 0 0 2.37-2.06c0-1.44-1.2-2.54-3.54-3.46-2.95-1.17-6.65-3.47-6.65-7.59 0-3.39 2.64-6.83 7.92-6.83a12.74 12.74 0 0 1 7.35 2.58.87.87 0 0 1 .2 1.1l-1.75 2.64c-.24.38-.86.69-1.17.45s-2.81-2.06-4.9-2.06a2 2 0 0 0-2.19 1.75c0 1.27 1 2.23 3.74 3.32s6.93 3.16 6.93 7.83c0 3.53-3.06 7.1-8.1 7.1-4.46 0-6.93-1.85-7.72-2.64-.31-.34-.42-.48-.14-.96zM9 144a.65.65 0 0 1 .65-.65h14.18a.66.66 0 0 1 .65.65v3.74a.66.66 0 0 1-.65.65h-9.51v4.26h7.82a.68.68 0 0 1 .66.65v3.7a.65.65 0 0 1-.66.65h-7.82v4.63h9.51a.66.66 0 0 1 .65.66v3.74a.66.66 0 0 1-.65.65H9.62a.65.65 0 0 1-.65-.65zM37.28 144.17a.6.6 0 0 1 .62-.82h4a.69.69 0 0 1 .61.48l3 11.63h.13l5.32-12.08a.67.67 0 0 1 .59-.38h.61a.6.6 0 0 1 .59.38L58 155.46h.14l3-11.63a.71.71 0 0 1 .62-.48h4a.59.59 0 0 1 .61.82l-6.47 23.06a.65.65 0 0 1-.62.48h-.55a.69.69 0 0 1-.58-.37l-6.28-14h-.1l-6.25 14a.69.69 0 0 1-.58.37h-.55a.65.65 0 0 1-.62-.48zM71.44 144a.65.65 0 0 1 .65-.65h14.2a.66.66 0 0 1 .71.65v3.74a.66.66 0 0 1-.66.65h-9.5v4.26h7.82a.68.68 0 0 1 .66.65v3.7a.65.65 0 0 1-.66.65h-7.87v4.63h9.5a.66.66 0 0 1 .71.72v3.74a.66.66 0 0 1-.66.65H72.09a.65.65 0 0 1-.65-.65zM92.92 144a.66.66 0 0 1 .65-.65h8c4.05 0 7.38 2.78 7.38 6.38 0 2.64-2.37 4.56-4 5.42 1.82.76 4.6 2.44 4.6 5.6 0 3.84-3.4 6.62-7.49 6.62h-8.49a.66.66 0 0 1-.65-.65zm8 9.09a2.44 2.44 0 0 0 2.4-2.47 2.32 2.32 0 0 0-2.4-2.33h-2.64v4.8zm.45 9.37a2.49 2.49 0 0 0 2.47-2.5 2.74 2.74 0 0 0-2.82-2.4h-2.74v4.9zM116.3 161.19a3.34 3.34 0 0 1 3.29 3.3 3.26 3.26 0 1 1-3.29-3.3zM1 143.35H0v24h1a.68.68 0 0 0 .66-.65V144a.68.68 0 0 0-.66-.65zM0 143.35h-2.89a.65.65 0 0 0-.65.65v8.65h-9.82V144a.65.65 0 0 0-.65-.65h-4.08a.68.68 0 0 0-.65.65v22.72a.68.68 0 0 0 .65.65H-14a.65.65 0 0 0 .65-.65v-9h9.82v9a.65.65 0 0 0 .65.65H0z" fill="#f4e04e"/></svg>