<svg xmlns="http://www.w3.org/2000/svg" width="210" height="420" viewBox="0 0 210 420"><path d="M81 402.55a17 17 0 0 0-34-.49 10.42 10.42 0 0 0-3.27-.52 10.52 10.52 0 0 0-10.5 9.86 10 10 0 0 0-2-.2 10.51 10.51 0 0 0-8.23 4.11 14.49 14.49 0 0 0-23.74 2.38 6.93 6.93 0 0 0-4.42-1.59 6.92 6.92 0 0 0-6.92 6.9 6.92 6.92 0 0 0 6.92 7 6.89 6.89 0 0 0 3.27-.82 14.5 14.5 0 0 0 27.17 1.26 10.43 10.43 0 0 0 6 1.89 10.54 10.54 0 0 0 9.72-6.49 14.74 14.74 0 0 0 28.07-6.29v-.76A17 17 0 0 0 81 402.55z" fill="#fdfeff"/><rect x="55.86" y="320.88" width="139.58" height="116.77" rx="5"/><path d="M195.44 334.72v-8.84a5 5 0 0 0-5-5H60.86a5 5 0 0 0-5 5v8.84z" fill="#5db2a5"/><path fill="none" stroke="#000" stroke-miterlimit="10" d="M55.86 334.56h139.58"/><circle cx="64.41" cy="327.92" r="1.86" fill="#fdfeff"/><circle cx="70.79" cy="327.92" r="1.86" fill="#fdfeff"/><circle cx="77.17" cy="327.92" r="1.86" fill="#fdfeff"/><path fill="#ffdf24" d="M118.41 347.68H88.94v-4.98h29.47l3.45 2.49-3.45 2.49z"/><path fill="#c6588a" d="M93.41 347.68H63.95v-4.98h29.46l3.46 2.49-3.46 2.49z"/><path fill="#5db2a5" d="M63.95 352.65h4.67v7.96h-4.67z"/><path d="M399 326.6c-.2.43-.39.87-.57 1.31a6.34 6.34 0 0 1-1.74 2.91c-.92.69-3.26 1.12-3.68.05a194.23 194.23 0 0 1-12.4 29 13.69 13.69 0 0 1-2.07-9.77c-2.41 5.26-6.08 10.26-11.36 12.63s-12.35 1.36-15.63-3.42c3.76-1.08 3.21-6.75 1-9.95s-5.55-6.58-4.64-10.36a12.79 12.79 0 0 0 8.8-1.12l-12-15.55c-2.06-2.67-4.1-6.6-1.81-9.07 1.13-1.23 3.3-2.23 2.74-3.81A2.85 2.85 0 0 0 344 308l-8.9-4.17 2.19-3.8a60.68 60.68 0 0 0-22.21-1.6c.08-1.16.16-2.32.25-3.48L287 307.16a9.35 9.35 0 0 0 1.38-5.72c-3.93 0-6.88 3.41-9.46 6.37s-6.19 6-10 5a22.78 22.78 0 0 1 3.16-7.84l-14.1-3.3c2.37-.23 3.49-3.27 2.86-5.57s-2.33-4.1-3.54-6.15-1.86-4.83-.38-6.7c.64-.81 1.63-1.36 2-2.32.47-1.16-.12-2.47-.7-3.58q-4.66-8.88-10-17.34c3.28 1.59 7-2.58 6.41-6.19s-3.56-6.26-6.37-8.59c-1.86-1.55-3.86-3.35-4.09-5.75s2.71-4.9 4.58-3.38c-4.62-5.44-12.24-7.57-19.37-7.22s-14 2.85-20.66 5.32l47.9 94.28 62.28-8.77 29.36 58 29.86-4L399 348.3z" fill="#f4e04e"/><path d="M394.59 344.54c-4.36 8.15-8.79 16.62-16 22.35s-18.21 7.91-25.67 2.46c-4.61-3.37-7-8.91-9-14.26a196.5 196.5 0 0 1-6.15-19.53c-1.6-6.18-2.92-12.52-5.87-18.19s-7.85-10.71-14.09-12.09c-9.18-2-17.91 4.06-26.06 8.76-5.95 3.42-12.4 6.27-19.24 6.82s-14.15-1.51-18.74-6.61c-5.45-6.06-6.11-14.88-6.88-23s-1.93-16.17-3.47-24.16c-1.07-5.54-2.36-11.13-5.14-16-5.65-10-16.8-15.74-28.22-17.66v27.38c6.28 3.37 10.17 10.1 12.69 16.83a76.09 76.09 0 0 1 4.79 27.74c-.1 6.28-1 12.68.54 18.78a25.09 25.09 0 0 0 19.77 18.25c11.15 1.85 21.93-4 32.1-9s22.35-9.08 32.45-4c9.14 4.61 13.34 15.22 16.13 25.07s5.32 20.55 13 27.33c8.77 7.74 22.45 8 33 2.91s19-15.25 24.51-25.55a.75.75 0 0 1-.04-.17v-21.55c-1.27 2.17-3.24 4.89-4.41 7.09z" fill="#5db2a5"/><path d="M0 62.58h-2.33V44.26a.67.67 0 0 0-.67-.65h-4.07a.64.64 0 0 0-.65.65V67a.65.65 0 0 0 .65.66H0zM0 103.48a2.2 2.2 0 0 1-.36 0h-5.08v-5.31h5.08a2.2 2.2 0 0 1 .36 0v-4.91h-10.18a.66.66 0 0 0-.65.65v22.72a.66.66 0 0 0 .65.65h4.09a.68.68 0 0 0 .65-.65v-8.75h2.37L0 114zM0 162.09c-1-.49-1.7-1-1.78-1a.86.86 0 0 0-1.16.2l-1.62 2.85c-.27.48-.17.62.18 1A9.45 9.45 0 0 0 0 167.31zM0 156.52v-13a6.65 6.65 0 0 0-4.73 6.32c0 3.24 2.31 5.35 4.73 6.68zM10.57 44.26a.67.67 0 0 1 .66-.65h4.22a.65.65 0 0 1 .65.65v13.9a4.26 4.26 0 1 0 8.51 0v-13.9a.64.64 0 0 1 .65-.65h4.22a.66.66 0 0 1 .65.65v14.17a9.78 9.78 0 0 1-19.56 0zM35.66 64.37l1.62-2.85a.87.87 0 0 1 1.16-.21c.14.07 2.61 1.89 4.88 1.89a2.16 2.16 0 0 0 2.37-2.06c0-1.44-1.21-2.54-3.54-3.46-2.95-1.17-6.66-3.47-6.66-7.59 0-3.4 2.65-6.83 7.93-6.83a12.71 12.71 0 0 1 7.34 2.58.85.85 0 0 1 .24 1.09l-1.75 2.65c-.24.37-.86.68-1.17.44S45.24 48 43.15 48A2 2 0 0 0 41 49.71c0 1.29 1 2.23 3.72 3.29s6.94 3.16 6.94 7.83c0 3.53-3.06 7.1-8.1 7.1-4.46 0-6.93-1.85-7.72-2.64-.35-.29-.45-.44-.18-.92zM60.31 48.65H55.4a.65.65 0 0 1-.65-.65v-3.74a.64.64 0 0 1 .65-.65h15.24a.64.64 0 0 1 .65.65V48a.65.65 0 0 1-.65.65h-4.91V67a.68.68 0 0 1-.65.66H61a.68.68 0 0 1-.65-.66zM76.1 44.26a.64.64 0 0 1 .65-.65H87A7.45 7.45 0 0 1 94.49 51a7.53 7.53 0 0 1-5.08 6.9l4.7 8.71a.65.65 0 0 1-.58 1H89a.62.62 0 0 1-.55-.31l-4.57-9.1h-2.39V67a.68.68 0 0 1-.66.66h-4.08a.65.65 0 0 1-.65-.66zm10.46 9.61a2.76 2.76 0 0 0 2.61-2.75 2.63 2.63 0 0 0-2.61-2.61h-5.07v5.36zM97.38 66.73l10.74-23.09a.68.68 0 0 1 .58-.38h.35a.68.68 0 0 1 .58.38l10.74 23.09a.61.61 0 0 1-.58.9H116c-.62 0-.89-.21-1.2-.86l-1.24-2.71h-9.33L103 66.8a1.27 1.27 0 0 1-1.23.83H98a.61.61 0 0 1-.62-.9zm14.1-7.34l-2.6-5.66-2.57 5.66zM126.42 48.65h-4.91a.65.65 0 0 1-.65-.65v-3.74a.64.64 0 0 1 .65-.65h15.23a.65.65 0 0 1 .66.65V48a.66.66 0 0 1-.66.65h-4.9V67a.68.68 0 0 1-.66.66h-4.11a.67.67 0 0 1-.65-.66zM152.64 43.26a12.36 12.36 0 1 1-12.32 12.39 12.33 12.33 0 0 1 12.32-12.39zm0 19.22a6.87 6.87 0 1 0-6.83-6.83 6.88 6.88 0 0 0 6.83 6.83zM170.52 44.26a.65.65 0 0 1 .65-.65h10.26a7.46 7.46 0 0 1 7.49 7.39 7.55 7.55 0 0 1-5.08 6.9l4.7 8.71a.65.65 0 0 1-.58 1h-4.57a.64.64 0 0 1-.55-.31l-4.56-9.1h-2.37V67a.68.68 0 0 1-.65.66h-4.09a.66.66 0 0 1-.65-.66zM181 53.87a2.76 2.76 0 0 0 2.61-2.75 2.63 2.63 0 0 0-2.61-2.61h-5.08v5.36zM197.13 61.52c1.68 0 4.05 1.3 4.05 5.18a10.22 10.22 0 0 1-4.12 8 .66.66 0 0 1-1 0l-.72-.82a.61.61 0 0 1 .07-1c.41-.35 3.05-2.3 3.08-5.36a4.31 4.31 0 0 1-1.78.38 3.22 3.22 0 0 1-3.19-3.19 3.38 3.38 0 0 1 3.61-3.19zM5.83 62.58H0v5h5.83a.66.66 0 0 0 .66-.58v-3.77a.66.66 0 0 0-.66-.65zM13.54 93.91a.66.66 0 0 1 .65-.65H28.4a.65.65 0 0 1 .65.65v3.74a.65.65 0 0 1-.65.66h-9.5v4.25h7.82a.68.68 0 0 1 .65.65V107a.66.66 0 0 1-.65.66H18.9v4.63h9.5a.65.65 0 0 1 .65.65v3.74a.65.65 0 0 1-.65.65H14.19a.66.66 0 0 1-.65-.65zM42.61 114l1.62-2.84a.87.87 0 0 1 1.16-.21c.14.07 2.61 1.89 4.88 1.89a2.15 2.15 0 0 0 2.36-2.06c0-1.44-1.2-2.54-3.53-3.47-3-1.17-6.66-3.46-6.66-7.58 0-3.4 2.64-6.83 7.93-6.83a12.79 12.79 0 0 1 7.34 2.57.86.86 0 0 1 .21 1.1l-1.75 2.64c-.24.38-.86.69-1.17.45s-2.81-2.06-4.91-2.06a2 2 0 0 0-2.16 1.75c0 1.27 1 2.23 3.74 3.33s6.94 3.16 6.94 7.82c0 3.54-3.06 7.11-8.1 7.11-4.46 0-6.94-1.86-7.72-2.65-.35-.32-.45-.46-.18-.96zM67.26 98.31h-4.91a.65.65 0 0 1-.65-.66v-3.74a.65.65 0 0 1 .65-.65h15.24a.66.66 0 0 1 .65.65v3.74a.66.66 0 0 1-.65.66h-4.91v18.32a.68.68 0 0 1-.65.65h-4.12a.68.68 0 0 1-.65-.65zM82.7 93.91a.68.68 0 0 1 .66-.65h4.22a.66.66 0 0 1 .65.65v13.9a4.26 4.26 0 1 0 8.51 0v-13.9a.65.65 0 0 1 .65-.65h4.22a.67.67 0 0 1 .65.65v14.18a9.78 9.78 0 0 1-19.56 0zM109.17 93.91a.64.64 0 0 1 .62-.65h8.37a12 12 0 1 1 0 24h-8.37a.64.64 0 0 1-.62-.65zm8.65 18.29a6.95 6.95 0 0 0 0-13.89h-3.3v13.89zM135.77 93.91a.68.68 0 0 1 .65-.65h4.12a.68.68 0 0 1 .65.65v22.72a.68.68 0 0 1-.65.65h-4.12a.68.68 0 0 1-.65-.65zM148.47 93.91a.65.65 0 0 1 .65-.65h14.21a.66.66 0 0 1 .65.65v3.74a.66.66 0 0 1-.65.66h-9.51v4.25h7.82a.68.68 0 0 1 .66.65V107a.66.66 0 0 1-.66.66h-7.82v4.63h9.51a.66.66 0 0 1 .65.65v3.74a.66.66 0 0 1-.65.65h-14.21a.65.65 0 0 1-.65-.65zM168.58 114l1.61-2.84a.89.89 0 0 1 1.17-.21c.14.07 2.61 1.89 4.87 1.89a2.15 2.15 0 0 0 2.37-2.06c0-1.44-1.2-2.54-3.53-3.47-2.95-1.17-6.66-3.46-6.66-7.58 0-3.4 2.64-6.83 7.93-6.83a12.79 12.79 0 0 1 7.34 2.57.88.88 0 0 1 .21 1.1l-1.75 2.64c-.24.38-.86.69-1.17.45s-2.81-2.06-4.91-2.06a2 2 0 0 0-2.16 1.75c0 1.27 1 2.23 3.74 3.33s6.93 3.16 6.93 7.82c0 3.54-3 7.11-8.1 7.11-4.46 0-6.93-1.86-7.72-2.65-.34-.32-.44-.46-.17-.96zM192.54 111.18c1.68 0 4.05 1.3 4.05 5.18a10.23 10.23 0 0 1-4.12 8 .66.66 0 0 1-1 0l-.72-.83a.62.62 0 0 1 .07-1c.41-.34 3.06-2.3 3.09-5.35a4.37 4.37 0 0 1-1.78.38 3.24 3.24 0 0 1-3.2-3.2 3.38 3.38 0 0 1 3.61-3.18zM2.49 107.57a7.54 7.54 0 0 0 5.08-6.9 7.47 7.47 0 0 0-7.49-7.41H0v4.95a2.63 2.63 0 0 1 2.25 2.57 2.79 2.79 0 0 1-2.25 2.7V114l1.49 3a.64.64 0 0 0 .55.31h4.57a.65.65 0 0 0 .58-1zM25.46 144a.65.65 0 0 1 .65-.65h14.21a.66.66 0 0 1 .68.65v3.74a.66.66 0 0 1-.65.65h-9.54v4.26h7.82a.68.68 0 0 1 .66.65v3.7a.65.65 0 0 1-.66.65h-7.82v4.63h9.51a.66.66 0 0 1 .68.72v3.74a.66.66 0 0 1-.65.65H26.11a.65.65 0 0 1-.65-.65zM43.85 144.24a.61.61 0 0 1 .59-.89H49a.68.68 0 0 1 .59.37l5.66 12.53h.2l5.67-12.53a.65.65 0 0 1 .58-.37h4.56a.61.61 0 0 1 .59.89l-10.78 23.1a.65.65 0 0 1-.58.37h-.34a.67.67 0 0 1-.59-.37zM81.4 143a12.36 12.36 0 1 1-12.32 12.39A12.34 12.34 0 0 1 81.4 143zm0 19.22a6.86 6.86 0 1 0-6.83-6.83 6.88 6.88 0 0 0 6.83 6.83zM99.29 144a.65.65 0 0 1 .65-.65H104a.67.67 0 0 1 .65.65v18.32h8.17a.65.65 0 0 1 .65.66v3.74a.65.65 0 0 1-.65.65H99.94a.65.65 0 0 1-.65-.65zM112.09 144.24a.6.6 0 0 1 .58-.89h4.57a.67.67 0 0 1 .58.37l5.66 12.53h.21l5.66-12.53a.68.68 0 0 1 .59-.37h4.56a.6.6 0 0 1 .58.89l-10.77 23.1a.67.67 0 0 1-.59.37h-.34a.65.65 0 0 1-.58-.37zM139.27 144a.68.68 0 0 1 .66-.65H144a.68.68 0 0 1 .66.65v22.72a.68.68 0 0 1-.66.65h-4.11a.68.68 0 0 1-.66-.65zM151.94 143.62a.65.65 0 0 1 .65-.62h.86l13.69 13.18V144a.66.66 0 0 1 .66-.65h4.2a.68.68 0 0 1 .65.65v23.1a.64.64 0 0 1-.65.61h-.55a1 1 0 0 1-.45-.17l-13.56-13.62v12.8a.65.65 0 0 1-.65.65h-4.08a.68.68 0 0 1-.66-.65zM190.48 143a13.26 13.26 0 0 1 8.38 3.23.6.6 0 0 1 .06.92l-2.71 2.88a.73.73 0 0 1-.92 0 6.34 6.34 0 0 0-4.5-1.65 6.88 6.88 0 0 0 0 13.76 8.15 8.15 0 0 0 3-.55v-2h-2.16a.62.62 0 0 1-.65-.62v-3.39a.62.62 0 0 1 .65-.65h6.9a.63.63 0 0 1 .61.65v9.23a.84.84 0 0 1-.28.55 17.32 17.32 0 0 1-8.51 2.23 12.32 12.32 0 1 1 0-24.64zM4.5 152.78c-2.71-1.09-3.74-2.05-3.74-3.32a2 2 0 0 1 2.16-1.75c2.1 0 4.6 1.88 4.91 2.06s.93-.07 1.17-.45l1.75-2.64a.86.86 0 0 0-.21-1.1A12.71 12.71 0 0 0 3.2 143a9.76 9.76 0 0 0-3.2.51v13a19.4 19.4 0 0 0 1.93.9c2.33.92 3.53 2 3.53 3.46a2.15 2.15 0 0 1-2.36 2.06 7.39 7.39 0 0 1-3.1-.85v5.22a13.64 13.64 0 0 0 3.34.4c5 0 8.1-3.57 8.1-7.1 0-4.66-4.26-6.75-6.94-7.82z" fill="#f4e04e"/><path d="M186.63 252.32s-213.74-52.59-320.4 110.9l17.18 20.06s68.06-152.48 303.22-130.96z" fill="#c6588a"/><path d="M186.63 252.32S-20 213.88-118.48 381.42l17.18 20.06S-42 254.06 186.63 252.32z" fill="#5db2a5"/><path d="M186.63 252.32S-.24 231-103 396.15l22.68 18.41s58.54-148.68 266.95-162.24z" fill="#f4e04e"/><path d="M206.92 232.94c-5.45-.59-11.26-.37-15.95 2.46s-8.49 4.53-6.4 9.59c.28.69 9.66 5.67 10.28 6.72a4 4 0 0 1 0 3.45c-.87 2.32-7.41 2.42-8.76 4.48-.86 1.31-1 3.9-.18 4.11 4.4 1.11 19.15-5.35 23.25-3.42l.84.43v-27.38c-1-.17-2.06-.33-3.08-.44z" fill="#5db2a5"/><path d="M200.62 375.63a19.72 19.72 0 0 0-18.36 12.54 23 23 0 0 0-37.48 14.59 14.08 14.08 0 0 0-20.48 9.08 7.82 7.82 0 1 0-2.67 15.16 7.77 7.77 0 0 0 5.81-2.61 14 14 0 0 0 22.45-1.8l2.08.14a23 23 0 0 0 28.72 2l29.31 2V378a19.64 19.64 0 0 0-9.38-2.37z" fill="#fdfeff"/><path d="M34.06 354.05a3.08 3.08 0 0 0-.66-2.12 2.91 2.91 0 0 0-1.61-.67 3.06 3.06 0 0 0-2.71.55 3.38 3.38 0 0 0-.7 1.84c-.25 1.57-.42 3.16-.53 4.76l-.66.36a7.31 7.31 0 0 0-5.53-2.67 2.8 2.8 0 0 0-2.74 1.33 2.35 2.35 0 0 0 .48 2.31 7.06 7.06 0 0 0 2 1.46l9.81 5.52a25.46 25.46 0 0 0 2.85-12.67z" fill="#c6588a" stroke="#c6588a" stroke-linejoin="round"/><path d="M125.21 277.77c-.19-3.15-.78-6.49-2.94-8.8a20 20 0 0 0-3-2.38c-1.62-1.16-3.15-2.44-4.68-3.72-3.71-3.12-7.51-6.32-9.94-10.52a6.43 6.43 0 0 1 0 4.57c-.45 1.2-1.26 2.26-1.61 3.51a1.86 1.86 0 0 0 .58 2.2 4 4 0 0 0 2.6 1c-.12 1.13-.94 2.13-.92 3.27a2.24 2.24 0 0 0 3.53 1.78 9.88 9.88 0 0 0-.28 2.65 2.95 2.95 0 0 0 4.82 2.34 6.79 6.79 0 0 0 .16 4.12 5.39 5.39 0 0 0 1.81 1.93 6.65 6.65 0 0 0 5.19 1.41c1.82-.43 3.15-1.95 4.35-3.39M134 280c1.74-2.63 3.93-5.23 7-6.14a20.14 20.14 0 0 1 3.8-.56c2-.19 4-.53 5.91-.87 4.78-.83 9.67-1.7 13.87-4.12a6.46 6.46 0 0 0-2.32 3.93c-.22 1.27-.05 2.59-.37 3.84a2.28 2.28 0 0 1-.68 1.23 2.21 2.21 0 0 1-.92.39 4 4 0 0 1-2.74-.46c-.47 1-.26 2.32-.85 3.29a2.24 2.24 0 0 1-3.95-.23 10 10 0 0 1-1.08 2.43 3.36 3.36 0 0 1-2.13 1.5 3.3 3.3 0 0 1-3.22-1.88 6.81 6.81 0 0 1-2.2 3.48 5.31 5.31 0 0 1-2.53.76 6.64 6.64 0 0 1-5.2-1.38c-1.36-1.28-1.75-3.27-2.07-5.11" fill="#fdfeff" stroke="#fdfeff" stroke-linejoin="round"/><path fill="#f4e04e" d="M117.75 275.57l2.74 31.92 19.85-26.38-22.59-5.54z"/><rect x="115.44" y="274.87" width="27.15" height="4.65" rx="2.32" transform="rotate(14 127.385 278.874)" fill="#5db2a5"/><circle cx="130.49" cy="285.56" r="2.77" fill="#c6588a"/><circle cx="125.21" cy="294.31" r="2.77" fill="#c6588a"/><path d="M121.72 285.49a2.79 2.79 0 0 0-2.84-2.71 3 3 0 0 0-.51.07l.47 5.47h.16a2.77 2.77 0 0 0 2.72-2.83zM124.17 300.58a2.77 2.77 0 0 0-2.71 2.84 2.74 2.74 0 0 0 .74 1.81l3.26-4.35a2.81 2.81 0 0 0-1.29-.3z" fill="#c6588a"/><path d="M20.85 242.21C19.14 239.56 17 236.92 14 236a20 20 0 0 0-3.78-.62c-2-.22-3.95-.59-5.9-1-4.77-.91-9.64-1.85-13.81-4.33a6.41 6.41 0 0 1 2.27 4c.19 1.27 0 2.6.3 3.85a2.2 2.2 0 0 0 .67 1.23 2 2 0 0 0 .91.41 3.94 3.94 0 0 0 2.75-.42c.45 1 .22 2.32.79 3.31a2.29 2.29 0 0 0 2 1.1 2.28 2.28 0 0 0 1.93-1.27 9.66 9.66 0 0 0 1 2.45 3.33 3.33 0 0 0 2.1 1.52 3.3 3.3 0 0 0 3.26-1.82 6.71 6.71 0 0 0 2.14 3.51 5.31 5.31 0 0 0 2.52.8 6.62 6.62 0 0 0 5.22-1.3c1.38-1.26 1.8-3.24 2.15-5.08M29.6 239.84c.24-3.14.88-6.48 3.08-8.75a19.28 19.28 0 0 1 3-2.33c1.63-1.14 3.18-2.4 4.73-3.66 3.77-3 7.61-6.19 10.1-10.35a6.45 6.45 0 0 0-.11 4.56c.43 1.21 1.22 2.29 1.55 3.53a2.2 2.2 0 0 1 0 1.41 1.93 1.93 0 0 1-.61.78 3.92 3.92 0 0 1-2.61.94c.09 1.14.9 2.15.86 3.29a2.24 2.24 0 0 1-3.52 1.74 10 10 0 0 1 .25 2.66 3 3 0 0 1-4.86 2.27 6.83 6.83 0 0 1-.22 4.11 5.31 5.31 0 0 1-1.84 1.9 6.63 6.63 0 0 1-5.21 1.33c-1.82-.45-3.13-2-4.3-3.45" fill="#fdfeff" stroke="#fdfeff" stroke-linejoin="round"/><path fill="#f4e04e" d="M13.26 243.93l17.97 26.53 4.45-32.72-22.42 6.19z"/><rect x="10.31" y="237.53" width="27.15" height="4.65" rx="2.32" transform="rotate(-14.7 23.874 239.88)" fill="#5db2a5"/><circle cx="30.22" cy="245.01" r="2.77" fill="#c6588a"/><circle cx="23.37" cy="250.27" r="2.77" fill="#c6588a"/><circle cx="29.2" cy="258.74" r="2.77" fill="#c6588a"/><path d="M210 411.45a8.5 8.5 0 0 0-14.41.22 11.1 11.1 0 0 0-22.05 1.86c0 .32 0 .63.05.94h-.28a4.28 4.28 0 1 0 3.4 6.84 11.07 11.07 0 0 0 14.65 1.08 4.21 4.21 0 0 0 5.17-.58 8.52 8.52 0 0 0 13.47-1.07z" fill="#c4d9e8"/><path d="M358.34 415a6 6 0 0 0-3 .82 9.67 9.67 0 0 0-14.65-4.55 15.29 15.29 0 0 0-28.79.41 10.83 10.83 0 0 0-5.4-1.44 11 11 0 0 0-3.31.51 13.78 13.78 0 0 0-12.35-13.61 20 20 0 0 0 1.63-7.94 20.23 20.23 0 0 0-39.52-6.1 11.48 11.48 0 0 0-20.63 2.47 13.74 13.74 0 0 0-14.72-.28A19.82 19.82 0 0 0 210 378v47.4l74 3.47 1-5a14 14 0 0 0 4.36.71 13.68 13.68 0 0 0 6.37-1.57 10.88 10.88 0 0 0 19.64 4.29 15.29 15.29 0 0 0 23.45-1.88 9.68 9.68 0 0 0 15-.24 6.12 6.12 0 1 0 4.52-10.18z" fill="#fdfeff"/><path d="M284.5 417.11a4.61 4.61 0 0 0-3.67 1.83 8 8 0 0 0-12.12-2.11 4.61 4.61 0 0 0-9-1.17 7.25 7.25 0 0 0-5.13-2.13h-.52a8.5 8.5 0 0 0-12.41-6.63 12.07 12.07 0 0 0-23.35 3.48 10.09 10.09 0 0 0-8.32 1v17.32a10.1 10.1 0 0 0 14.76-5.23l19.18-.66a8.37 8.37 0 0 0 1.67.17 8.24 8.24 0 0 0 2-.25 7.26 7.26 0 0 0 14.12-.53l4.14-.15a7.57 7.57 0 0 0-.06.95 8.07 8.07 0 0 0 15.8 2.32 4.57 4.57 0 0 0 2.89 1 4.63 4.63 0 0 0 0-9.26z" fill="#c4d9e8"/></svg>