<svg xmlns="http://www.w3.org/2000/svg" width="210" height="420" viewBox="0 0 210 420"><path d="M177.05 130.88a1.5 1.5 0 0 0 0-3 1.5 1.5 0 0 0 0 3zM134.17 189.57a1.5 1.5 0 0 0 0-3 1.5 1.5 0 0 0 0 3zM89.16 93.9a1.5 1.5 0 0 0 0-3 1.5 1.5 0 0 0 0 3zM40.12 138.12a1.5 1.5 0 0 0 0-3 1.5 1.5 0 0 0 0 3z" fill="#5db2a5"/><path d="M79.62 234.35l10.74-23.1a.7.7 0 0 1 .58-.38h.35a.7.7 0 0 1 .58.38l10.74 23.1a.6.6 0 0 1-.58.89h-3.81c-.62 0-.89-.21-1.2-.86l-1.24-2.71h-9.33l-1.24 2.75a1.27 1.27 0 0 1-1.23.82H80.2a.6.6 0 0 1-.58-.89zm14.1-7.35l-2.6-5.66-2.61 5.66zM106.77 211.49a.65.65 0 0 1 .65-.62h.86L122 224.05v-12.18a.65.65 0 0 1 .65-.65h4.12a.68.68 0 0 1 .65.65V235a.64.64 0 0 1-.65.62h-.55a1 1 0 0 1-.45-.17l-13.55-13.62v12.8a.65.65 0 0 1-.65.65h-4.08a.68.68 0 0 1-.66-.65zM134.71 211.87a.64.64 0 0 1 .62-.65h8.37a12 12 0 1 1 0 24h-8.37a.64.64 0 0 1-.62-.65zm8.65 18.29a7 7 0 0 0 0-13.9h-3.3v13.9z" fill="#d8bf2e"/><path d="M16.46 181.3H-.09v83.34h16.55a41.67 41.67 0 1 0 0-83.34zM15.27 247H3.84v-48.2h11.43c13.46 0 23.22 10.6 23.22 24S28.73 247 15.27 247zM210.09 214.27l-4 9.06h-.48L195.38 183a2.44 2.44 0 0 0-2.14-1.67h-13.93a2.07 2.07 0 0 0-2.14 2.86l22.5 80a2.29 2.29 0 0 0 2.14 1.67h1.91a2.43 2.43 0 0 0 2-1.31l4.35-9.77z" fill="#f4e04e"/><path fill="none" stroke="#5db2a5" stroke-miterlimit="10" d="M.09 68.8h209.82M.09 389.48h209.82M.09 30.52h209.82"/><path d="M-.09 43.93h190.92a6.57 6.57 0 0 1 6.55 6.55 6.56 6.56 0 0 1-6.55 6.52H-.09" fill="none" stroke="#5db2a5" stroke-miterlimit="10" stroke-width="1.1"/><path fill="none" stroke="#5db2a5" stroke-miterlimit="10" d="M.09 308.26h210"/><path fill="none" stroke="#5db2a5" stroke-linecap="round" stroke-linejoin="round" d="M118.45 276.88l5.94-12.03 5.56 10.68 6.6-5.38 1.37 7.01 14.36-5.01-1.23 14.29 10.23-.28-6.04 7.09"/><path d="M141.82 339.94c4.43-30.51-1.57-41-5.63-44.55-5.13-4.48-12.27-2.41-12.57-2.32 0 0-11 4.52-14.81-4.46s9.64-11.73 9.64-11.73c6-1.95 18.76-3 28.68 5.5 11.65 9.95 15.74 29.07 11.94 57.56" fill="#333" stroke="#5db2a5" stroke-miterlimit="10"/><path d="M118.14 285.05a1.5 1.5 0 0 0 0-3 1.5 1.5 0 0 0 0 3z" fill="#5db2a5"/><path d="M160.25 327.74c17.19.78 29.72 3.24 29.72 6.15 0 3.37-16.9 6.14-38.37 6.39h-3.23c-4.87 0-9.54-.13-13.88-.36-16.15-.89-27.72-3.26-27.72-6.05 0-3.27 15.87-6 36.39-6.37" fill="none" stroke="#5db2a5" stroke-miterlimit="10"/><path d="M275.89 181.3H262a2.46 2.46 0 0 0-2.14 1.67l-10.24 40.36h-.47l-18.46-41.91a2 2 0 0 0-2-1.31h-2.14a2.29 2.29 0 0 0-2 1.31L210 214.27v40.48l17.32-38.92h.36l21.78 48.69a2.43 2.43 0 0 0 2 1.31h1.9a2.31 2.31 0 0 0 2.15-1.67l22.5-80a2.08 2.08 0 0 0-2.12-2.86z" fill="#f4e04e"/></svg>