<svg xmlns="http://www.w3.org/2000/svg" preserveAspectRatio="none" width="210" height="300" viewBox="0 0 210 300"><path d="M-189.9 298.4V61.12h380V298.4"/><path fill="#333" d="M189.9 300h-380V0h380v300z"/><path d="M-22 101.34a3 3 0 0 1 3-3h47a34.16 34.16 0 0 1 34.25 33.93c0 14.45-9.58 26.07-23.25 31.57l21.52 39.9a3 3 0 0 1-2.67 4.56H36.89a2.91 2.91 0 0 1-2.52-1.42l-20.89-41.6H2.64v40.05a3.09 3.09 0 0 1-3 3H-19a3 3 0 0 1-3-3zm47.91 44c6.44 0 11.94-6 11.94-12.57a12 12 0 0 0-11.94-11.94H2.64v24.51zM103.65 121.45H81.19a3 3 0 0 1-3-3v-17.11a3 3 0 0 1 3-3h69.74a3 3 0 0 1 3 3v17.13a3 3 0 0 1-3 3h-22.46v83.88a3.09 3.09 0 0 1-3 3h-18.83a3.1 3.1 0 0 1-3-3z" fill="#5db2a5"/><path d="M21.76 93.25A34.16 34.16 0 0 1 56 127.18c0 14.46-9.58 26.08-23.24 31.58l21.52 39.9a3 3 0 0 1-2.67 4.55h-20.9a2.88 2.88 0 0 1-2.51-1.41L7.31 160.17H-3.53v40.06a3.08 3.08 0 0 1-3 3h-18.7a3 3 0 0 1-3-3v-104a3 3 0 0 1 3-3h47m-25.29 47h23.24c6.44 0 11.94-6 11.94-12.56a12 12 0 0 0-11.94-11.94H-3.53v24.5m25.29-48h-47a4 4 0 0 0-4 4v104a4 4 0 0 0 4 4h18.7a4.08 4.08 0 0 0 4-4v-39.06h9.23l20.62 41.08a3.87 3.87 0 0 0 3.4 2h20.9a4 4 0 0 0 3.54-1.88 4.25 4.25 0 0 0 0-4.15l-21-38.92C48.28 153.17 57 141 57 127.18a35.13 35.13 0 0 0-35.24-34.93zm-24.29 24.49h22.25a11.09 11.09 0 0 1 10.94 10.94c0 6.16-5.12 11.56-10.94 11.56H-2.53v-22.5zM144.76 93.25a3 3 0 0 1 3 3v17.12a3 3 0 0 1-3 3H122.3v83.88a3.09 3.09 0 0 1-3 3h-18.84a3.08 3.08 0 0 1-3-3v-83.9H75a3 3 0 0 1-3-3V96.24a3 3 0 0 1 3-3h69.74m0-1H75a4 4 0 0 0-4 4v17.12a4 4 0 0 0 4 4h21.48v82.88a4.08 4.08 0 0 0 4 4h18.85a4.09 4.09 0 0 0 4-4v-82.89h21.46a4 4 0 0 0 4-4V96.24a4 4 0 0 0-4-4z" fill="#f4e04e"/></svg>
