<svg xmlns="http://www.w3.org/2000/svg" width="210" height="420" viewBox="0 0 210 420"><defs><clipPath id="a"><path d="M70.11 303.3s43.3 13.79 64-1c.03.03-43.47 126.93-64 1z" fill="none"/></clipPath></defs><path d="M-19.51 144a.68.68 0 0 1 .65-.65h4.08a.66.66 0 0 1 .66.65v8.65h9.81V144a.66.66 0 0 1 .65-.65H.43a.68.68 0 0 1 .65.65v22.72a.68.68 0 0 1-.65.65h-4.09a.66.66 0 0 1-.65-.65v-9h-9.81v9a.66.66 0 0 1-.66.65h-4.08a.68.68 0 0 1-.65-.65z" fill="#f4e04e"/><path d="M35.84 265.8s13-39.93-3.41-38.77 31.28-30.73 47 22.42" fill="#c6588a"/><ellipse cx="138.91" cy="363.22" rx="15.35" ry="24.17" transform="rotate(-38.99 138.88 363.192)" fill="#681a45"/><path d="M0 303.67c11.32-15.37 35.77-45.42 54.39-52.33s47.61-5.16 63.19 4.66 26.24 26.91 28.74 45.17c1 7.54 11.87 95.5-86.38 89.66-25.32-1.5-45.74-9.3-59.94-20.17" fill="#c6588a"/><path d="M0 346.21v24.4c14.2 10.87 34.62 18.67 59.93 20.17 60.63 3.61 79.71-28.5 85.2-55.39-4.26 5.43-46.77 76.44-145.13 10.82z" fill="#a3336b"/><path d="M70.11 303.3s43.3 13.79 64-1c.03.03-43.47 126.93-64 1z" fill="#a3336b"/><path d="M100.2 339.76c-6.81-1.72-13.71.45-20 3.18 10 23.83 22 17.7 32.2 3.87a28.66 28.66 0 0 0-12.2-7.05z" fill="#5db2a5"/><g clip-path="url(#a)" fill="#fbfdff"><ellipse cx="83.02" cy="310.15" rx="5.64" ry="11.62"/><ellipse cx="95.53" cy="307.49" rx="5.64" ry="11.62"/><ellipse cx="108.38" cy="307.49" rx="5.64" ry="11.62"/><ellipse cx="121.46" cy="307.49" rx="11.62" ry="5.64" transform="rotate(-81.05 121.476 307.502)"/></g><ellipse cx="94.49" cy="284.87" rx="5.79" ry="10.26"/><ellipse cx="113.65" cy="284.87" rx="5.79" ry="10.26"/><circle cx="95.71" cy="280.63" r="1.98" fill="#fbfdff"/><circle cx="97.69" cy="284.26" r=".99" fill="#fbfdff"/><circle cx="114.82" cy="279.3" r="1.98" fill="#fbfdff"/><circle cx="116.8" cy="282.94" r=".99" fill="#fbfdff"/><ellipse cx="24.72" cy="370.53" rx="24.17" ry="15.35" transform="rotate(-70.33 24.73 370.537)" fill="#c6588a"/><path d="M210 233.38c-1-.17-2.06-.33-3.08-.44-5.45-.59-11.26-.37-15.95 2.46s-7.74 8.91-5.65 14c1.73 4.2 6.28 6.49 10.68 7.6s9.06 1.43 13.16 3.36l.84.43z" fill="#5db2a5"/><path d="M210 378a19.7 19.7 0 0 0-29.11 17.34v.3a20.07 20.07 0 0 0-3.31-.3A19.73 19.73 0 0 0 158 413.19a9 9 0 1 0 3.22 12.86 19.73 19.73 0 0 0 33.66-1.36l15.17.71z" fill="#fdfeff"/><path fill="#f4e04e" d="M168.8 271.27l2.01 31.98 20.45-25.93-22.46-6.05z"/><rect x="166.46" y="270.82" width="27.15" height="4.65" rx="2.32" transform="rotate(15.82 180.017 273.137)" fill="#5db2a5"/><circle cx="173.89" cy="279.3" r="2.77" fill="#c6588a"/><circle cx="175.11" cy="290.52" r="2.77" fill="#c6588a"/><path d="M184.24 282.1a2.77 2.77 0 0 0-1 5.36l3.27-4.14a2.76 2.76 0 0 0-2.27-1.22z" fill="#c6588a"/><path d="M1.36 44.26a.64.64 0 0 1 .64-.65h8.37a12 12 0 1 1 0 24H2a.65.65 0 0 1-.64-.61zM10 62.55a7 7 0 0 0 0-13.9H6.71v13.9zM28 44.26a.64.64 0 0 1 .65-.65h14.17a.64.64 0 0 1 .65.65V48a.65.65 0 0 1-.65.65h-9.51v4.26h7.83a.67.67 0 0 1 .65.65v3.74a.65.65 0 0 1-.65.65h-7.83v4.63h9.51a.65.65 0 0 1 .65.65V67a.65.65 0 0 1-.65.66H28.61A.65.65 0 0 1 28 67zM46.36 44.5a.6.6 0 0 1 .58-.89h4.56a.68.68 0 0 1 .59.37l5.66 12.53H58L63.62 44a.67.67 0 0 1 .58-.37h4.57a.6.6 0 0 1 .58.89L58.57 67.59A.65.65 0 0 1 58 68h-.34a.66.66 0 0 1-.59-.38zM73.54 44.26a.64.64 0 0 1 .65-.65H88.4a.64.64 0 0 1 .65.65V48a.65.65 0 0 1-.65.65h-9.51v4.26h7.83a.67.67 0 0 1 .65.65v3.74a.65.65 0 0 1-.65.65h-7.83v4.63h9.51a.65.65 0 0 1 .65.65V67a.65.65 0 0 1-.65.66H74.19a.65.65 0 0 1-.65-.66zM95 44.26a.64.64 0 0 1 .65-.65h4.08a.66.66 0 0 1 .65.65v18.32h8.17a.65.65 0 0 1 .65.65V67a.65.65 0 0 1-.65.66H95.68A.65.65 0 0 1 95 67zM124.37 43.26a12.36 12.36 0 1 1-12.32 12.39 12.33 12.33 0 0 1 12.32-12.39zm0 19.22a6.87 6.87 0 1 0-6.83-6.83 6.87 6.87 0 0 0 6.83 6.83zM142.25 44.26a.65.65 0 0 1 .66-.65h8.27a7.65 7.65 0 1 1 0 15.3h-3.6V67a.68.68 0 0 1-.65.66h-4.05a.66.66 0 0 1-.66-.66zm8.62 9.64a2.7 2.7 0 0 0 2.71-2.71 2.62 2.62 0 0 0-2.71-2.54h-3.26v5.25zM163.74 44.26a.65.65 0 0 1 .65-.65h14.21a.64.64 0 0 1 .65.65V48a.65.65 0 0 1-.65.65h-9.51v4.26h7.83a.67.67 0 0 1 .65.65v3.74a.65.65 0 0 1-.65.65h-7.83v4.63h9.51a.65.65 0 0 1 .65.65V67a.65.65 0 0 1-.65.66h-14.21a.66.66 0 0 1-.65-.66zM185.23 44.26a.64.64 0 0 1 .65-.65h10.26a7.45 7.45 0 0 1 7.48 7.39 7.53 7.53 0 0 1-5.08 6.9l4.71 8.71a.65.65 0 0 1-.59 1h-4.56a.62.62 0 0 1-.55-.31L193 58.22h-2.36V67a.68.68 0 0 1-.66.66h-4.08a.65.65 0 0 1-.65-.66zm10.47 9.61a2.75 2.75 0 0 0 2.6-2.75 2.63 2.63 0 0 0-2.6-2.61h-5.08v5.36zM5.25 116.39L16 93.3a.71.71 0 0 1 .59-.38h.34a.68.68 0 0 1 .58.38l10.74 23.09a.6.6 0 0 1-.58.89h-3.82c-.62 0-.89-.2-1.2-.85l-1.23-2.72h-9.34l-1.24 2.75a1.26 1.26 0 0 1-1.23.82H5.83a.61.61 0 0 1-.58-.89zm14.11-7.34l-2.61-5.66-2.57 5.66zM32.43 93.91a.66.66 0 0 1 .66-.65h10.26a7.33 7.33 0 0 1 2.4 14.31l4.7 8.72a.65.65 0 0 1-.58 1H45.3a.64.64 0 0 1-.55-.31l-4.56-9.09h-2.37v8.75a.68.68 0 0 1-.65.65h-4.08a.66.66 0 0 1-.66-.65zm10.47 9.61a2.75 2.75 0 0 0 2.61-2.74 2.63 2.63 0 0 0-2.61-2.61h-5.08v5.35zM59.89 98.31H55a.66.66 0 0 1-.66-.66v-3.74a.66.66 0 0 1 .66-.65h15.22a.65.65 0 0 1 .65.65v3.74a.65.65 0 0 1-.65.66h-4.91v18.32a.67.67 0 0 1-.65.65h-4.12a.68.68 0 0 1-.65-.65zM75.37 111.18c1.68 0 4 1.3 4 5.18a10.23 10.23 0 0 1-4.12 8 .66.66 0 0 1-1 0l-.72-.83a.62.62 0 0 1 .07-1c.41-.34 3.06-2.3 3.09-5.35a4.31 4.31 0 0 1-1.78.38 3.24 3.24 0 0 1-3.2-3.2 3.38 3.38 0 0 1 3.66-3.18zM104.27 92.92a11.54 11.54 0 0 1 8.31 3.19.65.65 0 0 1 0 1l-2.68 2.78a.59.59 0 0 1-.85 0 7 7 0 0 0-4.64-1.75 7 7 0 0 0 0 14 7.3 7.3 0 0 0 4.6-1.65.67.67 0 0 1 .89 0l2.67 2.85a.69.69 0 0 1 0 .93 11.79 11.79 0 0 1-8.34 3.33 12.36 12.36 0 1 1 0-24.71zM128.57 92.92a12.36 12.36 0 1 1-12.32 12.39 12.33 12.33 0 0 1 12.32-12.39zm0 19.22a6.87 6.87 0 1 0-6.83-6.83 6.88 6.88 0 0 0 6.83 6.83zM146.46 93.91a.64.64 0 0 1 .62-.65h8.37a12 12 0 1 1 0 24h-8.37a.64.64 0 0 1-.62-.65zm8.65 18.29a6.95 6.95 0 0 0 0-13.89h-3.3v13.89zM173.06 93.91a.65.65 0 0 1 .65-.65h14.21a.66.66 0 0 1 .65.65v3.74a.66.66 0 0 1-.65.66h-9.51v4.25h7.83a.68.68 0 0 1 .65.65V107a.66.66 0 0 1-.65.66h-7.83v4.63h9.51a.66.66 0 0 1 .65.65v3.74a.66.66 0 0 1-.65.65h-14.21a.65.65 0 0 1-.65-.65zM197.12 111.18c1.68 0 4 1.3 4 5.18a10.23 10.23 0 0 1-4.12 8 .66.66 0 0 1-1 0l-.72-.83a.62.62 0 0 1 .07-1c.41-.34 3.06-2.3 3.09-5.35a4.37 4.37 0 0 1-1.78.38 3.24 3.24 0 0 1-3.2-3.2 3.38 3.38 0 0 1 3.66-3.18zM8.52 144a.68.68 0 0 1 .65-.65h4.12a.68.68 0 0 1 .65.65v22.72a.68.68 0 0 1-.65.65H9.17a.68.68 0 0 1-.65-.65zM19.85 164.11l1.61-2.85a.87.87 0 0 1 1.17-.2c.13.06 2.61 1.88 4.87 1.88a2.16 2.16 0 0 0 2.37-2.06c0-1.44-1.2-2.54-3.54-3.46-2.95-1.17-6.65-3.47-6.65-7.59 0-3.39 2.64-6.83 7.92-6.83a12.74 12.74 0 0 1 7.4 2.58.87.87 0 0 1 .2 1.1l-1.75 2.64c-.24.38-.85.69-1.16.45s-2.82-2.06-4.91-2.06a2 2 0 0 0-2.16 1.75c0 1.27 1 2.23 3.74 3.32s6.93 3.16 6.93 7.83c0 3.53-3.05 7.1-8.1 7.1-4.46 0-6.93-1.85-7.72-2.64-.39-.34-.5-.48-.22-.96zM50.36 144a.65.65 0 0 1 .65-.65h8.27a7.65 7.65 0 1 1 0 15.3h-3.57v8.07a.67.67 0 0 1-.65.65H51a.65.65 0 0 1-.65-.65zm8.64 9.64a2.69 2.69 0 0 0 2.71-2.71 2.62 2.62 0 0 0-2.71-2.54h-3.29v5.25zM71.85 144a.65.65 0 0 1 .65-.65h14.21a.66.66 0 0 1 .65.65v3.74a.66.66 0 0 1-.65.65H77.2v4.26H85a.68.68 0 0 1 .66.65v3.7a.65.65 0 0 1-.66.65h-7.8v4.63h9.51a.66.66 0 0 1 .65.66v3.74a.66.66 0 0 1-.65.65H72.5a.65.65 0 0 1-.65-.65zM93.33 144a.66.66 0 0 1 .66-.65h10.26a7.46 7.46 0 0 1 7.48 7.41 7.54 7.54 0 0 1-5.08 6.9l4.7 8.71a.65.65 0 0 1-.58 1h-4.57a.64.64 0 0 1-.55-.31l-4.56-9.06h-2.37v8.75a.68.68 0 0 1-.65.65H94a.66.66 0 0 1-.66-.65zm10.47 9.61a2.76 2.76 0 0 0 2.61-2.75 2.62 2.62 0 0 0-2.61-2.6h-5.08v5.35zM117.7 144a.66.66 0 0 1 .66-.65h14.2a.65.65 0 0 1 .65.65v3.74a.65.65 0 0 1-.65.65h-9.5v4.94h7.82a.68.68 0 0 1 .65.66v3.74a.68.68 0 0 1-.65.65h-7.82v8.34a.68.68 0 0 1-.66.65h-4a.66.66 0 0 1-.66-.65zM138.4 144a.65.65 0 0 1 .65-.65h14.21a.65.65 0 0 1 .65.65v3.74a.65.65 0 0 1-.65.65h-9.51v4.26h7.83a.68.68 0 0 1 .65.65v3.7a.65.65 0 0 1-.65.65h-7.83v4.63h9.51a.65.65 0 0 1 .65.66v3.74a.65.65 0 0 1-.65.65h-14.21a.65.65 0 0 1-.65-.65zM170.53 143a11.51 11.51 0 0 1 8.3 3.2.63.63 0 0 1 0 1l-2.67 2.78a.6.6 0 0 1-.86 0 7 7 0 0 0-4.63-1.75 7 7 0 0 0 0 14 7.24 7.24 0 0 0 4.6-1.65.68.68 0 0 1 .89 0l2.68 2.85a.68.68 0 0 1 0 .92 11.74 11.74 0 0 1-8.33 3.33 12.36 12.36 0 1 1 0-24.71zM187.45 148.39h-4.91a.65.65 0 0 1-.65-.65V144a.65.65 0 0 1 .65-.65h15.24a.65.65 0 0 1 .65.65v3.74a.65.65 0 0 1-.65.65h-4.91v18.33a.68.68 0 0 1-.65.65h-4.12a.68.68 0 0 1-.65-.65zM.59 143.35H0v24h.59a.68.68 0 0 0 .65-.65V144a.68.68 0 0 0-.65-.65zM213.57 60.92c1.68 0 4.05 1.3 4.05 5.18a10.19 10.19 0 0 1-4.12 8 .66.66 0 0 1-1 0l-.72-.82a.61.61 0 0 1 .07-1c.41-.35 3.05-2.3 3.09-5.36a4.38 4.38 0 0 1-1.79.38 3.23 3.23 0 0 1-3.15-3.12 3.38 3.38 0 0 1 3.57-3.26z" fill="#f4e04e"/><path d="M383.59 424a6.87 6.87 0 1 0-2.41-13.3 11.5 11.5 0 0 0-9.06-9.46 11.49 11.49 0 0 0-10.72-15.65 11.23 11.23 0 0 0-3.9.7 23 23 0 0 0-41.85-9.62 19.62 19.62 0 0 0-12.49-4.46c-.53 0-1 0-1.55.08a34.66 34.66 0 0 0-64.36-3.46 19.72 19.72 0 0 0-27.25 9.31v41.69L388.11 432l-10.6-11 .28-.26a6.87 6.87 0 0 0 5.8 3.26z" fill="#fdfeff"/><path d="M334.42 412.37a7.36 7.36 0 0 0-3.44.85 13.38 13.38 0 0 0-18.69-5.55 18.57 18.57 0 0 0-29.61-9.51 13 13 0 0 0-19.92-10 8.26 8.26 0 0 0-16.35 1.69 8.51 8.51 0 0 0 .38 2.48 15.92 15.92 0 0 0-3.61-.42 16.35 16.35 0 0 0-16 13 12.34 12.34 0 0 0-17.18 6.51v8.92a12.34 12.34 0 0 0 22.79.55 16.37 16.37 0 0 0 16.64 2.48l27.15 3.86 2.3-4.36a18.58 18.58 0 0 0 28.51 3 13.38 13.38 0 0 0 23.1.28 7.45 7.45 0 1 0 3.93-13.79z" fill="#c4d9e8"/><circle cx="119.44" cy="221.34" r="7.46" fill="none" stroke="#c4d9e8" stroke-miterlimit="10" stroke-width="1.13"/><ellipse cx="119.65" cy="217.88" rx="2.8" ry="1.61" fill="#c4d9e8"/><circle cx="130.85" cy="238.78" r="4.93" fill="none" stroke="#c4d9e8" stroke-miterlimit="10" stroke-width=".71"/><ellipse cx="130.85" cy="237.34" rx="1.84" ry="1.06" fill="#c4d9e8"/><circle cx="167.41" cy="347.1" r="4.98" fill="none" stroke="#c4d9e8" stroke-miterlimit="10" stroke-width=".71"/><ellipse cx="167.41" cy="345.32" rx="1.86" ry="1.07" fill="#c4d9e8"/><circle cx="35.84" cy="403.89" r="5.52" fill="none" stroke="#c4d9e8" stroke-miterlimit="10" stroke-width=".71"/><ellipse cx="35.84" cy="402.41" rx="2.06" ry="1.19" fill="#c4d9e8"/><circle cx="175.5" cy="327.94" r="6.55" fill="none" stroke="#c4d9e8" stroke-miterlimit="10" stroke-width=".96"/><ellipse cx="175.5" cy="325.58" rx="2.91" ry="1.68" fill="#c4d9e8"/><path d="M210 411.4a8.51 8.51 0 0 0-15.61 4.15 7.26 7.26 0 1 0 2.94 8.88l3.39-.11a8.52 8.52 0 0 0 4.9-.17h.37a10.19 10.19 0 0 0 4 4.58z" fill="#c4d9e8"/></svg>