<svg xmlns="http://www.w3.org/2000/svg" width="210" height="420" viewBox="0 0 210 420"><path fill="none" stroke="#f4e04e" stroke-miterlimit="10" stroke-width="13" d="M228.83 190.06L200.46 210l28.37 19.94M162.78-19.01L87.44 33.93v-57.81"/><path fill="none" stroke="#5db2a5" stroke-miterlimit="10" stroke-width="13" d="M228.83 157.47L154.09 210l75.95 53.38M224.78 32.93L14.17 180.94V-7.66"/><path fill="none" stroke="#5db2a5" stroke-miterlimit="10" stroke-width="13" d="M207.41-18.72L62.87 82.85V-26.08M215.88 102.51L63.98 210.54l172.24 121.24"/><path fill="none" stroke="#c6588a" stroke-miterlimit="10" stroke-width="13" d="M228.83 125.69L108.86 210l119.97 84.31M228.83-1.28L38.67 132.35V-18.01"/><path fill="none" stroke="#f4e04e" stroke-miterlimit="10" stroke-width="13" d="M163.64 441.04l-76.2-53.54v57.81"/><path fill="none" stroke="#5db2a5" stroke-miterlimit="10" stroke-width="13" d="M228.83 391.35L14.17 240.49v188.59"/><path fill="none" stroke="#5db2a5" stroke-miterlimit="10" stroke-width="13" d="M208.68 441.04L62.87 338.58v108.93"/><path fill="none" stroke="#c6588a" stroke-miterlimit="10" stroke-width="13" d="M228.9 422.76L38.67 289.08v150.36"/><path fill="none" stroke="#f4e04e" stroke-miterlimit="10" stroke-width="13" d="M228.83 62.27L17.74 210.61l213.22 149.95"/></svg>