<svg xmlns="http://www.w3.org/2000/svg" width="734" height="570" viewBox="0 0 734 570"><path d="M0 0v570.54h1273.55V0zm691.89 430.6a16.87 16.87 0 0 1-2.17 7.73h-23.79s-.51-3.26-1.18-14.07c-.91-14.61-10.4-47.15-17.39-66.46 5.62 24.34 11.41 49.27 7.34 58.53 1.25 10.16 2.18 24.78 2.18 24.78s-42 13.87-98.33 14.55c-31.53.38-70.71-10.09-70.71-10.09s1-15.42 2.33-27.41c-5.68-12.4 5.81-45.51 7.28-54.48.55-3.32.63-10.91.43-20.61 0 0-4.76 23.5-8.79 36.17s-5.35 43-6.28 55.36c-.39 5.19 1.9 11.06 1.9 11.06l-25 .61c-6.68-7.67-3.65-53-5.92-81a253.91 253.91 0 0 1 1.48-52.46S447.92 191 466.23 180s59.12-36.38 59.55-36.65a4.58 4.58 0 0 0 .3 1.06c1.69 5 8.66 21 35.3 21 32.9 0 33.92-22.51 33.92-22.51s53.8 20.1 58.26 23c15.68 10.23 21.65 135.9 21.65 135.9s7.8 28.16 9.37 51c2.29 33.36 7.64 72.8 7.31 77.8z" fill="#fcf7f5"/><path d="M1183.47 503.64c-36.1-5.67-65.22-4.27-100-15.49-78.69-25.39-77-121.74-156.15-145.65-31-9.35-95.24-15.67-121.27-34.88-27.41-20.22-31.26-61.62-57.53-83.32-18.24-15.07-43.94-17.58-67.44-14.8q-7.11.84-14 2.2c5.76 39.59 8.16 90.16 8.16 90.16s7.8 28.16 9.37 51c2.29 33.27 7.64 72.71 7.31 77.71a16.87 16.87 0 0 1-2.17 7.73h-23.82s-.51-3.26-1.18-14.07c-.91-14.61-10.4-47.15-17.39-66.46 5.62 24.34 11.41 49.27 7.34 58.53 1.25 10.16 2.18 24.78 2.18 24.78s-34.72 6.64-91 7.31c-31.52.38-78-2.85-78-2.85s1-15.42 2.33-27.41c-5.68-12.4 5.81-45.51 7.28-54.48.55-3.32.63-10.91.43-20.61 0 0-4.76 23.5-8.79 36.17s-5.35 43-6.28 55.36c-.39 5.19 1.9 11.06 1.9 11.06l-25 .61c-6.68-7.67-3.65-53-5.92-81a248.47 248.47 0 0 1-.43-31.1c-1 .63-2.08 1.26-3.13 1.88-9.84 5.85-20.66 11.47-32.08 10.62-10.12-.75-19.07-6.47-28.5-10.23-24.43-9.73-53.86-5.6-74.67 10.48-31.41 24.27-43.34 72.19-80.89 85-37.12 12.71-77.27-17.07-115.82-9.76C88 427.92 12.31 477.27.45 570.54h1273.1c-16.89-35.04-51.66-60.87-90.08-66.9z" fill="#5db2a5"/><path fill="#333" stroke="#333" stroke-linecap="round" stroke-linejoin="round" d="M655.54 473.95l6.05 103.04-64.97-.76-11.84-80.49-10.45 3.55-3.61 80.35-63.03-.09-12.8-104.34 160.65-1.26z"/><path d="M561.38 165.46c27.35 0 32.81-16.76 33.88-21.41a28.89 28.89 0 0 1-5.9-2.82c-3.66-3.14-2.72-26.13-2.72-26.13l-53.3 2.44s2.48 15.64 0 22c-.57 1.46-3.29 3.29-7.13 5.23 1.88 5.23 9.13 20.69 35.17 20.69z" fill="#fff"/><path d="M594.76 67.11s.72 70.42-34.8 70.42-37.26-68.37-37.26-68.37l4.77-36.35h51.95z" fill="#fff"/><path d="M593.7 79.77s5.18-8.45 7.52-2.16-1.51 10.22-2.35 14.53-2.07 14.52-7.62 9m-67.68-20.93s-5.75-8.07-7.65-1.64 2.2 10.1 3.33 14.34 3.06 14.35 8.22 8.48" fill="#fff"/><path d="M594.76 67.11s.72 70.42-34.8 70.42-37.26-68.37-37.26-68.37" fill="none" stroke="#333" stroke-linecap="round" stroke-miterlimit="10"/><path d="M579.14 111.83c-2.78-9.39-10.86-8.77-18.72-6.68-9.2 1-13.21.06-15.65 9.65-2.87 6.57-15.26-11.52-18-16 7.39 43.82 50.48 55.58 62.8 7.67-.17.28-7.82 11.13-10.43 5.36zm-5 3.72c-1.85 10.1-7.29 6.65-12.22 6.8s-7.48 5.6-9.68.15c-1.66-4.12-7.39-6.53.08-11.66 2.73-3.19 7.08.76 10.22-1.39 3.59-2.45 5.43.14 7.9-.45 5.19-1.23 4.5 4.25 3.73 6.55z" fill="#333" opacity=".09"/><path d="M593.7 84.72s.85-17.4-7.74-25.59c0 0 7.37-32.35-29.48-16.79 0 0-37.67-12.69-29.48 20.88 0 0-3.53 10.83-3.53 16.15 0 0-4.25-7.14-4.66-13.28s.82-16.38-2-18.43-10.21-10.9.82-13.92c0 0-4.5-13.1 7-13.1 0 0 2.46-9.42 15.56-8.19 0 0 43-29.48 48.72 22.11 0 0 14.74-1.64 8.19 27.84z" fill="#333" stroke="#333" stroke-linecap="round" stroke-linejoin="round"/><path d="M541.87 11.34s-5.3-4.49-9.47 1.79m36.83 64.47a12.45 12.45 0 0 1 6.51-1.32" fill="none" stroke="#333" stroke-linecap="round" stroke-miterlimit="10"/><path d="M584.89 72.39s-5.95-9-15.77-3.55c0 0-4.76-2.38-7 6.09 0 0 7-.75 11.28-2.92s11.49.38 11.49.38z" fill="#333" stroke="#333" stroke-linecap="round" stroke-linejoin="round"/><circle cx="573.1" cy="78.83" r="2.66" fill="#333"/><circle cx="572.19" cy="78.06" r=".51" fill="#fff"/><circle cx="542.27" cy="80.21" r="2.66" fill="#333"/><circle cx="543.23" cy="79.37" r=".51" fill="#fff"/><path d="M538.55 78.36a11.39 11.39 0 0 1 6.92-.2" fill="none" stroke="#333" stroke-linecap="round" stroke-miterlimit="10"/><path d="M551.69 73.2s-13.26-8.94-21.39.12c0 0-.11 2.92 3.87 1.66 7.98-2.52 19.6 2.53 17.52-1.78z" fill="#333" stroke="#333" stroke-linecap="round" stroke-miterlimit="10"/><path d="M523.57 80.21s-5.75-8.07-7.65-1.64 2.2 10.1 3.33 14.34 3.06 14.35 8.22 8.48m66.23-21.62s5.18-8.45 7.52-2.16-1.51 10.22-2.35 14.53-2.07 14.52-7.62 9" fill="none" stroke="#333" stroke-linecap="round" stroke-miterlimit="10"/><path d="M553.54 100.13s.55-1.39 2.74.42 3.86 2.37 6.36-.46 3.51-.93 3.51-.93m-8.74 22.96a9.19 9.19 0 0 1 9.07-1.21m-18.16-6.15a16.4 16.4 0 0 0 3.26.34c3.12 0 3.77-1.69 5.62-1.88s1.69.77 4.19.54 3-1.54 5.42-1.54 4.69 1 7-1.19" fill="none" stroke="#333" stroke-linecap="round" stroke-linejoin="round"/><path d="M551.58 115.1s2.64-3.52 5-3.86 2.77.56 4.45.45 3.44-1.45 5.4-1.52 4.71 2 4.71 2a6.23 6.23 0 0 1-4.13 2.53 65.42 65.42 0 0 1-6.57.55c-1.85.15-4.72 1.56-8.91-.15" fill="#333"/><path d="M552.49 79.37s2.48 2.92 1.66 8.24" fill="none" stroke="#333" stroke-linecap="round" stroke-linejoin="round"/><path d="M586.64 115.1s-.94 23 2.72 26.13a28.89 28.89 0 0 0 5.9 2.82" fill="none" stroke="#333" stroke-linecap="round" stroke-miterlimit="10"/><path d="M533.53 118.86s9.65 18.62 27.55 18.65 25.56-22.41 25.56-22.41-2.71 32-24.69 32-28.42-28.24-28.42-28.24z" fill="#333" stroke="#333" stroke-linecap="round" stroke-linejoin="round"/><path d="M517.7 81.49s2.77-4.24 6.64 4.55m69.25-.35s3.22-6.89 5.21-6.43m-65.46 38.28s2.48 15.64 0 22c-.53 1.34-3.21 3-7.26 4.88" fill="none" stroke="#333" stroke-linecap="round" stroke-miterlimit="10"/><path d="M494.38 510.55c2.59-4.18-5.29-6.49-5.29-6.49a3.24 3.24 0 0 0 1.51-2.1c4.65-.32.49-4.18.43-4.24-.14-6.27-2.54-14.76-2.54-14.76 3.79-23.44-4.56-29.61-7.44-35.83a9.11 9.11 0 0 1-.44-1.25h-18.84c.35.52.59.81.59.81s-.9 26.7-2.87 33.23.15 9 2.12 11.08 9.39 17.77 9.39 17.77 12.14 7.29 14.72 7.59 6.38 1.21 6.38 1.21a3.4 3.4 0 0 0 1.2-1.8l.05.06c5.26-3.64 1.03-5.28 1.03-5.28zM480 481.74s-.64 2.13 0 8.35c.08.77.21 1.6.38 2.45l-1.64-.7-3.48-6.15zm-1.68 18.44l-.38-1.8a47.35 47.35 0 0 1 4.58 1.26l.89 2.48z" fill="#fff"/><path d="M480.57 445.76a8.14 8.14 0 0 0 .48 1.37c2.88 6.22 11.23 12.39 7.44 35.83 0 0 5.31 18.76.6 21.1s-8.42-7.74-9.07-14 0-8.35 0-8.35l-3.83-4.7" fill="none" stroke="#333" stroke-linecap="round" stroke-miterlimit="10"/><path d="M480 481.74c-1.67 1.76-4.13 2.17-4.95 4.63-.41 2 .41 3.68 0 5.73a5.2 5.2 0 0 0 .41 2.46 18.39 18.39 0 0 1 3.27 9c2.05 1.23 4.1 1.64 5.33 3.69.82 2 2.45 2.45 4.5 3.27 1.64.82 3.28 1.23 4.1 2.87.81 1.23 1.63 3.27-.41 4.09-2 .41-4.1-.41-6.15-1.23-5.32-1.22-9.41-4.5-14.33-7a4.06 4.06 0 0 1-1.63-2c-3.28-7-6.14-13.51-11.06-19.66a7.92 7.92 0 0 1-.41-3.27c2.87-12.69 3.28-25 3.69-37.67-.12-.14-.23-.29-.34-.43" fill="none" stroke="#333" stroke-linecap="round" stroke-miterlimit="10"/><path fill="none" stroke="#333" stroke-linecap="round" stroke-miterlimit="10" d="M475.28 485.69l3.48 6.16 1.62.63m10.62 5.24s4.25 3.91-.43 4.24m-13.31-4.24l5.55 2.12m-4.68.67l6.29 1.91m4.67 1.64s8.11 1.9 5.52 6.08m-10.19-2.83s18 2.63 9 8.52"/><path d="M694 469.56c-2.38-5.35-5.86-25.6-6.79-31.17h-18.42a7.3 7.3 0 0 1-.28 1.35c-2.08 6.54-9.58 13.7-2.87 36.48 0 0-1.32 8.73-.67 15-.05.06-3.69 4.41 1 4.15a3.24 3.24 0 0 0 1.76 1.89s-7.52 3.29-4.43 7.11c0 0-4 2.15 1.66 5.11v-.07a3.39 3.39 0 0 0 1.42 1.64s3.65-1.38 6.17-2 13.66-9.38 13.66-9.38 5.41-16.45 7.1-18.81 3.49-5.07.69-11.3zM677.87 492l-4.81 2.57.57-2.57a45.64 45.64 0 0 1 4.4-1.84zm-1.46-8.22l-1.54.9c.06-.87.08-1.7.06-2.47-.14-6.26-1-8.29-1-8.29l5.2 3.32z" fill="#fff"/><path d="M677.55 494.84c0-.91.08-1.82.17-2.73l-2.48 1.33c.76.49 1.53.95 2.31 1.4z" fill="#333" opacity=".09"/><path d="M673.88 474l5.2 3.32 1.09 8.59c-1.71 1-2.43 9.79-2.43 9.79-5.17 2.65-5.45 6.51-5.45 6.51-12 5.5-5.91 8.86-5.91 8.86s3.65-1.38 6.17-2 13.66-9.38 13.66-9.38 5.41-16.45 7.1-18.81 3.49-5 .72-11.26c-2.39-5.34-5.86-25.52-6.8-31.14" fill="none" stroke="#333" stroke-linecap="round" stroke-miterlimit="10"/><path d="M668.82 438.33a8.13 8.13 0 0 1-.31 1.41c-2.08 6.54-9.58 13.7-2.87 36.48 0 0-2.91 19.28 2.05 21s7.39-8.74 7.24-15-1-8.29-1-8.29l3.21-5.15" fill="none" stroke="#333" stroke-linecap="round" stroke-miterlimit="10"/><path fill="none" stroke="#333" stroke-linecap="round" stroke-miterlimit="10" d="M679.08 477.27l-2.67 6.54-1.54.84m-9.87 6.54s-3.72 4.41 1 4.15m12.64-5.88l-5.24 2.8m4.73.07l-6.01 2.69m-4.43 2.21s-7.8 2.91-4.7 6.73m9.75-4.09s-17.56 4.87-7.82 9.58m14.53-22.63s3.29 3 10.27 2.64m-11.83 4.74s2.88 3.05 9.05 2.81"/><path d="M574 448.45c49.68-2.91 79.9-6.41 79.9-6.41l7.08 75.53c-85.63 15.75-163.28 4.24-163.28 4.24l-6.83-75.48s44.27 2.92 83.13 2.12z" fill="#333" stroke="#333" stroke-linecap="round" stroke-linejoin="round" stroke-width="1.23"/><path d="M684.58 352.89c-1.57-22.87-9.37-51-9.37-51s-6-125.67-21.65-135.9c-4.46-2.91-58.26-23-58.26-23s-1 22.51-33.92 22.51c-26.64 0-33.61-16.06-35.3-21a4.58 4.58 0 0 1-.3-1.06c-.43.27-41.33 25.67-59.55 36.65s-10.92 132.76-10.92 132.76a253.52 253.52 0 0 0-1.47 52.46c2.26 28-.77 73.37 5.91 81l25-.61s-2.29-5.87-1.9-11.06c.93-12.37 2.26-42.69 6.28-55.36s8.79-36.16 8.79-36.17c.2 9.7.12 17.29-.43 20.61-1.47 9-13 42.08-7.28 54.48-1.36 12-2.33 27.41-2.33 27.41s46.49 3.23 78 2.85c56.31-.67 91-7.31 91-7.31s-.93-14.62-2.18-24.78c4.07-9.26-1.72-34.19-7.34-58.53 7 19.31 16.48 51.85 17.39 66.46.67 10.81 1.18 14.07 1.18 14.07h23.79a16.87 16.87 0 0 0 2.17-7.73c.33-5.04-5.03-44.48-7.31-77.75z" fill="none" stroke="#333" stroke-linecap="round" stroke-linejoin="round"/><path d="M487.84 445.57s39.22 3.2 70.75 2.82c56.3-.68 98.29-7.28 98.29-7.28" fill="none" stroke="#636363" stroke-linecap="round" stroke-linejoin="round"/><path fill="#1c6054" d="M733 449.84h1v98.23h-1z"/></svg>