<svg xmlns="http://www.w3.org/2000/svg" width="342" height="87" viewBox="0 0 342 87"><path d="M203.43 82.28V67.47h-7.93V52.65h-9.47V37.84h-19.7v14.81h-8.54v14.82h-9.44v14.81H88.08V67.47h-8.54V52.65h-8.25V37.84h-8.85V23.02H37.97v14.82H8.63V21.02h18.52V6.21h254.83v31.63h-9.01v14.81h-7.18v14.82h-7.32v14.81h-55.04z"/><path d="M281 7.21v29.63h-9v14.81h-7.18v14.82h-7.32v14.82h-53.08V66.47h-7.92V51.65H187V36.84h-21.7v14.81h-8.54v14.82h-9.44v14.82H89.08V66.47h-8.54V51.65h-8.25V36.84h-8.85V22H37v14.84H9.63V22h18.52V7.21H281m2-2H26.15V20H7.63v18.84H39V24h22.44v14.84h8.85v14.81h8.25v14.82h8.54v14.82h62.27V68.47h9.44V53.65h8.54V38.84H185v14.81h9.47v14.82h7.92v14.82h57.05V68.47h7.32V53.65H274V38.84h9V5.21z" fill="#fdfeff"/><path fill="#fcf7f5" d="M81.52 22.02h7.56v14.82h-7.56zM99.3 22.02h7.56v14.82H99.3zM89.08 36.84h7.56v14.82h-7.56zM106.86 36.84h7.56v14.82h-7.56zM96.64 51.65h7.56v14.82h-7.56zM114.42 51.65h7.56v14.82h-7.56zM198 22.02h7.56v14.82H198zM215.78 22.02h7.56v14.82h-7.56zM205.56 36.84h7.56v14.82h-7.56zM223.34 36.84h7.56v14.82h-7.56zM213.12 51.65h7.56v14.82h-7.56zM230.9 51.65h7.56v14.82h-7.56z"/></svg>