<svg xmlns="http://www.w3.org/2000/svg" width="432" height="200" viewBox="0 0 432 200"><path d="M3.26 54.07A4.07 4.07 0 0 1 7.34 50H59c26.36 0 48 21.43 48 47.36 0 26.57-21.64 48.21-47.79 48.21H36.69v50.36a4.22 4.22 0 0 1-4.07 4.07H7.34a4.07 4.07 0 0 1-4.08-4.07zm53.79 60.22A16.83 16.83 0 0 0 74 97.36c0-9-7.72-15.86-16.93-15.86H36.69v32.79zM137.41 54.07a4.21 4.21 0 0 1 4.07-4.07H167a4.07 4.07 0 0 1 4.07 4.07v54h61.28v-54a4.07 4.07 0 0 1 4.06-4.07h25.5a4.22 4.22 0 0 1 4.09 4.07v141.86a4.22 4.22 0 0 1-4.07 4.07h-25.5a4.07 4.07 0 0 1-4.08-4.07v-56.36h-61.3v56.36A4.07 4.07 0 0 1 167 200h-25.5a4.21 4.21 0 0 1-4.07-4.07zM343.11 123.07L299.83 56c-1.72-2.79 0-6 3.64-6h31.29a4.59 4.59 0 0 1 3.42 1.93l24.65 39.86h.17l25.07-39.86a4.26 4.26 0 0 1 3.47-1.93h31.29c3.64 0 5.57 3.21 3.64 6L383 123.07 428 194c1.93 3 0 6-3.43 6h-29.81a4.8 4.8 0 0 1-3.65-1.93L363 154.79h-.43l-27.43 43.28a4.67 4.67 0 0 1-3.64 1.93h-29.74c-3.65 0-5.58-3.21-3.65-6z" fill="#5db2a5"/></svg>