<svg xmlns="http://www.w3.org/2000/svg" width="574" height="538" viewBox="0 0 574 538"><defs><clipPath id="a"><path fill="none" d="M0 142.79h238.8v313.04H0z"/></clipPath></defs><path fill="#333" d="M238.8 142.64h238.8v313.04H238.8z"/><path fill="#fff" stroke="#fff" stroke-linecap="round" stroke-linejoin="round" stroke-width="2.73" d="M422.24 236.47l-43.37 14.66 18.81-94.01 2.53-12.7-5.8 11.78-80.08 150.48 47.24-12.92-16.28 100.26 76.95-157.55z"/><g clip-path="url(#a)"><path fill="#fff" d="M0 142.79h238.8v313.04H0z"/><ellipse cx="117.18" cy="326.76" rx="8.67" ry="8.21" transform="rotate(-89.02 117.181 326.765)" stroke-width=".72" stroke="#333" stroke-linecap="round" stroke-linejoin="round" fill="none"/><path d="M117.66 341.45c5.17-.2 15.2-3.8 15-11.29-.55-16.7-11.92-23.07-16.07-22.91s-15.08 7.4-14.53 24.09c.2 7.49 10.44 10.31 15.6 10.11z" fill="none" stroke="#333" stroke-linecap="round" stroke-linejoin="round" stroke-width=".72"/><path d="M117.79 344.64c13.09-.51 21.6-5.94 14.44-27.14-6.11-18.08-15.13-18.47-15.93-18.44s-10.23 1-14.7 19.62c-5.27 21.97 3.09 26.47 16.19 25.96z" fill="none" stroke="#333" stroke-linecap="round" stroke-linejoin="round" stroke-width=".72"/><path d="M118 348.18a22.26 22.26 0 0 0 20.15-15.29c2-6-3.53-16.58-6-24.61-5.69-18.24-15.17-18.47-16-18.44H116c-.79 0-10.23 1-14.71 19.62-2 8.21-6.83 19.16-4.4 25A22 22 0 0 0 118 348.18z" fill="none" stroke="#333" stroke-linecap="round" stroke-linejoin="round" stroke-width=".72"/><ellipse cx="113.22" cy="202.85" rx="22.76" ry="12.54" transform="translate(-8.24 4.83)" stroke-width=".72" stroke="#333" stroke-linecap="round" stroke-linejoin="round" fill="none"/><path d="M132.84 341.59c8.09 0 10.23-5.91 10.34-9.78s-9.08-24.81-14.33-37.22-13.14-12.71-13.14-12.71-7.64.92-12.06 13.68-12.21 34.38-11.85 38.23 2.89 9.58 11 9" fill="none" stroke="#333" stroke-linecap="round" stroke-linejoin="round" stroke-width=".72"/><path d="M138.33 340.36c8.45.7 8.72-8.31 6.87-12.15s-11.83-29.61-16.86-41.72S115.45 274 115.45 274s-7.59 1-11.82 13.46-12.49 38.94-14.08 42.92-.73 12.92 7.65 11.62" fill="none" stroke="#333" stroke-linecap="round" stroke-linejoin="round" stroke-width=".72"/><path d="M141 340.22c4.16 2.9 10.6-2.47 7.57-10s-16-39.94-20.93-52.46-12.34-11.42-12.34-11.42-7.49-.53-11.57 12.34-14.9 46.15-17.43 53.94 4.26 12.65 8.21 9.44" fill="none" stroke="#333" stroke-linecap="round" stroke-linejoin="round" stroke-width=".72"/><path d="M144.35 341c7.37 4.37 8.06-6.37 6-11.25S131.61 280 127 268.25s-12.07-11.31-12.07-11.31-7.21.13-11.08 12.2-17.55 58.11-19.31 63.14-.36 15.69 6.7 10.77" fill="none" stroke="#333" stroke-linecap="round" stroke-linejoin="round" stroke-width=".72"/><path d="M148.52 342c2.87 3.65 9.1.68 3.59-12.19S132.89 277 128.08 262s-13.6-17.5-13.6-17.5-8.4 3.09-12.2 18.5-14.86 56.2-19.51 69.47 1.75 15.74 4.38 11.88" fill="none" stroke="#333" stroke-linecap="round" stroke-linejoin="round" stroke-width=".72"/><path d="M154.12 336.33C153.78 327 140 294.07 138.23 289s-9.67-32-14.16-48.91S114 225 114 225s-5.74-1.35-9.11 15.85-9.54 44.65-10.96 49.85-13 39.14-12.74 48.45" fill="none" stroke="#333" stroke-linecap="round" stroke-linejoin="round" stroke-width=".72"/><path d="M88.21 175.33S71.56 191.46 72 204.45s-.59 18.77 11.15 21.67 19.65 4.35 17.27 24.41-12.8 53.77-15.87 62.74c-6.76 19.77-3.41 28-3.41 28" fill="none" stroke="#333" stroke-linecap="round" stroke-linejoin="round" stroke-width=".72"/><path d="M81.6 167.66s-20.72 18.45-21 36.14.61 26 12 26.27 22-.53 24.94 10-4.09 39.45-7.2 47.71-15.05 32.9-14.07 46.58 6.86 20.4 5.72 31.51-10.57 26.91 5 36c0 0-8.24 4-8.25 7.56 0 3.25.77 10.42 3.75 13.42" fill="none" stroke="#333" stroke-linecap="round" stroke-linejoin="round" stroke-width=".72"/><path d="M54.46 186.94c-5 16.36-5.73 44.75 5.1 46s33.18-2 34.77 6.1 6.59 19.87-8.2 52S70 329.66 71.06 341.61s4.61 19.72 4.65 27.62-9.9 23.5 5.62 32.62c0 0-8.35 3.49-8.34 7.76 0 2.89 2.2 9.23 3.62 13" fill="none" stroke="#333" stroke-linecap="round" stroke-linejoin="round" stroke-width=".72"/><path fill="none" stroke="#333" stroke-linecap="round" stroke-linejoin="round" stroke-width=".69" d="M61.98 422.64l-19.4 21.38M42.47 422.64l-12.8 14.12M87.47 423.51L65.43 448.1M108.4 423.53l-24.94 27.08M123.85 423.32l-26.11 27.72M139.01 422.77l-25 27.56M156.09 421.79l-25.66 28.11M169.07 420.41l-26.1 28.7M179.99 420.06l-24.39 28.06M194.27 418.11l-24.21 28.19M207.82 416.63l-26.33 28.87M211.68 424.98l-16.87 18.6"/><path d="M44.13 202.84s-8.06 33.34 15.15 33.79 31.9-1.52 34.09 7.19 2.89 28-12 46.33S64.1 351 66.53 360.16s4.22 11.74 3.15 18.08-1.74 17.56 5.19 23.86c0 0-7.23 2.52-7.1 6.34.11 3.25 1.1 9.81 3.2 14" fill="none" stroke="#333" stroke-linecap="round" stroke-linejoin="round" stroke-width=".72"/><path d="M36.09 223s-.59 17 14.36 16.66 33.06-3.88 38.31 1.77 7.77 20.87-1.76 33.65-24.62 28.21-24.63 51.39-.81 33.59 1.32 40.07-.8 15.72-.28 20.15 1.74 12.11 6.72 14.85c0 0-8.25 4-7.88 7.11.31 2.65.34 8.53 2 13.49M48.91 193.45c.81-11.12-3.93-23.13-7.46-30.36l-12.84-22.75M66.42 166.54c-2.65-2.37-4.43-11-4.43-11l-2.73-14" fill="none" stroke="#333" stroke-linecap="round" stroke-linejoin="round" stroke-width=".72"/><path d="M36.66 241.1s7.68-.29 4.77 4.07-2.69 5.41 2.56 5.21" fill="none" stroke="#333" stroke-linecap="round" stroke-linejoin="round" stroke-width=".72"/><path d="M39.67 252.71a30.87 30.87 0 0 1 9.56-4.1c12.48-3.06 24.34 4.09 25.16 5.35s.62 6.16-15.59 10.66A99 99 0 0 1 41.26 268M41.46 272.86l6.63 9.2M53.02 247.94l8.45-8.71" fill="none" stroke="#333" stroke-linecap="round" stroke-linejoin="round" stroke-width=".72"/><path d="M61.78 248.48s8.09-3 8.93-2.34 5 3.81 4.68 1.82-4.24-7-2.24-7.09 5.11 2.26 7.7 4.88 4.61 6.56 2.21 8.09-5.65-2.36-5.65-2.36l.16 4.73s-8.87 7.38-13.7 9.58-11.53 4.88 2.73 8.43c0 0-21.62 18.06-22.35 35.82s13 48.84 13.39 62c.56 17.09-2.91 36.84.23 49.79" fill="none" stroke="#333" stroke-linecap="round" stroke-linejoin="round" stroke-width=".72"/><path d="M71.81 238.33s14.75 2.6 17.18 10 3.13 17.67-4.19 23.88-27.27 24.93-28.71 39 4.1 41.07 4.29 46.81.72 13.61.34 18.65-1.42 20.62 5.28 27.25M107.48 345.9s.68 6.14 9.85 5.52 10.52-6 10.52-6" fill="none" stroke="#333" stroke-linecap="round" stroke-linejoin="round" stroke-width=".72"/><path d="M107.48 345.9s.76 8.56 9.94 8.2a10.61 10.61 0 0 0 10.43-8.72" fill="none" stroke="#333" stroke-linecap="round" stroke-linejoin="round" stroke-width=".72"/><path d="M107.48 345.9s.81 10.17 10 9.82 10.38-10.34 10.38-10.34" fill="none" stroke="#333" stroke-linecap="round" stroke-linejoin="round" stroke-width=".72"/><path d="M130.26 343.46s2 8.14-3.07 11.88c-7.86 5.84-6.39 2.19-9.13 2.3s-1 3.63-9.27-1.59c-5.27-3.34-3.84-11.62-3.84-11.62M119.12 396.91c14.37-.56 16.77-12.29 16.67-15.3s-9.54-13.47-9.54-13.47c-3.24 10.95-6.14 9.6-7.65 9.66s-4.3 1.62-8.26-9.05c0 0-8.72 11.16-8.62 14.17s3.25 14.54 17.63 14M130.39 422.51c3.33-1.42 7.21-10.31 7.21-10.31l-10.17-7.82-16.69.64-9.63 8.59s4.42 8.17 7.84 9.32" fill="none" stroke="#333" stroke-linecap="round" stroke-linejoin="round" stroke-width=".72"/><path d="M136.2 341.18s2.05 5.06-.69 9.54-4.37 8.76-1 14.72 8.79 11 9 16.28c.27 8.08-4.76 19.39-23.69 20.12s-24.69-10.16-25-18.24c-.17-5.28 4.93-10.72 7.88-16.93s1-10.34-2-14.6-1.32-9.46-1.32-9.46" fill="none" stroke="#333" stroke-linecap="round" stroke-linejoin="round" stroke-width=".72"/><path d="M85.11 345.9s9.16 3.17 9.58 12.13-6.23 21.71-6.09 29.71 8.64 14.85 15.26 14.72c0 0-12.28 6.77-12.19 9.71l.17 4.91c.06 1.82 5 5.91 5 5.91" fill="none" stroke="#333" stroke-linecap="round" stroke-linejoin="round" stroke-width=".72"/><path d="M82.66 345.29s4.89 11.48 4.08 20.35-5 20.39-3.15 26.92 11.81 9.37 11.81 9.37-10.55 4.58-10.56 8.6c0 3.74-.44 8.88 3.92 12.4M43.28 337.74c4.93 15.14 10.62 30.42 10.91 39.26.37 11.05-2.46 32.73 0 44.54M45.72 278.77a57.37 57.37 0 0 0-4 7.84" fill="none" stroke="#333" stroke-linecap="round" stroke-linejoin="round" stroke-width=".72"/><path d="M43.63 347.58c3.73 11.95 7.16 23.1 8 28.16 1.45 8.86-3 31-.13 45.57M43 275s-.67 1.16-1.66 3.14" fill="none" stroke="#333" stroke-linecap="round" stroke-linejoin="round" stroke-width=".72"/><path d="M42.54 352.68c4.07 11.14 7.57 20.74 7.74 24.56.34 7.48-2.9 30.59-.36 44" fill="none" stroke="#333" stroke-linecap="round" stroke-linejoin="round" stroke-width=".72"/><path d="M42.24 355c3.59 10 6.66 19.16 6.66 21.14 0 4.07-2.91 30.87-.55 45" fill="none" stroke="#333" stroke-linecap="round" stroke-linejoin="round" stroke-width=".72"/><path d="M41.78 357c3.28 9 6.07 17.26 6.07 19.22 0 4.08-3 30.76-.65 44.8" fill="none" stroke="#333" stroke-linecap="round" stroke-linejoin="round" stroke-width=".72"/><path d="M41.48 359.18c2.93 8.13 5.31 15.29 5.31 17.12 0 4-2.93 30.43-.71 44.67" fill="none" stroke="#333" stroke-linecap="round" stroke-linejoin="round" stroke-width=".72"/><path d="M40.78 360.21c2.74 7.69 5 14.51 5 16.34 0 4-2.94 30.17-.72 44.33" fill="none" stroke="#333" stroke-linecap="round" stroke-linejoin="round" stroke-width=".72"/><path d="M44.91 376.73c0-1.72-1.76-7.3-4-13.71-1.45 5.82-6.41 20.08-8.22 31.88-.73 9.45-2 24.68-2 24.68l8.62.88c1.59.15 2.94.14 4.53.24-2.15-14.19 1.07-39.94 1.07-43.97z" fill="#333" stroke="#333" stroke-linecap="round" stroke-linejoin="round" stroke-width=".72"/><path d="M136.49 173.47s17.66 14.8 18.09 27.78 1.82 18.68-9.7 22.48-19.32 5.86-15.62 25.69 16.29 52.64 19.94 61.35c8.05 19.2 5.24 27.62 5.24 27.62" fill="none" stroke="#333" stroke-linecap="round" stroke-linejoin="round" stroke-width=".72"/><path d="M142.58 165.31s21.88 16.8 23.34 34.42 1.1 26-10.21 27.13-22 1.17-24.23 11.87 6.67 39 10.32 47 17.17 31.66 17.08 45.38-5.49 20.89-3.63 31.89 12.31 26-2.63 36.29c0 0 8.49 3.35 8.73 6.9s-.14 11.88-3.73 14.49" fill="none" stroke="#333" stroke-linecap="round" stroke-linejoin="round" stroke-width=".72"/><path d="M170.92 182.45c6.06 15.93 8.65 44.19-2.07 46.23s-33.23.58-34.28 8.76-5.28 20.34 11.59 51.24S164.78 326 164.52 338s-3.31 20-2.83 27.91 11.41 22.67-3.47 33c0 0 8.56 2.84 8.83 7.09s-3.2 14.74-3.2 14.74" fill="none" stroke="#333" stroke-linecap="round" stroke-linejoin="round" stroke-width=".72"/><path d="M182.27 197.5s10.22 32.63-12.9 34.88-31.92.94-33.53 9.8-1 28.16 15 45.29 21.24 59.4 19.42 68.68-3.44 12-1.95 18.28 2.88 17.38-3.62 24.2c0 0 7.38 2 7.5 5.77s-.46 12-3.11 16" fill="none" stroke="#333" stroke-linecap="round" stroke-linejoin="round" stroke-width=".72"/><path d="M191.61 217s1.71 17-13.24 17.73-33.23-1.32-38.09 4.72-6.38 21.43 4 33.44 26.4 26.23 27.93 49.35 3 33.45 1.32 40.08 1.83 15.61 1.6 20.08-.94 12.2-5.72 15.32c0 0 8.49 3.36 8.32 6.49s.36 10-2 15.55M176.88 188.51c-1.51-10.78 2.23-22.83 5.24-30.35l9.39-17.82M157.64 163c2.5-2.56 3.82-12.72 3.82-12.72l1.17-11.52" fill="none" stroke="#333" stroke-linecap="round" stroke-linejoin="round" stroke-width=".72"/><path d="M192.22 235.09s-7.67.3-4.48 4.43 3.53 5.42-1.72 5.63" fill="none" stroke="#333" stroke-linecap="round" stroke-linejoin="round" stroke-width=".72"/><path d="M189.76 246.78a30.38 30.38 0 0 0-9.58-3.23c-12.65-2.09-24 6-24.74 7.28s-.21 6.19 16.25 9.43a107.42 107.42 0 0 0 14.9 1.94M187.69 270.09l-4.17 6.73M176.35 243.17l-8.99-8.03" fill="none" stroke="#333" stroke-linecap="round" stroke-linejoin="round" stroke-width=".72"/><path d="M167.66 244.39s-8.27-2.38-9.06-1.64-4.76 4.18-4.56 2.17 3.78-7.32 1.77-7.25-4.95 2.66-7.35 5.47-4.17 6.9-1.68 8.24 5.48-2.8 5.48-2.8l.15 4.74s9.34 6.68 14.29 8.5 11.83 4-2.16 8.62c0 0 22.75 16.34 24.64 34s-9.71 49.72-9.28 62.85c.6 18.17 5.94 39 2.51 52.1" fill="none" stroke="#333" stroke-linecap="round" stroke-linejoin="round" stroke-width=".72"/><path d="M157 235s-14.53 3.73-16.48 11.27-2 17.84 5.75 23.53 28.84 22.76 31.19 36.66-1.38 41.28-1.2 47 .18 13.64.89 18.64 2.77 20.47-3.5 27.6M150.78 343.37s-8.93 3.86-8.76 12.83 7.64 21.18 8 29.16-7.65 15.48-14.26 15.86c0 0 12.7 5.81 12.79 8.75l.16 4.91c.06 1.82-4.57 6.69-4.57 6.69" fill="none" stroke="#333" stroke-linecap="round" stroke-linejoin="round" stroke-width=".72"/><path d="M153.19 342.57s-4.13 11.82-2.74 20.61 6.29 20 4.91 26.61S144.2 400 144.2 400s10.82 3.76 11.09 7.76 1.14 9.57-4.06 13.5M192.77 328.8c-4.06 16.48-9.42 33.74-9.11 43.23.39 11.91 5.3 35.85 2.48 47M185.66 273.36a49.23 49.23 0 0 1 3.06 4.82" fill="none" stroke="#333" stroke-linecap="round" stroke-linejoin="round" stroke-width=".72"/><path d="M193.17 338.07c-3.38 14.06-6.46 26.65-7 32.47-.91 9.53 5.84 33.6 2.64 48.23" fill="none" stroke="#333" stroke-linecap="round" stroke-linejoin="round" stroke-width=".72"/><path d="M193.58 347.2c-3.54 12.18-6.09 20.72-6 24.73.17 8 5.62 33.65 2.8 46.69" fill="none" stroke="#333" stroke-linecap="round" stroke-linejoin="round" stroke-width=".72"/><path d="M194 349.8c-3.13 10.92-5.21 18.85-5.07 20.94.29 4.34 5.61 34.46 3.1 47.71" fill="none" stroke="#333" stroke-linecap="round" stroke-linejoin="round" stroke-width=".72"/><path d="M193.94 352.79c-2.79 9.58-4.13 16-4 18 .29 4.36 5.75 34.46 3.16 47.56" fill="none" stroke="#333" stroke-linecap="round" stroke-linejoin="round" stroke-width=".72"/><path d="M194.4 356c-2.45 8.5-3.52 12.92-3.4 14.77.29 4.3 5.61 33.95 3.27 47.38" fill="none" stroke="#333" stroke-linecap="round" stroke-linejoin="round" stroke-width=".72"/><path d="M194.65 358.88c-2.08 7.42-2.7 10.28-2.59 12 .29 4.33 5.65 33.91 3.23 47.2" fill="none" stroke="#333" stroke-linecap="round" stroke-linejoin="round" stroke-width=".72"/><path d="M201.07 378c-.66-2.08-6-14.21-6.42-15.95-1.11 4.3-1.83 7.7-1.75 9 .29 4.3 5.69 33.66 3.39 47.06 1.23 0 14.32-1.84 14.32-1.84l-3.56-16.36c-1.05-3.37-4.71-17.91-5.98-21.91z" fill="#333" stroke="#333" stroke-linecap="round" stroke-linejoin="round" stroke-width=".72"/><path d="M213.69 421.05s13.29-1.56 22.14 0l4.68.84M149.19 140.34l-1.08 7.21s-6.09 25.26-38.39 25.26-41-23.18-41-23.18L65.48 141" fill="none" stroke="#636363" stroke-linecap="round" stroke-linejoin="round" stroke-width=".41"/><path d="M211.07 140.34l-11.8 25.1c-4.25 11.66-10.56 31.7-7.41 40.51 4.59 12.82 4.85 29 18.19 27.34a54.27 54.27 0 0 1 6.51-.41l24.12-.95M186.67 257.94A52.9 52.9 0 0 1 203 259c5.06 1.23 10.47 3.18 16 4.61l21.18 4.12M187.81 267.77s6.67 6.15 14.37 12.78c3.27 2.8 11 3.57 18.78 3.52l19.72-.9M189.76 287.69s7.48 13.37 13.24 14c2.44.25 10.39 0 19.05-.19l18.63-.49M191.68 308s6.9 15 23.47 12.06a53.07 53.07 0 0 1 11.18-.67h13.76M193.27 330.89a15.74 15.74 0 0 0 14.73 4.29c4.36-1 13-.64 21.35.46l11.32 1.9M193.25 344.27a44.58 44.58 0 0 0 21.18 3.25c4.53-.49 10.74.2 16.59 1.22l10.83 2.69M194.48 357.55s4.31 6.18 15.1 4a104.12 104.12 0 0 1 22.29-1.49l10 .29M198.72 370.37a14.78 14.78 0 0 0 13 .67c4-1.71 13-2.29 20.94-1.53l9.15 1.21M204.69 388.85a29.39 29.39 0 0 0 20.64-.8 17.09 17.09 0 0 1 9-.83l6.21.78" fill="none" stroke="#333" stroke-linecap="round" stroke-linejoin="round" stroke-width=".72"/><path d="M221.84 420.91s-3.27 11.3-9.86 7M225.33 420.52S222.4 434 213.46 435.3M227.07 420.71s-2.73 13.31-5.65 15.67M228.85 420.64s-1.19 6.46-1.48 9-3 6.17-3 6.17M232.81 421.4s-3.21 3.84-2.94 6.43-2.21 8.15-2.21 8.15M234.37 421.89s-2.83 3.76-2.75 6.36-2.26 7.91-2.26 7.91M234.89 422.4a23.41 23.41 0 0 0-2.34 7.36 12.42 12.42 0 0 0 1.19 7.09M236.48 422.53s-4.11 5.88-1.31 14.33" fill="none" stroke="#333" stroke-linecap="round" stroke-linejoin="round" stroke-width=".79"/><path d="M239.59 437.43l-2.43-2.43c-3.25-4.89 1-10.87 1-10.87l2.38-2.25" fill="none" stroke="#333" stroke-linecap="round" stroke-linejoin="round" stroke-width=".79"/><path d="M40.6 260.48a52.8 52.8 0 0 0-16.16 2.36c-7.11 2.31-14.83 6.14-22.62 7.84l-6.74 1.37M41.34 274.63S36.1 279.74 28.85 287c-4.14 4.12-16.59 5.15-26.51 5.28h-5.59M41.71 299c-2.45 4.09-6.14 9.25-9.53 9.86s-17.29 1-29 2h-7M42.44 313.27S37.58 328 20.85 326.32a62.57 62.57 0 0 0-19 1.52l-6.22 1.82M42.56 336.31a15.41 15.41 0 0 1-8.6 1.11c-6.66-1-22.89 1.85-32.93 5.16l-2.49.91M42.76 347.34a40.9 40.9 0 0 1-19.69 4.28c-6.07-.19-17.47 2-24.53 4M41.05 363a21.8 21.8 0 0 1-17.43 5.35 138.79 138.79 0 0 0-25.08.17M36.93 377.76s-9 5.74-16.3 3.22c-3.58-1.23-14.47-.3-21.57.64M34 391.84s-8 4.46-19.58.76c-3.76-1.2-12.78.19-16.57 1.46" fill="none" stroke="#333" stroke-linecap="round" stroke-linejoin="round" stroke-width=".72"/><path d="M21.19 428.62s2.95 10.07 9.27 5.78M17.68 428.53s3.77 11.87 12.79 12.33M16 428.82s3.57 11.71 6.63 13.6M14.18 428.89s1.59 5.69 2 7.91 3.35 5.3 3.35 5.3M10.27 429.87s3.45 3.19 3.34 5.53 2.71 7.12 2.71 7.12M8.75 430.42s3.06 3.15 3.13 5.49 2.76 6.9 2.76 6.9M8.25 430.91a19.39 19.39 0 0 1 2.8 6.41 12.84 12.84 0 0 1-1.05 7.34M6.67 431.15a15.85 15.85 0 0 1 2 13.39M3.67 430.73s5.86 7.56 2.93 12.17" fill="none" stroke="#333" stroke-linecap="round" stroke-linejoin="round" stroke-width=".75"/><path d="M10.39 141.78l13.72 31.74c3.05 9.39 6.87 23.25 5.57 32.56-2.07 14.89-2.87 28-16 33.13-3.82 1.5-7.9 2.87-11.76 4.06l-6.22 1.88" fill="none" stroke="#333" stroke-linecap="round" stroke-linejoin="round" stroke-width=".72"/><path d="M208.8 406.12s16.64-6.33 27.68.42l4.86 4.06" fill="none" stroke="#333" stroke-linecap="round" stroke-linejoin="round" stroke-width=".79"/><path d="M-1.46 412s26.85-5.37 33-1.72" fill="none" stroke="#333" stroke-linecap="round" stroke-linejoin="round" stroke-width=".72"/><path d="M0 430s19.89-2.89 28.83-2" fill="none" stroke="#636363" stroke-linecap="round" stroke-linejoin="round" stroke-width=".41"/><path d="M194.65 358.88c-2-15.15-1.68-23.75-2-34.75-.5-19.38-6.56-68.13-6.56-68.13M41.26 256s.23 33.22 1.35 60.2c.54 12.92.53 25.51 2.22 30.27" fill="none" stroke="#333" stroke-linecap="round" stroke-linejoin="round" stroke-width="1.22"/><path d="M44.64 421.12s63.09 6.43 150.72-2.7" fill="none" stroke="#636363" stroke-linecap="round" stroke-linejoin="round" stroke-width=".41"/></g></svg>