<svg xmlns="http://www.w3.org/2000/svg" width="342" height="468" viewBox="0 0 342 468"><path d="M292.87 325.51C286.6 310.4 280.58 295 277.16 279c-3.76-17.7-3.2-35.48-.29-53.26 3.77-23.07 9.3-45.42 11.92-68.37H64.41c-2.32 2.89-5 7.95-4.48 9.67 1.6 5-9.77 140.73-5.29 179.24 2.1 18.07 248.71 17.52 245.79 3.37a134.26 134.26 0 0 0-7.56-24.14zM248.41 375.62c.05.35-.09.56 0 0z" fill="#333"/><path d="M204.65 315.74a31.54 31.54 0 0 0-2.82-7.58c-2-3.78-4.48-7.24-6.74-10.84a48.94 48.94 0 0 1-5.57-11.9c-2.68-8.86-2.89-18.23-2.67-27.41.06-2.27.15-4.53.24-6.79 0-.36 2.43-18.66-5.05-20.71-3.28-.9-43.52 14.29-41.33 14.64a1 1 0 0 0 0 .28 123.3 123.3 0 0 1 5.28 29 107 107 0 0 1-.32 14.76c-.46 5-1.33 9.86-2.22 14.76-1.79 9.81-4.2 19.87-3 29.84 5.27 42 66.43-9.4 64.91-17.45a2.28 2.28 0 0 1-.71-.6z" fill="#cbb591"/><path d="M140.76 245.43a142.35 142.35 0 0 1 3.89 16.57 70.48 70.48 0 0 1 9.28-2.25c3.22-.52 6.79-1 10 0a9.41 9.41 0 0 1 5.2 4.07c1.44 2.18 6.87 25 9.26 34.09a118.81 118.81 0 0 1 3.21 16.4 50.77 50.77 0 0 1 0 13.93s21.54-17.6 20.28-20c-2-3.78-4.48-7.24-6.74-10.84a48.94 48.94 0 0 1-5.57-11.9c-2.68-8.86-2.89-18.23-2.67-27.41.06-2.27.15-4.53.24-6.79 0-.36 2.43-18.66-5.05-20.71-3.28-.91-43.52 14.29-41.33 14.64a1 1 0 0 0 0 .2z" fill="#a38a6c"/><path d="M65.94 145.08c-2.93-7.14-5.77-16.66-6.08-16.25-1 1.35-15.4 33.94 8.45 45.58-.48-9.78-1.86-19.54-2.37-29.33zM186.3 47.81c-.16 0-67.38 36.41-76.65 39.5C66.2 101.76 80 177.68 82.5 177.24c.32.24.63.48.93.75 1.16 8.39 2.56 16.75 4.33 25 1.22 5.69 2.61 11.36 4.2 17q1.2 4.2 2.56 8.37a30.52 30.52 0 0 0 2.89 7.16 9.63 9.63 0 0 0 6 4.16c2.85.71 5.84 1 8.73 1.47l18.42 2.94 6.56 1.05c0 .09 47.53 5.14 48.22 5.1 6.09-.33 12.16-1 18.22-1.61s12.06-1.11 18.07-1.78c2.45-.27 5-.69 7-2.19s3.19-4 4-6.47c3.74-11.45 7-23.08 10.06-34.72 1.82-6.83 3.55-13.69 5.25-20.55a7.5 7.5 0 0 1 2.75-1.3c3.22-.76 5.14.91 8-1.55 4.3-3.63 4.39-11.66 4.66-16.78.24-4.67 2.81-57.52 3-62.2C266.59 98.6 191 48 186.3 47.81z" fill="#cbb591"/><path d="M253.88 91.19c4.67 15.35-6.75 95.09-5.92 91.74a7.5 7.5 0 0 1 2.75-1.3c3.22-.76 5.14.91 8-1.55 4.3-3.63 4.39-11.66 4.66-16.78.24-4.67 2.81-57.52 3-62.2.13-.65-4.92-4.52-12.49-9.91z" fill="#a38a6c"/><path d="M187.15 47.51a307.8 307.8 0 0 0-5.6 65.81 332.85 332.85 0 0 0 8.92 70.22c-9.93-4.57-21.29-4.43-32.21-4.2" fill="none" stroke="#333" stroke-linecap="round" stroke-miterlimit="10" stroke-width="1.2"/><path d="M107.42 129.59a81.11 81.11 0 0 0 10.54-2 102.66 102.66 0 0 1 34.12-1.49l-2.15-3.4M111.18 142.92c3.76 2 8.28 2 12.55 1.66 8.94-.64 27.36-4.32 27.61-4s-.87 4.06-1.32 5.56" fill="none" stroke="#333" stroke-linecap="round" stroke-linejoin="round"/><path d="M138.29 124.74c-.93-1-19.39 1.25-20 2.17a9.9 9.9 0 0 0-.58 9.26 12.31 12.31 0 0 0 7 6.73 15.23 15.23 0 0 0 10.06.37 8.09 8.09 0 0 0 4.18-2.91 11.71 11.71 0 0 0 1.78-4.85c.66-3.73.17-7.86-2.44-10.77z" fill="#333"/><path d="M132.17 133.66c2.54 0 2.54-3.95 0-3.95s-2.55 3.95 0 3.95z" fill="#fff"/><path d="M121.53 192.54c.39 4.53 3.74 8.23 7.27 11.1a53 53 0 0 0 66.66.1" fill="none" stroke="#333" stroke-linecap="round" stroke-miterlimit="10"/><path d="M228.36 126.2c-1-.35-15.33 1.73-16.87 2.88a.8.8 0 0 0-.26 0c-3.51 1-4.72 5.34-3.84 8.54 1.07 3.9 4.61 6.52 8.32 7.65 3.88 1.19 8.52 1.44 12.26-.32a10.8 10.8 0 0 0 6-8.62c.38-3.77-1.81-8.77-5.61-10.13zm-8.44 17z" fill="#333"/><path d="M222.16 135.17c2.54 0 2.54-3.94 0-3.94s-2.55 3.94 0 3.94z" fill="#fff"/><path d="M201.37 127.94c.17.22 8.7.8 19.23-1.46 5.26-1.12 16.28.66 21.41 2.26M201.55 143a52.93 52.93 0 0 0 38.36-1.38" fill="none" stroke="#333" stroke-linecap="round" stroke-miterlimit="10"/><path d="M257.82 191.08c-.07.04-.16.09 0 0zM190.54 9.9C134.92-6.25 86.6 6.28 58.92 59.84c-12.12 33.48 3.18 86.9 9.39 120.71.79 2.57 16.14 4.52 16 3.48C78 142.15 93.34 87.84 144 76.54c26.4-5 42.42-27.54 42.95-28.61 4.53 15.27 15.36 27.43 28.8 35.59 12.4 8.19 25.85 20.78 35.86 32.22C265 140.4 265 169 257.88 191h-.05c-1.22.62 28.57-16.55 29.27-21.41 6.2-41.78 21.59-172.43-96.56-159.69zM257.93 191zm.62-1.21z" fill="#333"/><path d="M305.52 332.39c-9.51-8.34-66.94-19.49-66.94-19.49 3-5.7-4.5-12.87-6.83-17.14s-8-1.42-8-1.42-2.71-13-9.31-12.6c-4 .24-23-.44-25.63 1.24.71 7.4 6.23 16.51 8.78 19.08l-10.89 18.65L166.49 338l-18.92-15.11-4.65-13.89s4.05-17.32 3.14-24.91c-4.3-1-15-2.61-17.09-2.33-3.11.41-11.68 5.06-11.68 5.06s-11.59-.88-14.17 4.27-10.24 13.66-9.66 18.14c0 0-52.36 10.91-59.83 16-11.51 7.9-32.16 144-32.16 144h339.06S315 340.72 305.52 332.39z" fill="#c6588a"/><path d="M147.57 322.85L142.92 309s4.05-17.32 3.14-24.91c-12.55-1.56-21.82 1-28.49 12.56-.41 8.84 8.26 15.85 12.3 23.26 6 9.9 37 20.79 44.35 24.27z" fill="#a3336b"/><path d="M170.65 336.81c7.82-2 15.14-6 22.23-9.77 8.24-7.65 16.58-15.81 23.25-24.9 10.88-17-19.63-18.86-27.28-19.16.71 7.4 6.23 16.51 8.78 19.08l-10.89 18.65-19.88 16.94c1.27-.25 2.53-.54 3.79-.84zM67.72 428.43V470h-11.1l11.1-41.57zM277.67 427.68v41.57h11.09l-11.09-41.57z" fill="#a3336b"/><path d="M90.59 119.27s3.61 47 12.26 50.43 44.64 13 56.09-10.21 7.71-35.32 7.71-35.32c-20.33-21.12-76.06-4.9-76.06-4.9M263 119.27s-3.61 47-12.26 50.43-44.64 13-56.09-10.21-7.65-35.32-7.65-35.32c20.33-21.12 76.06-4.9 76.06-4.9M167.23 128.74s12.93-7.41 19.14 1.59" fill="none" stroke="#333" stroke-linecap="round" stroke-miterlimit="10" stroke-width="3"/><path d="M91.46 308.23s-50.36 11.91-57.83 17c-11.51 7.9-32.16 144-32.16 144h339.06s-25.5-128.53-35-136.86-61.2-19.55-61.2-19.55" fill="none" stroke="#333" stroke-linecap="round" stroke-miterlimit="10"/></svg>