<svg xmlns="http://www.w3.org/2000/svg" width="432" height="200" viewBox="0 0 432 200"><path d="M.91 76.9a1.77 1.77 0 0 1 1.77-1.77H25.1a20.75 20.75 0 1 1 .1 41.49h-9.77v21.87a1.83 1.83 0 0 1-1.77 1.76h-11a1.76 1.76 0 0 1-1.77-1.76zM24.26 103a7.3 7.3 0 0 0 7.35-7.35 7.09 7.09 0 0 0-7.35-6.88h-8.83V103zM59.16 76.9a1.83 1.83 0 0 1 1.76-1.77H72a1.76 1.76 0 0 1 1.76 1.77v23.44h26.61V76.9a1.77 1.77 0 0 1 1.77-1.77h11.07A1.83 1.83 0 0 1 115 76.9v61.59a1.83 1.83 0 0 1-1.77 1.76h-11.09a1.76 1.76 0 0 1-1.77-1.76V114H73.76v24.47a1.76 1.76 0 0 1-1.76 1.78H60.92a1.82 1.82 0 0 1-1.76-1.76zM163.36 74.2A33.49 33.49 0 1 1 130 107.79a33.43 33.43 0 0 1 33.36-33.59zm0 52.1a18.61 18.61 0 1 0-18.51-18.51 18.64 18.64 0 0 0 18.51 18.51zM211.84 76.9a1.76 1.76 0 0 1 1.76-1.77h38.52a1.77 1.77 0 0 1 1.77 1.77V87a1.77 1.77 0 0 1-1.77 1.77h-25.77v11.53h21.21a1.83 1.83 0 0 1 1.77 1.77v10.14a1.77 1.77 0 0 1-1.77 1.77h-21.21v12.56h25.77a1.77 1.77 0 0 1 1.77 1.76v10.15a1.76 1.76 0 0 1-1.77 1.76H213.6a1.76 1.76 0 0 1-1.76-1.76zM270 75.87a1.74 1.74 0 0 1 1.76-1.67h2.33l37.12 35.73h.09v-33a1.77 1.77 0 0 1 1.77-1.77h11.16A1.83 1.83 0 0 1 326 76.9v62.61a1.75 1.75 0 0 1-1.77 1.67h-1.48a2.78 2.78 0 0 1-1.21-.46l-36.75-36.94h-.1v34.71a1.76 1.76 0 0 1-1.76 1.76h-11.08a1.83 1.83 0 0 1-1.77-1.76zM345.72 76.9a1.83 1.83 0 0 1 1.77-1.77h11.16a1.83 1.83 0 0 1 1.77 1.77v61.59a1.83 1.83 0 0 1-1.77 1.76h-11.16a1.83 1.83 0 0 1-1.77-1.76zM393.91 106.85l-18.79-29.11a1.68 1.68 0 0 1 1.58-2.61h13.59a2 2 0 0 1 1.48.84l10.7 17.3h.1L413.45 76a1.87 1.87 0 0 1 1.49-.84h13.58c1.58 0 2.42 1.4 1.58 2.61l-18.88 29.11 19.53 30.8a1.62 1.62 0 0 1-1.48 2.6h-12.94a2.09 2.09 0 0 1-1.58-.83l-12.18-18.8h-.19l-11.91 18.8a2 2 0 0 1-1.58.83H376c-1.58 0-2.42-1.39-1.58-2.6zM1.25 193l3.11-5.5a1.71 1.71 0 0 1 2.26-.4c.26.13 5 3.65 9.42 3.65 2.66 0 4.58-1.66 4.58-4 0-2.79-2.32-4.91-6.83-6.7C8.08 177.84.91 173.39.91 165.43c0-6.57 5.11-13.2 15.33-13.2a24.67 24.67 0 0 1 14.2 5 1.68 1.68 0 0 1 .4 2.12l-3.39 5.11c-.46.73-1.66 1.32-2.25.86s-5.44-4-9.49-4c-2.39 0-4.18 1.59-4.18 3.38 0 2.46 2 4.31 7.23 6.44s13.4 6.1 13.4 15.13c0 6.83-5.9 13.73-15.65 13.73-8.63 0-13.41-3.58-14.93-5.11-.67-.66-.87-.89-.33-1.89zM42.92 154.49a1.57 1.57 0 0 1 1.59-1.6h7.76a1.62 1.62 0 0 1 1.59 1.6v17.44l14.73-18.37a2 2 0 0 1 1.26-.67h8.36a1.54 1.54 0 0 1 1.2 2.46l-15.53 19.44 16.92 22a1.56 1.56 0 0 1-1.26 2.45h-9.16a1.85 1.85 0 0 1-1.19-.46L53.86 178v19.77a1.62 1.62 0 0 1-1.59 1.6h-7.76a1.57 1.57 0 0 1-1.59-1.6zM99.12 177l-14.67-22.18a1.23 1.23 0 0 1 1.06-1.93h8.63a1.31 1.31 0 0 1 1.06.6l9.22 13.6 9.23-13.6a1.21 1.21 0 0 1 1.06-.6h8.62a1.23 1.23 0 0 1 1.07 1.93l-14.87 22.09v21.17a1.3 1.3 0 0 1-1.26 1.26h-7.89a1.26 1.26 0 0 1-1.26-1.26zM149.68 154.15a1.31 1.31 0 0 1 1.26-1.26h7.9a1.26 1.26 0 0 1 1.26 1.26v16.72h19v-16.72a1.26 1.26 0 0 1 1.26-1.26h7.9a1.31 1.31 0 0 1 1.26 1.26v43.93a1.31 1.31 0 0 1-1.26 1.26h-7.9a1.26 1.26 0 0 1-1.26-1.26v-17.45h-19v17.45a1.26 1.26 0 0 1-1.26 1.26h-7.9a1.31 1.31 0 0 1-1.26-1.26zM197.59 197.61L218.35 153a1.35 1.35 0 0 1 1.13-.73h.67a1.33 1.33 0 0 1 1.12.73L242 197.61a1.17 1.17 0 0 1-1.13 1.73h-7.36c-1.2 0-1.73-.4-2.32-1.66l-2.39-5.24h-18.01l-2.39 5.3a2.47 2.47 0 0 1-2.39 1.6h-7.29a1.17 1.17 0 0 1-1.13-1.73zm27.27-14.2l-5.05-10.94h-.06l-5 10.94zM250.14 154.15a1.26 1.26 0 0 1 1.26-1.26h19.84a14.43 14.43 0 0 1 14.46 14.33c0 6.11-4 11-9.82 13.34l9.12 16.85a1.26 1.26 0 0 1-1.12 1.93H275a1.23 1.23 0 0 1-1.06-.6l-8.83-17.58h-4.57v16.92a1.31 1.31 0 0 1-1.26 1.26h-7.9a1.26 1.26 0 0 1-1.26-1.26zm20.24 18.58a5.32 5.32 0 0 0 5-5.31 5.08 5.08 0 0 0-5-5h-9.82v10.35zM297.25 154.15a1.26 1.26 0 0 1 1.26-1.26H314c7.83 0 14.27 5.38 14.27 12.34 0 5.11-4.58 8.83-7.7 10.49 3.52 1.46 8.89 4.71 8.89 10.81 0 7.43-6.57 12.81-14.46 12.81h-16.49a1.26 1.26 0 0 1-1.26-1.26zm15.53 17.59a4.73 4.73 0 0 0 4.64-4.78 4.5 4.5 0 0 0-4.64-4.51h-5.18v9.29zm.86 18.11a4.81 4.81 0 0 0 4.78-4.84c0-2.66-2.86-4.65-5.44-4.65h-5.38v9.49zM361 152.23a23.89 23.89 0 1 1-23.82 24 23.84 23.84 0 0 1 23.82-24zm0 37.15a13.27 13.27 0 1 0-13.2-13.2 13.29 13.29 0 0 0 13.2 13.2zM395.52 154.15a1.26 1.26 0 0 1 1.26-1.26h19.84a14.44 14.44 0 0 1 14.47 14.33c0 6.11-4 11-9.82 13.34l9.09 16.85a1.26 1.26 0 0 1-1.13 1.93h-8.83a1.24 1.24 0 0 1-1.06-.6l-8.82-17.58h-4.58v16.92a1.31 1.31 0 0 1-1.26 1.26h-7.9a1.26 1.26 0 0 1-1.26-1.26zm20.24 18.58a5.32 5.32 0 0 0 5-5.31 5.08 5.08 0 0 0-5-5h-9.82v10.35z" fill="#c6588a"/></svg>