<svg xmlns="http://www.w3.org/2000/svg" width="1274" height="570" viewBox="0 0 1274 570"><path d="M1183.47 503.64c-36.1-5.67-65.22-4.27-100-15.49-78.69-25.39-77-121.74-156.15-145.65-.86-.26-1.76-.52-2.68-.77l-.59-.17-2.75-.74-.52-.13-2.65-.67-.5-.12-3-.72-.73-.17-3.19-.73c-33.44-7.42-82.65-14.45-104.62-30.66-27.45-20.22-31.3-61.62-57.57-83.32-18.24-15.07-43.94-17.58-67.44-14.8-88 10.39-154.59 81.24-230.81 126.51-9.84 5.85-20.66 11.47-32.08 10.62-10.12-.75-19.07-6.47-28.5-10.23-24.43-9.73-53.86-5.6-74.67 10.48-31.41 24.27-43.34 72.19-80.89 85-37.12 12.71-77.27-17.07-115.82-9.76C88 427.92 12.31 477.27.45 570.54h1273.1c-16.89-35.04-51.66-60.87-90.08-66.9z" fill="#5db2a5"/></svg>