<svg xmlns="http://www.w3.org/2000/svg" width="800" height="600" viewBox="0 0 800 600"><path fill="#fff" d="M-13.5-12.5h827v625h-827z"/><circle cx="173.6" cy="195.82" r="71.72" fill="#e0f1f2"/><path d="M81.33 232.45V240a1.62 1.62 0 0 0 1.79 1.35l76.49-.37v.07a1.79 1.79 0 0 0 1.79 1.78h24.41a1.79 1.79 0 0 0 1.79-1.78V241l76.49.37a1.62 1.62 0 0 0 1.79-1.35v-7.56" fill="#d3d4da"/><path d="M81.33 226.79v7.56a1.62 1.62 0 0 0 1.79 1.35l79.32-1.79v1.49a1.79 1.79 0 0 0 1.79 1.79H183a1.79 1.79 0 0 0 1.79-1.79v-1.49l79.32 1.79a1.62 1.62 0 0 0 1.79-1.35v-7.56" fill="#fff" stroke="#6ac9d0" stroke-miterlimit="10" stroke-width="3.54"/><path d="M248 164.32c0-.75-.8-1.35-1.79-1.35h-147c-1 0-1.79.6-1.79 1.35l-16.1 62.47c0 .75.8 1.35 1.79 1.35l79.32-1.79v1.49a1.79 1.79 0 0 0 1.79 1.79H183a1.79 1.79 0 0 0 1.79-1.79v-1.49l79.32 1.79c1 0 1.79-.6 1.79-1.35z" fill="#e0f1f2" stroke="#6ac9d0" stroke-miterlimit="10" stroke-width="3.54"/><path d="M172.24 221.45s-13-.74-26.51-.74-43.08 2.52-43.08 2.52a1.62 1.62 0 0 1-1.37-1.78L119 170.18a1.63 1.63 0 0 1 1.36-1.79s16.52-8.06 32.86-8.06 20.43 8.87 20.43 9.85v49.48a1.63 1.63 0 0 1-1.41 1.79z" fill="#fff" stroke="#6ac9d0" stroke-miterlimit="10" stroke-width="3.54"/><path d="M171.82 220.55s-12.23-6.31-30.18-6.31-50.64 8.1-50.64 8.1a1.79 1.79 0 0 1-1.79-1.79l12.88-51.27a1.79 1.79 0 0 1 1.79-1.78s21.6-10.46 43-10.46 26.72 11.26 26.72 12.24v49.48a1.79 1.79 0 0 1-1.78 1.79z" fill="#fff" stroke="#6ac9d0" stroke-miterlimit="10" stroke-width="3.54"/><path d="M175 221.45l69.59 1.78a1.62 1.62 0 0 0 1.37-1.78l-17.67-51.27a1.63 1.63 0 0 0-1.36-1.79s-16.52-8.06-32.86-8.06-20.44 8.87-20.44 9.85v49.48a1.63 1.63 0 0 0 1.37 1.79z" fill="#fff" stroke="#6ac9d0" stroke-miterlimit="10" stroke-width="3.54"/><path d="M175.39 220.55s12.23-5.36 30.18-5.36 50.61 7.15 50.61 7.15a1.79 1.79 0 0 0 1.79-1.79l-12.88-51.27a1.79 1.79 0 0 0-1.79-1.78S221.7 157 200.33 157s-26.73 11.3-26.73 12.28v49.48a1.79 1.79 0 0 0 1.79 1.79z" fill="#fff" stroke="#6ac9d0" stroke-miterlimit="10" stroke-width="3.54"/><ellipse cx="137.35" cy="193.31" rx="18.27" ry="6.87" fill="#d3d4da"/><ellipse cx="210.79" cy="194.72" rx="7.84" ry="3.27" fill="#d3d4da"/><circle cx="137.44" cy="173.09" r="21.19" fill="#083b54"/><circle cx="210.79" cy="176.05" r="10.59" fill="#ef5034"/><path d="M224.48 171.12c-1.35-.16-2.87-.27-4.5-.32a10.71 10.71 0 0 1 .69 1.45c1.3.05 2.53.14 3.64.28 4.23.51 5.25 1.42 5.28 1.7 0 .28-.83 1.34-4.92 2.55a71 71 0 0 1-13.42 2.28c-12 1-18.78-.62-18.87-1.73-.06-.73 2.7-2.16 8-3.33a10 10 0 0 1 .43-1.54c-5.3 1.08-10.05 2.73-9.86 5 .22 2.6 6.77 3.32 13.05 3.32 2.67 0 5.29-.13 7.35-.3a72.38 72.38 0 0 0 13.7-2.33c4.11-1.22 6.05-2.53 5.92-4s-2.23-2.51-6.49-3.03z" fill="#f59122"/><circle cx="630.56" cy="195.95" r="71.72" fill="#e0f1f2"/><path fill="#d3d4da" stroke="#d3d4db" stroke-linejoin="round" stroke-width="1.41" d="M718.67 241.81l-31.52-56.56H573.97l-31.52 56.56h176.22z"/><path fill="#fff" stroke="#6ac9d0" stroke-linejoin="round" stroke-width="3.54" d="M718.67 236.15l-32.93-56.56H575.38l-32.93 56.56h176.22z"/><circle cx="581.16" cy="213.77" r="3.66" fill="#ef5034"/><circle cx="597.63" cy="209.05" r="3.66" fill="#ef5034"/><circle cx="614.09" cy="201.38" r="3.66" fill="#ef5034"/><circle cx="630.56" cy="210.11" r="3.66" fill="#ef5034"/><circle cx="647.03" cy="205.04" r="3.66" fill="#ef5034"/><circle cx="663.49" cy="210.11" r="3.66" fill="#ef5034"/><circle cx="679.96" cy="206.45" r="3.66" fill="#ef5034"/><path fill="none" stroke="#ef5034" stroke-miterlimit="10" stroke-width="1.41" d="M581.16 213.77l16.47-4.73 16.46-7.66 16.47 8.73 16.47-5.07 16.46 5.07 16.47-3.66"/><ellipse cx="581.16" cy="224.84" rx="3.66" ry="2.04" fill="#d3d4da"/><ellipse cx="597.63" cy="222.2" rx="3.66" ry="2.04" fill="#d3d4da"/><ellipse cx="614.09" cy="217.94" rx="3.66" ry="2.04" fill="#d3d4da"/><ellipse cx="630.56" cy="222.8" rx="3.66" ry="2.04" fill="#d3d4da"/><ellipse cx="647.03" cy="219.97" rx="3.66" ry="2.04" fill="#d3d4da"/><ellipse cx="663.49" cy="222.8" rx="3.66" ry="2.04" fill="#d3d4da"/><ellipse cx="679.96" cy="220.76" rx="3.66" ry="2.04" fill="#d3d4da"/><path fill="none" stroke="#d3d4da" stroke-miterlimit="10" stroke-width=".71" d="M581.16 224.84l16.47-2.63 16.46-4.27 16.47 4.86 16.47-2.83 16.46 2.83 16.47-2.04"/><circle cx="591.56" cy="191.5" r="3.04" fill="#083b54" stroke="#063b54" stroke-linejoin="round" stroke-width=".71"/><circle cx="605.24" cy="184.54" r="3.04" fill="#083b54" stroke="#063b54" stroke-linejoin="round" stroke-width=".71"/><circle cx="618.91" cy="171.07" r="3.04" fill="#083b54" stroke="#063b54" stroke-linejoin="round" stroke-width=".71"/><circle cx="632.59" cy="184.54" r="3.04" fill="#083b54" stroke="#063b54" stroke-linejoin="round" stroke-width=".71"/><circle cx="646.27" cy="186.46" r="3.04" fill="#083b54" stroke="#063b54" stroke-linejoin="round" stroke-width=".71"/><circle cx="659.94" cy="177.14" r="3.04" fill="#083b54" stroke="#063b54" stroke-linejoin="round" stroke-width=".71"/><circle cx="673.62" cy="188.46" r="3.04" fill="#083b54" stroke="#063b54" stroke-linejoin="round" stroke-width=".71"/><path fill="none" stroke="#063b54" stroke-miterlimit="10" stroke-width=".99" d="M591.56 191.5l13.68-6.96 13.67-13.47 13.68 13.47 13.68 1.92 13.68-9.32 13.67 11.32"/><ellipse cx="591.56" cy="197.62" rx="3.04" ry="1.41" fill="#d3d4da"/><ellipse cx="605.24" cy="194.39" rx="3.04" ry="1.41" fill="#d3d4da"/><ellipse cx="618.91" cy="187.58" rx="3.04" ry="1.41" fill="#d3d4da"/><ellipse cx="632.59" cy="194.39" rx="3.04" ry="1.41" fill="#d3d4da"/><ellipse cx="646.27" cy="195.28" rx="3.04" ry="1.41" fill="#d3d4da"/><ellipse cx="659.94" cy="190.96" rx="3.04" ry="1.41" fill="#d3d4da"/><ellipse cx="673.62" cy="196.21" rx="3.04" ry="1.41" fill="#d3d4da"/><path fill="none" stroke="#d3d4da" stroke-miterlimit="10" stroke-width=".42" d="M591.56 197.62l13.68-3.22 13.67-6.82 13.68 6.82 13.68.88 13.68-4.32 13.67 5.25"/><circle cx="399.71" cy="196.49" r="71.72" fill="#e0f1f2"/><path d="M447 238.8c-6.07 1.38-12.17 3.59-18.36 4.31-6.61.76-13.33.14-20 .5-14.83.81-29.08 1.43-43.73-1.6-6.5-1.35-13-3-19-5.93a32.56 32.56 0 0 1-3.69-2.29h-.28c-4.17-.82-8.87-2-12.42-4.63-.06 1.08-.1 2.14-.1 3.19 0 7.69 36.25 19.19 70.55 19.19s70-11 70-19.92a55.29 55.29 0 0 0-.35-6.09A44.41 44.41 0 0 1 447 238.8z" fill="#d3d4da"/><ellipse cx="399.56" cy="221.54" rx="62.49" ry="16.75" fill="#fff" stroke="#6ac9d0" stroke-miterlimit="10" stroke-width="3.54"/><path d="M468.43 226.32c0 8.92-34.14 18.8-68.43 18.8s-69.3-10.29-69.3-18c0-27.26 19.49-66.31 68.86-66.31s68.87 38.26 68.87 65.51z" fill="none" stroke="#6ac9d0" stroke-miterlimit="10" stroke-width="3.54"/><circle cx="399.56" cy="154.96" r="4.92" fill="#fff" stroke="#6ac9d0" stroke-miterlimit="10" stroke-width="3.54"/><path fill="#083b54" stroke="#063b54" stroke-linejoin="round" stroke-width="1.41" d="M399.71 178.39l5.25 10.64 11.74 1.71-8.5 8.28 2.01 11.69-10.5-5.52-10.5 5.52 2-11.69-8.49-8.28 11.74-1.71 5.25-10.64z"/><ellipse cx="399.71" cy="222.81" rx="17.52" ry="2.69" fill="#d3d4da"/><path d="M366.67 176.66c-11.58 7.57-15.06 18.8-14 20.43s6.14-7.79 17.72-15.36 25.25-10.42 24.18-12-16.33-.64-27.9 6.93z" fill="#fff"/><circle cx="174.14" cy="403.97" r="71.72" fill="#e0f1f2"/><path d="M271.55 450.2c-6.18-10.35-34.8-62.56-35.23-63-.15-.14-32-11.2-32-11.2s-30.18 10.39-30.44 10.34c-5.32-1-32.9-9.75-32.9-9.75s-32.56 8.63-32.75 8.73c-.51.27-30.76 63-31.51 65.33-.16.49 48.54-6.06 48.54-6.06s39.72 5.24 47.84 5.83c.23 0 48.14-8.91 48.14-8.91s50.47 8.95 50.31 8.69z" fill="#d3d4da"/><path d="M271.55 444.83c-6.18-10.36-34.8-62.56-35.23-63-.15-.14-32-11.2-32-11.2S174.15 381 173.89 381c-5.32-1-32.9-9.76-32.9-9.76s-32.56 8.63-32.75 8.73c-.51.28-30.76 63-31.51 65.33-.16.49 48.54-10.3 48.54-10.3s39.72 9.49 47.84 10.07c.23 0 48.14-13.15 48.14-13.15s50.46 13.17 50.3 12.91z" fill="#e0f1f2"/><path d="M204.42 370.78L174 381.12l-.77 64.08 48.14-13.15zM141 371.24s-32.56 8.63-32.75 8.73c-.51.28-30.76 63-31.51 65.33-.16.49 48.54-10.3 48.54-10.3z" fill="#fff"/><path d="M271.55 444.83c-6.18-10.36-34.8-62.56-35.23-63-.15-.14-32-11.2-32-11.2S174.15 381 173.89 381c-5.32-1-32.9-9.76-32.9-9.76s-32.56 8.63-32.75 8.73c-.51.28-30.76 63-31.51 65.33-.16.49 48.54-10.3 48.54-10.3s39.72 9.49 47.84 10.07c.23 0 48.14-13.15 48.14-13.15s50.46 13.17 50.3 12.91z" fill="none" stroke="#6ac9d0" stroke-miterlimit="10" stroke-width="3.54"/><path d="M228.55 408.9c-3.2 0-4.74 1.62-3.45 3.61s8.91 5.88 9.6 5.88 3.26-3.89 2-5.88-4.96-3.61-8.15-3.61zm2.34 3.61a3.32 3.32 0 0 1-2.56-1.13c-.4-.63.08-1.13 1.09-1.13a3.3 3.3 0 0 1 2.55 1.13c.41.62-.08 1.13-1.08 1.13zM118.63 391.69c-3.2 0-4.74 1.61-3.45 3.61s8.91 5.88 9.59 5.88 3.27-3.89 2-5.88-4.95-3.61-8.14-3.61zm2.37 3.61a3.36 3.36 0 0 1-2.56-1.13c-.4-.63.08-1.14 1.09-1.14a3.32 3.32 0 0 1 2.55 1.14c.38.62-.08 1.13-1.08 1.13zM153.44 420.46c-3.2 0-4.74 1.61-3.45 3.6s8.91 5.89 9.59 5.89 3.27-3.89 2-5.89-4.95-3.6-8.14-3.6zm2.34 3.61a3.33 3.33 0 0 1-2.56-1.14c-.4-.62.08-1.13 1.09-1.13a3.35 3.35 0 0 1 2.55 1.13c.41.63-.08 1.14-1.08 1.14z" fill="#d3d4da"/><path d="M124.84 382.2a7.21 7.21 0 0 0-7.22 7.21c0 4 6.36 11.77 7.22 11.77s7.21-7.78 7.21-11.77a7.21 7.21 0 0 0-7.21-7.21zm0 7.22a2.27 2.27 0 1 1 2.27-2.27 2.27 2.27 0 0 1-2.27 2.27zM159.65 411a7.22 7.22 0 0 0-7.22 7.22c0 4 6.36 11.77 7.22 11.77s7.21-7.78 7.21-11.77a7.22 7.22 0 0 0-7.21-7.22zm0 7.23a2.27 2.27 0 1 1 2.27-2.27 2.27 2.27 0 0 1-2.27 2.23zM235.2 399.2a7.22 7.22 0 0 0-7.21 7.22c0 4 6.36 11.77 7.21 11.77s7.22-7.78 7.22-11.77a7.22 7.22 0 0 0-7.22-7.22zm0 7.23a2.27 2.27 0 1 1 2.27-2.27 2.27 2.27 0 0 1-2.27 2.27z" fill="#083b54"/><path d="M192 381.2c-1.64-2.53-5.9-4.59-10-5a7.43 7.43 0 0 1-.75 1.82h.4a4.76 4.76 0 0 1 3.66 1.63c.58.9-.12 1.62-1.56 1.62a5.49 5.49 0 0 1-2.62-.71l-4.88 1.62c3.1 3 12.08 7.52 13 7.52s4.58-5.65 2.75-8.5z" fill="#d3d4da"/><path d="M189.75 360.42a11 11 0 0 0-11 11c0 6.07 9.68 17.9 11 17.9s11-11.83 11-17.9a11 11 0 0 0-11-11zm0 11a3.46 3.46 0 1 1 3.45-3.42 3.45 3.45 0 0 1-3.45 3.41z" fill="#ef5034"/><circle cx="643.38" cy="404.18" r="71.72" fill="#e0f1f2"/><path d="M719 470.78H569.2a4.26 4.26 0 0 1-4.24-4.25v-8.48l18.39-40.22a4.26 4.26 0 0 1 4.24-4.24h113a4.26 4.26 0 0 1 4.25 4.24l18.39 40.22v8.48a4.26 4.26 0 0 1-4.23 4.25z" fill="#d3d4da" stroke="#d3d4db" stroke-linejoin="round" stroke-width="1.41"/><path d="M719 465.12H569.2a4.26 4.26 0 0 1-4.24-4.24v-8.49l18.39-40.22a4.26 4.26 0 0 1 4.24-4.24h113a4.26 4.26 0 0 1 4.25 4.24l18.39 40.22v8.49a4.26 4.26 0 0 1-4.23 4.24z" fill="#fff" stroke="#6ac9d0" stroke-linejoin="round" stroke-width="3.54"/><path d="M719 456.63H569.2a4.26 4.26 0 0 1-4.24-4.24l18.39-48.7a4.26 4.26 0 0 1 4.24-4.25h113a4.26 4.26 0 0 1 4.25 4.25l18.39 48.7a4.26 4.26 0 0 1-4.23 4.24z" fill="#e0f1f2" stroke="#6ac9d0" stroke-miterlimit="10" stroke-width="3.54"/><path d="M691.38 448.77H578.77a3.2 3.2 0 0 1-3.19-3.19L589.4 409a3.2 3.2 0 0 1 3.19-3.19h89.21A3.19 3.19 0 0 1 685 409l9.58 36.6a3.19 3.19 0 0 1-3.2 3.17z" fill="#fff" stroke="#6ac9d0" stroke-linejoin="round" stroke-width="3.54"/><ellipse cx="701.72" cy="426.67" rx="4.74" ry="3.61" fill="#6ac9d0"/><ellipse cx="603.57" cy="422.94" rx="8.51" ry="3.91" fill="#d3d4da" stroke="#d3d4db" stroke-linejoin="round" stroke-width="1.41"/><ellipse cx="626.93" cy="418.66" rx="8.51" ry="3.91" fill="#d3d4da" stroke="#d3d4db" stroke-linejoin="round" stroke-width="1.41"/><path fill="none" stroke="#063b54" stroke-miterlimit="10" stroke-width="3.54" d="M603.57 422.94v-41.21"/><circle cx="603.57" cy="379.08" r="12.65" fill="#ef5034"/><path d="M633.11 417.07c0 2.07-2.76 3.75-6.18 3.75s-6.18-1.68-6.18-3.75v-2.16s4.17-1.59 6.18-1.59a20.26 20.26 0 0 1 6.18 1.59z" fill="#ef5034"/><ellipse cx="626.93" cy="414.91" rx="6.18" ry="3.75" fill="#ef5034"/><ellipse cx="639.16" cy="429.71" rx="8.51" ry="3.91" fill="#d3d4da" stroke="#d3d4db" stroke-linejoin="round" stroke-width="1.41"/><path d="M645.35 428.12c0 2.07-2.77 3.75-6.19 3.75s-6.18-1.68-6.18-3.75V426s4.17-1.59 6.18-1.59a20.35 20.35 0 0 1 6.19 1.59z" fill="#083b54"/><ellipse cx="639.16" cy="425.96" rx="6.18" ry="3.75" fill="#083b54"/><path fill="#083b54" d="M650.15 365.68h36.47v24.57h-36.47z"/><path fill="#083b54" d="M649.471 360.664l36.09-5.252.732 5.027-36.09 5.252z"/><path fill="#fff" d="M659.12 363.52l-3.83.56-2.75-2.91 3.82-.56 2.76 2.91zM667.88 362.25l-3.83.55-2.75-2.91 3.82-.56 2.76 2.92zM676.74 360.95l-3.82.56-2.76-2.91 3.83-.55 2.75 2.9zM685.51 359.68l-3.82.56-2.75-2.92 3.82-.55 2.75 2.91zM679.82 369.93h3.86l2.31-3.41h-3.87l-2.3 3.41zM670.97 369.93h3.86l2.3-3.41h-3.86l-2.3 3.41zM662.01 369.93h3.86l2.31-3.41h-3.87l-2.3 3.41zM653.14 369.93h3.87l2.3-3.41h-3.86l-2.31 3.41z"/><ellipse cx="666.41" cy="413.59" rx="15.14" ry="1.82" fill="#d3d4da" stroke="#d3d4db" stroke-linejoin="round" stroke-width="1.41"/><path d="M627.69 344.19v12.66a5.23 5.23 0 0 0-2.68-.7c-2.22 0-4 1.2-4 2.68s1.8 2.69 4 2.69 3.93-1.16 4-2.61v-12.55l9.34-2.5v9.78a5.23 5.23 0 0 0-2.68-.7c-2.22 0-4 1.2-4 2.69s1.79 2.68 4 2.68 3.93-1.16 4-2.61V341zM617.69 331.69l-4.54 1.31v12.66a5.23 5.23 0 0 0-2.68-.7c-2.22 0-4 1.2-4 2.68s1.79 2.69 4 2.69 3.93-1.16 4-2.61V335.1l3.21-.89z" fill="#063b54"/><path d="M656.88 322.4l-4.54 1.26v12.66a5.11 5.11 0 0 0-2.68-.71c-2.22 0-4 1.21-4 2.69s1.79 2.69 4 2.69 3.94-1.17 4-2.61v-12.57l3.21-.89z" fill="#ef5034"/><circle cx="406.54" cy="403.85" r="71.72" fill="#e0f1f2"/><path fill="#d3d4da" stroke="#d3d4db" stroke-linejoin="round" stroke-width="1.41" d="M472.99 449.32l-23.77-51.1h-85.35l-23.77 51.1h132.89z"/><path fill="#fff" stroke="#6ac9d0" stroke-linejoin="round" stroke-width="3.54" d="M472.99 444.21l-24.84-51.1h-83.21l-24.84 51.1h132.89z"/><rect x="344.83" y="389.72" width="16.34" height="6.77" rx="1.41" fill="#fff" stroke="#6ac9d0" stroke-linejoin="round" stroke-width="3.54"/><rect x="451.03" y="389.72" width="16.34" height="6.77" rx="1.41" fill="#fff" stroke="#6ac9d0" stroke-linejoin="round" stroke-width="3.54"/><path d="M454.17 380.35H358s-5-.74-5 12.76 5 12.75 5 12.75h96.14s5 .75 5-12.75-4.97-12.76-4.97-12.76z" fill="#fff"/><path d="M353 393.11c0 13.5 5 12.75 5 12.75h96.14s5 .75 5-12.75z" fill="#e0f1f2"/><path d="M454.17 380.35H358s-5-.74-5 12.76 5 12.75 5 12.75h96.14s5 .75 5-12.75-4.97-12.76-4.97-12.76z" fill="none" stroke="#6ac9d0" stroke-linejoin="round" stroke-width="3.54"/><path d="M443.62 361.11c.33-1.09 0-2.18-.79-2.41-.76-.24-1.67.47-2 1.56l-16.45 50.43c-.34 1.1 1 2.48 1.73 2.71.77.24 2.62-.18 2.95-1.27z" fill="#063b54"/><path d="M457.16 415.64l-20.85 4.64a1.91 1.91 0 0 0-1.19 1.21 5.23 5.23 0 0 0-5.46-1.78c-2.79.68-10.81 7.34-9 6.89 3.55-.86 8.33 2.68 11.12 2a5.19 5.19 0 0 0 4-4.08 1.93 1.93 0 0 0 1.62.52l21.44-5.64z" fill="#d3d4da"/><path d="M429.25 418.8c-.85 2.75-6.33 5.05-7.4 8.55-.56 1.82-2.2-8.48-1.36-11.23s3.49-4.38 5.9-3.64 3.7 3.57 2.86 6.32z" fill="#063b54"/><path d="M423.27 419.53a16 16 0 0 0-1.9-.51 6.05 6.05 0 0 1-1.08.54c.16 3.94 1.15 9.12 1.56 7.79.64-2.1 2.85-3.76 4.71-5.34a5.75 5.75 0 0 0-3.29-2.48z" fill="#ef5034"/><path d="M368 421.82c3.81 4.07 10.43 3.54 15.69 1.7s10.43-4.71 16-4.33c7.35.5 13.41 6.6 20.76 7.13" fill="none" stroke="#ef5034" stroke-linecap="round" stroke-miterlimit="10" stroke-width="3.54"/></svg>