<svg xmlns="http://www.w3.org/2000/svg" width="800" height="600" viewBox="0 0 800 600"><path fill="#fff" d="M-13.5-12.5h827v625h-827z"/><path d="M371.19 140.64c0 19.28-24.52 34.91-54.76 34.91s-54.76-15.63-54.76-34.91v-9s28.26-25.91 54.76-25.91c26.24 0 54.76 25.91 54.76 25.91z" fill="#fff" stroke="#fcc941" stroke-miterlimit="10" stroke-width="3.29"/><path d="M371.19 140.64c0 19.28-24.52 34.91-54.76 34.91s-54.76-15.63-54.76-34.91v-9s28.26-25.91 54.76-25.91c26.24 0 54.76 25.91 54.76 25.91z" fill="#fcc941" opacity=".3"/><path d="M231.46 112.92v-10.39s-26.25-6.84-46.27-6.84c-18.32 0-46.31 7.37-46.31 7.37v9.86c0 4.34 4.32 6.54 11.43 7.65l-8.22 36.06v9.86a3.07 3.07 0 0 0 3.29 2.75H225a3.07 3.07 0 0 0 3.29-2.75v-9.86L220 120.57c7.15-1.11 11.46-3.31 11.46-7.65z" fill="#fff" stroke="#fcc941" stroke-miterlimit="10" stroke-width="3.29"/><path d="M231.46 112.92v-10.39s-26.25-6.84-46.27-6.84c-18.32 0-46.31 7.37-46.31 7.37v9.86c0 4.34 4.32 6.54 11.43 7.65l-8.22 36.06v9.86a3.07 3.07 0 0 0 3.29 2.75H225a3.07 3.07 0 0 0 3.29-2.75v-9.86L220 120.57c7.15-1.11 11.46-3.31 11.46-7.65z" fill="#fcc941" opacity=".3"/><path d="M231.46 103.06c0-9.51-20.73-17.23-46.3-17.23s-46.31 7.72-46.31 17.23c0 4.34 4.32 6.54 11.43 7.65l-8.22 45.92a3.07 3.07 0 0 0 3.29 2.75H225a3.07 3.07 0 0 0 3.29-2.75L220 110.71c7.15-1.11 11.46-3.31 11.46-7.65z" fill="#fff" stroke="#fcc941" stroke-miterlimit="10" stroke-width="3.29"/><ellipse cx="316.43" cy="133.3" rx="54.76" ry="34.91" fill="#fff" stroke="#fcc941" stroke-miterlimit="10" stroke-width="3.29"/><path d="M316.41 86.73s32.07-2.16 40.27 34.73c3.75 16.86-14.83 24.53-14.83 24.53" fill="#fff" stroke="#fcc941" stroke-miterlimit="10" stroke-width="3.29"/><path d="M316.41 86.73s32.07-2.16 40.27 34.73c3.75 16.86-14.83 24.53-14.83 24.53" fill="#fcc941" opacity=".3"/><path d="M344.16 141.94c-2.38 16.93-72.05 7.37-69.21-12.84 3.79-26.94 22.35-45.91 41.46-42.37S348 115 344.16 141.94z" fill="#fff" stroke="#fcc941" stroke-miterlimit="10" stroke-width="3.29"/><path d="M344.16 141.94c-2.38 16.93-72.05 7.37-69.21-12.84 3.79-26.94 22.35-45.91 41.46-42.37S348 115 344.16 141.94z" fill="#fcc941" opacity=".3"/><path d="M280 139.16s3.86-44.7 31.54-44c30.57.74 27 52.92 27 52.92" fill="none" stroke="#fcc941" stroke-miterlimit="10" stroke-width="3.29"/><path d="M287 142.85s2.94-39.23 24-38.64c23.23.66 20.5 46.45 20.5 46.45" fill="none" stroke="#fcc941" stroke-miterlimit="10" stroke-width="3.29"/><path d="M293.46 145.37s2.08-27.88 17-27.46c16.51.46 14.57 33 14.57 33" fill="none" stroke="#fcc941" stroke-miterlimit="10" stroke-width="3.29"/><path d="M300.52 147.21s1.16-18.67 9.44-18.39c9.15.31 8.08 22.1 8.08 22.1" fill="none" stroke="#fcc941" stroke-miterlimit="10" stroke-width="3.29"/><rect x="340.92" y="110.07" width="7.84" height="7.84" rx="1.64" transform="rotate(-53.9 344.826 113.981)" fill="#fff" stroke="#fcc941" stroke-miterlimit="10" stroke-width="3.29"/><rect x="309.34" y="100.29" width="7.84" height="7.84" rx="1.64" transform="rotate(-114.04 313.26 104.202)" fill="#fff" stroke="#fcc941" stroke-miterlimit="10" stroke-width="3.29"/><rect x="286" y="117.68" width="7.84" height="7.84" rx="1.64" transform="rotate(-80.36 289.935 121.59)" fill="#fff" stroke="#fcc941" stroke-miterlimit="10" stroke-width="3.29"/><path d="M338.62 149.63c.86 5.48-29.43 10.2-30.28 4.72s5.23-11 13.59-12.29 15.84 2.09 16.69 7.57z" fill="#fff" stroke="#fcc941" stroke-miterlimit="10" stroke-width="3.29"/><rect x="321.22" y="121.93" width="7.84" height="7.84" rx="1.64" transform="rotate(53.91 325.148 125.855)" fill="#fff" stroke="#fcc941" stroke-miterlimit="10" stroke-width="3.29"/><rect x="302.78" y="81.46" width="7.84" height="7.84" rx="1.64" transform="rotate(53.91 306.709 85.386)" fill="#fff" stroke="#fcc941" stroke-miterlimit="10" stroke-width="3.29"/><path d="M633.58 145.41h-58.53c-13.67 0-19.94-7.2-19.44-14.84.17-2.57 0-16 0-16 1.67-2.41 6.86 3.75 10 2 15.59-8.68 55.73-12.76 75.87-8.68 4.6.93 9.78-5.4 11.64-2.16 0 0 .43 16-.06 20.11-1.17 9.7-8.5 19.57-19.48 19.57z" fill="#fff" stroke="#fcc941" stroke-miterlimit="10" stroke-width="3.29"/><ellipse cx="463.45" cy="132.54" rx="60.14" ry="43.2" fill="#fff" stroke="#fcc941" stroke-miterlimit="10" stroke-width="3.29"/><ellipse cx="463.45" cy="132.54" rx="60.14" ry="43.2" fill="#fcc941" opacity=".3"/><path d="M213.75 119.47c-.68-9.1-7.07-18.2-17.15-16.51s-10.51 9.33-19.51 9.1-20.59 5.19-20.59 13c0 8.25 12.81 14.95 28.62 14.95S215 136 213.75 119.47z" fill="none" stroke="#fcc941" stroke-miterlimit="10" stroke-width="3.29"/><path d="M203.27 123.43c0 4.48-4.93 6.46-11 6.46s-11-2-11-6.46 4.93-8.1 11-8.1 11 3.67 11 8.1z" fill="none" stroke="#fcc941" stroke-miterlimit="10" stroke-width="3.29"/><path d="M203.27 123.43c0 4.48-4.93 6.46-11 6.46s-11-2-11-6.46 4.93-8.1 11-8.1 11 3.67 11 8.1z" fill="#fcc941" opacity=".3"/><ellipse cx="463.45" cy="130.31" rx="50.19" ry="36.05" fill="#fff" stroke="#fcc941" stroke-miterlimit="10" stroke-width="3.29"/><ellipse cx="447.16" cy="108.28" rx="5.93" ry="4.26" fill="#fff" stroke="#fcc941" stroke-miterlimit="10" stroke-width="3.29"/><ellipse cx="479.52" cy="110.07" rx="5.93" ry="4.26" fill="#fff" stroke="#fcc941" stroke-miterlimit="10" stroke-width="3.29"/><ellipse cx="464.02" cy="123.74" rx="6.51" ry="4.67" fill="#fff" stroke="#fcc941" stroke-miterlimit="10" stroke-width="3.29"/><ellipse cx="493.95" cy="130.31" rx="6.51" ry="4.67" fill="#fff" stroke="#fcc941" stroke-miterlimit="10" stroke-width="3.29"/><ellipse cx="429.27" cy="125.63" rx="6.51" ry="4.67" fill="#fff" stroke="#fcc941" stroke-miterlimit="10" stroke-width="3.29"/><ellipse cx="447.4" cy="143.79" rx="7.85" ry="5.64" fill="#fff" stroke="#fcc941" stroke-miterlimit="10" stroke-width="3.29"/><ellipse cx="447.4" cy="143.79" rx="7.85" ry="5.64" fill="#fcc941" opacity=".3"/><ellipse cx="477.61" cy="145.73" rx="7.85" ry="5.64" fill="#fff" stroke="#fcc941" stroke-miterlimit="10" stroke-width="3.29"/><ellipse cx="477.61" cy="145.73" rx="7.85" ry="5.64" fill="#fcc941" opacity=".3"/><ellipse cx="447.16" cy="108.28" rx="5.93" ry="4.26" fill="#fcc941" opacity=".3"/><ellipse cx="479.52" cy="110.07" rx="5.93" ry="4.26" fill="#fcc941" opacity=".3"/><ellipse cx="464.02" cy="123.74" rx="6.51" ry="4.67" fill="#fcc941" opacity=".3"/><ellipse cx="493.95" cy="130.31" rx="6.51" ry="4.67" fill="#fcc941" opacity=".3"/><ellipse cx="429.27" cy="125.63" rx="6.51" ry="4.67" fill="#fcc941" opacity=".3"/><path d="M633.58 145.41h-58.53c-13.67 0-19.94-7.2-19.44-14.84.17-2.57 0-16 0-16 1.67-2.41 6.86 3.75 10 2 15.59-8.68 55.73-12.76 75.87-8.68 4.6.93 9.78-5.4 11.64-2.16 0 0 .43 16-.06 20.11-1.17 9.7-8.5 19.57-19.48 19.57z" fill="#fcc941" opacity=".3"/><path d="M633.58 127.68h-58.53c-22.86 0-25-20.13-9.44-28.81s55.73-12.75 75.87-8.67 12.3 37.48-7.9 37.48z" fill="#fff" stroke="#fcc941" stroke-miterlimit="10" stroke-width="3.29"/><path d="M633.58 127.68h-58.53c-22.86 0-25-20.13-9.44-28.81s55.73-12.75 75.87-8.67 12.3 37.48-7.9 37.48z" fill="#fcc941" opacity=".3"/><path fill="#fff" stroke="#fcc941" stroke-miterlimit="10" stroke-width="3.29" d="M571.86 100.38l30.02 22.45M592.63 96.92l30.02 22.45M614.39 94.55L644.41 117M652.84 146.86a31.59 31.59 0 0 0-6.46-3.91c-3.41-1.7-6.91-3.44-10.7-3.87-4.49-.5-9 .87-13.42 1.58a74.74 74.74 0 0 1-15.54.51c-5.64-.29-11.54-.78-16.69 1.53-4 1.82-7.17 5.18-10.17 8.45-2 2.16-4 4.41-4.91 7.19a10.69 10.69 0 0 0 7 13.07c3.83 1.05 8-.17 11.83 1 3.19.95 5.66 3.4 8.4 5.26a25.89 25.89 0 0 0 19.49 3.91c4-.81 7.78-2.58 11.75-3.59 7.4-1.87 15.53-1.13 22.28-4.69a10.49 10.49 0 0 0 4.28-3.74c1.91-3.22 1.06-7.34-.14-10.89-1.44-4.42-3.47-8.81-7-11.81z"/><path d="M625.55 160.25c1.65.63 3.13 1.65 4.77 2.29a5.83 5.83 0 0 0 5.11 0c3.1-1.88 2.59-7.3 5.88-8.83a28.32 28.32 0 0 0 2.77-1c.84-.51 1.29-1.87.48-2.42-4-2.79-9.25-2.89-14-2.11s-9.48 2.35-14.33 2.54-9.65-1-14.5-1a7 7 0 0 0-4.27 1c-1.21.87-1.81 2.71-.9 3.89a8.58 8.58 0 0 1 7.83 4.66 23.31 23.31 0 0 0 1.28 2.72 5.15 5.15 0 0 0 6 1.9 18.21 18.21 0 0 0 3.4-2.31 11.43 11.43 0 0 1 10.48-1.33z" fill="none" stroke="#fcc941" stroke-miterlimit="10" stroke-width="3.29"/><path d="M625.55 160.25c1.65.63 3.13 1.65 4.77 2.29a5.83 5.83 0 0 0 5.11 0c3.1-1.88 2.59-7.3 5.88-8.83a28.32 28.32 0 0 0 2.77-1c.84-.51 1.29-1.87.48-2.42-4-2.79-9.25-2.89-14-2.11s-9.48 2.35-14.33 2.54-9.65-1-14.5-1a7 7 0 0 0-4.27 1c-1.21.87-1.81 2.71-.9 3.89a8.58 8.58 0 0 1 7.83 4.66 23.31 23.31 0 0 0 1.28 2.72 5.15 5.15 0 0 0 6 1.9 18.21 18.21 0 0 0 3.4-2.31 11.43 11.43 0 0 1 10.48-1.33z" fill="#fcc941" opacity=".3"/><circle cx="554.81" cy="149.45" r="4.04" fill="#fff" stroke="#fcc941" stroke-miterlimit="10" stroke-width="3.29"/><circle cx="565.05" cy="153.49" r="4.04" fill="#fff" stroke="#fcc941" stroke-miterlimit="10" stroke-width="3.29"/><circle cx="556.97" cy="157.53" r="4.04" fill="#fff" stroke="#fcc941" stroke-miterlimit="10" stroke-width="3.29"/><circle cx="565.05" cy="162.32" r="4.04" fill="#fff" stroke="#fcc941" stroke-miterlimit="10" stroke-width="3.29"/><circle cx="547.76" cy="155.97" r="4.04" fill="#fff" stroke="#fcc941" stroke-miterlimit="10" stroke-width="3.29"/><circle cx="556.97" cy="165.6" r="4.04" fill="#fff" stroke="#fcc941" stroke-miterlimit="10" stroke-width="3.29"/><ellipse cx="615.63" cy="283.2" rx="55.82" ry="11.41" fill="#fff"/><ellipse cx="615.63" cy="283.2" rx="55.82" ry="11.41" fill="none" stroke="#fcc941" stroke-miterlimit="10" stroke-width="3.29"/><circle cx="600.01" cy="264.59" r="16.4" fill="#fff" stroke="#fcc941" stroke-miterlimit="10" stroke-width="3.29"/><circle cx="600.01" cy="264.59" r="16.4" fill="#fcc941" opacity=".3"/><circle cx="583.61" cy="280.98" r="16.4" fill="#fff" stroke="#fcc941" stroke-miterlimit="10" stroke-width="3.29"/><circle cx="583.61" cy="280.98" r="16.4" fill="#fcc941" opacity=".3"/><circle cx="632.03" cy="264.59" r="16.4" fill="#fff" stroke="#fcc941" stroke-miterlimit="10" stroke-width="3.29"/><circle cx="632.03" cy="264.59" r="16.4" fill="#fcc941" opacity=".3"/><circle cx="617.37" cy="283.2" r="16.4" fill="#fff" stroke="#fcc941" stroke-miterlimit="10" stroke-width="3.29"/><circle cx="651.67" cy="278.21" r="16.4" fill="#fff" stroke="#fcc941" stroke-miterlimit="10" stroke-width="3.29"/><circle cx="617.37" cy="283.2" r="16.4" fill="#fcc941" opacity=".3"/><circle cx="651.67" cy="278.21" r="16.4" fill="#fcc941" opacity=".3"/><path d="M671.46 283.53c0 25.13-18.78 45.8-46.93 48.29l-19.72-.2c-27.22-3.24-45-23.53-45-48.09 0 0 17.84 5.74 55.82 5.74s55.83-5.74 55.83-5.74z" fill="#fff" stroke="#fcc941" stroke-miterlimit="10" stroke-width="3.29"/><rect x="592.34" y="242.6" width="5.61" height="9.98" rx="1.64" transform="rotate(-16.24 594.978 247.55)" fill="#fff" stroke="#fcc941" stroke-miterlimit="10" stroke-width="3.29"/><rect x="620.9" y="263.39" width="5.61" height="9.98" rx="1.64" transform="matrix(.94 .33 -.33 .94 122.51 -189.7)" fill="#fff" stroke="#fcc941" stroke-miterlimit="10" stroke-width="3.29"/><rect x="642.13" y="250.1" width="5.61" height="9.98" rx="1.64" transform="rotate(74.66 644.913 255.063)" fill="#fff" stroke="#fcc941" stroke-miterlimit="10" stroke-width="3.29"/><rect x="580.81" y="274.21" width="5.61" height="5.85" rx="1.64" transform="rotate(-16.24 583.469 277.09)" fill="#fff" stroke="#fcc941" stroke-miterlimit="10" stroke-width="3.29"/><ellipse cx="474.95" cy="271.68" rx="50.01" ry="11.75" fill="#fff" stroke="#fcc941" stroke-miterlimit="10" stroke-width="3.29"/><path fill="#fff" stroke="#fcc941" stroke-miterlimit="10" stroke-width="3.29" d="M422.838 234.375l4.785-1.613 16.532 49.038-4.785 1.614z"/><path fill="#fff" stroke="#fcc941" stroke-miterlimit="10" stroke-width="3.2895065" d="M438.02 231.726l4.999-.707 7.245 51.232-5 .707z"/><path d="M486 332s-3.81 1.32-11.08 1.32-11.06-1.32-11.06-1.32a3.3 3.3 0 0 1-3.29-3.28v-14.81a3.3 3.3 0 0 1 3.29-3.29H486a3.3 3.3 0 0 1 3.29 3.29v14.79A3.3 3.3 0 0 1 486 332zM388.33 314.69c0 15.3-19.3 24.64-43.92 24.64s-45.24-7-45.24-24.64c0-17 20-16.46 44.58-16.46s44.58-3.67 44.58 16.46z" fill="#fff" stroke="#fcc941" stroke-miterlimit="10" stroke-width="3.29"/><path d="M388.33 314.69c0 15.3-19.3 24.64-43.92 24.64s-45.24-7-45.24-24.64c0-17 20-16.46 44.58-16.46s44.58-3.67 44.58 16.46z" fill="#fcc941" opacity=".3"/><path fill="#fff" stroke="#fcc941" stroke-miterlimit="10" stroke-width="3.29" d="M321.69 321.36l11.45 9.42 9.34-8.09"/><ellipse cx="344.41" cy="300.32" rx="46.25" ry="22.38" fill="#fff" stroke="#fcc941" stroke-miterlimit="10" stroke-width="3.29"/><path fill="#fff" stroke="#fcc941" stroke-miterlimit="10" stroke-width="3.29" d="M340.16 306.55l20.88 8.77 13.43-10.5"/><ellipse cx="344.41" cy="284.72" rx="46.25" ry="22.38" fill="#fff" stroke="#fcc941" stroke-miterlimit="10" stroke-width="3.29"/><path d="M300.27 277.15c-.81 2.6-11.31 10-6 12.24s19.79-1.18 22.19-.22c3.13 1.26 5.17 4.32 8.13 5.93 3.79 2 8.43 1.43 12.6.36s6.39-2.65 10.67-2.15c3.12.36 6 3.29 9 4.07s7.07 1.07 9.49-.93c1.47-1.21 3.88-4.7 5.38-5.87 4.32-3.39 8.85 3.34 12.65-.71 4.83-5.15 9.92-5 11-7.64s-3.21-5.8-5.44-6.85" fill="#fff" stroke="#fcc941" stroke-miterlimit="10" stroke-width="3.29"/><path d="M390 273.83c0 16.18-91.13 16.18-91.13 0s20.4-29.3 45.57-29.3S390 257.64 390 273.83z" fill="#fff" stroke="#fcc941" stroke-miterlimit="10" stroke-width="3.29"/><path d="M390 273.83c0 16.18-91.13 16.18-91.13 0s20.4-29.3 45.57-29.3S390 257.64 390 273.83z" fill="#fcc941" opacity=".3"/><path d="M525 272a50 50 0 0 1-100 0s16 5.91 50 5.91 50-5.91 50-5.91z" fill="#fff" stroke="#fcc941" stroke-miterlimit="10" stroke-width="3.29"/><path d="M441.83 309.46s16 1.16 33.12 1.16 33.11-1.16 33.11-1.16a50.15 50.15 0 0 0 13.09-18.3 321.69 321.69 0 0 1-46.2 3.29 321.93 321.93 0 0 1-46.21-3.29 50.15 50.15 0 0 0 13.09 18.3z" fill="#fcc941" opacity=".3"/><path d="M441.83 309.46s16 1.16 33.12 1.16 33.11-1.16 33.11-1.16a50.15 50.15 0 0 0 13.09-18.3 321.69 321.69 0 0 1-46.2 3.29 321.93 321.93 0 0 1-46.21-3.29 50.15 50.15 0 0 0 13.09 18.3z" fill="none" stroke="#fcc941" stroke-miterlimit="10" stroke-width="3.29"/><path d="M269 307.92c0 8.2-13.34 25.23-29.8 25.23s-29.81-17-29.81-25.23 13.35-14.83 29.81-14.83 29.8 6.64 29.8 14.83z" fill="#fff" stroke="#fcc941" stroke-miterlimit="10" stroke-width="3.29"/><path d="M269 307.92c0 8.2-13.34 13.1-29.8 13.1s-29.81-4.9-29.81-13.1 13.35-14.83 29.81-14.83 29.8 6.64 29.8 14.83z" fill="#fff" stroke="#fcc941" stroke-miterlimit="10" stroke-width="3.29"/><path d="M227 301.72c0 24.94-22.05 39.87-49.24 39.87s-49.24-14.93-49.24-39.87 22.05-42.26 49.24-42.26S227 276.78 227 301.72z" fill="#fff" stroke="#fcc941" stroke-miterlimit="10" stroke-width="3.29"/><path d="M207.58 280.68c0 8.2-13.34 13.1-29.8 13.1s-29.8-4.9-29.8-13.1 13.34-14.83 29.8-14.83 29.8 6.64 29.8 14.83z" fill="#fff" stroke="#fcc941" stroke-miterlimit="10" stroke-width="3.29"/><path d="M207.58 280.68c0 8.2-13.34 13.1-29.8 13.1s-29.8-4.9-29.8-13.1 13.34-14.83 29.8-14.83 29.8 6.64 29.8 14.83z" fill="#fcc941" opacity=".3"/><path d="M193.45 269.12l9.92-24.12a1.76 1.76 0 0 0-1-2.3l-2.07-.85a1.77 1.77 0 0 0-2.3 1l-9.92 24.18c-3.12.44-6.33 3.19-8 7.27-2.21 5.39 11.72 11.11 13.93 5.71 1.72-4.17 1.37-8.39-.56-10.89zM621.64 411.6a1.34 1.34 0 0 0-1.34-1.34h-13.81a1.35 1.35 0 0 0-1.35 1.34v58.85a8.25 8.25 0 0 0 16.5 0zM655.93 411.6a1.35 1.35 0 0 0-1.35-1.34h-13.81a1.34 1.34 0 0 0-1.34 1.34v58.85a8.25 8.25 0 0 0 16.5 0zM689.71 411.6a1.35 1.35 0 0 0-1.35-1.34h-13.81a1.34 1.34 0 0 0-1.34 1.34v58.85a8.25 8.25 0 1 0 16.5 0z" fill="#fff" stroke="#fcc941" stroke-miterlimit="10" stroke-width="3.29"/><path d="M605.14 444.27v26.18a8.25 8.25 0 0 0 16.5 0v-26.18z" fill="#fcc941" opacity=".3"/><path d="M713.55 416.89a1.36 1.36 0 0 0-1.35-1.35h-4.72a1.36 1.36 0 0 0-1.35 1.35v4.64H589.75v-4.64a1.36 1.36 0 0 0-1.35-1.35h-4.72a1.35 1.35 0 0 0-1.34 1.35v87.92a1.34 1.34 0 0 0 1.34 1.34H712.2a1.35 1.35 0 0 0 1.35-1.34zm-7.42 72.91H589.75v-60.54h116.38z" fill="#fff" stroke="#fcc941" stroke-miterlimit="10" stroke-width="3.29"/><path fill="none" stroke="#fcc941" stroke-miterlimit="10" stroke-width="3.29" d="M605.14 444.48h16.5"/><path d="M639.69 444.27v26.18a8.25 8.25 0 1 0 16.5 0v-26.18z" fill="#fcc941" opacity=".3"/><path fill="none" stroke="#fcc941" stroke-miterlimit="10" stroke-width="3.29" d="M639.69 444.48h16.5"/><path d="M673.21 444.27v26.18a8.25 8.25 0 1 0 16.5 0v-26.18z" fill="#fcc941" opacity=".3"/><path fill="none" stroke="#fcc941" stroke-miterlimit="10" stroke-width="3.29" d="M673.21 444.48h16.5"/><path d="M519.5 405.7a1.63 1.63 0 0 0-1.63-1.62H396.18a1.63 1.63 0 0 0-1.63 1.62v61.41h125zM533.48 495.21L520.32 469a1.63 1.63 0 0 0-1.63-1.63H395.32a1.63 1.63 0 0 0-1.62 1.63l-12.35 26.22a1.69 1.69 0 0 0 0 .24v13.74a1.63 1.63 0 0 0 1.62 1.62h148.88a1.63 1.63 0 0 0 1.63-1.62v-13.57h-.09a1.5 1.5 0 0 0 .09-.42z" fill="#fff"/><path fill="#fcc941" opacity=".3" d="M395.32 411.92h123.54v55.44H395.32z"/><rect x="250.62" y="405.78" width="9.22" height="105.02" rx="3.29" fill="#fff" stroke="#fcc941" stroke-miterlimit="10" stroke-width="3.29"/><rect x="263.29" y="405.78" width="9.22" height="93.57" rx="3.29" fill="#fff" stroke="#fcc941" stroke-miterlimit="10" stroke-width="3.29"/><rect x="276.07" y="405.78" width="9.22" height="80.61" rx="3.29" fill="#fff" stroke="#fcc941" stroke-miterlimit="10" stroke-width="3.29"/><rect x="288.74" y="405.78" width="9.22" height="72.64" rx="3.29" fill="#fff" stroke="#fcc941" stroke-miterlimit="10" stroke-width="3.29"/><rect x="301.6" y="405.78" width="9.22" height="64.51" rx="3.29" fill="#fff" stroke="#fcc941" stroke-miterlimit="10" stroke-width="3.29"/><rect x="314.26" y="405.78" width="9.22" height="55.75" rx="3.29" fill="#fff" stroke="#fcc941" stroke-miterlimit="10" stroke-width="3.29"/><rect x="327.05" y="405.78" width="9.22" height="45.65" rx="3.29" fill="#fff" stroke="#fcc941" stroke-miterlimit="10" stroke-width="3.29"/><rect x="248.26" y="418.85" width="90.75" height="5.93" rx="1.64" fill="#fff" stroke="#fcc941" stroke-miterlimit="10" stroke-width="3.29"/><rect x="248.26" y="418.85" width="90.75" height="5.93" rx="1.64" fill="#fcc941" opacity=".3"/><path d="M394.55 467.11V405.7a1.63 1.63 0 0 1 1.63-1.62h121.69a1.63 1.63 0 0 1 1.63 1.62v61.41M533.48 495.63v13.56a1.63 1.63 0 0 1-1.63 1.62H383a1.63 1.63 0 0 1-1.62-1.62v-13.74" fill="none" stroke="#fcc941" stroke-miterlimit="10" stroke-width="3.29"/><path d="M531.85 496.84H383a1.63 1.63 0 0 1-1.62-1.63L393.7 469a1.63 1.63 0 0 1 1.62-1.63h123.37a1.63 1.63 0 0 1 1.63 1.63l13.16 26.22a1.63 1.63 0 0 1-1.63 1.62zM395.32 411.92H519.5M523.13 472.99H391.87M408.15 472.99l-7.96 23.85" fill="none" stroke="#fcc941" stroke-miterlimit="10" stroke-width="3.29"/><rect x="454.08" y="473" width="7.28" height="14.44" rx="1.64" fill="none" stroke="#fcc941" stroke-miterlimit="10" stroke-width="3.29"/><rect x="467.53" y="473" width="7.28" height="14.44" rx="1.64" fill="none" stroke="#fcc941" stroke-miterlimit="10" stroke-width="3.29"/><path d="M493 487.43h-4a1.63 1.63 0 0 1-1.62-1.62l-1.48-11.19a1.63 1.63 0 0 1 1.62-1.62h4a1.63 1.63 0 0 1 1.62 1.62l1.48 11.19a1.63 1.63 0 0 1-1.62 1.62zM506.76 487.43h-4a1.63 1.63 0 0 1-1.63-1.62l-3.18-11.19a1.63 1.63 0 0 1 1.62-1.62h4a1.63 1.63 0 0 1 1.62 1.62l3.19 11.19a1.63 1.63 0 0 1-1.62 1.62zM520.92 487.43h-4a1.63 1.63 0 0 1-1.62-1.62l-5-11.19a1.63 1.63 0 0 1 1.62-1.62h4a1.63 1.63 0 0 1 1.62 1.62l5 11.19a1.63 1.63 0 0 1-1.62 1.62zM438.53 487.43h4a1.63 1.63 0 0 0 1.63-1.62l1.48-11.19A1.63 1.63 0 0 0 444 473h-4a1.63 1.63 0 0 0-1.63 1.62l-1.48 11.19a1.63 1.63 0 0 0 1.64 1.62zM424.76 487.43h4a1.63 1.63 0 0 0 1.62-1.62l3.19-11.19A1.63 1.63 0 0 0 432 473h-4a1.63 1.63 0 0 0-1.63 1.62l-3.18 11.19a1.63 1.63 0 0 0 1.57 1.62zM411.46 487.43h4a1.63 1.63 0 0 0 1.62-1.62l3.92-11.19a1.63 1.63 0 0 0-1.63-1.62h-4a1.63 1.63 0 0 0-1.63 1.62l-3.84 11.19a1.63 1.63 0 0 0 1.56 1.62z" fill="none" stroke="#fcc941" stroke-miterlimit="10" stroke-width="3.29"/><rect x="454.08" y="473" width="7.28" height="14.44" rx="1.64" fill="#fcc941" opacity=".3"/><rect x="467.53" y="473" width="7.28" height="14.44" rx="1.64" fill="#fcc941" opacity=".3"/><path d="M493 487.43h-4a1.63 1.63 0 0 1-1.62-1.62l-1.48-11.19a1.63 1.63 0 0 1 1.62-1.62h4a1.63 1.63 0 0 1 1.62 1.62l1.48 11.19a1.63 1.63 0 0 1-1.62 1.62zM506.76 487.43h-4a1.63 1.63 0 0 1-1.63-1.62l-3.18-11.19a1.63 1.63 0 0 1 1.62-1.62h4a1.63 1.63 0 0 1 1.62 1.62l3.19 11.19a1.63 1.63 0 0 1-1.62 1.62zM520.92 487.43h-4a1.63 1.63 0 0 1-1.62-1.62l-5-11.19a1.63 1.63 0 0 1 1.62-1.62h4a1.63 1.63 0 0 1 1.62 1.62l5 11.19a1.63 1.63 0 0 1-1.62 1.62zM438.53 487.43h4a1.63 1.63 0 0 0 1.63-1.62l1.48-11.19A1.63 1.63 0 0 0 444 473h-4a1.63 1.63 0 0 0-1.63 1.62l-1.48 11.19a1.63 1.63 0 0 0 1.64 1.62zM424.76 487.43h4a1.63 1.63 0 0 0 1.62-1.62l3.19-11.19A1.63 1.63 0 0 0 432 473h-4a1.63 1.63 0 0 0-1.63 1.62l-3.18 11.19a1.63 1.63 0 0 0 1.57 1.62zM411.46 487.43h4a1.63 1.63 0 0 0 1.62-1.62l3.92-11.19a1.63 1.63 0 0 0-1.63-1.62h-4a1.63 1.63 0 0 0-1.63 1.62l-3.84 11.19a1.63 1.63 0 0 0 1.56 1.62z" fill="#fcc941" opacity=".3"/><path fill="none" stroke="#fcc941" stroke-miterlimit="10" stroke-width="3.29" d="M388.67 479.67h16.44M385.33 488.09h17.78"/><circle cx="406.67" cy="423.91" r="4.5" fill="#fff" stroke="#fcc941" stroke-miterlimit="10" stroke-width="3.29"/><circle cx="471.17" cy="423.91" r="4.5" fill="#fff" stroke="#fcc941" stroke-miterlimit="10" stroke-width="3.29"/><circle cx="488.47" cy="423.91" r="4.5" fill="#fff" stroke="#fcc941" stroke-miterlimit="10" stroke-width="3.29"/><circle cx="505.71" cy="423.91" r="4.5" fill="#fff" stroke="#fcc941" stroke-miterlimit="10" stroke-width="3.29"/><circle cx="471.17" cy="439.04" r="4.5" fill="#fff" stroke="#fcc941" stroke-miterlimit="10" stroke-width="3.29"/><circle cx="488.47" cy="439.04" r="4.5" fill="#fff" stroke="#fcc941" stroke-miterlimit="10" stroke-width="3.29"/><circle cx="505.71" cy="439.04" r="4.5" fill="#fff" stroke="#fcc941" stroke-miterlimit="10" stroke-width="3.29"/><circle cx="471.17" cy="455.44" r="4.5" fill="#fff" stroke="#fcc941" stroke-miterlimit="10" stroke-width="3.29"/><circle cx="488.47" cy="455.44" r="4.5" fill="#fff" stroke="#fcc941" stroke-miterlimit="10" stroke-width="3.29"/><circle cx="505.71" cy="455.44" r="4.5" fill="#fff" stroke="#fcc941" stroke-miterlimit="10" stroke-width="3.29"/><circle cx="424.41" cy="423.91" r="3.45" fill="#fff" stroke="#fcc941" stroke-miterlimit="10" stroke-width="3.29"/><circle cx="424.41" cy="435.59" r="3.45" fill="#fff" stroke="#fcc941" stroke-miterlimit="10" stroke-width="3.29"/><circle cx="424.41" cy="447.28" r="3.45" fill="#fff" stroke="#fcc941" stroke-miterlimit="10" stroke-width="3.29"/><circle cx="437.83" cy="423.91" r="3.45" fill="#fff" stroke="#fcc941" stroke-miterlimit="10" stroke-width="3.29"/><circle cx="451.91" cy="423.91" r="3.45" fill="#fff" stroke="#fcc941" stroke-miterlimit="10" stroke-width="3.29"/><circle cx="451.91" cy="455.44" r="3.45" fill="#fff" stroke="#fcc941" stroke-miterlimit="10" stroke-width="3.29"/><circle cx="437.83" cy="435.59" r="3.45" fill="#fff" stroke="#fcc941" stroke-miterlimit="10" stroke-width="3.29"/><circle cx="406.67" cy="439.21" r="4.5" fill="#fff" stroke="#fcc941" stroke-miterlimit="10" stroke-width="3.29"/><circle cx="406.67" cy="455.44" r="4.5" fill="#fff" stroke="#fcc941" stroke-miterlimit="10" stroke-width="3.29"/><path fill="#fcc941" opacity=".3" d="M392.45 473l-11.1 23.84h18.84l7.96-23.85-15.7.01z"/><path d="M150.69 423.53c-26.62 0-48.2 8.3-48.2 18.53a7.3 7.3 0 0 0 .14 1.32h-.14v57.52c0 10.24 21.58 18.54 48.2 18.54s48.2-8.3 48.2-18.54v-58.84c0-10.23-21.58-18.53-48.2-18.53z" fill="#fff"/><path d="M111.13 503.38a53.83 53.83 0 0 0 12.24 4.72 112.86 112.86 0 0 0 13.14 2.42c5.17.68 10.26-.22 15.44.24 8.64.76 18.11-1 26.56-3.21 7.75-2 14.39-6.48 20.38-11.63V456c-7.42 6.54-14.84 9.11-25.45 11.69a94.75 94.75 0 0 1-24.18 2.77c-7.28-.19-36.52-1.37-46.77-16.75v43.6c3 1.86 5.51 4.39 8.64 6.07z" fill="#fcc941" opacity=".3"/><path d="M198.89 457.29V448c0-10.24-21.58-18.54-48.2-18.54s-48.2 8.3-48.2 18.54v9.28M198.89 483.63v9.27c0 10.24-21.58 18.54-48.2 18.54s-48.2-8.3-48.2-18.54v-9.27" fill="none" stroke="#fcc941" stroke-miterlimit="10" stroke-width="3.29"/><path d="M102.49 442.06v58.84c0 10.24 21.58 18.54 48.2 18.54s48.2-8.3 48.2-18.54v-49.56c0 10.24-21.58 18.54-48.2 18.54s-48.2-8.3-48.2-18.54z" fill="none" stroke="#fcc941" stroke-miterlimit="10" stroke-width="3.29"/><ellipse cx="150.69" cy="442.06" rx="48.2" ry="18.54" fill="none" stroke="#fcc941" stroke-miterlimit="10" stroke-width="3.29"/><rect x="147.28" y="465.36" width="6.84" height="48.61" rx="1.64" fill="#fff" stroke="#fcc941" stroke-miterlimit="10" stroke-width="3.29"/><rect x="177.46" y="463.07" width="6" height="46.08" rx="1.64" fill="#fff" stroke="#fcc941" stroke-miterlimit="10" stroke-width="3.29"/><rect x="196.98" y="453.26" width="6" height="46.08" rx="1.64" fill="#fff" stroke="#fcc941" stroke-miterlimit="10" stroke-width="3.29"/><rect x="99.14" y="453.26" width="6" height="46.08" rx="1.64" fill="#fff" stroke="#fcc941" stroke-miterlimit="10" stroke-width="3.29"/><rect x="116.06" y="462.23" width="6" height="46.08" rx="1.64" fill="#fff" stroke="#fcc941" stroke-miterlimit="10" stroke-width="3.29"/><path d="M139 440.76c3 2.55 6.53 3.38 7.81 1.86s-.15-4.82-3.19-7.37a10.5 10.5 0 0 0-5.55-2.61L89.5 391.87a1.27 1.27 0 0 0-1.78.15l-1 1.16a1.26 1.26 0 0 0 .16 1.78l48.56 40.78a10.46 10.46 0 0 0 3.56 5.02zM152.63 445c-2.17 3.32-2.58 6.89-.91 8s4.76-.73 6.93-4.05a10.48 10.48 0 0 0 1.92-5.83L195.2 390a1.26 1.26 0 0 0-.37-1.75l-1.26-.82a1.26 1.26 0 0 0-1.75.36l-34.64 53.12a10.44 10.44 0 0 0-4.55 4.09z" fill="#fff" stroke="#fcc941" stroke-miterlimit="10" stroke-width="3.29"/></svg>