<svg xmlns="http://www.w3.org/2000/svg" width="421" height="73" viewBox="0 0 421 73"><path d="M.66 73h413.11a7.25 7.25 0 0 0 7.23-7.23V12.13a7.25 7.25 0 0 0-7.23-7.23H.66z" opacity=".15"/><path d="M.41 68.25h408.36A7.26 7.26 0 0 0 416 61V7.38a7.26 7.26 0 0 0-7.23-7.23H.41z" fill="#fff"/><path d="M381.31 44.24a.18.18 0 0 1-.17-.18v-2.24a2.07 2.07 0 1 1 4.14 0v1h2.19a.18.18 0 0 1 .17.17v1.1a.18.18 0 0 1-.17.18zm2.62-2.34a.73.73 0 0 0-.74-.73.71.71 0 0 0-.69.73v.89h1.43zM381.31 38.85a.18.18 0 0 1-.17-.17v-1.15a.17.17 0 0 1 .17-.17h3.77a1.16 1.16 0 1 0 0-2.31h-3.77a.17.17 0 0 1-.17-.17v-1.15a.18.18 0 0 1 .17-.17h3.84a2.65 2.65 0 0 1 0 5.29zM381.31 32.06a.18.18 0 0 1-.17-.18v-1.1a.18.18 0 0 1 .17-.18h5v-2.21a.17.17 0 0 1 .17-.18h1a.17.17 0 0 1 .17.18v3.49a.18.18 0 0 1-.17.18zM381.31 27.31a.18.18 0 0 1-.17-.18V26a.18.18 0 0 1 .17-.17h5v-2.19a.17.17 0 0 1 .17-.18h1a.17.17 0 0 1 .17.18v3.49a.18.18 0 0 1-.17.18zM392.61 48.14l10.03-13.94-10.03-13.94v27.88z" fill="#333"/></svg>