<svg xmlns="http://www.w3.org/2000/svg" width="140" height="20" viewBox="0 0 140 20"><path d="M50 0a10 10 0 1 0 10 10A10 10 0 0 0 50 0zm7.5 10v.75a12.54 12.54 0 0 0-3.75-.62h-.63a10.6 10.6 0 0 0-.62-1.88A11.68 11.68 0 0 0 56 5.63 6.88 6.88 0 0 1 57.5 10zm-2.88-5.87a11.85 11.85 0 0 1-3.24 2.25A13.24 13.24 0 0 0 48 2.75a10.12 10.12 0 0 1 2-.25 7.62 7.62 0 0 1 4.62 1.63zm-8.87-.25a10.52 10.52 0 0 1 3.63 3.37 11 11 0 0 1-6.38 0 8.07 8.07 0 0 1 2.75-3.37zM42.5 10v-.75a12.74 12.74 0 0 0 3.75.5 15.22 15.22 0 0 0 4.13-.62c.24.5.37.87.62 1.37a12.62 12.62 0 0 0-6.75 4.25A7.16 7.16 0 0 1 42.5 10zm3.25 6.12a10.8 10.8 0 0 1 5.63-3.62v1.12a12.93 12.93 0 0 1-.63 3.75H50a6.28 6.28 0 0 1-4.25-1.25zm7.5.63a12.34 12.34 0 0 0 .38-3 4.56 4.56 0 0 0-.13-1.38h.25a10 10 0 0 1 3.25.5 8 8 0 0 1-3.75 3.88zM20 3.79a7.34 7.34 0 0 1-2.36.62 3.52 3.52 0 0 0 1.74-2.24 6.11 6.11 0 0 1-2.61 1 4.32 4.32 0 0 0-3-1.24A4.11 4.11 0 0 0 9.81 6a1.74 1.74 0 0 0 .13.87 11.19 11.19 0 0 1-8.45-4.2A3.82 3.82 0 0 0 1 4.78a4.57 4.57 0 0 0 2 3.36c-.62 0-1.61-.25-1.61-.5a3.89 3.89 0 0 0 3.1 4 4 4 0 0 1-1.24.13 2 2 0 0 1-.87-.13 4 4 0 0 0 3.73 2.86A8.15 8.15 0 0 1 1 16.21H0a11.78 11.78 0 0 0 6.34 1.86A11.5 11.5 0 0 0 17.89 6.52V6A7.21 7.21 0 0 0 20 3.79z" fill="#fff"/><path d="M22.5 0h-1.25A1.18 1.18 0 0 0 20 1.25v17.5A1.18 1.18 0 0 0 21.25 20h17.5A1.18 1.18 0 0 0 40 18.75V1.25A1.18 1.18 0 0 0 38.75 0zM30 7.5a2.5 2.5 0 1 1-2.5 2.5A2.51 2.51 0 0 1 30 7.5zm7.5 10h-15V10H25a5 5 0 0 0 10 0h2.5zm0-11.25h-3.75V2.5h3.75z" fill="#fff"/><path d="M69.88.29A9.93 9.93 0 0 0 60 10.17a10 10 0 0 0 6.75 9.4.54.54 0 0 0 .72-.49V17.4c-2.77.6-3.37-1.33-3.37-1.33a3.28 3.28 0 0 0-1.1-1.44c-.84-.61.12-.61.12-.61a2.52 2.52 0 0 1 1.57 1 2.09 2.09 0 0 0 2.89.84 2.71 2.71 0 0 1 .6-1.32c-2.29-.24-4.58-1.09-4.58-4.82a4 4 0 0 1 1-2.65 3.26 3.26 0 0 1 .12-2.65s.84-.25 2.77 1a14.9 14.9 0 0 1 2.41-.24 9.21 9.21 0 0 1 2.53.36c1.93-1.33 2.77-1 2.77-1a4 4 0 0 1 .12 2.65 4 4 0 0 1 1 2.65c0 3.85-2.29 4.58-4.46 4.82a2.51 2.51 0 0 1 .72 1.8v2.74c0 .25.12.61.72.49a9.88 9.88 0 0 0 6.7-9.4 10.32 10.32 0 0 0-10.12-10z" fill="#fff" fill-rule="evenodd"/><path fill="#fff" d="M84.88 9.11v1.78l1.33-.89-1.33-.89zM89.47 7.82V5.34l-4.16 2.78 1.86 1.24 2.3-1.54zM94.69 8.12l-4.16-2.78v2.48l2.3 1.54 1.86-1.24zM85.31 11.88l4.16 2.78v-2.48l-2.3-1.54-1.86 1.24zM90.53 12.18v2.48l4.16-2.78-1.86-1.24-2.3 1.54zM90 8.74L88.12 10 90 11.26 91.88 10 90 8.74z"/><path d="M90 0a10 10 0 1 0 10 10A10 10 0 0 0 90 0zm6.18 11.88V12l-5.66 3.76a.51.51 0 0 1-.58 0L84.28 12V8l5.66-3.76a.51.51 0 0 1 .58 0L96 7.67V11.86z" fill="#fff"/><path fill="#fff" d="M95.12 10.89V9.11l-1.33.89 1.33.89z"/><path d="M109.88.29a9.93 9.93 0 0 0-9.88 9.88 10 10 0 0 0 6.75 9.4.54.54 0 0 0 .72-.49V17.4c-2.77.6-3.37-1.33-3.37-1.33a3.28 3.28 0 0 0-1.1-1.44c-.84-.61.12-.61.12-.61a2.52 2.52 0 0 1 1.57 1 2.09 2.09 0 0 0 2.89.84 2.71 2.71 0 0 1 .6-1.32c-2.29-.24-4.58-1.09-4.58-4.82a4 4 0 0 1 1-2.65 3.26 3.26 0 0 1 .12-2.65s.84-.25 2.77 1a14.9 14.9 0 0 1 2.41-.24 9.21 9.21 0 0 1 2.53.36c1.93-1.33 2.77-1 2.77-1a4 4 0 0 1 .12 2.65 4 4 0 0 1 1 2.65c0 3.85-2.29 4.58-4.46 4.82a2.51 2.51 0 0 1 .72 1.8v2.74c0 .25.12.61.72.49a9.88 9.88 0 0 0 6.75-9.4 10.32 10.32 0 0 0-10.17-10z" fill-rule="evenodd"/><path d="M140 3.77a7.22 7.22 0 0 1-2.37.62 3.52 3.52 0 0 0 1.75-2.24 6.22 6.22 0 0 1-2.62 1 4.31 4.31 0 0 0-3-1.25 4.13 4.13 0 0 0-4 4.11 1.83 1.83 0 0 0 .13.87 11.22 11.22 0 0 1-8.48-4.23 3.83 3.83 0 0 0-.5 2.12 4.56 4.56 0 0 0 2 3.36c-.62 0-1.62-.25-1.62-.5a3.91 3.91 0 0 0 3.11 4 4.29 4.29 0 0 1-1.24.12 2.11 2.11 0 0 1-.87-.12 4 4 0 0 0 3.71 2.86 8.19 8.19 0 0 1-5.11 1.74H120a11.75 11.75 0 0 0 6.36 1.87 11.53 11.53 0 0 0 11.58-11.49V6A7.23 7.23 0 0 0 140 3.77z" fill="#5db2a5"/></svg>