<svg xmlns="http://www.w3.org/2000/svg" width="575" height="350" viewBox="0 0 575 350"><defs><linearGradient id="a" x1="309.41" y1="174.69" x2="283.85" y2="174.69" gradientUnits="userSpaceOnUse"><stop offset="0" stop-opacity="0"/><stop offset="1"/></linearGradient><clipPath id="b"><path fill="none" d="M74.01 34.8h209.84v279.79H74.01z"/></clipPath></defs><path fill="#50d6cc" d="M-8.06-9.71h587.18V359.7H-8.06z"/><path fill="none" stroke-dasharray="2.8 5.6" stroke-linecap="round" stroke-linejoin="round" stroke-width="2.24" stroke="#fff" d="M517.74 103.34H477.7M517.74 114.85H477.7M517.74 149.36H477.7M517.74 199.47H477.7M517.74 246.32H477.7"/><path fill="none" stroke="#fff" stroke-linecap="round" stroke-linejoin="round" stroke-width="2.24" d="M492.05 34.8h1.4"/><path fill="none" stroke-dasharray="3.23 6.45" stroke-linecap="round" stroke-linejoin="round" stroke-width="2.24" stroke="#fff" d="M499.9 34.8h16.14"/><path fill="none" stroke="#fff" stroke-linecap="round" stroke-linejoin="round" stroke-width="2.24" d="M519.27 34.8h1.4v1.4"/><path fill="none" stroke-dasharray="2.83 5.65" stroke-linecap="round" stroke-linejoin="round" stroke-width="2.24" stroke="#fff" d="M520.67 41.85v268.51"/><path fill="none" stroke="#fff" stroke-linecap="round" stroke-linejoin="round" stroke-width="2.24" d="M520.67 313.19v1.4h-1.4"/><path fill="none" stroke-dasharray="3.23 6.45" stroke-linecap="round" stroke-linejoin="round" stroke-width="2.24" stroke="#fff" d="M512.81 314.59h-16.13"/><path fill="none" stroke="#fff" stroke-linecap="round" stroke-linejoin="round" stroke-width="2.24" d="M493.45 314.59h-1.4"/><rect x="72.61" y="33.4" width="422.48" height="282.59" rx="1.4" fill="#fff"/><path d="M493.69 34.8v279.79H74V34.8h419.69m0-2.8H74a2.8 2.8 0 0 0-2.8 2.8v279.79a2.79 2.79 0 0 0 2.8 2.79h419.69a2.79 2.79 0 0 0 2.8-2.79V34.8a2.8 2.8 0 0 0-2.8-2.8z"/><path d="M350.52 176.41H307.9c0-.57.07-1.14.07-1.72s0-1.15-.07-1.72h42.62a2.74 2.74 0 1 0 0-5.48h-43.64a23.42 23.42 0 0 0-1.38-3.49h33.17a2.74 2.74 0 1 0 0-5.48h-36.85q-.9-1-1.89-1.89v-37a2.74 2.74 0 1 0-5.48 0V153a24.16 24.16 0 0 0-3.42-1.37v-43.87a2.74 2.74 0 1 0-5.48 0v42.79c-.56 0-1.13-.06-1.7-.06s-1.14 0-1.7.06v-42.79a2.74 2.74 0 1 0-5.48 0v43.82a23.57 23.57 0 0 0-3.41 1.37v-33.29a2.75 2.75 0 0 0-5.49 0v37a25.78 25.78 0 0 0-1.88 1.89H229a2.74 2.74 0 1 0 0 5.48h33.2a24.57 24.57 0 0 0-1.38 3.45h-43.64a2.74 2.74 0 0 0 0 5.48h42.62c0 .57-.07 1.14-.07 1.72s0 1.15.07 1.72h-42.62a2.74 2.74 0 0 0 0 5.48h43.64a24.57 24.57 0 0 0 1.38 3.45H229a2.74 2.74 0 1 0 0 5.48h36.85a24.08 24.08 0 0 0 1.88 1.9v37a2.75 2.75 0 0 0 5.49 0v-33.28a23.57 23.57 0 0 0 3.41 1.37v43.82a2.74 2.74 0 0 0 5.48 0v-42.79c.56 0 1.13.07 1.7.07s1.14 0 1.7-.07v42.79a2.74 2.74 0 1 0 5.48 0V197.8a24.16 24.16 0 0 0 3.42-1.37v33.29a2.74 2.74 0 0 0 5.48 0v-37a26.07 26.07 0 0 0 1.89-1.9h36.85a2.74 2.74 0 1 0 0-5.48H305.5a23.42 23.42 0 0 0 1.38-3.45h43.64a2.74 2.74 0 1 0 0-5.48z" fill="none" stroke="#000" stroke-miterlimit="10" stroke-width="1.12"/><ellipse cx="283.85" cy="174.69" rx="20.69" ry="20.78" fill="none" stroke="#000" stroke-miterlimit="10" stroke-width="1.12"/><path fill="none" stroke="#50d6cc" stroke-linecap="round" stroke-linejoin="round" stroke-width="2.24" d="M211.69 103.34h1.39"/><path fill="none" stroke-dasharray="2.82 5.65" stroke-linecap="round" stroke-linejoin="round" stroke-width="2.24" stroke="#50d6cc" d="M218.73 103.34h268.35"/><path fill="none" stroke="#50d6cc" stroke-linecap="round" stroke-linejoin="round" stroke-width="2.24" d="M489.91 103.34h1.39M211.69 114.85h1.39"/><path fill="none" stroke-dasharray="2.82 5.65" stroke-linecap="round" stroke-linejoin="round" stroke-width="2.24" stroke="#50d6cc" d="M218.73 114.85h268.35"/><path fill="none" stroke="#50d6cc" stroke-linecap="round" stroke-linejoin="round" stroke-width="2.24" d="M489.91 114.85h1.39M211.69 149.36h1.39"/><path fill="none" stroke-dasharray="2.82 5.65" stroke-linecap="round" stroke-linejoin="round" stroke-width="2.24" stroke="#50d6cc" d="M218.73 149.36h268.35"/><path fill="none" stroke="#50d6cc" stroke-linecap="round" stroke-linejoin="round" stroke-width="2.24" d="M489.91 149.36h1.39M211.69 199.47h1.39"/><path fill="none" stroke-dasharray="2.82 5.65" stroke-linecap="round" stroke-linejoin="round" stroke-width="2.24" stroke="#50d6cc" d="M218.73 199.47h268.35"/><path fill="none" stroke="#50d6cc" stroke-linecap="round" stroke-linejoin="round" stroke-width="2.24" d="M489.91 199.47h1.39M211.69 246.32h1.39"/><path fill="none" stroke-dasharray="2.82 5.65" stroke-linecap="round" stroke-linejoin="round" stroke-width="2.24" stroke="#50d6cc" d="M218.73 246.32h268.35"/><path fill="none" stroke="#50d6cc" stroke-linecap="round" stroke-linejoin="round" stroke-width="2.24" d="M489.91 246.32h1.39"/><path fill="none" stroke-dasharray="2.8 5.6" stroke-linecap="round" stroke-linejoin="round" stroke-width="2.24" stroke="#50d6cc" d="M354.1 38.77l1.11 276.43"/><path opacity=".6" fill="url(#a)" d="M283.85 34.8h25.56v279.79h-25.56z"/><g clip-path="url(#b)"><path fill="gold" d="M74.01 34.8h419.68v279.79H74.01z"/><path d="M338.88 188.08H228.82m122-8.93h-133.9m133.86-8.92H216.92m122-8.93h-110.1M270.46 229.72V119.66m8.93 122v-133.9m8.92 133.86V107.76m8.93 122v-110.1" stroke="#bf0a30" stroke-linecap="round" stroke-width="5.95"/><circle cx="283.85" cy="174.69" r="22.49" fill="gold" stroke="#bf0a30" stroke-width="3.72"/></g></svg>