<svg xmlns="http://www.w3.org/2000/svg" width="575" height="350" viewBox="0 0 575 350"><defs><clipPath id="a"><rect x="138.75" y="78.8" width="297.94" height="198.19" rx="7.94" fill="none"/></clipPath></defs><path fill="#cbedef" d="M-5.81-6.55H580.8v363.11H-5.81z"/><rect x="146.72" y="87.74" width="297.94" height="198.19" rx="7.94" fill="#b1ced0"/><g clip-path="url(#a)"><path fill="#f4eb93" d="M130.54 75.98h317.8v104.28h-317.8z"/><path fill="#b9545e" d="M287.72 179.94l175.27-40.73v40.7H287.72M397.14 70.39L292.25 175.94l171.4-84.71-12.9-20.84h-53.61z"/><path fill="#b9545e" d="M324.68 70.72l-36.96 109.22 70.05-110.21-33.09.99zM273.73 69.06l13.99 102.25 16.24-104.89-30.23 2.64z"/><path fill="#b9545e" d="M216.16 70.06l74.53 111.8-41.45-116.1-33.08 4.3zM110.92 88.46l176.8 91.48L167.51 60.96l-56.59 27.5z"/><path fill="#b9545e" d="M127.89 138.96l166.05 41.59H128.09l-.2-41.59z"/><path fill="#475163" d="M130.54 177.89h317.8v104.28h-317.8z"/><path fill="#bc8e68" d="M258.27 169.21h21.7l7.75-21.35 8.61 21.35h20.63l-16.71 12.95 8.18 23.33-20.71-15.11-19.31 15.11 7.82-23.33-17.96-12.95z"/></g></svg>