<svg xmlns="http://www.w3.org/2000/svg" width="432" height="200" viewBox="0 0 432 200"><rect x="-20.17" y="-233.44" width="663.44" height="676.75" fill="#5db2a5"/><path d="M132.77,162.72H131c0,8,.18,18,4,25.08l1.64,3.09s-5.82-.37-21.26-.37c-15.63,0-21.45.37-21.45.37l1.64-3.09c3.27-6.36,4-16,4-25.08H41c0-12.9,0-27.08,18.54-45.07L73,104.75c22.71-22.17,26.89-27.44,26.89-38,0-6.73-2.18-8.54-2.18-8.54s6.18.36,18.54.36c11.81,0,18.17-.36,18.17-.36v1.45c0,22.53-4.91,31.26-33.62,52.88L86.25,123.65c-8.9,6.54-14.72,11.26-14.72,17.81h28V132c7.63-1.09,28.71-11.63,31.44-15.27v24.72h1.81c10.91,0,15.45-2,15.45-2s-.18,4.36-.18,12.9c0,8.18.18,12.36.18,12.36S143.31,162.72,132.77,162.72Z" fill="#f4e04e"/><path d="M216.18,193.07c-38,0-52.15-24.54-52.15-62.34,0-36,14-62.69,53.06-62.69,38.16,0,52.34,24.35,52.34,62.15C269.43,166.17,255.25,193.07,216.18,193.07Zm.73-107c-8.73,0-13.63,4.18-16.36,12.9-2.36,7.82-3.27,19.27-3.27,31.62,0,32.53,4.91,44.34,19.08,44.34,8.36,0,13.27-3.63,16-11.26,2.91-7.82,3.64-19.81,3.64-33.26C236,97.84,231.26,86,216.91,86Z" fill="#f4e04e"/><path d="M375.55,162.72h-1.82c0,8,.19,18,4,25.08l1.64,3.09s-5.82-.37-21.26-.37c-15.63,0-21.45.37-21.45.37l1.64-3.09c3.27-6.36,4-16,4-25.08H283.78c0-12.9,0-27.08,18.54-45.07l13.44-12.9c22.72-22.17,26.9-27.44,26.9-38,0-6.73-2.18-8.54-2.18-8.54s6.18.36,18.53.36c11.82,0,18.18-.36,18.18-.36v1.45c0,22.53-4.91,31.26-33.62,52.88L329,123.65c-8.9,6.54-14.72,11.26-14.72,17.81h28V132c7.63-1.09,28.71-11.63,31.43-15.27v24.72h1.82c10.9,0,15.45-2,15.45-2s-.18,4.36-.18,12.9c0,8.18.18,12.36.18,12.36S386.09,162.72,375.55,162.72Z" fill="#f4e04e"/></svg>