<?xml version="1.0" encoding="UTF-8"?><svg id="hero" xmlns="http://www.w3.org/2000/svg" width="200" height="300" xmlns:xlink="http://www.w3.org/1999/xlink" viewBox="0 0 200 300"><defs><clipPath id="clippath"><rect width="200" height="300" fill="none"/></clipPath></defs><g clip-path="url(#clippath)"><g><path d="M52.84,173.89c-4.23,1.61-7.73,6.3-9.18,10.59l27.01,2.18-3.92-10.71c-3.06-1.75-11.88-2.83-13.9-2.06Z" fill="#ffb29a" stroke="#14303f" stroke-linecap="round" stroke-miterlimit="10"/><path d="M67.47,175.07c6.83-16.54,29.99-12.49,26.67,6.65-2.28,13.53-5.96,33.07-24.76,27.27" fill="#ffb29a" stroke="#14303f" stroke-linecap="round" stroke-miterlimit="10"/><path d="M65.06,183.05c-22.51-14.51-33.62,8.47-.68,24.1,11.44,7.02,21.25-5.26,22.51-16.08,7.37-21.79-17.88-33.45-21.83-8.02" fill="#ffb29a" stroke="#14303f" stroke-linecap="round" stroke-miterlimit="10"/><g><path d="M56.99,192.39c1.31,2.32,2.36,4.81,3.58,7.18" fill="none" stroke="#ff5f5f" stroke-linecap="round" stroke-miterlimit="10"/><path d="M57.03,192.5c1.1-.52,2.23-.97,3.38-1.37" fill="none" stroke="#ff5f5f" stroke-linecap="round" stroke-miterlimit="10"/><path d="M58.68,195.73c.96-.09,1.9-.34,2.76-.76" fill="none" stroke="#ff5f5f" stroke-linecap="round" stroke-miterlimit="10"/><path d="M63.91,190.08c-.72,3,2.38,10.67,5.1,5.4,1.02-2.96-2.38-7.91-5.47-5.43" fill="none" stroke="#ff5f5f" stroke-linecap="round" stroke-miterlimit="10"/><path d="M70.67,186.66c-1.97,4.08,4.59,10.2,4.61,4.34-.83-2.02-1.25-5.49-4.61-4.34" fill="none" stroke="#ff5f5f" stroke-linecap="round" stroke-miterlimit="10"/><path d="M76.24,183.9c.27,.46,2.5,6.17,2.77,6.83" fill="none" stroke="#ff5f5f" stroke-linecap="round" stroke-miterlimit="10"/><path d="M76.25,184.05c5.37-3.27,8.23,4.33,3.09,6.63" fill="none" stroke="#ff5f5f" stroke-linecap="round" stroke-miterlimit="10"/></g></g><g><path d="M132.9,47.93c-5.77-6.31-13-5.28-20.31-3.15-4.25-9.52-13.03-14.77-22.03-9.27l10.82,12.31-8.7,23.62c3.33,5.59,11.57,10.42,16.64,8.64,12.22-3.86,34.38-17.39,23.58-32.15Z" fill="#00ced4" stroke="#14303f" stroke-linecap="round" stroke-miterlimit="10"/><path d="M125.74,46.7c-5.4-5.32-14.21-2.1-19.04,2.49-.23-9.23-14.14-21.46-19.83-9.42-3.03,12.85,1.55,39.75,19.6,36.32,10.62-3.8,28.9-16.96,19.27-29.39Z" fill="#00ced4" stroke="#14303f" stroke-linecap="round" stroke-miterlimit="10"/><g><g><path d="M94.59,50.87c-.83,2.89-1.6,5.79-2.32,8.71" fill="none" stroke="#c18f2c" stroke-linecap="round" stroke-miterlimit="10"/><path d="M94.19,50.94c4.79-.75,4.19,5.96-.22,3.62" fill="none" stroke="#c18f2c" stroke-linecap="round" stroke-miterlimit="10"/><path d="M100.86,52.59c-4.35,8.95,2.71,13.54,4.31,2.06" fill="none" stroke="#c18f2c" stroke-linecap="round" stroke-miterlimit="10"/><path d="M108.8,55.44c-.84,2.67-1.71,5.32-2.61,7.97" fill="none" stroke="#c18f2c" stroke-linecap="round" stroke-miterlimit="10"/><path d="M108.4,55.42c5.34-2.36,4.85,6.71-.14,3.36" fill="none" stroke="#c18f2c" stroke-linecap="round" stroke-miterlimit="10"/><path d="M118.17,58.09c-.89-3.85-4.74-1.5-3.73,1.58,.73,1.25,2.32,2.04,2.95,3.38,0,3.45-3.51,2.95-4.98,.64" fill="none" stroke="#c18f2c" stroke-linecap="round" stroke-miterlimit="10"/></g><g><path d="M94.59,50.87c-.83,2.89-1.6,5.79-2.32,8.71" fill="none" stroke="#ff5f5f" stroke-linecap="round" stroke-miterlimit="10"/><path d="M94.19,50.94c4.79-.75,4.19,5.96-.22,3.62" fill="none" stroke="#ff5f5f" stroke-linecap="round" stroke-miterlimit="10"/><path d="M100.86,52.59c-4.35,8.95,2.71,13.54,4.31,2.06" fill="none" stroke="#ff5f5f" stroke-linecap="round" stroke-miterlimit="10"/><path d="M108.8,55.44c-.84,2.67-1.71,5.32-2.61,7.97" fill="none" stroke="#ff5f5f" stroke-linecap="round" stroke-miterlimit="10"/><path d="M108.4,55.42c5.34-2.36,4.85,6.71-.14,3.36" fill="none" stroke="#ff5f5f" stroke-linecap="round" stroke-miterlimit="10"/><path d="M118.17,58.09c-.89-3.85-4.74-1.5-3.73,1.58,.73,1.25,2.32,2.04,2.95,3.38,0,3.45-3.51,2.95-4.98,.64" fill="none" stroke="#ff5f5f" stroke-linecap="round" stroke-miterlimit="10"/></g></g></g><g><path d="M167.42,75.61c.05-2.09-2.1-2.85-3.04-4.4-.45-.87-.36-1.99-.96-2.76-5.5-3.34-12.79-.89-14.54,5.58-2.3,1.78-3.07,5.57-.76,7.69,.54,2.06,2.39,3.3,4.01,1.37l-.1,.15c1.42-1.74,.41-4.25,2.46-5.68,1.05-.92,.86-3.09,2.41-3.36,1.55,.11,4.31-.24,4.14,2.06,.24,1.02,1.82,1.69,1.42,2.87l5.45-.17c-.16-1.12-.31-2.23-.47-3.35Z" fill="#ffb29a" stroke="#14303f" stroke-linecap="round" stroke-linejoin="round"/><path d="M154.45,72.43c-.21,.15-.11,.03-.25,.12,.11-.34-.38-.49-.4-.48-.08-.4-.96,.19-1.31-.12-.12-.23-.63-.23-.69-.5,.21,.02-.15-.06-.11,.22-.03-.09-.29,.31-.63,.37-1.56-2.16-.32-3.35,1.7-1.67,.82,.03,2.39,1.09,1.69,2.06Z" fill="#14303f" fill-rule="evenodd"/><path d="M152.29,77.15c-.2,.16-.11,.04-.25,.13,.09-.46-.42-.32-.36-.56-.17-.18-.84-.2-1.26-.24-.36-.2-.63-1.02-1.02-.44-.25,.05-.66,.22-1.06,.11-.43-.44,.55-3.07,.94-2.15,1.09,.28,3.86,2.07,3.01,3.16Z" fill="#14303f" fill-rule="evenodd"/><path d="M161.13,73.78c-.19-.18-.05-.1-.16-.22,.31,.09,.41-.43,.4-.44,.39-.03-.13-.99,.22-1.23,.15-.46,1.08-.62,.7-1.08,.05,.02,.04-.39-.03-.5-.01-.08,.25-.06,.13-.19,2.1,.4,3.06,1.07,.75,2.25-.21,.58-1.14,1.95-2,1.41Z" fill="#14303f" fill-rule="evenodd"/><path d="M163.96,76.13c-.1-.24-.01-.11-.06-.26,.22,.21,.53-.2,.51-.19,.31,.19,.3-.87,.68-.86,.33-.25,1.09,.13,1.01-.44,.07,.06,.14-.28,.29-.34-.04-.27,.24,.02,.28-.19,.65,.53,.82,1.66,.93,2.32-.23,0-.56-.08-.9-.14-.68,.02-1.02,.23-1.34,.5-.64-.16-1.07,.24-1.4-.4Z" fill="#14303f" fill-rule="evenodd"/><path d="M157.86,71.64c-.26-.05-.1-.05-.26-.1,.4-.23-.06-.49,.16-.6,0-.24-.44-.68-.74-.96-.19-.41,.12-1.4-.45-1.22-1.07-.41-1.08-2.08,.52-1.51,1.06-.44,.92-.19,.92-.19,.38,.74,.2,2,.68,2.58,0,.61,.07,2.01-.83,2.01Z" fill="#14303f" fill-rule="evenodd"/><path d="M164.95,86.95c3.47-.32,3.88-5.46,2.84-8.16l-5.6,.44c-.39,1.92-.08,4.18,.34,5.95-2.17,.14-8.22,12.9-4.16,13.08l1.46-1.48c2.83,3.64,4.84-8.02,5.11-9.83Z" fill="#ff5f5f" stroke="#14303f" stroke-linecap="round" stroke-linejoin="round"/><path d="M159.84,96.78c.92-2.41,1.79-4.84,2.59-7.28" fill="#eaebef" stroke="#14303f" stroke-linejoin="round" stroke-width=".5"/></g><g><path d="M191.25,3.82c-.36-5.41-4.62-10.63-8.75-14.15-4.13-3.52-8.65-7.27-9.9-12.55-.1,3.92-.22,7.92-1.57,11.61-.63,1.71-1.53,3.42-1.42,5.24s3.57,3.08,3.57,3.08c0,0-2.5,3.17-2.15,4.81s4.58,3.11,4.58,3.11c0,0-2.53,3.08-1.89,4.82,.63,1.74,4.39,.87,4.39,.87,0,0,.2,4.28,1.75,4.81s4.25-1.95,4.64-3.53" fill="#fff" stroke="#14303f" stroke-linejoin="round"/><path d="M183.65,8.06c.88,4.33,1.75,8.85,.61,13.12-.74,2.74-2.29,5.32-2.29,8.16,0,3.47,2.33,6.5,3.08,9.89,.59,2.64,.2,5.41,.55,8.09,.52,3.92,2.58,7.44,4.6,10.84-.15-3.47,1.28-6.98,3.81-9.36,1.93-1.81,4.47-3.03,5.88-5.27,1.86-2.97,1.19-6.86,2.27-10.19,.94-2.92,3.15-5.23,4.69-7.89,1.78-3.09,2.64-6.71,2.44-10.27l-10.89-6.33-14.75-.79Z" fill="#f9ba19"/><path d="M184.66,14.11c1.34-.18,3.65-.33,4.76,.44,1.01,.69,1.45,2,1.41,3.22-.05,1.49-.74,2.97-1.94,3.86-1.2,.89-3.56,1.11-4.9,.46" fill="#ff5f5f"/><path d="M199.71,43.81c-1.02-1.13-3.43-2.35-4.93-2.06s-2.81,1.45-3.21,2.93c-.4,1.47,.6,3.69,1.84,4.58" fill="#ff5f5f"/><path d="M204.73,6.78c-7.05-1.75-16.34-3.77-22.28-4.2l-.2,.46c-.06,.88-.22,3.88-.05,4.25,.29,.63,13.91,3.3,22.53,5.91V6.78Z" fill="#ffb29a" stroke="#14303f" stroke-linejoin="round"/><path d="M183.65,8.06c.88,4.33,1.75,8.85,.61,13.12-.74,2.74-2.29,5.32-2.29,8.16,0,3.47,2.33,6.5,3.08,9.89,.59,2.64,.2,5.41,.55,8.09,.52,3.92,2.58,7.44,4.6,10.84-.15-3.47,1.28-6.98,3.81-9.36,1.93-1.81,4.47-3.03,5.88-5.27,1.86-2.97,1.19-6.86,2.27-10.19,.94-2.92,3.15-5.23,4.69-7.89,1.78-3.09,2.64-6.71,2.44-10.27" fill="none" stroke="#14303f" stroke-linejoin="round"/><path d="M184.66,14.11c1.34-.18,3.65-.33,4.76,.44,1.01,.69,1.45,2,1.41,3.22-.05,1.49-.74,2.97-1.94,3.86-1.2,.89-3.56,1.11-4.9,.46" fill="none" stroke="#14303f" stroke-linejoin="round" stroke-width=".5"/><path d="M196.21,30.76c-.45-1.44-1.7-2.6-3.17-2.93l-.4-.24c-2.13-.34-4.2,1.68-4.18,3.83,.02,2.15,1.85,4.05,3.97,4.44,.57,.1,1.17,.11,1.72-.09,.43-.16,.8-.45,1.11-.79,1.03-1.1,1.41-2.77,.96-4.21Z" fill="#ff5f5f" stroke="#14303f" stroke-linejoin="round" stroke-width=".5"/><path d="M199.71,43.81c-1.02-1.13-3.43-2.35-4.93-2.06s-2.81,1.45-3.21,2.93c-.4,1.47,.6,3.69,1.84,4.58" fill="none" stroke="#14303f" stroke-linejoin="round" stroke-width=".5"/></g><path d="M191.25,303.82c-.36-5.41-4.62-10.63-8.75-14.15-4.13-3.52-8.65-7.27-9.9-12.55-.1,3.92-.22,7.92-1.57,11.61-.63,1.71-1.53,3.42-1.42,5.24s3.57,3.08,3.57,3.08c0,0-2.5,3.17-2.15,4.81s4.58,3.11,4.58,3.11c0,0-2.53,3.08-1.89,4.82,.63,1.74,4.39,.87,4.39,.87,0,0,.2,4.28,1.75,4.81s4.25-1.95,4.64-3.53" fill="#fff" stroke="#14303f" stroke-linejoin="round"/><g><path d="M6.59,7.25c3.51-2.92,9.03-3.87,13.26-5.59,6.37-2.59,11.47-8.14,13.52-14.71,.72,3.59,1.4,7.18,2.04,10.79,.25,1.43,.47,3.02-.35,4.22-.83,1.22-3.88,1.88-3.88,1.88,0,0,3.42,2.48,3.11,4.14s-4.63,2.05-4.63,2.05c0,0,.78,4.36-1.01,5.44-1.78,1.08-5.28-1.64-5.28-1.64,0,0-.74,3.39-2.31,3.91s-4.31-1.63-4.31-1.63c0,0-1.47,3.75-3.36,3.96s-4.16-3.12-4.16-3.12" fill="#fff" stroke="#14303f" stroke-linejoin="round"/><path d="M-16.35,8.06c.88,4.33,1.75,8.85,.61,13.12-.74,2.74-2.29,5.32-2.29,8.16,0,3.47,2.33,6.5,3.08,9.89,.59,2.64,.2,5.41,.55,8.09,.52,3.92,2.58,7.44,4.6,10.84-.15-3.47,1.28-6.98,3.81-9.36,1.93-1.81,4.47-3.03,5.88-5.27,1.86-2.97,1.19-6.86,2.27-10.19,.94-2.92,3.15-5.23,4.69-7.89,1.78-3.09,2.64-6.71,2.44-10.27L-1.61,8.86l-14.75-.79Z" fill="#f9ba19"/><path d="M14.52,9.49c-.2-.28-21.46-6.14-32.07-6.9l-.2,.46c-.06,.88-.22,3.88-.05,4.25,.33,.72,18.23,4.14,25.97,7.05,1.78,.67,3.93,1.88,5.46,.77,1.53-1.12,1.11-5.34,.89-5.64Z" fill="#ffb29a" stroke="#14303f" stroke-linejoin="round"/><path d="M8.9,20.07c-1.42-.75-4.12-1.21-5.28-.09-.42,.41-.7,.95-.9,1.51-.38,1.07-.51,2.25-.18,3.33s1.86,2.39,2.94,2.72" fill="#ff5f5f"/><path d="M-16.35,8.06c.88,4.33,1.75,8.85,.61,13.12-.74,2.74-2.29,5.32-2.29,8.16,0,3.47,2.33,6.5,3.08,9.89,.59,2.64,.2,5.41,.55,8.09,.52,3.92,2.58,7.44,4.6,10.84-.15-3.47,1.28-6.98,3.81-9.36,1.93-1.81,4.47-3.03,5.88-5.27,1.86-2.97,1.19-6.86,2.27-10.19,.94-2.92,3.15-5.23,4.69-7.89,1.78-3.09,2.64-6.71,2.44-10.27" fill="none" stroke="#14303f" stroke-linejoin="round"/><path d="M8.9,20.07c-1.42-.75-4.12-1.21-5.28-.09-.42,.41-.7,.95-.9,1.51-.38,1.07-.51,2.25-.18,3.33s1.86,2.39,2.94,2.72" fill="none" stroke="#14303f" stroke-linejoin="round" stroke-width=".5"/></g><path d="M6.59,307.25c3.51-2.92,9.03-3.87,13.26-5.59,6.37-2.59,11.47-8.14,13.52-14.71,.72,3.59,1.4,7.18,2.04,10.79,.25,1.43,.47,3.02-.35,4.22-.83,1.22-3.88,1.88-3.88,1.88,0,0,3.42,2.48,3.11,4.14s-4.63,2.05-4.63,2.05c0,0,.78,4.36-1.01,5.44-1.78,1.08-5.28-1.64-5.28-1.64,0,0-.74,3.39-2.31,3.91s-4.31-1.63-4.31-1.63c0,0-1.47,3.75-3.36,3.96s-4.16-3.12-4.16-3.12" fill="#fff" stroke="#14303f" stroke-linejoin="round"/><g><polygon points="40.01 44.53 25.7 55.68 25.7 82.59 40.01 94.37 54.33 82.59 54.33 55.68 40.01 44.53" fill="#ff5f5f" stroke="#14303f" stroke-linejoin="round"/><polygon points="40.01 56.83 32.28 62.85 32.28 77.38 40.01 83.74 47.74 77.38 47.74 62.85 40.01 56.83" fill="none" stroke="#14303f" stroke-linejoin="round"/><line x1="40.01" y1="44.53" x2="40.01" y2="56.83" fill="none" stroke="#14303f" stroke-linejoin="round"/><line x1="54.33" y1="55.68" x2="47.74" y2="62.85" fill="none" stroke="#14303f" stroke-linejoin="round"/><line x1="47.74" y1="77.38" x2="54.33" y2="82.59" fill="none" stroke="#14303f" stroke-linejoin="round"/><line x1="40.01" y1="83.74" x2="40.01" y2="94.37" fill="none" stroke="#14303f" stroke-linejoin="round"/><line x1="32.28" y1="77.38" x2="25.7" y2="82.59" fill="none" stroke="#14303f" stroke-linejoin="round"/><line x1="32.28" y1="62.85" x2="25.7" y2="55.68" fill="none" stroke="#14303f" stroke-linejoin="round"/><polygon points="46.57 57.8 47.33 61.5 51.04 62.27 47.33 63.03 46.57 66.74 45.8 63.03 42.09 62.27 45.8 61.5 46.57 57.8" fill="#eaebef" stroke="#14303f" stroke-linejoin="round" stroke-width=".5"/><polygon points="36.05 75.57 36.82 79.27 40.52 80.04 36.82 80.81 36.05 84.51 35.28 80.81 31.58 80.04 35.28 79.27 36.05 75.57" fill="#eaebef" stroke="#14303f" stroke-linejoin="round" stroke-width=".5"/></g><g><polygon points="82.16 293.24 85.23 306.12 136.31 275.74 82.16 293.24" fill="#eaebef" stroke="#14303f" stroke-linejoin="round"/><polygon points="85.23 306.12 89.25 296.55 112.78 295.82 85.23 306.12" fill="#eaebef" stroke="#14303f" stroke-linejoin="round"/><polygon points="89.25 296.55 106.63 310.26 136.31 275.74 89.25 296.55" fill="#eaebef" stroke="#14303f" stroke-linejoin="round"/><polygon points="82.16 293.24 136.31 275.74 62.41 286.85 82.16 293.24" fill="#eaebef" stroke="#14303f" stroke-linejoin="round"/></g><g><polygon points="82.16 -6.76 85.23 6.12 136.31 -24.26 82.16 -6.76" fill="#eaebef" stroke="#14303f" stroke-linejoin="round"/><polygon points="85.23 6.12 89.25 -3.45 112.78 -4.18 85.23 6.12" fill="#eaebef" stroke="#14303f" stroke-linejoin="round"/><polygon points="89.25 -3.45 106.63 10.26 136.31 -24.26 89.25 -3.45" fill="#eaebef" stroke="#14303f" stroke-linejoin="round"/></g><g><polygon points="76.58 119.39 76.58 117.51 72.77 117.51 72.77 115.63 65.04 115.63 65.04 110.01 63.12 110.01 63.12 108.14 59.31 108.14 59.31 110.01 57.44 110.01 57.44 121.28 55.46 121.28 55.46 119.42 51.69 119.42 51.69 121.29 49.82 121.29 49.82 125.21 51.69 125.21 51.69 127.08 53.7 127.08 53.7 131.05 55.57 131.05 55.57 132.92 57.44 132.92 57.44 134.79 59.31 134.79 59.31 136.67 59.3 136.67 59.3 138.54 68.89 138.54 68.89 136.67 70.86 136.67 70.86 138.54 74.7 138.54 74.7 132.69 76.58 132.69 76.58 129.1 78.45 129.1 78.45 119.39 76.58 119.39" fill="#14303f"/><polygon points="61.18 119.42 61.18 108.14 65.06 108.14 65.06 115.63 78.45 115.63 78.45 127.23 76.58 127.23 76.58 130.81 74.7 130.81 74.7 134.79 63.06 134.79 63.06 132.92 61.19 132.92 61.19 131.05 59.31 131.05 59.31 129.18 57.44 129.18 57.44 125.21 55.57 125.21 55.57 123.34 53.57 123.34 53.57 119.42 61.18 119.42" fill="#eaebef"/><g><rect x="72.83" y="123.34" width="1.87" height="7.48" fill="#14303f"/><polygon points="66.91 115.63 70.77 115.63 70.77 119.41 72.64 119.41 72.64 115.63 74.64 115.63 74.64 113.76 66.91 113.76 66.91 108.14 65.04 108.14 65.04 119.41 66.91 119.41 66.91 115.63" fill="#14303f"/><rect x="78.45" y="117.52" width="1.87" height="9.71" fill="#14303f"/><polygon points="74.7 134.79 72.74 134.79 72.74 136.67 76.58 136.67 76.58 130.81 74.7 130.81 74.7 134.79" fill="#14303f"/><rect x="76.58" y="127.23" width="1.87" height="3.58" fill="#14303f"/><rect x="70.77" y="132.92" width="1.97" height="1.87" fill="#14303f"/><polygon points="76.51 119.41 76.51 117.51 78.45 117.51 78.45 115.63 74.64 115.63 74.64 119.41 76.51 119.41" fill="#14303f"/><rect x="61.19" y="106.26" width="3.81" height="1.87" fill="#14303f"/><polygon points="57.33 121.28 59.31 121.28 59.31 123.34 61.19 123.34 61.19 108.14 59.31 108.14 59.31 119.41 57.33 119.41 57.33 117.54 53.57 117.54 53.57 119.42 57.33 119.42 57.33 121.28" fill="#14303f"/><rect x="65.06" y="123.34" width="1.87" height="7.48" fill="#14303f"/><rect x="68.91" y="123.34" width="1.87" height="7.48" fill="#14303f"/></g></g><g><g><path d="M130.06,256.8l-1.46,1.85s-3.46,.29-13.96-4.09c-10.5-4.38-12.73-7.05-12.73-7.05l.29-2.34" fill="#eaebef" stroke="#14303f" stroke-miterlimit="10"/><path d="M158.01,194.26c.07,.03,.14,.04,.22,.04,.3,0,.53-.25,.52-.55-.03-1.36-8.39-5.13-15.4-8.05s-15.56-6.22-16.62-5.34c-.23,.19-.26,.53-.07,.75l.3,.19s.24,1.88-1.84,3.02c-2.09,1.15-2.79,1.44-4.32,5.08-1.52,3.65-20.08,48.13-20.91,50.13s-.38,3.28,1.12,4.75,10.54,5.99,14.68,7.72c4.14,1.73,13.72,4.97,15.81,5s3.33-.54,4.16-2.55,19.39-46.49,20.91-50.13,1.23-4.36,.58-6.64,.85-3.44,.85-3.44Z" fill="#fff" stroke="#14303f" stroke-miterlimit="10"/></g><g id="rx6Qyl.tif"><g><path d="M112.71,215.63c-1.25-6.54,3.9-16.02,11.32-15.31,7.4,2.22,1.6,12.11-4.64,10.67-1.72,1.28-1.9,4.6-2.65,6.78-.98,0-2.11,.01-3.34,.02,3.43-4.03,2.54-13.29,8.04-14.46,.04,.05,.09,.1,.13,.15-.71,2-1.42,4-2.15,6.08,3.72,.96,7.66-5.74,3-6.92-6.25-.25-9.85,7.52-9.54,12.96-.06,0-.11,.02-.17,.03Z" fill="#ff5f5f"/><path d="M115.79,236.67c-10.15-2.28-9.39-15.22,.88-15.78,8.42,5.36,21.67,7.45,29.66,.33,4.48-4.21,6.16-11.37,2.19-16.4,6.28,5.36,1.77,15.7-4.18,19.48-4.52,3.02-9.93,2.44-15.06,1.98,5.11,7.65-6.08,12.93-12.48,10.46,5.97,1.25,14.65-3.72,11.01-10.5-3.73-1.65-7.82-2.95-11.38-5.07-9.5,1.51-9.27,13.26-.64,15.49Z" fill="#ff5f5f"/><path d="M124.22,217.28c-6.04,3.36-7.59-4.01-2.28-5.67,4.78-.58,2.04,5.75-1.41,3.9-.02,2.68,4.17,1.34,4.64-.45,.62-1.75,.64-4.3,3.08-2.74,5.93-1.95,3.07,7.25-1.7,5.93-1.18,.12-.91,2.16-1.46,3.13-.65-.04-1.41-.09-2.16-.14,.36-1.34,1.24-2.72,1.29-3.97Zm2.17-.12c1.87,.32,4.42-2.8,2.31-3.78-1.69-.02-1.53,2.56-2.31,3.78Zm-5.6-3.35c-.71,1.77,2.11,.81,2.06-.29,.03-1.7-1.66-.61-2.06,.29Z" fill="#ff5f5f"/><path d="M126.45,210.88c1.39-3.27,2.89-6.5,3.29-9.99,3.26-.26,8.91,.23,7.69,4.71-.75,5.37-6.45,6.1-10.98,5.27Zm3.17-1.1c3.88,1.16,7.93-7.49,2.88-7.39-1.55,2.04-1.88,4.95-2.88,7.39Z" fill="#ff5f5f"/><path d="M147.81,215.47c.06-3.67-2.2,2.25-2.39,3.15-.26,.96-1.38,.37-2.19,.56,.2-.35,.34-.59,.56-.97-6.32,4.44-7.29-5.53-1.08-5.63,3.61,.54,.87,5.62-2.21,4.19,0,2.34,3.53,.91,3.97-.63,.65-1.46,.77-4.22,2.97-3.05-.02,.06-.03,.11-.05,.17,2.49-2.02,2.61,2.63,.29,2.42,.04-.07,.09-.14,.13-.21Zm-7.37,.07c1.21,.77,2.69-.59,1.97-1.71-1.04-.34-1.38,1.04-1.97,1.71Z" fill="#ff5f5f"/><path d="M133.07,212.25c.61,.02,1.36,.05,2.13,.09,0,.22,0,.37,0,.56,5.91-2.51,2.88,7.28-1.7,5.87-2.1,.96,.48,3.96-3.91,3,1.35-3.09,2.44-6.23,3.47-9.51Zm3.11,3.35c.64-1.21-.59-2.63-1.53-1.28-.32,.89-.66,1.77-.97,2.66-.25,1.78,2.37-.46,2.5-1.38Z" fill="#ff5f5f"/><path d="M138.7,205.12c.57,.12,1.73-.22,2.14,.46,3.67-1.69,3.63,3.79,.57,2.54,.23-.41,.73-.75,.2-1.21-2.2-.49-2.17,3.34-2.99,4.83-.66-.05-1.47-.1-2.34-.16,.99-2.24,1.69-4.1,2.42-6.46Z" fill="#ff5f5f"/><path d="M119.65,230.62c.32,2.59,4.49,.19,3.47-1.73,.52-.35,.86-1.21,1.86-.84-.01,.16-.03,.34-.04,.53,.21,.07,.4,.13,.61,.2,.07,.79-.87,.41-1.17,.98-.37,.72-.85,1.55-.48,2.37,.13,.3,.11,.51-.2,.55-.51,.07-1.07,.22-1.4-.43-.05-.11-.36-.13-.54-.12-2.25,.75-4.37-.76-2.85-2.82,3.17-3.78,5.72,2.65,.74,1.31Zm.15-.91c-.03,.89,1.26,.6,1.48-.1,.19-1.22-.92-1.19-1.48,.1Z" fill="#ff5f5f"/><path d="M111.03,231.21l2.41-5.77c1.14,.37,3.63,.11,3.54,1.95,.05,2.81-2.85,4.82-5.95,3.82Zm1.65-.62c1.83,.7,4.36-3.37,2.15-4.12-1.27,.59-1.33,2.79-2.15,4.12Z" fill="#ff5f5f"/><path d="M116.07,231.73l1.61-3.87c.28,.05,.63,.11,1.06,.18-.91,1.22-.72,4.27-2.68,3.69Z" fill="#ff5f5f"/><path d="M118.18,226.91c.32-.84,1.29-.71,1.11,.1-.22,.59-1.07,.56-1.11-.1Z" fill="#ff5f5f"/></g></g><path d="M122.6,186.33s4.17,.31,17.68,5.94,17.28,8.64,17.28,8.64" fill="none" stroke="#14303f" stroke-miterlimit="10" stroke-width=".5"/><g><path d="M134.09,222.85l.87-2.08h1.13s-.16,.39-.16,.39h-.8s-.18,.44-.18,.44h.67s-.16,.39-.16,.39h-.67s-.19,.46-.19,.46h.8s-.16,.39-.16,.39h-1.13Z" fill="#ff5f5f"/><path d="M135.4,222.57l.28-.3c.04,.14,.15,.27,.32,.27,.09,0,.16-.04,.19-.12s-.02-.11-.12-.15l-.13-.05c-.17-.07-.28-.18-.16-.44,.12-.3,.38-.48,.65-.48,.24,0,.36,.14,.39,.27l-.27,.3c-.05-.15-.15-.24-.28-.24-.08,0-.15,.04-.18,.12-.03,.08,0,.11,.13,.17l.11,.05c.21,.09,.26,.22,.17,.45-.12,.29-.38,.46-.64,.46-.25,0-.42-.12-.44-.3Z" fill="#ff5f5f"/><path d="M136.72,222.39l.3-.73h-.17s.14-.34,.14-.34h.17s.07-.18,.07-.18l.43-.23-.17,.41h.31s-.14,.34-.14,.34h-.31s-.27,.65-.27,.65c-.05,.12-.02,.17,.04,.17,.07,0,.17-.08,.23-.16l-.06,.36c-.08,.08-.24,.19-.42,.19-.25,0-.28-.2-.17-.48Z" fill="#ff5f5f"/><path d="M137.37,222.83l.2-.48h.35s-.2,.48-.2,.48h-.35Z" fill="#ff5f5f"/><path d="M138.03,222.83l.65-1.55h-.29s.14-.34,.14-.34c.14,0,.26-.05,.4-.19h.3s-.87,2.07-.87,2.07h-.33Z" fill="#ff5f5f"/><path d="M138.78,222.28c.09-.21,.27-.43,.57-.51-.19-.04-.21-.24-.11-.47,.13-.32,.44-.58,.81-.58,.37,0,.46,.26,.33,.57-.1,.24-.29,.43-.52,.48,.24,.07,.25,.29,.16,.5-.14,.34-.44,.58-.87,.58s-.52-.24-.38-.57Zm.91-.11c.06-.15,.03-.28-.13-.27-.16,0-.3,.13-.36,.28-.06,.14-.06,.27,.13,.27,.19,0,.3-.13,.36-.27Zm.31-.8c.05-.13,.04-.24-.11-.24-.15,0-.26,.12-.32,.25-.06,.14-.04,.25,.11,.25,.14,0,.26-.11,.32-.25Z" fill="#ff5f5f"/><path d="M140.18,222.27c.09-.21,.27-.43,.57-.51-.19-.04-.21-.24-.11-.47,.13-.32,.44-.58,.81-.58,.37,0,.46,.26,.33,.57-.1,.24-.29,.43-.52,.48,.24,.07,.25,.29,.16,.5-.14,.34-.44,.58-.87,.58-.42,0-.52-.24-.38-.58Zm.91-.1c.06-.15,.03-.28-.13-.27-.16,0-.3,.13-.36,.28-.06,.14-.06,.27,.13,.27,.19,0,.3-.13,.36-.27Zm.31-.81c.05-.13,.04-.24-.11-.24-.15,0-.26,.12-.32,.25-.06,.14-.04,.25,.11,.25,.14,0,.26-.11,.32-.25Z" fill="#ff5f5f"/><path d="M141.56,222.35l.39-.32c-.05,.24,.03,.37,.21,.37,.16,0,.3-.12,.39-.34,.1-.23,.03-.34-.12-.34-.12,0-.24,.06-.32,.19v.02s-.31-.04-.31-.04l.54-1.17h1.01s-.17,.39-.17,.39h-.71s-.3,.65-.3,.65c.13-.19,.32-.33,.53-.33,.27,0,.36,.23,.18,.66s-.55,.73-.91,.73c-.33,0-.46-.21-.42-.49Z" fill="#ff5f5f"/></g><path d="M126.67,181.12c.15,.18,.4,.24,.61,.16,.3-.04,2.64-.02,15.67,5.42s14.58,7.03,14.78,7.27c.05,.13,.16,.24,.29,.3" fill="none" stroke="#14303f" stroke-miterlimit="10" stroke-width=".5"/></g><g><path d="M202.17,170.03v-54.48l-3.1-.82c-.25,.93-1.2,1.49-2.13,1.24-.93-.25-1.49-1.2-1.24-2.13l-4.22-1.12c-.25,.93-1.2,1.49-2.13,1.24-.93-.25-1.49-1.2-1.24-2.13l-4.22-1.12c-.25,.93-1.2,1.49-2.13,1.24-.93-.25-1.49-1.2-1.24-2.13l-5.99-1.59c-1.23-.33-2.5,.41-2.83,1.64l-1.68,6.34c.93,.25,1.49,1.2,1.24,2.13-.25,.93-1.2,1.49-2.13,1.24l-1.12,4.22c.93,.25,1.49,1.2,1.24,2.13-.25,.93-1.2,1.49-2.13,1.24l-1.12,4.22c.93,.25,1.49,1.2,1.24,2.13-.25,.93-1.2,1.49-2.13,1.24l-1.12,4.22c.93,.25,1.49,1.2,1.24,2.13s-1.2,1.49-2.13,1.24l-1.12,4.22c.93,.25,1.49,1.2,1.24,2.13-.25,.93-1.2,1.49-2.13,1.24l-1.68,6.34c-.33,1.23,.41,2.5,1.64,2.83l5.99,1.59c.25-.93,1.2-1.49,2.13-1.24,.93,.25,1.49,1.2,1.24,2.13l4.22,1.12c.25-.93,1.2-1.49,2.13-1.24s1.49,1.2,1.24,2.13l4.22,1.12c.25-.93,1.2-1.49,2.13-1.24,.93,.25,1.49,1.2,1.24,2.13l4.22,1.12c.25-.93,1.2-1.49,2.13-1.24,.93,.25,1.49,1.2,1.24,2.13l4.22,1.12c.25-.93,1.2-1.49,2.13-1.24,.93,.25,1.49,1.2,1.24,2.13l1.42,.38Z" fill="#f9ba19" stroke="#14303f" stroke-miterlimit="10"/><circle cx="190.63" cy="139.73" r="1.88" fill="#14303f"/><circle cx="182.12" cy="123.42" r="1.02" fill="#ff5f5f" stroke="#14303f" stroke-linejoin="round" stroke-width=".5"/><circle cx="192.7" cy="128.6" r="1.02" fill="#ff5f5f" stroke="#14303f" stroke-linejoin="round" stroke-width=".5"/><circle cx="176.58" cy="148.32" r="1.02" fill="#ff5f5f" stroke="#14303f" stroke-linejoin="round" stroke-width=".5"/><circle cx="190.8" cy="159.37" r="1.02" fill="#ff5f5f" stroke="#14303f" stroke-linejoin="round" stroke-width=".5"/></g><g><path d="M20.24,120.34l-5.99-1.59c-.25,.93-1.2,1.49-2.13,1.24-.93-.25-1.49-1.2-1.24-2.13l-4.22-1.12c-.25,.93-1.2,1.49-2.13,1.24s-1.49-1.2-1.24-2.13l-4.22-1.12c-.25,.93-1.2,1.49-2.13,1.24-.21-.06-.4-.15-.56-.27v52.79l1.01,.27c.25-.93,1.2-1.49,2.13-1.24,.93,.25,1.49,1.2,1.24,2.13l5.99,1.59c1.23,.33,2.5-.41,2.83-1.64l1.68-6.34c-.93-.25-1.49-1.2-1.24-2.13s1.2-1.49,2.13-1.24l1.12-4.22c-.93-.25-1.49-1.2-1.24-2.13,.25-.93,1.2-1.49,2.13-1.24l1.12-4.22c-.93-.25-1.49-1.2-1.24-2.13,.25-.93,1.2-1.49,2.13-1.24l1.12-4.22c-.93-.25-1.49-1.2-1.24-2.13s1.2-1.49,2.13-1.24l1.12-4.22c-.93-.25-1.49-1.2-1.24-2.13,.25-.93,1.2-1.49,2.13-1.24l1.68-6.34c.33-1.23-.41-2.5-1.64-2.83Z" fill="#f9ba19" stroke="#14303f" stroke-miterlimit="10"/><circle cx="5.1" cy="148.5" r="1.02" fill="#ff5f5f" stroke="#14303f" stroke-linejoin="round" stroke-width=".5"/></g><g><polygon points="11.8 229.27 12.33 230.45 13.81 229.09 11.8 229.27" fill="#eaebef"/><g><path d="M40.62,257.84c-4.45-10.98-20.37-6.64-29.78-6.36-4.54-.12-10.17,3.05-12.82,5.64-3.58,3.56-.96,13.41,4.1,7.11,1.44,2.06,3.89,1.94,5.12-.26,1.57,1.97,4.02,1.03,5.14-.8,1.63,1.48,4.6,2.12,5.67-.23,2.13,.87,4.14-.4,6.13-.85,.31-.01,.74,.15,.87,.34,.71,.97,2.94,.65,3.16-.62,1.17,1.49,3.6,2.01,4.32-.17,1.15,.93,2.86,.59,3.52-.66,2.27,1.29,5.41-.61,4.59-3.13Z" fill="#14303f"/><path d="M23.77,243.99c-.87-.56-4.48-4.34-4.07-14.2,.1-2.5-9.39,.09-9.09,.81,1.62,3.98-.27,13.17-1.1,13.7-2.02,1.31-2.42,7.32-2.01,8.15,.62,1.24,3.59,1.54,4.79,.61,.85,.64,1.44,2.36,4.66,2.25s5.38-2.69,5.86-3.22c0,0,0,0,0,0,.89,.27,1.98,.54,2.73-.19,1.82-1.76,.13-6.72-1.78-7.93Z" fill="#ffb29a"/><path d="M8.59,246.91c-1.42,1.51-2.69,8.62,2.89,6.22" fill="none" stroke="#14303f" stroke-linecap="round" stroke-linejoin="round"/><path d="M22.63,252.13c5.91,1.37,3.41-5.4,1.74-6.63" fill="none" stroke="#14303f" stroke-linecap="round" stroke-linejoin="round"/><path d="M10.45,251.53c.85,.72,4.52,4.15,7.01,3.8,2.4-.09,5.29-3.79,6.06-4.68" fill="none" stroke="#14303f" stroke-linecap="round" stroke-linejoin="round"/></g><path d="M49.33,223.39c-9.39-.97-20.2-2.59-29.19,2.44h0c-1.71,2.33-9.01,2.83-11.35,.78h0c-9.79-2.92-19.76,.32-28.77,2.98-.84,.08-.15,2.03-.24,2.47,.45,1.11,1.58-.6,2.04,2.78,.62,5.19,3.38,12.36,5.82,14.4,3.18,2.59,13.35,1.8,17.65-.12,4.81-2.2,6.69-9.03,7.36-15.2h0c.48-3.4,4.57-3.38,5.41-.25h0c1.79,5.9,4.81,12.13,9.88,13.42,4.57,1.12,14.72,.1,17.39-3.02,2.04-2.44,3.49-9.98,3.17-15.2-.23-2.56,1.09-2.6,1.09-2.6,.84-.03,.15-2.04,.24-2.47-.02-.25-.23-.39-.5-.42Zm-39.46,11.59c-.86,13.44-11.3,15.05-20.55,12.24-2.03-1.7-5.03-9.88-4.51-14.45,.3-2.64,4.17-3.23,9.2-3.96,7.97-.98,17.38-2.37,15.87,6.17Zm33.43,7.41c-8.43,4.39-19.25,4.65-22.37-8.32-.85-2.56-1.46-5.42,2.48-7.14,2.79-1.1,20.07-4.19,21.78,.44,1.32,4.4-.18,12.99-1.88,15.02Z" fill="#eaebef" stroke="#14303f" stroke-linejoin="round"/><path d="M-16.37,223.08c2.36,12.1,26.73,6.88,27.26,.34,1.72-2.5-.13-13.53-3.3-7.02-.99-1.94-2.73-1.9-3.24,.31-1.29-1.97-2.61-1-3.2,.84-1.26-1.46-3.05-2.12-3.6,.28-1.49-2.07-1.86,.07-3.28,.69-.2,.01-.67-.04-.77-.23-.58-.99-2.4-.41-2.32,.76-.8-1.47-2.58-1.87-2.74,.2-.8-.96-1.97-.45-2.18,.69-2.14-1.43-3.28,1.41-2.62,3.15Z" fill="#14303f"/><path d="M42.79,214.82c-.67-.56-1.68-.34-2.26,.26-.41-1.08-1.65-1.38-2.27-.29-.53-2.02-2.21-1.3-2.73,.29-.13-1.17-2.02-1.42-2.42-.34-.06,.2-.52,.34-.72,.36-1.5-.36-2.25-2.39-3.35-.09-.97-2.27-2.61-1.29-3.59,.36-.91-1.71-2.38-2.42-3.3-.26-.9-2.08-2.61-1.81-3.25,.27-4.28-5.85-4.14,5.34-2,7.49,1.77,2.51,4.58,5.84,15.15,4,6.16,.36,14.4-5.49,10.74-12.06Z" fill="#14303f"/></g><g><path d="M240.62,257.84c-.32-1.66-1.45-3.23-3.17-4.43-1.81-1.27-4.1-2.17-6.8-2.6-3-.48-6.26-.32-9.4-.15-3.47,.19-6.95,.46-10.41,.82-.41-.21-1.02-.29-1.54-.12-4.31,1.42-8.83,2.98-11.28,5.76-1.2,1.36-1.62,2.88-1.65,4.36-.03,1.57,.27,3.17,1.42,4.51,.59,.69,2.14,.33,2.7-.24,.51-.52,1.06-1.03,1.63-1.53,.4,.42,.85,.83,1.35,1.21,.73,.55,2.09,.45,2.7-.24,.36-.41,.72-.82,1.07-1.23,.02,.02,.05,.04,.07,.06,.52,.45,.98,.99,1.98,1.07,1.18,.09,1.86-.54,2.37-1.11l.68-.78s.02-.03,.04-.04c.01,0,.03,.01,.04,.02,.24,.13,.46,.28,.68,.43,.59,.39,1.21,.89,2.14,.96,1.26,.1,2-.54,2.48-1.19,.11-.15,.22-.3,.33-.45,.44,.16,.98,.26,1.43,.27,.97,.03,1.89-.17,2.75-.49,.59-.22,1.31-.61,1.95-.64,.31-.01,.74,.15,.87,.34,.58,.86,2.61,.7,3.01-.27,.05-.12,.1-.24,.15-.36,.39,.31,.76,.63,1.11,.97,.56,.55,2.29,.47,2.7-.24,.17-.3,.34-.6,.52-.9,.2,.12,.41,.23,.61,.35,.74,.42,1.96,.13,2.44-.42,.15-.18,.3-.39,.47-.6,.25,.11,.52,.22,.81,.28,.92,.21,2.03,.1,2.77-.4,1.14-.77,1.18-2.09,1.01-3.01Z" fill="#14303f"/><path d="M249.33,223.39c-9.39-.97-20.2-2.59-29.19,2.44h0c-1.71,2.33-9.01,2.83-11.35,.78h0c-9.79-2.92-19.76,.32-28.77,2.98-.84,.08-.15,2.03-.24,2.47,.45,1.11,1.58-.6,2.04,2.78,.62,5.19,3.38,12.36,5.82,14.4,3.18,2.59,13.35,1.8,17.65-.12,4.81-2.2,6.69-9.03,7.36-15.2h0c.48-3.4,4.57-3.38,5.41-.25h0c1.79,5.9,4.81,12.13,9.88,13.42,4.57,1.12,14.72,.1,17.39-3.02,2.04-2.44,3.49-9.98,3.17-15.2-.23-2.56,1.09-2.6,1.09-2.6,.84-.03,.15-2.04,.24-2.47-.02-.25-.23-.39-.5-.42Zm-39.46,11.59c-.86,13.44-11.3,15.05-20.55,12.24-2.03-1.7-5.03-9.88-4.51-14.45,.3-2.64,4.17-3.23,9.2-3.96,7.97-.98,17.38-2.37,15.87,6.17Zm33.43,7.41c-8.43,4.39-19.25,4.65-22.37-8.32-.85-2.56-1.46-5.42,2.48-7.14,2.79-1.1,20.07-4.19,21.78,.44,1.32,4.4-.18,12.99-1.88,15.02Z" fill="#eaebef" stroke="#14303f" stroke-linejoin="round"/><path d="M183.63,223.08c2.36,12.1,26.73,6.88,27.26,.34,1.72-2.5-.13-13.53-3.3-7.02-.99-1.94-2.73-1.9-3.24,.31-1.29-1.97-2.61-1-3.2,.84-1.26-1.46-3.05-2.12-3.6,.28-1.49-2.07-1.86,.07-3.28,.69-.2,.01-.67-.04-.77-.23-.58-.99-2.4-.41-2.32,.76-.8-1.47-2.58-1.87-2.74,.2-.8-.96-1.97-.45-2.18,.69-2.14-1.43-3.28,1.41-2.62,3.15Z" fill="#14303f"/></g><g><g><path d="M131.11,145.14l5.74,1.98c.34,0,.61-.28,.61-.61l-1.98-5.74-4.55-.18,.18,4.55Z" fill="#eaebef" stroke="#14303f" stroke-linejoin="round"/><path d="M131.75,145l.39-3.05,3.2-.54c.24-.24,.24-.63,0-.87l-22.9-22.9-4.46,4.46,22.9,22.9c.24,.24,.63,.24,.87,0Z" fill="#f9ba19"/><rect x="106.32" y="117.85" width="6.31" height="2.57" transform="translate(-52.18 112.3) rotate(-45)" fill="#eaebef"/><rect x="103.89" y="114.59" width="6.31" height="4.03" transform="translate(-51.1 109.85) rotate(-45)" fill="#ffb29a"/><path d="M131.75,145l.39-3.05,3.2-.54c.24-.24,.24-.63,0-.87l-27.3-27.3c-.24-.24-.63-.24-.87,0l-3.59,3.59c-.24,.24-.24,.63,0,.87l27.3,27.3c.24,.24,.63,.24,.87,0Z" fill="none" stroke="#14303f" stroke-linejoin="round"/><line x1="110.38" y1="120.04" x2="132.21" y2="141.87" fill="none" stroke="#14303f" stroke-miterlimit="10" stroke-width=".5"/><line x1="112.61" y1="117.81" x2="108.15" y2="122.27" fill="none" stroke="#14303f" stroke-miterlimit="10"/><line x1="110.71" y1="115.99" x2="106.33" y2="120.36" fill="none" stroke="#14303f" stroke-miterlimit="10" stroke-width=".5"/><rect x="135.9" y="145.35" width="1.38" height="1.8" rx=".61" ry=".61" transform="translate(336.6 153.08) rotate(135)" fill="#14303f"/></g><g><path d="M105.32,140.72l-1.98,5.74c0,.34,.28,.61,.61,.61l5.74-1.98,.18-4.55-4.55,.18Z" fill="#eaebef" stroke="#14303f" stroke-linejoin="round"/><path d="M105.47,141.35l3.05,.39,.54,3.2c.24,.24,.63,.24,.87,0l22.9-22.9-4.46-4.46-22.9,22.9c-.24,.24-.24,.63,0,.87Z" fill="#f9ba19"/><rect x="130.04" y="115.93" width="2.57" height="6.31" transform="translate(-45.74 127.74) rotate(-45)" fill="#eaebef"/><rect x="131.84" y="113.5" width="4.03" height="6.31" transform="translate(-43.28 128.82) rotate(-45)" fill="#ffb29a"/><path d="M105.47,141.35l3.05,.39,.54,3.2c.24,.24,.63,.24,.87,0l27.3-27.3c.24-.24,.24-.63,0-.87l-3.59-3.59c-.24-.24-.63-.24-.87,0l-27.3,27.3c-.24,.24-.24,.63,0,.87Z" fill="none" stroke="#14303f" stroke-linejoin="round"/><line x1="130.42" y1="119.99" x2="108.59" y2="141.82" fill="none" stroke="#14303f" stroke-miterlimit="10" stroke-width=".5"/><line x1="132.65" y1="122.22" x2="128.19" y2="117.76" fill="none" stroke="#14303f" stroke-miterlimit="10"/><line x1="134.47" y1="120.31" x2="130.1" y2="115.94" fill="none" stroke="#14303f" stroke-miterlimit="10" stroke-width=".5"/><rect x="103.52" y="145.3" width="1.38" height="1.8" rx=".61" ry=".61" transform="translate(74.52 323.27) rotate(-135)" fill="#14303f"/></g></g></g></svg>