<svg id="Layer_1" data-name="Layer 1" xmlns="http://www.w3.org/2000/svg" viewBox="0 0 215 132"><defs><style>.cls-1{fill:#e90090;}.cls-2{fill:#12abee;}</style></defs><title>&amp;amp;you-logo-new</title><path class="cls-1" d="M37,39.19L52.23,57.54,52.72,57q2.46-2.67,4.64-5.24C58.82,50,62.55,46,63.9,44.23l6,10.85q-1.53,2.18-4,5.08t-5.92,6.66L75.55,86.1H59.71L51.3,75.78q-11.58,12-24.08,12a27.09,27.09,0,0,1-19-7.16A23.48,23.48,0,0,1,.57,62.78q0-12.62,12.12-21L18.21,38a2.36,2.36,0,0,0,.38-0.28l0.76-.6Q11,28.27,11,19.64A18.38,18.38,0,0,1,16.57,5.77Q22.25,0.41,31.2.41q8.69,0,14.36,5.19a17,17,0,0,1,5.68,13.11,16.77,16.77,0,0,1-3.11,9.89Q45.07,33,37,39.19Zm-10.1,7.15-0.71.49q-7.81,5.41-10.65,8.68a10.58,10.58,0,0,0-2.78,6.94A13.59,13.59,0,0,0,17,72.06a13.59,13.59,0,0,0,9.61,4.21q7.37,0,17-9.66Zm2.73-16.11,1-.77c1.78-1.34,3.26-2.52,4.42-3.52a16.91,16.91,0,0,0,2.51-2.54,7.64,7.64,0,0,0,1.64-5A7,7,0,0,0,37,13,8.5,8.5,0,0,0,31,11a8.31,8.31,0,0,0-5.79,2.13,6.55,6.55,0,0,0-2.35,5.19,11.52,11.52,0,0,0,3,7.32L29,29.42A6.14,6.14,0,0,0,29.68,30.23Z"/><g id="llXaT5"><path class="cls-2" d="M110.79,84.6c0.13-6.22,1.11-33.09,1.17-33.31a0.36,0.36,0,0,1,.12-0.11c-0.58-.68-8.36,30.16-17.15,31-4,.38-9.68-1.84-12.21-4.57A19.84,19.84,0,0,1,78,66.15c-0.78-11.43.58-23.29,1.18-34.71a47.73,47.73,0,0,0,.21-6.79,1.59,1.59,0,0,0-.3-0.59,7.87,7.87,0,0,1-.71-1.16c-0.58-1.51,3.83-1.8,4.62-1.81,3.07,0,5.05,1.7,7.25,3.74s2.32,4.2,2.58,7c0,0.37.07,0.73,0.1,1.1,0.41,4.57-.54,8.69-0.54,13.25s-2.22,26.53,1.91,26.93c3.29,0.32,17.69-48,18.17-52.47a4,4,0,0,0-.4-1.93,0.55,0.55,0,0,1,.39-0.76c3.84-1.93,9.31.36,12.06,3.1,1.38,1.38.58,4.92,0.6,6.67,0,2.92-1.73,31.88-.37,32.31,1,0.32,12.22-39,16.69-42.95,3.36-3,6.63-2.19,10.21-1.14a1.67,1.67,0,0,1,.55.23c1.17,0.88,3,1.57,3.39,3.18a5.1,5.1,0,0,1-.27,2.08,3.06,3.06,0,0,0-.15,1.22,1.58,1.58,0,0,0,.93.64,3.08,3.08,0,0,1,2,2.43c0.25,1.13,7.41-.63,9.89-1.37,2.07-.61,5.28-3.62,6.82-5.2,1.81-1.85,8.89-2.16,9.93-.54,1.62,2.52-8.59,53.64-3.58,54.29,3.38,0.44,15.2-31,18.29-48.84,0.27-1.58,0-3.91,1.46-5s3.92-1.09,5.52-1.24c2.86-.27,6,0.74,6.54,4.39a12,12,0,0,1-.19,3.58C211.11,37.12,208.7,68,211.3,78c0.77,3,4.52,4.89,2.59,5.94-3.22,1.76-11.75,4.09-14.16-.76-3.45-7-2.33-16.92-3.45-26.81-3,7.84-9.87,27.68-16.1,27.35-13-.69-12.19-13.48-11.76-18.57,1-11.77,2.62-26.49,5.17-38,0.09-.42-6.2,5.85-13.87,4.35,1.38,4.88,1.15,15,1,20-0.22,7.52-3.66,27.92-7.4,30.79-4.64,3.55-11.36,2.2-15.16-.81-5.05-4-6.3-7.56-6.6-13.63-0.4-7.92,1.74-15.77,1.84-16.64-0.24.23-8,22.5-8.27,23.13-1.7,4.5-2.36,34.32-6.29,47.31a18.38,18.38,0,0,1-5.25,8.18c-6.39,5.49-18.55-3-17.2-10.79C99.35,102.06,110.75,86.18,110.79,84.6Zm41.92-52.91c-2.16,0-4.52,17.49-5.33,23.32-1.06,7.63-2.26,20.81.34,21.34,5.46,1.1,7.44-27.37,7.66-32.16C155.51,41.31,154.87,31.68,152.71,31.68Zm-43.42,70.08c-0.33.25-9.91,18.07-5.85,18.68C106.53,120.91,109.55,102.15,109.29,101.77Z"/></g></svg>