<svg xmlns="http://www.w3.org/2000/svg" width="100" height="170" viewBox="0 0 100 170"><path d="M53.33,3.44l-.26,0-.78-.09-.52,0c-.2,0-.39,0-.59,0-.39,0-.79,0-1.18,0A25.46,25.46,0,0,0,24.54,28.68V174.55H75.46V28.68A25.45,25.45,0,0,0,53.33,3.44Z" fill="#0a0c0b" stroke="#411f19" stroke-miterlimit="10" stroke-width="0.25"/><path d="M29.7,30.9A25.46,25.46,0,0,1,55.16,5.44c.4,0,.79,0,1.18,0,.2,0,.39,0,.59,0l.52,0,.79.09.25,0a24.09,24.09,0,0,1,4.08.89,25.21,25.21,0,0,0-9.24-3.11l-.26,0-.78-.09-.52,0c-.2,0-.39,0-.59,0-.39,0-.79,0-1.18,0A25.46,25.46,0,0,0,24.54,28.68V174.55H29.7Z" fill="#7dc0a1" stroke="#411f19" stroke-miterlimit="10" stroke-width="0.25"/></svg>