<svg xmlns="http://www.w3.org/2000/svg" width="496" height="590" viewBox="0 0 496 590"><defs><clipPath id="a"><rect x="22.04" y="20" width="451.92" height="550" rx="7.54" fill="none"/></clipPath></defs><path d="M476.37 30h-18.95v523.63L32 552.74v19.72a7.55 7.55 0 0 0 7.53 7.54h436.84a7.55 7.55 0 0 0 7.54-7.54V37.54a7.55 7.55 0 0 0-7.54-7.54z" opacity=".4"/><path d="M79.21 69.32H416.8v452.76H79.21z" opacity=".2"/><g clip-path="url(#a)"><path d="M22 20v550.62h452V20zm395.28 499.2H78.72V71.42h338.56z" fill="#5b5b5b"/><path fill="none" stroke="#333" stroke-miterlimit="10" stroke-width="2" d="M417.28 71.42l55.64-50.46M78.72 71.42L22.04 20.96M418.73 520.52l54.19 49.14M78.72 519.2l-56.68 50.46"/></g><path d="M447.24 46.12V544.5H48.76V46.12h398.48m10-10H38.76V554.5h418.48V36.12z" fill="#333"/><path d="M428.58 63v464.63H67.42V63h361.16m4-4H63.42v472.63h369.16V59z" fill="#333"/><ellipse cx="50.94" cy="27.88" rx="10.77" ry="4.47" fill="#5b5b5b" stroke="#333" stroke-linecap="round" stroke-miterlimit="10"/><path fill="none" stroke="#333" stroke-linecap="round" stroke-miterlimit="10" d="M47.56 25.55l-4.16 2.33 4.16 2.45M52.63 25.55l-4.17 2.33 4.17 2.45M56.87 25.97l-3.41 1.91 3.43 2.02M59.74 27.88H37.19"/><ellipse cx="74.38" cy="27.88" rx="10.77" ry="4.47" fill="#5b5b5b" stroke="#333" stroke-linecap="round" stroke-miterlimit="10"/><path fill="none" stroke="#333" stroke-linecap="round" stroke-miterlimit="10" d="M77.76 30.22l4.16-2.34-4.16-2.45M72.69 30.22l4.17-2.34-4.17-2.45M68.44 29.8l3.42-1.92-3.43-2.01M65.58 27.88h22.55"/><ellipse cx="103.79" cy="27.88" rx="10.77" ry="4.47" fill="#5b5b5b" stroke="#333" stroke-linecap="round" stroke-miterlimit="10"/><path fill="none" stroke="#333" stroke-linecap="round" stroke-miterlimit="10" d="M100.42 25.55l-4.17 2.33 4.17 2.45M105.48 25.55l-4.16 2.33 4.16 2.45M109.73 25.97l-3.42 1.91 3.43 2.02M112.59 27.88H90.04"/><ellipse cx="127.24" cy="27.88" rx="10.77" ry="4.47" fill="#5b5b5b" stroke="#333" stroke-linecap="round" stroke-miterlimit="10"/><path fill="none" stroke="#333" stroke-linecap="round" stroke-miterlimit="10" d="M130.61 30.22l4.17-2.34-4.17-2.45M125.55 30.22l4.16-2.34-4.16-2.45M121.3 29.8l3.41-1.92-3.43-2.01M118.44 27.88h22.55"/><ellipse cx="156.65" cy="27.88" rx="10.77" ry="4.47" fill="#5b5b5b" stroke="#333" stroke-linecap="round" stroke-miterlimit="10"/><path fill="none" stroke="#333" stroke-linecap="round" stroke-miterlimit="10" d="M153.27 25.55l-4.16 2.33 4.16 2.45M158.34 25.55l-4.17 2.33 4.17 2.45M162.58 25.97l-3.41 1.91 3.43 2.02M165.45 27.88H142.9"/><ellipse cx="180.09" cy="27.88" rx="10.77" ry="4.47" fill="#5b5b5b" stroke="#333" stroke-linecap="round" stroke-miterlimit="10"/><path fill="none" stroke="#333" stroke-linecap="round" stroke-miterlimit="10" d="M183.47 30.22l4.16-2.34-4.16-2.45M178.4 30.22l4.17-2.34-4.17-2.45M174.16 29.8l3.41-1.92-3.43-2.01M171.29 27.88h22.55"/><ellipse cx="209.5" cy="27.88" rx="10.77" ry="4.47" fill="#5b5b5b" stroke="#333" stroke-linecap="round" stroke-miterlimit="10"/><path fill="none" stroke="#333" stroke-linecap="round" stroke-miterlimit="10" d="M206.13 25.55l-4.17 2.33 4.17 2.45M211.19 25.55l-4.16 2.33 4.16 2.45M215.44 25.97l-3.41 1.91 3.43 2.02M218.3 27.88h-22.55"/><ellipse cx="232.95" cy="27.88" rx="10.77" ry="4.47" fill="#5b5b5b" stroke="#333" stroke-linecap="round" stroke-miterlimit="10"/><path fill="none" stroke="#333" stroke-linecap="round" stroke-miterlimit="10" d="M236.32 30.22l4.17-2.34-4.17-2.45M231.26 30.22l4.16-2.34-4.16-2.45M227.01 29.8l3.42-1.92-3.43-2.01M224.15 27.88h22.55"/><ellipse cx="262.36" cy="27.88" rx="10.77" ry="4.47" fill="#5b5b5b" stroke="#333" stroke-linecap="round" stroke-miterlimit="10"/><path fill="none" stroke="#333" stroke-linecap="round" stroke-miterlimit="10" d="M258.98 25.55l-4.16 2.33 4.16 2.45M264.05 25.55l-4.17 2.33 4.17 2.45M268.29 25.97l-3.41 1.91 3.43 2.02M271.16 27.88h-22.55"/><ellipse cx="285.8" cy="27.88" rx="10.77" ry="4.47" fill="#5b5b5b" stroke="#333" stroke-linecap="round" stroke-miterlimit="10"/><path fill="none" stroke="#333" stroke-linecap="round" stroke-miterlimit="10" d="M289.18 30.22l4.17-2.34-4.17-2.45M284.11 30.22l4.17-2.34-4.17-2.45M279.87 29.8l3.41-1.92-3.43-2.01M277 27.88h22.55"/><ellipse cx="313.31" cy="27.88" rx="10.77" ry="4.47" fill="#5b5b5b" stroke="#333" stroke-linecap="round" stroke-miterlimit="10"/><path fill="none" stroke="#333" stroke-linecap="round" stroke-miterlimit="10" d="M309.93 25.55l-4.17 2.33 4.17 2.45M315 25.55l-4.17 2.33 4.17 2.45M319.24 25.97l-3.41 1.91 3.43 2.02M322.1 27.88h-22.55"/><ellipse cx="336.75" cy="27.88" rx="10.77" ry="4.47" fill="#5b5b5b" stroke="#333" stroke-linecap="round" stroke-miterlimit="10"/><path fill="none" stroke="#333" stroke-linecap="round" stroke-miterlimit="10" d="M340.13 30.22l4.16-2.34-4.16-2.45M335.06 30.22l4.17-2.34-4.17-2.45M330.81 29.8l3.42-1.92-3.43-2.01M327.95 27.88h22.55"/><ellipse cx="366.16" cy="27.88" rx="10.77" ry="4.47" fill="#5b5b5b" stroke="#333" stroke-linecap="round" stroke-miterlimit="10"/><path fill="none" stroke="#333" stroke-linecap="round" stroke-miterlimit="10" d="M362.79 25.55l-4.17 2.33 4.17 2.45M367.85 25.55l-4.16 2.33 4.16 2.45M372.1 25.97l-3.42 1.91 3.43 2.02M374.96 27.88h-22.55"/><ellipse cx="389.6" cy="27.88" rx="10.77" ry="4.47" fill="#5b5b5b" stroke="#333" stroke-linecap="round" stroke-miterlimit="10"/><path fill="none" stroke="#333" stroke-linecap="round" stroke-miterlimit="10" d="M392.98 30.22l4.17-2.34-4.17-2.45M387.92 30.22l4.16-2.34-4.16-2.45M383.67 29.8l3.41-1.92-3.43-2.01M380.81 27.88h22.55"/><ellipse cx="419.17" cy="27.88" rx="10.77" ry="4.47" fill="#5b5b5b" stroke="#333" stroke-linecap="round" stroke-miterlimit="10"/><path fill="none" stroke="#333" stroke-linecap="round" stroke-miterlimit="10" d="M415.8 25.55l-4.17 2.33 4.17 2.45M420.86 25.55l-4.17 2.33 4.17 2.45M425.11 25.97l-3.42 1.91 3.43 2.02M427.97 27.88h-22.55"/><ellipse cx="442.61" cy="27.88" rx="10.77" ry="4.47" fill="#5b5b5b" stroke="#333" stroke-linecap="round" stroke-miterlimit="10"/><path fill="none" stroke="#333" stroke-linecap="round" stroke-miterlimit="10" d="M445.99 30.22l4.17-2.34-4.17-2.45M440.92 30.22l4.17-2.34-4.17-2.45M436.68 29.8l3.41-1.92-3.43-2.01M433.82 27.88h22.55"/><ellipse cx="50.94" cy="562.26" rx="10.77" ry="4.47" fill="#5b5b5b" stroke="#333" stroke-linecap="round" stroke-miterlimit="10"/><path fill="none" stroke="#333" stroke-linecap="round" stroke-miterlimit="10" d="M47.56 559.92l-4.16 2.34 4.16 2.45M52.63 559.92l-4.17 2.34 4.17 2.45M56.87 560.35l-3.41 1.91 3.43 2.01M59.74 562.26H37.19"/><ellipse cx="74.38" cy="562.26" rx="10.77" ry="4.47" fill="#5b5b5b" stroke="#333" stroke-linecap="round" stroke-miterlimit="10"/><path fill="none" stroke="#333" stroke-linecap="round" stroke-miterlimit="10" d="M77.76 564.6l4.16-2.34-4.16-2.45M72.69 564.6l4.17-2.34-4.17-2.45M68.44 564.17l3.42-1.91-3.43-2.01M65.58 562.26h22.55"/><ellipse cx="103.79" cy="562.26" rx="10.77" ry="4.47" fill="#5b5b5b" stroke="#333" stroke-linecap="round" stroke-miterlimit="10"/><path fill="none" stroke="#333" stroke-linecap="round" stroke-miterlimit="10" d="M100.42 559.92l-4.17 2.34 4.17 2.45M105.48 559.92l-4.16 2.34 4.16 2.45M109.73 560.35l-3.42 1.91 3.43 2.01M112.59 562.26H90.04"/><ellipse cx="127.24" cy="562.26" rx="10.77" ry="4.47" fill="#5b5b5b" stroke="#333" stroke-linecap="round" stroke-miterlimit="10"/><path fill="none" stroke="#333" stroke-linecap="round" stroke-miterlimit="10" d="M130.61 564.6l4.17-2.34-4.17-2.45M125.55 564.6l4.16-2.34-4.16-2.45M121.3 564.17l3.41-1.91-3.43-2.01M118.44 562.26h22.55"/><ellipse cx="156.65" cy="562.26" rx="10.77" ry="4.47" fill="#5b5b5b" stroke="#333" stroke-linecap="round" stroke-miterlimit="10"/><path fill="none" stroke="#333" stroke-linecap="round" stroke-miterlimit="10" d="M153.27 559.92l-4.16 2.34 4.16 2.45M158.34 559.92l-4.17 2.34 4.17 2.45M162.58 560.35l-3.41 1.91 3.43 2.01M165.45 562.26H142.9"/><ellipse cx="180.09" cy="562.26" rx="10.77" ry="4.47" fill="#5b5b5b" stroke="#333" stroke-linecap="round" stroke-miterlimit="10"/><path fill="none" stroke="#333" stroke-linecap="round" stroke-miterlimit="10" d="M183.47 564.6l4.16-2.34-4.16-2.45M178.4 564.6l4.17-2.34-4.17-2.45M174.16 564.17l3.41-1.91-3.43-2.01M171.29 562.26h22.55"/><ellipse cx="209.5" cy="562.26" rx="10.77" ry="4.47" fill="#5b5b5b" stroke="#333" stroke-linecap="round" stroke-miterlimit="10"/><path fill="none" stroke="#333" stroke-linecap="round" stroke-miterlimit="10" d="M206.13 559.92l-4.17 2.34 4.17 2.45M211.19 559.92l-4.16 2.34 4.16 2.45M215.44 560.35l-3.41 1.91 3.43 2.01M218.3 562.26h-22.55"/><ellipse cx="232.95" cy="562.26" rx="10.77" ry="4.47" fill="#5b5b5b" stroke="#333" stroke-linecap="round" stroke-miterlimit="10"/><path fill="none" stroke="#333" stroke-linecap="round" stroke-miterlimit="10" d="M236.32 564.6l4.17-2.34-4.17-2.45M231.26 564.6l4.16-2.34-4.16-2.45M227.01 564.17l3.42-1.91-3.43-2.01M224.15 562.26h22.55"/><ellipse cx="262.36" cy="562.26" rx="10.77" ry="4.47" fill="#5b5b5b" stroke="#333" stroke-linecap="round" stroke-miterlimit="10"/><path fill="none" stroke="#333" stroke-linecap="round" stroke-miterlimit="10" d="M258.98 559.92l-4.16 2.34 4.16 2.45M264.05 559.92l-4.17 2.34 4.17 2.45M268.29 560.35l-3.41 1.91 3.43 2.01M271.16 562.26h-22.55"/><ellipse cx="285.8" cy="562.26" rx="10.77" ry="4.47" fill="#5b5b5b" stroke="#333" stroke-linecap="round" stroke-miterlimit="10"/><path fill="none" stroke="#333" stroke-linecap="round" stroke-miterlimit="10" d="M289.18 564.6l4.17-2.34-4.17-2.45M284.11 564.6l4.17-2.34-4.17-2.45M279.87 564.17l3.41-1.91-3.43-2.01M277 562.26h22.55"/><ellipse cx="313.31" cy="562.26" rx="10.77" ry="4.47" fill="#5b5b5b" stroke="#333" stroke-linecap="round" stroke-miterlimit="10"/><path fill="none" stroke="#333" stroke-linecap="round" stroke-miterlimit="10" d="M309.93 559.92l-4.17 2.34 4.17 2.45M315 559.92l-4.17 2.34 4.17 2.45M319.24 560.35l-3.41 1.91 3.43 2.01M322.1 562.26h-22.55"/><ellipse cx="336.75" cy="562.26" rx="10.77" ry="4.47" fill="#5b5b5b" stroke="#333" stroke-linecap="round" stroke-miterlimit="10"/><path fill="none" stroke="#333" stroke-linecap="round" stroke-miterlimit="10" d="M340.13 564.6l4.16-2.34-4.16-2.45M335.06 564.6l4.17-2.34-4.17-2.45M330.81 564.17l3.42-1.91-3.43-2.01M327.95 562.26h22.55"/><ellipse cx="366.16" cy="562.26" rx="10.77" ry="4.47" fill="#5b5b5b" stroke="#333" stroke-linecap="round" stroke-miterlimit="10"/><path fill="none" stroke="#333" stroke-linecap="round" stroke-miterlimit="10" d="M362.79 559.92l-4.17 2.34 4.17 2.45M367.85 559.92l-4.16 2.34 4.16 2.45M372.1 560.35l-3.42 1.91 3.43 2.01M374.96 562.26h-22.55"/><ellipse cx="389.6" cy="562.26" rx="10.77" ry="4.47" fill="#5b5b5b" stroke="#333" stroke-linecap="round" stroke-miterlimit="10"/><path fill="none" stroke="#333" stroke-linecap="round" stroke-miterlimit="10" d="M392.98 564.6l4.17-2.34-4.17-2.45M387.92 564.6l4.16-2.34-4.16-2.45M383.67 564.17l3.41-1.91-3.43-2.01M380.81 562.26h22.55"/><ellipse cx="419.17" cy="562.26" rx="10.77" ry="4.47" fill="#5b5b5b" stroke="#333" stroke-linecap="round" stroke-miterlimit="10"/><path fill="none" stroke="#333" stroke-linecap="round" stroke-miterlimit="10" d="M415.8 559.92l-4.17 2.34 4.17 2.45M420.86 559.92l-4.17 2.34 4.17 2.45M425.11 560.35l-3.42 1.91 3.43 2.01M427.97 562.26h-22.55"/><ellipse cx="442.61" cy="562.26" rx="10.77" ry="4.47" fill="#5b5b5b" stroke="#333" stroke-linecap="round" stroke-miterlimit="10"/><path fill="none" stroke="#333" stroke-linecap="round" stroke-miterlimit="10" d="M445.99 564.6l4.17-2.34-4.17-2.45M440.92 564.6l4.17-2.34-4.17-2.45M436.68 564.17l3.41-1.91-3.43-2.01M433.82 562.26h22.55"/><path d="M71.71 66.28v458.06h352.58V66.28zm345.08 451.36H79.21V73h337.58z" fill="#333"/><ellipse cx="465.43" cy="542.58" rx="4.47" ry="11.92" fill="#5b5b5b" stroke="#333" stroke-linecap="round" stroke-miterlimit="10"/><path fill="#5b5b5b" stroke="#333" stroke-linecap="round" stroke-miterlimit="10" d="M463.09 546.32l2.34 4.61 2.45-4.61M463.09 540.71l2.34 4.62 2.45-4.62M463.51 536.01l1.92 3.78 2.01-3.79M465.43 532.84v24.97"/><ellipse cx="465.43" cy="457.63" rx="4.47" ry="11.92" fill="#5b5b5b" stroke="#333" stroke-linecap="round" stroke-miterlimit="10"/><path fill="#5b5b5b" stroke="#333" stroke-linecap="round" stroke-miterlimit="10" d="M467.76 453.89l-2.33-4.61-2.45 4.61M467.76 459.5l-2.33-4.61-2.45 4.61M467.34 464.2l-1.91-3.78-2.02 3.8M465.43 467.37V442.4"/><ellipse cx="465.43" cy="425.07" rx="4.47" ry="11.92" fill="#5b5b5b" stroke="#333" stroke-linecap="round" stroke-miterlimit="10"/><path fill="#5b5b5b" stroke="#333" stroke-linecap="round" stroke-miterlimit="10" d="M463.09 428.81l2.34 4.61 2.45-4.61M463.09 423.2l2.34 4.61 2.45-4.61M463.51 418.5l1.92 3.77 2.01-3.79M465.43 415.33v24.96"/><ellipse cx="465.43" cy="516.1" rx="4.47" ry="11.92" fill="#5b5b5b" stroke="#333" stroke-linecap="round" stroke-miterlimit="10"/><path fill="#5b5b5b" stroke="#333" stroke-linecap="round" stroke-miterlimit="10" d="M467.76 512.37l-2.33-4.62-2.45 4.62M467.76 517.97l-2.33-4.61-2.45 4.61M467.34 522.67l-1.91-3.78-2.02 3.8M465.43 525.84v-24.96"/><ellipse cx="465.43" cy="483.54" rx="4.47" ry="11.92" fill="#5b5b5b" stroke="#333" stroke-linecap="round" stroke-miterlimit="10"/><path fill="#5b5b5b" stroke="#333" stroke-linecap="round" stroke-miterlimit="10" d="M463.09 487.28l2.34 4.61 2.45-4.61M463.09 481.67l2.34 4.61 2.45-4.61M463.51 476.97l1.92 3.78 2.01-3.8M465.43 473.8v24.97"/><ellipse cx="465.43" cy="399.12" rx="4.47" ry="11.92" fill="#5b5b5b" stroke="#333" stroke-linecap="round" stroke-miterlimit="10"/><path fill="#5b5b5b" stroke="#333" stroke-linecap="round" stroke-miterlimit="10" d="M467.76 395.38l-2.33-4.62-2.45 4.62M467.76 400.99l-2.33-4.62-2.45 4.62M467.34 405.69l-1.91-3.78-2.02 3.79M465.43 408.85v-24.96"/><ellipse cx="465.43" cy="366.55" rx="4.47" ry="11.92" fill="#5b5b5b" stroke="#333" stroke-linecap="round" stroke-miterlimit="10"/><path fill="#5b5b5b" stroke="#333" stroke-linecap="round" stroke-miterlimit="10" d="M463.09 370.29l2.34 4.61 2.45-4.61M463.09 364.68l2.34 4.62 2.45-4.62M463.51 359.98l1.92 3.78 2.01-3.8M465.43 356.81v24.97"/><ellipse cx="465.43" cy="340.6" rx="4.47" ry="11.92" fill="#5b5b5b" stroke="#333" stroke-linecap="round" stroke-miterlimit="10"/><path fill="#5b5b5b" stroke="#333" stroke-linecap="round" stroke-miterlimit="10" d="M467.76 336.86l-2.33-4.61-2.45 4.61M467.76 342.47l-2.33-4.61-2.45 4.61M467.34 347.17l-1.91-3.78-2.02 3.8M465.43 350.34v-24.96"/><ellipse cx="465.43" cy="308.04" rx="4.47" ry="11.92" fill="#5b5b5b" stroke="#333" stroke-linecap="round" stroke-miterlimit="10"/><path fill="#5b5b5b" stroke="#333" stroke-linecap="round" stroke-miterlimit="10" d="M463.09 311.78l2.34 4.61 2.45-4.61M463.09 306.17l2.34 4.61 2.45-4.61M463.51 301.47l1.92 3.78 2.01-3.8M465.43 298.3v24.96"/><ellipse cx="465.43" cy="282.09" rx="4.47" ry="11.92" fill="#5b5b5b" stroke="#333" stroke-linecap="round" stroke-miterlimit="10"/><path fill="#5b5b5b" stroke="#333" stroke-linecap="round" stroke-miterlimit="10" d="M467.76 278.35l-2.33-4.61-2.45 4.61M467.76 283.96l-2.33-4.62-2.45 4.62M467.34 288.66l-1.91-3.78-2.02 3.8M465.43 291.83v-24.97"/><ellipse cx="465.43" cy="251.64" rx="4.47" ry="11.92" fill="#5b5b5b" stroke="#333" stroke-linecap="round" stroke-miterlimit="10"/><path fill="#5b5b5b" stroke="#333" stroke-linecap="round" stroke-miterlimit="10" d="M463.09 255.38l2.34 4.61 2.45-4.61M463.09 249.77l2.34 4.61 2.45-4.61M463.51 245.07l1.92 3.77 2.01-3.79M465.43 241.9v24.96"/><ellipse cx="465.43" cy="225.69" rx="4.47" ry="11.92" fill="#5b5b5b" stroke="#333" stroke-linecap="round" stroke-miterlimit="10"/><path fill="#5b5b5b" stroke="#333" stroke-linecap="round" stroke-miterlimit="10" d="M467.76 221.95l-2.33-4.62-2.45 4.62M467.76 227.56l-2.33-4.62-2.45 4.62M467.34 232.25l-1.91-3.77-2.02 3.79M465.43 235.42v-24.96"/><ellipse cx="465.43" cy="193.12" rx="4.47" ry="11.92" fill="#5b5b5b" stroke="#333" stroke-linecap="round" stroke-miterlimit="10"/><path fill="#5b5b5b" stroke="#333" stroke-linecap="round" stroke-miterlimit="10" d="M463.09 196.86l2.34 4.61 2.45-4.61M463.09 191.25l2.34 4.62 2.45-4.62M463.51 186.55l1.92 3.78 2.01-3.8M465.43 183.38v24.97"/><ellipse cx="465.43" cy="167.17" rx="4.47" ry="11.92" fill="#5b5b5b" stroke="#333" stroke-linecap="round" stroke-miterlimit="10"/><path fill="#5b5b5b" stroke="#333" stroke-linecap="round" stroke-miterlimit="10" d="M467.76 163.43l-2.33-4.61-2.45 4.61M467.76 169.04l-2.33-4.61-2.45 4.61M467.34 173.74l-1.91-3.78-2.02 3.8M465.43 176.91v-24.96"/><ellipse cx="465.43" cy="134.44" rx="4.47" ry="11.92" fill="#5b5b5b" stroke="#333" stroke-linecap="round" stroke-miterlimit="10"/><path fill="#5b5b5b" stroke="#333" stroke-linecap="round" stroke-miterlimit="10" d="M463.09 138.18l2.34 4.61 2.45-4.61M463.09 132.57l2.34 4.61 2.45-4.61M463.51 127.87l1.92 3.78 2.01-3.8M465.43 124.7v24.96"/><ellipse cx="465.43" cy="108.49" rx="4.47" ry="11.92" fill="#5b5b5b" stroke="#333" stroke-linecap="round" stroke-miterlimit="10"/><path fill="#5b5b5b" stroke="#333" stroke-linecap="round" stroke-miterlimit="10" d="M467.76 104.75l-2.33-4.61-2.45 4.61M467.76 110.36l-2.33-4.61-2.45 4.61M467.34 115.06l-1.91-3.78-2.02 3.8M465.43 118.23V93.26"/><ellipse cx="465.43" cy="76.01" rx="4.47" ry="11.92" fill="#5b5b5b" stroke="#333" stroke-linecap="round" stroke-miterlimit="10"/><path fill="#5b5b5b" stroke="#333" stroke-linecap="round" stroke-miterlimit="10" d="M463.09 79.75l2.34 4.61 2.45-4.61M463.09 74.14l2.34 4.62 2.45-4.62M463.51 69.44l1.92 3.78 2.01-3.8M465.43 66.27v24.97"/><ellipse cx="465.43" cy="50.06" rx="4.47" ry="11.92" fill="#5b5b5b" stroke="#333" stroke-linecap="round" stroke-miterlimit="10"/><path fill="#5b5b5b" stroke="#333" stroke-linecap="round" stroke-miterlimit="10" d="M467.76 46.32l-2.33-4.61-2.45 4.61M467.76 51.93l-2.33-4.61-2.45 4.61M467.34 56.63l-1.91-3.78-2.02 3.8M465.43 59.8V34.84"/><ellipse cx="30.41" cy="542.58" rx="4.47" ry="11.92" fill="#5b5b5b" stroke="#333" stroke-linecap="round" stroke-miterlimit="10"/><path fill="#5b5b5b" stroke="#333" stroke-linecap="round" stroke-miterlimit="10" d="M28.08 546.32l2.33 4.61 2.45-4.61M28.08 540.71l2.33 4.62 2.45-4.62M28.5 536.01l1.91 3.78 2.02-3.79M30.41 532.84v24.97"/><ellipse cx="30.41" cy="457.63" rx="4.47" ry="11.92" fill="#5b5b5b" stroke="#333" stroke-linecap="round" stroke-miterlimit="10"/><path fill="#5b5b5b" stroke="#333" stroke-linecap="round" stroke-miterlimit="10" d="M32.75 453.89l-2.34-4.61-2.44 4.61M32.75 459.5l-2.34-4.61-2.44 4.61M32.33 464.2l-1.92-3.78-2.01 3.8M30.41 467.37V442.4"/><ellipse cx="30.41" cy="425.07" rx="4.47" ry="11.92" fill="#5b5b5b" stroke="#333" stroke-linecap="round" stroke-miterlimit="10"/><path fill="#5b5b5b" stroke="#333" stroke-linecap="round" stroke-miterlimit="10" d="M28.08 428.81l2.33 4.61 2.45-4.61M28.08 423.2l2.33 4.61 2.45-4.61M28.5 418.5l1.91 3.77 2.02-3.79M30.41 415.33v24.96"/><ellipse cx="30.41" cy="516.1" rx="4.47" ry="11.92" fill="#5b5b5b" stroke="#333" stroke-linecap="round" stroke-miterlimit="10"/><path fill="#5b5b5b" stroke="#333" stroke-linecap="round" stroke-miterlimit="10" d="M32.75 512.37l-2.34-4.62-2.44 4.62M32.75 517.97l-2.34-4.61-2.44 4.61M32.33 522.67l-1.92-3.78-2.01 3.8M30.41 525.84v-24.96"/><ellipse cx="30.41" cy="483.54" rx="4.47" ry="11.92" fill="#5b5b5b" stroke="#333" stroke-linecap="round" stroke-miterlimit="10"/><path fill="#5b5b5b" stroke="#333" stroke-linecap="round" stroke-miterlimit="10" d="M28.08 487.28l2.33 4.61 2.45-4.61M28.08 481.67l2.33 4.61 2.45-4.61M28.5 476.97l1.91 3.78 2.02-3.8M30.41 473.8v24.97"/><ellipse cx="30.41" cy="399.12" rx="4.47" ry="11.92" fill="#5b5b5b" stroke="#333" stroke-linecap="round" stroke-miterlimit="10"/><path fill="#5b5b5b" stroke="#333" stroke-linecap="round" stroke-miterlimit="10" d="M32.75 395.38l-2.34-4.62-2.44 4.62M32.75 400.99l-2.34-4.62-2.44 4.62M32.33 405.69l-1.92-3.78-2.01 3.79M30.41 408.85v-24.96"/><ellipse cx="30.41" cy="366.55" rx="4.47" ry="11.92" fill="#5b5b5b" stroke="#333" stroke-linecap="round" stroke-miterlimit="10"/><path fill="#5b5b5b" stroke="#333" stroke-linecap="round" stroke-miterlimit="10" d="M28.08 370.29l2.33 4.61 2.45-4.61M28.08 364.68l2.33 4.62 2.45-4.62M28.5 359.98l1.91 3.78 2.02-3.8M30.41 356.81v24.97"/><ellipse cx="30.41" cy="340.6" rx="4.47" ry="11.92" fill="#5b5b5b" stroke="#333" stroke-linecap="round" stroke-miterlimit="10"/><path fill="#5b5b5b" stroke="#333" stroke-linecap="round" stroke-miterlimit="10" d="M32.75 336.86l-2.34-4.61-2.44 4.61M32.75 342.47l-2.34-4.61-2.44 4.61M32.33 347.17l-1.92-3.78-2.01 3.8M30.41 350.34v-24.96"/><ellipse cx="30.41" cy="308.04" rx="4.47" ry="11.92" fill="#5b5b5b" stroke="#333" stroke-linecap="round" stroke-miterlimit="10"/><path fill="#5b5b5b" stroke="#333" stroke-linecap="round" stroke-miterlimit="10" d="M28.08 311.78l2.33 4.61 2.45-4.61M28.08 306.17l2.33 4.61 2.45-4.61M28.5 301.47l1.91 3.78 2.02-3.8M30.41 298.3v24.96"/><ellipse cx="30.41" cy="282.09" rx="4.47" ry="11.92" fill="#5b5b5b" stroke="#333" stroke-linecap="round" stroke-miterlimit="10"/><path fill="#5b5b5b" stroke="#333" stroke-linecap="round" stroke-miterlimit="10" d="M32.75 278.35l-2.34-4.61-2.44 4.61M32.75 283.96l-2.34-4.62-2.44 4.62M32.33 288.66l-1.92-3.78-2.01 3.8M30.41 291.83v-24.97"/><ellipse cx="30.41" cy="251.64" rx="4.47" ry="11.92" fill="#5b5b5b" stroke="#333" stroke-linecap="round" stroke-miterlimit="10"/><path fill="#5b5b5b" stroke="#333" stroke-linecap="round" stroke-miterlimit="10" d="M28.08 255.38l2.33 4.61 2.45-4.61M28.08 249.77l2.33 4.61 2.45-4.61M28.5 245.07l1.91 3.77 2.02-3.79M30.41 241.9v24.96"/><ellipse cx="30.41" cy="225.69" rx="4.47" ry="11.92" fill="#5b5b5b" stroke="#333" stroke-linecap="round" stroke-miterlimit="10"/><path fill="#5b5b5b" stroke="#333" stroke-linecap="round" stroke-miterlimit="10" d="M32.75 221.95l-2.34-4.62-2.44 4.62M32.75 227.56l-2.34-4.62-2.44 4.62M32.33 232.25l-1.92-3.77-2.01 3.79M30.41 235.42v-24.96"/><ellipse cx="30.41" cy="193.12" rx="4.47" ry="11.92" fill="#5b5b5b" stroke="#333" stroke-linecap="round" stroke-miterlimit="10"/><path fill="#5b5b5b" stroke="#333" stroke-linecap="round" stroke-miterlimit="10" d="M28.08 196.86l2.33 4.61 2.45-4.61M28.08 191.25l2.33 4.62 2.45-4.62M28.5 186.55l1.91 3.78 2.02-3.8M30.41 183.38v24.97"/><ellipse cx="30.41" cy="167.17" rx="4.47" ry="11.92" fill="#5b5b5b" stroke="#333" stroke-linecap="round" stroke-miterlimit="10"/><path fill="#5b5b5b" stroke="#333" stroke-linecap="round" stroke-miterlimit="10" d="M32.75 163.43l-2.34-4.61-2.44 4.61M32.75 169.04l-2.34-4.61-2.44 4.61M32.33 173.74l-1.92-3.78-2.01 3.8M30.41 176.91v-24.96"/><ellipse cx="30.41" cy="134.44" rx="4.47" ry="11.92" fill="#5b5b5b" stroke="#333" stroke-linecap="round" stroke-miterlimit="10"/><path fill="#5b5b5b" stroke="#333" stroke-linecap="round" stroke-miterlimit="10" d="M28.08 138.18l2.33 4.61 2.45-4.61M28.08 132.57l2.33 4.61 2.45-4.61M28.5 127.87l1.91 3.78 2.02-3.8M30.41 124.7v24.96"/><ellipse cx="30.41" cy="108.49" rx="4.47" ry="11.92" fill="#5b5b5b" stroke="#333" stroke-linecap="round" stroke-miterlimit="10"/><path fill="#5b5b5b" stroke="#333" stroke-linecap="round" stroke-miterlimit="10" d="M32.75 104.75l-2.34-4.61-2.44 4.61M32.75 110.36l-2.34-4.61-2.44 4.61M32.33 115.06l-1.92-3.78-2.01 3.8M30.41 118.23V93.26"/><ellipse cx="30.41" cy="76.01" rx="4.47" ry="11.92" fill="#5b5b5b" stroke="#333" stroke-linecap="round" stroke-miterlimit="10"/><path fill="#5b5b5b" stroke="#333" stroke-linecap="round" stroke-miterlimit="10" d="M28.08 79.75l2.33 4.61 2.45-4.61M28.08 74.14l2.33 4.62 2.45-4.62M28.5 69.44l1.91 3.78 2.02-3.8M30.41 66.27v24.97"/><ellipse cx="30.41" cy="50.06" rx="4.47" ry="11.92" fill="#5b5b5b" stroke="#333" stroke-linecap="round" stroke-miterlimit="10"/><path fill="#5b5b5b" stroke="#333" stroke-linecap="round" stroke-miterlimit="10" d="M32.75 46.32l-2.34-4.61-2.44 4.61M32.75 51.93l-2.34-4.61-2.44 4.61M32.33 56.63l-1.92-3.78-2.01 3.8M30.41 59.8V34.84"/></svg>