<svg xmlns="http://www.w3.org/2000/svg" width="40" height="20" viewBox="0 0 40 20"><path d="M8.62,2.22A7.75,7.75,0,0,0,3,4.6a5.78,5.78,0,0,1,2.32-.49,5.89,5.89,0,0,1,0,11.77A5.78,5.78,0,0,1,3,15.39,7.77,7.77,0,1,0,8.62,2.22Z" fill="none" stroke="#fff" stroke-linecap="round" stroke-linejoin="round"/><circle cx="30" cy="10" r="4.11" fill="none" stroke="#fff" stroke-linecap="round" stroke-linejoin="round"/><line x1="30" y1="1.62" x2="30" y2="3.52" fill="none" stroke="#fff" stroke-linecap="round" stroke-linejoin="round"/><line x1="30" y1="16.48" x2="30" y2="18.38" fill="none" stroke="#fff" stroke-linecap="round" stroke-linejoin="round"/><line x1="38.38" y1="10" x2="36.48" y2="10" fill="none" stroke="#fff" stroke-linecap="round" stroke-linejoin="round"/><line x1="23.52" y1="10" x2="21.62" y2="10" fill="none" stroke="#fff" stroke-linecap="round" stroke-linejoin="round"/><line x1="35.93" y1="15.93" x2="34.58" y2="14.58" fill="none" stroke="#fff" stroke-linecap="round" stroke-linejoin="round"/><line x1="25.42" y1="5.42" x2="24.07" y2="4.07" fill="none" stroke="#fff" stroke-linecap="round" stroke-linejoin="round"/><line x1="35.93" y1="4.07" x2="34.58" y2="5.42" fill="none" stroke="#fff" stroke-linecap="round" stroke-linejoin="round"/><line x1="25.42" y1="14.58" x2="24.07" y2="15.93" fill="none" stroke="#fff" stroke-linecap="round" stroke-linejoin="round"/></svg>