<?xml version="1.0" encoding="UTF-8"?><svg id="uuid-c4458a83-b62a-4876-a1e2-65dafc89c1ae" xmlns="http://www.w3.org/2000/svg" viewBox="0 0 111 111"><polyline points="16.14 94.81 22.69 107.88 88.53 107.88 93.58 94.81" fill="#cef565" stroke="#4000f5" stroke-linecap="round" stroke-linejoin="round" stroke-width="4"/><path d="M105.94,32.28c-3.18-10.51-18.82-29.82-50.6-29.82S3.03,25.19,3.03,41.08s-.49,46.39,10.27,52.99h83.6c13.26-6.35,12.22-51.28,9.04-61.79Z" fill="#cef565" stroke="#4000f5" stroke-linecap="round" stroke-linejoin="round" stroke-width="4"/><path d="M104.69,79.19s-24.69,1.42-24.69,14.88" fill="none" stroke="#4000f5" stroke-linecap="round" stroke-linejoin="round" stroke-width="2"/><line x1="36.68" y1="87.22" x2="36.68" y2="101.34" fill="none" stroke="#4000f5" stroke-linecap="round" stroke-linejoin="round" stroke-width="2"/><line x1="42.95" y1="87.22" x2="42.95" y2="101.34" fill="none" stroke="#4000f5" stroke-linecap="round" stroke-linejoin="round" stroke-width="2"/><line x1="49.23" y1="87.22" x2="49.23" y2="101.34" fill="none" stroke="#4000f5" stroke-linecap="round" stroke-linejoin="round" stroke-width="2"/><line x1="55.5" y1="87.22" x2="55.5" y2="101.34" fill="none" stroke="#4000f5" stroke-linecap="round" stroke-linejoin="round" stroke-width="2"/><line x1="61.77" y1="87.22" x2="61.77" y2="101.34" fill="none" stroke="#4000f5" stroke-linecap="round" stroke-linejoin="round" stroke-width="2"/><line x1="68.05" y1="87.22" x2="68.05" y2="101.34" fill="none" stroke="#4000f5" stroke-linecap="round" stroke-linejoin="round" stroke-width="2"/><line x1="74.32" y1="87.22" x2="74.32" y2="101.34" fill="none" stroke="#4000f5" stroke-linecap="round" stroke-linejoin="round" stroke-width="2"/><rect x="19.75" y="39.92" width="29.89" height="25.91" rx="12.65" ry="12.65" fill="#4000f5"/><rect x="61.02" y="39.92" width="29.89" height="25.91" rx="12.65" ry="12.65" transform="translate(151.93 105.75) rotate(-180)" fill="#4000f5"/><path d="M62.32,72.65c0-1.17-1-10.35-6.36-11.29v-.09c-.16,0-.3.03-.45.05-.15-.01-.29-.05-.45-.05v.09c-5.37.94-6.37,10.12-6.37,11.29s-1.24,8.45,6.37,9v.05c.16,0,.3-.02.45-.03.16,0,.29.03.45.03v-.05c7.61-.54,6.36-7.81,6.36-9Z" fill="#4000f5"/><path d="M6.26,79.19s13.56.78,20.58,6.66c2.46,2.05,4.11,4.73,4.11,8.22" fill="none" stroke="#4000f5" stroke-linecap="round" stroke-linejoin="round" stroke-width="2"/></svg>