<?xml version="1.0" encoding="utf-8"?>
<!-- Generator: Adobe Illustrator 18.1.1, SVG Export Plug-In . SVG Version: 6.00 Build 0)  -->
<svg version="1.1" xmlns="http://www.w3.org/2000/svg" xmlns:xlink="http://www.w3.org/1999/xlink" x="0px" y="0px"
	 viewBox="0 0 770 240" enable-background="new 0 0 770 240" xml:space="preserve">
<g id="Layer_4">
</g>
<g id="Layer_1">
</g>
<g id="Layer_5" display="none">
</g>
<g id="lettering">
	<g>
		<g>
			<path fill="#FFFFFF" d="M534.1,233.6c-0.8-0.7-1.3-1.6-1.7-2.5c-0.2-0.3-0.3-0.6-0.4-1c-0.4-0.7-0.8-1.4-1.1-2.2
				c-1.4-3.6-1.8-7.4-1.8-11.2c0-6,0.5-12,1.1-18c0.6-6.1,1-12.2,0.6-18.3c-0.1-2.3-0.6-4.6-2.1-6.3c-1.7-2-4-2.7-6.4-3
				c-1.4-0.2-2.9-0.2-4.3-0.3c-0.5,0-1-0.2-1.4-0.3c0-2.9,0-5.6,0-8.3c0-2-0.6-3.8-2.2-5.1c-2.2-1.8-4.4-1.8-6.4,0.3
				c-0.3,0.3-0.5,0.6-0.8,0.7c-1.1,0.5-1.4,1.5-1.5,2.6c-0.2,1.1-0.3,2.2-0.3,3.4c0,1.7,0.2,3.4,1.3,4.8c0.8,1.1,1.5,2.3,2.4,3.2
				c1.2,1.2,1.5,2.2,1.3,4c-0.6,4.1-1.5,8-2.5,12c-1.7,6.3-3.4,12.7-5.1,19c-0.7,2.7-1.6,5.4-3.1,7.8c-0.4,0.6-0.7,1.2-1.5,1.5
				c-0.2-0.9-0.5-1.7-0.6-2.6c-0.7-4.4-1-8.8-1.1-13.3c0-4.1-0.1-8.2-0.1-12.3c0-2.9,0.2-5.9,0.2-8.8c0-3-0.2-6-0.4-9.1
				c-0.1-1.1-0.4-2.1-0.7-3.1c-0.3-0.9-0.9-1.6-1.8-1.9c-2-0.6-4-0.5-6,0.2c0,0.4-0.1,0.8-0.2,1.3c0.3,0.5,0.4,1.1,0.3,1.8
				c-0.1,0.6,0,1.2-0.1,1.7c-0.4,2.8-0.8,5.6-1.3,8.4c-0.4,2.4-0.8,4.7-1.2,7.1c-0.5,2.9-0.8,5.8-1.3,8.6c-0.4,2.2-0.9,4.4-1.3,6.6
				c-0.9,5.1-2.5,10-4.5,14.7c-0.4,0.9-0.9,1.9-2.1,2.5c-0.4-0.8-0.8-1.5-1-2.3c-0.4-1.8-0.8-3.7-1.1-5.6c-0.2-1.2-0.3-2.3-0.4-3.5
				c-0.1-1.4-0.1-2.7-0.2-4.1c-0.1-1.8-0.3-3.6-0.2-5.4c0.3-4.8,0.7-9.5,1-14.3c0.3-4,0.6-8.1,0.6-12.1c0-1.9-0.7-2.8-2.5-3.2
				c-1.6-0.3-3.3-0.2-5-0.2c-0.8,0-1.5,0.3-2,1.1c-0.4,0.5-0.9,0.9-1.4,1.3c-2.8,1.8-3.6,5.5-6.6,4.7c-0.9-0.2-1.3-0.7-1.4-1.6
				c-0.2-1.5-0.9-2.7-1.9-3.8c-0.7-0.7-1.3-1.4-2-2.2c-1.2-1.4-2.6-2.2-4.3-2.4c-0.7-0.1-1.2-0.4-1.6-0.9c-0.3-0.4-0.6-0.8-0.9-1
				c-1.3-0.8-2.8-0.7-4.1-0.3c-1,0.4-1.8,1.4-2.5,2.3c-0.5,0.5-0.7,1.3-1.1,1.9c-1.8,2.9-3.4,6-4.4,9.3c-1.3,4.2-2.3,8.4-2.7,12.8
				c-0.5,4.9-0.7,9.8,0.3,14.7c0.8,3.7,1.9,7.3,4.4,10.2c2.4,2.8,5.1,5.1,8.8,5.5c2,0.2,3.7-0.3,5.3-1.5c0.6-0.5,1.2-0.9,1.7-1.5
				c0.4-0.5,0.9-0.9,1.2-1.5c1.1-2.2,2.1-4.4,3.1-6.6c0.9-2.1,1.6-4.3,1.9-6.5c0.4-2.5,0.6-5,0.8-7.6c0.3-3.3-0.2-6.6-0.4-9.9
				c-0.1-1.6-0.4-3.2-0.6-4.8c0-0.4,0-0.7,0-1.1c1.4,0.3,7.8-2.7,9.1-2.8c-0.2,1.3-0.4,2.4-0.5,3.5c-0.5,5.7-1.1,11.5-1.2,17.2
				c-0.1,5.6-0.2,11.1,0.5,16.7c0.4,3.1,1.2,6,3,8.5c1.4,2,3,3.8,5.3,4.5c1.3,0.4,2.6,0.6,3.8,0.1c1.2-0.5,2.2-1.3,3.1-2.3
				c1.4-1.6,2.5-3.4,3.2-5.5c0.9-2.9,2-5.7,2.8-8.5c0.6-2.1,0.9-4.4,1.4-6.6c0.2-1.2,0.5-2.3,0.7-3.5c0.2,0.3,0.3,0.5,0.3,0.7
				c0.3,3.4,0.6,6.8,1.1,10.2c0.3,2.1,0.9,4.1,1.6,6c1.2,2.9,3.6,4.6,6.2,5.7c0.5,0.2,1.1,0.3,1.6,0.1c1.5-0.6,3-1.3,4.2-2.6
				c2.1-2.5,3.9-5.3,5-8.5c0.2-0.6,0.5-1.3,0.7-1.9c1.1-2.8,1.9-5.6,2.5-8.5c0.6-3.1,1.2-6.2,1.8-9.3c0.7-4.1,1.4-8.2,2.1-12.2
				c0.2-1.1,0.4-2.3,0.6-3.4c1,0.1,1.8,0.2,2.7,0.3c0.8,0.1,1.7,0.2,2.5,0.3c1.4,0.1,1.6,0.3,1.7,1.9c0.1,2.5,0.1,5.1,0,7.6
				c-0.4,6-1,12.1-1.4,18.1c-0.2,3.4-0.4,6.7-0.5,10.1c-0.1,4.8,0.6,9.5,2.6,13.9c1.1,2.6,2.7,4.7,4.9,6.3c1.1,0.9,2.4,1.2,3.7,1.6
				h1.9c0.6-0.3,1.1-0.5,1.7-0.8C534.9,234.5,534.5,234,534.1,233.6z M451.6,196.2c-0.4,3.5-1.1,7-1.8,10.5
				c-0.6,2.8-2.2,4.9-4.2,6.6c-0.7,0.6-1.4,1.1-2.1,1.7c-1.7-1.3-2.8-2.9-3.6-4.7c-1.8-3.9-2.3-8.1-2.2-12.4
				c0.1-5.7,1-11.4,2.7-16.8c0.6-2,1.6-3.9,2.5-5.8c0.4-1,1-1.9,1.5-2.8c0.2-0.5,0.6-0.9,0.9-1.4c0.4,0.3,0.7,0.5,0.9,0.7
				c0.7,0.6,1.2,1.4,2,1.7c1.3,0.7,1.7,1.8,2,3.2c0.7,3.2,1.4,6.3,1.7,9.6C452.1,189.7,452,192.9,451.6,196.2z"/>
			<path fill="#FFFFFF" d="M757.9,202.5c-2.4-5.7-5-11.3-7.5-17c-2.2-5.1-4.5-10.5-3.5-16c0.3-1.7,1-3.4,1.2-5.1
				c0.2-1.7,0-3.7-1.2-5c-1.7-1.7-4.5-1.5-6.9-1.2c-1,0.1-2.1,0.3-2.8,1c-0.8,0.8-0.9,2.1-0.9,3.3c0.3,4.1,2.3,7.9,2.8,12
				c0.5,3.8-0.3,7.6-1.2,11.3c-1.7,7.4-9.5,32.7-13.5,32.6s-8.3-41.2-5.6-61.9c0-0.4,0.1-0.8,0.3-1c0.3-0.4,0.9-0.5,1.4-0.5
				c9-0.9,18-1.8,27-2.7c1.7-0.2,3.9-1,3.6-2.7c-0.3-1.5-2.3-1.6-3.8-1.5c-9.3,1-18.6,2-27.9,3.1c0.9-3.9,1.7-7.9,2.3-11.9
				c0.3-1.8,0.5-3.7-0.5-5.2c-1.7-2.5-5.4-2.2-8.4-1.5c1.8,5.7,0.4,11.8-1,17.6c-0.1,0.5-0.3,1-0.6,1.4c-0.5,0.5-1.3,0.4-2,0.4
				c-5.7-0.3-11.4,0.5-16.8,2.4c6.1,1.2,12.2,1.6,18.4,1.3c0.5,13.3-7.2,59.9-9.2,60c-6.2-6.3-5.6-14.8-5.4-23
				c0.1-2.3,0.2-4.6,0.3-7c0.1-2.1,0.3-4.1,0.4-6.2c0.1-1.8,0.3-3.6,0-5.4c-0.2-1.1-0.3-2.2-0.3-3.3c0-1.5-0.5-2.8-1.3-4.1
				c-0.4-0.7-0.9-1.4-1.8-1.7c-0.9-0.3-1.9-0.6-2.9-0.9c-0.3-0.1-0.7-0.1-1.1-0.1c-0.7,0-1.3,0.1-2,0.1c-1.4,0-2.8,0-4.3,0
				c-1,0-1.9-0.1-2.9-0.2c0-1.4,0.1-2.6,0.1-3.8c0-0.6-0.2-1.2-0.2-1.8c-0.1-2.1-2.1-3.7-4.7-3.5c-1.4,0.1-2.8,0.3-4.1,0.4
				c-1.2,0.1-2.3,0.4-2.8,1.4c0,0,0,0.1-0.1,0.1c-0.8,0.5-0.9,1.2-0.8,1.9c0.1,0.6,0.3,1.2,0.6,1.8c0.8,1.7,2,3.1,3.7,4.2
				c1.7,1.2,1.7,1.2,1.4,2.9c-1.4,7.3-2.7,14.6-4.4,21.8c-0.5,2.3-0.7,4.6-1.4,6.9c-0.7,2-1,4-1.9,5.9c-0.4,0.9-0.9,1.8-1.2,2.7
				c-0.7,2.4-2.2,4.5-3.4,6.7c0,0.1-0.2,0.1-0.3,0.1c-0.2-0.7-0.5-1.5-0.6-2.2c-2.2-10.6-1.8-20.5-0.7-31.1
				c0.6-5.6,1.5-11.1,2.6-16.7c0.1-0.6-0.1-1.3-0.1-2c-1.9-0.8-1.9-0.8-4.1-0.5c-0.5,0.1-1.1,0.2-1.6,0.2c-0.8,0.1-1.7,0.4-2.5,0.3
				c-0.8-0.1-1.5-0.7-2.3-1.1c-0.9-0.5-1.9-0.9-3-0.9c-8.2-0.5-15.6,3.5-18.9,11.3c-0.2,0.4-0.4,0.8-0.6,1.2
				c-0.7,1.4-1.6,2.7-2.1,4.2c-2.5,6.5-3.8,13.2-4.5,20c-0.2,1.6-0.1,3.2-0.4,4.8c-0.5,2.9-0.5,5.9-1,8.9c-0.2,1.6-1.2,9.4-3.9,7.3
				c-3.2-2.5-4.9-6-6.6-9.6c-0.1-0.3-0.2-0.7-0.2-1c0.1-0.5,0.3-1.1,0.5-1.6c4.5-12.7,7.3-27.3,7.6-40.8c0-2.5,0.3-5.7-1.6-7.6
				c-2.5-2.5-8.3-1.9-11.5-1.4c-0.4,0.1-0.9,0.2-1.1,0.4c-3.9,3.4-5.9,8.9-6.6,14.1c-0.5,3.7-1.4,7.3-1.9,11
				c-1,7.7,0.6,16.3,3.5,23.4c0.8,2,1.7,4,2.6,5.9c0.3,0.7,0.7,1.5,1.2,2.2c0.3,0.4,0.4,0.7,0.2,1.1c-1,2.5-2.1,5-3.4,7.4
				c-0.5,0.9-1.1,1.7-1.6,2.6c-0.4,0.8-1.2,1.3-2,1.8c-0.2-0.2-0.4-0.3-0.4-0.5c-0.6-1.4-1.2-2.8-1.6-4.2
				c-1.8-6.6-2.8-13.4-3.1-20.2c0-0.4,0-0.7,0-1.1c-0.1-1.6-0.3-3.2-0.4-4.8c-0.5-7.7,0.1-18.7-4-25.5c-3-5-9.4-0.1-13,3
				c-4.8,4-6.2,10.8-8.3,16.4c-0.1,0.2-0.2,0.4-0.3,0.7c-0.1,0-0.1,0-0.2,0c-0.1-0.4-0.2-0.7-0.2-1.1c-0.1-2.3-0.2-4.7-0.3-7
				c-0.5-14.1,5.5-27.5,4-41.6c-0.1-1.5-0.3-2.9-1-4.2c-0.3-0.5-0.5-0.9-1.2-1c-0.9-0.1-1.8-0.2-2.7-0.1c-2,0.1-3.8,0.7-5.7,1.1
				c-0.2,0-0.4,0.2-0.5,0.3c-0.6,1.1-1.5,2-1.6,3.3c-0.2,1.7-0.5,3.4-0.4,5.2c0.1,2,0,4,0.1,5.9c0.4,9.1,1.2,36.8,1.1,40
				c0,0.1,0.1,0.2,0.1,0.3c0.1,2.1,0.2,4.2,0.3,6.3c0.3,5.4,0.5,10.8,0.8,16.2c0.2,3.4,0.3,6.8,0.5,10.2c0.1,0.9,0.2,1.8,0.3,2.5
				c1.1,0.7,2,1.3,2.9,1.8c0.6,0.4,1.6,0.4,1.9,1.2c1-0.4,2-0.7,2.9-1c0.9-0.3,1.4-1,1.2-1.8c-0.3-2.3-0.6-4.7-0.4-7
				c0.8-10.5,2.8-20.5,6-30.5c1.1-3.3,2.5-6.5,3.9-9.8c0.7-1.6,1.5-3.7,2.8-4.8c0.7,1.1,0.9,2.3,1,3.6c0.6,6.5,1.2,13.1,1.4,19.7
				c0.3,8.8,0,18.7,4.2,26.7c0.4,0.7,0.6,1.4,0.9,2.1c0.6,1.5,1.6,2.9,3.4,3.6c0.8,0.3,1.6,0.6,2.4,0.9c1.6,0.5,3.2,0.4,4.6-0.3
				c3.2-1.7,6.3-6.4,7.8-9.7c0.4-0.9,1-1.8,1.5-2.8c0.3,0.3,0.6,0.6,0.9,0.8c1.2,1,2.2,2.2,3.5,3c1.5,0.9,3.2,1.5,5,1.8
				c1.4,0.3,2.6,0.2,3.8-0.3c0.8-0.4,1.7-0.6,2.2-1.3c1.5-1.9,2.6-3.9,3.4-6.3c0.8-2.2,1.3-4.5,1.4-6.8c0-0.3,0.1-0.7,0.2-1
				c0.2,0.2,0.3,0.3,0.3,0.4c0.3,1.8,0.9,3.5,1.6,5.2c0.6,1.5,1.6,2.7,3.2,3.5c0.3,0.2,0.6,0.4,1,0.6c1.3,0.7,2.7,1,4.2,0.7
				c1.3-0.3,2.1-1.1,2.7-2.1c3.3-5.1,5.4-11,7.2-16.7c0.7-2.2,1.3-4.5,1.6-6.8c0.1-0.7,0.4-1.4,0.5-2.2c0.2,0.1,0.2,0.3,0.2,0.4
				c-0.1,1.6-0.2,3.2-0.2,4.7c0.1,4.2,0.4,8.4,1.4,12.5c0.7,2.9,1.3,5.8,2.6,8.6c0.9,2.1,2.5,3.5,4.6,4.6c1,0.5,2.1,0.9,3.3,0.6
				c1.6-0.3,3.2-0.8,4.1-1.9c1.2-1.4,2.5-2.9,2.6-4.7c0-0.2,0.1-0.3,0.2-0.5c5.5-13.3,7.8-27.4,10.8-41.4c0.2-0.9,0.4-1.8,0.6-2.8
				c1.6,0.1,3.2,0.1,4.7,0.2c0.8,0,1.7,0.1,2.5,0.2c0.7,0.1,1.2,0.4,1.3,1c0.1,0.7,0.3,1.4,0.2,2.1c-0.1,2.1-0.2,4.1-0.3,6.2
				c-0.1,1.2,0,2.5-0.1,3.7c-0.3,5.8-1.1,11.4-1.6,17.2c-0.5,5.1-0.4,10.3,1.7,15c2.1,4.6,6.7,8.4,11.8,8.2c1.2,0,2.4-0.3,3.4-1
				c2.3-1.5,2.9-4.4,3.4-7.1l3.5-20.5c0.9,6.9,2.3,13.8,4.2,20.5c0.8,2.9,2,6,4.5,7.7c3.2,2.2,7.8,1.2,10.9-1.2
				c4.4-3.6,6.2-9.6,8-14.7c1.1-3.1,2.2-6.2,3.1-9.3c0.4-1.5,2.8-7.2,2.1-8.3c4,7.2,7,15.1,8.8,23.1c0.8,3.7,1.2,8.1-1.7,10.5
				c-1.9,1.7-4.7,1.8-7.2,1.4c-2.5-0.4-4.9-1.2-7.4-1.3c-0.8,0-1.7,0.1-2.2,0.7c-0.6,0.7-0.4,2,0.3,2.7c0.7,0.7,1.7,1,2.6,1.3
				c4.8,1.4,9.9,2.7,14.8,2.1c5-0.7,10-3.9,11.1-8.8C763.7,213.5,759.9,207.4,757.9,202.5z M607.4,194.2c-2.2-9-1.8-19.6,1.1-28.8
				c0.6-1.9,1.4-3.7,2.4-5.4c0.2-0.4,0.6-0.7,1-1.1c0.9,0.6,1.2,1.3,1.3,2.1C613.5,163,610.2,188.7,607.4,194.2z M650.3,166
				c-1.3,4.6-2.5,9.3-3.7,14c-2.2,8.4-5.3,17.3-9.7,24.8c-0.1,0.2-0.2,0.6-0.6,0.5c-0.4-0.1-0.6-0.4-0.6-0.7
				c-0.1-0.8-0.3-1.6-0.3-2.4c-0.4-3.7-0.4-7.4-0.1-11.1c0.9-10.1,3.3-20.9,12-27.2c1.2-0.9,1.7-0.9,3.1-0.3
				c0.1,0.1,0.3,0.1,0.5,0.3C650.7,164.6,650.5,165.3,650.3,166z"/>
			<path fill="#FFFFFF" d="M157.9,186.6c0-1.7,1.5-4.1,2.1-5.7c0.5-1.4,1-2.7,1.6-4.1c1-2.3,2.1-4.5,3.3-6.7c1.3-2.4,4.9-8.7,9.1-8
				c1.5,0.3,2.9,0.4,3.8,1.5c5.6,6.3,5.3,14.9,6.2,22.5c1,8.8,2.1,36.3,8.4,32.6c1.9-1.1,4.3-7.7,4.8-8.8c0.1-0.2,0.1-0.4,0-0.6
				c-0.6-1.8-1.2-3.7-1.8-5.5c-3.7-10.6-3-23.4-0.9-34.5c1.3-6.6,5-8.8,12.4-9.4c1-0.1,2.1,0,3.1,0.1c1.3,0.1,2.2,0.7,2.6,1.9
				c1.3,3.5,2.5,6.4,2.5,10.2c0.1,6.3-1.1,12.5-2.8,18.7c-1.5,5.5-6.2,16.2-6.2,16.2s0.6,6.9,3.6,9c3.7,0.3,9.4-19.3,13.5-30.5
				c0.3-0.8,0.7-1.6,1-2.4c0.8-1.9,1.5-3.7,2.3-5.6c3.4-7.2,16.7-20.3,24-8c0.5,0.9,1,1.7,1.5,2.6c0.2,0.4,0.5,0.6,1,0.7
				c0.5,0.1,1,0.3,1.4,0.5c1.3,0.6,2,1.5,1.8,2.8c-0.1,0.6-0.3,1.3-0.4,1.9c-0.4,1.9-0.7,3.8-1.2,5.7c-0.8,3.4-1.2,6.8-1.4,10.2
				c-0.3,8.8-2.1,18.4,0.9,27c0.3,0.9,1,3,2.2,3.1c2,0.3,4.2-3.8,5.1-5c1-1.3,1.3-2.8,1.6-4.3c0.2-1.1,0.6-2.1,0.9-3.2
				c0.4-1.2,0.7-2.5,1-3.8c0.6-3.2,1.5-6.3,2.5-9.3c0.7-2.1,1.2-4.3,2-6.5c0.5-1.5,1.3-3,1.9-4.5c0.6-1.3,1.1-2.6,1.7-3.9
				c1-2.1,1.8-4.3,3-6.3c1.1-1.9,2.5-3.6,3.9-5.3c0.6-0.7,1.7-1.3,2.7-1.7c1.4-0.6,2.8-1.2,4.2-1.6c1.4-0.4,2.9-0.7,4.4-0.6
				c1.3,0.1,2.4,0.6,3.4,1.3c0.3,0.2,0.5,0.4,0.9,0.6c0.1-0.3,0.2-0.6,0.3-0.8c0.3-1.6,0.6-3.1,0.9-4.7c1.4-7.6,3.2-15.3,4-23
				c0.2-2.1,1-3.6,3.3-4.4c1.3-0.4,2.6-0.9,4.1-0.9c1.6-0.1,2.7,0.6,3,1.9c0.2,0.9,0.2,1.7,0.3,2.6c0.1,0.9,0.1,1.9,0.1,2.8
				c-0.1,2.5-0.7,5-1.4,7.5c-0.6,2.4-1.4,4.8-2.1,7.2c-5,17.9-9.9,36.3-9.7,54.8c0,1.7,0.2,3.5,0.4,5.2c0.2,2.1,0.5,4.2,1.3,6.2
				c0.1,0.4,0.3,0.7,0.5,1.2c1.3-0.6,2.4-1.3,3.4-2.1c1.7-1.5,3-3.2,4.3-4.9c2.1-2.8,3.7-5.8,5.4-8.8c1.3-2.3,2.4-4.7,3.4-7.2
				c0.7-1.7,1.4-3.3,1.9-5.1c0.5-1.8,0.9-3.7,1.3-5.5c0.3-1.3,0.5-2.7,0.8-4c0.1-0.7,0-1.3-0.3-1.9c-1.2-2.5-2.4-5.1-3-7.8
				c-0.4-1.9-0.8-3.8-1-5.7c-0.1-1.1,0.1-2.2,0.1-3.4c0-0.4,1.2-1.4,1.7-1.5c1.6-0.3,3.3-0.6,4.9-0.9c0.8-0.1,1.6-0.2,2.3,0.1
				c0.4,0.2,0.8,0.4,1,0.7c1,1.5,1.7,3.1,1.7,5c0,3.4-0.4,6.8-0.7,10.1c-0.1,1.3-0.3,2.5-0.6,3.7c-0.2,0.8,0,1.5,0.3,2.3
				c1,2.1,2,4.2,3,6.4c4.1,9.2,14.8,33-1.3,38.3c-2.3,0.8-4.7,0.8-7.1,0.1c-3.2-0.9-6-2.3-8.6-4.2c-0.6-0.4-1.1-1-1.6-1.6
				c-0.3-0.3-0.1-0.7,0.4-1c0.9-0.5,1.9-0.7,2.9-0.6c1.3,0,2.5,0.4,3.5,1.1c4.6,3.4,8.4-0.4,10.3-4.1c2.5-4.9,1.5-9.6,0.6-14.8
				c-0.6-3.4-2-6.6-3.4-9.8c-0.3-0.7-0.4-1.4-1.2-2.1c-0.6,1.1-1.2,2-1.5,3.1c-0.8,2.8-1.7,5.6-3.3,8.2c-0.2,0.4-0.4,0.8-0.6,1.2
				c-1.7,2.8-3.3,5.6-5,8.4c-1,1.7-2,3.3-3.1,4.9c-1.1,1.5-2.3,2.9-3.5,4.4c-0.3,0.4-0.8,0.6-1.2,1c-1,1.1-1.9,2.1-3.5,2.5
				c-1,1-2.3,0.8-3.4,0.5c-2.2-0.6-4.1-1.7-5.5-3.3c-0.5-0.6-0.9-1.4-1.3-2.2c-1-1.9-1.3-4-1.8-6.1c-0.5-2.4-0.5-4.8-0.7-7.1
				c-0.1-1.9-0.2-3.9-0.3-5.8c0-0.5,0-1.1,0-1.7c-0.5,0-0.5,0.4-0.6,0.7c-1.4,2.3-2.8,4.6-4.2,6.9c-1.2,2-2.7,3.9-4.4,5.7
				c-0.9,1-2,1.8-3,2.7c-0.8,0.7-1.6,1.4-2.6,2c-2.1,1.1-4.1,1-6.2-0.1c-1.1-0.6-1.8-1.3-2.2-2.5c-0.3,0.2-0.5,0.3-0.6,0.5
				c-1.8,1.9-4,3.4-6.3,4.7c-0.7,0.4-1.3,0.8-1.9,1.3c-1.9,1.4-4,1.4-6.2,0.8c-2.5-0.7-4.2-2.2-5.3-4.3c-1.2-2.2-1.7-4.4-1.8-6.7
				c-0.1-1.5-0.4-2.9-0.6-4.4c-0.1-1-0.3-2.1-0.3-3.1c0-2.8,0-5.6,0-8.4c0-0.3,0-0.6-0.3-1c-0.2,0.4-0.4,0.8-0.5,1.2
				c-0.7,1.9-1.2,3.8-2,5.6c-1.2,2.9-2.5,5.7-3.8,8.6c-0.7,1.6-1.5,3.2-2.4,4.7c-0.6,1.1-1.3,2.1-2.2,3c-1,1-2.3,1.6-3.8,1.7
				c-7.3,0.8-8.6-8.9-8.7-13.2c0-1.4-0.1-2.8-0.1-4.3c0,0-0.1-0.1-0.2-0.3c-0.1,0.4-0.2,0.8-0.4,1.1c-0.7,1.6-1.4,3.1-2.1,4.7
				c-1.3,3.1-2.8,3.1-4.5,6.1c-0.8,1.3-3.3,2.3-4.9,2c-1.2-0.2-2.5-0.3-3.6-0.9c-1.7-0.8-2.9-2.1-3.9-3.5c-0.3-0.5-0.6-0.9-1-1.5
				c-0.2,0.2-0.4,0.3-0.5,0.5c-1.7,2.3-2.2,4.6-4.4,6.6c-1.2,1.1-2.6,2-3.9,2.9c-1.8,1.3-5.5,0.8-7-0.2c-1-0.7-2-1.4-2.8-2.3
				c-2.4-2.6-3.8-5.6-4.8-8.8c-3.2-10.9-1.5-22.3-3-33.4c-0.4-2.9,0.6-6.4-1.5-8.7c-1.1-1.2-9.3,15.7-9.9,28.5
				c-0.1,2.2-0.3,4.4-0.4,6.6c-0.1,2.7,0.3,12,0.2,14.7c0,0.1,0,0.3,0,0.4c0.4,0.8-0.2,1.3-0.8,1.6c-2,0.9-4.1,1.5-6.4,1.4
				c-1.1,0-1.7-0.5-2.1-1.3c-0.9-1.9-1.6-3.8-1.8-5.9c-0.2-2.5-0.8-11.5-1-13.9c-2.1-22.9-5.5-41.6-2.1-64.9c0.2-1.4,0.6-2.8,1-4.2
				c0.2-0.6,0.4-1.2,0.5-1.8c0.1-0.7,0.5-1.2,1.1-1.7c0.2-0.2,0.4-0.3,0.6-0.5c0.6-0.8,1.5-1,2.4-1.2c0.8-0.1,1.7-0.6,2.5-0.7
				c1.7-0.3,3.6,1.1,4.1,2.4c1,2.1,1.6,4.3,1.8,6.6c1,13.8-0.4,25.4-4.3,41.8c-0.4,1.5-0.8,5.2,0,7.5
				C157.9,186.7,157.9,186.6,157.9,186.6z M274.5,213.5c0.2,1.1,0.2,2.1,0.5,3.1c0.2,0.8,0.8,0.9,1.4,0.2c0.7-0.7,1.3-1.4,1.9-2.2
				c1.1-1.6,2.1-3.2,3.3-4.7c1.9-2.6,3.8-5.1,5.2-7.9c1.4-2.8,2.7-5.7,4-8.6c0.2-0.5,0.3-1.1,0.4-1.7c0.3-1.4,0.4-2.8,0.8-4.2
				c1.1-3.7,2-7.4,2.4-11.2c0.1-0.7-0.3-1.1-0.8-1.5c-0.5-0.4-1.1-0.1-1.6,0.1c-0.2,0.1-0.5,0.2-0.7,0.4c-3,1.9-5.4,4.3-7.3,7.1
				c-0.9,1.4-1.6,2.9-2.3,4.3c-1.1,2.2-2.1,4.3-2.7,6.7c-0.5,2-1,4-1.6,5.9c-0.3,1.1-0.6,2.1-0.9,3.2c-0.5,2.2-1,4.4-1.4,6.6
				C275,210.5,274.8,212,274.5,213.5z M247.2,172.2c-0.6-0.8-1.5-1.3-2.4-1.8c-0.7-0.3-1.7-0.2-2.3,0.3c-3.9,3.4-6,8.1-7.6,12.6
				c-1.8,4.9-3.5,9.9-4.3,15c-0.7,4.5-0.9,9.1-0.7,13.6c0.1,1.1,0.2,2.2,0.4,3.3c0.1,0.9,0.5,1.1,1.5,1c1-0.1,2-4.4,2.3-5.1
				c1-2.8,2.2-5.4,3.2-8.2c2.3-6.3,4.2-12.7,6.6-19c1.3-3.5,2.5-7,2.9-10.7C246.9,172.8,247.1,172.5,247.2,172.2z M203.5,197.8
				c0.7-0.7,5.6-15.3,5.9-22.2c0.1-2-1.2-10.6-3-10.8c-1.8-0.2-3.2,6.2-3.4,9.6c-0.1,1.5-0.1,3-0.3,4.5c-0.7,5-0.5,9.9,0.3,14.9
				c0.1,0.8,0.3,1.7,0.4,2.5C203.5,196.8,203.5,197.3,203.5,197.8z M155.5,140.1c-0.1,0-0.2-0.4-0.3-0.4c-0.1,0.4-0.1,2.8-0.2,3.2
				c-0.1,1-0.2,1.9-0.3,2.9c-0.1,0.6-0.1,1.2-0.1,1.8c0,2.3,0,4.6,0,7c0,1.2,0.2,8.6,0.6,9.8C155.5,158.8,156.1,145.6,155.5,140.1z"
				/>
			<path fill="#FFFFFF" d="M395.3,207.7c0.5-0.5,0.9-1,1.3-1.5c1.1-1.2,2.2-2.5,3.4-3.7c0.8-0.8,1.3-1.6,0.5-2.7
				c0.5-0.5,1.1-0.6,1.7-0.5c1.3,0.2,2.5,0.4,3.8,0.7c0.3,0.1,0.6,0.1,0.9,0.3c0.6,0.3,0.7,0.8,0.4,1.4c-0.2,0.4-0.5,0.7-0.8,1.1
				c-2.4,2.6-4.7,5.2-7.1,7.8c-0.4,0.4-0.5,0.8-0.2,1.3c0.2,0.5,0.5,1,0.8,1.5c0.6,1.3,1.2,2.6,1.7,3.9c0.4,0.9,0.2,1.8-0.3,2.6
				c-0.7,1.1-1.4,2.2-2.3,3.2c-0.7,0.9-1.6,1.7-2.5,2.6c-0.3,0.3-0.7,0.5-1,0.6c-1,0.3-1.7-0.1-2.1-1c-0.1-0.2-0.1-0.4-0.2-0.6
				c-0.4-1.4-0.8-2.8-1.2-4.1c-0.1-0.2-0.1-0.5-0.3-0.7c-0.6-0.6-0.9-1.4-1-2.2c0-0.1-0.2-0.2-0.3-0.3c-0.8,0.4-1.7,0.7-2.5,1.1
				c-2.7,1.5-5.7,2.2-8.8,2.2c-3.1,0.1-6.2-0.2-8.9-1.7c-0.9-0.5-1.9-1.1-2.6-1.9c-2-2.1-3.9-4.3-4.9-7c-1.2-3.2-1.2-6.3-0.1-9.5
				c0.8-2.4,1.9-4.6,3.2-6.7c1.2-2,2.5-3.9,3.7-5.9c0.1-0.1,0.2-0.3,0.2-0.4c-0.6-1.5-1.2-2.9-1.7-4.3c-1.4-3.7-2.6-7.5-3.1-11.4
				c-0.2-1.7-0.4-3.5-0.1-5.1c0.7-4.1,3-7.4,6.6-9.6c1.9-1.2,4-2,6-2.9c0.5-0.2,1.1-0.2,1.6-0.2c0.9,0,1.8,0.1,2.7,0.2
				c0.4,0.1,0.8,0.4,1,0.7c1.6,2.4,2.2,5.2,2.1,8.1c-0.1,1.9-0.2,3.8-0.4,5.7c-0.1,1.2-0.5,2.4-0.8,3.6c-0.1,0.6-0.3,1.2-0.5,1.7
				c-0.5,1.2-1,2.4-1.5,3.6c-1,2.2-2,4.4-2.9,6.5c-0.2,0.5-0.2,0.9,0.1,1.4c1.7,2.8,3.4,5.6,5.2,8.3c2.8,4.3,6.3,8.1,9.5,12
				c0.4,0.5,0.7,0.9,1.1,1.4C394.8,207.4,395,207.5,395.3,207.7z M388,213.8c-0.3-0.5-0.6-0.9-0.9-1.3c-2.4-2.9-4.8-5.8-7.1-8.7
				c-1.7-2.1-3.2-4.3-4.5-6.6c-0.5-1-1.1-1.9-2-2.8c-0.9,1.7-1.8,3.3-2.3,5.1c-0.5,2-1.4,4-1.4,6.2c0,2,0.1,4,1.2,5.8
				c0.6,0.9,1.3,1.8,1.9,2.7c0.1,0.2,0.3,0.3,0.4,0.4c1.5,1.1,3.1,1.8,4.9,2C381.8,217,384.9,215.8,388,213.8z M375.7,178.3
				c0.8-0.9,1.8-2.7,2.3-4.3c0.9-2.9,1.3-5.9,1.3-9c0-1.8-0.4-3.6-1.2-5.2c-0.6-1.3-1.9-1.5-2.9-0.5c-1.6,1.8-2.6,3.8-2.5,6.4
				c0.3,4.2,1.4,8.2,2.7,12.1C375.4,178,375.5,178.1,375.7,178.3z"/>
			<g>
				<path fill="#FFFFFF" d="M127.3,223.2c0.4,0.6,0.7,1.3,1.1,2c-1.5,0.8-2.8,0.7-3.9,0.2c-3.2-1.5-6.3-3.1-8.8-5.8
					c-3.6-3.7-5.4-8.4-6-13.6c-0.6-5.1-0.2-10.2-0.6-15.3c-0.4-5.6-0.9-11.2-1.3-16.8c-0.1-1.2-0.6-1.9-1.5-2.4
					c-1.1-0.6-1.7-0.2-3-0.7c-0.1,0.4-0.3,0.7-0.3,0.9c0.1,5.9-1.1,11.6-2,17.3c-1.5,9.3-4.6,32.2-19.4,26.3
					c-4.5-1.8-7.5-7.7-8.3-13c-0.7-4.3-1.3-8.5-1.1-12.9c0-1.1-1.6,19.4-11.6,20c-4.6,0.3-10.6-2.6-12-8.8
					c-2.5-11.2-0.9-19.7,0.6-30.9c0.2-1.3,0.2-2.7,0.3-3.9c-3.1,1-5.8,1.8-8.8,3.1c0.1,0.8,3.7,19-2.7,31.8
					c-2.5,5-5.3,8.8-10.4,10.2c-3.6,1-7.2,0.9-10.9-0.5c-3.3-1.3-5.4-3.7-6.5-7.2c-3.7-12.2-4-29.2,1.3-41c1.1-2.6,2.3-5.1,4.6-6.8
					c0.5-0.4,1.1-0.9,1.7-0.9c3.7-0.2,7.5-0.3,11.2,0.8c3.9,1.1,6.6,3.9,9.2,7c0.6,0.7,1.1,1.5,1.7,2.3c1.6-0.4,2.9-1.6,3.8-2.8
					c2.1-2.9,4.1-5.8,6.1-8.8c0.7-1.1,1.5-1.7,2.8-1.1c0.3,0.1,0.7,0.2,1.1,0.3c3.8,0.8,5.3,1,5.3,5.3c0.3,14.4-2.1,25.2-2.2,39.6
					c0,2.8,0,8.2,3.1,8s5.3-5,6.5-8.1c4.8-11.9,6.6-40.1,7.1-43.7c0-0.2,0.1-0.4,0.2-0.7c1.8-0.2,4.7,0.2,6.3,0.8
					c1.3,0.5,2,1.7,1.9,3.2c-0.1,2.2-0.2,4.3-0.6,6.4c-1.3,6.8-1.8,47.1,1.1,48.5c7,1.8,12.9-30.7,13.2-44.8c0-0.7-0.5-1.5-1-2
					c-2.3-2.1-2.9-5-3.4-7.9c-0.1-0.7-0.2-1.3,0.3-1.8c7.8-6.4,14.1,3.8,11.4,10.7c-0.5,1.3,0.8,2.1,2,2.5c2.7,1.1,4.9,1.9,7.4,3.4
					c2.3,1.4,3.8,3.4,3.8,6.3C116.3,219.6,127,222.7,127.3,223.2z M33.7,169.1c-2.2-1.2-4.6-2.2-6.8-3.6c-2.3-1.5-3.4-4.1-4-7.1
					c-0.6,0.4-0.9,0.6-1.1,0.8c-3.2,3.1-4.6,7.3-5.5,11.6c-2.3,10.5-3.2,25,1.8,34.9c3.7,7.3,8.9,0.7,11.4-3.7
					C34,194,37.2,178.1,33.7,169.1z M32.9,166.5c-0.3-2.9-1.8-5.1-3.9-5.5C29.5,163.5,30.9,165.1,32.9,166.5z"/>
			</g>
		</g>
		<g>
			<g>
				<path fill="#FFFFFF" d="M657.8,95.5C657.8,95.5,657.8,95.5,657.8,95.5c-0.2-0.3-0.4-0.6-0.6-0.9c0,0,0-0.1-0.1-0.1
					c-0.2-0.3-0.4-0.7-0.5-1c-0.1,0.1-0.2,0.1-0.4,0.2c-1.1-2.2-2-4.4-2.5-6.7c-3.3-13.9-4.5-28.7-7.8-42.4c-0.3-1.3-1.2-2.5-2.5-3
					c-2.3-1-4.6-1-7-0.2c-1.2,0.4-2.1,1.2-3.1,1.9c-2.4,1.7-4.1,3.8-5.5,6.2c-1,1.8-1.7,3.8-2.5,5.7c-0.1,0.2-0.3,0.3-0.6,0.7
					c1.5-1.7-0.1-3.6,0.2-6c0.2-2,0.7-4.1,1-6.1c0.5-3.2,0.9-6.5,1.3-9.7c0.4-3.3,0.2-13.3,0.3-16.7c0.1-2.6-0.2-5.2-1.6-7.5
					c-0.7-1.1-1.4-2.3-2.2-3.3c-2-2.4-6.9-2.9-8.9-0.4c-1.8,2.2-1,6.4-0.9,9c0.1,3.4,1,12.8,1,16.2c0.1,2.9,0.2,5.7,0.3,8.6
					c0,1.1,0,1.1-1.1,1.3c-3,0.4-6.1,0.8-9.1,1.2c-1.7,0.2-3.4,0.4-5.2,0.6c0-0.5-0.1-0.9-0.1-1.2c-0.1-2.8-0.1-5.7-0.4-8.5
					c-0.4-4.4-0.4-3.2-0.3-7.6c0.1-2.6-0.8-5-1.1-7.5c-0.1-0.8-0.7-1.3-1.4-1.7c-0.7-0.4-1.2-0.2-1.8,0.2c-0.1,0.1-0.2,0.1-0.4,0.1
					c-1.9,0.8-3.7,1.6-5.1,3c-0.6,0.5-0.9,1-0.8,1.7c0,0.3,0.1,0.6,0.1,0.9c0.4,2.1,0.8,4.2,0.8,6.3c0,1.2,0.1,2.5,0.2,3.7
					c0.1,1.8-0.1-2,0-0.3c0.2,2.4,0.3,4.8,0.6,7.2c0.2,1.7,0.3,3.3,0.1,5c-0.8,0.1-1.6,0.2-2.4,0.3c-1.5,0.1-3,0.4-4.4,0.3
					c-1.7-0.1-3.3,0.1-4.9,0.6c-0.7,0.2-1.4,0.4-2.1,0.7c-0.9,0.3-1,0.7-0.7,1.5c0.5,1,1.4,1.3,2.4,1.4c1.4,0.1,2.8,0.1,4.2,0.3
					c2.4,0.3,4.8,0.6,7.3,0.1c0.2,0,0.4,0.1,0.6,0.1c0.1,0.3,0.1,0.6,0.1,0.8c0,1.4,0,2.8-0.2,4.2c-0.2,2.5-0.4,4.9-0.7,7.4
					c-0.6,4.5-1.2,8.9-1.9,13.4c-0.4,2.5-1,11-1.5,13.5c-0.3,1.7-0.7,0.7-1.2,2.3c-0.9,3.1-1.8,7.1-3.9,9.5c-1.5-3-2.9-6.2-4-9.4
					c-0.8-2.4-1-2.2-1.2-4.7c-0.3-3.3-0.7-12.5-1.1-15.8c-0.6-5-0.9-10-1.3-15c-0.2-2.6-0.5-5.2-0.8-7.7c-0.2-1.4-0.9-2.5-2.2-3.2
					c-2.5-1.2-5.1-1.5-7.7-0.3c-2,1-4.1,1.7-6.2,2.3c-0.5,0.1-1,0.2-1.5,0.2c-4.5-0.3-9.6-0.8-13.9-2.3c-0.4-0.1-0.8-0.3-1.1,0.1
					c-0.3,0.4-0.2,0.8,0,1.2c0.8,1.8,1.6,3.6,2.4,5.4c0.3,0.6,0.5,1.1,0.7,1.7c3.2,10.3,4.4,24,4.6,34.6c0,1.8,0.1,3.6-0.6,5.3
					c-0.1,0.2-0.2,0.4-0.4,0.7c-0.1-0.2-0.2-0.3-0.3-0.4c-1.8-3.6-4.7-7.5-5.4-11.5c-0.5-3.4-0.7-9.8-1.4-13.2
					c-0.6-2.5-1.4-4.8-2.8-7c-0.9-1.5-2.3-2.6-3.7-3.5c-1-0.6-2.2-1.1-3.5-0.4c-0.6,0.3-1.2,0.5-1.8,0.7c0.1,0.3,0.3,0.5,0.3,0.7
					c0,1.8,0.3,3.6,0.6,5.4c0.3,1.6,0.2,3.3,0.2,5c-0.1,2.2-0.2,7.3-0.4,9.5c-0.2,1.8-0.7,3.5-1,5.2c-0.5,2.5-1.1,4.9-1.7,7.4
					c-0.2,0.8-0.7,1.4-1.2,2.4c-0.3-0.6-0.5-0.8-0.6-1.2c-2.7-8.8-5.8-29.1-4.1-37.3c0.4-1.8,0.5-3.7,0-5.5
					c-0.2-0.9-0.7-1.9-1.3-2.6c-1.3-1.5-2.7-2.8-4.1-4.1c-0.2-0.2-0.5-0.4-0.8-0.6c-0.7,0.9-1.1,1.8-1.2,3c0,1.9-0.5,3.8-0.8,5.8
					c-1.4,8.8,1.3,31.5,4.9,39.8c0.9,2.1,2.1,4,4.1,5.4c1.4,0.9,2.8,1.8,4.4,2.2c1.7,0.4,3.6-0.4,4-1.4c0.8-1.7,1.6-3.4,2.1-5.2
					c0.9-2.9,1.8-5.7,2-8.7c0-0.3,0.1-0.6,0.2-0.8c0.4,0.5,0.5,0.9,0.6,1.4c0.8,3.2,1.9,6.3,3.5,9.3c1.3,2.5,3.2,4.5,5.7,5.9
					c1.2,0.7,4.6,1.1,6,1c1-0.1,2-0.4,2.5-1.4c0.5-1,0.9-1.9,1.3-2.9c1.4-2.9,2.2-6,2.8-9c0.6-2.8,0.9-8.7,0.7-11.5
					c-0.3-4.2-0.8-8.3-1.7-12.4c-0.9-3.9-2.3-7.6-3.5-11.3c-0.2-0.5-0.4-1-0.6-1.5c-0.1-0.2-0.1-0.5-0.3-0.9
					c1.2,0.2,2.2,0.3,3.2,0.6c2.9,0.8,5.9,0.9,8.8,0.1c0.2,0,0.4,0,0.7,0c0.1,0.5,0.2,1,0.2,1.5c0.1,1.6,0.2,3.2,0.2,4.8
					c0.1,2.4,0.2,4.8,0.3,7.2c0.2,2.4,0.6,4.8,0.8,7.2c0.3,5.2,1.4,7.5,2.5,12.6c0.6,2.5,1.5,11,2.2,13.4c0.8,2.8,2,5.4,4,7.8
					c1.6,1.9,3.4,3.4,5.8,4.4c1.5,0.6,4,0,4.9-1.4c0.6-0.9,1.2-1.9,1.7-2.8c1.6-3.1,2.7-6.4,3.4-9.7c0.5-2.3,1.2-1.8,1.7-4.2
					c0.4-2.2,0.8-4.3,1.2-6.5c0.1-0.4,0.2-0.9,0.3-1.3c0.4,0.8,0.5,1.5,0.7,2.3c0.6,3.1,1.4,6.2,3.1,9c2.1,3.4,5.3,5.6,9.4,6.4
					c1.3,0.3,2.6,0.2,3.7-0.8c0.7-0.6,1.6-1.1,2.4-1.7c0.3-0.2,0.5-0.5,0.7-0.8c2.4-4.1,4.1-14.4,6.3-18.6c0.1,0,0.2,0,0.3,0.1
					c0.1,0.9,0.3,1.8,0.4,2.7c0.4,3.6,0.4,5.1,1.6,8.7c0.4,1.3,1,2.3,2,3.2c0.7,0.7,1.4,1.3,2.2,1.9c1,0.7,2.1,1.3,3.4,1.5
					c1.2,0.1,2.4-1,2.2-2.1c-0.5-2.7-1-5.4-1.5-8.1c-0.3-1.9-1.2-9.2-1.3-11.1c-0.1-2.6,0.2-5.3,0.3-7.9c0.1-2.3,0.8-4.5,1.5-6.7
					c0.6-1.9,1.3-3.8,2-5.7c0.7-1.7,1.4-3.3,2.2-4.9c0.2-0.4,0.6-0.8,1-1.2c0.6,0.2,1,0.4,1.4,0.6c0.3,0.2,0.5,0.5,0.6,0.8
					c0.3,1.1,0.5,2.3,0.7,3.4c0.6,3.5,1.2,7,1.9,10.5c1.1,5.5,2.8,18.6,4.1,24.1c0.7,3.1,2.1,5.9,4.6,8.1c1,0.9,2.2,1.7,3.4,2.5
					c1.6,1.1,3.3,1.4,5.1,0.5c0.3-0.2,0.7-0.2,1.1-0.3c0.8-0.2,1.4-0.6,1.8-1.1c-0.2-0.2-0.4-0.4-0.6-0.6
					C658.9,96.7,658.3,96.1,657.8,95.5z M617.1,65c-0.7,2.8-1.4,5.6-2.1,8.4c-0.9,3.1-1.9,12.1-3.3,15c-0.7,1.4-1.3,2.9-1.9,4.4
					c-0.4,0.9-0.8,1.9-1.9,2.5c-0.5-0.8-1.1-1.5-1.3-2.3c-0.5-1.3-0.8-2.7-1.2-4.1c-0.4-1.5-0.7-9-1-10.5c-0.5-2.3-1.1-4.7-1.4-7
					c-0.5-3.3-1-6.6-1.4-10c-0.5-4.5-0.8-8.9-1.2-13.4c0-0.1,0-0.2,0.1-0.5c5.1-0.6,10.1-1.2,15.3-1.9c0.1,0.9,0.2,1.7,0.3,2.5
					c0.4,3.4,0.8,6.8,1.3,10.2C617.6,60.5,617.7,62.7,617.1,65z"/>
				<path fill="#FFFFFF" d="M561.8,29.4c0.2-0.5,0.3-1.1,0.7-1.6c0.5-0.7,1.1-1.4,1.8-1.9c0.4-0.4,1.1-0.7,1.7-0.6
					c1.1,0.1,2.3,0.3,3.4,0.6c0.3,0.1,0.6,0.3,0.7,0.6c0.6,1,1.2,2.1,1.7,3.2c0.2,0.4,0.3,1,0.2,1.3c-0.5,1.2-0.9,2.3-1.6,3.3
					c-0.8,1.1-2.2,1.4-3.5,0.9C564.4,34.5,562.1,32,561.8,29.4z"/>
			</g>
			<path fill="#FFFFFF" d="M422.4,49.8c0-0.1-0.1-0.2-0.1-0.3c-0.2-0.6,0.5-7.4-0.6-12.9c-0.4-2.2-0.8-11-5.6-11.3
				c-3.6-0.2-4.9,5.5-5.3,7.2c-1.4,5.8-2,11.7-2.7,17.7c-0.7,6.2-1.7,9.7-1.3,15.9c0.2,3.8,0.6,7.7,1.1,11.5
				c0.5,4.3,1.5,8.4,2.6,12.6c0.7,2.5,1.7,4.9,3.1,7.1c0.6,0.9,2.4,1.7,3.6,2c0.7,0.2,4.6,0,5.1-0.5c0.9-0.9,1.4-2.1,1.8-3.3
				c1.2-3.9,1.6-11.4,1.4-15.6c-0.1-1.8,0-3.7,0.1-5.6c0-1,0-1.9-0.5-2.8c-0.3-0.5-0.7-0.8-1.3-0.8c-1.8,0.1-0.3-0.5-2.1-0.4
				c-1.3,0-5.9-0.3-6.7-1.4c-0.8-1,1.7-2.8,2.9-3c0.9-0.1,10.8-0.4,13.6-0.8c0.5-0.1,1,0,1.5,0c0.8,0.1,1.4,0.5,1.7,1.2
				c0.5,1.1,0.9,2.1,0.9,3.4c0.1,3.5,0.1,7.1-0.2,10.6c-0.2,2,0.1,6.7,0.2,8.7c0.1,2.5,0.2,4.9,0.3,7.4c0,0.7,0.2,1.4,0.3,2
				c0.3,1.6-0.6,2.7-2.2,2.5c-1.2-0.1-2.4-0.4-3.4-1.2c-0.3-0.2-0.6-0.4-0.9-0.5c-0.6-0.3-1.1-0.2-1.6,0.4
				c-4.2,5.3-14.5,6.5-19.7,1.9c-0.9-0.8-1.6-1.7-2.4-2.6c-1.5-1.5-2.3-3.5-3.2-5.3c-1.7-3.4-2.7-7.1-3.5-10.8
				c-1.1-5.1-1.2-10.2-1.3-15.4c-0.1-3.5,0-4.2,0.1-7.6c0.1-2.7,0.1-5.5,0.6-8.2c3.6-21.6,7.9-30,17.1-32.3
				c2.2-0.5,8.8,0.8,10.3,2.5c1.2,1.3,1.8,3,2.3,4.7c1.9,6.3,3.3,18.1,2.5,20.1c-0.8,2-2.2,3.8-4.3,4.5
				C425.1,51.6,423.1,51.2,422.4,49.8z"/>
			<path fill="#FFFFFF" d="M238.1,17.9c1.1-0.4,2-0.3,2.8-0.1c1.8,0.4,3.7,0.7,5.5,0.8c3.4,0.1,6.5,1,9.5,2.5c2,1,3.8,2.2,5.6,3.3
				c4,2.5,7.6,5.5,11.1,8.7c4.6,4.3,8.3,9.3,10.6,15.2c2.2,5.8,3.3,11.7,3.1,17.9c-0.2,5.7-1.6,11.1-3.5,16.5
				c-1.8,4.9-4.6,9.1-7.9,13.1c-2.6,3-5.8,5.2-9.4,6.8c-1.2,0.5-2.6,0.8-3.9,1.2c-2,0.5-4.1,1-6.1,1.5c-1.5,0.4-3,0.8-4.5,1.1
				c-1.6,0.4-3.2,0.4-4.7-0.1c-1.7-0.5-2.9-1.9-3-3.8c-0.1-2.4,0-4.8-0.1-7.3c0,0,0-0.1,0-0.1c1-1.4,0.4-3,0.3-4.5
				c-0.2-3.7-0.4-7.3-0.7-11c-0.3-3.8-0.5-7.5-0.8-11.3c-0.3-3.9-0.5-7.9-0.8-11.8c-0.3-3.7-0.5-7.4-0.8-11.1
				c-0.1-1.4-0.1-2.8-0.2-4.2c-0.3-3.3-0.6-6.7-1.1-10c-0.4-3.1-1.1-6.1-1.5-9.2C237.8,20.6,238.1,19.2,238.1,17.9z M254.3,95.8
				c0.4,0,0.6,0.1,0.8,0c5-0.8,9.1-3,12.4-6.9c3.4-4,6-8.4,7.6-13.4c1.4-4.2,2.3-8.5,2.4-13c0.1-5.4-0.9-10.5-2.8-15.5
				c-1.8-4.6-4.5-8.6-8-12c-3-2.9-6.4-5.4-9.8-7.8c-2.4-1.6-4.8-3.1-7.5-3.9c-0.3-0.1-0.6,0-1,0c0.4,3,0.9,5.8,1.3,8.7
				c0.8,5,1,10,1.1,15c0.1,5.1,0.5,10.1,0.9,15.2c0.2,3.5,0.7,7,0.9,10.4c0.5,6,0.9,12.1,1.3,18.1C253.9,92.3,254.1,94,254.3,95.8z"
				/>
			<path fill="#FFFFFF" d="M380.2,107.5c-0.2-1.9-0.5-3.8-0.6-5.6c-0.9-12.9-0.3-25.8-0.1-38.6c0.2-11.2,0.5-22.9,0.8-34.3
				c0-1.2-0.1-2.3-0.1-3.5c0-1.5,0.1-1.8,1.5-2.1c2.4-0.6,3.1-0.7,5.5-0.2c1.8,0.4,2.6,1,2.6,3.3c0,2-0.2,4.1-0.3,6.1
				c-0.4,11.4-0.8,22.9-0.8,34.3c0,11.2,1.4,22.6,0.9,33.7c-0.1,1.2-0.1,2.4-0.1,3.6c0,1.4-0.8,2.8-2.1,3c-2.3,0.4-2.8,1.2-5.2,0.4
				C381.5,107.4,380.8,107.5,380.2,107.5z"/>
			<path fill="#FFFFFF" d="M471.2,65.8c-0.5-4.8-1-9.6-1.5-14.3c-0.5-5.2-1-10.3-1.5-15.5c-0.2-2.7-0.4-5.3-0.5-8
				c-0.1-1.9,0.1-3.7,0.1-5.6c0-0.3,0.2-0.6,0.3-0.8c0.3-0.6,0.7-1.1,1-1.6c1.1-0.3,2.1-0.7,3.2-1c1-0.3,3.1-0.5,4.1-0.3
				c1,0.2,1.6,1,1.3,2c-0.9,2.6-0.6,5.2-0.3,7.8c0.1,1.4,0.1,2.9,0.2,4.3c0.2,3.3,0.4,6.6,0.6,9.8c1.1,14.4,4.6,59.6,3.6,60.1
				c-1.8,1.1-4.5,0.5-6.1-0.5c-0.6-0.4-1.1-0.8-1.6-1.2c-0.7-0.7-1.5-1.3-1.6-2.4c0-0.5-0.4-0.9-0.6-1.4c-0.4-1-0.7-2.1-1.2-3.1
				c-0.6-1.5-1.4-2.9-2.1-4.4c-0.5-1-1-2.1-1.4-3.1c-1.6-3.5-12-33-14-38.1c-0.9-2.3-1.7-4.7-2.6-7c-0.1-0.3-0.3-0.6-0.6-0.9
				c0,0.5-0.1,0.9,0,1.4c0.3,6.4,0.7,12.7,0.9,19.1c0.2,5.8,3.3,38,3.5,39.3c0.2,1.2-0.1,1.6-1.3,2.1c-1.1,0.4-3.2,0.4-4.2,0
				c-0.7-0.2-1.4-0.4-2.1-0.6c-0.6-0.2-1-0.4-1.2-1c-0.3-0.8-0.6-1.6-0.6-2.4c0-1.3-0.2-2.7-0.4-4c-0.4-3.6-2.1-20.6-2.2-25.5
				c-0.1-4.6,0-9.2-0.2-13.9c-0.1-4.3-0.4-8.6-0.6-12.9c-0.3-5-0.6-10-0.9-15c-0.1-1.3-0.4-2.6-0.5-4c-0.1-1,0-1.9,0.9-2.5
				c0.2-0.2,0.6-0.3,0.9-0.2c1.5,0.5,4.1,1.1,5.7,1.5c1.8,0.5,2.5,1.9,3.2,3.3c1.6,3.1,2.7,6.4,3.8,9.6c1.7,5,3.6,9.9,5.6,14.8
				c1.6,4.1,11.2,30.1,11.9,31.5C472.5,81.4,471.6,69.5,471.2,65.8z"/>
			<path fill="#FFFFFF" d="M360.9,44c-5-5.4-1.2-17.4-12.3-15.5c-3.8,0.6-5.3,8-5.4,11.1c-0.1,4.6,2.3,8.5,5.2,12
				c6.2,7.3,15.5,12.3,20.8,20.4c6.7,10.4,9.3,23.1-2.3,31.4c-12.9,9.2-28.6,1.5-29.7-15.9c-0.3-5.4,1.6-10.5,8.3-13.1
				c0.9-0.3,2.1-0.4,2.5,0.4c0.3,0.6-0.2,1.3-0.6,1.9c-2.3,3.2-2.7,7.4-1.9,11.2c1,4.5,4.9,15.9,14.4,12.9c0.5-0.2,0.9-0.6,1.2-1
				c9.5-12.4,5.7-20.2-4.9-30.7c-7.3-7.2-20.3-17-21.5-27.8c-0.4-3.4,0.2-6.6,1.3-9.8c2.1-5.9,10.4-7.9,16-8.1
				c4.3-0.2,8.5,1.2,11.1,4.8c1.8,2.5,4.4,10.6,2.4,13.4C364.4,43,362.9,44,360.9,44z"/>
			<path fill="#FFFFFF" d="M300.3,39.5c0.3,4.8,0.7,9.6,1,14.4c0.2,3.6,0.5,7.2,0.7,10.8c0,0.3,0.1,0.6,0.1,1c0.5,0,0.9,0,1.3-0.1
				c3.8-0.6,7.7-1,11.5-1.1c1.9,0,3.8-0.4,5.8-0.5c2.6-0.2,2.8-0.3,5.4-0.3c0.8,0,1.6,0.4,2.3,0.8c1.4,0.9,1.3,2.7-0.2,3.5
				c-0.7,0.4-1.5,0.6-2.2,0.7c-2.4,0.2-2.5,0.3-5,0.4c-3.6,0.1-7.2,0.2-10.8,0.2c-0.8,0-1.6,0.1-2.5,0.2c-1.7,0.1-3.4,0.2-5.2,0.4
				c-0.2,1.2,0,2.4,0.1,3.7c0.2,2.9,0.4,5.7,0.5,8.6c0.2,5.3,0.3,10.7,0.5,16c0,0.3,0,0.5,0.1,0.8c0.1,0.6,0.4,0.9,1,0.8
				c0.8-0.1,1.5-0.2,2.3-0.3c2.6-0.2,5.2-0.4,7.8-0.5c5.9-0.3,9.4-0.6,15.3-0.9c1-0.1,1.9,0.2,2.6,1c0.4,0.5,0.5,0.9,0.2,1.5
				c-0.6,1.4-1.8,2.1-3.2,2.4c-0.4,0.1-0.8,0.1-1.2,0.1c-4.2-0.1-5.9,0.4-10.1,0.6c-3.5,0.2-7,0.4-10.5,0.7c-2,0.1-4,0.3-6,0.5
				c-1.7,0.2-4.4-0.3-5.7-1.2c-1-0.7-1.8-1.5-2.7-2.3c-0.6-0.5-0.7-1.2-0.8-1.9c-0.1-2.9-0.2-5.8-0.3-8.7c0-2.4,0.1-4.9,0.1-7.3
				c-0.2-5.2-0.5-10.4-0.7-15.6c-0.2-3.9-0.3-7.8-0.5-11.7c-0.1-2.5-0.3-5-0.5-7.5c-0.1-1.8-0.2-3.7-0.3-5.5c-0.1-1-0.2-2.1-0.3-3.1
				c-0.2-4-0.4-8-0.6-12c-0.1-1.2-0.2-2.3,0.1-3.5c0.2-1.1,0.9-1.7,2.1-1.7c4,0.1,9.1,0.1,13,0.4c3.1,0.2,6.2,0.1,9.4,0
				c0.4,0,0.8-0.2,1.2-0.2c0.6-0.1,1.2-0.1,1.8-0.1c0.7,0,1.5,0,2.2-0.1c1.6-0.1,3.1-0.1,4.6,0.4c1,0.3,1.8,1.2,1.8,2
				c0.1,0.9-0.6,1.8-1.7,2.2c-0.7,0.2-1.4,0.4-2.2,0.4c-3.6,0.2-7.3,0.4-10.9,0.4c-2.7,0-5.3-0.3-8-0.5c-1-0.1-2.7-0.1-4.2-0.1
				C298.5,27.5,300.2,36.8,300.3,39.5z"/>
			<g>
				<g>
					<path fill="#FFFFFF" d="M170.7,57.6c-4.3-1.3-8.2-3.4-12-6.5c-0.1,1.5-0.2,2.7-0.3,3.9c-0.7,9-1.4,17.9-2.1,26.9
						c-0.2,2.1-0.6,4.1-0.8,6.2c-0.3,3.2-1.8,6-2.8,8.9c-0.3,1-1,1.3-1.9,1.2c-2.4-0.2-5.9-1-6.8-4.4c-1.3-4.7-2.7-9.4-4-14.1
						c-0.7-2.6-1.3-5.3-2-8c-0.1-0.3-0.2-0.5-0.5-1.1c-0.2,0.8-0.3,1.3-0.4,1.8c-0.8,5-1.4,10-2.3,15c-0.5,2.5-1.3,5-2,7.5
						c-0.5,1.6-1.2,3.2-1.7,4.8c-0.3,0.9-0.8,1.3-1.6,1.2c-1.5-0.1-3-0.2-4.4-0.5c-1.7-0.4-2.5-1.7-3.2-3.1
						c-6.4-13.9-10.3-29.2-11.7-44.4c-0.3-3.5-0.2-7-0.2-10.7c2.4-0.6,4.8-0.9,7.2-0.2c0.3,0.1,0.5,0.4,0.8,0.4
						c2.7,0.2,3.6,1.9,3.9,4.3c0.4,4.2,1,8.4,1.4,12.6c0.5,5,0.8,10.1,1.2,15.1c0.4,4.1,0.9,8.1,1.4,12.2c0.2,1.5,0.7,2.9,1.1,4.9
						c1.4-2.2,1.5-4.2,1.7-6c1.4-9.5,2.7-19,4-28.5c0.1-0.4,0.2-0.9,0.2-1.3c0.1-1.2,0.8-1.9,2-2c0.5,0,1-0.2,1.5-0.2
						c2.5-0.3,2.8,0,3.8,2.3c3.1,7.2,4.6,14.9,6.4,22.5c0.5,2.2,1.1,4.5,1.7,6.7c0.1,0.6,0.4,1.1,0.8,1.6
						c1.5-14.8,2.9-29.5,2.9-44.4c1.8-0.8,3.6-1.4,5.5-0.9c0.7,0.2,1.1,0.5,1.4,1.2c1.6,3.5,3.8,6.5,6.8,9c1.6,1.4,3.7,1.3,5.7,1.4
						c0.3,0,0.7-0.5,0.9-0.8c0.3-0.7,0.6-1.5,0.8-2.3c0.7-3.5,2.8-6.5,4.3-9.6c0.6-1.2,1.7-2.2,2.6-3.3c0.3-0.4,0.8-0.7,1.1-1.1
						c2.7-3.5,6.3-3.7,10.2-2.7c1.7,0.4,2.6,1.7,3.6,2.8c3.4,3.9,4.8,8.9,1.8,13.4c-1,1.4-2.3,2.8-3.8,3.7
						c-3.7,2.2-7.4,4.5-11.6,5.5c-0.9,0.2-1.9,0.3-2.9,0.5c-0.8,3.1-1,6.2-0.8,9.2c0.4,7.3,1.1,19.7,9.9,22.9
						c6.7,2.5,14.8-2.4,18.6-7.2c0.1-0.2,0.3-0.4,0.4-0.5c0.5-0.6,1.2-1.4,2-0.9c0.5,0.3,0.8,1.2,1,1.8c0.9,3-0.8,5.1-2.7,6.8
						c-8,7.3-25.4,9.9-32-0.7c-4-6.5-5.2-13.6-4.9-21.1c0.1-1.3,0-2.7,0.1-4C170.2,62.8,170.4,60.3,170.7,57.6z M181.5,50.5
						c3.9-1.4,7.1-3.7,8.9-7.5c1.1-2.3,0.9-4.7-1.1-6.9C185.9,40.5,183,45,181.5,50.5z"/>
				</g>
			</g>
		</g>
	</g>
</g>
<g id="page_elelments">
</g>
</svg>
