<?xml version="1.0" encoding="utf-8"?>
<!-- Generator: Adobe Illustrator 18.1.1, SVG Export Plug-In . SVG Version: 6.00 Build 0)  -->
<svg version="1.1" id="Layer_1" xmlns="http://www.w3.org/2000/svg" xmlns:xlink="http://www.w3.org/1999/xlink" x="0px" y="0px"
	 viewBox="0 227.1 1200 395.6" enable-background="new 0 227.1 1200 395.6" xml:space="preserve">
<g>
	<path fill="#FFFFFF" d="M158.6,355.6c-3.1,1.9-5.8,4.4-8.9,6.4c-8.8,5.8-16.8,13.2-27.5,16.2c-6,1.6-7.5,0.6-8.3-5.3
		c-1.4-10.2,1.3-19.8,3.6-29.4c1.4-5.8,3.9-8.6,10.8-8.5l18.7-13.3c1.4-5,0.3-8.9-4.4-11.1c-4.4-2-9.3-3.6-14.1-4.7
		c-4.1-0.9-7.9,0.2-10.4,4.1c-3.5,5.7-7.1,11.1-10.2,17c-1.4,2.5-2.7,3.6-5.7,3.6c-7.5-0.2-14.3-2.7-20.9-6
		c-2.8-1.4-4.7-0.8-5.8,2.2c-2.8,7.4-5.3,14.8-8.5,22c-2.5,5.8-5.5,11.5-8.3,17.1c-0.5-0.2-0.9-0.3-1.4-0.3c0-1.1-0.3-2.2-0.2-3.1
		c0.6-6.8,1.4-13.3,2.2-20.1c0.5-3.6-0.6-6.6-4.6-7.4c-3.1-0.6-6.8-2.5-9.1,1.4c-7.9,14-15.9,28.3-24,42.5c-1.1,1.9-2.8,3.3-4.4,4.9
		c-0.8-1.7-0.8-3-0.5-4.1c3.5-14.8,6.8-29.7,10.4-44.4c1.6-6.6-0.2-10.4-6.3-12.1c-2.2-0.6-4.9-0.2-7.4-0.2
		c-4.4,17.3-8.8,34.4-12.6,51.5c-2.5,11,0.3,16.6,9.1,20.6c5.3,2.4,10.7,2.5,14.8-2c4.2-4.7,7.9-9.7,11.6-14.9
		c2.4-3.1,4.2-6.6,6.3-9.9l1.4,0.5c0.6,4.6,1.1,8.9,1.7,13.5c0.5,3.6,4.7,6.9,9.4,7.9c3.9,0.8,5.7-1.4,7.1-4.4
		c7.5-16,15.2-32,22.8-48c2.7-5.7,2.5-5.7,8.3-4.1c1.9,0.6,3.9,1.1,6,1.3c3.5,0.3,4.1,1.9,3.3,5c-1.4,6.4-2.8,12.9-3.6,19.3
		c-2.5,21.7,21.4,32,35,26.1c9.6-4.1,18.4-9.3,26.1-16c2.5-2.2,4.6-5.5,5.8-8.6c0.5-1.4-1.3-4.1-2.8-5.5
		C162.3,354.3,159.7,354.8,158.6,355.6L158.6,355.6z M136.3,312.6c2.8,7.2-3.8,16-11.3,15.4C127.8,322.2,130.5,316.5,136.3,312.6z
		 M1051.2,242.2c6.6,7.4,12.7,3.3,19,1.7c17.7-4.6,32.5,10,34.2,23.4c0.8,6-1.7,10.8-4.7,15.5c-8,12.6-18.8,22.5-30.5,31.4
		c-1.6,1.3-2.8,2-1.9,4.6c6.6,15.1,12.9,30.5,19.6,45.5c3.8,8.5,7.2,10.4,14.3,9.4c1.7-0.2,3.3-0.9,4.9-1.7c1.9-0.8,3.6-3.5,5.5-0.3
		c1.6,2.8,1.4,5.7-1.1,8c-5.5,5.2-14.4,2.8-18.5-1.3c-5.5-5.7-10.8-12.1-14.4-19c-5.3-10.5-9.1-21.8-13.8-32.8
		c-1.6-3.8-3.6-7.4-5.3-11h-1.3c-0.9,6.8-2.2,13.5-3,20.3c-0.8,7.1-1.3,14-1.7,21c-0.5,7.1-0.8,14-1.3,20.9
		c-5.5,0.9-12.9-5.7-12.4-11.1c1.6-16.6,3.1-33.3,5-49.8c2.2-19.9,4.9-39.9,7.2-59.8C1051.6,253.1,1051.2,248.5,1051.2,242.2
		L1051.2,242.2z M1058.9,304.3c1.6-0.8,2.2-0.9,2.7-1.3c7.7-7.1,15.9-13.5,22.6-21.4c4.6-5.3,7.9-12.2,10.4-19
		c2.2-5.7-1.1-8.9-7.2-9.6c-8-0.8-15.1,1.9-21.8,5.7c-1.1,0.6-1.9,2.5-2,3.9c-0.9,7.7-1.7,15.4-2.7,23.1
		C1060.1,291.5,1059.6,297.4,1058.9,304.3z M1010.8,318.7c-10,2.2-18.7,3.9-27.2,5.8c-1.1,0.3-2.4,1.9-2.8,3.1
		c-3.3,10.4-6.4,20.7-9.3,31.1c-1.6,5.5-3.5,6.3-8.2,2.7c-3.6-2.8-5.7-5.7-3.8-10.7c4.6-12.6,8.8-25.1,12.6-37.8
		c6.4-21.4,12.7-42.7,18.8-64.1c0.9-3.1,1.4-6.6,1.7-9.9c0.3-3.3,1.7-4.1,4.7-2.5c2,1.1,3.9,1.4,5.8-0.9c1.3-1.7,4.1-4.4,4.9-3.9
		c3,1.6,6,3.8,7.9,6.4c1.4,1.9,1.3,5,1.3,7.5c0.5,11.9,0.2,24,1.1,36c2.4,30.6,5,61.4,4.7,92.2c0,1.6-0.8,3.3-1.3,4.9
		c-1.7-0.6-3.8-0.9-5.2-1.9c-3.9-3.1-6.3-6.6-6.1-12.2C1011.1,349.6,1010.8,334.9,1010.8,318.7L1010.8,318.7z M1006.4,254
		c-0.5,0-0.9-0.2-1.4-0.2c-6.3,8.8-6.4,19.8-9.7,29.7c-3.3,10-6,20.3-9.1,30.9c7.1-1.3,13.5-2.5,19.9-3.6c2.7-0.5,3.3-2.2,3.1-4.9
		c-0.6-9.3-1.3-18.7-1.7-27.9C1007,269.9,1006.7,262,1006.4,254z M903.1,303.9c-3.1,5-6.8,9.9-9.4,15.1
		c-8.5,16.6-16.6,33.6-24.8,50.4c-1.3,2.7-3,3.8-5.5,2.4c-3.1-1.7-6.3-3.6-9.1-5.8c-0.8-0.6-0.8-2.4-0.8-3.6
		c0.3-36.4,4.7-72.5,10-108.5c0.6-4.1,0.8-8,1.1-12.1c9.7,0.2,14,5,12.9,14c-2.5,20.1-4.9,40.2-7.1,60.1c-0.6,5.5-1.1,11-1.6,16.5
		c0.5,0.2,0.9,0.3,1.6,0.6c9.6-17,19-34.1,28.9-51.7c11.9-1.1,17.7,4.1,18.1,15.4c0.3,12.1,1.7,24.2,2.8,36.4c0.2,1.3,0.5,2.4,0.9,5
		c2-3,3.5-4.7,4.4-6.8c11.9-25,23.9-49.9,36-74.9c0.9-1.9,2-5.3,3-5.3c2.5,0,5.3,1.1,7.7,2.5c5.8,3.6,6,5,2.4,11.1
		c-7.4,12.7-15.1,25.1-21.7,38.2c-6.3,12.4-11.3,25.4-16.8,38.2c-3,6.9-5.8,14-8.8,21c-1.7,4.2-3.1,4.9-7.4,3.1
		c-6.8-2.8-10-7.9-10.8-15.1c-0.9-9.3-1.9-18.7-2.8-27.9c-0.6-6.1-0.9-12.1-1.4-18.2C904.2,304.4,903.6,304.3,903.1,303.9
		L903.1,303.9z"/>
	<path fill="#FFFFFF" d="M1051.2,242.2c6.6,7.4,12.7,3.3,19,1.7c17.7-4.6,32.5,10,34.2,23.4c0.8,6-1.7,10.8-4.7,15.5
		c-8,12.6-18.8,22.5-30.5,31.4c-1.6,1.3-2.8,2-1.9,4.6c6.6,15.1,12.9,30.5,19.6,45.5c3.8,8.5,7.2,10.4,14.3,9.4
		c1.7-0.2,3.3-0.9,4.9-1.7c1.9-0.8,3.6-3.5,5.5-0.3c1.6,2.8,1.4,5.7-1.1,8c-5.5,5.2-14.4,2.8-18.5-1.3c-5.5-5.7-10.8-12.1-14.4-19
		c-5.3-10.5-9.1-21.8-13.8-32.8c-1.6-3.8-3.6-7.4-5.3-11h-1.3c-0.9,6.8-2.2,13.5-3,20.3c-0.8,7.1-1.3,14-1.7,21
		c-0.5,7.1-0.8,14-1.3,20.9c-5.5,0.9-12.9-5.7-12.4-11.1c1.6-16.6,3.1-33.3,5-49.8c2.2-19.9,4.9-39.9,7.2-59.8
		C1051.6,253.1,1051.2,248.5,1051.2,242.2L1051.2,242.2z M1010.8,318.7c-10,2.2-18.7,3.9-27.2,5.8c-1.1,0.3-2.4,1.9-2.8,3.1
		c-3.3,10.4-6.4,20.7-9.3,31.1c-1.6,5.5-3.5,6.3-8.2,2.7c-3.6-2.8-5.7-5.7-3.8-10.7c4.6-12.6,8.8-25.1,12.6-37.8
		c6.4-21.4,12.7-42.7,18.8-64.1c0.9-3.1,1.4-6.6,1.7-9.9c0.3-3.3,1.7-4.1,4.7-2.5c2,1.1,3.9,1.4,5.8-0.9c1.3-1.7,4.1-4.4,4.9-3.9
		c3,1.6,6,3.8,7.9,6.4c1.4,1.9,1.3,5,1.3,7.5c0.5,11.9,0.2,24,1.1,36c2.4,30.6,5,61.4,4.7,92.2c0,1.6-0.8,3.3-1.3,4.9
		c-1.7-0.6-3.8-0.9-5.2-1.9c-3.9-3.1-6.3-6.6-6.1-12.2C1011.1,349.6,1010.8,334.9,1010.8,318.7L1010.8,318.7z M1006.4,254
		c-0.5,0-0.9-0.2-1.4-0.2c-6.3,8.8-6.4,19.8-9.7,29.7c-3.3,10-6,20.3-9.1,30.9c7.1-1.3,13.5-2.5,19.9-3.6c2.7-0.5,3.3-2.2,3.1-4.9
		c-0.6-9.3-1.3-18.7-1.7-27.9C1007,269.9,1006.7,262,1006.4,254z M572.9,304.7c3.1,4.2,3.8,7.7,2.2,12.6c-3.5,11.1-6,22.6-8.5,34.1
		c-1.6,7.2,1.3,9.7,8.3,7.5c10.7-3.1,19.5-8.8,22.8-20.4c1.9-6.6,5-12.9,6.4-19.5c2-10-1.4-18.4-9.9-24.5
		c-6.6-4.7-13.3-9.3-17.4-16.5c-2.7-4.7-3.6-9.6-2-14.8c1.9-5.7,3.5-11.5,5.7-17.1c4.4-11.3,11-14.4,22.6-10.7
		c4.7,1.6,9.1,4.1,13.2,6.9c9.7,7.1,11.5,17.1,9.6,28.3c-0.5,3.1-2,3.9-4.9,3c-5.3-1.7-7.7-5.7-8.2-11.1c-0.5-5-1.3-10-2.7-15.1
		c-1.1-3.9-3.3-4.7-6.6-2.4c-2.7,1.9-6,4.1-7.1,6.9c-3.1,8-5.8,16.2-7.5,24.5c-1.4,6.6,3.8,10.4,8.5,14.1c6,4.9,11.8,10,16.6,16
		c5.8,7.1,6.1,15.5,3.3,24.2c-2.2,6.3-4.2,12.4-6.9,18.5c-3.9,9.3-12.1,13.8-21,16.6c-13,4.1-24.5,0.5-34.4-8.6
		c-4.7-4.4-2.7-9.9-1.7-14.9c1.3-6.9,3.5-13.7,5.5-20.3C561,314.5,566.6,309.6,572.9,304.7L572.9,304.7z M1193.4,328.6
		c-4.9-0.3-9.4-0.8-14-0.6c-11.3,0.3-22.6,0.9-33.8,1.7c-8.6,0.5-9.3,0.5-15.5-3.5c0,2.2-0.2,3.9,0,5.7c1.9,14,3.9,27.8,5.8,41.8
		c0.5,3.1,2,3.8,4.6,2.7c2.7-1.3,5.2-2.8,7.7-4.2c12.6-6.9,26.1-11.3,40.5-12.4c2-0.2,3.9-0.9,6.3-1.6c-0.2,0,0.3,0.2,0.6,0.3
		c6.9,7.5,6.4,9.6-3.6,11.3c-17.1,3-32.3,9.9-46.8,19c-7.2,4.6-9.9,3.5-14.4-3.6c-4.4-6.8-4.6-14.4-5.3-21.8
		c-2-17.3-4.2-34.7-4.7-52c-0.5-14.8,1.6-29.5,2.4-44.3c0.3-5,0-10,0-14.9c11.8,4.7,25,4.4,37.8,5.7c4.4,0.3,7.1,2.8,9.4,5.7
		c2.4,2.8,1.1,5.7-2.5,5.7c-6.9,0-13.7-0.8-20.6-1.4c-4.9-0.5-9.9-1.4-15.1-2c-0.2,0.6-0.5,1.3-0.6,1.9c-0.6,16.2-1.4,32.2-2,48.4
		c-0.2,5.3,0.8,6.1,6,5.7c14.9-1.1,29.8-2,44.7-3c6.9-0.5,10.5,2,13,7.9C1193.2,326.9,1193.2,327.5,1193.4,328.6L1193.4,328.6z
		 M729.5,258.3c-1.9,11-3.8,21.4-6,33.3c13.2-5.7,25.7-10.8,38.6-16.3c0.9,1.3,2,2.7,2.8,4.1c3,6.3,2.4,7.4-3.9,9.9
		c-10.7,4.2-21.2,9.6-32.2,12.7c-7.5,2-8.2,6.6-8.8,12.6c-1.7,15.5-3.6,31.1-5.5,46.6c-0.5,3.8-1.9,4.4-5.3,2.7
		c-6.1-3-7.7-6.3-6.6-13.7c2.5-18.2,4.6-36.3,7.4-54.5c1.7-11.1,4.1-22.1,6.3-33.3c1.3-6.3,1.1-7.4-1.6-12.2
		c19.9-6,39.9-12.1,59.8-17.9c6.1-1.7,11.8,2.2,13,7.9C767.8,246.3,748.3,252.4,729.5,258.3z M805.8,252.9c-8.3,3-15.2,2.7-18.8-6.8
		c12.6-4.6,25.3-8.9,38-13.5c4.9-1.7,9.6-3.5,14.4-5c5-1.7,10.5,0.8,12.7,5.5c1.3,2.7,1.1,4.2-2.2,5.2c-8.9,2.4-17.7,5.2-26.5,7.7
		c-3,0.8-3.9,2.4-4.2,5.5c-0.6,7.1-2.2,14.1-3.6,21.2c-3.9,20.7-8.5,41.3-11.8,62c-1.7,10.7-0.9,21.7-1.3,32.5
		c-0.2,4.6-0.9,5.2-5.2,3.5c-4.9-1.9-8.5-9.1-8.5-14.3c0.3-18.8,3.3-37.4,6.9-55.7c3-14.9,6.3-29.8,9.4-44.6
		C805.6,255.4,805.6,254.8,805.8,252.9z M903.1,303.9c-3.1,5-6.8,9.9-9.4,15.1c-8.5,16.6-16.6,33.6-24.8,50.4
		c-1.3,2.7-3,3.8-5.5,2.4c-3.1-1.7-6.3-3.6-9.1-5.8c-0.8-0.6-0.8-2.4-0.8-3.6c0.3-36.4,4.7-72.5,10-108.5c0.6-4.1,0.8-8,1.1-12.1
		c9.7,0.2,14,5,12.9,14c-2.5,20.1-4.9,40.2-7.1,60.1c-0.6,5.5-1.1,11-1.6,16.5c0.5,0.2,0.9,0.3,1.6,0.6c9.6-17,19-34.1,28.9-51.7
		c11.9-1.1,17.7,4.1,18.1,15.4c0.3,12.1,1.7,24.2,2.8,36.4c0.2,1.3,0.5,2.4,0.9,5c2-3,3.5-4.7,4.4-6.8c11.9-25,23.9-49.9,36-74.9
		c0.9-1.9,2-5.3,3-5.3c2.5,0,5.3,1.1,7.7,2.5c5.8,3.6,6,5,2.4,11.1c-7.4,12.7-15.1,25.1-21.7,38.2c-6.3,12.4-11.3,25.4-16.8,38.2
		c-3,6.9-5.8,14-8.8,21c-1.7,4.2-3.1,4.9-7.4,3.1c-6.8-2.8-10-7.9-10.8-15.1c-0.9-9.3-1.9-18.7-2.8-27.9c-0.6-6.1-0.9-12.1-1.4-18.2
		C904.2,304.4,903.6,304.3,903.1,303.9L903.1,303.9z"/>
	<path fill="#FFFFFF" d="M762.1,275.2c-12.9,5.5-25.4,10.7-38.6,16.3c2.2-11.9,3.9-22.5,6-33.3c18.8-5.8,38.3-11.9,57.9-18.1
		c-1.3-5.7-7.1-9.6-13-7.9c-20.1,6-40,12.1-60,18.1c2.7,4.9,2.8,6,1.6,12.2c-2.2,11-4.6,22.1-6.3,33.3c-2.7,18.1-4.9,36.3-7.4,54.5
		c-0.9,7.4,0.5,10.7,6.6,13.7c3.5,1.7,4.9,1.1,5.3-2.7c1.9-15.5,3.8-31.1,5.5-46.6c0.6-6,1.4-10.4,8.8-12.6
		c11-3.1,21.5-8.5,32.2-12.7c6.3-2.5,6.9-3.6,3.9-9.9C764.2,277.9,763.1,276.6,762.1,275.2L762.1,275.2z M616.1,242.4
		c-3.9-2.8-8.5-5.3-13.2-6.9c-11.5-3.8-18.1-0.5-22.6,10.7c-2.2,5.5-3.8,11.3-5.7,17.1c-1.7,5.2-0.6,10,2,14.8
		c4.1,7.2,10.8,11.8,17.4,16.5c8.5,6.1,11.9,14.4,9.9,24.5c-1.4,6.6-4.4,13-6.4,19.5c-3.5,11.6-12.1,17.1-22.8,20.4
		c-7.1,2-9.9-0.5-8.3-7.5c2.5-11.5,5-22.8,8.5-34.1c1.4-4.9,0.8-8.3-2.2-12.6c-6.3,5-11.9,9.7-14.3,17.3c-2,6.8-4.2,13.5-5.5,20.3
		c-0.9,5-3,10.5,1.7,14.9c9.9,9.1,21.4,12.7,34.4,8.6c8.9-2.8,17.1-7.4,21-16.6c2.7-6,4.7-12.2,6.9-18.5c3-8.6,2.7-17.1-3.3-24.2
		c-4.9-5.8-10.7-11.1-16.6-16c-4.7-3.9-9.9-7.5-8.5-14.1c1.7-8.3,4.4-16.6,7.5-24.5c1.1-2.8,4.4-5,7.1-6.9c3.3-2.4,5.5-1.6,6.6,2.4
		c1.3,4.9,2.2,10,2.7,15.1c0.5,5.5,3,9.4,8.2,11.1c2.8,0.9,4.4,0.2,4.9-3C627.6,259.4,625.8,249.3,616.1,242.4L616.1,242.4z
		 M839.5,227.8c-4.9,1.7-9.6,3.3-14.4,5c-12.7,4.6-25.4,8.9-38,13.5c3.6,9.3,10.4,9.7,18.8,6.8c-0.2,1.7-0.2,2.5-0.3,3.1
		c-3.1,14.9-6.4,29.7-9.4,44.6c-3.6,18.4-6.6,36.9-6.9,55.7c-0.2,5.2,3.6,12.4,8.5,14.3c4.2,1.7,5,1.1,5.2-3.5
		c0.3-10.8-0.5-21.8,1.3-32.5c3.3-20.9,7.9-41.4,11.8-62c1.4-7.1,2.8-14.1,3.6-21.2c0.3-3.1,1.3-4.7,4.2-5.5
		c8.9-2.5,17.7-5.2,26.5-7.7c3.3-0.9,3.5-2.5,2.2-5.2C849.9,228.4,844.4,225.9,839.5,227.8z M971.9,254.2c-2.2-1.4-5-2.5-7.7-2.5
		c-0.9,0-2,3.3-3,5.3c-11.9,25-23.9,49.9-36,74.9c-0.9,2-2.5,3.8-4.4,6.8c-0.5-2.5-0.9-3.8-0.9-5c-0.9-12.1-2.5-24.2-2.8-36.4
		c-0.3-11.3-6.1-16.5-18.1-15.4c-9.9,17.6-19.3,34.7-28.9,51.7c-0.5-0.2-0.9-0.3-1.6-0.6c0.5-5.5,0.9-11,1.6-16.5
		c2.4-20.1,4.7-40.2,7.1-60.1c1.1-8.9-3.1-13.8-12.9-14c-0.3,4.1-0.5,8.2-1.1,12.1c-5.3,36-9.6,72.1-10,108.5c0,1.3,0,3,0.8,3.6
		c2.8,2.2,6,4.1,9.1,5.8c2.5,1.3,4.2,0.3,5.5-2.4c8.2-17,16.3-33.8,24.8-50.4c2.7-5.3,6.3-10,9.4-15.1c0.5,0.2,1.1,0.3,1.6,0.5
		c0.5,6.1,0.8,12.2,1.4,18.2c0.8,9.3,1.9,18.7,2.8,27.9c0.6,7.1,4.1,12.2,10.8,15.1c4.2,1.7,5.7,1.1,7.4-3.1
		c2.8-7.1,5.8-14.1,8.8-21c5.5-12.7,10.7-25.7,16.8-38.2c6.6-13,14.3-25.4,21.7-38.2C977.8,259.2,977.7,257.6,971.9,254.2
		L971.9,254.2z M1195.4,358.4c-0.3-0.3-0.8-0.5-0.6-0.3c-2.4,0.6-4.2,1.4-6.3,1.6c-14.4,1.1-27.8,5.5-40.5,12.4
		c-2.5,1.4-5,3-7.7,4.2c-2.5,1.1-4.1,0.5-4.6-2.7c-1.9-14-3.9-27.8-5.8-41.8c-0.3-1.7,0-3.6,0-5.7c6.3,3.9,6.9,4.1,15.5,3.5
		c11.3-0.6,22.6-1.3,33.8-1.7c4.6-0.2,9.1,0.3,14,0.6c-0.2-1.1,0-1.7-0.3-2.2c-2.4-6-6.1-8.3-13-7.9c-14.9,0.9-29.8,1.9-44.7,3
		c-5.2,0.3-6.1-0.3-6-5.7c0.6-16.2,1.3-32.2,2-48.4c0-0.6,0.3-1.3,0.6-1.9c5.2,0.8,10,1.6,15.1,2c6.8,0.6,13.7,1.3,20.6,1.4
		c3.6,0,4.7-2.7,2.5-5.7c-2.4-3-4.9-5.3-9.4-5.7c-13-1.1-26.2-0.9-37.8-5.7c0,4.7,0.2,9.9,0,14.9c-0.8,14.8-2.7,29.5-2.4,44.3
		c0.5,17.4,2.5,34.7,4.7,52c0.9,7.4,0.9,15.1,5.3,21.8c4.7,7.1,7.2,8.3,14.4,3.6c14.4-9.1,29.8-16,46.8-19
		C1201.9,367.8,1202.4,365.8,1195.4,358.4L1195.4,358.4z M695.2,287.8c0.5,27-8.5,51.5-22,74.4c-7.5,12.9-18.7,11.3-30,2.8
		c-9.9-7.4-13.5-18.1-12.6-29.8c1.6-20.3,5.3-40,12.4-59.2c3.6-9.7,8.6-18.8,13.5-27.9c0.6-1.3,3.8-2.4,5-1.9c3,1.3,5.5,3.6,8,5.5
		c1.1,0.9,2,2,3,3.1c6.1,6.3,12.4,12.4,18.5,18.7C694.9,277.4,696.2,282.3,695.2,287.8z M668.1,258.7c-6.4,9.4-10.4,19.8-13,30.3
		c-4.1,16-7.1,32.3-9.7,48.5c-1.3,7.2-0.9,14.6,2.5,21.5c2,3.9,3.8,4.7,6.4,1.1c5.2-6.9,10.7-14,14.4-21.8
		c7.7-15.9,11.5-32.7,12.9-50.2C682.7,275.5,678.7,266.1,668.1,258.7L668.1,258.7z"/>
	<path fill="#FFFFFF" d="M1193.4,328.6c-4.9-0.3-9.4-0.8-14-0.6c-11.3,0.3-22.6,0.9-33.8,1.7c-8.6,0.5-9.3,0.5-15.5-3.5
		c0,2.2-0.2,3.9,0,5.7c1.9,14,3.9,27.8,5.8,41.8c0.5,3.1,2,3.8,4.6,2.7c2.7-1.3,5.2-2.8,7.7-4.2c12.6-6.9,26.1-11.3,40.5-12.4
		c2-0.2,3.9-0.9,6.3-1.6c-0.2,0,0.3,0.2,0.6,0.3c6.9,7.5,6.4,9.6-3.6,11.3c-17.1,3-32.3,9.9-46.8,19c-7.2,4.6-9.9,3.5-14.4-3.6
		c-4.4-6.8-4.6-14.4-5.3-21.8c-2-17.3-4.2-34.7-4.7-52c-0.5-14.8,1.6-29.5,2.4-44.3c0.3-5,0-10,0-14.9c11.8,4.7,25,4.4,37.8,5.7
		c4.4,0.3,7.1,2.8,9.4,5.7c2.4,2.8,1.1,5.7-2.5,5.7c-6.9,0-13.7-0.8-20.6-1.4c-4.9-0.5-9.9-1.4-15.1-2c-0.2,0.6-0.5,1.3-0.6,1.9
		c-0.6,16.2-1.4,32.2-2,48.4c-0.2,5.3,0.8,6.1,6,5.7c14.9-1.1,29.8-2,44.7-3c6.9-0.5,10.5,2,13,7.9
		C1193.2,326.9,1193.2,327.5,1193.4,328.6L1193.4,328.6z M729.5,258.3c-1.9,11-3.8,21.4-6,33.3c13.2-5.7,25.7-10.8,38.6-16.3
		c0.9,1.3,2,2.7,2.8,4.1c3,6.3,2.4,7.4-3.9,9.9c-10.7,4.2-21.2,9.6-32.2,12.7c-7.5,2-8.2,6.6-8.8,12.6c-1.7,15.5-3.6,31.1-5.5,46.6
		c-0.5,3.8-1.9,4.4-5.3,2.7c-6.1-3-7.7-6.3-6.6-13.7c2.5-18.2,4.6-36.3,7.4-54.5c1.7-11.1,4.1-22.1,6.3-33.3
		c1.3-6.3,1.1-7.4-1.6-12.2c19.9-6,39.9-12.1,59.8-17.9c6.1-1.7,11.8,2.2,13,7.9C767.8,246.3,748.3,252.4,729.5,258.3z M805.8,252.9
		c-8.3,3-15.2,2.7-18.8-6.8c12.6-4.6,25.3-8.9,38-13.5c4.9-1.7,9.6-3.5,14.4-5c5-1.7,10.5,0.8,12.7,5.5c1.3,2.7,1.1,4.2-2.2,5.2
		c-8.9,2.4-17.7,5.2-26.5,7.7c-3,0.8-3.9,2.4-4.2,5.5c-0.6,7.1-2.2,14.1-3.6,21.2c-3.9,20.7-8.5,41.3-11.8,62
		c-1.7,10.7-0.9,21.7-1.3,32.5c-0.2,4.6-0.9,5.2-5.2,3.5c-4.9-1.9-8.5-9.1-8.5-14.3c0.3-18.8,3.3-37.4,6.9-55.7
		c3-14.9,6.3-29.8,9.4-44.6C805.6,255.4,805.6,254.8,805.8,252.9z"/>
	<g>
		<path fill="#FFFFFF" d="M482.3,439.6c-1.7,5.5-2.8,10.8-5,16c-4.6,11-9.6,21.8-14.3,32.7c-2.7,6-5.2,11.9-8,17.9
			c-0.6,1.3-1.9,2-2.8,3.1c-0.8-0.9-1.9-1.7-2.2-2.8c-0.8-2-1.4-4.2-1.9-6.4c-2.5-11.5-4.6-23.1-7.4-34.4c-1.4-5.8-4.4-7.2-11-6.8
			c-0.5,1.4-0.9,3-1.4,4.4c-5.8-0.2-6.4,0.2-6.8,5.7c-0.5,5-0.5,10-0.8,15.2c-0.9,14.3-2,28.6-3.1,42.7c-0.9,11.3-1.6,22.6-3.3,33.8
			c-0.5,3.5-0.3,5.8,2.5,7.5c2.4,1.4,5,2.5,7.5,3.8c0.6-2.8,1.7-5.8,1.9-8.6c0.2-7.4-0.8-14.9,0-22.3c1.9-16.8,4.4-33.6,6.8-50.4
			c0.3-1.9,1.1-3.6,1.6-5.3h1.3c0.8,3.3,1.7,6.4,2.4,9.7c1.6,8.6,3.6,16.8,10.5,23.1c7.2,6.8,10.7,6.3,14.4-3.1
			c3.5-8.6,6.6-17.3,10-25.7c1.6-4.1,3.8-7.9,5.5-11.8c0.3,0.2,0.8,0.2,1.1,0.3c0,0.8,0.2,1.6,0,2.4c-0.9,7.9-2.2,15.5-3,23.4
			c-1.4,14.6-2.7,29.4-3.6,44c-0.3,6,0.8,11.9,0,17.7c-0.6,3.9,0.2,6.4,3.1,8.3c1.6,1.1,3.6,1.4,5.3,2.2c0.6-2,1.7-4.2,1.6-6.3
			c-0.2-4.7-0.9-9.4-1.1-14.1c-0.6-19.3,2.2-38.3,4.9-57.3c2.2-15.4,4.4-30.6,6.1-46C494.3,443.2,491.1,440.1,482.3,439.6
			L482.3,439.6z M384.8,513.6c0.5,0,0.9,0.2,1.4,0.2v4.2c-0.2,14.6-0.2,29.2-0.6,43.8c-0.2,4.7,1.9,7.7,5.2,10c1.4,0.9,4.2,2,5,1.3
			c1.3-0.9,1.9-3.5,1.9-5.3c-0.3-11.5-1.4-22.8-1.1-34.2c0.5-19.8,1.9-39.6,3-59.3c0.3-4.7,0.9-9.6,0.8-14.3c0-5.8-4.2-9.4-9.9-9.1
			c-0.8,0-1.9,0.9-2,1.7c-1.9,9.6-3.6,19.2-5.5,28.9c-1.3,6.3-2,12.7-4.1,18.7c-4.2,12.1-8.9,23.9-13.8,35.6c-2,4.9-4.9,9.4-7.4,14
			h-1.1c-0.3-1.9-1.1-3.9-1.1-5.8c1.1-17.7,2-35.6,3.8-53.4c0.9-9.4,3.5-18.7,5.3-28.1c0.8-4.2-0.9-6.4-5.5-7.5
			c-3.9-0.9-4.7,1.6-5.2,4.4c-2.2,11.9-4.9,23.9-6.3,36c-1.6,13.7-2.4,27.3-2.8,41.1c-0.3,7.7,0,15.4,0.6,23.1
			c0.5,5.7,4.6,8.8,9.4,11c2.7,1.3,5,0.8,6.4-2.2c2-4.4,4.2-8.8,6.3-13.2c4.1-9.4,8-18.8,12.1-28.3
			C381.2,522.2,383.1,517.9,384.8,513.6L384.8,513.6z M274.4,533.6c0-2.4-0.2-3.3,0-4.1c2.5-13.3,4.9-26.5,7.4-39.9
			c2.2-11.5,4.7-23.1,6.6-34.5c1.3-7.2-0.8-9.6-8-10.5c-0.3,0.9-0.9,1.9-1.1,2.8c-2.7,13.8-5.5,27.6-8,41.6
			c-2.5,13.8-4.9,27.5-7.7,41.3c-0.5,2.7-2.5,5-3.8,7.7c-0.5,0.9-0.6,2.2-0.3,3.1c2.5,6.3,0.6,12.2-1.1,18.1
			c-1.9,5.7-1.3,10.2,3.6,13.7c1.4,0.9,3.8,1.9,5,1.3c1.3-0.5,2.2-3,2.4-4.6c0.8-7.2,1.4-14.4,1.9-21.8c0.2-3.1,1.7-4.7,4.7-5.8
			c6.4-2.4,12.7-5,19.2-7.5c3-1.3,6-2.4,9.7-3.9v5.2c-0.3,10.2-0.6,20.6-1.1,30.8c-0.3,7.1,1.6,14.1-1.1,21.2
			c-0.3,0.8,0.2,2.7,0.9,3.1c3,1.9,6.6,5.2,9.3,4.6c4.6-0.9,1.9-5.7,1.9-8.8c0.2-18.5,0.5-37.2,0.2-55.7c-0.2-5.5,2.7-7.5,7.1-9.1
			c5-1.9,5.2-3.3,0.9-6.6c-0.8-0.6-1.6-1.4-2.5-1.7c-2.8-1.3-3.9-3.3-3.5-6.4c0.6-4.7,0.8-9.6,1.6-14.1c2.2-13.8,4.7-27.6,6.9-41.4
			c0.3-1.4,0.5-3,0.2-4.4c-0.5-3.9-4.1-4.4-6.9-5.3c-0.3-0.2-2.4,3-2.7,4.7c-0.9,5.2-1.3,10.5-2,15.9c-2.7,17.7-5.3,35.6-8.3,53.4
			c-0.2,1.4-1.3,3.3-2.5,3.9C294.4,523.8,285,528.5,274.4,533.6L274.4,533.6z"/>
		<path fill="#FFFFFF" d="M482.3,439.6c8.9,0.5,11.9,3.6,11,12.2c-1.7,15.4-3.9,30.8-6.1,46c-2.7,19-5.5,38-4.9,57.3
			c0.2,4.7,1.1,9.4,1.1,14.1c0,2-1.1,4.2-1.6,6.3c-1.7-0.8-3.8-1.1-5.3-2.2c-3-1.9-3.6-4.4-3.1-8.3c0.8-5.8-0.3-11.9,0-17.7
			c0.9-14.8,2.2-29.4,3.6-44c0.8-7.9,2-15.5,3-23.4c0.2-0.8,0-1.6,0-2.4c-0.3-0.2-0.8-0.2-1.1-0.3c-1.9,3.9-3.9,7.7-5.5,11.8
			c-3.5,8.5-6.6,17.3-10,25.7c-3.6,9.3-7.1,9.9-14.4,3.1c-6.8-6.3-8.9-14.4-10.5-23.1c-0.6-3.3-1.6-6.4-2.4-9.7h-1.3
			c-0.6,1.7-1.4,3.5-1.6,5.3c-2.4,16.8-4.9,33.6-6.8,50.4c-0.8,7.4,0.2,14.9,0,22.3c-0.2,3-1.3,5.8-1.9,8.6
			c-2.5-1.3-5.2-2.2-7.5-3.8c-2.8-1.7-3-4.1-2.5-7.5c1.6-11.1,2.4-22.5,3.3-33.8c1.1-14.3,2.2-28.4,3.1-42.7c0.3-5,0.5-10,0.8-15.2
			c0.5-5.5,1.1-5.8,6.8-5.7c0.5-1.4,0.9-3,1.4-4.4c6.6-0.5,9.6,0.9,11,6.8c2.7,11.5,4.9,22.9,7.4,34.4c0.5,2.2,1.1,4.4,1.9,6.4
			c0.5,1.1,1.6,1.9,2.2,2.8c0.9-1.1,2.4-1.9,2.8-3.1c2.8-6,5.3-11.9,8-17.9c4.9-10.8,9.7-21.7,14.3-32.7
			C479.3,450.4,480.6,445.1,482.3,439.6L482.3,439.6z M384.8,513.6c-1.9,4.4-3.6,8.8-5.5,13c-3.9,9.4-8,18.8-12.1,28.3
			c-1.9,4.4-4.1,8.8-6.3,13.2c-1.4,2.8-3.8,3.3-6.4,2.2c-4.7-2.2-8.9-5.2-9.4-11c-0.5-7.7-0.9-15.4-0.6-23.1
			c0.6-13.7,1.3-27.5,2.8-41.1c1.4-12.1,4.1-24,6.3-36c0.5-2.8,1.3-5.3,5.2-4.4c4.6,1.1,6.3,3.3,5.5,7.5c-1.7,9.4-4.4,18.7-5.3,28.1
			c-1.7,17.7-2.7,35.6-3.8,53.4c-0.2,1.9,0.6,3.9,1.1,5.8h1.1c2.5-4.7,5.5-9.1,7.4-14c4.9-11.8,9.6-23.7,13.8-35.6
			c2-6,2.8-12.4,4.1-18.7c1.9-9.6,3.6-19.2,5.5-28.9c0.2-0.6,1.3-1.7,2-1.7c5.7-0.3,9.9,3.3,9.9,9.1c0,4.7-0.6,9.6-0.8,14.3
			c-1.1,19.8-2.5,39.6-3,59.3c-0.3,11.5,0.9,22.8,1.1,34.2c0,1.9-0.6,4.4-1.9,5.3c-0.9,0.6-3.6-0.3-5-1.3c-3.3-2.4-5.3-5.3-5.2-10
			c0.5-14.6,0.5-29.2,0.6-43.8v-4.2C385.8,513.7,385.3,513.6,384.8,513.6L384.8,513.6z M274.4,533.6c10.4-5.2,19.8-9.7,29.2-14.6
			c1.3-0.6,2.2-2.5,2.5-3.9c2.8-17.7,5.7-35.5,8.3-53.4c0.8-5.2,1.1-10.5,2-15.9c0.3-1.7,2.4-4.7,2.7-4.7c2.8,1.1,6.4,1.6,6.9,5.3
			c0.2,1.4,0,3-0.2,4.4c-2.4,13.8-4.7,27.6-6.9,41.4c-0.8,4.7-0.9,9.4-1.6,14.1c-0.5,3.1,0.6,5.2,3.5,6.4c0.9,0.5,1.7,1.1,2.5,1.7
			c4.2,3.3,4.1,4.7-0.9,6.6c-4.4,1.6-7.1,3.6-7.1,9.1c0.3,18.5,0,37.2-0.2,55.7c0,3.1,2.7,8-1.9,8.8c-2.7,0.5-6.3-2.8-9.3-4.6
			c-0.8-0.5-1.3-2.4-0.9-3.1c2.7-6.9,0.8-14.1,1.1-21.2c0.5-10.2,0.6-20.6,1.1-30.8V530c-3.8,1.6-6.8,2.7-9.7,3.9
			c-6.3,2.5-12.7,5.2-19.2,7.5c-3,1.1-4.4,2.7-4.7,5.8c-0.5,7.2-1.1,14.6-1.9,21.8c-0.2,1.7-1.1,4.1-2.4,4.6c-1.3,0.6-3.8-0.3-5-1.3
			c-4.9-3.5-5.3-8-3.6-13.7c1.9-5.8,3.6-11.8,1.1-18.1c-0.3-0.9-0.2-2.2,0.3-3.1c1.1-2.7,3.1-5,3.8-7.7c2.8-13.7,5-27.5,7.7-41.3
			c2.7-13.8,5.3-27.8,8-41.6c0.2-0.9,0.8-1.9,1.1-2.8c7.2,1.1,9.3,3.3,8,10.5c-1.9,11.6-4.4,23.1-6.6,34.5
			c-2.5,13.3-5,26.5-7.4,39.9C274.3,530.4,274.4,531.1,274.4,533.6L274.4,533.6z"/>
		<path fill="#FFFFFF" d="M482.3,439.6c-1.7,5.5-2.8,10.8-5,16c-4.6,11-9.6,21.8-14.3,32.7c-2.7,6-5.2,11.9-8,17.9
			c-0.6,1.3-1.9,2-2.8,3.1c-0.8-0.9-1.9-1.7-2.2-2.8c-0.8-2-1.4-4.2-1.9-6.4c-2.5-11.5-4.6-23.1-7.4-34.4c-1.4-5.8-4.4-7.2-11-6.8
			c-0.5,1.4-0.9,3-1.4,4.4c-5.8-0.2-6.4,0.2-6.8,5.7c-0.5,5-0.5,10-0.8,15.2c-0.9,14.3-2,28.6-3.1,42.7c-0.9,11.3-1.6,22.6-3.3,33.8
			c-0.5,3.5-0.3,5.8,2.5,7.5c2.4,1.4,5,2.5,7.5,3.8c0.6-2.8,1.7-5.8,1.9-8.6c0.2-7.4-0.8-14.9,0-22.3c1.9-16.8,4.4-33.6,6.8-50.4
			c0.3-1.9,1.1-3.6,1.6-5.3h1.3c0.8,3.3,1.7,6.4,2.4,9.7c1.6,8.6,3.6,16.8,10.5,23.1c7.2,6.8,10.7,6.3,14.4-3.1
			c3.5-8.6,6.6-17.3,10-25.7c1.6-4.1,3.8-7.9,5.5-11.8c0.3,0.2,0.8,0.2,1.1,0.3c0,0.8,0.2,1.6,0,2.4c-0.9,7.9-2.2,15.5-3,23.4
			c-1.4,14.6-2.7,29.4-3.6,44c-0.3,6,0.8,11.9,0,17.7c-0.6,3.9,0.2,6.4,3.1,8.3c1.6,1.1,3.6,1.4,5.3,2.2c0.6-2,1.7-4.2,1.6-6.3
			c-0.2-4.7-0.9-9.4-1.1-14.1c-0.6-19.3,2.2-38.3,4.9-57.3c2.2-15.4,4.4-30.6,6.1-46C494.3,443.2,491.1,440.1,482.3,439.6
			L482.3,439.6z M384.8,513.6c0.5,0,0.9,0.2,1.4,0.2v4.2c-0.2,14.6-0.2,29.2-0.6,43.8c-0.2,4.7,1.9,7.7,5.2,10c1.4,0.9,4.2,2,5,1.3
			c1.3-0.9,1.9-3.5,1.9-5.3c-0.3-11.5-1.4-22.8-1.1-34.2c0.5-19.8,1.9-39.6,3-59.3c0.3-4.7,0.9-9.6,0.8-14.3c0-5.8-4.2-9.4-9.9-9.1
			c-0.8,0-1.9,0.9-2,1.7c-1.9,9.6-3.6,19.2-5.5,28.9c-1.3,6.3-2,12.7-4.1,18.7c-4.2,12.1-8.9,23.9-13.8,35.6c-2,4.9-4.9,9.4-7.4,14
			h-1.1c-0.3-1.9-1.1-3.9-1.1-5.8c1.1-17.7,2-35.6,3.8-53.4c0.9-9.4,3.5-18.7,5.3-28.1c0.8-4.2-0.9-6.4-5.5-7.5
			c-3.9-0.9-4.7,1.6-5.2,4.4c-2.2,11.9-4.9,23.9-6.3,36c-1.6,13.7-2.4,27.3-2.8,41.1c-0.3,7.7,0,15.4,0.6,23.1
			c0.5,5.7,4.6,8.8,9.4,11c2.7,1.3,5,0.8,6.4-2.2c2-4.4,4.2-8.8,6.3-13.2c4.1-9.4,8-18.8,12.1-28.3
			C381.2,522.2,383.1,517.9,384.8,513.6L384.8,513.6z M274.4,533.6c0-2.4-0.2-3.3,0-4.1c2.5-13.3,4.9-26.5,7.4-39.9
			c2.2-11.5,4.7-23.1,6.6-34.5c1.3-7.2-0.8-9.6-8-10.5c-0.3,0.9-0.9,1.9-1.1,2.8c-2.7,13.8-5.5,27.6-8,41.6
			c-2.5,13.8-4.9,27.5-7.7,41.3c-0.5,2.7-2.5,5-3.8,7.7c-0.5,0.9-0.6,2.2-0.3,3.1c2.5,6.3,0.6,12.2-1.1,18.1
			c-1.9,5.7-1.3,10.2,3.6,13.7c1.4,0.9,3.8,1.9,5,1.3c1.3-0.5,2.2-3,2.4-4.6c0.8-7.2,1.4-14.4,1.9-21.8c0.2-3.1,1.7-4.7,4.7-5.8
			c6.4-2.4,12.7-5,19.2-7.5c3-1.3,6-2.4,9.7-3.9v5.2c-0.3,10.2-0.6,20.6-1.1,30.8c-0.3,7.1,1.6,14.1-1.1,21.2
			c-0.3,0.8,0.2,2.7,0.9,3.1c3,1.9,6.6,5.2,9.3,4.6c4.6-0.9,1.9-5.7,1.9-8.8c0.2-18.5,0.5-37.2,0.2-55.7c-0.2-5.5,2.7-7.5,7.1-9.1
			c5-1.9,5.2-3.3,0.9-6.6c-0.8-0.6-1.6-1.4-2.5-1.7c-2.8-1.3-3.9-3.3-3.5-6.4c0.6-4.7,0.8-9.6,1.6-14.1c2.2-13.8,4.7-27.6,6.9-41.4
			c0.3-1.4,0.5-3,0.2-4.4c-0.5-3.9-4.1-4.4-6.9-5.3c-0.3-0.2-2.4,3-2.7,4.7c-0.9,5.2-1.3,10.5-2,15.9c-2.7,17.7-5.3,35.6-8.3,53.4
			c-0.2,1.4-1.3,3.3-2.5,3.9C294.4,523.8,285,528.5,274.4,533.6L274.4,533.6z"/>
		<path fill="#FFFFFF" d="M482.3,439.6c8.9,0.5,11.9,3.6,11,12.2c-1.7,15.4-3.9,30.8-6.1,46c-2.7,19-5.5,38-4.9,57.3
			c0.2,4.7,1.1,9.4,1.1,14.1c0,2-1.1,4.2-1.6,6.3c-1.7-0.8-3.8-1.1-5.3-2.2c-3-1.9-3.6-4.4-3.1-8.3c0.8-5.8-0.3-11.9,0-17.7
			c0.9-14.8,2.2-29.4,3.6-44c0.8-7.9,2-15.5,3-23.4c0.2-0.8,0-1.6,0-2.4c-0.3-0.2-0.8-0.2-1.1-0.3c-1.9,3.9-3.9,7.7-5.5,11.8
			c-3.5,8.5-6.6,17.3-10,25.7c-3.6,9.3-7.1,9.9-14.4,3.1c-6.8-6.3-8.9-14.4-10.5-23.1c-0.6-3.3-1.6-6.4-2.4-9.7h-1.3
			c-0.6,1.7-1.4,3.5-1.6,5.3c-2.4,16.8-4.9,33.6-6.8,50.4c-0.8,7.4,0.2,14.9,0,22.3c-0.2,3-1.3,5.8-1.9,8.6
			c-2.5-1.3-5.2-2.2-7.5-3.8c-2.8-1.7-3-4.1-2.5-7.5c1.6-11.1,2.4-22.5,3.3-33.8c1.1-14.3,2.2-28.4,3.1-42.7c0.3-5,0.5-10,0.8-15.2
			c0.5-5.5,1.1-5.8,6.8-5.7c0.5-1.4,0.9-3,1.4-4.4c6.6-0.5,9.6,0.9,11,6.8c2.7,11.5,4.9,22.9,7.4,34.4c0.5,2.2,1.1,4.4,1.9,6.4
			c0.5,1.1,1.6,1.9,2.2,2.8c0.9-1.1,2.4-1.9,2.8-3.1c2.8-6,5.3-11.9,8-17.9c4.9-10.8,9.7-21.7,14.3-32.7
			C479.3,450.4,480.6,445.1,482.3,439.6L482.3,439.6z M384.8,513.6c-1.9,4.4-3.6,8.8-5.5,13c-3.9,9.4-8,18.8-12.1,28.3
			c-1.9,4.4-4.1,8.8-6.3,13.2c-1.4,2.8-3.8,3.3-6.4,2.2c-4.7-2.2-8.9-5.2-9.4-11c-0.5-7.7-0.9-15.4-0.6-23.1
			c0.6-13.7,1.3-27.5,2.8-41.1c1.4-12.1,4.1-24,6.3-36c0.5-2.8,1.3-5.3,5.2-4.4c4.6,1.1,6.3,3.3,5.5,7.5c-1.7,9.4-4.4,18.7-5.3,28.1
			c-1.7,17.7-2.7,35.6-3.8,53.4c-0.2,1.9,0.6,3.9,1.1,5.8h1.1c2.5-4.7,5.5-9.1,7.4-14c4.9-11.8,9.6-23.7,13.8-35.6
			c2-6,2.8-12.4,4.1-18.7c1.9-9.6,3.6-19.2,5.5-28.9c0.2-0.6,1.3-1.7,2-1.7c5.7-0.3,9.9,3.3,9.9,9.1c0,4.7-0.6,9.6-0.8,14.3
			c-1.1,19.8-2.5,39.6-3,59.3c-0.3,11.5,0.9,22.8,1.1,34.2c0,1.9-0.6,4.4-1.9,5.3c-0.9,0.6-3.6-0.3-5-1.3c-3.3-2.4-5.3-5.3-5.2-10
			c0.5-14.6,0.5-29.2,0.6-43.8v-4.2C385.8,513.7,385.3,513.6,384.8,513.6L384.8,513.6z M274.4,533.6c10.4-5.2,19.8-9.7,29.2-14.6
			c1.3-0.6,2.2-2.5,2.5-3.9c2.8-17.7,5.7-35.5,8.3-53.4c0.8-5.2,1.1-10.5,2-15.9c0.3-1.7,2.4-4.7,2.7-4.7c2.8,1.1,6.4,1.6,6.9,5.3
			c0.2,1.4,0,3-0.2,4.4c-2.4,13.8-4.7,27.6-6.9,41.4c-0.8,4.7-0.9,9.4-1.6,14.1c-0.5,3.1,0.6,5.2,3.5,6.4c0.9,0.5,1.7,1.1,2.5,1.7
			c4.2,3.3,4.1,4.7-0.9,6.6c-4.4,1.6-7.1,3.6-7.1,9.1c0.3,18.5,0,37.2-0.2,55.7c0,3.1,2.7,8-1.9,8.8c-2.7,0.5-6.3-2.8-9.3-4.6
			c-0.8-0.5-1.3-2.4-0.9-3.1c2.7-6.9,0.8-14.1,1.1-21.2c0.5-10.2,0.6-20.6,1.1-30.8V530c-3.8,1.6-6.8,2.7-9.7,3.9
			c-6.3,2.5-12.7,5.2-19.2,7.5c-3,1.1-4.4,2.7-4.7,5.8c-0.5,7.2-1.1,14.6-1.9,21.8c-0.2,1.7-1.1,4.1-2.4,4.6c-1.3,0.6-3.8-0.3-5-1.3
			c-4.9-3.5-5.3-8-3.6-13.7c1.9-5.8,3.6-11.8,1.1-18.1c-0.3-0.9-0.2-2.2,0.3-3.1c1.1-2.7,3.1-5,3.8-7.7c2.8-13.7,5-27.5,7.7-41.3
			c2.7-13.8,5.3-27.8,8-41.6c0.2-0.9,0.8-1.9,1.1-2.8c7.2,1.1,9.3,3.3,8,10.5c-1.9,11.6-4.4,23.1-6.6,34.5
			c-2.5,13.3-5,26.5-7.4,39.9C274.3,530.4,274.4,531.1,274.4,533.6L274.4,533.6z M642.3,428.3c0,1.9,0.3,3.9,0,5.7
			c-3.1,16.3-9.3,32.7-12.6,49c-1.1,5.7-1.9,11.5-3.3,17c-2.5,10.7-5.5,21.4-8,32c-1.6,6.4,0.8,13.2-4.6,19c-2-4.6-4.1-8.6-5.7-12.9
			c-10.5-29.2-17.1-59.3-22.5-90c-0.9-5-2.2-9.6-8-11.1c-2.4-0.6-3.9-0.2-3.9,2.5c0.2,10.7-0.6,21.4-0.6,32v20.1
			c0,0-0.2-0.2-0.6-0.2c-2,0.9-4.2,1.3-5.7,2.8c-4.7,4.9-8.5,10.4-13.2,15.2c-3.9,3.9-5.3,3.1-6.4-2.4c-1.6-8.5-3.3-17-4.6-25.4
			c-1.7-10.2-2.8-20.4-4.6-30.5c-0.8-4.4-4.4-7.1-8.3-6.4c-2.2,0.3-4.2,0.8-6.6,1.3c-0.2,1.1-0.2,2.5-0.5,3.8
			c-5.2,22.3-11,44.6-15.5,67.2c-3.3,16.5-5.2,33.3-7.7,49.9c-0.6,4.7,5.5,9.1,9.9,7.1c0.3-5.8,0.6-11.6,1.1-17.4
			c0.2-1.3,0.9-2.8,1.9-3.6c6.3-4.1,12.9-7.9,19-12.1c4.2-2.8,8-6.3,11.9-9.6l1.1,1.1c3.3,11.6,6.6,23.1,9.9,34.7
			c0.2,0.5,0.3,0.9,0.2,1.3c-2.4,5.3,1.9,7.2,5,9.3c1.4,0.9,3.6,0.5,5.3,0.8c0.2-1.6,0.3-3.1,0.2-4.6c-0.2-1.7-0.8-3.5-1.3-5.2
			c-3.8-14-7.7-27.8-11.3-41.8c-0.3-1.4-0.5-3.8,0.3-4.6c4.9-4.6,10-8.8,15.4-13.3c0.6,1.9,1.1,2.8,1.1,3.8
			c1.3,15.2,2.7,30.6,3.8,45.8c0.2,3,0.2,6-0.6,8.8c-0.9,3.9,3.3,9.7,7.2,9.6c0.9,0,2.5-0.6,2.7-1.3c0.8-2.8,1.6-5.7,1.6-8.5
			c-0.5-11.1-1.6-22.3-1.6-33.4c-0.2-11.6,0.6-23.2,0.9-34.9c0.2-3.1,0-6.3,0-9.4h1.4c0.3,0.6,0.8,1.3,0.9,1.9
			c2,7.9,3.3,15.7,6,23.4c6.1,17.6,12.6,35,19.3,52.3c1.1,2.8,4.1,5.5,6.9,7.2c3.1,2,5.2,0,5-3.6c-0.2-3-0.3-6,0.2-8.9
			c3.8-27.6,8-55.1,15.9-81.8c4.1-13.7,7.1-27.6,10.8-41.3C651.7,432.1,649.8,428.9,642.3,428.3L642.3,428.3z"/>
	</g>
	<path fill="#FFFFFF" d="M488.9,328c-1.1-3.8-2.2-7.5-3.5-11.5c-0.5,0.2-1.1,0.2-1.4,0.5c-1.6,1.7-3.1,3.5-4.4,5.3
		c-1.1,1.7-1.4,3.9-2.5,5.7c-3.8,5.8-9.4,8.5-16,9.4c-4.9,0.8-9.6-0.2-13.2-3.8c-1.1-1.1-1.4-1.9-0.3-3.3
		c5.3-7.4,9.7-15.5,13.5-23.9c1.9-4.1,3.9-8.2,5.7-12.4c1.6-3.9,2.7-7.9,3.9-11.8c0.3-0.9,0.6-1.9,0.8-2.7c0.2-4.6,0-7.2-3.3-9.1
		c-2.8-1.6-7.2,0-7.5,1.9c-2,1.6-3.9,2.5-5.2,4.1c-6.9,9.4-13.2,19.2-16.2,30.6c-1.6,6.3-3.3,12.7-1.3,19.3c1.1,3.5,1.1,5.7-2,8.3
		c-4.1,3.5-7.5,7.9-11.3,11.5c-1.9,1.7-4.1,3.1-6.3,4.2c-1.7,0.8-4.2,0.8-5.3-1.3c-2.7-4.7-5-9.7-7.5-14.6c-0.8-1.6-1.6-3.1-2.7-4.6
		c-0.9-1.3-0.6-1.7,0.5-2.4c1.4-0.8,2.8-1.6,4.1-2.7c9.1-7.1,17.4-14.9,25.3-23.2c3.8-4.1,6.4-8.9,8.2-14.1c1.9-5.5-2.7-9.1-7.5-9.4
		c-4.7-0.3-8.6,1.6-12.7,3.6c-6.4,3.3-12.7,6.8-17.6,12.2c-1.6,1.9-3.6,3.5-5.3,5.2c0.3-1.6,1.1-3,1.6-4.4c1.9-4.9,3.5-9.7,5.3-14.6
		c2.7-7.1,5.3-14.1,8-21.4c1.7-4.6,3.3-9.1,3.1-14.3c0-2.5-0.8-4.6-2.2-6.4s-4.7-1.9-6,0.2c-0.9,1.4-1.6,3-2.2,4.6
		c-1.4,3.8-2.7,7.4-3.9,11.1c-2.5,7.5-5,14.9-7.4,22.5c-1.6,5-2.8,10-4.2,15.2c-1.9,7.1-3.6,14.1-5.5,21.2
		c-0.9,3.5-1.9,7.1-3.3,10.4c-1.3,2.7-3.3,5-4.9,7.4c-5.5,8.2-12.1,15.1-19,21.8c-0.5,0.5-1.1,0.8-2,1.4c-0.6-8.5-0.2-16.2,1.7-24
		c2.7-10.5,6.4-20.6,11-30.3c3-6.3-0.6-13.5-5-16.8c-0.6-0.5-2.2-0.2-3.1,0.3c-1.1,0.6-0.8,1.4-0.2,2.5c0.5,0.9,0.3,2.2,0.5,3.5
		c-0.2,0-0.5,0.2-0.6,0.2c-1.4-1.6-2.7-3.1-4.1-4.6c-1.7-1.7-3.8-2.4-6.4-2c-3.5,0.5-6.3,2.4-8.9,4.2c-3.1,2-6.8,3.5-8.5,7.4
		c-0.5,0.9-1.4,1.7-2,2.5c-3,3.3-6.4,6.3-8.9,9.9c-3.5,4.9-6.3,10.2-9.1,15.4c-4.1,7.5-7.9,15.1-11.9,22.6
		c-1.9,3.6-4.1,7.1-6.1,10.4c-0.5,0.9-1.4,1.6-2.4,2.7c-0.3-0.9-0.6-1.6-0.6-2c-0.2-5.2-0.8-10.4,0-15.4c1.3-7.9,3.3-15.4,5.3-23.1
		c1.4-5.7,3.6-11.1,3.3-17.1c-0.2-2.7-0.2-5.5-2.7-7.1c-3-1.9-8.9-0.9-11,1.9c-3,3.9-5.8,8-8.3,12.1c-1.7,2.7-3.1,5.7-4.7,8.3
		c-1.3,2.2-2.4,4.4-3.5,6.4c-0.3-0.8-0.2-1.3,0-1.9c1.1-6.6,3.9-12.9,3.1-19.6c-0.3-2.4,0-5.2-2.7-6.6c-3.8-2-8.9-0.6-11.5,3
		c-2.8,4.2-5.8,8.6-8.9,13.2c0-1.1-0.2-1.9,0-2.5c0.6-3.5,1.6-7.1,2-10.5c0.8-6.6-1.3-10.8-8.2-11.9c-2.5-0.5-4.1,0.6-4.2,2.8
		c0.8,0.2,1.7,0.5,2.5,0.6c1.4,0.3,1.7,1.1,1.6,2.4c-0.3,2.5-0.6,4.9-1.3,7.4c-1.6,7.2-3.1,14.4-4.9,21.8
		c-1.9,7.7-3.8,15.2-5.7,22.8c-0.9,3.9-1.6,7.9-2.4,11.6c-0.9,4.7-2.2,9.3-3.1,14c-0.2,0.5,0.2,1.4,0.6,1.6c2.2,1.3,4.4,2.5,6.8,3.5
		c0.6,0.3,2.2-0.3,2.5-0.9c0.9-2,1.7-4.4,2.4-6.6c1.9-6,3.6-12.1,5.8-17.9c2.4-6.3,5-12.4,7.5-18.5c2.4-5.5,4.7-10.8,7.1-16.3
		c0.9-2,2-3.9,3.1-5.8c0.2,0,0.3,0.2,0.6,0.2c0,0.5,0,1.1-0.2,1.6c-2,8-4.6,16-6.3,24c-1.7,8.5-2.8,17-3.6,25.6
		c-0.5,6,2,8.9,7.5,10.7c2.4,0.8,3.3,0.3,3.9-2c1.1-3.8,2-7.5,3.3-11.3c2.2-6.9,4.6-13.7,6.8-20.6c3.3-10.2,7.7-19.8,13.3-28.9
		c0.9-1.6,2.4-2.8,3.5-4.2c-0.5,3.1-1.3,6-2,8.8c-1.7,6-3.6,11.9-4.9,17.9c-1.6,7.1-2.7,14.3-1.6,21.5c0.5,3.3,0.2,7.1,3.3,9.6
		c4.7,3.9,7.9,3.9,11.6-0.9c2.7-3.5,4.7-7.4,6.6-11.3c3.8-7.2,7.2-14.8,10.8-22.1c0.3-0.6,0.9-1.1,1.3-1.7c0.2,0.2,0.3,0.2,0.6,0.3
		c-0.2,0.8-0.3,1.6-0.6,2.2c-1.7,5.8-2.5,11.8-2.2,17.7c0.3,5.3,1.3,10.5,5.7,14.3c3.9,3.5,6.9,3.8,11.3-0.3c2.5-2.4,4.1-5,5.3-8.2
		c1.7-4.2,3.9-8.3,6-12.6c1.4-2.8,3.1-5.3,4.9-8.3c0.2,0.8,0.3,1.3,0.3,1.6c-0.2,1.6-0.5,3.1-0.5,4.9c-0.2,3.6-0.3,7.2-0.3,10.8
		c0,2.4-0.6,4.9,0,7.1c0.9,3.8,4.4,5.3,7.7,6.8c0.5,0.2,1.4-0.5,2-0.9c0.5-0.3,0.6-0.9,0.9-1.4c3-3.3,6-6.4,8.8-9.7
		c4.6-5.3,8.9-10.8,13.5-16.2c0.3-0.3,0.6-0.5,0.9-0.8c0.2,0,0.3,0.2,0.5,0.2c-0.2,0.8-0.5,1.6-0.6,2.4c-1.4,6.8-3,13.3-4.4,20.1
		c-0.2,0.5,0.3,1.4,0.6,1.7c1.1,1.1,2.2,2.2,3.5,3.3c0.9,0.8,2,1.9,3.1,2.4c1.9,0.8,2.7,0,3-1.9c1.3-8,2.7-15.9,4.1-23.9
		c0.2-0.8,0.9-1.9,1.7-2.2c2.4-1.3,3.6-0.8,4.9,1.7c2.8,5.2,5.3,10.5,8.2,15.7c3.3,6,7.9,7.5,14.3,5.2c6-2,10.7-6,15.1-10.4
		c3.1-3.1,6.3-6,9.4-8.9c3,2,6,4.6,9.1,6.4c11.1,6.4,27.6,1.7,35.2-6.9C489.2,333.9,489.9,331.1,488.9,328L488.9,328z M353.6,299.6
		c-2.4,6-4.6,12.1-6.9,18.1c-0.5,1.3-1.3,2.5-2,3.6c-4.1,6-8,12.1-12.2,18.1c-2.7,3.8-5.5,7.5-8.3,11.3c-1.1,1.4-2.7,2.4-4.4,3.8
		c-1.3-5.5-1.4-10.5-0.5-15.4c2.4-13.3,8.9-24.5,17.4-34.9c2.5-3,5.2-5.8,7.9-8.6c0.6-0.6,1.9-0.9,2.8-0.9c1.1-0.2,2.4,0.2,3.5,0.3
		C353.7,295.3,355.1,295.9,353.6,299.6L353.6,299.6z M392.7,322.9c-1.9,0.9-2.7,0.2-2.4-1.7c0.2-0.9,0.3-2.2,0.8-3
		c3.8-5,7.4-10.5,11.8-14.9c5.7-5.8,12.2-10.2,20.1-12.6c1.7-0.5,3.3-1.4,4.9-2c0.6-0.3,1.3-0.3,2-0.5l0.5,0.5
		c-2.2,3.1-4.1,6.6-6.8,9.3c-5,5.2-10.4,10-15.7,14.9c-3,2.7-6.3,5.3-10,6.9C396,320.7,394.4,322.2,392.7,322.9L392.7,322.9z
		 M445.3,320c-0.3,0.5-0.8,0.8-1.6,1.4c-0.3-4.4,0.8-8,2.4-11.3c2.2-4.9,4.9-9.6,7.4-14.4c1.6-3,3.1-6.1,4.7-9.1
		c0.9-1.7,2.2-3.3,3.3-5c0.3,0.2,0.6,0.2,0.8,0.3c0,0.8,0.2,1.6,0,2.4c-1.7,4.6-3.5,9.1-5.3,13.7c-2.7,6.8-6.4,12.9-10,19.3
		C446.4,317.9,445.9,319,445.3,320L445.3,320z M134.7,528c-4.7,6.4-9.9,11.3-17.7,13.5c1.4-0.3,3.3,32.8,3.1,36.7
		c-0.2,2.2-0.8,4.6-0.6,6.8c0.5,4.9-0.9,9.4-2,14c-0.5,2-0.5,4.1-0.9,6.1c-1.1,5.3-3.5,10-6.6,14.4c-0.9,1.3-1.3,3.5-3.3,3.1
		c-2.4-0.3-4.7-0.8-6.9-1.6c-2.4-0.8-3.5-2.5-4.6-4.9c-2.8-6.9-4.6-13.8-4.1-21.2c0.8-10.4,1.7-20.6,2.7-30.9
		c0.5-5,0.8-9.9,1.6-14.8c0.5-3.6,1.6-7.2,2.2-11c0.3-1.6,0.2-3.3-0.2-4.9c-0.5-2.5-0.5-4.7,0.5-7.2c0.9-2.7,3.1-4.2,4.2-6.8
		c1.1-2.2,1.9-4.6,2.5-6.9c1.7-5.7,3-18.2,4.6-23.9c0.3-0.9,3.1-21,0.6-18.7c2-1.9,4.2-1.7,6.3-1.1c5,1.6,8.3,7.2,7.2,12.4
		c-2,9.4-4.1,25.4-6.4,34.7c-0.5,2-1.6,4.1-1.6,6.1c0,3.3,0.6,6.6,1.3,9.7c0.2,1.1,1.3,1.4,2.2,0.5c4.6-4.9,9.4-9.6,13.7-14.8
		c5.8-6.9,10.8-14.3,18.1-19.8c0.3-0.3,0.8-0.6,0.9-0.9c1.3-2.8,2.2-3.1,5.5-3.3c3.6,0,7.1,0,10,2.4c4.4,3.5,6.4,8,5.8,13.7
		c-0.3,2.7-0.5,5.2-0.6,8.3c1.7-0.5,3.1-0.6,4.4-1.3c6.9-3,12.7-7.2,16.6-13.7c3-4.7,7.9-5.7,12.7-4.9c4.6,0.8,7.7,3.8,8.8,8.8
		c1.6,8,1.6,16,1.1,24c-0.3,6.3-0.5,12.6-1.1,18.8c-0.9,8.2-2.7,11.6-3.5,19.8c-0.8,6.9-0.8,11.9-1.3,19c-0.3,3.1-0.3,6.4-2.8,9.1
		c-3.5,3.6-8.3,2.7-10-1.9c-0.2-0.3-0.3-0.6-0.3-0.9c2.2-4.4,0.6-8.8,0.3-13.2c-0.9-12.6,0.9-18.1,2.7-30.5
		c1.6-10,2.4-20.1,3.5-30.1c0.5-4.6,0.6-8.9,0.8-13.5c0-1.1-0.5-2.2-0.8-3.3c-0.8,0.6-1.9,1.3-2.5,2c-1.7,2.2-3,5-5.2,6.9
		c-2.4,2-5.3,3.5-8,5.2c-4.6,2.8-9.4,4.4-14.8,4.6c-1.6,0-1.6,1.3-1.7,2.4c-0.9,6.6-1.9,13-3,19.6c-0.8,4.6-1.6,9.1-2.8,13.7
		c-1.4,5-2.5,10.4-7.5,13.3c-3.6,2-7.2,1.6-10.7-0.2c-3.9-2-6.9-5-8.9-8.9c-5.7-10.7-6.9-21.7-3.5-33.3
		C134.7,529.4,134.7,528.9,134.7,528L134.7,528z M110.1,541.3c-3.3,20.9-5.8,41.1-3,61.9c0.6-1.3,1.3-2.5,1.6-3.8
		c0.6-3.1,1.3-6.1,1.9-9.3c0.6-2.7,1.4-5.3,1.6-8c0.6-6.8,1.1-13.7,1.4-20.4c0.2-2.5-0.2-5.2-0.3-7.9c-0.2-3-0.9-6-0.5-8.8
		C113,542.9,112.3,542.4,110.1,541.3z M1057.6,522.3c-3.3,0.3-6.8,0.6-10,0.9c-0.6,3.1-8.6,16.8-34.9,33.4c-4.9,3-10,4.6-15.2,6.4
		c-4.9,1.7-8.3,0.6-11.5-3.6c-3.1-4.2-3.5-9.3-3.6-14.1c0-1.4,0.9-2.2,1.9-3c6.6-5.2,13.2-10.4,19.6-15.5c8-6.4,13.8-14.6,18.1-23.9
		c0.6-1.6,1.1-3.3,1.1-4.9c0-4.1,0-8.2-0.5-12.1c-0.3-3.1-2.5-5.2-5.2-6.8c-2.4-1.6-8.5,3-9.4,4.2c-1.1,1.6-2.7,2.8-3.9,4.1
		c-7.4,7.7-14,16.3-19.9,25.1c-4.6,6.6-7.4,14-9.3,21.7c-0.3,0.9-1.1,1.9-1.6,2.8c-2.7,6-11,13.2-18.1,13.2c-2.7,0-8.8-6.9-6.1-17.7
		c0.5-1.7,0.3-3.1,1.7-4.4c11.1-11,21.4-33.4,27.5-46.6c3.1-6.8,16.8-44,17.6-49.5c0.5-3.9-1.1-5.5-5.2-6.8
		c-7.2-1.3-26.8,41.4-30,48.4c-2.7,5.8-5.2,11.8-7.7,17.7c-1.4,3.6-2.5,7.5-3.9,11.1c-2.8,7.2-5.8,21.2-8.8,24.6
		c-2.2,2.7-10.7,10.7-13.2,13c-0.3-0.9,3.3-7.9,3.6-8.5c2.2-6.9,4.9-13.5,5.7-20.9c0.8-8.9-0.3-17.4-3.9-25.6
		c-3-6.9-8.5-11.1-15.7-12.7c-5.8-1.3-10.5,1.6-14.6,5.5c-0.9,0.8-1.7,1.7-2.5,2.5c-0.2-2.4,0-4.4,0.5-6.4c0.5-2.7-0.5-4.9-2.5-6.6
		c-2.7-2.2-6-2.4-8.8-2.7c-6.6,9.1-14.1,16.8-22.3,24.2c-3.5-15.1-13.3-36.7-25-32.7c-3.6,4.1-12.1,11-13.2,11
		c-1.1,1.7-2.2,4.2-3.3,6.1c-1.7,3.3-13.5,24.2-17.6,31.4c-1.6,2.8-3.1,5.8-4.7,8.6c-1.9,3.3-3.6,7.5-5.5,10.8
		c-3.3,6-7.2,11.5-11.8,16.5c-2.5,2.8-5.5,5-9.1,6.3c-1.3,0.5-3.1,0.6-4.1-0.2c-2.8-1.9-2.8-8.9-0.2-11.1c2-1.9,4.4-3.5,6.3-5.5
		c2.2-2.4,4.1-5,5.7-7.9c2.8-5,5.7-10.4,8.2-15.5c4.2-8.8,2.8-31.7-1.9-40.2c-0.8-1.6-2.4-2.8-3.5-3.9c-6-6.4-11.6-0.3-11.9,0.9
		c-0.6,2-1.9,4.4-3,6.3c-1.9,3.8-3,7.7-3.9,11.8c-1.1,5.2-2.4,10.4-3.6,15.5c-3.1,11.6-5.3,23.4-5,35.5c0,1.7-0.8,3-2,3.9
		c-4.7,3.6-9.6,6.8-14.9,9.3c-6.4,3-13.2,4.9-20.4,3.1c-0.5-0.2-0.9-0.6-1.6-0.9c0.5-0.3,0.6-0.5,0.9-0.5c4.6-0.5,8.5-2.4,11.9-5.7
		c2.7-2.5,4.4-5.7,6.3-8.6c3.8-5.7,5-12.4,6.8-19c0.6-2.5,1.3-5,1.4-7.7c0.8-8.3,0.2-16.5-2.2-24.5c-0.8-2.8-2.4-5.2-4.7-6.9
		c-4.9-3.6-10.2-5.8-16.3-5.8c-3.8,0-7.5,0.9-10.2,3.9c-3.8,4.2-7.4,8.5-9.6,13.8c-0.5,1.3-1.4,2.4-2.4,4.1c-0.2-1.4-0.2-2.2-0.2-3
		c0-4.4-1.9-8-4.9-11.1c-1.9-1.9-4.1-2.7-6.9-1.9c-0.2,0.9-0.3,1.7-0.3,2.7c0.3,8.8-1.7,17.4-3,26.2c-1.1,7.9-2.4,15.9-3.1,23.7
		c-0.6,6-0.6,12.1-0.9,18.2c-0.2,2.2-0.2,4.6-0.3,6.8c-0.5,4.4-1.1,8.9-1.4,13.3c-0.5,5-0.6,10-0.8,15.2c-0.3,6.1-0.5,12.4-0.8,18.5
		c1.7,1.1,3.5,2.4,5.2,3.5c1.1,0.6,2.5,1.1,3.8,1.6c3.3,0.9,4.2,0.2,4.6-3.3c0.2-0.9,0.2-1.9,0.2-2.7l0.5-8.5
		c0.5-8.3,0.8-16.6,1.3-25c0.2-3.8,0.5-7.7,1.1-11.5c0.6-3.8,1.4-7.5,3.5-11.3c1.6,0.9,3,1.6,4.4,2.7c3.9,3,8.3,5,12.9,6.6
		c6.1,2.2,12.6,2.8,19,2.2c5.8-0.6,11.6-1.9,16.6-5c3-1.9,6.1-3.5,9.1-5.2c1.1,1.3,2.2,2.4,3,3.5c2.2,3,5.3,4.6,8.6,5.7
		c5.5,1.7,10.5,0,15.2-2.8c1.9-1.1,3.5-2.8,5-4.4c1.7-1.6,3.1-3.5,4.7-5.2c0.5-0.5,0.9-1.1,1.7-1.7c0.6,2.5,0.9,4.7,1.7,6.8
		c4.4,11.5,13,15.4,24,10c5.5-2.7,10-6.9,14-11.6c5.3-6.4,10-13.3,14.3-20.6c3.6-6,7.4-11.9,9.6-18.5c0.8-2.5,1.6-4.9,4.7-5.5
		c0.3,0,0.5-0.5,0.8-0.6c4.9-2.8,8.8-6.6,12.6-10.7c1.3-1.4,2.7-2.7,4.4-4.4v1.4c-2.5,9.4-5,18.7-7.7,28.1
		c-0.9,3.5-2.4,6.9-3.6,10.2c-1.3,3.5-2.8,6.8-4.2,10.2c-1.4,3.3-2.4,6.8-3.9,10c-2.8,5.7-5,11.5-6.9,17.6c-0.9,3.3-2,6.4-3,9.7
		c-1.7,6.6-3.1,13.2-4.9,19.6c-1.1,3.9-1.1,8.3-4.2,11.8c1.7,3.1,3.8,5.8,6.4,7.5c3.1,2,4.4,1.4,5.3-2.2c2.2-8.3,4.2-16.6,6.9-24.8
		c2.5-7.9,5.5-15.5,8.3-23.2c2.2-6.1,4.4-12.2,6.9-18.8c1.4,1.9,2.8,3.6,4.1,5.3c5.5,7.9,13,11.3,22.5,10.7
		c3.9-0.3,7.9-1.7,11.8-2.7c0.5-0.2,1.1-0.5,1.6-0.6c5.3-3,19.8-16.3,20.7-17.1c-1.7,15.2,4.6,22.1,15.7,21
		c4.9-0.5,8.8-2.5,12.6-5.3c1.3-0.9,2.5-2,4.1-3.3c0.3,1.1,0.5,1.7,0.8,2.4c2.4,7.2,6.4,13.2,13,17.3c14.8,9.3,33.3-4.6,44.6-13.5
		c5.2-4.1,10.4-8.2,14.8-13c4.2-4.6,10.7-12.6,12.1-15.2C1061.2,525,1059.6,522.2,1057.6,522.3L1057.6,522.3z M1009.9,497.4
		c-0.2,6.1-10,19.5-18.5,25.1C996.5,513.4,1003,505.4,1009.9,497.4z M983.6,446.7c2.4,0-29.8,67.4-29.8,67.4
		S981.3,446.7,983.6,446.7L983.6,446.7z M779.2,478.2c0.2-0.5,0.5-0.9,1.6-1.3c3.6-0.2,5.7,25.7-6.6,40.2c-0.8,0.9-1.4,2-2,3.1
		c-0.3,0-0.6-0.2-0.8-0.2C773.9,506.3,776.6,492.2,779.2,478.2z M709,540.6c-0.6-0.2-1.4-0.5-1.7-0.9c-2.8-3.3-4.6-6.8-3.3-11.5
		c2.2-8,5-15.9,8.6-23.4c2.5-5,4.2-10.5,7.1-15.4c2.4-4.2,5.5-8,8.6-11.6c2.5-3,4.7-2.4,6.3,1.3c1.9,4.7,3,9.4,2.7,13
		c-0.2,12.2-2,22.8-5.8,33c-2.4,6.3-6.8,11-12.4,14.3C715.8,541,712.3,541,709,540.6L709,540.6z M850.7,506.8
		c-2.7,7.2-6.8,13.7-10.8,20.3c-3.3,5.2-6.8,10.4-10.5,15.4c-3,3.9-6.4,7.5-11,9.7c-0.6,0.3-1.3,0.6-1.9,0.8
		c-3.3,1.1-4.4,0.9-5.3-2.4c-2-6.4-2.7-13-0.3-19.6c4.9-13.7,10.7-27.2,17.9-39.7c0.3-0.6,0.8-1.3,1.4-2.2
		c5.3,7.1,5.8,7.5,21.8,13.8C851.6,504.1,851.1,505.4,850.7,506.8z M853.5,495.8c-1.7,1.4-3.6,0.9-5.3,0.8c-3.5-0.5-6.8-1.9-9.7-3.8
		c-2.7-1.9-3.9-4.4-3.3-7.9c1.3-6.4-0.2-11.3,4.1-16.5c0.8-0.9,4.6-3.5,5.5-4.9c4.1-0.6,4.7,5.8,5.5,9.6c0.8,3.5,1.6,7.1,2.7,10.4
		C854.6,487.8,853.6,491.9,853.5,495.8L853.5,495.8z M921.5,527.1c-3,6.6-7.7,12.2-13,17.1c-2.5,2.4-5.3,2.7-8.8,2
		c-5.5-1.1-7.5-4.7-8.6-9.6c-0.6-3.1-1.3-6.1-1.9-9.3c-0.5-2.2-0.2-4.2,0.9-6.3c2.4-4.6,4.6-9.1,7.1-13.5
		c3.6-6.3,7.2-12.6,11.1-18.5c2.2-3.5,5-6.8,8.8-8.8c3.6-1.9,5.5-1.4,7.4,2.2c2.7,5,3.6,10.7,3.8,17.7
		C928.1,508.8,925.6,518.1,921.5,527.1L921.5,527.1z"/>
</g>
</svg>
