<?xml version="1.0" encoding="utf-8"?>
<!-- Generator: Adobe Illustrator 19.1.0, SVG Export Plug-In . SVG Version: 6.00 Build 0)  -->
<svg version="1.1" id="Layer_1" xmlns="http://www.w3.org/2000/svg" xmlns:xlink="http://www.w3.org/1999/xlink" x="0px" y="0px"
	 width="817.9px" height="266.5px" viewBox="0 0 817.9 266.5" style="enable-background:new 0 0 817.9 266.5;" xml:space="preserve"
	>
<style type="text/css">
	.st0{fill:#FFFFFF;}
</style>
<path class="st0" d="M625.9,250c-3.5,0.2-6.4-0.5-9.2-2c-3.3-1.7-6.4-3.6-8.6-6.2c-5.6-6.5-8.6-14.1-10.4-22.1
	c-1.5-6.7-2.3-13.8-1.7-20.6c1.6-18.4,1.1-36.6,8.8-54.1c1.2-2.7,3.3-5,3.8-7.9c0.3-1.7,3.4-3.3,5.5-3.6c3.7-0.5,6.5,0.8,9.2,2.6
	c2.7,1.8,3.5,4.3,2.7,7.1c-0.3,1.1-0.2,1.8,0.8,2.7c1.5,1.3,2.9,2.7,4.1,4.3c1.1,1.4,2,3,2.7,4.6c3.2,7.4,4.5,15.5,6.7,23.2
	c0.7,2.4,1.3,4.8,1.8,7.2c0.4,1.9,0.4,3.9,0.8,5.8c1.3,7.3,1.1,14.7,1,22.1c0,3,0,6.1-0.5,9.1c-1.1,7.3-4.1,14-5.8,21.1
	c-0.9,3.5-5.3,6.8-9.9,6.7C626.9,250.1,626.2,250,625.9,250z M621.7,244.3c1,0.5,2,0.3,2.7-1.4c3.4-7.4,5.9-14.2,6.7-22.2
	c0.3-2.8,0.6-5.6,0.8-8.5c0.3-5.4,0-10.6-0.3-16c-0.7-12.5-1.3-26.5-5.9-38.6c-0.5-1.2-0.8-2.5-1.5-3.7c-0.8-1.4-2-2.7-3-4
	c-0.9-1.2-1.7-2.3-3.2-2.9c-3.3-1.1-8,24.7-8.2,27.1c-0.7,8.1-1.5,16.3-1.8,24.5c-0.2,4.6-0.2,9.2,0.3,13.8c0.4,3.3,0.4,6.7,1.5,9.9
	c1.5,4.5,2.7,9.2,5.1,13.5c1.2,2.2,2.7,4.1,4.3,6.1C619.7,242.7,620.7,243.8,621.7,244.3z"/>
<path class="st0" d="M482.7,147.3c-1.8-0.1-3-1-4-2.2c-0.7-0.9-0.9-1.5-0.4-2.7c0.7-1.6,2.2-2.4,3.3-3.5c0.9-0.9,1.8-1.8,1.9-3.1
	c0.1-1,0.7-1.4,1.7-1.4c0.8,0,1.8-0.1,2.5,0.2c2.4,1.1,5,0.9,7.5,0.8c3.4-0.2,6.7,0.1,9.9,0.8c3.7,0.8,7.3,1.9,10.5,4.1
	c1.7,1.2,3.7,2,5.1,3.5c2,2.1,3.9,4.4,5.3,6.9c0.3,0.5,0.7,1,0.9,1.5c0.6,1.4,1.3,2.8,1.6,4.2c1.2,5.3,1.9,10.9,0.9,16.4
	c-1.1,6.1-4.6,10.1-8,15.1c-2.4,3.5-6,5.5-9.4,7.8c-3,2-6.6,2.7-9.9,4.1c-0.2,0.1-0.4,0.1-0.7,0.2c-3.3,1.1-3.5,1.3-3.1,4.7
	c0.3,3,0.5,6.1,0.8,9.1c0.4,4.7,1.6,24.3,2,29c0.3,3.4,0.6,6.8,1,10.1c0.4,3.1,1,6.3,1.4,9.4c0.1,0.6,0.3,1.3,0.2,1.9
	c-0.1,0.6-0.5,1.4-1,1.6c-4.2,1.4-8.8,1.1-10.8-4c-2-5-2.6-10.2-3.6-15.4c-0.9-4.5-1.3-23.9-2.3-28.4c-0.7-3-0.5-6.1-0.7-9.2
	c-0.1-1.1-0.9-5.8-0.9-5.8s-3-2.9-1.4-3.9l1.4-1.2c0,0-0.2-2.1-0.2-2.6c-0.2-3.2-0.3-6.5-0.5-9.7c-0.2-3.4-0.5-6.8-0.7-10.2
	c-0.2-3.6,0-7.2-0.3-10.8c-0.4-4.5-0.2-9-0.2-13.5C482.9,149.9,482.8,148.7,482.7,147.3z M517.4,172.3c0.4-3.2,0.5-16.9-3.7-24.5
	c-1.2-2.1-2.6-4.1-4.7-5.4c-3.3-1.9-7.5-1.5-11.4-0.9c-0.5,0.1-1.1,0.2-1.4,0.5c-0.3,0.3-0.3,0.8-0.3,1.2c0,16,0.3,32,1,48
	c0,0.8,0.2,1.8,1,1.9c0.4,0.1,0.8-0.1,1.2-0.3C513.4,188.2,517,175.5,517.4,172.3z"/>
<path class="st0" d="M551.1,205.7c0.2,13.6,2.2,26.6,5.5,39.7c3.7-0.6,7.2-1.2,10.7-1.7c5.5-0.8,11.1-1.5,16.6-2.5
	c3.6-0.6,7.3-0.5,10.9-0.4c1.3,0.1,2.6,1,3.8,1.5c0,1.9-0.2,2.2-1.9,2.3c-5.8,0.3-11.6,1.1-17.2,2.3c-5.1,1.1-10.1,2.7-15.3,2.9
	c-3.7,0.2-7.4,0.7-11.1,1.1c-0.2,0-0.5,0.1-0.7,0c-2.2-0.7-4.4-1.4-6.6-2.2c-1.7-0.6-2.3-2-2.5-3.7c-0.4-3.3-1.3-6.5-1.6-9.8
	c-0.5-5.1-2-10-2.6-15.2c-1.6-15.4-1.4-30.9-1-46.3c0.1-2.5,0.3-5.1,0.2-7.6c-0.1-5.3,0.4-10.5,0.8-15.8c0.1-2.1,0.3-4.3,0.5-6.4
	c0.1-1-0.5-2.1-0.9-3.1c-0.5-1.2-0.2-1.9,1.2-1.8c4.2,0.4,8.3-0.4,12.3-1.4c7.1-1.8,14.7-3.1,22-4c2.3-0.3,4.5,0,6.8,0.1
	c2.1,0.1,3.8,2,3.8,4.3c-3.9,0.7-7.6,1.8-11.4,3.1c-4.4,1.5-8.9,2-13.4,3.2c-2.5,0.6-4.9,0.8-7.4,1c-1.9,0.1-2.1,0.5-2,2.3
	c0.1,2.4,0,4.7,0,7.1c-0.1,5.4-0.2,10.7-0.3,16.1c-0.1,3.8,0,7.6,0,11.3c0,4.5-0.1,7.3,0,11.9c0,1.3,0.4,2.7,0.6,4.2
	c1.5,0.1,3.1,0.3,4.6,0.3c4.4,0.2,8.8,0.4,13.2,0.4c3.6,0,7.1-0.3,10.7-0.5c1.4-0.1,2.8-0.6,4.1-0.9c0.7,1.6,0.1,4-0.9,5
	c-1.5,1.3-4,0.9-5.7,1.3c-6.1,1.2-12.1,1.3-18.3,1.4C556.2,205.1,553.9,205.4,551.1,205.7z"/>
<path class="st0" d="M653.7,189.8c-0.1-1.7,1.6-2.7,1.7-3c0.6-2.4,0.1-4.5,0-6.9c-0.1-2.9-0.3-5.7-0.5-8.6c-0.4-8.1-0.9-17.9-0.9-26
	c0-2.5,0-5.1,0-7.6c-1.5-1.2-4-1.3-4.3-3.8c1.1-1.3,2.9-1.6,4.6-1.8c5.1-0.7,10.2-0.4,15.2,0.8c2.9,0.7,5.8,0.9,8.6,1.7
	c5.5,1.7,11.1,3.2,15.9,6.2c4.1,2.6,9.6,7.5,10.9,12.2c2.5,8.8-8.3,21-12.7,24.8c-6.8,5.7-14.2,9.4-21.4,14
	c-1.2,0.8-1.7,2.1-1.6,3.6c0.2,2.1,0.2,4.2,0.3,6.3c0.1,5.6,0.2,11.2,0.1,16.9c-0.1,5.6-0.5,11.2-0.6,16.9c-0.1,2.3,0,4.6-0.5,6.9
	c-0.4,2.4-0.9,2.7-3.3,2.6c-1.1-0.1-2.2-0.2-3.3,0c-2.8,0.3-4.5-1.4-6.1-3.1c-0.6-0.7-0.7-1.8-0.7-2.7c0-4.3-0.1-8.7,0.3-13
	c0.9-10.1-0.3-21.8,0.1-31.8C655.7,191.9,653.8,191.5,653.7,189.8z M668.7,180.7c4.4,1.7,23.6-13,25.3-19.4
	c1.2-4.5,2.7-12.4-2.1-15.5c-6.9-4.5-14.7-6.6-22.8-8.2c-1.6-0.3-3.3-0.1-5,0.7c0.1,0.4,0,0.9,0.2,1.2c1.5,2.1,1.8,4.4,1.8,6.9
	c0,6.2,0.8,14.3,1,20.6C667.2,166.9,667.7,179.5,668.7,180.7z"/>
<path class="st0" d="M801.9,202.1c-5.1,0.5-10.1-0.8-15-1.5c-1.7-0.2-3.3-0.2-5-0.4c-1.1-0.1-1.6,0.4-1.6,1.4c0,1.9-0.2,3.8-0.1,5.8
	c0.3,9.7,0.7,19.3,1.1,29c0.1,3.5,0.9,4,4.4,3.1c6.3-1.6,12.7-3.1,18.6-5.9c2.9-0.2,5.2-2.5,8.4-2.2c1.8,0.1,3.5,0.5,4.7,1.9
	c0.7,0.9,0.8,1.8-0.1,2.6c-0.7,0.6-1.4,1.3-2.2,1.6c-4.8,1.8-9.3,4.5-14.4,5.6c-3.2,0.7-6.4,1.8-9.7,2.3c-6,0.9-12.1,1.6-17.8-1.4
	c-1.4-0.8-3.2-1.2-3.9-2.9c-0.1-0.3-0.4-0.6-0.4-0.9c0-2.4,0.1-4.8,0.1-7.2c-0.1-2.7-0.4-5.4-0.5-8.2c-0.1-4.6-0.2-9.2-0.3-13.7
	c-0.1-5.4-0.2-10.8-0.2-16.1c0-3,0.3-5.9,0.4-8.9c0.2-5.4,0.4-10.7,0.7-16.1c0.1-2.2,0-4.5,0.2-6.6c0.5-6.6,1.6-13.4,1.4-20
	c-0.1-1.9,0.2-3.8,0.3-5.8c0.1-1.7,1-2.5,2.8-2.5c1,0,2.1,0,3,0.4c2.5,1.3,5.3,1,7.9,1.4c4.2,0.5,8.3,0.9,12.5,1.3
	c4.3,0.4,8.7,0.7,13,1.2c1.5,0.2,2.9,0.7,4.3,1.3c1.2,0.5,1.4,1.6,1,2.7c-0.3,0.8-1.6,1.5-2.6,1.4c-4.4-0.2-8.8-0.4-13.2-0.7
	c-3.1-0.2-6.2-0.6-9.3-0.8c-2.2-0.2-4.4-0.2-6.6-0.1c-1.5,0-1.9,0.6-1.9,2c-0.1,3.9-0.2,7.9-0.3,11.8c-0.2,5.9-0.4,11.9-0.6,17.8
	c-0.2,5.5-0.3,11.1-0.4,16.6c-0.1,2.7,0.4,3.4,3.3,3.9c3.9,0.6,7.8,1.2,11.8,1.6c4.2,0.5,8.3,0.9,12.5,1.3c0.7,0.1,1.3,0.3,2,0.5
	c1.2,0.2,1.7,1.1,1.7,2.1c0,1.1-1,1.4-2,1.5c-1.7,0.1-3.4,0.1-5,0.2C803.8,202.3,802.8,202.2,801.9,202.1z"/>
<path class="st0" d="M724.4,236.9c3.6-0.9,7.3-2,11-2.7c4.1-0.7,8.3-1.3,12.5-1.5c3-0.2,6.1,0.1,9.1,0.3c2.5,0.2,2.8,0.5,4.4,2.5
	c-0.6,1.3-1.8,1.5-3.1,1.8c-2.9,0.7-5.9,0.3-8.8,0.8c-3.9,0.7-7.7,1.7-11.5,2.7c-4,1.1-7.8,2.7-11.8,3.5c-2.5,0.5-5.3,0.1-8-0.3
	c-1.9-0.3-3.8-1.1-5.7-1.7c-2.2-0.7-3.9-3-3.9-5.3c0-7.5,0.1-15,0.1-22.5c0.1-10,1.2-20,2.6-30c1.3-9.7,2.4-19.3,3.3-29.1
	c0.5-5.6,0.9-11.3,1.7-16.9c0.3-2.3,0.6-4.6,0.7-6.9c0.2-3.6,2-5,5.6-3.7c3.6,1.3,6.4,3.6,6.8,7.6c0.2,2.2,0.1,4.5,0,6.7
	c-0.2,3.4-0.4,6.8-0.7,10.2c-0.5,6.2-1.2,12.4-1.8,18.6c-0.7,7.3-1.4,14.8-2.1,22.2c-0.7,7.4-2,14.7-2.1,22.1
	c-0.1,5.9-0.1,11.9-0.1,17.8C722.5,234.5,722.8,235.9,724.4,236.9z"/>
<g>
	<path class="st0" d="M538.4,63.6c1.3-0.2,1.4,4.4,1.3,5c-0.2,1-0.6,1.9-1,2.8c-0.2,0.4-8.7,13.3-22.4,16.9
		c-4.2,1.1-8.7,0.9-12.7-0.7c-3.9-1.5-6.5-5.3-8.4-8.8c-0.3-0.5-0.1-1,0.7-1c1-0.1,2.1-0.6,3-0.4c1.9,0.5,4.7,1.9,6.3,3.4
		c0.3,0.3,0.6,0.6,0.8,1c0.8,1.2,1.9,0.9,2.9,0.5c2-0.7,2.7-1.7,4-3.6c5.2-8.3-7.5-30.6-8.8-33.3c-0.1-0.1-0.2-0.2-0.4-0.3
		c-0.1,0.3-0.3,0.5-0.4,0.8c-0.4,2.2-8.1,19-9.5,21.2c-2.1,3.3-10.7,16.2-16,20.4c-4,3.1-9.5,3.9-13.8,0.8c-3.1-2.3-6.1-6.4-6-10.3
		c0.1-5.5,0-10,0.6-15.5c0.6-5.7,3.1-19.5,4.7-24.9c0.1-0.4,0.1-0.8,0.2-1.4c0.8-0.1,1.9-0.4,3-0.2c1.3,0.3,2.7,0.8,3.9,1.5
		c0.9,0.6,2.1,0.9,2.5,2.3c0.3,1,0.5,2,0.1,3c-0.5,1.2-1,2.4-1.3,3.6c-1.8,7.1-4.1,23.6-3.9,30.9c0,1.8-0.2,5,1.4,6.7
		c3.9,4,11.4-8.3,14.5-13.3c5.6-8.8,8.9-18.5,12.3-28.4c0.6-1.7,0.8-2.8,1.4-4.6c0.4-1.1,0.5-2.3,1-3.3c0.4-0.9,0.4-1.7,0.2-2.6
		c-1.5-5.3-2.6-10.6-1-16.1c0.2-0.7,1.2-1.8,1.8-2.1c1-0.7,1.6-0.3,2.7-0.1c2.4,0.3,4.9,2.1,6.6,3.8c1.7,1.8,2.8,4.7,2.7,7
		c-0.1,2.2-0.3,4.5-0.7,6.7c-0.2,1.4-0.8,2.8-1.2,4.2c-0.1,0.4,0.1,1,0.2,1.4c0.1,0.5,0.2,0.9,0.4,1.4c2.1,4.3,4,9,6.7,12.9
		c7.5,10.8,9,21.7,7.8,25.9C529.5,75.4,537,63.8,538.4,63.6z"/>
	<path class="st0" d="M477.5,23.7c-0.7,1.1-1.7,1-2.7,0.9c-1-0.2-2-0.6-3-1c-2.3-0.9-4.7-4.6-3.3-6c1.4-1.4,3.9-1.9,5-1.1
		C475,17.5,478.2,20.6,477.5,23.7z"/>
</g>
<path class="st0" d="M415,76.9c-0.7-0.4-1.3-0.2-1.8,0.3c-0.9,0.9-1.7,1.8-2.6,2.6c-2.9,2.7-5.9,5.5-8.8,8.2c-1.2,1.1-2.4,2.1-3.7,3
	c-1.7,1.1-3.5,2.1-5.3,3c-1,0.5-2.1,0.8-3.1,1c-1.2,0.3-2.1-0.2-3-1c-1.3-1.2-3.6-8.7-3.5-11c0-1.1-0.2-2.6,0-3.8
	c0.1-0.6,4.8-8.2,6.6-13.8c3.4-10.2,5.6-23.2,2.6-27.9c-0.8-1.2-1.5-2.2-2.8-3c-2-1.3-4.1-0.8-6.2-0.9c-0.8,0-7.6,5.9-9,18.1
	c-0.7,6.4-1.9,11.8-1.6,18.2c0.2,4.8,1.2,10.3,0.3,11.7c-3.7,5.8-9.7,15.7-13.4,15.3c-0.4-0.9-0.8-1.6-0.9-2.3
	c-0.2-1.9-0.3-3.7-0.3-5.6c0.1-4.9,0.1-9.7,0.9-14.5c0.8-5.1,1.4-10.3,2-15.5c0.2-2,0.5-4,0.5-6.1c0-3.8-2.7-7.3-6.4-8.3
	c-3.2-0.8-5.9-1.3-9.9-1.5c-3.7-0.2-14.5-1.4-16.6-1.3c-0.6,0-1.3,0.3-1.6,0.8c-0.5,0.7-0.1,1.4,0.5,1.9c0.3,0.3,0.7,0.6,1.1,0.8
	c2.2,1.3,3.5,6.1,4.6,8.6c1,2.3,1.8,5.8,1.7,8.3c-0.1,6.9-0.8,14-2.9,20.7c-1.1,3.4-5.2,16.5-10.4,15.7c-1-1.2-2-2-2.5-3.1
	c-1.3-3-2.5-6-3.1-9.3c-0.7-3.8-1.8-9-1.2-15.1c0.5-4.7,1.3-9.5,2-14.2c0.5-3.6,1.1-7.2,1.7-10.7c0.2-1.1-0.3-1.8-1.1-2.4
	c-2.3-1.5-4.8-1.6-7.4-1c-1.6,0.3-3.9,0.5-5.5,1c-8.6,3.2-28.4,8.6-35.4,8.3c-1.8-0.1-4.3,1-6,1.3c-1.3,0.3-1.6,0.9-1.7,2.1
	c0,2.8,0.6,5.7,0.5,8.5c-0.1,3.3,4.1,31.3-1,39.7c-0.2,0.3-0.6,0.8-1,1c-0.2,0.1-0.8-0.3-1-0.6c-0.5-0.7-4.5-6.8-6.1-12.9
	c-1.5-5.7-2-13.8-2.3-19.5c-0.1-3.1,0-6.2,0-9.4c0-1,0-2-0.1-3c-0.1-1.9-0.3-3.7-0.6-5.6c-0.1-0.4-0.6-0.7-1-1
	c-2.6-1.9-5.7-1.3-8.5-0.7c-0.9,0.2-1.4,0.9-1.5,1.9c-0.6,5.1-1.4,10.2-1.3,15.4c0,2.1,0,4.3-0.3,6.4c-0.4,3.7-2.5,19.9-2.9,22.7
	c-0.3,1.7-0.9,3.4-1.3,5c-0.1,0.5-0.3,1-0.6,1.4c-0.8,1.2-1.7,1.3-2.4,0.2c-1.1-1.6-2.2-3.3-2.9-5.1c-2.8-7.8-4.2-15.8-3.9-24.1
	c0-1.2,0-2.5,0.1-3.7c0.2-3,0.3-5.9,0.7-8.9c0.5-3.3,0.7-6.6,0.3-9.9c-0.2-1.1-0.6-1.6-1.6-2c-2.7-1.1-5.3-0.9-7.9,0.2
	c-1,0.4-1.3,1-1.3,2c-0.1,1.7-0.4,2.6-0.6,4.3c-0.6,4.8-8.1,33.8-8.7,35.6c-1.2,3.5-3.5,15.4-7,21.9c-0.4,0.7-2.4,3.4-3.4,3.5
	c-1.1,0.1-1.6-0.7-1.9-1.5c-3.5-10.2-4.2-20-4-30.7c0-0.9,0-1.9,0.1-2.8c1-8.2,2-16.4,3-24.6c0-0.2,0.1-0.4,0.1-0.6
	c1.5-6.4,3-12.8,4.5-19.3c0.3-1.5,1.2-2.5,2.8-2.7c0.7-0.1,1.4-0.3,2.1-0.5c3.1-0.8,6.1-1.6,9.2-2.4c0.9-0.2,1.7-0.4,2.6-0.6
	c4.8-1.1,9.6-2.3,14.5-3.2c1.9-0.3,3.5-1.1,5.2-1.6c0.6-0.1,1-0.6,0.9-1.3c-0.1-0.9-0.6-1.3-1.3-1.5c-0.3-0.1-0.7,0-1.1,0.1
	c-2.3,0.3-4.7,0.5-7,0.8c-4,0.5-8,0.8-12,1.5c-3.2,0.5-6.4,1.4-9.6,2c-0.7,0.2-1.5,0.1-2.3,0.1c-0.2-2.1-0.1-2.5,1-4.6
	c1.4-3,2.7-6,3-9.4c0.1-1.3-0.2-2.1-1.3-3c-1.8-1.4-3.8-1.8-6-1.8c-1.9,0-3.3,0.9-4,2.6c-0.3,0.8-0.8,1.6-1,2.4
	c-1.6,5-3.2,9.9-4.6,14.9c-0.5,2-1.6,2.8-3.5,3c-2.2,0.3-4.4,0.6-6.6,0.9c-1.9,0.3-3.7,0.6-5.6,0.7c-2.3,0.2-4.5,0.5-6.4,1.6
	c0.7,2.5,1.1,2.9,3.3,2.9c3.7,0,7.5-0.2,11.2-0.4c0.8,0,4.9,0.1,4.9,0.1s-0.8,1.9-1.1,2.5c-1.2,2.4-2.5,4.7-3.7,7
	c-0.9,1.6-17.9,31.9-33.8,47.4c-0.6,0.6-1.8,0.8-2.7,0.6c-2.5-0.4-4.1-2.2-5.6-4.2c-0.2-0.3-0.2-0.7-0.2-1c0.2-4.7,0-9.1,1.1-13.7
	c1.1-4.7,0.3-9.2,1.3-13.8c0.9-4.3,3.7-8.9,5.5-13.1c1.6-3.7,3.3-7.3,4.9-10.9c0.6-1.3,1.1-2.6,1.7-4c0.6-1.5,1.2-2.9,1.7-4.4
	c1.8-6.3,3.4-12.7,3.9-19.3c0.2-2.7,0.3-5.3,0.2-8c-0.1-1.8-0.3-3.8-2.4-4.6c-1.4-0.5-4.4-0.5-5.9-0.6c-1.3-0.1-2.1,0.6-2.7,1.8
	c-1.2,2.4-2.1,4.9-3,7.4c-0.9,2.7-2.1,5.3-3,8c-1.3,3.8-2.5,7.7-3.5,11.5c-1,3.7-1.8,7.4-2.6,11.1c-0.6,2.8-1.2,5.6-1.8,8.5
	c-0.5,2.5-1.1,4.9-1.6,7.4c-1.8,9.5-12.8,17.9-15.9,19.5c-1.5,0.8-2.8,1.3-3.3,0.1c-0.4-1.1-0.7-2.2-1-3.3
	c-2.6-7.4-4.7-16.2-10.7-21.9c-2.9-2.8-6-2.9-9.5-4.5c-1.4-0.7-2.7-0.3-4,0c-1,0.2-3.1,2.8-3.1,3.8c0,0.7,0,1.5-0.3,2.1
	c-1.6,3.4-2.4,7-3.4,10.5c-0.8,3.2-1.4,6.4-1.9,9.6c-0.4,2.7-1.8,13.2-2.1,16.2c-0.2,2.3-0.7,9.1-1.1,11.5
	c-0.7,5.2-8.5,15.7-9.8,16.1c1.5-4.8-1-12.2-1.7-14.6c-0.7-2.4-1.3-4.8-2.1-7.2c-2.3-6.8-4.7-13.5-7.1-20.3
	c-1.1-3.1-2.3-6.1-3.4-9.1c-0.9-2.4-1.6-4.9-1.6-7.5c0-1.6-0.4-3.2-0.7-4.8c-0.5-4-3.2-6.2-6.7-7.5c-1.3-0.5-3.7-0.3-5.1-0.4
	c-0.8,0-1.2,0.6-1.2,1.3c0,0.8,0,1.6,0.2,2.4c0.7,2.9,1.4,5.8,2.3,8.6c0.6,1.8,0.7,3.5,0.4,5.2C36.4,73,30.3,83.6,24.6,93.4
	c-1.9,3.3-4,6.5-6,9.7c-2,3.2-4.3,6.1-7.3,8.4c-1.3,1-2.9,1.7-4.5,2.4c-0.5,0.2-1.3,0.1-1.8-0.1c-1.6-0.7-3.3-0.7-5-0.4
	c-0.4,1,0.2,1.7,0.8,2.1c2.5,1.6,5,3,8.1,3.2c1,0,1.9-0.2,2.9-0.1c2.2,0.2,4.1-0.7,6.1-1.5c4.6-2.1,7.5-6,10.6-9.6
	c1.7-1.9,2.8-4.3,4.1-6.5c1.3-2.1,2.1-4.5,3.8-6.3c0.2-0.2,0.3-0.4,0.4-0.7c2.4-4.8,4.7-9.6,7.1-14.4c0.2-0.5,0.6-0.9,1.1-1.7
	c0.5,1.2,0.8,1.9,1,2.7c0.8,2.6,1.6,5.2,2.5,7.7c1.9,5.7,4,11.3,5.4,17.2c1.3,5.5-0.9,11.6-5.6,14.6c-2.7,1.7-4.1,1.8-6.5-0.2
	c-1.6-1.4-3.2-2.6-5.4-3c-1.6-0.3-3-0.6-4.5,0.1c-1.1,0.5-1.3,1.4-0.4,2.2c0.7,0.6,1.5,1.2,2.2,1.8c5.4,5,11.9,7.2,19.2,6.4
	c3.5-0.4,7.6-1.5,10.6-3.5c3.7-2.4,6.9-5.3,9.2-9c0.9-1.4,1.7-2.7,2.6-4.3c0.2,0.6,0.4,0.9,0.5,1.3c1.8,6,3.4,12.3,7.4,17.3
	c4.5,5.6,13.3,3.8,15.8,3.2c5.3-1.3,7.3-8.2,8.3-12.7c0.6-2.8,1-5.5,1.6-8.3c0.9-4.1,1.1-8.4,1.9-12.5c0.8-4,0.8-8.1,0.9-12.2
	c0-2.7,0.6-3.2,3.1-4.3c7.2-3.2,12.9-10,12.9-10c0.1,2.4-1.6,11.9-1.6,14.3c-0.1,2-1.9,1.7-3,2.4c-0.2,0.1-0.4,0.2-0.5,0.3
	c-0.5,1.9,0.8,3,1.7,4.3c1.1,1.5,1.8,3.2,1.5,5c-0.6,3.1-0.2,6.3-0.5,9.5c-0.1,1.5,0,3,0.1,4.5c0.4,8-0.5,16,0.2,24.1
	c0.8,10.5,1.9,21.1,3.4,31.5c1.3,9.3,3.7,18.6,8.5,26.9c0.9,1.5,2.4,2.7,4.1,3.1c2.4,0.5,6-0.4,7.9-1.9c1.9-1.4,2.6-3.6,3-5.7
	c2-9.6,1.6-20.8,1.3-30.5c-0.5-16.3-3-34-7.7-49.7c-0.6-1.9-1.4-3.7-2-5.5c-0.2-0.5-0.1-1.1-0.1-1.8c1-0.2,2-0.1,2.7-0.7
	c22.5-20.2,31.9-40.5,33.6-40.7c0.2,0.6-2.2,8.4-2.2,9c0,1.4,0,2.9-0.3,4.3c-0.6,3.7-1,7.5-0.9,11.2c0.1,3.5,0.1,7.1,0.2,10.6
	c0.2,7.8,2.3,18.7,7.8,24.7c2.2,2.4,5.6,4.1,8.9,4.3c3.7,0.2,6.2-1,8.1-4.3c1.4-2.4,2.2-5,3.1-7.6c1-2.9,7.4-31.1,8.1-33.3
	c0.4,3.8,1,12.9,1.3,13.9c0.6,1.8,1.2,3.6,1.8,5.4c2.3,6.6,10.3,14.7,18.2,12.8c0.8-0.2,1.8-0.6,2.3-1.2c1.2-1.6,2.3-3.4,3.1-5.2
	c0.6-1.5,4.5-9.2,4.8-10.2c1.3,0.9,1.9,3.7,2.7,5c3.1,5.2,6,9.8,12.4,10.6c2,0.3,3.7-0.6,5.5-1c1-0.3,3.1-1.3,3.4-2.3
	c0.9-2.3,1.7-4.8,2-7.3c0.5-4.7,1.5-9.6,1.5-14.3c0-3.1-0.6-22.5,0.4-28.3c0.2-1.1,0.5-2,1.6-2.1c6.5-0.4,24.7-6.6,25.2-6.6
	c0.8,0-19.5,5.4-20.2,45.2c-0.2,8.6,4.3,11.5,6.2,11.9c1.6,0.3,3.4,0.5,5,0.4c1.6-0.1,4.1-0.9,5-2.3c1.7-2.6,6.7-8,10.6-19.3
	c0.1-0.4,0.7-0.9,1-0.9c0.4,0-0.3,0.6-0.2,1c0.3,0.7,0.3,1.6,0.6,2.3c1,2.8,1.7,5.8,3.3,8.3c1.6,2.6,2.9,3.7,5.6,5.5
	c0.6,0.4,4,1.8,5.1,2c2.2,0.3,3.6,0.2,5.8-0.5c1.2-0.4,2.6-1.1,3.3-2c1.6-2,3-4.3,4.3-6.6c2.9-5.3,5.5-12,6.7-17.9
	c1.1-5.1,1.7-10.3,1.5-15.5c-0.1-3-0.5-6-1.4-8.8c-0.3-0.9-1-2-1.2-2.9c-0.1-0.6,0.1-1.1,0.6-1.4c0.4-0.2,1,0,1.4-0.1
	c1.7-0.3,8.9,1.1,8.9,3.8c0,1-0.1,2-0.2,3c-0.3,2-0.7,4-0.9,6c-0.4,3.3-0.7,6.6-1.1,9.9c-0.8,6.5-1.2,13-0.7,19.5
	c0.4,5.2,2.6,9.2,7.1,12.1c0.4,0.3,0.9,0.5,1.4,0.7c2.8,0.9,4,0.4,6.7-0.4c2.9-0.8,10.7-12.7,11.3-13.4c1.2,4.2,6.3,9.6,14.3,10.5
	c3.9,0.5,8.5-0.5,11.9-2.3c3.4-1.8,6.2-4.2,9-6.8c3-2.8,5.1-6.1,6.3-10C416.7,79.6,415.8,77.4,415,76.9z M94.4,57
	c1.6,2,3.6,6.9,3.9,9.2C96,65.1,93.7,59.8,94.4,57z M100.7,90.9c-0.4,3-0.2,6-0.6,9c-0.5,3.9-1.3,7.8-2,11.7
	c-0.7,3.6-1.3,7.2-2.6,10.6c-0.5,1.4-1.3,2.7-1.9,4c-1.5,0-2-0.9-2.4-1.8c-1.5-3.4-2.6-6.9-3.3-10.5c-0.8-3.6-1-7.4-1.2-11.1
	c-0.7-10.5-0.3-21.3,1.9-31.7c0.1-0.6,0.5-2.1,0.9-2.2c0.5-0.1,1.2,1,1.7,1.4c0.7,0.6,1.2,1.3,1.8,1.9c1.9,2.4,4.4,4.3,6.9,6
	c1.1,0.7,1.7,1.6,1.6,3.1C101.2,84.5,101.1,87.7,100.7,90.9z M144.1,140.6c1.5,10.3,2,21.1,1.1,31.3c-0.2,2.6-0.1,5.2-0.2,7.8
	c0,0.6-0.2,1.2-0.3,2c-2.5-0.8-2.5-2.8-2.9-4.4c-3.5-14.9-5-30.7-5.6-46.2c-0.1-3.9-0.2-7.8-0.3-11.7c0-2.5,0.5-8.2,0.5-10.7
	c0-0.9,3.4,10,4.2,13.7c0.9,4.1,1.7,8.2,2.5,12.3C143.5,136.7,143.8,138.7,144.1,140.6z M288,99.7c-2.4-1.6,0.7-22,7-33.1
	c4.2-7.5,9.1-14.1,11.6-15C306.3,63.4,292.9,103.1,288,99.7z M387,43.2c2.5,0.6,1.6,4.1,0.9,8.5c-1.2,8.6-4.4,17.8-6.3,19.1
	C380.8,71.2,382.9,42.1,387,43.2z"/>
<path class="st0" d="M448.4,167.3c-0.9-1.6-1.4-2.5-3.3-3c-2.4-0.6-4.5,0-6.8,0.4c-4.7,0.8-9.3,1.6-14,2.4c-1.4,0.2-2.8,0.4-4.3,0.6
	c0.1-1,0.2-2.1,0.2-3.2c0.3-5,0.1-10,0.4-15c0.2-4.7-3.2-6-7.2-6.8c-0.4-0.1-1.3,0.6-1.3,1c-0.2,1.8-0.1,3.7-0.2,5.5
	c-0.1,4.1-0.3,8.3-0.4,12.4c0,1.1-0.3,3.8-0.8,7.1c-0.1,0-0.2,0.1-0.2,0.1c-5.6,1.3-11.1,2.5-16.7,3.8c-0.5,0.1,0.4,0.2-0.3,0.5
	c0.9,1,0.2,2,1,2.7c1.8,1.5,4,1.3,6.1,1c3-0.4,5.9-1,9.2-1.6c-1.6,10,0.2,5.1-2.3,15c-2.5,9.6-12.1,42.4-17.5,44.3
	c-1.1,0.4-3.2-7.5-2.2-18.2c0.4-4.1,2.3-22.1,2.5-26.9c0-0.6-0.4-1.4-0.8-2c-2-2.6-6-1.7-8.6-2.6c-0.4,2.7-0.8,5.2-1.1,7.6
	c-1.1,9.2-0.9,9.4-2.9,18.8c-1,4.5-6,33.2-11.4,29.9c-6.8-4.2-4.1-36-3.6-38.8c0.7-4.4,1.5-7.4,2.2-11.8c0.4-2.9-2-5.5-4.5-5.8
	c-1.8-0.2-3.1-0.6-4.9-0.9c-0.8,2.2-0.3,1.3-1,3.6c-2.5,7.6-11.1,11.6-12.7,12c-1.6-6.9-4.6-9-6.9-11.3c-2.5-2.5-3.6-4.5-6.6-6.5
	c-2.3-1.6-6.5-1-8.2,1.1c-2.4,2.9-5.5,5.4-7.2,8.8c-1.2,2.4-6.7,8.6-17,8.9c-1.3-2.4-2.4-4.8-3.8-6.9c-1.7-2.4-4.1-3.6-7.1-3.6
	c-1.3,0-3.3,2.1-3.1,2.9c0.8,4.2,2.5,8.1,6.7,9.8c2.9,1.2,3.8,2.8,3.4,5.6c0,0.2,0.1,0.5,0.1,0.7c-0.1,4.1-3.3,24.8-6.7,30.5
	c-1.7,2.9-3.6,5.4-6.7,6.9c-1,0.4-1.4,0.2-2-0.5c-1.9-2.4-2-5.4-2-8.1c-0.2-7.9-0.7-16.9-0.5-24.9c0.1-3.1,0.6-6.1,1.2-9.1
	c0.6-2.8,3.5-15.4,4.6-19.3c4.4-15.7,4.7-37.3,3.6-43.4c-0.3-2.1-0.9-3.9-2.6-5.1c-1.2-0.8-1.6-1.4-3.1-1.8c-1-0.3-2.3-0.7-3.2-0.3
	c-2,0.8-3.5,2.4-4.2,4.4c-1.6,4.6-3.3,9.3-4.3,14.1c-2.1,9.9-1.6,16.4-2.1,26.5c-0.5,8.7-1,17.4-1.8,26.1c-0.6,6.1-1,4-1.5,8.4
	c-0.6,3.2-7.1,30.8-11.3,30.3c-4-1.4-3.8-38.7-3.3-44c0.2-1.9-1.2-3.7-3.2-4c-1.6-0.2-6.1,0.2-7.3-0.7c-2.1-1.5-4.2-2-6.6-2.4
	c-3.9-0.7-7,0.9-9,3.7c-5.2,7-9.4,14.5-11.4,23.3c-1.8,8.4-2.2,16.6-0.7,24.9c0.3,1.8,0.7,3.8,1.8,5.1c3,3.8,7.1,6.1,12,6.9
	c4.1,0.7,7.6-0.3,9.9-3.9c1.5-2.3,2.4-4.9,3.6-7.4c0.5-1,2.6-7.8,3.2-9.2c0.2,0.7,3.6,14,6.7,15.6c2.2,1.1,3.8,0.7,5.6,0.5
	c2.4-0.3,10.6-18.9,11.9-20.9c0.9,6,3.7,16.1,10.3,18.2c3,1,5.6,1,8.6,1.4c8.5,1.1,13.4-15.5,14.8-19.4c0.8-2.1,2.9-26,1.5-25.8
	c2.5-0.5,9.6,0.6,11.7-1.8c-0.5,2.3-1.8,6.6-2,9c-0.8,10.6-1,21.8,6.4,30.3c7.2,8.1,20.2,2.5,23.4-5c3.7-8.7,4.1-15,5.1-23.4
	c0.3-2.5,0.4-8,0.5-10.5c2.8-0.2,9.1-4,10.7-5c0,0.5-0.4,19.9-0.8,26.1c-0.5,8,1.3,18.6,7.6,22.1c12.8,7.1,19.9-22.6,21.6-30.9
	c1,0.8-2.1,29.3,8.1,27.6c5.6-0.9,16.1-28.3,17.8-32.8c-5.2,32.6,1,45.7,12.9,44.6c3.7-0.4,7.6-2,11.3-6.7c7-8.9,0.3-5.6-2.2-3.1
	c-3.5,3.6-6.2,4.9-9.5,3.3c-4.4-2-6.5-10.5-4-32.1c1.2-10.7,2.1-23.7,3-34.2c0.3-3.6,0.7-6.5,1-9.4c4-1,8-2.2,12.1-2.8
	c5.5-0.9,10.1-2.1,15.7-1.7C448.5,169.1,449,168.3,448.4,167.3z M276.6,144.7c0.7-2.1,2.6-2.7,2.3-0.2c-0.3,2.5-1,6.9-1.6,17.7
	c-0.4,6.2-4.5,26-4.7,26C273.1,181.6,273.3,154.8,276.6,144.7z M233.5,206.5c-0.8,6.1-1.5,12.2-3,18.1c-1.8,7.1-3.2,14.5-7.2,20.9
	c-1.1,1.8-3,5.5-4.7,5.1c-1.2-0.3-1.5-5.9-1.8-8c-1-7.1-0.1-14.2,1.8-21.3c1-3.6,2.2-7,3.7-10.4c2-4.5,4.6-7.6,7.2-11.7
	c0.9-1.4,2.3-2.2,4.7-1.3C234,201.1,233.9,203.4,233.5,206.5z M334.9,207.7c0.3,7.1,0.1,18.2-3.2,25.9c0,0-7.3,11.8-13.6,6.9
	c-3.6-2.7-2.3-19.2-1.3-24.9c1.2-6.4,1.8-11.8,3.3-17c1.3,3.2,2.8,4.6,5.2,5.9c2.4,1.4,6,1.8,9.1,1.4
	C335.1,205.9,334.8,207.2,334.9,207.7z M333,201.8c-2.7,0-4.5-1.1-6.3-3.7c-1.5-2.7-0.8-7.8,2-11.3c4.3,4.8,4.5,8.4,5.7,14.6
	C333.8,201.5,333.2,201.8,333,201.8z"/>
</svg>
