<?xml version="1.0" encoding="utf-8"?>
<!-- Generator: Adobe Illustrator 18.1.1, SVG Export Plug-In . SVG Version: 6.00 Build 0)  -->
<svg version="1.1" xmlns="http://www.w3.org/2000/svg" xmlns:xlink="http://www.w3.org/1999/xlink" x="0px" y="0px"
	 viewBox="0 0 660 250" enable-background="new 0 0 660 250" xml:space="preserve">
<g id="Layer_4">
</g>
<g id="Layer_1">
</g>
<g id="Layer_5" display="none">
</g>
<g id="lettering">
	<g>
		<path fill="#FFFFFF" d="M224.6,46.3c2.3-8.2,5-15.6,11-21.5c4.3,1.3,8.7,2.6,12.3,5.2c3.3,2.4,5,6,5.2,10
			c0.2,6.3-2.5,11.6-7.2,15.7c-2.4,2.1-5.5,2.4-8.6,1.8c-1.7-0.3-3.4-0.8-5.2-1.2c-0.2,0.7-0.5,1.2-0.6,1.8
			c-0.5,6.6-0.9,13.2,0.8,19.8c0.9,3.5,2.8,6.3,5.7,8.5c1.7,1.2,3.4,1.7,5.2,0.9c3.6-1.6,7.3-3.3,10.7-5.3c3.5-2.1,6.7-4.6,9.2-7.9
			c1.1-1.5,2.8-2,4.7-1.4c0.8,0.3,1.7,0.4,2.6,0.5c1.3,0.2,2.5,0.6,3.1,2c-0.8,2.4-2.5,4.2-4.4,5.7c-5.7,4.6-11.7,8.6-19.1,10.3
			c-4.8,1.1-9.5,0.6-13.7-1.9c-5.5-3.3-10.3-7.4-12.2-13.6c-1-3.3-1.6-6.8-1.7-10.2c-0.2-3.8,0.1-7.7,0.7-11.5
			c0.4-2.6-0.2-4.5-2.5-5.9c-0.8-0.5-1.5-1.1-2.6-1.9c-0.7,1.5-1.4,2.8-1.7,4.1c-2,7.6-4.1,15.2-6,22.8c-2.2,8.7-4.1,17.4-6.2,26
			c-0.8,3.3-2.9,4.1-5.9,2.3c-0.3-0.2-0.6-0.5-1-0.6c-2.5-1.2-3.7-3.2-4.3-5.8c-2.6-10.2-3.5-20.6-4-31.1c0-0.9-0.2-1.9-0.3-3.2
			c-1.6,1.5-1.7,3.2-2.1,4.7c-2.1,7.2-4.2,14.4-6.1,21.6c-1.1,3.9-2.4,7.7-4.3,11.3c-1.9,3.6-4.8,4.6-8.6,3.1
			c-3.7-1.5-6.4-3.8-7.8-7.7c-2.2-6.5-3.2-13.1-3.5-19.8c-0.5-10.1,0-20.1,1-30.2c0.4-4.1,0.5-8.2,0.7-12.4c0.1-2.6,0-5.2-1-7.7
			c-0.4-1.1-0.3-2.4-0.5-3.7c4.7-0.8,9,1.8,10,6.2c1.3,5.7,1.7,11.6,1.3,17.4c-1,12.7-1.9,25.5-0.8,38.3c0.2,2.2,0.6,4.4,1,6.6
			c0.1,0.3,0.3,0.7,0.7,1.3c0.5-0.7,1-1.1,1.2-1.7c1.7-5.5,3.4-11,5-16.5c1.8-6.4,3.5-12.8,5.2-19.2c1-4.1,1.9-8.2,2.8-12.3
			c0.8-3.8,1.7-7.6,2.6-11.8c2.1,0.3,4.3,0.4,6.3,0.8c2.3,0.5,3.7,1.8,4,4.3c0.8,8,1.7,16,2.5,24.1c0.4,4.7,0.6,9.4,1,14.1
			c0.1,0.9,0.3,1.8,0.6,3.3c0.7-0.9,1.2-1.2,1.3-1.7c1.6-6.4,3-12.9,4.6-19.3c0.9-3.6,2.2-7.1,3.3-10.7c0.7-2.1,1.4-4.2,2.2-6.6
			c2.4,0,4.9,0.7,7.4,1.6c0.7,0.3,1.4,1.3,1.7,2.2C220.9,42.6,222.5,44.2,224.6,46.3z M242.7,31.1c-4.5,2.2-10.4,15.8-9.7,22
			c1.9,0.4,3.4-0.4,4.8-1.5c3.8-3.2,5.8-7.3,6.5-12.1C244.7,36.6,244.5,33.7,242.7,31.1z"/>
		<g>
			<path fill="#FFFFFF" stroke="#FFFFFF" stroke-width="2.3142" stroke-miterlimit="10" d="M319.4,8.6c1.9,0.3,3.5,0.5,5.1,0.9
				c2.7,0.7,4.2,2.9,4,6c-0.7,8.3-1.4,14.5-2.3,22.8c-1.4,13.6-2,27.2-2,40.9c0,7.5,0.1,15.1,0.1,22.6c0,1,0.2,2.1,0.4,3.6
				c1.2-0.5,2.1-1,3-1.4c15.6-6.3,31.5-5.3,32.4-5.4c-0.3-3.1-1.2-8.7-1.5-11.6c-0.3-3.6-0.7-7.1-0.8-10.7
				c-0.3-14,2.4-27.6,5.1-41.1c1-4.8,1.9-9.7,2.8-14.5c0.4-2.1,2.2-3.5,4.1-3.2c0.7,0.1,1.5,0.5,2.2,0.6c2.3,0.4,3.5,2,3.8,4.5
				c0.2,1.8,1,3,1.9,4.4c5,7.6,8.5,15.9,9.2,25.6c0.6,8.1,1.4,16.5,0.6,24.5c-0.8,8.1-2.3,15.7-3.7,23.7c-0.4,2.3-2,4.5-2.7,6.7
				c-1.5,4.7-4.3,6.5-8.6,5.7c-4.8-0.9-8.2-3.4-10.2-8.8c-1.1-3-1-3-1.6-3.4c-1-0.5-27.5,5.7-36.3,10.8c-1.4,0.8-2.9,1.1-4.4,0.7
				c-1.6-0.5-3.2-1.2-5-1.9c0-1.6-0.1-3.1,0-4.5c0.8-7,0.1-14,0-21c-0.1-6.5,0-12.9,0.1-19.4c0-2.2,0.1-4.4,0.2-6.7
				c0.2-4,0.5-8,0.8-12c0.4-6,0.8-9.8,1.2-15.8c0.2-3,0.6-5.9,0.9-8.8c0.3-3.5,0.4-7,0.6-10.5C319,11.1,319.2,10,319.4,8.6z
				 M374.1,30c-1.6-0.1-1.9,0.9-2.2,1.9c-0.4,1.3-0.7,2.6-1,4c-1.5,7.6-3.2,15.2-4.3,23c-1,7-1.2,14.1-0.9,21.2
				c0.4,8.4,1.5,16.6,4.5,24.4c0.5,1.2,0.9,2.2,2.3,2.9c2.3-0.4,2.6-3.6,3-5.4c1.1-5.9,2.1-11.4,3.4-17.2c2.1-9.1,1.1-18.8,1.1-28.1
				c0.1-6.1-0.2-12.2-2.6-17.8C376.2,36,375.2,33,374.1,30z"/>
			<path fill="#FFFFFF" stroke="#FFFFFF" stroke-width="2.3142" stroke-miterlimit="10" d="M396.9,26.2c2.6,0.4,4.9,1,6.9,2.7
				c1.6,1.4,1.7,3.6,1.9,5.8c0.3,4.5,0.5,9.1,0.8,13.6c0.5,7.1,1.1,14.1,1.7,21.1c0.5,5.2,1.1,10.5,1.8,15.7c0.1,0.6,0.5,1.2,1,2.5
				c0.7-1.4,1.2-2.1,1.5-2.9c1.2-3.6,2.4-7.2,3.4-10.9c1.2-4.7,2.9-9.2,3.4-14.1c0.2-2.6,1.3-5.1,1.8-7.7c0.8-3.9,1.6-7.9,2.4-11.8
				c0.9-4.8,1.8-9.6,2.7-14.4c0.5-2.3,1.5-2.9,3.6-2.4c2.5,0.6,3.9,3.2,3.6,6.9c-0.2,2.3-0.6,4.6-0.9,6.9c-1.6,12-5.5,23.3-8.4,34.9
				c-2.7,10.8-5,21.7-7.5,32.5c-0.5,2.1-1,4.1-1.7,6.1c-1,2.8-3,3.5-5.3,2.2c-0.2-0.1-0.3-0.3-0.4-0.4c-2.8-1.1-3.7-3.5-4-6.6
				c-1-8.2-2.4-16.4-3.4-24.7c-1.2-10.3-2.2-20.7-3-31.1C397.9,42.4,397.5,34.6,396.9,26.2z"/>
			<path fill="#FFFFFF" stroke="#FFFFFF" stroke-width="2.3142" stroke-miterlimit="10" d="M481.8,21.8c-12.6,0.7-22.8,2.4-35.5,5
				c-0.4,13-0.7,25.7-1.1,38.7c1-0.2,6.6-0.6,7.4-0.7c5.6-0.6,16.3-2.9,21.8-2.3c1.2,0.1,1,2.4,1,2.4s-15.7,3.1-24.1,3.7
				c-1.5,0.1-4.5,0.7-6.1,0.4c-0.2,0.8-0.6,1.3-0.6,1.9c-0.5,12.7-1,25.4-1.5,38.4c1.2-0.2,2.1-0.3,3-0.5c7.5-1.8,31.7-2.9,39.2-4.6
				c0.5-0.1,1.2,0.2,1.7,0.4c-0.2,0.7-0.3,1.5-0.7,1.9c-0.5,0.6-1.2,1-1.9,1.3c-3.2,1.1-6.4,2.1-9.6,3.2c-1.8,0.6-3.6,1.3-5.5,1.8
				c-3.6,1-23.8,1.2-27.4,2.1c-0.7,0.2-1.6,0.1-2.2-0.3c-1.6-1.1-3.1-2.3-4.5-3.6c-0.5-0.4-0.7-1.5-0.6-2.2
				c0.3-7.3,0.7-14.6,1.1-21.9c0.5-7.6,1.2-15.2,1.5-22.8c0.3-9.5,0.3-19,0.4-28.5c0-2.4,0-4.9,0.3-7.3c0.2-2.1,0.1-3.8-1.5-5
				c-0.3-0.2-0.4-0.6-0.8-1.2c0.7-0.3,1.3-0.8,1.8-0.8c12.9-1.3,23.6-4,36.6-4.4C477.7,16.8,480,18.8,481.8,21.8z"/>
		</g>
		<g>
			<path fill="#FFFFFF" stroke="#FFFFFF" stroke-width="2.1625" stroke-miterlimit="10" d="M367.4,201.2c-0.6,0.7-0.9,0.9-1,1.2
				c-1.2,3.8-3.5,7.2-5.2,10.8c-1.4,2.9-2.9,5.8-4,8.8c-0.8,2.1-1.8,2.8-4.7,2.1c-0.5-0.1-1-0.4-1.5-0.7c-1.5-0.9-3-1.8-4.3-2.9
				c-0.9-0.8-1.7-1.8-2.3-2.9c-2-3.6-3-7.6-3.6-11.6c-0.8-5-1.4-10-1.3-15.1c0-0.4-0.2-0.7-0.3-1.4c-0.5,0.6-0.9,0.9-1.1,1.3
				c-4.2,8.6-8.5,17.1-11.5,26.2c-0.6,1.9-1,3.8-1.6,5.8c-0.6,2-2,2.8-3.9,1.9c-3.7-1.8-6.8-4.2-7.7-8.5c-1.2-5.3-2.4-10.6-3.7-15.9
				c-1.8-7.6-2.4-15.3-3.4-23c-0.5-3.6-0.9-7.1-1.4-10.7c-0.4-2.5-0.6-3-1.8-4.8c-1.4,0.8-2.4,2-3,3.4c-1.6,3.4-3.1,6.9-4.4,10.4
				c-1.3,3.5-2.4,7.1-3.4,10.8c-0.9,3-1.7,6.1-2.4,9.1c-0.4,1.6-0.4,3.2-0.6,4.8c-0.3,2-0.6,4.1-0.8,6.1c-0.5,4.2-0.9,8.4-1.4,12.6
				c-0.2,2.1-0.5,4.1-0.3,6.2c0.1,0.4,0,0.9-0.1,1.4c-0.2,0.7-0.7,1.2-1.6,1c-2.1-0.3-3.5-1.7-5-2.9c-1-0.8-0.9-1.9-0.9-3
				c-0.6-7.8-1.3-15.6-1.7-23.4c-0.4-7.8-0.2-15.6,0.5-23.4c0.3-3.6,0.5-7.2-0.3-10.8c-0.1-0.4-0.3-0.8-0.4-1.3
				c-4.9,2.6-9.7,5.1-14.6,7.7c0.4,0.7,0.8,1.5,1.3,2.2c2.9,4.4,4.6,9.2,5.6,14.3c0.8,4.1,1.5,8.3,2.2,12.4c0.2,1,0.2,2,0.2,3
				c0,4.7-0.3,9.3-1.9,13.8c-0.7,2-1.7,4-3.4,5.5c-2.7,2.5-6,2.9-9.3,2c-5.3-1.5-9.8-4.3-12.9-8.9c-2.5-3.7-4.6-7.7-6.1-11.9
				c-0.3-0.9-0.7-1.9-1.1-3c-1.4,1.2-2.5,2.5-2.9,4.1c-0.6,2-1.2,4-1.3,6c-0.4,4.8-4.1,5.9-8,5.2c-2.6-0.4-5-1.6-7.1-3.1
				c-1.7-1.2-3.6-2.2-4.9-3.9c-2.5-3.4-4-7.1-4.6-11.2c-0.9-5.6-0.4-11.3-0.4-17c0-1.6,0-3.2,0-4.8c0-1.9-0.7-3.6-1.5-5.3
				c-1.2-2.4-3-3.7-6.1-3.4c-0.1,0.5-0.4,1.2-0.4,1.8c-0.1,4.6-1.2,8.9-2.2,13.4c-0.9,4-1.8,8.1-2.9,12.1c-1,3.6-2.2,7.2-3.3,10.8
				c-0.4,1.5-0.7,3-1.2,4.4c-0.6,2-1.2,4-2,5.9c-1.7,4.1-3.3,8.1-5.2,12.1c-1.3,2.9-3.7,4.8-7.1,5.1c-0.3,0-0.6,0.1-0.9,0.1
				c-4-0.2-9.2-3.9-10.2-7.6c-0.8-3-1.5-6.1-1.9-9.2c-1.1-8.3-2-16.6-2.9-24.9c-0.3-2.6-0.4-5.2-0.6-7.8c-0.1-1.2-0.3-2.4-0.8-3.6
				c-0.2,0.5-0.5,0.9-0.5,1.4c-0.5,3.4-0.9,6.8-1.4,10.2c-0.5,3.6-1.1,7.3-2.6,10.7c-0.8,1.8-1.2,3.8-2.1,5.6
				c-1.3,2.9-2.9,5.6-5.5,7.7c-2.4,2-5.2,2.8-8.2,2.2c-7-1.5-13.1-4.4-16.7-10.7c-0.1-0.2-0.3-0.4-0.4-0.6c-0.1-0.1-0.3-0.1-0.5-0.3
				c-0.2,0.3-0.5,0.7-0.7,1.1c-0.8,1.3-1.5,2.5-2.2,3.8c-2.4,4.3-8.2,6-13,5c-3.3-0.7-6.1-2.2-8.7-4.1c-0.4-0.3-0.8-0.5-1.2-0.8
				c-1.3,1.9-2.4,3.7-3.8,5.4c-2.2,2.6-4.6,5-8.3,5.9c-1.7,0.4-3.3,0.5-4.9,0c-6.4-1.9-11.3-5.5-14-11.6c-0.8-1.8-1.2-3.8-1.8-5.7
				c-0.1-0.5-0.3-1-0.6-1.8c-1,1.6-1.8,2.8-2.6,4.1c-3.8,5.9-9.1,10.2-15.7,12.9c-2.7,1.1-5.5,1-8.1-0.4c-3.9-2.1-7.1-4.9-9.1-9
				c-0.6,0.4-1.1,0.7-1.6,1c-2.6,1.7-5.3,3-8.4,3.5c-2.1,0.3-3.7-0.3-5.3-1.8c1.1-0.6,2.2-1,3.2-1.6c3.5-2.3,6.3-5.3,9.2-8.3
				c0.7-0.7,0.8-1.5,0.6-2.3c-0.9-3.8-1-7.6-1-11.4c-0.1-4.2-0.2-8.4-0.2-12.6c0-7.8,1.7-15.2,5.7-22c1.5-2.6,2.9-5.3,4.9-7.6
				c1.9-2.2,2.6-2.4,5.3-1.3c5.7,2.5,8.9,6.7,9.3,12.8c0.2,3.1,0.2,6.1-0.3,9.2c-0.7,3.8-1.1,7.6-1.8,11.3
				c-1.2,6.2-3.9,11.8-7.7,16.9c-2.1,2.9-4.3,5.7-6.5,8.5c-0.6,0.7-0.9,1.4-0.8,2.3c0.7,3.2,1.6,6.4,3.7,9.1
				c1.2,1.5,1.6,1.7,3.4,1.1c4.6-1.4,8.3-4,11.5-7.6c3.7-4.2,6-9.1,8.5-14c0.4-0.8,0.6-1.6,1-2.3c1.3-2.5,1-5.2,1-7.9
				c0.1-11.8,0-23.6,0.2-35.4c0-3.4,0.4-6.7,0.8-10.1c0.4-4.1,0.9-8.2,1.4-12.3c0.3-2.6,1.5-5,2.9-7.2c1-1.6,1.9-1.8,3.6-0.8
				c1.6,0.8,2.9,2,3.7,3.5c1.3,2.5,2.3,5.2,2.4,8.1c0.2,4.4,0.5,8.7,0.6,13.1c0,2.4-0.3,4.9-0.5,7.3c-0.5,5.2-1.2,10.3-2.4,15.4
				c-1.2,5.1-2.2,10.2-3.4,15.3c-0.1,0.4-0.1,0.8-0.3,1.1c-1.7,4.7-1.1,9.5-0.4,14.3c0.5,3.8,1.2,7.6,2.4,11.2
				c0.7,2.1,1.5,4.2,2.5,6.2c0.5,1,1.3,1.9,2.1,2.7c1.7,1.8,2.2,1.8,4.6,0.8c2.4-1.1,4.3-2.9,6-4.8c1.7-2,3.3-4.1,4.9-6.2
				c0.5-0.7,0.7-1.4,0.3-2.3c-3-7.2-4.2-14.7-4.5-22.4c-0.3-7.2,0.8-14.2,2.4-21.2c0.6-2.6,1.7-4.9,3.1-7.2c0.7-1.2,1.2-1.4,2.6-1.1
				c1,0.2,2,0.6,2.9,1.1c1,0.5,1.9,1.2,2.8,1.7c4.3,2.4,5.7,6.4,5.9,10.9c0.2,4.7-0.2,9.3-0.9,13.9c-0.8,4.8-1.9,9.5-3.4,14.1
				c-1.1,3.2-2.3,6.3-3.5,9.5c-0.2,0.5-0.3,1.3-0.1,1.7c1.2,1.9,2.4,3.8,3.9,5.5c1.5,1.7,3.4,2,5.6,1c2.2-1.1,3.9-2.6,5.3-4.5
				c2.3-3,3.6-6.5,4.5-10.1c0.3-1.3,0-2.7-0.1-4.1c-0.2-3.1-0.8-6.1-0.7-9.1c0.2-6.3,1.2-12.5,3.5-18.4c1-2.7,2.7-5.2,4.2-7.7
				c1.2-2,3.1-2.6,5.4-2.7c5.4-0.2,9.7,2.1,13.5,5.4c0.5,0.5,0.9,1.2,1.3,1.7c-0.7,0.8-1.4,0.6-1.9,0.3c-1.3-0.8-2.5-1.6-3.7-2.5
				c-0.6-0.4-1.1-0.9-1.7-1.3c-1.9-1.1-4.1-0.8-5.6,0.8c-0.7,0.8-1.3,1.6-1.8,2.4c-2.7,5.2-4.7,10.6-5.1,16.4
				c-0.2,2.1-0.6,4.3-0.6,6.4c-0.1,2.3,0.1,4.6,0.3,6.9c0.2,1.9,0.5,3.8,0.8,5.7c0.9,5,3.3,9.4,6.9,13.1c1.1,1.1,2.5,1.8,3.8,2.7
				c1.5,1,3,0.7,4.1-0.4c1.6-1.7,3.3-3.4,4.5-5.3c3.6-5.7,6-11.9,7.9-18.4c1.6-5.4,3.5-10.8,5.3-16.2c0.7-2.1,1.1-4.1,1-6.3
				c-0.1-3-0.1-6-0.2-9c0-0.8-0.1-1.6-0.2-2.6c-5.6,0.4-11,0.8-16.6-1.7c1.2-0.3,1.9-0.6,2.6-0.7c2-0.2,4-0.2,5.9-0.3
				c2.1-0.1,4.3-0.1,6.4-0.2c1.6-0.1,1.8-0.3,2-2c0.3-2.5,0.5-5,0.8-7.5c0.4-3,0.9-5.9,1.3-8.9c0.3-1.9,0.6-3.8,0.9-5.6
				c2.4-0.4,4.3,0.4,5.1,2.4c0.5,1.2,0.9,2.5,0.9,3.8c0,2.7-0.3,5.3-0.6,8c-0.2,2.2-0.4,4.4-0.7,6.6c0,0.4,0,0.7,0,1.2
				c0.7,0,1.2,0.1,1.7,0c8.8-1.5,17.6-2.6,26.5-3.1c3.8-0.3,7.6-0.5,11.4,0.1c1,0.2,2.3,0.1,2.9,1.3c-0.5,0.9-1.3,1.1-2.2,1.1
				c-6.2-0.2-12.4,0.3-18.6,0.9c-7.3,0.7-14.5,1.8-21.8,3.4c-0.1,1.1-0.4,2.1-0.4,3.2c0.2,5.4,0.5,10.7,0.8,16
				c0.4,5.8,0.8,11.6,1.2,17.4c0.4,5,0.7,9.9,1.2,14.9c0.6,5.5,1.2,11,2,16.4c0.2,1.6,0.8,3.1,1.3,4.7c0.3,1,0.8,1.8,1.9,2.4
				c1.4-0.5,2.4-1.5,3.2-2.6c1.1-1.5,2-3.1,2.9-4.7c2.5-4.8,4.2-9.9,5.5-15.1c0.9-3.6,2.2-7,3.2-10.6c2.2-7.7,4.4-15.3,5.6-23.2
				c0.4-2.6,0.5-5.2,0.7-7.5c-1.8-1.3-3.3-2.3-4.7-3.4c-1.7-1.3-2.2-3-1.6-4.4c0.6-1.4,2.9-2.9,4.5-2.9c0.7,0,1.4,0.1,2.1,0.2
				c2.2,0.3,2.7,0.8,3.1,2.8c0.4,1.9,0.7,3.7,1.1,5.7c0.5,0.2,0.9,0.4,1.4,0.5c3.6,0.5,6.3,2.4,9,4.5c3.4,2.8,4.8,6.6,5,10.8
				c0.2,5,0.3,10.1,0.5,15.1c0.1,2.4,0.2,4.9,0.6,7.3c0.4,2.1,1.3,4.1,2.1,6.1c0.8,1.9,2.4,3.2,4.2,4.3c1.5,0.9,2.9,0.7,4.3-0.1
				c1.2-0.7,2.1-1.7,2.6-2.9c1.8-4.1,3.6-8.2,5.4-12.2c0.7-1.5,0.7-3,0.5-4.7c-0.7-6.2-0.3-12.4,2-18.3c0.1-0.3,0.2-0.6,0.3-0.9
				c0.5-1.5,1.5-3,1.5-4.6c0-1.5-1.1-3-1.5-4.5c-0.3-1.2-0.6-2.4-0.7-3.6c-0.1-1.4,0.4-1.9,1.9-2.2c2.9-0.5,5.7-0.2,8.5,0.5
				c2.6,0.7,4.8,2.1,6.8,3.7c1.4,1.1,2.9,2.2,4.1,3.5c1.6,1.7,2.1,1.3,3.7,0.6c4.4-1.9,8.3-4.4,12.1-7.3c0.4-0.3,0.8-0.7,1.3-1
				c0.4-0.2,0.8-0.5,1.3-0.6c2-0.3,5.1,1.3,6,3.1c0.4,0.8,0.8,1.7,1,2.6c1.3,5.4,2.1,10.8,1.5,16.4c-0.4,3.8-0.7,7.6-0.3,11.9
				c0.4-0.8,0.7-1.1,0.8-1.5c1.2-3.9,2.1-7.8,3.5-11.7c1.7-4.9,3.7-9.8,5.7-14.6c0.7-1.7,2.1-3.2,3.3-4.7c0.9-1.2,2.2-1.3,3.7-0.8
				c2.6,0.9,4.7,2.5,6.2,4.8c1.9,2.8,2.9,5.8,3.4,9c1.1,7.1,2,14.2,3.1,21.4c0.6,3.7,1.4,7.4,2.2,11c0.7,3.5,1.5,7,2.3,10.5
				c0.1,0.6,0.4,1.3,1,2c0.7-1.7,1.4-3.3,2.2-5c2.2-4.6,4.5-9.3,6.8-13.9c2.7-5.4,5.5-10.9,6.9-16.8c0.9-3.8,1.6-7.6,1.5-11.6
				c0-1.1,0.3-2.2,0.4-3.3c3.7-0.6,6.1,1.2,6.4,4.5c0.5,5.6,1,11.1,1.4,16.7c0.3,4.5,0.4,9,0.8,13.5c0.3,4.6,0.8,9.2,2.3,13.5
				c0.4,1.1,0.6,2.3,1.8,3.2c0.3-0.4,0.5-0.7,0.7-1c2-3.6,4.2-7.2,6-10.9c2.3-4.9,4.8-9.8,6.3-15.1c1-3.5,2.4-7,3.6-10.4
				c1.4-3.9,2.8-7.8,4.3-11.7c0.5-1.4,1.2-2.7,1.9-4c1.5-2.6,5.3-4.4,8.3-3.7c4.3,1,8.6,1.8,12.2,4.4c1.7,1.2,2.9,2.8,3.5,4.8
				c0.1,0.3,0,0.7,0,1.1c-1.2,0.5-1.9-0.2-2.6-0.8c-1.1-0.9-2.1-1.9-3.1-2.8c-1.5-1.3-3.4-1.6-5.3-1.7c-1.1-0.1-1.9,0.3-2.4,1.2
				c-2.6,5-5.5,9.8-6.2,15.5c-0.4,3.3-1.4,6.4-1.8,9.7c-0.5,3.8-0.8,7.6-1.1,11.4c-0.2,3-0.5,6-0.2,8.9c0.5,5.5,1.1,11,3.7,16
				c1.8,3.5,3.6,6.8,7.3,8.8c1.4,0.8,2.7,1.2,4.3,0.5c0.7-0.3,1.5-0.5,2.2-0.8c5-2.4,9.6-5.4,14-8.7c4.3-3.3,7.4-7.5,9.7-12.3
				c0.5-1,1.1-2,1.7-3c0.3,0.2,0.6,0.3,0.6,0.4c0.2,2.5,0.4,5,0.4,7.5c0,1.3-0.6,2.5-0.9,3.8c-0.9,3.9-3.7,6.3-7,8.3
				c-3.7,2.3-7.3,4.9-11.3,6.8c-5.5,2.6-10.8,1.9-16-0.8c-2-1.1-3.8-2.5-5.7-3.8c-0.9-0.7-1.9-1.5-2.5-2.4
				c-3.3-4.4-5.8-9.2-6.9-14.7c-0.9-4.7-1-9.4-1.5-14.1C367.4,203.4,367.4,202.5,367.4,201.2z M247.4,172.5c-0.7,2.1-1.3,4-1.9,5.9
				c-1.8,5.5-2.5,11-1.7,16.8c1,7.8,4,14.9,8.5,21.4c1,1.5,2.3,2.7,3.8,3.7c1.7,1,2.5,1.1,4.1-0.1c2-1.5,3.4-3.4,4.2-5.7
				c1.3-3.5,1.6-7.2,2-10.8c0.8-7.5-0.2-15-2.4-22.2c-1.1-3.5-2.6-6.9-4.9-10.1C255.4,172.4,251.6,172.7,247.4,172.5z M29.3,194.3
				c0.4-0.2,0.6-0.2,0.7-0.3c4.4-5.7,7.4-12.1,8.8-19.1c0.9-4.7,1.9-9.5,2.7-14.2c0.4-2.2,0.5-4.4,0.6-6.6c0.1-2-0.6-3.9-1.7-5.6
				c-0.5-0.9-1.3-0.8-1.9,0c-0.2,0.3-0.4,0.7-0.5,1c-1.4,2.9-2.9,5.8-4.2,8.7c-2.2,5.1-4.1,10.3-4.6,15.8
				C28.5,180.7,29,187.4,29.3,194.3z M69.9,125.4c-0.4,1.8-0.8,3.6-1,5.4c-0.2,2-0.2,4.1-0.3,6.2c-0.4,6.3-0.8,12.7-1.1,19
				c-0.1,1.9,0,3.9,0,6.3C70.4,155.6,73.1,131.6,69.9,125.4z M242.4,161.4c1.3,0.4,2.4,0.7,3.5,1c2.1,0.8,3,2.1,2.8,4.2
				c-0.1,1-0.2,2.1-0.4,3.1c2.6,0.6,6.6-0.3,8.7-2c-2.2-3-4.8-5.6-8.2-7.4c-0.3-0.2-0.7-0.3-1.1-0.4
				C245.9,159.9,244,159.5,242.4,161.4z"/>
			<path fill="#FFFFFF" stroke="#FFFFFF" stroke-width="2.1625" stroke-miterlimit="10" d="M341,149.8c-1.8,0.3-3.3,0.7-4.7,0.8
				c-0.8,0-1.7-0.3-2.5-0.6c-0.7-0.3-1.4-0.8-1.2-1.7c0.2-0.9,1.2-1.5,2.2-1.4c1.3,0.2,2.6,0.4,3.9,0.7
				C339.8,147.8,340.4,148.6,341,149.8z"/>
		</g>
		<g>
			<path fill="#FFFFFF" stroke="#FFFFFF" stroke-width="2.1625" stroke-miterlimit="10" d="M569.7,170.3c0,0.3,0,0.4,0,0.5
				c1,0.4,1.9,0.6,2.7,1.1c0.6,0.3,1,0.9,1.4,1.4c0.2,0.2,0.1,0.6,0.1,0.9c-0.2,1.2-0.5,2.5-0.6,3.7c-0.2,1.9-0.4,3.7-0.4,5.6
				c0,1.1,0.3,2.2,0.4,3.4c0.2,1.9,0.4,3.8,0.6,5.7c0.2,1.9,0.5,3.8,0.8,5.7c0.3,1.8,0.5,3.6,0.8,5.4c0.1,0.8,0.3,1.6,0.5,2.3
				c0.3,1.5,0.6,3.1,0.9,4.6c0.5,2.2,0.9,4.4,1.5,6.6c0.5,1.7,1.1,3.4,1.7,5c0.1,0.4,0.4,0.8,0.6,1.2c1.1-0.6,1.2-1.6,1.5-2.5
				c0.4-1.1,0.9-2.2,1.2-3.4c0.4-1.8,1.4-3.4,1.4-5.4c0-1.5,0.6-3,1-4.5c0.5-1.8,0.9-3.6,1.1-5.5c0.1-0.9,0.5-1.8,0.7-2.7
				c0.2-0.9,0.3-1.8,0.4-2.7c0.4-3.3,0.7-6.6,1.1-10c0.2-1.5,0.6-2.9,0.8-4.3c0.2-1.5,0.1-3.1,0.2-4.6c0-0.6,0-1.3,0-1.9
				c0-0.7,0.4-2.4,0.6-3.1c0.4-1,1.3-1.4,2.1-1.4c1.7-0.1,3.4,0,5.1,0.1c1.5,0.1,2.1,0.8,2.2,2.4c0.1,2.1-0.2,4.2-0.6,6.2
				c-0.1,0.8-0.2,1.7-0.2,2.6c0,1.3,0.2,2.6,0.1,3.9c-0.1,2.1,0.2,4.2,0.8,6.3c0.5,1.9,1.1,3.9,1.6,5.8c0.4,1.7,0.6,3.5,1.1,5.2
				c0.5,2,1.4,4,1.8,6c0.6,3,2,5.6,3.7,8.1c0.7,1,1.2,2.1,1.8,3.1c0.5,0.9,1.1,1.6,2,2.1c1.5,0.8,3,1.5,4.5,2.2c1,0.5,1.7,0,2.2-0.8
				c1.7-2.4,3.4-4.9,5-7.4c0.5-0.7,0.7-1.6,1-2.4c0.2-0.5,0.5-1.1,0.8-1.6c0.6-1.3,1.3-2.6,1.9-4c0.5-1.2,0.8-2.5,1.2-3.8
				c0.6-2.2,1.1-4.3,1.7-6.5c0.4-1.7,0.2-3.3-0.1-5c-0.5-2.5-1.1-5-1.6-7.6c-0.5-2.4-0.9-4.9-1.3-7.3c-0.3-1.5-0.4-3-0.6-4.6
				c-0.6-3.9-1.2-7.7-1.6-11.6c-0.5-4.2-1.1-8.4-0.9-12.6c0.1-2.2,0-4.4,0.1-6.6c0-1.2,0.2-2.5,0.5-3.7c0.6-2.6,1.4-5.1,2-7.7
				c0.3-1.2,0.9-1.6,2.1-1.9c3.2-0.8,5.5,0.4,7.5,2.8c0.1,0.1,0.2,0.3,0.3,0.4c2,0.9,2.6,2.9,3.7,4.6c0.9,1.4,1,3,1.4,4.5
				c0.4,1.5,0.7,3.1,0.8,4.6c0.1,3.2-0.1,6.5-0.1,9.7c0,1.3,0,2.5-0.1,3.8c-0.1,1.4-0.2,2.8-0.3,4.2c-0.3,2.8-0.5,5.7-0.8,8.5
				c-0.3,2.4-0.7,4.7-1,7.1c-0.3,2.4-0.7,4.8-0.9,7.3c-0.2,2.5-0.5,5-1,7.4c-0.1,0.4-0.1,0.8,0,1.2c0.4,2,0.9,3.9,1.4,5.9
				c0.3,1.5,0.7,2.9,1.1,4.4c0.2,0.9,0.5,1.7,0.8,2.6c0.6,1.8,1.2,3.7,1.8,5.5c0.2,0.5,0.4,1.1,0.7,1.6c1.2,2.7,2.6,5.3,4.3,7.7
				c0.5,0.8,1.1,1.6,1.7,2.3c0.4,0.5,0.4,1-0.1,1.4c-0.6,0.5-0.6,0.9-0.2,1.4c0.4,0.5,0.2,1.1-0.5,1.3c-0.1,0-0.3,0-0.4,0.1
				c-1.2,1-2.1,0.2-3.1-0.5c-0.5-0.4-1.1-0.8-1.6-1.2c-1.2-1-2.1-2.2-2.8-3.6c-0.5-1-1.1-2.1-1.7-3.1c-0.6-1.1-1.3-2.2-1.9-3.3
				c-0.5-1-0.8-2-1.2-3c-0.2-0.5-0.6-0.9-0.8-1.4c-0.3-0.9-0.4-1.8-1-2.6c-0.1-0.2-0.1-0.5-0.1-0.7c-0.1-0.9-0.3-1.8-0.5-2.7
				c-0.1,0-0.2,0-0.3,0c-0.1,0.2-0.1,0.4-0.2,0.6c-0.3,1.2-0.9,2.4-1.6,3.4c-0.8,1.2-1.5,2.5-2.3,3.8c-0.6,1.1-1.2,2.2-1.9,3.2
				c-1,1.4-2,2.8-3.1,4.2c-0.8,1.1-1.7,2.1-2.5,3.2c-0.2,0.2-0.2,0.5-0.3,0.7c-0.3,1.3-1.1,2-2.3,2.4c-2.5,0.8-5.1,0.9-7.7,0.7
				c-3.5-0.3-6-2-7.9-4.8c-1.4-2-2.7-4-4-6.1c-0.6-1-1-2.2-1.5-3.3c-0.6-1.6-1.3-3.2-1.7-4.8c-0.7-2.7-1.9-5.2-2.1-8
				c-0.1-1.4-0.5-2.7-0.8-4c-0.1-0.3,0-0.7-0.1-1c0-0.4-0.1-0.9-0.2-1.3c-0.1,0-0.2,0-0.2,0c-0.6,2.3-1,4.6-1.7,6.9
				c-0.7,2.2-1.3,4.5-1.7,6.8c-0.4,2.3-0.9,4.6-1.3,6.9c-0.6,3.1-1.7,6.1-3.2,8.8c-0.8,1.4-1.7,2.7-3.4,3c-0.2,0.1-0.5,0.2-0.7,0.1
				c-1.2-0.3-2.4-0.4-3.4-1.2c-0.4-0.3-0.8-0.6-1.2-0.9c-1.1-0.8-1.4-2.1-1.9-3.3c-0.8-2-1.4-4-2.1-6.1c-0.6-1.8-1.2-3.6-1.6-5.4
				c-0.5-2.2-0.8-4.5-1.3-6.7c-0.2-1.2-0.5-2.3-0.7-3.4c-0.3-1.7-0.5-3.4-0.8-5c-0.1-0.6-0.3-1.1-0.3-1.7c-0.2-2.1-0.3-4.2-0.4-6.2
				c0-0.1-0.1-0.2-0.3-0.4c-0.3,1-0.6,1.9-1,2.9c-1.1,3.1-2.2,6.3-3.2,9.4c-1.4,4.1-3.3,8-5.1,12c-1.3,2.9-2.6,5.9-4.1,8.7
				c-0.7,1.4-1.8,2.6-2.7,3.9c0,0,0,0-0.1,0.1c-0.9,1.7-2.3,2.8-3.6,4.1c-1,1-2.2,1.4-3.4,2c-1.3,0.5-2.6,0.9-3.9,1.3
				c-0.7,0.2-1.5,0.2-2.2,0.1c-2.4-0.2-4.3-1.3-5.5-3.3c-0.4-0.6-0.9-1.2-1.4-1.9c-0.3,0.4-0.5,0.8-0.7,1.1c-0.3,0.7-0.6,1.3-0.9,2
				c-0.5,1.1-0.9,2.3-1.4,3.4c-0.6,1.4-1.7,2.4-3.2,2.8c-0.7,0.2-1.5,0.4-2.1,0.8c-1.5,0.9-2.8,0.4-4-0.4c-2.2-1.5-3.9-3.4-5.1-5.8
				c-0.7-1.4-1.5-2.7-2.1-4.1c-0.6-1.3-1-2.8-1.4-4.2c-0.6-2-1.2-3.9-1.5-5.9c-0.4-1.8-0.6-3.6-0.6-5.5c-0.1-2.5-0.3-5-0.5-7.5
				c-0.1-1.1-0.1-2.3,0-3.4c0.2-2.5-0.1-5.1-0.2-7.6c-0.1-1.9,0-3.7,0-5.6c0-1.2,0-2.4,0.1-3.6c0.1-2,0.3-4.1,0.5-6.1
				c0-0.3,0-0.6,0-1.1c-0.8,0.8-1.3,1.7-1.6,2.5c-1.2,3-2.3,5.9-3.4,8.9c-1.5,4-2.6,8.1-3.5,12.2c-0.4,2.1-1.2,4.1-1.8,6.2
				c-0.7,2.7-1.3,5.5-2,8.2c-0.4,1.6-1,3.2-1.5,4.8c-0.4,1.4-0.7,2.8-1.2,4.3c-0.1,0.4-0.3,0.7-0.6,1c-0.5,0.4-1,0.9-1.6,1.1
				c-0.8,0.2-1.6,0.2-2.5,0.1c-0.9,0-1.9-0.2-2.8-0.3c-0.5-0.1-0.9-0.4-1-1c-0.4-1.7-0.8-3.4-1.1-5.2c-0.3-1.3-0.4-2.7-0.6-4.1
				c0-0.1-0.1-0.2,0-0.3c0.3-1.4-0.4-2.6-0.5-3.9c-0.1-0.9-0.1-1.7-0.2-2.6c-0.2-2.6-0.4-5.1-0.6-7.7c-0.1-1.2,0-2.3-0.1-3.5
				c-0.1-2.1-0.1-4.1-0.3-6.2c-0.2-3.2-0.4-6.3-0.8-9.5c-0.3-2.7-0.8-5.4-1.2-8.1c0-0.1-0.1-0.2-0.2-0.6c-0.3,0.5-0.6,0.8-0.7,1.2
				c-1.5,3-3,6.1-4.4,9.1c-0.9,2.1-1.7,4.3-2.6,6.4c0,0.1,0,0.3-0.1,0.4c-1,1-0.9,2.4-1.4,3.7c-0.5,1.2-0.6,2.6-0.9,3.9
				c-0.5,2.2-1.1,4.3-1.6,6.5c-0.4,2.1-0.8,4.1-1,6.2c-0.3,3.2-0.4,6.3-0.5,9.5c0,1.1,0.2,2.3,0.3,3.4c0.1,1,0.1,2,0.2,3
				c0.2,2.4,0.4,4.7,0.7,7.1c0.1,0.9-0.2,1.4-1.1,1.6c-1.7,0.4-3.3,0.5-5-0.3c-0.2-0.1-0.5-0.2-0.7-0.3c-1.3-0.3-1.6-1.2-1.6-2.3
				c-0.1-2.7-0.3-5.3-0.6-8c-0.1-1.7-0.4-3.3-0.5-5c-0.3-3.3-0.7-6.5-1-9.8c-0.2-3-0.3-6.1-0.5-9.1c-0.2-4-0.5-8.1-0.6-12.1
				c-0.1-3.2,0-6.4,0-9.5c0-2.7,0.1-5.4,0.2-8c0-0.3,0-0.5,0-0.8c0.1-1.1,0-2-1-2.9c1.3-0.2,2.5-0.5,3.5,0.3c0.1,0.1,0.4,0,0.7,0
				c1.3,0.1,2.4,0.6,3.3,1.4c0.5,0.4,0.6,1,0.6,1.6c-0.1,4-0.1,8-0.1,12c0,2.3,0.1,4.6,0.2,6.8c0.1,2.5,0.3,4.9,0.5,7.4
				c0,0.6,0.2,1.3,0.5,1.9c0.5-2,1-4,1.4-6c0.5-2.2,1.1-4.4,2-6.5c0.7-1.8,1.5-3.5,2.3-5.2c0.7-1.5,1.5-2.9,2.2-4.4
				c0.3-0.7,0.6-1.5,0.9-2.3c0.2-0.3,0.5-0.6,0.7-0.9c0.2-0.3,0.5-0.5,0.2-0.9c0-0.1,0-0.2,0-0.3c0.9-0.7,0.9-1.9,1.6-2.7
				c0.4-0.4,0.7-0.8,1.4-0.9c0.5,0,1.1-0.2,1.6-0.4c1.2-0.4,2.3-0.2,3.4,0.2c0.6,0.2,1.2,0.3,1.6,0.7c0.8,0.5,1.3,1.2,1.7,2.1
				c1.2,2.7,2.4,5.4,2.7,8.4c0.3,3,0.5,6.1,0.9,9.1c0.3,2.6,0.6,5.2,1,7.8c0.4,3.1,1,6.2,1.4,9.3c0.2,1.6,0.3,3.2,0.5,5.1
				c0.5-0.6,0.6-0.9,0.3-1.2c0.2-0.6,0.3-1,0.4-1.4c0.1-0.2,0.1-0.4,0.2-0.6c0.1-0.6,0.3-1.3,0.4-1.9c0.1-0.6-0.1-1.2,0.5-1.6
				c0.1-0.1,0.1-0.2,0.2-0.4c0.3-2.2,1.2-4.3,1.5-6.5c0.1-0.9,0.5-1.8,0.8-2.7c0.3-0.9,0.6-1.8,0.8-2.7c0.5-2.3,1.4-4.5,2.4-6.6
				c0.4-0.8,0.7-1.7,0.9-2.5c0.4-1.9,1-3.8,2-5.5c0.9-1.5,1.6-3,2.6-4.4c0.6-0.9,1.5-1.7,2.3-2.5c0.2-0.2,0.4-0.3,0.6-0.3
				c0.5-0.1,1.1-0.1,1.7-0.2c1.7-0.2,3.3,0.2,4.6,1.4c0.4,0.4,1,0.7,1.5,1.1c0.2,0.2,0.5,0.5,0.6,0.7c0.8,1.9,0.7,3.8,0.4,5.8
				c-0.5,3.2-0.5,6.4-0.6,9.6c-0.1,3.9-0.1,7.9-0.1,11.8c0,2.6,0.4,5.1,0.7,7.7c0.2,1.6,0.2,3.3,0.4,4.9c0.2,1.5,0.4,3,0.8,4.4
				c0.5,2.2,1,4.4,1.7,6.6c0.4,1.2,1.1,2.3,1.7,3.5c0.3,0.5,0.5,1,0.7,1.5c0.6,1.6,1.8,2.4,3.2,3.1c0.6,0.3,1-0.1,1.2-0.6
				c0.5-1.3,1.1-2.5,1.5-3.8c0.6-1.6,1.1-3.3,1.7-4.9c0.6-1.7,1.3-3.4,1.6-5.2c0.2-1.2,0.4-2.3,0.7-3.5c0-0.1,0.1-0.3,0.1-0.4
				c1-1,0.9-2.4,1.2-3.6c0.5-2.2,0.9-4.5,1.3-6.7c0.8-4.3,2.3-8.4,3.5-12.7c0.8-2.9,2.2-5.5,3.6-8.1c1.1-2.1,2.2-4.1,3.9-5.8
				c0.9-0.9,1.8-1.9,2.7-2.8c0.7-0.7,1.4-1.4,2.1-2c0.9-0.9,2.2-1.1,3.4-1.4c1.8-0.4,3.7-0.6,5.5-0.9c1.6-0.3,3.3-0.6,4.9-0.8
				c0.9-0.1,1.9-0.1,2.9-0.1c0.8,0,1.6-0.1,2.4-0.2C568.7,170.2,569.2,170.3,569.7,170.3z M634.7,172.2c0.2-1.4,0.3-2.8,0.6-4
				c0.5-1.8,0.4-3.7,0.6-5.5c0-0.5,0.2-1.1,0.3-1.6c0.2-2.5,0.3-4.9,0.4-7.4c0-0.6,0-1.2-0.1-1.8c0-0.5-0.1-1.1-0.1-1.6
				c0.1-1.1,0.3-2.2,0.3-3.2c0-1.3-0.3-2.5-0.5-3.8c-0.3-2.2-1.2-4.1-2.3-5.9c-0.1-0.2-0.4-0.3-0.6-0.4c-0.1,0.2-0.3,0.4-0.4,0.7
				c-0.2,2.8-0.4,5.5-0.5,8.3c-0.1,1.7,0.1,3.5,0,5.2c-0.1,1.6-0.1,3.1,0.2,4.6c0.4,2.4,0.6,4.8,0.8,7.1c0.1,1.3,0.3,2.5,0.5,3.8
				c0.2,1.8,0.3,3.6,0.5,5.4C634.5,172,634.6,172,634.7,172.2z"/>
			<path fill="#FFFFFF" stroke="#FFFFFF" stroke-width="2.1625" stroke-miterlimit="10" d="M591.7,151.6c0.6-0.1,1.1-0.3,1.6-0.4
				c0.6-0.1,0.9,0.1,1.1,0.7c0.1,0.3,0.2,0.6,0.5,0.8c1.6,1.3,1.4,2.8,0.4,4.2c-0.2,0.3-0.4,0.5-0.7,0.7c-0.8,0.8-1.2,0.8-2.3,0.4
				c-0.8-0.4-1.5-0.8-1.9-1.6c-0.4-0.8-0.3-1.6-0.1-2.5c0.2-0.8,0.6-1.3,1.2-1.8C591.6,152.1,591.6,151.8,591.7,151.6z"/>
		</g>
	</g>
</g>
<g id="page_elelments">
</g>
</svg>
