<?xml version="1.0" encoding="utf-8"?>
<!-- Generator: Adobe Illustrator 18.1.1, SVG Export Plug-In . SVG Version: 6.00 Build 0)  -->
<svg version="1.1" xmlns="http://www.w3.org/2000/svg" xmlns:xlink="http://www.w3.org/1999/xlink" x="0px" y="0px"
	 viewBox="0 0 480 230" enable-background="new 0 0 480 230" xml:space="preserve">
<g id="Layer_4" display="none">
	<linearGradient id="SVGID_1_" gradientUnits="userSpaceOnUse" x1="339.7114" y1="387.6608" x2="339.7114" y2="-225.753">
		<stop  offset="0" style="stop-color:#EC008C"/>
		<stop  offset="1" style="stop-color:#00AEEF"/>
	</linearGradient>
	<polygon display="inline" opacity="0.5" fill="url(#SVGID_1_)" points="1435.7,386.2 -756.3,387.7 -756.3,-224.3 1435.7,-225.8 	
		"/>
	<polygon display="inline" opacity="0.2" fill="#12ACEF" points="1435.7,386.2 -756.3,387.7 -756.3,-222.5 1435.7,-224 	"/>
</g>
<g id="Layer_1" display="none">
	<g display="inline">
		<polygon opacity="0.4" fill="#EA0091" points="46.8,322.2 773.2,238.3 405.8,154.5 		"/>
		<polygon opacity="0.1" fill="#12ACEF" points="1114.7,-4.2 1096.4,55.6 400.3,205.7 663.8,-55 		"/>
		<polygon opacity="0.29" fill="#FFFFFF" points="1018,233.1 1157.3,159.5 1139.2,88 983.3,-81 372.6,219.4 		"/>
		<polygon opacity="0.2" fill="#FFFFFF" points="-372.1,262.8 -287,-42.9 -128,-86.8 311.7,278.8 		"/>
		<polygon opacity="0.41" fill="#12ACEF" points="399.1,100.2 973.1,-13.6 1089.7,39.3 1089.7,211.9 		"/>
		<polygon opacity="0.1" fill="#FFFFFF" points="-260.5,276.8 396.3,-14.3 955.4,267.6 		"/>
		<polygon opacity="0.14" fill="#12ACEF" points="-10.8,292.1 580.4,-42.3 950.9,233.1 		"/>
		<polygon opacity="0.33" fill="#12ACEF" points="239.7,150.3 866.4,-48.8 1024.4,182.6 		"/>
		<polygon opacity="0.4" fill="#12ACEF" points="-616.8,-4.6 -455.7,-90.7 34,146.9 -589.1,90.2 		"/>
		<polygon opacity="0.1" fill="#12ACEF" points="80.2,-29.8 -586.9,245.6 717.8,327.8 		"/>
		<polygon opacity="0.25" fill="#12ACEF" points="-583,-7.8 -530.6,101.6 331,199.1 -58.6,-20.3 		"/>
		<polygon opacity="0.25" fill="#12ACEF" points="-194.6,230.1 386.6,220.5 -260.5,-14.3 		"/>
		<polygon opacity="0.35" fill="#EA0091" points="-353.4,238.3 340.7,330.4 -139.8,32.4 		"/>
		<polygon opacity="0.26" fill="#12ACEF" points="-474.5,262.9 14.8,88.2 -586.9,46 		"/>
		<polygon opacity="0.25" fill="#EA0091" points="-656.3,318.8 -551.1,45.1 417,225.4 		"/>
		<polyline opacity="0.1" fill="#EA0091" points="-121.6,230.2 298.1,93.5 534.4,217.3 409.9,306.5 47.8,321.3 -151,269.4 
			-128.3,230.2 		"/>
		<polygon opacity="0.25" fill="#EA0091" points="1202.2,247.3 1065.5,-20.3 123.3,288.2 		"/>
		<polygon opacity="0.2" fill="#EA0091" points="-110.2,260.5 497.7,69.1 795.5,176.1 628.4,272.5 43.3,321.1 -167.7,275.6 		"/>
		<polygon opacity="0.38" fill="#EA0091" points="136.2,335.2 866.4,259.9 580.8,114.8 		"/>
		<polygon opacity="0.4" fill="#12ACEF" points="-73.9,318.6 166.2,74.4 851.6,263.3 		"/>
		<polygon opacity="0.35" fill="#12ACEF" points="-127.5,88.3 -347.1,217.4 181.3,377.5 		"/>
		<polygon opacity="0.38" fill="#EA0091" points="299.1,363.5 1016.1,318.8 577.1,174 		"/>
		<polygon opacity="0.2" fill="#12ACEF" points="1139.4,292.1 778.4,74.4 313.9,311.7 		"/>
		<polygon opacity="0.4" fill="#EA0091" points="140.4,384.8 -199.5,164.8 -271.8,222.8 -349.9,384.8 		"/>
	</g>
</g>
<g id="Layer_5" display="none">
	<g display="inline">
		<g>
			<path fill="#0071BC" d="M464.7,57.3c-2,3.2-4.3,6.3-6,9.6c-5.4,10.6-10.6,21.4-15.8,32.1c-0.8,1.7-1.9,2.4-3.5,1.5
				c-2-1.1-4-2.3-5.8-3.7c-0.5-0.4-0.5-1.5-0.5-2.3c0.2-23.2,3-46.2,6.4-69.1c0.4-2.6,0.5-5.1,0.7-7.7c6.2,0.1,8.9,3.2,8.2,8.9
				c-1.6,12.8-3.1,25.6-4.5,38.3c-0.4,3.5-0.7,7-1,10.5c0.3,0.1,0.6,0.2,1,0.4c6.1-10.8,12.1-21.7,18.4-32.9
				c7.6-0.7,11.3,2.6,11.5,9.8c0.2,7.7,1.1,15.4,1.8,23.2c0.1,0.8,0.3,1.5,0.6,3.2c1.3-1.9,2.2-3,2.8-4.3
				c7.6-15.9,15.2-31.8,22.9-47.7c0.6-1.2,1.3-3.4,1.9-3.4c1.6,0,3.4,0.7,4.9,1.6c3.7,2.3,3.8,3.2,1.5,7.1
				c-4.7,8.1-9.6,16-13.8,24.3c-4,7.9-7.2,16.2-10.7,24.3c-1.9,4.4-3.7,8.9-5.6,13.4c-1.1,2.7-2,3.1-4.7,2c-4.3-1.8-6.4-5-6.9-9.6
				c-0.6-5.9-1.2-11.9-1.8-17.8c-0.4-3.9-0.6-7.7-0.9-11.6C465.4,57.5,465,57.4,464.7,57.3z"/>
			<path fill="#0071BC" d="M254.4,57.7c2,2.7,2.4,4.9,1.4,8c-2.2,7.1-3.8,14.4-5.4,21.7c-1,4.6,0.8,6.2,5.3,4.8
				c6.8-2,12.4-5.6,14.5-13c1.2-4.2,3.2-8.2,4.1-12.4c1.3-6.4-0.9-11.7-6.3-15.6c-4.2-3-8.5-5.9-11.1-10.5c-1.7-3-2.3-6.1-1.3-9.4
				c1.2-3.6,2.2-7.3,3.6-10.9c2.8-7.2,7-9.2,14.4-6.8c3,1,5.8,2.6,8.4,4.4c6.2,4.5,7.3,10.9,6.1,18c-0.3,2-1.3,2.5-3.1,1.9
				c-3.4-1.1-4.9-3.6-5.2-7.1c-0.3-3.2-0.8-6.4-1.7-9.6c-0.7-2.5-2.1-3-4.2-1.5c-1.7,1.2-3.8,2.6-4.5,4.4c-2,5.1-3.7,10.3-4.8,15.6
				c-0.9,4.2,2.4,6.6,5.4,9c3.8,3.1,7.5,6.4,10.6,10.2c3.7,4.5,3.9,9.9,2.1,15.4c-1.4,4-2.7,7.9-4.4,11.8
				c-2.5,5.9-7.7,8.8-13.4,10.6c-8.3,2.6-15.6,0.3-21.9-5.5c-3-2.8-1.7-6.3-1.1-9.5c0.8-4.4,2.2-8.7,3.5-12.9
				C246.8,63.9,250.5,60.9,254.4,57.7z"/>
			<path fill="#0071BC" d="M354.1,28.1c-1.2,7-2.4,13.6-3.8,21.2c8.4-3.6,16.4-6.9,24.6-10.4c0.6,0.8,1.3,1.7,1.8,2.6
				c1.9,4,1.5,4.7-2.5,6.3c-6.8,2.7-13.5,6.1-20.5,8.1c-4.8,1.3-5.2,4.2-5.6,8c-1.1,9.9-2.3,19.8-3.5,29.7c-0.3,2.4-1.2,2.8-3.4,1.7
				c-3.9-1.9-4.9-4-4.2-8.7c1.6-11.6,2.9-23.1,4.7-34.7c1.1-7.1,2.6-14.1,4-21.2c0.8-4,0.7-4.7-1-7.8c12.7-3.8,25.4-7.7,38.1-11.4
				c3.9-1.1,7.5,1.4,8.3,5C378.5,20.6,366.1,24.4,354.1,28.1z"/>
			<path fill="#0071BC" d="M402.7,24.8c-5.3,1.9-9.7,1.7-12-4.3c8-2.9,16.1-5.7,24.2-8.6c3.1-1.1,6.1-2.2,9.2-3.2
				c3.2-1.1,6.7,0.5,8.1,3.5c0.8,1.7,0.7,2.7-1.4,3.3c-5.7,1.5-11.3,3.3-16.9,4.9c-1.9,0.5-2.5,1.5-2.7,3.5c-0.4,4.5-1.4,9-2.3,13.5
				c-2.5,13.2-5.4,26.3-7.5,39.5c-1.1,6.8-0.6,13.8-0.8,20.7c-0.1,2.9-0.6,3.3-3.3,2.2c-3.1-1.2-5.4-5.8-5.4-9.1
				c0.2-12,2.1-23.8,4.4-35.5c1.9-9.5,4-19,6-28.4C402.6,26.4,402.6,25.9,402.7,24.8z"/>
			<path fill="#0071BC" d="M464.7,57.3c-2,3.2-4.3,6.3-6,9.6c-5.4,10.6-10.6,21.4-15.8,32.1c-0.8,1.7-1.9,2.4-3.5,1.5
				c-2-1.1-4-2.3-5.8-3.7c-0.5-0.4-0.5-1.5-0.5-2.3c0.2-23.2,3-46.2,6.4-69.1c0.4-2.6,0.5-5.1,0.7-7.7c6.2,0.1,8.9,3.2,8.2,8.9
				c-1.6,12.8-3.1,25.6-4.5,38.3c-0.4,3.5-0.7,7-1,10.5c0.3,0.1,0.6,0.2,1,0.4c6.1-10.8,12.1-21.7,18.4-32.9
				c7.6-0.7,11.3,2.6,11.5,9.8c0.2,7.7,1.1,15.4,1.8,23.2c0.1,0.8,0.3,1.5,0.6,3.2c1.3-1.9,2.2-3,2.8-4.3
				c7.6-15.9,15.2-31.8,22.9-47.7c0.6-1.2,1.3-3.4,1.9-3.4c1.6,0,3.4,0.7,4.9,1.6c3.7,2.3,3.8,3.2,1.5,7.1
				c-4.7,8.1-9.6,16-13.8,24.3c-4,7.9-7.2,16.2-10.7,24.3c-1.9,4.4-3.7,8.9-5.6,13.4c-1.1,2.7-2,3.1-4.7,2c-4.3-1.8-6.4-5-6.9-9.6
				c-0.6-5.9-1.2-11.9-1.8-17.8c-0.4-3.9-0.6-7.7-0.9-11.6C465.4,57.5,465,57.4,464.7,57.3z"/>
			<path fill="#0071BC" d="M374.9,39c-8.2,3.5-16.2,6.8-24.6,10.4c1.4-7.6,2.5-14.3,3.8-21.2c12-3.7,24.4-7.6,36.9-11.5
				c-0.8-3.6-4.5-6.1-8.3-5c-12.7,3.7-25.4,7.6-38.1,11.4c1.7,3.1,1.8,3.8,1,7.8c-1.4,7-2.9,14.1-4,21.2
				c-1.7,11.5-3.1,23.1-4.7,34.7c-0.6,4.7,0.3,6.8,4.2,8.7c2.2,1.1,3.1,0.7,3.4-1.7c1.2-9.9,2.4-19.8,3.5-29.7
				c0.4-3.8,0.9-6.6,5.6-8c7-2,13.7-5.4,20.5-8.1c4-1.6,4.4-2.3,2.5-6.3C376.2,40.7,375.5,39.8,374.9,39z"/>
			<path fill="#0071BC" d="M281.9,18c-2.5-1.8-5.4-3.4-8.4-4.4c-7.3-2.4-11.5-0.3-14.4,6.8c-1.4,3.5-2.4,7.2-3.6,10.9
				c-1.1,3.3-0.4,6.4,1.3,9.4c2.6,4.6,6.9,7.5,11.1,10.5c5.4,3.9,7.6,9.2,6.3,15.6c-0.9,4.2-2.8,8.3-4.1,12.4
				c-2.2,7.4-7.7,10.9-14.5,13c-4.5,1.3-6.3-0.3-5.3-4.8c1.6-7.3,3.2-14.5,5.4-21.7c0.9-3.1,0.5-5.3-1.4-8c-4,3.2-7.6,6.2-9.1,11
				c-1.3,4.3-2.7,8.6-3.5,12.9c-0.6,3.2-1.9,6.7,1.1,9.5c6.3,5.8,13.6,8.1,21.9,5.5c5.7-1.8,10.9-4.7,13.4-10.6
				c1.7-3.8,3-7.8,4.4-11.8c1.9-5.5,1.7-10.9-2.1-15.4c-3.1-3.7-6.8-7.1-10.6-10.2c-3-2.5-6.3-4.8-5.4-9c1.1-5.3,2.8-10.6,4.8-15.6
				c0.7-1.8,2.8-3.2,4.5-4.4c2.1-1.5,3.5-1,4.2,1.5c0.8,3.1,1.4,6.4,1.7,9.6c0.3,3.5,1.9,6,5.2,7.1c1.8,0.6,2.8,0.1,3.1-1.9
				C289.2,28.9,288.1,22.5,281.9,18z"/>
			<path fill="#0071BC" d="M424.2,8.7c-3.1,1.1-6.1,2.1-9.2,3.2c-8.1,2.9-16.2,5.7-24.2,8.6c2.3,5.9,6.6,6.2,12,4.3
				c-0.1,1.1-0.1,1.6-0.2,2c-2,9.5-4.1,18.9-6,28.4c-2.3,11.7-4.2,23.5-4.4,35.5c-0.1,3.3,2.3,7.9,5.4,9.1c2.7,1.1,3.2,0.7,3.3-2.2
				c0.2-6.9-0.3-13.9,0.8-20.7c2.1-13.3,5-26.4,7.5-39.5c0.9-4.5,1.8-9,2.3-13.5c0.2-2,0.8-3,2.7-3.5c5.7-1.6,11.3-3.3,16.9-4.9
				c2.1-0.6,2.2-1.6,1.4-3.3C430.8,9.2,427.3,7.6,424.2,8.7z"/>
			<path fill="#0071BC" d="M508.5,25.5c-1.4-0.9-3.2-1.6-4.9-1.6c-0.6,0-1.3,2.1-1.9,3.4c-7.6,15.9-15.2,31.8-22.9,47.7
				c-0.6,1.3-1.6,2.4-2.8,4.3c-0.3-1.6-0.6-2.4-0.6-3.2c-0.6-7.7-1.6-15.4-1.8-23.2c-0.2-7.2-3.9-10.5-11.5-9.8
				C456,54.3,449.9,65.1,443.8,76c-0.3-0.1-0.6-0.2-1-0.4c0.3-3.5,0.6-7,1-10.5c1.5-12.8,3-25.6,4.5-38.3c0.7-5.7-2-8.8-8.2-8.9
				c-0.2,2.6-0.3,5.2-0.7,7.7c-3.4,22.9-6.1,45.9-6.4,69.1c0,0.8,0,1.9,0.5,2.3c1.8,1.4,3.8,2.6,5.8,3.7c1.6,0.8,2.7,0.2,3.5-1.5
				c5.2-10.8,10.4-21.5,15.8-32.1c1.7-3.4,4-6.4,6-9.6c0.3,0.1,0.7,0.2,1,0.3c0.3,3.9,0.5,7.8,0.9,11.6c0.5,5.9,1.2,11.9,1.8,17.8
				c0.4,4.5,2.6,7.8,6.9,9.6c2.7,1.1,3.6,0.7,4.7-2c1.8-4.5,3.7-9,5.6-13.4c3.5-8.1,6.8-16.4,10.7-24.3c4.2-8.3,9.1-16.2,13.8-24.3
				C512.3,28.7,512.2,27.8,508.5,25.5z"/>
			<path fill="#0071BC" d="M332.3,46.9c0.3,17.2-5.4,32.8-14,47.4c-4.8,8.2-11.9,7.2-19.1,1.8c-6.3-4.7-8.6-11.5-8-19
				c1-12.9,3.4-25.5,7.9-37.7c2.3-6.2,5.5-12,8.6-17.8c0.4-0.8,2.4-1.5,3.2-1.2c1.9,0.8,3.5,2.3,5.1,3.5c0.7,0.6,1.3,1.3,1.9,2
				c3.9,4,7.9,7.9,11.8,11.9C332.1,40.4,332.9,43.5,332.3,46.9z M315,28.4c-4.1,6-6.6,12.6-8.3,19.3c-2.6,10.2-4.5,20.6-6.2,30.9
				c-0.8,4.6-0.6,9.3,1.6,13.7c1.3,2.5,2.4,3,4.1,0.7c3.3-4.4,6.8-8.9,9.2-13.9c4.9-10.1,7.3-20.8,8.2-32
				C324.3,39.2,321.8,33.1,315,28.4z"/>
			<path fill="#0071BC" d="M354.1,28.1c-1.2,7-2.4,13.6-3.8,21.2c8.4-3.6,16.4-6.9,24.6-10.4c0.6,0.8,1.3,1.7,1.8,2.6
				c1.9,4,1.5,4.7-2.5,6.3c-6.8,2.7-13.5,6.1-20.5,8.1c-4.8,1.3-5.2,4.2-5.6,8c-1.1,9.9-2.3,19.8-3.5,29.7c-0.3,2.4-1.2,2.8-3.4,1.7
				c-3.9-1.9-4.9-4-4.2-8.7c1.6-11.6,2.9-23.1,4.7-34.7c1.1-7.1,2.6-14.1,4-21.2c0.8-4,0.7-4.7-1-7.8c12.7-3.8,25.4-7.7,38.1-11.4
				c3.9-1.1,7.5,1.4,8.3,5C378.5,20.6,366.1,24.4,354.1,28.1z"/>
			<path fill="#0071BC" d="M402.7,24.8c-5.3,1.9-9.7,1.7-12-4.3c8-2.9,16.1-5.7,24.2-8.6c3.1-1.1,6.1-2.2,9.2-3.2
				c3.2-1.1,6.7,0.5,8.1,3.5c0.8,1.7,0.7,2.7-1.4,3.3c-5.7,1.5-11.3,3.3-16.9,4.9c-1.9,0.5-2.5,1.5-2.7,3.5c-0.4,4.5-1.4,9-2.3,13.5
				c-2.5,13.2-5.4,26.3-7.5,39.5c-1.1,6.8-0.6,13.8-0.8,20.7c-0.1,2.9-0.6,3.3-3.3,2.2c-3.1-1.2-5.4-5.8-5.4-9.1
				c0.2-12,2.1-23.8,4.4-35.5c1.9-9.5,4-19,6-28.4C402.6,26.4,402.6,25.9,402.7,24.8z"/>
		</g>
		<g>
			<path fill="#0071BC" d="M196.7,143.7c-1.1,3.5-1.8,6.9-3.2,10.2c-2.9,7-6.1,13.9-9.1,20.8c-1.7,3.8-3.3,7.6-5.1,11.4
				c-0.4,0.8-1.2,1.3-1.8,2c-0.5-0.6-1.2-1.1-1.4-1.8c-0.5-1.3-0.9-2.7-1.2-4.1c-1.6-7.3-2.9-14.7-4.7-21.9c-0.9-3.7-2.8-4.6-7-4.3
				c-0.3,0.9-0.6,1.9-0.9,2.8c-3.7-0.1-4.1,0.1-4.3,3.6c-0.3,3.2-0.3,6.4-0.5,9.7c-0.6,9.1-1.3,18.2-2,27.2
				c-0.6,7.2-1,14.4-2.1,21.5c-0.3,2.2-0.2,3.7,1.6,4.8c1.5,0.9,3.2,1.6,4.8,2.4c0.4-1.8,1.1-3.7,1.2-5.5c0.1-4.7-0.5-9.5,0-14.2
				c1.2-10.7,2.8-21.4,4.3-32.1c0.2-1.2,0.7-2.3,1-3.4c0.3,0,0.5,0,0.8,0c0.5,2.1,1.1,4.1,1.5,6.2c1,5.5,2.3,10.7,6.7,14.7
				c4.6,4.3,6.8,4,9.2-2c2.2-5.5,4.2-11,6.4-16.4c1-2.6,2.4-5,3.5-7.5c0.2,0.1,0.5,0.1,0.7,0.2c0,0.5,0.1,1,0,1.5
				c-0.6,5-1.4,9.9-1.9,14.9c-0.9,9.3-1.7,18.7-2.3,28c-0.2,3.8,0.5,7.6,0,11.3c-0.4,2.5,0.1,4.1,2,5.3c1,0.7,2.3,0.9,3.4,1.4
				c0.4-1.3,1.1-2.7,1-4c-0.1-3-0.6-6-0.7-9c-0.4-12.3,1.4-24.4,3.1-36.5c1.4-9.8,2.8-19.5,3.9-29.3
				C204.3,146,202.3,144,196.7,143.7z"/>
			<path fill="#0071BC" d="M134.6,190.7c0.3,0,0.6,0.1,0.9,0.1c0,0.9,0,1.8,0,2.7c-0.1,9.3-0.1,18.6-0.4,27.9
				c-0.1,3,1.2,4.9,3.3,6.4c0.9,0.6,2.7,1.3,3.2,0.8c0.8-0.6,1.2-2.2,1.2-3.4c-0.2-7.3-0.9-14.5-0.7-21.8
				c0.3-12.6,1.2-25.2,1.9-37.8c0.2-3,0.6-6.1,0.5-9.1c0-3.7-2.7-6-6.3-5.8c-0.5,0-1.2,0.6-1.3,1.1c-1.2,6.1-2.3,12.2-3.5,18.4
				c-0.8,4-1.3,8.1-2.6,11.9c-2.7,7.7-5.7,15.2-8.8,22.7c-1.3,3.1-3.1,6-4.7,8.9c-0.2,0-0.5,0-0.7,0c-0.2-1.2-0.7-2.5-0.7-3.7
				c0.7-11.3,1.3-22.7,2.4-34c0.6-6,2.2-11.9,3.4-17.9c0.5-2.7-0.6-4.1-3.5-4.8c-2.5-0.6-3,1-3.3,2.8c-1.4,7.6-3.1,15.2-4,22.9
				c-1,8.7-1.5,17.4-1.8,26.2c-0.2,4.9,0,9.8,0.4,14.7c0.3,3.6,2.9,5.6,6,7c1.7,0.8,3.2,0.5,4.1-1.4c1.3-2.8,2.7-5.6,4-8.4
				c2.6-6,5.1-12,7.7-18C132.3,196.3,133.5,193.5,134.6,190.7z"/>
			<path fill="#0071BC" d="M64.3,203.5c0-1.5-0.1-2.1,0-2.6c1.6-8.5,3.1-16.9,4.7-25.4c1.4-7.3,3-14.7,4.2-22
				c0.8-4.6-0.5-6.1-5.1-6.7c-0.2,0.6-0.6,1.2-0.7,1.8c-1.7,8.8-3.5,17.6-5.1,26.5c-1.6,8.8-3.1,17.5-4.9,26.3
				c-0.3,1.7-1.6,3.2-2.4,4.9c-0.3,0.6-0.4,1.4-0.2,2c1.6,4,0.4,7.8-0.7,11.5c-1.2,3.6-0.8,6.5,2.3,8.7c0.9,0.6,2.4,1.2,3.2,0.8
				c0.8-0.3,1.4-1.9,1.5-2.9c0.5-4.6,0.9-9.2,1.2-13.9c0.1-2,1.1-3,3-3.7c4.1-1.5,8.1-3.2,12.2-4.8c1.9-0.8,3.8-1.5,6.2-2.5
				c0,1.5,0,2.4,0,3.3c-0.2,6.5-0.4,13.1-0.7,19.6c-0.2,4.5,1,9-0.7,13.5c-0.2,0.5,0.1,1.7,0.6,2c1.9,1.2,4.2,3.3,5.9,2.9
				c2.9-0.6,1.2-3.6,1.2-5.6c0.1-11.8,0.3-23.7,0.1-35.5c-0.1-3.5,1.7-4.8,4.5-5.8c3.2-1.2,3.3-2.1,0.6-4.2c-0.5-0.4-1-0.9-1.6-1.1
				c-1.8-0.8-2.5-2.1-2.2-4.1c0.4-3,0.5-6.1,1-9c1.4-8.8,3-17.6,4.4-26.4c0.2-0.9,0.3-1.9,0.1-2.8c-0.3-2.5-2.6-2.8-4.4-3.4
				c-0.2-0.1-1.5,1.9-1.7,3c-0.6,3.3-0.8,6.7-1.3,10.1c-1.7,11.3-3.4,22.7-5.3,34c-0.1,0.9-0.8,2.1-1.6,2.5
				C77,197.3,71,200.2,64.3,203.5z"/>
			<path fill="#0071BC" d="M196.7,143.7c5.7,0.3,7.6,2.3,7,7.8c-1.1,9.8-2.5,19.6-3.9,29.3c-1.7,12.1-3.5,24.2-3.1,36.5
				c0.1,3,0.7,6,0.7,9c0,1.3-0.7,2.7-1,4c-1.1-0.5-2.4-0.7-3.4-1.4c-1.9-1.2-2.3-2.8-2-5.3c0.5-3.7-0.2-7.6,0-11.3
				c0.6-9.4,1.4-18.7,2.3-28c0.5-5,1.3-9.9,1.9-14.9c0.1-0.5,0-1,0-1.5c-0.2-0.1-0.5-0.1-0.7-0.2c-1.2,2.5-2.5,4.9-3.5,7.5
				c-2.2,5.4-4.2,11-6.4,16.4c-2.3,5.9-4.5,6.3-9.2,2c-4.3-4-5.7-9.2-6.7-14.7c-0.4-2.1-1-4.1-1.5-6.2c-0.3,0-0.5,0-0.8,0
				c-0.4,1.1-0.9,2.2-1,3.4c-1.5,10.7-3.1,21.4-4.3,32.1c-0.5,4.7,0.1,9.5,0,14.2c-0.1,1.9-0.8,3.7-1.2,5.5
				c-1.6-0.8-3.3-1.4-4.8-2.4c-1.8-1.1-1.9-2.6-1.6-4.8c1-7.1,1.5-14.3,2.1-21.5c0.7-9.1,1.4-18.1,2-27.2c0.2-3.2,0.3-6.4,0.5-9.7
				c0.3-3.5,0.7-3.7,4.3-3.6c0.3-0.9,0.6-1.9,0.9-2.8c4.2-0.3,6.1,0.6,7,4.3c1.7,7.3,3.1,14.6,4.7,21.9c0.3,1.4,0.7,2.8,1.2,4.1
				c0.3,0.7,1,1.2,1.4,1.8c0.6-0.7,1.5-1.2,1.8-2c1.8-3.8,3.4-7.6,5.1-11.4c3.1-6.9,6.2-13.8,9.1-20.8
				C194.8,150.6,195.6,147.2,196.7,143.7z"/>
			<path fill="#0071BC" d="M134.6,190.7c-1.2,2.8-2.3,5.6-3.5,8.3c-2.5,6-5.1,12-7.7,18c-1.2,2.8-2.6,5.6-4,8.4
				c-0.9,1.8-2.4,2.1-4.1,1.4c-3-1.4-5.7-3.3-6-7c-0.3-4.9-0.6-9.8-0.4-14.7c0.4-8.7,0.8-17.5,1.8-26.2c0.9-7.7,2.6-15.3,4-22.9
				c0.3-1.8,0.8-3.4,3.3-2.8c2.9,0.7,4,2.1,3.5,4.8c-1.1,6-2.8,11.9-3.4,17.9c-1.1,11.3-1.7,22.7-2.4,34c-0.1,1.2,0.4,2.5,0.7,3.7
				c0.2,0,0.5,0,0.7,0c1.6-3,3.5-5.8,4.7-8.9c3.1-7.5,6.1-15.1,8.8-22.7c1.3-3.8,1.8-7.9,2.6-11.9c1.2-6.1,2.3-12.2,3.5-18.4
				c0.1-0.4,0.8-1.1,1.3-1.1c3.6-0.2,6.3,2.1,6.3,5.8c0,3-0.4,6.1-0.5,9.1c-0.7,12.6-1.6,25.2-1.9,37.8c-0.2,7.3,0.6,14.5,0.7,21.8
				c0,1.2-0.4,2.8-1.2,3.4c-0.6,0.4-2.3-0.2-3.2-0.8c-2.1-1.5-3.4-3.4-3.3-6.4c0.3-9.3,0.3-18.6,0.4-27.9c0-0.9,0-1.8,0-2.7
				C135.2,190.8,134.9,190.8,134.6,190.7z"/>
			<path fill="#0071BC" d="M64.3,203.5c6.6-3.3,12.6-6.2,18.6-9.3c0.8-0.4,1.4-1.6,1.6-2.5c1.8-11.3,3.6-22.6,5.3-34
				c0.5-3.3,0.7-6.7,1.3-10.1c0.2-1.1,1.5-3,1.7-3c1.8,0.7,4.1,1,4.4,3.4c0.1,0.9,0,1.9-0.1,2.8c-1.5,8.8-3,17.6-4.4,26.4
				c-0.5,3-0.6,6-1,9c-0.3,2,0.4,3.3,2.2,4.1c0.6,0.3,1.1,0.7,1.6,1.1c2.7,2.1,2.6,3-0.6,4.2c-2.8,1-4.5,2.3-4.5,5.8
				c0.2,11.8,0,23.7-0.1,35.5c0,2,1.7,5.1-1.2,5.6c-1.7,0.3-4-1.8-5.9-2.9c-0.5-0.3-0.8-1.5-0.6-2c1.7-4.4,0.5-9,0.7-13.5
				c0.3-6.5,0.4-13.1,0.7-19.6c0-0.9,0-1.8,0-3.3c-2.4,1-4.3,1.7-6.2,2.5c-4,1.6-8.1,3.3-12.2,4.8c-1.9,0.7-2.8,1.7-3,3.7
				c-0.3,4.6-0.7,9.3-1.2,13.9c-0.1,1.1-0.7,2.6-1.5,2.9c-0.8,0.4-2.4-0.2-3.2-0.8c-3.1-2.2-3.4-5.1-2.3-8.7
				c1.2-3.7,2.3-7.5,0.7-11.5c-0.2-0.6-0.1-1.4,0.2-2c0.7-1.7,2-3.2,2.4-4.9c1.8-8.7,3.2-17.5,4.9-26.3c1.7-8.8,3.4-17.7,5.1-26.5
				c0.1-0.6,0.5-1.2,0.7-1.8c4.6,0.7,5.9,2.1,5.1,6.7c-1.2,7.4-2.8,14.7-4.2,22c-1.6,8.5-3.2,16.9-4.7,25.4
				C64.2,201.4,64.3,202,64.3,203.5z"/>
			<path fill="#0071BC" d="M196.7,143.7c-1.1,3.5-1.8,6.9-3.2,10.2c-2.9,7-6.1,13.9-9.1,20.8c-1.7,3.8-3.3,7.6-5.1,11.4
				c-0.4,0.8-1.2,1.3-1.8,2c-0.5-0.6-1.2-1.1-1.4-1.8c-0.5-1.3-0.9-2.7-1.2-4.1c-1.6-7.3-2.9-14.7-4.7-21.9c-0.9-3.7-2.8-4.6-7-4.3
				c-0.3,0.9-0.6,1.9-0.9,2.8c-3.7-0.1-4.1,0.1-4.3,3.6c-0.3,3.2-0.3,6.4-0.5,9.7c-0.6,9.1-1.3,18.2-2,27.2
				c-0.6,7.2-1,14.4-2.1,21.5c-0.3,2.2-0.2,3.7,1.6,4.8c1.5,0.9,3.2,1.6,4.8,2.4c0.4-1.8,1.1-3.7,1.2-5.5c0.1-4.7-0.5-9.5,0-14.2
				c1.2-10.7,2.8-21.4,4.3-32.1c0.2-1.2,0.7-2.3,1-3.4c0.3,0,0.5,0,0.8,0c0.5,2.1,1.1,4.1,1.5,6.2c1,5.5,2.3,10.7,6.7,14.7
				c4.6,4.3,6.8,4,9.2-2c2.2-5.5,4.2-11,6.4-16.4c1-2.6,2.4-5,3.5-7.5c0.2,0.1,0.5,0.1,0.7,0.2c0,0.5,0.1,1,0,1.5
				c-0.6,5-1.4,9.9-1.9,14.9c-0.9,9.3-1.7,18.7-2.3,28c-0.2,3.8,0.5,7.6,0,11.3c-0.4,2.5,0.1,4.1,2,5.3c1,0.7,2.3,0.9,3.4,1.4
				c0.4-1.3,1.1-2.7,1-4c-0.1-3-0.6-6-0.7-9c-0.4-12.3,1.4-24.4,3.1-36.5c1.4-9.8,2.8-19.5,3.9-29.3
				C204.3,146,202.3,144,196.7,143.7z"/>
			<path fill="#0071BC" d="M134.6,190.7c0.3,0,0.6,0.1,0.9,0.1c0,0.9,0,1.8,0,2.7c-0.1,9.3-0.1,18.6-0.4,27.9
				c-0.1,3,1.2,4.9,3.3,6.4c0.9,0.6,2.7,1.3,3.2,0.8c0.8-0.6,1.2-2.2,1.2-3.4c-0.2-7.3-0.9-14.5-0.7-21.8
				c0.3-12.6,1.2-25.2,1.9-37.8c0.2-3,0.6-6.1,0.5-9.1c0-3.7-2.7-6-6.3-5.8c-0.5,0-1.2,0.6-1.3,1.1c-1.2,6.1-2.3,12.2-3.5,18.4
				c-0.8,4-1.3,8.1-2.6,11.9c-2.7,7.7-5.7,15.2-8.8,22.7c-1.3,3.1-3.1,6-4.7,8.9c-0.2,0-0.5,0-0.7,0c-0.2-1.2-0.7-2.5-0.7-3.7
				c0.7-11.3,1.3-22.7,2.4-34c0.6-6,2.2-11.9,3.4-17.9c0.5-2.7-0.6-4.1-3.5-4.8c-2.5-0.6-3,1-3.3,2.8c-1.4,7.6-3.1,15.2-4,22.9
				c-1,8.7-1.5,17.4-1.8,26.2c-0.2,4.9,0,9.8,0.4,14.7c0.3,3.6,2.9,5.6,6,7c1.7,0.8,3.2,0.5,4.1-1.4c1.3-2.8,2.7-5.6,4-8.4
				c2.6-6,5.1-12,7.7-18C132.3,196.3,133.5,193.5,134.6,190.7z"/>
			<path fill="#0071BC" d="M64.3,203.5c0-1.5-0.1-2.1,0-2.6c1.6-8.5,3.1-16.9,4.7-25.4c1.4-7.3,3-14.7,4.2-22
				c0.8-4.6-0.5-6.1-5.1-6.7c-0.2,0.6-0.6,1.2-0.7,1.8c-1.7,8.8-3.5,17.6-5.1,26.5c-1.6,8.8-3.1,17.5-4.9,26.3
				c-0.3,1.7-1.6,3.2-2.4,4.9c-0.3,0.6-0.4,1.4-0.2,2c1.6,4,0.4,7.8-0.7,11.5c-1.2,3.6-0.8,6.5,2.3,8.7c0.9,0.6,2.4,1.2,3.2,0.8
				c0.8-0.3,1.4-1.9,1.5-2.9c0.5-4.6,0.9-9.2,1.2-13.9c0.1-2,1.1-3,3-3.7c4.1-1.5,8.1-3.2,12.2-4.8c1.9-0.8,3.8-1.5,6.2-2.5
				c0,1.5,0,2.4,0,3.3c-0.2,6.5-0.4,13.1-0.7,19.6c-0.2,4.5,1,9-0.7,13.5c-0.2,0.5,0.1,1.7,0.6,2c1.9,1.2,4.2,3.3,5.9,2.9
				c2.9-0.6,1.2-3.6,1.2-5.6c0.1-11.8,0.3-23.7,0.1-35.5c-0.1-3.5,1.7-4.8,4.5-5.8c3.2-1.2,3.3-2.1,0.6-4.2c-0.5-0.4-1-0.9-1.6-1.1
				c-1.8-0.8-2.5-2.1-2.2-4.1c0.4-3,0.5-6.1,1-9c1.4-8.8,3-17.6,4.4-26.4c0.2-0.9,0.3-1.9,0.1-2.8c-0.3-2.5-2.6-2.8-4.4-3.4
				c-0.2-0.1-1.5,1.9-1.7,3c-0.6,3.3-0.8,6.7-1.3,10.1c-1.7,11.3-3.4,22.7-5.3,34c-0.1,0.9-0.8,2.1-1.6,2.5
				C77,197.3,71,200.2,64.3,203.5z"/>
			<path fill="#0071BC" d="M196.7,143.7c5.7,0.3,7.6,2.3,7,7.8c-1.1,9.8-2.5,19.6-3.9,29.3c-1.7,12.1-3.5,24.2-3.1,36.5
				c0.1,3,0.7,6,0.7,9c0,1.3-0.7,2.7-1,4c-1.1-0.5-2.4-0.7-3.4-1.4c-1.9-1.2-2.3-2.8-2-5.3c0.5-3.7-0.2-7.6,0-11.3
				c0.6-9.4,1.4-18.7,2.3-28c0.5-5,1.3-9.9,1.9-14.9c0.1-0.5,0-1,0-1.5c-0.2-0.1-0.5-0.1-0.7-0.2c-1.2,2.5-2.5,4.9-3.5,7.5
				c-2.2,5.4-4.2,11-6.4,16.4c-2.3,5.9-4.5,6.3-9.2,2c-4.3-4-5.7-9.2-6.7-14.7c-0.4-2.1-1-4.1-1.5-6.2c-0.3,0-0.5,0-0.8,0
				c-0.4,1.1-0.9,2.2-1,3.4c-1.5,10.7-3.1,21.4-4.3,32.1c-0.5,4.7,0.1,9.5,0,14.2c-0.1,1.9-0.8,3.7-1.2,5.5
				c-1.6-0.8-3.3-1.4-4.8-2.4c-1.8-1.1-1.9-2.6-1.6-4.8c1-7.1,1.5-14.3,2.1-21.5c0.7-9.1,1.4-18.1,2-27.2c0.2-3.2,0.3-6.4,0.5-9.7
				c0.3-3.5,0.7-3.7,4.3-3.6c0.3-0.9,0.6-1.9,0.9-2.8c4.2-0.3,6.1,0.6,7,4.3c1.7,7.3,3.1,14.6,4.7,21.9c0.3,1.4,0.7,2.8,1.2,4.1
				c0.3,0.7,1,1.2,1.4,1.8c0.6-0.7,1.5-1.2,1.8-2c1.8-3.8,3.4-7.6,5.1-11.4c3.1-6.9,6.2-13.8,9.1-20.8
				C194.8,150.6,195.6,147.2,196.7,143.7z"/>
			<path fill="#0071BC" d="M134.6,190.7c-1.2,2.8-2.3,5.6-3.5,8.3c-2.5,6-5.1,12-7.7,18c-1.2,2.8-2.6,5.6-4,8.4
				c-0.9,1.8-2.4,2.1-4.1,1.4c-3-1.4-5.7-3.3-6-7c-0.3-4.9-0.6-9.8-0.4-14.7c0.4-8.7,0.8-17.5,1.8-26.2c0.9-7.7,2.6-15.3,4-22.9
				c0.3-1.8,0.8-3.4,3.3-2.8c2.9,0.7,4,2.1,3.5,4.8c-1.1,6-2.8,11.9-3.4,17.9c-1.1,11.3-1.7,22.7-2.4,34c-0.1,1.2,0.4,2.5,0.7,3.7
				c0.2,0,0.5,0,0.7,0c1.6-3,3.5-5.8,4.7-8.9c3.1-7.5,6.1-15.1,8.8-22.7c1.3-3.8,1.8-7.9,2.6-11.9c1.2-6.1,2.3-12.2,3.5-18.4
				c0.1-0.4,0.8-1.1,1.3-1.1c3.6-0.2,6.3,2.1,6.3,5.8c0,3-0.4,6.1-0.5,9.1c-0.7,12.6-1.6,25.2-1.9,37.8c-0.2,7.3,0.6,14.5,0.7,21.8
				c0,1.2-0.4,2.8-1.2,3.4c-0.6,0.4-2.3-0.2-3.2-0.8c-2.1-1.5-3.4-3.4-3.3-6.4c0.3-9.3,0.3-18.6,0.4-27.9c0-0.9,0-1.8,0-2.7
				C135.2,190.8,134.9,190.8,134.6,190.7z"/>
			<path fill="#0071BC" d="M64.3,203.5c6.6-3.3,12.6-6.2,18.6-9.3c0.8-0.4,1.4-1.6,1.6-2.5c1.8-11.3,3.6-22.6,5.3-34
				c0.5-3.3,0.7-6.7,1.3-10.1c0.2-1.1,1.5-3,1.7-3c1.8,0.7,4.1,1,4.4,3.4c0.1,0.9,0,1.9-0.1,2.8c-1.5,8.8-3,17.6-4.4,26.4
				c-0.5,3-0.6,6-1,9c-0.3,2,0.4,3.3,2.2,4.1c0.6,0.3,1.1,0.7,1.6,1.1c2.7,2.1,2.6,3-0.6,4.2c-2.8,1-4.5,2.3-4.5,5.8
				c0.2,11.8,0,23.7-0.1,35.5c0,2,1.7,5.1-1.2,5.6c-1.7,0.3-4-1.8-5.9-2.9c-0.5-0.3-0.8-1.5-0.6-2c1.7-4.4,0.5-9,0.7-13.5
				c0.3-6.5,0.4-13.1,0.7-19.6c0-0.9,0-1.8,0-3.3c-2.4,1-4.3,1.7-6.2,2.5c-4,1.6-8.1,3.3-12.2,4.8c-1.9,0.7-2.8,1.7-3,3.7
				c-0.3,4.6-0.7,9.3-1.2,13.9c-0.1,1.1-0.7,2.6-1.5,2.9c-0.8,0.4-2.4-0.2-3.2-0.8c-3.1-2.2-3.4-5.1-2.3-8.7
				c1.2-3.7,2.3-7.5,0.7-11.5c-0.2-0.6-0.1-1.4,0.2-2c0.7-1.7,2-3.2,2.4-4.9c1.8-8.7,3.2-17.5,4.9-26.3c1.7-8.8,3.4-17.7,5.1-26.5
				c0.1-0.6,0.5-1.2,0.7-1.8c4.6,0.7,5.9,2.1,5.1,6.7c-1.2,7.4-2.8,14.7-4.2,22c-1.6,8.5-3.2,16.9-4.7,25.4
				C64.2,201.4,64.3,202,64.3,203.5z"/>
			<path fill="#0071BC" d="M298.6,136.4c0,1.2,0.2,2.5,0,3.6c-2,10.4-5.9,20.8-8,31.2c-0.7,3.6-1.2,7.3-2.1,10.8
				c-1.6,6.8-3.5,13.6-5.1,20.4c-1,4.1,0.5,8.4-2.9,12.1c-1.3-2.9-2.6-5.5-3.6-8.2c-6.7-18.6-10.9-37.8-14.3-57.3
				c-0.6-3.2-1.4-6.1-5.1-7.1c-1.5-0.4-2.5-0.1-2.5,1.6c0.1,6.8-0.4,13.6-0.4,20.4c0,4.3,0,8.5,0,12.8c0,0-0.1-0.1-0.4-0.1
				c-1.3,0.6-2.7,0.8-3.6,1.8c-3,3.1-5.4,6.6-8.4,9.7c-2.5,2.5-3.4,2-4.1-1.5c-1-5.4-2.1-10.8-2.9-16.2c-1.1-6.5-1.8-13-2.9-19.4
				c-0.5-2.8-2.8-4.5-5.3-4.1c-1.4,0.2-2.7,0.5-4.2,0.8c-0.1,0.7-0.1,1.6-0.3,2.4c-3.3,14.2-7,28.4-9.9,42.8
				c-2.1,10.5-3.3,21.2-4.9,31.8c-0.4,3,3.5,5.8,6.3,4.5c0.2-3.7,0.4-7.4,0.7-11.1c0.1-0.8,0.6-1.8,1.2-2.3c4-2.6,8.2-5,12.1-7.7
				c2.7-1.8,5.1-4,7.6-6.1c0.4,0.4,0.6,0.6,0.7,0.7c2.1,7.4,4.2,14.7,6.3,22.1c0.1,0.3,0.2,0.6,0.1,0.8c-1.5,3.4,1.2,4.6,3.2,5.9
				c0.9,0.6,2.3,0.3,3.4,0.5c0.1-1,0.2-2,0.1-2.9c-0.1-1.1-0.5-2.2-0.8-3.3c-2.4-8.9-4.9-17.7-7.2-26.6c-0.2-0.9-0.3-2.4,0.2-2.9
				c3.1-2.9,6.4-5.6,9.8-8.5c0.4,1.2,0.7,1.8,0.7,2.4c0.8,9.7,1.7,19.5,2.4,29.2c0.1,1.9,0.1,3.8-0.4,5.6c-0.6,2.5,2.1,6.2,4.6,6.1
				c0.6,0,1.6-0.4,1.7-0.8c0.5-1.8,1-3.6,1-5.4c-0.3-7.1-1-14.2-1-21.3c-0.1-7.4,0.4-14.8,0.6-22.2c0.1-2,0-4,0-6c0.3,0,0.6,0,0.9,0
				c0.2,0.4,0.5,0.8,0.6,1.2c1.3,5,2.1,10,3.8,14.9c3.9,11.2,8,22.3,12.3,33.3c0.7,1.8,2.6,3.5,4.4,4.6c2,1.3,3.3,0,3.2-2.3
				c-0.1-1.9-0.2-3.8,0.1-5.7c2.4-17.6,5.1-35.1,10.1-52.1c2.6-8.7,4.5-17.6,6.9-26.3C304.6,138.9,303.4,136.8,298.6,136.4z"/>
		</g>
		<path fill="#0071BC" d="M200.9,72.5c-0.7-2.4-1.4-4.8-2.2-7.3c-0.3,0.1-0.7,0.1-0.9,0.3c-1,1.1-2,2.2-2.8,3.4
			c-0.7,1.1-0.9,2.5-1.6,3.6c-2.4,3.7-6,5.4-10.2,6c-3.1,0.5-6.1-0.1-8.4-2.4c-0.7-0.7-0.9-1.2-0.2-2.1c3.4-4.7,6.2-9.9,8.6-15.2
			c1.2-2.6,2.5-5.2,3.6-7.9c1-2.5,1.7-5,2.5-7.5c0.2-0.6,0.4-1.2,0.5-1.7c0.1-2.9,0-4.6-2.1-5.8c-1.8-1-4.6,0-4.8,1.2
			c-1.3,1-2.5,1.6-3.3,2.6c-4.4,6-8.4,12.2-10.3,19.5c-1,4-2.1,8.1-0.8,12.3c0.7,2.2,0.7,3.6-1.3,5.3c-2.6,2.2-4.8,5-7.2,7.3
			c-1.2,1.1-2.6,2-4,2.7c-1.1,0.5-2.7,0.5-3.4-0.8c-1.7-3-3.2-6.2-4.8-9.3c-0.5-1-1-2-1.7-2.9c-0.6-0.8-0.4-1.1,0.3-1.5
			c0.9-0.5,1.8-1,2.6-1.7c5.8-4.5,11.1-9.5,16.1-14.8c2.4-2.6,4.1-5.7,5.2-9c1.2-3.5-1.7-5.8-4.8-6c-3-0.2-5.5,1-8.1,2.3
			c-4.1,2.1-8.1,4.3-11.2,7.8c-1,1.2-2.3,2.2-3.4,3.3c0.2-1,0.7-1.9,1-2.8c1.2-3.1,2.2-6.2,3.4-9.3c1.7-4.5,3.4-9,5.1-13.6
			c1.1-2.9,2.1-5.8,2-9.1c0-1.6-0.5-2.9-1.4-4.1c-0.9-1.2-3-1.2-3.8,0.1c-0.6,0.9-1,1.9-1.4,2.9c-0.9,2.4-1.7,4.7-2.5,7.1
			c-1.6,4.8-3.2,9.5-4.7,14.3c-1,3.2-1.8,6.4-2.7,9.7c-1.2,4.5-2.3,9-3.5,13.5c-0.6,2.2-1.2,4.5-2.1,6.6c-0.8,1.7-2.1,3.2-3.1,4.7
			c-3.5,5.2-7.7,9.6-12.1,13.9c-0.3,0.3-0.7,0.5-1.3,0.9c-0.4-5.4-0.1-10.3,1.1-15.3c1.7-6.7,4.1-13.1,7-19.3
			c1.9-4-0.4-8.6-3.2-10.7c-0.4-0.3-1.4-0.1-2,0.2c-0.7,0.4-0.5,0.9-0.1,1.6c0.3,0.6,0.2,1.4,0.3,2.2c-0.1,0-0.3,0.1-0.4,0.1
			c-0.9-1-1.7-2-2.6-2.9c-1.1-1.1-2.4-1.5-4.1-1.3c-2.2,0.3-4,1.5-5.7,2.7c-2,1.3-4.3,2.2-5.4,4.7c-0.3,0.6-0.9,1.1-1.3,1.6
			c-1.9,2.1-4.1,4-5.7,6.3c-2.2,3.1-4,6.5-5.8,9.8c-2.6,4.8-5,9.6-7.6,14.4c-1.2,2.3-2.6,4.5-3.9,6.6c-0.3,0.6-0.9,1-1.5,1.7
			c-0.2-0.6-0.4-1-0.4-1.3c-0.1-3.3-0.5-6.6,0-9.8c0.8-5,2.1-9.8,3.4-14.7c0.9-3.6,2.3-7.1,2.1-10.9c-0.1-1.7-0.1-3.5-1.7-4.5
			c-1.9-1.2-5.7-0.6-7,1.2c-1.9,2.5-3.7,5.1-5.3,7.7c-1.1,1.7-2,3.6-3,5.3c-0.8,1.4-1.5,2.8-2.2,4.1c-0.2-0.5-0.1-0.8,0-1.2
			c0.7-4.2,2.5-8.2,2-12.5c-0.2-1.5,0-3.3-1.7-4.2c-2.4-1.3-5.7-0.4-7.3,1.9c-1.8,2.7-3.7,5.5-5.7,8.4c0-0.7-0.1-1.2,0-1.6
			c0.4-2.2,1-4.5,1.3-6.7c0.5-4.2-0.8-6.9-5.2-7.6c-1.6-0.3-2.6,0.4-2.7,1.8c0.5,0.1,1.1,0.3,1.6,0.4c0.9,0.2,1.1,0.7,1,1.5
			c-0.2,1.6-0.4,3.1-0.8,4.7c-1,4.6-2,9.2-3.1,13.9c-1.2,4.9-2.4,9.7-3.6,14.5c-0.6,2.5-1,5-1.5,7.4c-0.6,3-1.4,5.9-2,8.9
			c-0.1,0.3,0.1,0.9,0.4,1c1.4,0.8,2.8,1.6,4.3,2.2c0.4,0.2,1.4-0.2,1.6-0.6c0.6-1.3,1.1-2.8,1.5-4.2c1.2-3.8,2.3-7.7,3.7-11.4
			c1.5-4,3.2-7.9,4.8-11.8c1.5-3.5,3-6.9,4.5-10.4c0.6-1.3,1.3-2.5,2-3.7c0.1,0,0.2,0.1,0.4,0.1c0,0.3,0,0.7-0.1,1
			c-1.3,5.1-2.9,10.2-4,15.3c-1.1,5.4-1.8,10.8-2.3,16.3c-0.3,3.8,1.3,5.7,4.8,6.8c1.5,0.5,2.1,0.2,2.5-1.3c0.7-2.4,1.3-4.8,2.1-7.2
			c1.4-4.4,2.9-8.7,4.3-13.1c2.1-6.5,4.9-12.6,8.5-18.4c0.6-1,1.5-1.8,2.2-2.7c-0.3,2-0.8,3.8-1.3,5.6c-1.1,3.8-2.3,7.6-3.1,11.4
			c-1,4.5-1.7,9.1-1,13.7c0.3,2.1,0.1,4.5,2.1,6.1c3,2.5,5,2.5,7.4-0.6c1.7-2.2,3-4.7,4.2-7.2c2.4-4.6,4.6-9.4,6.9-14.1
			c0.2-0.4,0.6-0.7,0.8-1.1c0.1,0.1,0.2,0.1,0.4,0.2c-0.1,0.5-0.2,1-0.4,1.4c-1.1,3.7-1.6,7.5-1.4,11.3c0.2,3.4,0.8,6.7,3.6,9.1
			c2.5,2.2,4.4,2.4,7.2-0.2c1.6-1.5,2.6-3.2,3.4-5.2c1.1-2.7,2.5-5.3,3.8-8c0.9-1.8,2-3.4,3.1-5.3c0.1,0.5,0.2,0.8,0.2,1
			c-0.1,1-0.3,2-0.3,3.1c-0.1,2.3-0.2,4.6-0.2,6.9c0,1.5-0.4,3.1,0,4.5c0.6,2.4,2.8,3.4,4.9,4.3c0.3,0.1,0.9-0.3,1.3-0.6
			c0.3-0.2,0.4-0.6,0.6-0.9c1.9-2.1,3.8-4.1,5.6-6.2c2.9-3.4,5.7-6.9,8.6-10.3c0.2-0.2,0.4-0.3,0.6-0.5c0.1,0,0.2,0.1,0.3,0.1
			c-0.1,0.5-0.3,1-0.4,1.5c-0.9,4.3-1.9,8.5-2.8,12.8c-0.1,0.3,0.2,0.9,0.4,1.1c0.7,0.7,1.4,1.4,2.2,2.1c0.6,0.5,1.3,1.2,2,1.5
			c1.2,0.5,1.7,0,1.9-1.2c0.8-5.1,1.7-10.1,2.6-15.2c0.1-0.5,0.6-1.2,1.1-1.4c1.5-0.8,2.3-0.5,3.1,1.1c1.8,3.3,3.4,6.7,5.2,10
			c2.1,3.8,5,4.8,9.1,3.3c3.8-1.3,6.8-3.8,9.6-6.6c2-2,4-3.8,6-5.7c1.9,1.3,3.8,2.9,5.8,4.1c7.1,4.1,17.6,1.1,22.4-4.4
			C201.1,76.4,201.5,74.5,200.9,72.5z M114.7,54.5c-1.5,3.8-2.9,7.7-4.4,11.5c-0.3,0.8-0.8,1.6-1.3,2.3c-2.6,3.8-5.1,7.7-7.8,11.5
			c-1.7,2.4-3.5,4.8-5.3,7.2c-0.7,0.9-1.7,1.5-2.8,2.4c-0.8-3.5-0.9-6.7-0.3-9.8c1.5-8.5,5.7-15.6,11.1-22.2c1.6-1.9,3.3-3.7,5-5.5
			c0.4-0.4,1.2-0.6,1.8-0.6c0.7-0.1,1.5,0.1,2.2,0.2C114.8,51.7,115.7,52.2,114.7,54.5z M139.6,69.4c-1.2,0.6-1.7,0.1-1.5-1.1
			c0.1-0.6,0.2-1.4,0.5-1.9c2.4-3.2,4.7-6.7,7.5-9.5c3.6-3.7,7.8-6.5,12.8-8c1.1-0.3,2.1-0.9,3.1-1.3c0.4-0.2,0.8-0.2,1.3-0.3
			c0.1,0.1,0.2,0.2,0.3,0.3c-1.4,2-2.6,4.2-4.3,5.9c-3.2,3.3-6.6,6.4-10,9.5c-1.9,1.7-4,3.4-6.4,4.4C141.7,68,140.7,68.9,139.6,69.4
			z M173.1,67.4c-0.2,0.3-0.5,0.5-1,0.9c-0.2-2.8,0.5-5.1,1.5-7.2c1.4-3.1,3.1-6.1,4.7-9.2c1-1.9,2-3.9,3-5.8
			c0.6-1.1,1.4-2.1,2.1-3.2c0.2,0.1,0.4,0.1,0.5,0.2c0,0.5,0.1,1,0,1.5c-1.1,2.9-2.2,5.8-3.4,8.7c-1.7,4.3-4.1,8.2-6.4,12.3
			C173.8,66.1,173.5,66.8,173.1,67.4z"/>
		<path fill="#0071BC" d="M-24.7,199.9c-3,4.1-6.3,7.2-11.3,8.6c0.9-0.2,2.1,20.9,2,23.4c-0.1,1.4-0.5,2.9-0.4,4.3
			c0.3,3.1-0.6,6-1.3,8.9c-0.3,1.3-0.3,2.6-0.6,3.9c-0.7,3.4-2.2,6.4-4.2,9.2c-0.6,0.8-0.8,2.2-2.1,2c-1.5-0.2-3-0.5-4.4-1
			c-1.5-0.5-2.2-1.6-2.9-3.1c-1.8-4.4-2.9-8.8-2.6-13.5c0.5-6.6,1.1-13.1,1.7-19.7c0.3-3.2,0.5-6.3,1-9.4c0.3-2.3,1-4.6,1.4-7
			c0.2-1,0.1-2.1-0.1-3.1c-0.3-1.6-0.3-3,0.3-4.6c0.6-1.7,2-2.7,2.7-4.3c0.7-1.4,1.2-2.9,1.6-4.4c1.1-3.6,1.9-11.6,2.9-15.2
			c0.2-0.6,2-13.4,0.4-11.9c1.3-1.2,2.7-1.1,4-0.7c3.2,1,5.3,4.6,4.6,7.9c-1.3,6-2.6,16.2-4.1,22.1c-0.3,1.3-1,2.6-1,3.9
			c0,2.1,0.4,4.2,0.8,6.2c0.1,0.7,0.8,0.9,1.4,0.3c2.9-3.1,6-6.1,8.7-9.4c3.7-4.4,6.9-9.1,11.5-12.6c0.2-0.2,0.5-0.4,0.6-0.6
			c0.8-1.8,1.4-2,3.5-2.1c2.3,0,4.5,0,6.4,1.5c2.8,2.2,4.1,5.1,3.7,8.7c-0.2,1.7-0.3,3.3-0.4,5.3c1.1-0.3,2-0.4,2.8-0.8
			c4.4-1.9,8.1-4.6,10.6-8.7c1.9-3,5-3.6,8.1-3.1c2.9,0.5,4.9,2.4,5.6,5.6c1,5.1,1,10.2,0.7,15.3c-0.2,4-0.3,8-0.7,12
			c-0.6,5.2-1.7,7.4-2.2,12.6c-0.5,4.4-0.5,7.6-0.8,12.1c-0.2,2-0.2,4.1-1.8,5.8c-2.2,2.3-5.3,1.7-6.4-1.2c-0.1-0.2-0.2-0.4-0.2-0.6
			c1.4-2.8,0.4-5.6,0.2-8.4c-0.6-8,0.6-11.5,1.7-19.4c1-6.4,1.5-12.8,2.2-19.2c0.3-2.9,0.4-5.7,0.5-8.6c0-0.7-0.3-1.4-0.5-2.1
			c-0.5,0.4-1.2,0.8-1.6,1.3c-1.1,1.4-1.9,3.2-3.3,4.4c-1.5,1.3-3.4,2.2-5.1,3.3c-2.9,1.8-6,2.8-9.4,2.9c-1,0-1,0.8-1.1,1.5
			c-0.6,4.2-1.2,8.3-1.9,12.5c-0.5,2.9-1,5.8-1.8,8.7c-0.9,3.2-1.6,6.6-4.8,8.5c-2.3,1.3-4.6,1-6.8-0.1c-2.5-1.3-4.4-3.2-5.7-5.7
			c-3.6-6.8-4.4-13.8-2.2-21.2C-24.7,200.8-24.7,200.6-24.7,199.9z M-40.4,208.5c-2.1,13.3-3.7,26.2-1.9,39.4c0.4-0.8,0.8-1.6,1-2.4
			c0.4-2,0.8-3.9,1.2-5.9c0.4-1.7,0.9-3.4,1-5.1c0.4-4.3,0.7-8.7,0.9-13c0.1-1.6-0.1-3.3-0.2-5c-0.1-1.9-0.6-3.8-0.3-5.6
			C-38.5,209.4-39,209.1-40.4,208.5z"/>
		<path fill="#0071BC" d="M563.1,196.3c-2.1,0.2-4.3,0.4-6.4,0.6c-0.4,2-5.5,10.7-22.2,21.3c-3.1,1.9-6.4,2.9-9.7,4.1
			c-3.1,1.1-5.3,0.4-7.3-2.3c-2-2.7-2.2-5.9-2.3-9c0-0.9,0.6-1.4,1.2-1.9c4.2-3.3,8.4-6.6,12.5-9.9c5.1-4.1,8.8-9.3,11.5-15.2
			c0.4-1,0.7-2.1,0.7-3.1c0-2.6,0-5.2-0.3-7.7c-0.2-2-1.6-3.3-3.3-4.3c-1.5-1-5.4,1.9-6,2.7c-0.7,1-1.7,1.8-2.5,2.6
			c-4.7,4.9-8.9,10.4-12.7,16c-2.9,4.2-4.7,8.9-5.9,13.8c-0.2,0.6-0.7,1.2-1,1.8c-1.7,3.8-7,8.4-11.5,8.4c-1.7,0-5.6-4.4-3.9-11.3
			c0.3-1.1,0.2-2,1.1-2.8c7.1-7,13.6-21.3,17.5-29.7c2-4.3,10.7-28,11.2-31.5c0.3-2.5-0.7-3.5-3.3-4.3c-4.6-0.8-17.1,26.4-19.1,30.8
			c-1.7,3.7-3.3,7.5-4.9,11.3c-0.9,2.3-1.6,4.8-2.5,7.1c-1.8,4.6-3.7,13.5-5.6,15.7c-1.4,1.7-6.8,6.8-8.4,8.3
			c-0.2-0.6,2.1-5,2.3-5.4c1.4-4.4,3.1-8.6,3.6-13.3c0.5-5.7-0.2-11.1-2.5-16.3c-1.9-4.4-5.4-7.1-10-8.1c-3.7-0.8-6.7,1-9.3,3.5
			c-0.6,0.5-1.1,1.1-1.6,1.6c-0.1-1.5,0-2.8,0.3-4.1c0.3-1.7-0.3-3.1-1.6-4.2c-1.7-1.4-3.8-1.5-5.6-1.7c-4.2,5.8-9,10.7-14.2,15.4
			c-2.2-9.6-8.5-23.4-15.9-20.8c-2.3,2.6-7.7,7-8.4,7c-0.7,1.1-1.4,2.7-2.1,3.9c-1.1,2.1-8.6,15.4-11.2,20c-1,1.8-2,3.7-3,5.5
			c-1.2,2.1-2.3,4.8-3.5,6.9c-2.1,3.8-4.6,7.3-7.5,10.5c-1.6,1.8-3.5,3.2-5.8,4c-0.8,0.3-2,0.4-2.6-0.1c-1.8-1.2-1.8-5.7-0.1-7.1
			c1.3-1.2,2.8-2.2,4-3.5c1.4-1.5,2.6-3.2,3.6-5c1.8-3.2,3.6-6.6,5.2-9.9c2.7-5.6,1.8-20.2-1.2-25.6c-0.5-1-1.5-1.8-2.2-2.5
			c-3.8-4.1-7.4-0.2-7.6,0.6c-0.4,1.3-1.2,2.8-1.9,4c-1.2,2.4-1.9,4.9-2.5,7.5c-0.7,3.3-1.5,6.6-2.3,9.9c-2,7.4-3.4,14.9-3.2,22.6
			c0,1.1-0.5,1.9-1.3,2.5c-3,2.3-6.1,4.3-9.5,5.9c-4.1,1.9-8.4,3.1-13,2c-0.3-0.1-0.6-0.4-1-0.6c0.3-0.2,0.4-0.3,0.6-0.3
			c2.9-0.3,5.4-1.5,7.6-3.6c1.7-1.6,2.8-3.6,4-5.5c2.4-3.6,3.2-7.9,4.3-12.1c0.4-1.6,0.8-3.2,0.9-4.9c0.5-5.3,0.1-10.5-1.4-15.6
			c-0.5-1.8-1.5-3.3-3-4.4c-3.1-2.3-6.5-3.7-10.4-3.7c-2.4,0-4.8,0.6-6.5,2.5c-2.4,2.7-4.7,5.4-6.1,8.8c-0.3,0.8-0.9,1.5-1.5,2.6
			c-0.1-0.9-0.1-1.4-0.1-1.9c0-2.8-1.2-5.1-3.1-7.1c-1.2-1.2-2.6-1.7-4.4-1.2c-0.1,0.6-0.2,1.1-0.2,1.7c0.2,5.6-1.1,11.1-1.9,16.7
			c-0.7,5-1.5,10.1-2,15.1c-0.4,3.8-0.4,7.7-0.6,11.6c-0.1,1.4-0.1,2.9-0.2,4.3c-0.3,2.8-0.7,5.7-0.9,8.5c-0.3,3.2-0.4,6.4-0.5,9.7
			c-0.2,3.9-0.3,7.9-0.5,11.8c1.1,0.7,2.2,1.5,3.3,2.2c0.7,0.4,1.6,0.7,2.4,1c2.1,0.6,2.7,0.1,2.9-2.1c0.1-0.6,0.1-1.2,0.1-1.7
			c0.1-1.8,0.2-3.6,0.3-5.4c0.3-5.3,0.5-10.6,0.8-15.9c0.1-2.4,0.3-4.9,0.7-7.3c0.4-2.4,0.9-4.8,2.2-7.2c1,0.6,1.9,1,2.8,1.7
			c2.5,1.9,5.3,3.2,8.2,4.2c3.9,1.4,8,1.8,12.1,1.4c3.7-0.4,7.4-1.2,10.6-3.2c1.9-1.2,3.9-2.2,5.8-3.3c0.7,0.8,1.4,1.5,1.9,2.2
			c1.4,1.9,3.4,2.9,5.5,3.6c3.5,1.1,6.7,0,9.7-1.8c1.2-0.7,2.2-1.8,3.2-2.8c1.1-1,2-2.2,3-3.3c0.3-0.3,0.6-0.7,1.1-1.1
			c0.4,1.6,0.6,3,1.1,4.3c2.8,7.3,8.3,9.8,15.3,6.4c3.5-1.7,6.4-4.4,8.9-7.4c3.4-4.1,6.4-8.5,9.1-13.1c2.3-3.8,4.7-7.6,6.1-11.8
			c0.5-1.6,1-3.1,3-3.5c0.2,0,0.3-0.3,0.5-0.4c3.1-1.8,5.6-4.2,8-6.8c0.8-0.9,1.7-1.7,2.8-2.8c0,0.6,0,0.7,0,0.9
			c-1.6,6-3.2,11.9-4.9,17.9c-0.6,2.2-1.5,4.4-2.3,6.5c-0.8,2.2-1.8,4.3-2.7,6.5c-0.9,2.1-1.5,4.3-2.5,6.4
			c-1.8,3.6-3.2,7.3-4.4,11.2c-0.6,2.1-1.3,4.1-1.9,6.2c-1.1,4.2-2,8.4-3.1,12.5c-0.7,2.5-0.7,5.3-2.7,7.5c1.1,2,2.4,3.7,4.1,4.8
			c2,1.3,2.8,0.9,3.4-1.4c1.4-5.3,2.7-10.6,4.4-15.8c1.6-5,3.5-9.9,5.3-14.8c1.4-3.9,2.8-7.8,4.4-12c0.9,1.2,1.8,2.3,2.6,3.4
			c3.5,5,8.3,7.2,14.3,6.8c2.5-0.2,5-1.1,7.5-1.7c0.3-0.1,0.7-0.3,1-0.4c3.4-1.9,12.6-10.4,13.2-10.9c-1.1,9.7,2.9,14.1,10,13.4
			c3.1-0.3,5.6-1.6,8-3.4c0.8-0.6,1.6-1.3,2.6-2.1c0.2,0.7,0.3,1.1,0.5,1.5c1.5,4.6,4.1,8.4,8.3,11c9.4,5.9,21.2-2.9,28.4-8.6
			c3.3-2.6,6.6-5.2,9.4-8.3c2.7-2.9,6.8-8,7.7-9.7C565.5,198,564.4,196.2,563.1,196.3z M532.8,180.4c-0.1,3.9-6.4,12.4-11.8,16
			C524.2,190.7,528.3,185.6,532.8,180.4z M516,148.1c1.5,0-19,42.9-19,42.9S514.5,148.1,516,148.1z M385.8,168.3
			c0.1-0.3,0.3-0.6,1-0.8c2.3-0.1,3.6,16.4-4.2,25.6c-0.5,0.6-0.9,1.3-1.3,2c-0.2,0-0.4-0.1-0.5-0.1
			C382.5,186.1,384.1,177.2,385.8,168.3z M341.1,207.9c-0.4-0.1-0.9-0.3-1.1-0.6c-1.8-2.1-2.9-4.3-2.1-7.3
			c1.4-5.1,3.2-10.1,5.5-14.9c1.6-3.2,2.7-6.7,4.5-9.8c1.5-2.7,3.5-5.1,5.5-7.4c1.6-1.9,3-1.5,4,0.8c1.2,3,1.9,6,1.7,8.3
			c-0.1,7.8-1.3,14.5-3.7,21c-1.5,4-4.3,7-7.9,9.1C345.4,208.2,343.2,208.3,341.1,207.9z M431.3,186.4c-1.7,4.6-4.3,8.7-6.9,12.9
			c-2.1,3.3-4.3,6.6-6.7,9.8c-1.9,2.5-4.1,4.8-7,6.2c-0.4,0.2-0.8,0.4-1.2,0.5c-2.1,0.7-2.8,0.6-3.4-1.5c-1.3-4.1-1.7-8.3-0.2-12.5
			c3.1-8.7,6.8-17.3,11.4-25.3c0.2-0.4,0.5-0.8,0.9-1.4c3.4,4.5,3.7,4.8,13.9,8.8C431.9,184.7,431.6,185.6,431.3,186.4z
			 M433.2,179.5c-1.1,0.9-2.3,0.6-3.4,0.5c-2.2-0.3-4.3-1.2-6.2-2.4c-1.7-1.2-2.5-2.8-2.1-5c0.8-4.1-0.1-7.2,2.6-10.5
			c0.5-0.6,2.9-2.2,3.5-3.1c2.6-0.4,3,3.7,3.5,6.1c0.5,2.2,1,4.5,1.7,6.6C433.8,174.3,433.2,176.9,433.2,179.5z M476.4,199.3
			c-1.9,4.2-4.9,7.8-8.3,10.9c-1.6,1.5-3.4,1.7-5.6,1.3c-3.5-0.7-4.8-3-5.5-6.1c-0.4-2-0.8-3.9-1.2-5.9c-0.3-1.4-0.1-2.7,0.6-4
			c1.5-2.9,2.9-5.8,4.5-8.6c2.3-4,4.6-8,7.1-11.8c1.4-2.2,3.2-4.3,5.6-5.6c2.3-1.2,3.5-0.9,4.7,1.4c1.7,3.2,2.3,6.8,2.4,11.3
			C480.6,187.7,479,193.7,476.4,199.3z"/>
	</g>
</g>
<g id="lettering">
	<g>
		<g>
			<path fill="#FFFFFF" stroke="#FFFFFF" stroke-width="1.4967" stroke-miterlimit="10" d="M362.6,46.3c0.3-0.6,0.8-1.3,1-1.9
				c0.8-2.6,2.4-4.7,3.8-6.9c0.2-0.3,0.5-0.6,0.7-0.8c0.5-0.5,1-0.9,1.6-1.5c1.1-0.2,2.4,0,3.7,0c2.1,0,3.1,1.3,3.8,3
				c0.2,0.6,0.4,1.3,0.5,2c0.4,2.8,0.8,5.6,1.3,8.5c0.2,1.2,0.1,2.4,0.1,3.6c0,1.2,0.2,2.4,0.1,3.6c-0.1,1.8,0.3,3.6,0.5,5.4
				c0.1,1.6,0.5,3.1,0.8,4.7c0.1,0.6,0,1.2,0.3,1.8c0.8,2,1.1,4.2,2.3,6.1c0.1,0.2,0.3,0.4,0.5,0.7c0.3-0.3,0.6-0.5,0.8-0.7
				c0.5-0.6,1.2-0.6,1.6,0.3c0.3,0.7,0.5,1.4,0.8,2.1c0.2,0.7,0.1,1.1-0.5,1.6c-0.1,0.1-0.3,0.1-0.4,0.2c-0.2,0.1-0.4,0.2-0.6,0.2
				c-2.6-0.4-4.7-1.7-6.6-3.4c-0.4-0.4-0.9-0.8-1.1-1.4c-0.7-1.6-1.8-3.1-2.1-4.9c-0.3-1.9-1-3.6-1.4-5.5c-0.2-1-0.1-2-0.3-2.9
				c-0.3-1.1-0.4-2.2-0.4-3.4c0.1-3-0.6-6-0.5-9c0-1.2-0.3-2.4-0.5-3.6c0-0.3-0.3-0.5-0.4-0.7c-0.7,0-1,0.6-1.2,1
				c-0.6,1.4-1.4,2.6-1.7,4.1c-0.3,1.4-1,2.7-1.2,4.1c0,0.3-0.2,0.6-0.2,0.9c-0.9,3.7-1.6,7.5-2,11.3c-0.1,1.3-0.5,2.7-0.7,4
				c-0.1,0.7-0.2,1.5-0.2,2.2c0,1.5-0.2,3-0.4,4.5c-0.1,0.6-0.4,0.9-1.1,0.9c-1.1,0.1-1.9-0.4-2.7-0.9c-0.4-0.3-0.8-0.7-1.3-0.9
				c-1.4-0.7-1.8-2-1.6-3.4c0.4-2,0.1-4.1,0.1-6.1c0-0.8-0.2-1.6-0.1-2.4c0.2-1.4-0.3-2.8-0.3-4.2c0-1.4-0.2-2.8-0.4-4.3
				c-0.2-1.4-0.3-2.8-0.5-4.3c0-0.2-0.1-0.4-0.2-0.6c-0.8,0.6-1,0.8-1.1,1.8c-0.2,1.6-0.5,3.1-0.7,4.7c-0.6,3.6-1.5,7.2-2.7,10.7
				c-0.3,0.9-0.6,1.8-1.2,2.6c-0.7,0.9-1.5,1.2-2.5,1.4c-0.9,0.1-1.8,0-2.7-0.3c-1.7-0.6-3.4-1.3-4.9-2.3c-0.4-0.2-0.7-0.5-1-0.9
				c-0.9-1-1.7-2.1-2.7-3.1c-0.4-0.1-0.6,0.3-0.7,0.6c-0.6,1.7-1.3,3.4-1.8,5.1c-0.2,0.7-0.5,1.4-0.9,2.1c-0.9,1.6-2.2,2.2-4,1.6
				c-1-0.3-2-0.7-3-1c-0.9-0.3-1.6-0.8-2-1.7c-0.2-0.4-0.5-0.8-0.7-1.2c-1.3-2.1-2.2-4.5-2.6-6.9c-0.1-0.7-0.4-1.2-0.9-1.8
				c-0.7,0.6-0.9,1.3-1,2.1c-0.1,0.6-0.3,1.2-0.4,1.7c-0.6,3.1-1.7,6.1-2.4,9.2c-0.3,1.4-0.8,2.7-1.3,4.1c-0.6,2.1-1.8,4-3.2,5.7
				c-0.8,1-1.6,1.9-2.7,2.7c-2.1,1.6-4.4,2.2-7,1.9c-2.3-0.2-4.6-0.8-6.8-1.6c-0.5-0.2-1-0.4-1.3-0.8c-1.9-2-3.6-4.1-4-6.9
				c-0.2-1-0.8-2-1-3c-0.4-2.2-1.3-4.3-1.3-6.6c0-3.5-0.1-7,0-10.4c0-1.8,0.3-3.6,0.5-5.4c0.2-1.9,0.7-3.8,0.9-5.8
				c0.1-0.7,0.5-1.4,0.6-2.2c0.4-3,1.9-5.7,3.1-8.4c0.5-1,1.1-1.6,2.2-1.8c1.3-0.2,2.7-0.5,4-0.3c2.1,0.2,3.9,1.2,5.1,3
				c1.8,2.6,2.9,5.5,3.4,8.5c0.4,2.2,0.6,4.3,0.6,6.5c0,0.6,0.1,1.2,0.2,1.8c0.2,1.1-0.5,2.2-1.9,2.3c-0.9,0-1.8,0-2.7-0.5
				c-0.3-0.1-0.5-0.4-0.8-0.4c-1.5-0.2-1.9-1.3-2.1-2.6c0-0.2-0.1-0.4-0.1-0.7c0.1-2.6-0.8-5-1-7.6c-0.1-0.9-0.6-2.1-1.2-3.1
				c-0.4-0.1-0.5,0.2-0.6,0.5c-1.1,3.2-1.8,6.5-2.5,9.8c-0.1,0.6-0.2,1.2-0.2,1.8c0,0.5,0,0.9-0.1,1.4c-0.4,1.4-0.3,2.8-0.4,4.3
				c-0.1,1,0.1,2-0.1,2.9c-0.3,1,0.3,1.9-0.2,2.9c-0.1,0.1-0.1,0.3,0,0.4c0.5,1.9,0.2,3.8,0.5,5.6c0.3,2.1,0.9,4.1,1.4,6.2
				c0.4,1.4,0.8,2.7,1.4,4c0.4,0.8,0.8,1.6,1.3,2.4c0.6,1,1.5,1.7,2.8,1.9c2.1-0.6,3.7-2.1,5.1-3.7c1.1-1.4,2.2-2.9,2.9-4.6
				c0.1-0.3,0.3-0.5,0.4-0.8c1.4-2.3,2.3-4.7,3.4-7.2c0.5-1.2,0.8-2.4,1-3.7c0.3-1.6,0.9-3.2,1.3-4.8c0.2-0.9,0.2-1.9,0.8-2.8
				c0.6-0.8,0.6-2,0.9-3c0.3-0.9,0.6-1.9,0.9-2.8c0.3-1.1,0.6-2.2,0.8-3.3c0.3-1.5,0.5-3.1,0.9-4.6c0.4-1.6,0.9-3.2,1.5-4.7
				c1-2.2,2-4.4,3.4-6.4c0.2-0.2,0.3-0.5,0.5-0.8c0.3-0.4,0.7-0.8,1.3-0.7c0.2,0,0.5,0,0.7,0c1.3,0.3,2.6,0.6,4,0.1
				c0.9,0.2,1.8,0.2,2.6,0.7c1.5,0.8,3,1.4,4.6,1.8c0.2,0.1,0.4,0.2,0.6,0.3c0.8,1.3,0.6,2.8,0.6,4.2c0,1.6,0,3.1-0.2,4.7
				c0,0.4-0.1,0.8,0,1.1c0.2,0.7,0.3,1.3,0,2c-0.2,0.6,0.3,1.3,0.1,2c-0.2,0.5,0.1,1.2,0.1,1.8c-0.1,2.4,0.5,4.6,0.9,6.9
				c0.4,2.2,1.2,4.4,2,6.5c0.1,0.4,0.3,0.7,0.5,1c0.3,0.4,0.6,1,1.2,1c0.7,0,0.9-0.7,1-1.3c1-3.4,2-6.8,2.5-10.3
				c0.2-1.4,0.3-2.9,0.9-4.2c0.1-0.3,0.1-0.6,0.1-0.9c-0.1-0.9,0.2-1.8,0.6-2.6c0.1-0.3,0.3-0.6,0.3-0.9c0-1.2,0.5-2.2,0.8-3.3
				c0.3-1.1,0.5-2.2,0.8-3.3c0.4-1.4,1-2.7,1.3-4.1c0.1-0.9,0.9-1.3,1.8-1.3c0.9,0,1.8,0,2.7,0c1.1,0,1.9,0.6,2.2,1.6
				c0.3,1,0.6,2,0.8,3c0.3,2.1,0.6,4.2,0.9,6.2C361.9,45.6,362,46.1,362.6,46.3z M332.3,36.7c-0.6,0.2-0.9,0.8-1.2,1.3
				c-2,3.3-3.4,6.8-4.1,10.7c-0.2,1.3,0.1,2.7-0.4,4c0.4,1.2,0.3,2.5,0.3,3.8c0,2.5,0.9,4.9,1.1,7.3c0,0.5,0.2,1.1,1.1,1.3
				c0.3-0.7,0.8-1.5,1.1-2.3c1-3.6,1.7-7.3,2.3-11c0.2-1.3,0.2-2.5,0.5-3.8c0.3-1.3,0.1-2.7,0.2-4c0.2-1.8,0.1-3.6,0.1-5.4
				C333.3,37.7,333,37.1,332.3,36.7z"/>
			<path fill="#FFFFFF" stroke="#FFFFFF" stroke-width="1.4967" stroke-miterlimit="10" d="M425.1,79.7c0.7,1.3,1.2,2.7,1.6,4.1
				c0.2,0.8-0.1,1.3-0.8,1.7c-1.6,0.7-3.3,1.1-5,0.9c-3.4-0.3-6.4-1.6-9.3-3.3c-0.3-0.2-0.6-0.4-0.9-0.7c-0.9-0.9-2-1.7-3-2.4
				c-1.2-0.8-2.1-2-2.9-3.2c-1.2-1.7-2.2-3.6-2.9-5.6c-1.1-3.2-1.8-6.4-2-9.7c-0.2-2.9-0.3-5.7-0.6-8.6c-0.2-2.5-0.1-5.1-0.6-7.6
				c0-0.2,0-0.5,0.1-0.7c0.4-0.8,0-1.5-0.4-2.1c-0.7-0.6-1.6-0.6-2.4-0.7c-0.8-0.1-1.7,0-2.5-0.2c-0.9-0.2-1.9-0.4-2.8-0.8
				c-0.8-0.4-1.6-0.7-2.5-1.1c-0.1-0.4,0.1-0.6,0.4-0.6c2,0,3.9-0.2,5.9,0.3c1,0.3,2.1,0.2,3.2,0.2c0.5,0,0.8-0.4,0.8-0.9
				c0-0.6,0.1-1.2-0.1-1.8c-0.3-1-0.2-2.1-0.3-3.1c-0.1-3.2,0-6.5-0.3-9.7c0.4-1.7-0.4-3.4,0.1-5.1c0.1-0.3-0.1-0.7-0.1-1.1
				c0-0.3-0.1-0.6-0.1-0.9c0-0.6,0.7-1.1,1.3-0.9c0.4,0.2,0.8,0.4,1.2,0.6c0.5,0.3,1.1,0.6,1.6,0.8c1,0.4,1.5,1.1,1.7,2.2
				c0.3,2.2,0.7,4.3,0.3,6.5c-0.1,0.8,0.1,1.5,0.2,2.2c0.2,3.2,0.5,6.5,0.5,9.7c0,0.2,0,0.5,0.1,0.7c0.1,0.4,0.4,0.8,0.9,1
				c1.1,0.5,2.2,0.2,3.3,0.2c0.7,0,1.5-0.3,2.2,0c0.2,0.1,0.6-0.1,0.9-0.1c0.5-0.1,1-0.1,1.6-0.1c1.4,0,2.7-0.1,4.1-0.2
				c0.9-0.1,1.9-0.3,2.9,0c0.4,0.2,1-0.1,1.6-0.1c0.8,0,1.5-0.1,2.3-0.1c0.5,0,0.9,0,1.3-0.4c0.7-0.8,1.5-0.7,2.3-0.5
				c1.5,0.5,3.1,0.8,4.7,0.8c0.2,0,0.4,0.1,0.6,0.2c0.3,0.1,0.6,0.7,0.4,1c-0.1,0.2-0.4,0.5-0.6,0.6c-1.6,0.2-3.1,0.5-4.7,0.5
				c-1.6,0-3.1,0.4-4.7,0.1c-3,0.6-6,0.2-9,0.4c-0.7,0.1-1.5,0-2.2,0c-1,0-2.1,0.2-3.1,0.3c-1,0-2.1-0.2-3.1,0.1
				c-0.7,0.2-1.1,0.5-1.1,1.2c0,1.1-0.1,2.3,0.2,3.4c0.2,1.1,0.3,2.2,0.3,3.4c0.1,2.4-0.1,4.9,0.1,7.2c0.3,3.2,0.2,6.5,1.1,9.6
				c0.1,1.9,0.8,3.7,1.3,5.5c0.9,3.3,2.6,6.2,5.3,8.5c1,0.8,2.1,1.5,3.2,2c1.8,0.9,3.7,0.6,5.5-0.2c0.5-0.2,0.8-0.6,1.1-1.1
				c0.3-0.5,0.5-1.1,0.9-1.6C424.2,80.1,424.5,79.7,425.1,79.7z"/>
			<path fill="#FFFFFF" stroke="#FFFFFF" stroke-width="1.4967" stroke-miterlimit="10" d="M377.1,23.9c0.2-0.1,0.3-0.3,0.4-0.3
				c1-0.1,2-0.3,2.9-0.1c1.3,0.2,2.4,0.7,3.1,2c0.4,0.9,0.9,1.7,1.2,2.6c0.6,1.8,1.3,3.5,1.5,5.4c0,0.2,0.1,0.4,0.1,0.7
				c0,0.5-0.6,1-1.1,0.8c-0.1-0.1-0.3-0.1-0.4-0.2c-1.6-0.6-2.6-2-4.1-2.8c-0.5-0.8-1.1-1.6-1.6-2.5c-0.4-0.6-0.6-1.2-0.9-1.8
				C377.5,26.5,377.2,25.3,377.1,23.9z"/>
		</g>
		<path fill="#FFFFFF" stroke="#FFFFFF" stroke-width="1.403" stroke-miterlimit="10" d="M78.2,51.1c-0.5,1.5-0.6,2.9-0.7,4.3
			c-0.3,3.3-0.5,6.6-0.8,9.8C76.1,70.4,76,75.7,76.2,81c0.1,2.5,0.4,4.9,0.7,7.3c0.1,1.3,0,2.5-0.5,3.7c-0.4,1-1.1,1.7-2.1,1.8
			c-1.1,0.1-2.3,0-3.4,0c-0.5,0-0.9-0.4-1.2-0.9c-2.6-3.9-4.5-8.1-5.6-12.8c-0.7-3-1.5-5.9-2.3-8.9c-0.1-0.5-0.4-1-0.7-1.8
			c-0.3,0.7-0.5,1-0.6,1.4c-0.5,3.9-1.1,7.9-1.5,11.9c-0.2,2.2-0.2,4.5-0.3,6.7c-0.1,0.9-0.2,1.8-0.4,2.7c-0.3,1.8-1.5,2.7-3,3
			c-0.1,0-0.1,0-0.2,0c-4.1,0.4-5.4,0.1-7.2-4.6c-1.7-4.6-3.2-9.3-4.5-14.1c-0.8-3-1.3-6.1-1.8-9.3c-0.6-4.2-1.1-8.3-1.6-12.5
			c-0.4-3.7-0.8-7.4-1.3-11.1c-0.2-1.5-0.5-2.9-0.7-4.4c-0.1-0.7-0.1-1.5-0.1-2.2c1.3-0.9,2.6-0.9,3.8-0.9c1.3,0,2,0.6,2.3,2
			c0.4,1.6,0.6,3.3,0.8,5c0.6,5.2,1.2,10.4,1.8,15.7c0.3,2.5,0.7,5,0.9,7.5c0.3,3.3,1,6.5,1.8,9.7c0.7,2.8,1.6,5.6,2.4,8.4
			c0.3,0.8,0.7,1.6,1,2.5c0.8-0.5,0.8-1.2,0.8-1.7c0.3-5.4,1.2-10.7,2-16c0.5-3.5,0.8-7.1,1.1-10.7c0.2-2.1,0.3-4.2,0.4-6.3
			c0-1.1,0-2.1,0-3.2c0-0.7,0.2-1.3,0.8-1.5c1-0.3,1.9-0.6,2.9-0.8c1.1-0.2,1.4,0.1,1.6,1.2c0.5,2.4,1,4.8,1.5,7.2
			c0.6,2.9,1,5.9,1.7,8.8c1,4.8,2.1,9.5,3.3,14.3c0.5,2.2,1.3,4.3,2,6.4c0.1,0.3,0.4,0.6,0.6,0.9c0.7-0.5,0.5-1.2,0.5-1.8
			c0-2.2-0.1-4.5-0.1-6.7C71.7,72,72,66.9,72.5,61.8c0.3-3.6,0.7-7.1,1-10.7c0.1-1.1-0.1-2.2-0.2-3.4c0.8-0.9,2-1.1,3.1-1.3
			c0.7-0.1,1.3,0.1,1.8,0.9c0.3,0.5,0.8,0.9,1.1,1.3c1-0.5,0.9-1.5,1.1-2.2c0.4-1.9,1.1-3.5,2.3-5c0.7-0.9,1.5-1.4,2.5-1.8
			c1.8-0.7,8.7-0.9,10.6-0.6c2.2,0.3,3.4,1.7,3.9,3.9c0.3,1.4,0.5,2.9,0.7,4.4c0.1,0.8-0.1,1.4-0.6,1.9c-0.3,0.3-0.7,0.6-1.1,0.8
			C96.5,51,89.3,52,86.9,52c-2.2,0-2.4,0.1-2.4,2.6c0,3.4,0.2,6.7,0.9,10c0.7,3.4,1.6,6.8,2.6,10.1c0.9,2.9,2.1,5.7,4.4,7.7
			c1.9,1.6,3.7,1.8,5.5,0.1c1.9-1.9,3.7-4,5.5-6.1c1.2-1.5,2.1-3.3,2.7-5.3c0.2-0.5,0.5-0.9,0.8-1.4c1.2,0.5,1.7,1.5,2.3,2.5
			c0.3,0.5,0.3,1.2,0,1.8c-0.5,1-1,2.1-1.6,3.1c-2,3.1-4.6,5.4-7.6,7.1c-2.6,1.4-5.3,1.7-8.1,1.4c-0.7-0.1-1.4-0.2-2.1-0.3
			c-1.2-0.3-2.2-1-3-2.1c-2-2.8-3.3-6-4.2-9.4c-0.7-2.6-1.2-5.3-1.8-8c-0.3-1.6-0.5-3.2-0.6-4.8c-0.2-2.7-0.9-5.2-0.7-7.9
			C79.7,52.4,79.5,51.3,78.2,51.1z"/>
		<path fill="#FFFFFF" d="M85,181.7c4.1-14.2,6.7-28.1,6.9-42.5c4.3-0.4,8.1,0.8,11.6,2.8c4.9,2.9,9.7,5.9,14.7,9
			c2.3-1.7,2.3-1.7,4.8-10.2c4.7-1.3,7-0.2,8.8,3.8c0.6,1.5,1.2,3,2,5c0.7-1.1,1.2-1.6,1.4-2.2c1-3.2,2.8-6.2,6.2-6.9
			c4.4-1,8.9-0.3,12.5,2.8c2.7,2.3,4.3,5.2,5.3,8.3c2.5,7.6,3.8,15.4,3.4,23.4c-0.1,2.4-0.8,4.9-1.8,7.2c-1.4,3.5-4.5,5-8.4,3.8
			c-3-0.9-5.8-2.6-8.6-4c-1.3-0.6-2.4-1.4-4.1-2.4c-1,4-0.2,7.5,0.3,10.9c1.1,6.7,2.7,13.4,4,20.1c0.2,1.2,1,2.6-0.3,3.7
			c-1.4,1.1-3,0.7-4.5,0.1c-2.3-1-3.6-2.4-4.1-4.9c-1.2-6.3-3.1-12.4-4.3-18.6c-1.5-7.6-2.5-15.4-3.7-23.1
			c-0.5-3.5-0.9-6.9-1.5-11.1c-1.6,0.8-2.5,1.3-3.4,1.7c0.7,3.2,1.5,6.1,1.8,9c0.6,5.9-0.5,11.7-2,17.4c-0.8,2.9-1.6,6-2.9,8.7
			c-1.8,3.7-5.8,5.1-9.9,3.8c-4.8-1.5-8.8-4.2-11.8-8.1c-0.8-1-1.7-1.8-2.8-3c-0.6,0.7-0.9,1.1-1.1,1.5c-1.6,2.9-3,3.6-6.2,2.9
			c-3.1-0.6-5.6-2.4-7.8-4.4c-4-3.6-6.6-8.2-8.7-13c-0.5-1-1-2-1.5-3.1c-0.3,0-0.6,0.1-0.9,0.1c-0.4,2.7-0.9,5.5-1.1,8.2
			c-0.4,4.2-1.5,8.1-3.2,11.9c-2.9,6.6-10.5,10-17.5,8.8c-8.2-1.4-13-6.6-17.2-12.8c-0.1-0.2,0-0.5,0.1-0.7c2.6-1,6.1-0.3,8.2,1.8
			c1.5,1.5,3,3.1,4.5,4.7c1.2,1.2,2.5,2,4.2,1.2c1.8-0.8,3.1-2.1,2.9-4.1c-0.2-2-0.5-4.1-1.4-5.8c-4.4-7.6-9.1-15.1-13.7-22.6
			c-0.1-0.2-0.4-0.2-0.9-0.5c-0.3,0.7-0.6,1.4-0.8,2.1c-0.8,3.4-1.2,7-2.4,10.3c-2.4,6.7-4.4,13.6-8.9,19.3c-1.6,2-3.3,3.8-5.2,5.4
			c-2.2,1.8-5.5,1.3-7.8-1c8.5-9.8,12.5-21.5,14.8-33.8c1-5.2,1.1-10.6,1.5-15.8c0.3-4.1-0.8-7.9-3.2-11.7c3.1-1,5.6-0.6,7.7,1.3
			c2.1,1.9,3.7,4.1,4.2,6.9c1,5.6,3.7,10.4,6.9,15.1c4.7,7.1,9.4,14.1,14.1,21.2c0.8,1.3,1.7,2.5,2.6,3.9c1.7-0.9,1.8-2.3,1.9-3.5
			c1.7-12.5,3.3-25,4.9-37.6c0-0.2-0.1-0.5-0.3-1.2c-1.2,0.2-2.5,0.3-3.7,0.7c-3.4,1.1-6.7,2.4-10.1,3.4c-3.4,1-6.7,0.7-10.2-2
			c2.3-1,4-1.8,5.8-2.4c5.4-1.9,10.8-3.8,16.3-5.6c2.1-0.7,2.9-1.8,2.7-4c-0.3-3-0.4-6.1-0.6-9.3c2.7-0.4,4.9,0.6,7,1.7
			c2.5,1.3,1.8,4.3,3.4,6.5c0.8-0.1,1.7-0.2,2.6-0.5c4.6-1.4,9.1-3,13.7-4.4c8.3-2.4,16.6-4.5,25.2-5.2c2.6-0.2,5.3,0.5,7.9,1.1
			c0.9,0.2,1.7,1.1,2.3,2.4c-2,0.3-4,0.5-6,0.8c-11.3,1.2-22.1,4.6-32.9,7.7c-3.4,1-6.7,2.4-10.1,3.5c-2.1,0.7-3,1.8-2.7,3.9
			c0.9,7.1,1.8,14.3,2.6,21.4c0.5,4.9,1.8,9.5,3.7,14C81.1,177.4,82,179.9,85,181.7z M139,167.2c-0.2,2.4-0.4,4.8,1.7,6.6
			c2.7,2.4,5.4,4.8,8.3,7c1.8,1.4,3.6,0.9,4.4-1.2c0.5-1.4,0.7-3,1-4.5c1.2-8.2-0.5-16.2-2.7-24.1c-0.5-1.9-1.3-3.8-2.3-5.5
			c-1-1.8-2.5-1.9-3.9-0.4c-1,1.1-1.9,2.5-2.5,3.9C140.2,154.8,139.1,160.9,139,167.2z M115.2,160.8c-2.7-0.7-5.3-1.1-7.7-2
			c-2.3-0.9-4.5-2.2-6.7-3.3c-0.3,0.6-0.5,0.8-0.5,1c-0.4,8.8,0.1,17.5,2,26c0.9,4,2.3,8.3,7,10.1
			C114.2,188.7,117.6,170.3,115.2,160.8z M103.4,145.5c-1.8,3-1.3,5.6,1.3,8c3.3,3.1,5.1,3.5,8.4,1.5
			C111.5,150.3,108.1,147.4,103.4,145.5z"/>
		<g>
			<path fill="#FFFFFF" stroke="#FFFFFF" stroke-width="1.1705" stroke-miterlimit="10" d="M313.7,122.1c6,1,8.4,3.3,8.7,8.3
				c0.2,3.8,0.2,11,0.4,14.7c0.1,2.4,0.2,4.9,0.3,7.3c0,0.5,0.3,0.9,0.4,1.4c2.1-1.3,7.2-8.2,8.9-12.5c1.8-4.5,4.7-8.8,4.1-13.9
				c7.1,2,8,4.1,5.8,9.6c-3.5,8.8-8.6,16.9-14.4,24.7c-1.1,1.5-2.2,3.1-3.3,4.7c-1.5,2.2-1.2,2.3,1.2,3.7
				c11.7,6.4,21.8,14.7,32.1,22.7c1.2,0.9,2.4,1.8,3.8,2.9c0.3-0.7,0.5-1,0.5-1.3c-0.1-4.1-0.3-6.5-0.5-10.6
				c-0.1-3.5-0.2-7-0.2-10.6c0-6.8,0.1-13.6,0-20.4c-0.1-5.7-0.6-14.3-0.9-20.1c3.4-0.8,6.8,1.4,7.2,5c0.4,3.8,0.8,7.5,0.9,11.3
				c0.2,9.2,0.3,21.4,0.5,30.6c0.1,3.3,0.4,6.5,0.7,9.8c0.3,3.7,0.6,7.4,0.9,11.1c0.1,1.3,0.1,2.7-0.1,4c-0.2,1.5-1.2,2.1-2.8,1.6
				c-1.5-0.6-3.1-1.3-4.3-2.3c-3.8-3.2-7.3-6.8-11.2-10c-5.3-4.3-10.8-8.4-16.3-12.4c-3.6-2.6-7.4-4.8-11.5-7.4
				c-0.2,1-0.4,1.5-0.4,2c0.2,6.3,0.6,12.6,0.8,18.9c0.1,3,0,6-0.1,9.1c0,1.3-0.2,2.6-1.6,3.2c-1.1,0.5-3.6-0.4-4.5-1.6
				c-0.5-0.7-1-1.5-1-2.3c-0.2-3.9-0.2-7.9-0.4-11.8c-0.1-2.1-0.3-0.4-0.5-2.9c-2.6,0.6-4.8,1.2-7,1.6c-5.6,1.1-11.2,2.3-16.9,3.3
				c-5.3,0.9-9.6-1-13-4.6c-0.5-0.5-0.7-1.4-0.8-2.1c-0.2-4.3-0.4-12.3-0.5-16.6c-0.2-6.4-0.2-12.9-0.4-19.3
				c-0.1-4.9-0.2-19-0.4-23.9c-0.1-2.2-0.6-4.3-0.9-6.5c-0.1-0.5-0.1-0.9-0.1-1.4c4.7,0,8.3,2.7,8.6,6.8c0.5,5.9,0.8,21.2,1,27.2
				c0.3,8.3,0.3,20.3,0.5,28.6c0.1,2.5,0.5,4.9,0.8,7.8c4.3-0.8,8.3-1.4,12.2-2.2c5.3-1.1,10.5-2.3,16-1.4c0.3,0,0.5-0.1,0.9-0.1
				c0.2-1.4,0.5-6.5,0.5-7.9c0-2.3-0.1-4.7-0.4-7c-0.3-1.9-0.7-11.8-0.9-15c-0.2-4.3-0.2-8.6-0.5-12.8c-0.2-4.8-0.6-13-1-17.7
				C314.6,124.4,314.1,123.4,313.7,122.1z"/>
			<path fill="#FFFFFF" stroke="#FFFFFF" stroke-width="1.1705" stroke-miterlimit="10" d="M459,169.2c-3.2,1.2-6.2,2.2-9.1,3.4
				c-3.3,1.4-6.2,0.3-9.4-1.2c0.7-0.4,1.1-0.7,1.6-0.9c5.3-2.2,10.6-4.4,16-6.5c2.9-1.1,5.7-0.1,8.4,0.9c0.6,0.2,1,1,1.2,1.6
				c0.3,0.9,0.4,1.8,0.4,2.7c-0.2,3.6,0.3,30.4,1.3,33.6c1.9,6.1,2.7,12.2,1.3,18.4c-0.3,0.1-0.5,0.3-0.8,0.4
				c-4.9,0.7-5.6,0.5-6.9-3.8c-0.9-3.1-1.3-6.4-1.8-9.6c-0.2-1.2-0.2-2.4-0.4-3.9c-0.9,0.3-1.5,0.3-1.9,0.6c-4,2.2-8.5,2.3-12.9,1.6
				c-6.7-1.2-11.8-2.7-15.4-7.9c-2.9-4.1-4.1-6-5.3-10.6c-0.7-2.7-1.3-5.4-1.7-8.2c-0.5-3.6-1-9.2-1.1-12.8
				c-0.2-6.8,0.7-13.6,3.1-20.1c1.4-3.8,2.9-7.4,5.2-10.8c1.6-2.3,2.9-4.7,4.4-7c0.7-1.1,1.6-2,2.4-2.9c15.1-6.8,18.5,3.3,21,9.2
				c1.8,4.3,1.9,8.9,1.3,13.4c-0.2,1.7-0.8,2-2.6,1.9c-2.5-0.3-4.2-2-4.1-4.3c1.1-10.4-2.7-20.4-10.8-13.3c-1.5,1.4-1.5,1.4-2,2.1
				c-4.4,6.7-7.8,13.7-9.4,21.4c-1.5,7.3-0.9,14.5-0.7,21.8c0.3,7.2,2.3,11.3,5.7,17.8c1.4,2.6,3.5,4.8,6,6.6
				c1.7,1.2,3.5,1.5,5.6,0.8c4.2-1.5,7.7-3.9,11-6.6c0.7-0.6,1-1.8,1-2.7c0.1-6.3,0-9.8,0-16.1c0-2.6-0.1-5.2-0.3-7.8
				C459.4,170.1,459.2,169.8,459,169.2z"/>
			<path fill="#FFFFFF" stroke="#FFFFFF" stroke-width="1.1705" stroke-miterlimit="10" d="M404.4,125.8c0.9,2.9,1.9,5.7,2.6,8.5
				c1.4,5.1,2.8,13.2,3.9,18.4c1,4.9,1.6,9.8,2.2,14.7c0.6,5.2,1.2,10.3,1.6,15.5c0.2,3.2-0.1,6.4-0.2,9.6c-0.1,2-0.1,4-0.2,6
				c-0.2,3.5-2.1,4.6-5.9,3.5c-2.8-0.8-4.5-2.6-5.6-5c-1.9-4.4-3.8-8.8-5.8-13.1c-2.8-6.1-5.6-12.1-8.4-18.2
				c-0.1-0.2-0.4-0.4-0.9-0.8c-0.6,3.5,0,6.7,0.1,9.8c0.1,3.3,0.3,6.7,0.4,10c0.2,3.3,0.3,6.5,0.5,9.8c0.2,3.2,0.5,6.5,0.7,9.6
				c-4.2,1.8-8-0.5-8.2-4.4c-0.5-9.1-0.9-18.1-1.5-27.2c-0.4-6.1-1.2-12.2-1.5-18.3c-0.1-3-0.6-8.8-1.4-11.6
				c-0.2-0.6-0.2-1.2-0.3-1.7c-0.2-2.3-0.4-4.6-0.6-6.9c5.3,0.1,7.6,1.8,9.6,6.5c2.4,5.8,5.1,14.5,7.8,20.3
				c3.5,7.4,7.2,14.8,10.9,22.2c0.6,1.2,1.1,2.5,1.7,3.7c0.2,0.3,0.5,0.6,1.4,0.8c0-0.9,0.2-1.7,0.1-2.6c-0.8-10.8-9-53-8.7-56.8
				C399.3,125.6,404.4,125.8,404.4,125.8z"/>
			<path fill="#FFFFFF" stroke="#FFFFFF" stroke-width="1.1705" stroke-miterlimit="10" d="M259,171.5c-4.4,0.8-8.4,1.6-12.7,2.4
				c-0.2,1.8-0.6,3.8-0.7,5.8c-0.3,4.7-0.4,9.4-0.8,14.1c-0.2,2.6-1.9,3.3-4.3,1.7c-0.8-0.5-1.4-1.1-2.1-1.6c-0.9-0.6-1.1-1.4-1-2.4
				c0.5-5.6,0.8-11.2,1.3-16.8c0.6-6.9,2.1-13.6,3.5-20.3c1.4-6.9,2.2-13.9,3.2-20.9c0.3-2.2,0.5-4.3,0.8-6.5
				c0.2-1.8,1.6-2.4,3.4-1.5c2.6,1.3,4.3,3,4.9,5.8c2.3,10,4.8,20,7.2,30c0.3,1,0.7,2.1,1.2,3.3c1.5-0.2,3-0.3,4.5-0.6
				c3.1-0.7,6-0.1,8.9,0.8c0.3,0.1,0.5,0.4,1.1,1c-4.5,1.2-8.8,2.4-13.1,4c1.9,4.7,3.7,9.1,5.6,13.4c2.2,5.1,4.6,10.1,6.9,15.2
				c0.6,1.2,1,2.5,1.4,3.8c0.4,1.4-0.5,3.1-2,3.4c-0.4,0.1-1.1-0.2-1.4-0.5c-0.6-0.6-1-1.2-1.3-1.9c-4.7-9.3-9.3-18.7-13-28.4
				C259.8,173.5,259.4,172.5,259,171.5z"/>
			<path fill="#FFFFFF" stroke="#FFFFFF" stroke-width="1.1705" stroke-miterlimit="10" d="M188.8,115.4c0.5-0.2,1-0.4,1.5-0.5
				c7.1-1.2,14.2-2.6,21.4-3.6c4.2-0.6,8.5-0.6,12.7-0.7c3.9-0.1,7.7-0.2,11.6,0c5.6,0.3,11.1,1,15.9,3.9c0.6,0.4,1.2,0.8,1.8,1.3
				c-0.7,0.9-1.4,0.9-2.5,0.6c-1.4-0.4-2.8-0.8-4.3-1c-6.9-0.8-13.7-0.8-20.6-0.3c-2.3,0.2-4.7-0.2-7,0.8c2.4,5.7,0.9,11.6,1,17.4
				c0.4,17.1,0.7,33.9,2.1,51c0.4,4.1,0.4,8.3,0.3,12.5c0,1.8-0.9,2.2-2.8,1.6c-2.1-0.6-3.9-1.6-4.1-3.9c-0.4-3.9-1-7.8-1.3-11.8
				c-0.4-5.2-0.6-10.4-0.8-15.6c-0.3-6.4-0.5-12.7-0.8-19.1c-0.4-9.6,0.2-19.3,0.7-28.9c0-0.7-0.1-1.3-0.2-2.1
				c-1.9-0.8-3.7,0-5.5,0.2c-3.4,0.4-6.7,1.1-10,1.7C194.2,119.7,191.2,118.6,188.8,115.4z"/>
		</g>
		<g>
			<path fill="#FFFFFF" d="M238.5,19.9c0,4-0.2,8,0,11.9c0.3,5.4,1,10.9,1.5,16.3c0.5,5.3,1.3,10.5,2.6,15.7
				c0.7,2.7,1.1,5.5,1.9,8.2c1.2,3.8,4.1,6.2,7.8,8.2c1.1-1.6,2.2-3.1,3.3-4.7c1.1,1.3,1.2,2.9,1.6,4.3c0.1,0.3-0.4,0.9-0.8,1.3
				c-1.1,1.1-2.6,1.2-4,1c-7.8-1-15-6.3-16.6-14.6c-0.5-2.6-0.9-5.2-1.4-7.8c-0.2-0.8-0.4-1.5-0.7-2.3c-1.9,2.4-3.7,4.5-5.4,6.8
				c-3.1,4.4-7.2,4.9-11.6,3.1c-1.8-0.7-3.6-1.4-5.4-2.4c1.6-0.6,3.3-0.9,5-0.5c0.4,0.1,0.9,0.3,1.3,0.4c2.2,0.6,3.2,0.2,4.4-1.7
				c1.8-2.8,2.4-5.7,0.4-8.7c-1.5-2.2-2.9-4.5-4.3-6.7c-0.6-1-1.2-1.9-1.8-2.9c-0.4-0.7-1-1.3-1.4-1.9c-0.2,0-0.4,0.1-0.5,0.1
				c-0.1,0.8-0.2,1.7-0.4,2.5c-1.2,3.5-2.3,7-3.6,10.5c-1.1,3.1-2.7,5.9-4.8,8.5c-1.6,2-3.1,2.5-5.6,1.9c-2.9-0.7-5.4-2.1-7-4.7
				c-1.4-2.2-2.7-4.6-4-6.8c-0.1-0.2-0.3-0.5-0.6-1c-0.5,1.5-1,2.8-1.3,4c-0.7,2.5-2.2,4.5-4.1,6.1c-2.4,2.1-5.3,2-8.1,1.3
				c-1.3-0.3-2.6-0.9-3.8-1.5c-2-1.1-2.9-3.1-3.4-5.2c-0.7-3-1.3-6.1-1.9-9.1c-0.1-0.6-0.3-1.1-0.8-1.7c-0.3,0.8-0.6,1.5-0.8,2.3
				c-0.9,3.2-1.8,6.4-2.8,9.6c-0.4,1.2-0.3,2.3,0.1,3.3c1.7,4.2,2.4,8.6,3.2,13c0.8,4,1.1,8.1,0.3,12.2c-0.4,2.3-1.7,4.1-3.4,5.5
				c-1.1,0.9-2.9,0.9-4.8,1.4c0.5-1.4,1-2.3,1.2-3.2c0.9-3.6,0.1-7.1-0.3-10.6c-0.2-1.9-0.7-3.8-1-5.7c-0.2,0-0.3,0-0.5,0
				c-0.4,1.2-0.8,2.4-1.2,3.6c-0.7,2.2-1.4,4.3-2,6.5c-0.3,1-0.5,2.1-0.5,3.1c0,2.5,0.6,4.7,3.3,5.7c-2,0.6-4.3-0.5-4.7-2.2
				c-0.4-1.8-0.7-3.6-0.3-5.4c1.3-5.2,2.6-10.4,3.9-15.6c0.2-0.8,0.2-1.7,0-2.4c-3-10.1-6-20.2-9-30.2c-0.5-1.7-1-3.3-1.6-5.2
				c1.8-0.4,3.4-0.8,5-1c1.7-0.2,2.9,0.7,3.4,2.4c1.9,5.7,3.7,11.4,5.5,17.1c0.3,0.9,0.6,1.7,0.9,2.6c0.1,0.2,0.2,0.4,0.3,0.6
				c0.2,0,0.3-0.1,0.5-0.1c0.4-1.5,0.8-3,1.3-4.5c0.8-2.7,1.6-5.5,2.5-8.2c0.7-2.1,1.1-4.2,1-6.5c-0.1-3.3,0-6.5,0-10
				c1.5-0.3,2.9-0.6,4.3-0.8c2.3-0.2,3.4,0.8,3.5,3.1c0.1,2.3,0,4.6,0.2,6.8c0.3,4.9,0.4,9.8,0.9,14.7c0.4,3.6,1.2,7.1,2,10.7
				c0.2,0.9,0.7,1.9,1.2,2.7c0.6,0.9,1.3,1,2,0.2c0.7-0.8,1.5-1.8,1.9-2.8c1.1-2.8,2.2-5.6,3.1-8.5c1-3.3,2-6.7,2.6-10.1
				c0.6-3.2,0.7-6.5,1-9.7c0.2-2.4,0.3-4.8,0.5-7.4c1.9,0,3.6-0.1,5.3,0c1.4,0.2,1.7,0.8,1.7,2.5c-0.2,3-0.4,6-0.5,9.1
				c-0.2,5.2,0,10.3,1.1,15.4c0.5,2.3,0.9,4.6,1.7,6.8c0.9,2.7,2.7,4.6,4.7,5.9c0.6-0.9,1.4-1.7,2-2.6c3.4-5.5,5.4-11.5,6.9-17.7
				c0.4-1.5,0.5-3,0.6-4.5c0.2-2.1-0.4-4-1.2-5.9c-1-2.4-1.7-4.8-2.5-7.3c-0.2-0.8-0.1-1.6-0.2-2.7c1.1-0.1,2.1-0.2,3-0.2
				c2.7,0.1,3.1,0.6,3.6,3.1c0.9,4.6,2.7,8.8,5.3,12.7c2.8,4.3,5.7,8.6,8.6,12.8c0.9,1.3,1.7,2.6,2.7,4.2c1.4-2,2.2-4,2.2-6.2
				c0-3.6-0.3-7.3-0.5-10.9c0-0.3-0.2-0.6-0.1-0.9c0.7-5.5-1.6-10.6-2.5-15.8c0-0.2-0.2-0.4-0.4-0.8c-3.8,0.9-7.7,1.7-11.2-1
				c3.6-0.7,7.2-1.3,11-2c0.2-1.9,0.5-3.7,0.7-5.5c0.2-1.8,0.3-3.6,1.4-5.5c1.6,0.3,3.3,0.6,5,1.1c1,0.3,1.7,1,1.5,2.2
				c-0.1,0.7,0,1.4-0.1,2c-0.3,1.7,0.2,3,1.5,4c5.5-0.4,11.1-0.9,16.7-1c4.4-0.1,8.8,0.1,13.2,0.2c1,0,2,0.4,3.3,1.3
				c-0.9,0.3-1.4,0.7-2,0.7c-2,0.1-3.9,0.2-5.9,0.2c-8-0.1-16.1,0.5-24.1,1.1C239.5,19.5,239.1,19.8,238.5,19.9z"/>
			<path fill="#FFFFFF" d="M148.1,18.5c-1.6,2.6-5.4,2.4-8.2-0.5c0.6-0.8,1.7-1.3,2.2-0.8c1.5,1.2,3.1,0.7,4.7,0.8
				C147.3,18.1,147.7,18.3,148.1,18.5z"/>
		</g>
	</g>
</g>
<g id="page_elelments" display="none">
</g>
</svg>
