<?xml version="1.0" encoding="utf-8"?>
<!-- Generator: Adobe Illustrator 18.1.1, SVG Export Plug-In . SVG Version: 6.00 Build 0)  -->
<svg version="1.1" id="Layer_1" xmlns="http://www.w3.org/2000/svg" xmlns:xlink="http://www.w3.org/1999/xlink" x="0px" y="0px"
	 viewBox="14.7 210.3 1169.1 429.3" enable-background="new 14.7 210.3 1169.1 429.3" xml:space="preserve">
<g id="Layer_4" display="none">
	
		<linearGradient id="SVGID_1_" gradientUnits="userSpaceOnUse" x1="338.3" y1="444.6" x2="338.3" y2="1058" gradientTransform="matrix(1.7647 0 0 -1.7647 0 1695.5883)">
		<stop  offset="0" style="stop-color:#EC008C"/>
		<stop  offset="1" style="stop-color:#00AEEF"/>
	</linearGradient>
	<polygon display="inline" opacity="0.5" fill="url(#SVGID_1_)" enable-background="new    " points="2381.1,908.4 -1187.1,911 
		-1187.1,-169 2381.1,-171.5 	"/>
	<polygon display="inline" opacity="0.2" fill="#12ACEF" enable-background="new    " points="2381.1,908.4 -1187.1,911 
		-1187.1,-165.8 2381.1,-168.5 	"/>
</g>
<g id="Layer_1_1_" display="none">
	<g display="inline">
		<polygon opacity="0.4" fill="#EA0091" enable-background="new    " points="230.1,795.4 1512,647.4 863.6,499.5 		"/>
		<polygon opacity="0.1" fill="#12ACEF" enable-background="new    " points="2114.6,219.4 2082.2,324.9 853.8,589.8 1318.9,129.8 
					"/>
		<polygon opacity="0.29" fill="#FFFFFF" enable-background="new    " points="1943.8,638.2 2189.8,508.3 2157.9,382.1 1882.8,83.9 
			805.1,614 		"/>
		<polygon opacity="0.2" fill="#FFFFFF" enable-background="new    " points="-509.1,690.6 -359.1,151.1 -78.5,73.8 697.6,718.8 		
			"/>
		<polygon opacity="0.41" fill="#12ACEF" enable-background="new    " points="851.8,403.6 1864.8,202.8 2070.5,296.2 2070.5,600.8 
					"/>
		<polygon opacity="0.1" fill="#FFFFFF" enable-background="new    " points="-312.2,715.3 846.9,201.6 1833.5,699.1 		"/>
		<polygon opacity="0.14" fill="#12ACEF" enable-background="new    " points="128.5,742.3 1171.8,152.2 1825.6,638.2 		"/>
		<polygon opacity="0.33" fill="#12ACEF" enable-background="new    " points="570.5,492.1 1676.5,140.7 1955.3,549.1 		"/>
		<polygon opacity="0.4" fill="#12ACEF" enable-background="new    " points="-940.9,218.7 -656.6,66.8 207.5,486.1 -892.1,386 		
			"/>
		<polygon opacity="0.1" fill="#12ACEF" enable-background="new    " points="289.1,174.2 -888.4,660.2 1414.2,805.3 		"/>
		<polygon opacity="0.25" fill="#12ACEF" enable-background="new    " points="-881.3,213.1 -788.8,406.1 731.6,578.4 44.1,191 		
			"/>
		<polygon opacity="0.25" fill="#12ACEF" enable-background="new    " points="-195.9,632.9 829.8,615.9 -312.2,201.6 		"/>
		<polygon opacity="0.35" fill="#EA0091" enable-background="new    " points="-476.3,647.4 748.8,809.9 -99.2,284 		"/>
		<polygon opacity="0.26" fill="#12ACEF" enable-background="new    " points="-689.8,690.8 173.6,382.5 -888.4,308 		"/>
		<polygon opacity="0.25" fill="#EA0091" enable-background="new    " points="-1010.6,789.4 -825,306.4 883.4,624.6 		"/>
		<polyline opacity="0.1" fill="#EA0091" enable-background="new    " points="-67.1,633.1 673.6,391.8 1090.4,610.3 870.9,767.7 
			231.9,793.8 -118.9,702.2 -79.1,633.1 		"/>
		<polygon opacity="0.25" fill="#EA0091" enable-background="new    " points="2268.9,663.2 2027.6,191 364.9,735.4 		"/>
		<polygon opacity="0.2" fill="#EA0091" enable-background="new    " points="-47.1,686.5 1025.8,348.8 1551.4,537.6 1256.5,707.7 
			223.9,793.5 -148.4,713.2 		"/>
		<polygon opacity="0.38" fill="#EA0091" enable-background="new    " points="387.9,818.4 1676.5,685.5 1172.5,429.6 		"/>
		<polygon opacity="0.4" fill="#12ACEF" enable-background="new    " points="17.1,789.1 440.6,358.1 1650.4,691.5 		"/>
		<polygon opacity="0.35" fill="#12ACEF" enable-background="new    " points="-77.5,382.6 -465,610.5 467.5,893 		"/>
		<polygon opacity="0.23" fill="#12ACEF" enable-background="new    " points="-888.4,826.8 129,893.4 -426.5,393.6 		"/>
		<polygon opacity="0.38" fill="#EA0091" enable-background="new    " points="675.4,868.3 1940.6,789.4 1165.9,534.1 		"/>
		<polygon opacity="0.2" fill="#12ACEF" enable-background="new    " points="2158.2,742.3 1521.2,358.1 701.5,776.9 		"/>
		<polygon opacity="0.4" fill="#EA0091" enable-background="new    " points="395.3,905.9 -204.5,517.8 -332.1,620 -469.9,905.9 		
			"/>
		<polygon opacity="0.38" fill="#EA0091" enable-background="new    " points="1009.9,905.9 626.5,649.8 251.3,905.9 		"/>
		<polygon opacity="0.2" fill="#EA0091" enable-background="new    " points="2067.9,905.9 1945.2,645.4 1719,563.9 1152.4,905.9 		
			"/>
		<polygon opacity="0.29" fill="#EA0091" enable-background="new    " points="1446.4,905.9 1871.5,846.4 1541.1,527.7 
			1175.5,905.9 		"/>
	</g>
</g>
<g id="Layer_5" display="none">
</g>
<g id="lettering">
	<g>
		<path fill="#FFFFFF" stroke="#FFFFFF" stroke-width="1.0961" stroke-miterlimit="10" d="M729.2,452.2c3.4-1.9,6.7-1.6,10.2-1.2
			c2.5,0.4,3.5,2.1,3.9,4.1c0.7,2.8,1.2,5.6,1.6,8.5c0.9,6,1.6,12.2,2.3,18.2c0.2,2.1,0.5,4.2,2.5,6.4c0.4-1.1,0.9-1.6,0.9-2.1
			c0.2-2.8,0.4-5.6,0.7-8.5c0.2-1.4,0.4-3,0.7-4.4c1.9-7.4,4.1-14.8,5.6-22.2c0.4-1.9-0.2-4.2,1.1-6.7c1.8-0.2,3.9-0.7,6-0.7
			c2.6,0,5.1,0.7,6.2,3.4c1.1,2.5,3.2,4.1,5.3,5.5c1.8,1.2,2.8,0.5,3.2-1.4c0.7-3.4,1.8-6.5,2.6-9.9c0.2-0.7,0.7-1.2,0.7-1.9
			c0.5-5.1,3.7-9.4,6.4-13.9c1.9-3.5,3.9-4.2,8.1-3.7c2.5,0.4,4.8,0.5,7.1,1.1c5.3,1.2,7.9,4.9,9.4,9.2c1.4,4.8,1.2,9.7-0.2,14.5
			c-1.2,4.1-4.1,7.2-8.5,9.2c-4.2,1.9-8.3,3.7-13.2,3.5c-2.6,0-3.5,0.7-3.7,3.2c-0.4,5.5-0.9,10.9-0.2,16.2
			c0.9,8.1,2.3,16.2,5.8,23.8c2.6,6,5.8,11.6,11.8,15.7c4.4,3,9.2,4.6,14.6,4.6c6,0,10.8-2.6,14.8-6.2c3.9-3.4,7.2-7.2,9.2-12
			c0.2-0.5,0.7-0.9,1.2-1.6c0.7,0.7,1.4,1.2,1.6,1.9c0.5,1.9,0.9,4.1,1.2,6c0.5,2.3-0.4,4.2-1.9,6c-4.8,6.5-12,8.8-20.1,9.5
			c-9.4,0.7-18.4-1.6-26.8-4.9c-4.8-1.8-8.3-4.9-10.9-9c-3.5-5.5-6.4-11.1-8.1-17.1c-1.9-6.7-3-13.6-3.2-20.5c0-3.2,0.4-6.5,0.5-9.7
			c0-1.4,0-2.6,0-4.1c0-3-1.6-4.9-4.6-5.8c-1.6-0.5-3-1.1-5.1-1.6c-0.5,1.2-1.2,2.3-1.6,3.4c-1.1,4.4-1.9,8.8-2.6,13.2
			c-1.1,7.6-2.3,15.4-2.6,22.9c-0.7,11.3-0.9,22.6-1.1,33.9c0,3.4,0.2,6.9,0.2,10.2c0,3.2-1.1,4.2-4.6,4.4c-0.9,0-1.8,0-2.6-0.2
			c-3.2-0.4-5.1-1.8-5.8-4.8c-1.1-4.6-2.3-9-3.5-13.6c-1.9-7.2-3.7-14.6-5.5-21.9c-0.9-3.5-1.2-6.9-1.9-10.4
			c-0.4-1.4-0.9-2.8-1.4-4.9c-1.6,2.1-2.1,3.7-2.6,5.3c-1.2,5.3-2.1,10.8-3.4,16.1c-1.9,7.8-2.8,15.9-4.2,23.8
			c-0.4,1.9-1.1,3.7-2.1,5.3c-0.7,1.1-2.1,1.9-3.5,2.3c-3,0.7-6,0.2-9-0.7c-1.1-0.4-2.1-1.4-2.8-2.5c-0.7-1.2-1.1-2.8-1.4-4.2
			c-1.2-8.1-2.3-16.2-3.4-24.4c-1.2-8.1-2.5-16.2-3.9-24.2c-1.1-6.5-2.5-12.9-3.7-19.2c-0.4-1.9-0.5-4.1-1.1-6
			c-1.4-6.5-2.8-13.1-4.4-19.6c0-0.4,0-0.7-0.2-1.4c3.4-1.1,6.9-1.1,10.2-0.5c2.1,0.4,3.5,1.4,4.1,3.4c0.7,3.5,1.8,7.2,2.5,10.8
			c2.3,12.2,4.4,24.5,6.5,36.7c0.7,4.2,1.4,8.6,2.1,12.9c0.2,1.1,0.7,1.9,1.2,3.9c3.7-9,5.3-17.5,7.4-25.9
			C725.6,469.3,728.3,461,729.2,452.2z M801,428c-0.9,0.7-1.6,0.9-1.9,1.4c-5.1,6.7-8.3,14.1-9.5,22.2c0,0.5,0.5,1.1,0.9,1.8
			c5.5-2.1,10.4-4.6,11.5-10.2C802.8,438.2,804.4,433.3,801,428z"/>
		<path fill="#FFFFFF" stroke="#FFFFFF" stroke-width="1.897" stroke-miterlimit="10" d="M397.6,264.1c-1.1,2.6-1.2,5.1-1.4,7.6
			c-0.5,5.8-1.1,11.6-1.6,17.5c-1.1,9.4-1.1,18.5-0.7,27.9c0.2,4.4,0.9,8.6,1.2,13.1c0.2,2.3-0.2,4.4-1.1,6.5
			c-0.9,1.8-2.1,3.2-4.2,3.2c-2.3,0.2-4.4,0-6.7,0c-1.1,0-1.8-0.7-2.3-1.6c-5.1-6.9-8.8-14.3-11.1-22.6c-1.4-5.3-3-10.4-4.6-15.7
			c-0.4-0.9-0.7-1.8-1.4-3.2c-0.5,1.2-1.1,1.8-1.2,2.5c-1.1,7.1-2.1,13.9-3,21c-0.5,3.9-0.4,7.9-0.7,11.8c-0.2,1.6-0.4,3.2-0.7,4.8
			c-0.7,3.2-2.8,4.8-6,5.3c-0.2,0-0.2,0-0.4,0c-8.1,0.7-10.6,0.2-14.1-8.1c-3.4-8.1-6.4-16.4-8.8-24.9c-1.6-5.3-2.6-10.9-3.5-16.4
			c-1.2-7.4-2.1-14.8-3-22.1c-0.9-6.5-1.6-13.1-2.5-19.6c-0.4-2.6-0.9-5.1-1.4-7.8c-0.2-1.2-0.2-2.6-0.4-3.9
			c2.5-1.6,5.1-1.6,7.6-1.6c2.6,0,4.1,1.1,4.6,3.5c0.7,2.8,1.1,5.8,1.4,8.8c1.2,9.2,2.3,18.5,3.5,27.7c0.5,4.4,1.2,8.8,1.8,13.2
			c0.7,5.8,1.9,11.5,3.5,17.1c1.4,4.9,3,9.9,4.8,14.8c0.5,1.4,1.2,2.8,2.1,4.4c1.6-0.9,1.4-2.1,1.6-3c0.5-9.5,2.3-18.9,3.9-28.4
			c1.1-6.2,1.4-12.5,2.1-18.9c0.4-3.7,0.5-7.4,0.7-11.1c0.2-1.9,0-3.7-0.2-5.6c0-1.2,0.4-2.3,1.6-2.6c1.9-0.5,3.9-1.1,5.8-1.4
			c2.1-0.4,2.8,0.2,3.2,2.1c1.1,4.2,1.9,8.5,2.8,12.7c1.1,5.1,2.1,10.4,3.4,15.7c2.1,8.5,4.2,16.9,6.5,25.2
			c1.1,3.9,2.5,7.6,3.9,11.3c0.2,0.5,0.9,1.1,1.2,1.6c1.2-0.9,1.1-2.1,1.1-3.2c0-3.9-0.2-7.9-0.2-11.8c-0.2-9,0.5-18.2,1.4-27.2
			c0.5-6.4,1.4-12.5,1.9-18.9c0.2-1.9-0.2-3.9-0.4-6c1.6-1.6,3.9-1.9,6-2.3c1.4-0.2,2.6,0.2,3.5,1.6c0.5,0.9,1.4,1.6,2.3,2.3
			c1.9-0.9,1.9-2.6,2.3-3.9c0.9-3.4,2.1-6.2,4.4-8.8c1.4-1.6,3-2.5,4.9-3.2c3.5-1.2,7.2-1.6,10.9-1.1c4.2,0.5,6.7,3,7.8,7.1
			c0.7,2.5,0.9,5.1,1.2,7.8c0.2,1.4-0.2,2.5-1.2,3.4c-0.7,0.5-1.4,1.1-2.1,1.4c-4.2,1.9-8.3,3.7-13.1,3.7c-4.4,0-4.8,0.2-4.8,4.6
			c0,6,0.5,12,1.8,17.6c1.4,6,3.2,12,5.1,17.8c1.8,5.1,4.1,10.1,8.6,13.6c3.7,2.8,7.4,3.2,10.9,0.2c3.9-3.4,7.4-7.1,10.8-10.8
			c2.5-2.6,4.2-5.8,5.3-9.4c0.4-0.9,1.1-1.6,1.6-2.5c2.5,0.9,3.4,2.6,4.6,4.4c0.5,0.9,0.7,2.1,0,3.2c-1.1,1.8-1.9,3.7-3.2,5.5
			c-3.9,5.5-9,9.5-15,12.5c-5.1,2.5-10.4,3-16.1,2.5c-1.4-0.2-2.6-0.4-4.1-0.5c-2.3-0.5-4.4-1.8-6-3.7c-4.1-4.9-6.5-10.6-8.1-16.6
			c-1.2-4.6-2.5-9.4-3.5-14.1c-0.5-2.8-1.1-5.6-1.2-8.5c-0.4-4.8-1.9-9.2-1.4-14.1C400.6,266.4,400.4,264.4,397.6,264.1z
			 M410.8,262.3c3.2,0.7,5.5-0.5,7.6-1.6c0.7-0.4,1.2-1.2,1.4-1.9c0.5-3.4,0.4-6.9-0.5-10.2c-0.2-1.1-0.9-1.9-2.3-2.1
			C412.2,250.6,411.4,256.1,410.8,262.3z"/>
		<g>
			<path fill="#FFFFFF" d="M630.7,582.4c-0.2-2.8-0.2-5.8-0.4-8.6c-0.4-10.1-0.9-19.9-1.2-30c-0.5-10.4-1.2-20.6-1.2-31.1
				c0-13.4,2.1-41.1,2.6-54.5c0.2-2.8,0-5.5-2.3-7.6c-3-2.8-6-5.6-9.2-8.5c-5.6-5.1-11.1-4.6-15.5,1.8c-5.1,7.4-10.1,28.1-12.9,36.5
				c-2.3,6.9-4.9,15.2-7.6,21.9c-1.4,3.5-3,7.1-6.2,9.9c0-4.8,0.4-9.4,0.7-14.1c1.1-12.4,2.5-24.7,1.2-37.1
				c-0.7-6.5-3.9-10.8-10.4-12.4c-1.4-0.4-3.5,0-4.4,0.9c-3.2,3.2-6.5,6.4-9,10.2c-3.4,4.9-6,10.4-9.2,15.5
				c-0.5,1.1-1.2,1.9-2.6,3.9c-0.7-3.9-1.2-6.4-1.8-9c-0.9-6.9-1.8-13.8-2.8-20.6c-1.1-7.6-5.6-11.5-13.6-12
				c-0.2,0.4-0.5,0.5-0.5,0.9c-2.1,12.5-4.4,25.1-6,37.8c-1.2,9.7-2.3,22.2-5.1,31.4c-0.9,2.8-2.3,5.5-3.5,8.3c-1.2-1.6-3-6.4-3-7.8
				c0-7.8,0-15.7,0.4-23.5c0.2-7.8,0.9-15.7,1.1-23.5c0-1.9-0.2-4.2-1.2-5.6c-3.4-4.1-8.1-5.5-13.6-7.4c-0.7,3.9-1.1,6.9-1.6,9.9
				c-1.6,9-2.8,18-4.9,26.8c-2.6,10.2-8.5,19.2-14.1,28.1c-1.8,2.6-4.2,4.8-7.1,7.9c-0.7-3.4-1.2-5.3-1.4-7.4
				c-0.7-7.4-1.2-14.8-1.8-22.2c-0.7-13.2,0.5-35.5-10.4-42.9c-3.5-2.5-7.1-5.3-12-5.5c-3.7,0.2-13.9,33.7-16.9,38.5
				c-0.5-10.2,4.9-44.3,8.5-53.8c7.9-0.7,15.2,3.9,23.3,1.8c-1.4-0.7-2.6-1.8-4.1-2.1c-4.6-1.4-9-2.6-13.8-3.7
				c-5.3-1.2-5.3-1.1-5.5-6.4c-0.4-9.5-0.4-18-5.3-26.1c-1.9-3.2-4.2-4.8-8.5-4.9c-1.9,5.3-4.2,10.8-5.8,16.2
				c-1.6,5.6-2.6,11.6-4.1,17.6c-7.1-0.2-13.6-0.2-20.6-0.4c0.2-6.7,0-12.7,0.4-18.7c0.2-3.7-1.2-6.5-4.1-8.3
				c-2.5-1.6-5.3-2.6-8.8-4.4c-0.7,8.8-1.4,16.6-2.1,24.4c-0.5,6.5-1.4,7.4-8.1,7.1c-8.3-0.4-16.8-0.9-25.1-1.1
				c-1.9,0-4.1,0.5-6,0.7c0,0.5,0,0.9,0,1.4c11.8,4.4,24.5,2.3,37.1,4.6c-0.4,1.8-2.8,36.4-5.3,47.1c-1.8,7.4-10.2,28.9-13.8,33.4
				c-0.4-1.8-0.5-10.6-0.5-11.6c-0.2-5.8-0.2-11.6-0.2-17.5c0.2-7.9,0.4-16.1,0.5-24c0.2-3,0.9-6.2,0.9-9.2c0-1.4-0.4-3.4-1.4-4.2
				c-3.5-3.4-7.9-4.6-13.1-6.2c-1.1,15-4.6,28.6-9.9,41.8c-6.7,16.9-16.6,33.9-21.4,37.1c-0.4-1.2-0.7-2.5-0.9-3.7
				c-1.4-16.1-1.1-32.1,0.5-48c0.7-6.2,2.1-12.2,2.8-18.4c0.4-2.3,0.4-5.3-0.9-6.7c-3.2-3.5-7.4-6.2-12.7-7.6
				c-1.8,10.1-3,19.6-5.1,28.9c-2.3,9.4-12.7,67.2-21.2,57.2c-0.7-1.8-0.7-7.2-0.5-9c0.5-6.4,1.2-12.7,1.8-19.1
				c0.5-6.7,1.1-13.4,1.4-20.1c0.4-4.9,0.2-9.9,0.4-14.6c0.2-4.6-2.3-7.4-5.8-9.9c-1.6-1.1-3.2-2.5-4.8-3.7
				c-2.6-2.1-5.3-4.8-8.3-6.2c-4.2-2.1-6.4-4.9-7.4-9.4c-0.4-1.8-1.2-4.1-2.6-5.1c-2.6-2.1-5.8-3.7-8.8-5.3
				c-2.5-1.2-4.8,0.7-4.1,3.5c0.4,1.4,1.2,2.6,1.8,3.9c0.5,1.6,1.6,3.5,1.4,5.1c-0.5,4.9-1.2,9.9-2.6,14.5
				c-2.8,8.6-6.2,16.9-10.4,25.1c-6.9,12.9-12.5,26.6-20.8,38.8c-3.7,5.6-7.6,11.1-12.9,15.4c-1.2,1.1-2.5,2.3-4.4,0.9
				c-2.8-14.3-2.8-28.8-2.6-43.4c0-3.2,1.6-4.8,4.2-6.4c11.5-6.7,19.9-16.2,25.2-28.4c3.7-8.6,3-16.9-3.4-24c-2.6-3-6.4-5.5-9.9-7.6
				c-6.4-4.1-6.9-5.5-13.2,2.5c-0.7,0.9-1.2,1.8-1.8,2.8c-3.5,6-6,12.4-7.4,19.2c-1.8,8.5-3.7,17.1-5.3,25.6
				c-0.4,1.6-0.4,3.4-2.5,3.9c-2.1,0.5-3.5-0.4-4.6-2.1c-2.1-3.4-4.6-6.7-6.2-10.2c-2.5-5.6-4.1-11.5-9.7-15.2
				c-1.2-0.9-1.9-3.2-3.9-2.3c-1.4,0.7-2.6,2.5-3.2,3.9c-1.2,3.2-1.6,6.7-2.8,10.1c-6.9,20.6-14.3,41.8-21.2,62.8
				c-0.4,1.2-1.4,2.1-2.8,4.1c-0.4-2.1-0.7-2.8-0.7-3.7c0-16.2-0.2-32.5-0.2-48.5c0-11.3,0.5-22.6,0.7-33.7c0-1.8-0.7-4.1-1.9-5.3
				c-3.2-3.2-7.4-4.9-12.2-5.8c-1.1,3.5-2.1,6.9-3,10.2c-3,11.3-8.1,21.7-13.8,31.9c-2.6,4.8-4.9,9.7-7.8,14.5
				c-9,14.5-30,60-38.8,47.3c-0.5-0.9-0.9-1.9-1.2-3c-2.6-9-4.4-15.7-4.2-25.1c0.2-2.6,0.9-4.8,2.8-6.7c4.6-4.4,8.8-9,13.2-13.8
				c2.8-2.8,5.6-5.6,8.1-8.8c7.8-9.7,13.1-21,18.2-32.3c1.9-4.2,2.5-9.2,2.5-13.8c-0.2-6.5-9-15-15.7-16.2c-2.8-0.5-4.9,0.4-7.1,2.1
				c-9.7,7.9-16.9,17.8-22.1,29.3c-4.4,10.1-8.1,20.3-10.2,31.1c-1.2,6.4-2.5,12.9-2.8,19.4c-0.7,10.4-0.9,24.5,1.8,34.8
				c2.1,8.3,6.9,14.3,14.5,18c5.8,2.8,10.9-1.6,15.7-6.2c1.9-1.9,3.7-3.9,5.5-6c9-11.3,14.5-24.9,21.5-37.2
				c7.1-12.5,14.5-24.9,18.9-38.6c0.4-0.9,1.2-1.6,1.8-2.3c0.4,0,0.7,0.2,1.1,0.2c0,1.8,0,3.4,0,5.1c-0.4,13.2-1.1,26.6-0.9,39.9
				c0.2,18,1.9,36,5.3,53.6c0.2,1.2,0.9,2.6,1.8,3.2c2.8,1.9,5.8,3.9,9,5.3c2.6,1.2,4.2-0.2,5.1-3c0.5-2.1,1.4-4.1,2.1-6.2
				c2.1-5.8,4.2-11.5,6.2-17.5c6.4-20.1,12.9-40.9,20.1-61.1c1.1-3,2.6-5.6,4.1-8.8c4.9,4.9,9.2,9.9,14.1,13.8
				c2.5,2.1,3.2,4.1,3.2,6.9c0.5,9.4-1.6,21.9-1.2,31.1c0.2,8.6,3.7,15.4,10.4,20.6c6.5,5.1,16.2,1.8,22.6-3.5
				c10.6-9.2,17.8-21,24.5-33.2c3.9-7.1,6.9-14.5,10.8-21.4c6-10.6,10.4-21.7,12.5-33.5c0.2-0.9,0.9-1.8,1.4-2.6
				c2.1,0.9,4.1,1.6,5.8,2.6c3.9,2.5,7.4,5.3,6.4,10.9c-0.4,2.3-0.4,4.8-0.5,7.1c-1.4,13.9-3,27.9-4.2,41.8c-0.4,3.9-0.2,7.9,0,12
				c0.4,7.4,5.8,16.6,13.1,17.5c3.4,0.4,6.4-0.5,9-2.8c3.9-3.2,10.6-24.7,13.2-26.5c1.9,8.1,0.9,24.7,11.8,28.6
				c8.5,3,15.4,1.1,19.9-4.6c2.3-2.8,4.1-6,6.2-9c2.3-3.5,4.6-7.2,7.4-12c0.5,2.6,1.1,3.9,1.2,5.3c0.5,7.4,0.7,15,1.4,22.4
				c0.4,4.6,0.2,9-1.8,13.2c-2.5,5.8-4.4,12-6.2,18c-4.9,16.2-9.2,32.8-9.2,49.8c0,6.5,4.8,12.9,8.6,18.2c2.1,2.8,4.9,5.1,8.5,5.8
				c6.5,1.2,14.3-3.9,15.7-10.2c1.4-6.4,2.6-12.9,2.6-19.4c0-10.2-1.2-20.3-1.9-30.5c-0.9-11.6-1.8-23.3-2.3-34.9
				c-0.2-2.6,0.9-5.3,1.9-7.8c4.2-9.9,8.5-19.6,12.9-29.5c0.5-1.2,1.2-2.5,2.3-4.4c0.5,1.8,1.1,2.5,1.1,3.4
				c-0.5,15.7,3.9,35.8,6.2,40.9c4.9,10.8,10.8,13.8,18.7,11.3c3.2-1.1,8.8-10.2,9.2-13.6c1.8-3,3.4-6.2,5.3-9.4
				c1.2,1.1,0.5,6.4,0.5,8.5c-0.5,12.4,11.1,6.7,16.2,6.5c-0.4-29.8,4.6-50.6,7.6-62.8c1.4-5.8,6.4-18.5,12.4-17.3s3,30.9,4.2,41.8
				c1.1,9.5,1.8,19.2,10.1,26.3c4.8,4.1,8.8,5.1,13.6,0.9s13.4-25.6,14.8-27.5c0.5,20.6,7.6,27,14.1,31.2c4.6,3,9.9,1.8,12.7-3
				c1.2-1.9,7.2-30.5,10.4-42c0.4-1.1,0.7-1.9,1.2-3.2c0.4,0.5,2.6,1.6,2.6,1.8c0.5,14.3,0.5,33,1.1,47.3c0,0.9,0,1.9,0.5,2.5
				c2.3,3.4,4.9,2.3,7.6,5.3c1.8,1.9,4.1,3.2,6.9,1.8c0.2-1.2,0.4-2.3,0.4-3.4c-0.4-9.9,0.5-19.6,2.3-29.3
				c2.5-14.3,5.6-28.2,13.1-40.8c1.4-2.3,2.3-4.8,5.6-6.4c0,2.5,0.2,4.6,0,6.4c-0.4,4.6-0.7,9-1.2,13.6c-1.6,13.1-2.3,26.1-2.3,39.2
				c0,6.2,3,10.8,6.9,14.8c2.8,3,3.9,2.5,6.2-1.1c3-4.9,6.5-9.5,10.1-14.6c1.6,1.8,2.5,2.8,3.5,3.9c3.7,4.1,7.4,4.2,11.3,0.5
				c2.3-2.3,4.6-4.8,6.4-7.4c2.8-4.1,5.5-8.5,8.8-13.8c0.2,2.8,0.4,4.4,0.5,6c0.2,13.8,0,27.7,0.5,41.5c0.5,17.3,1.1,34.6-1.4,51.7
				c-0.7,4.9-1.2,9.7-2.8,14.5c-0.9,3-2.6,6.2-5.1,8.1c-3.7,3.2-13.6,2.5-17.6-0.5c-8.3-6-14.8-13.4-16.8-23.8
				c-0.2-0.7-0.7-1.2-1.1-1.8c-4.8,4.6-5.3,9.7-1.2,13.6c5.1,5.1,10.4,10.1,16.2,14.3c6.5,4.8,13.9,8.3,22.2,8.1
				c8.8-0.2,13.9-1.2,16.2-10.2c0.5-1.9,1.2-3.9,1.6-5.8C630,610.1,631.4,596.4,630.7,582.4z M198.4,415.1c0.4,2.1,1.2,4.1,0.9,5.8
				c-0.9,4.2-1.9,8.5-3.7,12.5c-1.9,4.2-4.6,8.3-7.1,12.2c-1.1,1.6-2.6,3-4.6,5.3C183.5,438.9,191.3,419.9,198.4,415.1z M55.6,421.6
				c-5.1,11.6-9.7,23.5-18.5,33.5C35.6,447.9,46.1,428.5,55.6,421.6z M345.7,618.1c-0.2,2.3-0.7,4.2-2.6,5.6l0,0
				c-3.9,2.8-7.8-4.6-9.9-7.1c-0.9-1.1-1.8-2.1-2.3-3.4c-3.9-7.4-2.1-13.4-0.5-20.8c2.1-10.1,5.8-23.6,10.6-32.8
				c0.7,1.6,1.2,7.2,1.4,8.8c0.7,6.9,1.1,13.8,2.1,20.6C346.1,600.1,346.6,607.1,345.7,618.1z M404.6,513.1
				c-2.1,5.8-7.2,25.2-10.9,24c-6.5-1.4-8.3-35.3-9.2-52.6c-1.1-19.8,1.9-39.4,2.1-59.6c8.1,0.4,13.4-0.9,20.8,0.7
				c0.2,1.8,0.2,3.4,0.2,4.9c0,16.8,0.7,60.9,0.7,64.1C408,500.9,406.8,507.1,404.6,513.1z"/>
			<path fill="#FFFFFF" d="M510.7,416.9c-1.2-3.7-3.5-6-7.4-6.5c-1.6-0.4-3.4,0-4.8,0.5c-0.5,0.2-1.1,0.5-1.4,0.9c0,0,0,0-0.2,0.2
				c-0.5,0.4-1.1,0.7-1.4,1.1c-3.4,3-3.2,8.3,0.4,11.1c2.8,2.3,7.4,1.8,9.7-0.9c0.4,0,0.7,0,1.1-0.2
				C509.1,422.5,511.8,419.7,510.7,416.9z"/>
		</g>
		<g>
			<g>
				<path fill="#FFFFFF" stroke="#FFFFFF" stroke-miterlimit="10" d="M1040.1,426.8c5.8,0.4,5.8,0.2,7.4-4.8
					c0.5-1.8,1.1-3.5,1.6-5.6c3.9-1.4,7.2,0.4,10.1,2.5c3,2.3,3.4,4.1,1.9,7.9c-4.1,10.4-3.2,8.5,3.7,13.6
					c8.3,6.2,15.5,13.4,19.9,23.3c0.4,0.9,1.2,1.8,2.6,3.5c0.9-7.8-0.2-14.1-0.7-20.6c-1.8-0.5-3-0.9-5.1-1.4
					c1.4-4.6,2.6-8.8,3.9-13.1c4.1-0.7,7.2,1.1,10.4,3c2.5,1.4,2.8,4.4,3.2,6.9c0.4,3,0.5,6,0.5,9.2c-0.4,15,1.2,30,2.6,44.8
					c1.2,13.8,3.5,27.4,7.6,40.6c0.7,2.5,1.8,4.8,3.2,8.3c1.1-1.9,1.8-2.8,1.8-3.7c1.4-16.4,2.6-33,3.9-49.4
					c1.1-16.2,0.2-32.6,3.4-48.9c0.5-2.8,0.5-5.8,0.7-8.6c4.2-1.1,7.4,0.7,10.6,1.9c2.8,1.1,3.5,3.7,3.7,6.4
					c0.7,6.5,1.2,13.2,1.8,19.8c1.2,12.7,2.3,25.4,4.2,37.9c1.6,10.2,3.5,20.5,6.4,30.5c3,10.2,5.1,21,11.8,30.7
					c1.1-1.4,2.3-2.5,2.5-3.5c1.1-7.1,2.1-14.3,3-21.4c0.7-6.2,1.4-12.4,1.6-18.7c0.5-13.1,1.2-26.1,0.4-39.2
					c-0.2-3.7,0.4-7.6,0.5-11.3c0.9-10.8,1.9-21.5,2.8-32.5c0.4-3.2,0.4-6.5,0.4-10.1c1.9-1.4,4.1-0.9,6.2,0.7
					c4.1,2.8,5.8,6.2,5.3,11.8c-0.7,7.4-2.1,14.6-2.6,22.1c-1.1,13.9-1.6,28.1-2.3,42.2c-0.7,13.1-0.9,26.1-1.9,39.4
					c-0.7,8.6-2.5,17.3-3.4,25.9c-0.7,6.4-6.2,8.1-10.8,5.1c-6-3.9-10.4-8.8-13.8-15.5c-8.1-16.9-13.1-34.9-16.8-53.3
					c-0.2-0.7-0.4-1.4-1.6-2.1c-0.4,1.2-0.9,2.5-1.1,3.9c-0.7,13.8-1.4,27.4-2.1,41.1c-0.2,3-0.5,6-1.1,9c-1.1,6.4-6,8.5-11.3,5.1
					c-7.4-4.8-13.1-11.1-15.5-20.3c-2.3-8.3-4.4-16.8-6.5-25.2c-0.4-1.4-0.9-2.8-1.8-5.1c-0.7,1.8-1.2,2.6-1.6,3.7
					c-1.6,6-2.5,12.4-4.9,18c-2.8,6.4-6.5,12.4-11.6,17.1c-5.1,4.8-10.4,4.6-16.1,1.8c-11.8-6-18.5-16.1-21.4-29.5
					c-3.2-15.4-2.3-30.7,0-46.1c1.9-12.5,4.6-25.1,7.4-37.4C1044.5,432.2,1042.8,429.6,1040.1,426.8z M1057.6,543.9
					c3.5-1.2,6-3.7,8.1-6.5c6.4-8.6,10.1-18.5,11.8-29.1c0.9-5.6,2.6-11.3,1.8-17.3c-0.7-4.2-0.9-8.6-1.1-12.9
					c-0.4-13.4-5.8-24.4-14.3-33.9c-1.6-1.8-3.4-4.1-6.4-3.5c-0.2,0.9-0.5,1.6-0.7,2.3c-3.7,14.8-6.7,29.8-8.6,45.2
					c-1.9,14.8-1.6,29.5,2.6,43.8C1052.1,536.4,1054.2,540.4,1057.6,543.9z"/>
				<path fill="#FFFFFF" stroke="#FFFFFF" stroke-miterlimit="10" d="M979.1,489.9c-0.9,27,1.2,41.6,2.1,68.5
					c-6.9,1.4-11.8-1.9-12.5-8.3c-1.1-10.2-2.1-7.9-2.5-18.2c-0.5-18.4-0.5-36.9-0.5-55.4c0-6.9,0.7-13.8,0.5-20.5
					c-0.2-9.9-0.9-19.6-1.4-30.2c0.9,0.2,2.1,0,3.4,0.5c6.5,3.2,10.4,8.5,10.9,16.2c0.5,8.8,3.2,17.1,5.8,25.4
					c4.8,14.3,10.1,28.2,15.4,42.4c0.9,2.3,1.4,4.9,4.6,6.5c0.7-3.7,1.8-7.1,1.9-10.2c0.7-8.6,1.2-17.3,1.8-26.1
					c0.4-8.5,0.7-17.1,0.9-25.6c0-4.9-0.5-9.9-0.7-14.8c-0.7-14.3,0.5-20.6,0.2-34.8c-0.2-3.4,1.2-7.1,2.8-10.2c1.4-3,4.4-2.8,6,0
					c1.8,3.2,3.4,6,3.2,10.4c-0.2,11.5,0.9,23.1,1.4,34.6c0.4,7.9-1.9,8.1-2.1,16.1c-0.4,15-0.9,30-1.6,44.8
					c-0.5,12-1.4,23.8-2.1,35.8c-0.4,5.8-3,7.2-7.9,4.6c-5.1-2.8-9.5-6.9-11.8-12.7c-4.6-11.1-9-22.2-13.6-33.5
					c-0.9-1.9-1.8-3.9-2.5-6C979.9,489.6,979.6,489.8,979.1,489.9z"/>
			</g>
			<path fill="#FFFFFF" d="M884.6,381.4c9.2-0.5,16.1,5.3,16.8,13.6c1.1,14.6,0.2,29.5,0.2,44.1c0.2,10.8,0.9,21.5,1.4,32.5
				c0,1.4,0.9,2.8,1.8,5.3c6.7-7.6,9.5-16.2,13.8-24c4.2-7.8,7.8-15.7,11.1-24c3.4-8.3,6-16.9,8.8-25.4c9.9-0.5,13.9,3.5,12.2,12.4
				c-0.5,3.2-1.9,6.4-3.2,9.4c-8.3,21.5-18.5,42-30,61.9c-2.1,3.9-4.1,7.8-6,11.6c-2.6,5.3-2.5,5.6,2.3,9.2
				c9.4,6.9,18.9,13.8,28.1,21c7.4,5.6,14.3,11.8,21.7,17.5c4.4,3.4,8.5,7.8,14.8,7.6c0.7,0,2.1,0.5,2.3,1.1
				c1.6,5.1,6.9,7.2,9.4,11.6c0.2,0.4,0.2,0.9,0.2,1.8c-6-0.2-10.9-3.2-15.7-6.2c-17.6-11.3-34.6-23.6-50.1-37.8
				c-4.6-4.2-9.4-8.6-16.2-11.6c-0.4,14.1,4.1,27.2,3.4,40.4c-7.6,2.3-12.2-2.3-17.1-5.8c-1.1-0.7-1.4-2.6-1.6-4.2
				c-1.1-10.8-1.9-21.5-2.6-32.3c-1.1-12.7-1.6-25.6-3-38.3c-2.3-20.8-2.3-41.8-2.3-62.8C884.6,400.8,884.6,391.3,884.6,381.4z"/>
		</g>
		<g>
			<path fill="#FFFFFF" d="M694.9,291.2c1.6,0,2.6,0,4.1,0c-0.4,0.7-0.4,1.2-0.7,1.4c-2.5,1.6-3,3.5-2.3,6.5
				c2.5,9.5,4.4,19.1,6.9,28.4c1.2,5.3,3.2,10.4,4.6,15.5c0.9,3,0.2,3.5-3,3.9c-4.8,0.5-8.3-0.9-9.9-6.4
				c-3.4-11.6-6.9-23.3-10.2-34.9c-0.2-0.4-0.4-0.9-0.7-1.8c-1.4,0.4-2.8,0.4-4.1,0.9c-3.9,1.8-7.8,4.1-11.6,5.8
				c-2.1,0.9-3,2.1-3.2,4.2c-0.7,6-1.4,12-2.3,17.8c-0.4,2.1-0.7,4.1-1.4,6.2c-1.2,3.5-2.8,4.4-6.5,4.4c-1.2,0-2.5-0.4-3.5-0.5
				c-3.5-0.7-3.4-0.9-2.6-4.6c0.9-4.4,1.2-9,1.8-13.4c0.9-7.8,1.6-15.5,2.8-23.3c2.5-16.4,4.9-33,7.6-49.4
				c1.2-7.2,2.6-14.5,4.4-21.5c1.6-6,2.5-5.6,7.4-5.6c6.9,0,10.9,2.6,13.4,10.4c2.3,6.9,3.5,13.9,4.6,21c1.4,9.9,2.3,19.9,3.4,30
				C694.1,287.9,694.6,289.3,694.9,291.2z"/>
			<path fill="#FFFFFF" d="M810.4,277.6c-4.9,1.6-9.7,2.8-14.3,4.4c-7.2,2.5-7.1,2.5-6.4,9.9s0.9,15,1.4,22.6
				c0.2,4.2,0.7,8.5,0.7,12.5c0,4.8-1.6,6.2-6.4,5.5c-0.7-0.2-1.4-0.4-2.3-0.5c-5.6-1.4-5.8-1.9-5.8-7.6c0-7.4-0.5-14.6-0.7-22.1
				c-0.2-4.4-0.5-8.6-0.9-13.1c-0.7-9.2-1.4-18.2-1.9-27.4c-0.7-11.3-1.2-22.4-1.9-33.7c-0.2-3.2-0.7-6.5-1.1-9.7
				c5.8-2.1,11.1,0.4,12.4,5.8c0.9,3.9,1.2,7.9,1.6,12c1.1,12.2,2.1,24.4,3.2,36.4c0.2,1.4,0.5,2.8,1.1,4.6
				c7.2-2.3,14.1-4.6,20.8-6.7c-0.9-19.4-1.8-38.1-2.5-57c6.9-1.6,10.6,0.7,11.3,7.6c0.9,8.3,1.1,16.8,1.8,25.1
				c0.5,6.9,1.2,13.8,1.9,20.5c4.9,2.5,10.4-1.6,14.8,2.3c-1.8,2.5-4.4,2.1-6.5,2.5c-7.6,1.8-7.6,1.6-6.5,9.4c0.7,6,1.2,12,2.1,18
				c0.9,6.2,2.1,12.2,3.2,18.2c0.9,4.8,1.8,9.5,2.5,14.3c0.7,4.1-0.5,5.3-4.6,4.9c-1.4-0.2-3-0.5-4.4-0.9c-1.6-0.5-2.5-1.4-2.8-3.2
				c-1.4-8.3-3.2-16.6-4.6-24.9c-1.4-8.8-2.5-17.6-3.7-26.3C811.2,280.1,810.7,279.2,810.4,277.6z"/>
			<path fill="#FFFFFF" d="M588.7,257.5c-4.8-0.9-9.9-0.5-13.6-5.3c3-1.4,6-2.6,8.6-4.1c1.8-0.9,3.2-2.1,4.8-3.2
				c0.7-0.5,1.6-1.1,2.3-1.2c4.9-0.2,8.8-3,13.1-4.6c9.4-3.5,18.9-7.2,28.8-9c4.9-0.9,11.6,1.1,15.5,4.9c-0.5,0.4-1.1,1.1-1.8,1.2
				c-5.1,1.2-10.2,2.1-15.4,3.7c-6.7,2.1-13.2,4.8-19.9,7.1c-1.6,0.5-3,1.2-4.6,1.9c-3.9,1.6-4.6,2.5-4.4,6.7
				c0.2,4.6,0.5,9.4,0.7,13.9c0.4,8.1,0.7,16.2,1.2,24.4c0.2,1.8,0.5,3.5,0.9,5.1c0.9,0.2,1.4,0.4,1.8,0.2c9-3.9,17.8-7.8,26.8-11.5
				c2.3-1.1,4.8-1.8,7.2-2.3c1.9-0.5,3.4,1.1,2.5,3c-0.7,1.6-1.9,3.2-3.4,4.1c-8.6,5.3-17.6,9.7-27.5,11.8c-2.1,0.5-4.4,0.5-7.1,0.7
				c-0.2,15,2.1,29.3,3.7,44.6c3.9-1.2,7.2-2.1,10.4-3.4c8.6-3.7,17.5-7.4,25.9-11.5c4.6-2.3,9.4-1.9,14.1-1.9
				c1.2,0,2.5,0.9,4.1,1.6c-0.9,0.9-1.4,1.6-1.9,1.8c-14.3,6.5-28.4,13.9-43.8,17.6c-7.9,1.9-15.2-0.5-22.1-3.7
				c-1.6-0.7-2.3-1.9-2.5-3.9c-0.4-7.9-1.1-15.9-1.4-23.8c-0.4-9-0.4-18-0.7-27c-0.4-11.5-0.9-22.8-1.6-34.1
				C589.6,260.2,589.1,258.9,588.7,257.5z"/>
			<path fill="#FFFFFF" d="M763.8,299.2c1.8,5.1,3.5,9.2,0.9,13.8c-1.9,3.4-3.5,6.9-5.6,10.2c-4.4,7.2-10.4,12.7-19.2,13.1
				c-5.5,0.2-11.1-0.9-16.4-2.1c-4.2-1.1-6.2-5.1-7.8-8.8c-1.4-3.2-2.3-6.5-2.8-9.9c-2.6-13.4-5.1-26.8-5.5-40.6
				c-0.2-9.4,0-18.9,0.7-28.2c0.9-10.8,3-21.4,4.8-31.9c0.5-3,1.2-3.5,4.4-4.1c7.9-1.4,13.8,2.5,18.5,7.9
				c4.6,5.3,8.5,10.9,11.3,17.3c2.3,5.1,2.8,10.4,2.3,15.9c-0.4,3-2.1,4.4-4.8,5.1c-3,0.7-4.2,0-4.6-3.2c-1.1-8.1-3.4-15.9-7.6-22.9
				c-1.8-3-3.4-6.4-6.9-8.5c-0.5,1.6-1.1,3-1.2,4.4c-3.4,18-4.4,36-2.8,54.4c1.1,12.5,3.2,24.7,6,36.9c0.7,3,1.8,6,3.2,9
				c0.7,1.6,1.9,3,3.2,4.2c1.4,1.4,3.2,1.6,4.8,0c1.4-1.4,3.2-2.8,4.6-4.4c5.6-7.2,11.1-14.5,16.8-21.7
				C760.4,303.1,761.8,301.5,763.8,299.2z"/>
			<path fill="#FFFFFF" d="M558.5,355.3c-4.4,3.2-8.8,2.1-13.2,1.4c-2.1-0.4-2.1-2.5-2.5-3.9c-2.5-8.1-3.9-16.6-4.6-25.1
				c-0.9-10.6-0.9-21-1.1-31.6c0-16.6-0.5-33-1.1-49.6c0-1.1-0.4-1.9-0.7-3.4c-3.4,0.9-6.5,1.8-9.7,2.6c-3.7,1.2-7.2,2.8-10.9,3.9
				c-1.9,0.5-4.2,0.9-6.2,0.7c-3-0.2-6.2-0.5-10.2-1.1c1.2-1.2,1.9-1.9,2.6-2.3c4.4-1.6,8.8-3.2,13.2-4.8c13.1-4.6,25.9-9.5,39-13.9
				c11.8-3.9,23.8-5.8,36.4-4.2c2.6,0.4,6.2,0.7,7.6,4.8c-4.2,1.2-7.2,5.3-12.5,4.9c-0.4-1.6-0.7-3.2-1.1-4.9
				c-6.7-0.5-12.7,2.3-18.9,3.9c-6.2,1.6-12.4,3.7-18.5,5.6c0.4,0.9,0.4,1.6,0.7,1.8c3.2,1.8,3.9,4.8,4.1,8.1
				c0.4,10.8,0.4,21.4,0.9,32.1c0.5,15.2,0.9,30.4,2.1,45.5c0.7,7.9,2.8,15.9,4.2,23.8C558.2,351.8,558.4,353.5,558.5,355.3z"/>
		</g>
	</g>
</g>
<g id="page_elelments" display="none">
</g>
</svg>
