<?xml version="1.0" encoding="utf-8"?>
<!-- Generator: Adobe Illustrator 18.1.1, SVG Export Plug-In . SVG Version: 6.00 Build 0)  -->
<svg version="1.1" id="Layer_1" xmlns="http://www.w3.org/2000/svg" xmlns:xlink="http://www.w3.org/1999/xlink" x="0px" y="0px"
	 viewBox="0 610 1200 240" enable-background="new 0 610 1200 240" xml:space="preserve">
<g id="Layer_4" display="none">
	
		<linearGradient id="SVGID_1_" gradientUnits="userSpaceOnUse" x1="356.2429" y1="349.81" x2="356.2429" y2="-263.6777" gradientTransform="matrix(1.704 0 0 1.704 -0.2913 604.4417)">
		<stop  offset="0" style="stop-color:#EC008C"/>
		<stop  offset="1" style="stop-color:#00AEEF"/>
	</linearGradient>
	<polygon display="inline" opacity="0.5" fill="url(#SVGID_1_)" enable-background="new    " points="2329.5,1198 -1115.9,1200.5 
		-1115.9,157.7 2329.5,155.1 	"/>
	<polygon display="inline" opacity="0.2" fill="#12ACEF" enable-background="new    " points="2329.5,1198 -1115.9,1200.5 
		-1115.9,160.7 2329.5,158.2 	"/>
</g>
<g id="Layer_1_1_" display="none">
	<g display="inline">
		<polygon opacity="0.4" fill="#EA0091" enable-background="new    " points="253,1088.9 1490.7,946 864.9,803.1 		"/>
		<polygon opacity="0.1" fill="#12ACEF" enable-background="new    " points="2072.6,532.7 2041.5,634.6 855.3,890.4 1304.5,446 		
			"/>
		<polygon opacity="0.29" fill="#FFFFFF" enable-background="new    " points="1907.8,937.1 2145.2,811.7 2114.4,689.8 
			1848.7,401.8 808.2,913.7 		"/>
		<polygon opacity="0.2" fill="#FFFFFF" enable-background="new    " points="-460.9,987.7 -315.9,466.7 -45,392 704.4,1015 		"/>
		<polygon opacity="0.41" fill="#12ACEF" enable-background="new    " points="853.1,710.6 1831.1,516.7 2029.5,606.8 2029.5,901 		
			"/>
		<polygon opacity="0.1" fill="#FFFFFF" enable-background="new    " points="-270.7,1011.6 848.5,515.5 1801.2,995.8 		"/>
		<polygon opacity="0.14" fill="#12ACEF" enable-background="new    " points="154.8,1037.7 1162.2,467.8 1793.5,937.1 		"/>
		<polygon opacity="0.33" fill="#12ACEF" enable-background="new    " points="581.7,796 1649.6,456.7 1918.8,851.1 		"/>
		<polygon opacity="0.4" fill="#12ACEF" enable-background="new    " points="-877.8,532.1 -603.3,385.4 231.1,790.2 -830.7,693.6 
					"/>
		<polygon opacity="0.1" fill="#12ACEF" enable-background="new    " points="309.8,489.1 -826.9,958.4 1396.3,1098.5 		"/>
		<polygon opacity="0.25" fill="#12ACEF" enable-background="new    " points="-820.3,526.6 -731,713.1 737.2,879.2 73.3,505.3 		
			"/>
		<polygon opacity="0.25" fill="#12ACEF" enable-background="new    " points="-158.5,931.9 831.9,915.6 -270.7,515.5 		"/>
		<polygon opacity="0.35" fill="#EA0091" enable-background="new    " points="-429,946 753.7,1102.9 -65,595.1 		"/>
		<polygon opacity="0.26" fill="#12ACEF" enable-background="new    " points="-635.4,987.9 198.4,690.1 -826.9,618.3 		"/>
		<polygon opacity="0.25" fill="#EA0091" enable-background="new    " points="-945.2,1083.2 -765.9,616.7 883.8,924 		"/>
		<polyline opacity="0.1" fill="#EA0091" enable-background="new    " points="-34,932.2 681.1,699.2 1083.8,910.2 871.6,1062.2 
			254.8,1087.4 -84.1,998.9 -45.5,932.2 		"/>
		<polygon opacity="0.25" fill="#EA0091" enable-background="new    " points="2221.7,961.3 1988.8,505.3 383.3,1030.8 		"/>
		<polygon opacity="0.2" fill="#EA0091" enable-background="new    " points="-14.6,983.8 1021.3,657.6 1528.7,839.9 1244,1004.2 
			246.9,1087 -112.4,1009.5 		"/>
		<polygon opacity="0.38" fill="#EA0091" enable-background="new    " points="405.3,1111.1 1649.6,982.8 1163,735.5 		"/>
		<polygon opacity="0.4" fill="#12ACEF" enable-background="new    " points="47.3,1082.8 456.4,666.6 1624.3,988.6 		"/>
		<polygon opacity="0.35" fill="#12ACEF" enable-background="new    " points="-44.1,690.4 -418.3,910.4 482.3,1183.2 		"/>
		<polygon opacity="0.23" fill="#12ACEF" enable-background="new    " points="-826.9,1119.3 155.3,1183.5 -381.1,700.9 		"/>
		<polygon opacity="0.38" fill="#EA0091" enable-background="new    " points="682.9,1159.3 1904.7,1083.2 1156.6,836.4 		"/>
		<polygon opacity="0.2" fill="#12ACEF" enable-background="new    " points="2114.8,1037.7 1499.6,666.6 708,1071 		"/>
		<polygon opacity="0.4" fill="#EA0091" enable-background="new    " points="412.5,1195.6 -166.7,820.7 -289.9,919.6 
			-423.1,1195.6 		"/>
		<polygon opacity="0.29" fill="#EA0091" enable-background="new    " points="1427.3,1195.6 1837.8,1138.2 1518.8,830.4 
			1165.8,1195.6 		"/>
	</g>
</g>
<g id="Layer_5" display="none">
</g>
<g id="lettering">
	<g>
		<g>
			<path fill="#FFFFFF" d="M363.5,686c3.6,0.3,6.1,1.7,8.4,3.8c1.5,1.3,2.2,3.1,2.6,4.9c0.7,4.4,0.2,9-1,13.1
				c-1,3.4-0.5,6.6,0.5,9.9c2.6,8.2,5.1,16.6,7.7,24.8c1.5,4.9,1.5,9.9-0.3,14.8c-2.2,5.8-5.9,10.4-11.5,13.3
				c-1.5,0.8-3.3,0.7-4.9,0.5c-4.1-0.2-8-1.3-11.8-3.1c-2.6-1.2-4.4-3.3-5.9-5.6c-0.3-0.5-0.3-1-0.5-1.8c2.2-0.3,4.1-0.3,5.3,1.3
				c0.8,1.2,2.2,1.5,3.6,1.5c2.8,0.2,5.3-0.3,7.5-2c3.3-2.8,5.8-5.9,6.9-10c1-4.1,2-8.2,1-12.5c-0.8-4.3-2-8.4-3.1-12.6
				c-0.2-0.5-0.5-0.8-0.8-1.5c-0.5,0.5-1.2,0.8-1.5,1.3c-1.5,2.6-3.1,5.1-4.6,7.7c-1.5,2.4-3.1,4.6-4.8,6.9
				c-1.3,1.8-2.4,3.9-3.9,5.6c-4.9,6.1-10,12.3-15.1,18.2c-1.8,2.2-4.1,4.4-6.4,6.3c-3.4,2.8-7.2,3.3-11,1.2c-0.5-0.3-1-0.5-1.7-0.7
				c-5.4-1.8-8.4-5.9-9.4-11.5c-0.5-2.9-1-5.9-0.2-8.9c0.3-1.5,0-3.1,0.2-4.6c0.3-2.2,0.8-4.4,1.5-6.6c1.5-5.1,4.4-27.3,6.9-32
				c0.5-1,1.2-2,1.8-3.1c3.1-0.7,5.3,0.7,7.2,2.8c1.3,1.5,1.8,3.3,1,5.3c-2.4,5.6-4.9,28.8-6.3,34.8c-0.7,3.3-1,6.6-1.5,9.9
				c-0.2,1.3,0,2.8,0.3,3.9c0.3,1.5,1.8,1.8,3.1,0.8c1-0.8,1.8-1.8,2.8-2.9c5.3-6.3,10.5-12.5,15.5-18.9c3.3-4.3,6.1-8.9,9-13.5
				c2.2-3.4,4.1-6.9,5.9-10.2c1.7-3.4,3.4-7,4.8-10.4c0.5-1.3,0.7-3.3,0.3-4.6c-1.2-4.3-0.2-8.4,1.2-12.3
				C362.7,688.5,363,687.3,363.5,686z"/>
			<path fill="#FFFFFF" d="M328.1,676.8c-6.1-1.3-7.5-2.8-7-6.4c2.4,0,4.4,0.8,5.9,2.6C328.1,674,328.9,675.2,328.1,676.8z"/>
		</g>
		<path fill="#FFFFFF" d="M180.7,761.6c2.9-1.5,3.9-3.6,5.3-5.6c4.6-7.9,7.9-16.2,10.5-24.7c3.1-9.9,6.4-19.7,8.2-30
			c0.3-1.7,0.5-3.4,0.5-5.1c0-8.5,0-17.1,0-25.4c-1.8-1.7-3.8-1.7-5.8-1.7c-6.3-0.2-12.6-0.8-18.7-2.2c-0.7-0.2-1.3-0.7-3.1-1.3
			c9.5-3.1,18.4-3.1,27.4-4.9c0.3-8.2,1.7-16.1,1-24.2c3.9-1.5,6.9-0.2,9.7,1.3c1,0.5,1.5,2.2,1.7,3.4c0.3,3.1,0.5,6.1,0.5,9.2
			c0,2.6-0.3,5.1-0.3,7.7c0,2.2,0.8,3.1,3.1,3.1c2.9,0,5.8-0.2,8.7-0.2c9.7-0.5,13.3-1.2,23-1.5c5.4-0.2,10.9,0.2,16.4,0.5
			c16.4,0,6.6,8.2,3.6,8.2c-10.4,0-14.6,0-24.8,0.2c-8.2,0.2-16.4,0.5-24.3,0.8c-1.7,0-3.3,0.5-5.1,0.8c-0.5,8.2-0.7,16.1,0,23.8
			c2.2,24.8,4.6,55,18.6,77c0.5,0.8,1.2,1.5,1.8,2.4c2.9,3.4,6.3,4.1,10.5,2.2c3.6-1.5,6.6-3.4,9.2-6.3c0.7-0.7,1-1.7,1.5-2.6
			c3.6,2.9,4.1,5.4,1.8,8.2c-1.2,1.3-2.8,2.8-4.3,3.4c-6.9,3.4-13.5,3.1-20.7,0.2c-9.5-3.9-15.1-10.9-19.1-20.1
			c-3.3-7.5-5.1-15.5-7.4-23.3c-0.3-1.5-0.8-2.9-1.5-5.1c-0.8,1.3-1.3,2-1.7,2.9c-2.4,7.2-4.3,14.3-8,21c-1.5,2.8-2.9,5.4-4.8,7.7
			c-4.1,4.9-10.4,6.1-16.6,4.3c-5.9-1.8-10.2-5.8-14.1-10.4c-0.5-0.7-1.2-1.2-1.7-1.8c-0.2-0.2-0.3-0.2-0.8-0.3
			c-0.7,0.7-1.5,1.5-2,2.6c-2.6,5.3-3.6,10.7-2,16.7c3.4,14.1,5.4,28.8,7.2,43.2c0.8,7.4,1.2,15-0.2,22.3c-0.5,2.8-1.3,5.3-2.4,7.7
			c-1,2.4-3.1,3.6-5.6,3.9c-3.9,0.3-7.9,0-11.5-2c-1.2-0.7-2.2-1.7-2.9-2.8c-1.8-2.9-3.1-5.9-3.6-9.4c-1.5-10-0.8-19.9,1.2-29.9
			c0.8-4.1,1.3-8.4,2.2-12.6c1-4.9,1.8-10,3.1-15c1-4.3,0.2-8.5-0.7-12.6c-1.3-7.2-2.9-14.3-4.3-21.5c0-0.2-0.5-0.5-1-1
			c-1.7,2-1.8,4.4-2.8,6.9c-2.9,7.7-3.8,15.8-8,23c-1.7,2.8-3.6,5.3-6.1,7.4c-8.5,6.4-20.1,3.3-23.7-6.6c-2-5.6-2-11.5-2.4-17.1
			c-0.5-8.9-0.5-17.7-0.8-26.6c-0.3-9-0.7-18.1-1.3-26.9c-0.3-3.8,1.2-4.6,4.3-4.8c0.7,0,1.3-0.2,2-0.2c5.9,0,8,1.8,8.4,7.9
			c0.5,11.8,1,23.3,1.3,35.1c0.3,9.5,0.3,19.1,0.5,28.4c0,3.6,0.8,7,3.4,10c0.8-0.3,1.8-0.5,2.4-1c3.9-3.8,7.2-8.2,8.9-13.5
			c2-6.9,4.4-13.5,6.6-20.2c2.6-8,3.8-16.2,3.6-24.5c-0.2-7.5-0.3-15-0.5-22.7c2-2.6,4.6-1.7,7.2-0.5c2.4,1,3.3,3.4,3.4,5.8
			c0.3,4.1,0.5,8.2,1.2,12.1c1.8,9.9,3.9,19.6,5.9,29.4c0.2,0.5,0.5,0.8,1,1.7c2.8-2.4,3.4-5.3,3.6-8.5c0-0.5-0.2-1-0.3-1.5
			c-1.5-8.5-1.5-17.2-1.8-25.9c-0.3-9.4,0.2-18.7,3.9-27.6c0.8-2.2,2-4.3,3.1-6.1c3.6-0.8,6.4-1.5,9.9-0.7
			c30.9,7.7,0.5,39.9-2.8,50.1c-1.3,4.3-0.8,8.4,0.2,12.6c1,3.9,1.8,8,3.3,11.8C173.7,754.6,176.3,758.6,180.7,761.6z M148,794.3
			c-1.3,2.4-1.8,4.3-2.2,6.1c-0.5,2.8-0.8,5.3-1.3,8c-1.3,8.4-1.7,16.9-0.3,25.4c0.3,2.6,1.7,5.1,2.8,7.7c0.7,1.5,1.8,2.9,4.3,2.8
			c1.7-2.9,1.7-6.3,2-9.7c0.7-12.6-1.5-25-3.3-37.3C149.7,796.4,148.8,795.7,148,794.3z"/>
		<path fill="#FFFFFF" d="M59.5,744.3c1.7-1.5,3.1-2.9,4.6-4.3c5.1-4.6,10.2-9.4,16.6-12.3c2-1,3.8-1,5.8,1
			c-6.4,9.2-16.4,14.8-22.7,24c3.1,5.6,5.9,10.9,8.7,16.2c0.7,1.3,1.3,2.9,1.5,4.4c0.5,2.2-0.7,3.9-2.9,4.1c-2.8,0.3-4.4-1-5.8-3.4
			c-1.8-3.4-4.1-6.6-6.1-9.9c-0.5-0.7-1-1.3-1.5-1.8c-2.4-0.3-3.6,1.3-4.9,2.8c-4.1,4.1-8.2,8.2-13.1,10.9
			c-3.4,1.8-7.2,3.3-10.9,4.6c-3.3,1-6.4,0.3-9.5-1c-4.4-1.8-6.3-5.1-6.1-10c0.2-2.6,0.3-4.9,0.8-7.5c3.4-15.3,7.7-30.4,14.1-44.7
			c1.2-2.8,1.5-5.3,0.8-8.2c-0.8-3.8-1.3-7.9-1.3-11.6c0-7.9,0.3-15.6,2.2-23.3c1.2-4.8,3.1-9,6.1-12.8c3.8-4.8,8.9-5.9,14.1-5.4
			c3.6,0.3,6.1,2.9,7.7,6.4c1.8,4.3,2.4,8.7,0.8,13c-1.7,4.6-3.4,9.4-5.4,13.8c-3.1,6.6-6.1,13.1-9.4,19.6
			c-2.2,4.6-2.2,8.7,0.7,13.1c4.3,6.6,8.4,13.5,12.5,20.2C57.7,742.7,58.5,743.3,59.5,744.3z M37.2,730.2c-2.2,1-2.4,2.9-2.9,4.6
			c-2.6,8.7-5.1,17.4-7.4,26.1c-0.8,3.4-0.8,7-1.2,10.5c-0.2,1.3,0.2,2.9,1.8,3.6c2.4,0.2,4.1-1.3,5.8-2.9
			c5.6-4.6,10.5-9.9,15.3-15.5c2.8-3.3,2.9-3.8,0.7-7.4c-3.4-5.6-6.9-11-10.2-16.6C38.9,731.6,37.8,730.9,37.2,730.2z M38.9,693.2
			c0.3-0.2,0.7-0.2,0.8-0.3c4.1-6.9,7.4-14,9.4-21.8c1-3.9-0.3-6.9-2.8-9.7C39.9,666.3,35.5,685.4,38.9,693.2z"/>
		<path fill="#FFFFFF" d="M974.4,798.5c-4.1,0.2-7.4-0.7-10.5-2.6c-3.8-2.2-7.4-4.8-9.9-8.4c-2.4-3.1-4.9-6.3-5.9-10.2
			c-0.5-1.7-1.7-3.3-2.2-4.9c-1.7-4.6-2.9-9.4-3.8-14.1c-1-4.9-1-9.9-1.8-14.8c-0.7-4.1-0.5-8.5-0.2-12.8c0.2-2.9,1-20.7,1.3-26.6
			c0.2-4.6,1.2-9.2,1.8-13.6c0.5-3.1,0.8-5.9,1.3-9c0.5-2.9,1.3-5.8,2-8.7c0.2-0.8,0-1.7,0.2-2.6c0.5-3.6,2.2-6.9,3.1-10.2
			c1-4.3,4.1-7.5,4.8-11.8c0.3-2.4,3.9-4.3,6.3-4.8c4.3-0.7,7.5,1.2,10.5,3.4c3.1,2.4,3.9,5.8,3.1,9.5c-0.3,1.5-0.2,2.4,0.8,3.6
			c1.7,1.7,3.4,3.6,4.8,5.6c1.2,1.8,2.2,3.9,3.1,6.1c2.2,5.8,4.1,11.8,4.8,18.1c0,0.3,0,0.8,0.2,1.2c2,3.6,1.7,7.9,2.6,11.8
			c0.7,3.3,1.5,6.3,2,9.5c0.5,2.6,0.5,5.3,0.8,7.9c1.5,9.7,1.2,19.6,1.2,29.4c0,4.1,0,8.2-0.5,12.1c-0.5,4.3-0.8,8.7-2.4,13
			c-0.7,1.7-0.7,3.8-1.3,5.6c-1,3.3-2.2,6.3-3.1,9.5c-1,4.6-6.1,9-11.5,8.9C975.6,798.7,974.8,798.5,974.4,798.5z M969.3,791.4
			c2-0.2,2.9-1,3.4-2.4c1.2-2.9,2.4-5.6,3.4-8.4c1.7-4.3,1.8-9,3.6-13.5c0.2-0.3,0-0.5,0-0.8c0.8-9.9,1.5-20.2,1.5-30.4
			c0-10-2-20.2-1.7-30.2c0.2-2.8-1.2-5.1-1.3-7.9c0-1,0-1.8,0-2.9c-1-6.6-2-13.3-4.1-19.7c-0.5-1.7-1-3.4-1.7-4.9
			c-1-1.8-2.2-3.6-3.4-5.3c-1-1.5-1.8-3.1-3.8-3.8c-2,1-1.7,3.1-2.4,4.6c-5.8,12-6.1,27.8-7.5,40.7c-1.7,17.6-3.8,37.5,0.3,54.9
			c1.7,6.1,3.1,12.3,5.8,18.1c1.3,2.9,3.1,5.4,4.9,8C967.4,789,968.4,790.3,969.3,791.4z"/>
		<path fill="#FFFFFF" d="M798.9,656.3c-2.2-0.3-3.8-1.5-4.9-3.3c-0.8-1.2-1-2-0.3-3.6c1-2,2.9-3.1,4.4-4.4c1.2-1.2,2.4-2.2,2.6-3.9
			c0.2-1.3,1-1.8,2.2-1.7c1,0,2.2,0,3.1,0.3c3.1,1.5,6.3,1.5,9.5,1.5c4.3-0.2,8.5,0.5,12.6,1.7c4.6,1.2,9.2,3.1,13.1,6.1
			c6.6,5.3,11.6,10.5,14.3,18.9c2.2,6.9,3.4,14.3,2,21.3c-2.9,14.8-11.8,25.6-24.3,33.4c-3.9,2.6-8.7,3.1-12.8,4.9
			c-0.3,0.2-0.5,0.2-0.8,0.2c-4.3,1.3-4.4,1.5-4.3,6.1c0.2,4.1,0.3,8.2,0.3,12.1c0.2,6.3,0.5,32.4,0.7,38.6c0.2,4.4,0.3,9,0.7,13.5
			c0.3,4.3,0.8,8.4,1.2,12.6c0.2,0.8,0.3,1.7,0.2,2.6c-0.2,0.7-0.7,1.8-1.3,2c-5.4,1.5-11.2,0.8-13.5-5.9
			c-2.2-6.9-2.6-13.8-3.6-20.8c-0.8-6.1-0.2-31.9-1.2-38c-0.7-4.1-0.2-8.2-0.3-12.3c0-1.5,0.2-3.1,0-4.6c-0.2-1.7-0.7-3.3-2.2-4.3
			c-2-1.3-2.2-2.2-0.2-3.4c1.5-1,2-2,1.7-3.8c-0.2-0.7,0.2-1.3,0.2-2c0-4.3,0-8.7,0-13c-0.2-15.3-0.2-30.7,0.7-46
			C799,659.7,798.9,658.1,798.9,656.3z M841.2,691.6c3.6-11.8,2.6-36-11.2-41.4c-3.8-1.5-7.7-1.3-11.6-0.7c-2.6,0.3-2.8,0.7-2.9,3.1
			c0,2,0.3,4.1,0.2,6.1c-0.7,18.9-1.3,38-1.5,56.9c0,1.2,0.2,2.4,1.5,3.3c2-1,3.9-2.2,5.8-3.3c4.3-2,7.5-5.3,10.7-8.7"/>
		<path fill="#FFFFFF" d="M882.8,739.7c0.3,18.1,2.9,35.5,7,53c4.8-0.8,9.2-1.5,13.6-2.2c7-1,14.1-2,21.2-3.3
			c4.6-0.8,9.2-0.7,13.8-0.5c1.7,0,3.3,1.3,4.9,1.8c0,2.6-0.3,3.1-2.4,3.1c-2.9,0.2-5.9,0-8.9,0.2c-0.8,0-1.7,0.5-2.8,0.7
			c-0.7,0.2-1.5,0.3-2.2,0.3c-2.2,0-4.3,0.7-6.4,1.2c-2.9,0.8-5.9,1-8.7,2.2c-1,0.3-2.2,0-3.4,0.2c-0.5,0-1,0-1.3,0.3
			c-2.2,1.8-4.9,1.7-7.7,1.8c-4.8,0.2-9.4,0.8-14.1,1.3c-0.3,0-0.7,0.2-0.8,0c-2.8-1-5.6-1.8-8.4-2.9c-2.2-0.8-2.9-2.8-3.3-4.9
			c-0.5-4.4-1.7-8.7-2-13.1c-0.7-6.9-2.6-13.3-3.3-20.2c-0.7-7.7-1-15.1-1.5-22.8c-0.2-2.4,0.2-4.8,0.2-7.2c0-1-0.3-1.8-0.2-2.9
			c0-6.3,0.2-12.6,0.2-18.7c0-3.4,0-6.9,0.2-10.2c0-3.4,0.3-6.9,0.3-10c-0.2-7,0.5-14,1-21c0.2-2.9,0.3-5.8,0.7-8.5
			c0.2-1.3-0.7-2.8-1-4.1c-0.7-1.7-0.2-2.6,1.5-2.4c5.4,0.5,10.5-0.5,15.6-1.8c3.3-0.8,6.9-1.2,10.2-1.7c0.8-0.2,1.7-0.5,2.6-0.7
			c5.1-1,10.2-2.2,15.3-2.9c2.9-0.3,5.8,0,8.7,0.2c2.8,0.2,4.9,2.8,4.9,5.8c-4.9,1-9.7,2.4-14.5,4.1c-5.4,1.8-11.5,2.8-17.1,4.3
			c-3.1,0.8-6.3,1-9.4,1.3c-2.4,0.2-2.6,0.7-2.6,3.1c0.2,3.1,0,6.3,0,9.4c-0.2,7.2-0.3,14.3-0.3,21.5c0,5.1,0,10,0,15.1
			c0,6.1,0,12.1,0,18.2c0,1.7,0.5,3.6,0.7,5.6c1.8,0.2,3.9,0.3,5.9,0.5c5.6,0.2,11.2,0.5,16.7,0.5c4.6,0,9-0.3,13.6-0.7
			c1.7-0.2,3.6-0.8,5.3-1.2c1.2,3.1,1,3.4-1.7,4.4c-1.3,0.5-3.3-0.2-4.3,1.5c-2.9-0.8-5.3,1-8,1.2c-2.9,0.2-5.9,1-8.9,0.5
			c-3.1-0.5-5.9,0.2-8.9,0.2C889.2,739.1,886.3,739.4,882.8,739.7z"/>
		<path fill="#FFFFFF" d="M1010.2,721.7c2.6-2.2,1.3-5.6,1.7-8.7c0.3-2.8-0.2-5.6-0.2-8.4c-0.2-3.6-0.3-7.2-0.5-10.7
			c-0.5-10-0.8-19.9-1.2-30c-0.2-2.4,0.2-4.6,0.2-7c0-3.9,0-7.7,0-11.6c-1.8-1.8-5.1-1.8-5.4-5.8c1.5-2,3.8-2.4,5.9-2.8
			c6.4-1,13-0.7,19.4,1.2c3.6,1,7.5,1.3,10.9,2.8c7,2.6,14.1,4.8,20.2,9.5c5.3,3.9,10.7,7.4,15,13c1.8,2.4,2.8,5.3,2.8,8.4
			c0,4.6-1.2,8.7-4.3,12c-4.6,5.1-8.9,10.5-13.5,15.6c-2.4,2.6-4.9,4.9-7.5,7.4c-3.9,3.6-7.9,7.2-11.8,10.7c-0.5,0.5-1,0.8-1.5,1.2
			c-3.3,1.5-5.8,4.6-8.7,6.9c-1.5,1.2-2.2,3.3-2,5.4c0.2,3.3,0.3,6.3,0.3,9.5c0,8.5,0.2,17.2,0,25.8c-0.2,8.5-0.7,17.1-0.8,25.8
			c0,3.6,0,7-0.5,10.4c-0.5,3.6-1.2,4.1-4.3,3.9c-1.3,0-2.8-0.3-4.3,0c-3.6,0.5-5.8-2-7.9-4.8c-0.7-1-0.8-2.8-0.8-4.1
			c0-6.6,0-13.3,0.3-19.7c0.8-11.5,0.5-22.8,0.3-34.3c0-2.6-0.3-5.1-0.5-7.7c0-0.5-0.2-1,0-1.3
			C1013.6,729.5,1011.1,726.1,1010.2,721.7z M1028.8,706.4c0.5,1.2,1.3,1.7,2.4,0.8c2.2-1.8,4.8-3.4,6.4-5.8c2.9-3.9,6.4-7,9.7-10.7
			c4.6-5.4,8.9-11.2,13.1-17.1c2.6-3.4,2-7.2,1.2-11c-0.5-2.6-1.5-4.3-3.9-4.8c-0.2,0-0.3-0.2-0.5-0.3c-1.3-2.8-3.8-3.6-5.9-4.6
			c-2-0.8-4.3-1.7-6.3-2.9c-4.9-2.9-10.4-3.4-15.6-4.8c-2-0.5-4.3-0.2-6.3,1c0.2,0.7,0,1.3,0.3,1.7c1.8,3.3,2.2,6.9,2.2,10.4
			c0,2,0.2,3.9,0.2,5.9c0.2,3.1,0.5,6.1,0.5,9c0.2,4.6,0.2,9,0.5,13.6"/>
		<path fill="#FFFFFF" d="M1192.7,727.5c-6.4,0.7-12.8-1-19.1-2c-2-0.3-4.3-0.3-6.4-0.5c-1.3-0.2-2,0.5-2,1.8c0,2.6-0.2,5.1-0.2,7.7
			c0.5,13,0.8,25.8,1.3,38.6c0.2,4.6,1.2,5.3,5.6,4.1c8-2.2,16.2-4.1,23.7-7.9c3.8-0.2,6.6-3.3,10.7-2.9c2.4,0.2,4.4,0.7,5.9,2.6
			c1,1.2,1,2.4-0.2,3.4c-0.8,0.8-1.7,1.7-2.9,2c-6.1,2.4-12,5.9-18.4,7.4c-4.1,0.8-8.2,2.4-12.5,3.1c-7.7,1.2-15.3,2-22.7-1.8
			c-1.8-1-4.1-1.5-4.9-3.8c-0.2-0.3-0.5-0.7-0.5-1.2c0-3.3,0.2-6.3,0-9.5c-0.2-3.6-0.5-7.4-0.5-10.9c-0.2-6.1-0.3-12.3-0.3-18.2
			c-0.2-7.2-0.2-14.3-0.2-21.5c0-3.9,0.3-7.9,0.5-12c0.3-7.2,0.5-14.3,0.8-21.5c0.2-2.9,0-5.9,0.2-8.9c0.2-2.4,0.2-4.8,0.5-7.4
			c0.3-2.9,1-5.9,0.7-8.9c-0.5-3.6,0.5-7,0.5-10.5c0-2.6,0.3-5.1,0.3-7.7c0.2-2.2,1.2-3.4,3.6-3.3c1.2,0,2.8,0,3.8,0.7
			c3.3,1.7,6.6,1.3,10,1.8c5.3,0.7,10.5,1.2,15.8,1.7c5.4,0.5,11,1,16.6,1.7c1.8,0.2,3.8,0.8,5.4,1.7c1.5,0.7,1.8,2,1.3,3.6
			c-0.3,1.2-2,1.8-3.4,1.8c-5.6-0.3-11.2-0.5-16.9-0.8c-3.9-0.3-7.9-0.8-11.8-1.2c-2.8-0.2-5.6-0.3-8.4-0.2c-1.8,0-2.4,0.7-2.4,2.8
			c-0.2,5.3-0.2,10.5-0.3,15.8c-0.2,7.9-0.5,15.8-0.7,23.7c-0.2,7.4-0.3,14.8-0.5,22.2c0,3.6,0.5,4.6,4.3,5.1c4.9,0.8,10,1.5,15,2.2
			c5.3,0.7,10.5,1.2,16.1,1.7c0.8,0.2,1.7,0.5,2.6,0.7c1.5,0.3,2.2,1.3,2,2.9c0,1.3-1.2,1.8-2.6,2c-2.2,0.2-4.3,0.2-6.4,0.2
			C1195.1,727.7,1193.9,727.5,1192.7,727.5z"/>
		<path fill="#FFFFFF" d="M1096.5,793.6c4.6-1.2,9.2-2.8,14-3.6c5.3-1,10.5-1.7,15.8-2c3.8-0.3,7.7,0.2,11.6,0.5
			c3.3,0.3,3.6,0.7,5.6,3.3c-0.8,1.7-2.2,1.8-3.9,2.4c-3.3,0.8-6.4-0.3-9.7,0.5c-5.3,1.5-10.7,2.6-16.2,4.1c-5.1,1.3-9.9,3.6-15,4.8
			c-3.3,0.7-6.8,0.2-10.2-0.3c-2.6-0.3-4.8-1.5-7.4-2.4c-2.9-1-5.1-3.9-4.9-7.2c0-10,0.2-19.9,0.2-30c0-3.1-0.2-5.9,0.2-9
			c0.2-2.9,0.8-5.6,1-8.5c0.3-2.9,0.5-5.8,0.7-8.7c0.2-1.2,0.2-2.4,0.3-3.6c0.5-3.4,1-7,1.3-10.4c0.7-6.3,1.3-12.6,2-18.7
			c0.7-6.6,1.2-13.3,1.8-19.7c0.7-7.5,1.2-15.1,2.2-22.5c0.5-3.1,0.8-6.1,1-9.2c0.2-4.8,2.6-6.6,7.2-4.9s8.2,4.8,8.5,10
			c0.2,2.9,0.2,5.9,0,8.9c-0.2,4.6-0.5,9-0.8,13.6c-0.3,3.4-0.7,6.9-1,10.2c-0.5,4.9-0.8,9.7-1.3,14.6c-0.7,7.2-1.3,14.1-2,21.3
			c-0.5,4.8-0.8,9.7-1.2,14.5c-0.3,4.1-1,8.4-1.3,12.5c-0.3,3.6-0.7,7.2-0.7,10.7c-0.2,7.9-0.2,15.8-0.2,23.7
			C1094.2,790.3,1094.5,792.1,1096.5,793.6z"/>
		<path fill="#FFFFFF" d="M774.5,690.7c-1-2.4-2.9-3.8-5.4-4.8c-3.3-1.2-6.3-0.5-9.5-0.3c-6.6,0.5-13.3,1-19.9,1.5
			c-2,0.2-4.1,0.2-6.1,0.2c0.2-1.3,0.5-2.9,0.7-4.4c1-7,1.5-14,2.4-21c0.8-6.4-3.8-8.9-9.2-10.5c-0.5-0.2-1.8,0.7-2,1.2
			c-0.5,2.6-0.7,5.1-1,7.9c-0.7,5.8-1.5,11.6-2.2,17.4c-0.2,1.5-1,5.3-2,9.9c-0.2,0-0.2,0-0.3,0.2c-8,1.2-15.8,2-23.8,3.1
			c-0.7,0.2,0.5,0.3-0.5,0.7c1.2,1.5,0,2.9,1,3.9c2.4,2.4,5.4,2.4,8.4,2.2c4.3-0.2,8.5-0.7,13.1-1c-3.6,13.8-0.3,7.2-5.3,20.8
			c-4.8,13.1-22.7,50.3-30.4,52.1c-1.7,0.3-3.6-11.2-0.7-26.3c1.2-5.8,6.1-32.7,7-39.6c0.2-0.8-0.3-2-0.8-2.9
			c-2.6-3.9-7-3.3-10.4-4.8c-0.8,3.8-1.8,7.2-2.6,10.5c-2.8,12.8-2.6,15-6.6,27.9c-1.8,6.3-18.4,42.2-26.4,38.5
			c-4.3-2.2-2.9-7.4,0.2-21.3c1.5-6.6,2.4-13.3,4.1-19.9c1-3.9,2-7.9,3.1-11.8c1.5-6.1,3.3-12.1,4.6-18.2c1-4.1-2-8-5.4-8.9
			c-2.6-0.5-4.3-1.2-6.6-1.8c-1.3,3.1-2.9,6.1-4.3,9.4c-5.1,13.5-12.5,16.1-17.6,21.2c-0.2,0.2-0.5-4.9-0.7-5.3
			c-1-2.4-1.8-4.9-3.1-7.5c-1.3-2.9-2.4-6.1-4.4-8.4c-3.3-3.8-4.4-6.9-8.4-9.9c-3.1-2.6-8.9-2.2-11.6,0.5
			c-3.8,3.8-8.7,6.6-11.2,11.5c-3.4,6.4-9.5,14.6-23.8,13.8c-1.5-3.6-2.8-7-4.4-10.2c-2-3.6-5.3-5.6-9.5-6.1
			c-1.8-0.2-4.8,2.6-4.8,3.8c0.5,6.1,2.4,11.8,8,14.6c3.9,2,4.9,4.4,4.1,8.4c0,0.3,0,0.7,0,1c-0.7,5.8-8.9,34.6-14.3,42.1
			c-2.8,3.9-5.6,7.2-10.4,8.7c-1.3,0.5-2,0-2.8-1c-2.4-3.6-2-7.9-1.7-11.6c0.8-11.2,2-22.3,3.4-33.5c0.5-4.3,1.7-8.5,2.9-12.6
			c1.2-3.9,7.4-22.7,9-28.1c2-6.4,10.7-34.8,12-40.1c1.8-8.2,3.6-16.7,3.1-25.4c-0.2-3.1-0.7-5.6-3.1-7.5c-1.5-1.3-3.6-2.2-5.6-3.1
			c-1.3-0.5-3.1-1.2-4.4-0.8c-2.9,0.8-5.3,2.9-6.4,5.6c-2.9,6.3-5.8,12.6-7.9,19.2c-4.3,13.6-7,27.6-9,41.7
			c-1.8,12.3-3.6,24.3-5.9,36.5c-2.4,12.5-2,16.7-5.8,29.1c-1.3,4.3-11.5,34-17.2,32.9c-8.5-3.4-5.1-20.4-3.8-28.4
			c0.8-5.1,2.2-10.2,3.3-15.3c1.5-7.2,2.9-14.3,4.3-21.5c0.5-2.8-1.2-5.3-3.8-5.9c-2.2-0.5-4.8-0.7-6.3-2c-2.6-2.4-5.4-3.4-8.7-4.3
			c-5.3-1.5-9.7,0.2-13,3.6c-8.2,8.9-15.1,18.6-19.2,30.4c-3.8,11.2-5.4,22.5-4.8,34.3c0.2,2.4,0.3,5.3,1.7,7.4
			c3.6,5.6,8.9,9.4,15.3,11.2c5.6,1.5,10.5,0.7,14.3-3.8c2.4-2.9,4.1-6.3,5.9-9.5c0.8-1.3,1.7-2.8,2.8-4.4c0.2,1,0.2,1.2,0.3,1.3
			c0.8,3.9,4.4,8.4,8.4,10.9c2.2,1.3,2.4,0.8,4.8,1.7c3.3,1,9.4-6.3,11.5-8.9c1.3-1.7,4.9-10.2,5.9-11.5c0.5,8.7,3.3,13.3,12.1,17.2
			c3.9,1.7,7.7,2.2,12,3.3c11.8,2.8,20.8-20.1,23.2-25.4c1.3-2.9,8.4-36.3,6.4-36.1c3.6-0.3,12.5-2.2,15.5-5.9c-1,3.1-3.6,11-4.8,14
			c-2.9,7.4-5.1,14.6-4.4,22.5c0.5,8.4,1.8,13.6,7,21c8.9,12.5,28.3,6.4,33.4-3.9c5.1-10.4,11-20.7,13.6-32.4
			c0.7-3.4,1.5-6.9,1.8-10.4c0.2-1.7,3.4-2.9,5.1-3.8c2-1,5.8-6.6,8.2-7.9c0,0.7-1.8,5.8-1.8,6.3c-1.8,8.5-4.1,16.9-5.3,25.6
			c-1.7,11.2-2.2,26.3,6.6,31c15.8,8.5,38.6-36.1,40.2-37.5c1.3,1.2-7.9,38.3,6.4,37.3c8-0.5,26.1-35.3,29.1-41.4
			c-11.5,45.3-4.6,53.2,12.3,53.2c5.3,0,10.9-1.7,16.7-7.9c10.9-11.6,1-7.9-2.8-4.6c-5.4,4.6-9.4,5.9-13.8,3.4
			c-5.8-3.4-7.9-4.4-1.5-34.5c3.1-15,6.1-24.8,8.9-39.7c0.8-5.1,1.8-9,2.8-13.1c5.8-0.8,11.6-2,17.4-2.4c7.9-0.5,15.6-1.5,23.5-0.3
			C774.4,693.2,775.2,692.2,774.5,690.7z M539.2,635.4c1-3.1,3.9-3.4,3.3,0c-0.7,3.4-5.4,29.1-7.2,32.7s-7.9,22.3-8.4,22.3
			C528.6,681.4,538.2,638.5,539.2,635.4z M476.5,722.6c-2,8.2-3.9,16.6-7,24.3c-3.6,9.5-6.6,19.4-13.1,27.6c-1.8,2.2-3.9,4.3-6.3,7
			c-0.3-1.5-0.7-2.4-0.8-3.3c-1.7-13-0.3-25.6,4.4-37.6c1.8-4.8,4.1-9.2,6.6-13.8c3.4-5.8,7.5-11,11.6-16.2c1.5-1.8,3.6-2.8,6.6-1
			C478,713.9,477.5,718.3,476.5,722.6z"/>
	</g>
</g>
<g id="page_elelments" display="none">
</g>
</svg>
