<?xml version="1.0" encoding="utf-8"?>
<!-- Generator: Adobe Illustrator 18.1.1, SVG Export Plug-In . SVG Version: 6.00 Build 0)  -->
<svg version="1.1" id="Layer_1" xmlns="http://www.w3.org/2000/svg" xmlns:xlink="http://www.w3.org/1999/xlink" x="0px" y="0px"
	 viewBox="0 341.2 1192.4 167.4" enable-background="new 0 341.2 1192.4 167.4" xml:space="preserve">
<g id="Layer_4" display="none">
	
		<linearGradient id="SVGID_1_" gradientUnits="userSpaceOnUse" x1="411.2" y1="543.7" x2="411.2" y2="1157.2" gradientTransform="matrix(1.5789 0 0 -1.5789 0 1672.3684)">
		<stop  offset="0" style="stop-color:#EC008C"/>
		<stop  offset="1" style="stop-color:#00AEEF"/>
	</linearGradient>
	<polygon display="inline" opacity="0.5" fill="url(#SVGID_1_)" enable-background="new    " points="2379.8,811.5 -1081.3,813.9 
		-1081.3,-152.4 2379.8,-154.8 	"/>
	<polygon display="inline" opacity="0.2" fill="#12ACEF" enable-background="new    " points="2379.8,811.5 -1081.3,813.9 
		-1081.3,-149.6 2379.8,-151.9 	"/>
</g>
<g id="Layer_1_1_" display="none">
	<g display="inline">
		<polygon opacity="0.4" fill="#EA0091" enable-background="new    " points="185.7,710.5 1332.8,578 752.7,445.7 		"/>
		<polygon opacity="0.1" fill="#12ACEF" enable-background="new    " points="1872,195.1 1842.9,289.5 743.8,526.5 1160.1,114.9 		
			"/>
		<polygon opacity="0.29" fill="#FFFFFF" enable-background="new    " points="1719.2,569.8 1939.1,453.6 1910.5,340.7 1664.4,73.8 
			700.3,548.2 		"/>
		<polygon opacity="0.2" fill="#FFFFFF" enable-background="new    " points="-475.6,616.7 -341.4,134 -90.3,64.7 603.9,641.9 		"/>
		<polygon opacity="0.41" fill="#12ACEF" enable-background="new    " points="742.6,359.9 1649.2,180.3 1833.5,263.8 1833.5,536.3 
					"/>
		<polygon opacity="0.1" fill="#FFFFFF" enable-background="new    " points="-299.4,638.8 737.7,179.2 1620.5,624.3 		"/>
		<polygon opacity="0.14" fill="#12ACEF" enable-background="new    " points="94.9,662.9 1028.4,134.9 1613.2,569.8 		"/>
		<polygon opacity="0.33" fill="#12ACEF" enable-background="new    " points="490.3,439.1 1479.8,124.7 1729.4,490.1 		"/>
		<polygon opacity="0.4" fill="#12ACEF" enable-background="new    " points="-861.9,194.5 -607.7,58.5 165.6,433.7 -818.4,344.2 		
			"/>
		<polygon opacity="0.1" fill="#12ACEF" enable-background="new    " points="238.4,154.7 -814.9,589.5 1245.3,719.3 		"/>
		<polygon opacity="0.25" fill="#12ACEF" enable-background="new    " points="-808.6,189.4 -726,362.2 634.6,516.1 19.4,169.7 		
			"/>
		<polygon opacity="0.25" fill="#12ACEF" enable-background="new    " points="-195.5,565.1 722.2,549.9 -299.4,179.2 		"/>
		<polygon opacity="0.35" fill="#EA0091" enable-background="new    " points="-446.2,578 649.9,723.4 -108.8,252.9 		"/>
		<polygon opacity="0.26" fill="#12ACEF" enable-background="new    " points="-637.3,616.8 135.2,341 -814.9,274.4 		"/>
		<polygon opacity="0.25" fill="#EA0091" enable-background="new    " points="-924.3,705.1 -758.2,272.9 770.4,557.6 		"/>
		<polyline opacity="0.1" fill="#EA0091" enable-background="new    " points="-80.2,565.2 582.5,349.4 955.6,544.8 759.2,685.7 
			187.4,709.1 -126.6,627.1 -90.8,565.2 		"/>
		<polygon opacity="0.25" fill="#EA0091" enable-background="new    " points="2010,592.2 1794.2,169.7 306.5,656.6 		"/>
		<polygon opacity="0.2" fill="#EA0091" enable-background="new    " points="-62.2,613.1 897.6,310.8 1368,479.8 1104,632 
			180.3,708.7 -152.8,636.9 		"/>
		<polygon opacity="0.38" fill="#EA0091" enable-background="new    " points="326.8,731 1479.8,612.1 1029,383 		"/>
		<polygon opacity="0.4" fill="#12ACEF" enable-background="new    " points="-4.7,704.8 374.2,319.2 1456.6,617.5 		"/>
		<polygon opacity="0.35" fill="#12ACEF" enable-background="new    " points="-89.5,341.2 -436.1,545 398.2,797.8 		"/>
		<polygon opacity="0.23" fill="#12ACEF" enable-background="new    " points="-814.9,738.6 95.4,798.1 -401.7,350.9 		"/>
		<polygon opacity="0.38" fill="#EA0091" enable-background="new    " points="584.2,775.7 1716.2,705.1 1023,476.5 		"/>
		<polygon opacity="0.2" fill="#12ACEF" enable-background="new    " points="1911,662.9 1341,319.2 607.6,693.9 		"/>
		<polygon opacity="0.4" fill="#EA0091" enable-background="new    " points="333.5,809.3 -203.2,461.9 -317.4,553.5 -440.7,809.3 
					"/>
		<polygon opacity="0.2" fill="#EA0091" enable-background="new    " points="1830,809.3 1720.4,576.3 1517.8,503.3 1011,809.3 		
			"/>
		<polygon opacity="0.29" fill="#EA0091" enable-background="new    " points="1274.1,809.3 1654.3,756.1 1358.8,470.9 
			1031.7,809.3 		"/>
	</g>
</g>
<g id="Layer_5" display="none">
</g>
<g id="lettering">
	<g>
		<path fill="#FFFFFF" d="M996.9,360.4c2.4-0.2,4.4-0.5,6.6-0.5c4.1,0,9.3,5.2,9.2,9.5c-0.3,6.3-0.9,12.6-0.9,19.1
			c0,6.3,0.3,12.8,0.8,19.1c0.8,10.6,1.6,21.3,2.7,31.9c0.5,3.6,0.9,7.4,3.5,10.9c2.2-2.5,4.1-4.9,5.5-7.7c1.1-2.2,2.4-4.3,3.6-6.3
			c1.6-3,3.5-6,4.7-9.2c3.2-8.2,6.2-16.6,7.4-25.4c0.9-6.5,2.1-12.8,2.8-19.3c0.6-4.9-0.2-9.5-3.8-13.3c-2.4-2.5-4.6-5.4-3.2-9.3
			c0.3-0.8,0.8-1.4,1.3-2.4c3.6,0.5,6.3,2.1,9,4.3c1.3,1.1,2.8,2.1,4.1,3.2c2.7,2.2,5.5,2.8,9.2,2.8c7.3-0.2,12.9,3.9,17.4,9.3
			c2.5,3.2,2.7,7.4,2.4,11.2c-0.6,5.5-1.4,10.9-2.8,16.3c-3,11.4-4.6,23.1-4.1,34.7c0.2,4.1,0.8,8.2,5.2,10.6
			c2.8,1.6,4.1,1.6,5.2-1.6c0.9-2.7,1.6-5.5,2.1-8.4c0.9-5.2,1.7-10.4,2.8-15.6c1.1-5.2,2.1-10.4,3.5-15.5
			c2.4-8.5,5.2-16.9,7.7-25.3c2.2-7.1,6.6-13.1,10.9-19.1c11.8,1.3,21.3,13.7,20.4,21.5c-4.7,0.6-5.4,0-11.8-11.2
			c-2.1-0.2-2.5,1.6-3.5,2.8c-3.5,5.2-6.2,10.9-7.1,17.1c-1.6,9.8-3.3,19.7-3.9,29.7c-0.6,10.3,1.6,20.4,5.7,30
			c0.3,0.6,0.6,1.3,1.1,2.2c2.8-1.9,5.5-3.8,7.3-6.5c5.7-8.7,10.4-17.8,13.4-27.9c1.3-4.6,1.3-9.6,1.9-14.5
			c0.6-4.9,1.1-9.6,1.7-14.5c0.6-5.1,1.4-9.9,1.6-15c0.3-6.9,3-13.3,4.9-19.7c1.1-3.6,3.6-4.7,7.3-3.2c4.6,1.9,9.6,5.2,8.4,12.5
			c-0.3,2.2,0.2,4.6-0.2,6.8c-1.1,9.2-3.5,18.2-6.8,26.7c-2.7,6.8-5.4,13.7-8.1,20.5c-0.3,0.8-0.6,1.7-0.5,2.5
			c0.6,4.9,1.7,9.6,4.9,13.7c2.7,3.5,6,4.4,9.9,2.5c4.3-2.1,7.9-4.9,10.9-8.4c0.9-1.1,1.7-2.4,3-3.2c2.4-1.4,3.9-3.6,5.4-5.8
			c2.1-3.3,4.3-6.3,6.5-9.6c0.6-1.1,1.1-2.2,1.6-3.5c5.1,0.8,7.4,2.4,8.8,5.7c-4.9,10.3-13.3,17.5-21.3,24.9
			c-3.8,3.5-8.5,5.5-14.5,5.5c-6.5,0-10.9-2.7-15.2-6.8c-1.4-1.3-2.8-2.4-4.6-3.6c-2.1,3.9-3.6,7.7-6,11.1
			c-3.3,4.7-6.6,9.5-10.7,13.6c-3.6,3.8-8.7,3.8-13.3,1.4c-5.8-3.2-8.8-8.4-10.7-14.5c-0.6-2.1-1.4-4.3-2.4-7.3
			c-0.8,3.3-1.4,5.7-2.1,8.1c-1.9,6.6-5.2,7.7-10.4,7.4c-5.1-0.3-9-2.5-12.6-5.8c-6.6-6.2-8.5-13.9-7.9-22.4
			c0.3-5.5,0.3-11.1,1.1-16.4c0.9-6.5,2.5-13.1,4.1-19.4c1.1-4.6,2.4-9.2,1.7-14.4c-5.4-1.6-10.7-0.2-15.6-0.8
			c-0.9,9.3-1.7,18.2-2.8,26.8c-1.6,11.1-5.1,21.6-9.6,31.7c-3.5,7.6-7.3,15.2-12.2,21.9c-1.9,2.7-4.1,5.1-7.7,4.6
			c-9.5-0.9-15.8-6.8-17.5-16.3c-0.6-3.8-1.3-7.6-2.8-11.5c-1.1,3.8-2.2,7.7-3.5,11.5c-2.1,6.3-4.1,12.6-6.5,18.8
			c-0.6,1.4-2.7,2.7-4.3,3.2c-6.2,1.4-12.2,0.5-17.4-3.3c-2.2-1.6-3.8-3.8-4.6-6.6c-2.8-8.4-3.6-16.9-3.5-25.6c0-5.2,0-10.4,0-15.6
			c0-1.3,0.2-2.5,0.3-3.8c0.5-5.8,1.1-11.7,1.6-17.5c0.2-1.4,0.5-2.8,0.6-4.3c0.2-1.4,0-2.7,0-4.4c-4.3,1.7-8.1,3.2-12.3,4.9
			c0.2,3.2,0.2,6.6,0.3,10.1c0.2,4.7,0.6,9.5,0.3,14.2c-0.3,6.5-0.9,12.9-1.6,19.4c-0.9,9.6-3,19.3-7.3,28.1
			c-1.7,3.5-4.1,6.6-6.5,9.6c-2.1,2.7-5.7,2.7-8.4,2.7c-7.7,0.3-14.5-2.5-19.4-8.7c-6.8-8.8-8.8-19.3-9.3-30.2c0-1.3,0-2.7-0.2-3.9
			c0-0.3-0.3-0.8-0.8-1.4c-0.6,0.8-1.1,1.4-1.4,2.1c-1.7,3.8-3.3,7.7-5.1,11.4c-2.4,4.9-6.3,8.2-11.2,10.6
			c-7.6,3.8-15.6,5.5-23.8,2.7c-6.5-2.2-12.9-5.1-18-10.1c-1.1-1.1-2.1-2.4-1.1-4.3c1.3-2.5,2.8-3.3,5.2-1.7c3,1.9,6.3,3.5,8.5,6.5
			c2.8,3.6,3.3,3.6,7.7,1.7c5.4-2.4,7.7-6.3,7.7-12.2c0-9.3-1.7-18.5-5.4-27c-2.2-5.2-4.7-10.3-8.8-15.2c-1.7,3.8-3.2,7.1-4.7,10.4
			c-5.4,11.4-10.9,22.6-16.3,33.9c-0.3,0.5-0.5,1.1-0.9,1.4c-5.2,4.3-8.5,10.1-13.1,15c-3.8,4.1-10.1,4.3-14.5,0.9
			c4.3-5.4,8.5-10.7,12.5-16.3c2.2-3.2,4.3-6.5,6-9.9c4.7-9.5,9.2-18.9,13.6-28.6c3-6.5,5.8-12.9,8.5-19.4c1.1-2.4,1.3-4.9,0.5-7.6
			c-1.9-7.4-0.6-14.5,1.6-21.6c0.6-2.1,3-3.6,5.1-3.2c2.8,0.6,5.7,1.3,8.4,2.2c3.8,1.4,5.1,3.9,4.6,7.9c-0.9,6.5-2.2,12.8-4.9,18.8
			c-1.4,3.3-1.4,6,0,9.5c2.8,7.1,7.1,13.3,11.2,19.6c3.3,5.1,5.4,10.6,6.8,16.3c1.3,5.2,1.9,10.6,2.5,15.8c0.2,1.7-0.2,3.5-0.2,5.5
			c2.2-1.4,3.3-3.3,4.3-5.4c2.8-5.8,5.7-11.7,8.1-17.7c1.6-4.1,2.7-8.5,3.8-12.8c1.9-7.1,3.8-14.2,5.5-21.3
			c1.3-4.7,2.4-9.5,3.6-14.2c1.9-6.6,7.1-11.1,11.2-16.3c0.3-0.3,0.6-0.6,1.1-0.6c7.6-1.4,16.9-0.2,21.9,7.3
			c1.4,2.2,3.2,4.1,4.9,6.2c3,3.3,4.3,7.4,5.1,12c1.1-0.2,2.1,0,2.7-0.3c3.3-1.7,6.6-3.6,9.8-5.5c2.4-1.4,3.2-3.5,3.2-6.2
			c0.2-2.8,0.8-5.7,1.3-8.4c3.8-0.3,6.9,0.2,9.6,2.2c2.5,1.9,3.8,4.1,3.3,7.7c-0.9,7.1-0.9,14.4-1.6,21.6
			c-0.6,8.5-1.3,16.9-1.9,25.4c-0.5,6.8,0.5,13.6,1.3,20.2c0.5,3.8,0.9,7.4,1.6,11.2c0.3,1.4,0.9,3,1.4,4.7
			c3.5-2.8,3.5-6.8,4.7-10.1c3.9-9.5,5.5-19.4,6.6-29.5c0.9-8.4,1.7-16.9,2.8-25.3c0.9-7.3,2.4-14.5,3.5-21.8
			C996.5,365.8,996.6,363.1,996.9,360.4z M918,379.7c-0.6,1.6-1.3,2.7-1.6,3.9c-2.2,9-3,18.3-2.8,27.5c0.3,10.9,0.9,21.9,1.6,32.8
			c0.3,6.3,1.3,12.6,3.8,18.6c1.1,2.5,2.4,5.4,5.4,6.6c0.8-0.8,1.6-1.4,2.2-2.2c3.5-4.1,5.2-9,6.9-13.9c2.1-5.5,3.2-11.4,3.9-17.2
			c0.8-6.3,2.4-12.5,2.7-18.8c0.5-7.7,0.3-15.6,0.5-23.4c0-2.1-1.1-2.7-2.8-3.2c-1.7-0.5-3.6-1.1-5.4-1.6
			C927,387.6,923.1,383.3,918,379.7z M929.1,362.5c-0.8,0.8-1.4,1.3-1.4,1.7c-1.1,5.8-0.9,11.8,1.4,17.4c1.4,3.5,5.5,5.1,9,3.9
			c0.8-0.3,1.7-1.7,1.7-2.4C938.8,374.9,934.4,368.8,929.1,362.5z M1144.7,384.6c1.7-6,3-12,2.5-18.3
			C1146.8,372.4,1143.3,378.1,1144.7,384.6z"/>
		<path fill="#FFFFFF" d="M598.3,449.5c2.7-0.8,4.6-2.7,6.6-4.6c5.7-4.9,9.9-10.7,13.6-17.2c0.8-1.4,1.1-3.5,0.6-4.9
			c-2.4-6.8-2.5-13.7-2.4-20.5c0.2-8.5,0.6-17.1,1.7-25.6c0.8-6,2.5-11.8,5.5-17.2c2.2-3.9,3.6-8.2,7.3-11.2
			c0.8-0.6,1.6-1.3,2.4-1.4c4.1-0.8,9,1.9,11.2,5.7c3.8,6.6,4.3,13.6,3.3,21c-1.1,7.4-3.8,14.2-6,21.2c-2.5,7.9-5.2,15.6-7.9,23.5
			c-1.9,5.5,2.1,15,7.4,17.5c1.7,0.8,4.1,0.3,5.8-1.4c0.9-1.1,1.7-2.2,2.7-3.5c9.6-12.9,14.2-27.8,15.6-43.6
			c0.5-5.1-0.8-10.3-1.1-15.5c-0.3-4.3-0.3-8.5-0.5-13.4c3.3,0.5,6.2,0.6,8.7,1.4c2.8,0.9,3.8,3.8,4.3,6.6c0.8,4.9,1.6,9.6,2.5,14.5
			c0.2,0.6,0.5,1.1,0.9,2.2c1.3-1.6,2.5-2.7,3.2-4.1c3-5.8,7.1-10.9,11.5-15.6c2.2-2.4,4.6-3.2,8.1-2.5c6.3,1.1,9.8,4.9,10.6,10.9
			c0.8,5.1,1.3,10.1,1.3,15.2c-0.2,14.7,1.3,29.2,5.4,43.3c1.6,5.4,3.2,10.7,5.2,15.9c0.8,2.1,2.5,3.8,4.3,5.4
			c2.5,2.4,3,2.7,4.6,6.5c-3.9,1.1-7.6,1.1-11.1-1.1c-6.3-4.1-10.6-9.9-13.1-16.9c-5.8-16.4-8.7-33.6-9.2-51
			c-0.2-3.2,0.2-6.3,0.2-9.5c0-0.6-0.3-1.3-0.5-2.8c-1.3,1.6-2.1,2.5-2.7,3.5c-4.3,6.5-7.3,13.4-9.8,20.7c-3.5,10.3-6,20.8-6,31.9
			c0,3.5,0.2,6.9,0.3,10.4c0.2,4.1-1.9,6.2-6,4.9c-2.2-0.6-4.4-1.6-6.3-2.7c-2.7-1.6-4.1-3.8-3.6-7.1c0.3-2.7,0-5.4-0.8-8.4
			c-0.6,0.9-1.4,1.9-1.9,2.8c-4.7,8.1-13.4,11.4-21.9,8.7c-4.3-1.3-8.1-3.6-12.2-5.7c-0.9-0.5-1.9-1.1-3-1.9
			c-1.7,2.5-3.5,4.9-5.2,7.1c-5.1,7.1-12,11.8-20.4,13.9c-6.2,1.6-12.5,2.5-18.8,0.8c-6.6-1.9-13.3-3.6-20.2-5.5
			c-2.1,19.1,1.9,37.6,5.2,56.1c-1.9,1.6-3.8,2.8-6,2.4c-3.6-0.6-7.7-0.3-10.7-3c-0.8-0.8-1.3-2.4-1.4-3.5c-1.1-8.1-2.5-15.9-3-24
			c-0.6-13.1-0.8-26.2-0.9-39.3c-0.2-12.5,0.2-24.8,0.2-37.3c0-4.6,0-9.2,0-13.9c0-1.1-0.2-2.2-0.3-3.5c-5.7,0.9-11.2,1.7-16.7,2.7
			c0,4.3,0.6,8.8,0.2,13.3c-1.1,10.9-1.1,21.9-4.6,32.5c-2.1,6.3-5.1,12.3-8.2,18.2c-2.7,5.1-7.9,6.3-13.3,6.9
			c-12.3,1.4-22.7-10.6-23.4-20.4c-0.6-11.2-1.9-22.6,0.2-33.8c1.7-9.6,3.5-19.3,5.5-28.9c0.9-4.4,2.1-8.7,3.2-13.1
			c0.3-1.3,1.1-2.4,1.6-3.5c1.6-3.8,4.1-5.4,8.2-4.4c0.6,0.2,1.7-0.2,2.4-0.6c4.7-2.8,9.3-2.1,13.9,0.5c6.2,3.3,9.6,8.4,10.9,15.3
			c0.6,3.8,1.9,7.6,2.8,11.5c5.4-0.8,9.3-3.2,12-7.4c2.2-3.3,3.8-7.1,5.8-10.6c0.5-0.9,1.6-2.1,2.4-2.1c3.5-0.3,6.9-0.2,10.1,1.4
			c2.4,1.3,3,3.3,2.8,5.8c-0.2,3.2-0.2,6.2-0.3,10.4c3.2-3.6,5.8-6.2,7.9-9.2c5.2-7.7,15.3-6.6,21.3-2.8c5.8,3.8,8.5,9.6,10.6,15.9
			c2.7,8.2,3.5,16.7,3.6,25.3c0.2,5.8,0.3,11.5,0.5,17.4c0.2,6.9-1.3,13.7-3.8,20.4c-0.6,1.6-2.1,2.7-3.2,3.9
			C597.9,449,598.1,449.2,598.3,449.5z M583.1,370.8c-4.9,2.2-8.2,5.8-11.1,9.9c-3.9,5.5-6.9,11.7-8.7,18.3
			c-2.5,10.3-1.6,20.7-1.9,31.1c-0.2,3,0.3,5.2,3.6,6.5c1.6,0.6,2.7,2.5,3.9,3.9c1.1,1.3,2.1,2.7,3.2,4.1c4.4,5.8,12.3,2.4,14.1-2.4
			c2.1-5.5,3.5-11.4,3.6-17.4c0.2-10.1-0.2-20.2-1.1-30.2C587.7,386.6,586.9,378.6,583.1,370.8z M503.7,375.7
			c-0.2,0.5-0.5,0.9-0.6,1.6c-1.4,6.5-2.8,12.9-4.4,19.4c-3.5,13.7-4.3,27.6-3.2,41.7c0.3,5.2,1.4,10.3,6.2,14.2
			c1.7-1.7,3.8-3.3,5.2-5.2c5.4-7.1,8.2-15.2,9.2-23.8c1.1-8.7,1.7-17.5,2.7-26.2c0.6-4.7-0.3-9.2-0.8-12.9
			C512.8,381.3,508.3,378.6,503.7,375.7z M510.9,358.2c-0.6,1.3-1.3,1.9-1.1,2.5c0.5,2.4,0.9,4.9,1.7,7.1c1.1,2.5,2.5,5.1,3.8,7.4
			c0.3-0.2,0.6-0.3,1.1-0.5C515.1,369.4,515.1,363.6,510.9,358.2z"/>
		<g>
			<path fill="#FFFFFF" d="M356.8,395.2c0.5-0.2,0.9-0.5,1.6-0.6c3.5-0.3,6.9-0.3,10.3-0.6c2.2-0.3,4.4-0.8,6.5-1.4
				c4.7-1.4,8.8-3.8,12.6-6.8c3.6-2.7,6.8-5.7,9.6-9.3c3.6-4.7,4.7-10.3,4.4-16.3c0-0.9-0.8-1.9-1.3-2.7c-2.5-3.6-6.2-4.7-10.3-4.6
				c-6.8,0.2-13.1,1.6-19.4,4.1c-6,2.4-11.4,5.8-16.1,9.9c-2.1,1.7-3.6,4.1-5.4,6.3c-0.8,0.9-1.4,2.2-2.1,3.3
				c-1.4,2.2-3.9,2.5-6,0.8c-2.4-1.9-3.6-4.3-4.3-7.1c-0.2-0.8,0.2-1.7,0.5-2.5c1.7-3.6,4.1-6.6,6.9-9.6c2.4-2.5,5.2-4.4,7.9-6.5
				c2.5-1.9,5.4-2.8,7.9-4.3c3.9-2.2,8.4-3.5,12.6-4.7c6.6-2.1,13.4-1.9,19.9,1.1c2.7,1.3,4.9,3.3,7.3,5.2c1.7,1.4,3.2,3,4.6,4.7
				c1.7,2.4,3.3,4.7,4.9,7.3c1.9,3.3,2.7,6.9,2.8,10.7c0.2,3.2-0.2,6.3-1.7,9.2c-1.1,2.1-2.1,4.4-3.3,6.3c-1.1,1.7-2.7,3.2-4.1,4.7
				c-1.3,1.3-2.5,2.5-3.9,3.8c-1.1,0.9-2.5,1.6-3.8,2.4c-1.4,0.8-2.7,1.7-4.1,2.5c-1.1,0.8-1.1,0.9-0.2,1.9c2.2,2.2,4.4,4.3,6.5,6.6
				c2.7,3.2,5.1,6.6,6.9,10.3c2.1,3.9,3.8,7.9,5.1,12c1.1,3.6,2.1,7.3,2.7,11.1c0.6,3.6,0.9,7.4,1.1,11.1c0.2,3.9-0.6,7.9-1.7,11.7
				c-0.8,3-2.2,5.8-3.8,8.5s-3.8,4.7-5.8,7.1c-0.2,0.2-0.3,0.3-0.5,0.5c-1.4,2.5-4.1,3.5-6.6,4.4c-3.5,1.4-6.9,2.5-10.6,3.2
				c-3.2,0.5-6.5,0.3-9.6,0c-2.4-0.2-4.7-0.5-6.9-1.1c-3.5-1.1-6.9-2.5-10.1-4.3c-4.9-2.5-9-6.2-12.3-10.6c-1.1-1.4-2.2-3.2-3.3-4.6
				c-1.3-1.9-2.7-3.6-3.9-5.4c-1.3-1.7-1.7-3.5-1.7-5.5c0-0.9-0.2-1.9-0.3-2.8c0.3,0,0.6-0.2,0.8,0c1.3,0.9,2.4,2.1,3.5,2.8
				c3.5,2.5,5.1,6.5,7.4,9.8c1.6,2.2,3.6,3.8,5.8,4.9c2.7,1.4,5.5,2.8,8.4,3.5c3.6,0.9,7.4,1.7,11.4,1.3c5.5-0.6,10.6-2.2,15.3-4.7
				c4.1-2.1,6.8-5.4,8.7-9.5c1.3-2.7,2.5-5.2,3.8-7.9c0.5-1.3,0.9-2.5,0.3-3.8c-0.2-0.3,0-0.6,0-0.9c1.3-4.9,0.8-9.9,0.2-14.8
				c-0.8-5.8-2.4-11.4-5.1-16.7c-2.2-4.4-5.4-8.1-9.9-10.1c-3.3-1.6-6.9-2.4-10.9-1.9c-3.2,0.5-6.3,0.8-9.3,1.1
				c-3,0.3-5.1-1.4-6.6-3.6C358.6,401.2,357.5,398.3,356.8,395.2z"/>
			<path fill="#FFFFFF" d="M317.5,455.2c-1.1-0.3-1.9-0.5-2.5-0.9c-3.5-1.7-6.8-3.6-10.1-5.4c-2.7-1.4-5.4-3.2-8.1-4.6
				c-5.5-3-11.2-5.7-16.9-8.7c-6.9-3.6-13.6-7.6-20.5-11.1c-4.3-2.2-8.7-4.1-12.9-6.3c-2.5-1.3-5.1-2.7-7.6-4.1
				c-0.3-0.2-0.6-0.5-0.9-0.5c-2.5-0.5-3.3-2.7-4.3-4.6c-1.7-3-2.2-6.3-2.2-9.6c0-1.1,0.6-1.9,1.7-2.2c5.7-1.6,11.4-3.2,17.1-5.1
				c3.2-1.1,6.2-2.7,9.3-4.1s6.3-2.8,9.3-4.3c6-2.8,12-5.8,18-8.7c4.1-2.1,8.2-3.9,12.3-5.8c3.2-1.4,6.2-3,9.3-4.4
				c1.7-0.8,3.5-1.3,5.2-1.7c2.8-0.8,4.6,0.5,5.5,3.2c0.8,2.5,0.5,4.9-0.8,6.8c-0.9,1.4-2.5,2.5-3.9,3.6c-1.3,0.9-2.7,1.6-3.9,2.2
				c-3.6,1.9-7.1,3.9-10.7,5.8c-6.5,3.5-12.9,6.9-19.3,10.4c-3.8,2.1-7.7,4.1-11.5,6c-3.2,1.6-6.5,3.3-9.6,4.9
				c-1.6,0.8-3.3,1.4-5.4,2.2c0.6,0.5,1.1,0.9,1.6,1.1c3.5,1.9,6.9,3.6,10.4,5.5c3.5,1.7,6.9,3.6,10.4,5.4s6.9,3.3,10.3,5.1
				c5.1,2.5,9.9,5.2,15,7.7c2.7,1.4,5.5,2.8,8.2,4.3c0.3,0.2,0.5,0.3,0.8,0.3c2.1,0,3,1.1,3.5,3c0.3,1.3,1.3,2.4,1.7,3.5
				c0.9,2.2,2.1,4.3,2.5,6.6C318.3,452,317.7,453.6,317.5,455.2z"/>
		</g>
		<path fill="#FFFFFF" d="M116.1,406.2c1.9-13.1,4.6-25.1,12.5-35.4c6.8,1.3,13.6,2.4,19.7,5.7c5.5,3.2,8.7,8.4,9.8,14.5
			c1.6,9.8-1.6,18.5-8.1,25.7c-3.3,3.8-7.9,4.7-12.8,4.6c-2.7-0.2-5.2-0.6-8.1-0.9c-0.2,1.1-0.6,2.1-0.5,2.8
			c0.5,10.4,1.1,20.7,4.9,30.5c2.1,5.2,5.4,9.3,10.3,12c2.8,1.6,5.5,1.9,8.1,0.3c5.2-3.3,10.4-6.5,15.3-10.3
			c4.9-3.9,9.3-8.5,12.5-14.1c1.4-2.5,3.8-3.6,6.9-3c1.3,0.3,2.7,0.3,3.9,0.3c2.1,0,3.8,0.5,5.1,2.5c-0.8,3.8-3,6.9-5.5,9.6
			c-7.7,8.2-16.1,15.6-27,19.7c-7.1,2.7-14.2,2.8-21-0.3c-8.8-3.9-16.9-9.5-21-18.8c-2.2-4.9-3.6-10.3-4.6-15.5
			c-0.9-5.8-1.3-12-1.1-18c0.2-4.1-1.1-6.9-4.9-8.7c-1.3-0.6-2.5-1.4-4.3-2.5c-0.6,2.5-1.6,4.6-1.9,6.6c-1.7,12.2-3.3,24.3-4.7,36.6
			c-1.6,13.9-3,27.8-4.6,41.7c-0.6,5.4-3.6,6.8-8.5,4.7c-0.5-0.2-1.1-0.6-1.6-0.8c-4.1-1.3-6.2-4.3-7.6-8.2
			c-5.8-15.3-9.3-31.3-12-47.5c-0.3-1.4-0.6-2.8-0.9-4.9c-2.2,2.7-2.1,5.4-2.4,7.7c-1.7,11.5-3.6,23.1-5.2,34.7
			c-0.8,6.3-2.2,12.5-4.3,18.3c-2.2,5.8-6.3,8.1-12.5,6.5c-6-1.6-10.4-4.6-13.3-10.4c-4.6-9.6-7.3-19.7-9-30
			c-2.7-15.6-3.8-31.3-4.3-47.1c-0.2-6.5-0.8-12.9-1.3-19.3c-0.3-4.1-1.1-8.1-2.8-11.7c-0.8-1.7-0.9-3.8-1.4-5.5
			c7.1-2.1,14.1,1.1,16.3,7.6c3.2,8.7,4.7,17.7,5.2,26.8c0.9,19.9,1.9,39.9,6.2,59.5c0.6,3.3,1.7,6.6,2.7,9.9
			c0.2,0.5,0.6,0.9,1.3,1.9c0.6-1.3,1.3-1.9,1.4-2.8c1.6-8.8,3.2-17.7,4.4-26.7c1.6-10.3,3-20.5,4.3-30.8c0.8-6.5,1.3-13.1,1.9-19.6
			c0.5-6.2,1.1-12.2,1.6-18.8c3.3,0,6.6-0.2,9.8,0c3.6,0.3,6,2.1,6.9,5.8c2.7,12.3,5.7,24.6,8.4,36.8c1.6,7.1,2.7,14.5,4.1,21.6
			c0.3,1.4,0.8,2.7,1.6,5.1c0.9-1.6,1.6-2.2,1.6-2.8c1.1-10.3,2.1-20.5,3.3-30.8c0.8-5.8,2.1-11.5,3-17.2c0.6-3.3,1.3-6.8,2.1-10.7
			c3.6-0.5,7.6,0.2,11.5,1.1c1.1,0.3,2.4,1.7,3,3C109.9,401.2,112.6,403.4,116.1,406.2z M140.7,379.1c-6.3,4.3-12.8,26.5-10.6,36
			c3,0.3,5.2-1.3,6.9-3.2c5.2-5.7,7.4-12.5,7.6-20.1C144.9,387.3,144,382.8,140.7,379.1z"/>
	</g>
</g>
<g id="page_elelments" display="none">
</g>
</svg>
