<?xml version="1.0" encoding="utf-8"?>
<!-- Generator: Adobe Illustrator 18.1.1, SVG Export Plug-In . SVG Version: 6.00 Build 0)  -->
<svg version="1.1" id="Layer_1" xmlns="http://www.w3.org/2000/svg" xmlns:xlink="http://www.w3.org/1999/xlink" x="0px" y="0px"
	 viewBox="21.7 168.2 1156.9 515" enable-background="new 21.7 168.2 1156.9 515" xml:space="preserve">
<g id="Layer_4" display="none">
	
		<linearGradient id="SVGID_1_" gradientUnits="userSpaceOnUse" x1="265.4" y1="476.6" x2="265.4" y2="1090" gradientTransform="matrix(2.2642 0 0 -2.2642 0 2077.8301)">
		<stop  offset="0" style="stop-color:#EC008C"/>
		<stop  offset="1" style="stop-color:#00AEEF"/>
	</linearGradient>
	<polygon display="inline" opacity="0.5" fill="url(#SVGID_1_)" enable-background="new    " points="3082.4,995.3 -1880.6,998.7 
		-1880.6,-386.7 3082.4,-390.1 	"/>
	<polygon display="inline" opacity="0.2" fill="#12ACEF" enable-background="new    " points="3082.4,995.3 -1880.6,998.7 
		-1880.6,-382.8 3082.4,-386 	"/>
</g>
<g id="Layer_1_1_" display="none">
	<g display="inline">
		<polygon opacity="0.4" fill="#EA0091" enable-background="new    " points="-63.8,850.7 1581.1,660.7 749.2,470.7 		"/>
		<polygon opacity="0.1" fill="#12ACEF" enable-background="new    " points="2354,111.4 2312.6,246.8 736.5,586.7 1333.4,-3.6 		
			"/>
		<polygon opacity="0.29" fill="#FFFFFF" enable-background="new    " points="2135.1,648.9 2450.5,482.3 2409.5,320.4 
			2056.5,-62.2 674,617.7 		"/>
		<polygon opacity="0.2" fill="#FFFFFF" enable-background="new    " points="-1012.3,715.9 -819.6,23.8 -459.6,-75.4 535.9,752.2 
					"/>
		<polygon opacity="0.41" fill="#12ACEF" enable-background="new    " points="734.7,348 2034.6,90.4 2299,209.9 2299,600.9 		"/>
		<polygon opacity="0.1" fill="#FFFFFF" enable-background="new    " points="-759.6,747.6 727.5,88.8 1993.6,727 		"/>
		<polygon opacity="0.14" fill="#12ACEF" enable-background="new    " points="-194.3,782.5 1144.3,25.2 1983.2,648.9 		"/>
		<polygon opacity="0.33" fill="#12ACEF" enable-background="new    " points="372.9,461.5 1791.8,10.4 2149.6,534.6 		"/>
		<polygon opacity="0.1" fill="#12ACEF" enable-background="new    " points="11.8,53.7 -1498.6,677.2 1455.6,863.3 		"/>
		<polygon opacity="0.25" fill="#12ACEF" enable-background="new    " points="-1489.8,103.3 -1371.2,351.2 579.6,571.9 
			-302.3,75.2 		"/>
		<polygon opacity="0.25" fill="#12ACEF" enable-background="new    " points="-610.4,641.9 705.5,620.4 -759.6,88.8 		"/>
		<polygon opacity="0.35" fill="#EA0091" enable-background="new    " points="-970,660.7 601.8,869 -486.3,194.5 		"/>
		<polygon opacity="0.25" fill="#EA0091" enable-background="new    " points="-1655.8,843 -1417.6,223.3 774.3,631.5 		"/>
		<polyline opacity="0.1" fill="#EA0091" enable-background="new    " points="-445.1,642.4 505.1,332.8 1040.2,612.9 758.3,814.9 
			-61.4,848.4 -511.7,731.1 -460.3,642.4 		"/>
		<polygon opacity="0.25" fill="#EA0091" enable-background="new    " points="2552.2,681.1 2242.6,75.2 109.4,773.5 		"/>
		<polygon opacity="0.2" fill="#EA0091" enable-background="new    " points="-419.3,711 957.1,277.6 1631.5,519.9 1253,738.1 
			-71.8,848.2 -549.3,744.9 		"/>
		<polygon opacity="0.38" fill="#EA0091" enable-background="new    " points="138.6,880.1 1791.8,709.4 1145.4,381.1 		"/>
		<polygon opacity="0.4" fill="#12ACEF" enable-background="new    " points="-336.9,842.3 206.5,289.4 1758.3,717.3 		"/>
		<polygon opacity="0.35" fill="#12ACEF" enable-background="new    " points="-458.5,321.1 -955.5,613.2 240.9,975.9 		"/>
		<polygon opacity="0.38" fill="#EA0091" enable-background="new    " points="507.4,944.2 2130.8,843 1136.8,515.1 		"/>
		<polygon opacity="0.2" fill="#12ACEF" enable-background="new    " points="2410,782.5 1592.6,289.4 541.1,826.9 		"/>
		<polygon opacity="0.2" fill="#EA0091" enable-background="new    " points="425.9,992.4 280.1,807.2 -16.5,678.1 -759.4,992.4 		
			"/>
		<polygon opacity="0.4" fill="#EA0091" enable-background="new    " points="148.1,992.4 -621.5,494.3 -785.2,625.4 -962,992.4 		
			"/>
		<polygon opacity="0.2" fill="#EA0091" enable-background="new    " points="549.3,992.4 -16.5,678.1 -559.5,809.7 365.9,992.4 		
			"/>
		<polygon opacity="0.6" fill="#EA0091" enable-background="new    " points="1404.2,992.4 1017.5,677.2 404.2,992.4 		"/>
		<polygon opacity="0.38" fill="#EA0091" enable-background="new    " points="936.7,992.4 444.7,663.6 -36.7,992.4 		"/>
		<polygon opacity="0.2" fill="#EA0091" enable-background="new    " points="2294,992.4 2136.7,658 1846.4,553.6 1119.6,992.4 		
			"/>
		<polygon opacity="0.29" fill="#EA0091" enable-background="new    " points="1496.8,992.4 2042,916.1 1618.2,507 1149.1,992.4 		
			"/>
	</g>
</g>
<g id="Layer_5" display="none">
</g>
<g id="lettering">
	<g>
		<path fill="#FFFFFF" stroke="#FFFFFF" stroke-miterlimit="10" d="M973.1,341.5c2,5.4,1.1,10-2.9,13.4
			c-7.7,6.3-15.8,11.8-25.4,14.7c-13.1,4.1-24.7,2-35.1-7.2c-4.1-3.6-7.7-7.5-9.7-12.7c-1.4-3.2-3.4-5.2-7.5-5.4
			c-8.4-0.5-14.9-5.4-20.4-11.3c-3.2-3.6-5.9-7.5-8.8-11.3c-1.1-1.4-2-2.9-3.6-5c-2.7,3.6-5,6.6-7.2,9.7c-5,6.8-11.5,11.5-19.2,14.5
			c-5.7,2-11.3,1.4-16.8-0.2c-9.3-2.9-15.8-9.3-22.4-16.1c-2.3-2.3-4.3-4.8-6.3-7c-0.7-0.7-1.1-1.8-2.3-3.4c5,0.9,9.1,1.6,12.5,4.1
			c6.6,4.5,14.3,6.1,22.2,6.3c5.2,0.2,9.3-1.6,11.8-6.8c2.9-6.3,5-12.9,5.4-19.7c0.5-7.2,0.9-14.5,0.7-21.7
			c-0.7-11.3-2.3-22.4-8.4-32.6c-0.7-1.1-1.4-2.3-2.3-3.2c-2.3-2.5-4.1-2.7-7-1.1c-2.5,1.4-4.8,2.9-6.6,5
			c-9.5,9.5-15.8,21.1-20.4,33.5c-2.7,7.5-5.4,14.9-7.9,22.6c-5.4,16.1-7.2,33.1-7.5,49.8c-0.2,7.7,0.5,15.6,1.1,23.3
			c1.4,13.4,2.9,26.5,4.3,39.8c0.2,1.8-0.2,3.6-0.5,5.4c-0.7,3.4-3.4,4.8-6.1,3.2c-4.3-2.5-7.9-5-8.6-11.1c-1.8-17.4-5-34.9-7-52.3
			c-1.4-10.9-1.8-21.7-2-32.8c-0.5-12.7-0.5-25.6-0.2-38.5c0-9.3,0.7-18.6,0.9-27.8c0.2-3.8,0.5-7.7-1.4-12
			c-3.8,2.9-7.5,5.7-10.9,8.8c-0.9,0.9-1.4,2.9-1.4,4.5c1.1,12-0.5,23.8-3.2,35.3c-2,8.8-3.8,17.9-5.7,26.7
			c-1.6,7.2-4.8,14-8.8,20.4c-6.3,9.5-19.7,14-29.9,5.4c-7.2-5.9-13.6-12.7-17.9-21.1c-0.7-1.6-1.6-2.9-2.7-5c-2,2.7-3.8,5-5.4,7.2
			c-3.6,6.3-9.7,9.3-16.3,10.6c-5.4,1.1-10.2-0.9-14.7-3.8c-2-1.4-3.8-2.7-6.1-4.3c-1.6,1.4-2.9,2.5-4.3,3.8
			c-9.7,8.6-20.6,13.1-33.7,10.4c-2.9-0.7-5.9-1.1-8.6-2.5c-10-4.8-20.6-8.4-29.7-15.2c-1.1-0.9-2.3-2-3.4-3.2c1.1-1.1,2-2,3.2-3.2
			c-0.7-1.8-1.4-3.8-2.3-6.6c1.8-0.2,3.4-0.9,4.5-0.5c3.8,1.4,7.7,2.7,10.2,6.3c1.6,2.3,3.6,4.3,5.4,6.3c1.4,1.6,3.2,1.8,5.2,1.4
			c4.8-1.1,7.9-3.6,9.5-8.4c4.5-14.5,6.3-29.4,5.9-44.6c-0.5-11.3-1.4-22.6-5.4-33.5c-1.6-4.5-3.6-8.8-6.3-12.9
			c-3.8-6.3-9.3-5.9-14.3-0.9c-6.6,6.8-10.2,15.2-12.7,23.8c-3.6,12.7-7,25.4-10.2,38c-1.6,6.6-3.2,12.9-4.5,19.5
			c-1.6,7.7-0.2,15.6,0,23.3c0.5,16.1,0.7,16.3,1.1,32.6c0.5,13.6,0.9,27.2,1.4,40.5c0,2.9,0,5.9-0.2,8.8c-0.5,5-4.1,7.7-8.8,5.9
			c-2.5-0.9-5-2.5-7-4.3c-1.1-0.9-1.6-2.5-2-3.8c-0.5-2-0.5-4.1-0.5-6.1c-0.2-9.7,0-19.7-0.2-29.4c-0.7-19-1.4-22.2-2-41.4
			c-0.7-22-1.1-44.2,0.5-66.1c0.9-12.2,0.7-24.5,0.7-36.7c0-6.6-0.2-12.9-0.7-19.5c-0.2-3.6-1.1-7.2-1.8-11.3c0.9-0.2,2-0.9,3.2-0.9
			c2.3,0,4.5,0.2,6.6,0.7c6.1,0.9,8.4,3.6,9.5,9.7c1.8,10.4,1.1,21.1,1.6,31.7c0,0.9,0.2,1.6,1.1,2.7c1.8-3.6,3.4-7.2,5.2-10.6
			c2.3-5,5.2-9.3,9.5-12.9c3.2-2.7,6.8-3.8,10.6-3.8c13.1-0.2,23.3,5.4,30.3,16.5c4.3,6.6,6.6,14,7.9,22c2.9,18.6,3.4,37.4,0,55.9
			c-0.9,5.7-2.9,11.1-5,16.5c-1.6,4.1-5.4,6.3-10.2,9.1c3.6,1.1,6.3,0.9,9.1,0c9.1-2.9,15.8-8.6,22-15.6c2-2.3,1.1-4.5,0.2-6.8
			c-3.6-7.9-5.9-16.5-6.3-25.1c-0.7-13.8,0.7-27.4,5.2-40.8c3.4-10.2,6.3-20.6,12.9-29.4c2.7-3.6,5.2-7.7,9.5-10
			c10.6,0.5,15.6,7.5,18.3,16.8c1.1,3.6,2.5,7,2.7,10.9c0.5,4.5,0.2,9.3-0.5,13.8c-1.4,8.2-2.7,16.1-5,24
			c-4.3,16.1-10.2,31.5-19.5,45.3c-2.3,3.4-1.1,7.5,2.5,9.1c0.9,0.5,2.5,0,3.6-0.5c4.3-2,7.7-5,10.4-9.1c6.3-10,11.3-20.6,14.5-31.9
			c4.3-15.8,8.2-31.9,12-48c0.5-1.6,0.7-3.2,0.7-5c0.5-2.9,0.2-5.9,2.9-7.9c0.7-0.7,0.9-2,1.1-3.2c1.1-5.4,5-9.1,8.4-12.9
			c1.4-1.6,3.2-2,5-1.1c7.2,3.4,15.2,5.2,21.7,10c6.1,4.5,11.3,9.5,14.7,16.3c0.5,1.1,1.4,2,2.5,3.4c9.1-5.2,10.9-15.4,16.3-23.3
			c1.8,0.5,3.6,0.9,5.2,1.6c4.3,1.6,6.8,4.5,6.8,9.3c0,6.6-0.2,12.9-0.2,19.5c0,12.7,0.2,25.1,0.5,37.8c0,1.1,0.7,2.5,1.1,4.3
			c2.7-3.6,3.6-7.2,4.8-10.4c4.8-13.4,10.9-26,19.7-37.1c2.7-3.4,6.1-6.6,9.3-9.5c2.9-2.7,6.6-3.6,10.4-2.7
			c5.9,1.4,11.5,3.6,16.1,7.2c3.2,2.5,5.7,6.3,7.7,10.2c4.5,8.4,6.3,17.7,7,27.2c0.9,10,0.7,19.9-0.9,29.9c-0.2,1.8-0.7,3.6,0.9,5.4
			c4.1-5,6.6-10,5.7-16.3c-1.4-8.6-2.5-17.2-2.9-26c-0.7-12.2,0.2-24.5,1.4-36.7c0.7-7.2,1.6-14.5,2.5-21.5
			c1.1-11.5,5.2-22.4,8.6-33.3c0.7-2,1.4-3.8,2-5.9c1.4-3.6,2.9-4.1,6.3-2c5.7,3.4,9.1,8.8,10.9,14.9c4.8,16.3,5.2,32.6,1.6,49.6
			c-3.6,17-7,33.7-12,50.3c-1.4,4.8-3.2,9.5-4.8,14.3c-1.4,3.6-1.4,7.2-0.5,10.9c2.5,9.3,7,17.4,14,24.2c3.6,3.6,7.7,3.8,12.7,1.4
			c2-1.1,2.9-2.9,2.9-5c0.2-7.2,0.2-14.5,0-21.5c-0.2-10.9,0.7-21.5,2.5-32.2c2.9-17,8.2-33.1,13.4-49.4c0.9-2.7,2.3-3.6,5-2.9
			c3.4,0.9,6.6,2.3,10,3.4c8.2,2.7,12,9.1,15.2,16.8c3.8,9.3,3.4,18.6,1.6,27.8c-1.8,9.5-3.8,19-7,28.1c-2.3,6.6-6.3,12.5-9.5,18.8
			c-3.8,7.5-9.5,13.1-15.4,18.8c-1.4,1.4-2.7,2.5-2.3,4.8c1.6,7.2,3.4,14,9.3,19.2c2.5,2.3,5.2,3.2,8.6,2.5
			c11.5-2.3,22.2-7.2,31.9-13.8c3.2-2,6.3-4.8,9.5-6.8C970.4,342.4,971.8,342.1,973.1,341.5z M699.2,257c-1.1,3.2-1.8,5.2-2.5,7.2
			c-1.4,5-2.5,10.2-3.6,15.2c-2.9,13.1-5,26.3-2.9,39.6c1.4,9.5,4.8,18.1,12,25.1c3.2,3.2,5,3.4,7.9,0.2c2.9-3.2,5.9-6.8,7.7-10.6
			c3.4-7.7,5.9-15.8,8.6-24c1.6-5,2.3-10.2,3.4-15.2c2-8.6,3.6-17.4,3.6-26.3c0-1.1-0.5-2.3-0.9-3.8
			C720.5,267.6,709.6,265.6,699.2,257z M635.5,308.4c3.8-6.6,7.5-13.1,10.2-20.2c3.4-9.1,5.9-18.3,8.2-27.6c2-8.4,3.4-16.8,3.2-25.4
			c0-2.3,0.5-4.8-1.6-7c-3.4,3.2-6.1,6.6-7.9,10.6c-4.3,8.8-7.5,18.1-10,27.6C633.7,280.3,632.2,294.1,635.5,308.4z M875.1,182.7
			c-0.5,0-0.9,0-1.6-0.2c-1.1,3.4-2.5,6.8-3.4,10.4c-2.9,9.3-5,19-5.9,28.8c-0.9,10.4-1.4,20.6-1.8,31c-0.2,6.3,0,12.7,0,18.8
			c0,1.6,0,3.2,2.5,4.3c2-7.9,3.8-15.4,5.7-22.9c2-9.3,3.8-18.3,5.7-27.6c2.3-12.9,3.2-25.8,0-38.5
			C876,185.5,875.5,184.1,875.1,182.7z M713.4,257.2c4.8,0.2,11.1-2,16.8-5.4c1.8-1.1,2.3-2.7,1.8-4.8c-1.4-8.6-5.4-15.8-10.9-22.2
			c-3.6-4.3-9.5-3.6-12.9,0.7c-3.8,5-5.7,10.6-7,16.8C699.2,250.7,702.8,255.9,713.4,257.2z M819.2,334.4c0.2-0.5,0.2-0.9,0.5-1.6
			c-3.2-0.9-6.1-1.6-9.3-2.5c0,0.5-0.2,0.7-0.2,1.1C812.8,333.8,815.5,335.3,819.2,334.4z"/>
		<path fill="#FFFFFF" d="M355,489.3c-1.8,4.8-1.1,8.8-1.4,12.9c-0.2,12.5-0.5,24.9-1.1,37.4c-0.5,7.5-1.6,14.9-2.7,22.4
			c-0.5,3.2-1.4,6.3-2,9.3c-1.6,9.1-2.9,18.1-5,27.2c-1.1,4.8-2.7,9.5-4.8,13.8c-1.8,3.8-5.9,4.5-9.7,4.5c-5.2,0.2-10-1.6-14.7-2.7
			c-7.2-1.8-11.5-6.1-14.9-11.8c-2.3-3.8-3.8-8.2-5.7-12.2c-0.7-1.6-1.4-3.4-2.3-5.9c-3.4,3.4-3.8,7.2-4.8,10.6
			c-0.5,1.6-0.7,3.4-0.9,5c-1.6,8.8-7.5,14-16.3,15.2c-5.9,0.9-12,1.1-17.9,0c-3.8-0.7-7.2-2.5-8.8-6.3c-1.6-3.8-2.9-7.7-4.1-11.5
			c-2-7.5-4.1-14.7-5.9-22.4c-2-9.1-2.5-18.1-2.3-27.4c0.2-11.5,2.3-22.9,4.1-34.2c2.5-15.2,8.4-29.2,15.6-42.8
			c0.5-0.9,1.8-1.8,2.9-2c10-1.4,19.9-0.7,29.2,3.8c3.4,1.6,6.3,3.4,8.2,6.6c1.6,2.7,4.1,4.5,7,5.4c5.2,1.4,6.6,5.2,7,9.7
			c0.2,2.7,0,5.2,0,7.9c0.5,17.2,1.4,34.6,3.4,51.8c1.1,10.9,2.3,21.7,4.8,32.4c1.4,5.4,2.9,10.9,6.1,15.6c0.7,1.1,2.3,2.5,3.4,2.3
			c0.9,0,2.3-1.8,2.5-3.2c1.8-7.2,4.1-14.5,5-22c1.6-12,4.8-23.5,5-35.8c0.2-11.5,1.8-23.3,2-34.9c0.2-9.3-0.7-18.8-1.6-28.1
			c-0.5-4.5-2.5-9.1-3.6-13.6c-0.2-1.4-0.5-2.5-0.7-4.3c5.7-2.3,11.1-2.3,16.3,0.7c4.5,2.7,6.3,7.2,5.9,12.7
			c-0.5,5.2,0.5,6.3,5.2,7.7c3.8,1.1,7.7,1.8,11.5,2.9c6.3,2,12.5,4.1,18.6,6.3c8.4,2.9,12.7,9.3,14.3,17.7
			c3.8,18.6,8.2,37.1,8.8,56.4c0.5,9.3,2.3,18.3,3.4,27.4c0.2,0.9,0.5,1.8,0.7,2.7c1.8,5.4,6.6,6.3,10.4,2
			c6.3-7.5,11.8-15.6,16.1-24.5c2.5-5.2,2.7-10.2,0-15.6c-6.6-13.4-11.3-27.2-13.6-41.9c-2-14-2.5-28.1,1.1-42.1
			c1.8-6.8,4.1-13.4,7-19.5c1.1-2.5,2.9-3.4,5.4-2.9c13.4,2,21.5,6.8,25.8,20.8c3.4,11.1,4.3,22.6,4.1,34.2
			c-0.5,18.1-2.3,36.2-7.7,53.7c-1.6,5-0.9,9.3,2,13.4c2,2.7,4.8,5.4,7.5,7.7c2.3,2,5.2,2,8.2,0.9c5.7-2.5,11.3-5,17-7.5
			c6.1-2.7,12.2-5.9,18.6-8.6c3.4-1.4,3.6-1.1,6.8,2.3c-0.2,0.7-0.5,1.4-1.1,1.8c-8.2,6.6-15.8,13.6-26.5,16.8
			c-5.2,1.6-10.2,2.9-15.4,2c-6.8-1.1-13.8-2-19.9-5.9c-1.4-0.7-2.7-1.1-4.5-1.8c-3.8,5.2-7.7,10.2-11.8,15.2
			c-2.7,3.4-5.7,6.6-8.8,9.3c-2.9,2.5-6.8,2.9-10.6,2.7c-8.6-0.9-17.4-1.6-23.8-8.4c-2.5-2.7-4.5-6.1-5.7-9.5
			c-3.4-10.4-5.2-21.1-6.6-32.2c-2-16.8-5-33.5-7.5-50.3c-0.5-2.7-0.9-5.7-1.6-8.4c-0.7-2.7-2-5-5-5.7
			C368.6,492.9,362,491.1,355,489.3z M273.1,476.6c-1.8,2.5-3.2,3.8-4.1,5.7c-5.9,12-9.3,24.7-11.5,37.8c-1.6,8.4-1.6,17.2-2,25.8
			c-0.9,13.8,1.1,27.4,4.1,41c0.7,2.5,1.1,5,4.1,7.2c2-6.3,4.1-11.8,5.4-17.7c2.5-9.7,4.3-19.5,7-29c4.5-15.8,5.7-31.9,6.6-48
			C282.8,490.7,278.3,484.3,273.1,476.6z M449.2,465.8c-0.7,1.4-1.1,2.7-1.6,4.1c-3.4,9.5-3.8,19.2-3.4,29c0.5,12,1.1,24.2,4.3,35.8
			c0.2,1.1,1.4,2.3,2.5,4.3c0.7-2.7,1.1-3.8,1.4-5.2c0.7-6.6,1.6-13.1,2.3-19.7c1.1-14.3,1.4-28.8-1.6-42.8
			C452.4,469.4,452.4,466.9,449.2,465.8z"/>
		<path fill="#FFFFFF" d="M171.6,176.8c1.1,0,2.9-0.2,4.5,0c6.8,0.7,12.2,5.2,14.3,12.2c2.5,8.6,2.5,17.4,1.1,26
			c-2.3,13.4-5,26.7-8.2,39.8c-2.3,8.8-2.5,17.7-2,26.7c0.2,5.4,0.9,10.6,1.6,16.1c0.2,1.8,0.9,3.6,2.9,5.4c0.7-2,1.8-3.8,2.3-6.1
			c2.5-11.3,6.8-22,11.3-32.2c3.2-7,8.2-10.9,15.6-10.9c7.2,0,11.5,2.5,13.1,10c1.8,8.8,3.4,17.7,4.1,26.5
			c1.8,22.2,6.1,43.5,13.4,64.3c0.2,0.7,0.7,1.1,2,3.2c0.5-6.1,0.2-10.6,0-15.4c-1.1-18.1-1.8-36.2,1.6-54.3
			c1.4-7.2,1.6-14.7,2.5-22.2c0.2-2.3,0.5-4.5,0.9-6.8c2.5-12.5,2.9-13.4,14.5-14.3c5.2-0.5,10.4,0.5,15.6,1.4
			c3.2,0.5,6.1,1.6,9.3,2.5c7.9-6.3,17.9-6.3,26.9-9.1c5.2-1.6,10.4-2.9,15.8-4.3c-0.2-12.7,1.4-24.5-5.4-35.3
			c4.8-4.1,10-3.8,14.9-3.8c3.4,0,5.7,2.7,6.1,6.3c0.9,7,2,14.3,2.5,21.3c0.5,6.6,0.9,7,6.8,6.1c20.6-3.4,41-6.8,61.6-10
			c3.6-0.5,7.7-0.2,11.3,0.2c1.8,0.2,3.6,1.6,5.2,2.3c-0.5,4.5-2.9,5.7-5.7,5.9c-3.4,0.5-6.8,0.9-10,0.7c-22.4-1.4-43.9,5-65.7,9.5
			c-0.7,0.2-1.1,0.9-2,1.4c0,4.3-0.5,8.6,0,12.9c2.3,16.1,6.8,66.3,10.4,82c2.5,11.3,7,22.4,12.2,32.6c7,14,19.5,20.6,34.2,21.7
			c7,0.5,12-4.1,16.1-9.7c3.8,2.9,4.3,5.2,1.1,8.2c-5,4.5-10.6,7.7-17.4,8.2c-13.1,1.1-25.1-2-36-9.5c-2.9-2-5.2-5.2-7.2-8.4
			c-7.9-11.8-14-24.2-17.9-38.3c-0.5-2-4.5-37.8-5.9-40.8c-2.5,6.3-2,12.2-2.3,17.9c-0.7,15.2-0.5,30.3-0.7,45.3
			c0,3.4-0.5,6.6-0.5,10c-0.2,10.4-10.6,16.8-20.8,11.1c-5.2-2.9-9.1-7.2-11.8-12.9c-2.5-5.2-5.4-10-9.3-14.7
			c-0.2,2.5-0.2,4.8-0.5,7.2c-0.2,4.1-1.8,7.2-4.5,10.2c-8.6,9.1-15.4,5.9-24-1.1c-1.6-1.4-3.2-3.2-4.8-4.5
			c-0.5-0.5-1.4-0.2-2.5-0.5c-0.2,4.1-0.5,8.2-0.9,12.2c-1.1,7.5-3.6,8.8-10.6,6.8c-4.5-1.4-7.7-4.3-10-8.2
			c-3.2-5.4-6.3-10.9-8.8-16.8c-7.5-18.1-12.9-36.9-14.5-56.8c-0.7-7.9-2.5-15.6-3.8-23.5c-0.5-2.3-1.1-4.3-1.8-6.3
			c-5.9,9.1-8.6,18.8-9.7,28.5c-1.6,14-2.5,28.1-3.4,42.1c-0.7,8.8,0.9,17.4,3.6,25.8c2,6.3,0.7,8.2-5.7,8.2
			c-7.5,0-11.3-4.1-13.1-11.8c-2.5-10.2-5.9-19.9-8.6-30.1c-2.7-10.4-5.4-20.8-7.5-31.2c-1.6-8.6-2.3-17.2-3.6-25.8
			c-0.5-3.2-1.6-5.2-5-5.4c-6.8-0.5-13.6-1.1-21.3-1.8c0.2,3.2,0.7,6.3,0.9,9.5c0.9,13.1,0.5,26.3-0.7,39.4
			c-1.6,19.5,1.4,38.7,5.4,57.7c1.6,7.7-1.6,12.2-8.8,11.8c-5-0.5-9.1-2.3-12.7-6.1c-12.2-12-19.2-27.6-24.7-44.2
			c-3.4-10.4-6.3-20.8-9.5-31.2c-0.5-1.4-1.4-2.5-2.3-4.5c-1.1,2-2,3.2-2.3,4.3c-2.5,17.7-5,35.3-7.2,53c-0.7,5.9-0.9,11.8-1.6,17.4
			c-0.5,2.7-1.8,5.2-2.9,8.4c-3.4,0-6.8,0.2-10,0c-6.1-0.7-10.4-3.6-12.9-10.2c-6.3-15.8-10.9-32.2-12.9-49.4
			c-2.3-15.4-4.1-30.6-6.3-45.7c-0.5-3.6-1.6-7-2.3-10.4c-1.8-9.1-3.6-18.3-5.4-28.1c6.8-0.9,12.2,0,17.4,2.9
			c4.5,2.7,8.2,6.6,8.8,12.2c0.7,4.8,0.7,9.5,1.1,14.5c0.2,2,0.2,4.1,0.9,6.1c4.5,13.1,4.8,27.2,6.3,40.8c0.5,4.3,1.6,8.4,2.3,12.5
			c0.5,0,0.9,0,1.4,0.2c0.9-2.9,2-5.9,2.7-8.8c2.3-10,4.8-19.9,6.8-29.9c2.7-12.9,4.3-26.3,2.9-39.8c5.9-3.8,12.2-2.5,17.9-0.2
			c2.3,0.9,4.1,4.3,5.2,6.8c3.8,11.1,6.1,22.4,7.5,34.2c0.7,6.6,3.2,12.9,5,19.2c1.8,6.6,3.8,13.1,5.7,19.7c2,7.2,4.1,14.5,9.1,21.7
			c0.7-1.4,1.4-1.8,1.4-2.5c0.2-10.2,2-20.4,0.7-30.6c-1.4-11.3-1.6-22.9-2.7-34.4c-0.7-8.4-1.8-16.8-2.9-25.1c-0.2-2-2-3.8-3.2-5.9
			c1.6-4.1,4.3-4.8,7.7-3.8c5.2,1.4,10.6,2,13.6,8.6c0.9,1.8,4.3,2.9,6.8,3.4c5.7,1.1,10.9-0.9,15.8-3.4c2.5-1.1,4.1-3.2,4.3-7
			c0.9-18.8,2.3-37.8,3.6-56.6c0.5-5.7,0.9-11.5,1.4-17.9c-2,0.5-3.4,0.5-4.8,0.9 M324.5,368.4c0.7-0.2,1.1-0.7,1.8-0.9
			c0.2-0.9,0.9-1.8,0.9-2.7c1.1-14.7,2-29.7,2.9-44.4c0.7-10,0.5-19.9,2-29.7c2.3-13.6,3.4-27.2,3.4-41c0-1.6-0.5-3.4-0.7-5.4
			c-13.1,2.5-25.8,4.8-39.2,7.2c2.7,4.1,4.8,7.2,7,10.6c1.6,2.5,2,5-0.7,6.6c-2.5,1.4-2.3,3.6-2,5.9c3.2,18.3,6.1,36.7,10,54.8
			c2.5,11.8,5.4,23.3,11.1,34C322,365.2,323.3,366.8,324.5,368.4z M281.2,364.3c0.5-4.8,1.1-8.4,1.1-12c-0.2-15.6-0.7-31-1.4-46.6
			c-0.7-14-1.8-28.1-2.7-42.1c-0.2-1.6-1.1-3.2-2.5-6.6c-5.9,10.4-11.1,18.8-10.9,29.9c0.2,8.8,0.2,17.9,0.7,26.7
			c0.7,13.8,3.2,27.4,7.9,40.3C274.9,357.8,276.7,361.2,281.2,364.3z"/>
		<g id="_x35_3VweI.tif">
			<g>
				<path fill="#FFFFFF" d="M799.9,639.9l-0.2-0.2c-0.2-0.5-0.5-0.9-0.7-1.4c-1.4-4.8-3.4-8.8-5.9-13.1c-1.8-3.8-3.2-7.9-4.8-11.8
					c-0.9-2.3-1.8-4.3-2.9-6.3c-0.5-0.7-1.8-1.1-2.5-1.1c-3.8,0.2-7.9,0.7-11.8,1.1c-2,0.2-3.8,0.5-5.9,0.7
					c-3.8,0.9-7.7,1.4-11.5,1.4c-2,0-4.3,0.5-6.3,0.7c-0.9,0-2,0.2-3.2,0.5c-0.5,7.2-0.9,14.5-1.1,21.5c0,7,0.2,14.3,0.2,21.3
					c0,2-0.5,4.1-0.7,6.1c0,0.5-0.5,0.9-0.9,1.1c-2.7,2-5.9,3.4-9.5,2.7c-1.6-0.2-3.2-0.2-4.5-0.5c-0.2,0-0.7,0.2-0.9,0
					c-1.6-1.8-4.5-1.8-6.1-4.1c-0.9-1.1-1.1-2.5-0.5-3.4c2-2.3,1.4-5,1.4-7.7c0-2.3-0.2-4.8-0.5-7c0-5.9-0.2-11.8-0.2-17.7
					c0-2.7,0.5-5.4,0.7-8.2c0-2,0.2-4.1,0-6.1c0-0.7-0.7-1.6-1.4-2c-0.7-0.7-1.6-0.9-2.5-1.4c-1.1-0.9-0.9-2.5,0.5-2.9
					c0.5-0.2,0.9-0.2,1.6-0.2c0.5,0,0.9,0,1.6,0c-0.2,0,2.7-31.9,2.9-35.5c0.2-2.7,0.2-5.4,0.5-8.2c0.2-5.2,0.5-10.6,0.7-15.8
					c0.2-3.4,0.5-6.8,0.7-10c0.2-4.8,0.7-9.7,0.9-14.5c0.2-3.2,0-6.6,0.5-9.7c0.5-5.2,0.5-10.4,1.8-15.6c0.5-2,0.7-4.1,0.9-5.9
					c0.5-2.7,0.9-5.7,1.6-8.4c0.7-3.4,1.8-6.8,2.5-10.4c0.5-2,1.6-2.9,3.2-3.2c1.4-0.2,2.9-0.5,4.3-0.2c3.2,0,6.3,0,9.5,0.5
					c3.6,0.7,6.8,2.7,8.6,5.9c7,11.8,10.6,24.9,14.5,37.8c4.1,13.4,9.7,26,14,39.2c1.1,3.6,2.3,7.2,3.6,10.9
					c2.5,7.5,4.5,14.9,6.8,22.4c1.1,3.6,2.5,7,3.6,10.6c0.5,1.1,0.5,2.3,0.7,3.8c0.7,0,1.6,0,2.3,0.2c2.7,0.7,5.7,1.1,8.4,1.8
					c1.4,0.2,2,1.4,2,2.7c0,1.6-1.1,2.3-2.3,2.5c-1.4,0.5-2.5,0.7-3.8,0.9c-2.9,0.5-3.6,1.6-2.3,4.3c0.5,1.1,0.9,2.5,1.4,3.6
					c0.9,2.3,2,4.5,2.9,6.8c4.8,11.3,10.2,21.7,16.5,32.4c0.9,1.4,1.4,3.2,2,4.8c0.2,0.7,0.5,1.4,0.7,2c0.9,2.5,0.7,3.4-1.4,5
					c-1.6,1.4-3.4,1.8-5.4,1.8c-0.7,0-1.6-0.2-2-0.7c-6.8-6.3-12.7-12.5-18.3-19.7c-0.7-0.9-1.6-1.8-2.5-2.5
					C800.8,640.3,800.4,640.1,799.9,639.9z"/>
				<path fill="#FFFFFF" d="M701.2,609.3c-0.9-5-2.9-9.7-5.2-14.5c-2.7-5.9-6.1-10.9-10.4-15.8c-1.8-2.3-3.6-4.3-6.1-5.7
					c-2.9-1.4-6.1-2.9-8.8-5c-2.7-2-5.4-3.2-8.6-4.1c-1.1-0.5-2.7-0.2-3.6-0.9c-2.3-1.6-4.8-1.6-7.2-2.3c-5.4-1.4-11.1-2.3-16.3-4.1
					c-4.5-1.6-8.4-4.5-11.8-7.7c-4.1-3.6-6.6-8.8-8.6-13.8c-6.6-16.8-6.6-35.3,0.5-51.8c0.5-1.1,1.1-2,1.8-3.2
					c0.5-0.9,1.1-1.8,1.4-2.7c0.9-3.2,3.2-5.4,5.4-7.5c1.4-1.4,4.3-1.6,5.7-0.7c0.9,0.7,2,0.9,2.9,1.6c1.1,0.9,1.8,2,3.4,2
					c0,0,0,0.2,0.2,0.2c-0.2,0.2-0.5,0.7-0.7,0.9c0.9-1.4,18.3,28.8,19.5,31.2c2.5,5.9,3.2,20.2,10.6,20.6c2.3,0,4.3,0.2,6.6,0.2
					c2,0,3.8-0.2,5.9-0.5c0.7,0,1.4,0.5,2,0.7c0-0.9,0.5-1.6,0.2-2.5c-0.2-2.7-0.5-5.4-0.9-8.2c-0.2-2,0-4.1-2-5.4
					c-0.5-0.5-0.7-1.1-0.9-1.8c-0.9-3.4-1.6-6.8-2.7-10c-1.1-3.8-2.3-7.7-4.1-11.1c-2.3-4.3-4.5-8.6-7.9-12.2c-2.3-2.3-3.8-5-7-5.9
					c-0.5-0.2-0.9-0.5-1.4-0.9c-2-2-4.5-3.4-7-4.1c-4.5-1.4-8.6-3.6-13.6-4.1c-4.3-0.5-8.4-1.6-12.9-0.9c-0.7,0-1.1-0.2-1.8-0.2
					c-1.8,0-3.6-0.2-5.2,0c-7,1.1-11.3,1.8-14.3,8.8c-8.2,19.2-21.3,63.2,2,77.9c0.5,0.2,0.7,1.1,0.9,1.6c0.5,0.7,0.9,1.4,1.6,2
					c0.5,0.7,1.4,0.9,1.8,1.6c2,2.5,4.8,4.1,7.5,5.4c5.2,2.5,10.4,4.8,15.8,6.6c3.8,1.1,7.7,2.5,11.5,2.9c2.5,0.2,4.3,0.7,5.2,2.5
					c1.4,0,2.7-0.2,3.4,0c5.2,2.5,10.2,5.7,14.3,10c3.8,4.1,6.8,8.8,9.5,13.8c0.9,1.6,1.8,3.2,2.3,5c1.4,3.8,2.3,7.9,3.6,12
					c2.3,6.8,2.7,13.6,3.6,20.6c0.7,6.6-0.5,13.1-1.4,19.7c0,0.2-0.2,0.7-0.2,0.7c-2,1.1-2.5,3.6-3.2,5.4c-1.4,3.2-3.6,5.7-5.9,8.2
					c-5.2,6.1-12.5,12-21.1,12.2c-8.8,0.2-16.8-5.9-22.2-12.9c-10.9-14.7-13.1-33.7-17.7-51.6h-0.2h-0.2c-2,0.5-0.9,0.2,0,0h0.2
					c-0.5,0.2-1.1,0.2-1.6,0.5c-0.7,0.2-1.4,0.5-2,0.7c-0.2,0.7-0.7,1.1-1.4,1.8c-2,1.8-3.8,3.6-5.7,5.9c-0.2,0.2-0.5,0.7-0.9,0.9
					c0,0.2-0.2,0.2-0.2,0.5c-0.2,0.5-0.5,0.7-0.7,1.1c0,0.2-0.2,0.7-0.2,0.9c0.2,0.2,0.2,0.2,0.5,0.5l-0.5-0.2
					c0,0.5-0.2,0.9-0.2,1.4c0.2-0.2,0.7-0.7,0.9-0.9c0.5,0.2,0.9,0.5,1.4,0.7c-0.7,0.7-1.6,1.4-2.3,2c0,0.7,0,1.6,0,2.3
					c0,2,0,3.8,0,5.9c0,0.9,0,1.8-0.2,2.5c1.8,11.1,8.4,18.8,14.9,28.5c0.5,0.7,0.9,1.8,1.1,2.5c1.1,2.3,2.7,4.3,4.5,5.7
					c0.2,0.2,0.7,0.5,0.9,0.7c2.9,2,6.3,3.2,9.7,4.1c3.2,0.9,6.6,1.8,10,2.5c3.8,0.7,7.7,1.8,11.5,0.7c1.1-0.5,2.7-0.2,3.8,0.2
					c2,0.7,3.8,0,5.7-0.2c0.7,0,1.4-0.5,2-0.2c4.3,0.5,7.9-1.4,11.5-2.5c2-0.7,4.1-2,6.1-3.2c2-1.1,3.8-2.5,5.7-3.8
					c2.3-1.6,4.8-3.2,6.8-5.2c2.7-2.7,5-5.7,7.5-8.6c0.5-0.7,1.1-1.4,1.4-2c1.8-2.9,3.2-6.1,3.8-9.5c1.4-6.1,1.4-12,1.1-18.1
					C704.2,622.4,702.6,615.9,701.2,609.3z M598,638.3c-0.2-0.5-0.7-0.7-0.9-1.1c0.2-0.2,0.5-0.2,0.7-0.5c0.2,0.2,0.7,0.7,0.9,0.9
					C598.4,637.8,598.2,638.1,598,638.3z M598.4,634c-0.5,0.7-0.9,0.2-1.1-0.2c0-0.2,0-0.5-0.2-0.9l0.7-0.2
					C598,633.1,598.4,633.8,598.4,634z M619.5,675.2c-0.2,0-0.5,0-0.9-0.2c0.2-0.5,0.5-0.7,0.7-0.7c0.2,0,0.5,0,0.7,0.2
					C619.7,674.7,619.7,675,619.5,675.2z"/>
				<path fill="#FFFFFF" d="M1124.8,497c-1.6-0.5-2.9-0.9-4.1-1.4c-4.3-10-7.5-20.2-14-29c-0.7-0.7-1.4-1.6-2.3-1.8
					c-1.6-0.2-2.9,1.4-3.6,2.7c-6.1,11.1-8.8,23.5-11.3,35.8c-3.4,17.2-4.3,31.9-2.5,49.4c0.5,4.1,0.7,8.6,2.5,12.2
					c1.6,3.6,1.4,7.2,2,10.9c0.9,4.3,2.3,8.4,3.6,12.7c0.7,2.3,2,4.3,2.7,6.6c1.6,5,4.8,9.1,7.5,13.1c1.8,2.7,5,3.2,8.4,2
					c12-4.1,22.2-17.2,29.2-27.4c0.5-0.7,0.7-1.6,0.7-2.3c-0.2-2.9-0.5-5.7-0.9-8.6v-0.2c0-4.5-1.8-8.6-2.3-12.9
					c-0.9-7.2-3.4-16.3-6.6-23.3c-1.1-2.5-3.4-3.2-5-0.9c-1.8,2.7-5,3.8-7,6.6c-2,2.5-4.3,4.8-6.3,7c-1.8,1.8-3.4,4.1-5.4,5.7
					c-2,1.8-5,2-7.5,1.8c-1.8-0.2-3.4-0.9-5-1.4c0-0.7,0-0.9,0-0.9c3.4-2.5,5.2-6.1,7.2-9.5c2.5-4.1,5.7-7.7,9.1-11.3
					c3.8-4.3,8.2-7.7,12.2-11.1c1.1,0.2,2,0.5,2.9,0.2c5.9-1.4,11.3-0.2,16.1,2.9c2.3,1.6,3.8,4.1,5.4,6.6
					c3.6,5.9,6.1,12.5,7.2,19.2c0.7,3.2,1.4,6.3,2,9.5c0.5,1.6,1.4,2.9,2.9,4.1c1.8,1.4,3.2,3.2,4.3,5c2,3.4,2.3,7,0,10.6
					c-2.3,3.4-2,7.2-1.1,11.1c1.1,6.1,2.7,12.2,4.3,18.3c1.1,3.8,2.9,7.7,3.6,11.5c0.7,3.2,2,5.9,3.8,8.4c2,2.7,0,6.1-3.6,6.3
					c-2.3,0.2-4.3,0.2-6.3-0.9c-5.2-3.4-9.5-8.2-12-13.8c-2.5-5.4-2.3-13.1-7.5-16.8c-2,2-4.3,4.1-6.3,6.1c-0.5,0.5-0.9,1.1-1.6,1.6
					c-3.4,2.3-6.3,5-10,6.3c-3.8,1.4-7.7,3.2-12.2,2.5c-5.7-0.7-11.3-1.4-16.3-3.8c-1.4-0.7-2.5-1.4-3.8-2c-3.8-2-7.5-4.8-10-8.2
					c-2.5-3.4-5-6.8-7-10.6c-2.7-5.4-5-11.1-6.6-17c-0.9-3.4-1.4-6.8-2.3-10.2c-0.7-2.5-1.6-4.8-2.3-7.2c-0.7-3.2-1.4-6.6-1.8-9.7
					c-0.5-4.1-0.9-8.2-1.1-12.2c0-0.9,0-1.8,0-2.7c0-0.5,0.2-0.9,0.2-1.1c-4.5-16.3,0.9-39.8,7.7-55c1.4-2.9,1.8-6.1,2.7-9.1
					c1.8-5.7,5.2-17,11.3-19c5.7-2,17,3.2,21.5,6.1c9.7,6.8,13.4,15.8,15.6,26.7c0.7,3.6,0,7-0.5,10.6
					C1125.3,496.3,1125.1,496.5,1124.8,497z"/>
				<path fill="#FFFFFF" d="M1046,582.8c0.2-2.5,0.5-4.5,0.2-6.8c0-1.1-0.9-2.5-0.9-3.6c-0.5-2.5-0.5-5-0.7-7.2
					c-1.1-7-2.3-14-3.4-21.1c-0.5-2.7-0.5-5.7-0.9-8.6c-0.5-3.2-0.9-6.3-1.6-9.5c0-0.5-0.2-0.9-0.2-1.6c-0.5-4.5-0.9-8.8-1.1-13.4
					c-0.9-10-1.8-19.9-2.5-29.9c-0.2-4.5-1.1-9.3-0.2-14c0.2-0.7-0.2-1.4-0.2-2c0-1.4,0.2-2.7,0.2-4.1c0-0.5-0.2-1.1-0.2-1.6
					c0-1.4-0.2-2.7,0-4.1c0-0.5,0.7-0.9,0.5-1.4c-0.2-2.5,1.6-3.2,3.4-3.8c1.8-0.7,3.6-0.9,5.7,0.5c2,1.6,3.6,3.6,5.9,4.8
					c0.9,0.5,1.6,2.5,1.8,4.1c0.2,2.9,0,5.9-0.2,8.8c-0.2,12.9,0.2,25.8,1.1,38.7c0.5,8.2,0.7,16.5,1.1,24.7c0.2,5,1.1,10,1.8,14.9
					c0.5,4.5,1.1,9.1,1.8,13.6c0.7,4.3,1.4,8.6,2.3,12.9c1.1,6.6,2.5,12.9,3.8,19.5c0.5,2,1.1,3.8,1.8,5.9c0.2,0.7,0.7,1.6,0.7,2.3
					c0,3.2,1.6,5.7,2.7,8.4c0.2,0.5,0.5,0.9,0.7,1.4c0.7,1.8,0.2,2.7-1.8,3.2c-1.1,0.2-2.5,0.2-3.6,0.2c-0.7,0-1.6-0.2-2,0
					c-2.5,0.9-4.3,0-5.7-1.8c-0.2-0.2-0.7-0.5-0.9-0.7c-4.1-1.6-6.8-4.8-9.7-7.9c-2.7-3.2-5.7-5.9-8.4-8.8
					c-5.2-5.9-10.4-12-15.4-17.9c-0.9-1.1-1.6-2.3-3.4-1.8c0-2.5-1.4-4.5-2.7-6.3c-4.1-5.7-8.2-11.5-12-17.4
					c-5.2-7.7-10.2-15.6-15.2-23.3c-0.2-0.5-0.5-0.7-0.7-1.1c-0.2,0.2-0.5,0.2-0.9,0.5c0,1.1-0.2,2.3,0,3.4
					c0.5,3.8,1.4,7.7,1.8,11.3c0.7,5.2,1.6,10.2,2.3,15.4c0.7,5.7,1.4,11.5,2,17.2c0.7,4.8,1.4,9.5,2,14.5c0.5,4.3,0.9,8.6,1.4,12.7
					c1.1,8.2,2.5,16.1,3.6,24.2c0,0.7,0,1.4,0,2c-0.5,1.4-0.7,2.3,0.2,3.6c0.9,1.6-1.4,3.6-3.4,2.9c-1.4-0.5-2.5-0.5-3.8-0.5
					c-2.3,0.2-3.8-1.4-5.7-2.3c-0.9-0.5-2-0.7-3.2-1.1c-0.5-0.9-1.1-2-2-3.2c-0.9-1.4-1.8-2.7-1.8-4.5s-0.5-3.8-0.9-5.7
					c-1.1-6.8-2-13.4-3.2-20.2c-0.2-0.9-0.2-1.8-0.2-2.7c-0.9-6.6-1.8-12.9-2.5-19.5c-0.2-1.6-0.2-2.9-0.5-4.5
					c-0.7-4.5-1.1-9.3-1.8-13.8c0-0.7,0-1.4-0.2-2c-0.7-5.2-1.1-10.4-1.8-15.8c-0.7-5.2-1.1-10.2-1.8-15.4c-0.9-6.8-2-13.6-2.9-20.2
					c-0.5-3.4-1.4-6.6-2.3-9.7c-0.2-1.1-0.7-2-0.9-3.2c-0.7-1.8-0.5-2.3,1.1-3.2c2.3-1.1,5-1.6,7.5-0.7c4.8,1.8,9.5,3.2,13.1,7
					c0.5,0.5,0.9,0.7,1.4,1.4c2.5,3.8,4.8,7.7,7,11.5c2.3,3.8,4.8,7.7,7.2,11.3c4.5,7,9.1,13.8,13.6,20.6c0.5,0.7,0.9,1.6,1.1,2.5
					c0.7,1.4,1.6,2.7,3.6,2.5c0.9,5,3.8,8.6,6.8,12.5c1.1,1.4,1.8,3.2,2.9,4.8c3.4,4.8,6.8,9.5,10.4,14c2,2.7,4.3,5.2,6.6,7.7
					C1043.8,582.8,1044.7,583.7,1046,582.8z"/>
				<path fill="#FFFFFF" d="M859.5,574c0.7,0.7,1.6,1.1,2,1.8c1.4,1.8,2.9,3.6,3.4,5.7c0.9,3.4,0.9,7,1.1,10.6
					c0.5,4.1,0.7,8.4,1.4,12.5c2,12.7,4.1,24.9,6.8,37.4c0.5,2.3,0.9,4.8,1.6,7c2.3,9.5,5.9,18.8,10.6,27.4c2.7-0.5,5.2-0.9,7.9-1.4
					c-0.7-4.1-1.1-8.2-1.8-12.2c-2.3-15.2-5.2-30.3-6.3-45.5c-0.5-8.2-2.5-16.3-2.3-24.7c0-0.5,0-0.9-0.2-1.1
					c-1.1-2.5-0.5-5.2-0.5-7.9c0-1.6,0.2-2.9,0.2-4.5c0.2-1.8,0.2-3.6,0.7-5.4c1.1-2.7,2.7-5.4,4.1-8.2c0.9-2,1.8-4.1,2.5-6.1
					s1.1-4.1,1.8-6.1c1.8-5.9,3.6-11.8,5.4-17.4c1.1-3.8,2.3-7.7,3.4-11.5c1.4-4.1,2.7-8.2,3.8-12.2c0.5-1.8,0.9-3.6,1.4-5.2
					c1.4-3.8,2.9-7.7,4.1-11.8c1.1-5,2-10,2.7-14.9c0.5-2.3-0.2-4.8,0.5-7c1.1-3.8-2-6.1-2.7-9.3c-3.2-2-5.7-5.2-9.5-6.3
					c-1.6,2-3.2,1.1-4.8,0c-1.4,0.7-1.1,1.6-0.7,2.5c1.1,2.3,1.4,4.8,0.7,7.5c-0.5,1.8-0.7,3.8-1.1,5.7c-0.5,2.5-0.9,5-1.8,7.5
					c-1.1,4.3-2.5,8.4-4.1,12.5c-1.1,3.2-2.3,6.1-3.4,9.1c-1.8,5.4-3.6,10.9-5.4,16.5c-0.9,2.7-2,5.4-2.9,8.4
					c-1.4,4.5-2.7,9.3-4.1,13.8c-0.7,2-1.8,3.6-2.3,5.7c-0.7,2.7-2.3,4.3-5,5.7c-0.7-0.9-1.6-1.6-2.5-2.7c-1.8-2.3-3.4-4.8-5.2-7.2
					c-2.7-3.4-5.4-6.8-8.2-10.2c-1.4-1.6-2.5-3.4-3.8-5.2c-0.2-0.5-0.7-0.9-0.9-1.1c-1.6-1.8-3.2-3.6-4.8-5.4
					c-3.4-4.1-7-8.4-10.4-12.5c-1.1-1.4-2-2.9-3.2-4.1c-2.7-2.9-5.7-5.9-8.4-8.8c-2.5-2.7-5-5.7-7.7-8.2c-4.1-3.4-8.8-6.1-14.3-6.8
					c-2.7-0.5-5.7-1.1-8.4-1.6c-1.6,0.5-3.2,1.1-5.4,2c0.9,1.1,1.4,2,2,2.7c1.1,1.1,2.7,2,3.8,3.2c4.3,4.8,8.8,9.3,12.9,14.3
					c2,2.5,3.8,5.2,5.9,7.9c3.2,4.1,6.6,8.2,9.7,12.2c2.5,2.9,4.8,6.1,7.2,9.1c2.5,2.9,3.8,6.6,7.2,8.8c0.2,0,0.2,0.2,0.5,0.5
					c3.2,4.8,6.1,9.5,9.5,14.3c2.7,3.8,5.4,7.7,8.4,11.3C853.8,567.4,856.8,570.8,859.5,574z"/>
				<path fill="#FFFFFF" d="M960,641.7c-7.2,2.5-12,1.6-16.8-3.4c-0.7-0.7-1.1-1.4-1.6-1.8c-1.4-1.1-1.6-2.7-1.8-4.3
					c-0.5-4.3-0.9-8.4-1.4-12.7c-0.2-2.9-0.5-5.7-0.7-8.6c-0.2-1.6-0.5-3.2-0.7-4.8c-0.5-4.3-0.9-8.4-1.4-12.7
					c-0.2-2.9-0.7-6.1-1.1-9.1c-0.2-2-0.7-3.8-0.5-6.1c0.2-1.8-0.5-3.8-0.7-5.9c-0.7-6.1-1.4-12-1.8-18.1
					c-0.5-5.7-0.9-11.1-1.4-16.8c-0.7-5.9-1.4-12-2-17.9c-0.9-8.4-1.6-16.8-2.5-25.1c-0.2-2.7-0.7-5.4-2.3-7.9
					c-0.7-1.1-1.1-2.5-1.6-3.6c1.1-2,3.2-1.8,5-1.6c1.8,0,3.6,0.7,5.4,1.1c1.6,0.5,2.9,0.9,4.5,1.1c1.6,0.5,3.2,0.9,3.8,2.5
					c0.2,0.7,0.9,1.1,1.4,1.6c2.7,2.9,4.3,6.3,4.3,10.4c0,2.5,0.5,5.2,0.9,7.5c1.6,6.8,1.4,14,2.3,21.1c0.2,2.5,0.9,5,1.1,7.5
					c0.5,3.2,0.5,6.3,0.7,9.5c0.7,7.2,1.4,14.5,2.3,22c0.7,7.9,1.4,15.8,2.3,23.8c0.5,4.8,1.4,9.7,2,14.5c0.5,3.6,0.7,7.2,1.1,10.9
					c0.2,2.5,0.9,5,1.1,7.5c0.2,4.5,0.5,8.8,0.5,13.4C960.9,637.6,960.2,639.6,960,641.7z"/>
			</g>
		</g>
	</g>
</g>
<g id="page_elelments" display="none">
</g>
</svg>
