<?xml version="1.0" encoding="utf-8"?>
<!-- Generator: Adobe Illustrator 19.1.0, SVG Export Plug-In . SVG Version: 6.00 Build 0)  -->
<svg version="1.1" id="Layer_1" xmlns="http://www.w3.org/2000/svg" xmlns:xlink="http://www.w3.org/1999/xlink" x="0px" y="0px"
	 width="781.5px" height="260px" viewBox="291 -30 781.5 260" style="enable-background:new 291 -30 781.5 260;"
	 xml:space="preserve">
<style type="text/css">
	.st0{display:none;}
	.st1{display:inline;opacity:0.5;fill:url(#SVGID_1_);enable-background:new    ;}
	.st2{display:inline;opacity:0.2;fill:#12ACEF;enable-background:new    ;}
	.st3{display:inline;}
	.st4{opacity:0.4;fill:#EA0091;enable-background:new    ;}
	.st5{opacity:0.1;fill:#12ACEF;enable-background:new    ;}
	.st6{opacity:0.29;fill:#FFFFFF;enable-background:new    ;}
	.st7{opacity:0.2;fill:#FFFFFF;enable-background:new    ;}
	.st8{opacity:0.41;fill:#12ACEF;enable-background:new    ;}
	.st9{opacity:0.1;fill:#FFFFFF;enable-background:new    ;}
	.st10{opacity:0.14;fill:#12ACEF;enable-background:new    ;}
	.st11{opacity:0.33;fill:#12ACEF;enable-background:new    ;}
	.st12{opacity:0.4;fill:#12ACEF;enable-background:new    ;}
	.st13{opacity:0.25;fill:#12ACEF;enable-background:new    ;}
	.st14{opacity:0.35;fill:#EA0091;enable-background:new    ;}
	.st15{opacity:0.26;fill:#12ACEF;enable-background:new    ;}
	.st16{opacity:0.25;fill:#EA0091;enable-background:new    ;}
	.st17{opacity:0.1;fill:#EA0091;enable-background:new    ;}
	.st18{opacity:0.2;fill:#EA0091;enable-background:new    ;}
	.st19{opacity:0.38;fill:#EA0091;enable-background:new    ;}
	.st20{opacity:0.35;fill:#12ACEF;enable-background:new    ;}
	.st21{opacity:0.23;fill:#12ACEF;enable-background:new    ;}
	.st22{opacity:0.2;fill:#12ACEF;enable-background:new    ;}
	.st23{opacity:0.29;fill:#EA0091;enable-background:new    ;}
	.st24{fill:#FFFFFF;}
	.st25{fill:#FFFFFF;stroke:#FFFFFF;stroke-width:1.5;stroke-miterlimit:10;}
</style>
<g id="Layer_4" class="st0">
	
		<linearGradient id="SVGID_1_" gradientUnits="userSpaceOnUse" x1="686.3" y1="-175.4" x2="686.3" y2="438" gradientTransform="matrix(1 0 0 -1 0 200)">
		<stop  offset="0" style="stop-color:#EC008C"/>
		<stop  offset="1" style="stop-color:#00AEEF"/>
	</linearGradient>
	<polygon class="st1" points="1697.3,373.9 -324.7,375.4 -324.7,-236.6 1697.3,-238 	"/>
	<polygon class="st2" points="1697.3,373.9 -324.7,375.4 -324.7,-234.8 1697.3,-236.3 	"/>
</g>
<g id="Layer_1_1_" class="st0">
	<g class="st3">
		<polygon class="st4" points="478.4,309.9 1204.8,226 837.4,142.2 		"/>
		<polygon class="st5" points="1546.3,-16.5 1527.9,43.3 831.8,193.4 1095.4,-67.3 		"/>
		<polygon class="st6" points="1449.5,220.8 1588.9,147.2 1570.8,75.7 1414.9,-93.3 804.2,207.1 		"/>
		<polygon class="st7" points="59.5,250.5 144.5,-55.2 303.5,-99 743.3,266.5 		"/>
		<polygon class="st8" points="830.7,87.9 1404.7,-25.9 1521.3,27 1521.3,199.6 		"/>
		<polygon class="st9" points="171.1,264.5 827.9,-26.6 1387,255.3 		"/>
		<polygon class="st10" points="420.8,279.8 1012,-54.6 1382.5,220.8 		"/>
		<polygon class="st11" points="671.3,138 1298,-61.1 1456,170.3 		"/>
		<polygon class="st12" points="-185.2,-16.9 -24.1,-103 465.6,134.6 -157.5,77.9 		"/>
		<polygon class="st5" points="511.8,-42.1 -155.4,233.3 1149.4,315.5 		"/>
		<polygon class="st13" points="-151.4,-20.1 -99.1,89.3 762.6,186.9 373,-32.6 		"/>
		<polygon class="st13" points="237,217.8 818.2,208.2 171.1,-26.6 		"/>
		<polygon class="st14" points="78.1,226 772.3,318.1 291.8,20.1 		"/>
		<polygon class="st15" points="-42.9,250.6 446.4,75.9 -155.4,33.7 		"/>
		<polygon class="st16" points="-224.7,306.5 -119.5,32.8 848.6,213.1 		"/>
		<polyline class="st17" points="310,217.9 729.7,81.2 965.9,205 841.5,294.2 479.4,309 280.5,257.1 303.2,217.9 		"/>
		<polygon class="st16" points="1633.7,235 1497,-32.6 554.8,275.9 		"/>
		<polygon class="st18" points="321.3,248.2 929.3,56.8 1227.1,163.8 1060,260.2 474.9,308.8 263.9,263.3 		"/>
		<polygon class="st19" points="567.8,322.9 1298,247.6 1012.4,102.6 		"/>
		<polygon class="st12" points="357.7,306.3 597.7,62.1 1283.2,251 		"/>
		<polygon class="st20" points="304.1,76 84.5,205.1 612.9,365.2 		"/>
		<polygon class="st21" points="-155.4,327.7 421.1,365.4 106.3,82.2 		"/>
		<polygon class="st19" points="730.7,351.2 1447.7,306.5 1008.7,161.8 		"/>
		<polygon class="st22" points="1571,279.8 1210,62.1 745.5,299.4 		"/>
		<polygon class="st14" points="-112.2,372.5 291,317.5 59.5,128.7 		"/>
		<polygon class="st4" points="572,372.5 232,152.6 159.8,210.5 81.7,372.5 		"/>
		<polygon class="st19" points="920.3,372.5 703,227.4 490.4,372.5 		"/>
		<polygon class="st18" points="1519.7,372.5 1450.3,224.9 1322.1,178.7 1001,372.5 		"/>
		<polygon class="st23" points="1167.6,372.5 1408.5,338.8 1221.3,158.2 1014.1,372.5 		"/>
	</g>
</g>
<g id="Layer_5" class="st0">
</g>
<g id="lettering">
	<path class="st24" d="M730.2,62.1c-0.8,0.7-1.4,1.3-2,1.9c-2.5,2.5-5.5,4.3-8.7,5.9c-2.2,1.1-4.5,1.2-6.8,0.9
		c-3.4-0.5-6.7-1.5-9.6-3.6c-2.2-1.6-3.6-3.6-3.7-6.4c-0.2-4.6,0.7-9,2.5-13.3c1.9-4.3,4.4-8.1,7.2-11.8c1.2-1.7,2.4-3.4,3.6-5
		c0.7-0.8,0.8-1.7,0.6-2.7c-1.3-7.8,0.1-15.2,2.9-22.4c1.8-4.7,5.2-7.4,10.1-8.2c1.5-0.2,3.1,0,4.5,0.5c2.1,0.7,3,2.8,2.5,5
		c-0.8,4-2.2,7.7-4.1,11.3c-2.4,4.6-4.7,9.4-7,14c-0.1,0.2-0.2,0.3-0.2,0.5c-1.2,2.4-1.3,4.7-0.1,7.3c1.9,4.2,3.6,8.5,5.9,12.5
		c0.4,0.7,0.9,1.4,1.4,2.3c1.7-0.8,2.6-2.3,3.6-3.6c1-1.3,1.8-2.7,2.6-4.1c1.7-3.1,3.9-5.6,7.2-7.3c0.7,2.2,0.5,4.4-0.3,6.4
		c-1.1,2.8-2.6,5.4-4,8c-1.4,2.5-3.1,5-4.8,7.7c1.9,2.7,3.9,5.3,5.7,8.1c0.8,1.3,1.3,2.8,1.8,4.2c0.3,1-0.2,1.4-1.2,1.5
		c-1.6,0.1-2.6-0.7-3.4-1.9c-1.7-2.2-3.4-4.3-5.2-6.4C731.1,63.1,730.7,62.6,730.2,62.1z M716.9,40.5c-0.5,0.7-0.9,1.1-1.1,1.5
		c-1.1,2.1-2.2,4.2-3.3,6.4c-2.5,5-3.4,10.2-2.5,15.7c0.5,3.5,1.1,4,4.2,2.3c4.4-2.4,7.9-6,11.1-9.8c0.6-0.8,0.3-1.3-0.2-2.1
		c-2.1-3.4-4.1-6.9-6.1-10.4C718.3,43,717.7,41.9,716.9,40.5z M719.1,20.2c0.2,0.1,0.5,0.1,0.7,0.2c0.5-0.8,1.1-1.5,1.6-2.3
		c0.9-1.6,1.7-3.2,2.6-4.7c1.7-2.9,2.8-6,3.7-9.3c0.4-1.3,0.6-2.8-0.1-4.2c-2.3,1-2.7,1.4-3.8,3.1c-2,3.2-3.1,6.7-3.8,10.3
		C719.6,15.7,719.4,18,719.1,20.2z"/>
	<path class="st24" d="M378.8,48.5c0,1.6,0.1,3.3,0.1,4.9c0,6-0.2,12.4-0.5,18.5c-0.1,1.5-0.3,2.9-0.5,4.3c-0.1,0.7-0.6,1.2-1.1,1.6
		c-0.2,0.2-0.4,0.3-0.6,0.5c-0.1,0.1-0.3,0.2-0.4,0.1c-1.2-0.5-2.7-0.5-3.8-1.3c-0.7-0.5-1.5-0.7-2.3-1c-1.1-0.4-1.7-1.3-2.2-2.2
		c-0.7-1.5-1.5-2.9-2.1-4.4c-0.5-1-0.8-2.1-1.2-3.1c-2.5-7.6-4.1-15.3-4.9-23.2c-0.2-2.4-0.4-4.7-0.6-7.1c-0.1-1.4,0-2.7,0.1-4.1
		c0-0.8,1.5-2.4,2.9-1.5c0.7,0.5,1.5,0.8,2.1,1.2c0.7,0.6,1.5,1.2,2.1,1.9c0.4,0.5,0.7,1.2,0.7,1.9c0.9,7.6,1.6,15.7,3.6,23.3
		c0.3,1.2,0.7,2.5,1,3.7c0.1,0.3,0.3,0.6,0.5,1.1c0.1-0.4,0.2-0.7,0.2-0.9c0.1-0.9,0.3-1.9,0.4-2.8c0.7-5.5,1.1-11.4,2.4-16.8
		c0.1-0.5,0.7-1.7,1.3-1.8c0.9-0.2,3.8-0.4,4.7-0.4c0.3,0,0.6,0.1,0.8,0.3c1,0.7,4.3,7.9,5.8,10.7c2.6,5,4.8,10.2,7.5,15.2
		c0.1,0.3,0.4,0.5,0.6,0.7c0.1,0,0.1,0,0.2-0.1c0.1-0.9,0.2-1.8,0.3-2.8c0.9-9.8,0.7-19.5-0.9-29.2c-0.2-1.4-0.4-2.8-0.6-4.1
		c0-0.2,0-0.5-0.1-0.7c-0.4-0.5-0.1-0.8,0.3-1.1c1.5-0.9,3.3-1.1,5-1.3c0.5-0.1,1.1,0.2,1.6-0.1c0.2-0.1,0.5,0.2,0.8,0.4
		c0.4,0.4,1.1,0.8,1.3,1.4c2.2,4.6,6.5,7.5,8,9.1c0.7,0.8,1.7,1.2,2.7,1.9c0.4-1.6,0.7-3,1.1-4.3c1.6-5.9,4.4-11.6,11.4-11.3
		c0.8,0,1.5,0,2.3,0.1c1,0.1,1.7,0.8,2.3,1.5c1.1,1.1,2.1,2,2.4,3.6c1,5.3,0.1,9.7-3.5,13.6c-1.6,1.6-3.7,1.8-5.6,2.3
		c-0.6,0.2-1.2,0.3-1.8,0.6c-0.2,0.1-0.3,0.5-0.4,0.7c-0.4,2.3-0.3,4.6,0.1,6.9c0.9,5.5,1.3,11.3,4.5,16c0.5,0.7,1.1,1.3,1.7,1.8
		c0.8,0.7,1.8,1.3,2.6,2.1c1.9,1.6,3.9,1.2,5.9,0.3c2.4-1.1,4.1-3,5.2-5.4c1.6-3.2,2.5-7.1,1.8-10.7c-0.3-1.5-0.1-3-0.1-4.5
		c0-0.1,0.1-0.3,0.1-0.4c-0.1-0.5-0.2-0.9,0.5-1c0.8-0.2,1.4-0.1,1.7,0.5c0.6,1.1,1.1,2.2,1.7,3.3c3.2,6,3.2,14.3-2.7,18.5
		c-3.1,2.2-6.4,3.7-10.1,4.3c-6.8,1-14-5.3-17.3-10.6c-3.9-6.1-4-13.4-4.5-20.4c-0.1-0.7,0-1.4,0.1-2.1s0-1.2-0.7-1.5
		c-2.5-1.1-4.8-2.6-7-4.2c-1.4-1-2.6-2.2-3.9-3.4c-0.2-0.2-0.3-0.5-0.5-0.7c-0.1,0.1-0.1,0.1-0.2,0.2c0.2,2.2,0.4,4.4,0.6,6.5
		c0.7,8.3,1,16.6,0.8,25.1c0,1.7-0.1,3.3-0.1,5c-0.1,1.7-0.3,3.4-0.3,5.1c0,0.6,0.2,1.2,0.4,2c-0.4,0.3-0.9,0.5-1.4,0.9
		c-0.8,0.5-1.6,0.5-2.4,0.3c-1.3-0.3-2.6-0.7-3.8-1.2c-1.6-0.6-2.6-1.9-3.4-3.2c-3.5-5.4-5.7-11.6-8.2-17.6
		c-0.8-1.9-1.6-3.9-2.3-5.9c-0.6-1.5-1.2-3.1-1.8-4.6c-0.1-0.1-0.1-0.2-0.2-0.4C379,48.5,378.9,48.5,378.8,48.5z"/>
	<g id="_x38_lpu62_1_">
		<g>
			<path class="st24" d="M1009.6,18.3c-0.3-1-1.7-1.1-2.8-0.9c-2.2,0.3-26.9,3.2-26.9,3.5c0-0.4,0-0.7,0-1c0-7.7,0.1-15.5,0.6-23.3
				c0.1-1.1,0.1-2.2-0.1-3.2c-0.2-0.8-0.4-1.6-0.9-2.2c-1.1-0.1-2.9-0.3-3.9,0.1c-2.8,1.1-2.3,1.3-2.6,3.9c-1,7.5-1.8,25.1-1.9,26.4
				c0,0.6,0.5,0.8-0.2,0.9c-1.7,0.2-9.8,0.7-10.6,2c-0.3,0.6,0.2,0.7,0.8,0.8c2.9,0.3,6.4-0.2,9.2-0.1c0.2,0,0.8,0.3,0.8,0.4
				c0.9,10.6-4.4,26.7-7.4,34.6c-0.5,1.4-1.2,2.8-2.3,3.9c-0.6,0.6-1,0.8-1.5,0.1c-3.7-4.1-3.6-10.4-6.3-20.7
				c3.9-14.8,5.6-51.1,4.6-55.7c-1.4-6.5-5.7-11.4-10.4-4.6c-4.5,6.5-4.2,15.8-4.4,23.4c-0.3,10,3.1,37.1,3.6,38.6
				c0.1,0.2,0.1,0.5,0.1,0.7c-0.9,3.6-5.8,24.1-7.6,16.2c-3.4-14.9-3.6-27.4-4-43.1c0-0.8-0.1-1.5-0.4-2.3c-0.3-0.8-0.5-1.7-0.9-2.5
				c-0.1-0.3-0.4-0.6-0.7-0.9c-0.1-0.1-0.4-0.1-0.7-0.1c-0.4,0-0.9,0-1.3,0c-1.1,0.1-2.1,0.5-3.1,0.9c-0.3,0.1-0.4,0.3-0.3,0.6
				c0.9,9.1-2.8,42.8-7.5,48.8c-0.6,0.8-1.5,0.7-2-0.1c-0.5-0.9-1-1.8-1.3-2.8c-2.9-11.1-2.9-28.2-3.1-40.2c0-2.3,0-4.6,0-6.9
				c0-0.4,0-0.8-0.2-1.1c-0.3-0.7-0.7-1.3-1.5-1.6c-0.5-0.2-5.8-2.3-5.8-0.3c0,0.3,0,0.6,0,1c0.3,10.2-0.1,22.7-2.8,32.6
				c-0.6,2.2-2.5,8.5-3.3,10.7c-0.2,0.6-0.8,1.8-0.8,1.8c-0.9-13.5-7.7-26.9-13.6-35.8c-0.2-0.4-1.8-2.9-2.5-3.7
				c-0.2-0.3-0.2-0.5-0.2-0.9c0.3-3.2,0.7-7.5-0.7-10.5c-3-6.7-11.2-0.8-9,5.5c0.7,2,1.7,3.8,3,5.5c0.5,0.6,0.7,1.3,0.7,2.1
				c0,1.4-8,48-11.7,47.6c-5.3-0.6-4-25.3-4-29.9c0-9.1,2.2-21.5-1.9-28.6c-0.4-0.7-0.8-1.5-1.5-2c-7.6-5.2-18.3,20.1-18.9,21.7
				c0,0.1-0.1,0.2-0.2,0.4c-0.2-0.7,0.6-12.3,0.5-13.8c-0.2-2.1-0.7-4-2.2-5.6c-0.8-0.8-4.4-0.8-5.3-0.8c-0.9,0.1-1.6,0.4-2,1.3
				c-0.1,0.3-3.8,3.8-5.4,4.8c-0.3,0.1-0.5,0.3-0.8,0.4c-0.1-0.1-0.2-0.1-0.2-0.2c-2.3-6.4-4.5-8.8-12-7.1c-2.4,0.5-6.2-0.1-7.6,2.3
				c-0.1,0.2-0.2,0.3-0.4,0.4c-0.2,0.2-0.2,0.3-0.3,0.6c-0.3,1.1-0.6,2.2-0.9,3.4c-2.3,8.7-3.2,17.7-5,26.5
				c-0.4,2.2-0.9,4.5-1.4,6.7c-1.2,5.3-2.6,10.1-6.6,13.9c-6.6,6.4-9.3-8.9-10.2-12.1c-3.3-12.2-0.3-33.4,6.2-37.7
				s2.4,11.4,6.1,10.9c2.9-0.4,3.5-3.3,4-5.5c0.9-4.6-2.3-11.2-8-11.2c-3.7,0-8.1,0.9-10.4,4c-7.1,9.8-9.2,22.7-7.5,34.7
				c2,14.3,10.4,27.8,22.7,19.3c0.5-0.3,0.9-0.7,1.3-1c1-0.9,1.7-2,2.4-3.2c1.1-1.8,2.2-3.6,3.4-5.4c0,0,0.1-0.1,0.2-0.1
				c0.1,0.3,0.2,0.6,0.3,1c0.8,3.8,2.3,8.1,5.7,10.5c1.4,1,3,1.8,4.7,2.1c1.9,0.4,3.7,0.3,5.4-0.6c3.6-1.8,5.7-3.7,7.7-7.2
				c6.2-10.9,4.5-28.9,1.2-40.5c-0.1-0.3-0.1-0.6-0.2-1c2.3-0.6,5.6-1.7,7.6-2.9c0.1,0.3,0.1,0.4,0.1,0.5c0.1,1.1-1,47.1,2.3,49.6
				c0.5,0.4,1.1,0.7,1.6,1.2s1,0.8,1.7,0.9c0.4,0,0.8,0,1.3,0.1c1.6,0.2,2.7-1,2.6-2.4c0-0.6-0.1-1.2-0.2-1.8
				c-0.1-0.5-0.2-1.1-0.3-1.6c-0.1-1.2-0.3-2.5-0.4-3.7c-1.6-21.2,10-45.7,11.8-43.6c2,2.2-0.8,29.8,0.6,42.1c0.2,2,0.6,4.1,1,6.1
				c0.2,1.3,0.5,2.5,0.8,3.8c1.1,5,7.5,9.4,12.2,6.3c4.4-2.8,6.2-10.7,7.6-15.3c3.1-10.3,4-20.9,6.4-31.3c0.1-0.5,0.4-1.6,0.4-1.6
				s15.8,30.9,9.1,35c-1.2,0.7-2.6,0.7-3.9,0.3c-1.9-0.6-5.7-2.8-7.7-1.7c-3.6,2,1.1,4.7,3.1,5.7c3.2,1.6,5.8,2.2,9.4,2.4
				c6.4,0.4,9.4-5.1,11.8-9.6c1-2,3.2-8.4,3.8-10.7c0.2,0.3,0.3,0.6,0.3,0.9c1,6.3,0.7,18,7,21.8c1.6,1,3.3,1,4.9,0.3
				c6-2.3,9-11,9.9-16.4c0.1-0.6,0.2-1.2,0.4-2c0.1,0.2,0.1,0.3,0.2,0.4c0.5,2.1,0.8,4.2,1.4,6.3c0.6,2.2,1.7,9.6,4.7,13.1
				c5.1,5.9,12.1-12.5,13.6-18.2c0,0,0.5,8.8,2.6,12.6c3.9,7.1,8.9,5.7,12.2,1.7c3.5-4.1,7.5-15.9,8-21.1
				c0.6,10.3,1.5,20.8,9.6,28.5c1.2,1.1,2.7,1.8,4.2,2.5c5,2.2,9.6-1.5,10.8-6.3c0.1-0.4,0-0.7-0.3-1c-0.6-0.4-1.2-0.3-1.6,0.3
				c-0.2,0.2-0.3,0.5-0.4,0.8c-0.6,2-3.8,3.6-5.9,2.2c-1.1-0.7-2.1-1.4-2.6-2.5c-5.5-11.1-6.5-26-6.7-38.1c0-2.6,0-5.1,0-7.7
				c0-0.1,0-0.2,0.1-0.3c0.3-0.1,0.6-0.1,0.8-0.2c8.7-1.1,17.2-2.5,25.9-2.9c0.9,0,1.9-0.3,2.5-0.8
				C1009.5,19.2,1009.7,18.8,1009.6,18.3z M814.4,9.9c0.7,0,1.1,0.5,1.3,1.1c0.4,1,0.7,2,1.1,3c0.2,0.5,0.3,1,0.5,1.5
				c-1.3,0.1-3-0.8-3.4-2c-0.1-0.1-0.1-0.3-0.1-0.5C813.8,12,813.8,10.9,814.4,9.9z M820.8,45.5c-0.3,5.4,0.2,18.2-7.9,18.9
				c-0.7,0.1-1.2-0.3-1.6-0.9c-0.5-0.9-1.1-1.8-1.5-2.7c-2.6-5.8-3.4-12.1-3.3-18.5c0.2-9,2.5-17.9,4.3-26.7c0-0.1,0.1-0.1,0.2-0.3
				c0.2,0.1,0.3,0.1,0.4,0.2c1.4,1.3,3.1,1.8,4.8,2.2c0.5,0.1,1,0.2,1.6,0.3c0.3,0.1,0.5,0.2,0.5,0.5
				C820,27.4,821.3,36.6,820.8,45.5z M951.4,32.4c0-0.1-4-35.1,0.9-46.4c0.1-0.1,0.2-0.3,0.3-0.5c0.4,0.3,0.4,0.6,0.4,0.9
				c0.1,0.8,0.3,1.6,0.4,2.4C954.4-4.3,951.8,30.6,951.4,32.4z"/>
		</g>
	</g>
	<path class="st24" d="M637-3.6c5-0.1,25.8-2.5,31.4-2.4c0.9,0,1.8,0.2,2.8,0.3c0.2,0,0.4,0.2,0.6,0.3c0.5,0.3,0.8,0.7,0.6,1.3
		c-0.1,0.6-0.5,0.9-1.1,1.1c-0.5,0.1-1,0.2-1.4,0.2c-2.9,0.3-5.8,0.6-8.7,0.8c-3.8,0.3-7.7,0.7-11.5,1c-2.4,0.2-4.7,0.2-7.1,0.3
		c-1.8,0.1-3.5,0.4-5.3,0.6c-0.6,0.1-0.8,0.4-0.8,1c-0.2,2.3-0.5,4.7-0.6,7c-1.1,14.2-0.6,27.4,2.5,41.3c1,4.7,2.7,9.1,5.3,13.2
		c0.4,0.6,0.7,1.3,1,1.9c0.5,0.8,0.7,0.8,1.6,0.4c1-0.4,3.6-5.8,3.9-7.1c0.2-0.7,0.1-1.4-0.2-2c-3.9-8.4-5.7-20.5,0.4-39.6
		c1.8-5.7,5-11.5,10.4-12c15.6-1.4-3.3,50.4-3.2,50.8c1.5,3.3,3.2,8.9,6.5,10.7c0.7,0.3,1.4,0.6,2.1,0.5c2.7-0.3,3.2-5.3,3.8-7.3
		c0.2-0.7,0.5-1.4,1.1-1.7c0.5-0.2,1.1,0.1,1.5,0.6c0.3,0.5,0.4,1,0.5,1.6c0.2,1.5,0,3-0.3,4.4c-0.3,1.2-0.6,2.3-1.4,3.3
		c-1.3,1.8-3.5,2.6-5.7,2.8c-2.9,0.2-5.8-0.3-8-2.2c-0.5-0.4-3.8-3.2-3.6-3.8c-0.2,0.6-0.3,1.3-0.6,1.9c-2.1,4-5.7,8.6-10.7,9.1
		c-1.9,0.2-3.3-0.7-4.6-2.1c-5.7-5.9-8-14.8-9.8-22.6c-0.6-2.5-0.1-4.9-0.9-7.4c-0.1,0.5-0.3,1-0.4,1.5c-0.7,3.6-1.3,7.1-2,10.7
		c-0.6,2.6-1.3,5.1-2.1,7.6c-0.3,1.1-0.7,2.2-1.3,3.2c-0.3,0.6-1,1.1-1.5,1.6c-0.1,0.1-0.4,0.2-0.6,0.1c-0.8-0.2-1.6-0.4-2.4-0.6
		c-0.6-0.2-1.1-0.6-1.7-0.9c-5-2.1-6.7-11.3-7.6-15.9c-1.4-6.9-1.6-14-1.8-21c-2.2,7.2-4.3,14.2-7.7,21c-2.5,5.1-5.2,11-9.3,15
		c-1.2,1.1-2.6,1.1-4,0.4c-1.8-0.9-3.5-2.1-4.2-4.2c-0.2-0.7-0.6-1.3-0.9-2c-0.7,0.3-1,1-1.5,1.5c-3.5,3.4-7.3,4.1-12,2.2
		c-1.1-0.5-2.2-0.9-3.2-1.7c-0.1-0.1-0.3-0.2-0.6-0.3c-3.1,7.4-8.5,22.4-19.3,18.7c-1.3-0.4-2.2-1.6-3-2.8c-1.6-2.7-2.5-5.6-3-8.7
		c-1.7-11.2-3-22.6-4-34c-0.2-2.2-0.7-4.2-1.2-6.3c0-0.1,0-0.2-0.1-0.2c-0.4-1.4-0.8-1.8-2.3-1.9c-1-0.1-2,0-3,0.1
		c-0.6,4.2-1.1,8.4-2,12.5c-1.5,7.4-3.7,14.7-7.4,21.3c-3.3,6-8.9,13.6-15.7,15.7c-0.5,0.1-0.8,0.5-1.3,0.7
		c-0.7,0.2-1.4,0.5-2.1,0.4c-4.7-0.4-10-3.8-12.8-7.6c-4.8-6.7-5.4-15.8-5.4-23.8c0.1-9.9,1.6-24.2,9-31.5c1.3-1.2,2.9-1.9,4.7-2.1
		c0.6-0.1,1.2,0.2,1.8,0.3c3.8,1.2,6.7,3.3,8.2,7.1c0.4,1.1,0.7,2.4,0.8,3.6c0.1,1.3-0.5,2-1.8,2.2c-1,0.2-2-0.5-2.4-1.4
		c-0.5-1.4-1-2.7-1.5-4.1c-0.1-0.3-0.4-0.6-0.5-0.9c-1.1-0.4-1.8,0.2-2.2,1c-3.6,7.5-5.6,15.7-6.1,24c-0.6,9.8-0.2,19.1,6.3,27.1
		c0.3,0.4,0.7,0.6,1.2,0.9c1,0.6,1.9,0.8,3,0c2.5-1.8,4.7-3.9,6.4-6.4c4-6,7-12.6,8.9-19.5c1.9-6.8,1.6-13.3,2.1-20.2
		c0.1-0.9-0.3-1.5-1-2.1c-3.1-2.9-5.4-6.3-6.3-10.5c-0.4-1.7-0.3-3.5-0.2-5.2c0-1.2,0.9-2.1,2-2.3c3.4-0.8,8.5,0.7,11,3.1
		c2.8,2.7,2.7,6.8,3,10.4c0.1,0.9-0.1,1.8-0.1,2.7c0,0.2,0,0.3,0.1,0.6c0.4,0,0.7-0.1,1.1-0.1c3.3-0.2,7.9-0.3,10.5,1.5
		c3.7,2.5,5.7,46.2,9.8,50.5c0.7,0.8,0.7,0.8,1.5,0.2c1.6-1.1,2.5-2.7,3.3-4.3c1.4-2.6,2.2-5.5,3.2-8.3c0.5-1.6,1.1-3.2,1.6-4.8
		c0.2-0.7,0.2-1.2-0.2-1.9c-1.3-2.2-2.5-4.4-3.6-6.7c-3.7-8.3-4.9-17.8-2.7-26.7c1.1-4.6,3.2-8.9,6-12.6c3.1-4,5.9-3,10-1.4
		c5.8,2.2,4.3,8.3,3.7,13.8c-1.1,10.9-3.1,22.7-6.2,33.2c-0.1,0.4-0.1,0.8,0.2,1.1c0.8,1.1,1.6,2.3,2.4,3.4c1.1,1.4,2.5,1.4,3.7,0.4
		c1.2-1,2.1-2.2,2.8-3.6c3.3-6.6,4.3-13.9,5.7-21.1c1.5-7.8,3.8-15.9,8-22.7c1-1.6,2.1-3.1,3.3-4.5c1.8-2,4-3.5,6.7-4.1
		c1.8-0.4,3.4,0.2,4.9,1.1c0.9,0.5,1.7,1.2,2.6,1.8c0.2,0.2,0.5,0.4,0.7,0.4c1.7-0.1,3.2,0.5,4.8,0.8c0.6,0.2,1.3,0.3,1.9,0.5
		c0.5,0.2,0.9,0.5,1.4,0.7C614,8.5,614,9,614,9.4c-0.4,2.6-0.8,5.3-1.2,7.9c-1.3,10.5-0.7,21.7,1,32.1c0.5,3.2,1.4,6.3,2.5,9.4
		c0.1,0.3,0.3,0.6,0.5,1c0.5-0.8,1-1.4,1.2-2.1c0.5-1.7,1.2-3.4,1.5-5.3c1.1-8.2,2.9-16.7,4.2-25s1.6-16.5,1.8-24.9
		c0-0.4,0-0.8,0-1.3c-0.2,0-0.4-0.1-0.6-0.1c-3.5,0.1-7,0.2-10.5,0.3c-0.7,0-1.5-0.1-2.2-0.2c-1-0.2-1.7-0.7-2.1-1.7
		c-0.2-0.4-0.5-0.7-0.9-1c0.1-0.7,0.8-0.8,1.4-0.7c4.2,0.1,8.3,0.1,12.4-0.6c0.7-0.1,1.4-0.1,2.1-0.2c0.1-0.3,0.3-0.6,0.3-0.9
		c0.3-6.9,0.4-14,1.6-20.9c0-0.2,0.1-0.3,0.2-0.4c0.6-0.5,1.3-0.9,1.8-1.4c0.6-0.6,1.3-0.5,2.1-0.3c1,0.2,1.9,0.3,2.9,0.5
		c0.9,0.2,1.8,0.5,2.6,0.9c1,0.6,1.5,1.6,1.7,2.8c0.2,1.8,0.1,3.6-0.2,5.3c-0.7,4.2-1,8.5-1.2,12.7C636.8-4.1,636.9-3.9,637-3.6z
		 M603.9,10.7c-0.5,0.1-0.8,0.2-1.1,0.2c-6,1.7-8.5,8.6-10.8,13.7c-3.1,7.2-5.1,14.5-5.4,22.3c-0.1,2.7,0.4,5.3,1.2,7.8
		c0.1,0.3,0.3,0.7,0.7,0.7c0.5,0,0.6-0.2,0.8-0.6c0.6-1.2,1.2-2.3,1.8-3.5c5-10,8-21.3,11.4-32c0.5-1.5,0.9-2.9,1.1-4.4
		C603.8,13.7,603.8,12.3,603.9,10.7z M565.9,11.5c-1.9-0.3-6.4,10.2-7.4,15.8c-1,6.1-0.4,12.1,1.7,18.2c0.2-0.4,0.3-0.6,0.4-0.8
		c1.3-5.6,2.5-11.2,3.4-16.8C564.7,23.2,567.7,11.1,565.9,11.5z M517.7,19.1c0.1-0.1,0.2-0.2,0.2-0.2c-0.2-1.8-0.3-3.5-0.5-5.3
		c-0.1-0.7-0.5-1.2-1.1-1.9C515.9,14.5,516,16.9,517.7,19.1z"/>
	<path class="st25" d="M775.7,150.3c-1-0.7-4.5,1.7-5.5,2.1c-2,0.8-7.1,1.7-7.5,1.4c-0.5-0.4-5-5.6-7.8-5.9c-4.7-0.5-8,3.2-9.4,8.2
		c-2.6,9.4-4.1,19-6.7,28.3c-1.2,4.3-3.1,9-7.2,11.3c-0.5,0.2-0.7,0.1-0.7-0.4c-0.1-0.7-0.1-1.5-0.2-2.2c0-0.2-0.2-0.3-0.2-0.5
		c0-0.5-0.1-0.9-0.1-1.4c-0.1-15.2-0.6-27.7-1.6-42.9c0-0.3,0.1-0.4,0.3-0.4c0.9-0.2,1.7-0.4,2.6-0.6c0.9-0.2,1.8-0.3,2.7-0.5
		c5.9-1.2,11.8-2.7,17.8-3.4c1.1-0.1,2.1-0.1,3.2-0.3c0.4-0.1,0.8-0.3,1-0.6c0.7-0.8,0-2-0.8-2.4c-1.1-0.5-2.3-0.5-3.5-0.6
		c-4.1-0.3-7.8,1.2-11.8,2.1c-3.4,0.7-6.7,1.5-10.1,2.3c-0.5,0.1-1.1,0.2-1.6,0.4c0-0.6-0.1-1.1-0.1-1.6c-0.4-8.5-1.3-19.7-2.7-21.3
		l0,0c-0.3-0.3-1-0.4-1.3-0.2c-0.1,0.1-0.2,0.2-0.3,0.3c-1.2,0.6-2.3,1.3-3.5,1.9v0.1c-0.1,0.3-0.2,0.7-0.3,1
		c0.2,0.2,2.2,19.2,2.3,20.5c0,0.2,0.1,0.5,0,0.6c-0.1,0.2-0.4,0.2-0.6,0.2c-2.7,0.7-5.5,1.3-8.3,1.9c-1.4,0.3-3.1-0.2-4.4-0.5
		c-0.5-0.1-0.6,0.3-0.8,0.5c-0.1,0.1,0.1,0.6,0.3,0.7c0.4,0.3,0.9,0.5,1.3,0.6c3.5,0.9,7,1,10.5,0.5c0.7-0.1,1.4-0.3,2.1-0.4
		c0,0.2,0.1,0.3,0.1,0.5c0,0.8,0,1.6,0.1,2.4c0.4,11.7,0.1,20.7,0.8,32.4c0.1,1.9,0.2,3.9,0.5,5.8c0.3,1.7,0.9,3.2,2,4.5
		c1,1.3,2.8,2.2,4.4,2.7c1,0.3,2,0.4,3,0.2c0.5-0.1,0.9-0.4,1.3-0.6c3.7-2.5,5.8-6.9,7.3-10.9c1.6-4.6,2.7-9.6,3.3-14.5
		c0-0.3,0.1-0.6,0.2-0.9c0.1,0.2,0.1,0.4,0.1,0.6c0,1.1-0.1,2.3,0,3.4c0.2,4.4,0.3,9.1,1.6,13.4c1.4,4.4,4.1,7.6,8.1,9.9
		c0.7,0.4,1.5,0.9,2.4,0.8c0.4,0,0.8,0,1.2,0c0.1,0,0.2-0.1,0.2-0.1c4.7-1.4,7.7-13.6,8.2-19.7c0.6-6.6,0-17.9-1.9-20.9
		c-0.1-0.2-0.3-0.5-0.4-0.8c0.2,0.3,3.3-0.6,3.5-0.7c1.3-0.4,2.4-1,3.5-1.8C772.9,154.3,777.1,151.3,775.7,150.3z M754,152.2
		c0.8-1.1,4.4,1.7,4.7,2.6c-0.9,0.3-4.3-0.9-4.8-2C753.9,152.6,753.9,152.4,754,152.2z M758,193.3c-1.5,1.9-2.3,1.8-3.5-0.2
		c-0.3-0.5-0.5-1.1-0.7-1.7c-1.4-4.9-1.6-10.2-2-15.2c-0.4-7,0.2-13.6,1.5-20.5c0.1-0.3,0.1-0.6,0.2-0.9c0.9,1.6,2.8,2.7,7,2.6
		c1.9,3.4,1.4,6.4,1.8,10.4C762.7,171.5,761.6,188.9,758,193.3z"/>
	<path class="st24" d="M433.6,182.3c-1.6-2.2-1.3-22.8-1.2-35.1c0.1-5.6,0.1-10.1,0-11.4c-0.4-4.5-3.7-8.4-7.1-8.4
		c-0.5,0-1.1,0.1-1.6,0.3c-3.2,1.2-6.9,11.7-8.4,16.3c-0.5-8.5-1.1-13.2-1.6-14.3c-1.1-2.4-2.8-2.9-4.1-2.9c-2,0-4.3,1.3-6,3.4
		c-1.2,1.5-2.9,7.1-4.6,12.8c-0.3,0.9-0.5,1.7-0.7,2.4c-0.1-1.7-0.1-4.6-0.2-7.5c-0.1-4.1-0.1-8.4-0.3-9.6c-0.2-1.2-0.4-2.5-1.1-3.7
		c-0.3-0.6-0.7-1-1.2-1.3c-0.9-0.6-1.5-0.9-2-0.9l0,0c-0.1,0-0.3,0-0.4,0h-0.7c-0.5,0-1,0-1.6,0.2c-1.4,0.5-3.4,3.4-5.7,6.8
		c-0.6,0.9-1.3,2-1.7,2.5c-0.6-1.1-1.8-3.1-1.9-3.2c-3.7-5.3-7.1-6.4-9.3-6.4c-0.9,0-1.7,0.2-2.5,0.6c-3.2-0.2-6,6.5-8.3,19.9
		c-0.1,0.3-0.1,0.5-0.1,0.6c-0.4,1.7-0.7,3.6-1.1,5.7c-1.4,7.4-3.1,16.5-5.9,21.9c-0.2,0.3-0.3,0.6-0.6,1c-0.1-0.1-0.1-0.2-0.2-0.3
		c-0.2-0.3-0.4-0.6-0.4-0.9c-0.7-5.6-0.5-11.3-0.3-16.8c0.2-5.7,0.4-11.5-0.3-17.2c-0.1-0.9-0.3-1.8-0.8-2.7
		c-0.4-0.8-1.3-1.4-2.4-1.6c-0.8-0.1-1.3-0.3-1.8-0.4c-1.1-0.3-1.8-0.4-3.7-0.4h-0.2c-0.7,0-1.4,0-2.1,0h-0.4v-0.1
		c-0.1-0.3-0.1-0.5-0.2-0.7c-0.3-0.8-0.4-1.6-0.6-2.4c-0.3-1.6-0.6-3.3-1.9-4.8c-1.7-2.1-4.4-3.2-7.2-3c-2.1,0.2-4.3,1.4-4.5,4.3
		c0,0.3,0.2,0.6,0.3,0.8c0,0,0.1,0.1,0.1,0.2c0.8,2,2.4,3.5,4.1,5l0.7,0.7c0.5,0.5,1,0.9,1.6,1.2c0.5,0.3,0.7,0.7,0.8,1.3
		c0,0.3,0,0.5,0,0.8c0,0.2,0,0.4-0.1,0.6c-0.3,7.7-3.4,25.5-5.9,26.8c-1.7-6.8-5.9-9.3-8.3-9.3c-0.3,0-0.5,0-0.7,0.1
		c-0.1,0-0.3,0-0.4,0l0,0l0.1-0.7c0.1-0.9,0.2-1.8,0.3-2.8c1.3-10.1,1.7-27,1.3-37.7c0-1.4-0.1-2.7-0.7-4c-0.7-1.5-3-2-4.8-2
		c-1,0-1.9,0.2-2.6,0.4c-0.4,0.2-0.7,0.4-0.9,0.6c-0.1,0.1-0.2,0.2-0.3,0.2c-0.2,0.2-0.2,0.4-0.2,0.5l-0.1,0.7l0.5-0.1
		c0.1,0.1,0.1,0.3,0.2,0.4c0.1,0.1,0.1,0.3,0.2,0.4c0.1,0.3,0.3,0.6,0.3,0.9c0.1,1.2,0.1,2.5,0,3.7v0.2c-0.2,12.9-0.8,33.6-1.7,48.1
		c-0.4,6.2-0.6,12.6-0.8,18.8c0,1.4-0.1,2.6-0.1,3.8c-0.2,3.7-0.3,6.9,0.4,11.3c0.7,4.3,1.5,9.5,4.6,13.7c1.8,2.4,6.2,6,9.9,6
		c1.3,0,2.5-0.5,3.4-1.3c1.9-1.8,2.8-4.6,3.4-6.7c0.8-2.7,1.4-8.4,1.7-11.5l0.1-0.7c1-10.5-0.1-16.1-3-26.2V169
		c-0.1-0.4-0.2-0.7-0.2-1s0-0.3,0.1-0.4c5.9-1.9,10.5-27.9,10.9-32.1h0.1c0.3,0,0.6,0.1,0.9,0.1c0.6,0.1,1.2,0.1,1.8,0.1h0.1
		c0.2,0,0.5,0,0.6-0.1c0.1,0,0.1,0,0.2,0c0,0,0,0,0.1,0c0,0.2,0.1,0.5,0.1,0.8v0.2c0.3,4.1,0,8.1-0.4,12.8c-0.2,3-0.5,6.1-0.6,9.6
		v0.2c-0.2,5.1-0.4,13.8,3.4,18c1.1,1.2,2.6,2.2,4.5,3c0.4,0.2,0.8,0.2,1.2,0.2c4.6,0,8.2-10.1,9.5-14.1c2,5.6,4.7,8.5,10,10.9
		c1.5,0.7,2.8,1.2,4.1,1.2c0.9,0,1.8-0.2,2.7-0.6c3.9-1.8,5.4-9.1,6.4-14c0.2-1,0.4-1.8,0.5-2.5c2.1-8.6,0.3-17.2-1.4-25.5
		c1.2-0.5,2.2-1.9,3.1-3.3c0.8-1.1,1.7-2.4,2.4-2.4l0,0c0.1,0.1,0.5,0.5,0.6,3.1c0,0.2,0,0.4,0,0.5c0.7,6,0.8,13.1,0.9,19.4v2.5
		c0,2,0,4.5,0.1,7c0.1,10.5,0.1,10.6,0.4,10.8c1.6,1.4,4.9,3.3,6.8,3.3c0.6,0,1-0.2,1.3-0.5l0.1-0.1v-0.2c0-16.9,5.7-38.1,7.3-40.8
		c0.4,0.8,0.5,3.7,0.6,5.4c0,1.1,0.1,2.1,0.2,2.9c0.1,1.3,0,5.4-0.1,10.1c-0.2,6.6-0.4,14.9,0,18.7c0.1,0.5,0,1,0,1.5
		c0,1.1-0.1,2.2,1.3,3.4c0,0,3.1,2.4,4.8,2.4c0.4,0,0.7-0.1,0.9-0.3c0.2-0.2,0.4-0.6,0.3-1.1c-0.5-17.4,6.1-39,7.9-41.9
		c0.6,1.8,0.4,9.9,0.2,17.1c-0.4,12.4-0.8,26.4,1.7,29.5c0.8,1,2.7,1.8,4.6,1.8c1.5,0,2.6-0.5,3.3-1.4l0.2-0.3L433.6,182.3z
		 M321.7,158.4c0.8,1.4,1.6,2.8,2,4.2C322.1,161.6,321.7,160.2,321.7,158.4z M317.9,176c0.1-3,0.3-6.1,0.3-9.5c0-0.9,0-1.9,0-2.8
		c0-0.2,0-0.4,0-0.6c0.5,1,1,1.7,1.7,2.2c1.1,0.9,2.2,1.6,3.4,2c0.1,0,0.2,0.1,0.4,0.1c0.2,0.1,0.5,0.1,0.6,0.2
		c0.1,0.1,0.3,0.4,0.4,0.6c0.3,1,2,17.1,1.8,24.7c-0.1,6.6-0.7,11.2-3.4,16.8c-0.2,0.5-0.5,0.9-0.9,1.4c-0.1,0.1-0.1,0.1-0.1,0.1
		H322c-3.7-1.8-3.9-9.1-4.1-14.4c0-1.1-0.1-2.2-0.1-3C317.3,187.1,317.6,181.7,317.9,176z"/>
	<g>
		<path class="st24" d="M538.7,214c-0.1-0.1-0.2-0.1-0.3-0.2c-0.3-0.2-0.6-0.6-0.8-1c-2.9-4.6-5.1-9.6-7.5-14.4
			c-1.8-3.6-3.6-7.3-5.5-10.9c-1.4-2.8-3-5.5-4.9-8c-1.1-1.5-2.2-2.9-3.5-4.2c-0.3-0.3-0.6-0.6-1.2-1c0,0.8-0.1,1.3-0.1,1.7
			c0.1,8.7-0.3,17.6-0.4,26.4c0,2.1-0.4,2.7-2.3,3.1c-0.4,0.1-0.7,0.3-1.1,0.4c-0.6,0.1-1.3,0.2-1.9,0c-1.4-0.6-2.7-1.3-4.1-2
			c-0.7-0.4-1.4-0.7-2.1-1.1c-0.6-0.4-0.6-0.8-0.1-1.3c0.4-0.3,0.3-0.6,0.3-1c0.1-2.2,0.2-4.3,0.3-6.5c0.2-5,0.5-10,0.5-15
			c0.1-17.9-0.4-36.3-0.8-54.3c-0.1-4.1-0.3-8.1-0.5-12.2c0-1.1-1.5-3.7-1.4-3.8c0.2,0,0.5,0,0.6-0.1c1.5-1.5,21.4,4,28.7,9
			c2.9,1.9,5,4.5,6.7,7.7c8.2,16.1-1.8,36.6-13.8,46.6c-0.1,0.1-0.2,0.3-0.3,0.4c1.9,1.8,3.8,3.6,5.6,5.4c7,7.1,10.6,17.6,15.3,26.5
			c1.5,2.8,2.8,5.8,4.9,8.3c0.4,0.5,0.9,0.9,1.3,1.3c-0.8-0.8-5.6,0-6.8,0C542.4,214.2,540,214.7,538.7,214z M515,167.7
			c0.7-0.6,1.1-0.9,1.4-1.3c1.4-1.4,2.9-2.7,4.1-4.3c1.4-1.7,2.7-3.4,3.7-5.4c1.9-3.9,3.5-8,4.7-12.2c1.1-3.9,1.9-7.9,1.5-12.1
			c-0.4-3.8-1.3-7.3-3.3-10.4c-0.8-1.3-1.7-2.5-3-3.2c-3.6-1.8-7.4-3.3-11.2-4.4c-0.2-0.1-0.4,0-0.7,0.1c0.1,0.6,0.1,1.1,0.2,1.6
			c0.1,0.7,0.2,1.3,0.3,1.9c0.3,2.7,0.5,5.3,0.8,8c0.2,2.4,0.6,4.8,0.7,7.2c0.2,5.1,0.3,10.3,0.4,15.4c0.1,5.7,0.2,11.3,0.3,17
			C514.8,166.3,514.9,166.8,515,167.7z M504.1,148C504,148,504,148,504.1,148c-0.1,0.3-0.1,0.5-0.1,0.8h0.1
			C504.1,148.5,504.1,148.2,504.1,148z"/>
		<path class="st24" d="M675.1,139.9c-0.4,1.3-0.8,2.5-1.1,3.8c-2.3,10.5-4.8,21.1-7.5,31.7c-0.3,1.2-1,1.8-1.9,1.9
			c-2.6,0.3-4.9-1.5-7.2-2.6c-0.3-1.6-0.6-3.1-0.9-4.4c-0.8-3.2-3.5-17-4.5-20.7c-0.9-3.4-1.2-6.7-2.2-10c0-0.1-0.1-0.1-0.3-0.2
			c0,1.2-0.1,2.3-0.1,3.4c-0.3,17.4-0.1,34.7,0.5,52.1c0.1,2.1,0.1,4.1,0.1,6.2c0,1-0.5,1.7-1.2,2.1c-2.3,1-5.6-0.3-7.7-1.3
			c-0.2-0.1-0.7-44.7-0.1-61.1c0.1-3.1,0.1-6.2,0.1-9.3c0.1-5.7,0.7-11.2-0.1-17c1.5-0.1,9.1-1.3,10.1,1.1c1.7,4,10,39.9,11.3,43.6
			c0.1,0,0.1,0,0.2,0c1.1-0.2,3.2-14.6,3.6-16.4c1.4-6.3,2.7-12.6,3.9-19c0.4-1.9,0.9-3.7,1.3-5.6c0.3-1.2,0.6-2.3,0.8-3.5
			c0.1-0.4,0.9-1.7,1.4-1.7c1.3,0.1,4.9,0.2,6.2,0.1c0.9-0.1,1.7,0.4,2.5,0.7c0.3,0.1,0.5,0.6,0.6,1c1,3.1,1.4,67,2.6,78.3
			c0.4,3.4,0.6,6.8,1,10.2c0.1,0.7-0.1,1.2-0.5,1.6c-2.1,2.1-3.7,2.6-6.6,3.1c-0.8,0.1-1.3-0.6-1.6-1.4c-1.5-3.5-1.7-8-1.8-11.8
			c-0.4-10.1-0.4-20.2-0.3-30.3c0-3.1,0.1-6.1,0.1-9.2c0-3.5-0.2-7.1-0.3-10.6c0-1.6-0.1-3.1-0.1-4.7
			C675.3,139.9,675.2,139.9,675.1,139.9z"/>
		<path class="st24" d="M465.8,204.2c0.4-1.5,0.4-1.5,1.5-1.4c15.4,0.6,19.8-26.4,20.5-38.3c0.8-14.8-2.4-28.3-9.3-41
			c-1.4-2.7-2.9-5.3-4.4-7.9c-0.5-0.9-1.1-1.9-2-2.6c0.2,2.5-0.7,56.5-0.6,81.1c0,0.6,0.1,1.1,0.1,1.7c0,0.5,0.1,1,0,1.6
			c-0.4,2.7-0.7,2.5-2.5,3.1c-2.5,0.8-4.7-0.3-6.9-1.1c-2-0.7-2.1,1.9-2.3-3.9c-1.3-29.1,0.8-59.4,1.1-88.8c0-1.2,0.1-2.4,0.3-3.7
			c0.4-4,13.9,3.5,15.1,4.6c2.5,2.5,4.7,5.5,6.8,8.4c10,13.8,17.5,31.2,16.7,49.2c-0.4,9.5-2.5,19.7-7.2,27.9
			c-4.3,7.5-14.6,17-23.3,12.7C468.1,205.2,467,204.7,465.8,204.2z"/>
		<path class="st24" d="M606.6,115.1c1.9,0.7,5.7,0.8,7.6,1.2c1,0.2,1.7,1,2.1,1.9c1.8,4.3,14.5,69.4,18.3,85.6
			c0.5,2.3,1.1,4.6,1.7,7c0.4,1.6-0.1,2.3-1.4,3c-1.4,0.9-2.8,0.5-4.2,0.3c-1.3-0.2-4.8-3.4-4.9-3.7c-1.1-5-2.3-10-3.3-15
			c-0.7-3.3-1.2-6.7-1.8-10.1c-0.2-1-0.4-2-0.6-3.1c-1.3-0.3-14.5-0.7-15.6-0.5c-0.9,0.1-1.1,0.4-1.2,1.3c-0.6,3.2-1.2,6.4-1.8,9.5
			c-0.6,3.2-1.2,6.5-1.8,9.7c-0.3,1.6-0.8,3.1-1.6,4.6c-0.5,1-1.3,1.7-2.2,2c-1.2,0.4-2.5,0.7-3.8,0.4c-1.3-0.2-2.5-0.3-3.9-0.4
			c0.1-0.5,0.1-0.8,0.3-1.1c0.7-1,1-2,1.2-3.2c0.3-1.7,9.5-53,11.5-64.2c0.6-3.8,1.2-7.5,1.8-11.3
			C603.4,125.7,605.8,114.8,606.6,115.1z"/>
		<path class="st24" d="M549.1,117c-0.3-0.4,0-1.7,0.3-2.6c0.1-0.2,0.8-0.1,1.3-0.1c-0.2-0.6,23.9-0.7,31.5,0.4
			c0.5,0.1,1,0.2,1.5,0.3c0.9,0.3,1.3,0.9,1.3,2c0,0.8-0.4,1.4-1.3,1.5c-1.8,0.2-3.6,0.4-5.4,0.5c-5.1,0.2-10.1,0.3-15.2,0.4
			c-1,0-1.9,0.2-3,0.3c0.1,1.3,0.3,34.7,0,41.6c0,0.4,0.1,0.7,0.1,1.1c1,0,1.9,0.1,2.8,0c4-0.4,7.9,0,11.8,0.3
			c1.6,0.1,3.2,0.2,4.7,0.4c1,0.1,1.9,0.6,2.8,0.8c1,0.3,1,1.9,0.3,2.4c-0.8,0.6-1.6,1.3-2.7,1.2c-2.8-0.2-5.6-0.5-8.5-0.6
			c-3.5-0.2-7-0.2-10.5-0.3c-0.3,0-0.5,0.1-0.8,0.1c-0.1,0.4-0.2,0.7-0.2,1.1c-0.5,7.8-0.9,16.1-0.3,24.1c0.2,2.5,0.5,4.9,0.8,7.4
			c0.1,1,0.4,1.7,1.4,1.8c6.5,1.1,11.5,2.3,18.2,0.9c1.5-0.3,2.9-0.5,4.5-0.3c0.6,0.1,1,0.3,1.2,0.9c0.2,0.6,0,1.2-0.5,1.6
			c-0.9,0.8-1.9,1-3,1.2c-8.4,2.1-14.9,1.9-23.3-0.2c-2.8-0.7-5.6-1.8-8.1-3.5c-0.7-0.5-1-1-1.2-2c-0.5-2.8-0.8-5.6-1-8.4
			c-0.6-7.5-0.1-15.2,0.1-22.8c0.2-14.5,1.4-29.4,0.6-44C549.3,122.2,549.2,119.7,549.1,117z"/>
	</g>
	<path class="st24" d="M474.2,193c0.1-0.2,0.2-0.4,0.3-0.6c0.1,0,0.1,0.1,0.2,0.1c-0.1,0.2-0.2,0.4-0.3,0.6
		C474.4,193.1,474.3,193,474.2,193z"/>
	<g>
		<path class="st24" d="M990.1,109.7c3.7-0.2,7,1.4,10,3.4c4.2,2.7,8.4,5.6,10.5,10.4c9.3,21.2,10.5,49.7,3.2,71.7
			c-1.2,3.5-3.3,6.6-6.6,8.4c-1,0.6-2.3,1.1-3.4,1c-5.9-0.7-11.2-2.5-14-8.5c-3.2-6.8-5.3-13.9-6.7-21.3
			c-2.8-14.3-2.8-28.6,0.1-42.8c1.2-6,3.5-11.7,5.4-17.5C989.1,112.9,989.6,111.4,990.1,109.7z M998.8,117.5c-0.5,1.1-1.1,2-1.3,3
			c-1.3,4.8-2.8,9.6-3.8,14.5c-2.2,10.3-2.3,20.8-1.7,31.3c0.7,10.9,3.1,21.3,7.5,31.3c0.4,1,1.2,1.9,2.1,3.3c1-1.3,1.9-2,2.3-3
			c4.9-11.4,5.9-24.3,5.4-36.7c-0.4-12.5-1.6-25.2-5.4-37.1C1003.2,121.6,1002,118.8,998.8,117.5z"/>
		<path class="st24" d="M1015.8,107.5c3.3-1.8,7.8-3.1,9.3,0.4c2.7,6.1,4.8,20.6,7.4,26.7c1.1,2.6,1.5,5.3,3,8.6
			c0.5-1.5,8.1-24.2,13.2-37.9c0.4-1.1,1.1-1.8,2.2-1.6c1.4,0.2,2.9,0.3,4.3,0.7c2.4,0.7,3.1,2.1,2,4.5
			c-6.4,14.2-11.4,28.8-15.8,43.8c-0.4,1.3-0.6,2.8-0.6,4.2c0.8,13.2,1.2,29,1.7,44.4c0.1,2.2-0.6,3.2-2.6,2.5
			c-1.8-0.6-3.6-1.6-4.9-2.9c-0.9-0.8-1.2-2.5-1.3-3.9c-0.9-10.8-0.1-25.3-0.9-36.1c-0.1-0.7-0.1-1.3-0.3-2
			C1027.2,143.4,1022.3,122.5,1015.8,107.5z"/>
		<path class="st24" d="M794.5,109.5c0.1,0,3.9-1.2,4.6-1.2c12.8-0.2,29.7,16.4,35.5,27.7c6.7,13.1,7.6,29.7,3.2,43.8
			c-3.8,12.4-12.9,33.4-28.1,29.5c-1.8-0.4-3.5-0.8-5.2,0c-0.2,0.1-0.5,0.1-0.8,0.2c-1.7,0.5-2.7,0.1-3.3-1.7
			c-0.7-2.1-1.3-4.3-1.3-6.5c-0.5-25.7-0.6-51.5-0.6-77.2c0-4-0.2-7.9-0.2-11.9c0-0.9-0.4-1.4-1.1-1.7
			C796.4,110.2,795.5,109.9,794.5,109.5z M807.7,118c0,0.7-0.1,1.1,0,1.2c0.7,0.8,0.7,1.8,0.8,2.7c1.4,26.1,2.5,80.2,2.5,80.2
			c20.4-15.5,18.1-40.5,15.7-55.7c-0.6-3.8-2-7.4-3.7-10.8c-2.8-5.4-8.6-10.3-12.6-14.9C809.6,119.8,808.8,119.1,807.7,118z"/>
		<path class="st24" d="M895.5,112.4c0.5-0.2,0.1-0.4,0.6-0.5c5.2-0.5,10,0.1,15.2,0.8c9.1,1.2,15.9,6,20.8,14.1
			c5,8.3,7.1,18.3,4.2,27.8c-2.5,8.1-8.3,17.9-16.9,20c-2.4,0.6-4.9,1-7.4,1.5c-0.5,0.1-0.9,0.2-1.4,0.4c-0.1,0.5-0.2,0.9-0.2,1.3
			c-0.2,5-0.4,10-0.6,15c-0.1,1.5,0,10.5-0.1,12c-0.2,2.3-1.4,3.6-3.6,3.8c-3.5,0.3-4.5,0.2-7.2-0.7c1.1-1.2,0.7-10,0.6-11.5
			c-0.4-24.3-0.1-47-0.8-71.4c-0.1-3.2-0.1-6.4-0.1-9.6c0-1.4,0-1.4-1.4-1.7c-0.4-0.1-0.9-0.1-1.3-0.3c-0.4-0.2-0.1-0.4-0.5-0.6
			C895.6,112.7,895.5,112.5,895.5,112.4z M910.8,170.4c6.9-1.3,12-12.8,13.9-18.9c2.5-7.9,2-14.7-0.5-22.6c-1-3-2.9-5.5-4.8-8.1
			c-2.2-2.9-5-4.4-8.6-4.3c-1.3,0-1.5,0.2-1.4,1.5c0,0.4,0,0.9,0,1.3c0.5,16.3,0.3,31.5,1.2,47.9
			C910.7,168.3,910.8,169.3,910.8,170.4z"/>
		<path class="st24" d="M941.1,110c0.6-0.2,1-0.4,1.3-0.3c2.4,0.7,4.8,2.1,7.2,2.9c1.4,0.4,2,1.4,2.3,2.7c0.3,1.6,0.6,3.3,0.9,4.9
			c2,12.3,2.4,66.3,2.2,76.7c0,1.6,0.1,3.2,0.2,4.9c0.7,0,1.2,0,1.6-0.1c8-0.7,16-1.2,24-1c0.8,0,1.7,0.2,2.5,0.3
			c0.7,0.1,1.4,0.3,1.4,1.1c0,0.6-0.3,1.3-0.7,1.8c-0.6,0.6-1.3,1.1-2.2,1.1c-1.8,0-3.5,0.1-5.3,0.1c-3.1,0.1-6.3,0-9.4,0.2
			c-4,0.2-8,0.6-11.9,0.9c-0.8,0.1-1.6,0.2-2.4,0.3c-1.4,0.2-2.6-0.1-3.8-0.8c-1.5-0.9-3-1.9-4.5-2.9c-0.4-0.3-0.9-0.8-1-1.3
			c-0.3-1.2-0.5-2.4-0.5-3.6C943.8,172.9,942.8,111.5,941.1,110z"/>
		<path class="st24" d="M891.3,199c-9.9-3.1-18.7,3.3-28.8,4.3c-1.6,0.1-1.9-0.1-2.1-1.9c-0.3-2.2-0.4-4.4-0.7-6.6
			c-0.9-7.7-1.4-15.5-1.3-23.3c0-2.3,0.1-4.6,0.2-7.3c1.6,0,3.1,0,4.5-0.1c5.7-0.5,8.3-1,14.1-1.6c2.3-0.2,4.7-0.6,7-1
			c0.5-0.1,1-0.3,1.5-0.6c1-0.7,1.1-1.8,0.2-2.6c-0.8-0.8-1.6-1.3-2.7-1.2c-0.7,0.1-1.5,0.3-2.2,0.2c-3.3-0.5-6.5-0.1-9.7,0.4
			c-4.9,0.6-6.7,1-11.7,1.5c-0.1,0-0.2-0.1-0.4-0.2c0-0.7-0.1-1.4,0-2.1c0.1-2.5-0.9-26.9-0.8-36.5c0-0.3,0.1-0.7,0.2-1
			c1.9-0.1,3.7-0.3,5.5-0.4c4.1-0.1,5-0.2,9,0c4.1,0.2,8.1,0.2,12.1-0.3c0.9-0.1,1.8-0.3,2.6-0.6c0.5-0.2,1-0.8,1.1-1.3
			c0.1-0.3-0.2-1.1-0.6-1.3c-0.7-0.5-1.6-1.1-2.4-1.3c-2.9-0.4-5.7-0.8-8.6-0.9c-3.4-0.1-3.7,0.1-7.1,0.1c-2.3,0-4.7-0.2-7-0.2
			c-3,0-6.1,0.3-9.1,0.4c-2.1,0.1-4.3,0.3-6.4,0.2c-0.8-0.1-1.7,1.6-0.7,2.2c0,1.8-0.1,3.6-0.1,5.5c0.4,25.1-1.6,50.9,0.7,75.8
			c0.2,2.4,1.2,4.3,3,5.6c1.7,1.2,3.2,2.5,5,3.6c1.1,0.7,2.3,1.3,3.6,1.5c1.8,0.4,3.6,0.7,5.4,0.6c3.4-0.1,3.5-0.5,6.9-0.8
			c6-0.7,11.8-1.9,17.6-3.7c1.1-0.3,2.2-1,3.1-1.8C893.2,201.2,892.8,199.5,891.3,199z"/>
	</g>
</g>
<g id="page_elelments">
</g>
</svg>
