<svg xmlns="http://www.w3.org/2000/svg" width="210" height="420" viewBox="0 0 210 420"><path d="M148.37 243l-.46-.06-1.44-.15-.95-.07c-.37 0-.73-.06-1.09-.07q-1.08-.06-2.16-.06a46.75 46.75 0 0 0-46.75 46.75V420h10.71v.93H189V289.35A46.76 46.76 0 0 0 148.37 243z"/><path d="M105 293.43a46.75 46.75 0 0 1 46.75-46.75h2.16l1.08.07.95.08c.49 0 1 .09 1.45.15l.46.06a45.26 45.26 0 0 1 7.5 1.63 46.44 46.44 0 0 0-17-5.71l-.46-.06-1.44-.15-.95-.07c-.37 0-.73-.06-1.09-.07q-1.08-.06-2.16-.06A46.75 46.75 0 0 0 95.5 289.3V420h9.5z" fill="#5db2a5"/><path d="M420 189.82c-51.53-8.91-51.09 39.78-78.73 38.58-14.09-1.21-18.88-2-28.37-1.92-23.47.24-45.77 17.35-52.08 40-6.22-4.63-13.42-8.38-21.16-8.77s-16 3.24-19.45 10.19c-2.19 4.44-2.21 9.6-2.72 14.53-.75 7.36-3.22 15.07-7.49 21v67.22c8.76 6 21.69 5.06 29.42-2.25 4.17-3.93 8.61-10 14-8.13a11.29 11.29 0 0 1 4.3 3.19c6.73 7.06 12.36 15.17 19.69 21.6s17 11.15 26.64 9.48c17.56-3 26.29-25 43.43-29.85a25.89 25.89 0 0 1 20.65 3.05c5.72 3.62 9.84 9.3 15.21 13.41 12.82 9.82 32.44 8.9 44.83-1.45s16.91-28.83 11.49-44c47.54-2.08 99.44-125.3-19.66-145.88z" fill="#c6588a"/><path d="M492.89 261.7c-1.88 3.73-18.79 32.57-52.27 35.63-30.34 2.77-43.45-5.23-72.35 7.39s-34.46 37.74-55.91 44.14c-9.85 2.93-20.7 2.83-29.43-3.08a55.43 55.43 0 0 1-10.35-9.6c-3.71-4.24-7-9-11.68-12.26-5-3.44-10.78-4.32-15.62-.11-3.82 3.32-5.16 7.36-6.72 12-1.46 4.37-3.48 8.49-7.49 11a18.86 18.86 0 0 1-13.62 2.81 19.47 19.47 0 0 1-7.45-3.45v24.42c8.76 6 21.69 5.06 29.42-2.25 4.17-3.93 8.61-10 14-8.13a11.29 11.29 0 0 1 4.3 3.19c6.73 7.06 12.36 15.17 19.69 21.6s17 11.15 26.64 9.48c17.56-3 26.29-25 43.43-29.85a25.89 25.89 0 0 1 20.65 3.05c5.72 3.62 9.84 9.3 15.21 13.41 12.82 9.82 32.44 8.9 44.83-1.45s16.91-28.83 11.49-44c29.76.21 54.44-39.56 53.23-73.94z" fill="#a3336b"/><path d="M189 312.63v49.06s12.63 3 13.14 3.12c3.64.67 4.69 3.41 7.79 5.8l.05-1v-66.39c-2.08 2.68-12.26 12.49-20.98 9.41z" fill="#c6588a"/><path d="M207.27 345.6a7.29 7.29 0 0 0-3.15 1.43c-1.19.8-7.61 7.91-15.1 4.18v10.48c.5.06 13.28 3.55 21 8.95v-24.41a3.91 3.91 0 0 0-2.75-.63z" fill="#a3336b"/><path d="M204.14 329.78a1.5 1.5 0 0 0 0-3 1.5 1.5 0 0 0 0 3z" fill="#c4d9e8"/><path d="M189 326.6c-.2.43-.39.87-.57 1.31a6.34 6.34 0 0 1-1.74 2.91c-.92.69-3.26 1.12-3.68.05a194.23 194.23 0 0 1-12.4 29 13.69 13.69 0 0 1-2.07-9.77c-2.41 5.26-6.08 10.26-11.36 12.63s-12.35 1.36-15.63-3.42c3.76-1.08 3.21-6.75 1-9.95s-5.55-6.58-4.64-10.36a12.79 12.79 0 0 0 8.8-1.12l-12-15.55c-2.06-2.67-4.1-6.6-1.81-9.07 1.13-1.23 3.3-2.23 2.74-3.81A2.85 2.85 0 0 0 134 308l-8.9-4.17 2.19-3.8a60.68 60.68 0 0 0-22.21-1.6c.08-1.16.16-2.32.25-3.48L77 307.16a9.35 9.35 0 0 0 1.38-5.72c-3.93 0-6.88 3.41-9.46 6.37s-6.19 6-10 5a22.78 22.78 0 0 1 3.16-7.84L48 301.63c2.37-.23 3.49-3.27 2.86-5.57s-2.33-4.1-3.54-6.15-1.86-4.83-.38-6.7c.64-.81 1.63-1.36 2-2.32.47-1.16-.12-2.47-.7-3.58q-4.66-8.88-10-17.34c3.28 1.59 7-2.58 6.41-6.19s-3.56-6.26-6.37-8.59c-1.86-1.55-3.86-3.35-4.09-5.75s2.71-4.9 4.58-3.38c-4.62-5.44-12.24-7.57-19.37-7.22s-14 2.85-20.66 5.32l47.9 94.28 62.28-8.77 29.36 58 29.86-4L189 348.3z" fill="#f4e04e"/><path d="M184.59 344.54c-4.36 8.15-8.79 16.62-16 22.35s-18.21 7.91-25.67 2.46c-4.61-3.37-7-8.91-9-14.26a196.5 196.5 0 0 1-6.15-19.53c-1.6-6.18-2.92-12.52-5.87-18.19s-7.85-10.71-14.09-12.09c-9.18-2-17.91 4.06-26.06 8.76-6 3.42-12.4 6.27-19.24 6.82s-14.15-1.51-18.74-6.61c-5.45-6.06-6.11-14.88-6.88-23s-1.93-16.17-3.47-24.16C32.29 261.55 31 256 28.22 251c-5.65-10-16.8-15.7-28.22-17.62v27.38c6.28 3.37 10.17 10.1 12.69 16.83a76.09 76.09 0 0 1 4.79 27.74c-.1 6.28-1 12.68.54 18.78a25.09 25.09 0 0 0 19.77 18.25c11.15 1.85 21.93-4 32.1-9s22.35-9.08 32.45-4c9.14 4.61 13.34 15.22 16.13 25.07s5.32 20.55 13 27.33c8.77 7.74 22.45 8 33 2.91s19-15.25 24.51-25.55a.75.75 0 0 1 .02-.12v-21.55c-1.27 2.17-3.24 4.89-4.41 7.09z" fill="#5db2a5"/><path d="M189 354.76a74.48 74.48 0 0 1-10.37 15.35 39.46 39.46 0 0 1-36.37 12.17c-4.52-.88-8.55-2.54-11.78-5.92a34.47 34.47 0 0 1-6.41-10.45c-3.7-8.69-5.59-18.06-9.48-26.67a32.71 32.71 0 0 0-6.94-10.48 44.61 44.61 0 0 0-6.56-5.06 15.82 15.82 0 0 0-7.64-2.7A38.41 38.41 0 0 0 83 322.12a66.93 66.93 0 0 0-9.85 3.09c-5.51 2.17-10.77 4.89-16.25 7.12-7.59 3.1-17.61 6.48-25.4 2.19-8.44-4.65-8.64-15.66-9.92-24-1.21-7.98-2.58-16.24-6.08-23.52a75.77 75.77 0 0 1 2 18.37c-.1 6.28-1 12.68.54 18.78a25.09 25.09 0 0 0 19.77 18.25c11.15 1.85 21.93-4 32.1-9s22.35-9.08 32.45-4c9.14 4.61 13.34 15.22 16.13 25.07s5.32 20.55 13 27.33c8.77 7.74 22.45 8 33 2.91s19-15.25 24.51-25.55a.75.75 0 0 1 0-.16zM19.78 254.06c3 5.27 3.07 10.93.09 12.65S12 265.55 9 260.29s7.74-11.49 10.78-6.23z" fill="#30877a"/><circle cx="3.98" cy="242.2" r="2.8"/><path fill="#f4e04e" d="M175.11 283.34l-18.63 18.35h6.08l-6.83 14.02 18.62-18.35h-6.07l6.83-14.02z"/><path fill="#c4d9e8" d="M80.84 295.27l-5.72-25.51-3.21 5.15-8.28-13.21 5.71 25.51 3.21-5.15 8.29 13.21z"/><path d="M211 143.35h-1v24h1a.68.68 0 0 0 .66-.65V144a.68.68 0 0 0-.66-.65zM9 67.08L19.77 44a.73.73 0 0 1 .59-.38h.34a.73.73 0 0 1 .59.38L32 67.08a.61.61 0 0 1-.59.89h-3.78c-.61 0-.89-.21-1.2-.86L25.2 64.4h-9.34l-1.23 2.75a1.28 1.28 0 0 1-1.24.82H9.62a.61.61 0 0 1-.62-.89zm14.11-7.35l-2.61-5.66-2.58 5.66zM36.18 44.22a.65.65 0 0 1 .65-.62h.86l13.69 13.18V44.6a.65.65 0 0 1 .65-.65h4.12a.68.68 0 0 1 .65.65v23.1a.64.64 0 0 1-.65.61h-.55a1 1 0 0 1-.45-.17L41.64 54.52v12.8A.65.65 0 0 1 41 68h-4.13a.68.68 0 0 1-.65-.65zM64.12 44.6a.65.65 0 0 1 .62-.65h8.37a12 12 0 1 1 0 24h-8.37a.65.65 0 0 1-.62-.65zm8.65 18.29a7 7 0 0 0 0-13.9h-3.29v13.9zM99.34 44.6a.68.68 0 0 1 .66-.6h4.22a.65.65 0 0 1 .65.65V58.5a4.26 4.26 0 1 0 8.51 0V44.6a.66.66 0 0 1 .62-.6h4.22a.68.68 0 0 1 .65.65v14.12a9.78 9.78 0 0 1-19.56 0zM125.8 44.6a.68.68 0 0 1 .65-.65h4.12a.68.68 0 0 1 .65.65v22.72a.68.68 0 0 1-.65.65h-4.12a.68.68 0 0 1-.65-.65zM142.89 44.39a.68.68 0 0 1 .62-.44h3.36a.62.62 0 0 1 .62.86l-6.69 22.71a.72.72 0 0 1-.62.45h-3.4a.63.63 0 0 1-.61-.86zM152.09 44.6a.68.68 0 0 1 .65-.65H157a.66.66 0 0 1 .65.65v13.9a4.26 4.26 0 1 0 8.51 0V44.6a.65.65 0 0 1 .65-.65H171a.68.68 0 0 1 .65.65v14.17a9.78 9.78 0 0 1-19.56 0zM183.53 55.65l-6.93-10.74a.62.62 0 0 1 .58-1h5a.73.73 0 0 1 .55.31l3.95 6.38 4-6.38a.68.68 0 0 1 .55-.31h5c.58 0 .89.51.58 1l-7 10.74L197.12 67a.6.6 0 0 1-.55 1h-4.77a.77.77 0 0 1-.58-.31l-4.5-6.93h-.06l-4.4 6.93a.74.74 0 0 1-.58.31h-4.77c-.58 0-.89-.51-.58-1zM1.26 116.39L12 93.3a.68.68 0 0 1 .58-.38h.34a.71.71 0 0 1 .59.38l10.74 23.09a.61.61 0 0 1-.58.89h-3.81c-.62 0-.9-.2-1.2-.85l-1.24-2.72H8.08l-1.23 2.75a1.28 1.28 0 0 1-1.24.82H1.84a.6.6 0 0 1-.58-.89zm14.1-7.34l-2.61-5.66-2.58 5.66zM28.41 93.54a.64.64 0 0 1 .65-.62h.86l13.69 13.18V93.91a.66.66 0 0 1 .65-.65h4.12a.68.68 0 0 1 .65.65V117a.65.65 0 0 1-.65.62h-.55a1.12 1.12 0 0 1-.44-.17l-13.53-13.62v12.8a.66.66 0 0 1-.66.65h-4.11a.68.68 0 0 1-.65-.65zM56.34 93.91a.65.65 0 0 1 .62-.65h8.38a12 12 0 1 1 0 24H57a.65.65 0 0 1-.62-.65zM65 112.2a6.95 6.95 0 0 0 0-13.89h-3.3v13.89zM89.78 94.09a.6.6 0 0 1 .61-.83h4a.71.71 0 0 1 .62.48l3 11.64h.14l5.31-12.08a.66.66 0 0 1 .59-.38h.61a.59.59 0 0 1 .59.38l5.32 12.08h.13l3-11.64a.69.69 0 0 1 .61-.48h4a.6.6 0 0 1 .62.83l-6.49 23.06a.66.66 0 0 1-.62.48h-.55a.68.68 0 0 1-.58-.38l-6.28-14h-.1l-6.25 14a.68.68 0 0 1-.58.38h-.55a.66.66 0 0 1-.62-.48zM123.93 93.91a.65.65 0 0 1 .65-.65h14.21a.65.65 0 0 1 .65.65v3.74a.65.65 0 0 1-.65.66h-9.51v4.25h7.83a.68.68 0 0 1 .65.65V107a.66.66 0 0 1-.65.66h-7.83v4.63h9.51a.65.65 0 0 1 .65.65v3.74a.65.65 0 0 1-.65.65h-14.21a.65.65 0 0 1-.65-.65zM145.41 93.91a.68.68 0 0 1 .66-.65h4.11a.68.68 0 0 1 .66.65v22.72a.68.68 0 0 1-.66.65h-4.11a.68.68 0 0 1-.66-.65zM158.11 93.91a.66.66 0 0 1 .66-.65H169a7.33 7.33 0 0 1 2.4 14.31l4.7 8.72a.65.65 0 0 1-.58 1H171a.64.64 0 0 1-.55-.31l-4.56-9.09h-2.39v8.75a.68.68 0 0 1-.65.65h-4.08a.66.66 0 0 1-.66-.65zm10.47 9.61a2.75 2.75 0 0 0 2.61-2.74 2.63 2.63 0 0 0-2.61-2.61h-5.08v5.35zM182.48 93.91a.65.65 0 0 1 .62-.65h8.37a12 12 0 1 1 0 24h-8.37a.65.65 0 0 1-.62-.65zm8.65 18.29a6.95 6.95 0 0 0 0-13.89h-3.29v13.89zM5.57 143.55a.65.65 0 0 1 .61-.55h.55a.76.76 0 0 1 .59.35l8 14.82h.07l8-14.82a.75.75 0 0 1 .58-.35h.55a.65.65 0 0 1 .62.55l3.88 23.06a.63.63 0 0 1-.65.76h-4.13a.71.71 0 0 1-.66-.55L22 156.22l-5.76 11.12a.84.84 0 0 1-.59.37H15a.75.75 0 0 1-.58-.37l-5.8-11.12h-.07L7 166.82a.66.66 0 0 1-.65.55h-4a.63.63 0 0 1-.65-.76zM34.71 144a.65.65 0 0 1 .65-.65h14.21a.65.65 0 0 1 .65.65v3.74a.65.65 0 0 1-.65.65h-9.51v4.26h7.83a.68.68 0 0 1 .65.65v3.7a.65.65 0 0 1-.65.65h-7.83v4.63h9.51a.65.65 0 0 1 .65.66v3.74a.65.65 0 0 1-.65.65H35.36a.65.65 0 0 1-.65-.65zM56.19 144a.65.65 0 0 1 .62-.65h8.38a12 12 0 1 1 0 24h-8.38a.65.65 0 0 1-.62-.65zm8.65 18.29a7 7 0 0 0 0-13.9h-3.29v13.9zM82.79 144a.68.68 0 0 1 .66-.65h4.12a.68.68 0 0 1 .65.65v22.72a.68.68 0 0 1-.65.65h-4.12a.68.68 0 0 1-.66-.65zM95.15 144a.68.68 0 0 1 .65-.65h4.2a.66.66 0 0 1 .66.65v13.9a4.26 4.26 0 1 0 8.51 0V144a.65.65 0 0 1 .65-.65h4.22a.68.68 0 0 1 .65.65v14.17a9.78 9.78 0 0 1-19.56 0zM124 143.55a.67.67 0 0 1 .62-.55h.55a.75.75 0 0 1 .58.35l8 14.82h.07l8-14.82a.78.78 0 0 1 .59-.35h.55a.65.65 0 0 1 .61.55l3.88 23.06a.63.63 0 0 1-.65.76h-4a.69.69 0 0 1-.65-.55l-1.55-10.6h-.06l-5.77 11.12a.8.8 0 0 1-.58.37h-.62a.74.74 0 0 1-.58-.37L127 156.22l-1.51 10.6a.67.67 0 0 1-.65.55h-4a.64.64 0 0 1-.66-.76zM151.92 156.05a2.72 2.72 0 0 1 2.71-2.75 2.75 2.75 0 0 1 2.75 2.75 2.73 2.73 0 0 1-2.75 2.71 2.69 2.69 0 0 1-2.71-2.71zm2.71 6.21a2.73 2.73 0 1 1 0 5.45 2.73 2.73 0 0 1 0-5.45zM175.47 148.39h-4.91a.65.65 0 0 1-.65-.65V144a.65.65 0 0 1 .65-.65h15.24a.66.66 0 0 1 .65.65v3.74a.66.66 0 0 1-.65.65h-4.91v18.33a.68.68 0 0 1-.65.65h-4.12a.68.68 0 0 1-.65-.65zM210 143.35h-2.89a.65.65 0 0 0-.65.65v8.65h-9.82V144a.65.65 0 0 0-.65-.65h-4.08a.68.68 0 0 0-.65.65v22.72a.68.68 0 0 0 .65.65H196a.65.65 0 0 0 .65-.65v-9h9.82v9a.65.65 0 0 0 .65.65H210z" fill="#f4e04e"/><path d="M-3.08 232.94c-5.45-.59-11.26-.37-15.95 2.46s-8.49 4.53-6.4 9.59c.28.69 9.66 5.67 10.28 6.72a4 4 0 0 1 0 3.45c-.87 2.32-7.41 2.42-8.76 4.48-.86 1.31-1 3.9-.18 4.11 4.4 1.11 19.15-5.35 23.25-3.42l.84.43v-27.38c-1-.17-2.06-.33-3.08-.44z" fill="#5db2a5"/><path d="M-9.38 375.63a19.72 19.72 0 0 0-18.36 12.54 22.9 22.9 0 0 0-14.7-5.32 23 23 0 0 0-22.78 19.91A14 14 0 0 0-72 401a14.09 14.09 0 0 0-13.7 10.84 7.85 7.85 0 0 0-2.67-.48 7.83 7.83 0 0 0-7.83 7.82 7.84 7.84 0 0 0 7.83 7.82 7.77 7.77 0 0 0 5.81-2.61A14.06 14.06 0 0 0-72 429.18a14 14 0 0 0 11.9-6.58l2.08.14a22.88 22.88 0 0 0 15.59 6.1 22.84 22.84 0 0 0 13.13-4.12l29.31 2V378a19.64 19.64 0 0 0-9.39-2.37z" fill="#fdfeff"/><path d="M0 411.45a8.52 8.52 0 0 0-7.14-3.88 8.52 8.52 0 0 0-7.27 4.1 11.09 11.09 0 0 0-10.94-9.24 11.1 11.1 0 0 0-11.11 11.1c0 .32 0 .63.05.94h-.28a4.27 4.27 0 0 0-4.31 4.25 4.28 4.28 0 0 0 4.31 4.28 4.27 4.27 0 0 0 3.4-1.71 11 11 0 0 0 7.94 3.35 11 11 0 0 0 6.71-2.27 4.24 4.24 0 0 0 2.2.63 4.27 4.27 0 0 0 3-1.21 8.5 8.5 0 0 0 6.33 2.82A8.51 8.51 0 0 0 0 420.74z" fill="#c4d9e8"/><path d="M148.34 415a6 6 0 0 0-3 .82 9.67 9.67 0 0 0-14.65-4.55 15.29 15.29 0 0 0-28.79.41 10.83 10.83 0 0 0-5.4-1.44 11 11 0 0 0-3.31.51 13.78 13.78 0 0 0-12.39-13.62 20 20 0 0 0 1.63-7.94 20.23 20.23 0 0 0-39.52-6.1 11.48 11.48 0 0 0-20.63 2.47 13.74 13.74 0 0 0-14.72-.28A19.82 19.82 0 0 0 0 378v47.4l74 3.47 1-5a14 14 0 0 0 4.36.71 13.68 13.68 0 0 0 6.39-1.58 10.88 10.88 0 0 0 19.64 4.29 15.29 15.29 0 0 0 23.45-1.88 9.68 9.68 0 0 0 15-.24 6.12 6.12 0 1 0 4.5-10.17z" fill="#fdfeff"/><path d="M74.5 417.11a4.61 4.61 0 0 0-3.67 1.83 8 8 0 0 0-12.12-2.11 4.61 4.61 0 0 0-9-1.17 7.25 7.25 0 0 0-5.13-2.13h-.52a8.5 8.5 0 0 0-12.41-6.63 12.07 12.07 0 0 0-23.35 3.48 10.09 10.09 0 0 0-8.32 1v17.32a10.1 10.1 0 0 0 14.76-5.23l19.18-.66a8.37 8.37 0 0 0 1.67.17 8.24 8.24 0 0 0 2-.25 7.26 7.26 0 0 0 14.12-.53l4.14-.15a7.57 7.57 0 0 0-.06.95 8.07 8.07 0 0 0 15.8 2.32 4.57 4.57 0 0 0 2.89 1 4.63 4.63 0 0 0 0-9.26z" fill="#c4d9e8"/></svg>