<?xml version="1.0" encoding="utf-8"?>
<!-- Generator: Adobe Illustrator 18.1.1, SVG Export Plug-In . SVG Version: 6.00 Build 0)  -->
<svg version="1.1" id="Layer_1" xmlns="http://www.w3.org/2000/svg" xmlns:xlink="http://www.w3.org/1999/xlink" x="0px" y="0px"
	 viewBox="15.4 226.5 1169.3 396.8" enable-background="new 15.4 226.5 1169.3 396.8" xml:space="preserve">
<g id="Layer_4">
</g>
<g id="Layer_1_1_">
</g>
<g id="Layer_5" display="none">
</g>
<g id="lettering">
	<g>
		<g>
			<path fill="#FFFFFF" stroke="#FFFFFF" stroke-width="1.8526" stroke-miterlimit="10" d="M598.4,516.3c-1.1,1.7-2.2,3.3-3.2,5.2
				c-5.4,10.6-10.9,21.2-14.2,32.7c-3,10.7-5.7,21.5-8.1,32.4c-0.9,3.9-0.8,8.2-0.9,12.3c-0.2,4.1,0,8.2,0,12.5
				c0,2.2-1.3,3.3-3.3,2.7c-1.9-0.8-3.8-2.1-5.5-3.3c-3.3-2.2-5.1-5.1-4.9-9.5c0.3-10.3,0.2-20.7,0.3-30.9c0-2.2,0-4.4,0-7.6
				c-1.1,1.4-1.7,2.1-2.1,2.8c-6,12.9-12,25.9-17.8,38.8c-1.7,3.8-3.2,7.6-4.9,11.4c-1.3,3-2.1,3.6-5.2,3.6c-1.3,0-2.7-0.2-3.6-0.6
				c-6.9-4.3-13.3-8.8-15.2-18c-2.4-10.7-3.3-21.3-3.5-32.2c0-1.6-0.2-3-0.9-4.7c-0.6,1.6-1.3,3.2-1.9,4.6c-3.3,6.9-6.5,14.1-9.9,21
				c-2.7,5.4-6.6,9.6-11.7,12.6c-3.5,2.1-7.1,3.6-11.1,2.5c-6.9-2.1-12.9-5.8-14.5-13.7c-0.8-3.8-1.4-7.6-1.4-11.4
				c-0.2-6.9,0-14.1,0.2-21c0.2-7.6,0.6-15.3,0.9-22.9c0-0.9-0.2-1.9-0.2-3.3c-9.5-0.3-18.6,1.3-28.1,0.9c2.1,6.8,3.6,13.4,3.3,20.1
				c-0.2,6.3-0.6,12.8-1.3,19.1c-0.8,9.8-2.4,19.6-5.2,29.1c-0.9,3.3-2.2,6.6-3.8,9.8c-2.2,4.4-6.5,5.5-11.1,3.8
				c-9.5-3.5-13.4-11.5-16.9-20.2c-0.9-2.5-1.9-5.2-3.3-8.5c-3.5,8.4-6.5,15.8-9.5,23.2c-1.3,3-2.5,6.2-3.9,9.2
				c-1.7,3.5-4.1,4.6-7.7,3.2c-6.2-2.4-11.1-6.2-12.5-13.4c-1.9-11.1-3.3-22.1-2.7-33.2c0.8-15.5,1.7-31.1,2.7-46.4
				c6.9-3.2,14.1,0.8,14.1,8.1c0,9.2-0.6,18.5-1.1,27.6c-0.6,11.7-1.6,23.2-0.2,34.7c0,0.6,0.2,1.1,0.5,2.8
				c8.5-16.7,13.3-33.3,13.7-51.6c2.2-0.3,4.1-0.8,6-0.6c5.4,0.3,6.3,0.2,6.8,6.8c0.8,11.5,3.6,22.6,6,33.8c1.3,6.2,4.1,12,7.4,17.4
				c0.2,0.3,0.8,0.5,1.6,1.1c0.9-2.1,2.1-3.9,2.7-6c2.7-9.5,5.1-18.9,5.8-28.9c0.6-8.7,1.3-17.4,2.1-26.1c0.6-6.5-1.3-12.3-3.6-17.8
				c0.9-1.9,2.5-1.6,3.8-1.6c7.9,0.6,15.8-0.3,23.7-1.1c4.4-0.5,9-0.8,13.4-0.8c2.2,0,4.3,0.3,6.5,0.9c3.3,0.9,3.6,1.4,3.6,5.1
				c-0.2,8.7-0.5,17.5-0.6,26.2c-0.3,8.7-0.9,17.5-0.9,26.2c0,4.1,0.9,8.2,1.7,12.2c0.2,1.1,1.3,2.1,1.9,3c5.5-1.4,9.6-4.6,12.5-9.2
				c6.5-10.3,12.5-21,16.3-32.7c1.7-5.4,3.5-10.9,5.2-16.3c1.6-5.4,1.9-17.8,0.5-23.8c-11.5,0.5-23.1,3-34.6-0.5
				c5.5-2.5,11.5-2.4,17.2-3.2c5.7-0.8,11.4-1.6,17.5-2.4c0-1.9,0-3.3,0-4.9c0.3-11.1,0.3-21.9,0.9-33c0.2-3.9,1.6-7.7,2.7-11.5
				c0.8-2.5,1.7-2.8,4.3-2.4c2.8,0.5,4.7,2.2,5.4,5.2c1.6,7.6,1.4,15.2,1.1,22.9c-0.3,5.2-0.6,10.4-0.8,15.8c0,2.1,0.3,4.1,0.5,6
				c3.8,0,7.3,0,10.6,0c1.9,0,3.2-0.9,3.9-2.7c3.2,0.8,6.2,1.3,9.2,2.2c1.1,0.3,1.9,1.4,3,2.2c-1.4,2.2-3.3,2.5-5.2,2.7
				c-4.6,0.5-9.3,0.6-13.9,1.1c-2.4,0.2-4.6,0.5-7.1,0.6c-0.2,1.4-0.3,2.7-0.3,3.9c0.3,13.4,0.6,26.7,0.9,40.1
				c0.3,9,0.3,18.2,0.9,27.2c0.5,6.3,1.7,12.6,2.7,18.8c0.3,1.6,0.9,3,1.6,5.2c0.9-1.4,1.6-2.2,2.2-3c8.1-13.7,16.3-27.5,23.1-42
				c3-6.6,5.4-13.6,7.9-20.4c0.5-1.1,0.5-2.5,0.5-3.8c-0.2-10.1,0.8-20.1,1.6-30c0.8-9.6,0.6-19.4,1.3-29.1
				c0.6-7.7,1.9-15.5,2.8-23.2c0.2-1.1,0.8-2.1,1.3-3.2c1.9-3.9,5.8-4.9,9.2-2.2c2.4,1.7,3.6,4.3,4.4,7.1c1.4,6,1.7,12.2,1.6,18.5
				c-0.3,11.5-2.7,22.7-6,33.6c-1.9,6.3-1.9,12.9-2.4,19.4c-0.3,4.4-0.3,8.8-0.3,13.4c0,0.9,0.3,1.7,0.8,3.6
				c1.9-4.1,3.5-7.4,5.1-10.6c3.9-8.1,7.9-16.1,12-24.2c1.1-2.1,2.4-4.1,3.8-6c3-3.9,8.4-3.5,10.9,0.8c1.3,2.2,2.2,4.6,3,6.9
				c3.5,10.1,5.4,20.5,6.2,31.3c0.8,11.5,1.9,23.2,2.8,34.7c0.2,2.2,0.6,4.4,1.3,7.3c0.6-1.3,1.1-1.9,1.4-2.7
				c4.4-14.8,10.7-28.9,17.8-42.5c1.6-3,2.7-6.5,3.5-9.8c2.1-8.1,5.2-15.6,10.4-22.3c1.3-1.6,2.4-3.3,3.5-5.1c0.9-1.4,1.7-3,3.8-3.2
				c0.6-0.2,1.4-0.8,1.7-1.3c1.3-3,3.8-2.8,6-2.5c11.2,2.2,22.1,5.4,28.7,16.4c0.5,0.8,1.1,1.6,1.6,2.4c0.8,1.3,1.9,1.6,3.2,1.1
				c4.9-1.6,9.8-3,14.4-5.2c2.7-1.3,4.9-3.8,8.1-6.5c0.6,0.2,2.2,0.3,3.9,0.6c4.3,1.1,6.8,4.4,6.8,9c0.3,17.7,0.8,35.4,1.3,53.1
				c0.2,3.3,0.6,6.5,1.9,9.9c0.5-0.8,0.9-1.4,1.3-2.2c4.6-11.5,8.8-23.2,11.8-35.2c1.6-6.5,3.9-12.8,5.5-19.3
				c1.4-5.7,2.2-11.5,3.5-17.2c0.2-0.6,0.2-1.3,0.3-1.9c2.4-0.5,4.4-0.3,6.5,0.5c2.2,0.8,3.6,2.4,3.8,4.9c0.2,1.7,0.5,3.5,0.3,5.2
				c-0.6,9.2,0.5,18.2,1.1,27.2c0.5,8.2,0.5,16.6,1.1,24.8c0.3,4.9,0.8,9.8,3.5,14.2c1.7,2.8,2.8,3.2,5.7,1.7c2.5-1.3,4.7-3,6.2-5.7
				c1.3-2.4,2.5-4.7,3.3-7.4c3.2-10.6,6.2-21.3,9.2-32.1c0.6-2.1,0.9-4.1,1.1-6.2c0.6-9.9,1.1-20.1,1.7-30.2
				c-1.1-0.2-1.9-0.6-2.8-0.6c-7.7,0.3-15.5,0.8-23.2,1.3c-3.6,0.2-6.9-0.8-11.1-2.7c1.6-0.6,2.5-1.1,3.5-1.1
				c6.8-0.6,13.6-1.1,20.4-1.7c4.3-0.3,8.5-0.8,13.3-1.3c0.9-13.9-0.3-27.5,0.6-41.1c5.4,0,9,2.1,10.1,6.6c0.9,4.1,1.1,8.5,1.4,12.8
				c0.3,6,0.3,12.2,0.6,18.2c0,0.6,0.3,1.3,0.5,2.1c1.3,0.2,2.4,0.3,3.6,0.3c9.6,0.5,19.3,0.8,28.9,1.3c1.6,0,3,0.6,4.4,1.1
				c0.6,0.2,0.9,0.9,1.6,1.9c-2.8,2.1-5.8,1.7-8.7,1.7c-8.4-0.2-16.7-0.3-25.1-0.5c-1.6,0-3,0.3-4.7,0.5c-0.2,1.7-0.6,3-0.6,4.4
				c-0.3,14.7-1.1,29.4-0.9,43.9c0.2,14.2,2.2,28.3,7.4,41.5c2.2,5.4,5.2,10.1,9.3,14.1c3,2.8,6.3,3.6,10.3,2.5
				c6.5-1.7,11.5-5.4,15.5-10.7c0.8-1.1,1.7-2.2,2.8-3.8c0.6,1.3,1.3,2.1,1.3,2.8c0.9,10.3-4.7,18.6-15.2,19.4
				c-6.5,0.5-12.3-1.4-17.5-5.4c-11.7-8.7-19.7-20.1-22.7-34.9c-1.1-5.5-2.4-11.2-3.6-17.2c-0.5,1.1-0.9,2.1-1.3,3.2
				c-1.6,5.2-3,10.4-4.7,15.5c-0.6,1.7-1.4,3.5-2.4,5.2c-4.1,7.4-12.5,9.5-19.6,5.1c-5.4-3.3-9.8-7.4-11.7-13.6
				c-0.8-2.4-1.3-4.9-1.6-7.4c-0.5-4.6-0.8-9.2-1.3-13.7c-0.2-2.1-0.5-4.1-1.4-6.2c-0.2,0.8-0.3,1.6-0.5,2.4
				c-1.3,6-2.4,12.2-4.1,18.2c-1.9,7.1-4.3,13.9-6.6,20.8c-0.8,2.2-1.7,4.4-3,6.5c-1.9,3-4.4,3.8-7.3,2.1
				c-5.8-3.6-11.7-7.6-13.1-15.2c-0.9-4.9-2.1-9.6-2.2-14.5c-0.6-13.4-0.6-26.7-0.9-40.1c0-0.8,0-1.6-0.2-3c-3.2,0.9-6,1.9-8.8,2.7
				c-3,0.8-6,1.4-9.5,2.2c5.1,9.3,2.8,19.4,4.4,28.9c1.9,11.2-1.4,20.8-7.1,30.3c-4.7,7.9-11.1,13.3-18.9,16.9
				c-5.1,2.2-10.3,3.9-15.8,2.1c-0.8-0.3-1.4-0.5-2.2-0.9c-8.2-4.9-15.5-10.7-18.6-20.4c-2.1-6.3-3.5-12.8-5.2-19.4
				c-2.4,2.8-3.6,6.5-4.9,10.1c-1.9,5.7-3.5,11.5-5.2,17.4c-0.3,0.9-0.5,1.9-0.6,2.8c-1.9,5.7-5.8,7.1-10.9,4.3
				c-5.2-2.8-8.2-7.1-8.8-13.1c-0.8-6.8-1.6-13.6-2.2-20.4c-1.1-12-1.9-24.2-3-36.2c-0.5-4.7-1.4-9.3-2.8-13.9
				C599.2,516.4,598.7,516.4,598.4,516.3z M574.3,463.7c0,8.5,0,16.3,0,24.6C576,479.9,576.2,469.4,574.3,463.7z"/>
			<path fill="#FFFFFF" stroke="#FFFFFF" stroke-width="1.8526" stroke-miterlimit="10" d="M444,491c4.6-1.6,8.4-1.6,12.5,1.4
				c-1.1,0.9-1.7,1.9-2.5,1.9C450.5,494.5,447.5,492.9,444,491z"/>
		</g>
		<path fill="#FFFFFF" stroke="#FFFFFF" stroke-width="0.7651" stroke-miterlimit="10" d="M65.8,356c-0.5,1.3-0.6,1.7-0.8,2.2
			c-0.9,11.4-1.6,22.7-2.7,34.3c-0.8,8.2-2.2,16.4-4.7,24.5c-1.3,4.3-3.8,5.2-8.7,4.4c-3.8-0.6-5.5-2.4-6.9-5.4
			c-3.6-8.2-6.3-16.4-8.5-24.9c-2.5-10.3-4.1-20.7-5.5-31.1c-1.1-8.4-2.5-16.4-4.3-24.3c-1.7-8.4-3.9-16.6-6-24.9
			c-0.3-1.4-1.1-2.7-1.7-4.1c6.2-2.5,11.2-1.1,13.1,4.1c2.4,6.3,4.3,12.8,6,19.3c1.7,6.8,3.2,13.6,4.4,20.4
			c1.7,9.3,2.8,18.6,4.6,27.9c0.9,5.5,2.7,10.9,4.1,16.3c0.2,0.6,0.8,1.3,1.4,2.1c3.8-24.2,3.2-48.5,7.4-72.8
			c2.8-0.5,5.7-1.3,8.5-1.6c2.7-0.3,3.5,0.3,4.3,2.5c2.5,7.6,5.2,15.2,7.3,22.9c2.1,7.7,3.2,15.8,5.1,23.7
			c2.2,9.5,4.9,18.9,7.3,28.4c0.3,0.9,0.5,2.1,2.4,2.1c1.3-9.5,1.7-18.9,1.9-28.3c0.2-9.5,2.2-18.9,1.1-28.9
			c2.5-0.8,5.4-1.9,8.2-2.5c1.6-0.5,3,0.2,3.9,1.6c0.6,0.9,1.6,1.9,2.8,3.5c0.5-1.4,0.8-2.1,0.8-2.7c0.8-5.4,1.4-10.7,2.4-16.1
			c1.4-7.7,5.1-14.7,8.5-22.1c4.6-0.2,9.3-0.6,14.1-0.3c6.6,0.5,10.1,4.6,12.6,9.6c3,6.6,0.6,12.8-2.1,18.6
			c-1.7,3.8-4.1,7.3-6.8,10.6c-3.9,5.2-9,9.2-17.2,9.8c-0.2,2.2-0.3,4.3-0.2,6.3c0.2,5.4,0,10.9,2.1,16.1
			c3.8,9.8,9.9,17.8,20.4,23.1c2.1,1.1,4.4,1.7,6.8,2.4c3.8,0.9,7.3,0,10.4-2.2c6-4.4,11.1-9.5,15.6-15c2.4-2.7,4.3-5.7,5.1-9
			c0.3-1.3,1.1-2.5,1.7-3.9c1.7,1.7,3.3,3.3,4.6,4.9c1.6,1.7,0.8,3.8-0.3,5.4c-2.1,3.2-4.1,6.3-6.6,9c-3.9,4.3-8.1,8.2-13.6,10.9
			c-9,4.4-18.2,4.6-27.9,1.7c-7.1-2.1-12.5-6.2-17.7-10.4c-6.2-5.1-8.4-11.8-10.3-18.6c-1.7-6-2.2-12-2.2-18.2c0-0.9,0-2.1-0.2-3
			c-0.2-1.3-0.9-2.1-3.2-1.6c-0.3,2.7-0.6,5.5-0.8,8.5c-0.6,8.2-1.3,16.4-1.9,24.6c-0.3,3.5-0.5,6.9-0.6,10.6
			c-0.3,6.5-2.7,12.5-6.5,17.8c-2.8,3.9-6.8,4.9-11.2,2.8c-1.3-0.5-2.2-1.9-2.7-3.2c-2.2-5.5-4.7-11.1-6.5-16.7
			c-2.8-9.9-5.1-20.1-7.6-30.2c-0.6-2.7-1.3-5.4-1.9-7.9C66.9,358.1,66.5,357.4,65.8,356z M123.2,349.5c1.6-1.4,2.7-2.2,3.6-3.3
			c3.9-4.9,7.3-10.1,9.8-15.6c2.7-6.2,2.7-12.2-0.9-18c-0.6-1.1-1.1-2.4-3-2.2C126.8,318.7,121.7,339.1,123.2,349.5z"/>
		<path fill="#FFFFFF" d="M430.1,398.9c3.5-1.7,4.9-5.5,7.7-8.4c0.6,0.3,1.4,0.5,1.6,0.9c2.1,3.9,2.1,6.9-0.3,9.9
			c-0.8,0.9-1.4,1.9-2.4,2.7c-1.4,1.3-3,2.1-5.1,2.2c-4.1,0.3-8.2-0.6-12-2.1c-2.2-0.9-3.9-2.7-5.1-4.9c-1.7-3.8-3.6-7.7-5.2-11.7
			c-1.1-2.8-1.9-5.8-2.5-8.8c-0.9-5.5-2.8-10.7-3.9-16.3c-0.9-5.2-2.5-10.1-3.5-15.3c-0.9-5.1-2.4-9.9-3.6-14.8
			c-0.2-0.9-1.1-1.1-2.2-0.8c-1.1,1.9-2.4,3.9-1.7,6.5c-1.6,4.1-1.1,8.7-2.8,12.9c-0.2,0.5-0.3,0.9-0.3,1.4c0,3.2-0.8,6.5-0.8,9.6
			c-0.2,5.2-0.3,10.4,0.2,15.6c0.2,1.4-0.6,3.2-0.3,4.6c0.8,3.3,0.6,6.8,0.9,10.1c0.3,2.4,0.3,4.7,0.3,7.1s-1.6,3.8-3.9,3.2
			c-2.5-0.5-4.9-1.3-7.4-1.9c-1.7-0.5-2.5-1.7-2.8-3.3c-0.5-1.7-0.6-3.6-1.1-5.4c-1.4-5.4-2.8-10.9-3.5-16.4
			c-0.5-3.9-1.7-7.7-2.5-11.7c-0.3,0.2-0.8,0.3-0.9,0.5c-0.5,1.6-1.1,3.3-1.1,4.9c0.2,5.5-2.4,10.3-4.1,15.2
			c-0.9,2.8-3.3,4.7-6.5,5.1c-5.5,0.5-10.9-0.5-15.9-2.7c-3-1.3-5.4-3.6-6.8-6.6c-1.7-3.2-3.8-6.2-4.7-9.6c-0.3-0.9-1.1-1.6-1.6-2.4
			c-1.3,0-1.9,0.6-2.2,1.4c-0.9,3.3-2.2,6.5-2.7,9.8c-0.6,4.6-2.4,8.8-3.3,13.4c-0.3,1.9-1.4,3.9-2.4,5.5c-1.4,2.2-3.3,3.8-6.3,3.5
			c-2.4-0.3-4.7-0.5-6.9-0.8c-1.7-0.3-3.2-1.1-4.3-2.5c-2.5-3.5-3.9-7.4-5.4-11.5c-1.1-3.3-1.4-6.6-1.7-9.9c0-0.9-0.3-1.7-1.3-1.9
			c-0.9-0.2-1.6,0.5-2.1,1.3c-0.6,1.1-1.1,2.1-1.6,3.2c-1.3,3-2.8,5.8-5.4,8.1c-0.5,0.5-0.9,0.9-1.3,1.6c-2.4,4.1-6.3,6-10.4,7.7
			c-1.4,0.6-2.8,1.1-4.3,1.6c-1.7,0.5-3.5,1.1-5.5,0.3c-0.9-0.3-2.1,0-3,0c-6.8-0.3-12.6-2.5-17.2-7.7c-2.7-3-4.6-6.2-6.2-9.8
			c-1.7-4.3-2.5-8.7-3.5-13.3c-0.9-4.7-1.1-9.5-1.1-14.2c0-1.9,0-3.6,0.3-5.5c0.3-1.6,0.3-3.3,0.2-5.1c-0.2-2.4,0.2-4.7,0.8-6.9
			c0.6-2.1,0.8-4.3,1.3-6.5c0.6-3.3,2.2-6.5,3.5-9.5c1.3-3.3,3.2-6.5,4.6-9.6c1.4-3.3,3.9-5.1,7.4-5.4c3.8-0.3,7.4-0.3,11.2-0.5
			c0.5,0,1.1,0,1.4,0.2c5.5,2.1,10.3,4.9,13.9,9.8c3.9,5.5,6,11.7,8.4,18c0.3,0.8,0.3,1.7,0.3,2.5c0.3,2.4,0,4.6-2.4,5.7
			c-2.4,1.3-4.7,1.6-7.3,0c-1.1-0.6-1.7-1.6-2.2-2.7c-2.1-6.2-5.5-11.7-8.1-17.5c-1.3-3-3.6-4.9-5.2-7.4c-0.5-0.8-2.2-0.8-2.8,0
			c-1.1,1.4-2.4,3-3.2,4.6c-2.5,5.1-5.1,9.9-6.2,15.6c-0.6,3-1.6,5.8-1.4,9c0,0.6,0.2,1.4,0,2.1c-1.3,3.8-0.8,7.7-0.6,11.7
			c0,3.5,0.2,6.8,0.3,10.3c0.2,4.9,1.1,9.8,2.8,14.4c2.1,5.7,4.6,9.9,8.2,13.1c1.1,0.9,2.5,1.7,3.9,2.4c1.6,0.8,3.3,0.6,4.9-0.3
			c2.2-1.3,4.4-2.5,6.5-3.9c3.9-2.8,6.5-6.9,8.7-11.2c2.5-4.7,5.8-15,7.3-20.7c0.3-1.4,0.9-2.8,1.3-4.4c0.8-2.8,1.1-5.7,1.4-8.5
			c0.5-4.7,0.3-9.5,0.5-14.2c0-2.1,0.5-4.1,0.8-6c0.8-5.8,1.4-11.7,3.5-17.4c1.6-4.1,4.1-7.4,7.4-10.1s7.6-2.8,11.7-2.4
			c2.1,0.2,4.1,0.6,6,0.6c4.4,0,8.4,1.9,11.5,4.7c2.7,2.4,4.1,5.8,4.3,9.5c0.2,5.7,0.3,11.2,0.6,16.9c0.5,7.9,0.6,15.8,2.2,23.5
			c1.3,6.6,2.4,13.4,5.2,19.6c1.3,2.5,2.4,5.2,3.9,7.7c0.9,1.6,2.2,3.2,4.1,3.8c1.6-1.1,2.1-2.7,2.5-4.3c1.6-4.6,3-9.3,4.1-14.1
			c0.6-3.2,1.1-6.3,1.4-9.5c0.5-3.9,0.5-8.1,1.3-12c0.3-1.4,0-3,0-4.6c0.3-4.6,0.5-9.2,0.9-13.7c0.2-2.2,0.6-4.3,0.6-6.5
			c0.2-2.1-0.2-4.1-0.2-6.2c0-2.1-0.2-4.1,0-6.2c0.2-3,1.1-3.9,3.9-4.1c1.6-0.2,3-0.2,4.6,0c2.7,0.2,3.8,0.9,4.4,3.3
			c1.3,4.6,2.1,9.2,2.5,13.9c0.3,3.6,0.9,7.4,1.6,11.1c0,0.5,0.3,0.9,0.8,1.3c0.3,0.2,1.1,0.3,1.3,0c0.5-0.5,0.8-1.1,0.9-1.7
			c0.6-2.8,1.3-5.5,2.1-8.4c0.3-1.3,0.5-2.7,0.9-3.9c0.6-1.9,2.1-3.3,2.4-5.5c0.2-1.9,1.6-3.8,2.4-5.5c0.2-0.3,0.5-0.5,0.8-0.9
			c2.7,0.2,5.4-1.7,8.2-0.8c3-0.6,4.7,1.3,6,3.5c0.9,1.6,1.7,3.3,2.2,5.2c1.6,6.3,3.8,12.6,4.7,19.3c0.6,3.8,1.6,7.6,2.5,11.4
			c0.2,0.9,0.6,1.9,0.9,2.8c0.3,0.9,0.8,1.9,0.8,2.8c0.3,4.4,1.7,8.7,2.7,12.9c1.4,7.1,3.9,13.9,6.2,20.8c1.3,3.9,3,7.6,3.9,11.5
			C427.3,397.5,428.5,398.5,430.1,398.9z M320.8,305c-0.3-0.2-0.9-0.6-1.6-0.9c-2.2-1.4-4.3-1.1-5.8,0.9c-1.7,2.4-3.2,4.7-4.9,7.1
			c-3.6,5.1-5.2,11.1-7.1,16.9c-0.9,2.5-1.7,5.4-1.6,7.9c0.2,4.6-0.3,9,0.2,13.6c0.3,3.8,0.8,7.7,1.3,11.5c0.5,4.1,0.9,8.1,1.6,12.2
			c0.3,2.1,1.1,3.9,1.7,5.8c0.3,1.1,0.3,2.8,1.7,2.8c1.7,0.2,1.6-1.9,2.2-3c0.2-0.2,0.2-0.3,0.2-0.5c1.7-6.2,2.5-12.6,4.9-18.6
			c0-1.9,0.8-3.6,1.6-5.2c0.6-1.3,0.8-3,1.1-4.4c0.3-2.1,0.5-4.1,1.1-6c0.6-1.9,0.8-3.6,0.6-5.5c-0.5-4.3,0.6-8.5,0.9-12.6
			c0.5-4.7,0.5-9.5-0.3-14.2c-0.5-2.7-0.2-5.1,2.1-6.8C320.7,305.9,320.7,305.8,320.8,305z"/>
		<path fill="#FFFFFF" d="M468.3,289.2c2.4,0.6,4.6,0.3,6.6,0.2c9-0.2,18-0.5,27-0.5c3.3,0,6.8,0.3,10.1,0.6
			c1.3,0.2,2.7,0.6,3.8,1.1c1.4,0.6,2.1,1.4,1.7,2.1c-0.5,1.1-1.6,1.3-2.5,1.3c-1.9,0-3.6-0.5-5.5-0.5c-5.7,0-11.2,0.2-16.9,0.2
			c-1.9,0-3.8-0.2-5.5-0.2s-3.3,0-5.1,0.2c-3.8,0.3-7.4,0.6-11.1,0.8c-0.8,0-1.6,0.3-2.2,0.3c-1.6,1.4-1.7,3-1.7,4.7
			c0.2,4.6,0.2,9.2,0.3,13.7c0,2.7,0.2,5.2,0.2,7.9c-0.2,2.7,0.3-0.2,0.8,2.5c0.2,1.1,0.3,2.2,0,3.3c-0.2,0.8-0.3,1.7,0,2.4
			c1.1,2.1,0.6,4.3,0.8,6.3c0.2,2.1,0,4.4,0.5,6.3c0.5,2.1-0.2,3.9,0.2,5.8c1.4,8.5,1.1,17.4,3.5,25.7c0.2,3.6,1.4,7.1,2.5,10.4
			c1.4,4.4,4.3,8.2,7.3,11.7c1.3,1.4,3.2,2.5,4.9,3.5c1.4,0.8,3.2,0.5,4.1-0.8c1.3-1.7,3.2-3,3.6-5.4c0.2-0.9,0.9-1.7,1.4-2.5
			c0.3-0.5,1.6-0.3,1.9,0c0.2,0.3,0.5,0.5,0.6,0.8c0.3,1.1,0.9,2.2,0.9,3.3c0.2,6.9-1.6,8.2-8.8,9.5c-6.5-0.6-12.8-1.4-18.5-4.6
			c-7.1-4.1-12-9.9-14.8-17.4c-1.1-2.8-2.1-5.8-2.4-9c-0.3-2.2-0.6-4.6-1.4-6.8c-0.9-2.5-0.9-5.2-1.1-7.7c-0.2-1.6-0.8-3.3-0.8-4.9
			c0.3-4.1-0.8-8.1-0.6-12.2c0.2-3.9-0.3-7.9-0.5-11.8c-0.2-1.9,0-3.9-0.6-5.8c-0.3-0.8-0.2,3.9,0,3.2c0.3-3.2-0.3-6.2-0.3-9.3
			c-0.2-3.3-0.2-6.6-0.3-9.8s-0.2-6.3-0.2-9.3c0-0.5,0-0.9-0.2-1.4c-0.2-0.9-0.8-1.4-1.7-1.6c-0.3,0-0.6-0.2-0.9-0.2
			c-4.1,0.2-8.1-0.2-12.2-0.5c-3.2-0.3-6.5-0.5-9.6-0.8c-3.3-0.5-6.5-1.7-9.8-2.8c-0.3,0-0.5-0.5-0.5-0.8c0-0.2,0.3-0.6,0.5-0.6
			c3.3-0.5,6.8-0.5,10.1,0c2.5,0.3,5.1,1.1,7.6,0.9c2.4-0.2,4.7,0.3,7.1,0.2c2.5-0.2,5.1-0.2,7.6-0.3c1.3,0,2.4-0.9,2.4-2.2
			c-0.2-4.3,1.1-8.4,0-12.6c-0.3-1.1-0.2-2.2,0-3.5c0.2-3.8,0.6-7.7-0.3-11.5c-0.5-1.6-0.3-3.3-0.3-4.9c0-1.3,0.6-1.9,1.7-1.9
			c4.1,0.3,8.1,1.3,11.5,3.5c2.1,1.3,3,2.8,3.2,5.2c0.2,3,0.6,5.8,0.9,8.8c0,0.6,0,1.3-0.2,1.9c0,0.6-0.3,1.4-0.2,1.9
			c1.1,3.9,0.6,8.2,1.3,12.2C468,288.6,468,288.7,468.3,289.2z"/>
		<path fill="#FFFFFF" d="M419.2,293c-2.5-1.4-4.4-3.2-5.5-5.5c-0.3-0.6-0.5-1.3-0.8-1.9c-3.2-5.1-4.4-10.9-5.8-16.6
			c0-0.3,0.2-0.6,0.3-1.3c1.7-0.5,3.3-0.3,5.1,0.6c3.3,1.7,4.6,4.9,5.8,7.9c0.8,1.9,1.3,3.8,1.7,5.8
			C420.8,285.6,421.4,289.1,419.2,293z"/>
		<path fill="#FFFFFF" d="M976.4,580.7c1.9,4.9,4.9,8.8,8.1,12.8c2.4,3,3.6,6.2,4.1,10.4c-1.1-0.2-2.1-0.2-2.8-0.5
			c-3.6-1.7-6.3-4.7-8.7-7.6c-2.7-3.2-5.1-6.3-8.1-9.9c-1.7,1.3-3.6,2.5-5.2,3.8c-4.7,3.8-9.9,7.1-15.6,9.8
			c-6,2.8-12.3,3.5-18.8,1.4c-1.3-0.5-2.5-0.6-3.9-1.1c-3.8-1.1-5.2-2.8-5.5-6.6c-0.6-8.1,1.4-15.6,5.4-22.7
			c3.3-6.2,7.1-12.3,10.7-18.3c1.6-2.7,3.5-5.4,5.5-7.9c1.1-1.4,1.4-2.8,0.6-4.6c-2.5-5.7-3.6-11.7-4.7-17.7
			c-1.6-9.2-1.1-18.2,1.9-26.8c1.1-3,3-6,5.1-8.5c2.5-3,5.7-5.7,8.5-8.5c4.6-4.6,10.4-5.7,16.9-5.4c2.7,0.2,5.4,0.6,8.1,1.3
			c5.5,1.3,8.4,5.1,8.5,10.1c0.5,9-2.5,17.4-6.5,25.4c-4.3,9-11.1,16.7-16.4,25.3c-1.3,2.1-2.7,4.3-4.3,6.2
			c-1.3,1.7-1.7,3.3-0.8,5.4c1.7,3.6,3.3,7.3,5.1,10.9c2.1,4.3,4.4,8.4,6.6,12.5c0.5,0.9,1.3,1.7,2.2,3c4.4-3.5,8.5-6.8,12.8-9.9
			c4.3-3.2,6.9-7.7,12.2-11.1c0.2,1.6,0.5,2.7,0.3,3.6c-0.9,5.7-4.3,10.3-8.7,14.4c-3.6,3.3-7.4,6.3-11.2,9.5
			C977.4,579.4,976.9,580.1,976.4,580.7z M949.4,554.8c-0.8,1.1-1.4,1.9-2.1,2.8c-4.3,7.1-7.9,14.5-11.2,22.1
			c-1.9,4.4-2.8,9.2-2.5,13.9c0,1.3,0.5,2.5,0.8,3.8c6.5-2.1,25.1-14.5,29.7-19.7C959.5,570.3,954.6,562.7,949.4,554.8z
			 M973.7,478.2c-2.4,1.3-4.3,2.1-5.8,3.2c-3,2.4-5.8,4.7-8.4,7.4c-2.1,2.4-4.1,5.1-5.2,7.9c-4.3,10.1-3.5,20.5-1.1,31.6
			c0.9-1.1,1.7-1.9,2.2-2.7c3.6-5.5,7.4-10.9,10.7-16.4c2.2-3.6,4.6-7.4,6-11.4C974.5,491.9,976.1,485.6,973.7,478.2z"/>
		<g>
			<path fill="#FFFFFF" d="M1085.4,468.1c5.4,0.5,9.9,3.6,13.9,7.1c5.4,4.9,11.1,10.1,12.9,17.4c1.6,6,2.8,12,3.3,18.2
				c1.3,18.9-2.1,37.7-4.6,56.4c-1.4,10.7-5.4,20.5-10.3,29.8c-2.5,4.9-6.3,8.8-11.5,10.7c-1.6,0.6-3.6,1.1-5.2,0.6
				c-8.5-2.4-15.8-6.3-18.5-15.5c-3.2-10.6-4.6-21.3-4.9-32.2c-0.8-21.3,2.4-42,9.8-61.9c3.2-8.4,7.7-16.1,11.8-24.2
				C1083,472.5,1084.1,470.5,1085.4,468.1z M1096.1,481.4c-0.9,1.4-2.1,2.7-2.7,4.1c-3,6.6-6.3,13.3-8.8,20.1
				c-5.5,14.4-8.1,29.5-9.6,44.8c-1.6,15.9-0.2,31.6,3.8,47.1c0.5,1.6,1.4,3,2.4,5.2c1.7-1.6,3.3-2.5,4.1-3.8
				c5.4-8.5,9.9-17.5,11.8-27.6c0.9-5.4,1.3-11.1,2.4-16.4c2.8-12.8,3.2-25.9,4.3-38.8c0.6-7.9-0.5-15.9-1.7-23.8
				C1101.6,488.3,1100.5,484.1,1096.1,481.4z"/>
			<path fill="#FFFFFF" d="M994.3,463.2c6.2-2.5,13.1,0.3,15.2,6.6c3.6,11.1,6.9,22.1,10.4,33.2c1.6,4.7,3.2,9.5,5.1,15.3
				c1.1-2.4,1.7-3.6,2.2-4.9c4.4-12.6,9.9-24.8,16.4-36.5c3.8-6.9,8.1-13.7,12-20.7c0.9-1.7,2.2-2.8,4.3-2.2
				c2.5,0.6,5.2,1.1,7.6,2.1c4.3,1.7,5.1,4.3,2.7,8.1c-3.2,5.2-6.6,10.1-9.6,15.3c-3.9,6.8-7.7,13.6-11.1,20.7
				c-5.5,11.8-10.4,23.8-15.6,35.8c-0.9,2.2-1.6,4.6-1.7,6.9c-0.9,19.1-2.1,38.4-0.5,57.5c0.3,3.8,0.9,7.4,1.4,11.2
				c0.5,3.8-1.3,5.5-4.7,4.1c-3.2-1.1-6.3-2.8-8.7-5.2c-1.6-1.4-2.1-4.4-2.2-6.6c-0.6-9.9-1.3-19.9-1.3-29.7
				c-0.2-8.7,0.5-17.2,0.6-25.9c0-1.1,0-2.4-0.2-3.5c-3.6-15.6-6.2-31.7-11.2-47.1C1001.8,486.3,998.1,474.9,994.3,463.2z"/>
			<path fill="#FFFFFF" d="M1169.8,475.1c4.6-0.2,10.4,0.3,12.2,4.6c0.6,1.4,0.6,3,0.6,4.6c0.3,24.6,4.6,52.7,0.2,77.1
				c-3,16.3-4.4,34.7-13.1,49.3c-7.1,11.8-33.9,15.5-39.3,0c-3.3-9.5-4.7-18.9-5.4-28.9c-1.1-16.3,0-32.4,0.6-48.6
				c0.3-8.7,1.9-17.4,1.6-26.1c-0.3-10.6-0.8-21.3-1.1-31.9c0-0.5,0.2-0.9,0.3-1.4c10.1,0.5,16.1,5.8,16.3,14.8
				c0.3,23.5-0.9,47.1-1.4,70.6c-0.2,10.4-1.3,21-0.3,31.4c0.3,3.9,0.2,12,2.8,15.3c10.6,12.8,25.3-36.6,25.3-68.5
				C1169.4,516.4,1166.4,495.6,1169.8,475.1z"/>
		</g>
		<path fill="#FFFFFF" stroke="#FFFFFF" stroke-width="0.5873" stroke-miterlimit="10" d="M602.8,335.3c5.8-1.7,12.3,0.9,15.5,6
			c0.9,1.6,2.1,3,3.2,4.7c4.7-0.3,9.5-0.6,14.5-1.1c0.5-1.7,1.1-3.2,1.4-4.6c0.9-5.2,3-9.9,5.5-14.5c4.4-8.1,11.4-18.5,22.6-14.5
			c5.8,2.1,10.7,13.4,9.3,19.1c-1.6,6-8.2,24.3-27.3,22.9c-1.4,11.7-3.2,20.7,4.1,30.5c2.2,3,5.2,5.2,8.5,7.1
			c2.8,1.6,5.8,2.1,9.3,1.6c6.3-0.9,6.6-1.1,11.4-5.1c3.9-3.5,6.5-8.1,10.9-11.2c0.8-0.6,1.4-1.3,2.4-1.6c0.6-0.3,1.7-0.2,2.2,0.2
			c1.9,1.3,2.2,2.7,1.3,4.6c-10.1,19.9-30,22.1-45,12.2c-12.2-8.2-14.8-18.3-16.4-31.9c-0.2-2.1-0.3-4.1-0.5-6.2
			c-0.2-0.8-0.3-1.7-0.6-2.7c-3.9-0.2-7.6-0.3-11.4-0.5c0,0.8-0.2,1.1,0,1.4c6.9,15.8-11.8,66.5-33.6,56.2
			c-5.7-2.7-10.9-6.2-12.6-12.5c-0.9-3.9-1.9-7.9-2.5-12c-0.6-4.7-0.9,2.1-1.4-2.7c-0.2-1.1-0.3-2.2-0.6-3.9
			c-1.3,1.4-2.1,2.2-2.8,3.2c-2.2,2.2-4.6,4.6-6.9,6.8c-1.7,1.7-3.6,1.7-5.7,0.6c-1.6-0.8-3-1.7-4.4-2.5c0.2-0.6,0.2-0.9,0.3-1.1
			c5.2-3.2,7.9-8.2,11.4-12.8c2.4-3.2,4.7-6.3,6.9-9.6c0.9-1.4,1.7-3,2.1-4.6c0.6-5.5,1.1-11.2,1.6-16.7c0.9-10.1,1.7-20.2,2.7-30.2
			c1.3-13.4,4.1-26.7,8.1-39.6c1.4-4.6,3.2-9,4.9-13.6c0.6-1.9,1.4-2.2,3.5-1.9c3.6,0.5,6.5,2.2,8.1,5.4c2.5,5.1,3.6,10.4,4.9,15.8
			c2.4,10.7,0.6,21.3-2.2,31.9c-3.6,14.1-8.8,27.6-14.8,40.9c-0.6,1.3-1.1,2.7-1.9,3.8c-2.5,3.5-2.8,7.3-2.8,11.1
			c0,8.4,0,16.6,0.6,24.9c0.5,6.6,1.6,1.7,2.7,8.2c0.3,2.4,0.9,4.7,2.7,6.6c16.3-0.5,24.2-34.7,23.2-46.6c-0.3-2.8-1.1-5.5-1.7-8.2
			c-0.3-1.7-1.4-3-3-3.9c-1.4-0.8-2.7-1.7-3.9-2.8C603.8,340.4,602.1,338.3,602.8,335.3z M589.9,323c0.3-0.8,0.8-1.6,1.1-2.4
			c1.6-5.2,3.3-10.3,4.7-15.5c2.1-7.4,3.5-15,3.5-22.7c0-1.6-0.3-3.3-0.5-4.9c-0.2-1.6,0-3.2-0.9-4.9
			C594.3,282.6,588.5,312.9,589.9,323z M648,344.9c11.1,1.7,24.6-22.7,11.1-23.1C654.8,323.2,647.2,339.1,648,344.9z"/>
		<path fill="#FFFFFF" d="M791.2,344.2c1.7-1.4,3.3-2.8,4.9-4.3c5.4-4.6,7.4-6.2,14.1-9.2c2.2-0.9,3.9-1.1,6,0.9
			c-6.8,9-13.9,11.7-20.4,20.7c3.2,5.5,6.2,10.7,9,15.9c0.8,1.4,1.4,2.8,1.7,4.4c0.5,2.2-0.8,3.8-3,4.1c-2.8,0.3-4.7-1.1-6.2-3.5
			c-2.1-3.3-4.3-6.5-6.3-9.8c-0.5-0.8-1.1-1.3-1.6-1.9c-2.5-0.3-3.6,1.4-5.1,2.7c-4.3,3.9-8.5,8.2-13.7,10.9
			c-3.6,1.9-7.4,3.3-11.4,4.6c-3.3,1.1-6.8,0.3-9.9-0.9c-4.6-1.7-6.6-5.1-6.5-9.9c0.2-2.5,0.5-4.9,0.9-7.3
			c3.6-15.2,7.9-30,14.8-44.1c1.3-2.7,1.6-5.2,0.9-8.1c-0.9-3.8-1.4-7.6-1.4-11.5c0-7.7,0.5-15.5,2.4-23.1c1.3-4.7,3.2-8.8,6.3-12.6
			c3.9-4.7,9.3-5.8,14.8-5.4c3.6,0.3,6.5,3,8.1,6.3c2.1,4.1,2.5,8.5,0.8,12.8c-1.7,4.6-3.6,9.2-5.8,13.6c-3.2,6.5-6.5,12.9-9.9,19.3
			c-2.4,4.4-2.2,8.7,0.6,12.9c4.4,6.6,8.7,13.3,13.1,19.9C789.2,342.6,790.1,343.2,791.2,344.2z M767.8,330.1
			c-2.2,0.9-2.5,2.8-3,4.4c-2.7,8.5-5.4,17.1-7.6,25.7c-0.9,3.3-0.9,6.9-1.3,10.4c-0.2,1.4,0.3,2.8,1.9,3.5c2.5,0.2,4.3-1.4,6-2.8
			c5.8-4.6,11.2-9.8,16.1-15.3c3-3.3,3-3.8,0.8-7.3c-3.5-5.5-7.1-10.9-10.6-16.4C769.6,331.7,768.6,330.9,767.8,330.1z M769.6,293.8
			c0.3-0.2,0.8-0.2,0.9-0.5c4.3-6.8,7.7-13.9,9.8-21.5c1.1-3.8-0.3-6.8-2.8-9.5C770.8,267.3,766.1,286.1,769.6,293.8z"/>
		<path fill="#FFFFFF" d="M1057.4,258.9c-6.9,1.1-13.9,0.6-20.8-0.3c-6.3-0.8-12.6-1.6-18.9-1.9c-11.4-0.5-22.7-0.5-33.9-0.8
			c-3.3,0-6.8-0.2-10.1-0.5c-2.7-0.2-3.6-1.3-3.5-3.6c0.3-2.8,0.9-5.5,1.1-8.4c0.2-3.3,0.3-6.8,0.2-10.3c-0.2-1.4-0.6-3.3-1.7-3.9
			c-3.2-1.9-6.5-3.6-11.2-2.2c0.2,9.2-2.1,17.8-3.2,26.8c-10.7,1.4-20.7-3.5-32.1-0.8c1.9,0.9,2.5,1.6,3.3,1.7
			c6.9,2.2,14.2,3.3,21.6,3.9c2.4,0.2,4.7,0.3,6.6,2.4c-0.6,9.3-1.4,18.8-2.2,28.3c-0.2,1.9-0.6,3.8-1.1,5.5
			c-3,11.2-7.6,21.9-12,32.5c-3.9,9.3-8.2,18.5-14.4,26.7c-1.6,2.2-3.2,4.4-6.5,5.8c-5.1-3.6-7.6-8.4-9.2-13.7
			c-1.3-4.4-1.9-8.8-2.7-13.4c-0.8-4.7-0.9-9.3,0.9-13.9c1.4-3.5,3-6.9,4.3-10.6c3.5-9.5,6.8-18.9,9.9-28.6
			c1.3-3.8,0.5-7.6-1.1-11.1c-1.1-2.5-3.2-4.1-6-5.1c-3.8-1.3-7.4-0.8-11.7-0.2c-1.3,2.1-2.8,4.3-3.9,6.5
			c-5.1,9.5-6.5,19.9-6.8,30.3c-0.3,9.6-1.1,19.3,0,28.9c0,0.6,0.3,1.1,0.2,1.7c-0.5,3.5-1.6,6.8-4.9,9.2c-0.5-0.9-0.9-1.4-0.9-2.1
			c-1.6-11.1-3.2-22.1-4.4-33.3c-0.5-4.6-0.3-9.2-0.3-13.6c0-2.8-0.8-5.4-3.5-6.8c-2.8-1.4-5.8-2.5-8.4,0
			c-0.5,8.7-0.9,16.9-1.4,25.3c-0.5,9.3-2.5,18.3-6.2,27c-3.2,7.4-6.3,14.7-9.3,22.1c-2.4,5.8-6.5,10.4-11.4,14.2
			c-0.6,0.5-1.7,0.6-2.8,0.9c-2.8-3.6-3.3-7.4-3.2-11.5c0.6-10.6,1.4-21.2,1.9-31.7c0.6-13.1,0.9-26.1,1.3-39.2
			c0.2-6.6-2.1-8.8-9-9.3c-0.8,0-1.6,0-2.4,0c-3.6,0-5.4,0.6-5.4,5.1c0,10.1-0.3,20.1-0.8,30.2c-0.3,9.8-1.1,19.7-1.3,29.5
			c-0.2,6.5-0.6,12.8,1.3,19.3c3.5,11.4,16.6,15.9,27,9.5c3.3-2.1,5.5-4.7,7.7-7.7c5.7-7.6,7.4-16.6,11.4-24.8
			c1.1-2.5,1.6-5.2,3.8-7.3c0.6,0.6,1.1,0.8,1.1,1.1c1.1,8.1,2.2,16.1,3.2,24.2c0.6,4.7,1.4,9.3-0.3,14.1
			c-1.9,5.4-3.3,10.9-4.7,16.4c-1.3,4.6-2.2,9.2-3.6,13.7c-3.3,10.9-4.9,7.3-3.9,18.5c0.3,3.9,1.4,7.4,3.5,10.7
			c0.8,1.3,1.9,2.4,3.2,3.3c3.9,2.5,8.4,3.3,13.1,3.3c3,0,5.5-1.3,6.9-3.8c1.4-2.7,2.7-5.5,3.5-8.4c2.2-8.2,2.4-16.6,2.1-24.9
			c-0.6-16.3-1.9-18-4.7-34.1c-1.3-6.8,0.3-12.6,3.8-18.5c0.6-1.1,1.7-1.9,2.5-2.7c0.6,0.2,0.8,0.3,0.9,0.3c0.6,0.8,1.3,1.4,1.9,2.2
			c4.1,5.4,8.7,10.1,15.6,12.6c7.1,2.5,14.4,1.9,19.6-3.3c2.4-2.5,4.3-5.4,6.3-8.2c4.7-7.1,7.6-15,11.1-22.6c0.3-0.9,1.1-1.6,2.2-3
			c0.6,2.5,0.9,4.1,1.3,5.8c2.1,8.8,3.6,17.8,6.6,26.5c3.8,10.6,9.6,18.8,20.4,23.8c8.1,3.8,15.8,4.6,24,1.4
			c1.9-0.8,3.8-2.1,5.4-3.5c2.8-2.8,2.4-5.8-1.6-9.3c-0.6,0.8-1.3,1.9-2.1,2.7c-3.2,3-6.9,4.9-11.2,6.3c-5.1,1.7-9,0.6-12.2-3.3
			c-0.8-0.9-1.6-1.7-2.1-2.8c-4.4-7.9-7.6-16.3-9.2-25.1c-0.6-3.5-1.4-7.1-1.9-10.6c-1.1-7.3-2.2-14.7-2.8-21.9
			c-0.8-9.8-1.1-19.6-1.3-29.5c-0.2-8.7,0.8-17.4,2.1-26.5c2.2-0.2,4.1-0.5,6-0.5c9.5,0.3,18.9,0.5,28.6,0.9
			c12.2,0.6,24.2,1.6,36.3,2.4c3.6,0.2,7.1,0.5,10.7,0.5c4.6-0.2,8.7-1.6,13.1-4.1C1061.7,258.6,1059.6,258.6,1057.4,258.9z
			 M880.3,424.5c-0.5,3.6-0.8,7.4-3.2,10.6c-2.7-0.2-3.9-1.7-4.6-3.5c-1.1-2.8-2.4-5.7-2.7-8.7c-0.8-9.5,0.3-4.4,2.5-13.6
			c0.8-3,1.4-5.8,2.2-8.8c0.6-2.2,1.3-4.3,3.2-6.8c0.8,1.6,1.7,2.5,1.7,3.3C880.6,411.3,882.2,410.6,880.3,424.5z M903.9,302.3
			c0,0-2.5-33.9,7.7-28.1C921.9,280.1,903.9,302.3,903.9,302.3z"/>
	</g>
</g>
<g id="page_elelments">
</g>
</svg>
