<svg xmlns="http://www.w3.org/2000/svg" width="210" height="420" viewBox="0 0 210 420"><path d="M0 57h-190.92a6.56 6.56 0 0 1-6.55-6.54 6.57 6.57 0 0 1 6.55-6.55H0" fill="none" stroke="#5db2a5" stroke-miterlimit="10" stroke-width="1.1"/><path d="M177.67 109.51a1.5 1.5 0 0 0 0-3 1.5 1.5 0 0 0 0 3zM164.51 123.59a1.5 1.5 0 0 0 0-3 1.5 1.5 0 0 0 0 3zM144 101.43a1.5 1.5 0 0 0 0-3 1.5 1.5 0 0 0 0 3z" fill="#5db2a5"/><path fill="none" stroke="#5db2a5" stroke-miterlimit="10" d="M105 137.32l39.2-37.39 20.08 22.4 13.39-14.55"/><path d="M105.2 138.59a1.5 1.5 0 0 0 0-3 1.5 1.5 0 0 0 0 3zM166.21 158a1.5 1.5 0 0 0 0-3 1.5 1.5 0 0 0 0 3zM92.41 85.85a1.5 1.5 0 0 0 0-3 1.5 1.5 0 0 0 0 3zM38.59 149.06a1.5 1.5 0 0 0 0-3 1.5 1.5 0 0 0 0 3z" fill="#5db2a5"/><path d="M83.62 184.16a2.08 2.08 0 0 1 2.15-2.86H99.7a2.46 2.46 0 0 1 2.14 1.67l10.24 40.36h.47L131 181.42a2.29 2.29 0 0 1 2-1.31h2.14a2 2 0 0 1 2 1.31l18.45 41.91h.48L166.36 183a2.46 2.46 0 0 1 2.15-1.67h13.92a2.08 2.08 0 0 1 2.15 2.86l-22.5 80a2.3 2.3 0 0 1-2.15 1.67H158a2.42 2.42 0 0 1-2-1.31l-21.79-48.69h-.36l-21.65 48.66a2.44 2.44 0 0 1-2 1.31h-1.9a2.3 2.3 0 0 1-2.15-1.67z" fill="#f4e04e"/><path d="M17.29 308.24c0-11.12 4.8-13.28 8.71-13.49a.64.64 0 0 1 .69.62l.14 2.92a.76.76 0 0 1-.45.65c-2.88.89-3.95 4.12-3.95 9.3s1.07 8.41 3.95 9.33a.83.83 0 0 1 .45.66l-.14 2.88a.66.66 0 0 1-.69.65c-3.91-.27-8.71-2.4-8.71-13.52zM32.15 295.68a.68.68 0 0 1 .65-.65h4.12a.68.68 0 0 1 .65.65v22.72a.68.68 0 0 1-.65.65H32.8a.68.68 0 0 1-.65-.65zM47.94 300.07H43a.65.65 0 0 1-.65-.65v-3.74A.65.65 0 0 1 43 295h15.27a.66.66 0 0 1 .65.65v3.74a.66.66 0 0 1-.65.65h-4.91v18.36a.68.68 0 0 1-.65.65h-4.12a.68.68 0 0 1-.65-.65zM72.68 295.68a.66.66 0 0 1 .66-.65H83.6a7.33 7.33 0 0 1 2.4 14.31l4.7 8.71a.65.65 0 0 1-.58 1h-4.57a.64.64 0 0 1-.55-.31l-4.56-9.09h-2.37v8.75a.68.68 0 0 1-.65.65h-4.08a.66.66 0 0 1-.66-.65zm10.47 9.61a2.76 2.76 0 0 0 2.61-2.75 2.62 2.62 0 0 0-2.61-2.6h-5.08v5.35zM96.71 295.68a.68.68 0 0 1 .65-.65h4.22a.66.66 0 0 1 .66.65v13.9a4.26 4.26 0 1 0 8.51 0v-13.9a.65.65 0 0 1 .65-.65h4.22a.68.68 0 0 1 .65.65v14.17a9.78 9.78 0 0 1-19.56 0zM123.17 295.68a.66.66 0 0 1 .66-.65h4.08a.68.68 0 0 1 .65.65V314h8.17a.64.64 0 0 1 .65.65v3.74a.65.65 0 0 1-.65.65h-12.9a.66.66 0 0 1-.66-.65zM142.08 295.68a.66.66 0 0 1 .66-.65h14.2a.66.66 0 0 1 .66.65v3.74a.66.66 0 0 1-.66.65h-9.5v4.26h7.82a.67.67 0 0 1 .65.65v3.74a.64.64 0 0 1-.65.65h-7.82V314h9.5a.65.65 0 0 1 .66.65v3.74a.66.66 0 0 1-.66.65h-14.2a.66.66 0 0 1-.66-.65zM162.2 315.79l1.61-2.85a.89.89 0 0 1 1.17-.2c.14.06 2.61 1.88 4.87 1.88a2.15 2.15 0 0 0 2.37-2.06c0-1.44-1.2-2.54-3.53-3.46-3-1.17-6.66-3.47-6.66-7.59 0-3.39 2.64-6.83 7.93-6.83a12.74 12.74 0 0 1 7.34 2.58.87.87 0 0 1 .2 1.1l-1.75 2.64c-.24.38-.85.69-1.16.45s-2.82-2.06-4.91-2.06a2 2 0 0 0-2.16 1.75c0 1.27 1 2.23 3.74 3.32s6.93 3.16 6.93 7.83c0 3.53-3.05 7.1-8.1 7.1-4.46 0-6.93-1.85-7.72-2.64-.37-.34-.45-.48-.17-.96zM182.24 317.57c2.89-.92 3.95-4.11 3.95-9.33s-1.06-8.41-3.95-9.3a.75.75 0 0 1-.44-.65l.14-2.92a.63.63 0 0 1 .68-.62c3.91.21 8.72 2.37 8.72 13.49s-4.81 13.25-8.72 13.52a.64.64 0 0 1-.68-.62l-.14-2.95a.79.79 0 0 1 .44-.62z" fill="#d8bf2e"/><path d="M210 181.3h-5.66a2.26 2.26 0 0 0-2.26 2.26v78.81a2.27 2.27 0 0 0 2.26 2.27H210zM16.38 181.3H0v83.34h16.38a41.67 41.67 0 1 0 0-83.34zM15.19 247H3.76v-48.2h11.43c13.45 0 23.21 10.6 23.21 24S28.64 247 15.19 247z" fill="#f4e04e"/><path fill="none" stroke="#5db2a5" stroke-miterlimit="10" d="M0 68.8h209.83M0 389.48h209.83M0 30.52h209.83M0 57.02h209.83M0 43.93h210"/><path d="M253.63 198.8a2.26 2.26 0 0 0 2.26-2.26v-13a2.26 2.26 0 0 0-2.26-2.26H210v83.34h43.63a2.26 2.26 0 0 0 2.26-2.26v-13a2.26 2.26 0 0 0-2.26-2.26h-33v-16.04h27.17a2.26 2.26 0 0 0 2.26-2.26v-13a2.35 2.35 0 0 0-2.26-2.27h-27.15V198.8z" fill="#f4e04e"/><path d="M210 30.52h168.7a20.06 20.06 0 0 1 20 20v319a20.06 20.06 0 0 1-20 20H210M210 68.8h188.7" fill="none" stroke="#5db2a5" stroke-miterlimit="10"/><path d="M210 43.93h85.76a6.56 6.56 0 0 1 6.54 6.55 6.56 6.56 0 0 1-6.54 6.52h-85.89" fill="none" stroke="#5db2a5" stroke-miterlimit="10" stroke-width="1.1"/></svg>