<svg xmlns="http://www.w3.org/2000/svg" width="700" height="430" viewBox="0 0 700 430"><g><path d="m8.05,220.24V1.7h22.43v198.12h27.32v20.42H8.05Z" fill="var(--text-color)" stroke-width="0"/><path d="m92.02,220.24h-22.43v-90.29L48.31,1.7h21.85l9.78,84.25,2.88,23.29h-2.88l2.88-23.29L92.59,1.7h20.7l-21.28,128.25v90.29Z" fill="var(--text-color)" stroke-width="0"/><path d="m153.55,1.7l21.28,168.51,2.59,35.66v-35.66L175.12,1.7h20.42v218.54h-31.34l-20.99-168.22-2.88-35.94v35.94l2.59,168.22h-20.42V1.7h31.06Z" fill="var(--text-color)" stroke-width="0"/><path d="m242.4,1.7l21.28,168.51,2.59,35.66v-35.66l-2.3-168.51h20.42v218.54h-31.34l-20.99-168.22-2.88-35.94v35.94l2.59,168.22h-20.42V1.7h31.06Z" fill="var(--text-color)" stroke-width="0"/><path d="m351.96,220.24h-21.85V1.7h46.3v20.42h-24.44v78.79h21.57v21.57h-21.57v97.77Z" fill="var(--text-color)" stroke-width="0"/><path d="m408.31,220.24h-22.43V1.7h22.43v218.54Z" fill="var(--text-color)" stroke-width="0"/><path d="m448.86.26c5.94,0,11.12,1.54,15.53,4.6,4.41,3.07,7.86,8.68,10.35,16.82,2.49,8.15,3.74,19.7,3.74,34.65v14.95h-20.13v-13.8c0-9.58-.39-17.2-1.15-22.86-.77-5.65-1.82-9.68-3.16-12.08-1.34-2.4-2.97-3.59-4.89-3.59s-3.74,1.77-5.46,5.32c-1.72,3.55-2.59,8.2-2.59,13.95,0,10.93,1.29,21.09,3.88,30.48,2.59,9.4,5.8,18.4,9.63,27.03,3.83,8.63,7.62,17.4,11.36,26.31,3.74,8.91,6.9,18.26,9.49,28.04s3.88,20.52,3.88,32.21c0,6.9-1.06,13.37-3.16,19.41-2.11,6.04-5.32,10.88-9.63,14.52-4.31,3.64-9.73,5.46-16.25,5.46-5.75,0-10.93-1.53-15.53-4.6-4.6-3.06-8.2-8.72-10.78-16.97-2.59-8.24-3.88-19.74-3.88-34.51v-12.08h20.7v11.21c0,9.59.38,17.16,1.15,22.72.76,5.56,1.87,9.54,3.31,11.93,1.44,2.4,3.02,3.59,4.74,3.59,1.91,0,3.4-.96,4.46-2.88,1.05-1.91,1.87-4.36,2.44-7.33.58-2.97.86-6.08.86-9.35,0-10.35-1.25-20.08-3.74-29.19-2.49-9.1-5.66-17.97-9.49-26.6-3.84-8.63-7.62-17.4-11.36-26.31s-6.9-18.4-9.49-28.47c-2.59-10.06-3.88-21.32-3.88-33.79,0-10.93,2.68-20.13,8.05-27.6,5.37-7.48,12.37-11.21,20.99-11.21Z" fill="var(--text-color)" stroke-width="0"/><path d="m533.11,220.24v-102.66h-20.13v102.66h-22.14V1.7h22.14v94.61h20.13V1.7h22.14v218.54h-22.14Z" fill="var(--text-color)" stroke-width="0"/><path d="m617.65,199.82v20.42h-46.3V1.7h46.3v20.42h-24.44v73.04h21.57v21.57h-21.57v83.1h24.44Z" fill="var(--text-color)" stroke-width="0"/><path d="m628,1.7h18.98l2.88,11.5v207.04h-21.85V1.7Zm21.57,117.32h-9.78v-18.12h12.94c3.83,0,7-.96,9.49-2.88,2.49-1.91,4.41-5.75,5.75-11.5,1.34-5.75,2.01-14.09,2.01-25.02s-.67-19.5-2.01-25.16c-1.34-5.65-3.26-9.44-5.75-11.36-2.49-1.91-5.66-2.88-9.49-2.88h-12.94V1.7h9.78c9.97,0,18.12,1.92,24.44,5.75,6.33,3.84,10.93,10.16,13.8,18.98,2.88,8.82,4.31,20.52,4.31,35.08s-1.58,25.35-4.74,32.93c-3.16,7.58-7.81,13.37-13.95,17.4h-8.05v5.18c-4.6,1.34-9.88,2.01-15.82,2.01Zm7.48-10.06h19.55l15.24,111.28h-21.28l-13.51-111.28Z" fill="var(--text-color)" stroke-width="0"/></g><g><path d="m7.04,235.93h14.09l10.57,166.29,1.26,20.63h-.75l1.26-20.63,11.82-166.29h18.87l11.57,166.29,1.26,20.63h-1.01l1.26-20.63,10.82-166.29h14.09l-14.84,191.2h-20.88l-11.07-166.04-1.26-20.63h1.01l-1.26,20.63-11.32,166.04h-20.88L7.04,235.93Z" fill="var(--text-color)" stroke-width="0"/><path d="m150.19,413.79v13.33h-37.74v-191.2h37.74v13.58h-23.15v70.44h20.63v14.09h-20.63v79.75h23.15Z" fill="var(--text-color)" stroke-width="0"/><path d="m160,235.93h12.83l1.76,8.55v175.1l-1.76,7.55h-12.83v-191.2Zm51.32,49.56c0,12.24-1.43,21.8-4.28,28.68-2.85,6.88-6.88,11.74-12.08,14.59,5.53,3.02,9.81,8.22,12.83,15.6,3.02,7.38,4.53,17.53,4.53,30.44,0,19.46-2.94,33.04-8.8,40.76-5.87,7.72-14.76,11.57-26.67,11.57h-9.06v-13.33h11.57c3.86,0,7.08-1.09,9.69-3.27,2.6-2.18,4.61-6.12,6.04-11.82,1.42-5.7,2.14-13.67,2.14-23.9s-.71-18.15-2.14-23.77c-1.43-5.62-3.44-9.56-6.04-11.82-2.6-2.26-5.83-3.4-9.69-3.4h-9.31v-14.09h9.31c3.69,0,6.79-1.05,9.31-3.14,2.52-2.1,4.44-5.79,5.79-11.07,1.34-5.28,2.01-12.62,2.01-22.01s-.67-16.69-2.01-21.89c-1.34-5.2-3.27-8.84-5.79-10.94-2.52-2.09-5.62-3.14-9.31-3.14h-11.57v-13.58h9.06c12.08,0,20.84,3.77,26.29,11.32,5.45,7.55,8.18,20.29,8.18,38.24Z" fill="var(--text-color)" stroke-width="0"/><path d="m264.4,235.93l2.26,8.55v174.84l-1.01,7.8h-13.58v-191.2h12.33Zm24.91,95.6c0-18.62-.42-33.42-1.26-44.4-.84-10.98-2.1-19.16-3.77-24.53-1.68-5.37-3.77-8.89-6.29-10.57-2.52-1.67-5.45-2.52-8.81-2.52h-9.31v-13.58h7.29c6.37,0,11.91,1.05,16.6,3.14,4.69,2.1,8.55,6.38,11.57,12.83,3.02,6.46,5.28,16.06,6.79,28.81,1.51,12.75,2.26,29.69,2.26,50.82s-.75,38.33-2.26,51.07c-1.51,12.75-3.77,22.31-6.79,28.68-3.02,6.38-6.88,10.61-11.57,12.7-4.7,2.1-10.23,3.14-16.6,3.14h-7.29v-13.33h9.31c3.35,0,6.29-.84,8.81-2.52,2.52-1.67,4.61-5.2,6.29-10.57,1.67-5.37,2.93-13.54,3.77-24.53.84-10.98,1.26-25.87,1.26-44.65Z" fill="var(--text-color)" stroke-width="0"/><path d="m355.72,413.79v13.33h-37.74v-191.2h37.74v13.58h-23.15v70.44h20.63v14.09h-20.63v79.75h23.15Z" fill="var(--text-color)" stroke-width="0"/><path d="m384.4,234.67c4.86,0,9.1,1.43,12.7,4.28,3.6,2.85,6.42,8.01,8.43,15.47,2.01,7.46,3.02,17.99,3.02,31.57v9.81h-13.58v-9.31c0-9.89-.46-17.69-1.38-23.4-.92-5.7-2.14-9.77-3.65-12.2-1.51-2.43-3.27-3.65-5.28-3.65-2.35,0-4.45,1.85-6.29,5.53-1.85,3.69-2.77,8.47-2.77,14.34,0,10.23,1.13,19.5,3.4,27.8,2.26,8.3,5.07,16.19,8.43,23.65,3.35,7.46,6.67,15.01,9.94,22.64,3.27,7.63,6.04,15.77,8.3,24.4,2.26,8.64,3.4,18.41,3.4,29.31,0,5.87-.8,11.36-2.39,16.48-1.6,5.12-4.07,9.23-7.42,12.33-3.36,3.11-7.72,4.65-13.08,4.65-4.7,0-8.89-1.42-12.58-4.28-3.69-2.85-6.58-7.96-8.68-15.35-2.1-7.38-3.15-17.86-3.15-31.45v-7.3h13.59v6.79c0,9.9.46,17.7,1.38,23.4.92,5.7,2.18,9.77,3.77,12.2,1.59,2.43,3.4,3.65,5.41,3.65,2.18,0,3.9-1.01,5.16-3.02,1.26-2.01,2.18-4.57,2.77-7.67.59-3.1.88-6.33.88-9.69,0-10.06-1.13-19.16-3.4-27.3-2.26-8.13-5.03-15.93-8.3-23.4-3.27-7.46-6.58-15.01-9.94-22.64-3.36-7.63-6.16-15.85-8.43-24.65-2.26-8.81-3.4-18.74-3.4-29.81,0-9.39,2.14-17.27,6.42-23.65,4.28-6.37,9.85-9.56,16.73-9.56Z" fill="var(--text-color)" stroke-width="0"/><path d="m435.97,427.12h-14.84v-191.2h14.84v191.2Z" fill="var(--text-color)" stroke-width="0"/><path d="m449.8,331.53c0-20.63.59-37.36,1.76-50.19,1.17-12.83,2.93-22.6,5.28-29.31,2.35-6.71,5.2-11.28,8.55-13.71,3.35-2.43,7.13-3.65,11.32-3.65,5.03,0,9.31,1.55,12.83,4.65,3.52,3.1,6.33,8.6,8.43,16.48,2.1,7.89,3.4,18.87,3.9,32.96l.25,12.08h-13.84l-.5-11.57c-.34-11.23-1.01-19.87-2.01-25.91-1.01-6.04-2.26-10.23-3.77-12.58-1.51-2.35-3.27-3.52-5.28-3.52-1.85,0-3.48,1.13-4.91,3.4-1.43,2.26-2.64,6.38-3.65,12.33-1.01,5.96-1.76,14.47-2.26,25.53s-.75,25.41-.75,43.02c0,18.79.25,33.8.75,45.03.5,11.24,1.26,19.71,2.26,25.41,1.01,5.7,2.26,9.48,3.77,11.32,1.51,1.85,3.27,2.77,5.28,2.77,1.51,0,3.18-.33,5.03-1.01,1.84-.67,3.77-1.59,5.79-2.77v7.3c-2.35,2.85-4.91,5.03-7.67,6.54-2.77,1.51-5.58,2.26-8.43,2.26-2.68,0-5.2-.59-7.55-1.76-2.35-1.17-4.4-3.52-6.16-7.04-1.76-3.52-3.27-8.81-4.53-15.85-1.26-7.04-2.22-16.44-2.89-28.18-.67-11.74-1.01-26.42-1.01-44.03Zm27.17,6.29v-13.59h24.91v13.59h-24.91Zm24.91,89.31h-12.08l-1.76-7.55v-95.35h13.84v102.89Z" fill="var(--text-color)" stroke-width="0"/><path d="m537.6,235.93l25.41,161.26,1.51,20.88v-20.88l-1.76-161.26h13.84v191.2h-20.88l-25.41-161.01-1.76-20.88v20.88l2.01,161.01h-13.84v-191.2h20.88Z" fill="var(--text-color)" stroke-width="0"/><path d="m630.43,413.79v13.33h-37.74v-191.2h37.74v13.58h-23.15v70.44h20.63v14.09h-20.63v79.75h23.15Z" fill="var(--text-color)" stroke-width="0"/><path d="m640.24,235.93h12.83l1.76,8.55v182.64h-14.59v-191.2Zm16.86,101.64h-9.06v-12.33h11.57c3.86,0,7.13-1.01,9.81-3.02,2.68-2.01,4.69-5.74,6.04-11.2,1.34-5.45,2.01-13.29,2.01-23.52s-.67-18.32-2.01-23.77c-1.34-5.45-3.36-9.18-6.04-11.19-2.68-2.01-5.96-3.02-9.81-3.02h-11.57v-13.58h9.06c8.21,0,14.92,1.64,20.13,4.91,5.2,3.27,9.01,8.64,11.45,16.1,2.43,7.46,3.65,17.65,3.65,30.57s-1.43,23.27-4.28,30.06c-2.85,6.79-6.96,11.7-12.33,14.72h-5.79v3.77c-3.69,1.01-7.97,1.51-12.83,1.51Zm7.55-7.04h13.33l13.84,96.6h-14.34l-12.83-96.6Z" fill="var(--text-color)" stroke-width="0"/></g></svg>
