<?xml version="1.0" encoding="utf-8"?>
<!-- Generator: Adobe Illustrator 18.1.1, SVG Export Plug-In . SVG Version: 6.00 Build 0)  -->
<svg version="1.1" xmlns="http://www.w3.org/2000/svg" xmlns:xlink="http://www.w3.org/1999/xlink" x="0px" y="0px"
	 viewBox="0 0 680 240" enable-background="new 0 0 680 240" xml:space="preserve">
<g id="Layer_4" display="none">
</g>
<g id="Layer_1" display="none">
</g>
<g id="Layer_5" display="none">
</g>
<g id="lettering">
	<g>
		<g>
			<path fill="#FFFFFF" d="M613.2,38.8c0.2-0.3,0.4-0.6,0.5-0.9c1.3-2.7,3.3-4.9,5.4-7c1.9-2,5-1.3,6,1.3c1.1,3,1.7,6,2,9.2
				c0.7,6.3,1.2,12.6,1.9,18.9c0.2,1.9,0.4,3.7,0.7,5.6c0.5,2.6,2,3.2,4.3,1.9c1.1-0.6,1.9-1.5,2.3-2.7c1.2-3.4,2.5-6.8,3.3-10.3
				c0.8-3.8,1.1-7.6,0.8-11.5c-0.2-2.4-0.2-4.8-0.3-7.2c0-0.3-0.1-0.6-0.1-1.1c-1.3,0.1-2.6,0.2-3.8,0.4c-1,0.1-2,0.3-3.1,0.4
				c-1,0.1-2,0-3.1-0.8c0.5-0.2,0.8-0.5,1.1-0.6c2.3-0.4,4.5-0.7,6.8-1.1c0.6-0.1,1.3-0.3,1.9-0.4c0.1-0.3,0.2-0.5,0.2-0.6
				c0.4-5,0.8-10,1.2-15c0.2-2.6,0.4-5.3,0.6-7.9c0-0.8,0.4-1.2,1.2-1.3c0.4,0,0.8-0.1,1.3-0.1c1.9,0.1,2.8,0.9,2.8,2.8
				c0,2.1,0,4.2-0.2,6.3c-0.3,4.3-0.7,8.5-1.1,12.8c0,0.6,0,1.2,0,1.9c2.1-0.3,4-0.6,5.9-0.9c5.7-0.9,11.4-1.8,17.3-1.5
				c0.8,0,1.6,0.1,2.3,0.3c0.6,0.1,0.9,0.5,0.7,1.2c-0.6,0.6-1.4,0.7-2.2,0.6c-5.1-0.6-10.1,0.2-15.1,0.9c-2.5,0.4-5,0.8-7.5,1.3
				c-1.4,0.3-1.5,0.3-1.4,1.8c0.2,4,0.3,8,0.8,11.9c0.6,4.5,1.5,9,2.4,13.5c0.4,1.9,0.9,3.9,1.5,5.8c0.2,0.6,0.6,1.2,1.1,1.6
				c1.7,1.5,2.4,3.4,2.9,5.5c0.1,0.5,0.2,1,0.5,1.3c0.7,0.8,1.5,1.6,2.8,1c0.6-0.2,1.2-0.3,1.6,0.4c0.4,0.6,0.4,1.2-0.3,1.5
				c-0.6,0.3-1.4,0.6-2.1,0.5c-1.4-0.2-2.8-0.6-4-1.6c-4.5-3.7-7.3-8.4-8.8-14c-0.8-3.1-1.7-6.3-2.7-9.5c-0.1,0.5-0.2,1.1-0.2,1.6
				c-0.2,3.9-0.9,7.8-1.8,11.6c-0.3,1.3-1,2.2-2.1,2.8c-3.3,1.9-6.8,2.2-10.5,1c-1.3-0.4-2.1-1.4-2.6-2.6c-1-2.7-2.1-5.4-2.4-8.3
				c-0.6-5.2-1.2-10.4-1.8-15.6c-0.2-1.7-0.2-3.4-0.3-5.1c0-0.5-0.1-1.1-0.1-1.7c-0.9-0.1-1.3,0.5-1.6,1c-1.6,2.8-3.4,5.6-4.7,8.5
				c-0.8,1.8-0.9,4-1.2,6c-0.8,5.6-1.2,11.3-1.2,17c0,1.8-0.7,2.3-2.5,1.8c-0.3-0.1-0.6-0.2-0.9-0.3c-1.7-0.6-1.9-0.8-1.7-2.6
				c0.2-3.4,0.5-6.7,0.7-10.1c0-0.3,0-0.7,0-1.4c-0.6,1.1-1,1.8-1.4,2.5c-2.8,4.9-7.1,6.6-12.5,6.3c-0.4,0-0.8-0.2-1.3-0.2
				c-1.4,0.1-2.4-0.6-3.3-1.6c-1-1.1-1.9-2.2-2.9-3.2c-0.2,0-0.3-0.1-0.4,0c-1.8,1-3.7,1.8-5.7,2.1c-0.4,0.1-0.8,0.4-1.2,0.7
				c-0.6,0.3-1.1,0.4-1.7-0.1c-0.2-0.2-0.5-0.4-0.7-0.5c-4-1.4-5.4-4.9-7-8.3c-0.3-0.6-0.5-1.2-0.9-2.2c-0.4,1-0.6,1.6-0.8,2.1
				c-1.1,2.9-2.1,5.9-3.2,8.8c-0.7,1.8-1.6,3.3-2.9,4.8c-3.5,4.1-7.5,4.5-12,2c-1.9-1-3.5-2.6-5-4.1c-1-1-1.5-2.5-2.1-3.8
				c-0.5-1-0.8-2-1.2-3c-0.9-2.3-1.3-4.6-1.6-7c-0.1-0.8-0.2-1.6-0.4-2.5c-1.1,3.1-2.2,6.2-3.8,9c-0.2,0.3-0.3,0.7-0.5,0.9
				c-1.9,1.5-4.1,2.4-6.5,1.8c-1.1-0.3-2.1-0.9-3.1-1.4c-0.9-0.5-1.3-1.4-1.6-2.3c-0.9-2.8-1.5-5.6-1.5-8.5c0-0.2,0-0.4-0.1-0.5
				c0-0.1-0.1-0.2-0.3-0.4c-0.4,0.5-0.9,1-1.3,1.5c-1.8,2.5-4.3,4.2-6.9,5.7c-0.6,0.3-1.3,0.6-2,0.7c-0.6,0.1-1.3,0-2.1,0
				c0.1,0.4,0.2,0.7,0.3,1c2.6,5.2,4.2,10.8,5,16.6c0.6,4.5,1.3,8.9,1.6,13.5c0.4,5.8-0.6,11.4-2.9,16.8c-1,2.4-2.5,3-4.8,2.9
				c-2.5,0-4.5-0.8-5.8-2.9c-0.8-1.4-1.6-2.9-1.9-4.5c-1.8-8.5-2.9-17-2.1-25.7c0.5-5.7,1-11.4,1.6-17.1c0-0.2,0-0.3,0-0.5
				c-1.2,1.1-2.3,2.3-3.6,3.3c-1.3,1-2.9,1.4-4.4,1.3c-1.6-0.1-3.2-0.4-4.9-0.7c-0.2,0.6,0.3,1.2,0.5,1.7c1.1,2.8,2.3,5.6,3.4,8.4
				c1.4,3.3,1.8,6.9,2,10.4c0.4,6.1-0.3,12.2-1.6,18.2c-0.5,2.3-1.2,4.5-2.5,6.6c-1.1,1.7-2.4,3.2-4.4,3.8c-0.1,0-0.2,0.1-0.3,0.1
				c-2.4,0.4-4.7,0-6.6-1.6c-0.6-0.5-1-1.6-1.1-2.4c-0.3-2.3-0.6-4.6-0.7-6.8c-0.1-4.9-0.1-9.9,0-14.8c0.1-5.7,0.6-11.4,1.4-17.1
				c0.5-3.2,0.8-6.5,1.2-9.7c0-0.2,0-0.5-0.2-0.8c-0.2,0.4-0.3,0.8-0.5,1.3c-1.9,5.3-4.1,10.4-8,14.6c-1.1,1.2-2.4,2.2-3.6,3.2
				c-1.7,1.3-3.8,1.6-5.8,1.5c-1.5-0.1-3.2-1.6-3.5-3.2c-0.5-2-1.4-3.8-2.2-5.8c-2.4,0.4-4.2-0.3-5.7-2.4c0.5-0.1,0.8-0.2,1.1-0.2
				c1.3,0.1,2.4-0.6,3.5-1.2c0.6-0.3,0.6-0.9,0.7-1.6c0.1-1.9,0.2-3.9,0.2-5.8c0.2-4.6,1.1-9.1,2.1-13.6c0.9-3.6,1.5-7.2,3-10.6
				c0.6-1.3,1.4-2.5,2.1-3.8c0.3-0.5,0.7-0.7,1.4-0.7c2.4,0.3,4.5,1.2,5.5,3.5c2.6,5.7,3.1,11.6,1.2,17.6
				c-1.8,5.5-4.7,10.3-8.7,14.4c-0.6,0.6-0.8,1.2-0.8,1.9c-0.1,2,0.7,5.3,1.8,7.8c1,0,1.8-0.5,2.5-1.1c2.4-2.2,4.4-4.8,6-7.7
				c2.2-4.1,3.9-8.3,5.1-12.7c2.2-8.4,4.1-26.8,5.5-35.4c0.6-3.7,1.3-7.4,1.9-11.2c0.7,0,1.4-0.1,2.2,0c1.4,0.2,1.9,1,2,2.4
				c0.1,1,0.2,1.9,0.3,2.9c0.1,0.8,0.2,1.7,0.2,2.5c-0.1,2.6-0.1,5.2-0.3,7.8c-0.2,2.6-0.5,15.1-0.8,17.7c-0.3,2.4-0.6,4.8-0.9,7.2
				c-0.4,2.8-0.8,5.6-1.3,8.4c-0.1,0.8,0,1.4,0.5,2c2.6,3.2,6,3.6,9.2,0.9c1.1-0.9,2-2.1,2.7-3.3c3-5.4,5.1-11.2,5.7-17.4
				c0.3-3.8,0.7-17.7,1-21.5c0.1-1,0.3-2,0.4-3c0.3-1.8,0.6-3.5,1-5.5c1.1-0.5,2.3-0.3,3.4,0.2c0.3,0.2,0.7,0.7,0.7,1.1
				c0.1,1.2,0,2.4-0.1,3.6c-0.1,1-0.2,2-0.3,3.1c-0.3,3.7-0.6,17.4-0.9,21.2c-0.4,5.1-1.3,10.2-1.3,15.3c0,0.9,0.1,1.8,0.6,2.6
				c0.4,0.7,1,1.1,1.8,0.9c1-0.3,2.1-0.7,3-1.2c3.1-1.8,5.1-4.5,7-7.5c0.7-1.2,1.4-2.4,2.1-3.6c1.4-2.5,2-5.2,2.2-8
				c0.1-1.3,0.3-2.5,0.4-3.8c0-0.3,0.1-0.6,0.2-0.9c0.4-0.7,0.8-1.4,1.4-2.4c1-0.3,2.2-0.2,3.4,0.2c0.8,0.3,1,0.8,0.7,1.6
				c-0.4,0.8-0.4,1.5-0.3,2.3c0.5,2.8,0,5.6-0.3,8.5c-0.4,3.8-1.2,7.5-1,11.3c0.1,2.5,0.6,4.7,2.4,6.6c1,1.1,1.1,1.1,2.2,0
				c1.6-1.5,2.8-3.4,3.7-5.3c1-2.1,1.8-4.4,2.5-6.6c0.4-1.1,0.5-2.2,0.8-3.3c0.7-2.5,1.5-5.1,2.2-7.6c0.8-2.7,2.6-4.8,4.2-7.1
				c0.2-0.3,0.7-0.6,1-0.6c2.6-0.1,5.2,0.1,7.5,1.5c1.6,0.9,2.6,2.6,2.5,4.6c-2.2,0.2-2.7-1.8-3.9-3.1c-0.5,0.1-1,0.1-1.5,0.2
				c-1.1,0.2-1.6,0.9-1.9,1.9c-0.9,3.3-1.7,6.5-2.7,9.8c-1.3,4-1.7,8-1.1,12.1c0.3,2.2,0.6,4.4,0.9,6.6c0.5,3.2,1.9,5.8,4.8,7.5
				c0.2,0.1,0.3,0.2,0.5,0.3c1.7,1.2,2.4,1.2,4,0.1c1.4-1,2.5-2.3,3.2-3.8c2.4-5,4.7-9.9,6.1-15.3c0.8-3.2,1.5-6.4,1.6-9.8
				c0-3.1,0.5-6.1,1.3-9.2c1.1-0.4,2.2-0.1,3.3,0.3c1.2,0.5,1.3,1.6,1.3,2.7c-0.1,2.5-0.3,4.9-0.2,7.4c0.1,3.3,0.3,6.6,0.6,9.9
				c0.4,3.6,2.2,6.6,4.2,9.5c0.5,0.7,1.1,0.8,1.9,0.7c1.9-0.2,3.4-1.2,5-2.1c0.7-0.4,0.5-1,0.4-1.6c-0.2-1.4-0.5-2.7-0.7-4.1
				c-0.4-2.2-0.1-4.5,0.2-6.7c0.8-5.4,1.9-10.7,3.6-15.9c0.7-2,1.4-4,2.2-5.9c0.8-2,2.5-2.1,4.7-0.8c0.8,0.5,1.6,1.4,2,2.3
				c0.5,1.1,0.9,2.3,1,3.4c0.3,4.5,0.1,9-0.8,13.5c-0.3,1.7-0.5,3.3-1,5c-0.9,3.4-2.6,6.5-5.1,9.1c-1,1.1-1.1,1.4-0.3,2.7
				c0.8,1.4,1.7,2.6,2.6,4c3.5,0.2,6.2-1.2,8.5-3.6c1.7-1.7,2.6-3.9,3.5-6c0.5-1.1,0.9-2.2,1.2-3.4c0.4-1.4,0.7-2.9,0.9-4.4
				c0.3-4.1,0.5-8.3,0.8-12.5c0.1-2.1,0.4-4.2,0.7-6.3c2.5-0.9,4.8,0.4,4.8,3c0,2.3-0.1,4.6-0.1,6.9c0,0.5,0,1,0.1,1.5
				C613,38.7,613.1,38.8,613.2,38.8z M481.9,106.6c1.1-0.1,1.6-0.5,2-1.1c0.6-0.9,1.2-1.8,1.7-2.8c1.5-3.4,2.4-7.1,3-10.7
				c0.9-5.1,0.8-10.3,0.2-15.5c-0.2-2-0.6-4.1-1.2-6c-1.1-3.2-2.5-6.2-3.8-9.4c-0.1-0.3-0.3-0.5-0.7-1.1c-0.1,0.8-0.2,1.3-0.2,1.8
				c-0.3,2.5-0.6,5-1,7.5c-0.3,2.3-0.8,4.5-0.9,6.8c-0.3,5.8-0.5,11.6-0.7,17.3c-0.1,3.6,0,7.1,0.9,10.6
				C481.5,104.9,481.7,105.7,481.9,106.6z M506.2,58.7c-0.1,0-0.2,0.1-0.4,0.1c-0.3,4.7-0.5,9.4-0.8,14.1c-0.3,5.9-0.3,11.8,0,17.7
				c0.2,3.7,0.4,7.5,1.5,11.1c0.2,0.8,0.6,1.5,0.9,2.2c0.3-0.1,0.5-0.1,0.5-0.2c0.1-0.1,0.3-0.2,0.4-0.4c1.3-2.8,2.6-5.7,3.2-8.8
				c0.6-3.8,0.5-7.7,0.1-11.5c-0.4-3.6-1.1-7.1-1.4-10.7c-0.3-2.7-1-5.2-1.7-7.7C507.9,62.4,507.2,60.5,506.2,58.7z M588.8,54.1
				c1.3-1.3,2-2.7,2.7-4c1.2-2.1,1.6-4.5,2.2-6.8c1.1-4.1,1.9-8.2,1.7-12.5c-0.1-1.4-0.4-2.8-1.3-4.1c-0.3,0.5-0.6,0.9-0.8,1.3
				c-1.8,3.7-2.5,7.8-3.5,11.7c-0.7,2.7-0.9,5.6-1.3,8.4C588.3,50,588.2,51.9,588.8,54.1z M461.4,54.5c4.4-7.2,6.5-14.3,3.8-22.6
				C463.5,39.5,461.9,46.8,461.4,54.5z"/>
			<path fill="#FFFFFF" d="M524.2,15.7c0.6-0.4,1.3-0.9,1.9-1.3c1.2,0.4,1.8,1.4,2.5,2.2c0.6,0.6,0.3,1.8-0.3,2.5
				c-0.6,0.7-1.3,0.6-2,0.4c-0.9-0.3-1.5-1-1.8-1.9C524.4,17.1,524.3,16.5,524.2,15.7z"/>
			<path fill="#FFFFFF" d="M565.5,18.8c0.4-1.1,0.7-2.2,1.1-3.1c0.5-1.1,2.1-1.2,2.9-0.2c0.2,0.2,0.2,0.7,0.2,1
				c-0.2,0.9-0.5,1.7-0.8,2.6c-0.3,0.8-0.7,1.1-1.5,0.8C566.7,19.6,566.1,19.2,565.5,18.8z"/>
		</g>
		<g>
			<path fill="#FFFFFF" d="M281.2,18.5c0.1,3.4,0.2,6.8,0.6,10.1c0.3,1.8,0.2,3.7,0.4,5.5c0.1,1.8,0.3,3.5,0.5,5.3
				c0.1,0.8,0.2,1.6,0.3,2.4c0.1,0.6,0.4,0.7,0.7,0.3c0.5-0.6,0.8-1.2,1.3-1.8c0-0.1,0-0.2,0.1-0.3c1-1,1.5-2.5,2.4-3.6
				c0.9-1.2,1.6-2.4,2.4-3.7c0.9-1.3,1.8-2.5,2.6-3.9c0.6-1.1,1.5-2.1,2.2-3.2c0.4-0.7,0.7-1.5,1.1-2.2c0-0.1,0.1-0.2,0.1-0.2
				c0.6-1,1.3-1.9,1.9-2.9c0.1-0.2,0.2-0.4,0.3-0.6c0.4-1,1.1-1.9,1.7-2.8c0.5-0.7,1-1.5,1.4-2.3c0.3-0.5,0.7-1.1,1-1.6
				c0.4-0.6,0.7-1.2,1-1.8c0.2-0.4,0.3-0.8,0.8-0.8c0.1,0,0.2-0.1,0.2-0.2c0,0,0-0.1,0.1-0.2c0.7,0.4,1.5-0.5,2.2-0.1
				c0.9,0.5,1.9,0.9,2.3,2.3c0.1,0.3,0.1,0.6-0.1,0.9c-0.9,1.4-1.7,2.8-2.5,4.2c-1.2,2.1-2.5,4.2-3.8,6.2c-1.1,1.6-2.2,3.2-3.4,4.8
				c-1,1.4-2,2.8-3,4.3c-1.1,1.7-2.2,3.4-3.4,5.1c-0.5,0.8-1,1.7-1.5,2.5c-0.7,1-1.3,2-2,3.1c-0.3,0.5-0.6,1-1,1.6
				c-0.1,0.1-0.1,0.3,0,0.4c0.7,1,1.2,2.1,2.1,3c0.6,0.6,1.1,1.3,1.6,2c0.2,0.3,0.6,0.6,0.9,0.9c0.2,0.2,0.4,0.3,0.6,0.5
				c0.8,0.9,1.6,1.8,2.3,2.7c0.9,1.1,1.8,2.2,2.7,3.3c1,1.3,2,2.7,3,4c0.5,0.7,1.1,1.4,1.6,2.1c1.1,1.4,2.2,2.8,3.3,4.3
				c1.7,2.2,3.4,4.3,5.2,6.3c0.4,0.4,0.8,0.8,1.1,1.3c0.2,0.4,0.4,0.9,0.5,1.4c0.1,0.6-0.4,0.7-0.6,1.1c-0.5,0.8-1.2,0.9-1.9,1.2
				c-0.4,0.1-0.8,0-1.2-0.1c-0.7-0.2-1.5-0.3-2.1-1c-0.5-0.5-0.9-1-1.2-1.7c-0.2-0.6-0.7-1.1-1.1-1.6c-0.8-1-1.6-2-2.3-3
				c-0.2-0.3-0.4-0.5-0.7-0.7c-1.9-1.7-3.4-3.7-5-5.7c-1.2-1.6-2.4-3.3-3.6-4.9c-1.6-2-3.2-4.1-4.8-6.1c-1-1.3-2.1-2.4-3.1-3.7
				c-0.3-0.4-0.5-0.8-0.8-1.1c-0.1-0.1-0.2-0.1-0.4-0.2c0,0.1-0.1,0.3,0,0.4c0.1,1.2,0.3,2.3,0.4,3.5c0.3,2.2,0.5,4.4,0.8,6.7
				c0.1,0.8,0.4,1.6,0.6,2.4c0.3,1.1,0.7,2.1,0.9,3.2c0.2,0.9,0.2,1.8,0.3,2.7c0.1,1.5-0.1,3.1,0.4,4.6c0.1,0.3,0,0.7,0,1.1
				c0,0.1-0.1,0.2-0.1,0.3c0,0.3,0.1,0.7,0,0.8c-0.2,0.2-0.6,0.3-0.9,0.4c-0.5,0.1-1,0.1-1.4,0.2c-0.6,0-1.2,0.1-1.9,0.1
				c-0.7,0-1.2-0.3-1.5-1.2c-0.2-0.7-0.3-1.4-0.6-2c-0.7-1.7-0.5-3.5-0.8-5.2c-0.1-0.8-0.3-1.6-0.4-2.4c-0.1-1-0.2-2-0.3-3
				c-0.2-1.3,0-2.7-0.4-4c-0.2-0.7-0.1-1.6-0.2-2.3c-0.1-0.7-0.2-1.5-0.3-2.2c-0.1-0.9-0.2-1.9-0.2-2.8c0-0.4,0-0.8-0.1-1.1
				c-0.1-1.5-0.3-3-0.5-4.4c-0.2-1.8-0.5-3.6-0.7-5.3c0-0.3-0.1-0.6-0.2-1c-0.2-1.1-0.4-2.2-0.5-3.3c-0.2-2.4-0.3-4.9-0.4-7.4
				c-0.1-1.5-0.3-3-0.4-4.5c-0.1-1.2-0.2-2.3-0.3-3.5c0-0.3-0.2-0.7-0.2-1c-0.1-0.8-0.2-1.7-0.3-2.5c-0.1-1.3-0.3-2.7-0.4-4
				c-0.1-1-0.3-2.1-0.1-3.1c0.1-0.9-0.1-1.6-0.3-2.3c-0.1-0.6,0.2-1.5,0.8-1.5c0.8-0.1,1.6,0,2.5,0c0.1,0,0.3,0,0.4,0.1
				c0.5,0.3,0.9,0.8,1.4,1c0.8,0.4,1,1.3,1.2,2.1c0.3,1.3,0.4,2.6,0.6,3.8c0.2,1.2,0.3,2.3,0.4,3.5
				C281.2,16.7,281.2,17.6,281.2,18.5z"/>
			<path fill="#FFFFFF" d="M332.8,33c0.3,2.7,0.6,5.6,0.8,8.4c0.2,1.6,0.3,3.2,0.4,4.8c0.2,2.6,0.3,5.2,0.4,7.9
				c0.1,1.4,0,2.9,0.2,4.3c0.1,1.1,0.3,2.2,0.5,3.2c0.1,0.8,0.2,1.5,0.2,2.3c0.3,3.2,1,6.2,1.8,9.2c0.2,0.9,0.4,1.8,0.6,2.6
				c0,0.1,0.1,0.2,0,0.3c-0.5,0.5-0.6,1.2-1.4,1.4c-1.1,0.3-2.2,0.3-3.3,0c-0.4-0.1-0.7-0.5-1-0.9c-0.3-0.4-0.6-0.9-0.8-1.4
				c-0.1-0.4-0.1-0.8-0.1-1.2c0-0.2,0-0.4,0-0.6c-0.5-1.6-0.6-3.2-0.8-4.8c-0.2-1.6-0.5-3.2-0.7-4.9c-0.1-1.1-0.1-2.3-0.3-3.4
				c-0.2-2-0.5-3.9-0.8-5.8c0-0.3,0-0.6,0-0.8c-0.1-1.5-0.3-3.1-0.4-4.6c-0.1-2.1-0.1-4.1-0.2-6.2c-0.1-1.9-0.1-3.8-0.2-5.7
				c-0.1-1.6-0.3-3.2-0.5-4.8c-0.1-1.5-0.2-3-0.4-4.5c-0.2-1.6-0.5-3.2-0.8-4.8c-0.2-0.9-0.3-1.8-0.5-2.7c-0.1-0.4,0.5-1.2,0.8-1.2
				c0.5,0,1.1,0,1.5,0.4c0.2,0.2,0.4,0.4,0.6,0.5c0.9,0.6,1.7,1.3,2.6,1.9c0.1,0.1,0.2,0.2,0.2,0.3c0.4,1.6,1.5,2.9,2.4,4.2
				c2,2.7,3.8,5.5,5.3,8.5c0.8,1.8,1.8,3.4,2.7,5.2c1.1,2.3,2.3,4.6,3.4,6.9c1.3,2.9,2.5,5.8,3.8,8.7c0.9,2,2,4,3,6
				c0.1,0.1,0.2,0.2,0.3,0.4c0.1-0.2,0.2-0.4,0.2-0.6c-0.2-1.4-0.5-2.9-0.7-4.3c-0.1-0.8-0.2-1.5-0.3-2.3c0-0.1,0-0.1,0-0.2
				c-0.2-0.7-0.5-1.5-0.6-2.2c-0.1-0.4,0-0.8-0.1-1.1c-0.3-1.5-0.7-3-1-4.5c-0.1-0.5-0.1-1.1-0.2-1.7c-0.2-1.9-0.4-3.8-0.7-5.7
				c-0.2-1-0.3-2-0.3-3.1c-0.2-3.7-0.9-7.3-1.3-11c-0.2-1.9-0.3-3.8-0.5-5.6c-0.1-1.5-0.2-3-0.2-4.4c-0.1-1,0-1.9,0.6-2.7
				c0.2-0.2,0.2-0.7,0.3-1c0.1-0.2,0.2-0.4,0.4-0.5c0.9-0.4,2.3,0.1,2.9,0.9c0.3,0.4,0.4,0.9,0.6,1.4c0.1,0.2,0.2,0.4,0.3,0.6
				c0.3,0.5,0.4,0.9,0.3,1.6c-0.1,1.2,0,2.4,0.1,3.6c0.2,1.9,0.5,3.8,0.7,5.7c0.1,1.5,0.2,2.9,0.3,4.4c0.1,1.4,0,2.9,0.2,4.3
				c0.2,1.9,0.5,3.8,0.8,5.8c0.4,3,0.9,6.1,1.3,9.1c0.5,3,1,6,1.4,9c0.4,2.9,0.6,5.8,0.8,8.8c0.2,2.2,0.3,4.3,0.5,6.5
				c0.1,1-0.7,1.9-1.7,1.9c-0.5,0-1.1,0.1-1.6,0.1c-0.3,0-0.5-0.2-0.8-0.4c-0.7-0.5-1.5-1.1-2.1-1.7c-0.4-0.4-0.5-1.1-0.7-1.6
				c-0.1-0.4-0.2-0.8-0.3-1.2c-0.2-0.4-0.4-0.8-0.6-1.2c-0.3-0.6-0.7-1.2-1-1.9c-0.3-0.7-0.6-1.3-0.9-2c-0.4-0.8-0.8-1.6-1.2-2.4
				c-0.6-1.3-1.3-2.7-1.9-4c0-0.1,0-0.2-0.1-0.3c-1-1.6-1.6-3.4-2.3-5.1c-0.7-1.7-1.5-3.3-2.2-4.9c-0.9-2-1.7-4.1-2.6-6.1
				c-1.1-2.4-2.1-4.8-3.2-7.2c-0.5-1-1.1-2-1.6-3c-0.1-0.1-0.2-0.2-0.3-0.3c0,0.1-0.1,0.3-0.1,0.4C332.8,32.5,332.8,32.7,332.8,33z"
				/>
			<path fill="#FFFFFF" d="M384.4,53.9c-0.1,2.5-0.8,4.9-1.9,7.3c-0.9,1.9-1.9,3.8-2.9,5.6c-0.8,1.4-1.9,2.7-3.2,3.8
				c-1.3,1.1-2.6,2.3-3.9,3.5c-0.6,0.5-1.3,1-1.9,1.4c-0.4,0.3-0.7,0.7-1.2,0.9c-0.5,0.2-1,0.4-1.5,0.4c-1.1,0-2.3-0.9-2.6-2.1
				c-0.1-0.4-0.5-0.7-0.8-1c-1-0.7-1.3-1.5-1.2-2.7c0.1-1.4-0.1-2.9-0.3-4.4c-0.2-2.2-0.4-4.3-0.5-6.5c-0.1-1.4-0.1-2.8-0.2-4.2
				c-0.2-2.4-0.6-4.8-0.8-7.1c-0.2-1.8-0.3-3.6-0.5-5.4c-0.3-2.5-0.6-4.9-0.9-7.4c-0.2-1.6-0.4-3.2-0.6-4.8
				c-0.3-3.1-0.6-6.2-0.8-9.3c-0.1-1.2-0.2-2.5-0.3-3.7c0-0.3-0.2-0.6-0.2-0.9c0-0.5,0-1.1,0.2-1.6c0.1-0.2,0.6-0.4,0.9-0.4
				c0.8,0.1,1.7,0.2,2.5,0.5c0.9,0.3,1.6,0.9,2.4,1.3c0.9,0.5,1.6,1.2,2.4,1.8c2,1.5,3.3,3.5,4.8,5.3c1.4,1.7,2.7,3.6,4,5.5
				c1.8,2.4,3.3,4.9,4.5,7.6c0.9,1.9,1.5,3.9,2.1,5.9c0.5,1.5,1,3.1,1.5,4.7c0.5,1.5,0.7,3.1,0.8,4.7
				C384.3,52.9,384.3,53.4,384.4,53.9z M378.1,48.5c0-0.2,0-0.4,0-0.5c-0.3-1.6-0.6-3.2-0.9-4.7c-0.2-1-0.5-1.9-0.8-2.8
				c-0.3-0.9-0.8-1.8-1.1-2.7c-0.7-2-1.5-4-2.8-5.8c-1.1-1.5-2.1-3.1-3.4-4.5c-1.7-1.9-3.7-3.5-5.5-5.3c-0.1-0.1-0.3-0.2-0.5-0.2
				c0,0.2-0.1,0.3-0.1,0.5c0.3,2,0.6,3.9,0.9,5.9c0.3,1.8,0.7,3.7,1.1,5.5c0.3,1.5,0.6,3.1,0.9,4.6c0.2,1.4,0.3,2.9,0.5,4.3
				c0.5,3.2,1,6.3,1.4,9.5c0.4,3,0.7,6,0.9,9.1c0.2,2,0.4,4.1,0.5,6.1c0,0.2,0.1,0.3,0.2,0.5c0.2-0.1,0.4-0.2,0.5-0.3
				c0.9-1.1,1.9-2.2,2.8-3.4c0.7-0.9,1.4-1.8,1.9-2.8c0.7-1.2,1.1-2.5,1.7-3.7c0.8-1.6,1.2-3.4,1.8-5c0.3-0.9,0.3-1.7,0.1-2.6
				C378.2,49.5,378.2,48.9,378.1,48.5z"/>
			<path fill="#FFFFFF" d="M317.8,27.4c0.1,1.9,0.2,3.8,0.4,5.6c0.1,1.7,0.3,3.3,0.4,5c0.2,2.2,0.3,4.3,0.5,6.5
				c0.2,2.9,0.5,5.9,0.8,8.8c0.4,3.3,0.8,6.6,1.2,9.9c0.3,2.1,0.5,4.2,0.8,6.3c0.1,0.7,0.3,1.3,0.4,2c0.1,0.4,0.2,0.9,0.1,1.3
				c-0.1,0.3-0.5,0.7-0.8,0.8c-0.8,0.3-1.6,0.4-2.5,0.3c-1.1-0.2-1.8-1.1-2.5-1.8c-0.3-0.3-0.5-0.6-0.6-1c-0.2-0.6-0.3-1.2-0.4-1.8
				c-0.1-0.5-0.1-1.1-0.4-1.5c-0.5-0.8-0.3-1.7-0.3-2.6c-0.1-2.7-0.2-5.4-0.3-8c-0.1-1.5-0.2-3-0.3-4.6c-0.2-2.7-0.5-5.4-0.7-8
				c-0.1-1.7-0.2-3.3-0.3-5c-0.1-1.4-0.2-2.9-0.4-4.3c-0.2-2-0.3-4.1-0.5-6.1c-0.1-1.3-0.4-2.5-0.5-3.8c-0.2-1.4-0.3-2.8-0.5-4.2
				c-0.1-0.9,0-1.9-0.2-2.8c-0.1-0.6-0.3-1.2-0.3-1.8c0-0.8,0.3-1.3,1.1-1.1c1,0.2,2.1,0.4,3,0.9c0.7,0.4,1.2,1.2,1.8,1.9
				c0.1,0.1,0.1,0.3,0,0.3c-0.3,0.6,0,1.1,0.1,1.6c0.4,1.8,0.7,3.7,0.7,5.5C317.7,26.2,317.7,26.8,317.8,27.4
				C317.8,27.4,317.8,27.4,317.8,27.4z"/>
		</g>
		<path fill="#FFFFFF" d="M422.6,73.2c-0.7,0.6-1.2,1.1-1.7,1.6c-2.2,2.1-4.9,3.6-7.6,4.9c-1.9,0.9-3.9,1-5.9,0.6
			c-2.9-0.5-5.7-1.5-8.2-3.3c-1.9-1.4-3-3.2-3-5.6c-0.1-4,0.8-7.8,2.5-11.4c1.7-3.7,4-6.9,6.5-10c1.1-1.4,2.1-2.9,3.2-4.2
			c0.6-0.7,0.7-1.4,0.6-2.3c-0.9-6.7,0.4-13.1,3-19.3c1.7-4,4.7-6.3,8.9-6.8c1.3-0.2,2.7,0.1,3.9,0.5c1.8,0.6,2.5,2.4,2.1,4.4
			c-0.8,3.4-2.1,6.6-3.8,9.7c-2.2,4-4.2,8-6.3,12c-0.1,0.1-0.1,0.3-0.2,0.4c-1.1,2.1-1.2,4.1-0.2,6.3c1.5,3.7,2.9,7.4,4.8,11
			c0.4,0.6,0.8,1.3,1.2,2c1.5-0.6,2.3-1.9,3.2-3c0.9-1.1,1.7-2.3,2.4-3.5c1.5-2.6,3.5-4.7,6.4-6.2c0.6,1.9,0.4,3.8-0.4,5.5
			c-1,2.4-2.3,4.6-3.7,6.8c-1.3,2.2-2.8,4.2-4.3,6.5c1.5,2.3,3.2,4.7,4.7,7.2c0.7,1.1,1.1,2.4,1.4,3.7c0.2,0.8-0.2,1.2-1.1,1.2
			c-1.3,0.1-2.2-0.7-2.9-1.7c-1.4-1.9-2.9-3.8-4.3-5.7C423.4,74,423,73.6,422.6,73.2z M411.7,54.2c-0.5,0.6-0.8,0.9-1,1.3
			c-1,1.8-2,3.6-3,5.4c-2.3,4.2-3.1,8.7-2.5,13.5c0.4,3.1,0.9,3.5,3.6,2.1c3.9-2,6.9-5,9.8-8.2c0.6-0.6,0.2-1.2-0.1-1.8
			c-1.7-3-3.4-6-5-9.1C412.8,56.4,412.3,55.5,411.7,54.2z M414,36.8c0.2,0.1,0.4,0.1,0.6,0.2c0.5-0.6,1-1.3,1.4-1.9
			c0.8-1.3,1.6-2.7,2.4-4c1.5-2.5,2.6-5.2,3.4-7.9c0.4-1.1,0.6-2.4,0-3.6c-2,0.8-2.3,1.1-3.3,2.6c-1.8,2.7-2.8,5.7-3.5,8.8
			C414.5,32.9,414.3,34.8,414,36.8z"/>
		<path fill="#FFFFFF" d="M101.1,145.8c-0.3,1.9-0.6,3.8-2,5.1c-1.4,1.4-3.4,1.5-5.2,2.2c0.2,0.7,0.4,1.3,0.5,1.9
			c1.3,6,1.6,12,1.1,18.2c-0.3,3.4-0.7,6.8-1.7,10.2c-0.5,1.5-1.3,2.7-2.5,3.7c-1.9,1.5-4.1,2.6-6.4,3.2c-2.7,0.7-7.6-1.3-9-3.5
			c-1.9-3.1-3.1-6.3-3.2-9.8c0-0.7-0.1-1.3-0.3-2.4c-0.4,0.7-0.8,1-0.9,1.4c-1.2,4.1-4,7-7.2,9.5c-0.8,0.6-1.5,1.4-2.2,2.1
			c-0.8,0.9-1.8,1.5-3,1.4c-3.3-0.1-6.5-0.5-9.3-2.5c-0.2-0.1-0.4-0.3-0.6-0.5c-0.1-0.1-0.2-0.3-0.4-0.5c1.4-0.7,2.8-0.4,4.1,0.1
			c0.7,0.3,1.3,0.6,2,0.8c2,0.5,3.6-0.4,4.2-2.3c0.9-2.8,0.9-5.6,0.7-8.4c-0.2-4.1-2-7.7-3.6-11.3c-0.1-0.2-0.2-0.3-0.5-0.6
			c-0.5,1.2-0.9,2.2-1.4,3.3c-0.6,1.4-1.1,3-1.9,4.3c-1.8,2.9-3.7,5.8-5.7,8.6c-1.3,1.8-2.9,3.2-5,4c-2.2,0.9-3.8,0.9-6.5-0.4
			c4.2-0.8,6-4,8-7c0.6-0.9,1.1-1.9,1.7-2.8c1.6-2.4,2.8-4.9,3.6-7.7c0.8-3,1.7-5.9,2.6-8.8c0.4-1.4,0.3-2.7-0.1-4.1
			c-0.4-1.4-0.7-2.8-1-4.2c-0.1-0.6-0.4-1.1,0.1-1.7c0.1-0.1-0.1-0.4-0.2-0.6c0-0.4-0.2-1,0-1c1.3-0.7,0.9-2,1.2-3.3
			c1.7-0.3,3.4-0.2,5,0.6c1.7,0.9,2.1,2.5,2.4,4.2c0.4,2.4,0.1,4.8-0.5,7c-0.7,2.6,0,4.7,1.4,6.7c2.9,4.2,4.7,8.8,5.4,13.9
			c0.2,1.3,0.2,2.6,0.3,4.2c0.4-0.7,0.8-1.1,1-1.6c1.9-4.8,3.9-9.6,5.8-14.4c1.7-4.5,3.3-9,5-13.5c0.3-0.7,0.7-1.3,1-1.9
			c0.6-1.4,1.5-2.3,3.2-1.9c0.3,0.1,0.7,0,0.8-0.2c0.7-1.2,1.8-0.8,2.8-0.6c2.9,0.5,5.6,1.6,7.1,4.5c0.1,0.2,0.3,0.3,0.6,0.7
			c0.5-0.3,1-0.6,1.3-1c1.7-1.9,1.8-5.5,0.2-7.4c-0.7-0.9-1.1-1.7-0.5-3c1,0.1,2.1,0.2,3.1,0.5c1.4,0.4,2.6,1.1,2.7,2.8
			c0.1,1.1,0.8,1.4,1.6,1.6c1.6,0.4,3.3,0.7,4.9,1.2c1.2,0.3,2.3,0.7,3.4,1.2c1.6,0.7,2.5,2.1,2.6,3.8c0.1,2,0.1,4,0.1,6
			c-0.1,7.1-0.8,14.2,0,21.3c0.2,2.3,0.6,4.6,1,7.3c0.6-0.6,0.9-0.8,1.1-1.2c0.7-1.3,1.6-2.6,2.1-4c1.8-4.6,3.5-9.3,5-13.9
			c1.2-3.6,2.4-7.2,2.8-11c0-0.3,0-0.6,0.1-1.2c-0.8,0-1.4,0.1-2.1,0.1c-2.3,0.2-4.7,0.5-7-0.4c-0.6-0.2-1.1-0.6-1.7-0.9
			c0.3-0.3,0.4-0.4,0.4-0.4c3.2-0.3,6.4-0.6,9.5-0.8c1.1-0.1,1.4-0.6,1.6-1.6c0.7-4.2,0.9-8.4,0.7-12.6c-0.1-2.5,0.1-4.9,0.1-7.4
			c0-1.4,0-2.7,0-4.3c1.1,0.2,2.2,0.3,3.3,0.7c0.9,0.3,1.6,0.9,1.8,1.9c0.2,0.9,0.4,1.8,0.4,2.7c0.4,6.3,0.8,12.5,1.2,18.8
			c0,0.2,0.1,0.5,0.2,0.8c1.2-0.1,2.3-0.2,3.4-0.2c4-0.2,8-0.4,11.9-0.4c1.4,0,2.9,0.2,4.3,0.4c1,0.1,1,0.2,1.6,1.2
			c-0.9,0.8-2,0.8-3,0.7c-5.7-0.7-11.4,0.1-17.2,0.6c-0.2,0-0.5,0.1-0.7,0.2c-0.1,0-0.2,0.1-0.5,0.3c0.1,1.2,0.4,2.6,0.4,4
			c0.2,3.2,0.4,6.5,0.4,9.8c0,5.2,0.5,10.2,1.3,15.3c0.2,1.3,0.4,2.6,0.5,3.9c0.2,3.2,0.9,6.2,1.9,9.2c0.7,2.1,1.6,4.1,3,5.7
			c0.8,1,1.9,1.8,3,2.5c1.3,0.8,2.5,1,3.8-0.2c0.3-0.3,0.9-0.4,1.4-0.6c0.8,1.8,0.6,2.2-0.8,2.9c-1.7,0.8-3.5,0.8-5.3,0.4
			c-4.9-1-8.4-3.7-10.4-8.4c-2-4.8-3.3-9.8-3.6-15c-0.2-2.5-0.6-5-0.7-7.6c-0.2-3.5-0.3-7-0.5-10.5c0-1-0.1-2.1-0.4-3.2
			c-0.5,1.6-0.9,3.2-1.4,4.8c-0.7,2.1-1.5,4.2-2.3,6.3c-0.7,1.9-1.4,3.7-2.1,5.6c-0.2,0.6-0.5,1.1-0.8,1.6c-0.3,0.6-0.7,1.3-1,1.9
			c-0.4,1.1-0.7,2.1-1.5,3c-0.7,0.8-0.9,1.9-1.4,2.9c-0.6,1.4-1.3,1.9-3.4,1.5c-2-0.5-3.7-1.6-4.5-3.5c-0.6-1.5-1.1-3.2-1.4-4.8
			c-1.2-6.1-1.2-12.2-1-18.4c0.1-3.6,0.3-7.2,0.5-10.8c0.2-4-0.3-4.5-4.2-5.1C101.8,145.8,101.6,145.8,101.1,145.8z M83.1,150.6
			c-1.6,3.2-3,6.4-3.6,10c-0.9,5.7-1.2,11.5-0.8,17.3c0.2,3.2,0.9,6.2,3,8.8c1,1.3,1.4,1.4,2.9,0.7c1.9-0.9,3.3-2.1,3.9-4.2
			c0.3-1,0.8-2,0.9-3.1c1-5.4,2.2-10.8,1.5-16.3c-0.1-0.5-0.1-1,0-1.4c0.3-2.8-0.7-5.4-1.2-8c-0.1-0.6-0.4-1.2-1.2-1.5
			C86.8,152.1,85.1,151.4,83.1,150.6z M87.9,150.4c-0.2-1.2-0.7-2-1.6-2.7C85.8,149.5,86,149.8,87.9,150.4z"/>
		<g>
			<path fill="#FFFFFF" d="M49.3,43.6c-2.8-1.4-5.2-3.2-7.5-5.7c-0.2,1-0.4,1.8-0.6,2.7c-1.4,6.1-2.9,12.1-4.3,18.2
				c-0.3,1.4-0.8,2.8-1.2,4.1c-0.6,2.1-1.9,3.9-2.9,5.8c-0.3,0.6-0.8,0.7-1.4,0.6c-1.6-0.4-3.9-1.3-4.2-3.7
				c-0.4-3.4-0.8-6.7-1.2-10.1c-0.2-1.9-0.3-3.8-0.5-5.7c0-0.2-0.1-0.4-0.2-0.8c-0.2,0.5-0.4,0.8-0.5,1.2c-1.1,3.3-2,6.7-3.2,10
				c-0.6,1.7-1.4,3.3-2.2,4.9c-0.5,1.1-1.2,2-1.7,3.1c-0.3,0.6-0.7,0.8-1.2,0.7c-1-0.2-2-0.4-3-0.8c-1.1-0.4-1.6-1.4-1.9-2.5
				c-0.8-2.9-1.7-5.8-2.4-8.8c-0.6-2.6-1.1-5.3-0.9-8.1c0.1-1,0-2.1-0.1-3.1c-0.3-3.9-0.1-7.8,0.1-11.7c0.2-2.4,0.6-4.8,1-7.3
				c1.7-0.1,3.3-0.1,4.9,0.6c0.2,0.1,0.3,0.3,0.5,0.4c1.8,0.4,2.3,1.7,2.2,3.4c-0.2,2.9-0.2,5.9-0.4,8.8c-0.2,3.5-0.6,7-0.8,10.5
				c-0.2,2.8-0.3,5.7-0.4,8.5c0,1,0.1,2.1,0.2,3.5c1.2-1.4,1.5-2.7,1.8-3.9c2-6.3,3.9-12.7,5.8-19c0.1-0.3,0.2-0.6,0.3-0.9
				c0.2-0.8,0.7-1.2,1.6-1.1c0.4,0,0.7,0,1.1,0c1.7,0,1.9,0.3,2.4,2c1.3,5.3,1.5,10.7,2,16.1c0.1,1.6,0.3,3.2,0.4,4.8
				c0,0.4,0.2,0.8,0.4,1.2c2.6-9.9,5.2-19.9,6.8-30c1.3-0.4,2.6-0.5,3.9,0c0.4,0.2,0.7,0.5,0.9,1c0.7,2.6,1.9,4.9,3.7,6.9
				c1,1.1,2.4,1.3,3.8,1.6c0.2,0,0.5-0.2,0.7-0.5c0.3-0.5,0.6-1,0.8-1.5c0.9-2.3,2.6-4.1,4-6.1c0.5-0.8,1.4-1.3,2.1-2
				c0.3-0.2,0.6-0.4,0.9-0.6c2.2-2.1,4.7-1.9,7.3-0.7c1.1,0.5,1.6,1.5,2.2,2.3c1.9,3.1,2.4,6.6-0.2,9.4c-0.8,0.9-1.9,1.7-3,2.1
				c-2.8,1.1-5.5,2.3-8.6,2.5c-0.7,0-1.3,0-2,0c-0.9,2.1-1.3,4.1-1.6,6.2c-0.4,3.5-0.5,7.1,0,10.6c0.2,1.9,0.8,3.7,1.7,5.4
				c0.5,0.8,1.1,1.6,1.9,2.2c1.3,1.2,2.9,1.5,4.6,0.9c3.6-1.1,6.9-2.8,9.6-5.4c0.1-0.1,0.2-0.2,0.3-0.3c0.4-0.4,1-0.8,1.5-0.4
				c0.3,0.3,0.4,0.9,0.5,1.4c0.3,2.1-1.1,3.4-2.6,4.4c-3.6,2.4-7.5,3.6-11.9,2.3c-1.1-0.3-2.4-0.2-3.5-0.6c-3-0.9-5.2-2.7-6.5-5.7
				c-2.1-4.9-2.1-9.9-1-15c0.2-0.9,0.3-1.8,0.5-2.7C48.3,47.1,48.8,45.4,49.3,43.6z M57.4,39.9c2.8-0.6,5.3-1.8,6.9-4.2
				c1-1.5,1.1-3.1,0-4.8C61.5,33.5,59,36.3,57.4,39.9z"/>
			<path fill="#FFFFFF" d="M135.3,66.8c1.8,0.6,3.2,1.5,4.5,2.6c0.7,0.6,1.1,1.4,0.7,2.3c-0.3,0.8-0.7,1.7-1.2,2.3
				c-3.2,3.2-6.8,5.6-11.4,6.2c-2.9,0.4-5.5-0.1-7.8-2c-1-0.8-2-1.6-2.9-2.5c-0.5-0.4-0.9-0.6-1.5-0.6c-1.8,0.2-3.6-0.1-5.2-1.1
				c-0.3-0.2-0.6-0.3-0.9-0.3c-1.6-0.3-2.8-1.2-3.9-2.3c-1.3-1.3-2-2.8-2.1-4.7c-0.4-4.9,0.1-9.8,0.8-14.6c0.4-3.3,0.5-6.6-0.4-9.8
				c-0.3-1.2-0.9-2.3-1.4-3.4c-0.5-0.9-1.3-1.6-2.5-1.9c-0.3,1.8-0.4,3.4-0.8,5.1c-0.6,3.3-1.2,6.7-2,10c-0.7,2.7-1.8,5.3-2.8,7.9
				c-0.3,0.9-1,1.6-1.5,2.5c-0.5,0.9-1,1.9-1.5,2.9c-1.1,2.2-2.6,4.2-4.6,5.7c-1.2,0.9-2.3,1-3.6,0.2c-0.3-0.2-0.7-0.4-1.1-0.6
				c0.1-0.2,0.2-0.4,0.3-0.4c2.3-1.4,3.3-3.7,4.2-6.1c0.3-0.9,0.8-1.7,1.3-2.5c1-1.7,1.8-3.5,2.3-5.4c2-6.8,2.8-13.8,3.9-20.8
				c0.1-0.7,0-1.1-0.5-1.6c-0.6-0.5-1.1-1.2-1.6-1.9c-0.5-0.6-0.6-1.2-0.3-2c0.6-1.7,0.6-1.7,2.5-1.7c0.3,0,0.6,0,0.9,0
				c2.9,0,4.9,1.9,4.7,4.8c-0.1,1.2,0.3,1.8,1.4,2.2c0.8,0.3,1.6,0.7,2.4,1.1c3.2,1.2,4.8,3.8,5.8,6.8c0.7,2,0.7,4.1,0.5,6.3
				c-0.6,5.3-1.1,10.5-1.6,15.8c-0.2,2.3,0.7,4.3,2.1,6.1c1.1,1.3,1.9,1.5,3.5,0.8c0.3-0.1,0.5-0.3,0.8-0.5
				c-0.3-1.7-0.6-3.3-0.8-4.9c-0.5-3.7-0.3-7.4-0.1-11.1c0.1-1.2,0.3-2.5,0.3-3.7c0-3.4,0.8-6.6,1.6-9.9c0.8-3.2,1.9-6.2,4.1-8.7
				c0.3-0.3,0.4-0.7,0.6-1.1c1.3,0.1,2.8-0.1,3.9,0.9c0.3,0.3,0.8,0.6,0.9,1c0.6,1.5,1.3,3,1.5,4.7c0.5,4.6,0.2,9.3-0.2,13.9
				c-0.2,2.7-0.7,5.3-1,8c-0.5,3.6-1.9,6.9-3.8,10c-0.4,0.7-0.4,1.2-0.1,1.8c0.9,1.9,2.3,3.3,4.2,4.1c0.4,0.2,1,0.2,1.4,0
				c2.6-1.1,5-2.4,6.9-4.5c1.1-1.2,1.7-2.6,1.3-4.2C135.4,67.9,135.4,67.4,135.3,66.8z M119.8,63.8c1.9-3.6,3.5-20.1,2.4-23.3
				C118.5,48,118.4,55.7,119.8,63.8z"/>
			<path fill="#FFFFFF" d="M75.5,17.5c1.8-0.1,3.3,0.2,4.3,1.8c1.3,2.2,2.4,4.4,3,6.9c0.1,0.4,0.2,0.9,0,1.3
				c-0.1,0.3-0.5,0.7-0.8,0.8c-1.4,0.4-2.9-0.6-3.4-1.9c-0.6-1.8-1.1-3.6-1.7-5.4C76.5,19.8,76,18.8,75.5,17.5z"/>
		</g>
		<g>
			<path fill="#FFFFFF" d="M349.1,182.7c-0.6,0.9-1.3,1.7-1.9,2.6c-1.4,1.7-2.9,3.2-5,4c-2,0.7-3.8,0.4-5.2-1
				c-1.1-1-1.9-2.3-2.7-3.6c-0.8-1.2-0.6-2.7-0.6-4.1c0.2-4.4,0.6-8.8,0.8-13.2c0.2-4.8,0.3-9.6,0.4-14.5c0-0.5-0.1-1-0.1-1.4
				c0-2.1-1.2-3.3-2.9-4.2c-1.1-0.6-2.3-1.1-3.7-1.1c-0.1,0.5-0.3,0.9-0.3,1.4c-0.2,1.8-0.3,3.6-0.5,5.4c-0.5,4.6-1.5,9-3.2,13.3
				c-0.7,1.7-1.7,3.3-2.6,5c-0.5,0.9-1.1,1.8-1.5,2.7c-2.5,4.7-5.7,8.8-9.7,12.3c-4.1,3.7-8.8,3.9-13.7,1.7c-2.3-1-3.6-3.1-5-5.1
				c-0.3-0.4-0.6-0.9-0.9-1.5c-0.6,0.3-1.1,0.6-1.6,0.9c-4.2,2.7-8.8,3.5-13.7,3.1c-2.1-0.2-4.2-0.6-6.2-1.1c-2.7-0.7-5-2.2-6.7-4.4
				c-0.5,0.3-1,0.6-1.5,0.8c-0.5,0.1-1.1,0-1.8,0c-0.2,1.7-0.4,3.5-0.6,5.2c-0.5,4.6-0.9,9.1-1.4,13.7c-0.2,1.9-0.5,3.8-0.6,5.8
				c-0.2,3.4-0.2,6.9-0.3,10.3c0,2.5-0.3,2.8-2.9,2.7c-0.2,0-0.5,0-0.7,0c-1.7-0.1-2-0.5-2.3-2.1c-0.5-2.4-0.3-4.6,0.2-7
				c0.3-1.5,0.2-3.1,0.3-4.7c0.4-4.4,0.8-8.9,1.2-13.3c0-0.2,0-0.4,0-0.5c-0.4-5.3,0.5-10.6,0.8-15.9c0.2-2.7,0.6-5.4,0.9-8.1
				c0-0.3,0.1-0.6,0.1-1.3c-0.5,0.5-0.8,0.8-1,1.1c-1.4,1.9-2.6,4-4.1,5.8c-1.3,1.5-2.8,2.8-4.3,4.1c-0.5,0.5-1.2,0.8-1.9,1.1
				c-2.6,1.1-4.5,0.1-5.4-2.8c2.5,0.1,4-1.5,5.4-3.1c1.3-1.5,2.4-3.2,3.5-4.8c2.7-3.8,4.4-8.1,6-12.5c0.7-2,1.5-4.1,2.3-6.1
				c0.9-2.4,1.1-4.9,1.1-7.5c0-0.2,0-0.4,0-0.5c0,0,0.1-0.1,0.1-0.1c1.1,0.1,2.2,0.3,3.3,0.4c1.8,0.3,2.7,1.3,2.6,3.1
				c-0.1,1-0.1,2,0.2,3c0.2,0.8,0,1.7,0,2.5c-0.1,0.9-0.1,1.8,0.1,2.8c0.3-0.6,0.6-1.1,0.8-1.7c1.1-2.9,3.1-5.2,4.7-7.7
				c0.7-1.1,1.9-1.5,3.2-1.4c4.3,0.4,8.3,1.6,11.2,5.1c2,2.3,2.8,5.1,3.3,8.1c0.9,6.2-0.5,12.1-2.8,17.8c-1,2.5-2.4,5-4.5,7
				c-1,1-1.8,2-2.8,3.1c3-0.1,5.8-0.6,8.4-1.9c1.8-0.9,3.4-2.1,5.1-3.1c0.7-0.4,1-1,0.8-1.8c-0.6-3.1-0.2-6.3-0.1-9.4
				c0.1-2.2,0.3-4.5,0.7-6.7c0.8-4.7,2.4-9.1,4.8-13.2c0.8-1.3,1.8-2.6,2.8-3.8c1.2-1.4,3.2-1.8,5-1.1c0.7,0.3,1.4,0.4,2.1,0.5
				c1.3,0.2,2.2,0.8,3.1,1.9c2.2,3,2.5,6.1,1.6,9.6c-1.1,4.3-2.5,8.6-4.5,12.6c-0.6,1.1-1,2.2-1.5,3.3c-0.7,1.6-1.7,2.9-3,4
				c-1,0.9-1.9,1.9-2.9,2.7c-0.7,0.6-1,1.4-0.7,2.3c0.8,2.5,2.1,4.9,3.8,6.9c0.9,1.1,2.1,1.3,3.4,0.7c1.8-0.8,3.5-2,4.9-3.4
				c5.1-5.1,8.8-11,10.8-17.9c1.1-3.6,2.1-7.2,2.9-10.8c0.6-2.9,0.8-5.9-0.1-8.8c-0.2-0.6-0.2-1.2-0.4-1.8c-0.3-1.4,0.3-2.3,1.4-3.1
				c0.8-0.6,1.7-0.7,2.5-0.2c0.7,0.4,1.3,0.9,1.9,1.3c1.6,1.3,3.2,2.2,5.3,2.6c1.4,0.2,2.7,1,4,1.6c0.2,0.1,0.4,0.3,0.6,0.4
				c2.9,1,3.2,3.5,3.3,6c0.2,5.5-0.4,11-1.2,16.4c-0.7,4.5-0.7,9-0.1,13.5c0.2,1.2,0.5,2.4,0.8,3.8c1.2-0.4,1.8-1.1,2.4-1.8
				c2.2-2.7,4.1-5.7,5.8-8.7c1.6-2.8,1.8-5.8,1.9-8.9c0.1-1.8,0.2-3.6,0.4-5.4c0.2-1.9,0.5-3.7,0.6-5.6c0.2-2.3,0.2-4.7,0.3-7
				c0-0.7,0.1-1.3,0.1-2c0.1-1.9,0.1-3.8,0.2-5.7c0-0.2,0-0.4,0-0.5c0.3-3.6,0.6-7.2,0.8-10.8c0.1-1.7-0.1-3.4-0.2-5
				c-0.1-3.6,0.6-7.2,1.1-10.8c0.3-2.2,2.4-3.3,4.4-2.5c1.7,0.6,2.7,1.8,3,3.5c0.7,3.7,1.6,7.5,1.9,11.2c0.6,8,0,16-1.7,23.9
				c-0.7,3.4-1.9,6.6-2.8,9.9c-0.5,1.9-0.9,3.9-1.1,5.9c-0.5,5.4-0.9,10.8-1.2,16.2c-0.6,7.9-1.2,15.8-1.6,23.7
				c-0.3,5.7-0.6,11.5-0.1,17.2c0.2,1.9,0.6,3.7,1,5.5c0.3,1.2,0.8,2.3,1.7,3.2c0.9-0.2,1.4-1,1.8-1.7c2.4-3.9,4.1-8,4.7-12.6
				c0.8-5.7,1.2-11.5,1.1-17.3c-0.1-2.6-0.4-5.3-0.7-7.9c-0.4-3.2-0.8-6.5-1.3-9.7c-0.1-0.6-0.2-1.2-0.6-1.7c-2.4-2.7-3-6-3.5-9.4
				c-0.2-1.1-0.3-2.1-0.4-3.3c0.9-0.5,1.9-0.5,2.8-0.3c0.4,0.1,0.9,0.6,1.1,1c1.5,3.2,2.8,6.5,3.4,10.1c0.3,2.1,1.8,3.1,3.5,3.8
				c0.4,0.2,1.1,0,1.6-0.1c1.9-0.7,3.4-2,4.8-3.4c0.4-0.4,0.4-0.9,0.3-1.5c-1.4-5.7-1.5-11.6-1.5-17.4c0-1.7,0.5-3.3,0.9-5
				c0.4-1.7,1-3.4,1.4-5.1c1.1-4.3,3.1-8.2,5.2-12.1c0.8-1.4,2.3-2.4,3.6-3.5c0.2-0.1,0.4-0.2,0.7-0.2c2.1-0.3,4.3,1,5,3
				c1,3.2,1,6.5,0.6,9.7c-0.5,4-1.2,8-1.9,12c-1.1,6-3.2,11.6-6.3,16.9c-0.7,1.1-0.8,2.2-0.4,3.4c0.6,2.1,1.6,3.9,3,5.5
				c0.3,0.3,0.6,0.5,1.1,0.9c0.5-0.4,1.1-0.8,1.5-1.3c2.3-2.3,4-5,5.2-8c1.9-4.8,3.3-9.7,4.4-14.7c1.3-5.5,2.8-10.9,5.3-15.9
				c0.5-1.1,1.3-2,2.1-2.9c1.6-1.7,3.4-3.2,5.6-4.2c3.4-1.4,6.6-0.6,8.7,2.4c0.5,0.7,1,1.4,1.3,2.2c0.4,0.8-0.2,1.5-1.1,1.2
				c-0.5-0.1-0.9-0.4-1.3-0.6c-0.4-0.3-0.7-0.6-1.1-1c-1.7-1.5-3.2-1.6-4.8,0.2c-1.1,1.2-2.1,2.5-2.9,3.9c-2.2,3.5-3.5,7.3-4.3,11.3
				c-0.6,3.1-1.2,6.3-1.6,9.4c-0.6,4.6,0,9.1,0.9,13.7c0.6,3,1.3,6,3,8.7c0.4,0.6,0.9,1.1,1.3,1.7c1.4-0.3,2.7-0.8,3.7-1.5
				c3.4-2.5,6.3-5.5,7.9-9.4c0.3-0.7,0.7-1.2,1.3-1.7c0.5-0.3,0.9-0.9,1.1-1.4c3-5.8,5.9-11.6,8.3-17.7c1.3-3.5,2.9-6.9,3.6-10.5
				c0.2-1,0.3-2,0.4-3c0.2-2.2,0.3-4.3,0.5-6.5c0-0.3,0-0.6-0.1-1.1c-1,0.4-1.8,0.8-2.7,1.2c-1.6,0.8-3.3,1.5-5.2,1.6
				c-1.4,0.1-2.7-0.2-3.8-1.6c0.4-0.2,0.8-0.3,1.1-0.5c3.4-1.5,6.7-2.9,10.1-4.4c0.9-0.4,1.1-1,1.1-1.9c0.2-3.9,0.5-7.8,0.8-11.7
				c0-0.3,0.1-0.6,0.2-1c1.3,0.1,2.6,0.2,3.8,0.4c1,0.2,1.5,1,1.5,2.4c0,2.3-0.2,4.6-0.3,6.9c0,0.7,0,1.4,0,2.3
				c1.9-0.5,3.7-0.9,5.4-1.4c4.9-1.3,9.9-1.9,15-2.4c3.5-0.3,7.1-0.5,10.6-0.8c0.7-0.1,1.4-0.3,2-0.6c0.7-0.4,1.3-0.5,2-0.1
				c1,0.5,2,0.8,3,1.2c0.6,0.3,1.4,0.5,1.6,1.4c-0.3,0.7-1,0.7-1.7,0.7c-2.1,0.1-4.2,0.3-6.3,0.3c-6,0.2-12.1,0.5-18,1.6
				c-4.4,0.8-8.7,2.1-13,3.2c-0.9,0.2-1.3,0.8-1.4,1.7c0,0.4-0.1,0.7-0.1,1.1c-0.1,3.8-0.2,7.6-0.4,11.4c-0.2,4.2-0.4,8.4-0.5,12.7
				c-0.1,3.2-0.4,6.4-0.2,9.6c0.2,4.4,0.8,8.8,1.2,13.1c0.1,1.3,0.4,2.5,0.6,3.8c0.1,0.4,0.2,0.8,0.4,1.4c0.9-0.8,1.4-1.7,1.8-2.6
				c1.5-2.9,3-5.8,4.3-8.7c0.5-1,0.7-2.2,1.1-3.2c0.6-1.8,1.2-3.5,1.9-5.3c1.3-3.2,1.8-6.5,1.5-9.9c-0.2-3-0.5-6,0.1-9
				c0.3-1.3,0.2-1.4,1.5-1.6c1.2-0.2,2.4-0.3,3.6-0.3c1.7,0,2.5,0.7,2.5,2.4c0.1,1.4,0.1,2.8-0.1,4.2c-0.4,3.1-0.5,6.1-0.3,9.2
				c0.4,5.3,0.9,10.6,1.4,15.9c0.1,1.1,0.5,2.1,0.7,3.1c0.9-0.1,1.2-0.6,1.5-1.1c1-1.8,2-3.6,2.8-5.4c2.4-5.1,3.9-10.6,5.4-16.1
				c0.9-3.1,2-6.2,3.2-9.2c1-2.4,2.7-4.3,4.4-6.1c1-1.1,2.2-1.9,2.8-3.3c0.2-0.4,0.7-0.7,1.1-0.8c1.3-0.3,2.6-0.6,3.9-0.8
				c0.7-0.1,1.2,0.2,1.7,0.8c0.4,0.5,0.8,1.1,1.3,1.4c2.3,1.4,3.9,3.3,4.7,5.9c0.3,1.1,0.8,2.2,1.3,3.5c1.1-0.5,1.8-1.3,2.3-2.3
				c0.7-1.3,1.5-2.6,2.1-4c0.3-0.6,0.7-1,1.3-1c0.8,0,1.6-0.1,2.3,0c1.5,0.2,2.2,1,2.5,2.5c0.2,1.2,0.4,2.4,0.5,3.6
				c0.8,0,0.9-0.7,1.1-1.1c1.8-2.7,3.5-5.3,5.3-8c0.2-0.4,0.7-0.6,1.1-0.7c1.7-0.4,3.4-0.2,5,0.1c1.6,0.3,2.6,1.3,3.2,2.9
				c0.8,2.4,1.2,4.8,1.2,7.3c0,4.7,0.2,9.4,0.2,14.1c0,1.7-0.3,3.5-0.4,5.2c0,0.5-0.1,1-0.1,1.4c0.1,1.9,0.2,3.9,0.4,5.8
				c0,0.6,0.2,1.1,0.4,2c1.3-1.7,2.5-3.1,3.4-4.7c1.1-2.1,2.2-4.3,3.1-6.5c1.3-3.4,2.2-6.9,2.3-10.5c0.1-4.3,0.2-8.7,0.4-13
				c0-0.8,0-1.6,0-2.3c0-0.9,0.6-1.3,1.3-1.4c0.8-0.1,1.6-0.2,2.3-0.2c1.9,0.1,2.8,1.1,2.9,3c0,0.1,0,0.2,0,0.4
				c0.1,2.2,0.1,4.4,0.5,6.5c0.6,3.8,0.6,7.7,0.6,11.6c0,4,0,8.1,0,12.1c0,3.7,1.1,7.1,2.7,10.4c0.8,0.1,1.4-0.2,1.9-0.7
				c1.7-1.6,3.3-3.3,4.3-5.5c1.2-2.8,2.4-5.5,3.7-8.2c2-4.2,2.9-8.7,3.9-13.2c0.7-3.1,1.3-6.3,1.9-9.4c0.5-2.3,0.8-4.5-0.2-6.7
				c0-0.1,0-0.2,0.1-0.5c1.3-0.4,2.6-0.4,4-0.1c0.7,0.2,1.1,0.7,1.3,1.4c1,4.3,2.8,8.3,3.8,12.6c0.8,3.6,2.1,7.2,3.3,10.7
				c0.5,1.6,1,3.1,1.5,4.6c0.6,1.9,1.3,3.8,1.9,5.7c0.3,1.1,0.5,2.2,0.7,3.5c1.1-0.6,1.7-1.5,2.2-2.4c2-3.6,3.7-7.3,4.9-11.2
				c0.6-2.1,1.5-4.2,2.1-6.3c1.4-5.5,2.4-11.1,2.2-16.8c0-1.6-0.1-3.2-0.1-5.1c-0.7,0-1.3-0.1-1.9,0c-3.4,0.4-6.7,1.4-9.8,2.9
				c-1.1,0.6-2.3,1.1-3.4,1.7c-2.1,1-4,0.5-5.7-1.5c3.4-1.4,6.5-3.5,10.1-4.4c3.5-0.9,7-1.7,10.8-2.6c0.2-2.2,0.3-4.6,0.5-6.9
				c0.2-2.3,0.6-4.6,0.9-7.2c0.7,0,1.4,0,2.1,0c1.9,0.1,3,1.3,3,3.2c0,2.4-0.1,4.8-0.2,7.2c0,0.9,0.1,1.8,0.1,2.7
				c0.3,0.1,0.6,0.2,0.8,0.2c2.6-0.3,5.2-0.6,7.6-1.4c2.7-1,5.4-0.3,7.9,0.7c0.4,0.1,0.7,0.6,1,0.9c-0.4,0.7-0.9,0.7-1.5,0.8
				c-0.5,0.1-1,0-1.4,0.3c-1.9,1.5-4.1,1.6-6.3,1.8c-2,0.2-4.1,0.3-6.1,0.4c-0.4,0-0.8,0.1-1.4,0.2c0,0.5-0.1,0.9,0,1.2
				c0.8,3.6,0.8,7.3,0.9,11c0.1,3.1,0.3,6.1,0.5,9.2c0.2,4.8,0.4,9.5,0.7,14.3c0.2,3.4,0.7,6.7,1.1,10.1c0.3,2.2,1,4.3,1.9,6.4
				c0.1,0.2,0.1,0.3,0.2,0.5c1.4,2.6,2.8,2.9,5.1,1c1.1-0.9,2-1.9,2.6-3.2c0.3-0.6,0.7-1.2,1-1.8c1.4,0.9,1.9,2.3,1.4,3.8
				c-0.7,2.2-2.1,3.6-4.2,4.4c-1.8,0.7-3.6,1-5.5,0.9c-3-0.1-5.1-1.9-6.3-4.5c-1.4-3-2.2-6.3-2.7-9.5c-0.6-3.7-1.2-7.4-1.8-11.1
				c-0.3-1.7-0.6-3.3-0.9-5.3c-0.3,0.5-0.6,0.8-0.7,1.2c-0.3,1.1-0.6,2.2-0.9,3.3c-0.9,2.6-1.7,5.3-2.7,7.9
				c-1.2,2.9-3.1,5.4-5.7,7.4c-2.8,2.2-5.9,3.7-9.3,4.7c-3,0.9-5.9,0.4-8.5-1.3c-1.1-0.7-2.2-1.5-3.2-2.3c-0.5-0.4-0.8-0.9-0.5-1.4
				c0.2-0.3,0.8-0.6,1.2-0.6c1.2,0,2.2,0.4,3.1,1.2c1.7,1.5,3.7,1.4,5.3-0.2c1.4-1.4,2.1-3.1,2.2-5c0.2-2.3,0-4.6-0.6-6.8
				c-1.5-5.8-2.9-11.6-4.4-17.4c-0.2-0.8-0.4-1.6-0.8-2.8c-0.3,0.8-0.5,1.1-0.6,1.4c-0.5,2.2-1,4.4-1.3,6.6
				c-0.6,3.8-1.9,7.4-3.2,10.9c-1.2,3.2-2.6,6.4-4,9.5c-0.5,1-1,2-1.6,3c-1.3,2-2.9,3.5-5.4,3.8c-0.8,0.1-1.5,0.4-2.3,0.6
				c-2.2,0.5-4.2-0.3-6-1.5c-0.6-0.4-1-1.1-1.4-1.7c-1.7-2.7-2.1-5.7-2.6-8.8c-0.2-1.7-0.4-3.5-0.6-5.5c-0.4,0.5-0.6,0.7-0.7,1
				c-1.9,4.7-4.5,8.9-7.7,12.8c-0.6,0.7-1,1.5-1.4,2.3c-0.4,0.9-1.1,1.2-2,1.3c-1.3,0.1-3.1-1.2-3.4-2.5c-0.5-2.5-0.9-5.1-1.2-7.7
				c-0.5-4.5-0.2-9-0.2-13.6c0-3.4-0.5-6.8-0.8-10.3c-0.1-1.4-0.3-2.8-0.5-4.1c-0.1-0.7-0.3-1.4-0.4-2.3c-1.5,1.3-2.4,2.7-3,4.3
				c-1.2,3.4-2.3,6.9-3.2,10.4c-1.1,4.3-2.1,8.6-2.7,12.9c-0.5,3.9-0.5,7.9-0.7,11.9c-0.1,2.7-1.2,3.5-3.8,2.6
				c-0.2-0.1-0.3-0.2-0.3-0.2c-0.4-1.1-0.8-2.1-1-3.1c-0.1-0.5-0.1-1-0.1-1.4c0.2-3.5,0.4-7,0.5-10.5c0-5.9-0.1-11.8-0.1-17.7
				c0-1-0.1-2-0.2-3.2c-1.6,1-2.9,1.9-4.4,2.9c0,1.6,0.1,3.3,0,5c-0.2,3.5-0.6,7.1-0.9,10.6c-0.1,0.8-0.2,1.7-0.3,2.5
				c-0.3,3.3-1.5,6.3-2.7,9.3c-0.7,2-1.3,4-2.1,6c-1,2.6-2.2,5-4.4,6.7c-0.3,0.2-0.5,0.5-0.7,0.8c-1.9,2.4-4.8,2.5-6.9,1.5
				c-1.7-0.8-3-1.9-4-3.6c-1.5-2.7-2.1-5.6-2.8-8.6c-0.6-2.7-1.1-5.4-1.7-8.4c-0.3,0.4-0.6,0.6-0.7,0.9c-1,2.9-2.6,5.4-4.4,7.9
				c-2.3,3.2-5.4,2.6-7.7,0.7c-0.9-0.7-1.3-2-1.7-3.1c-1.1-2.6-1.7-5.3-1.9-8.1c-0.1-0.8-0.4-1.6-0.7-2.9c-0.9,1.8-1.8,3.2-2.4,4.7
				c-1.7,4.5-4.1,8.6-6.3,12.8c-0.4,0.7-0.9,1.5-1.4,2.1c-1.5,2-3.6,2.2-5.5,0.7c-1.4-1.1-2.1-2.6-2.5-4.3c-0.7-2.9-1.1-5.8-1.1-8.8
				c-0.1-6.7-0.1-13.4-0.2-20.1c0-0.7-0.1-1.4-0.1-2.1c-0.1,0-0.3,0-0.4-0.1c-0.8,1.9-1.5,3.8-2.2,5.7c-0.8,2.2-1.6,4.4-2.5,6.6
				c-1.5,3.4-3.2,6.8-4.9,10.1c-1.8,3.4-4.1,6.5-7,8.9c-2.1,1.7-4.5,3-6.8,4.3c-1.1,0.6-2.4,0.5-3.5,0c-2.6-1-5.1-2.3-7.1-4.2
				c-2-1.9-2.6-4.6-3.2-7.2c-0.3-1.3-0.4-2.6-0.6-4.2c-0.3,0.4-0.6,0.6-0.7,0.9c-1,1.5-1.9,3.1-2.9,4.6c-1.1,1.8-2.8,3-4.6,4
				c-1.5,0.9-3.3,0.7-4.9,0.2c-2.5-0.7-4.4-2.2-5.5-4.6c-0.2-0.5-0.5-1.1-0.9-1.7c-1.8,0.8-3.2,2.3-5.3,2.3c-2,0-3.8-0.4-5.8-1.2
				c0,0.6-0.1,1,0,1.5c1.1,6.7,1.6,13.4,1.4,20.2c-0.1,3.6-0.3,7.2-0.5,10.9c-0.3,5.3-1.9,10.2-4.3,14.8c-0.2,0.5-0.6,0.9-1,1.3
				c-1.7,1.7-3.9,2.4-6.2,2.8c-0.8,0.1-1.7,0.1-2.2-0.8c-0.3-0.6-1.2-0.4-1.5-1.2c-0.8-2.2-2.5-4-2.7-6.4c-0.3-3.2-0.9-6.5-1.1-9.7
				c-0.2-3-0.2-6-0.1-9c0.1-6.1,0.3-12.3,0.6-18.4c0.1-1.8,0.3-3.6,0.4-5.4c0-0.3,0-0.7,0-1C349.4,182.8,349.2,182.7,349.1,182.7z
				 M483.5,195.1c1.3-0.6,2.2-1.6,2.8-2.7c3.4-6,5.8-12.3,6.7-19.1c0.7-5,0.5-10,0.6-15c0-0.3-0.1-0.7-0.2-1.1
				c-3.6-0.7-7.2-1.6-8.3-6.2c-1.5,3.2-2.8,6-3.3,9.1c-0.7,3.9-1.5,7.8-2.3,11.7c-0.8,4-1.4,8.1-0.6,12.2c0.6,3,1.2,5.9,2.7,8.6
				C482.1,193.5,482.5,194.4,483.5,195.1z M279.2,156.7c0-0.8,0-1.3,0-1.8c0.3-3.7-1.5-6.6-3.8-9.3c-0.4-0.4-0.9-0.8-1.4-1.1
				c-0.8-0.4-1.6-0.5-2.4,0.2c-1.2,1-2.4,2.1-3,3.6c-1,2.6-2.1,5.2-3.1,7.9c-0.6,1.5-1.1,2.9-1.5,4.4c-1,4.1-1.2,8.3-1.6,12.5
				c-0.1,1.5,0.4,2.5,1.6,3.4c0.5,0.4,0.9,0.8,1.5,1c1.9,1,4,1.2,5.9,0c1.2-0.8,2.4-1.9,3.2-3.1c1.1-1.8,2-3.7,2.8-5.6
				C279,164.8,279,160.6,279.2,156.7z M388.5,138c-0.1,0.1-0.3,0.1-0.3,0.2c-1.5,2.7-3.2,5.4-3.9,8.5c-0.4,1.7-0.9,3.4-1.2,5.1
				c-1,5.3-1.8,10.6-1.3,16c0,0.3,0.1,0.6,0.2,1.1C386,162.8,390.1,143.4,388.5,138z M296,170c0.2,0.1,0.3,0.1,0.5,0.2
				c0.6-0.7,1.3-1.4,1.8-2.2c2.9-5.4,5.5-10.8,6.6-16.9c0.3-2,0.3-4-0.3-6.2c-0.3,0.2-0.5,0.4-0.7,0.5c-1.3,1.2-2.2,2.7-2.9,4.4
				c-1.4,3.5-2.6,7.1-3.9,10.7C295.9,163.5,296.3,166.8,296,170z M360.2,129C360.2,129,360.2,129,360.2,129c0.1-1.5,0.1-3,0.1-4.4
				c0,0-0.1,0-0.1,0C360.2,126.1,360.2,127.6,360.2,129z"/>
			<path fill="#FFFFFF" d="M620,156.7c1.6-0.4,3.1-0.4,4.6,0.1c0.9,0.3,1.5,0.8,1.8,1.9c1.7,6.9,3.5,13.8,5.4,20.6
				c0.7,2.6,1.5,5.2,2.3,7.8c0.7,2.5,1.2,4.9,0.8,7.5c-0.1,0.5,0,1,0,1.6c1.1,0,2-0.6,2.7-1.2c0.8-0.5,1.5-1.3,2.2-1.9
				c1.1-1,1.7-0.9,2.1,0.6c0.5,1.6,0,2.6-1.5,3.4c-2.8,1.5-5.8,2.7-9,3.3c-3.1,0.6-6,0.3-8.7-1.3c-1.7-1-3.3-2-4.9-3.1
				c-0.2-0.1-0.3-0.3-0.6-0.6c2.1-1,4-1.2,5.8,0.5c0.8,0.7,1.8,1.1,2.8,1.7c0.7,0.4,1.3,0.2,1.8-0.2c0.8-0.7,1.5-1.5,1.6-2.6
				c0.2-1.4,0.3-2.9,0.2-4.3c0-1.1-0.3-2.1-0.6-3.2c-1.5-5.1-3-10.2-4.5-15.3c-0.1-0.3-0.3-0.6-0.5-1.2c-0.3,0.6-0.4,1-0.6,1.4
				c-1.6,5.6-4.2,10.6-7.6,15.3c-1.6,2.2-3.6,4.1-5.9,5.5c-2.3,1.5-3.7,1.3-6-0.6c0.5-0.3,1-0.6,1.5-0.9c0.4-0.3,0.8-0.7,1.3-1
				c2-1.5,3.3-3.4,4.6-5.5c1-1.8,2.1-3.5,3.1-5.3c2.3-3.8,3.7-7.9,4.6-12.3c0.5-2.3,1-4.6,1.5-6.9
				C620.5,158.8,620.5,158.6,620,156.7z"/>
			<path fill="#FFFFFF" d="M452.4,136.9c-0.2-0.4-0.5-0.7-0.8-1.2c0.3-0.2,0.6-0.6,0.9-0.6c2-0.5,4-0.8,6-0.1c0.3,0.1,0.7,0.3,1,0.5
				c1,0.7,1.2,1.3,0.4,2.2c-1.4,1.4-2.9,2.5-5,2.5c-1.4,0-2.5-0.8-3.7-1.7C451.6,137.9,452,137.5,452.4,136.9z"/>
			<path fill="#FFFFFF" d="M531.6,133.1c2-0.9,3.9-1.7,6.1-1.1c1.1,0.3,1.1,1.4,1.8,2.1c-0.9,1.3-2.1,1.7-3.5,1.5
				C534.2,135.5,532.6,135,531.6,133.1z"/>
		</g>
		<path fill="#FFFFFF" d="M251.3,71.7c-0.2-0.5-0.9-0.6-1.3-0.1c-0.5,0.6-1,1.3-1.3,2c-0.6,1.2-1.7,1.9-2.7,2.5
			c-1.9,1-8.6,3.7-13.1-4.3c-0.4-0.8-0.6-1.6-0.2-2.5c0.5-1.2,0.9-2.5,1.4-3.7c1.4-3.4,3.5-6.8,4.2-10.4c0.3-1.3,0.5-2.6,0.8-3.9
			c0.5-1.9,0.7-3.9,0.6-5.9c-0.2-2.9-0.5-5.8-1.4-8.6c-0.3-1.1-0.9-2.2-1.4-3.3c-0.3-0.7-1-1.1-1.8-1.2c-1.2-0.2-4.3-0.9-5.3,1.5
			c-2.2,5.2-3.4,9.8-4,15.4c-0.3,2.6-0.5,5.2-0.5,7.7c0.1,3.9,0.6,7.8,1.6,11.6c0.2,0.7,0.1,1.5-0.1,2.1c-0.5,1.3-1.2,2.5-1.9,3.7
			c-0.3,0.5-0.9,0.8-1.3,1.1c-1.2-0.6-1.6-1.6-2-2.6c-1.1-2.6-1.7-5.3-1.9-8.1c-0.2-3.6-0.3-7.3-0.5-10.9c-0.3-4.7-0.6-9.4-0.9-14.1
			c-0.1-0.9-0.1-1.7-0.2-2.6c-0.3-2.5-1.1-3.2-3.6-3.3c-0.2,0-0.4,0-0.6,0c-1.4,0-2.4,0.4-3,1.8c-0.8,1.7-4.6,9-4.9,9.9
			c-0.6,1.5-1.1,3-1.7,4.4c-0.2,0.5-0.5,0.9-0.8,1.6c-0.6-3.2,0.7-5.7,1.1-8.5c-0.1-0.2,0.8-4.4,0.9-5.1c0.3-2.2,0.8-4.3,0.8-6.5
			c0.1-3.4,0-6.9-0.1-10.3c-0.1-3.1-1.5-5.7-2.5-8.5c-0.4-1-1.2-1.3-2.2-1.3c-1.1,0.1-1.4,0.3-1.8,1.5c-0.3,1.1-0.6,2.2-0.8,3.3
			c-1,5-0.9,10.1-1.1,15.2c-0.1,2.7,0,1.9-0.1,4.6c0,0.4-0.1,0.8-0.2,1.3c-1.6,0.7-3.3,0.6-4.9,0.7c-1.7,0.2-3.4,0.5-5.2,0.2
			c0-0.7-0.1-1.3-0.1-1.9c0-4.1,0-8.2-0.1-12.3c0-1.7-0.3-3.4-0.6-5.1c-0.1-0.5-0.3-1.1-0.7-1.3c-1.2-0.9-2.6-1.3-4.2-0.8
			c0,0.8,0,1.5,0,2.2c0.1,6,0.1,11.9,0.2,17.9c0,0.6-0.1,1.3-0.2,2c-6.8,1-7.9,0.6-14.7,2.5c0.5,0.3,0.8,0.6,1,0.6
			c1.5,0,2.9,0.1,4.3-0.1c4.2-0.8,2.9,0,7.1-0.8c0.6-0.1,1.3,0,2,0c0,0.5,0.1,0.9,0.1,1.3c-0.1,5.6-0.2,14.7-0.3,20.2
			c-0.1,3.7,0,7.3,0.7,10.9c0.7,3.6,2.4,6.4,6.2,7.5c1.7,0.5,3.1,0.1,4.3-1.1c0.8-0.8,1.6-1.8,2-2.9c0.6-1.6,1.3-3,2-4.6
			c0.2-0.5,0.5-1,0.9-1.9c0.2,0.9,0.4,1.4,0.5,1.8c0.1,0.9,0.1,1.7,0.3,2.6c0.1,0.4,0.2,1,0.5,1.2c1.1,0.7,2.2,1.5,3.5,1.9
			c1.4,0.4,2-0.3,2.2-1.7c0.2-2.2,0.4-4.4,0.8-6.5c0.9-4.8,1.9-9.6,2.8-14.4c0.8-3.9,2.1-7.6,3.9-11.2c0.2-0.4,0.4-0.9,0.6-1.3
			c0.1-0.3,0.3-0.5,0.7-1c0.2,1.7,0.5,2.9,0.5,4.2c0.3,4.9,0.6,9.8,0.8,14.7c0.1,3.5,0.7,6.8,1.7,10.2c1,3.3,3,5.5,6.3,6.7
			c2.6,0.9,4.9,0.7,6.8-1.6c0.4-0.4,0.8-0.9,1.3-1.4c4.3,5.3,7.8,5.8,11.7,5.8c3.2,0,5.1-0.6,7.9-2.6
			C252.5,76.2,252.2,73.7,251.3,71.7z M197.5,43.6c0,3.3-0.2,10.1-0.4,13.4c0,0.8-0.2,1.7-0.4,2.5c-1.6,4.6-3.2,9.2-4.9,13.8
			c-0.6,1.6-1.5,3.1-2.6,4.6c-0.3-0.4-0.7-0.6-0.7-0.9c-0.4-1.5-0.8-3.1-0.9-4.7c-0.3-2.6-0.5-5.3-0.4-7.9c0-6.2,0.2-16,0.3-22.2
			c0-0.5,0.1-1,0.2-1.7c0.4-0.1,0.7-0.2,0.9-0.2c3-0.2,5.9-0.4,9-0.7C197.9,41,197.5,42.3,197.5,43.6z"/>
		<path fill="#FFFFFF" d="M231.2,122.7c0,1.8-0.8,2.5-2.5,2.7c-1.6,0.2-3.3,0.5-4.9,0.8c-1.9,0.4-3.9,0.7-5.8,1.2
			c-1.3,0.3-2.5,0.6-3.7,0.9c-0.8,0.2-1.7,0.4-2.5,0.6c-0.6,0.1-0.8,0.4-0.9,1.1c-0.1,0.9-0.3,1.8-0.4,2.7c-0.2,2.4-0.5,4.9-0.6,7.3
			c-0.1,3.1-0.1,6.1,0,9.2c0,0.9,0.2,0.9,0.9,0.7c3.6-1.2,7.1-2.4,10.7-3.5c1.3-0.4,2.6-0.7,4-1c0.4-0.1,1,0,1.1,0.2
			c0.2,0.5,0.1,1.1-0.1,1.6c-0.5,1.1-1.5,1.6-2.4,2.1c-2.2,1-4.5,1.8-6.8,2.7c-1.5,0.6-3,1.1-4.6,1.6c-0.5,0.2-1.1,0.3-1.6,0.4
			c-0.6,0.1-0.8,0.4-0.7,1.1c0.3,2.4,0.5,4.7,0.8,7.1c0.2,1.8,0.5,3.6,0.8,5.3c0.7,4,1.3,8,2.3,12c0.4,1.6,0.8,3.2,1.3,4.8
			c0,0.1,0.1,0.3,0.2,0.3c0.6,0.4,0.3,0.8,0,1.1c-1.5,1.1-3.1,1.9-5,1.6c-1.5-0.3-2.4-1.3-2.9-2.7c-0.7-2-1.3-4.1-1.8-6.2
			c-0.4-1.5-0.6-3.2-1.1-4.7c-0.6-2.1-0.4-4.2-0.6-6.4c-0.2-2.1-0.4-4.3-0.7-6.4c-0.2-1.2-0.5-2.4-0.6-3.6c-0.2-2.3-0.3-4.7-0.4-7
			c-0.1-1.2-0.3-2.4-0.2-3.6c0-3-0.4-6.1,0.2-9.1c0.1-0.4,0-0.8,0-1.1c0.2-2.5,0.5-4.9,0.7-7.4c0-0.4-0.1-0.8-0.1-1.2
			c0-0.7,0.1-1.5,0.2-2.2c0-0.1,0.1-0.2,0.2-0.3c0.4-0.2,0.8-0.5,1.3-0.5c3-0.1,5.8-1.3,8.8-1.8c3-0.5,5.9-1.3,8.9-1.8
			c2-0.4,4-0.7,6.1-0.9c1.1-0.2,1.9,0.5,2.5,1.4C231.2,121.9,231.1,122.4,231.2,122.7z"/>
		<path fill="#FFFFFF" stroke="#FFFFFF" stroke-width="2" stroke-miterlimit="10" d="M175.2,166.3c0-1.4,0-2.8,0-4.2
			c-0.1-5.8,0.1-11.7,1-17.4c0.6-4,1.4-7.9,2.1-11.9c0.6-3.6,1.7-7.2,3.3-10.5c1,0,1,0,3.7,1.5c-0.4,1.2,0.3,2.1,0.9,3.1
			c2,3,4.1,6.1,5.4,9.5c1.4,3.8,2.3,7.7,2.4,11.8c0.1,4.2,0.2,8.4,0.2,12.6c0.1,5-0.8,10-1.9,14.9c-0.5,2.3-1.3,4.5-2.4,6.6
			c-1.5,2.7-3.3,3.6-6.3,2.8c-2.9-0.7-5.1-2.4-5.8-5.4c-0.8-3.5-1.4-7.2-2.1-10.7C175.6,168.1,175.4,167.2,175.2,166.3
			C175.2,166.3,175.2,166.3,175.2,166.3z M183.7,183c0.2-0.1,0.4-0.2,0.5-0.3c0.3-0.3,0.6-0.7,0.8-1.1c1-2.7,2.2-5.4,3-8.2
			c0.8-2.7,1-5.5,1.7-8.2c0.6-2.5,0.8-5,0.8-7.5c0.1-2.9,0.1-5.8,0-8.7c-0.1-2.8-0.3-5.6-0.8-8.3c-0.8-4.1-2.6-7.9-4.4-11.6
			c-0.2-0.5-0.5-0.9-1.4-0.6c-0.9,3.9-1.9,7.9-2.7,12c-1.1,5.5-1.7,11-1.6,16.6c0,7.2,0.3,14.4,2.1,21.4
			C182.1,180.1,182.4,181.7,183.7,183z"/>
	</g>
</g>
<g id="page_elelments" display="none">
</g>
</svg>
