<?xml version="1.0" encoding="utf-8"?>
<!-- Generator: Adobe Illustrator 18.1.1, SVG Export Plug-In . SVG Version: 6.00 Build 0)  -->
<svg version="1.1" xmlns="http://www.w3.org/2000/svg" xmlns:xlink="http://www.w3.org/1999/xlink" x="0px" y="0px"
	 viewBox="0 0 420 170" enable-background="new 0 0 420 170" xml:space="preserve">
<g id="Layer_4">
</g>
<g id="Layer_1">
</g>
<g id="Layer_5" display="none">
</g>
<g id="lettering">
	<g>
		<path fill="#FFFFFF" stroke="#FFFFFF" stroke-width="2" stroke-miterlimit="10" d="M41.4,94.1c-1.5,0.8-2.7,1.3-3.9,2
			c-3.2,1.9-6.3,4.1-9.6,5.9c-4.3,2.4-8.7,4.7-13.1,6.9c-1.5,0.7-3.1,1.8-4.9,0.8c-0.2-1.3,0.7-1.6,1.5-2c2.1-1,4.4-1.8,6.4-3
			c7.6-4.6,15.2-9.2,22.8-13.9c1.2-0.7,1.9-1.6,2.1-3c0.6-4.4,1.4-8.8,2.1-13.2c0.9-5.6,1.7-11.1,2.5-16.7c0.5-3.2,0.8-6.5,1.1-9.7
			c0.1-0.6,0.1-1.1,0.2-1.8c2.5-0.4,4,1.1,5.6,2.4c1.5,1.2,2,2.7,2.1,4.6c0.3,6.2-0.5,12.2-1.6,18.3c-0.7,3.7-1,7.4-1.6,11.5
			c6-2.9,11.6-5.7,17.3-8.2c5.8-2.6,11.6-4.9,17.6-7.3c0.4-3.1,0.9-6.1,1.2-9.1c1-8.1,1.9-16.3,2.8-24.4c0.4-3.2,0.6-6.5,0.8-9.8
			c0.3-5.1,1.8-9.9,3.7-14.6c0.3-0.8,0.9-1.5,1.3-2.2c2.8-0.8,4.6,0.6,5.7,2.8c0.9,1.8,1.5,3.9,1.8,5.9c1.1,7.4,0.1,14.8-1.3,22.1
			c-1.3,6.3-3.1,12.4-5.4,18.5c-0.6,1.7-1.2,3.4-0.8,5.2c1,0.4,1.9,0.7,2.8,1.1c0.4,1.7-0.8,2.2-1.7,2.7c-2,1.1-2.3,2.8-2.4,4.7
			c-0.1,2.4-0.4,4.7-0.5,7.1c-0.1,1,0,2.1,0.4,3.3c0.5-0.8,0.9-1.6,1.4-2.4c0.4-0.8,0.9-1.6,1.3-2.3c2.3-3.9,4.6-7.8,7.9-11
			c2.7-2.7,6-3.7,9.8-3.1c3.5,0.5,5.5,2.9,7,5.8c2.5,5.1,2.6,10.4,1.8,15.9c-1,6.9-1.6,13.9-2.4,20.9c-0.7,6.2-1.4,12.4-2,18.6
			c-0.2,1.7-0.4,3.5,0,5.4c1.6-2.7,3.2-5.3,4.7-8c6.8-12.3,13.4-24.6,20.2-36.9c2.1-3.8,4.6-7.3,7.6-10.6c3.8-4.2,8.4-6.8,13.9-8
			c0.5-0.1,1.1,0,1.4-0.3c1.9-1.8,4.1-0.9,6.2-0.6c1.8,0.3,2.2,0.8,2.1,2.6c0,1.6-0.1,3.2-0.3,4.7c-1,7.4-2.4,14.8-3.2,22.3
			c-1,9.3-1.5,18.7-1.2,28.1c0,1.3,0.1,2.7,0.4,4.1c6.5-8.6,11.1-18.1,15.3-27.8c4.2-9.7,6.9-19.9,9.5-30.2c2.1-1,4-0.4,5.7,0.6
			c1.5,0.8,1.9,2.5,1.6,4.2c-0.6,3.4-1.3,6.8-1.9,10.2c-0.8,4.2-1.7,8.5-2.1,12.9c0.3-0.4,0.8-0.8,1-1.2c4.4-8.2,10-15.6,15.1-23.3
			c0.9-1.4,2-1.8,3.5-1.4c2.5,0.6,4.3,1.9,5,4.4c0.7,2.3,1,4.6,1,7c0,6.2-1.4,12.2-2.2,18.2c-1.6,12.6-3.3,25.3-3.3,38.1
			c0,1,0,2,0,3.1c1.3-0.1,1.9-0.9,2.5-1.6c4.1-4.3,7.2-9.4,10.6-14.3c2.7-3.9,3.8-8.1,4.3-12.7c1.2-9.9,2.5-19.8,3.8-29.7
			c1.2-9.5,2.6-19,3.8-28.5c1.1-9.1,3.4-17.9,6.3-26.5c0.8-2.5,1.5-5.1,2.4-7.6c0.9-2.5,2.5-3,4.4-1.2c1,1,1.8,2.3,2.4,3.6
			c1.7,3.9,1.8,8.1,2,12.2c0.3,5.6-0.8,11-1.4,16.5c-0.7,7-2.7,13.8-4.5,20.5c-1.1,3.9-2.1,7.8-3.1,11.7c-0.3,1-0.3,2.1-0.4,3.8
			c1-0.8,1.5-1.2,2-1.6c3.1-3.1,6.4-5.9,10.4-7.8c3.9-1.9,7.9-1.9,11.8-0.2c3.2,1.4,5,4.2,5.5,7.6c0.5,3.7,0.2,7.3-1.3,10.8
			c-2.3,5.7-5.9,10.4-10.7,14.3c-4.5,3.6-9.5,5.9-15.2,6.9c-0.4,0.1-0.7,0.3-1.2,0.6c0.3,0.6,0.6,1.1,0.9,1.5
			c4.5,6.1,8,12.7,11.7,19.2c2.6,4.6,6,8.3,10.7,10.8c1.6,0.9,3.2,1.3,5.1,1c8.7-1.5,16-5.2,20.9-12.7c1.6-2.4,2.9-5.2,3.7-8
			c3.6-12.4,4.8-25,3-37.8c-0.1-0.4,0-0.8,0.1-1.2c1.8-0.7,3.5-0.4,5.3-0.1c1.4,0.3,2,1.6,2.5,2.7c1.2,2.5,2.3,5,3.6,7.5
			c4.4,9,7.7,18.4,10.5,28c1.6,5.3,2.8,10.7,4.2,16.1c0.7,2.8,0.4,5.5-0.6,8.1c-0.1,0.3-0.2,0.7-0.4,1.3c2.8,0.1,5.2-0.8,7.5-1.7
			c7.6-2.9,12.4-8.5,15.3-15.9c2.9-7.4,4.8-15,6.2-22.8c0.6-3.4,1.2-6.8,1.7-10.2c0.2-1.5,0.3-3.1,0.4-4.8c0.4,0.2,0.8,0.3,0.9,0.5
			c2.7,4.2,4.7,8.6,3.8,13.6c-1.5,9-3.3,17.9-6.5,26.4c-3.1,8.3-9.1,13.7-17.5,16.4c-5.3,1.7-10.8,2.5-16.3,2.5
			c-0.6,0-1.2-0.1-1.8,0.1c-3.7,1-7.2,0.1-10.7-1.1c-5.7-1.8-11.1-4.3-15.7-8.2c-0.2-0.2-0.5-0.3-0.6-0.3c-3.4,1.3-6.7,2.7-10.1,3.7
			c-4.6,1.4-9.3,1.6-14,0.1c-1.3-0.4-2.6-1-3.8-1.7c-7-4.1-12.9-9.3-16.7-16.8c-2.4-4.9-5.3-9.5-8-14.2c-0.1-0.2-0.4-0.4-0.8-0.9
			c-0.3,1-0.7,1.7-0.8,2.5c-0.9,6.5-1.9,12.9-2.6,19.4c-0.4,3.5-0.3,7.1-0.4,10.7c0,1,0,2-0.1,3c-0.3,2.3-1.2,2.9-3.4,2
			c-0.7-0.3-1.4-0.7-2-1.2c-0.9-0.7-1.8-1.5-2.8-2.4c0.4-6.4,0.3-12.9-0.7-19.8c-0.9,1-1.5,1.5-1.9,2.1c-3,4.7-7.1,8.5-10.9,12.5
			c-2.5,2.6-4,2.7-7,0.6c-0.5-0.3-0.9-0.8-1.4-1.1c-1.8-0.9-2.5-2.5-2.5-4.4c-0.1-5.2-0.4-10.5-0.1-15.7c0.5-11.5,2-22.8,3.7-34.2
			c0.3-2.2,0.7-4.3,1-6.4c0.2-1.6,0.3-3.1,0.6-5.3c-0.8,0.8-1.3,1-1.5,1.4c-4,6.6-7.9,13.2-11.2,20.2c-2.9,6.1-5.9,12.1-8.7,18.2
			c-2.2,4.8-4.3,9.8-5.2,15.1c-0.5,3.1-2.5,3.9-5.1,2.2c-0.2-0.1-0.3-0.2-0.5-0.4c-3.2-2.6-3.3-2.7-2.5-6.9c0.6-3.1,1.3-6.2,2-9.3
			c0.1-0.7,0.2-1.3,0-2.2c-0.4,0.7-0.9,1.3-1.3,2c-2.2,3.7-4.3,7.3-6.5,11c-0.4,0.6-0.8,1.1-1.3,1.6c-1.5,1.5-3,1.7-4.8,0.7
			c-1.2-0.7-2.3-1.5-3.5-2.2c-1.2-0.7-1.9-1.6-2.4-2.9c-1.2-2.9-1.5-5.9-1.6-9c-0.1-1.6-0.1-3.2-0.1-4.7c0-1.6,0-3.1,0-5.4
			c-0.9,1.1-1.4,1.6-1.8,2.2c-4.1,6.6-8.3,13.2-12.4,19.9c-0.2,0.3-0.3,0.5-0.5,0.7c-3.2,4.3-6.3,5-11.2,1.7
			c-2.1-1.4-3.2-3.2-3.5-5.6c-0.2-2.2-0.3-4.3-0.4-6.5c-0.1-1.3,0-2.7,0-4.7c-1.3,1.4-1.8,2.4-2.4,3.4c-2.9,5.4-5.8,10.8-8.8,16.1
			c-0.3,0.5-0.6,1-1,1.5c-1,1.2-2.3,1.9-3.9,1.1c-1.7-0.8-3.4-1.6-4.9-2.6c-0.6-0.4-1-1.3-1-2c-0.3-2.6-0.6-5.3-0.5-8
			c0.1-3,0.7-6.1,1.1-9.1c0.5-4.1,1.2-8.2,1.5-12.3c0.8-9.3,2.6-18.4,4.2-27.5c0.6-3.3,0.8-6.7-0.3-10c-0.4-1.2-1-2.3-1.6-3.5
			c-2.3,0.6-3.6,2-4.9,3.5c-3,3.5-5.5,7.3-7.5,11.4c-3.9,8.1-7.4,16.4-9.4,25.2c-1.3,5.9-2.6,11.8-3.7,17.7c-0.8,4.7-1.3,9.4-2,14.1
			c-0.3,2.3-1.2,2.8-3.4,2.1c-2.1-0.7-3.5-2.3-4.8-3.8c-0.5-0.6-0.4-1.9-0.3-2.8c0.9-6.3,1.9-12.5,2.7-18.7
			c0.8-5.6,1.4-11.2,2.1-16.8c0.1-1,0.1-2,0.2-3.6c-0.6,0.9-1,1.2-1.2,1.7c-3.4,8.3-6.7,16.7-10.2,25c-2.6,6-5.5,11.8-8.4,17.7
			c-0.5,1-1.2,1.8-1.8,2.7c-2.4,3.2-4.8,6.5-7.4,9.6c-2.7,3.3-5.5,6.4-8.3,9.6c-0.3,0.3-0.6,0.5-0.9,0.8c-3.9,3.1-6.7,3.5-11.1-1
			c-0.7-0.7-1.1-1.8-1.4-2.8c-1.4-5.2-1-10.6-0.8-15.9c0.3-8,2-15.9,3.5-23.7c1.3-6.8,2.4-13.6,3.6-20.4
			C41.6,95.7,41.5,95,41.4,94.1z M43.2,157.9c0.6,0,0.8,0,0.9-0.1c0.3-0.2,0.6-0.5,0.9-0.7c4-3.4,7.3-7.4,10.6-11.5
			c5.7-7.1,9.6-15.2,13.2-23.4c4.6-10.8,8.9-21.7,13.3-32.6c1.7-4.3,3.3-8.6,4.9-13c0.6-1.6,0.8-3.2,0.3-4.9c-0.5,0.1-0.9,0-1.3,0.1
			c-5.5,2.3-11,4.4-16.4,6.9c-5.2,2.4-10.2,5.2-15.4,7.6c-1.6,0.7-2.2,1.7-2.4,3.3c-0.6,4.4-1.2,8.8-1.9,13.2
			c-2.1,13.5-4.2,26.9-6.3,40.4C43,148.1,43,152.9,43.2,157.9z M305,147.2c1.5,0.7,2.9,1.1,3.9,2c3.2,2.8,7.1,3.9,11.1,4.7
			c6.2,1.2,11.4-2.8,10.4-9.9c0-0.2-0.1-0.4-0.1-0.6c-2.2-11.9-6-23.3-10.3-34.6c-0.1-0.3-0.4-0.6-0.9-1.4c-0.2,1.5-0.4,2.6-0.4,3.7
			c-0.2,6.3-1.1,12.6-2.5,18.8c-1.3,5.7-4.1,10.4-8.3,14.4C307,145.1,306.1,146,305,147.2z M250.9,113c3.2-0.2,6.1-0.7,8.8-1.9
			c9.4-4.3,15.5-11.4,18-21.4c0.9-3.5,0.9-7-1.1-10.2c-2.6,0-3.9,0.4-6.7,2.3c-8.9,5.9-15,13.9-18.2,24
			C250.9,107.9,250.2,110.2,250.9,113z M166.9,76c-0.2-0.1-0.3-0.2-0.5-0.3c-0.3,0.3-0.6,0.5-0.8,0.8c-5.8,8.3-12.2,16.2-16.9,25.3
			c-4.2,8.1-6.4,16.5-6.2,25.6c0,0.5,0.2,1.1,0.4,1.9c0.5-0.8,0.9-1.2,1.2-1.7c3.3-5.3,6.7-10.5,9.9-15.8c2-3.5,3.8-7.1,5.4-10.8
			c2.9-6.6,4.4-13.7,6.4-20.6C166.2,78.8,166.5,77.4,166.9,76z M250.7,85.5c0.4-1.2,0.9-2.4,1.3-3.5c1.5-4.6,3.1-9.1,4.4-13.8
			c1.4-5.2,2.2-10.6,3.6-15.8c2-7.8,3-15.6,1.6-23.7c-0.2-1.3-0.5-2.5-1.1-4C254.4,44.8,253.1,65.2,250.7,85.5z M102.3,15.6
			c-1.8,8.1-1.3,16.4-1.9,24.6C102,32.1,104,24,102.3,15.6z"/>
		<path fill="#FFFFFF" d="M400,37.5c0.5-7.4,12,0.7,11.1,3.7c0.5,31.9-9.1,93.2-9.1,93.2s-2.5,3.3-4.5,1.8c-1.9-1.4-2-5.3-1.7-8
			c1-7.6,3.6-65.8,3.9-73.6c0.1-3.8-0.1-7.5-0.1-11.3C399.5,41.5,399.8,39.5,400,37.5z"/>
		<path fill="#FFFFFF" d="M403.6,149.4c-0.2-0.2-0.4-0.4-0.7-0.6c-0.1-0.1-0.1-0.2-0.2-0.4c-1.1-1.7-3-2.7-5.1-2.5
			c-2.1,0.1-3.9,1.3-4.5,3.1c-0.6,1.6-0.1,3.5,1.3,4.7c0.8,0.8,1.9,1.2,3.1,1.4c0,0,0.1,0.1,0.1,0.1
			C398.3,155.9,405.3,151.1,403.6,149.4z"/>
	</g>
</g>
<g id="page_elelments">
</g>
</svg>
