<?xml version="1.0" encoding="utf-8"?>
<!-- Generator: Adobe Illustrator 18.1.1, SVG Export Plug-In . SVG Version: 6.00 Build 0)  -->
<svg version="1.1" xmlns="http://www.w3.org/2000/svg" xmlns:xlink="http://www.w3.org/1999/xlink" x="0px" y="0px"
	 viewBox="0 0 620 190" enable-background="new 0 0 620 190" xml:space="preserve">
<g id="Layer_4">
</g>
<g id="Layer_1">
</g>
<g id="Layer_5" display="none">
</g>
<g id="lettering">
	<g>
		<path fill="#FFFFFF" stroke="#FFFFFF" stroke-width="1.4142" stroke-miterlimit="10" d="M514.4,119.8c-0.9,1-9.4,7.9-10.2,8.7
			c-2,2.3-4.1,4.6-6.8,6.2c-2.2,1.3-4.4,1.5-6.9,1.3c-2.5-0.3-4.8-1.4-7-2.5c-0.7-0.3-1.3-0.7-1.8-1.3c-4-4.8-7-10-6.7-16.5
			c0-0.4,0.1-0.7,0.2-1.2c0.3-0.2,0.6-0.4,1-0.5c5.7-1.1,6,0.3,6.7,4.9c0.4,2.5,1.1,5,1.8,7.4c0.2,0.9,0.8,1.6,1.4,2.7
			c3.1-3,5.4-6.1,6.4-10.2c2.4-9.8,2.8-19.8,3.1-29.8c0-1.7,0.2-3.4,0.3-5.1c0-1.1,0-2.2,0-3.8c-1.6,2-3,3.5-4.2,5.1
			c-3.4,4.3-7.6,7.6-12.5,10c-0.2,0.1-0.3,0.2-0.5,0.3c-3.6,2.3-7.5,3-11.8,1.6c-0.2,0.8-0.5,1.5-0.6,2.2c-1,6.5-2,13.1-4.2,19.3
			c-2,5.5-4.6,10.7-7.6,15.7c-3.1,5.4-9.5,7.2-15.4,3.7c-3.9-2.3-6.5-5.4-7.3-10.1c-0.1-0.5-0.3-0.9-0.6-1.8
			c-0.6,0.9-1.1,1.5-1.5,2.2c-3,5.1-6.6,9.6-11.5,12.8c-3.2,2.1-6.4,2.5-10,1c-6-2.5-9.7-7-10.7-13.6c-0.1-0.7-0.3-1.5-0.5-2.3
			c-1.2,0.2-2.1,0.9-3,1.5c-1.1,0.7-2.1,1.5-3.3,2.1c-2.7,1.5-5.2,0.6-7.1-2.3c4.2-2.5,7.9-5.7,11.6-9c1.5-1.4,2.4-2.9,2.7-5
			c1.1-9.1,3.4-18,5.9-26.7c3.4-11.7,6.3-28.8,10.4-40.2c2.5-6.9,5.5-13.4,9.3-19.5c1.1-1.8,2.5-3.5,3.8-5.2
			c1.3-1.6,1.6-1.6,3.6-0.7c1.1,0.5,2.2,1.1,3.2,1.7c2.7,1.6,4.2,4.1,4.8,7.3c0.9,4.9,1,9.8-0.1,14.6c-3.9,20.5-30.6,70.3-32.6,72.5
			c-1,1.1-1.8,2.4-1.9,4c-0.3,4.8-0.3,9.6,1.6,14.2c0.5,1.2,1.1,2.4,1.8,3.5c1.2,1.6,2,1.7,3.8,0.7c3.2-1.9,5.8-4.4,7.9-7.4
			c4.3-6.3,8.7-12.6,11.9-19.7c1.4-3.1,2.6-6.3,3.8-9.4c1.8-4.6,3.7-9.2,6.1-13.6c3-5.4,6.4-10.5,10-15.6c0.9-1.2,1.9-2.3,2.7-3.6
			c1.3-2,3-2.2,5.1-1.6c5.5,1.4,9.3,7.1,9,12.9c-0.2,3.5-0.6,7-0.9,10.4c-0.1,0.9-0.1,1.8-0.2,2.8c1.8,0.1,3.2-0.4,4.5-0.9
			c6.6-2.6,12-6.9,16.2-12.8c3.1-4.4,6.2-8.9,7.6-14.3c0.3-1.2,0.6-2.3,0.9-3.5c1.8-0.7,3.2,0.1,4.6,0.7c1,0.4,1.2,1.4,1.2,2.4
			c0.1,2.5,0.4,4.9,0.3,7.4c-0.1,10.3-0.2,20.6-0.6,30.9c-0.2,4.3-0.9,8.6-1.5,12.9c-0.4,2.8-1.2,5.5-2.9,7.9
			c-0.7,1-1.2,2.2-1.7,3.4c2.5-2.1,19-13.6,19.6-21.7c0.5-7.1,2.5-16.7,4.4-23.6c0.8-2.8,1.3-8.2,2-11.2c-2.2-1-13.8-1.2-13.8-1.2
			s0-2.7,0.8-3c0.8,0.5,10.5-0.9,11.3-0.7c1.8,0.6,2.4,0,2.9-1.9c1-4.3,0.8-3.3,2-7.6c1.2-4.2,2.7-8.2,4-12.4c0.5-1.7,1-3.4,1.4-5.2
			c2.3-0.2,4.1,0.7,5.7,2c1.1,0.9,1.1,2.3,1,3.7c-0.4,3.8-1.5,7.4-2.7,11c-1.2,3.8-1.2,3.7-2.3,7.5c-0.3,1.1-0.4,2.2-0.7,3.3
			c2.6,0,5,0.1,7.3,0c7.3-0.5,14.7,1.4,22,0.8c1.7-0.1,3.3,0.1,4.8,0.9c0.4,0.2,0.9,1,0.8,1.2c-0.2,0.5-0.8,1.1-1.3,1.1
			c-9.6,0.7-19.2-1.1-28.8-0.4c-1.8,0.1-3.6,0.4-5.6,0.5c-0.2,0.7-0.4,1.3-0.6,1.9c-1.9,6.5-3.2,18.4-4.2,25
			c-0.5,3.3-1.3,6.7-1.9,10c-0.2,1-0.4,2-0.5,3.1c-0.3,3.5-0.7,7-0.9,10.5c-0.2,3.6,0.4,7.2,1.1,10.7c1.3,6.6,3.3,12.9,6.6,18.8
			c0.8,1.5,1.7,2.9,3.2,4c1.6-1.1,2.8-2.6,3.8-4.3c1.7-2.9,3.3-5.8,5-8.7c0.9-1.6,2.4-1.1,1.6,0.8c-1.1,2.6-2.1,5.2-3.2,7.8
			c-0.2,0.6-0.4,1.2-0.6,1.9c-1.3,3.8-4.3,5.7-8.2,4.9c-3.7-0.8-6.7-2.7-8.7-6c-3.2-5.4-5.9-11.1-7-17.4
			C516.1,132.1,515.2,123.2,514.4,119.8z M454.6,81.9c-0.5,0.6-1,1-1.3,1.5c-1.3,2.1-2.6,4.1-3.8,6.2c-4.3,7.6-7.2,15.7-9.1,24.2
			c-1.2,5.4-1.5,10.8-1,16.3c0.3,2.6,1.5,4.8,3.4,6.5c2-0.4,3.3-1.8,4.3-3.4c3-5.2,5.8-10.5,7.7-16.2c2.2-6.6,3.2-13.5,4.4-20.4
			c0.5-2.8,0.6-5.2-1.2-7.7C456.5,86.8,455.7,84.3,454.6,81.9z M407.1,104.4c0.2,0.1,0.3,0.1,0.5,0.2c0.8-1.1,1.7-2.2,2.5-3.4
			c2.8-4.3,20.4-52.7,21.8-57.5c1.4-4.8,1.8-9.8,1.8-14.8c0-1,0-2-0.9-2.8c-0.3,0.3-0.6,0.5-0.7,0.7c-3.8,4.8-6.2,10.5-8.5,16.1
			c-3,7.2-5,20.2-7.2,27.7c-2.2,7.5-4,14.9-6.2,22.4C408.9,96.7,408.1,100.6,407.1,104.4z M460.6,83.7c0.9-2.8,1-4,0.3-6.3
			C460.4,79.5,459.9,81.4,460.6,83.7z"/>
		<path fill="#FFFFFF" stroke="#FFFFFF" stroke-width="1.0703" stroke-miterlimit="10" d="M90.3,62.4c2.4-0.4,4.9-0.7,7.3-1.1
			c2.5-0.4,5.1-0.8,7.6-1.4c3.6-0.8,6.7,0.8,9.7,2.7c0.8,0.5,1.4,1.7,1.8,2.8c0.4,1.2,0.8,2.5,0.8,3.8c0.2,6.4,0.6,12.7-0.4,19.1
			c-1.1,7.4-2.3,14.9-3,22.4c-0.4,3.7-0.1,7.6,0.4,11.3c0.4,3.1,2.4,5.1,4.8,6.7c2.5-1.6,3.8-4.3,5.1-6.9c4-8.2,6.8-16.9,8.4-26.1
			c0.7-3.7,1.5-7.4,2.2-11c1.6-9,3.2-18,4.8-27.1c0.2-0.9,0.2-1.9,0.3-3.1c2.4-0.8,4.3,0.5,6.2,1.8c1.7,1.1,2,2.9,1.8,4.9
			c-0.2,2.2-0.4,4.5-0.7,6.7c-2,12.9-1.9,25.9-0.9,38.9c0.9,11.4,3.6,22.3,8.1,32.5c1,2.2,1.9,4.4,2.8,6.7c0.3,0.7,0.3,1.9-0.1,2.6
			c-0.6,1-1.6,0.9-2.5,0.3c-2.7-1.6-5-3.2-6.2-6.9c-2.6-7.5-5.8-14.6-7.3-22.5c-0.8-4.3-1.4-8.6-2.1-12.9c-0.2-1.1-0.3-2.2-0.5-3.9
			c-1.1,1.4-1.2,2.7-1.4,3.8c-1.6,7.5-4.5,14.4-7.9,21c-0.6,1.1-1.3,2.1-2.1,3.1c-1.9,2.5-4.4,3.1-7,2.1c-4.1-1.6-7.9-4.1-11.1-7.5
			c-2.9-3.1-4.5-7-5-11.5c-0.9-7.8-0.4-15.5,1.6-23.1c1.7-6.6,3-13.2,3.4-20.1c0.1-1.1-0.2-2.3-0.3-3.7c-5.6,0.6-10.8,3-16.7,1.2
			c0.3,1.4,0.3,2.4,0.6,3.1c2.4,5.3,2.5,11.1,3.6,16.8c2,10.6,0.2,20.9-1.1,31.3c-0.4,3-1.9,5.9-3.1,8.8c-0.6,1.6-1.8,2.9-2.4,4.6
			c-1.8,5.1-6.6,5.7-9.9,4.3c-7-3.1-11.9-8.4-12.8-17.4c-0.3-3.2-0.4-6.3-0.6-9.5c-0.1-3.3-0.2-6.7-0.9-10.2
			c-1.1,3.2-2.2,6.4-3.2,9.7c-1.7,5.7-3.3,11.4-5.1,17.1c-0.8,2.5-0.9,4.9-0.5,7.6c1.5,9.2,3.5,18.3,3.5,27.7
			c0,4.2-0.2,8.5-0.7,12.7c-0.6,5.4-3.7,7.6-8.3,6.4c-2.2-0.6-3.8-1.8-4.5-4.6c-1.5-5.3-1.6-10.7-1.3-16.1
			c0.3-6.4,1.6-12.6,3.1-18.7c1-4,1.1-7.8,0.2-11.8c-1.4-6.2-2.5-12.4-3.7-18.7c-0.2-1.3-0.6-2.5-0.9-4.1c-1,5.1-1.9,10-3.1,14.7
			c-1,4-2.3,7.8-3.5,11.7c-0.2,0.5-0.5,1.1-0.7,1.6c-2.7,4.7-5.5,5.7-10.1,3.9c-6.9-2.8-11.8-7.8-13.8-16.3
			c-1.9-7.8-3.4-15.6-3.8-23.6c-0.2-4.5-0.5-9-0.4-13.4C8.9,81,9.4,76.5,9.8,72c0.1-0.9,0.4-1.8,0.7-3c3.6,0,6.5,1.6,9.1,4
			c1.2,1.1,1,2.7,0.9,4.3c-0.3,6.1-0.7,12.3-0.7,18.4c0,6.6,0.5,13.2,1.7,19.7c0.6,3.3,1,6.7,1.8,10c0.5,2.3,1.4,4.4,2.3,6.5
			c0.5,1.2,1.6,2.1,2.4,3.1c1.8-1.1,2.8-2.5,3.7-4.1c3.2-6.1,5.5-12.7,6.6-19.7c0.9-5.7,1.8-11.4,2.4-17.1c0.3-2.5,0.2-5.2-0.2-7.7
			c-1.1-7-0.7-13.9,0.2-20.7c3.3-1.5,5.8-0.1,6.1,3.6c0.2,2.3,0.4,4.7,0.3,7.1c-0.3,7.6,0.7,15.1,2.5,22.4
			c1.5,5.9,2.7,11.9,4.1,18.3c0.4-0.9,0.8-1.4,1-2c3.8-12.7,8.5-25.1,13.3-37.4c2.3-5.9,4.7-11.8,7.1-17.7c0.7-1.8,1.8-3.5,2.7-5.2
			c0.9-1.8,2.4-2.3,4-1.7c2.3,0.9,4.8,1.3,5.6,4.8C87.6,59.5,89.2,60.8,90.3,62.4z M84.8,63.4c-0.4,0.7-0.7,1.1-0.9,1.7
			c-0.6,1.6-1.2,3.2-1.8,4.9c-3.4,10.6-5.3,21.5-6.4,32.7c-0.7,6.8-0.8,13.4,0.7,20c0.7,3,1.7,5.7,3.3,8.6c2.1-2,3.4-4.4,4.6-6.8
			c4.1-8.5,6-17.8,6.2-27.5c0.3-9.9-1.1-19.8-3-29.5C87.1,65.8,86.6,64.4,84.8,63.4z M52.1,175.7c1.9-5.8,1.4-20.6-0.6-24.4
			C49.8,159.5,49.1,167.6,52.1,175.7z"/>
		<path fill="#FFFFFF" d="M570.6,133.7c-0.2-0.2-0.4-0.3-0.7-0.5c-0.1-0.1-0.1-0.2-0.2-0.3c-1.1-1.5-2.9-2.3-4.9-2.1
			c-1.9,0.2-3.5,1.4-4,3.1c-0.4,1.5,0.1,3.2,1.4,4.3c0.8,0.7,1.8,1,2.9,1.1c0,0,0.1,0.1,0.1,0.1C565.9,140,572.3,135.2,570.6,133.7z
			"/>
		<path fill="#FFFFFF" d="M591.1,130.8c-1.5-1.8-4-2.5-6.3-2c-1.3,0.3-2.2,1.9-1.8,3.2c0.1,0.3,0.3,0.6,0.4,0.8
			c-0.1,0.4-0.2,0.8-0.2,1.2c0,1.1,0.4,2.2,1.1,2.9c1.1,1.1,2.7,1.1,4.1,0.6c1.3-0.5,2.3-1.2,3.1-2.3c0.4-0.6,0.7-1.3,0.8-2
			C592.2,132.3,591.6,131.5,591.1,130.8z"/>
		<path fill="#FFFFFF" stroke="#FFFFFF" stroke-width="1.8601" stroke-miterlimit="10" d="M610.4,136.1c-1.6,0.3-2.8,0.6-4,0.7
			c-0.7,0-1.4-0.3-2.1-0.5c-0.6-0.3-1.2-0.7-1-1.5c0.2-0.7,1.1-1.3,1.9-1.2c1.1,0.2,2.2,0.4,3.3,0.6
			C609.4,134.4,609.9,135,610.4,136.1z"/>
		<path fill="#FFFFFF" stroke="#FFFFFF" stroke-width="2" stroke-miterlimit="10" d="M359.5,135.5c-17.9-2.9-27.2-20.5-29.7-36.7
			c0.1,0,0.1-0.1,0.2-0.1c1,0.5,2.3-0.7,3.5-1.6c7-5.6,19.6-19.9,25-29.8c2.5-4.5-6.3-3.3-8.9,1.1c-5.8,9.3-16.9,22.3-20.1,23.2
			c-0.3,0.1-0.5,0.3-0.7,0.5c-0.3,0.1-0.6,0.1-0.9,0.2c1.8-8.2,3.5-16.1,5.2-24c0.8-3.6,1.6-7.2,3.1-10.5c1.4-3.2,2.6-6.5,3.8-9.8
			c1.8-5,3.4-10.5,2.7-15.8c-0.1-0.6-0.2-1.3-0.3-1.9c-0.4-3.5-1.9-4.8-5.8-5.2c-0.3,0.9-0.6,1.7-0.8,2.5c-2,6-3,12.3-3.9,18.6
			c-0.9,6.5-3,12.5-6.6,18c-0.8,1.2-1.6,2.3-2.2,3.5c-2.2,4.4-9.6,7.6-13.7,10.3c-1,0.7-2.2,1.3-3.4,2c-0.8-1.4-1.5-2.6-2.2-3.7
			c-1.3-2.1-2.8-4-5.3-5c-2.7-1.1-1.6-1.7-4.4-1.7c-2.8,0.1-3.8,0.7-4.4,3.2c-0.4,1.4-0.9,2.8-1.4,4.1c-1.4-0.4-2.6-0.7-3.8-1.1
			c-1.8-0.6-3.3-0.3-4.9,0.9c-3.3,2.6-7.1,4.1-11,5.5c-1.1,0.4-2.3,0.5-3.5,0.8c-0.3-1.1-0.6-2-0.9-2.8c-0.5-1.6-1.4-3-2.7-4.1
			c-4.1-3.5-8.9-4.5-14.1-4.7c-0.9,0-1.6,0.2-2.1,1c-1.5,2.5-3.3,4.9-4.5,7.6c-1.7,3.9-3,7.9-4.3,11.9c-2.1,6.3-2.1,14.7-5.3,20.6
			c-2.6,4.8-4.7,9.8-7.8,14.3c-2.2,3.1-4.8,6.6-8,8.7c-3.3,2.2-8.5,1.7-8.8-3.4c-0.4-7.6,1-15,2.6-22.4c0.2-1.1,1-2.1,1.8-3
			c2.9-3.3,14.6-44.1,20-58.7c3.2-8.5,12.7-31.7,2.7-38.1c-1.9-1.2-5.3,2.2-7,3.7c-0.4,0.4-0.8,0.8-1.3,1c-2.3,1-3.4,2.9-4.3,5.1
			c-1.9,4.5-3.9,9-5.5,13.5c-8.8,23.9-9,47.5-14.2,72.3c-0.1,0.6-0.6,1.1-1,1.6c-2.4,3.2-8.4,6.7-12.5,7.4c-0.2,0-0.4,0.3-0.6,0.5
			c0.7,1.3,2.1,1.5,3.2,2.1c2.6,1.4,5.1,0.4,7.8-0.2c0.1,0.6,0.2,1,0.2,1.3c0,2.7,0,5.3-0.1,8c0,3.3,0.5,6.6,1.6,9.7
			c0.9,2.5,2.5,4.6,5.1,5.5c1.5,0.5,3,0.8,4.5,1.1c1.6,0.3,3.2,0,4.4-1.1c1.9-1.7,3.7-3.5,5.5-5.4c1.4-1.5,2.5-3.2,3.7-4.8
			c1.9-2.6,3.7-5.2,5.5-7.9c0.9-1.3,1.6-2.6,2.7-4.6c0.2,1.8,0.4,2.9,0.5,4c0.2,2.2,0.2,4.4,0.5,6.6c1,7.1,4.8,10.9,11.8,12.3
			c4.2,0.9,7.4-0.3,10.1-3.4c7.3-8.3,11.4-18.1,12.3-29c0.6-6.5-0.2-13-0.3-19.6c0-0.9-0.1-1.8-0.2-2.8c2-0.4,3.8-0.8,5.5-1.3
			c1.8-0.4,3.5-1.3,5.6-1.6c-0.1,0.9-0.2,1.4-0.3,1.9c-0.4,1.4-1,2.8-1.3,4.2c-2.4,9.7-4.1,19.4-3.9,29.4c0.1,3.6,0.6,7.1,1,10.7
			c0.2,1.8,0.9,3.6,2.5,4.8c3.4,2.5,7.2,3.9,11.4,2.2c1.9-0.8,3.7-1.7,5.4-2.8c12.8-8.4,18.9-35.2,15.5-49
			c4.4-2.7,12.5-9.1,16.6-11.6c0,0.3,0.1,0.7,0.1,1c-1,4.4-2,12.7-3,17.1c-0.1,0.4-0.3,1-0.6,1.2c-1.1,0.5-0.9,1.5-0.9,2.4
			c0,1.4,0,2.8-0.2,4.1c-0.5,2.6-1.1,5.2-1.7,7.8c-1.5,6.3-3,12.5-4.3,18.8c-0.9,4.4-1.6,8.9-2.2,13.3c-0.3,2,1.3,3.6,3.4,3.9
			c1.6,0.2,2.5-0.7,2.9-2.9c0.1-0.4,0-0.7,0.1-1.1c0.4-2.8,0.7-5.7,1.3-8.4c1.3-5.8,3-18.3,5.6-23.4c0.1,0.1,0.2,0.2,0.3,0.2
			c0.1-0.2,0.1-0.4,0.2-0.6c5.8,15.6,17.6,32.4,35.3,34.4C370.9,142.7,363.2,136.1,359.5,135.5z M227.2,20.6
			c0.3-2.6,1.5-4.4,3.4-6.1c7.4,8.2-5.3,34.7-8.5,42.7c-1.3,3.2-7.9,32.9-8.4,32.7c-0.2-0.1-0.4-0.2-0.6-0.2
			C213.1,89.7,226.6,26.9,227.2,20.6z M252.8,75.9c0.2-0.8,0.2-1.9,1.2-1.8c0.7,0.1,1.5,0.7,1.8,1.3c1.4,2.5,2.2,5.2,1.8,8.2
			c-1.3,0.8-2.4,0.5-2.9-0.3C253.6,81,252,78.8,252.8,75.9z M259,104.4c-0.3,6.4-1.7,12.8-4.1,18.7c-1.7,4.1-5.2,13.7-10.4,14.2
			c-3.1,0.3-3.8-5.4-4-7.5c-0.8-6.6-1.4-13.2-0.1-19.8c1.2-5.9,2.7-11.8,4.2-17.6c0.9-3.3,2.2-6.4,3.4-9.6c0.2-0.4,0.4-0.8,0.8-1.5
			c0.7,0.6,1.2,1,1.6,1.5c1.7,1.6,3.6,2.8,5.8,3.6c2.7,0.9,2.7,1.1,2.8,4c0,2.7,0,5.3,0,8C259,100.3,259.1,102.4,259,104.4z
			 M295.3,73.2c1.4-2.5,2-2.6,3.4-0.3c1.6,2.7,2.7,5.5,2.8,8.8c-3,1.4-2,2-4.9,2c-2,0-2.8-0.8-3-2.7C293.1,78.2,294,75.5,295.3,73.2
			z M297.1,115.8c-2.6,4.3-7.5,17-12.4,17.9c-9,1.6-5.3-16.4-4.8-21.9c0.7-8.6,2.2-17.3,5.5-25.3c1-2.4,1.8-5,2.8-7.9
			c2.5,5.6,5.4,9.4,14.3,7.6c0.2,0.4,0.5,0.9,0.6,1.4C304,91.5,298.8,113,297.1,115.8z"/>
	</g>
</g>
<g id="page_elelments">
</g>
</svg>
