<svg xmlns="http://www.w3.org/2000/svg" width="210" height="420" viewBox="0 0 210 420"><path d="M1 189.82c-8.78-1.52-16-1.36-22.2-.07V387.4a37.62 37.62 0 0 0 30.41-7.71c12.4-10.35 16.91-28.83 11.49-44C68.2 333.62 120.1 210.4 1 189.82z" fill="#c6588a"/><path d="M73.89 261.7c-1.89 3.73-18.79 32.57-52.27 35.63-18.06 1.65-30-.51-42.82.12v89.95a37.62 37.62 0 0 0 30.41-7.71c12.4-10.35 16.91-28.83 11.49-44 29.72.16 54.4-39.61 53.19-73.99z" fill="#a3336b"/><path d="M23 247.94a1.5 1.5 0 0 0 0-3 1.5 1.5 0 0 0 0 3zM23.67 306.22a1.5 1.5 0 0 0 0-3 1.5 1.5 0 0 0 0 3zM62.12 267.87a1.5 1.5 0 0 0 0-3 1.5 1.5 0 0 0 0 3z" fill="#c4d9e8"/></svg>