<svg xmlns="http://www.w3.org/2000/svg" width="210" height="420" viewBox="0 0 210 420"><path fill="none" stroke="#f4e04e" stroke-miterlimit="10" stroke-width="13" d="M-25.52 186.06L8.54 210l-35.99 25.29M40.99-22.69L230.08 110.2"/><path fill="none" stroke="#5db2a5" stroke-miterlimit="10" stroke-width="13" d="M-20.34 157.12L54.91 210l-86.4 60.72M-19.62 30.23l291.8 205.06M6.76-15.09l223.32 156.94M89.78-20.65l140.3 98.59M168.13-24.9l61.95 43.53"/><path fill="none" stroke="#5db2a5" stroke-miterlimit="10" stroke-width="13" d="M-17.51 94.98l164.53 115.56-174.79 122.24"/><path fill="none" stroke="#c6588a" stroke-miterlimit="10" stroke-width="13" d="M-21.71 124.36L100.14 210l-128.51 90.31M-18.19-.13l278.22 195.52M130.79-22.44l99.29 69.78"/><path fill="none" stroke="#f4e04e" stroke-miterlimit="10" stroke-width="13" d="M-14.71 65.87l205.97 144.74-217.51 152.96M243.34 300.31L54.67 432.9"/><path fill="none" stroke="#5db2a5" stroke-miterlimit="10" stroke-width="13" d="M223.91 220.06L-22.75 393.39M228.66 278.69L.95 438.71M226.35 343.88L95.98 435.49M226.35 405.44l-49.21 34.58"/><path fill="none" stroke="#c6588a" stroke-miterlimit="10" stroke-width="13" d="M225.32 250.43L-15.96 419.99M236.4 368.09l-92.22 64.81"/></svg>