<svg xmlns="http://www.w3.org/2000/svg" width="720" height="1097.2" viewBox="0 0 720 1097.2"><path d="M536.69 971.06c15.49 98.61 95.13 192.93 95.13 192.93l-503.82 5.7s66.28-164.82 91-202.24c28.59-43.32 31.24-263.15 31.24-263.15l261.36 6.91s6.21 139.6 25.09 259.85z" fill="#37373f" stroke="#222229" stroke-linecap="round" stroke-linejoin="round" stroke-width="8"/><path d="M250.32 791.13c19.82 64.07 9.48 135.6 39.75 197.44 14.23 31.27 41.14 50.38 58.34 78.9 47.59 102.74 91.1 53.84 96-30.82 4.66-20.45 12-40.27 23.38-59 84.77-108.06 42-170.67 42-263.34 29.93-7.44-271.42-8.07-259.62-10.05 2.46-1.49-5.84 50.92.15 86.87z" fill="#c18f4d"/><path d="M257.75 869.08c73.41 197.86 248.92 86.46 259-5.52 1.74-15.75.37-49.19-.1-71.86-5.28-54.42-3-85.47-6.69-80.53l-259.77-6.87s-.83 68.3-6.51 136.26c5.32 9.15 9.53 18.98 14.07 28.52z" fill="#222229" opacity=".45"/><path d="M475.8 506.08s-31.29-23.72-67.27-21.76-118.75 14.15-125.87 10.94-34-37.85-46.52-43.88-64.73-18.38-124.25 3.15-99.79.35-104.06 10.75 80.83 75.07 87.59 68.2 17.34-11.61 19.11 2.55 12 27.43 31.15 38.17 32.16 29.43 35 45.76 33 183.75 68.32 200.61c0 0 50.63 81.62 79.9 92s100.77 19 126.39-12.59c0 0 42.95-15.1 41.08-71 0 0 60.73-138 62.81-176.33s-15-55.58-6.57-59.2 14.48 2.86 24.1-18.49 37.59-35 39.35-51.61c0 0 11.46 1 26.06-13.32s75.67-74.3 69-84.6S657 436 641.18 431.8s-136.7-24.28-146.93-3.12 7.46 16.91.22 30.88-17.83 18.7-18.67 46.52z" fill="#c18f4d"/><path d="M349.77 608.56c-26.43-26.29-71.1-39.5-103.26-25.78l-9 7.27c-38.29 65.79 53.47 4.08 62.36 51C304.63 660 292 685.6 302 697.38c62.44 6.9 82.85-52.38 47.77-88.82zM290.39 876.93c-11.85-53.36 8.41-75.1 2.47-112.63-7.05-39-40.73-24.51-60.09-48.23-14.57-14.66-24.45-29.68-41.2-43.18 32.72 141.6 37.87 120.3 99.19 206.09-.14-.68-.27-1.35-.37-2.05zM558.42 662.59c-20.28-19.07-41.17 45.21-51.74 50.35-29.58 24.65-107.57-44.86-5.38 106.42 12.89-29.99 49.77-117.79 57.12-156.77zM518.77 577.07c-52.08-87-170.49 92.15-84.47 106.52 18.52-20.12 11.22-70.26 44.64-77.08 18.6-2.8 30 12.67 47.74 15.33 26.63-10.92.69-34.91-7.91-44.77zM426.88 887.19c-16.06-2.75-38 4.43-53.72 7.57-7.61 1.51-26.83-3-34.58-2.57-6.69.35-17.24 5.39-23.88 9.58 4.74 3.83 10.57 10 14.67 11.44 29.27 10.38 100.78 19 126.4-12.58 0 0-4.88-5.83-4-6.23-9.12-6.26-13.77-5.31-24.89-7.21z" fill="#ddad73"/><path d="M711.19 425.53c-43.91 38.68-87.55 107.83-97.4 48.5-7.47-8.56-22.43.74-33.3-4.07-7.19-3.22-3-12 3.26-16.26-52.39-13.19-82.85 3.63-79.81 55.31 7.82-3.46 12.66 2.91 9.67 11.67 2.59-2.79 9.73-8.83 13.83-2.23 13.83-17.92 19.6-2.26 11.9 12.91 2.33-.06 5.83 2.68 6.06 6.72 23.59-1.72 12.56 16.84 17 27.68 16.51 18 37.9-21.73 49.45-30.86 5.54-7.08 2.73-12.07 7.81-11.1 26.67-4.8 102.84-96.2 91.53-98.27zM208.67 503.15c-1.59-6.41 1.81-9.18 9.82-9.21-2.85-6.66-2.13-15.17 8-16.11-21.42-21.76-91.22-21.32-108.17-.29 25.8 8.77 24.9 35.84-.86 12.93-2.18 11.14-5.24 24.42-14.37 35.34 1.9 0 8.22 2.35 9.53 4 31.8-30.4 10.09 19 15.63 31.87 9.2 9.67 27.77 16.94 37.37 28.83 4.34-8.89 6.83-46.94 21.37-36.44 12.24-21.06 2.21-47.36 30.73-31.47-.48-6.71-6.01-13.6-9.05-19.45z" fill="#482718" opacity=".41"/><path d="M411.73 714.8c-45.36-80.39-53.36-8-56.25 38.5 60.52-11.72 94.52 24.93 56.25-38.5z" fill="#37373f"/><path d="M552.65 593.46c7.8-3.36 13.57 1.94 22-14.18-36.41 18.35-97.85-65.9-96.68-90a75.2 75.2 0 00-2.18 16.76C423.52 460.63 309.38 505 280.69 494c-18-15.28-36.55-46.5-63.2-48.18 83.8 135.18-49.69 96.93-42.55 149.91 5.1 28 7.67 31 15.24 72.11 24.39-23.88 31.75-61.26 62.53-81.56 26.19-31.67 19.1-67 62.43-78 36-8.06 41.91 22.32 56.62 10.3 11.21-9.9 22.38-14.66 38.22-13.74 53.49 4.74 64.07 45 86.7 71.49 44.26 35.18 55.21 99.13 40.37 152.72 46.72-117.88 3.83-115.16 15.6-135.59z" fill="#37373f"/><path d="M475.8 506.08s-31.29-23.72-67.27-21.76-118.75 14.15-125.87 10.94-34-37.85-46.52-43.88-64.73-18.38-124.25 3.15-99.79.35-104.06 10.75 80.83 75.07 87.59 68.2 17.34-11.61 19.11 2.55 12 27.43 31.15 38.17 32.16 29.43 35 45.76 33 183.75 68.32 200.61c0 0 50.63 81.62 79.9 92s100.77 19 126.39-12.59c0 0 42.95-15.1 41.08-71 0 0 60.73-138 62.81-176.33s-15-55.58-6.57-59.2 14.48 2.86 24.1-18.49 37.59-35 39.35-51.61c0 0 11.46 1 26.06-13.32s75.67-74.3 69-84.6S657 436 641.18 431.8s-136.7-24.28-146.93-3.12 7.46 16.91.22 30.88-17.83 18.7-18.67 46.52z" fill="none" stroke="#222229" stroke-linecap="round" stroke-linejoin="round" stroke-width="8"/><path d="M476.79 775.74s18.71 35.18 17 56.53M294.4 791.73s-17.9 44.8-.19 91.2" fill="none" stroke="#222229" stroke-linecap="round" stroke-linejoin="round" stroke-width="3"/><path d="M386.57 761.64c25-1.21 59.92 6.53 65.86 29.67s1.82 37.05-11.52 47.8-31.68 17.45-35.54 24.49-12.14 8.27-19.61 3.31-33.6-5.92-50.09-31.77-8.53-70.62 50.9-73.5z" fill="#37373f" stroke="#222229" stroke-linecap="round" stroke-linejoin="round" stroke-width="8"/><path d="M420.23 787.35c-34.94-17.27-70.36 6.36-58.09 14.32 21 6.25 20.71 19.87 31.7 17.09 22.73-26.98 36.61-23.44 26.39-31.41z" fill="#fff" opacity=".27"/><path fill="none" stroke="#222229" stroke-linecap="round" stroke-linejoin="round" stroke-width="7" d="M392.73 840.19l3.8 29.62"/><path d="M370 817.52s-17.41 16.26-31.6 13.44c0 0 17.42 8.09 24.59 1.21 7.74-7.38 7.01-14.65 7.01-14.65zM448.9 818.7s-22.77 7-34.28-1.8c0 0 12.09 14.91 21.56 11.89 10.15-3.25 12.72-10.09 12.72-10.09z" fill="#fff" opacity=".27"/><path d="M422.82 821.71c-12-1.44 20.27 4.83 32.14-8.62M367.07 823.57s-13.26 11.73-34.68 5.48" fill="none" stroke="#222229" stroke-miterlimit="10" stroke-width="2.69"/><path d="M363.75 811.16c-7.05 0-13.93 6.59-5.73 12.38.24.56-5.64 3.6-4.34 6.57 8.59 1.89 30-14.9 10.07-18.95zm-.53 9.9c.11.09 0 .02 0 0zM430.94 820.24c-4-1-4.47 1.85-10.82-1.61 22-.67 2.72-20.23-7.49-8-6.03 12.87 24.7 16.28 18.31 9.61z" fill="#222229"/><path d="M101.79 528.53s12.66-26.48 11.68-32.07 18-4.07 23.71 4.26M616.1 523.36S602 513.33 604 498.81s-9-13.45-11.24-6.39" fill="none" stroke="#222229" stroke-linecap="round" stroke-linejoin="round" stroke-width="8"/><path d="M509.13 473.45s8.82-37.29 90.08-17.84M98 500.17s1.14-21.45 20.25-22.63 54.62-21.83 87.06-7.76" fill="none" stroke="#222229" stroke-linecap="round" stroke-miterlimit="10" stroke-width="2.69"/><path d="M314.21 903.29s11.41-16.36 44.93-8.48c12.17 2.86 51.06-9.53 62.83-7.5s28.39-.69 33.36 12.66" fill="none" stroke="#222229" stroke-miterlimit="10" stroke-width="3"/><path d="M341.4 892.67S398.55 938 443.84 890c0 0-20.65-4.53-34.34-2.1s-39.3 8.82-48.07 7.21-20.03-2.44-20.03-2.44z" fill="#482718" opacity=".41"/><path d="M310.16 841.91a1.5 1.5 0 000-3 1.5 1.5 0 000 3zM319.88 849.06a1.5 1.5 0 000-3 1.5 1.5 0 000 3zM307.76 858.82a1.5 1.5 0 000-3 1.5 1.5 0 000 3zM318.16 863.83a1.5 1.5 0 000-3 1.5 1.5 0 000 3zM327.16 855a1.5 1.5 0 000-3 1.5 1.5 0 000 3zM343.46 860.7a1.5 1.5 0 000-3 1.5 1.5 0 000 3zM326.35 867a1.5 1.5 0 000-3 1.5 1.5 0 000 3zM325 880.65a1.5 1.5 0 000-3 1.5 1.5 0 000 3zM309.21 878.38a1.5 1.5 0 000-3 1.5 1.5 0 000 3zM446.4 870.41a1.5 1.5 0 000-3 1.5 1.5 0 000 3zM457.29 865.92a1.5 1.5 0 000-3 1.5 1.5 0 000 3zM451.91 851.92a1.5 1.5 0 000-3 1.5 1.5 0 000 3zM463.58 847.92a1.5 1.5 0 000-3 1.5 1.5 0 000 3zM462.47 835.3a1.5 1.5 0 000-3 1.5 1.5 0 000 3zM478.48 840.48a1.5 1.5 0 000-3 1.5 1.5 0 000 3zM481.27 827.47a1.5 1.5 0 000-3 1.5 1.5 0 000 3zM471 855.51a1.5 1.5 0 000-3 1.5 1.5 0 000 3zM467.49 872.28a1.5 1.5 0 000-3 1.5 1.5 0 000 3zM460.54 880.64a1.5 1.5 0 000-3 1.5 1.5 0 000 3z" fill="#222229"/><path d="M288.6 819.25a58.32 58.32 0 00-46.66 25.55M292.68 828.41c-8.39-2.84-16.85-5.69-25.62-6.94s-18-.82-26.1 2.72M294 832.88l-14.16 1.7a62.74 62.74 0 00-8.94 1.51 31.61 31.61 0 00-15.53 9.76M307.61 840.89c-12.62-2.07-25.41 1.63-37.54 5.65-5.31 1.76-11 3.94-13.85 8.77M290.62 838.35a50.35 50.35 0 00-35.25-1.1M298.58 847.38l-13.24 3.29c-11.13 2.77-22.61 5.71-31.69 12.72M315.54 849.11c-6.68 3.27-14.44 3.57-21.29 6.45-5 2.12-9.4 5.55-13.5 9.15A158.35 158.35 0 00262.17 884" fill="none" stroke="#222229" stroke-miterlimit="10"/><path d="M300.46 857.62c-6.71-2.83-14.39-1.3-21.45.51q-6.93 1.77-13.77 3.83c-1.63.49-3.36 1.06-4.42 2.38M305.44 860A51.36 51.36 0 00280 880.76M313 865.38c-6.1 3-12.18 6.2-17.56 10.38-5.16 4-9.88 9.58-9.89 16.11M464.53 859.65c5.94 1.61 10.92 5.79 14.63 10.69s6.29 10.56 8.84 16.15M477.59 859.26c3.52.81 7.13 1.65 10.09 3.72a37.43 37.43 0 013.88 3.35c3.18 2.9 6.9 5.6 8.35 9.65M479.19 849.71l26.81 8.64c3.6 1.16 7.48 2.51 9.61 5.64M482.53 842.11a126.18 126.18 0 0123.84 7.58M478.75 832.67c6.41 2.81 13.3 4.31 19.93 6.55s13.2 5.41 17.72 10.75M483.66 828.68c5.48 2.57 11.48 3.81 17.24 5.68s11.52 4.53 15.37 9.2M482.89 819.36a61.33 61.33 0 0137.68-6.21M482.68 810.73a118.37 118.37 0 0140.4-7.47" fill="none" stroke="#222229" stroke-miterlimit="10"/><path d="M222.08 642.3s12.8-38.94 41.43-33.58 58.66 42.56 57.63 52.08-29.57 34.34-49.07 35-58.94-11.87-49.99-53.5z" fill="#37373f"/><path d="M292.72 656.24c-3.62 8.54-9 21-29.63 21.87s-25.86-4.62-29.6-11.57-10.53-26.87 4-37.15 40.62-16.29 49.9.56 7.61 21.05 5.33 26.29z" fill="#222229"/><path d="M280.73 631.64s-21.22-20.1-41.5 5.55 7.09 36.75 11.39 38.14 27.87.27 33.26-10.22 6.81-20.96-3.15-33.47z" fill="#443527"/><path d="M239.54 651.23c-.17-9.52 4.26-17.7 10.81-23.94a38.24 38.24 0 00-11.12 9.9c-17.1 21.63-.31 32.92 8 36.75a38.65 38.65 0 01-7.69-22.71z" fill="#fefdff" opacity=".3"/><ellipse cx="267.74" cy="649.78" rx="16.98" ry="17.7" transform="rotate(-72.08 267.724 649.77)" fill="#222229"/><path d="M442.85 637.15s6-31.39 30.78-36.63 48.88 12.78 51.1 31.68-8.86 54.31-24.56 57.19-68.12-11.81-57.32-52.24z" fill="#37373f"/><path d="M462.89 641.36s-.43-28.54 24.27-31.16 31.54 23.08 31.4 32.88-1.8 27.81-22.2 27.66-35.68-4.35-33.47-29.38z" fill="#222229"/><path d="M468.46 632.73s5.94-20.59 21.3-16.69 25.49 12.88 24.27 27.68-12 23.81-19.45 24.25-30.56-4.39-29.74-17.41 3.62-17.83 3.62-17.83z" fill="#443527"/><path d="M494.23 617.37a30.36 30.36 0 0113.7 23.25c.81 8.76-2.18 19.27-9 25.19a20.93 20.93 0 01-2.57 1.89c7.29-1.62 16.55-10.34 17.66-24 1.1-13.29-7.02-21.9-19.79-26.33z" fill="#fefdff" opacity=".3"/><circle cx="483.45" cy="641.22" r="15.85" fill="#222229"/><path fill="#fff" d="M265.42 644.46l-2.39 1.57 3.3 5.4 2.38-1.92-3.29-5.05zM260.67 648.62l-1.3 1.48 2.63 3.1 1.12-.91-2.45-3.67z"/><path d="M285.26 648.25l-4.49.58-.16 1.95s2.73 1.35 2.3 2.67 2.2 1.27 2.29-.13.06-5.07.06-5.07z" fill="#fff" opacity=".6"/><path d="M290.37 652.52s.53 3.06-2.23 6.88M292.25 656.08s-.41 3.09-1.72 4.27M281.52 668.2a3.42 3.42 0 004 1.3M268.78 676.84l-.67 2.05M229.1 657.24s2.9 13.89 10.9 17.58" fill="none" stroke="#fff" stroke-linecap="round" stroke-linejoin="round" stroke-width="1.01"/><path fill="#fff" d="M485.85 641.06l.74 4.89 2.79-.92.54-4.61-4.07.64zM491.78 639.9l.79 4.68 1.58-1.7.05-3.36-2.42.38z"/><path fill="none" opacity=".6" stroke-linecap="round" stroke-linejoin="round" stroke-width="1.01" stroke="#fff" d="M518.54 644.19l-.29 4.68"/><path fill="none" stroke="#fff" stroke-linecap="round" stroke-linejoin="round" stroke-width="1.01" d="M461.47 650.77l1.36-1.32M461.91 653.02l.99-.62M463.08 654.62l.37.73M465 648.29s-.06 2.57.43 3.24M466 653.08s5.81 10 10.59 12.29"/><path d="M480.19 666s3.54-1.71 3.63-.7-1.49 1.87-2.82 1.48-.81-.78-.81-.78zM488.09 666.49l-2.33.6s-.31 1.09 1.45.82.88-1.42.88-1.42z" fill="#fff"/><circle cx="479.82" cy="650.06" r=".73" fill="#fff" opacity=".6"/><path d="M464.57 640.84a3.58 3.58 0 01.2 3.32" fill="none" stroke="#fff" stroke-linecap="round" stroke-linejoin="round" stroke-width="1.01" opacity=".6"/><path d="M503.36 525.24a113.91 113.91 0 01-4.31 17M505.4 531.6l.61-1.76c-3.1 7-2.48 14-4.56 21.37a120.23 120.23 0 018.23-19.72M516.91 534.4a116.38 116.38 0 00-7.46 18.52M516.37 542.76q-4.39 6.91-8.25 14.14M526.62 551.84c-3.47 2.34-7.68 7-10.68 9.94 1.75-6.18 2-12.39 4.36-18.6M529.06 555.28a21.64 21.64 0 00-7.7 7.09M533.61 556.82a94.43 94.43 0 00-12 10.91M534 565c-1.92 2.93-6.26 3.71-7.53 7a83.51 83.51 0 017.36-11.51M540.1 573.3c-3.23.9-4.8 2.49-7.9 3.75q4.95-6 10.48-11.53c.38-.38 1.28-.54 1.21 0M495.66 521.68c-1 3.13-1.85 6.28-2.67 9.45M496.35 526.63a23.12 23.12 0 01-2.19 9.88M509.51 535.82a26 26 0 01-3.57 12.44M249.9 514.94a31.08 31.08 0 00-12.5 2.23M246.57 530.7c-3.5-.57-2.38-4.63-.43-4.93-2.68 0-2.57-2.13-5.25-2.41a34.11 34.11 0 0111.77-1.11M240.08 533.71a16.67 16.67 0 01-6.88-3.59 55.31 55.31 0 005.71 18M228.47 540.59a1.73 1.73 0 00-1.35 2.38c-.54 4.37 2.62 9.49 5.15 12.68M229.57 543.28c2.3 3.88 6.05 7.7 8.23 11.22M222.41 546.45a43.17 43.17 0 0010.52 21.37M225.74 570.05a14.43 14.43 0 01-7.44-12.45M205.9 552a9.64 9.64 0 004.27 8.51M204.22 557.65l13.48 9.69c-7.29-3.51-17.23-4.9-25.29-4.19M186.68 568.66a98.48 98.48 0 0113.94-.88c-6.14-.14-16.86 2.36-23 2.7M186.35 573.71a29 29 0 00-11.28 3M184.27 578.33a20.52 20.52 0 00-8.76 5.49M386.14 509.12a14.43 14.43 0 00-1 6.91M393.75 502.66l.33-1a36.11 36.11 0 00-2.27 12.25M400.94 499.78c.22.24.07.62-.08.91a15.06 15.06 0 00-1.43 9.33M345 506.37a53.92 53.92 0 014.55 9.92M353.36 507a17.05 17.05 0 012.64 9.8M428.64 634.65a38.08 38.08 0 009.92 15.17M435 629.14a37.59 37.59 0 001.67 10.58c.29.95.91 2.07 1.89 1.95M439 624.36c-.06-.2 0-1.05-.16-.48a55.76 55.76 0 01.49 8.66M444.35 611.19a6.84 6.84 0 000 7.87M456.93 600a26.9 26.9 0 00-.4 12.17M475.88 594.91c-2.91 2-9.14.43-11.07 3.39l.75-.82a14 14 0 00-3.72 11M471.75 603a1.29 1.29 0 01.4-.9 51.83 51.83 0 0111.72-10.44M479.55 599.6a25.62 25.62 0 0112.65-7.5M487.2 599.5a19.86 19.86 0 0117.35-4.5M491.16 603.39A21.8 21.8 0 01504 598.5c1.52-.06 3.27.16 4.13 1.42M501.09 604.1c.32-.93 1.59-1 2.56-.87a91.31 91.31 0 0113.88 2.82" fill="none" stroke="#f9f1ea" stroke-miterlimit="10"/><path d="M442.52 609.39c-1.07 0-1.5 1.37-1.59 2.43-.63 8.09 2.52 13.31 5.3 20.92-.33-12.82 2.36-30.83 13.67-39M437.72 620.35c-1.32-.29-2 1.51-2.12 2.86a92.43 92.43 0 00.73 20.76M428.56 631.62a94.92 94.92 0 00.21 20.08M423.51 651.21q2.57 7.13 5.83 14c1 2.08 2.35 4.39 4.63 4.72M432 657.5c.27-.1 7.59 11.77 9.53 12.35M434.5 655a26.35 26.35 0 008.75 4.72M463.78 689.87a14.16 14.16 0 007.48 12M471.89 693.24a11.44 11.44 0 004.69 9.2M478 694.34a40.25 40.25 0 008.39 10.8M490.89 696.39c1 2.5 2.86 3.4 5.39 4.31M495 696.88l7.26 3.91M486.24 699.71a2.86 2.86 0 001.27 1.35 17.33 17.33 0 007.78 2.75M501.87 694.78a11.22 11.22 0 008.71 2.5M238.61 609l5.41 1c.6.11 1.29 1 .7 1.12M252 608.66a23.82 23.82 0 00-6.55-3.88c4 2.27 13.55 2.14 16.39 5.81M270.82 612.29c.93-1.51-.3-3.4-1.56-4.64a34.7 34.7 0 00-8.53-6.15c-.29-.16 6.27-2.44 6.6-2.47a1.21 1.21 0 01.87.42 35.68 35.68 0 019.94 15.77M278.13 603.38c.59-.62 1.62-.06 2.25.53a23.86 23.86 0 017.14 14.29M289.23 602.37c4.73 2 7.78 6.86 9 11.87s.78 10.23.37 15.36M300.68 610.3a66.78 66.78 0 017 27M313.55 618.6a31.63 31.63 0 011.8 21.81M319.41 633.35a16.21 16.21 0 01.85 12.55M327.38 638.9a44.39 44.39 0 01-3.32 14.59c-1.62 3.9 1.84 8.71-1.8 10.85M318.4 647.71a21.88 21.88 0 01-2.84 7.93M307.16 613.78c.26 0 .37.32.41.57a233.9 233.9 0 013 26.64 45.16 45.16 0 01-.32 10.46" fill="none" stroke="#f9f1ea" stroke-miterlimit="10"/><path d="M279.64 609.34c5.64 1.68 14 9.36 17.83 13.86a19.36 19.36 0 00-7.69-11.52M326.08 662.84c1.37 1.73-1.71 3.8-.9 5.86-3.7.32-7-2.21-9.81-4.59M370.57 674.9c-.35 3.54 3 2.54 3.28 6.08M382.53 678.77a49.41 49.41 0 00-1.36 13.23M389.79 677.68a50.62 50.62 0 01-2 12.09M377.26 670.71l-.67 6.64M367.89 681.75c-.19-.37.33-.76.72-.64a1.63 1.63 0 01.8.89l4.25 8.35M392.09 684.86l-.45 10M288.69 685.83c-.35.07-2.55 8.69-4.54 12.53M295.5 685a54.19 54.19 0 01-2.73 9.27M302.16 680.06a80.68 80.68 0 01-1.6 9.9M303.66 668.39a26.13 26.13 0 016.51 14.85M270.06 695.84a9.12 9.12 0 01-5.79 8.59M263.15 696.4l-5 3.86M250.94 690a15.33 15.33 0 01-6.31 6.28M260 689.59a4.65 4.65 0 01-4.31 4.49M232.81 612.59a4.41 4.41 0 015.13 2.52M312.24 607.84a13.48 13.48 0 01.4 8.19M361.34 514.25l5.37 10.21M352 517.8a13.26 13.26 0 005.88 8.55M382.17 506.67c.41 3.1-.48 2.65-2 5.38a91.36 91.36 0 00-5.17 13.52M387.81 507.71l.33 2.06M328.5 502.19l6 7.31c2 2.41 5.9 1.43 6.35 4.51M359.81 726.19a13.63 13.63 0 01-9.38-1.28c2.31.92 8.17 7.65 10.49 8.56M357.18 743.52l-7.09-2.29zM419 736.19a84.31 84.31 0 005.6-6.51l-1.08 1c-1.17 1.11-4.33-3-5.29-1.7M356 739.65a10.31 10.31 0 01-1.54-3 13.69 13.69 0 015.19 3.77M420 720.26a49.47 49.47 0 01-3.44 9.67M413.75 710.39a16.68 16.68 0 01-5 8.16M478.48 765.11a43.51 43.51 0 0011.37 5.67M487.22 780a14.44 14.44 0 0012.3 3.07M305.93 797.79c.18.1.26-.31.06-.37s-.39.12-.53.27a39.4 39.4 0 00-4.6 6.43M308.58 806.66a33.48 33.48 0 01-8.52 10.4M273.67 811.51a68.35 68.35 0 004.65-17.51c0-.27 5.43-1 5.07 0 .23 4.19-1.15 8.58-2.4 12.52M249.16 771.77a61.22 61.22 0 01-11.94-1M235.66 780.22a43 43 0 0015.63 0c-2.56 1.43-3.1 7.59-5.92 8.4-1.9.54-4.5.64-5.29-1.18M514.51 746.37a29.89 29.89 0 01-8.62 10.73c1.7-1.74 7.56-.93 9.27-2.66-1.45 2.68-3.3 8.61-5.81 10.33M516.23 766.6a66.93 66.93 0 01-9.56 6.65M500.76 781.89a46.46 46.46 0 0015.34-6.09M324.85 766.6a9.8 9.8 0 00-9.85-1.37M322.1 771.63a54.22 54.22 0 00-17.83.83M445.12 759.25l16.88-6.92M451.23 761.79a14.05 14.05 0 017-.89M373.69 883.51l-3.48 7.17M384.79 882.19a20.11 20.11 0 00-1.28 5.46M393.46 881.08a5.94 5.94 0 001 3.22M399.87 879.6a4.83 4.83 0 011.75 3.19M411 874.27a9.75 9.75 0 012.39 5.46M423.59 865.31a33.75 33.75 0 012.77 6.35M433.21 861.52a45.1 45.1 0 004.14 7.87M442.05 874.35a30.31 30.31 0 002.57 6.11M424 877.7a21.68 21.68 0 012.32 7.66M435.27 875.65a22 22 0 013.79 9.88M365.71 873.08a44.91 44.91 0 01-3 7.84M359.65 887.28a13.66 13.66 0 00-1.14 6.49M357.86 901.88l-2 6.2M396.29 903.69l2.06 7M419.46 899.61a70.57 70.57 0 006 9.24M432.6 895.11c.3.08.43.42.53.72l1.88 5.79M436.67 892.89a22 22 0 014.5 6.39M427.13 899.32a7.33 7.33 0 011.95 5.08M410.57 897.62c1.26 2.87 1.42 6.29 3.47 8.66M401.44 899.65a17.3 17.3 0 012.4 7.35M406.93 901.63a16.36 16.36 0 01.36 7.13M388.65 902.67c-.06.05 0 .14 0 .21.66 3.35 1.18 6.74 1.55 10.14M382.92 906.29a23.2 23.2 0 00-1 4.58 4 4 0 00.18 2.06M376.55 903.11q-1.44 4.26-2.79 8.57M370.37 905.73l-2.24 6.95M363.44 900.33l-2.59 8a13.34 13.34 0 00-.71 2.83M354.08 900.47l-2.72 7.12M265.72 794.57c-4.37 4.43-8.84 9.16-10.61 15.13M264.85 798.92l-1.92 5.62" fill="none" stroke="#f9f1ea" stroke-miterlimit="10"/></svg>