<svg xmlns="http://www.w3.org/2000/svg" width="720" height="1097.2" viewBox="0 0 720 1097.2"><path d="M563 971.06c15.48 98.61 95.13 192.93 95.13 192.93l-503.85 5.7s66.27-164.82 91-202.24c28.59-43.32 31.24-263.15 31.24-263.15l261.36 6.91s6.22 139.6 25.12 259.85z" fill="#37373f" stroke="#222229" stroke-linecap="round" stroke-linejoin="round" stroke-width="8"/><path d="M276.61 791.13c19.82 64.07 9.49 135.6 39.75 197.44 14.23 31.27 41.15 50.38 58.34 78.9 47.59 102.74 91.1 53.84 96-30.82 4.66-20.45 12-40.27 23.38-59 84.77-108.06 42-170.67 42-263.34 29.93-7.44-271.42-8.07-259.62-10.05 2.47-1.49-5.84 50.92.15 86.87z" fill="#c18f4d"/><path d="M284 869.08c73.41 197.86 248.92 86.46 259.06-5.52 1.73-15.75.36-49.19-.1-71.86-5.28-54.42-3-85.47-6.69-80.53l-259.79-6.87s-.82 68.3-6.5 136.26c5.32 9.15 9.53 18.98 14.02 28.52z" fill="#222229" opacity=".45"/><path d="M474.74 488s-34.82-18.15-70-10.22-114.72 33.78-122.27 31.81-39.82-31.65-53.19-35.5-66.9-7.32-122 23.85-98.33 17-100.8 28 92.23 60.53 97.74 52.62 15.17-14.34 19.27-.67 16.38 25 37.08 32.43 36.63 23.65 42.19 39.27S266 825.18 303.67 835.91c0 0 63.54 72 94.13 77.36s102.53 1.91 122.52-33.51c0 0 39.82-22.06 28.65-76.85 0 0 36.83-146.23 32.49-184.33s-24.06-52.31-16.36-57.28 14.75.41 20.68-22.25S617 498.3 616 481.59c0 0 11.46-.94 23.46-17.48s62.21-85.89 54-94.94-51.64 19.47-68 18S486.56 386 480 408.58 490.18 424 485.38 439s-14.45 21.41-10.64 49z" fill="#c18f4d"/><path d="M367.59 610.06c-30.45-21.51-76.7-27.07-106.12-8.18l-7.64 8.67c-26.77 71.26 53.4-4.9 70 39.88 7.83 17.88-.34 45.23 11.47 55.18 62.7-3.61 72.96-65.48 32.29-95.55zM353.84 884.58c-20.58-50.63-4.24-75.45-16.36-111.47-13.47-37.26-44.26-17.36-67.3-37.52-16.82-12-29.06-25.18-47.83-35.69 55.9 134.15 57.42 112.29 132.2 186.64-.25-.65-.49-1.29-.71-1.96zM582.33 628.5c-23.18-15.42-33.05 51.45-42.61 58.28-25.05 29.22-113.55-26.27 12.47 105.83 7.69-31.72 29.4-124.45 30.14-164.11zM529 550.8c-65.87-77.07-152.71 119.32-65.5 119.12 14.9-22.92-.67-71.14 31.14-83.45 17.87-5.86 31.66 7.5 49.63 7.15 24.39-15.21-5.19-34.53-15.27-42.82zM490.13 871.91c-16.29 0-36.74 10.71-51.7 16.42-7.25 2.77-26.95 1.56-34.53 3.25-6.53 1.42-16.09 8.19-21.9 13.42 5.31 3 12.09 8.09 16.37 8.84 30.59 5.33 102.54 1.9 122.53-33.51 0 0-5.79-4.94-4.94-5.49-10.12-4.63-14.59-2.91-25.83-2.93z" fill="#ddad73"/><path d="M693.38 369.26c-36.84 45.46-68.32 120.94-87.93 64.08-8.81-7.19-22 4.48-33.52 1.55-7.62-2-4.94-11.31.5-16.58-53.85-4.26-81.08 17.42-69.45 67.85 7.12-4.71 13 .77 11.48 9.9 2.09-3.18 8.11-10.33 13.26-4.51 10.64-20 18.94-5.5 13.89 10.74 2.28-.44 6.19 1.68 7.1 5.62 23-5.63 15.19 14.5 21.42 24.45 19.29 15 33.74-27.76 43.6-38.68 4.28-7.91.68-12.36 5.85-12.25 25.42-9.19 85.29-112.01 73.8-112.17zM210.87 529.68c-2.64-6 .25-9.35 8.15-10.72-3.92-6.09-4.64-14.6 5.17-17.21-24.76-17.88-93.51-5.79-106.71 17.78 26.91 4.33 30.53 31.17 1.32 12.89-.3 11.35-1.1 25-8.27 37.24 1.86-.36 8.49.94 10.07 2.39 26.28-35.28 13.11 17 20.73 28.82 10.68 8 30.2 12.06 41.65 22.18 2.8-9.49-1.1-47.42 15-39.5 8.54-22.81-5.74-47.06 25-36.15-1.54-6.58-8.14-12.49-12.11-17.72z" fill="#482718" opacity=".41"/><path d="M446.41 704.47c-58.14-71.69-53.93 1-49 47.35 57.64-21.65 97.28 8.8 49-47.35z" fill="#37373f"/><path d="M565.1 561.3c7.13-4.61 13.7-.35 19.34-17.66C551.59 567.82 477 495 474.1 471.09a74.48 74.48 0 00.64 16.88c-59.13-36.07-164.26 26.76-194.39 20.66-20.3-12.06-43.8-39.75-70.36-36.95 105.2 119.29-32.8 103.86-16.92 154.91 9.71 26.77 12.74 29.26 27.06 68.55 20.07-27.61 21.07-65.7 48-90.86 20.53-35.59 7.65-69.22 48.53-87.33 34.13-14 45 15 57.54.7 9.4-11.63 19.63-18.19 35.39-19.93 53.53-4.25 70.68 33.64 97.42 56 49.51 27.3 71 88.51 65.3 143.84 26.43-123.99-15.41-114.15-7.21-136.26z" fill="#37373f"/><path d="M474.74 488s-34.82-18.15-70-10.22-114.72 33.78-122.27 31.81-39.82-31.65-53.19-35.5-66.9-7.32-122 23.85-98.33 17-100.8 28 92.23 60.53 97.74 52.62 15.17-14.34 19.27-.67 16.38 25 37.08 32.43 36.63 23.65 42.19 39.27S266 825.18 303.67 835.91c0 0 63.54 72 94.13 77.36s102.53 1.91 122.52-33.51c0 0 39.82-22.06 28.65-76.85 0 0 36.83-146.23 32.49-184.33s-24.06-52.31-16.36-57.28 14.75.41 20.68-22.25S617 498.3 616 481.59c0 0 11.46-.94 23.46-17.48s62.21-85.89 54-94.94-51.64 19.47-68 18S486.56 386 480 408.58 490.18 424 485.38 439s-14.45 21.41-10.64 49z" fill="none" stroke="#222229" stroke-linecap="round" stroke-linejoin="round" stroke-width="8"/><path d="M520.74 753.69s24.31 31.56 26.25 52.89M343.57 799.9s-10.16 47.17 15 90" fill="none" stroke="#222229" stroke-linecap="round" stroke-linejoin="round" stroke-width="3"/><path d="M429.42 754.85c24.46-5.37 60.18-3.57 69.89 18.26s8 36.22-3.37 49-28.33 22.54-30.94 30.13-10.6 10.18-18.79 6.53-34.11-.22-54.69-23-20.21-68.16 37.9-80.92z" fill="#37373f" stroke="#222229" stroke-linecap="round" stroke-linejoin="round" stroke-width="8"/><path d="M466.91 774.58c-37.34-11.2-68.32 18-54.89 23.82 21.76 2.65 23.74 16.13 34.11 11.56 17.87-30.4 32.19-29.23 20.78-35.38z" fill="#fff" opacity=".27"/><path fill="none" stroke="#222229" stroke-linecap="round" stroke-linejoin="round" stroke-width="7" d="M448.61 831.27l8.7 28.57"/><path d="M422.45 812.7s-14.44 18.94-28.9 18.53c0 0 18.52 5.07 24.44-2.91 6.36-8.56 4.46-15.62 4.46-15.62zM500.41 800.7s-21.29 10.67-34.1 3.95c0 0 14.41 12.69 23.24 8.12 9.45-4.9 10.86-12.07 10.86-12.07z" fill="#fff" opacity=".27"/><path d="M475.2 808c-12 .58 20.79 1.38 30.25-13.86M420.54 819.17s-11.12 13.77-33.27 11.19" fill="none" stroke="#222229" stroke-miterlimit="10" stroke-width="2.69"/><path d="M415.2 807.49c-7 1.2-12.64 8.81-3.59 13.15.33.52-5 4.5-3.18 7.21 8.78.38 27.09-19.7 6.77-20.36zm1.12 9.85c.13.06 0 .01 0 0zM483 805.22c-4.11-.35-4.11 2.57-10.94.22 21.55-4.33-.69-20.41-8.71-6.61-3.84 13.66 27.02 11.9 19.65 6.39z" fill="#222229"/><path d="M109.73 572.56s8.06-28.23 6.16-33.57 17.11-7 24.09.24M616 481.59s-15.54-7.54-16.05-22.18-11.08-11.77-12.15-4.42" fill="none" stroke="#222229" stroke-linecap="round" stroke-linejoin="round" stroke-width="8"/><path d="M502.15 450.24S504.63 412 588 417.61M101.3 545.21s-2.47-21.34 16.18-25.68 50.22-30.65 84.52-22.19" fill="none" stroke="#222229" stroke-linecap="round" stroke-miterlimit="10" stroke-width="2.69"/><path d="M381.73 906.59s8.52-18 42.89-15.86c12.47.79 48.74-17.92 60.69-17.88s27.87-5.42 35 6.91" fill="none" stroke="#222229" stroke-miterlimit="10" stroke-width="3"/><path d="M406.76 891.58s63.91 35.12 100.57-19.7c0 0-21.12-1-34.21 3.67s-37.28 15.26-46.19 15.13-20.17.9-20.17.9z" fill="#482718" opacity=".41"/><path d="M367.24 846.77a1.5 1.5 0 000-3 1.5 1.5 0 000 3zM378 852.2a1.5 1.5 0 000-3 1.5 1.5 0 000 3zM367.7 863.84a1.5 1.5 0 000-3 1.5 1.5 0 000 3zM378.79 867.05a1.5 1.5 0 000-3 1.5 1.5 0 000 3zM386.18 856.79a1.5 1.5 0 000-3 1.5 1.5 0 000 3zM403.21 859.73a1.5 1.5 0 000-3 1.5 1.5 0 000 3zM387.38 868.75a1.5 1.5 0 000-3 1.5 1.5 0 000 3zM388.32 882.49a1.5 1.5 0 000-3 1.5 1.5 0 000 3zM372.4 882.89a1.5 1.5 0 000-3 1.5 1.5 0 000 3zM506.33 852.13a1.5 1.5 0 000-3 1.5 1.5 0 000 3zM516.31 845.88a1.5 1.5 0 000-3 1.5 1.5 0 000 3zM508.67 833a1.5 1.5 0 000-3 1.5 1.5 0 000 3zM519.51 827.08a1.5 1.5 0 000-3 1.5 1.5 0 000 3zM516.31 814.82a1.5 1.5 0 000-3 1.5 1.5 0 000 3zM533 817.25a1.5 1.5 0 000-3 1.5 1.5 0 000 3zM533.54 804a1.5 1.5 0 000-3 1.5 1.5 0 000 3zM528.12 833.32a1.5 1.5 0 000-3 1.5 1.5 0 000 3zM527.43 850.45a1.5 1.5 0 000-3 1.5 1.5 0 000 3zM522 859.85a1.5 1.5 0 000-3 1.5 1.5 0 000 3z" fill="#222229"/><path d="M342.45 828a58.24 58.24 0 00-41.74 33M348 836.35c-8.75-1.39-17.56-2.79-26.42-2.56s-17.86 2.19-25.28 7M350 840.55l-13.68 4a64.2 64.2 0 00-8.56 3 31.63 31.63 0 00-13.69 12.22M364.8 846.17C352 846.23 340 852 328.73 858c-4.93 2.62-10.21 5.72-12.18 11M347.63 846.5a50.38 50.38 0 00-34.94 4.8M357 854.07l-12.51 5.46c-10.51 4.59-21.34 9.4-29.12 17.83M374 853c-6 4.34-13.64 5.93-19.91 9.91-4.61 2.93-8.34 7-11.78 11.27a158.65 158.65 0 00-15.1 22.14" fill="none" stroke="#222229" stroke-miterlimit="10"/><path d="M360.55 863.86c-7.09-1.68-14.41 1.12-21.06 4.08q-6.49 2.9-12.95 6.06a8.63 8.63 0 00-4 3.08M365.86 865.37a51.36 51.36 0 00-21.66 24.72M374.24 869.41c-5.5 4-11 8.15-15.57 13.16-4.42 4.81-8.15 11.1-7.06 17.54M522.66 838.47c6.12.6 11.73 3.88 16.2 8.1s8 9.35 11.42 14.45M535.46 835.91c3.61.2 7.31.43 10.58 2a40.05 40.05 0 014.39 2.66c3.61 2.33 7.73 4.37 9.83 8.12M535.45 826.22l27.91 4c3.75.54 7.8 1.23 10.42 4M537.48 818.17a125.43 125.43 0 0124.76 3.5M532.17 809.49c6.79 1.7 13.84 2 20.74 3.14s13.93 3.12 19.28 7.63M536.35 804.74c5.83 1.62 11.95 1.84 17.94 2.72S566.41 810 571 814M534 795.68a61.33 61.33 0 0136.12-12.41M532.38 787.21A118.42 118.42 0 01571 773.09" fill="none" stroke="#222229" stroke-miterlimit="10"/><path d="M247.32 664.65s6.12-40.54 35.24-40 64.94 32.17 65.52 41.73-23.42 38.79-42.54 42.71-60.1-1.9-58.22-44.44z" fill="#37373f"/><path d="M319.3 666.59c-2.15 9-5.36 22.27-25.57 26.52s-26.26-.24-31.11-6.47-14.87-24.74-2.24-37.3 37.33-22.84 49.29-7.78 10.95 19.44 9.63 25.03z" fill="#222229"/><path d="M303.37 644.34s-24.27-16.27-40 12.4 13.13 35 17.59 35.7 27.53-4.38 31.09-15.62 3.23-21.82-8.68-32.48z" fill="#443527"/><path d="M266 670.53c-1.76-9.35 1.24-18.16 6.66-25.4a38.12 38.12 0 00-9.31 11.61c-13.25 24.19 5.19 32.51 14 34.91A38.64 38.64 0 01266 670.53z" fill="#fefdff" opacity=".3"/><ellipse cx="293.59" cy="664.4" rx="16.98" ry="17.7" transform="rotate(-81.69 293.581 664.396)" fill="#222229"/><path d="M464.13 622.71s.66-32 24.24-41.25 50.32 4.44 55.67 22.7.33 55-14.67 60.48-69.14-.27-65.24-41.93z" fill="#37373f"/><path d="M484.6 623.51s-5.2-28.07 18.72-34.77 34.95 17.49 36.45 27.17 2.87 27.73-17.27 31-35.9 1.65-37.9-23.4z" fill="#222229"/><path d="M488.65 614.08s2.42-21.29 18.21-20 27.28 8.45 28.56 23.24-7.85 25.48-15.14 27.16-30.86.78-32.23-12.2.6-18.2.6-18.2z" fill="#443527"/><path d="M511.5 594.63a30.35 30.35 0 0117.38 20.63c2.26 8.51 1.07 19.37-4.66 26.34a19.27 19.27 0 01-2.22 2.29c6.92-2.81 14.59-12.95 13.42-26.59-1.15-13.3-10.56-20.44-23.92-22.67z" fill="#fefdff" opacity=".3"/><circle cx="504.84" cy="619.94" r="15.85" fill="#222229"/><path fill="#fff" d="M290.41 659.53l-2.09 1.95 4.15 4.78 2.03-2.29-4.09-4.44zM286.43 664.43l-1.04 1.68 3.12 2.62.94-1.09-3.02-3.21z"/><path d="M310.61 660l-4.33 1.32.17 1.94s2.92.88 2.71 2.26 2.38.87 2.24-.52-.79-5-.79-5z" fill="#fff" opacity=".6"/><path d="M316.36 663.32s1 2.93-1.05 7.16M318.8 666.52s.12 3.11-1 4.49M310.25 680.26a3.45 3.45 0 004.2.61M299.13 690.91l-.31 2.12M256.74 678.2s5.18 13.22 13.64 15.52" fill="none" stroke="#fff" stroke-linecap="round" stroke-linejoin="round" stroke-width="1.01"/><path fill="#fff" d="M507.19 619.38l1.54 4.7 2.59-1.37-.23-4.64-3.9 1.31zM512.83 617.25l1.56 4.48 1.28-1.94-.51-3.31-2.33.77z"/><path fill="none" opacity=".6" stroke-linecap="round" stroke-linejoin="round" stroke-width="1.01" stroke="#fff" d="M539.93 617.01l.5 4.66"/><path fill="none" stroke="#fff" stroke-linecap="round" stroke-linejoin="round" stroke-width="1.01" d="M484.77 633.03l1.12-1.53M485.57 635.17l.88-.77M486.99 636.55l.49.66M487.84 630s.37 2.54 1 3.12M489.63 634.55s7.4 8.88 12.49 10.35"/><path d="M505.77 644.94s3.2-2.29 3.46-1.3-1.16 2.08-2.53 1.93-.93-.63-.93-.63zM513.64 644.08l-2.2 1s-.12 1.12 1.56.56.64-1.56.64-1.56z" fill="#fff"/><circle cx="502.74" cy="629.26" r=".73" fill="#fff" opacity=".6"/><path d="M486.16 622.72a3.59 3.59 0 01.76 3.24" fill="none" stroke="#fff" stroke-linecap="round" stroke-linejoin="round" stroke-width="1.01" opacity=".6"/><path d="M505.11 502.26a113.34 113.34 0 01-1.41 17.45M508.19 508.2l.3-1.84c-1.89 7.4-.1 14.25-.93 21.84a119.6 119.6 0 014.83-20.82M520 509a117 117 0 00-4.27 19.5M520.86 517.37q-3.18 7.54-5.77 15.32M532.48 524.62c-3 2.88-6.39 8.22-8.87 11.58.7-6.39 0-12.56 1.19-19.08M535.47 527.59a21.69 21.69 0 00-6.41 8.28M540.21 528.35a93.82 93.82 0 00-10 12.76M542 536.34c-1.4 3.21-5.56 4.71-6.26 8.14a83.27 83.27 0 015.33-12.58M549.36 543.52c-3 1.43-4.32 3.26-7.16 5a155.32 155.32 0 018.41-13.12c.31-.44 1.17-.75 1.19-.21M496.93 500c-.44 3.25-.78 6.5-1.06 9.77M498.44 504.81a23.28 23.28 0 01-.51 10.1M513 511.67a26 26 0 01-1.45 12.87M253.48 534.42a31.11 31.11 0 00-11.94 4.29M252.84 550.52c-3.54 0-3.12-4.17-1.25-4.79-2.65.45-2.89-1.67-5.58-1.5a34.06 34.06 0 0111.42-3.05M246.94 554.58a16.84 16.84 0 01-7.39-2.4 55.27 55.27 0 008.64 16.82M236.64 563.29a1.74 1.74 0 00-.93 2.58c.19 4.39 4.17 8.92 7.19 11.64M238.18 565.76c2.91 3.45 7.25 6.58 10 9.69M231.64 570.09a43.28 43.28 0 0013.94 19.31M238.86 592.8a14.44 14.44 0 01-9.4-11M216.29 578.33a9.7 9.7 0 005.63 7.68M215.58 584.16l14.91 7.3c-7.77-2.24-17.8-2-25.63.1M200.13 598a97.53 97.53 0 0113.59-3.2c-6.07.88-16.23 5.14-22.21 6.51M200.64 603a28.84 28.84 0 00-10.64 4.86M199.37 607.88a20.58 20.58 0 00-7.73 6.88M386.84 505.94a14.46 14.46 0 00.21 7M393.27 498.3l.16-1a36 36 0 00-.19 12.46M399.88 494.26c.26.2.17.61.08.92a15 15 0 00.14 9.44M345.85 510.1a53.67 53.67 0 016.13 9M354.17 509.3a17.07 17.07 0 014.21 9.25M449.7 622.62a38 38 0 0012.3 13.3M455 616.13a37.22 37.22 0 003.41 10.16c.45.88 1.24 1.89 2.19 1.6M458.16 610.75c-.09-.19-.15-1-.24-.45a54.53 54.53 0 011.93 8.46M461.28 596.86a6.85 6.85 0 001.34 7.76M471.82 583.74a26.84 26.84 0 001.63 12.07M489.64 575.54c-2.53 2.47-8.93 2-10.34 5.2l.6-.93a14.1 14.1 0 00-1.84 11.43M486.92 584.2a1.3 1.3 0 01.25-1A51.59 51.59 0 01497 571M494.05 579.56a25.7 25.7 0 0111.22-9.51M501.58 578.18a19.85 19.85 0 0116.35-7.35M506.13 581.36a21.79 21.79 0 0111.85-7c1.49-.31 3.26-.39 4.31.71M516 580.4c.16-1 1.4-1.25 2.38-1.29a91.63 91.63 0 0114.15.47" fill="none" stroke="#f9f1ea" stroke-miterlimit="10"/><path d="M459.17 595.39c-1.05.18-1.25 1.6-1.15 2.67.72 8.08 4.7 12.69 8.71 19.74-2.47-12.58-2.82-30.79 7-40.77M456.27 607c-1.35-.06-1.74 1.83-1.62 3.18a92.84 92.84 0 004.19 20.34M449.12 619.64a94.85 94.85 0 003.56 19.77M447.41 639.8c2.49 4.39 5.18 8.67 8.08 12.8 1.32 1.89 3.05 3.94 5.36 3.88M456.82 644.59c.24-.15 9.44 10.34 11.46 10.59M458.88 641.7a26.65 26.65 0 009.41 3.19M493.57 671.19a14.16 14.16 0 009.43 10.62M502.13 673.17a11.46 11.46 0 006.17 8.29M508.29 673.23a40.22 40.22 0 0010.08 9.26M521.39 673.1c1.38 2.3 3.39 2.87 6 3.35M525.49 672.9l7.81 2.65M517.36 677.15a2.91 2.91 0 001.47 1.12 17.46 17.46 0 008.13 1.41M532 669.68a11.22 11.22 0 009 1M258.05 629l5.51.12c.61 0 1.43.72.88 1M271.16 626.49a23.55 23.55 0 00-7.11-2.73c4.37 1.56 13.72-.15 17.13 3M290.37 626.91c.67-1.64-.87-3.3-2.32-4.31a34.79 34.79 0 00-9.43-4.64c-.32-.1 5.77-3.45 6.09-3.53a1.21 1.21 0 01.93.27 35.54 35.54 0 0112.43 13.88M296.09 616.92c.48-.72 1.59-.34 2.3.14a23.93 23.93 0 019.43 12.94M306.86 614.07c5 1.2 8.82 5.46 10.83 10.2s2.48 10 2.93 15.08M319.48 620a66.77 66.77 0 0111.4 25.45M333.55 626a31.65 31.65 0 015.42 21.2M341.8 639.57a16.28 16.28 0 012.92 12.24M350.57 643.71a44.14 44.14 0 01-.83 14.94c-.95 4.11 3.26 8.28 0 11M343.19 653.9a22 22 0 01-1.47 8.29M326.45 622.32c.25 0 .41.26.5.5a235.19 235.19 0 017.38 25.77 45.52 45.52 0 011.42 10.41" fill="none" stroke="#f9f1ea" stroke-miterlimit="10"/><path d="M298.57 622.53c5.84.72 15.41 6.9 19.9 10.69a19.43 19.43 0 00-9.47-10.07M353.29 667.53c1.64 1.48-1.05 4 .09 5.93-3.59.94-7.24-1-10.44-2.89M399.17 672c.24 3.54 3.35 2 4.25 5.44M411.61 673.82a48.74 48.74 0 00.88 13.31M418.59 671.53a50.79 50.79 0 010 12.26M405.07 666.75l.45 6.65M397.67 679.2c-.25-.33.2-.81.61-.75a1.57 1.57 0 01.93.74l5.58 7.52M422.05 678.23l1.23 10M320.27 696.45c-.34.12-1.07 9-2.39 13.11M326.85 694.51a55.21 55.21 0 01-1.15 9.59M332.58 688.51a81.7 81.7 0 01.08 10M332.12 676.75a26.15 26.15 0 018.88 13.56M303.56 709.42a9.11 9.11 0 01-4.26 9.44M296.85 711.13l-4.31 4.65M283.75 706.9a15.3 15.3 0 01-5.18 7.24M292.6 704.94a4.66 4.66 0 01-3.5 5.15M252.94 633.56a4.42 4.42 0 015.48 1.63M330.46 615.61a13.44 13.44 0 011.76 8M363.25 515.14l7 9.17M354.65 520.2a13.23 13.23 0 007.23 7.45M382.53 504.2c.92 3 0 2.68-1.08 5.62a90.84 90.84 0 00-2.81 14.2M388.26 504.27l.67 2M328.85 508.73L336 515c2.34 2 6.06.42 7 3.38M397.12 724.36a13.63 13.63 0 01-9.46.31c2.44.51 9.34 6.17 11.77 6.69M397.42 741.89l-7.37-1.08zM457.13 724.34a82 82 0 004.44-7.35l-.89 1.19c-1 1.29-4.78-2.25-5.51-.8M395.65 738.26a10.13 10.13 0 01-2-2.75 13.69 13.69 0 015.74 2.86M455.47 708.47a50.18 50.18 0 01-1.79 10.11M447.67 699.78a16.8 16.8 0 01-3.55 8.88M520.62 742.92a43.61 43.61 0 0012.17 3.7M531.73 756.17a14.43 14.43 0 0012.64 1M356 804c.2.07.2-.34 0-.37s-.36.18-.47.36A39.21 39.21 0 00352 811M360 812.26a33.19 33.19 0 01-6.66 11.67M326.44 822.86a68.53 68.53 0 001.66-18.06c0-.28 5.18-1.9 5-.82.92 4.09.29 8.65-.28 12.74M295.63 787.78a60.42 60.42 0 01-11.93 1M283.74 798.36a42.82 42.82 0 0015.41-2.59c-2.28 1.83-1.79 8-4.43 9.27-1.79.86-4.33 1.38-5.41-.28M553 718.44a30 30 0 01-6.7 12c1.38-2 7.3-2.17 8.69-4.17-1 2.88-1.82 9-4 11.15M558.1 738.09a66.21 66.21 0 01-8.33 8.16M545.39 755.75a46.44 46.44 0 0014.12-8.57M369.4 770a9.83 9.83 0 00-9.94.3M367.53 775.46a54.14 54.14 0 00-17.44 3.8M486.76 742.71l15.44-9.62M493.2 744.2a14.07 14.07 0 016.79-2.05M437.07 877.16l-2.23 7.65M447.8 874a19.87 19.87 0 00-.35 5.6M456.16 871.46a6 6 0 001.47 3M462.24 868.93a4.85 4.85 0 012.25 2.85M472.31 861.82a9.84 9.84 0 013.27 5M483.23 850.88a34.68 34.68 0 013.8 5.8M492.09 845.54a44.61 44.61 0 005.39 7.07M502.94 856.71a30.32 30.32 0 003.56 5.6M485.67 863a22 22 0 013.58 7.17M496.47 859.13a21.74 21.74 0 015.39 9.11M427.46 868.21a45.33 45.33 0 01-1.67 8.23M423.86 883.22a13.61 13.61 0 000 6.59M424.53 897.91l-.94 6.45M462.72 893.28l3.21 6.59M484.89 885.39a71.14 71.14 0 007.4 8.12M497.09 878.77c.31 0 .5.33.65.61l2.81 5.4M500.74 875.89a22 22 0 015.5 5.55M492.4 883.82a7.31 7.31 0 012.77 4.68M475.79 884.92c1.72 2.61 2.45 6 4.87 8M467.13 888.44a17.47 17.47 0 013.6 6.84M472.87 889.47a16.53 16.53 0 011.55 7M455 893.55a.2.2 0 000 .21q1.82 4.8 3.22 9.74M450 898.08a22.9 22.9 0 00-.18 4.68 3.86 3.86 0 00.52 2M443.17 896q-.72 4.46-1.33 8.92M437.51 899.62l-1.05 7.22M429.78 895.46l-1.23 8.28a13.46 13.46 0 00-.23 2.9M420.57 897.15l-1.5 7.48M315.77 807.49c-3.57 5.1-7.19 10.51-7.93 16.69M315.64 811.93l-1 5.86" fill="none" stroke="#f9f1ea" stroke-miterlimit="10"/></svg>