<?xml version="1.0" encoding="UTF-8"?><svg id="home-hero" xmlns="http://www.w3.org/2000/svg" width="1600" height="410" xmlns:xlink="http://www.w3.org/1999/xlink" viewBox="0 0 1600 410"><defs><clipPath id="clippath"><rect x="683.39" y="203.06" width="231.58" height="131.45" rx="8.32" ry="8.32" fill="none"/></clipPath></defs><g id="potion2" opacity="0"><path d="M13.35-20.65C50.33-13.53,79.61,15.23,87.44,51.95c5.61-1.61,11.52-2.5,17.65-2.5,35.17,0,63.69,28.51,63.69,63.69,0,8.82-1.79,17.22-5.03,24.85,18.9,5.69,34.09,19.92,41.1,38.21,8.03-7.68,18.91-12.4,30.9-12.4,17.09,0,31.94,9.59,39.47,23.68,3.52-1.76,7.48-2.76,11.69-2.76,14.41,0,26.1,11.68,26.1,26.1,0,4.84-1.32,9.36-3.61,13.25,6.25,3.3,11,9.07,12.96,16.01,4.35-3.26,9.76-5.18,15.61-5.18,11.25,0,20.84,7.12,24.5,17.1,6.08-3.09,12.95-4.84,20.23-4.84,24.71,0,44.74,20.03,44.74,44.74,0,4.86-.79,9.53-2.22,13.91,1.32-.08,2.64-.14,3.97-.14,27.95,0,51.67,18.01,60.25,43.05,5.5-1.55,11.28-2.39,17.27-2.39,27.41,0,50.77,17.32,59.75,41.6,8.04-7.71,18.94-12.45,30.95-12.45,16.19,0,30.37,8.6,38.22,21.48,4.75-4.91,11.39-7.97,18.76-7.97,6.06,0,11.64,2.07,16.07,5.54,3.07-10.99,13.16-19.05,25.13-19.05,7.23,0,13.78,2.94,18.5,7.7,6.23-12.27,18.96-20.68,33.66-20.68,9.91,0,18.92,3.82,25.65,10.06,5.19-7.82,14.07-12.97,24.16-12.97,11.4,0,21.26,6.59,25.99,16.16,6.92-8.1,17.2-13.25,28.69-13.25,14.7,0,27.43,8.41,33.66,20.68,4.73-4.75,11.27-7.7,18.5-7.7,11.97,0,22.05,8.06,25.13,19.05,4.43-3.47,10-5.54,16.07-5.54,7.37,0,14.02,3.06,18.76,7.97,7.85-12.88,22.03-21.48,38.22-21.48,12.02,0,22.92,4.75,30.95,12.45,8.98-24.29,32.34-41.6,59.75-41.6,5.99,0,11.78,.84,17.27,2.39,8.58-25.04,32.3-43.05,60.25-43.05,1.34,0,2.66,.05,3.97,.14-1.43-4.38-2.22-9.05-2.22-13.91,0-24.71,20.03-44.74,44.74-44.74,7.29,0,14.16,1.75,20.23,4.84,3.66-9.98,13.25-17.1,24.5-17.1,5.85,0,11.26,1.93,15.61,5.18,1.95-6.94,6.7-12.71,12.96-16.01-2.29-3.88-3.61-8.41-3.61-13.25,0-14.41,11.68-26.1,26.1-26.1,4.2,0,8.17,1,11.69,2.76,7.53-14.09,22.38-23.68,39.47-23.68,11.99,0,22.87,4.73,30.9,12.4,7.01-18.29,22.2-32.52,41.1-38.21-3.24-7.64-5.03-16.03-5.03-24.85,0-35.17,28.51-63.69,63.69-63.69,6.12,0,12.04,.88,17.65,2.5,7.83-36.72,37.11-65.48,74.09-72.6H13.35Z" fill="#ff5f5f" stroke="#14303f" stroke-miterlimit="10"/><g id="rainbow"><rect x="758.11" y="142.88" width="20.95" height="24.01" fill="#f9ba19" stroke="#14303f" stroke-linejoin="round"/><rect x="779.05" y="142.88" width="20.95" height="24.01" fill="#00ced4" stroke="#14303f" stroke-linejoin="round"/><rect x="800" y="142.88" width="20.95" height="24.01" fill="#5d73a2" stroke="#14303f" stroke-linejoin="round"/><rect x="820.95" y="142.88" width="20.95" height="24.01" fill="#ffb29a" stroke="#14303f" stroke-linejoin="round"/></g><g class="twinkle4"><polygon points="955.88 199.93 957.94 209.89 967.9 211.95 957.94 214.02 955.88 223.98 953.82 214.02 943.86 211.95 953.82 209.89 955.88 199.93" fill="#fff"/></g><g class="twinkle3"><polygon points="970.56 95.27 973.64 110.16 988.53 113.24 973.64 116.32 970.56 131.2 967.48 116.32 952.6 113.24 967.48 110.16 970.56 95.27" fill="#fff"/></g><g class="twinkle2"><polygon points="638.73 173.8 640.79 183.76 650.75 185.82 640.79 187.88 638.73 197.84 636.66 187.88 626.7 185.82 636.66 183.76 638.73 173.8" fill="#fff"/></g><g class="twinkle1"><polygon points="620.41 122.14 623.65 137.81 639.32 141.05 623.65 144.29 620.41 159.96 617.17 144.29 601.5 141.05 617.17 137.81 620.41 122.14" fill="#fff"/></g></g><g id="default"><g id="horizon"><line y1="337.65" x2="1600" y2="337.65" fill="none" stroke="#14303f" stroke-linejoin="round"/></g><g id="shelf"><rect x="779.36" y="151.16" width="343.32" height="25.84" fill="#14303f" stroke="#14303f" stroke-linejoin="round"/><rect x="769.76" y="151.16" width="359.16" height="16.87" fill="#eaebef" stroke="#14303f" stroke-miterlimit="10"/></g><g id="polaroid"><path d="M796.63,121.77v25.17c0,1.81,1.48,3.28,3.28,3.28h78.33c1.81,0,3.28-1.48,3.28-3.28v-25.17h-84.89Z" fill="#14303f" stroke="#14303f" stroke-linejoin="round"/><g id="photo"><rect x="804.92" y="94" width="69.69" height="67.78" fill="#fff" stroke="#14303f" stroke-linejoin="round"/><g id="photo-image" class="fill-yellow"><rect x="810.13" y="99.53" width="59.28" height="47.07" fill="#eaebef" stroke="#14303f" stroke-linejoin="round" stroke-width=".5"/></g></g><g id="polaroid-cover"><rect x="796.11" y="24.52" width="85.95" height="47.14" fill="none"/></g><g class="fill-white"><path d="M881.53,128.26v-49.74c0-3.77-3.09-6.86-6.86-6.86h-71.18c-3.77,0-6.86,3.09-6.86,6.86v49.74h84.9Z" fill="#eaebef" stroke="#14303f" stroke-linejoin="round"/></g><g class="fill-red"><rect x="832.47" y="104.63" width="4.89" height="20.65" fill="#fff"/></g><g class="fill-yellow"><rect x="837.02" y="104.63" width="4.89" height="20.65" fill="#fff"/></g><g class="fill-turquoise"><rect x="841.71" y="104.63" width="4.89" height="20.65" fill="#fff"/></g><rect x="796.63" y="121.77" width="84.9" height="14.72" fill="#14303f" stroke="#14303f" stroke-linejoin="round"/><rect x="861.98" y="77.93" width="14.62" height="14.62" fill="#14303f"/><line x1="832.47" y1="98.27" x2="832.47" y2="128.68" fill="none" stroke="#14303f" stroke-linejoin="round"/><line x1="837.36" y1="98.27" x2="837.36" y2="128.68" fill="none" stroke="#14303f" stroke-linejoin="round"/><line x1="841.71" y1="98.27" x2="841.71" y2="128.68" fill="none" stroke="#14303f" stroke-linejoin="round"/><line x1="846.23" y1="98.27" x2="846.23" y2="128.68" fill="none" stroke="#14303f" stroke-linejoin="round"/><circle cx="869.29" cy="85.05" r="2.41" fill="#eaebef"/><circle cx="864.39" cy="101.48" r="3.75" fill="#14303f"/><circle cx="811.69" cy="103.93" r="3.75" fill="#14303f"/><rect x="804.23" y="89.04" width="14.92" height="7.34" fill="#14303f"/><line x1="796.63" y1="110.94" x2="832.47" y2="110.94" fill="none" stroke="#14303f" stroke-linejoin="round" stroke-width=".5"/><line x1="846.23" y1="110.94" x2="881.57" y2="110.94" fill="none" stroke="#14303f" stroke-linejoin="round" stroke-width=".5"/><circle cx="839.46" cy="96.94" r="15.13" fill="#14303f" stroke="#14303f" stroke-linejoin="round"/><circle cx="839.46" cy="92.55" r="15.13" fill="#fff" stroke="#14303f" stroke-linejoin="round"/><circle cx="839.46" cy="92.55" r="12.08" fill="#14303f"/></g><g id="soda-can"><path d="M927.17,84.69c-1.46-1.83-.38-3.46-.31-3.49,.27-.12,.39-.43,.27-.7l-34.19-.03c-.14,.26-.04,.58,.22,.71,0,0,1.28,1.68-.18,3.51-1.46,1.83-2,2.37-2,6.26v53.51c0,2.14,.9,3.13,2.82,3.89,.19,.08,.68,.15,1.37,.21l.67,2.38h28.49l.67-2.38c.69-.06,1.17-.13,1.37-.21,1.92-.76,2.82-1.76,2.82-3.89v-53.51c0-3.89-.53-4.43-2-6.26Z" fill="#fff"/><g class="fill-pink"><path d="M893.1,84.69c1.46-1.83,.38-3.46,.31-3.49-.27-.12-.39-.43-.27-.7h8.88c.43,.39,.85,5.39-.47,7v61.29s.98,.07,.98,.07v2.08h-6.58s-.67-2.38-.67-2.38c-.69-.06-1.17-.13-1.37-.21-1.92-.76-2.82-1.76-2.82-3.89v-53.51c0-3.89,.53-4.43,2-6.26Z" fill="none"/></g><polyline points="924.94 148.7 924.31 150.94 895.83 150.94 895.2 148.7" fill="none" stroke="#14303f" stroke-linejoin="round"/><path d="M926.85,81.2c.27-.12,.39-.43,.27-.7l-34.19-.03c-.14,.26-.04,.58,.22,.71,0,0,1.28,1.68-.18,3.51-1.46,1.83-2,2.37-2,6.26,0,3.89,0,51.38,0,53.51,0,2.14,.9,3.13,2.82,3.89,1.91,.76,30.63,.76,32.55,0s2.82-1.76,2.82-3.89v-53.51c0-3.89-.53-4.43-2-6.26-1.46-1.83-.38-3.46-.31-3.49Z" fill="none" stroke="#14303f" stroke-linejoin="round"/><g class="fill-red-2"><path d="M893.57,117.67c-3.62-5.47-2.53-16.05,4.49-18.22,7.57-.79,6.05,10.4-.17,11.46-1.08,1.82,.02,4.91,.16,7.17-.89,.38-1.91,.81-3.03,1.29,1.59-4.96-2.73-13.04,1.83-16.19,.06,.03,.12,.06,.18,.09,.12,2.09,.23,4.18,.35,6.34,3.74-.54,4.78-8.12,.1-7.43-5.78,2.14-6.1,10.57-3.76,15.4-.05,.03-.09,.06-.14,.09Z" fill="#14303f"/><path d="M904.35,135.63c-10.09,1.77-14.31-10.27-5.18-14.68,9.68,1.68,22.53-1.44,27.09-10.94,2.47-5.53,1.28-12.68-4.22-15.74,7.74,2.49,7.56,13.6,3.59,19.3-2.97,4.46-8.1,5.99-12.94,7.51,7.55,5.02-.62,14.06-7.38,14.24,5.9-1.13,11.91-8.94,6.03-13.73-4.02-.08-8.23,.29-12.27-.29-8.06,4.98-3.4,15.57,5.29,14.33Z" fill="#14303f"/><path d="M904.65,114.81c-4.21,5.35-8.42-.76-4.22-4.29,4.13-2.34,4.04,4.46,.2,4.08,1,2.44,4.29-.37,4.05-2.17-.11-1.83-1.05-4.15,1.76-3.66,4.66-4.02,5.54,5.43,.7,6.04-1.03,.56,0,2.31-.14,3.4-.61,.21-1.32,.45-2.02,.69-.18-1.36,.1-2.94-.33-4.09Zm1.93-.93c1.82-.42,2.96-4.22,.66-4.32-1.54,.63-.42,2.91-.66,4.32Zm-6.37-.92c.03,1.88,2.23-.07,1.76-1.04-.62-1.56-1.74,.08-1.76,1.04Z" fill="#14303f"/><path d="M904.26,108.15c.02-3.5,.16-7.01-.8-10.33,2.87-1.47,8.19-3.18,8.78,1.37,1.35,5.17-3.55,7.99-7.99,8.96Zm2.46-2.2c3.97-.42,4.37-9.82-.18-7.81-.64,2.45,.16,5.21,.18,7.81Z" fill="#14303f"/><path d="M925.42,104.21c-1.34-3.35-1.15,2.88-.97,3.77,.12,.97-1.11,.86-1.78,1.34,.05-.4,.09-.66,.14-1.09-4.06,6.44-8.73-2.26-3.12-4.71,3.49-.88,2.92,4.78-.42,4.64,.89,2.12,3.56-.51,3.37-2.08,.04-1.58-.9-4.13,1.54-3.89,0,.06,.01,.11,.02,.17,1.5-2.78,3.37,1.4,1.18,2.09,.01-.08,.03-.16,.04-.24Zm-6.67,2.86c1.39,.25,2.22-1.55,1.15-2.3-1.07,.09-.86,1.47-1.15,2.3Z" fill="#14303f"/><path d="M910.8,106.87c.56-.21,1.25-.46,1.97-.73,.09,.2,.15,.34,.22,.5,4.42-4.52,5.38,5.53,.68,5.98-1.54,1.67,1.94,3.41-2.42,4.21,.06-3.32-.14-6.59-.46-9.96Zm4.1,1.87c.12-1.34-1.53-2.17-1.88-.58,.05,.93,.07,1.86,.13,2.79,.45,1.72,1.98-1.32,1.75-2.21Z" fill="#14303f"/><path d="M913.21,98.26c.56-.11,1.49-.86,2.12-.4,2.69-2.93,4.74,2.07,1.48,2.1,.05-.46,.38-.96-.28-1.18-2.19,.38-.71,3.86-.89,5.52-.62,.21-1.37,.47-2.19,.74,.05-2.41-.02-4.37-.25-6.79Z" fill="#14303f"/><path d="M905.56,128.67c1.27,2.23,4.16-1.53,2.5-2.88,.34-.52,.33-1.42,1.37-1.47,.05,.15,.1,.32,.16,.5,.21-.02,.41-.03,.63-.05,.36,.69-.63,.7-.69,1.34-.06,.8-.18,1.73,.46,2.34,.23,.23,.3,.42,.02,.58-.44,.26-.89,.61-1.44,.14-.09-.08-.38,.02-.54,.1-1.76,1.53-4.26,.97-3.66-1.49,1.44-4.64,6.2,.24,1.18,.91Zm-.21-.88c.31,.82,1.38,.07,1.31-.65-.29-1.18-1.29-.74-1.31,.65Z" fill="#14303f"/><path d="M897.95,132.47v-6.16c1.18-.09,3.34-1.27,3.96,.43,1.11,2.53-.76,5.46-3.96,5.73Zm1.27-1.19c1.93-.06,2.69-4.72,.39-4.56-.94,1.02-.15,3.04-.39,4.56Z" fill="#14303f"/><path d="M902.73,131.03v-4.13c.27-.06,.61-.14,1.04-.24-.36,1.46,.96,4.16-1.04,4.37Z" fill="#14303f"/><path d="M902.81,125.86c-.02-.89,.9-1.13,1.05-.33,.03,.62-.76,.91-1.05,.33Z" fill="#14303f"/><path d="M915.1,116.2v-2.22l1.03-.44v.42l-.73,.31v.47l.61-.26v.42l-.61,.26v.49l.73-.31v.42l-1.03,.44Z" fill="#14303f"/><path d="M916.19,115.45l.14-.38c.09,.11,.23,.19,.39,.12,.08-.03,.13-.09,.13-.18s-.06-.09-.17-.09h-.14c-.18,0-.32-.05-.32-.34,0-.32,.16-.58,.41-.68,.22-.09,.38,0,.45,.1l-.13,.37c-.1-.12-.23-.16-.34-.11-.07,.03-.12,.09-.12,.17,0,.09,.04,.1,.18,.1h.12c.23,0,.32,.1,.32,.35,0,.31-.17,.56-.41,.66-.23,.1-.43,.05-.52-.11Z" fill="#14303f"/><path d="M917.32,114.78v-.78l-.15,.06v-.36l.15-.06v-.19l.3-.37v.44l.28-.12v.36l-.28,.12v.69c0,.13,.04,.16,.1,.14,.06-.03,.12-.13,.15-.24l.09,.35c-.04,.11-.15,.27-.31,.33-.23,.1-.33-.07-.33-.37Z" fill="#14303f"/><path d="M918.08,114.94v-.51l.32-.14v.51l-.32,.14Z" fill="#14303f"/><path d="M918.68,114.68v-1.66l-.26,.11v-.36c.12-.05,.22-.14,.29-.32l.27-.12v2.22l-.3,.13Z" fill="#14303f"/><path d="M919.15,113.9c0-.23,.09-.5,.33-.68-.19,.03-.28-.14-.28-.39,0-.34,.18-.69,.52-.84,.34-.14,.52,.06,.52,.39,0,.26-.1,.51-.29,.64,.24-.02,.34,.17,.34,.39,0,.36-.18,.7-.57,.86s-.57-.02-.57-.38Zm.79-.44c0-.16-.08-.26-.22-.2-.15,.06-.22,.23-.22,.39,0,.15,.05,.27,.22,.19,.17-.07,.22-.23,.22-.38Zm-.03-.85c0-.14-.06-.24-.2-.18-.14,.06-.2,.21-.2,.34,0,.15,.06,.24,.2,.18,.12-.05,.2-.2,.2-.35Z" fill="#14303f"/><path d="M920.42,113.36c0-.23,.09-.5,.33-.68-.19,.03-.28-.14-.28-.39,0-.34,.18-.69,.52-.84,.34-.14,.52,.06,.52,.39,0,.26-.1,.51-.29,.64,.25-.02,.34,.17,.34,.4,0,.36-.18,.7-.57,.86-.38,.16-.57-.02-.57-.38Zm.79-.44c0-.16-.08-.26-.22-.2-.15,.06-.22,.23-.22,.39,0,.15,.05,.27,.22,.19,.17-.07,.22-.23,.22-.38Zm-.03-.85c0-.14-.06-.24-.2-.18-.14,.06-.2,.21-.2,.34,0,.15,.06,.24,.2,.18,.12-.05,.2-.2,.2-.35Z" fill="#14303f"/><path d="M921.71,112.91l.24-.44c.05,.24,.17,.32,.33,.26,.15-.06,.23-.22,.23-.45,0-.25-.1-.32-.24-.26-.11,.05-.19,.15-.22,.3v.02s-.29,.07-.29,.07l.05-1.26,.92-.39v.43l-.64,.27-.03,.7c.05-.22,.16-.42,.35-.5,.25-.11,.42,.07,.42,.53s-.22,.87-.55,1.01c-.3,.13-.5-.02-.57-.28Z" fill="#14303f"/></g><line x1="891.43" y1="87.46" x2="928.74" y2="87.46" fill="none" stroke="#14303f" stroke-miterlimit="10" stroke-width=".5"/><path d="M893.77,81.95c.26-.15,32.23-.16,32.49,0" fill="none" stroke="#14303f" stroke-miterlimit="10" stroke-width=".5"/></g><g id="soda-bottle"><g class="fill-red-3"><path d="M920.59,52.31h-20.57c-4.06,8.25-9.67,20.65-9.67,26.12v57.1c0,7.68,3.93,15.41,5.76,15.41h9.77c2.65,0,2.46-1.48,4.32-1.48s1.45,1.48,4.11,1.48h10.18c1.83,0,5.76-7.73,5.76-15.41v-57.1c0-5.47-5.61-17.87-9.67-26.12Z" fill="#b4b9c5"/></g><g class="fill-pink-2"><path d="M909.49,44.16s11.37,27.2,11.42,32.61,0,54.24,0,59.72-4.14,14.67-4.14,14.67h5.09s4.64-7.75,4.64-14.67v-59.72c0-6.44-12.88-32.61-12.88-32.61l-.05-4.87h-4.07v4.87Z" fill="none"/></g><rect x="890.35" y="86.25" width="39.91" height="46.39" fill="#fff"/><path d="M916.49,44.28v-6.46h-12.37v6.46s-13.77,25.58-13.77,34.15v57.1c0,7.68,3.93,15.41,5.76,15.41h9.77c2.65,0,2.46-1.48,4.32-1.48s1.45,1.48,4.11,1.48h10.18c1.83,0,5.76-7.73,5.76-15.41v-57.1c0-8.57-13.77-34.15-13.77-34.15Z" fill="none" stroke="#14303f" stroke-linejoin="round"/><g class="fill-pink-3"><rect x="890.35" y="86.25" width="10.9" height="46.22" fill="none"/></g><line x1="890.35" y1="86.25" x2="930.26" y2="86.25" fill="none" stroke="#14303f" stroke-miterlimit="10" stroke-width=".5"/><line x1="930.26" y1="132.64" x2="890.35" y2="132.64" fill="none" stroke="#14303f" stroke-miterlimit="10" stroke-width=".5"/><g class="fill-red-4"><rect x="901.55" y="29.47" width="17.52" height="9.82" fill="#eaebef" stroke="#14303f" stroke-linejoin="round"/></g><line x1="901.55" y1="41.14" x2="919.07" y2="41.14" fill="#fff" stroke="#14303f" stroke-linecap="round" stroke-linejoin="round" stroke-width=".5"/><g class="fill-red-5"><path d="M893.69,112c-3.62-5.47-2.53-16.05,4.49-18.22,7.57-.79,6.05,10.4-.17,11.46-1.08,1.82,.02,4.91,.16,7.17-.89,.38-1.91,.81-3.03,1.29,1.59-4.96-2.73-13.04,1.83-16.19,.06,.03,.12,.06,.18,.09,.12,2.09,.23,4.18,.35,6.34,3.74-.54,4.78-8.12,.1-7.43-5.78,2.14-6.1,10.57-3.76,15.4-.05,.03-.09,.06-.14,.09Z" fill="#14303f"/><path d="M904.47,129.96c-10.09,1.77-14.31-10.27-5.18-14.68,9.68,1.68,22.53-1.44,27.09-10.94,2.47-5.53,1.28-12.68-4.22-15.74,7.74,2.49,7.56,13.6,3.59,19.3-2.97,4.46-8.1,5.99-12.94,7.51,7.55,5.02-.62,14.06-7.38,14.24,5.9-1.13,11.91-8.94,6.03-13.73-4.02-.08-8.23,.29-12.27-.29-8.06,4.98-3.4,15.57,5.29,14.33Z" fill="#14303f"/><path d="M904.77,109.14c-4.21,5.35-8.42-.76-4.22-4.29,4.13-2.34,4.04,4.46,.2,4.08,1,2.44,4.29-.37,4.05-2.17-.11-1.83-1.05-4.15,1.76-3.66,4.66-4.02,5.54,5.43,.7,6.04-1.03,.56,0,2.31-.14,3.4-.61,.21-1.32,.45-2.02,.69-.18-1.36,.1-2.94-.33-4.09Zm1.93-.93c1.82-.42,2.96-4.22,.66-4.32-1.54,.63-.42,2.91-.66,4.32Zm-6.37-.92c.03,1.88,2.23-.07,1.76-1.04-.62-1.56-1.74,.08-1.76,1.04Z" fill="#14303f"/><path d="M904.38,102.47c.02-3.5,.16-7.01-.8-10.33,2.87-1.47,8.19-3.18,8.78,1.37,1.35,5.17-3.55,7.99-7.99,8.96Zm2.46-2.2c3.97-.42,4.37-9.82-.18-7.81-.64,2.45,.16,5.21,.18,7.81Z" fill="#14303f"/><path d="M925.54,98.54c-1.34-3.35-1.15,2.88-.97,3.77,.12,.97-1.11,.86-1.78,1.34,.05-.4,.09-.66,.14-1.09-4.06,6.44-8.73-2.26-3.12-4.71,3.49-.88,2.92,4.78-.42,4.64,.89,2.12,3.56-.51,3.37-2.08,.04-1.58-.9-4.13,1.54-3.89,0,.06,.01,.11,.02,.17,1.5-2.78,3.37,1.4,1.18,2.09,.01-.08,.03-.16,.04-.24Zm-6.67,2.86c1.39,.25,2.22-1.55,1.15-2.3-1.07,.09-.86,1.47-1.15,2.3Z" fill="#14303f"/><path d="M910.91,101.2c.56-.21,1.25-.46,1.97-.73,.09,.2,.15,.34,.22,.5,4.42-4.52,5.38,5.53,.68,5.98-1.54,1.67,1.94,3.41-2.42,4.21,.06-3.32-.14-6.59-.46-9.96Zm4.1,1.87c.12-1.34-1.53-2.17-1.88-.58,.05,.93,.07,1.86,.13,2.79,.45,1.72,1.98-1.32,1.75-2.21Z" fill="#14303f"/><path d="M913.33,92.58c.56-.11,1.49-.86,2.12-.4,2.69-2.93,4.74,2.07,1.48,2.1,.05-.46,.38-.96-.28-1.18-2.19,.38-.71,3.86-.89,5.52-.62,.21-1.37,.47-2.19,.74,.05-2.41-.02-4.37-.25-6.79Z" fill="#14303f"/><path d="M905.68,123c1.27,2.23,4.16-1.53,2.5-2.88,.34-.52,.33-1.42,1.37-1.47,.05,.15,.1,.32,.16,.5,.21-.02,.41-.03,.63-.05,.36,.69-.63,.7-.69,1.34-.06,.8-.18,1.73,.46,2.34,.23,.23,.3,.42,.02,.58-.44,.26-.89,.61-1.44,.14-.09-.08-.38,.02-.54,.1-1.76,1.53-4.26,.97-3.66-1.49,1.44-4.64,6.2,.24,1.18,.91Zm-.21-.88c.31,.82,1.38,.07,1.31-.65-.29-1.18-1.29-.74-1.31,.65Z" fill="#14303f"/><path d="M898.06,126.8v-6.16c1.18-.09,3.34-1.27,3.96,.43,1.11,2.53-.76,5.46-3.96,5.73Zm1.27-1.19c1.93-.06,2.69-4.72,.39-4.56-.94,1.02-.15,3.04-.39,4.56Z" fill="#14303f"/><path d="M902.85,125.36v-4.13c.27-.06,.61-.14,1.04-.24-.36,1.46,.96,4.16-1.04,4.37Z" fill="#14303f"/><path d="M902.93,120.19c-.02-.89,.9-1.13,1.05-.33,.03,.62-.76,.91-1.05,.33Z" fill="#14303f"/><path d="M915.22,110.53v-2.22l1.03-.44v.42l-.73,.31v.47l.61-.26v.42l-.61,.26v.49l.73-.31v.42l-1.03,.44Z" fill="#14303f"/><path d="M916.31,109.77l.14-.38c.09,.11,.23,.19,.39,.12,.08-.03,.13-.09,.13-.18s-.06-.09-.17-.09h-.14c-.18,0-.32-.05-.32-.34,0-.32,.16-.58,.41-.68,.22-.09,.38,0,.45,.1l-.13,.37c-.1-.12-.23-.16-.34-.11-.07,.03-.12,.09-.12,.17,0,.09,.04,.1,.18,.1h.12c.23,0,.32,.1,.32,.35,0,.31-.17,.56-.41,.66-.23,.1-.43,.05-.52-.11Z" fill="#14303f"/><path d="M917.44,109.11v-.78l-.15,.06v-.36l.15-.06v-.19l.3-.37v.44l.28-.12v.36l-.28,.12v.69c0,.13,.04,.16,.1,.14,.06-.03,.12-.13,.15-.24l.09,.35c-.04,.11-.15,.27-.31,.33-.23,.1-.33-.07-.33-.37Z" fill="#14303f"/><path d="M918.2,109.27v-.51l.32-.14v.51l-.32,.14Z" fill="#14303f"/><path d="M918.8,109.01v-1.66l-.26,.11v-.36c.12-.05,.22-.14,.29-.32l.27-.12v2.22l-.3,.13Z" fill="#14303f"/><path d="M919.27,108.22c0-.23,.09-.5,.33-.68-.19,.03-.28-.14-.28-.39,0-.34,.18-.69,.52-.84,.34-.14,.52,.06,.52,.39,0,.26-.1,.51-.29,.64,.24-.02,.34,.17,.34,.39,0,.36-.18,.7-.57,.86s-.57-.02-.57-.38Zm.79-.44c0-.16-.08-.26-.22-.2-.15,.06-.22,.23-.22,.39,0,.15,.05,.27,.22,.19,.17-.07,.22-.23,.22-.38Zm-.03-.85c0-.14-.06-.24-.2-.18-.14,.06-.2,.21-.2,.34,0,.15,.06,.24,.2,.18,.12-.05,.2-.2,.2-.35Z" fill="#14303f"/><path d="M920.54,107.69c0-.23,.09-.5,.33-.68-.19,.03-.28-.14-.28-.39,0-.34,.18-.69,.52-.84,.34-.14,.52,.06,.52,.39,0,.26-.1,.51-.29,.64,.25-.02,.34,.17,.34,.4,0,.36-.18,.7-.57,.86-.38,.16-.57-.02-.57-.38Zm.79-.44c0-.16-.08-.26-.22-.2-.15,.06-.22,.23-.22,.39,0,.15,.05,.27,.22,.19,.17-.07,.22-.23,.22-.38Zm-.03-.85c0-.14-.06-.24-.2-.18-.14,.06-.2,.21-.2,.34,0,.15,.06,.24,.2,.18,.12-.05,.2-.2,.2-.35Z" fill="#14303f"/><path d="M921.83,107.24l.24-.44c.05,.24,.17,.32,.33,.26,.15-.06,.23-.22,.23-.45,0-.25-.1-.32-.24-.26-.11,.05-.19,.15-.22,.3v.02s-.29,.07-.29,.07l.05-1.26,.92-.39v.43l-.64,.27-.03,.7c.05-.22,.16-.42,.35-.5,.25-.11,.42,.07,.42,.53s-.22,.87-.55,1.01c-.3,.13-.5-.02-.57-.28Z" fill="#14303f"/></g><line x1="904.08" y1="29.47" x2="904.08" y2="35.88" fill="#fff" stroke="#14303f" stroke-linecap="round" stroke-miterlimit="10" stroke-width=".5"/><line x1="906.57" y1="29.47" x2="906.57" y2="35.88" fill="#fff" stroke="#14303f" stroke-linecap="round" stroke-miterlimit="10" stroke-width=".5"/><line x1="909.06" y1="29.47" x2="909.06" y2="35.88" fill="#fff" stroke="#14303f" stroke-linecap="round" stroke-miterlimit="10" stroke-width=".5"/><line x1="911.55" y1="29.47" x2="911.55" y2="35.88" fill="#fff" stroke="#14303f" stroke-linecap="round" stroke-miterlimit="10" stroke-width=".5"/><line x1="914.04" y1="29.47" x2="914.04" y2="35.88" fill="#fff" stroke="#14303f" stroke-linecap="round" stroke-miterlimit="10" stroke-width=".5"/><line x1="916.53" y1="29.47" x2="916.53" y2="35.88" fill="#fff" stroke="#14303f" stroke-linecap="round" stroke-miterlimit="10" stroke-width=".5"/></g><g id="soda-cup"><g><g class="fill-turquoise-2"><polyline points="920.36 39.29 920.36 11.66 955.47 11.66 955.47 15.66 924.63 15.66 924.63 39.29" fill="#fff" stroke="#120500" stroke-linejoin="round"/></g><g class="fill-white-2"><path d="M954.97,14.16v1h-30.81v20.88h-1V14.66c0-.28,.22-.5,.5-.5" fill="#fff"/></g><line x1="924.63" y1="15.66" x2="920.36" y2="11.66" fill="none" stroke="#120500" stroke-linejoin="round" stroke-width=".5"/><line x1="924.63" y1="15.66" x2="920.36" y2="13.92" fill="none" stroke="#120500" stroke-linejoin="round" stroke-width=".5"/><line x1="924.63" y1="15.66" x2="920.36" y2="15.66" fill="none" stroke="#120500" stroke-linejoin="round" stroke-width=".5"/><line x1="922.83" y1="11.66" x2="924.63" y2="15.66" fill="none" stroke="#120500" stroke-linejoin="round" stroke-width=".5"/><line x1="924.63" y1="11.66" x2="924.63" y2="15.66" fill="none" stroke="#120500" stroke-linejoin="round" stroke-width=".5"/></g><polygon points="960.41 32.28 882.32 32.28 895 130.91 897.96 130.91 900.9 151.19 941.83 151.19 944.77 130.91 947.73 130.91 960.41 32.28" fill="#fff"/><g class="fill-pink-4"><polygon points="892.7 32.28 882.32 32.28 895 130.91 897.96 130.91 900.9 151.19 906.8 151.19 903.92 130.91 905.56 130.91 892.7 32.28" fill="none"/></g><polyline points="897.96 130.91 900.9 151.19 941.83 151.19 944.77 130.91" fill="none" stroke="#14303f" stroke-linejoin="round"/><polygon points="882.32 32.28 895 130.91 947.73 130.91 960.41 32.28 882.32 32.28" fill="none" stroke="#14303f" stroke-linejoin="round"/><g class="fill-red-6"><path d="M898.39,84.58c-5.38-8.13-3.77-23.86,6.67-27.08,11.26-1.17,8.99,15.46-.26,17.04-1.61,2.7,.03,7.29,.24,10.66-1.33,.56-2.85,1.21-4.5,1.91,2.36-7.38-4.06-19.39,2.71-24.08,.09,.04,.18,.09,.26,.13,.17,3.1,.34,6.21,.52,9.43,5.57-.8,7.11-12.08,.15-11.04-8.59,3.19-9.07,15.72-5.59,22.9-.07,.04-.14,.09-.21,.13Z" fill="#14303f"/><path d="M914.41,111.28c-15.01,2.64-21.27-15.27-7.71-21.82,14.4,2.5,33.5-2.15,40.28-16.27,3.68-8.22,1.91-18.85-6.28-23.41,11.51,3.7,11.24,20.22,5.34,28.69-4.41,6.63-12.04,8.9-19.24,11.17,11.22,7.46-.92,20.91-10.98,21.18,8.77-1.68,17.7-13.29,8.96-20.41-5.98-.12-12.23,.42-18.24-.43-11.99,7.4-5.05,23.16,7.86,21.3Z" fill="#14303f"/><path d="M914.87,80.32c-6.26,7.95-12.53-1.13-6.28-6.38,6.13-3.48,6.01,6.62,.29,6.07,1.48,3.63,6.39-.54,6.02-3.22-.16-2.72-1.56-6.17,2.62-5.44,6.92-5.98,8.24,8.07,1.04,8.98-1.53,.83-.01,3.43-.2,5.05-.9,.31-1.96,.67-3,1.03-.27-2.02,.15-4.38-.49-6.09Zm2.87-1.38c2.71-.62,4.39-6.27,.99-6.42-2.29,.93-.62,4.33-.99,6.42Zm-9.46-1.37c.04,2.79,3.31-.1,2.62-1.55-.92-2.32-2.58,.12-2.62,1.55Z" fill="#14303f"/><path d="M914.28,70.41c.03-5.2,.24-10.42-1.18-15.35,4.26-2.19,12.18-4.72,13.06,2.03,2.01,7.68-5.28,11.88-11.87,13.32Zm3.66-3.27c5.91-.62,6.5-14.6-.27-11.61-.95,3.64,.25,7.75,.27,11.61Z" fill="#14303f"/><path d="M945.74,64.56c-1.99-4.99-1.71,4.28-1.45,5.61,.18,1.44-1.65,1.28-2.65,1.99,.08-.59,.13-.99,.21-1.62-6.04,9.57-12.97-3.36-4.64-7,5.18-1.31,4.35,7.1-.62,6.9,1.32,3.16,5.29-.76,5.01-3.09,.06-2.34-1.34-6.14,2.29-5.79,.01,.08,.02,.17,.03,.25,2.23-4.13,5.01,2.09,1.75,3.11,.02-.12,.04-.24,.06-.35Zm-9.92,4.25c2.07,.36,3.3-2.31,1.7-3.42-1.6,.13-1.28,2.19-1.7,3.42Z" fill="#14303f"/><path d="M924,68.52c.84-.31,1.86-.69,2.93-1.09,.13,.3,.22,.5,.32,.75,6.57-6.73,8,8.22,1.01,8.89-2.3,2.49,2.88,5.08-3.59,6.26,.08-4.94-.22-9.8-.68-14.82Zm6.09,2.78c.18-2-2.28-3.23-2.79-.87,.07,1.38,.11,2.77,.19,4.15,.67,2.55,2.94-1.96,2.6-3.28Z" fill="#14303f"/><path d="M927.59,55.71c.84-.16,2.21-1.27,3.15-.59,4-4.35,7.04,3.08,2.2,3.12,.07-.69,.57-1.43-.41-1.75-3.25,.57-1.05,5.74-1.32,8.21-.92,.31-2.04,.69-3.25,1.1,.07-3.59-.03-6.49-.37-10.09Z" fill="#14303f"/><path d="M916.21,100.94c1.89,3.32,6.18-2.27,3.72-4.29,.51-.77,.49-2.12,2.04-2.19,.08,.23,.16,.47,.25,.74,.32-.03,.61-.05,.94-.08,.54,1.03-.94,1.05-1.02,1.99-.09,1.18-.27,2.58,.68,3.47,.34,.34,.44,.62,.04,.86-.66,.38-1.33,.91-2.14,.2-.13-.11-.56,.03-.8,.15-2.61,2.28-6.33,1.44-5.45-2.21,2.15-6.9,9.22,.36,1.75,1.36Zm-.31-1.31c.46,1.22,2.05,.1,1.95-.97-.43-1.76-1.91-1.09-1.95,.97Z" fill="#14303f"/><path d="M904.89,106.58v-9.16c1.75-.14,4.97-1.89,5.88,.64,1.65,3.76-1.13,8.12-5.88,8.52Zm1.88-1.76c2.87-.09,4-7.01,.59-6.78-1.39,1.51-.22,4.52-.59,6.78Z" fill="#14303f"/><path d="M912.01,104.44v-6.14c.4-.09,.91-.21,1.54-.35-.54,2.17,1.43,6.19-1.54,6.49Z" fill="#14303f"/><path d="M912.13,96.75c-.04-1.32,1.34-1.68,1.56-.49,.04,.92-1.13,1.36-1.56,.49Z" fill="#14303f"/><path d="M930.41,82.39v-3.29l1.53-.65v.62l-1.08,.46v.69l.91-.39v.63l-.91,.39v.73l1.08-.46v.62l-1.53,.65Z" fill="#14303f"/><path d="M932.02,81.27l.21-.56c.13,.16,.35,.28,.58,.18,.12-.05,.19-.14,.19-.27s-.09-.14-.25-.14h-.21c-.27,.01-.47-.08-.47-.5,0-.47,.24-.86,.62-1.01,.33-.14,.57-.01,.67,.15l-.2,.56c-.15-.18-.34-.24-.51-.16-.11,.05-.17,.14-.17,.26,0,.13,.06,.15,.27,.15h.17c.33,0,.48,.15,.48,.51,0,.47-.25,.84-.6,.99-.34,.14-.64,.08-.77-.16Z" fill="#14303f"/><path d="M933.7,80.28v-1.16l-.23,.1v-.54l.23-.1v-.29l.45-.56v.65l.42-.18v.54l-.42,.18v1.03c0,.2,.06,.24,.15,.2,.1-.04,.18-.2,.23-.35l.13,.52c-.07,.16-.22,.4-.45,.5-.34,.14-.49-.1-.49-.55Z" fill="#14303f"/><path d="M934.83,80.51v-.76l.47-.2v.76l-.47,.2Z" fill="#14303f"/><path d="M935.72,80.13v-2.46l-.39,.17v-.54c.18-.08,.32-.22,.43-.48l.41-.17v3.29l-.44,.19Z" fill="#14303f"/><path d="M936.43,78.96c0-.34,.13-.74,.49-1.01-.29,.05-.42-.21-.42-.58,0-.5,.27-1.03,.77-1.24,.5-.21,.77,.09,.77,.58,0,.38-.15,.75-.44,.95,.36-.04,.51,.25,.51,.59,0,.54-.27,1.03-.84,1.28s-.84-.03-.84-.56Zm1.18-.66c0-.24-.11-.39-.33-.3-.22,.09-.33,.34-.33,.58,0,.23,.08,.4,.33,.29,.26-.11,.33-.34,.33-.57Zm-.04-1.26c0-.21-.08-.35-.29-.26-.21,.09-.29,.31-.29,.51,0,.23,.08,.36,.29,.27,.18-.08,.29-.3,.29-.52Z" fill="#14303f"/><path d="M938.31,78.16c0-.34,.13-.74,.49-1.01-.29,.05-.42-.21-.42-.58,0-.5,.27-1.03,.77-1.24,.5-.21,.77,.09,.77,.58,0,.38-.15,.75-.44,.95,.36-.04,.51,.25,.51,.59,0,.54-.27,1.03-.84,1.28-.57,.24-.84-.03-.84-.56Zm1.18-.66c0-.24-.11-.39-.33-.3-.22,.09-.33,.34-.33,.58,0,.23,.08,.4,.33,.29,.25-.11,.33-.34,.33-.57Zm-.04-1.26c0-.21-.08-.35-.29-.26-.21,.09-.29,.31-.29,.51,0,.23,.08,.36,.29,.27,.18-.08,.29-.3,.29-.52Z" fill="#14303f"/><path d="M940.23,77.49l.35-.65c.07,.36,.25,.48,.48,.38,.22-.09,.34-.33,.34-.68,0-.36-.15-.47-.35-.39-.17,.07-.29,.22-.32,.44v.03s-.43,.11-.43,.11l.07-1.88,1.37-.58v.63l-.95,.4-.05,1.05c.07-.32,.24-.63,.52-.75,.37-.16,.62,.11,.62,.78s-.33,1.3-.81,1.51c-.44,.19-.74-.02-.85-.42Z" fill="#14303f"/></g><rect x="878.45" y="27.66" width="85.82" height="4.72" fill="#eaebef" stroke="#14303f" stroke-linejoin="round"/></g><g id="plant"><g id="stems"><path d="M1025.65,66.76c-4.91,17.5-5.42,36.22-1.47,53.97" fill="none" stroke="#14303f" stroke-miterlimit="10"/><path d="M1001.6,108.12c-1.71-5.62-4.61-11.02-9.07-14.84s-10.61-5.91-16.36-4.67c-7.51,1.63-12.99,8.64-14.75,16.12s-.42,15.34,1.63,22.74c2.05,7.4,4.8,14.65,5.92,22.25,1.46,9.88,.03,20.17-4.05,29.29-2.7,6.03-6.52,11.53-9.05,17.64-5.48,13.22-4.48,28.39-.26,42.06,2.81,9.1,7.02,17.97,7.39,27.49,.38,9.52-4.58,20.22-13.85,22.4" fill="none" stroke="#14303f" stroke-linecap="round" stroke-miterlimit="10"/><path d="M1026.37,108.8c1.54-4.96,6.27-8.15,10.8-10.7,3.55-2,7.39-3.92,11.47-3.82,7.14,.18,12.78,6.64,14.82,13.48,2.05,6.84,1.44,14.15,1.66,21.29,.22,7.14,3.07,16.95,8.01,22.11" fill="none" stroke="#14303f" stroke-miterlimit="10"/><path d="M1101.3,150.65c1.69-4.58,5.26-9.02,9.04-12.1,4.22-3.44,9-6.46,14.36-7.44,5.36-.98,11.4,.42,14.91,4.58,2.74,3.24,3.62,7.62,4.4,11.79,1.15,6.11,2.3,12.22,3.45,18.34,1.44,7.65,3.49,16.22,10.18,20.21,5.63,3.36,13.19,2.19,18.49-1.68,5.29-3.87,8.57-9.97,10.42-16.26" fill="none" stroke="#14303f" stroke-linecap="round" stroke-linejoin="round"/><path d="M1002.33,72.49c4.75,15.76,7.24,32.2,7.38,48.67" fill="none" stroke="#14303f" stroke-linejoin="round"/></g><g class="fill-turquoise-3"><path d="M1023.33,110.27c-1.98,5.98-11.15,9.83-16.84,12.52-3.6-6.31-4.53-14.1-2.51-21.08,2.01-6.98,6.94-13.08,13.35-16.51,3.86,5.34,6.19,11.77,6.64,18.34,.15,2.26,.09,4.58-.63,6.73Z" fill="#eaebef" stroke="#14303f" stroke-linejoin="round"/><path d="M1060.83,83.35c-4.62,.79-8.47,7.12-11.08,11.01,4.25,3.35,9.87,4.89,15.24,4.18,5.36-.71,10.39-3.66,13.63-8-3.5-3.43-8.17-.42-12.77-6.91-.97-1.38-3.36-.57-5.02-.28Z" fill="#eaebef" stroke="#14303f" stroke-linejoin="round"/><path d="M1015.76,56.84c.04,4.65,5.62,9.43,9.01,12.6,3.95-3.63,6.36-8.88,6.52-14.25,.16-5.36-1.92-10.76-5.65-14.61-3.92,2.88-7,6.88-8.8,11.39-.62,1.55-1.09,3.2-1.08,4.87Z" fill="#eaebef" stroke="#14303f" stroke-linejoin="round"/><path d="M1006.94,77.42c3.41,3.16,10.71,2.39,15.35,2.1,.08-5.36-2.09-10.73-5.88-14.53-3.79-3.8-9.14-5.99-14.51-5.93-.59,4.83,.19,9.81,2.24,14.22,.7,1.52,1.57,2.99,2.8,4.13Z" fill="#eaebef" stroke="#14303f" stroke-linejoin="round"/><path d="M970.56,90.16c4.02,2.4,11.06,.1,15.58-1.16-1.05-5.31-4.32-10.14-8.85-13.09-4.53-2.95-10.27-3.98-15.55-2.79,.43,4.88,2.25,9.64,5.2,13.55,1.01,1.35,2.18,2.62,3.63,3.48Z" fill="#eaebef" stroke="#14303f" stroke-linejoin="round"/><path d="M1070.44,137.06c.05-3.23-3.75-6.65-6.05-8.91-2.81,2.45-4.57,6.07-4.78,9.8-.2,3.73,1.16,7.51,3.68,10.26,2.77-1.94,4.98-4.66,6.31-7.77,.46-1.07,.81-2.2,.83-3.37Z" fill="#eaebef" stroke="#14303f" stroke-linejoin="round"/><path d="M971.28,152.67c1.86-6.02-3.38-14.48-6.46-19.97-6.59,3.06-11.86,8.86-14.27,15.72-2.41,6.86-1.93,14.68,1.3,21.19,6.24-2.11,11.87-6,16.04-11.09,1.44-1.75,2.72-3.68,3.39-5.84Z" fill="#eaebef" stroke="#14303f" stroke-linejoin="round"/><path d="M952.88,210.05c-1.86-6.02,3.38-14.48,6.46-19.97,6.59,3.06,11.86,8.86,14.27,15.72,2.41,6.86,1.93,14.68-1.3,21.19-6.24-2.11-11.87-6-16.04-11.09-1.44-1.75-2.72-3.68-3.39-5.84Z" fill="#eaebef" stroke="#14303f" stroke-linejoin="round"/><path d="M1093.82,134.65c.13,4.49,5.6,9,8.94,12,3.75-3.58,5.98-8.7,6.04-13.88,.06-5.18-2.06-10.35-5.73-14.01-3.73,2.86-1.76,7.04-8.29,11.17-1.37,.86-1,3.11-.95,4.72Z" fill="#eaebef" stroke="#14303f" stroke-linejoin="round"/><path d="M1147.66,166.89c-2.71-2.64-2.37-8.61-2.32-12.39,4.36-.28,8.8,1.27,12.05,4.2,3.24,2.93,5.23,7.19,5.4,11.56-3.9,.68-7.99,.24-11.65-1.25-1.26-.51-2.49-1.16-3.47-2.11Z" fill="#eaebef" stroke="#14303f" stroke-linejoin="round"/></g><g class="fill-pink-5"><polygon points="1045.64 145.44 990.75 145.44 989.25 105.15 1047.14 105.15 1045.64 145.44" fill="#b4b9c5"/><rect x="987.43" y="145.44" width="61.52" height="5.71" fill="#eaebef"/></g><g class="fill-red-7"><polygon points="990.75 151.16 1038.78 151.16 1040.28 105.15 989.25 105.15 990.75 151.16" fill="#b4b9c5"/><rect x="987.43" y="145.44" width="55.06" height="5.71" transform="translate(2029.92 296.6) rotate(-180)" fill="#eaebef"/></g><polygon points="1045.64 145.44 990.75 145.44 989.25 105.15 1047.14 105.15 1045.64 145.44" fill="none" stroke="#14303f" stroke-linejoin="round"/><g class="fill-yellow-2"><path d="M979,104.29c-1.47-4.45-8.3-7.32-12.53-9.32-2.68,4.7-3.37,10.49-1.87,15.69,1.5,5.2,5.16,9.73,9.93,12.29,2.87-3.97,4.6-8.76,4.94-13.65,.12-1.68,.06-3.41-.47-5.01Z" fill="#fff" stroke="#14303f" stroke-linejoin="round"/><path d="M994.8,97.11c2.25,4.11,9.49,5.69,14.02,6.89,1.78-5.11,1.41-10.93-1.01-15.77-2.42-4.84-6.85-8.63-12-10.28-2.1,4.43-2.94,9.45-2.38,14.32,.19,1.68,.56,3.36,1.37,4.84Z" fill="#fff" stroke="#14303f" stroke-linejoin="round"/><path d="M1140.62,144.32c-3.71-1.87-5.34-8.23-6.54-12.2,4.47-1.74,9.64-1.59,14,.4,4.36,1.99,7.86,5.79,9.49,10.3-3.86,2-8.28,2.9-12.61,2.56-1.49-.12-2.99-.39-4.33-1.06Z" fill="#fff" stroke="#14303f" stroke-linejoin="round"/><path d="M955.16,260.01c-1.12-3.61,2.03-8.7,3.88-12,3.96,1.84,7.13,5.32,8.58,9.44,1.45,4.12,1.16,8.82-.78,12.73-3.75-1.27-7.13-3.61-9.64-6.67-.86-1.05-1.64-2.21-2.04-3.51Z" fill="#fff" stroke="#14303f" stroke-linejoin="round"/></g><g id="leaves-dark" class="fill-blue"><path d="M957.51,122.04c3.54-3.07,3.55-10.48,3.76-15.16-5.37-.66-10.98,.94-15.2,4.33-4.22,3.39-6.99,8.52-7.5,13.91,4.77,1.12,9.86,.87,14.5-.71,1.6-.54,3.17-1.26,4.44-2.36Z" fill="#b4b9c5" stroke="#14303f" stroke-linejoin="round"/><path d="M1037.27,89.75c-3.99,2.38-10.97,.1-15.45-1.15,1.04-5.26,4.28-10.05,8.78-12.98,4.5-2.93,10.19-3.95,15.42-2.77-.43,4.84-2.23,9.56-5.16,13.44-1.01,1.34-2.16,2.6-3.6,3.45Z" fill="#b4b9c5" stroke="#14303f" stroke-linejoin="round"/><path d="M986.05,67.53c2.6,5.21,11.51,7.53,17.08,9.24,2.46-6.26,2.28-13.51-.49-19.64-2.77-6.13-8.09-11.06-14.41-13.36-2.83,5.4-4.11,11.6-3.65,17.68,.16,2.09,.53,4.2,1.46,6.08Z" fill="#b4b9c5" stroke="#14303f" stroke-linejoin="round"/><path d="M981.27,176.2c-1.47-4.45-8.3-7.32-12.53-9.32-2.68,4.7-3.37,10.49-1.87,15.69,1.5,5.2,5.16,9.73,9.93,12.29,2.87-3.97,4.6-8.76,4.94-13.65,.12-1.68,.06-3.41-.47-5.01Z" fill="#b4b9c5" stroke="#14303f" stroke-linejoin="round"/><path d="M1075.29,114.46c-1.47-4.45-8.3-7.32-12.53-9.32-2.68,4.7-3.37,10.49-1.87,15.69,1.5,5.2,5.16,9.73,9.93,12.29,2.87-3.97,4.6-8.76,4.94-13.65,.12-1.68,.06-3.41-.47-5.01Z" fill="#b4b9c5" stroke="#14303f" stroke-linejoin="round"/><path d="M955.64,193.42c3.03-1.13,4.83-5.91,6.09-8.88-3.31-1.72-7.32-2.05-10.86-.88-3.54,1.17-6.57,3.81-8.21,7.17,2.81,1.87,6.16,2.94,9.54,3.05,1.16,.04,2.35-.05,3.44-.45Z" fill="#b4b9c5" stroke="#14303f" stroke-linejoin="round"/><path d="M958.09,239.82c1.49-4.84-2.72-11.65-5.2-16.07-5.31,2.46-9.55,7.13-11.49,12.65-1.94,5.52-1.55,11.82,1.04,17.06,5.02-1.7,9.55-4.83,12.91-8.93,1.16-1.41,2.19-2.96,2.73-4.7Z" fill="#b4b9c5" stroke="#14303f" stroke-linejoin="round"/><path d="M1117.93,152.25c-3.51-3.86-2.56-12.06-2.17-17.27,6.03-.02,12.02,2.48,16.25,6.78,4.22,4.3,6.61,10.34,6.48,16.37-5.43,.61-11.02-.33-15.95-2.69-1.7-.81-3.34-1.8-4.6-3.19Z" fill="#b4b9c5" stroke="#14303f" stroke-linejoin="round"/><path d="M1147.2,187.94c2.71-2.64,2.37-8.61,2.32-12.39-4.36-.28-8.8,1.27-12.05,4.2-3.24,2.93-5.23,7.19-5.4,11.56,3.9,.68,7.99,.24,11.65-1.25,1.26-.51,2.49-1.16,3.47-2.11Z" fill="#b4b9c5" stroke="#14303f" stroke-linejoin="round"/></g><rect x="987.43" y="145.44" width="61.52" height="5.71" fill="none" stroke="#14303f" stroke-linejoin="round"/></g><g id="head-print"><polygon points="526.45 309.68 744.36 309.68 744.36 112.7 670.07 61.46 526.45 61.46 526.45 309.68" fill="#fff" stroke="#14303f" stroke-linejoin="round"/><g id="head-bg" class="fill-blue"><polygon points="538.31 298.33 732.5 298.33 732.5 108.54 677.19 72.81 538.31 72.81 538.31 298.33" fill="#eaebef" stroke="#14303f" stroke-linejoin="round" stroke-width=".5"/></g><g id="jar"><g id="jar-liquid" class="fill-turquoise"><path d="M571.6,238.24V103.26c0-6.07,28.44-10.99,63.53-10.99s63.53,4.92,63.53,10.99V238.24" fill="#fff"/></g><circle cx="586.93" cy="131.91" r="3.11" fill="#fff"/><circle cx="590.04" cy="122.92" r="1.33" fill="#fff"/><circle cx="684.59" cy="118.2" r="1.41" fill="#fff"/><path d="M700.95,269.84c0,6.29-29.47,11.39-65.82,11.39s-65.82-5.1-65.82-11.39c0-1.4-.02-16.4-.02-16.4l2.04-3.92s41.92,4.11,63.4,4.11c23.3,0,63.79-4.11,63.79-4.11l2.43,4.06v16.26Z" fill="#eaebef" stroke="#14303f" stroke-linejoin="round"/><path d="M700.95,246.44c0,6.29-29.47,11.39-65.82,11.39s-65.82-5.1-65.82-11.39c0-1.4-.39-8.63,2.3-9.87,9.34-4.32,35.28-1.52,63.53-1.52s53.53-2.44,63.53,1.65c3.33,1.36,2.3,8.17,2.3,9.74Z" fill="#eaebef" stroke="#14303f" stroke-miterlimit="10"/><g class="fill-turquoise-4"><ellipse cx="635.12" cy="238" rx="63.53" ry="10.99" fill="#eaebef" stroke="#14303f" stroke-miterlimit="10"/><path d="M575.93,242c9.24-4.09,32.26-6.99,59.19-6.99s49.95,2.9,59.19,6.99" fill="#eaebef" stroke="#14303f" stroke-miterlimit="10"/></g><path d="M571.6,238.24V103.26c0-6.07,28.44-10.99,63.53-10.99s63.53,4.92,63.53,10.99V238.24" fill="none" stroke="#14303f" stroke-miterlimit="10"/><line x1="577.02" y1="106.74" x2="577.02" y2="241.79" fill="none" stroke="#14303f" stroke-miterlimit="10" stroke-width=".5"/><line x1="693.23" y1="241.79" x2="693.23" y2="106.74" fill="none" stroke="#14303f" stroke-miterlimit="10" stroke-width=".5"/><ellipse cx="635.12" cy="106.74" rx="58.11" ry="10.06" fill="none" stroke="#14303f" stroke-miterlimit="10" stroke-width=".5"/><g class="fill-yellow-3"><path d="M680.19,272.58c0-1.63,1.33-2.96,2.96-2.96v-7.64c-1.43,0-2.62-1.01-2.9-2.35-11.78,1.92-27.66,3.1-45.13,3.1s-33.84-1.22-45.68-3.19c-.24,1.39-1.45,2.45-2.91,2.45v7.64c1.63,0,2.96,1.32,2.96,2.96,0,.12-.02,.23-.04,.35,11.84,1.97,27.93,3.19,45.66,3.19s33.33-1.18,45.11-3.1c-.02-.14-.04-.29-.04-.44Z" fill="#fff" stroke="#14303f" stroke-linejoin="round" stroke-width=".5"/></g></g><g id="lynn-2"><g id="lynn-neck"><g class="fill-turquoise-5"><path d="M607.14,235.26s.95-.75,2.77-3.62-1.82-24.61-1.82-24.61l53-3.26s-3.26,26.96,4.04,31.77" fill="#b4b9c5"/></g><g class="fill-turquoise-6"><path d="M661.15,225.68l1.53,6.41s-13.8,2.73-29.55,2.73-23.39-2.67-23.39-2.67c1.59-1.73,.36-6.53,.36-6.53l-6.29,3.35v10.24c0,2.76,14.29,5.77,31.91,5.77s31.91-3.01,31.91-5.77v-10.41c0-1.43-6.47-3.11-6.47-3.11Z" fill="#eaebef"/></g><path d="M609.74,232.15c1.82-2.86-1.5-25.12-1.5-25.12" fill="none" stroke="#14303f" stroke-miterlimit="10"/><path d="M661.24,203.77s-2.36,19.53,1.44,28.31" fill="none" stroke="#14303f" stroke-miterlimit="10"/><path d="M661.49,228.18c2.21,.64,3.47,1.37,3.47,2.15,0,2.49-12.91,4.51-28.83,4.51-11.78,0-21.91-1.11-26.39-2.69-1.57-.56-2.44-1.17-2.44-1.82,0-.76,1.19-1.47,3.28-2.09" fill="none" stroke="#14303f" stroke-miterlimit="10"/><path d="M610.51,225.61c-3.2,.57-6.29,3.35-6.29,3.35v10.24c0,2.76,14.29,5.77,31.91,5.77s31.91-3.01,31.91-5.77v-10.41s-3.54-3.11-6.97-3.11" fill="none" stroke="#14303f" stroke-linejoin="round"/><g class="fill-turquoise-7"><rect x="633.35" y="237.35" width="4.73" height="5.29" fill="#fff" stroke="#14303f" stroke-linejoin="round" stroke-width=".5"/><polygon points="650.97 241.81 646.24 242.07 646.24 236.78 650.97 236.52 650.97 241.81" fill="#fff" stroke="#14303f" stroke-linejoin="round" stroke-width=".5"/><polygon points="661.6 240.22 657.46 240.91 657.46 235.62 661.6 234.92 661.6 240.22" fill="#fff" stroke="#14303f" stroke-linejoin="round" stroke-width=".5"/><polygon points="669.23 236.61 666.02 238.35 666.02 233.06 669.23 231.32 669.23 236.61" fill="#fff" stroke="#14303f" stroke-linejoin="round" stroke-width=".5"/><polygon points="621.5 241.81 626.23 242.07 626.23 236.78 621.5 236.52 621.5 241.81" fill="#fff" stroke="#14303f" stroke-linejoin="round" stroke-width=".5"/><polygon points="610.87 240.22 615.01 240.91 615.01 235.62 610.87 234.92 610.87 240.22" fill="#fff" stroke="#14303f" stroke-linejoin="round" stroke-width=".5"/><polygon points="603.24 236.61 606.45 238.35 606.45 233.06 603.24 231.32 603.24 236.61" fill="#fff" stroke="#14303f" stroke-linejoin="round" stroke-width=".5"/></g></g><g id="lynn-head"><g id="lynn-hair"><path d="M674.81,144.85s12.32-7.98,12.54,8.21c0,0,18.9,18.15-1.36,37.23,0,0,5.65,19.65-18.8,18-24.46-1.65,7.62-63.44,7.62-63.44Z" fill="#14303f"/><path d="M594.46,144.85s-12.32-7.98-12.54,8.21c0,0-18.9,18.15,1.36,37.23,0,0-5.65,19.65,18.8,18,24.46-1.65-7.62-63.44-7.62-63.44Z" fill="#14303f"/><path d="M635.16,109.35c-66.57,0-35.74,91.44-35.74,91.44h71.01s31.3-91.44-35.27-91.44Z" fill="#14303f"/></g><g class="fill-turquoise-8"><path d="M671.8,178.35c-.19-4.14-.51-8.3-.72-12.36-.67-3.34-.39-6.43-.56-9.83l-.54-.96v-.13c-.04-5.68-3.22-10.61-7.66-14.74-6.14-5.04-14.9-9.58-20.9-12.4-3.49-1.42-6.06-2.24-6.68-2.43-2.49,.79-35.8,11.79-35.66,30.1l-.17,1.1h-.07c.26,2.47,.68,4.87,.41,7.04h-.14c-.5,4.07-.88,7.81-1.12,11.26l.03,1.4c-.03,.49-.06,.98-.08,1.46l.12-.02,.28,13.19c.01,1.33,.1,2.83,.26,4.46,1.7,9.33,5.73,15.29,12.3,20.41,18.69,16.16,44.76,4.94,48.22,.13,8.79-6.48,11.83-15.42,12.63-25.15,0-.14,0-.27,0-.4l.08-12.14Z" fill="#b4b9c5"/></g><g id="lynn-face-highlights"><path d="M668.37,175.04s1.41,27.56-7.55,39.54c0,0,7.21-6.45,9.5-14.3,2.28-7.84,.75-34.3,.75-34.3l-2.7,9.05" fill="#eaebef" opacity=".5"/><g><path d="M628.55,155.45s-.15,.02-.4,.04c.12,.22,.19,.36,.19,.36l.21-.39Z" fill="#eaebef" opacity=".5"/><path d="M641.43,127.94c-3.49-1.42-6.07-2.24-6.7-2.44-.57,.18-2.77,.91-5.81,2.13-2.77,1.26-6.05,2.76-8.71,3.98-2.05,1.06-4.16,2.25-6.22,3.57-4.1,4.52-9.8,16.47-1.95,18.62,7.97,2.18,14.49,1.82,16.12,1.68-.64-1.17-2.95-4.96-6.21-5.5-3.87-.64-3.49-4.07,2.05-2.55s9.07,5.4,8.44,10.94c-.63,5.54,8.91-1.05,8.91-1.05,0,0-2-4.8,2.01-6.58,4-1.78,6.8-.25,9.35-2.29,2.05-1.64-2.73-14.44-11.26-20.51Z" fill="#eaebef" opacity=".5"/></g><path d="M648.69,200.79s-.83-.98,.65,0c2.17,1.43,4.24-1.33,2.01-1.59-1.11-.13-5.59-3.51-8.02-5.08-2.43-1.58-5.32,.74-7.2,.74s-4.7-1.54-5.99-1.35-6.88,3.65-2.83-2.64c2.56-3.98,4.33-6.11,6.9-5.92s3.17-2.5,7.3,.33c0,0,6.22-1.88,10.19,1.55,2.31,1.99,7.04-5.62,10.79-2.17,3.74,3.45-1.12,30.03-9.13,35.06-8.01,5.03-22.84,.8-23.16-3.34-.32-4.14,13.6-7.98,14.03-9.75,.43-1.77-6.66-3.05-6.66-3.05,0,0,7.09,.33,11.13-2.79" fill="#eaebef" opacity=".5"/><path d="M617.63,184.71c-.55-1.38-8.76-.31-8.06,1.56,.7,1.87,2.92,4.06,4.86,2.81,1.94-1.25,3.75-2.97,3.2-4.37Z" fill="#eaebef" opacity=".5"/><path d="M631.53,160.91l-2.59,10.68s.94,3.59,3.48,3.67,7.1,2.12,6.23,4.64,3.65,3.95,5.89,3.21c.73-.24,1.6-2.46-.31-5.9-1.92-3.44-4.97-17.99-4.97-17.99l-7.73,1.69Z" fill="#eaebef" opacity=".5"/><path d="M624.92,157.08c-1.04-1.91-13.02-1.75-13.02-1.75,0,0-2.05,4.29,.97,4.59l-.63,.77s.48,2.2,2.26,2.62c1.78,.42,.29,1.34-2.26,1.13-4.75-.4-9.22,2.32-9.16,6.22,.06,3.9,1.24,8.89,3.68,8.92,2.43,.02,16.56,.57,17.38-16.66,0,0,3.15-1.49,.78-5.84Z" fill="#eaebef" opacity=".5"/><path d="M660.88,155.05s3.72,8.51,2.43,9.03-4.19-1.59-3.9-.46c.28,1.13,4.82,5.88,6.13,4.19,1.31-1.69-1.38-13.38-1.38-13.38l-3.28,.62Z" fill="#eaebef" opacity=".5"/><path d="M659.83,143.59c.5,1.98,5.31,8.88,4.56,10.84-.76,1.95,2.85,2.44,1.66-1.37-1.2-3.82-6.72-11.45-6.21-9.46Z" fill="#eaebef" opacity=".5"/><path d="M650.86,154.43s3.28,1.7,3.28,4.09l-1.41,5.13s-2.48,1.03,.72,.97,10,3.51,9.6,7.89c-.4,4.37-2.29,6.86-8.29,6.88-5.99,.02-10.71-1.47-11.58-4.52s-4.46-15.64-4.46-15.64l6.99-3.89,5.15-.91Z" fill="#eaebef" opacity=".5"/><path d="M606.43,158.08c.85-.04-1.74,9.43-2.55,9.11s1.7-9.07,2.55-9.11Z" fill="#eaebef" opacity=".5"/></g><path d="M671.8,162.92l-.17,27.29c.15,19.52-16.41,33.92-36.8,33.92s-36.45-13.84-36.6-33.36l-.58-27.29" fill="none" stroke="#14303f" stroke-miterlimit="10"/><g id="lynn-nose_none-stroke"><path d="M641,180.15c-.68-.68-1.5-1-2.06-.87h0c-.56,.1-2.06,.66-2.18,1.93-.1,1.07-.78,1.6-1.6,1.6s-1.5-.53-1.6-1.6c-.12-1.27-1.62-1.83-2.18-1.93h0c-.56-.13-1.39,.19-2.07,.88-.86,.86-1.16,1.96-.67,2.46,.4,.4,1.2,.27,1.95-.24h0c1.22-.63,2.88,1.04,4.58,1.04s3.43-1.8,4.58-1.03c.74,.51,1.54,.64,1.94,.24,.5-.5,.2-1.6-.67-2.46Z" fill="#14303f"/><path d="M626.29,177.29s-3.75,5.42,1.26,7.13-6.88,3.73-2.62-6.39c4.26-10.12,1.36-.74,1.36-.74Z" fill="#14303f"/><path d="M643.44,177.29s3.75,5.42-1.26,7.13c-5,1.7,6.88,3.73,2.62-6.39-4.26-10.12-1.36-.74-1.36-.74Z" fill="#14303f"/></g><g id="lynn-eyes"><circle cx="617.46" cy="160.69" r="2.95" fill="#14303f"/><path d="M625.13,163.2s-.01,0-.02,0l-3.38-.08s1.98-1.21,.78-2.44c-.62-.64-1.67-1.64-3.47-1.9-3.85-.57-7.41,2.48-7.45,2.52,0,0,3.29-4.42,7.76-3.76,2.54,.37,4.61,1.87,6.35,4.63,.13,.21,.14,.48,.02,.7-.12,.21-.35,.34-.59,.34Z" fill="#14303f"/><circle cx="652.73" cy="160.69" r="2.95" fill="#14303f"/><path d="M645.06,163.2s.01,0,.02,0l3.38-.08s-1.98-1.21-.78-2.44c.62-.64,1.67-1.64,3.47-1.9,3.85-.57,7.41,2.48,7.45,2.52,0,0-3.29-4.42-7.76-3.76-2.54,.37-4.61,1.87-6.35,4.63-.13,.21-.14,.48-.02,.7,.12,.21,.35,.34,.59,.34Z" fill="#14303f"/><circle cx="618.86" cy="160.22" r=".69" fill="#eaebef"/><circle cx="654.14" cy="160.22" r=".69" fill="#eaebef"/></g><g id="lynn-mouth"><path d="M650.44,200.67s-1.22,.64-3.82-1c-2.59-1.64-3.9-2.53-7.29-1.78-2.22,.49-3.7,.48-3.7,.48,0,0-1.49,.01-3.7-.48-3.39-.75-4.7,.14-7.29,1.78-2.59,1.64-3.82,1-3.82,1" fill="none" stroke="#14303f" stroke-linecap="round" stroke-miterlimit="10"/></g><g id="lynn-glasses"><g id="glasses-details"><path d="M611.06,155.44c6.13-.33,15.79,1.67,16.39,2.2,1.6,.18,10.86,.9,13.89,1.12,0,0,1.62-1.88,3.42-2.48,2.57-.86,7.76-1.17,13.89-.85,5.1,.27,16.38,2.47,16.38,2.18l.17-2.19c0-.29-.23-.46-.53-.53-.3-.06-5.07-1.09-5.07-1.09,0,0,0,0,0,0-2.69-.76-7.72-1.21-10.72-1.38-3.13-.17-10.87-.41-15.08,.99-1.06,.35-1.93,.79-2.66,1.28h0s0,0-.02,.01c-.06,.04-.11,.08-.17,.12-.65,.43-2.93,1.79-6.1,1.83-2.74,.03-5.34-1.37-6.32-1.97-.13-.09-.26-.17-.4-.25,0,0,0,0,0,0h0c-.64-.38-1.37-.72-2.24-1.01-4.21-1.4-11.95-1.16-15.08-.99-3,.16-8.02,.61-10.72,1.38,0,0,0,0,0,0,0,0-4.77,1.02-5.07,1.09-.3,.06-.53,.24-.53,.53l.26,2.04s11.87-1.79,16.29-2.03Z" fill="#eaebef"/><path d="M643.05,156.27s-2.01,4.26-1.44,6.65c.77,3.23,2.32,13.68,7.59,15.56l-2.8-.9-3.8-4.79-3.34-10.48,2.08-4.97,1.72-1.06Z" fill="#eaebef"/><path d="M598.61,157.25s-4.07-1.8-4.03-1.14c.07,1.24-.11,3.06-.02,3.63,.09,.58,1.81-.25,1.97,1.41,.09,.9,2.08-3.9,2.08-3.9Z" fill="#eaebef"/><path d="M673.21,161.16c.16-1.66,1.88-.83,1.97-1.41,.09-.58-.1-2.4-.02-3.63,.04-.66-4.03,1.14-4.03,1.14,0,0,2,4.81,2.08,3.9Z" fill="#eaebef"/><path d="M620.29,178.52l-.19-.57c3.04-.99,6.39-6.6,7.96-13.34l.02-.08c.64-2.75,.8-6.1-3.7-7.6l.19-.57c5.03,1.68,4.75,5.55,4.1,8.31l-.02,.08c-1.64,7.04-5.08,12.71-8.36,13.77Z" fill="#eaebef"/><path d="M664.28,179.38l-.71-1.16c2.07-1.26,4.79-7.71,5.34-14.47,.21-2.6-.29-4.56-1.5-5.83-1.55-1.62-3.76-1.55-3.78-1.55l-.05-1.36c.11,0,2.84-.09,4.81,1.97,1.49,1.56,2.12,3.87,1.88,6.87-.55,6.77-3.29,13.88-5.99,15.51Z" fill="#eaebef"/><path d="M605.46,179.38c-2.69-1.64-5.43-8.74-5.98-15.51-.25-3.01,.39-5.32,1.88-6.87,1.97-2.06,4.7-1.98,4.81-1.97l-.05,1.36,.03-.68-.02,.68s-2.25-.05-3.79,1.57c-1.2,1.26-1.71,3.22-1.49,5.81,.55,6.76,3.27,13.21,5.34,14.47l-.71,1.16Z" fill="#eaebef"/></g><g id="glasses-frame"><path d="M674.68,155.65c-.3-.06-5.07-1.09-5.07-1.09,0,0,0,0,0,0-2.69-.76-7.72-1.21-10.72-1.38-3.13-.17-10.87-.41-15.08,.99-1.06,.35-1.93,.79-2.66,1.28h0s0,0-.02,.01c-.06,.04-.11,.08-.17,.12-.65,.43-2.93,1.79-6.1,1.83-2.74,.03-5.34-1.37-6.32-1.97-.13-.09-.26-.17-.4-.25,0,0,0,0,0,0h0c-.64-.38-1.37-.72-2.24-1.01-4.21-1.4-11.95-1.16-15.08-.99-3,.16-8.02,.61-10.72,1.38,0,0,0,0,0,0,0,0-4.77,1.02-5.07,1.09-.3,.06-.53,.24-.53,.53v2.26c0,.29,.24,.53,.53,.53,0,0,1.51-.08,1.51,2.85,0,.13,0,.23,.02,.33,.23,5.96,2.63,14.15,5.15,16.67,1.87,1.87,6.77,2.78,11.62,2.78,3.12,0,6.22-.38,8.5-1.12,2.82-.92,5.22-3.47,7.14-7.59,.69-1.47,1.67-3.93,2.45-7.3l.02-.08c.1-.42,.23-.97,.33-1.61h0s.69-2.76,3.08-2.76,3.11,3.02,3.11,3.02h0c.09,.52,.2,.98,.28,1.34l.02,.08c.79,3.36,1.77,5.83,2.45,7.3,1.92,4.12,4.32,6.67,7.14,7.59,2.28,.74,5.38,1.12,8.5,1.12,4.86,0,9.75-.91,11.62-2.78,2.52-2.52,4.92-10.71,5.15-16.67,.01-.09,.02-.2,.02-.33,0-2.94,1.51-2.85,1.51-2.85,.29,0,.53-.24,.53-.53v-2.26c0-.29-.23-.46-.53-.53Zm-46.15,9.19l-.02,.08c-1.62,6.94-4.45,11.68-7.59,12.7-2.47,.8-6.27,1.14-9.94,.89-3.93-.27-6.41-1.11-7.13-1.82-2.15-2.15-4.73-11.78-3.67-16.93,.61-2.98,5.08-3.26,10.88-3.57,6.13-.33,11.32-.01,13.89,.85,4.62,1.54,4.26,4.83,3.57,7.8Zm37.34,11.85c-.71,.71-3.19,1.55-7.13,1.82-3.67,.25-7.48-.09-9.94-.89-3.13-1.02-5.97-5.77-7.59-12.7l-.02-.08c-.69-2.97-1.05-6.26,3.57-7.8,2.57-.86,7.76-1.17,13.89-.85,5.81,.31,10.28,.59,10.88,3.57,1.05,5.15-1.53,14.78-3.67,16.93Z" fill="#14303f"/></g><g id="glasses-shadows"><path d="M665.11,155.58s4.48,12.72,.76,21.1c-3.73,8.38,5.21-10.7,5.21-10.7l-.75-9.72-5.21-.69Z" fill="#14303f"/><path d="M606.16,155.02s-5.09,3.85-3.2,21.38c1,9.23-4.35-19.15-4.35-19.15l7.55-2.23" fill="#14303f"/></g></g></g></g><polygon points="744.35 112.7 670.07 61.46 689.91 127.89 744.35 112.7" fill="#14303f" stroke="#14303f" stroke-linejoin="round"/><g class="fill-white-3"><polygon points="744.36 112.7 670.07 61.46 682.09 123.12 744.36 112.7" fill="#eaebef" stroke="#14303f" stroke-linejoin="round"/></g></g><g id="weird-web"><rect x="1012.24" y="202.62" width="100.5" height="30.82" fill="#14303f" stroke="#14303f" stroke-linejoin="round"/><g class="fill-yellow-4"><rect x="1009.71" y="200.25" width="105.56" height="30.82" fill="#eaebef" stroke="#14303f" stroke-linejoin="round"/></g><rect x="1105.99" y="192.45" width="6.88" height="13.06" transform="translate(182.43 -442.19) rotate(24.5)" fill="#fff" stroke="#14303f" stroke-linejoin="round" stroke-width=".5"/><rect x="1013.03" y="192.45" width="6.88" height="13.06" transform="translate(-19.13 217.34) rotate(-12.09)" fill="#fff" stroke="#14303f" stroke-linejoin="round" stroke-width=".5"/><text transform="translate(1021.5 214.61)" fill="#14303f" font-family="CabinetGrotesk-Variable" font-size="9" font-weight="700"><tspan x="0" y="0" letter-spacing="-.02em">T</tspan><tspan x="4.98" y="0" letter-spacing=".03em">H</tspan><tspan x="11.36" y="0" letter-spacing=".01em">E </tspan><tspan x="18.48" y="0" letter-spacing="-.01em">W</tspan><tspan x="27.13" y="0" letter-spacing="0em">E</tspan><tspan x="32.32" y="0" letter-spacing="0em">B </tspan><tspan x="40.03" y="0" letter-spacing="0em">I</tspan><tspan x="42.25" y="0" letter-spacing="0em">S B</tspan><tspan x="55.72" y="0" letter-spacing="-.01em">E</tspan><tspan x="60.8" y="0" letter-spacing="0em">T</tspan><tspan x="65.92" y="0" letter-spacing="-.02em">T</tspan><tspan x="70.89" y="0" letter-spacing="0em">E</tspan><tspan x="76.09" y="0" letter-spacing="0em">R</tspan><tspan x="4.16" y="10" letter-spacing="-.01em">W</tspan><tspan x="12.81" y="10" letter-spacing=".03em">H</tspan><tspan x="19.19" y="10" letter-spacing="0em">E</tspan><tspan x="24.38" y="10" letter-spacing="0em">N </tspan><tspan x="32.4" y="10" letter-spacing="-.02em">I</tspan><tspan x="34.51" y="10" letter-spacing=".02em">T</tspan><tspan x="39.81" y="10" letter-spacing=".01em">’S </tspan><tspan x="49.44" y="10" letter-spacing="-.01em">W</tspan><tspan x="58.09" y="10" letter-spacing="0em">E</tspan><tspan x="63.28" y="10" letter-spacing=".03em">I</tspan><tspan x="65.81" y="10" letter-spacing="0em">R</tspan><tspan x="71.68" y="10" letter-spacing=".01em">D</tspan></text></g><g id="otter-print"><path d="M500.62,303.59s-17.45,1.8-32.42,1.8-29.05-1.69-29.05-1.69v-29.36h61.47v29.24Z" fill="#14303f" stroke="#14303f" stroke-linejoin="round"/><g class="fill-red-8"><rect x="433.89" y="190.88" width="70.38" height="112.53" fill="#fff" stroke="#14303f" stroke-linejoin="round"/></g><rect x="434.08" y="182.39" width="6.88" height="20.04" transform="translate(412.58 -284.9) rotate(63.27)" fill="#fff" stroke="#14303f" stroke-linejoin="round" stroke-width=".5"/><rect x="496.39" y="183.45" width="6.88" height="20.04" transform="translate(969.18 -65.31) rotate(129.97)" fill="#fff" stroke="#14303f" stroke-linejoin="round" stroke-width=".5"/><rect x="499.1" y="296.17" width="6.88" height="15.34" transform="translate(490.3 -283.29) rotate(57.65)" fill="#fff" stroke="#14303f" stroke-linejoin="round" stroke-width=".5"/><rect x="432.69" y="296.47" width="6.88" height="15.34" transform="translate(944.26 147.55) rotate(127.98)" fill="#fff" stroke="#14303f" stroke-linejoin="round" stroke-width=".5"/><g id="otter"><g class="fill-yellow-5"><path d="M458.57,267.54c-.83,5.78,1.18,12.88-.31,18.35-1.07,1.38-3.22,1.29-4.62,2.34-.97,2.22,9.22,1.2,10.58,.09l4.45-24.2-10.11,3.43Z" fill="#eaebef" stroke="#14303f" stroke-linecap="round" stroke-linejoin="round" stroke-width=".5"/></g><path d="M472.81,255.98c-3.72,2.56-10.4,2.77-14.58,1.83,0,0-1.1,.87-2.23,.1-.08-.05-.55,.75-.63,.86-1.17,1.63-3.83,7.37-4.09,7.9,3.57,2.43,6.52,1.56,11.36,1.78,1.13-1.52,5.62-4.06,6.39-4.32,.59-.24,1.2-.51,1.81-.75,.43-4.23,2.45-4.98,1.97-7.42Z" fill="#fff"/><g><path d="M486.33,277.74c-1.22-4.08-3.41-7.92-6.65-10.73l-6.63,1.97-7.7,10.61c-1.1,2.73-2.74,12.03,2.38,9.63,1.65-2.7-2.62-5.9,2.99-8.31,0,2.82,0,5.65,0,8.47,1.01,0,2.02,0,3.03,.01-.01-.3-.02-.59-.03-.89h.99c7.73,2.71,14.13-2.46,11.62-10.77Z" fill="#fff"/><g class="fill-yellow-6"><path d="M478.74,215.53c-.13-2.63-2.53-4.41-5.03-3.21-3.82-.21-15.83-.76-16.45-.8-3.94-.52-3.45,6.67,.2,6.22-.24,1.36-1.42,28.57-2.49,36.38-.17,1.22-.89,2.49-.75,2.98,.05,.18,.45-.07,.93,.11,.83,.32,1.14,.88,1.91,1.04,1.19-.46,9.39,.91,10.78,.96l5-3.24c.6,1.21-2.21,5.88-2.58,7.03l5.73,.09s.26-1.94,.22-2.77c-.02-.43-.23,.08-.25-.39-.51-12.43-.33-39-.21-41.59,1.4-.38,3.36-.99,2.99-2.82Z" fill="#eaebef"/></g><path d="M464.32,207.68c-2.52-4.24-5.76,3.37-4.05,5.39,1.67,.1,5.37,.61,5.14-2.76l.06-.07c-.05-.95-.62-1.78-1.16-2.55Z" fill="#fff" stroke="#14303f" stroke-linecap="round" stroke-linejoin="round" stroke-width=".5"/><path d="M462.83,210.3c.76,.28,1.51,.62,2.21,1.02" fill="none" stroke="#14303f" stroke-linecap="round" stroke-linejoin="round" stroke-width=".5"/><path d="M459.4,211.86c-.72-.08-1.42-.29-2.14-.34s-1.5,.09-2.01,.6c-.41,.41-.58,1-.66,1.57-.13,.95-.04,1.97,.46,2.8,.5,.82,1.47,1.4,2.42,1.25" fill="none" stroke="#14303f" stroke-linecap="round" stroke-linejoin="round" stroke-width=".5"/><path d="M473.24,207.92c-1.78-3.82-6.35,1.88-5,4.34,1.33,3.76,8.22,.21,5-4.34Z" fill="#fff" stroke="#14303f" stroke-linecap="round" stroke-linejoin="round" stroke-width=".5"/><path d="M468.3,210.6l2.36-.04" fill="none" stroke="#14303f" stroke-linecap="round" stroke-linejoin="round" stroke-width=".5"/><path d="M467.81,211.33c-.21-1.19-1.17-1.25-2.15-.92l-.68,1.89c.8,.87,3.57,.7,2.84-.96Z" fill="#fff" stroke="#14303f" stroke-linecap="round" stroke-linejoin="round" stroke-width=".5"/><path d="M470.26,216.12c-1.31-3.58-6.7-1.97-4.24,1.53,1.29,1.62,4.8,.83,4.24-1.53" fill="#fff" stroke="#14303f" stroke-linecap="round" stroke-linejoin="round" stroke-width=".5"/><path d="M463.6,215.55c-2.11-2.11-5.69,2.3-2.77,3.55,2.07,.6,4.37-1.51,2.91-3.38" fill="#fff" stroke="#14303f" stroke-linecap="round" stroke-linejoin="round" stroke-width=".5"/><g><path d="M468.21,216c-.65-.53-1.52,.44-.88,1.02,.63,.66,1.57-.48,.88-1.02Z" fill="#14303f"/><path d="M462.53,216.61s0,0,0,0c-.08-.11-.21-.18-.35-.18-.26-.01-.59,.18-.66,.71,0,.03-.01,.1,0,.19,0,.03,0,.05,0,.07-.01,.12,.1,.24,.18,.34,.08,.09,.27,.15,.39,.16,0,0,.01,0,.02,0,.11,0,.2-.04,.26-.12,.02,0,.04,0,.07-.02,.3-.08,.5-.36,.47-.65-.02-.22-.15-.41-.36-.49Z" fill="#14303f"/></g><path d="M462.69,220.29c.66,.79,3.63,1.53,3.71,.03,.31-1.91-3.66-1.62-3.71-.03Z" fill="#14303f"/><path d="M461.63,226.96c.88-.89,2.14-1.41,3.4-1.39s2.5,.56,3.36,1.48" fill="none" stroke="#14303f" stroke-linecap="round" stroke-linejoin="round" stroke-width=".5"/><path d="M464.17,228.27c.65,.15,1.29,.36,1.91,.63" fill="none" stroke="#14303f" stroke-linecap="round" stroke-linejoin="round" stroke-width=".5"/><path d="M473.49,212.41c.86-.4,2.4-.67,3.24-.23,1.21,.62,1.89,2,2.02,3.35,.05,.48,.02,.99-.23,1.4-.27,.43-.75,.68-1.22,.88-.5,.21-1.02,.39-1.55,.54,0,0-.25,18.56-.33,29.5" fill="none" stroke="#14303f" stroke-linecap="round" stroke-linejoin="round" stroke-width=".5"/><path d="M457.22,218.12c.02,4.08-1.92,31.92-2.25,35.99" fill="none" stroke="#14303f" stroke-linecap="round" stroke-linejoin="round" stroke-width=".5"/><path d="M459.93,236.97c-.18,2.3-1.28,14.85-1.46,17.14" fill="none" stroke="#14303f" stroke-linecap="round" stroke-linejoin="round" stroke-width=".5"/><path d="M469.3,238.44c.62,.66,1.57,1.6,2.18,2.26" fill="none" stroke="#14303f" stroke-linecap="round" stroke-linejoin="round" stroke-width=".5"/><path d="M459.78,238.86c.63-.37,1.51-1.06,2.03-1.59" fill="none" stroke="#14303f" stroke-linecap="round" stroke-linejoin="round" stroke-width=".5"/><path d="M471.32,238.08s1.46,16.19,1.63,19.51" fill="none" stroke="#14303f" stroke-linecap="round" stroke-linejoin="round" stroke-width=".5"/><path d="M458.43,254.22c.32,.31,.65,.63,.97,.94,.17,.16,.34,.33,.45,.55,.2,.4,.09,.95-.27,1.22s-.95,.18-1.19-.2c-.03,.49-.09,1.05-.49,1.34-.24,.17-.55,.2-.84,.19-.27,0-.54-.04-.78-.16-.5-.27-.81-.93-1.37-.91-.25,0-.56,.13-.69-.08-.04-.06-.05-.14-.05-.22-.03-.95,.72-1.79,.77-2.74" fill="none" stroke="#14303f" stroke-linecap="round" stroke-linejoin="round" stroke-width=".5"/><path d="M472.94,257.7c-.08-.04-.15,.06-.19,.13-.28,.56-.56,1.12-.84,1.68-.46,.91-.92,1.84-1.06,2.84" fill="none" stroke="#14303f" stroke-linecap="round" stroke-linejoin="round" stroke-width=".5"/><path d="M475.08,236.92c.19,4.62,.47,18.5,.84,23.1" fill="none" stroke="#14303f" stroke-linecap="round" stroke-linejoin="round" stroke-width=".5"/><path d="M475.99,263.09c.15-.76,.23-1.54,.26-2.32,.01-.31-.02-.68-.29-.85" fill="none" stroke="#14303f" stroke-linecap="round" stroke-linejoin="round" stroke-width=".5"/><path d="M472.98,261.4c.06,.37,.03,.76-.09,1.11" fill="none" stroke="#14303f" stroke-linecap="round" stroke-linejoin="round" stroke-width=".5"/><path d="M458.26,257.81c4.67,1.63,10.37,.8,14.47-1.96" fill="none" stroke="#14303f" stroke-linecap="round" stroke-linejoin="round" stroke-width=".5"/><path d="M470.1,263.79c-1.97,.75-3.84,1.75-5.54,2.99-1.18,.85-2.31,1.87-2.86,3.22-.25,.61-.35,1.34-.01,1.91,.5,.83,2.12,.87,2.95,.38" fill="#fff" stroke="#14303f" stroke-linecap="round" stroke-linejoin="round" stroke-width=".5"/><path d="M455.94,257.91c-1.64,2.87-3.18,5.8-4.64,8.77,1.68,1.16,3.51,1.71,5.55,1.72,1.89,.01,3.67,.16,5.55-.05" fill="none" stroke="#14303f" stroke-linecap="round" stroke-linejoin="round" stroke-width=".5"/><path d="M474.66,266.07c.03,.88-.08,1.77-.07,2.65s.15,1.8,.64,2.54,1.4,1.24,2.26,1.06c.4-.08,.77-.31,1.07-.59,.85-.77,1.24-1.97,1.18-3.12-.06-1.15-.54-2.24-1.22-3.17-.59-.81-1.34-1.53-2.24-1.96-.56-.27-1.17-.42-1.78-.54-.64-.13-1.29-.23-1.93-.16-1.72,.18-3.09,1.5-4.15,2.87-2.53,3.27-4.6,7.07-5.03,11.18-.05,.47,.39,1.14,.61,1.56,.21,.41,.62,.68,1.03,.89,1.68,.87,3.82,1.05,5.42,.04,1.22-.77,1.97-2.1,2.51-3.44,.77-1.88,1.24-3.86,1.7-5.84" fill="#fff" stroke="#14303f" stroke-linecap="round" stroke-linejoin="round" stroke-width=".5"/><path d="M465.85,276.81c-.07-.32-.16-.64-.36-.9-.19-.26-.51-.45-.83-.41-.32,.04-.61,.36-.53,.68l.09,.07c-.08,.55,0,1.11,.23,1.62,.03,.07,.07,.15,.14,.19,.08,.06,.19,.06,.29,.06,.29,0,.61-.01,.82-.21,.28-.26,.25-.71,.16-1.09Z" fill="#14303f"/><g><path d="M470.65,266.95c-.2-.04-.41-.08-.61-.05-.21,.03-.41,.13-.51,.31-.09,.18-.06,.41,.05,.58,.11,.17,.29,.29,.48,.35,.11,.04,.23,.06,.34,.05,.29-.02,.54-.28,.59-.57,.05-.29-.12-.48-.34-.68Z" fill="#14303f"/><path d="M467.87,266.74l-.64,.44c-.22,.12-.2,.48,0,.64s.49,.13,.72,.02c.24-.12,.45-.35,.46-.63s-.26-.54-.53-.47Z" fill="#14303f"/></g><path d="M479.35,266.89c2.38,2.09,4.61,4.85,5.84,7.76,.16,.37,.3,.75,.45,1.13,.25,.65,.5,1.29,.69,1.96,.31,1.11,.42,2.27,.42,3.42,0,1.24-.12,2.5-.54,3.67s-1.14,2.26-2.16,2.96c-1.4,.96-3.18,1.12-4.88,1.23-1.17,.07-2.35,.13-3.51-.03-.5-.07-1.12-.35-1.04-.84,.03-.2,.18-.36,.34-.5,.89-.81,2.04-1.35,3.24-1.5" fill="none" stroke="#14303f" stroke-linecap="round" stroke-linejoin="round" stroke-width=".5"/><path d="M483.08,279.89c-1.09-1.15-2.75-1.74-4.33-1.53-.21,.03-.43,.07-.63,.16-.21,.1-.4,.25-.57,.41-.98,.96-1.42,2.37-1.43,3.74,0,.74,.1,1.49,.44,2.14s.96,1.18,1.69,1.31" fill="none" stroke="#14303f" stroke-linecap="round" stroke-linejoin="round" stroke-width=".5"/><path d="M465.34,279.6c-.91,2.71-1.44,5.62-.9,8.42,.11,.59,.36,1.26,.94,1.42,.18,.05,.37,.04,.55,.08,.32,.07,.6,.29,.93,.28,.36-.01,.63-.3,.87-.57,.29-.33,.6-.7,.58-1.14,0-.19-.08-.37-.15-.55-.18-.47-.31-.96-.4-1.46-.25-1.43,0-3.06,1.08-4.03,.52-.47,1.89-1.14,1.89-1.14,0,2.82,0,5.65,0,8.47,1.01,0,2.02,0,3.03,.01-.15-3.15-.16-6.3-.04-9.44" fill="none" stroke="#14303f" stroke-linecap="round" stroke-linejoin="round" stroke-width=".5"/></g><path d="M472.81,255.98c-3.72,2.56-10.4,2.77-14.58,1.83,0,0-1.1,.87-2.23,.1-.08-.05-.64,.73-.63,.86,.05,1.01-2.47,4.72-2.98,5.69,.01,0,.02-.01,.03-.01,.81-1.18,3.7,.12,2.57,1.49-.89,.63-2.61,.3-2.92-.85-.27,.53-.54,1.05-.8,1.58,3.57,2.43,6.52,1.56,11.36,1.78,1.13-1.52,5.62-4.06,6.39-4.32,.59-.24,1.2-.51,1.81-.75,.43-4.23,2.45-4.98,1.97-7.42Zm-15.65,5.02c-.26,.02-.89-.15-.94-.34-.85-.11-1.22-1.98-.23-2.24,.65-.01,2.2-.69,2.43,.27,1.6,.54-.05,2.54-1.26,2.32Zm2.4,2.92c-1.04,1.57-3.18-.42-1.77-1.6,.46-.32,1.64-.33,1.75,.34,.26,.36,.26,.87,.02,1.26Zm2.89,2.48c-1.11,2.27-4.19-.46-1.81-1.61,.99-.29,2.34,.34,1.81,1.61Zm-.32-4.86c-1.22-.65-.4-2.35,.82-2.3,3.36-.7,2.07,3.76-.82,2.3Zm4.67,2.4c-.67,.4-2.28,.46-2.51-.52-.31-2.57,4.97-1.37,2.51,.52Zm4.65-4.1c-.54,1.87-4.01,1.23-2.3-.6,.57-.44,2.68-.51,2.3,.6Z" fill="#14303f"/></g></g><g id="grogu-print"><g class="fill-grey-light"><rect x="986.67" y="247.7" width="151.85" height="72.67" fill="#fff" stroke="#14303f" stroke-miterlimit="10"/></g><rect x="986.86" y="239.21" width="6.88" height="20.04" transform="translate(767.48 -747.35) rotate(63.27)" fill="#fff" stroke="#14303f" stroke-linejoin="round" stroke-width=".5"/><polygon points="989.26 320.37 989.26 323.52 1028.98 320.25 989.26 320.37" fill="#15303e" stroke="#14303f" stroke-linejoin="round"/><polygon points="1135.94 320.37 1135.94 323.52 1096.22 320.25 1135.94 320.37" fill="#15303e" stroke="#14303f" stroke-linejoin="round"/><g id="grogu"><g id="grogu-body"><g class="fill-yellow-7"><path d="M1106.11,320.07l-10.51-22.92h0c2.19-1.67-.73-5.22-1.04-8.65-.31-3.43-7.42-6.62-7.42-6.62-28.74-2.76-37.11-.11-40.07,4.84-.32,.54-.81,1.35-1.42,2.37l-.41-.14s-3.66-1.58-4.86,1.23c-.84,1.97-2.85,7.01-1.91,10.89-5.46,9.12-11.38,19-11.38,19h79.02Z" fill="#eaebef" stroke="#14303f" stroke-linecap="round" stroke-linejoin="round" stroke-width=".5"/></g><path d="M1050.14,294.3c-3.11-.88-5.64-2.19-6.42-4.12" fill="none" stroke="#14303f" stroke-linecap="round" stroke-linejoin="round" stroke-width=".5"/><path d="M1082.65,292.89c7.94-1.84,6.48-6.17,6.48-6.17" fill="none" stroke="#14303f" stroke-linecap="round" stroke-linejoin="round" stroke-width=".5"/><polygon points="1073.89 320.38 1073.89 309.93 1067.74 310.49 1067.33 320.38 1073.89 320.38" fill="#14303f"/></g><g id="grogu-head"><g class="fill-turquoise-9"><path d="M1110.5,260.51c-1.92,.45-29.64,7.66-29.64,7.66,0,0-22.62-14.85-38.26,6.12,0,0-31.34,3.54-33.47,4.07s3.24,4.38,6.55,4.79c2.94,.37,5.36,11.18,23.38,8.53l7.07-1.99c1.96,3.21,4.32,3.39,4.32,3.39l5.65,5.33s11.62,6.41,15.24,3.41c3.62-3,8.36-13.96,8.36-13.96l1.29-.99c29.23-6.66,23.64-17.2,26.3-19.98,2.66-2.78,5.13-6.83,3.21-6.38Z" fill="#b4b9c5"/></g><g class="fill-pink-6"><path d="M1083.41,281.93c13.58,1.89,24.42-18.78,24.42-18.78l-19.8,6.82s-2.98,2.61-4.61,7.46l-.02,4.51Z" fill="#eaebef"/><path d="M1012.44,279.39c11.67,3.87,13.22,12.95,28.26,8.86,0,0,1.58-1.36,4-.6l-.7-2.01c-2.02-4.41-6-6.17-6-6.17l-25.57-.07Z" fill="#eaebef"/></g><g id="grogu-eyes"><path d="M1060.37,280.67s-5.05-5.34-10.7,.03c0,0,4.02,6.89,10.7-.03Z" fill="#14303f"/><path d="M1068.76,278.92s3.05-6.91,9.64-3.42c0,0-.98,6.76-9.64,3.42Z" fill="#14303f"/></g><g id="grogu-brows"><path d="M1068.14,273.87s4.36-4.87,11.65,.06" fill="none" stroke="#14303f" stroke-linecap="round" stroke-linejoin="round" stroke-width=".5"/><path d="M1047.97,279.1s3.34-5.6,10.03-3.94" fill="none" stroke="#14303f" stroke-linecap="round" stroke-linejoin="round" stroke-width=".5"/></g><g id="grogu-chin"><path d="M1062.37,293.93s5.74,1.59,8.56-2.05" fill="none" stroke="#14303f" stroke-linecap="round" stroke-linejoin="round" stroke-width=".5"/></g><g id="grogu-mouth"><path d="M1058.39,289.46s3.05-2.13,4.63-2.51,1.57,.49,2.7,.25,2.28-1.16,3.6-1.36,4.36,.41,4.36,.41" fill="none" stroke="#14303f" stroke-linecap="round" stroke-linejoin="round" stroke-width=".5"/></g><g id="grogu-nose"><path d="M1062.68,281.32s-.36,1.83,2.35,1.34,1.56-2.07,1.56-2.07" fill="none" stroke="#14303f" stroke-linecap="round" stroke-linejoin="round" stroke-width=".5"/></g><path d="M1082.26,273.84s4.65,9.59-3.42,14.59" fill="none" stroke="#14303f" stroke-linecap="round" stroke-linejoin="round" stroke-width=".5"/><path d="M1110.8,262.12s-21,7.26-22.77,7.85-4.61,7.46-4.61,7.46" fill="none" stroke="#14303f" stroke-linecap="round" stroke-linejoin="round" stroke-width=".5"/><path d="M1080.99,286.87c29.23-6.66,23.64-17.2,26.3-19.98s5.13-6.83,3.21-6.38-29.64,7.66-29.64,7.66c0,0-22.62-14.85-38.26,6.12,0,0-31.34,3.54-33.47,4.07s3.24,4.38,6.55,4.79c2.94,.37,5.36,11.18,23.38,8.53l7.07-1.99" fill="none" stroke="#14303f" stroke-linecap="round" stroke-linejoin="round" stroke-width=".5"/><path d="M1043.59,279.03s-1.01,14.44,10.22,14.53" fill="none" stroke="#14303f" stroke-linecap="round" stroke-linejoin="round" stroke-width=".5"/><path d="M1083.41,281.93c13.58,1.89,24.42-18.78,24.42-18.78" fill="none" stroke="#14303f" stroke-linecap="round" stroke-linejoin="round" stroke-width=".5"/><path d="M1012.44,279.39c11.67,3.87,13.22,12.95,28.26,8.86,0,0,1.86-1.4,4.29-.64" fill="none" stroke="#14303f" stroke-linecap="round" stroke-linejoin="round" stroke-width=".5"/><path d="M1008.93,279.49s25.1-.09,28.39-.1,7.44,7.63,7.44,7.63" fill="none" stroke="#14303f" stroke-linecap="round" stroke-linejoin="round" stroke-width=".5"/><line x1="1080.03" y1="287.59" x2="1075.24" y2="296.63" fill="none" stroke="#14303f" stroke-linecap="round" stroke-linejoin="round" stroke-width=".5"/><line x1="1050.45" y1="293.07" x2="1055.92" y2="297.43" fill="none" stroke="#14303f" stroke-linecap="round" stroke-linejoin="round" stroke-width=".5"/></g><g id="grogu-collar"><g class="fill-yellow-8"><path d="M1082.65,292.89c-7.94,1.84-13.88,4.99-13.88,4.99,0,0,.42-1.98-5.43-1.98-3.41,0-7.78-.09-12.12-1.32l-12.97,5.15c.18,2.2,1.09,4.21,3.38,5.35,6.06,3.03,21.12,9.29,22.36,7.83,.31-.37,.39-1.29,.44-2.51h0s7.52,.69,14.58-1.75,14.41-9.83,16.6-11.5c0,0-11.19,2.27-12.95-4.26Z" fill="#eaebef"/></g><path d="M1095.61,297.15c-2.19,1.67-9.54,9.06-16.6,11.5-7.06,2.44-14.58,1.75-14.58,1.75" fill="none" stroke="#14303f" stroke-linecap="round" stroke-linejoin="round" stroke-width=".5"/><path d="M1068.77,297.88s5.94-3.15,13.88-4.99" fill="none" stroke="#14303f" stroke-linecap="round" stroke-linejoin="round" stroke-width=".5"/><path d="M1038.25,299.74c.18,2.2,1.09,4.21,3.38,5.35,6.06,3.03,21.12,9.29,22.36,7.83s-1.16-11.48,4.79-15.03c0,0,.42-1.98-5.43-1.98-3.41,0-8.87-.37-13.21-1.6" fill="none" stroke="#14303f" stroke-linecap="round" stroke-linejoin="round" stroke-width=".5"/></g></g><rect x="1130.64" y="240.28" width="6.88" height="20.04" transform="translate(2054.41 -458.07) rotate(129.97)" fill="#fff" stroke="#14303f" stroke-linejoin="round" stroke-width=".5"/></g></g><g id="computer"><g id="computer-shadow"><path d="M951.77,374.98v13.52c0,2.1-1.53,3.81-3.4,3.81h-296.74c-1.87,0-3.4-1.72-3.4-3.81v-13.52" fill="#14303f" stroke="#14303f" stroke-miterlimit="10"/></g><path d="M953.34,372.52v13.52c0,2.1-1.55,3.81-3.44,3.81h-299.8c-1.89,0-3.44-1.72-3.44-3.81v-13.52" fill="#b4b9c5" stroke="#14303f" stroke-miterlimit="10"/><g class="fill-grey-light-2"><path d="M674.61,343.27V198.05c0-2.1,1.56-3.81,3.46-3.81h242.22c1.9,0,3.46,1.72,3.46,3.81v145.28" fill="#b4b9c5" stroke="#14303f" stroke-miterlimit="10"/><path d="M949.9,376.33h-299.8c-1.89,0-3.44-1.72-3.44-3.81l27.95-29.71h249.14l29.59,29.71c0,2.1-1.55,3.81-3.44,3.81Z" fill="#b4b9c5" stroke="#14303f" stroke-miterlimit="10"/></g><g id="computer-screen" class="fill-navy"><rect x="683.39" y="203.06" width="231.58" height="131.45" rx="8.32" ry="8.32" fill="#eaebef"/></g><rect x="683.39" y="203.06" width="231.58" height="131.45" rx="8.32" ry="8.32" fill="none" stroke="#14303f" stroke-miterlimit="10"/><g class="fill-grey-med"><path d="M842.83,369.34h-92.93c-1.62,0-2.94-1.34-2.94-2.98l3.35-10.74h91.91l3.56,10.74c0,1.64-1.32,2.98-2.94,2.98Z" fill="#eaebef" stroke="#14303f" stroke-miterlimit="10"/></g><g id="computer-mask"><g clip-path="url(#clippath)"><g id="computer-text"><g id="hello-world1"><text transform="translate(711.5 217.5)" fill="none" font-family="CabinetGrotesk-Variable" font-size="33.73" font-weight="700"><tspan x="0" y="0">Hello World</tspan></text></g><g id="hello-world2"><text transform="translate(711.5 248.51)" fill="none" font-family="CabinetGrotesk-Variable" font-size="33.73" font-weight="700"><tspan x="0" y="0">Hello World</tspan></text></g><g id="hello-world3" class="fill-yellow"><text transform="translate(711.5 279.65)" fill="#14303f" font-family="CabinetGrotesk-Variable" font-size="33.73" font-weight="700"><tspan x="0" y="0">Hello World</tspan></text></g><g id="hello-world4"><text transform="translate(711.5 310.76)" fill="none" font-family="CabinetGrotesk-Variable" font-size="33.73" font-weight="700"><tspan x="0" y="0">Hello World</tspan></text></g><g id="hello-world5"><text transform="translate(711.5 341.9)" fill="none" font-family="CabinetGrotesk-Variable" font-size="33.73" font-weight="700"><tspan x="0" y="0">Hello World</tspan></text></g></g></g></g></g></svg>
