<svg xmlns="http://www.w3.org/2000/svg" width="540" height="140" viewBox="0 0 540 140"><path d="M3.9 18h532.2v122H3.9z"/><path fill="#a78f78" d="M0 12h540v12H0zM0 30.01h540v12H0zM0 48.01h540v12H0zM0 66.02h540v12H0zM0 84.02h540v12H0zM0 102.03h540v12H0z"/><path d="M112.25 12h3.46v102.02h-3.46zM422.6 12h3.46v102.02h-3.46z"/><path fill="none" stroke="#a78f78" stroke-miterlimit="10" stroke-width="3" d="M223.05 134.6l-39.51-19.37"/><path fill="#a78f78" d="M156.36 112.9h29.55v4.67h-29.55z"/><path fill="none" stroke="#a78f78" stroke-miterlimit="10" stroke-width="3" d="M120.11 134.6l39.5-19.37"/><path fill="#a78f78" d="M2.03 112.64h6.4V140h-6.4zM104.74 112.64h6.4V140h-6.4zM116.7 112.64h6.4V140h-6.4zM415.22 112.64h6.4V140h-6.4zM427.18 112.64h6.4V140h-6.4zM531.9 112.64h6.4V140h-6.4zM41.48 112.9h29.55v4.67H41.48z"/><path fill="none" stroke="#a78f78" stroke-miterlimit="10" stroke-width="3" d="M5.23 134.6l39.5-19.37M108.17 134.6l-39.5-19.37"/><path fill="#a78f78" d="M467.64 112.99h29.55v4.67h-29.55z"/><path fill="none" stroke="#a78f78" stroke-miterlimit="10" stroke-width="3" d="M431.38 134.69l39.51-19.37M534.33 134.69l-39.51-19.37"/><path fill="#a78f78" d="M351.01 113.04h29.55v4.67h-29.55z"/><path fill="none" stroke="#a78f78" stroke-miterlimit="10" stroke-width="3" d="M314.76 134.74l39.5-19.36M417.7 134.74l-39.51-19.36"/><path opacity=".6" d="M193.4 12l-81.15 128h81.15V12z"/><path fill="#f4c89c" d="M193.4 3.59h59.76V140H193.4z"/><path opacity=".5" d="M193.4 124.09h59.76V140H193.4z"/><path opacity=".2" d="M193.4 3.59h29.4V140h-29.4z"/><path opacity=".2" d="M193.4 3.59h14.7V140h-14.7z"/><path d="M165.9 132.47l113.81-13.88V19.82L165.9 32v100.47z"/><path d="M165.24 40.18s27.83-8.55 57.72-8.55a444.53 444.53 0 0 0 57.75-4.15v-12A403.5 403.5 0 0 1 223 19.67a203.38 203.38 0 0 0-57.74 8.54zM165.24 56.65s27.83-8.54 57.72-8.54A444.53 444.53 0 0 0 280.71 44V32A403.5 403.5 0 0 1 223 36.15a203.38 203.38 0 0 0-57.74 8.54zM165.24 73.24S193.07 64.7 223 64.7a444.53 444.53 0 0 0 57.75-4.15v-12A404.46 404.46 0 0 1 223 52.73a203.16 203.16 0 0 0-57.74 8.55zM165.24 89.69s27.83-8.54 57.72-8.54A444.53 444.53 0 0 0 280.71 77V65A404.46 404.46 0 0 1 223 69.18a203.16 203.16 0 0 0-57.74 8.55zM165.24 106.17s27.83-8.54 57.72-8.54a444.53 444.53 0 0 0 57.75-4.15v-12A403.5 403.5 0 0 1 223 85.66a203.38 203.38 0 0 0-57.74 8.54zM165.24 122.76s27.83-8.54 57.72-8.54a444.53 444.53 0 0 0 57.75-4.15v-12a403.5 403.5 0 0 1-57.71 4.18 203.38 203.38 0 0 0-57.74 8.54z" fill="#b99b85"/><path d="M165.24 138.65s27.83-8.54 57.72-8.54a444.53 444.53 0 0 0 57.75-4.11v-12a403.5 403.5 0 0 1-57.71 4.14 203.38 203.38 0 0 0-57.74 8.54z" fill="#b99b85"/><path d="M233.62 19.52c-3.45.09-7 .15-10.64.15a203.38 203.38 0 0 0-57.74 8.54v12s.23-.08.66-.2v4.5l-.66.21v12l.66-.19v4.61l-.66.21v12l.66-.19v4.47l-.66.21v12l.66-.19V94l-.66.21v12l.66-.2v4.61l-.66.21v12l.66-.2v3.91l-.66.21v12s27.83-8.54 57.72-8.54c3.59 0 7.16-.07 10.66-.17z" opacity=".2"/><path d="M199.71 21.09a193.23 193.23 0 0 0-34.47 7.12v12s.23-.08.66-.2v4.5l-.66.21v12l.66-.19v4.61l-.66.21v12l.66-.19v4.47l-.66.21v12l.66-.19V94l-.66.21v12l.66-.2v4.61l-.66.21v12l.66-.2v3.91l-.66.21v12a226.17 226.17 0 0 1 34.47-7z" opacity=".2"/><path fill="#f4c89c" d="M288.58 3.59h59.76V140h-59.76z"/><path d="M348.34 121.12s-9.81-1.79-26.68-1.79-33.08-.64-33.08-.64V40.18h59.76z" opacity=".5"/><path opacity=".2" d="M288.58 3.59h29.88V140h-29.88z"/><path opacity=".2" d="M288.58 3.59h14.94V140h-14.94z"/><path d="M202 131.37a185.25 185.25 0 0 1 21-1.26 444.53 444.53 0 0 0 57.71-4.11v-12l-1 .16v-3.94l1-.14v-12l-1 .16v-4.62l1-.14v-12l-1 .16v-4.5l1-.14V65l-1 .15v-4.5l1-.14v-12l-1 .15V44.1l1-.14V32l-1 .15V24c0 24.24-10.29-3.08-10.29-3.08C248.29 55.83 202 131.37 202 131.37z" opacity=".5"/><path d="M380.93 122.89l-113.81-15.6V22.38l113.81 12.18v88.33z"/><path d="M381.59 42.74s-27.83-8.55-57.72-8.55A444.53 444.53 0 0 1 266.12 30V18a403.5 403.5 0 0 0 57.73 4.15 203.38 203.38 0 0 1 57.74 8.54zM381.59 59.21s-27.83-8.54-57.72-8.54a444.53 444.53 0 0 1-57.75-4.15v-12a403.5 403.5 0 0 0 57.73 4.15 203.38 203.38 0 0 1 57.74 8.54zM381.59 75.8s-27.83-8.54-57.72-8.54a444.53 444.53 0 0 1-57.75-4.15v-12a403.5 403.5 0 0 0 57.73 4.15 203.38 203.38 0 0 1 57.74 8.54zM381.59 92.25s-27.83-8.54-57.72-8.54a444.53 444.53 0 0 1-57.75-4.15v-12a404.46 404.46 0 0 0 57.73 4.14 203.16 203.16 0 0 1 57.74 8.55zM381.59 108.73s-27.83-8.54-57.72-8.54A444.53 444.53 0 0 1 266.12 96V84a403.5 403.5 0 0 0 57.73 4.15 203.16 203.16 0 0 1 57.74 8.55zM381.59 125.32s-27.83-8.54-57.72-8.54a444.53 444.53 0 0 1-57.75-4.15v-12a403.5 403.5 0 0 0 57.73 4.15 203.16 203.16 0 0 1 57.74 8.55z" fill="#cdaf96"/><path d="M334.53 22.54c-3.46-.2-7-.31-10.68-.31a403.5 403.5 0 0 1-57.73-4.15V30l1 .15v4.52l-1-.15v12l1 .14v4.64l-1-.15v12l1 .14v4.5l-1-.15v12l1 .14v4.53l-1-.16V96l1 .14v4.64l-1-.16v12a444.53 444.53 0 0 0 57.75 4.15c3.6 0 7.17.12 10.66.34z" opacity=".2"/><path d="M297.2 21.33c-18.51-1.22-31.08-3.25-31.08-3.25V30l1 .15v4.52l-1-.15v12l1 .14v4.64l-1-.15v12l1 .14v4.5l-1-.15v12l1 .14v4.53l-1-.16V96l1 .14v4.64l-1-.16v12s13.15 2 31.08 3.18z" opacity=".2"/></svg>