<svg xmlns="http://www.w3.org/2000/svg" width="800" height="600" viewBox="0 0 800 600"><path fill="#fff" d="M-13.5-12.5h827v625h-827z"/><path d="M397.85 132c.09-.11.1-.06.13-.08l.3-.27a3.72 3.72 0 0 1 .45-.33l1.05-.75c.75-.52 1.54-1.08 2.27-1.57 1.66-1.11 3-2.08 3-2.08l.25-.17a4 4 0 0 0 .52-.33c.44-.09 0-.5-.17-1s-2.38-4.54-3.62-7c-.76-1.46-1.39-2.68-1.5-2.85l-2.84 2a27 27 0 0 0-5.46 5.15 23.55 23.55 0 0 0 6.44-3.26c.18-.12.39-.26.71-.5l.53-.35c0 .08.08.14.13.26s.24.45.36.67c1 2 2.85 5.44 3 5.84l-.46.29c-.52.32-1.2.79-1.94 1.32s-1.55 1.06-2.3 1.58l-1.06.78c-.15.13-.31.23-.46.35s-.16.1-.23.16l.05.14a.74.74 0 0 0-.16.12s0 .06-.07.09l-.18-.1c-.06-.05-.1-.07-.12-.11l-.43-.79a36.39 36.39 0 0 0-1.89-3.17c-.3-.43-.62-.84-.93-1.27-.19-.21-.32-.41-.52-.63a6.28 6.28 0 0 0-.47-.54c0-.19.06-.46.11-.82-.16.27-.35.54-.56.85.21.62.38 1.18.56 1.77s.35 1 .54 1.55a33.92 33.92 0 0 0 1.55 3.41c.07.12.14.27.22.41a2.53 2.53 0 0 1 .14.29 1 1 0 0 1 .12.23 1 1 0 0 0 .2.32c.09.08.18.14.3.25a.85.85 0 0 1 .19.14 5.08 5.08 0 0 0 .52.3 1.59 1.59 0 0 0 .37.14 2.29 2.29 0 0 0 .28.08H397.18a.31.31 0 0 0 .12 0 .49.49 0 0 0 .17-.06.92.92 0 0 0 .28-.24c0-.06.09-.08.14-.16z" fill="#87d3f5"/><path d="M397.08 96.16a21.86 21.86 0 0 0-2.79 2 19 19 0 0 0-2.52 2.4 18 18 0 0 0-2.07 2.9 20.82 20.82 0 0 0-2.41 6.68c-.23 1.17-.39 2.34-.5 3.5s-.19 2.33-.34 3.39c-.05.25-.1.51-.16.74s-.18.51-.26.77l-.26.8a8.09 8.09 0 0 0-.33.77l-.33.76-.16.4-.2.37-.74 1.54c-.27.52-.57 1-.85 1.5l-.42.73c-.14.25-.28.5-.44.75l-.89 1.45-1 1.4-.49.7a5.78 5.78 0 0 1-.53.67l-1 1.34c-.77.85-1.53 1.65-2.29 2.48-1.6 1.71-3.14 3.41-4.69 5.1s-3.12 3.34-4.59 5c-3 3.32-5.92 6.56-8.74 9.69-5.63 6.23-10.8 12-15.27 17-2.23 2.48-4.24 4.75-6.06 6.77-.46.49-.9 1-1.31 1.48l-.19.18c-.14.09-.26.24-.39.34s-.44.42-.66.64a28.55 28.55 0 0 0-2.27 2.58 9.87 9.87 0 0 0-2.26 4.74v1a6.83 6.83 0 0 1 .1.7c.08.4.15.66.17.76a13.26 13.26 0 0 0 1.16 2.82c.41.65.67 1.1.86 1.36.39.55.4.58.4.58l.47.59a2.24 2.24 0 0 1 .33.39s.1.12.14.14.13.08.2.11.2.14.3.15a12 12 0 0 0 1.18.55 14.37 14.37 0 0 0 3.45.79 9.5 9.5 0 0 0 4.75-.85 8.84 8.84 0 0 0 2.37-1.62c.11-.09.18-.21.26-.25a2.86 2.86 0 0 0 .24-.3c.17-.16.32-.32.48-.5.35-.37.67-.72 1-1.11 1.28-1.5 2.6-3.09 4-4.8 2.82-3.49 6-7.35 9.34-11.55 6.74-8.38 14.42-18 22.31-28.06 1-1.25 2-2.49 3-3.78s2-2.53 3-3.72c.26-.3.51-.62.78-.91s.53-.59.8-.85l.81-.88.82-.8.22-.21.21-.17.43-.35a9.79 9.79 0 0 1 .91-.63 5.6 5.6 0 0 1 .48-.3l.52-.26a8.7 8.7 0 0 1 1-.56c1.41-.7 2.84-1.39 4.29-2 .75-.3 1.49-.56 2.21-.87a19 19 0 0 1 2.11-.65 1.2 1.2 0 0 1 .26-.07h.3l.58-.11 1.2-.15c.76-.11 1.54-.24 2.34-.34 1.6-.24 3.21-.47 4.81-.68.76-.13 1.55-.22 2.33-.32H416.82s.06 0 0 0l-.13-.25-.27-.51-.56-1.07c-.43-.8-.84-1.63-1.27-2.43a1 1 0 0 1 0-.1c.77-.62 1.51-1.27 2.21-1.89a26 26 0 0 0 3.39-3.8 13 13 0 0 0 .83-1.34c.17-.34.28-.51.28-.51s0-.07.06-.18.12-.28.21-.49.09-.2.14-.34a2.49 2.49 0 0 0 .14-.39c.1-.3.2-.65.3-1a22.11 22.11 0 0 0 .61-5.84 1.75 1.75 0 0 1 0-.45v-.47c-.05-.54-.09-1.11-.16-1.64 0-.25-.06-.53-.1-.81l-.05-.39v-.2s0-.19-.07-.1l-1.44.81-1.34.82-.72.43-1.46.88-4.92 3-1.17.71-.21.13h-.07l-.27-.17c-2.62-1.44-2-1.39-4.1-2-.07-.13-.14-.26-.2-.39l-.05-.12v-1.44-2.07-2.4l.22-.12a4.7 4.7 0 0 0 .57-.25c1.11-.46 2-.87 2.54-1.09a28.62 28.62 0 0 0 6.54-3.95 28.62 28.62 0 0 0-7.36 2.06c-.55.22-1.42.61-2.54 1.1-.18.09-.38.15-.57.25s-.43.18-.65.28l-.46.21-.22.07-.11.07h-.05v7.52a.19.19 0 0 0 0 .12l.06.11.2.37c.65 1.23 1.3 2.5 2 3.77q2 3.85 4.13 7.89c.7 1.36 1.4 2.72 2.14 4.11.27.56.56 1.12.87 1.67-1.49.23-3 .45-4.52.65-.77.11-1.55.24-2.36.34l-1.16.17-.59.08-.31.05a2.31 2.31 0 0 0-.32 0 22.46 22.46 0 0 0-2.47.79c-.77.29-1.53.57-2.28.9-1.49.63-3 1.32-4.45 2a9.63 9.63 0 0 1-1.1.58l-.55.34c-.16.11-.36.22-.54.33a7.94 7.94 0 0 0-1.08.74l-.52.41-.25.23-.21.2-.9.88-.86.89c-.29.32-.55.63-.83.91s-.55.64-.82.94c-1.05 1.25-2.06 2.55-3.05 3.77s-1.95 2.54-3 3.78c-7.89 10-15.55 19.66-22.29 28.07-3.38 4.17-6.51 8.06-9.34 11.51-1.42 1.71-2.76 3.32-4 4.79-.31.37-.63.71-.93 1a3.77 3.77 0 0 0-.43.49l-.27.25a.66.66 0 0 1-.22.22 7.66 7.66 0 0 1-1.79 1.5 7.53 7.53 0 0 1-3.71.62 10.44 10.44 0 0 1-2.89-.67 5.78 5.78 0 0 1-1-.43c-.15-.07-.08 0-.11-.07a.8.8 0 0 0-.16-.19l-.4-.51a4.59 4.59 0 0 1-.37-.55 11.06 11.06 0 0 1-.78-1.2 13.34 13.34 0 0 1-1.05-2.4 3.34 3.34 0 0 0-.11-.56 4 4 0 0 0-.07-.52v-.29a.61.61 0 0 1 0-.3 8.23 8.23 0 0 1 1.85-3.71 27.86 27.86 0 0 1 2.07-2.34l.65-.61a1.71 1.71 0 0 1 .32-.29v-.06a.26.26 0 0 0 .07-.11l.12-.1.17-.17c.4-.48.85-1 1.32-1.47l6.07-6.8c4.43-4.94 9.64-10.7 15.26-17l8.73-9.68c1.49-1.67 3-3.3 4.55-5s3.11-3.33 4.66-5c.8-.86 1.62-1.75 2.4-2.62l1.13-1.41c.17-.25.36-.45.55-.7l.49-.74 1-1.47.94-1.51c.16-.27.33-.5.47-.76l.42-.78c.3-.54.59-1 .86-1.55l.81-1.6.2-.41.17-.4.37-.82c.09-.29.22-.55.33-.84l.29-.87c.12-.3.2-.57.3-.88a4.8 4.8 0 0 0 .19-1c.21-1.23.28-2.37.38-3.51s.26-2.22.47-3.31a18.74 18.74 0 0 1 2.18-6 17.06 17.06 0 0 1 1.82-2.57 18.62 18.62 0 0 1 2.27-2.17 28.28 28.28 0 0 1 2.54-1.79 13.53 13.53 0 0 1 2.72-1.23 11.8 11.8 0 0 1 2.84-.65l.73-.08h.6a15.17 15.17 0 0 1 4.15.49c1.43.32 2.56.69 3.66 1s2.16.65 3.43 1.13a12.68 12.68 0 0 0-2.79-2.46 11.67 11.67 0 0 0-3.81-1.64 16.57 16.57 0 0 0-4.6-.54h-.69c-.28 0-.57.07-.84.08a15.56 15.56 0 0 0-3.28.74 18.15 18.15 0 0 0-3.1 1.44zm15.92 26.7c-.39-.7-.79-1.4-1.16-2.11L407.5 113c-.49-.86-1-1.71-1.42-2.54.85 1.11.46 1.67 2.79 2.92.24.11.54.29 1.45.75.53-.29 1.21-.68 2.51-1.43l5.19-2.94c.76-.46 1.56-.91 2.36-1.37v.73a17.91 17.91 0 0 1-.56 5.24 8.59 8.59 0 0 1-.25.87l-.13.32a1.07 1.07 0 0 1-.13.3c-.06.16-.13.28-.16.39s-.07.12-.07.12-.08.17-.23.42a8.31 8.31 0 0 1-.74 1.13 24.15 24.15 0 0 1-3.28 3.43 21.28 21.28 0 0 1-1.87 1.53z" fill="#87d3f5"/><path d="M339.75 183.38a4.41 4.41 0 0 1 2.85.2c.13.09.32.14.47.23l.32.16a1.21 1.21 0 0 0 .32.22 6.61 6.61 0 0 1 1.53 1.55 6.43 6.43 0 0 1 1.05 2.86 6.11 6.11 0 0 1-.53 3.19 6.56 6.56 0 0 1-1.52 2.05c-.28.22-.47.36-.64.47a2.41 2.41 0 0 1-.22.18 1.67 1.67 0 0 0-.3.13 5.39 5.39 0 0 1-.81.37 6.08 6.08 0 0 1-2.92.23 5.94 5.94 0 0 1-3.11-1.6 6.27 6.27 0 0 1-1.58-2.59 8.56 8.56 0 0 1-.28-1.51c0-.39 0-.67.05-.87a4.54 4.54 0 0 1 3.17-4 6.86 6.86 0 0 0-1.26 1.9 6.3 6.3 0 0 0-.57 2.26 4.37 4.37 0 0 0 .19 1.86 5 5 0 0 0 1.21 2 4.5 4.5 0 0 0 4.66 1.06 2.43 2.43 0 0 0 .66-.29.82.82 0 0 1 .21-.09.65.65 0 0 0 .17-.14c.13-.08.28-.19.51-.36a4.69 4.69 0 0 0 1.18-1.59 4.79 4.79 0 0 0 .36-2.47 4.16 4.16 0 0 0-.79-2.21 4.67 4.67 0 0 0-1.16-1.21.87.87 0 0 1-.26-.16c-.11 0-.17-.12-.25-.15a2.19 2.19 0 0 0-.35-.17 7.42 7.42 0 0 0-2.27-.5 6.84 6.84 0 0 0-2.24.27 4.38 4.38 0 0 1 2.15-1.24M343.94 118zm2.39 12.08z" fill="#87d3f5"/><path d="M326.58 98.55a27.68 27.68 0 0 0 6.55 3.93c.53.23 1.43.63 2.54 1.1.19.09.38.18.56.25l.23.12a2.66 2.66 0 0 1 0 .35V109.8l-.05.14-.2.36c-2.12.6-1.48.55-4.11 2a2.76 2.76 0 0 1-.27.17.52.52 0 0 1-.28-.08l-1.15-.71-4.93-3-1.46-.88-.72-.44-1.34-.81-1.46-.81c-.06-.09-.05.06-.06.1v.61c-.05.27-.08.53-.11.78-.06.55-.1 1.1-.16 1.64v.48a3.47 3.47 0 0 1 0 .44 20.59 20.59 0 0 0 .6 5.84c.1.36.2.73.3 1a3.31 3.31 0 0 0 .13.41 3.42 3.42 0 0 0 .16.33 3.69 3.69 0 0 0 .2.48 1.26 1.26 0 0 0 .07.18l.27.51a11 11 0 0 0 .82 1.35 24.51 24.51 0 0 0 3.4 3.79c.68.62 1.44 1.28 2.21 1.89l-.06.13c-.41.77-.84 1.62-1.26 2.42l-.56 1-.26.52-.13.24a1 1 0 0 0 .24.08c.79.1 1.57.2 2.34.32l4.81.69c.8.1 1.57.23 2.34.34l1.18.14.6.11h.3a.77.77 0 0 1 .27.07 19.34 19.34 0 0 1 2.08.65c.74.31 1.48.57 2.21.87 1.47.61 2.9 1.31 4.31 2a8.71 8.71 0 0 1 1 .55l.52.25.48.33a7.22 7.22 0 0 1 .91.61l.43.36.21.17.2.21.84.8.81.87c.27.26.54.58.8.87s.51.6.78.9c1 1.18 2 2.44 3 3.72s2 2.53 3 3.78c7.88 10 15.57 19.67 22.3 28.05 3.38 4.2 6.52 8.06 9.35 11.55 1.44 1.71 2.76 3.3 4 4.81.35.37.65.75 1 1.09a6.15 6.15 0 0 0 .48.52c.08.11.14.16.22.28a3.22 3.22 0 0 1 .29.26 8.56 8.56 0 0 0 2.35 1.63 9.69 9.69 0 0 0 4.76.85 14.2 14.2 0 0 0 3.45-.8c.45-.18.82-.36 1.17-.53a2.77 2.77 0 0 0 .3-.17.88.88 0 0 1 .2-.09c.06 0 .1-.12.14-.15a3 3 0 0 1 .33-.39c.3-.37.46-.59.46-.59l.41-.59c.19-.26.47-.69.87-1.36a14.6 14.6 0 0 0 1.23-2.85c0-.13.1-.37.18-.77a6.15 6.15 0 0 1 .1-.7v-.45-.52A10.06 10.06 0 0 0 411 183a26.67 26.67 0 0 0-2.25-2.57l-.67-.66c-.13-.08-.24-.23-.39-.32a3.57 3.57 0 0 0-.24-.28c-.42-.46-.86-1-1.34-1.46-1.8-2-3.82-4.32-6-6.79-4.46-5-9.65-10.74-15.27-17-2.81-3.14-5.75-6.37-8.73-9.69-1.49-1.66-3-3.34-4.61-5s-3.08-3.4-4.67-5.09c-.77-.84-1.54-1.64-2.29-2.51l-1-1.33c-.19-.2-.36-.45-.53-.66l-.49-.72-1-1.4-.9-1.44-.43-.75-.43-.74c-.25-.49-.56-1-.84-1.5l-.74-1.54-.2-.35-.15-.41-.33-.76c-.1-.27-.23-.55-.33-.79l-.26-.78c-.08-.27-.2-.51-.27-.79-2.71-9-2.18-16.9-11.7-21.92-6.87-3.61-12.25-1.73-18.14 2.67zm1.42 22.78a25.47 25.47 0 0 1-3.25-3.43 9.26 9.26 0 0 1-.75-1.14l-.23-.4a.34.34 0 0 1-.06-.14c0-.1-.11-.23-.18-.39a1.7 1.7 0 0 1-.12-.29c0-.09-.08-.21-.13-.33a8.35 8.35 0 0 1-.25-.86 17.62 17.62 0 0 1-.56-5.24v-.73c.8.45 1.59.91 2.36 1.36l5.18 2.94 2.5 1.44c.93-.47 1.22-.64 1.47-.75 2.33-1.26 1.94-1.81 2.79-2.92-.44.82-.93 1.67-1.42 2.54l-4.35 7.76c-.37.7-.77 1.4-1.16 2.11q-1-.77-1.89-1.53z" fill="#fff"/><path d="M345.14 132.13a1 1 0 0 0 .29.24.39.39 0 0 0 .15.06h.13c.07 0 .16.05.25 0s.11 0 .17 0 .17-.06.28-.08a1.59 1.59 0 0 0 .37-.14c.18-.08.34-.21.52-.3a.51.51 0 0 1 .2-.14c.11-.11.2-.17.29-.25a1.4 1.4 0 0 0 .19-.32 1 1 0 0 1 .12-.23c0-.1.09-.18.14-.29s.15-.29.22-.41A32.06 32.06 0 0 0 350 127c.18-.53.37-1 .53-1.55s.36-1.15.56-1.77c-.2-.31-.4-.58-.56-.85.06.36.1.63.12.82a6.35 6.35 0 0 0-.48.54c-.19.22-.34.42-.51.63-.32.43-.65.84-.94 1.27-.62.91-1.2 1.9-1.9 3.17-.1.2-.22.43-.43.79 0 0-.05.06-.11.11l-.17.1s-.06-.07-.09-.09a.49.49 0 0 0-.15-.12l-.11-.08a1.77 1.77 0 0 0-.22-.16c-.15-.12-.32-.22-.48-.35-.32-.25-.68-.51-1.05-.78-.74-.52-1.56-1.09-2.3-1.58s-1.43-1-1.92-1.32c-.22-.12-.37-.23-.48-.29l3.05-5.84c.13-.22.24-.46.35-.67s.11-.18.15-.26l.51.35.71.5a23.6 23.6 0 0 0 6.45 3.26 26.8 26.8 0 0 0-5.47-5.15c-.47-.35-1.17-.85-2.83-2-.09.17-.73 1.39-1.48 2.85-1.27 2.41-3.4 6.5-3.64 7s-.61.86-.17 1a3 3 0 0 0 .53.33 1.4 1.4 0 0 1 .24.17s1.37 1 3 2.08c.73.49 1.54 1.05 2.27 1.57l1 .75a3.72 3.72 0 0 1 .45.33c.1.1.2.18.3.27s.05 0 .13.08c.05.08.11.1.14.16zm1.19-2z" fill="#87d3f5"/><path d="M342.67 94.72a15.93 15.93 0 0 0-3.29-.74c-.28 0-.56-.06-.83-.08h-.69a16.6 16.6 0 0 0-4.68.54 11.52 11.52 0 0 0-3.8 1.64 12.5 12.5 0 0 0-2.8 2.46c1.27-.48 2.34-.77 3.43-1.13s2.24-.66 3.67-1a15.09 15.09 0 0 1 4.14-.49h.6l.72.08a11.46 11.46 0 0 1 2.85.65 13.36 13.36 0 0 1 2.73 1.23c.85.55 1.73 1.15 2.53 1.79a17.32 17.32 0 0 1 6.27 10.78c.2 1.09.34 2.2.47 3.31s.17 2.28.38 3.51a4.21 4.21 0 0 0 .2 1c.09.31.18.58.28.88l.3.87c.11.29.25.55.34.84l.38.82.15.4.2.41.82 1.6c.27.52.55 1 .85 1.55l.43.78c.13.26.3.49.46.76l1 1.51 1 1.47.48.74c.19.25.4.45.56.7l1.08 1.4c.79.87 1.59 1.76 2.4 2.62 1.55 1.7 3.1 3.37 4.68 5s3 3.31 4.54 5l8.72 9.68c5.61 6.26 10.8 12 15.27 17 2.21 2.5 4.26 4.78 6.07 6.8.46.49.9 1 1.31 1.47l.16.17.13.1a.41.41 0 0 0 .07.11v.06a1.81 1.81 0 0 1 .34.29c.22.19.42.41.65.61a27.65 27.65 0 0 1 2.06 2.34 8.17 8.17 0 0 1 1.9 3.75.51.51 0 0 1 0 .3 1.39 1.39 0 0 1 0 .29 3.78 3.78 0 0 0-.06.52 5 5 0 0 0-.11.56A13.26 13.26 0 0 1 410 192a11.38 11.38 0 0 1-.77 1.2 3.39 3.39 0 0 1-.39.55l-.39.51a.62.62 0 0 0-.16.19s.05 0-.12.07a5.46 5.46 0 0 1-1 .43 10.19 10.19 0 0 1-2.88.67 6.75 6.75 0 0 1-5.53-1.91.7.7 0 0 1-.23-.22l-.24-.25a6.48 6.48 0 0 0-.44-.49c-.31-.32-.63-.66-.93-1-1.26-1.47-2.6-3.08-4-4.79-2.83-3.45-5.95-7.34-9.34-11.51-6.73-8.41-14.4-18.06-22.28-28.07-1-1.24-2-2.5-3-3.78s-2-2.52-3.06-3.77c-.26-.3-.54-.6-.8-.94a12.12 12.12 0 0 1-.83-.91l-.86-.89-.91-.88-.22-.2-.24-.23-.52-.41a8.51 8.51 0 0 0-1.07-.74l-.55-.33-.55-.34a11.66 11.66 0 0 1-1.1-.58c-1.46-.71-3-1.4-4.46-2-.73-.33-1.5-.61-2.27-.9a22.46 22.46 0 0 0-2.47-.79 2.14 2.14 0 0 0-.32 0l-.31-.05-.59-.08-1.16-.17c-.8-.1-1.58-.23-2.35-.34-1.54-.2-3-.42-4.52-.65.3-.55.59-1.11.87-1.67.73-1.39 1.43-2.75 2.14-4.11 1.42-2.69 2.8-5.32 4.11-7.89.69-1.27 1.34-2.54 2-3.77l.19-.37.05-.11a.16.16 0 0 0 0-.12v-.89-3V102.79h-.06l-.11-.07-.22-.07-.46-.21c-.22-.1-.42-.2-.65-.28s-.38-.16-.57-.25c-1.11-.49-2-.88-2.53-1.1a28.69 28.69 0 0 0-7.37-2.06 28.13 28.13 0 0 0 6.56 3.95c.51.22 1.42.63 2.51 1.09l.58.25.22.12V109.98l-.05.12-.19.39c-2.12.6-1.48.55-4.11 2l-.27.17h-.07l-.21-.13c-.31-.18-.68-.41-1.15-.71-1.31-.78-3.05-1.85-4.95-3-.45-.28-.95-.57-1.44-.88l-.72-.43-1.34-.82-1.46-.81c-.07-.09-.06 0-.06.1V106.57c-.05.28-.08.56-.1.81-.09.53-.11 1.1-.17 1.64V109.94a21 21 0 0 0 .6 5.84c.1.36.19.71.3 1a1.78 1.78 0 0 0 .13.39l.14.34a3 3 0 0 0 .22.49l.05.18s.11.17.28.51a13 13 0 0 0 .83 1.34 25.83 25.83 0 0 0 3.38 3.8c.7.62 1.45 1.27 2.23 1.89l-.06.1c-.4.8-.84 1.63-1.26 2.43l-.55 1.07-.27.51-.14.25h.2c.78.1 1.58.19 2.35.32 1.59.21 3.19.44 4.79.68.81.1 1.59.23 2.36.34l1.18.15.59.11h.3a1.91 1.91 0 0 1 .28.07 19.34 19.34 0 0 1 2.08.65c.74.31 1.47.57 2.21.87 1.46.62 2.9 1.31 4.31 2a8.58 8.58 0 0 1 1 .56l.52.26a4.38 4.38 0 0 1 .48.3 7.07 7.07 0 0 1 .92.63l.42.35.22.17.21.21.83.8.8.88c.27.26.55.58.79.85s.52.61.8.91c1 1.19 2 2.43 3 3.72s2 2.53 3 3.78c7.88 10 15.55 19.68 22.31 28.06 3.35 4.2 6.5 8.06 9.35 11.55 1.42 1.71 2.76 3.3 4 4.8l1 1.11c.17.18.34.34.48.5l.26.3c.07 0 .15.16.26.25a8.35 8.35 0 0 0 2.36 1.62 9.54 9.54 0 0 0 4.76.85 14.49 14.49 0 0 0 3.45-.79 10.78 10.78 0 0 0 1.17-.55c.1 0 .13-.05.3-.15s.13-.08.19-.11.1-.11.14-.14a5 5 0 0 1 .34-.39l.46-.59.41-.58c.19-.26.46-.71.87-1.36a14.34 14.34 0 0 0 1.23-2.87c0-.1.09-.36.17-.76a6.38 6.38 0 0 1 .09-.7v-.44-.52A10 10 0 0 0 411 183a28.37 28.37 0 0 0-2.26-2.58c-.23-.22-.44-.44-.66-.64s-.26-.25-.4-.34l-.17-.18c-.41-.47-.85-1-1.33-1.48l-6-6.77c-4.46-5-9.64-10.75-15.26-17l-8.92-9.75c-1.32-1.5-2.65-2.95-4.6-5-1.56-1.69-3.1-3.39-4.69-5.1-.75-.83-1.53-1.63-2.29-2.48l-1-1.34a5.78 5.78 0 0 1-.53-.67l-.48-.7-1-1.4-.9-1.45c-.14-.25-.28-.5-.43-.75l-.43-.73c-.25-.5-.56-1-.84-1.5l-.74-1.54-.2-.37-.15-.4-.33-.76c-.12-.27-.23-.55-.33-.77l-.26-.8c-.08-.26-.2-.5-.27-.77s-.11-.49-.16-.74c-.16-1.06-.24-2.23-.33-3.39s-.29-2.33-.5-3.5a21.08 21.08 0 0 0-2.42-6.68 18 18 0 0 0-2.08-2.9 19 19 0 0 0-2.51-2.4 19.93 19.93 0 0 0-2.79-2 18.41 18.41 0 0 0-3.09-1.44zM328 121.33a24.84 24.84 0 0 1-3.25-3.43 5.8 5.8 0 0 1-.75-1.13c-.15-.25-.23-.42-.23-.42l-.06-.12c-.06-.12-.11-.23-.18-.39a.85.85 0 0 1-.12-.3c0-.08-.09-.2-.14-.32s-.18-.53-.24-.87a17.57 17.57 0 0 1-.56-5.24v-.73c.8.46 1.59.91 2.35 1.37 2 1.12 3.83 2.17 5.2 2.94l2.5 1.43c.93-.46 1.22-.64 1.47-.75 2.33-1.25 1.93-1.81 2.78-2.92-.45.83-.94 1.68-1.41 2.54-1.41 2.54-2.85 5.13-4.35 7.78-.36.71-.75 1.41-1.14 2.11-.68-.5-1.32-1-1.9-1.53z" fill="#87d3f5"/><path d="M403.11 183.38a4.47 4.47 0 0 0-2.87.2 5.18 5.18 0 0 1-.47.23 2.94 2.94 0 0 0-.31.16 1.33 1.33 0 0 1-.34.22 6.79 6.79 0 0 0-1.52 1.55 6.43 6.43 0 0 0-1 2.86 6.21 6.21 0 0 0 .52 3.19 6.72 6.72 0 0 0 1.52 2.05l.63.47.23.18a1.38 1.38 0 0 1 .3.13 7 7 0 0 0 .8.37 6.22 6.22 0 0 0 2.95.23 5.89 5.89 0 0 0 3.09-1.6 6 6 0 0 0 1.58-2.59 7.89 7.89 0 0 0 .29-1.51 8.58 8.58 0 0 0 0-.87 4.52 4.52 0 0 0-1.1-2.66 4.57 4.57 0 0 0-2.07-1.37 7.1 7.1 0 0 1 1.26 1.9 6.52 6.52 0 0 1 .57 2.26 4.27 4.27 0 0 1-.2 1.86 4.9 4.9 0 0 1-1.19 2 4.73 4.73 0 0 1-2.45 1.25 4.55 4.55 0 0 1-2.22-.19 2.25 2.25 0 0 1-.67-.29.8.8 0 0 0-.22-.09.92.92 0 0 1-.17-.14l-.51-.36a5 5 0 0 1-1.17-1.59 4.79 4.79 0 0 1-.38-2.47 4.43 4.43 0 0 1 .79-2.21 4.86 4.86 0 0 1 1.18-1.21.82.82 0 0 0 .25-.16 2.75 2.75 0 0 0 .24-.15 3.52 3.52 0 0 1 .36-.17 7.48 7.48 0 0 1 2.27-.5 7 7 0 0 1 2.26.27 4.47 4.47 0 0 0-2.15-1.24" fill="#87d3f5"/><path fill="#fff" d="M538.3 90.06v24.37l7.94-3.05 6.94 6.18 8.46-4.26 7.47 7.61 11.95-4.24 9.84 7.63 7.93-3.84 6.43 6.87 7.52-4.45 6.74 7.45 7.93-4.76 7.17 7.94 11.53-4.57 7.68 7.42 8.17-4.78 5.72 7.7 7.99 1.68v-50.9H538.3z"/><path d="M677 142.6l-10-2.13-5.32-7.15-8.14 4.76-7.68-9.31-11.46 6.43-7.16-7.94-7.97 4.74-6.75-9.36L605 129l-6.49-6.93-7.88 3.82-9.82-7.62-12 4.26-7.48-7.62-8.4 4.23-7-6.25-9 3.45v-27.6H677zm-8.55-4.51l5.91 1.24v-48L538.3 90.06l1.33 22.44 6.89-2.65 6.87 6.12 8.51-6.18 7.47 9.5 11.92-4.24 9.87 7.66 8-3.86 6.37 6.8 7.54-4.46 6.73 7.44 7.94-6.65 7.17 9.84 11.6-4.62 7.68 7.43 8.19-4.79z" fill="#87d3f5"/><path d="M664.85 90.06l3.36 33.74 7.5 7s24.77.3 25.5-.44c1.09-1.11-.75-6.76-1.9-7.73s-7-2.38-7-2.38V99s5.28-.79 7-2 2.41-4.33 1.9-6.77-36.36-.17-36.36-.17z" fill="#fff"/><path d="M675.22 132.15l-9.06-7.39-2.78-35.86 1.32-.15c.88-.11 21.54-.57 31.48-.57 4.5 0 6 .44 6.32 1.82.54 2.55 0 6.39-2.42 8.12-1.45 1-4.7 1.72-6.45 2v19c2 .51 5.47 1.51 6.54 2.4 1.27 1.07 2.59 5 2.69 7.18a3.19 3.19 0 0 1-.71 2.49c-.43.44-1.09-.8-26.36.83zm-7.74-8.37l8.71 5.65c10.37-.67 21.76.31 24.11-.18.11-1.1-1.13-5-1.84-5.62-.56-.46-3.79-1.45-6.46-2.1l-1-.24v-23.4l1.13-.16c1.92-.29 5.37-1 6.44-1.78s1.38-2.48 1.1-4.84c-.46-.1-1.18-.12-3.47-.29-7.12-.52-24.22-.52-29.54.23z" fill="#87d3f5"/><path d="M683.55 121.9c-.42.28-8.83 0-8.83 0l-2.91-24 10.67-1.22s2.31 23.3 2.12 23.66a5 5 0 0 1-1.05 1.56zm-7-1.84l5.88-.27a162.91 162.91 0 0 1-.28-22.53l-8.06 2z" fill="#87d3f5"/><path d="M481 212.33v-42.72c-6.92-7.92-13.37-.89-13.37-.89l-11.67.11v-17.3h11.69s6.47 8.4 13.67 0h12.4c20.46 0 25.61 24.41 25.61 24.41s-11.95-12.61-25.9-7.7v44.06z" fill="#fff"/><path d="M494.73 213.66h-15.08v-43.54c-1.83-2-3.74-3-5.7-3a8.25 8.25 0 0 0-5.38 2.45l-.39.41-13.57.14v-20h13.66l.4.52s2.54 3.21 5.86 3.21c2 0 3.89-1.11 5.75-3.29l.4-.47h13.01c21.3 0 26.85 25.21 26.9 25.47l1 4.56-3.21-3.38c-.08-.08-8.14-8.42-18.32-8.42a18.55 18.55 0 0 0-5.29.77zm-12.08-2.53l9.43-.12v-43.68l.92-.33a21.3 21.3 0 0 1 7.06-1.21c7.1 0 16.84 8.12 20.61 12.72-1-4-5.24-11.76-6.91-14-5.38-7.28-12-11.64-20-11.64h-11.85c-2.27 2.49-4.74 3.75-7.35 3.75-3.7 0-5.92-3.46-7-4.59l-10.31.84.34 14.72 9.77.67a11.62 11.62 0 0 1 7.19-3c2.88 0 5 .68 7.41 3.48z" fill="#87d3f5"/><path d="M479.32 208.4s-2.7 71.24 0 72.58 13 1.33 16.15 0 0-72.58 0-72.58z" fill="#fff"/><path d="M487.23 283.3c-1.45 0-6.36-.08-8.5-1.14-1-.46-3.47-1.71-.74-73.81l.05-1.27h18.7l.05 1.27c0 .17.79 18 1.18 35.81.8 36.85-.74 37.51-2 38-2.39 1.06-7.29 1.14-8.74 1.14zm-5.88-3.65c1.09.38 2.46.35 5.93.35a28.1 28.1 0 0 0 7.41-.77c1.7-4.46 1.61-44.29.51-69.86l-14.92.19c-.95 25.57-.39 65.53 1.07 70.09z" fill="#87d3f5"/><path d="M682.81 179.87c-3 2.42-10.5 23.63-10.7 26.46s8.68 24 10.7 25.62 11.26 7.19 13.18 6.41 39.89-49.46 40.3-52.09-10.35-5.2-13.18-6.4c-.91-.39-37.27-2.43-40.3 0z" fill="#fff"/><path d="M695.52 239.75c-3.26 0-11.82-5.37-13.54-6.77-2.43-2-11.43-23.48-11.19-26.75.21-3 7.75-24.64 11.2-27.4.59-.47 1.82-1.46 13.89-1.46 10.2 0 26.69.83 27.75 1.28.64.27 1.78.64 3.11 1.06 6.63 2.14 12.07 5.56 11.62 8.43s-39.25 50.38-41.87 51.44a2.47 2.47 0 0 1-.97.17zm.36-59.73c-10.34 0-12 .74-12.26.89-2.42 1.94-10 22.42-10.19 25.51-.12 2.43 8.39 22.82 10.23 24.52 2.17 1.76 9.7 6.07 11.8 6.16 3.74-3.31 37.39-46.78 39.47-51-.8-1.23-6.73-3.14-9-3.88-1.38-.44-2.58-.83-3.33-1.15-1.05-.18-15.6-1.07-26.72-1.07z" fill="#87d3f5"/><path d="M696 186.27c-3 2.42-10.51 23.63-10.71 26.46s8.69 24 10.71 25.63 38.37.78 40.3 0 9.59-23 10-25.63-7.17-25.26-10-26.46c-.93-.39-37.3-2.43-40.3 0z" fill="#fff"/><path d="M711.5 240.62c-14.83 0-15.82-.81-16.35-1.24-2.43-2-11.42-23.47-11.19-26.74.22-3 7.75-24.65 11.2-27.41.59-.47 1.82-1.45 13.9-1.45 10.19 0 26.68.82 27.74 1.27 3.84 1.63 11.15 25.59 10.79 27.88-.2 1.32-7.85 25.45-10.81 26.65-1.67.68-17.34 1.04-25.28 1.04zm-14.67-3.28c.08 0 2 .63 14.67.63a155.84 155.84 0 0 0 23.15-1.74c1.87-2.2 9.16-21.08 9.62-24 .25-2.57-6.12-22.77-8.47-24.68-1.93-.28-16-1.1-26.74-1.1-10.35 0-12 .75-12.26.9-2.43 1.94-10 22.42-10.2 25.51-.11 2.43 8.4 22.81 10.23 24.51z" fill="#87d3f5"/><path d="M734.65 212.2a16.46 16.46 0 0 1-16.46 16.46 16.46 16.46 0 0 1-16.47-16.46 16.47 16.47 0 0 1 16.47-16.47 16.46 16.46 0 0 1 16.46 16.47z" fill="#fff"/><path d="M718.19 229.79a17.6 17.6 0 1 1 17.59-17.6 17.61 17.61 0 0 1-17.59 17.6zm0-32.92c-8.46 0-14 7.36-15.33 15.32-1.41 8.34 6.87 15.34 15.33 15.34s17.59-6.88 17.59-15.34-9.14-15.32-17.59-15.32zM684.61 185.76c-.63.45-7.31 18.8-7.35 20s3.48 3.53 3.39 2.1 7-18.64 7.18-19.5-2.59-3.05-3.22-2.6z" fill="#87d3f5"/><path fill="#fff" d="M681.83 190.84l-4.1 11.16 4.9 4 3.81-13.08-4.61-2.08z"/><path d="M682.63 206l-6.18-3.53 4.78-13 6.53 2.94zm-3.63-4.47l3.62 4.47 2.5-12.53-2.71-1.23z" fill="#87d3f5"/><path fill="#fff" d="M682.68 228.66h-66.4l9.01 7.56 65.05-2.68-7.66-4.88z"/><path d="M624.83 237.57l-12.18-10.24h70.42l11.54 7.36zm-7.75-9.06l8.21 7.72 60.79-3.83-3.79-2.4z" fill="#87d3f5"/><path fill="#fff" d="M624.69 230.41H611.1v5.81l5.87 5.78 1.01-6.72 10.74-.84-4.03-4.03z"/><path d="M617.7 244.17l-7.64-7.51v-7.29h15.06l5.93 5.93-12.17 1zm-5.56-8.38l4.11 4 .82-5.52 9.32-.73-2.13-2.13h-12.12z" fill="#87d3f5"/><path d="M269.73 386.56l-16.22-32.94.29-1s23.95 27.83 25.13 34.21l-4.85 4.87z" fill="#fff"/><path d="M274 393.65l-5.46-6.51-16.44-33.4 1.11-3.84 1.59 1.86c2.48 2.87 24.22 28.28 25.44 34.83l.12.69zm-3.15-7.82l3.31 3.91 3.29-3.3c-1.53-4.39-15.5-25.31-23.94-35.46z" fill="#87d3f5"/><path d="M269.63 398.46s5.15 8.22 5.15 12.12.61 11.8.61 11.8l6.93-5s.49-5.84 0-7.91-5.13-10.14-5.13-10.14z" fill="#fff"/><path d="M274.25 424.83l-.18-2.35c0-.33-.62-8-.62-11.9 0-2.89-3.57-9.22-4.94-11.42l-1.51-2.33 11 1.27.33.58c.49.84 4.76 8.3 5.28 10.5s.08 7.7 0 8.32l-.05.61zm-3-24.67c1.6 2.85 3.53 7.49 3.53 10.42 0 2.49.23 6.78.41 9.42l5.86-3.33a35 35 0 0 0 0-6.89c-.3-1.28-2.89-6.09-4.66-9.2z" fill="#87d3f5"/><path d="M288.74 396.41c-2.68-2.19-7.06-11.32-14.5-10.71a8.48 8.48 0 0 0-5.09 2.38l-27.7-25.46h-1s20.13 30.7 25.94 33.6c0 0 1.74 6.18 7.3 6 6.25-.17 7.24-4.62 7.24-4.62s5.69 5.41 8 6a37.91 37.91 0 0 1 6.31 2.85l6.9-6.71s-10.73-1.14-13.4-3.33z" fill="#fff"/><path d="M295.38 407.89l-.74-.41a36.82 36.82 0 0 0-6-2.74c-1.92-.51-5.41-3.48-7.32-5.21-.95 1.58-3.07 3.72-7.6 3.85h-.23c-4.65 0-7.2-3.95-8.05-6.39-6.34-4-23.91-30.66-25.94-33.75l-1.15-1.76h3.58l27.28 25.08a9.49 9.49 0 0 1 5-2c6.1-.52 10.32 4.85 13.05 8.34a19.81 19.81 0 0 0 2.26 2.62c1.76 1.44 8.77 2.68 12.77 3.12l2.39.27zm-15.13-12.43l1.42 1.34c2.12 2 6 5.36 7.51 5.74a33.56 33.56 0 0 1 5.82 2.55l4.62-4.49c-3.43-.49-9.48-1.58-11.6-3.31a20.13 20.13 0 0 1-2.62-3c-2.58-3.3-6.14-7.87-11.07-7.47a7.4 7.4 0 0 0-4.39 2.06l-.77.76-27.27-27.43c6.89 10.16 21.19 31.12 25 33l.45.22.14.48c.06.22 1.65 5.62 6.1 5.62 5.41-.15 6.21-4 6.25-4.16z" fill="#87d3f5"/><path d="M284.18 414.25l-11.61 7.12s-2 18.25 3.51 33 17.15 24.4 20.38 26 12.64 2.07 8.44-7.3-14.4-11.28-17.83-27.28a144.46 144.46 0 0 1-2.89-31.54z" fill="#fff"/><path d="M300.79 482.58a11.71 11.71 0 0 1-4.92-1.05c-3.47-1.73-15.39-11.68-21-26.74-5.55-14.83-3.67-32.8-3.59-33.56l.07-.64 14.27-8.76-.09 2.47a144.65 144.65 0 0 0 2.87 31.2c2 9.34 6.33 13.61 10.53 17.73 2.81 2.77 5.46 5.38 7.21 9.28 1.43 3.19 1.56 5.74.38 7.57-1.08 1.61-3.11 2.5-5.73 2.5zm-27-60.42c-.28 3.32-1.27 19 3.49 31.71 5.41 14.44 16.95 23.9 19.73 25.3a9.23 9.23 0 0 0 3.74.77c1 0 2.74-.17 3.47-1.3s.46-2.76-.57-5.05c-1.54-3.44-4-5.88-6.65-8.47-4.26-4.19-9.1-8.95-11.26-19.07-2.65-12.38-1.92-24.8-1.92-29.81z" fill="#87d3f5"/><path d="M294.06 407.57l10.28-9.77s17.5 2.21 30.59 10.89 19.93 22.19 20.77 25.7-1.09 12.65-9.28 6.45-6.56-16.65-21.38-23.58a136.32 136.32 0 0 0-30.98-9.69z" fill="#fff"/><path d="M351.32 444.27a9.81 9.81 0 0 1-5.69-2.37c-3.49-2.64-5.26-5.9-7.13-9.35-2.7-5-5.49-10.1-14-14.09a135.56 135.56 0 0 0-30.64-9.58l-2.62-.44 12.67-12 .62.08c.73.1 17.95 2.36 31.15 11.1 13.4 8.88 20.42 22.73 21.33 26.5a10.63 10.63 0 0 1-1.63 8.17 5 5 0 0 1-4.06 1.98zm-54.49-37.51a138.11 138.11 0 0 1 28.77 9.3c9.32 4.36 12.46 10.13 15.22 15.22 1.74 3.19 3.37 6.21 6.4 8.5 2.72 2.06 4.78 2.46 6.06.83a8.18 8.18 0 0 0 1.14-5.91c-.73-3-7.36-16.39-20.22-24.91-11.32-7.49-26.67-11.5-29.86-12z" fill="#87d3f5"/><path d="M692.88 470.72c-5.24-8.06-45.64-3.51-45.64-3.5s-82.27-14.16-96.48-5.76l89 16.61s13.12-8.57 14.87-3.85c2.78 7.52 5.24 13.81 19.93 13.64s23.17-9.66 18.32-17.14zm-8.33 7.17c-4 6.46-18.63 3-21.49-1.72s3.85-4.24 8.57-4.12c3.97.11 16.89-.62 12.92 5.84z" fill="#fff"/><path d="M676.27 482.39c-5.83 0-12.12-2.57-14-5.73-.89-1.47-1.06-2.72-.5-3.7 1.25-2.21 5.45-2 9-1.88h2.4c5.57 0 11.14.27 12.69 3.06a3.82 3.82 0 0 1 .19 4.19c-1.6 2.67-5.51 4.06-9.78 4.06zm-8.07-9.47c-3.52 0-4.56.53-4.81 1a3.43 3.43 0 0 0 .54 2.31c1.55 2.57 9.55 4.33 12.06 4.08s7.2.45 8.86-2.25c.61-1 1.44-3 1.14-3.57-1.15-2.06-9.87-1.44-12.84-1.45h-2.44c-.82-.04-1.71-.12-2.51-.12z" fill="#87d3f5"/><path d="M673.92 489.19c-15.2 0-17.81-7.05-20.57-14.51-.08-.19-.21-.56-1.24-.56-3.22 0-9.51 3.65-11.66 5.06l-.45.29-.52-.1-92.43-17.26 3-1.79c3.24-1.92 9.55-2.85 19.29-2.85 27.27 0 72.82 7.56 77.92 8.42 1.14-.21 3.2-.36 7-.65 3.92-.29 9.85-.64 15.81-.64 13.74 0 21.56 1.76 23.92 5.39a9.3 9.3 0 0 1 .36 9.81c-3 5.59-10.77 9.26-19.82 9.37zm-21.81-17.71a3.59 3.59 0 0 1 3.72 2.28c2.64 7.14 4.73 12.78 18.1 12.78h.57c8.1-.09 15-3.22 17.51-8a6.66 6.66 0 0 0-.24-7.12c-1-1.56-5.19-4.18-21.7-4.18-9.24 0-18.35.83-21.5 1.15v.12h-1.43l-.28-.05c-5.08-.86-50.43-8.38-77.48-8.38a153.23 153.23 0 0 0-19.82 1.68l90.16 16.27c1.91-1.17 8.28-6.55 12.39-6.55z" fill="#87d3f5"/><path d="M669.83 431.65c-7.91 1.56-14.05 6.21-13 11.75a17.75 17.75 0 0 0 1.32 2.57L633 465a808.32 808.32 0 0 0-79.19 19.45c25.84 4.24 79.73-9.64 79.73-9.64l30.34-22.59a13.64 13.64 0 0 0 5.86 1c.86 0 .38 5.72 4.73 5.29 5.62-.56 1.11-6.11 2-6.41 6.4-2.2 12-7.08 11.08-12-1.1-5.52-9.81-10-17.72-8.45z" fill="#fff"/><path d="M565.37 486.57a73.6 73.6 0 0 1-11.78-.83l-5.56-.91 5.39-1.66c.38-.12 39.08-12 79-19.43l24-18.12a8.88 8.88 0 0 1-.88-2c-.6-3.09.66-6.15 3.54-8.63a23.06 23.06 0 0 1 10.46-4.67 17.91 17.91 0 0 1 3.53-.34c7.61 0 14.67 4.41 15.74 9.84s-4.54 10.59-10.92 13.1c.51 1.33 1.28 3.35.25 5a4.43 4.43 0 0 1-3.56 1.82h-.59c-3.66 0-4.55-3.4-5-5 0-.1 0-.19-.07-.28a14.6 14.6 0 0 1-4.9-.81l-30 22.3-.25.07c-.31.16-40.93 10.55-68.4 10.55zm-4.76-2.77c1.51.08 3.1.12 4.76.12 26 0 64.13-9.47 67.59-10.34l30.74-22.89.7.3a12.67 12.67 0 0 0 5.34.89c1.28 0 1.73 1.23 1.87 2.25.33 2.4.64 3.69 2.41 3.06h.32a2.24 2.24 0 0 0 1.58-.59c.34-.55-.17-1.88-.48-2.68a2.92 2.92 0 0 1-.27-2.3l.23-.51.63-.26c5.57-1.91 11-6.23 10.21-10.46s-7-7.7-13.14-7.7a15.68 15.68 0 0 0-3 .28 20.42 20.42 0 0 0-9.25 4.09c-1.51 1.29-3.2 3.41-2.67 6.11a20.48 20.48 0 0 0 1.15 2.14l.61 1-26.38 19.92-.3.06c-30.33 5.63-59.98 13.84-72.65 17.51z" fill="#87d3f5"/><ellipse cx="671.5" cy="442.57" rx="7.42" ry="4.45" transform="rotate(-8.91 671.597 442.62)" fill="#fff"/><path d="M670.31 448.06c-3.78 0-6.68-1.72-7.07-4.19-.47-3 2.87-5.34 7.5-6.07.68-.1 2.33-.67 3-.67 2.65 0 5.63 1.68 6 4.15a4.75 4.75 0 0 1-2 4.32 11.27 11.27 0 0 1-5.44 2.3 12.59 12.59 0 0 1-1.99.16zm.43-10.26c-3.44.65-5.93 3.9-5.63 5.78s3.52 3 6.93 2.45a9.4 9.4 0 0 0 4.52-1.89 3.08 3.08 0 0 0 1.33-2.57c-.24-1.5-3.98-4.36-7.15-3.77z" fill="#87d3f5"/><path d="M368 338h-5.68v-29a7.64 7.64 0 0 1 2.12-5.77c2.28-2.18 5.51-2 8.11-1.94.68 0 1.34.06 1.95 0l36-.06c5.13 0 5.13-.05 5.13-2.67v-18.34c0-7.56-.66-7.56-4.31-7.56h-20.44V267h20.42c9.25 0 10 5.73 10 13.23v18.36c0 8.35-6 8.35-10.81 8.35l-35.83.06h-2.31c-1.36-.06-3.41-.14-3.95.37a2.67 2.67 0 0 0-.4 1.63z" fill="#fff"/><path d="M369 338.94h-7.56V309a8.57 8.57 0 0 1 2.4-6.45c2.09-2 4.8-2.25 6.94-2.25h1.83a18.62 18.62 0 0 0 1.91 0l36-.06c1.88 0 3.83 0 4.08-.27a4.72 4.72 0 0 0 .11-1.46v-18.29c0-6.61-.13-6.61-3.37-6.61h-21.41V266h21.37c10.1 0 10.93 6.71 10.93 14.18v18.36c0 9.29-7.07 9.29-11.75 9.29l-35.82.06h-3.91a4.21 4.21 0 0 0-1.75.11c.09 0 0 .3 0 .95zm-5.67-1.89h3.78V309a3.22 3.22 0 0 1 .66-2.35c.5-.48 1.37-.68 3-.68.57 0 1.14 0 1.63.05.82 0 1.62.06 2.24 0l35.86-.06c4.85 0 9.86 0 9.86-7.4v-18.34c0-7.42-.63-12.29-9-12.29h-19.54v3.79h19.48c4.62 0 5.26 1 5.26 8.5v18.36c0 3.62-1.05 3.62-6.08 3.62l-35.94.06h-1.91c-.67 0-1.28-.05-1.88-.05-1.89 0-4 .2-5.63 1.73a6.74 6.74 0 0 0-1.82 5.06z" fill="#87d3f5"/><path d="M404.29 283.9c-5 5.5-82.74 3.72-87.35 0s-5.45-17.33 0-24.45 83.16-7.55 87.35 0 5.03 18.95 0 24.45z" fill="#fff"/><path d="M366.27 288.71c-17.58 0-46.75-1-50.16-3.78-5.19-4.19-6.18-18.49-.22-26.29 4.47-5.85 41.84-6 46.08-6 9.4 0 40.29.45 43.48 6.18 4.29 7.72 5.44 19.85-.18 26-2.96 3.18-22.84 3.89-39 3.89zM362 255.27c-25.14 0-43.16 1.73-45 4.18-4.89 6.4-3.24 20.13.83 23.42 2.06 1.51 23.24 3.2 48.5 3.2 27 0 34.91-3.17 36-4.31 4.67-5.11 4.78-14.73.92-21.67-1.41-2.34-16.25-4.82-41.25-4.82z" fill="#87d3f5"/><path d="M359.33 322.89H371l-2.9 10.81s8 28.15 4.08 41.41c-.62 2.14-13.66 2.33-14.56 0-4.68-12.16 4.2-40.8 4.2-40.8z" fill="#fff"/><path d="M364.78 378.11c-3.38 0-7.59-.43-8.39-2.52-4.57-11.87 3-37.91 4.06-41.33l-2.76-12.69h15l-3.2 12.12c.95 3.45 7.72 29 4 41.8-.7 2.28-5.75 2.62-8.71 2.62zm-3.8-53.9l2.21 10.16-.11.33c-.08.29-10.19 28.05-5.73 39.65.22.17 3.68.57 7.43 1.12a9.83 9.83 0 0 0 6.18-.9c1.38-12-4-40.23-4.13-40.51l-.1-.35 4.27-10.82z" fill="#87d3f5"/><path d="M561.24 252.92s-14.7 11.88-10.32 60.64c.31 3.42 27.83 10.92 27.83 10.92s21.28-20.46 19.6-24c-21.35-45.09-37.11-47.56-37.11-47.56z" fill="#fff"/><path d="M579.12 326l-.72-.2c-13-3.53-28.47-8.5-28.79-12.08-4.4-48.9 10.17-61.28 10.79-61.79l.46-.37.58.09c.67.11 16.67 3.1 38.11 48.3 1 2-1.73 8.07-19.89 25.53zm-17.5-71.56c-2.36 2.54-14.5 16.82-10.7 59.16 1 1.7 15.91 7.64 27.83 10.92 9.27-9 19.07-20.11 18.87-22.37-18.49-39-33.01-46.76-36-47.75z" fill="#87d3f5"/><path fill="#87d3f5" d="M579.67 324.26l-1.84.45-17.07-71.67 1.03-.25 17.88 71.47z"/><path fill="#fff" d="M573.45 302.82l-3.06 16.64 5.08 6.2 2.38 9.72 5.76-1.41-2.37-9.72 1.89-7.71-9.68-13.72z"/><path d="M585.22 334.94l-8.34 2-2.62-10.71-5.26-6.41 3.73-20.34 11.86 16.79-2 8zm-6.4-1.16L582 333l-2.14-8.75 1.84-7.44-8.27-14-1.64 16.27 4.89 6z" fill="#87d3f5"/><path d="M585.1 331.73l-9.31 2.27s6 43.77 9.5 46.79 13 .15 14.26-3.49c1.17-3.3-14.45-45.57-14.45-45.57zm8.25 46.46a5.28 5.28 0 1 1 3.87-6.38 5.28 5.28 0 0 1-3.87 6.38z" fill="#fff"/><path d="M593.57 379.11a6.23 6.23 0 0 1-7.52-4.57c-.82-3.33 1.42-5.93 4.75-6.75s6.52.46 7.34 3.79a6.24 6.24 0 0 1-4.57 7.53zm-2.73-11.17c-2.32.56-3.78 3.95-3.21 6.26a5 5 0 0 0 5.6 3.53 5.21 5.21 0 0 0 3.55-5.81c-.57-2.31-3.62-4.55-5.94-3.98z" fill="#87d3f5"/><path d="M593.23 382.93c-3.65.89-7 .47-8.8-1.13-3.61-3.11-8.53-37.23-9.95-47.61l-.17-1.19 11.62-2.84.41 1.11c4.75 12.83 15.66 43 14.46 46.48-.94 2.68-4.66 4.47-7.57 5.18zm-16.69-47.23c2.88 20.75 6.69 42.34 8.65 44.23 1.17 1 4.65 1.78 7.4 1.11s5.25-2.86 5.71-4.17c.41-2.47-6.85-24.09-14-43.58z" fill="#87d3f5"/><path fill="#fff" d="M573.56 332.43l12.7-3.11 2.04 4.4-13.82 2.47-.92-3.76z"/><path d="M588.79 334.05l-15.28 3.74-1.51-6.33 15.28-3.74zm-13.6 1.24l13.11-1.57-2.71-3.79-11 2.83z" fill="#87d3f5"/><path d="M110.68 459.24h49.86c0 39.67-24.93 48.75-24.93 48.75s-24.93-8.11-24.93-48.75z" fill="#fff"/><path d="M135.63 509.39l-.43-.14c-1.06-.35-25.85-8.88-25.85-50v-1.32h52.51v1.32c0 20.9-7 33.35-12.78 40.12-6.39 7.4-12.75 9.77-13 9.87zM110.68 459c.48 35.55 21.59 46.25 24.9 47.54 3.31-1.4 22.11-11.22 22.61-45.95z" fill="#87d3f5"/><path d="M131.59 417.18s.12 42.87 0 48.82 4 11.74 4 11.74 4-5.61 4-11.74v-48.82z" fill="#fff"/><path d="M135.61 479.36l-.77-1.07c-.18-.25-4.32-6.12-4.2-12.31.13-5.87 0-48.37 0-48.79v-.95h9.93V466c0 6.36-4 12.05-4.19 12.29zm-3.07-61.23c0 6.35.11 42.49 0 47.89-.09 4 1.92 6.11 3.07 8.06a13 13 0 0 0 2.43-7.84l-.11-48.11z" fill="#87d3f5"/><path d="M115.76 400s1.47 20 7.45 20h7.69v7.28h10l.1-7.28h7c6 0 7.45-20 7.45-20-1.96-4.87-37.66-4.87-39.69 0zm25.93 13.17c-3.52.09-7 0-11.46 0s-6.14-8.28-4.75-9.34 18.3-1.39 20.16 0c1.63 1.22-.42 9.25-3.95 9.33z" fill="#fff"/><path d="M138.18 414.52H130.37c-2.68 0-4.89-2-6.05-5.45-.6-1.77-1.2-5.09.36-6.27s9.25-1.2 11.61-1.2c8.56 0 9.75.9 10.14 1.19 1.95 1.46.77 5.51.52 6.3-1.07 3.35-3 5.37-5.22 5.43-1.18-.01-2.35 0-3.55 0zm-7.94-2.68h11.43c.65 0 1.41-.72 2-1.88 1.15-2.1 2.51-5.41 2.19-5.94a33.75 33.75 0 0 0-9.55-1.2c-5.17 0-8.81.56-10 2.05a7.44 7.44 0 0 0 1.3 5.14 3.28 3.28 0 0 0 2.55 1.83z" fill="#87d3f5"/><path d="M141.64 428.6h-12.06v-7.29h-6.37c-6.86 0-8.51-17.68-8.77-21.23v-.31l.12-.29c1.68-4 15.31-4.46 21.09-4.46s19.42.43 21.05 4.47l.12.29v.3c-.26 3.55-1.91 21.23-8.77 21.23h-6.36zm-9.41-2.6h8.29v-7.29H148c3.18 0 5.49-10.79 6.1-18.35-1-1-6.94-2.64-18.47-2.64s-17.48 1.64-18.51 2.65c.61 7.56 2.92 18.34 6.09 18.34h9z" fill="#87d3f5"/><path d="M486.2 370l-25.9 33.76s6.45 7.43-12.36 25.29l8.66 6.65 42.34-55.92z" fill="#fff"/><path d="M456.85 437.57l-11-8.4 1.15-1.07c17.42-16.53 12.31-23.41 12.26-23.48l-.64-.81.61-.84L486 368.16l14.84 11.38zM450 429l7.52 5.54 40.13-55.14-11.45-9.4-24.86 33.77c1.25 2.62 3.43 10.67-11.34 25.23z" fill="#87d3f5"/><path d="M475.7 368.64l-16.87 22s17.31 13.26 20.66 15.86c10.5 8.13 16.36 23.77 16.36 23.77s22.47-8.95 27.23-33.58c0 0-14.25-2.84-22.24-8.86s-25.14-19.19-25.14-19.19z" fill="#fff"/><path d="M495.09 432l-.48-1.27c-.06-.15-5.86-15.39-15.93-23.19l-6.84-5.26L457 390.87l18.49-24.09 1.05.8c.17.14 17.24 13.23 25.13 19.18 7.65 5.77 21.56 8.59 21.7 8.62l1.29.26-.25 1.29c-4.84 25.05-27.81 34.47-28 34.56zm-21.64-31.82l6.85 5.27c9 7 15.05 18.08 16.73 22.09 4.54-2.22 22.41-11.85 26.77-31.33-3.76-.87-17-2.2-23.75-7.32s-20.25-15.44-24.05-18.4l-15.27 19.9z" fill="#87d3f5"/><path d="M450.35 423.84l11.27 8.64s-15.33 16.28-20.87 21.62c-14.17 13.65-13.32 30.38-15.21 32.17s-15-.75-15.55-4.92c-2.19-16.35 40.36-57.51 40.36-57.51z" fill="#fff"/><path d="M410.72 484.6a4.75 4.75 0 0 1-2.05-3.08c-2.24-16.81 39-56.93 40.76-58.63l.82-.8 13.34 10.24-1 1.06c-.15.17-15.41 16.37-20.91 21.66-10.07 9.7-12.34 21.07-13.56 27.17-.55 2.74-.85 4.25-1.66 5-2.33 2.22-12.04.22-15.74-2.62zm39.74-60c-2.68 2.65-11.54 12.48-20.11 22.68-13.31 15.84-19.3 27.05-18.45 33.35a2.4 2.4 0 0 0 1 1.33c3.31 2.55 10.48 5.44 11.73 4.61 1.57-.73 1.65-3.58 2-5.12 1.28-6.39 2.55-18.08 13.21-28.35 4.64-4.47 16.32-16.8 19.82-20.51z" fill="#87d3f5"/><path fill="#fff" d="M146.84 298.73h40.33l-3.46 2.64 3.46 1.94-2.19 1.93 3.68 2.63-7.1 3.56 10.08 2.63-6.66 1.94 4.05 1.93-6.65 3.01 4.79 3.25-3.46 2.41 6.07 1.93-7.4 4.26 6.28 1.93-4.95 1.93 4.58 2.64-4.64 1.15 4.64 2.71h-41.45v-44.42z"/><path d="M145.51 344.47V297.4h45.57l-5 3.8 3.33 1.86-2.35 2.07 4.12 2.94-5.92 3 11.32 3-7.93 2.3 3.48 1.66-7.09 3.22 4.43 3-7 2.68 10.53 1.25-7.36 4.24 7 2.15-5.92 2.31 5 2.9-4.66 1.16 6 3.53zm2.65-44.42v41.78l37.9 1.22-5.88-3.11 6.71-.69-1.9-2.34 5-2.25-10.93-1.5 7.43-4.28-6-1.78 4.33-2.89-5.14-3.49 10.13-2.64-8.56-2.39 5.4-1.56-2.89-2.83 2.33-3.63-3.25-2.32 2-1.8-3.59-2 6.72-3.27z" fill="#87d3f5"/><path fill="#fff" d="M131.3 297.94h17.66v46H131.3z"/><path d="M130 345.26v-48.65h20.32v48.65zm2.65-46v43.35h15l1.35-44.67z" fill="#87d3f5"/><path fill="#87d3f5" d="M140.72 298.73h1.89v45.21h-1.89zM136.67 298.73h1.89v45.21h-1.89z"/><path d="M131.3 342.71v-43.62s-9.6-.07-10 5.49c-1 13.11-6.88 12.3-15 12.15s-36.24-6.1-39.22-3.66c-4.27 3.5-3.93 14.09.31 16.45 3.16 1.76 33.41-4 39.76-4.15s13-.29 14.77 11.89c.93 6.63 9.38 5.45 9.38 5.45zm-61.66-21.77a4.37 4.37 0 1 1 4.36 4.37 4.37 4.37 0 0 1-4.36-4.37z" fill="#fff"/><path d="M68.69 320.94c0-2.93 2.39-4.79 5.32-4.79s5.31 1.86 5.31 4.79a5.32 5.32 0 0 1-10.63 0zm8.74 0c0-1.89-1.53-4.79-3.42-4.79s-3.42 2.9-3.42 4.79a3.42 3.42 0 0 0 6.84 0z" fill="#87d3f5"/><path d="M62.69 321.33c0-4 1.32-7.48 3.53-9.28s9.57-.81 25 1.48c6.24.94 12.14 1.82 15.1 1.87h1.18c7.47.17 11.58.26 12.46-10.95.53-6.71 10.92-6.72 11.37-6.72h1.31v46.09l-1.14.16c-3.37.47-10-.29-10.89-6.57-1.59-11-7.08-10.91-13.43-10.76-2.29.05-8.09.91-14.24 1.81-16.79 2.47-24.14 3.32-26.19 2.18-3-1.64-4.06-5.88-4.06-9.31zM130 300.49c-2.37.21-7.14 1-7.39 4.2-1.07 13.71-7.6 13.56-15.16 13.38h-1.17c-3.14-.06-9.11-.95-15.44-1.9-7.92-1.18-20.74-2.64-22.5-1.52a8.52 8.52 0 0 0-3 6.7c0 3.31.84 7 2.44 7.92 1.87.85 16.51-1 25-2.28 6.5-1 11.92-1.55 14.37-1.6 6.32-.15 13.26-1.41 15.18 12 .58 4 5.64 5.9 7.7 5.86z" fill="#87d3f5"/><circle cx="99.06" cy="178.18" r="36.79" fill="#fff"/><path d="M99.06 217.22c-21 0-38.12-18-38.12-39a38.15 38.15 0 0 1 38.12-38.11c21 0 38.84 17.09 38.84 38.11s-17.83 39-38.84 39zm-.62-74.8c-19.55 0-35.35 16.2-35.35 35.76s16.41 35.47 36 35.47a35.51 35.51 0 0 0 35.46-35.47c-.03-19.56-16.55-35.76-36.11-35.76z" fill="#87d3f5"/><circle cx="99.06" cy="178.18" r="28.95" fill="#fff"/><path d="M99.06 208.45a30.27 30.27 0 1 1 30.27-30.27 30.31 30.31 0 0 1-30.27 30.27zm0-57.89a27.65 27.65 0 0 0-27.62 27.62c0 15.23 13.71 28.95 28.94 28.95A27.65 27.65 0 0 0 128 179.5c0-15.23-13.71-28.94-28.94-28.94z" fill="#87d3f5"/><path d="M99.06 112.13a13.1 13.1 0 1 0 13.09 13.1 13.1 13.1 0 0 0-13.09-13.1zm0 22.19a9.1 9.1 0 1 1 9.09-9.09 9.09 9.09 0 0 1-9.09 9.09z" fill="#fff"/><path d="M99.06 139.27a14 14 0 1 1 14-14 14.06 14.06 0 0 1-14 14zm0-27.14c-6.7 0-13.1 6.4-13.1 13.1s6.4 12.15 13.1 12.15a12.16 12.16 0 0 0 12.15-12.15c0-6.7-5.45-13.1-12.15-13.1zm0 23.13a10 10 0 1 1 10-10 10 10 0 0 1-10 10zm0-19.51c-4.49 0-8.15 5-8.15 9.48a8.16 8.16 0 0 0 8.15 8.14c4.49 0 9.09-3.65 9.09-8.14s-4.6-9.48-9.09-9.48z" fill="#87d3f5"/><path fill="#fff" d="M97.2 128.42h3.71v6.57H97.2z"/><path d="M101.86 135.93h-5.6v-8.46h5.6zM98.15 134H100l.94-5.92-3.51.54z" fill="#87d3f5"/><circle cx="99.06" cy="136.96" r="4.47" fill="#fff"/><path d="M99.06 142.37a5.42 5.42 0 0 1-5.42-5.37c0-3 2.43-4.75 5.42-4.75s5.41 1.76 5.41 4.75a5.42 5.42 0 0 1-5.41 5.37zm0-9.61c-2 0-3.53 2.25-3.53 4.2a3.53 3.53 0 0 0 7 0c.05-1.96-1.53-4.2-3.47-4.2zM96.5 178.18l2.9-18.04 2.65 18.04H96.5z" fill="#87d3f5"/><path d="M103.15 179.13h-7.76l4-25.2zm-5.54-1.9H101l-1.6-10.88z" fill="#88d2f4"/><path d="M99.44 202.72l-4-25.2h7.76zm-1.83-23.3l1.66 20 2.59-20z" fill="#87d3f5"/><path d="M103.2 178.18a3.5 3.5 0 0 1-3.52 3.4 3.4 3.4 0 0 1 0-6.8 3.5 3.5 0 0 1 3.52 3.4z" fill="#fff"/><path d="M99.68 182.52a4.34 4.34 0 0 1 0-8.68c2.4 0 3.52 1.94 3.52 4.34s-1.12 4.34-3.52 4.34zm0-6.79a2.45 2.45 0 0 0 0 4.9c1.36 0 3.4-1.1 3.4-2.45s-2.08-2.45-3.4-2.45z" fill="#87d3f5"/><path d="M235.48 123.78s15.08-2.55 17.52 10c2.77 14.23 13.32 88.71 9.59 92.58-8.09 8.38-20.82 9.28-20.82 9.28l-4.45-6s17.33-4.19 18.08-9.14-6.9-80.14-10.65-84.79c-2.52-3.13-9.27-3.44-9.27-3.44z" fill="#fff"/><path d="M241.14 237.06l-6.08-8.18 1.95-.48c7.92-1.91 16.7-5.54 17.08-8 .91-6-7.31-79.93-10.37-83.77-1.75-2.17-6.59-2.87-8.3-3l-1.26-.06v-10.91l1.11-.19a21.5 21.5 0 0 1 3.31-.23c8.6 0 14.33 4.13 15.73 11.32 1.52 7.84 13.95 88.87 9.24 93.76C255.2 236 242.4 237 241.86 237zm-1.58-6.58l2.82 3.81c2.72-.34 12.69-2 19.26-8.81 2.82-4.65-6.68-74.63-9.94-91.41-1.47-7.59-7.95-9.18-13.13-9.18-.69 0-1.29 0-1.77.07v6.14a13.92 13.92 0 0 1 8.33 4.49c4.24 5.26 11.41 80.42 10.73 84.88-.72 4.76-11.21 8.63-16.3 10.01z" fill="#87d3f5"/><path d="M207.44 123.78s-15.07-2.55-17.52 10c-2.77 14.23-13.31 88.71-9.59 92.58 8.09 8.38 20.83 9.28 20.83 9.28l4.44-6s-17.33-4.19-18.08-9.14 6.9-80.14 10.65-84.79c2.52-3.13 9.27-3.44 9.27-3.44z" fill="#fff"/><path d="M201.79 237.06l-.73-.05c-.54 0-13.33-1-21.68-9.69-4.71-4.89 7.72-85.92 9.24-93.75 1.4-7.2 7.14-11.33 15.74-11.33a21.44 21.44 0 0 1 3.3.23l1.11.19v10.92l-1.26.06c-1.72.08-6.55.78-8.31 3-3.06 3.84-11.27 77.77-10.37 83.77.38 2.5 9.17 6.13 17.08 8l2 .48zm2.57-112.17c-5.18 0-11.66 1.59-13.14 9.18-3.26 16.79-12.75 86.76-9.88 91.47 6.52 6.75 16.48 8.41 19.2 8.75l2.83-3.81c-5.1-1.38-15.46-5.1-16.18-9.86-.67-4.46 6.42-80.42 10.67-85.68 2.19-2.72 6-3.58 8.26-3.84V125c-.47-.08-1.07-.11-1.76-.11z" fill="#87d3f5"/><path d="M241.1 190.59c0 7-5.71 20.21-12.76 20.21h-14.51c-7.05 0-12.76-13.16-12.76-20.21l7.44-33.41c0-7.05 3.59-12.76 10.64-12.76H223c7 0 10.64 5.71 10.64 12.76z" fill="#fff"/><path d="M228.34 212.12h-14.51c-8.14 0-14.08-14.16-14.08-21.53v-.29l7.44-33.3c.05-8.47 4.74-13.94 12-13.94H223c7.23 0 11.91 5.47 12 13.94l7.45 33.56c-.02 7.44-5.97 21.56-14.11 21.56zm-24.78-22c.08 7 3.88 18.2 11.06 18.42l13.72.94c5.75 0 11.36-11.79 11.44-18.74l-6-34c0-5.53-3.93-11-10.8-11h-3.87c-6.87 0-9.31 5.91-9.31 11.44v.29z" fill="#87d3f5"/><path fill="#fff" d="M206.52 119.89h28.96v15.4h-28.96z"/><path d="M236.8 136.61h-31.61v-18h31.61zm-28.45-3l25.8.39 1.33-14.07-27.64 1.33z" fill="#87d3f5"/><path fill="#fff" d="M211.16 112.71h19.85v7.19h-19.85z"/><path d="M232.33 119.89l-22.49.8v-8h22.49zm-19.84-1.32h17.19L231 114h-18.51z" fill="#87d3f5"/><path fill="#fff" d="M206.22 210.8h29.73v5.47h-29.73z"/><path d="M237.28 217.59H204.9v-8.12h32.38zm-30.48-1.32l27.91.08-.08-4.23h-27.08z" fill="#87d3f5"/><path fill="#fff" d="M211.16 135.29h19.85v12.32h-19.85z"/><path d="M232.33 148.93h-22.49V134h22.49zm-19.84-2.65h17.19v-9.67h-17.19z" fill="#87d3f5"/><path fill="#fff" d="M213.9 216.27h14.37v12.32H213.9z"/><path d="M229.6 229.91h-17v-13.64h17zm-14.37-2.65l13.23-.08-.33-9.38-12.9-.21z" fill="#87d3f5"/><path d="M245.74 240.09h-49.3c0-8.7 11-15.76 24.65-15.76s24.65 7.06 24.65 15.76z" fill="#fff"/><path d="M247.06 241.41h-51.95v-1.32c0-9.42 11.65-17.08 26-17.08s26 7.66 26 17.08zm-49.2-2.65h46.45c-1.08-7.33-11.08-12.53-23.22-12.53s-22.15 5.2-23.23 12.53z" fill="#87d3f5"/><circle cx="217.23" cy="141.45" r="1.5" fill="#fff"/><path d="M217.23 143.9a2.45 2.45 0 1 1 2.45-2.45 2.45 2.45 0 0 1-2.45 2.45zm0-3a.56.56 0 1 0 .56.56.56.56 0 0 0-.56-.57z" fill="#87d3f5"/><circle cx="224.94" cy="141.45" r="1.5" fill="#fff"/><path d="M224.94 143.9a2.45 2.45 0 1 1 2.45-2.45 2.45 2.45 0 0 1-2.45 2.45zm0-3a.56.56 0 1 0 .56.56.56.56 0 0 0-.56-.57zM237.32 114.03h-32.64v-2.65l32.64 1.33v1.32z" fill="#87d3f5"/><path fill="#fff" d="M192.12 240.09h58.56v5.47h-58.56z"/><path d="M252 246.89h-61.2v-8.13H252zm-58.56-2.65l57.23 1.8V241l-57.23.46zM237 206.19c-20.22-7.54-31.57-27.64-35.52-35.92a1.9 1.9 0 0 1 0-1.66c.76-1.55 3.66-2.31 4.54-2.51l.41 1.85c-1.68.38-3.15 1.13-3.26 1.5 3.86 8.08 14.91 27.67 34.48 35z" fill="#87d3f5"/><path d="M205.75 206.19l-.66-1.77c19.57-7.31 30.62-26.89 34.47-35-.1-.37-1.57-1.12-3.25-1.5l.41-1.85c.88.2 3.78 1 4.54 2.51a1.86 1.86 0 0 1 0 1.66c-3.94 8.31-15.26 28.41-35.51 35.95z" fill="#87d3f5"/><path fill="#fff" d="M682.69 348.15l-19.16-66.46-16.85 4.86L665.84 353l4.86 16.86 16.85-4.86 66.46-19.16-4.86-16.85-66.46 19.16z"/><path d="M669.79 371.5L645 285.64l19.4-5.59 19.16 66.46 66.46-19.16 5.59 19.4zm-23.11-84.95l24.92 81.67 80.77-23.28-3.22-15.94-67.21 20.79-19.88-66.36z" fill="#87d3f5"/><path fill="#87d3f5" d="M689.46 357.601l1.816-.524 1.91 6.62-1.816.524zM697.33 362.56l-1.91-6.62 1.82-.53 1.41 6.51-1.32.64zM703.6 360.75l-1.17-6.83 1.08-.32 1.91 6.62-1.82.53zM709.65 359l-1.91-6.62 1.39-.12 2.34 6.22-1.82.52zM738.422 341.094l1.814-.53 1.93 6.615-1.815.53zM746.22 348.46l-1.91-6.62 1.19-.34 2.53 6.44-1.81.52zM727.93 353.73l-1.31-6.79 1.08.13 2.05 6.14-1.82.52zM732.062 345.373l1.816-.523 1.909 6.62-1.816.524zM715.62 357.28l-1.62-5.74 1.82-.53 1.61 5.75-1.81.52zM719.992 348.832l1.816-.523 1.908 6.62-1.816.524zM649 294.58l-.53-1.82 6.12-1.3 1.03 1.21-6.62 1.91zM650.8 300.85l-.52-1.81 5.98-1.91.49 1.86-5.95 1.86zM652.02 305.073l6.62-1.911.525 1.816-6.62 1.91zM654.27 312.87l-.53-1.82 6.62-1.91-.15 1.38-5.94 2.35zM656.07 319.14l-.52-1.82 6.62-1.91.09 1.53-6.19 2.2zM657.293 323.354l6.62-1.91.524 1.815-6.62 1.911zM666.55 355.48l-.52-1.82 6.62-1.91-.08 1.37-6.02 2.36zM662.967 339.6l6.615-1.929.529 1.815-6.615 1.929zM663.877 347.955l6.62-1.911.524 1.816-6.62 1.91zM659.54 331.15l-.53-1.82 6.62-1.9.51 2.31-6.6 1.41zM661.35 337.42l-.53-1.82 6.62-1.9.34 1.18-6.43 2.54z"/><path fill="#87d3f5" d="M662.967 339.6l6.615-1.929.529 1.815-6.615 1.929zM677.266 360.132l1.469-.428 1.56 5.347-1.47.428zM683.38 366.41l-1.54-5.35 1.19.03 1.82 4.89-1.47.43zM669.66 362.96l-.42-1.47 5.14-1.06.64.99-5.36 1.54z"/></svg>