<svg xmlns="http://www.w3.org/2000/svg" viewBox="0 0 2000 600"><path opacity=".4" fill="#EA0091" d="M775.6 537.8l726.4-83.9-367.4-83.9"/><path opacity=".1" fill="#12ACEF" d="M1843.5 211.3l-18.4 59.8-696 150.1 263.5-260.7"/><path opacity=".29" fill="#FFF" d="M1746.8 448.7l139.3-73.6-18.1-71.5-155.9-169-610.7 300.3"/><path opacity=".2" fill="#FFF" d="M356.7 478.3l85.1-305.7 159-43.8 439.7 365.5"/><path opacity=".41" fill="#12ACEF" d="M1127.9 315.8l574-113.8 116.6 52.8v172.7"/><path opacity=".1" fill="#FFF" d="M468.3 492.3l656.8-291 559.1 281.9"/><path opacity=".14" fill="#12ACEF" d="M718 507.7l591.2-334.5 370.5 275.5"/><path opacity=".33" fill="#12ACEF" d="M968.5 365.9l626.7-199.2 158 231.5"/><path opacity=".4" fill="#12ACEF" d="M112 210.9l161.1-86.1 489.7 237.6-623.1-56.6"/><path opacity=".1" fill="#12ACEF" d="M809 185.8L141.8 461.1l1304.8 82.3"/><path opacity=".25" fill="#12ACEF" d="M145.8 207.7l52.4 109.5 861.6 97.5-389.6-219.4"/><path opacity=".25" fill="#12ACEF" d="M534.2 445.6l581.2-9.5-647.1-234.8"/><path opacity=".35" fill="#EA0091" d="M375.3 453.9l694.2 92L589 248"/><path opacity=".26" fill="#12ACEF" d="M254.3 478.4l489.3-174.7-601.8-42.1"/><path opacity=".25" fill="#EA0091" d="M72.5 534.4l105.2-273.8L1145.8 441"/><path opacity=".1" fill="#EA0091" d="M607.2 445.8l419.7-136.7 236.2 123.7-124.4 89.2-362.1 14.8L577.8 485l22.6-39.2"/><path opacity=".25" fill="#EA0091" d="M1931 462.9l-136.7-267.6-942.2 308.4"/><path opacity=".2" fill="#EA0091" d="M618.6 476.1l607.9-191.4 297.8 106.9-167.1 96.4-585.1 48.7-211-45.6"/><path opacity=".38" fill="#EA0091" d="M865 550.8l730.2-75.4-285.6-145"/><path opacity=".4" fill="#12ACEF" d="M654.9 534.1L895 289.9l685.4 189"/><path opacity=".35" fill="#12ACEF" d="M601.3 303.9l-219.6 129L910.1 593"/><path opacity=".23" fill="#12ACEF" d="M141.8 555.6l576.5 37.7-314.8-283.2"/><path opacity=".38" fill="#EA0091" d="M1027.9 579.1l717-44.7-439-144.8"/><path opacity=".2" fill="#12ACEF" d="M1868.2 507.7l-361-217.8-464.5 237.4"/><path opacity=".35" fill="#EA0091" d="M185 600.4l403.2-55-231.5-188.8"/><path opacity=".2" fill="#FFF" d="M1567.5 600.4l-150-70.7-209.8 70.7"/><path opacity=".2" fill="#EA0091" d="M991.9 600.4l-64.4-81.8-131-57-328.1 138.8"/><path opacity=".2" fill="#FFF" d="M694.2 600.4l-140.7-66-144.9 33.3-27.2 32.7"/><path opacity=".4" fill="#EA0091" d="M869.2 600.4l-339.9-220-72.3 57.9-78.1 162.1"/><path opacity=".2" fill="#EA0091" d="M1046.4 600.4L796.5 461.6l-239.8 58.1 408.6 80.7"/><path opacity=".6" fill="#EA0091" d="M1424 600.4l-170.8-139.3-271 139.3"/><path opacity=".38" fill="#EA0091" d="M1217.5 600.4l-217.3-145.2-212.6 145.2"/><path opacity=".2" fill="#EA0091" d="M1817 600.4l-69.5-147.7-128.2-46.1-321.1 193.8"/><path opacity=".29" fill="#EA0091" d="M1464.8 600.4l240.9-33.7L1518.5 386l-207.2 214.4"/></svg>