<svg xmlns="http://www.w3.org/2000/svg" width="400" height="800" viewBox="0 0 400 800"><title>left-picasso</title><path d="M408.68,30.71c-1.19,0-2.37,0-3.57,0-70.32,0-129.23,9.45-175.09,39.92-41,27.21-71.84,66.53-91.81,116.87-44.1,111.16-24.51,246.9-8.9,317.92,21.63,98.45,60.61,189.69,94.81,221.89l2.74-2.91h0l181.82-35.91Z" fill="#222229"/><path d="M347.2,107.23s-148.35,9.69-148.35,278c0,191.75,33,193.12,79.78,225.91" fill="none" stroke="#fc5b41" stroke-miterlimit="10" stroke-width="12"/><path d="M329.84,56.36s-196,28.11-196,281.57c0,191.75,67.21,339.18,114,372" fill="none" stroke="#fc5b41" stroke-miterlimit="10" stroke-width="12"/><path d="M338.53,79.5S167.16,104.71,167.16,361.84c0,191.74,47.18,270.39,94,303.19" fill="none" stroke="#fc5b41" stroke-miterlimit="10" stroke-width="12"/><path d="M329.84,56.36s34.63-8,81.44-8.16" fill="none" stroke="#487676" stroke-miterlimit="10" stroke-width="12"/><path d="M341.14,78s30.61-6.67,72.21-6.19" fill="none" stroke="#487676" stroke-miterlimit="10" stroke-width="12"/><path d="M351.08,105.1s26.24-5.69,62.27-5" fill="none" stroke="#487676" stroke-miterlimit="10" stroke-width="12"/><path d="M359,124.32s22.77-3.15,54.32-.09" fill="none" stroke="#487676" stroke-miterlimit="10" stroke-width="12"/><path d="M410.37,205.67,370,133.8c-190.71,0-159.34,183.67-159.34,183.67l16.17,406.89c45.31,33.2,72.17,59.78,141.13,66a228,228,0,0,0,42.38-.09Z" fill="#ebebeb"/><path d="M265.55,754.27,318.11,780C278.38,657,282.36,532.57,307.25,434.83c-4.14,1-71.38-34.23-72.85-34.41C233.72,400.35,265.55,754.27,265.55,754.27Z" fill="#222229"/><path d="M280.26,763.42c-2.38-7.8-19.78-65.66-14.39-182.31,1.38-29.66-37.76-70.49-12.82-86.61,41.1-26.56,5.07-84.24,5.48-85.46-18.26-16.14-25-44.41-32-67.55-2.65-8.78,4-14.67,11.05-15.33-16.44-105.89,52.11-176.27,54.27-178.55C189.27,190.32,211,317.47,211,317.47s-26.72-59.2-53.44-51.31S84,357.56,144.17,421c15,15.87,40.47,28.21,40.47,28.21l39.2,275.12S259.27,753,280.26,763.42Z" fill="#fc5b41"/><path d="M409.52,400.19c-8.12,14.55-29.41,23.7-66.7,27.64-71.92,7.61-97.51-47.71-106.5-71.23s70.54-36,107.19-36.65,56.71,25.59,56.71,25.59a129.47,129.47,0,0,1,9.3,19.77v-45.2c-32.38-13.71-110.32-44-191.18-11.07-96.83,39.46-9,66.43,12.45,95.48s70.54,45,123.1,38.72c23.52-2.78,42.17-10.92,55.63-22.16Z" fill="#222229"/><path d="M407.44,223.65,371,133.8c-190.71,0-159.34,183.67-159.34,183.67s-26.72-59.2-53.45-51.31S84.73,357.56,144.86,421c15,15.87,29.78,25.23,39.49,28.21l42.51,275.12h0c44,41.54,106.18,66,176.09,66" fill="none" stroke="#222229" stroke-linecap="round" stroke-linejoin="round" stroke-width="8"/><line x1="369.43" y1="525.81" x2="410.5" y2="513.79" fill="none" stroke="#222229" stroke-linecap="round" stroke-linejoin="round" stroke-width="8"/><ellipse cx="368.45" cy="494.5" rx="26.41" ry="8.59" transform="translate(-183.55 219.57) rotate(-26.83)" fill="#222229"/><path d="M405.08,659.08c-12.16,7.89-20.53,15.88-13,25.78,3.37,4.41,9,7.65,15.29,11" fill="none" stroke="#222229" stroke-linecap="round" stroke-linejoin="round" stroke-width="8"/><path d="M398.36,375.44s-49.09-96.85-132.49-2.69C265.87,372.75,337.16,470.26,398.36,375.44Z" fill="none" stroke="#222229" stroke-linecap="round" stroke-linejoin="round" stroke-width="8"/><path d="M283.94,373.17s53.58,69.88,97.44,1.93c0,0-37.68-69.4-97.44-1.93" fill="none" stroke="#222229" stroke-linecap="round" stroke-linejoin="round" stroke-width="8"/><circle cx="336.81" cy="374.24" r="27.07" fill="#222229"/><path d="M361.09,154.45s-33.65-87-37.86-98.51a14.21,14.21,0,0,1,5.28-17.32l44.32,110.44Z" fill="#ebebeb"/><path d="M350.6,606.22s18.57,7.77,48.7,0l5.79-1.49" fill="none" stroke="#222229" stroke-linecap="round" stroke-linejoin="round" stroke-width="8"/><path d="M413.46,653.92s-13.58,25.32,16.4,31.4,22.59,58.2.49,85.41c0,0,18.54-56.41-10.45-70.69S371.84,678.58,413.46,653.92Z" fill="#222229"/><path d="M414.61,226.89c-.56-24.29-1.32-48.57-2.12-72.85l-36.72-3.63L415,246.06Q414.83,236.47,414.61,226.89Z" fill="#222229"/><path d="M185.51,332.13c.15-5.61-6.86-8.29-9.92-13-2.14-3.29-2.22-7.5-3.64-11.16s-5.59-7-9-5.16c-2.86,1.55-3.17,5.54-2.63,8.75,1,6.05,3.72,11.9,3.33,18-.54,8.46-6.73,15.28-11.78,22.09s-9.34,15.82-5.71,23.47c3.16,6.66,10.92,9.43,17.13,13.41A40.9,40.9,0,0,1,179.54,409c4.3-1.9,3.75-8.24,1.69-12.47s-5-8.93-3.14-13.24,7.52-5.46,12.27-5.39,10,.52,13.68-2.53a8.94,8.94,0,0,0,1.32-11.85" fill="#222229"/></svg>