<svg xmlns="http://www.w3.org/2000/svg" width="400" height="800" viewBox="0 0 400 800"><path d="M405 17.74c-1 0-2 0-3-.06a1.66 1.66 0 00-.32 0H398a1.84 1.84 0 00-.33 0c-70.44.84-140.69 24.68-195.18 63-27.78 19.53-45.54 40.45-61 65.29-16.38 26.29-26.26 54-26.26 82.24 0 50.53 11.65 120.69 36.3 183.1l.3-.12c-2.44 5-5.21 10.14-8.34 15.29-11.6 19.08-12.85 43.32-3.33 64.85s28.39 37.78 52.87 46v169.11a2.11 2.11 0 00.94 1.75l150.44 72.43c.34.22 60.68.34 60.68.34z" fill="#f9f9f9"/><path d="M405 58.28V17.9c-131.53-1.27-248.65 71.73-280.58 159.31-25.21 71.73 4 169.73 26.47 232.59q2.07-3.23 3.94-6.57c-26.14 72-23.36 109.93 38.14 134.33v28.22c2.15 67.5-6.47 143.36 8.16 147.17 7.37 4.72 144.81 66.27 144.81 66.27l39.42.72s-185.24-110.51-126.81-197l9.8 15.66 21.76-2.89c9.3-75.64-80.69-85.37-96.58-135.1s24.37-102.84 7.29-140.48C122 146.56 263.09 57.37 405 58.28z" fill="#c9c9c9"/><path fill="none" stroke="#222229" stroke-linejoin="round" stroke-width="8" d="M405.34 779.22h-59.4l-150.43-72.43V535.75"/><path d="M167 299.24s20.11 60.45-21.36 128.64c-23.94 39.38-1.78 99 62.31 111.43s62.82 82.63 62.82 82.63" fill="none" stroke="#222229" stroke-linecap="round" stroke-linejoin="round" stroke-width="8"/><path d="M398.39 20.09h3.8c-146.89 0-284.48 93.33-284.48 208.44 0 46.72 10 116.23 36.15 182.34M370.67 632.23v-34.62a14.73 14.73 0 0114.69-14.69h0a14.74 14.74 0 0114.7 14.69v34.1zM400.06 632.23v-34.62a14.73 14.73 0 0114.69-14.69h0a14.73 14.73 0 0114.69 14.69v34.1zM370.67 632.23v-29.3a14.74 14.74 0 00-14.67-14.7h0a14.74 14.74 0 00-14.7 14.7v28.78zM341.28 630.66v-24.07a14.74 14.74 0 00-14.69-14.7h0a14.75 14.75 0 00-14.7 14.7v23.55zM311.89 625.87V608A10.92 10.92 0 00301 597.12h0A10.92 10.92 0 00290.11 608v17.46zM289.06 622.27v-15a9.16 9.16 0 00-9.13-9.13h0a9.16 9.16 0 00-9.14 9.13v14.64zM429.44 632.23v34.62a14.73 14.73 0 01-14.69 14.69h0a14.73 14.73 0 01-14.69-14.69v-34.1zM400.06 632.23v34.62a14.74 14.74 0 01-14.7 14.69h0a14.73 14.73 0 01-14.69-14.69v-34.1zM370.67 632.23v29.3a14.73 14.73 0 01-14.67 14.7h0a14.74 14.74 0 01-14.7-14.7v-28.78zM341.28 630.66v24.08a14.73 14.73 0 01-14.69 14.69h0a14.74 14.74 0 01-14.7-14.69v-23.56zM311.89 625.87v17.73A10.89 10.89 0 01301 654.42h0a10.89 10.89 0 01-10.89-10.82v-17.35zM289.06 622.27v15a9.16 9.16 0 01-9.13 9.13h0a9.16 9.16 0 01-9.14-9.13v-14.68z" fill="none" stroke="#222229" stroke-linejoin="round" stroke-width="8"/><path fill="none" stroke="#222229" stroke-linecap="round" stroke-linejoin="round" stroke-width="8" d="M290.11 578.77v24.4M311.89 578.77v24.4M341.28 572.32v30.85M370.67 572.32v30.85M400.06 564.67v38.5"/><path d="M353.41 356.22c-10.17-26.61-37.38-36-63.9-36.11s-59.51 7.05-69.18 35.53c-3.64 10.71-10.37 77.28 29.6 82.7 58 15.57 76.59-4.4 80.89-14.94 33.58.91 27.36-54.71 22.59-67.18z" fill="#222229"/><path d="M356.76 373.64c0 .14-5.64 29.65-33.46 39.23-10.83 3.72-7.46 17.31-45.44 16.59s-58.37-30.41-59.71-37.23c-.12-.6-.22-1.21-.33-1.82 1.55 21.35 9.07 44.79 32.1 47.91 58 15.57 76.59-4.4 80.9-14.94 24.57.67 27.83-28.92 25.94-49.74z" fill="#5e5e5e"/><path d="M382.59 400.93c-8.41-12.43-38.61 33.47-59.14 45.72s-47.3 11.62-40.16 23.09 28.59 2.29 36.27 16.32c23.05 70.63 21.87-14.08 29.87-35.76s41.57-36.94 33.16-49.37zm-92.26 63.69c-.09.13-.11.09 0-.06s.02.01 0 .06zm-.07.13l-.07.12c.02-.05 0 0 .07-.12zm.17-.31l-.06.11zm-.25.43c0 .05 0 0-.08.14a.64.64 0 00.08-.14z" fill="#c9c9c9"/><path d="M405 416.88a23.1 23.1 0 00-5.6-.73c-19.13 0-45.53 28.2-45.53 63 0 22 17.84 51.79 23.19 52.62 12.48 1.94 21.82-11.61 27.31-13.45a6.42 6.42 0 01.63-.15z" fill="#222229"/></svg>