<svg xmlns="http://www.w3.org/2000/svg" xmlns:xlink="http://www.w3.org/1999/xlink" width="400" height="800" viewBox="0 0 400 800"><defs><clipPath id="a"><rect width="14" height="8" fill="none"/></clipPath><clipPath id="b"><rect width="14.68" height="8.16" fill="none"/></clipPath><pattern id="c" width="14" height="8" patternTransform="translate(-14.7 -9.65)" patternUnits="userSpaceOnUse" viewBox="0 0 14 8"><rect width="14" height="8" fill="none"/><g clip-path="url(#a)"><ellipse rx="3" ry="2.85" fill="#b70433"/><ellipse cx="14" rx="3" ry="2.85" fill="#b70433"/><ellipse cx="14" cy="8" rx="3" ry="2.85" fill="#b70433"/><ellipse cy="8" rx="3" ry="2.85" fill="#b70433"/><ellipse cx="7" cy="4" rx="3" ry="2.85" fill="#b70433"/></g></pattern><pattern id="d" width="14.68" height="8.16" patternTransform="translate(-6.48 0.66) scale(0.99)" patternUnits="userSpaceOnUse" viewBox="0 0 14.68 8.16"><rect width="14.68" height="8.16" fill="none"/><g clip-path="url(#b)"><circle r="2.98" fill="#683c1d"/><circle cy="8.16" r="2.98" fill="#683c1d"/><circle cx="14.68" r="2.98" fill="#683c1d"/><circle cx="14.68" cy="8.16" r="2.98" fill="#683c1d"/><circle cx="7.33" cy="4.08" r="2.98" fill="#683c1d"/></g></pattern></defs><title>left-pop</title><path d="M406.55,36.87c-2.83,1.21-5.36,2.39-7.52,3.5-4.7-1.82-17.76-10.81-47.39-16.36-55.19-10.35-87-1.05-103.92,8.57-21.14,12-34.14,32.22-38.64,60.1-5.55,1.33-44,11.59-63.18,43-11.94,19.49-14.29,43.22-7,70.53-14.57,9-31.72,23.29-41.89,44.51-12.83,26.8-12,58.66,2.52,94.69a1,1,0,0,0,.35.44,458.19,458.19,0,0,0,.43,47.18c3.17,52,17.11,129,65.53,201.09a1,1,0,0,0,.83.44h0l239.88-6.49Z" fill="#f8ed0a"/><path d="M407.37,193.62c-17.07,16.86-38,31.87-61.52,35.68,0,0,48-44,21.12-59.15,0,0-26.3,44.17-86.33,59.15,0,0,17.44-18.93,10.26-26.82,0,0-96.57,17.08-122.82,133.63,1.7,17,4.76,33.55,2.9,48.43h-.92c-3.31,26.76-5.77,51.38-7.36,74.09l.19,9.24c-.2,3.25-.39,6.46-.55,9.64l.76-.12L165,564.21c.07,8.74.65,18.6,1.7,29.36,11.16,61.42,37.74,100.6,80.94,134.35,49.66,43,107.26,56.51,159.78,55.33Z" fill="#e4e9df"/><path d="M407.37,193.62c-17.07,16.86-38,31.87-61.52,35.68,0,0,48-44,21.12-59.15,0,0-26.3,44.17-86.33,59.15,0,0,17.44-18.93,10.26-26.82,0,0-96.57,17.08-122.82,133.63,1.7,17,4.76,33.55,2.9,48.43h-.92c-3.31,26.76-5.77,51.38-7.36,74.09l.19,9.24c-.2,3.25-.39,6.46-.55,9.64l.76-.12L165,564.21c.07,8.74.65,18.6,1.7,29.36,11.16,61.42,37.74,100.6,80.94,134.35,49.66,43,107.26,56.51,159.78,55.33Z" fill="url(#c)"/><path d="M406.85,588.56V523.92a22.8,22.8,0,0,1-5.69.29c-16.85-1.3-28.53,12.72-45.38,38.94-26.63,41.42,10.14,18.68,18.63,17.38C381.41,579.46,395.28,586.17,406.85,588.56Z" fill="#fff"/><path d="M406.85,699.3c-18.07,9.72-33,20.56-32.12,31.73.74,9.68,13.55,19.43,32.12,26.51Z" fill="#fff"/><path d="M216.54,327.14s-33.53,25.31-21,140.74c6.57,60.73-28.63-126-28.63-126l49.68-14.7" fill="#222229"/><path d="M292.05,522.56c-3.59-9-57.65-2-53,10.28s19.23,26.74,32,18.51S295.72,531.82,292.05,522.56Z" fill="#fff"/><path d="M406.85,392.4a12.74,12.74,0,0,1,1-5.08V363.57l-24.37,2.34L366.43,436.2s6.2,23.65,22.93,24.16a58.74,58.74,0,0,1,17.49,3.75Z" fill="#fff"/><path d="M340,340.71c-6.85-12.56-85.66-11.51-85.66-11.51s-13.48,28.25,6.41,30.21l-4.15,5.06s3.16,14.45,14.89,17.23,6.08,27-10.74,25.59c-31.26-2.62-58.91,22.86-58.53,48.55s2.27,32.76,18.28,32.9,109,3.77,114.36-109.62C334.85,379.12,355.57,369.29,340,340.71Z" fill="#fff"/><path d="M218.33,347.28c5.6-.28-11.43,62.07-16.81,60S212.74,347.56,218.33,347.28Z" fill="#fff"/><path d="M368.83,492.54c-5.68,5.68-7.64,12.92-4.39,16.18s10.51,1.3,16.19-4.38c.71-.71.52-4.43,1.11-5.17,4.14-5.24,6.12-8.17,3.27-11C381.75,484.9,374.51,486.86,368.83,492.54Z" fill="#222229"/><path d="M349,473.72s-21.39,28.7,8.27,46.9l-6.67,6.55S321.37,522.9,340,478.56C368.07,411.92,349,473.72,349,473.72Z" fill="#222229"/><path d="M405.23,781.94c-134.22,0-239.89-91.08-240.86-219.57l-3.83-179.6" fill="none" stroke="#222229" stroke-miterlimit="10" stroke-width="8"/><path d="M410.5,612.46s-9.8.08-24.38-3.16c-22.34-5-30.92.94-48,11.71S313,627.57,313,627.57" fill="none" stroke="#222229" stroke-linecap="round" stroke-miterlimit="10" stroke-width="8"/><polygon points="382.01 350.16 385.23 359.41 397.2 350.16 382.01 350.16" fill="#fff"/><path d="M140,210.57a4,4,0,0,1-3.83-2.93c-7.71-28.41-5.29-53.14,7.18-73.52,18.52-30.26,53.18-41.26,63.11-43.87,4.94-27.8,18.31-48.07,39.78-60.26,25.28-14.35,60.92-17.35,105.94-8.91C385.4,27.31,399.91,37.51,401,37.94a4,4,0,1,1-3,7.36c-1-.41-92.91-42.69-149.48-10.55C228.62,46.07,218,67.46,213.88,94.1a4,4,0,0,1-3.11,3.27c-.4.09-41.2,9.06-60.68,40.95-11.25,18.42-6.69,37,.42,63.22.57,2.11-7.34,8.32-9.46,8.89A3.77,3.77,0,0,1,140,210.57Z" fill="#222229"/><path d="M100.43,349a4,4,0,0,1-3.68-2.49C81.92,309.69,81.1,277,94.31,249.44c20.72-43.26,72.76-52.28,74.76-52.89s-50.4,16-69.56,56.1c-12.18,25.48-10.63,54.45,3.32,89.11.82,2,1.12,6.14-.92,7A3.83,3.83,0,0,1,100.43,349Z" fill="#222229"/><path d="M163.35,595.78c-48.79-72.64-62.83-150.25-66-202.57-3.46-56.68,4.49-95.63,4.83-97.26.45-2.15,5.3-5.15,4.85-3-.08.4-5.18,44.36-1.75,100,3.16,51.27,11.37,98.32,59.11,169.39C165.59,564.19,164.12,596.92,163.35,595.78Z" fill="#222229"/><path d="M406.84,34.58a179,179,0,0,0-22.9,11.12c-1.8,1.25-7.81,18.13-6,16.87a272.47,272.47,0,0,1,28.92-15.21Z" fill="#222229"/><path d="M406.84,183.43c-14.44,16.31-30.95,31.13-47.7,37.94,9.44-10.63,21.36-27,19.84-40.27-.69-6.1,9.61-46.89,9.61-46.89-7.81-2.74-47.83,71.17-97.39,87.87,4.5-7.08,8.15-16.21,2.63-22.27a4,4,0,0,0-3.62-1.23c-1,.18-26.12,4.79-54.49,24.69-26.11,18.32-59.93,53.62-72.75,117.79a4,4,0,0,0,3.11,4.67,4.11,4.11,0,0,0,.78.07,4,4,0,0,0,3.89-3.19c12.27-61.4,49.44-101,74.25-118.48,21.53-15.18,36.41-15.28,43.68-17.08.3,4.62-1.83,16.63-7.07,22.33-1.19,1.29-1.7,4.2,0,3.77,51.55-12.87,78.63-46.28,86.42-57.38A9.74,9.74,0,0,1,371.1,182c1.59,13.95-19.62,36.77-27.93,44.39a4,4,0,0,0,3.32,6.84c21-3.42,42.17-18.28,60.35-35.44Z" fill="#222229"/><path d="M308.31,199.52S377.48,159,370.8,129Z" fill="#222229"/><path d="M201.38,256.42S155,312.49,123.59,322.61c-.93,3.44,56-7.38,69.28-43.19Z" fill="#222229"/><path d="M169.1,331.56s-25,68.33-51.28,88.34c.27,3.55,50.36-25.64,50.92-63.82S169.1,331.56,169.1,331.56Z" fill="#222229"/><path d="M145.31,455.84s.25,68.37,22.38,83.21l0,37.1S146,554.83,141.59,538.52,139,470.15,145.31,455.84Z" fill="#222229"/><path d="M370.8,50.28S291.69.4,223.94,88.88C223.94,88.88,286.68,36.27,370.8,50.28Z" fill="#222229"/><path d="M156.09,228.1s72.61-5.75,91.1-29.53S312.93,173,312.93,173s-39.71-15.24-70,12.08C217.25,208.24,156.09,228.1,156.09,228.1Z" fill="#222229"/><path d="M386.35,513.29v5c27.08,25.24,40.4-5,40.4-5C408.92,529.8,386.35,513.29,386.35,513.29Z" fill="#222229"/><path d="M328.53,358.31l-35-16.9-49.89,28.93s12.48,21.33,38,19.77,50-15.27,50-15.27l6-8.31Z" fill="#fff"/><circle cx="290.9" cy="364.47" r="19.43" fill="url(#d)"/><circle cx="290.9" cy="364.47" r="19.43" fill="none" stroke="#222229" stroke-miterlimit="10" stroke-width="5"/><circle cx="290.9" cy="361.37" r="10.26" fill="#222229"/><path d="M329.17,374.88c-.39.09-4.34,1.07-23.73,10-12.78,5.89-26.81,3.77-36.65.78l-19.71-8.8c-.24-.16-.58,0-.92.24-3.18.83-13.41,3.55-13.64,4.51-.27,1.12,5.57.51,5.57.51l1.52,4.93,9.09-4.58c.89.48,1.92,1,3.08,1.59l-6.44,3.83,10.22-2.08.51.22-4.25,4.75,7.62-3.38c1.25.49,2.57,1,3.94,1.42l-3,2.84,6.84-1.67c.81.23,1.61.44,2.41.63l-2.5,2.55,6-1.76a61.07,61.07,0,0,0,16.74,1.07,45.3,45.3,0,0,0,15.26-3.93c18.74-8.63,22.7-9.67,22.91-9.72a2,2,0,0,0-.87-3.95Z" fill="#222229"/><path d="M293.92,338.87c-19.79.21-62.64,27.79-59.41,28.1,0,0,3.24,13.38,21.07-.18s22-16.08,22-16.08,25.4-8,57.75,16.54c2.88,2.18,2.36-1.08,3.62-.31C340.41,366.82,313.7,338.66,293.92,338.87Z" fill="#222229"/><path d="M328.94,375.91s8.3-5.06,5.64-10.63,3.06,1.25,3.06,1.25-3,11.29-6.71,11S328.94,375.91,328.94,375.91Z" fill="#222229"/><rect x="295.73" y="350.35" width="3.27" height="11.25" transform="translate(338.81 -106.01) rotate(45)" fill="#fff"/><path d="M355.64,279.31S407,329.87,371.49,394.4C371.49,394.4,384.24,349.33,355.64,279.31Z" fill="#222229"/><path d="M407.85,337.86c-.79,0-1.57.06-2.37.07-18,.22-35.17-9-41.6-12.95-.84-.57-1.71-1.12-2.61-1.67l0,0h0a73.83,73.83,0,0,0-14.72-6.66c-27.7-9.24-78.62-7.65-99.22-6.53-19.74,1.06-52.81,4-70.52,9.05h0l-33.36,7.17c-2,.42-3.47,1.56-3.47,3.47l1.7,13.42s78.14-11.79,107.2-13.33c40.34-2.15,103.91,11,107.84,14.49,6.08.66,29,2.55,51.19,4.3Z" fill="#fff"/><path d="M166.86,341.84s-26.79-11.86-26.53-7.49c.48,8.14-.74,20.12-.16,23.91s12-1.67,13,9.27C153.72,373.48,166.86,341.84,166.86,341.84Z" fill="#fff"/><path d="M309.54,481.79,308.31,478c20-6.5,42-43.42,52.37-87.77l.13-.54c4.23-18.1,5.29-40.15-24.38-50l1.26-3.76c33.07,11,31.24,36.5,27,54.7l-.12.54C353.73,437.5,331.11,474.78,309.54,481.79Z" fill="#fff"/><path d="M211.9,487.47c-17.71-10.78-35.75-57.54-39.39-102.11-1.61-19.78,2.54-35,12.36-45.24,13-13.55,30.91-13,31.67-13l-.35,8.92.18-4.46-.16,4.46c-.16,0-14.83-.35-25,10.31-7.92,8.31-11.22,21.19-9.83,38.26C185,429.1,203,471.57,216.54,479.85Z" fill="#fff"/><path d="M407.85,342.82c-.79,0-1.57.06-2.37.07-18,.22-35.17-9-41.6-12.95-.84-.57-1.71-1.13-2.61-1.67l0,0h0a73.83,73.83,0,0,0-14.72-6.66c-27.7-9.24-78.62-7.65-99.22-6.53-19.74,1.06-52.81,4-70.52,9.05h0l-33.36,7.17c-2,.42-3.47,1.56-3.47,3.47v14.87a3.48,3.48,0,0,0,3.47,3.47s10-.55,10,18.77a16.7,16.7,0,0,0,.12,2.15c1.51,39.24,17.29,93.16,33.87,109.75,12.32,12.31,44.54,18.32,76.51,18.32,20.53,0,41-2.48,56-7.35,18.54-6,34.35-22.83,47-49.93a248.13,248.13,0,0,0,16.14-48l.13-.53c.64-2.76,1.48-6.38,2.14-10.56h0s4.53-18.17,20.28-18.17a18.23,18.23,0,0,1,2.37.17Zm-44.12,48.9-.12.54c-10.65,45.65-29.32,76.89-49.94,83.6-16.22,5.27-41.29,7.52-65.42,5.86-25.88-1.78-42.2-7.31-46.89-12-14.12-14.12-31.1-77.52-24.18-111.4,4-19.58,33.42-21.46,71.64-23.5,40.34-2.14,74.51-.06,91.41,5.57C370.62,350.52,368.3,372.2,363.73,391.72Z" fill="#222229"/><path d="M180.41,570a2.47,2.47,0,0,1-2.46-2.22l-7-67.12a2.48,2.48,0,1,1,4.93-.51l4.62,57.65c.14,1.37,1.51,12.05.15,12.19Z" fill="#222229"/><path d="M190.32,597c-1.26,0-4-35.17-4.11-36.45l-6.58-50.08a2.48,2.48,0,1,1,4.93-.48l8.24,84.29C192.93,595.68,191.72,603.49,190.32,597Z" fill="#222229"/><path d="M205.54,622.18c-1.24,0-3.08-15.19-3.23-16.45l-9.1-69.81c-.16-1.36-.18-2.59,1.18-2.75a2.47,2.47,0,0,1,2.75,2.17l9.94,84.11C207.24,620.81,205.64,622.18,205.54,622.18Z" fill="#222229"/></svg>