<svg xmlns="http://www.w3.org/2000/svg" width="400" height="800" viewBox="0 0 400 800"><defs><clipPath id="a"><path d="M174.05 506.83c17 0 28.59-5.85 29.39-6.26l-10.18-19.51h.09c-.92.46-22.8 11-49.32-5-25.4-15.4-46.61-49.27-63-100.65-22.42-70.15-34.94-170.94-37.22-299.65l-22 .39c2.33 131.4 15.29 234.61 38.52 306.76 18.21 56.55 42.77 94.34 73 112.3 15.02 8.93 29.14 11.62 40.72 11.62z" fill="none"/></clipPath></defs><path d="M123.65 82.55c-45.2 609.19 63.17 460.92 63.17 460.92M169.07 519S10.61 682.86 10.61 82.55M91.89 85.23s-53.22 391 72.56 331.48" fill="none" stroke="#222229" stroke-miterlimit="10" stroke-width="8"/><g clip-path="url(#a)"><path d="M174.05 506.83c17 0 28.59-5.85 29.39-6.26l-10.18-19.51h.09c-.92.46-22.8 11-49.32-5-25.4-15.4-46.61-49.27-63-100.65-22.42-70.15-34.94-170.94-37.22-299.65l-22 .39c2.33 131.4 15.29 234.61 38.52 306.76 18.21 56.55 42.77 94.34 73 112.3 15.02 8.93 29.14 11.62 40.72 11.62z" fill="#222229"/><path fill="#fff" d="M76.384 453.715l45.238-17.347 1.074 2.801-45.238 17.347zM89.906 476.428l43.054-22.221 1.375 2.666-43.053 22.221zM112.79 498.176l37.509-30.668 1.899 2.322-37.509 30.668zM141.468 514.083l24.91-41.556 2.573 1.543-24.91 41.556zM46.754 381.43l48.142-5.46.338 2.98-48.142 5.46zM7.498 98.34l.006-3 48.45.093-.006 3zM7.458 120.222l.006-3 48.45.093-.006 3zM7.418 142.104l.005-3 48.45.093-.005 3zM7.388 163.976l.005-3 48.45.093-.006 3zM7.347 185.858l.006-3 48.45.093-.006 3zM7.307 207.74l.006-3 48.45.093-.006 3zM12.848 229.632l.006-3 48.45.093-.006 3zM21.835 251.524l.006-3 48.45.093-.006 3zM23.31 271.676l48.387-2.46.152 2.996-48.387 2.46zM26.604 294.113l48.349-3.135.194 2.994-48.349 3.135zM35.42 316.219l48.45-2.907.18 3-48.45 2.907zM38.249 337.21l48.348-3.135.194 2.994-48.348 3.135zM44.28 359.686l48.142-5.46.338 2.981-48.142 5.46zM57.236 405.51l47.711-8.43.522 2.954-47.71 8.43zM64.89 430.013l46.556-13.411.83 2.883-46.556 13.411z"/></g><path d="M407.12 34.84q-4.12-.08-8.35-.08c-210 0-240.22 148.11-244.24 240.81-4.52 28.59 3.28 283.18 4.34 294 11.26 61.93 38.06 101.44 81.63 135.47C292.32 749.9 352.7 763 407.12 760.7z" fill="#bf9f17"/><path d="M209.19 300.94S175.37 326.46 188 442.86c6.62 61.24-28.87-127.1-28.87-127.1l50.1-14.82" fill="#222229"/><path d="M407.12 103.49c-2.75-.76-5.53-1.41-8.35-1.92 0 0-88.16-7.84-139.81 53.26s-72 121.27-10.8 138c52.79 14.45 96.08 12.09 107 11.17-4.31-7.87-19.62-33-41.23-36.51-25.69-4.22-23.17-27 13.58-16.89s60.2 35.82 56 72.58c-1.9 16.64 10 16.8 23.66 12zM407.12 565.36v-67.79a25.16 25.16 0 01-11.76 2.09c-17-1.31-28.78 12.83-45.77 39.26-26.85 41.77 10.23 18.84 18.79 17.54 8.34-1.28 26.3 8.38 38.74 8.9zM407.12 673.08c-20.81 10.57-39.38 22.65-38.42 35.14.83 10.77 16.49 21.64 38.42 28.86zM285.33 498c-3.62-9.13-58.13-2.07-53.47 10.37s19.4 27 32.25 18.66S289 507.33 285.33 498z" fill="#fff" opacity=".5"/><path d="M407.12 333.56L377.53 340l-17.2 70.87s6.25 23.85 23.13 24.37c6.79.21 15.75 2.53 23.66 6.31zM333.67 314.62C326.77 302 247.29 303 247.29 303s-13.59 28.48 6.47 30.46l-4.19 5.1s3.19 14.57 15 17.38 1.95 8.88-15 7.47c-31.52-2.64-61.18 15.39-60.81 41.29s8.26 59 24.41 59.17 109.89 3.8 115.32-110.53c0 .02 20.89-9.89 5.18-38.72z" fill="#fff" opacity=".5"/><path d="M211 321.25c5.65-.28-11.53 62.58-17 60.47s11.35-60.19 17-60.47z" fill="#fff" opacity=".5"/><circle cx="284.17" cy="338.58" r="19.59" fill="#f22f7e"/><circle cx="284.17" cy="335.45" r="10.34" fill="#222229"/><path d="M335.09 355.23H335l-22.43-.5s13.15-8 5.18-16.22c-4.11-4.23-11.11-10.89-23-12.64-25.58-3.76-49.21 16.48-49.45 16.69 0 0 21.86-29.35 51.48-25 16.87 2.49 30.58 12.43 42.16 30.76a4.5 4.5 0 01-3.8 6.9z" fill="#222229"/><ellipse cx="368.7" cy="473.67" rx="14.66" ry="8.41" transform="rotate(-45 368.704 473.678)" fill="#222229"/><path d="M407.86 483.44a10.36 10.36 0 01-6.24 1.95c-5.42 0-9.95-3.5-10.62-10.63-.81-8.42-10.74-12.14-14.48-12.84l-5.29 20.56c8.1-4.23 19.13 6.85 30.39 6.85a21.21 21.21 0 006.24-1.05zM342.75 448.74s-24.88 36 8.34 47.3-45.65 24.78-17.37-42.42 9.03-4.88 9.03-4.88z" fill="#222229"/><circle cx="293.44" cy="335.45" r="4.58" fill="#fff"/><path d="M404.77 588.65s-9.87.09-24.58-3.18c-22.52-5-31.18.94-48.38 11.81s-25.32 6.61-25.32 6.61-53.71-12.62-96-31.34M400 34.76v724.8" fill="none" stroke="#9b800e" stroke-miterlimit="10" stroke-width="8"/><path d="M154.13 464.43s49.21 32.77 54.57 90.62 18.77 141.48 52.41 167.11M209.19 113.66S263 246.36 292.42 247.8s106.32 0 106.32 0M412.12 248c-7.46-.11-12.12-.2-12.12-.2" fill="none" stroke="#9b800e" stroke-miterlimit="10" stroke-width="8"/><path d="M152.71 314.34c-1-129.57 45.42-279.58 246.06-279.58q8.25 0 16.13.3M414.92 759.14c-5.12.27-10.27.42-15.46.42-135.35 0-241.9-91.84-242.88-221.41L152.71 357" fill="none" stroke="#222229" stroke-miterlimit="10" stroke-width="8"/><path d="M404.19 311.63c-1.46.1-2.95.17-4.48.19-18.17.22-35.47-9.12-41.94-13.06q-1.27-.86-2.64-1.68h-.05a74.2 74.2 0 00-14.84-6.72c-27.94-9.36-79.24-7.74-100.05-6.62-19.91 1.08-53.26 4.07-71.12 9.14l-33.65 7.23c-2 .43-3.5 1.58-3.5 3.5l1.72 13.53s78.79-11.88 108.1-13.44c40.67-2.17 104.78 11.08 108.74 14.61 6.33.69 30.76 2.69 53.71 4.5z" fill="#fff"/><path d="M159.09 315.76s-27-12-26.75-7.56c.49 8.21-.75 20.3-.16 24.12s12-1.68 13.09 9.35c.57 5.99 13.82-25.91 13.82-25.91zM303 454.88l-1.24-3.8c20.17-6.55 42.38-41.77 52.81-86.5l.13-.55c4.27-18.25 5.33-40.48-24.58-50.45l1.26-3.8c33.35 11.12 31.51 36.81 27.21 55.16l-.12.55c-10.94 46.74-33.75 82.32-55.47 89.39zM204.51 460.61c-17.86-10.87-36-56-39.72-101-1.63-19.95 2.56-35.3 12.46-45.63 13.08-13.65 31.17-13.11 31.94-13.08l-.36 9 .18-4.5-.16 4.5c-.15 0-14.95-.36-25.18 10.39-8 8.38-11.31 21.37-9.91 38.59 3.66 44.83 21.72 85.66 35.43 94z" fill="#fff"/><path d="M404.19 316.63c-1.46.1-2.95.17-4.48.19-18.17.22-35.47-9.12-41.94-13.06q-1.27-.86-2.64-1.68h-.05a74.2 74.2 0 00-14.84-6.72c-27.94-9.36-79.24-7.74-100.05-6.62-19.91 1.08-53.26 4.07-71.12 9.14l-33.65 7.23c-2 .43-3.5 1.58-3.5 3.5v15a3.5 3.5 0 003.5 3.5s10-.55 10 18.94a17.26 17.26 0 00.12 2.17c1.52 39.56 17.43 91.93 34.16 108.66 12.42 12.42 44.9 18.48 77.14 18.48 20.71 0 41.32-2.5 56.44-7.42 18.69-6.07 34.63-23 47.37-50.34A250.37 250.37 0 00377 369.15l.13-.53c.65-2.78 1.5-4.44 2.17-8.65s4.57-18.32 20.45-18.32a17.22 17.22 0 014.48.58zm-46.58 49.43l-.12.55c-10.74 46-29.56 75.54-50.35 82.29-16.36 5.32-41.64 7.59-66 5.92-26.1-1.79-42.56-7.37-47.29-12.1-14.24-14.24-31.36-76.17-24.38-110.34 4-19.75 33.7-21.64 72.24-23.69 40.67-2.17 75.13-.07 92.18 5.61 30.67 10.22 28.33 32.08 23.72 51.76z" fill="#222229"/></svg>