<svg xmlns="http://www.w3.org/2000/svg" width="400" height="800" viewBox="0 0 400 800"><title>left-pizza</title><path d="M405.51,22.35c-1.83,0-3.67,0-5.51,0-209,0-378.52,169.47-378.52,378.52S191,779.35,400,779.35c1.84,0,3.68,0,5.51-.05Z" fill="#b28c3f"/><path d="M405.51,759.28c-1.83,0-3.67.07-5.51.07A358.62,358.62,0,0,1,260.46,70.48,356.19,356.19,0,0,1,400,42.31c1.84,0,3.68,0,5.51.07v-20c-1.83,0-3.67-.05-5.51-.05-209,0-378.52,169.47-378.52,378.52S191,779.35,400,779.35c1.84,0,3.68,0,5.51-.05Z" fill="#997330"/><path d="M408.67,779.25c-2.88.06-5.77.1-8.67.1-209,0-378.52-169.47-378.52-378.52S191,22.31,400,22.31q4.14,0,8.26.09" fill="none" stroke="#222229" stroke-miterlimit="10" stroke-width="8"/><path d="M405.51,87.39c-8.24,1.11-16.46,2.35-24.66,3.6-36.86,5.6-73.79,11.21-109.94,20.1-32.9,8.08-66.71,19.9-88.77,44.66-10.29,11.54-17.44,25.3-26.15,38-16.51,24-38.5,44.06-57.22,66.55S64.16,309.2,63.34,338C62,384.51,99.65,424.35,106,470.53c4.94,36.12-9.57,74.34,3.5,108.55,6.12,16,17.74,29.41,29.18,42.45,27.17,31,55.6,62.69,93.44,80.63,20.7,9.81,43.37,15.07,65.82,20.25,35.43,8.17,73.58,16.18,107.59,4.34Z" fill="#ea2d2d"/><path d="M405.51,93.53a65.46,65.46,0,0,1-9.12,0c-9.72-.9-52.63-9-80.68,6-26.18,14.07-45,39.5-72.69,50.57-28.27,11.3-63.86,6.84-86.86,26.3-22.79,19.29-23.32,53.42-33.86,81.27-7.43,19.63-20.32,36.85-26.89,56.8-8.31,25.23-5.93,52.81-5.87,79.62.12,47.92-6.21,100.19,22,140.33,25.83,36.69,74.23,67,100.19,103.62,8.74,12.34,14.52,26.48,23.59,38.6C257,705.48,293.72,704.75,328,716.34c21,7.09,42.14,14.23,64,16.65,4.52.5,9,.79,13.52.9Z" fill="#ffd56c"/><path d="M307.51,503s-34.7,8.33-67-38.59" fill="none" stroke="#369e23" stroke-miterlimit="10" stroke-width="7"/><path d="M232.7,357.73s29.21,26.7,71.41,12.91-12.73-34.7-12.73-34.7S252.59,335.77,232.7,357.73Z" fill="#fff"/><path d="M405.76,347.9,373,355.05l-18.24,75.2s6.63,25.3,24.54,25.85c7.59.24,17.72,3,26.42,7.36Z" fill="#fff" opacity="0.4"/><circle cx="273.99" cy="353.51" r="20.78" fill="#4c3b38"/><circle cx="273.99" cy="350.19" r="10.97" fill="#222229"/><path d="M328,371.18h-.11l-23.79-.53s13.94-8.52,5.48-17.21C305.23,349,297.8,341.88,285.16,340,258,336,233,357.51,232.7,357.73c0,0,23.19-31.14,54.61-26.51,17.91,2.64,32.46,13.18,44.74,32.63a4.78,4.78,0,0,1-4,7.33Z" fill="#c19234"/><path d="M405.76,506.78a10.9,10.9,0,0,1-7.16,2.49c-5.75,0-10.55-3.72-11.27-11.28-.85-8.93-11.39-12.88-15.36-13.62h0c-4-1-9.8,1.35-14.6,6.15-6.07,6.07-8.17,13.83-4.69,17.31,2.82,2.82,8.44,2,13.69-1.65h0c8.6-4.5,20.29,7.26,32.24,7.26a23.3,23.3,0,0,0,7.16-1.28Z" fill="#c19234"/><path d="M345,520.57c-35.24-12-8.85-50.18-8.85-50.18s20.42-66.11-9.58,5.18S380.22,532.57,345,520.57Z" fill="#c19234"/><circle cx="283.83" cy="350.19" r="4.86" fill="#fff"/><circle cx="294.78" cy="204.87" r="48.48" fill="#aa1b1b"/><circle cx="159.82" cy="400.83" r="48.48" fill="#aa1b1b"/><circle cx="327.77" cy="610.95" r="48.48" fill="#aa1b1b"/><path d="M404.22,338.66c-2.45.26-5,.43-7.64.46-19.29.23-37.63-9.67-44.5-13.86-.91-.6-1.84-1.2-2.81-1.78l0,0h0a78.93,78.93,0,0,0-15.74-7.14c-29.64-9.88-84.12-8.17-106.16-7-21.12,1.14-56.5,4.32-75.44,9.69h0l-35.7,7.67c-2.11.45-3.71,1.67-3.71,3.71l1.82,14.35s83.6-12.6,114.69-14.26c43.16-2.3,111.17,11.76,115.38,15.5,7,.77,34.72,3,59.87,5Z" fill="#fff" opacity="0.8"/><g opacity="0.8"><path d="M141.28,343.3s-28.66-12.69-28.38-8c.52,8.71-.79,21.53-.17,25.58s12.78-1.78,13.89,9.92C127.22,377.15,141.28,343.3,141.28,343.3Z" fill="#fff"/><path d="M293.93,476.53l-1.31-4c21.4-6.95,45-29.94,56-77.4l.14-.58c4.53-19.36,5.65-42.95-26.08-53.53l1.34-4c35.39,11.79,33.42,39.05,28.87,58.52l-.14.58C341.21,445.65,317,469,293.93,476.53Z" fill="#fff"/><path d="M189.47,482.61c-18.95-11.54-38.24-45.07-42.14-92.75-1.73-21.16,2.72-37.45,13.22-48.41,13.88-14.48,33.07-13.91,33.88-13.87l-.37,9.54.19-4.77-.17,4.77c-.16,0-15.87-.38-26.71,11-8.47,8.9-12,22.68-10.52,40.94,3.88,47.58,23.05,76.52,37.59,85.37Z" fill="#fff"/></g><path d="M404.22,344c-2.45.27-5,.43-7.64.46-19.29.24-37.63-9.67-44.5-13.85-.91-.61-1.84-1.21-2.81-1.79l0,0h0a78.37,78.37,0,0,0-15.74-7.13c-29.64-9.88-84.12-8.18-106.16-7-21.12,1.14-56.5,4.32-75.44,9.69h0L116.17,332c-2.11.45-3.71,1.67-3.71,3.71v15.91a3.72,3.72,0,0,0,3.71,3.71s10.65-.59,10.65,20.09a19.09,19.09,0,0,0,.13,2.3c1.61,42,18.49,83.17,36.24,100.91,13.17,13.18,47.64,19.61,81.85,19.61,22,0,43.83-2.65,59.88-7.87,19.83-6.44,36.74-24.42,50.25-53.41,4.83-10.36,11.75-11.19,17.27-34.88l.14-.57c.69-2.95,1.59-6.82,2.29-11.3h0s4.85-19.43,21.7-19.43a17.78,17.78,0,0,1,7.64,1.67Zm-52.31,52.71-.13.58c-11.39,48.83-31.36,65.76-53.42,72.93-17.36,5.64-44.18,8.05-70,6.28-27.7-1.9-45.16-7.82-50.18-12.84-15.1-15.11-33.27-66.44-25.86-102.68,4.28-21,35.75-23,76.64-25.15,43.16-2.29,79.72-.07,97.8,6C359.29,352.59,356.8,375.78,351.91,396.67Z" fill="#934e1b"/><path d="M172.29,456.12q-12.34.13-24.69.35c.53,1,1.07,2,1.62,3q12.57-.21,25.15-.34C173.67,458.16,173,457.18,172.29,456.12Z" fill="#442109"/><path d="M343.4,458.14q-11.08-.37-22.16-.7-1.77,1.55-3.59,2.91,11.87.33,23.74.73Q342.4,459.64,343.4,458.14Z" fill="#442109"/><path d="M182.13,466.4q-14.2.17-28.4.41c.67,1,1.36,2,2.05,3q16.53-.28,33.05-.43A47.6,47.6,0,0,1,182.13,466.4Z" fill="#442109"/><path d="M333.81,470.59c.85-.95,1.69-1.93,2.53-2.94q-14.88-.39-29.76-.69a73.06,73.06,0,0,1-7.18,2.87l8.35.14Q320.78,470.24,333.81,470.59Z" fill="#442109"/><path d="M284,473.73c-5,.93-10.29,1.66-15.86,2.2,5.48.17,10.95.44,16.41.85h.14a15.14,15.14,0,0,1,2.18.18l.16,0H287c.3,0,.59.1.88.16a1.81,1.81,0,0,0-.35-.13q5.19.44,10.37,1.06A216.64,216.64,0,0,1,321,482.14q1.56-1.11,3.09-2.34A240.9,240.9,0,0,0,284,473.73Z" fill="#442109"/><path d="M203.8,473.33l-15.56.26-29.14.5c.85,1,1.71,2,2.57,3l61.1-1A186.79,186.79,0,0,1,203.8,473.33Z" fill="#442109"/><path d="M305.1,490.3a56.34,56.34,0,0,0,6.65-2.68q-24-1.22-47.91-2.13-33.12-1.28-66.27-2-14.38-.3-28.78-.48a50.17,50.17,0,0,0,5.51,3.07q26.1.39,52.17,1.12,33.14.94,66.25,2.46C296.85,489.89,301,490.1,305.1,490.3Z" fill="#442109"/><path d="M273.92,491.81c-6.72-.61-13.51-.68-20.25-.88q-21.43-.63-42.87-.6-12.21,0-24.42.24a1.5,1.5,0,0,0-.44.07c3.31,1,6.84,2,10.53,2.78q16.14-.18,32.28,0c13.74.16,27.52.35,41.24,1.11a71.69,71.69,0,0,1,10.63,1.25c2.35-.34,4.64-.72,6.89-1.14A52.2,52.2,0,0,0,273.92,491.81Z" fill="#442109"/><path d="M161.09,433.16c-.37-1-.73-2-1.09-3q-11.59.3-23.18.83c.33,1,.67,2,1,3Q149.46,433.46,161.09,433.16Z" fill="#442109"/><path d="M357.12,433.37c.67-1.07,1.37-2.06,2.09-3q-9.27.15-18.55.2c-.48,1-1,2-1.47,3q7.15,0,14.32-.11Z" fill="#442109"/><path d="M352.83,441.79q-9.69.93-19.39,1.61c-.76,1.14-1.53,2.23-2.31,3.28q10-.69,20-1.65C351.72,444,352.28,442.89,352.83,441.79Z" fill="#442109"/><path d="M166.39,445.57q-11.94.07-23.86.35c.44,1,.88,2,1.33,3q12-.27,24-.33C167.39,447.59,166.89,446.59,166.39,445.57Z" fill="#442109"/><path d="M354.63,438.08H336.74q-.89,1.55-1.8,3h18.24C353.67,440.1,354.15,439.1,354.63,438.08Z" fill="#442109"/><path d="M162.64,437.15q-8.71,0-17.43.05l-6.19.06c.37,1,.76,2,1.15,3q11.87-.09,23.73-.08C163.48,439.18,163.06,438.17,162.64,437.15Z" fill="#442109"/><path d="M348.44,450H328.52c-.88,1-1.76,2-2.66,3h20.81C347.27,452,347.86,451,348.44,450Z" fill="#442109"/><circle cx="386.23" cy="242.68" r="2.68" fill="#222229"/><circle cx="191.76" cy="253.35" r="2.68" fill="#222229"/><circle cx="261.8" cy="541.1" r="2.68" fill="#222229"/><circle cx="170.7" cy="538.42" r="2.68" fill="#222229"/><circle cx="276.37" cy="408.1" r="2.68" fill="#222229"/><path d="M372.73,131.1s34,10.77,37.52,67.65" fill="none" stroke="#369e23" stroke-miterlimit="10" stroke-width="7"/><path d="M103.76,454.27s34,10.77,37.52,67.65" fill="none" stroke="#369e23" stroke-miterlimit="10" stroke-width="7"/><path d="M288.09,236.37s-12.78,33.31-69.76,33.41" fill="none" stroke="#369e23" stroke-miterlimit="10" stroke-width="7"/><circle cx="408.37" cy="679.77" r="13.04" fill="none" stroke="#222229" stroke-miterlimit="10" stroke-width="10"/><circle cx="179.06" cy="210.29" r="13.04" fill="none" stroke="#222229" stroke-miterlimit="10" stroke-width="10"/><circle cx="229.06" cy="590.42" r="13.04" fill="none" stroke="#222229" stroke-miterlimit="10" stroke-width="10"/><circle cx="320.05" cy="290.43" r="2.68" fill="#222229"/><circle cx="337.15" cy="121.2" r="2.68" fill="#222229"/><circle cx="380.28" cy="554" r="2.68" fill="#222229"/><circle cx="352.83" cy="688.33" r="2.68" fill="#222229"/></svg>