<svg xmlns="http://www.w3.org/2000/svg" width="400" height="800" viewBox="0 0 400 800"><path d="M415.06 31.07q-4-.16-8.18-.24c-2.68 0-5.39-.07-8.11-.07-76 0-136 21.51-178.1 64-55.35 55.77-70.11 137.88-71.8 202.49l-13.45 2.89c-2 .43-3.5 1.58-3.5 3.5l.43 3.42a3 3 0 00-.43 1.58v15a3.41 3.41 0 00.2 1.11 51.53 51.53 0 00.06 7.62c.58 3.8 11.93-1.63 13.07 9.2.13 1.37.21 2.86.21 4.51a17.26 17.26 0 00.12 2.17 224.1 224.1 0 003.61 31.24l3.39 158.74c.48 63.2 26.18 120.82 72.38 162.24 45.42 40.71 107.39 63.14 174.5 63.14 5.22 0 10.49-.15 15.67-.43z" fill="#26cbff"/></svg>