<svg xmlns="http://www.w3.org/2000/svg" width="400" height="800" viewBox="0 0 400 800"><title>left-helmet-mask</title><path d="M405.18,23.34c-1.72,0-3.45,0-5.18,0-65.72,0-121.59,11.91-166.07,35.39-39.69,21-71.54,51.82-94.66,91.7-20,34.43-33.68,75.26-42,124.81-4.68,28-7.56,58.07-8.81,92.69H79.6a23.34,23.34,0,0,0-23.32,23.31V523.44A23.34,23.34,0,0,0,79.6,546.75h24.3a23.77,23.77,0,0,0,3.51-.26c15.39,51.11,39.53,98,71.51,137.76,28.65,35.64,62,63.63,99.23,83.19C316.74,787.74,357.73,798,400,798c1.73,0,3.45,0,5.18-.06Z" fill="#26cbff"/></svg>