<svg xmlns="http://www.w3.org/2000/svg" width="400" height="800" viewBox="0 0 400 800"><title>left-blue</title><path d="M136.75,254.69s-81.74-53-83.24,54.47c0,0-125.42,120.46,9,247.11,0,0-37.52,130.43,124.78,119.47S136.75,254.69,136.75,254.69Z" fill="#222229"/><path d="M411.15,19.22q-5.11-.11-10.33-.11C-41,19.11,163.64,626,163.64,626H411.15Z" fill="#222229"/><path d="M411.15,128.39c-8.32-3.58-13.18-5.54-13.18-5.54S186,193.31,159.62,297.41c-4.51,28.58,5.92,57.91,2.82,82.69h-.92c-3.34,27-5.83,51.8-7.43,74.71l.2,9.31q-.31,4.92-.57,9.72l.77-.12,1.87,87.55c.07,8.82.65,18.76,1.71,29.61,11.26,61.94,38.06,101.44,81.62,135.47,53.37,46.15,115.8,58.66,171.46,55.39Z" fill="#26cbff"/><path d="M208.38,322.23s-33.81,25.51-21.22,141.91c6.62,61.24-28.88-127.1-28.88-127.1l50.1-14.81" fill="#222229"/><g opacity="0.5"><path d="M411.15,126.26A97.31,97.31,0,0,0,398,122.85s-101,46.09-125,57.07-86.83,117.46-25.66,134.21c52.78,14.46,96.07,12.09,107,11.17-4.32-7.87-19.63-32.95-41.24-36.51-25.68-4.22-23.17-27,13.59-16.89s60.19,35.82,56,72.58c-2.13,18.59,13,16.61,28.49,10.11Z" fill="#fff"/></g><g opacity="0.5"><path d="M407.34,586.67a20.75,20.75,0,0,0,3.81-.4V516.83c-5,2.06-9.75,4.64-16.6,4.11-17-1.31-28.77,12.84-45.76,39.27C321.94,602,359,579.05,367.58,577.74S394.89,586.67,407.34,586.67Z" fill="#fff"/><path d="M411.15,692c-22.67,11.13-44.29,24.1-43.25,37.55.88,11.55,18.81,23.21,43.25,30.37Z" fill="#fff"/></g><g opacity="0.5"><path d="M284.52,519.28c-3.61-9.12-58.12-2.07-53.46,10.37s19.39,27,32.25,18.66S288.22,528.62,284.52,519.28Z" fill="#fff"/></g><g opacity="0.5"><path d="M411.15,353.79l-34.42,7.53-17.2,70.88s6.25,23.84,23.13,24.36c8.22.25,19.63,3.61,28.49,8.91Z" fill="#fff"/></g><g opacity="0.5"><path d="M332.87,335.91c-6.9-12.67-86.38-11.61-86.38-11.61s-13.6,28.48,6.47,30.46l-4.19,5.1s3.18,14.57,15,17.38,2,8.89-15,7.47C217.24,382.08,187.58,400.1,188,426s8.26,59,24.4,59.17S322.26,489,327.69,374.64C327.69,374.64,348.58,364.73,332.87,335.91Z" fill="#fff"/></g><g opacity="0.5"><path d="M210.19,342.53c5.64-.28-11.53,62.59-16.95,60.47S204.55,342.82,210.19,342.53Z" fill="#fff"/></g><circle cx="283.37" cy="359.86" r="19.59" fill="#4c3b38"/><circle cx="283.37" cy="356.73" r="10.34" fill="#222229"/><path d="M334.28,376.51h-.1l-22.43-.5s13.14-8,5.17-16.22c-4.11-4.22-11.11-10.89-23-12.64-25.58-3.76-49.21,16.49-49.45,16.69,0,0,21.86-29.35,51.47-25,16.88,2.48,30.59,12.42,42.17,30.75a4.5,4.5,0,0,1-3.81,6.9Z" fill="#222229"/><ellipse cx="367.9" cy="494.96" rx="14.66" ry="8.41" transform="translate(-242.23 405.11) rotate(-45)" fill="#222229"/><path d="M411.15,497.91c-1.24,5.86-5.41,8.76-10.33,8.76-5.43,0-9.95-3.5-10.63-10.63-.8-8.42-10.73-12.14-14.48-12.84l-5.28,20.57c8.1-4.24,19.12,6.84,30.39,6.84a27.3,27.3,0,0,0,10.33-2.55Z" fill="#222229"/><path d="M342,470s-24.88,36,8.33,47.29-45.64,24.78-17.37-42.41S342,470,342,470Z" fill="#222229"/><circle cx="292.64" cy="356.73" r="4.58" fill="#fff"/><path d="M411.15,776.56q-6.22.27-12.49.28c-65.14,0-125.21-21.7-169.16-61.1-44.5-39.89-69.26-95.41-69.72-156.4l-3.87-181.1-8,.17,3.87,181.05c.47,63.21,26.18,120.83,72.38,162.24,45.41,40.71,107.39,63.14,174.5,63.14q6.27,0,12.49-.28Z" fill="#222229"/><path d="M411.15,605.51c-4.47.43-7.12.43-7.21.43a119.07,119.07,0,0,1-23.69-3.1c-23.59-5.24-33.59,1.08-50.15,11.56l-1.23.78c-14.54,9.18-21.4,6.42-21.46,6.39l.13.06-3.71,7.09c1,.54,10.69,5,29.31-6.78l1.23-.78c16.33-10.32,23.78-15,44.15-10.51,15,3.33,25.06,3.29,25.42,3.29s2.82,0,7.21-.39Z" fill="#222229"/><polygon points="375.24 345.44 378.49 354.76 390.56 345.44 375.24 345.44" fill="#fff"/><path d="M411.15,122.93c-7.48-2.55-11.88-3.87-12-3.92l-1.16-.34-1.15.35c-.61.19-61.36,19-121.17,53.41-35.27,20.31-63.37,42-83.51,64.6-25.42,28.45-38.24,58.32-38.1,88.79l-1,6.4,7.9,1.25,1.11-7.05v-.33c-.21-28.51,11.9-56.67,36-83.68,19.56-21.91,47-43.1,81.47-63C334,148,389.37,129.78,398,127c2,.62,6.61,2.08,13.16,4.35Z" fill="#222229"/><path d="M411.15,332a75.4,75.4,0,0,1-12.24,1.15c-18.18.22-35.47-9.11-42-13.05-.85-.58-1.72-1.14-2.64-1.69l-.05,0h0a74.41,74.41,0,0,0-14.83-6.72c-27.94-9.31-79.28-7.71-100.06-6.59-19.9,1.08-53.26,4.08-71.11,9.14h0l-33.65,7.22c-2,.43-3.5,1.58-3.5,3.5l1.72,13.53s78.8-11.88,108.1-13.44c40.68-2.16,103.83,2.73,107.8,6.25,7,.77,37.5,11.53,62.42,13.47Z" fill="#fff"/><path d="M158.28,337s-27-12-26.74-7.55c.48,8.21-.75,20.29-.17,24.11s12-1.68,13.09,9.35C145,369,158.28,337,158.28,337Z" fill="#fff"/><path d="M302.16,478.17l-1.23-3.81c20.16-6.55,42.37-43.77,52.81-88.5l.12-.55c4.27-18.25,5.34-40.48-24.58-50.45l1.27-3.79c33.35,11.11,31.5,36.8,27.21,55.16l-.13.54C346.73,433.51,323.92,471.1,302.16,478.17Z" fill="#fff"/><path d="M203.71,483.9c-17.87-10.87-36.05-58-39.72-103-1.63-19.95,2.56-35.3,12.45-45.62,13.09-13.66,31.18-13.12,31.94-13.08l-.35,9,.18-4.5-.16,4.5c-.16,0-15-.35-25.18,10.39-8,8.39-11.32,21.37-9.91,38.59,3.66,44.83,21.72,87.67,35.43,96Z" fill="#fff"/><path d="M411.15,337a75.4,75.4,0,0,1-12.24,1.15c-18.18.22-35.47-9.11-42-13.05-.85-.58-1.72-1.14-2.64-1.69l-.05,0h0a74.41,74.41,0,0,0-14.83-6.72c-27.94-9.31-79.28-7.71-100.06-6.59-19.9,1.08-53.26,4.08-71.11,9.14h0l-33.65,7.22c-2,.43-3.5,1.58-3.5,3.5v15a3.52,3.52,0,0,0,3.5,3.5s10-.56,10,18.93a19.24,19.24,0,0,0,.12,2.17c1.52,39.57,17.44,93.94,34.16,110.66,12.42,12.42,44.91,18.48,77.15,18.48,20.7,0,41.31-2.5,56.43-7.41,18.7-6.08,34.64-23,47.37-50.35a250,250,0,0,0,16.28-48.43l.13-.53c.64-2.78,1.5-6.43,2.16-10.65h0s4.58-18.32,20.46-18.32A17.34,17.34,0,0,1,411.15,368Zm-54.34,50.4-.13.54c-10.73,46-29.56,77.54-50.35,84.29-16.36,5.32-41.64,7.59-66,5.92-26.1-1.79-42.56-7.37-47.29-12.1-14.23-14.24-31.36-78.17-24.37-112.33,4-19.76,33.69-21.65,72.23-23.7,40.68-2.16,75.14-.07,92.18,5.61C363.76,345.8,361.42,367.66,356.81,387.35Z" fill="#222229"/></svg>