<svg xmlns="http://www.w3.org/2000/svg" width="400" height="800" viewBox="0 0 400 800"><defs><linearGradient id="a" x1="205.77" y1="594.51" x2="592.92" y2="269.65" gradientUnits="userSpaceOnUse"><stop offset="0" stop-color="#ee2ed3"/><stop offset="1" stop-color="#0acbff"/></linearGradient></defs><rect x="60.28" y="371.9" width="62.94" height="170.86" rx="19.32" stroke-width="8" stroke="#222229" stroke-linecap="round" stroke-linejoin="round" fill="#d9e6e8"/><path d="M399.21 233.67c-414.8 13.85-328.78 397.1-9.4 417.89 100.89 4 201.58-45.19 256.18-120.66 117.25-164-66-298.77-246.78-297.23z" fill="url(#a)" opacity=".7"/><path d="M405.18 606.21c-121.81-10-252.76-77.61-228.6-276.49-105.5 84.93-53 212 20.24 263.16 77.65 54.29 148.7 68 208.36 62.93z" fill="#222229" opacity=".2"/><path d="M403.09 625.87c-132.47-11.77-288.23-87.52-244.5-281.71-87.06 84.78-16.22 209.6 58.41 258.68 66.37 43.67 130.82 53.16 186.12 47.43z" fill="#fff" opacity=".4"/><path d="M407.85 234.59c-74.48-3.49-149.93 14.57-205.94 58.41 12.09.47 24.25 3.82 36.24 2.1 67.29-9.67 123.58-7.09 170.67 3.65-.67-21.37-.91-42.75-.97-64.16z" fill="#222229" opacity=".5"/><path d="M405.18 640.66c-1.73 0-3.45.06-5.18.06-145.09 0-263.9-98-263.9-223.58 0-99.77 118.81-163.88 263.9-163.88h5.18v-226H400c-275 0-308.25 205.82-308.25 383.36C91.75 622.39 229.76 794 400 794c1.73 0 3.45 0 5.18-.06z" fill="#fff"/><path d="M401.5 637.72c-137.38 0-265.4-95.78-265.4-208.34 0-120.35 127.6-172.63 265.57-176.71V27.31c-274.28.42-309.92 206-309.92 383.36 0 211.38 139.56 382.79 309.42 383.35z" fill="#222229" opacity=".2"/><path d="M412.22 639.65c-4 .17-8.08.27-12.16.27H399c-145.09-.54-263.37-111.76-262.9-211.69.51-106.45 118.77-177.74 263.11-177.74h1.64q5.72 0 11.37.23v-16.9c-3.76-.12-7.52-.2-11.29-.21h-1.72c-75.31 0-145.2 18.56-196.8 52.25-26.57 17.35-47.42 38.07-62 61.58a152.61 152.61 0 00-23.37 80.73c-.13 26.82 7.6 55.36 22.35 82.55 14.25 26.26 35.13 51.44 60.4 72.84a312.09 312.09 0 00199.12 73.26h1.14c4.06 0 8.11-.1 12.16-.26z" fill="#222229" opacity=".3"/><path d="M405.18 790c-1.73 0-3.45.06-5.18.06-81.1 0-157.4-39.35-214.85-110.79-57.65-71.7-89.4-167.08-89.4-268.57 0-53.09 3-95.71 9.43-134.14 8.14-48.59 21.55-88.53 41-122.12 22.35-38.56 53.13-68.38 91.48-88.63C281 42.9 335.6 31.31 400 31.31h5.18v-8H400c-65.72 0-121.59 11.91-166.07 35.39-39.69 21-71.54 51.82-94.66 91.7-20 34.43-33.68 75.26-42 124.81-6.51 38.87-9.54 81.92-9.54 135.46 0 103.3 32.38 200.47 91.17 273.58 28.65 35.64 62 63.63 99.23 83.19C316.74 787.74 357.73 798 400 798c1.73 0 3.45 0 5.18-.06z" fill="#222229"/><path d="M211.47 298c-51.18 33.14-79.37 79.79-79.37 131.34 0 24.68 7.38 51 21.33 76.18 13.62 24.55 33.56 48.11 57.66 68.12a298 298 0 00188.91 68c1.73 0 3.45 0 5.18-.06v-8c-1.73 0-3.45.06-5.18.06a290 290 0 01-183.8-66.19c-47.65-39.58-76.1-91.22-76.1-138.15a130.65 130.65 0 0120.23-70.07c12.9-20.71 31.57-39.07 55.48-54.55 47.91-31 113.32-48.1 184.19-48.1h5.18v-8H400c-72.39.08-139.35 17.62-188.53 49.42z" fill="#222229"/><path d="M233.52 375c-17.52 43.32-14.59 85.37 6.48 93.86s-10.61-47.7 36.88-85.14c70.27-55.41 60.23-78.08 26.45-71.93C281 315.85 251 331.57 233.52 375z" fill="#fff" opacity=".5"/><path d="M409.4 675.08c-3.13.08-6.26.13-9.4.13a358.72 358.72 0 01-114.34-18.53c-34.7-11.64-66.17-28.13-93.55-49-54.61-41.63-85.94-95.89-85.94-148.87 0-72.49 18.17-130.23 54-171.6 47.89-55.31 128.58-83.35 239.83-83.35q4.75 0 9.4.08v-8q-4.66-.07-9.4-.08c-113.67 0-196.4 29-245.87 86.11-37.13 42.87-56 102.37-56 176.84 0 55.5 32.47 112.08 89.09 155.23 28.08 21.4 60.33 38.29 95.85 50.21a366.6 366.6 0 00116.89 19c3.14 0 6.27-.05 9.4-.13z" fill="#222229"/><path fill="#d9e6e8" stroke="#222229" stroke-linecap="round" stroke-linejoin="round" stroke-width="8" d="M400.05 715.35v53.4M367.2 731.62v21.97M383.68 722.92v38.26"/></svg>