<svg xmlns="http://www.w3.org/2000/svg" xmlns:xlink="http://www.w3.org/1999/xlink" width="400" height="800" viewBox="0 0 400 800"><defs><clipPath id="a"><path d="M174.05,506.83c17,0,28.59-5.85,29.39-6.26l-10.18-19.51.09,0c-.92.46-22.8,11-49.32-5-25.4-15.4-46.61-49.27-63-100.65C58.61,305.26,46.09,204.47,43.81,75.76l-22,.39c2.33,131.4,15.29,234.61,38.52,306.76,18.21,56.55,42.77,94.34,73,112.3C148.35,504.14,162.47,506.83,174.05,506.83Z" fill="none"/></clipPath></defs><title>left-cyborg</title><path d="M123.65,82.55c-45.2,609.19,63.17,460.92,63.17,460.92" fill="none" stroke="#222229" stroke-miterlimit="10" stroke-width="8"/><path d="M169.07,519S10.61,682.86,10.61,82.55" fill="none" stroke="#222229" stroke-miterlimit="10" stroke-width="8"/><path d="M91.89,85.23s-53.22,391,72.56,331.48" fill="none" stroke="#222229" stroke-miterlimit="10" stroke-width="8"/><g clip-path="url(#a)"><path d="M174.05,506.83c17,0,28.59-5.85,29.39-6.26l-10.18-19.51.09,0c-.92.46-22.8,11-49.32-5-25.4-15.4-46.61-49.27-63-100.65C58.61,305.26,46.09,204.47,43.81,75.76l-22,.39c2.33,131.4,15.29,234.61,38.52,306.76,18.21,56.55,42.77,94.34,73,112.3C148.35,504.14,162.47,506.83,174.05,506.83Z" fill="#222229"/><rect x="75.32" y="444.94" width="48.45" height="3" transform="translate(-153.25 65.24) rotate(-20.98)" fill="#fff"/><rect x="87.89" y="465.16" width="48.45" height="3" transform="translate(-201.54 103.39) rotate(-27.3)" fill="#fff"/><rect x="108.27" y="482.5" width="48.45" height="3" transform="translate(-276.44 193.17) rotate(-39.27)" fill="#fff"/><rect x="130.98" y="492.6" width="48.45" height="3" transform="translate(-348.38 373.16) rotate(-59.06)" fill="#fff"/><rect x="46.76" y="378.69" width="48.45" height="3" transform="translate(-42.38 10.42) rotate(-6.47)" fill="#fff"/><rect x="30.22" y="72.65" width="3" height="48.45" transform="translate(-65.21 128.42) rotate(-89.89)" fill="#fff"/><rect x="30.18" y="94.53" width="3" height="48.45" transform="translate(-87.13 150.22) rotate(-89.89)" fill="#fff"/><rect x="30.14" y="116.41" width="3" height="48.45" transform="translate(-109.05 172.02) rotate(-89.89)" fill="#fff"/><rect x="30.1" y="138.29" width="3" height="48.45" transform="translate(-130.96 193.81) rotate(-89.89)" fill="#fff"/><rect x="30.06" y="160.17" width="3" height="48.45" transform="translate(-152.88 215.61) rotate(-89.89)" fill="#fff"/><rect x="30.02" y="182.05" width="3" height="48.45" transform="translate(-174.8 237.41) rotate(-89.89)" fill="#fff"/><rect x="35.57" y="203.94" width="3" height="48.45" transform="translate(-191.16 264.81) rotate(-89.89)" fill="#fff"/><rect x="44.56" y="225.83" width="3" height="48.45" transform="translate(-204.08 295.65) rotate(-89.89)" fill="#fff"/><rect x="23.35" y="270.44" width="48.45" height="3" transform="translate(-13.74 2.77) rotate(-2.91)" fill="#fff"/><rect x="26.64" y="292.55" width="48.45" height="3" transform="translate(-18.91 3.9) rotate(-3.71)" fill="#fff"/><rect x="36.85" y="313.82" width="48.45" height="3" transform="matrix(1, -0.06, 0.06, 1, -20.26, 4.61)" fill="#fff"/><rect x="38.27" y="335.65" width="48.45" height="3" transform="translate(-21.66 4.74) rotate(-3.71)" fill="#fff"/><rect x="44.29" y="356.95" width="48.45" height="3" transform="translate(-39.95 10) rotate(-6.47)" fill="#fff"/><rect x="57.13" y="401.27" width="48.45" height="3" transform="translate(-68.84 20.3) rotate(-10.02)" fill="#fff"/><rect x="64.33" y="423.26" width="48.45" height="3" transform="translate(-114.09 41.1) rotate(-16.07)" fill="#fff"/></g><path d="M407.12,34.84q-4.12-.08-8.35-.08c-210,0-240.22,148.11-244.24,240.81-4.52,28.59,2,135.06.36,158l.2,9.32q-.3,4.92-.56,9.72l.77-.12L157.17,540c.06,8.82.64,18.75,1.7,29.61,11.26,61.93,38.06,101.44,81.63,135.47C292.32,749.9,352.7,763,407.12,760.7Z" fill="#bf9f17"/><path d="M209.19,300.94S175.37,326.46,188,442.86c6.62,61.24-28.87-127.1-28.87-127.1l50.1-14.82" fill="#222229"/><path d="M407.12,103.49c-2.75-.76-5.53-1.41-8.35-1.92,0,0-88.16-7.84-139.81,53.26s-72,121.27-10.8,138c52.79,14.45,96.08,12.09,107,11.17-4.31-7.87-19.62-33-41.23-36.51-25.69-4.22-23.17-27,13.58-16.89s60.2,35.82,56,72.58c-1.9,16.64,10,16.8,23.66,12Z" fill="#fff" opacity="0.5"/><path d="M407.12,565.36V497.57a25.16,25.16,0,0,1-11.76,2.09c-17-1.31-28.78,12.83-45.77,39.26-26.85,41.77,10.23,18.84,18.79,17.54C376.72,555.18,394.68,564.84,407.12,565.36Z" fill="#fff" opacity="0.5"/><path d="M407.12,673.08c-20.81,10.57-39.38,22.65-38.42,35.14.83,10.77,16.49,21.64,38.42,28.86Z" fill="#fff" opacity="0.5"/><path d="M285.33,498c-3.62-9.13-58.13-2.07-53.47,10.37s19.4,27,32.25,18.66S289,507.33,285.33,498Z" fill="#fff" opacity="0.5"/><path d="M407.12,333.56,377.53,340l-17.2,70.87s6.25,23.85,23.13,24.37c6.79.21,15.75,2.53,23.66,6.31Z" fill="#fff" opacity="0.5"/><path d="M333.67,314.62C326.77,302,247.29,303,247.29,303s-13.59,28.48,6.47,30.46l-4.19,5.1s3.19,14.57,15,17.38,1.95,8.88-15,7.47c-31.52-2.64-61.18,15.39-60.81,41.29s8.26,59,24.41,59.17,109.89,3.8,115.32-110.53C328.49,353.36,349.38,343.45,333.67,314.62Z" fill="#fff" opacity="0.5"/><path d="M211,321.25c5.65-.28-11.53,62.58-17,60.47S205.35,321.53,211,321.25Z" fill="#fff" opacity="0.5"/><circle cx="284.17" cy="338.58" r="19.59" fill="#f22f7e"/><circle cx="284.17" cy="335.45" r="10.34" fill="#222229"/><path d="M335.09,355.23H335l-22.43-.5s13.15-8,5.18-16.22c-4.11-4.23-11.11-10.89-23-12.64-25.58-3.76-49.21,16.48-49.45,16.69,0,0,21.86-29.35,51.48-25,16.87,2.49,30.58,12.43,42.16,30.76a4.5,4.5,0,0,1-3.8,6.9Z" fill="#222229"/><ellipse cx="368.7" cy="473.67" rx="14.66" ry="8.41" transform="translate(-226.95 399.45) rotate(-45)" fill="#222229"/><path d="M407.86,483.44a10.36,10.36,0,0,1-6.24,1.95c-5.42,0-9.95-3.5-10.62-10.63-.81-8.42-10.74-12.14-14.48-12.84l-5.29,20.56c8.1-4.23,19.13,6.85,30.39,6.85a21.21,21.21,0,0,0,6.24-1.05Z" fill="#222229"/><path d="M342.75,448.74s-24.88,36,8.34,47.3-45.65,24.78-17.37-42.42S342.75,448.74,342.75,448.74Z" fill="#222229"/><circle cx="293.44" cy="335.45" r="4.58" fill="#fff"/><path d="M404.77,588.65s-9.87.09-24.58-3.18c-22.52-5-31.18.94-48.38,11.81s-25.32,6.61-25.32,6.61-53.71-12.62-96-31.34" fill="none" stroke="#9b800e" stroke-miterlimit="10" stroke-width="8"/><line x1="400" y1="34.76" x2="400" y2="759.56" fill="none" stroke="#9b800e" stroke-miterlimit="10" stroke-width="8"/><path d="M154.13,464.43s49.21,32.77,54.57,90.62,18.77,141.48,52.41,167.11" fill="none" stroke="#9b800e" stroke-miterlimit="10" stroke-width="8"/><path d="M209.19,113.66S263,246.36,292.42,247.8s106.32,0,106.32,0" fill="none" stroke="#9b800e" stroke-miterlimit="10" stroke-width="8"/><path d="M412.12,248c-7.46-.11-12.12-.2-12.12-.2" fill="none" stroke="#9b800e" stroke-miterlimit="10" stroke-width="8"/><path d="M152.71,314.34c-1-129.57,45.42-279.58,246.06-279.58q8.25,0,16.13.3" fill="none" stroke="#222229" stroke-miterlimit="10" stroke-width="8"/><path d="M414.92,759.14c-5.12.27-10.27.42-15.46.42-135.35,0-241.9-91.84-242.88-221.41L152.71,357" fill="none" stroke="#222229" stroke-miterlimit="10" stroke-width="8"/><path d="M404.19,311.63c-1.46.1-2.95.17-4.48.19-18.17.22-35.47-9.12-41.94-13.06q-1.27-.86-2.64-1.68l-.05,0h0a74.2,74.2,0,0,0-14.84-6.72C312.3,281,261,282.62,240.19,283.74c-19.91,1.08-53.26,4.07-71.12,9.14h0l-33.65,7.23c-2,.43-3.5,1.58-3.5,3.5l1.72,13.53s78.79-11.88,108.1-13.44c40.67-2.17,104.78,11.08,108.74,14.61,6.33.69,30.76,2.69,53.71,4.5Z" fill="#fff"/><path d="M159.09,315.76s-27-12-26.75-7.56c.49,8.21-.75,20.3-.16,24.12s12-1.68,13.09,9.35C145.84,347.66,159.09,315.76,159.09,315.76Z" fill="#fff"/><path d="M303,454.88l-1.24-3.8c20.17-6.55,42.38-41.77,52.81-86.5l.13-.55c4.27-18.25,5.33-40.48-24.58-50.45l1.26-3.8c33.35,11.12,31.51,36.81,27.21,55.16l-.12.55C347.53,412.23,324.72,447.81,303,454.88Z" fill="#fff"/><path d="M204.51,460.61c-17.86-10.87-36-56-39.72-101-1.63-19.95,2.56-35.3,12.46-45.63,13.08-13.65,31.17-13.11,31.94-13.08l-.36,9,.18-4.5-.16,4.5c-.15,0-14.95-.36-25.18,10.39-8,8.38-11.31,21.37-9.91,38.59,3.66,44.83,21.72,85.66,35.43,94Z" fill="#fff"/><path d="M404.19,316.63c-1.46.1-2.95.17-4.48.19-18.17.22-35.47-9.12-41.94-13.06q-1.27-.86-2.64-1.68l-.05,0h0a74.2,74.2,0,0,0-14.84-6.72C312.3,286,261,287.62,240.19,288.74c-19.91,1.08-53.26,4.07-71.12,9.14h0l-33.65,7.23c-2,.43-3.5,1.58-3.5,3.5v15a3.5,3.5,0,0,0,3.5,3.5s10-.55,10,18.94a17.26,17.26,0,0,0,.12,2.17c1.52,39.56,17.43,91.93,34.16,108.66,12.42,12.42,44.9,18.48,77.14,18.48,20.71,0,41.32-2.5,56.44-7.42,18.69-6.07,34.63-23,47.37-50.34A250.37,250.37,0,0,0,377,369.15l.13-.53c.65-2.78,1.5-4.44,2.17-8.65h0s4.57-18.32,20.45-18.32a17.22,17.22,0,0,1,4.48.58Zm-46.58,49.43-.12.55c-10.74,46-29.56,75.54-50.35,82.29-16.36,5.32-41.64,7.59-66,5.92-26.1-1.79-42.56-7.37-47.29-12.1-14.24-14.24-31.36-76.17-24.38-110.34,4-19.75,33.7-21.64,72.24-23.69,40.67-2.17,75.13-.07,92.18,5.61C364.56,324.52,362.22,346.38,357.61,366.06Z" fill="#222229"/></svg>