<svg xmlns="http://www.w3.org/2000/svg" width="680" height="800" viewBox="0 0 680 800"><path fill="none" stroke="#222229" stroke-linecap="round" stroke-linejoin="round" stroke-width="8" d="M290.7 94.99v79.58M315.55 94.99v131.19"/><path fill="none" stroke="#222229" stroke-linejoin="round" stroke-width="30" d="M453.88 102.36l-164.32 315.4-101.29-145.18L-57.68 498.8"/><path fill="none" stroke="#a8a8a8" stroke-miterlimit="10" stroke-width="5" d="M453.88 102.36l-164.32 315.4-101.29-145.18L-57.68 498.8"/><circle cx="287.56" cy="414.57" r="37.58" fill="#a8a8a8" stroke="#222229" stroke-linecap="round" stroke-linejoin="round" stroke-width="5"/><circle cx="287.56" cy="414.57" r="16.48" fill="#a8a8a8" stroke="#222229" stroke-linecap="round" stroke-linejoin="round" stroke-width="5"/><circle cx="187.66" cy="270.96" r="37.58" fill="#a8a8a8" stroke="#222229" stroke-linecap="round" stroke-linejoin="round" stroke-width="5"/><circle cx="187.66" cy="270.96" r="16.48" fill="#a8a8a8" stroke="#222229" stroke-linecap="round" stroke-linejoin="round" stroke-width="5"/><path fill="none" stroke="#222229" stroke-linejoin="round" stroke-width="30" d="M368.41 97.49l55.53 395.43-298.82 23.98-253.09 86.47-428.9-173.65"/><path fill="none" stroke="#a8a8a8" stroke-miterlimit="10" stroke-width="5" d="M368.41 97.49l55.53 395.43-298.82 23.98-253.09 86.47-428.9-173.65"/><circle cx="421.94" cy="489.72" r="37.58" fill="#a8a8a8" stroke="#222229" stroke-linecap="round" stroke-linejoin="round" stroke-width="5"/><circle cx="421.94" cy="489.72" r="16.48" fill="#a8a8a8" stroke="#222229" stroke-linecap="round" stroke-linejoin="round" stroke-width="5"/><circle cx="124.51" cy="515.28" r="37.58" fill="#a8a8a8" stroke="#222229" stroke-linecap="round" stroke-linejoin="round" stroke-width="5"/><circle cx="124.51" cy="515.28" r="16.48" fill="#a8a8a8" stroke="#222229" stroke-linecap="round" stroke-linejoin="round" stroke-width="5"/><path fill="#b28c3f" stroke="#222229" stroke-linejoin="round" stroke-width="6" d="M515 70.59H-52.64v42.69H515"/><path fill="none" stroke="#222229" stroke-linecap="round" stroke-linejoin="round" stroke-width="8" d="M473.99 65.47v53.32M440.84 65.47v53.32M419.73 65.47l7.9 53.32M470.91 335.32l-457.23-4.58L216.9 131.45H-47.6"/><path d="M190.75 113.28c0 24.72 11.71 44.72 26.15 44.72s26.16-20 26.16-44.76zM-3.5 351.33c24.72 0 44.76-11.71 44.76-26.15S21.22 299-3.5 299z" fill="#b28c3f" stroke="#222229" stroke-linejoin="round" stroke-width="6"/><path d="M515 334v-13l-12.05.3-18.84 6.18c-5.84 4.1 10.05 21.08 11.44 19.56 1.12-1.22 20.36-.95 16.51-13.08z" fill="#f6a87b"/><path fill="none" stroke="#222229" stroke-linecap="round" stroke-linejoin="round" stroke-width="8" d="M453.13 335.32h49.15l6.18 266.96"/><path d="M492 344.59c-3.34-1-5.64-4-7.7-6.82a4.5 4.5 0 01-1.21-3.06" fill="#f6a87b"/><path d="M492.37 344c-.89-.55-1.85-.95-2.69-1.58a15.7 15.7 0 01-2.23-2.16c-.68-.77-1.3-1.58-1.9-2.41S484 336 484.16 335a1.08 1.08 0 10-2.13-.29 6.22 6.22 0 001.65 3.79c.74 1 1.49 2 2.3 2.9a17 17 0 002.69 2.46 6.52 6.52 0 003.35 1.42.69.69 0 00.35-1.28z" fill="#1e1e1e"/><path d="M504.3 329.73c-10.46 6.83-17.07-2.52-17.07-2.52-5.38 1.2-14.07-5.07-14.23-5.69-.35-1.29 2.8-5.33 8.14-2.29 2.72 1.55 6.74 1.62 9.83 1.12 2.09-.33 4.12-1 6.23-1.13s4.42.41 5.75 2" fill="#f6a87b" stroke="#1e1e1e" stroke-linecap="round" stroke-linejoin="round" stroke-width="2"/><path d="M491 332.39c1-1 9.68-.64 3 6.3-3.18 3.29-7.86 9.84-9.62 7.73-4.77-5.71 5.75-13.13 6.62-14.03zM496.56 338.42c.77-.81 7.73-2.62 2.9 5.94-1.74 3.09-7.55 8.13-9.48 5.58-3.48-4.59 5.91-10.82 6.58-11.52z" fill="#f6a87b" stroke="#1e1e1e" stroke-linecap="round" stroke-linejoin="round" stroke-width="2"/><path d="M484.75 328.8s7.54-1.31 3.81 4.42c-2.39 3.7-8.37 10-11.06 6.95-3.12-3.54 6.36-10.54 7.25-11.37z" fill="#f6a87b" stroke="#1e1e1e" stroke-linecap="round" stroke-linejoin="round" stroke-width="2"/><path d="M502.93 320.28h-.13a6.92 6.92 0 01.41 2L515 322v-2zM511.26 333.33a1 1 0 00-.15.9 6.58 6.58 0 01-.32 5.61c-2.2 3.61-8.47 4.75-12.31 5.42a6.08 6.08 0 01-1.31 2.27l1.5-.28c4.17-.72 11.14-1.94 13.82-6.37a8 8 0 00.87-5.91H515v-2l-2.91-.08a1 1 0 00-.83.44z" fill="#1e1e1e"/><path fill="none" stroke="#222229" stroke-linecap="round" stroke-linejoin="round" stroke-width="8" d="M338.34 65.47v53.32M321.57 65.47v53.32M295.33 65.47l14.19 53.32"/></svg>