<svg xmlns="http://www.w3.org/2000/svg" width="400" height="800" viewBox="0 0 400 800"><path d="M133.4 254.69s-81.74-53-83.24 54.47c0 0-125.42 120.46 9 247.11 0 0-37.52 130.43 124.78 119.47S133.4 254.69 133.4 254.69z" fill="#222229"/><path d="M406.32 19.13h-2.85C-38.33 19.11 166.29 626 166.29 626h240z" fill="#222229"/><path d="M406.32 125.21c-3.67-1.54-5.7-2.36-5.7-2.36s-211.95 70.46-238.35 174.56c-10.91 42.86-2.61 282.63-1.55 293.48 25.26 166.58 191.88 193 245.6 191.2z" fill="#26cbff"/><path d="M211 322.23s-33.81 25.51-21.22 141.91c6.62 61.24-28.88-127.1-28.88-127.1l50.1-14.81" fill="#222229"/><path d="M406.32 124.09c-1.88-.46-3.78-.89-5.7-1.24 0 0-101 46.09-124.95 57.07S188.84 297.38 250 314.13c52.78 14.46 96.07 12.09 107 11.17-4.32-7.87-19.63-32.95-41.24-36.51-25.68-4.22-23.17-27 13.59-16.89s60.19 35.82 56 72.58c-1.78 15.56 8.53 16.71 21 12.86zM406.32 586.41V519.8a23.08 23.08 0 01-9.12 1.14c-17-1.31-28.77 12.84-45.76 39.27-26.85 41.77 10.23 18.84 18.79 17.53 7.77-1.19 23.87 7.1 36.09 8.67zM406.32 695.72c-19.71 10.24-36.69 21.83-35.77 33.78.79 10.34 15.24 20.76 35.77 28zM287.17 519.28c-3.61-9.12-58.12-2.07-53.46 10.37s19.39 27 32.25 18.66 24.91-19.69 21.21-29.03z" fill="#fff" opacity=".5"/><path d="M406.32 355.42l-26.94 5.9-17.2 70.88s6.25 23.84 23.13 24.36c6 .19 13.8 2.05 21 5.13zM335.52 335.91c-6.9-12.67-86.38-11.61-86.38-11.61s-13.6 28.48 6.47 30.46l-4.19 5.1s3.18 14.57 15 17.38 1.95 8.89-15 7.47c-31.53-2.63-61.19 15.39-60.81 41.3s8.26 59 24.4 59.17 109.9 3.82 115.33-110.54c0 0 20.89-9.91 5.18-38.73z" fill="#fff" opacity=".5"/><path d="M212.84 342.53c5.64-.28-11.53 62.59-17 60.47s11.36-60.18 17-60.47z" fill="#fff" opacity=".5"/><circle cx="286.02" cy="359.86" r="19.59" fill="#4c3b38"/><circle cx="286.02" cy="356.73" r="10.34" fill="#222229"/><path d="M336.93 376.51h-.1L314.4 376s13.14-8 5.17-16.22c-4.11-4.22-11.11-10.89-23-12.64-25.58-3.76-49.21 16.49-49.45 16.69 0 0 21.86-29.35 51.47-25 16.88 2.48 30.59 12.42 42.17 30.75a4.5 4.5 0 01-3.81 6.9zM392.84 496c-.8-8.42-10.73-12.14-14.48-12.84-3.74-.9-9.24 1.27-13.76 5.8-5.73 5.72-7.71 13-4.42 16.32 2.66 2.65 7.94 1.86 12.9-1.57 8.1-4.23 19.12 6.85 30.39 6.85v-3.94c-5.47.05-9.95-3.45-10.63-10.62z" fill="#222229"/><path d="M344.6 470s-24.88 36 8.33 47.29-45.64 24.78-17.37-42.41 9.04-4.88 9.04-4.88z" fill="#222229"/><circle cx="295.29" cy="356.73" r="4.58" fill="#fff"/><path d="M410.09 780.7c-2.92.09-5.84.14-8.78.14-135.31 0-241.9-91.84-242.88-221.41l-3.87-181.11" fill="none" stroke="#222229" stroke-miterlimit="10" stroke-width="8"/><path d="M406.62 609.94s-9.88.08-24.59-3.19c-22.52-5-31.18.94-48.38 11.81s-25.32 6.62-25.32 6.62" fill="none" stroke="#222229" stroke-linecap="round" stroke-miterlimit="10" stroke-width="8"/><path d="M406.3 332.89c-1.55.12-3.12.19-4.74.21-18.18.22-35.47-9.11-41.95-13.05-.85-.58-1.72-1.14-2.64-1.69h-.05a74.77 74.77 0 00-14.84-6.72C314.15 302.3 262.81 303.9 242 305c-19.9 1.07-53.26 4.07-71.11 9.13l-33.64 7.22c-2 .43-3.5 1.58-3.5 3.5l1.71 13.53s78.8-11.88 108.1-13.44c40.68-2.16 104.79 11.09 108.75 14.61 6.35.7 30.94 2.71 54 4.53z" fill="#fff"/><path d="M160.93 337s-27-12-26.74-7.55c.48 8.21-.75 20.29-.17 24.11s12-1.68 13.09 9.35c.57 6.09 13.82-25.91 13.82-25.91zM304.81 478.17l-1.23-3.81c20.16-6.55 42.37-43.77 52.81-88.5l.12-.55c4.27-18.25 5.34-40.48-24.58-50.45l1.27-3.79c43.23 10.91 36 56.58 36 56.58-10.91 46.74-42.63 83.45-64.39 90.52zM206.36 483.9c-17.86-10.87-34.28-58.11-39.72-103-7.32-62.66 43.63-58.74 44.39-58.7l-.35 9 .18-4.5-.16 4.5c-.16 0-15-.35-25.18 10.39-8 8.39-11.32 21.37-9.91 38.59 3.66 44.83 21.72 87.67 35.43 96z" fill="#fff"/><path d="M406.3 337.89c-1.55.12-3.12.19-4.74.21-18.18.22-35.47-9.11-41.95-13.05-.85-.58-1.72-1.14-2.64-1.69h-.05a74.77 74.77 0 00-14.84-6.72C314.15 307.3 262.81 308.9 242 310c-19.9 1.07-53.26 4.07-71.11 9.13l-33.64 7.22c-2 .43-3.5 1.58-3.5 3.5v15a3.51 3.51 0 003.5 3.5s10-.56 10 18.93a19.24 19.24 0 00.12 2.17c1.53 39.57 17.44 93.94 34.16 110.66 12.42 12.42 44.91 18.48 77.15 18.48 20.7 0 41.31-2.5 56.43-7.41 18.7-6.08 34.64-23 47.37-50.35a250.09 250.09 0 0016.28-48.42l.13-.54c.65-2.78 1.5-6.43 2.16-10.65s4.58-18.32 20.46-18.32a17.4 17.4 0 014.74.66zm-46.84 49.46l-.13.54c-10.73 46-29.56 77.54-50.35 84.3-16.36 5.31-41.64 7.58-66 5.91-26.1-1.79-42.55-7.37-47.29-12.1-14.23-14.24-31.36-78.17-24.37-112.33 4-19.76 33.69-21.65 72.23-23.7 40.68-2.16 75.14-.07 92.18 5.61 30.68 10.22 28.34 32.08 23.73 51.77z" fill="#222229"/></svg>