<svg xmlns="http://www.w3.org/2000/svg" width="400" height="800" viewBox="0 0 400 800"><title>left-tina</title><path d="M405.93,30.94c-3.33.06-5.15.21-5.15.21s-302-24.7-298.59,399.26c2.42,297.76,212.93,329.41,211.9,329.87l86.28-525.19s2,18,5.56,47.25Z" fill="#1e1e1e"/><path d="M412.5,178.55c-54.65-.68-110.44,10.23-128.06,32.71-51.87,66.24-76.88,148.55-95.09,230.68-4.82,21.77-2.58,43.42-1.73,65.7,2.83,74.75,68.56,145.64,98.49,214.2,22.84,52.31,76,71.3,126.39,66.58Z" fill="#f6a87b" stroke="#1e1e1e" stroke-miterlimit="10" stroke-width="8"/><path d="M372.1,689.88c3.44,2.44,35.95,24,66.42-.18" fill="none" stroke="#1e1e1e" stroke-linecap="round" stroke-miterlimit="10" stroke-width="8"/><path d="M169.59,325.92c-11.72,2.3-24.66,5.9-30.71,16.21-5.34,9.1-3.55,20.55-1.27,30.85a508.25,508.25,0,0,0,36.54,107c2.66,5.62,5.63,11.45,10.76,15,4.54,3.11,10.19,4,15.64,4.74a557.21,557.21,0,0,0,95.57,4.59c16.07-.62,33.61-2.58,44.95-14,8.59-8.64,51.31-118.88,28.66-154S231.06,313.88,169.59,325.92Z" fill="#fff" stroke="#1e1e1e" stroke-miterlimit="10" stroke-width="8"/><path d="M376.78,351.74c4.77-3,10.48-4,16.06-4.64a52,52,0,0,1,14.9-.14c4.91.83,9.74,3,13,6.75" fill="none" stroke="#1e1e1e" stroke-miterlimit="10" stroke-width="8"/><path d="M298.4,426.38a10.36,10.36,0,0,1-9.83-8.8,13.27,13.27,0,0,1,4.1-11.4,8.7,8.7,0,0,1,3.77-2.3c3.5-.93,7.29,1,9.42,4.85a10.83,10.83,0,0,1,1.3,7.9,8.3,8.3,0,0,1-1.52,5.85,8.91,8.91,0,0,1-7.14,3.9Z" fill="#1e1e1e"/><path d="M370.22,486.87s0,36,29.11,36,30.25-36,30.25-36" fill="none" stroke="#1e1e1e" stroke-linecap="round" stroke-miterlimit="10" stroke-width="8"/><path d="M242.42,283.89c32.23-8.27,75.26-3.93,97.83,5.81" fill="none" stroke="#1e1e1e" stroke-linecap="round" stroke-miterlimit="10" stroke-width="8"/><path d="M425.08,660.89a152.6,152.6,0,0,1-22,2c-15.79.5-32-.26-46.68-6A94.8,94.8,0,0,1,335.55,645a139.31,139.31,0,0,1-51.11-72.34c19.46,1.14,38.48,6,57.71,9.21a339.78,339.78,0,0,0,77,3.82C461.36,583.08,447.8,656.84,425.08,660.89Z" fill="#5a2d22"/><path d="M469.94,642.34c6.18-3.35-31.18-21.92-49.95-21.77-10.76.09-21.7,1.06-31.66,5.14-13.86,5.67-24.62,16.82-34.94,27.67C353.39,653.38,395.26,682.73,469.94,642.34Z" fill="#f67566"/><path d="M425.08,660.89a152.6,152.6,0,0,1-22,2c-15.79.5-32-.26-46.68-6A94.8,94.8,0,0,1,335.55,645a139.31,139.31,0,0,1-51.11-72.34c19.46,1.14,38.48,6,57.71,9.21a336.93,336.93,0,0,0,84.16,3.28C456.82,582.56,447.8,656.84,425.08,660.89Z" fill="none" stroke="#1e1e1e" stroke-linecap="round" stroke-miterlimit="10" stroke-width="8"/><path d="M420,620.57c-10.76.09-21.7,1.06-31.66,5.14-13.86,5.67-24.62,16.82-34.94,27.67" fill="none" stroke="#1e1e1e" stroke-linecap="round" stroke-miterlimit="10" stroke-width="8"/><path d="M405.93,174.84l-126.17,8.44s-24.94,68.54,9.87,82.14c25.62,10,86.14-44.43,116.3-73.87Z" fill="#1e1e1e"/><path d="M405.93,185.7c-10.63,14.52-48,69.17-17.93,80.93,4.52,1.76,10.67,1.49,17.93-.3Z" fill="#1e1e1e"/><ellipse cx="248.09" cy="202.7" rx="13.24" ry="36.91" transform="translate(-71.5 180.38) rotate(-35.26)" fill="#e8cf59"/></svg>