<svg xmlns="http://www.w3.org/2000/svg" width="400" height="800" viewBox="0 0 400 800"><path d="M411.43 22.49c-3.79-.11-7.6-.18-11.43-.18-209 0-378.52 169.47-378.52 378.52S191 779.35 400 779.35c3.83 0 7.64-.07 11.43-.18z" fill="#b28c3f"/><path d="M400 42.31h19.37l-.09 716.94-19.28.05A358.62 358.62 0 01260.46 70.48 356.19 356.19 0 01400 42.31m0-20c-209 0-378.52 169.47-378.52 378.52S191 779.35 400 779.35c3.83 0 35.48-.07 39.28-.18l.1-756.68c-3.8-.11-35.55-.18-39.38-.18z" fill="#997330"/><path d="M415.44 779q-7.68.3-15.44.31c-209 0-378.52-169.47-378.52-378.52S191 22.31 400 22.31q7.35 0 14.63.28" fill="none" stroke="#222229" stroke-miterlimit="10" stroke-width="8"/><path d="M411.43 86.62C401.21 87.9 391 89.44 380.85 91c-36.86 5.6-73.79 11.21-109.94 20.1-32.9 8.08-66.71 19.9-88.77 44.66-10.29 11.54-17.44 25.3-26.15 38-16.51 24-38.5 44.06-57.21 66.55S64.16 309.2 63.34 338C62 384.51 99.65 424.35 106 470.53c4.94 36.12-9.57 74.34 3.5 108.55 6.12 16 17.74 29.41 29.18 42.45 27.17 31 55.59 62.69 93.44 80.63 20.7 9.81 43.37 15.07 65.82 20.25 36.7 8.46 76.31 16.76 111.22 3 .77-.3 1.53-.62 2.29-.94z" fill="#ea2d2d"/><path d="M411.43 93.08a87.68 87.68 0 01-15 .4c-9.72-.9-52.63-9-80.68 6-26.18 14.07-45 39.5-72.69 50.57-28.27 11.3-63.86 6.84-86.86 26.3-22.79 19.29-23.32 53.42-33.86 81.27-7.43 19.63-20.32 36.85-26.89 56.8-8.31 25.23-5.93 52.81-5.87 79.62.12 47.92-6.21 100.19 22 140.33 25.83 36.69 74.23 67 100.19 103.62 8.74 12.34 14.52 26.48 23.59 38.6 21.64 28.89 58.36 28.16 92.64 39.75 21 7.09 42.14 14.23 64 16.65a162.63 162.63 0 0019.44 1z" fill="#ffd56c"/><path d="M307.51 503s-34.7 8.33-67-38.59" fill="none" stroke="#369e23" stroke-miterlimit="10" stroke-width="7"/><circle cx="294.78" cy="204.87" r="48.48" fill="#aa1b1b"/><circle cx="159.82" cy="400.83" r="48.48" fill="#aa1b1b"/><circle cx="327.77" cy="610.95" r="48.48" fill="#aa1b1b"/><circle cx="307.51" cy="346.3" r="48.48" fill="#aa1b1b"/><path d="M411.43 419.76c-1-.06-2-.1-3.06-.1a48.48 48.48 0 000 97c1 0 2.05 0 3.06-.11z" fill="#aa1b1b"/><circle cx="386.23" cy="242.68" r="2.68" fill="#222229"/><circle cx="191.76" cy="253.35" r="2.68" fill="#222229"/><circle cx="261.8" cy="541.1" r="2.68" fill="#222229"/><circle cx="170.7" cy="538.42" r="2.68" fill="#222229"/><circle cx="276.37" cy="408.1" r="2.68" fill="#222229"/><path d="M372.73 131.1s34 10.77 37.52 67.65M103.76 454.27s34 10.77 37.52 67.65M288.09 236.37s-12.78 33.31-69.76 33.41" fill="none" stroke="#369e23" stroke-miterlimit="10" stroke-width="7"/><circle cx="408.37" cy="679.77" r="13.04" fill="none" stroke="#222229" stroke-miterlimit="10" stroke-width="10"/><circle cx="179.06" cy="210.29" r="13.04" fill="none" stroke="#222229" stroke-miterlimit="10" stroke-width="10"/><circle cx="229.06" cy="590.42" r="13.04" fill="none" stroke="#222229" stroke-miterlimit="10" stroke-width="10"/><circle cx="253.21" cy="362.7" r="13.04" fill="none" stroke="#222229" stroke-miterlimit="10" stroke-width="10"/></svg>