<svg xmlns="http://www.w3.org/2000/svg" width="400" height="800" viewBox="0 0 400 800"><title>left-skull</title><path d="M405,17.74c-1,0-2,0-3-.06a1.66,1.66,0,0,0-.32,0H398a1.84,1.84,0,0,0-.33,0c-70.44.84-140.69,24.68-195.18,63-27.78,19.53-45.54,40.45-61,65.29-16.38,26.29-26.26,54-26.26,82.24,0,50.53,11.65,120.69,36.3,183.1l.3-.12c-2.44,5-5.21,10.14-8.34,15.29-11.6,19.08-12.85,43.32-3.33,64.85s28.39,37.78,52.87,46V706.44a2.11,2.11,0,0,0,.94,1.75l150.44,72.43a2.12,2.12,0,0,0,1.15.34H405Z" fill="#f9f9f9"/><path d="M405,58.28V17.9C273.47,16.63,156.35,89.63,124.42,177.21c-25.21,71.73,4,169.73,26.47,232.59q2.07-3.23,3.94-6.57c-26.14,72-23.36,109.93,38.14,134.33v28.22c2.15,67.5-6.47,143.36,8.16,147.17,7.37,4.72,144.81,66.27,144.81,66.27l39.42.72s-185.24-110.51-126.81-197l9.8,15.66,21.76-2.89c9.3-75.64-80.69-85.37-96.58-135.1s24.37-102.84,7.29-140.48C122,146.56,263.09,57.37,405,58.28Z" fill="#c9c9c9"/><polyline points="405.34 779.22 345.94 779.22 195.51 706.79 195.51 535.75" fill="none" stroke="#222229" stroke-linejoin="round" stroke-width="8"/><path d="M167,299.24s20.11,60.45-21.36,128.64c-23.94,39.38-1.78,99,62.31,111.43s62.82,82.63,62.82,82.63" fill="none" stroke="#222229" stroke-linecap="round" stroke-linejoin="round" stroke-width="8"/><path d="M398.39,20.09h3.8c-146.89,0-284.48,93.33-284.48,208.44,0,46.72,10,116.23,36.15,182.34" fill="none" stroke="#222229" stroke-linejoin="round" stroke-width="8"/><path d="M370.67,632.23V597.61a14.73,14.73,0,0,1,14.69-14.69h0a14.74,14.74,0,0,1,14.7,14.69v34.1Z" fill="none" stroke="#222229" stroke-linejoin="round" stroke-width="8"/><path d="M400.06,632.23V597.61a14.73,14.73,0,0,1,14.69-14.69h0a14.73,14.73,0,0,1,14.69,14.69v34.1Z" fill="none" stroke="#222229" stroke-linejoin="round" stroke-width="8"/><path d="M370.67,632.23v-29.3A14.74,14.74,0,0,0,356,588.23h0a14.74,14.74,0,0,0-14.7,14.7v28.78Z" fill="none" stroke="#222229" stroke-linejoin="round" stroke-width="8"/><path d="M341.28,630.66V606.59a14.74,14.74,0,0,0-14.69-14.7h0a14.75,14.75,0,0,0-14.7,14.7v23.55Z" fill="none" stroke="#222229" stroke-linejoin="round" stroke-width="8"/><path d="M311.89,625.87V608A10.92,10.92,0,0,0,301,597.12h0A10.92,10.92,0,0,0,290.11,608v17.46Z" fill="none" stroke="#222229" stroke-linejoin="round" stroke-width="8"/><path d="M289.06,622.27v-15a9.16,9.16,0,0,0-9.13-9.13h0a9.16,9.16,0,0,0-9.14,9.13v14.64Z" fill="none" stroke="#222229" stroke-linejoin="round" stroke-width="8"/><path d="M429.44,632.23v34.62a14.73,14.73,0,0,1-14.69,14.69h0a14.73,14.73,0,0,1-14.69-14.69v-34.1Z" fill="none" stroke="#222229" stroke-linejoin="round" stroke-width="8"/><path d="M400.06,632.23v34.62a14.74,14.74,0,0,1-14.7,14.69h0a14.73,14.73,0,0,1-14.69-14.69v-34.1Z" fill="none" stroke="#222229" stroke-linejoin="round" stroke-width="8"/><path d="M370.67,632.23v29.3A14.73,14.73,0,0,1,356,676.23h0a14.74,14.74,0,0,1-14.7-14.7V632.75Z" fill="none" stroke="#222229" stroke-linejoin="round" stroke-width="8"/><path d="M341.28,630.66v24.08a14.73,14.73,0,0,1-14.69,14.69h0a14.74,14.74,0,0,1-14.7-14.69V631.18Z" fill="none" stroke="#222229" stroke-linejoin="round" stroke-width="8"/><path d="M311.89,625.87V643.6A10.89,10.89,0,0,1,301,654.42h0a10.89,10.89,0,0,1-10.89-10.82V626.25Z" fill="none" stroke="#222229" stroke-linejoin="round" stroke-width="8"/><path d="M289.06,622.27v15a9.16,9.16,0,0,1-9.13,9.13h0a9.16,9.16,0,0,1-9.14-9.13V622.59Z" fill="none" stroke="#222229" stroke-linejoin="round" stroke-width="8"/><line x1="290.11" y1="578.77" x2="290.11" y2="603.17" fill="none" stroke="#222229" stroke-linecap="round" stroke-linejoin="round" stroke-width="8"/><line x1="311.89" y1="578.77" x2="311.89" y2="603.17" fill="none" stroke="#222229" stroke-linecap="round" stroke-linejoin="round" stroke-width="8"/><line x1="341.28" y1="572.32" x2="341.28" y2="603.17" fill="none" stroke="#222229" stroke-linecap="round" stroke-linejoin="round" stroke-width="8"/><line x1="370.67" y1="572.32" x2="370.67" y2="603.17" fill="none" stroke="#222229" stroke-linecap="round" stroke-linejoin="round" stroke-width="8"/><line x1="400.06" y1="564.67" x2="400.06" y2="603.17" fill="none" stroke="#222229" stroke-linecap="round" stroke-linejoin="round" stroke-width="8"/><path d="M353.41,356.22c-10.17-26.61-37.38-36-63.9-36.11s-59.51,7.05-69.18,35.53c-3.64,10.71-10.37,77.28,29.6,82.7,58,15.57,76.59-4.4,80.89-14.94C364.4,424.31,358.18,368.69,353.41,356.22Z" fill="#222229"/><path d="M356.76,373.64c0,.14-5.64,29.65-33.46,39.23-10.83,3.72-7.46,17.31-45.44,16.59s-58.37-30.41-59.71-37.23c-.12-.6-.22-1.21-.33-1.82,1.55,21.35,9.07,44.79,32.1,47.91,58,15.57,76.59-4.4,80.9-14.94C355.39,424.05,358.65,394.46,356.76,373.64Z" fill="#5e5e5e"/><path d="M382.59,400.93c-8.41-12.43-38.61,33.47-59.14,45.72s-47.3,11.62-40.16,23.09,28.59,2.29,36.27,16.32c23.05,70.63,21.87-14.08,29.87-35.76S391,413.36,382.59,400.93Zm-92.26,63.69c-.09.13-.11.09,0-.06S290.35,464.57,290.33,464.62Zm-.07.13-.07.12C290.21,464.82,290.19,464.87,290.26,464.75Zm.17-.31h0l-.06.11Zm-.25.43c0,.05,0,0-.08.14A.64.64,0,0,0,290.18,464.87Z" fill="#c9c9c9"/><path d="M405,416.88a23.1,23.1,0,0,0-5.6-.73c-19.13,0-45.53,28.2-45.53,63,0,22,17.84,51.79,23.19,52.62,12.48,1.94,21.82-11.61,27.31-13.45a6.42,6.42,0,0,1,.63-.15Z" fill="#222229"/></svg>