<svg xmlns="http://www.w3.org/2000/svg" width="400" height="800" viewBox="0 0 400 800"><path d="M402.19 37.47c-3.6-2.12-18.34-10.83-48-16.39-45-8.44-80.66-5.44-105.93 8.91-21.47 12.19-34.84 32.46-39.78 60.26-9.93 2.61-44.59 13.61-63.12 43.87-12.47 20.38-14.88 45.11-7.17 73.52 0 .08.06.15.08.23-.89.58-1.8 1.18-2.7 1.8-14.5 8-30 20.45-39.25 39.77C83.14 277 84 309.69 98.79 346.52l.06.13a465.54 465.54 0 00.51 46.56c3.18 52.18 17.17 129.53 65.66 202a214 214 0 0069.18 128.11c45 40.38 106.51 62.62 173.07 62.62 0 0-3.02-749.4-5.08-748.47z" fill="#26cbff"/></svg>