<svg width="600" height="200" viewBox="0 0 600 200" xmlns="http://www.w3.org/2000/svg"><title>Untitled 2</title><g id="Page-1" fill="none" fill-rule="evenodd"><g id="logo-humanjs"><path fill="#FFF" d="M0 0h600v200H0z"/><g stroke-width=".5" stroke="#00B0E9" fill="#00B0E9"><path id="Shape" d="M295.8 97.9c-.1-.1-.2-.2-.2-.3 0 .1.1.2.2.3zM297.8 97c-.1 0-.1 0 0 0zM476.1 91.1c.4.5 1.1 1 1.5 1.6-.5-.6-1.1-1.1-1.5-1.6-.4.4-.9.8-1.3 1.2.4-.4.9-.8 1.3-1.2zM296.1 94.6c.1.2.1.4.2.6 0-.2-.1-.4-.2-.6zM296 93.7c0 .3.1.5.1.7 0-.2-.1-.4-.1-.7zM56.9 93.8c-.1 0-.3-.1-.4-.1-.1-1-.2-2-.2-3 0-2.4-1.1-4-3.2-5.2-3.8-2.3-7.2-1-10.3 1.1-3.4 2.3-6.3 5.3-9.5 7.9-.5.4-1.3.5-1.9.8-.1-.6-.4-1.3-.3-1.9.2-5.9.3-11.8.7-17.7.3-5.4.9-10.7 1.5-16 .2-2.4-.6-4-2.9-4.6-.8-.2-2.1-.1-2.5.4-.4.5-.1 1.7.1 2.5.2 1.2.8 2.5.7 3.7-.6 6.8-1.5 13.5-1.9 20.3-.6 9-.8 18-2.8 26.9-.2.9-.4 2.1 0 2.8.8 1.3 2.1 2.3 3.2 3.4.9-.9 1.9-1.8 2.6-2.8.5-.7.6-1.6.9-2.5 1.1-3.5 2.2-7 4.7-9.8 2-2.2 4-4.4 6.2-6.4 1.6-1.5 3.4-2.9 5.4-3.8 2.8-1.3 4.6 0 4.4 3.1-.2 2-.8 4.1-1.7 6-1.8 3.7-3.5 7.5-3.8 11.7-.2 1.8.7 3.1 2.2 3.5 1.3.3 2.9-.1 4.1-.6.9-.4 1.4-1.6 2.1-2.4.7-.9.8-1.7-.2-2.5-1.1-.9-1-1.9-.6-3.3 1.3-3.9 2.3-7.7 3.4-11.5zM579.5 66c-4.4.8-8.8 1.7-13.2 2.7L551.6 72c-1.8.4-3.6.9-5.4 1.1-.4.1-1.5-.8-1.4-1.1.2-2.3.4-4.7 1-7 .9-3.8.5-5.1-3.1-7.2-.3 1.5-.6 2.9-1 4.3-.2.9-.7 1.8-.8 2.7-.4 2.5-.6 5.1-.9 7.6-.2 1.5-1.1 2.2-2.6 2.4-4.4.3-8.8.7-13.2 1.2-.7.1-1.6.9-1.8 1.5-.4 1.6 1.1 2.9 3.4 2.9 3 0 6.1-.1 9.1-.2 3.6-.2 3.8.1 3.3 3.5-.8 5.7-1.7 11.4-2.4 17.1-.3 2.1-.6 4.3-.5 6.5.1 2.2.1 4.2-1.6 5.5.2 1.2.2 2.3.6 3.1.6.9 1.6 1.6 2.4 2.4.8-.9 2.1-1.7 2.2-2.7 1-7.2 1.7-14.4 2.4-21.5.4-3.8.8-7.7 1.3-11.5.2-2 1-3.4 3.1-4 6.8-1.9 13.6-3.8 20.4-5.8 4.2-1.3 8.4-2.7 12.5-4.1 1.4-.5 2.9-.9 4.5-1.4-.8-2.4-2.4-1.5-3.6-1.3zM507.6 82.9c-2.3 1.9-4.3 4.3-6.6 6.4-.6.6-1.6 1.2-2.4 1.2-1.9-.1-2.4.9-2.6 2.4-.1.6 0 1.2-.1 1.8-1.4 6.5-2.8 12.9-4.2 19.4-.3 1.5-.2 3.2-.6 4.7-1.7 5.4-1.6 10.9-1.8 16.4 0 1 1.4 2.1 2.1 3.2.8-.7 1.8-1.3 2.4-2.1.4-.5.6-1.4.7-2.1.6-4 1.2-8 1.7-12.1.4-3.5.6-7.1 1-10.7.3-3.1.9-3.6 3.9-3.1 8.7 1.4 14.1-2.6 18.1-10.3 1.2-2.4 1.5-5.3 2.1-7.6-.3-1.6-.2-2.7-.6-3.7-2.1-5.2-8.6-7.5-13.1-3.8zm7 13.4c-2.4 2.5-5.1 4.6-7.8 6.7-.8.7-1.9 1-2.9 1.4-3.3 1.1-4.8-.1-4.4-3.5.4-4.4 2.2-8.2 5.4-11.4 1.4-1.4 2.3-3 4.5-3.6 3.8-1.1 7.6-.3 7.7 5.6-.9 1.6-1.3 3.6-2.5 4.8zM130.8 90.5c-1.6 1.4-3 3-4.5 4.4-.4.4-.9.8-1.8 1.6-.5-2.9-.9-5.1-1.2-7.4-.6-4.1-4.3-6.2-7.9-4.3-1.6.8-2.9 2.1-4.2 3.4-1 1-1.9 1.7-3.3.9-1.4-.8-2.2-.1-2.5 1.3-.2 1.2-.3 2.4-.5 3.6-.6 3.2-1.3 6.4-1.9 9.6-.4 2.1.8 4.1 2.7 4.6 2.3.5 2.6-1.4 3.2-2.8.2-.5.2-1.1.4-1.6 1.3-4.8 3.3-9.3 6.3-13.3.5-.6 1.4-1.1 2.2-1.2.3 0 .9 1.1 1.2 1.8.3.8.5 1.8.3 2.6-.9 3.9-1.8 7.9-3.1 11.8-.7 2.3-.9 2.6 1.5 4 2 1.2 2.6 1 4-.9 3.1-4 6.3-8 9.5-11.9.4-.5 1.2-.6 1.8-.9.2.6.5 1.3.5 1.9-.3 2.2-.7 4.4-1.2 6.5-.4 1.8.3 3.9 1.7 4.3 1.9.5 3.1-.5 3.6-2.8.1-.7.2-1.3.3-2 .6-3.7 1.3-7.4-.2-11.1-1.2-3.4-4.3-4.4-6.9-2.1zM178.2 110.5c-.2-.2-.7 0-1-.1-2.5-.5-3.8-2.3-3.5-4.9.1-.6.2-1.2.4-1.8.6-2.1 1.3-4.3 1.9-6.4.4-1.6-.3-2.8-1.6-3.4-1.4-.6-2.5.2-3.1 1.5-.2.4-.5.8-.8 1.2-2.8 3.1-5.4 6.4-8.5 9.2-2.3 2.1-5.2 3.5-8 5-2.1 1.1-3.2.2-2.9-2.1.1-.9.5-1.8.9-2.7 2.5-5.1 6.3-9.1 10.5-12.7.7-.6 1.7-.9 2.7-1.4.5.9.8 1.5 1.1 2l1.8.3c1.9.4 2.4 0 2.4-1.9 0-2.6-1.9-5.1-4.8-6.1-2.2-.8-4.7.2-6.7 2.3-4.6 5.1-8.1 11-11.4 17-2 3.7-1.5 5.1.9 8.8 1 1.6 2.5 1.9 4.3 1.5 3.6-.8 6.9-2.2 9.5-5.1 1.8-2 4-3.5 6.3-5.5.3.9.6 1.4.7 2 1 4.1 4.4 6.6 8.7 6 .7-.1 1.3-.6 2-1-.7-.5-1.2-1.2-1.8-1.7zM267.3 92.5c.6.9 1.6 1.8 1.6 2.7.1-.9-.7-2.7-1.6-2.7zM269 95.1c0-.9-1-1.8-1.6-2.7-.8.5-2 .8-2.2 1.5-.8 2-1.7 4.1-1.8 6.2-.2 8-.1 16-.1 23.4-.4 2.7-.8 4.6-1 6.5-.5 5.5-2.5 10.4-5.8 14.8-.5.7-1.6 1.1-2.3 1.6-.4-1-.9-1.9-1.1-2.9-.2-1.2 0-2.6-.3-3.8-.1-.6-.8-1.4-1.3-1.5-.5-.1-1.5.6-1.6 1.1-.4 1.5-.6 3.1-.6 4.6.2 3.7 1.6 6.9 4.6 9.3 1 .8 1.7.7 2.4-.1 1.2-1.3 2.4-2.6 3.4-4 3.3-4.5 5.9-9.4 7-14.8 1.4-7.1 1.5-14.4 1.3-21.7-.1-3.2-.2-6.5 0-9.7.1-2.5.8-5.1 1-7.8zM91.6 84.1c-1.5-.6-2.9-.7-3.9 1-1.5 2.7-2.8 5.6-4.6 8-2.8 3.6-5.9 6.9-9 10.2-1 1.1-2.6.6-2.7-.8-.2-2.9-.4-5.9.1-8.7.5-3.1.6-3.9-2.5-6.4-.6 1.7-1.4 3.2-1.6 4.8-.7 4.1-1.3 8.1-.5 12.3.7 3.6 4.8 6.6 7.8 4.4 2-1.5 3.5-3.7 5.2-5.5.7-.8 1.5-1.4 2.5-2.4.7 3 1.1 5.1 1.7 7.3.8 3 2.8 4.9 5.9 5.4.7.1 1.5-.5 2.2-.7-.4-.7-.7-1.5-1.3-2-.7-.7-2.1-1.1-2.2-1.8-.5-2.8-1.2-5.7-.6-8.3 1.1-4.7 3.1-9.1 4.7-13.6.4-1.6.2-2.7-1.2-3.2zM370.4 103.2c.6-1.3 1.2-2.6 1.7-3.9.5-1.4.8-2.9-.9-3.7-1.8-.9-3.3.2-4 1.4-2.5 4.8-7.1 7.2-11.4 9.9-1.5.9-3.6 1.1-5.4 1.4-.5.1-1.6-1-1.5-1.3.6-1.9.9-4.2 2.2-5.5 2.2-2.2 4.9-4.1 7.7-5.5 1.4-.7 3.4-.1 5.2-.1.9 0 1.8.2 2.7.3-.1-1 .1-2.3-.4-3-2-2.8-7-3.8-9.8-1.7-4.7 3.5-9.4 7.2-11.7 13-.5 1.3-1.1 2.9-.8 4.2.7 3.7 4.5 5.4 8.5 4.4 3.4-.8 6.1-2.8 8.8-4.8 2.3-1.8 2.6-1.7 4.4.6 1.9 2.5 5.5 2.7 8.1.2-.7-.5-1.2-1-1.9-1.3-2.1-1.3-2.5-2.4-1.5-4.6z"/><path d="M300.4 107.2c.8-2.1 1.5-4.2 2-5.8 0-2-.3-2.8-1.3-3.2-.2-.1-1.6-.5-1.7-.5-1.1-.1-2.6 2.4-3.8 4.4-1.9 3.4-4.8 5.9-8.5 7.3-2.1.8-4.1-.7-3.9-3.7 0-2.6 2.3-4.9 3.9-7.6.3-.6.7-1.2 1-1.8.9-2 2.8-3.2 4.9-2.9.4 0 .9.4 1.1.7.1.1.1.3.2.4v.1c.1.1.1.3.2.4v.1c0 .1.1.3.1.4.1.2.1.3.2.5v.1c.1.1.1.3.2.4.1.1.1.3.2.4v.1c.1.1.1.3.2.4 0 0 0 .1.1.1.8 1.2 1.4.6 1.4.3.1-.4.1-1.1-.4-2.1-.2-.6-.7-2.9-.7-3.2-.1-3.3-2.6-4.8-5.4-3.1-1.5.9-2.9 2-4.1 3.3-3.9 3.8-7.2 7.8-7.7 13.6-.4 4.6 4.6 9.9 9.5 7.8 1.2-.5 2.4-1.2 3.6-1.9 1.5-1 2.6-1.1 3.7.7 1.2 2 3.2 2.9 5.5 2.9.6 0 1.7-.6 1.8-1 .1-.7-.2-1.8-.7-2.3-2.3-1.8-2.6-2.6-1.6-5.3zM406.3 99.9c-3.2-2.8-7.2-2-10.8-2.6-1.9-.3-3.7-.5-5.6-.9-.5-.1-1.3-.7-1.3-1.1 0-.5.4-1.4.9-1.6 3.1-1.5 6.2-3.1 9.4-4.3.8-.3 2.2.4 2.9 1 .8.8 1.6 1.3 2.4.5.5-.5.8-1.8.5-2.4-.5-1-1.5-1.7-2.3-2.5-2.1-1.9-6.2-2.2-8.4-.5-3 2.3-5.8 4.6-8.8 6.9-1.4 1-2.2 2.3-1.9 4 .3 1.9 1.3 3.6 3.3 4 3.3.5 6.6.6 9.8 1.2 1.3.2 2.6 1.2 3.8 1.8-1.1.7-2.2 2-3.4 2.1-3.4.2-5 2.5-6.4 4.9-.4.6-.4 1.9 0 2.3.6.6 1.9 1.2 2.6.9 5.6-1.9 10.4-5.1 14-9.9 1-1.6.6-2.6-.7-3.8zM212.7 94.5c-.5-.8-1.2-1.8-1.9-1.9-3.8-.6-7.7-1.8-11.1 1.4-.8.8-1.9 1.3-3 1.7-.7.3-1.8.4-2.4 0-2.1-1.3-3-.9-3.5 1.6-.7 3.3-1.5 6.6-2.3 9.9-.2.8-.4 1.6-.5 2.4-.2 1.7 1.5 3.7 3.2 3.8 1.7.2 2.7-1 3.1-3 .4-1.7.9-3.4 1.5-5 1.3-3.7 4.4-5.8 7.3-7.9 1.2-.8 3.3-1.1 4.5-.6.8.4 1.4 2.7 1.2 3.9-.4 2.4-1.3 4.8-2.2 7.1-.7 2-.3 5.2 1.4 6.4 1.7 1.2 3.5.8 5.4-.7-2-2.7-1-5.4-.2-8.2.9-3.5 1.7-7.3-.5-10.9zM340.9 89.3c-1-.2-2.4 0-3.1.6-1.8 1.4-3.3 3.2-5 4.8l-7.3 7.3c-.2-.1-.5-.2-.7-.2-.1-.8-.3-1.5-.3-2.3-.1-2.9 0-5.8-.3-8.7-.1-.7-1.4-1.7-2.1-1.7-.8 0-2 1.1-2.1 1.8-.4 2.9-.6 5.9-.6 8.9 0 2.5.2 5 .4 7.5.2 1.6.4 3.2.9 4.7.6 1.9 3.4 2.2 4.5.4 2.2-3.5 4.5-6.9 7-10.3 2.3-3.1 4.7-6.1 8.4-7.8 1-.5 1.8-1.8 2-2.9.2-.5-.9-1.9-1.7-2.1zM463.2 81.2c-3 2-5.7 4.4-8.4 6.7-1.3 1.1-2.3 2.2-3.9.6-.7-.7-1.5-1.8-2.5-.9-.8.7-1.4 1.8-1.5 2.8-.7 4.9-1.4 9.8-1.8 14.7-.1 1.2.9 2.6 1.8 3.6.4.4 2 .5 2.3.1 1-1.1 2.1-2.5 2.2-3.8.4-3.9 1.9-7.5 4-10.6 3.2-4.9 7.2-9.2 12.3-12.2.6-.4 1-1.2 1.4-1.8-2.5-1.5-4.4-.2-5.9.8zM436 101.3c-3.8.8-7.5 1.8-11.3 2.2-2.6.3-4.5-2.4-3.7-5 .4-1.4 1.3-2.7 1.8-4.2 1.3-3.5 5.1-5.6 8.7-4.6.6.2 1.3-.1 2-.1l-.3-.6c-.4-.7-.6-1.6-1.1-2.2-.5-.6-1.2-1.4-1.9-1.4-1.2 0-2.4.4-3.5.9-4.5 1.7-7.6 5-9.5 9.3-.8 1.7-1.6 3.6-1.5 5.3.3 3.6 4.2 6.5 7.8 6.8 6.1.5 11-2.4 15.8-5.5.4-.3.6-.9.9-1.3-1.6-.2-2.9.1-4.2.4zM477.6 92.6c-.5-.5-1.1-1-1.5-1.6-.4.4-.9.8-1.3 1.2-.1.1-.1.1-.1.2-.1.2-.2.3-.2.5-1 4.6-1.7 9.1-2.6 13.7-.1.7-.2 1.3-.4 2.2.1.2.2.7.4 1.1.6 1.2 1.8 2.2 2.9 1.6 1-.5 2-1.9 2.2-3 .7-4.9 1.1-9.8 1.4-14.7 0-.2-.1-.4-.2-.7-.3-.1-.4-.3-.6-.5zM264.8 73.4c-1.2-.8-3.1-1.7-4.4 0 1.3-1.7 2.9-.4 4.4 0zM263.2 78.7c2-1.2 1.5-3.2 1.6-5.2-1.6-.4-3.1-1.7-4.4 0-1.4 1.9.6 3 1.4 4.4.3.4 1.2.9 1.4.8zM483.1 77.1c-1 .5-1.7.9-2.4 1.2.3.6.6 1.2 1 1.8.4.5.9 1 1.3 1.5 1 1 2.3.8 3.1 0 .4-.5.2-2-.2-2.6-.6-.9-1.8-1.3-2.8-1.9zM294.3 94.7c.1.1.1.3.2.4M295 96.6s.1.1 0 0M294.1 94.2c.1.1.1.3.2.4M295.5 97.5c0 .1 0 .1 0 0M294.5 95.2c0 .1.1.3.1.4" id="Shape"/><path d="M294.8 96.1c.1 0 .1.1 0 0"/></g></g></g></svg>