<?xml version="1.0" encoding="utf-8"?>
<!-- Generator: Adobe Illustrator 19.1.0, SVG Export Plug-In . SVG Version: 6.00 Build 0)  -->
<svg version="1.1" id="Layer_1" xmlns="http://www.w3.org/2000/svg" xmlns:xlink="http://www.w3.org/1999/xlink" x="0px" y="0px"
	 width="376px" height="123.3px" viewBox="-561 189.7 376 123.3" style="enable-background:new -561 189.7 376 123.3;"
	 xml:space="preserve">
<style type="text/css">
	.st0{fill:#00B0E9;}
</style>
<g>
	<path id="path2998" class="st0" d="M-468.6,233.2h-43.8v13h31.1c-1.5,18.3-16.7,26-31.1,26c-18.3,0-34.3-14.4-34.3-34.7
		c0-19.7,15.3-34.9,34.4-34.9c14.8,0,23.5,9.4,23.5,9.4l9.1-9.4c0,0-11.7-13-33-13c-27.3,0.1-48.3,23-48.3,47.8
		c0,24.3,19.8,47.9,48.9,47.9c25.6,0,44.3-17.5,44.3-43.5C-467.8,236.4-468.6,233.2-468.6,233.2L-468.6,233.2z"/>
	<path id="path3000" class="st0" d="M-432.6,223.8c-18,0-30.9,14.1-30.9,30.5c0,16.7,12.5,31,31.1,31c16.8,0,30.6-12.9,30.6-30.6
		C-401.8,234.3-417.8,223.8-432.6,223.8L-432.6,223.8z M-432.4,235.9c8.9,0,17.2,7.2,17.2,18.7c0,11.3-8.4,18.7-17.3,18.7
		c-9.8,0-17.6-7.9-17.6-18.7C-450,243.8-442.4,235.9-432.4,235.9L-432.4,235.9z"/>
	<path id="path3005" class="st0" d="M-365.4,223.8c-18,0-30.9,14.1-30.9,30.5c0,16.7,12.5,31,31.1,31c16.8,0,30.6-12.9,30.6-30.6
		C-334.6,234.3-350.6,223.8-365.4,223.8L-365.4,223.8z M-365.2,235.9c8.9,0,17.2,7.2,17.2,18.7c0,11.3-8.4,18.7-17.3,18.7
		c-9.8,0-17.6-7.9-17.6-18.7C-382.8,243.8-375.2,235.9-365.2,235.9L-365.2,235.9z"/>
	<path id="path3007" class="st0" d="M-299.5,223.8c-16.5,0-29.5,14.5-29.5,30.8c0,18.5,15.1,30.8,29.2,30.8c8.8,0,13.4-3.5,16.9-7.5
		v6.1c0,10.6-6.4,17-16.2,17c-9.4,0-14.1-7-15.7-10.9l-11.8,4.9c4.2,8.9,12.6,18.1,27.6,18.1c16.4,0,29-10.3,29-32.1v-55.3h-12.9
		v5.2C-286.9,226.6-292.3,223.8-299.5,223.8L-299.5,223.8z M-298.3,235.9c8.1,0,16.4,6.9,16.4,18.7c0,12-8.3,18.6-16.6,18.6
		c-8.8,0-17-7.2-17-18.5C-315.5,242.9-307,235.9-298.3,235.9L-298.3,235.9z"/>
	<path id="path3011" class="st0" d="M-212.7,223.8c-15.6,0-28.7,12.4-28.7,30.7c0,19.4,14.6,30.8,30.2,30.8c13,0,21-7.1,25.8-13.5
		l-10.6-7.1c-2.8,4.3-7.4,8.5-15.1,8.5c-8.6,0-12.6-4.7-15.1-9.3l41.2-17.1l-2.1-5C-191.1,232-200.4,223.8-212.7,223.8L-212.7,223.8
		z M-212.2,235.6c5.6,0,9.7,3,11.4,6.6l-27.5,11.5C-229.5,244.8-221.1,235.6-212.2,235.6L-212.2,235.6z"/>
	<path id="path3015" class="st0" d="M-261,283.5h13.5v-90.6H-261V283.5z"/>
</g>
</svg>
