<?xml version="1.0" encoding="utf-8"?>
<!-- Generator: Adobe Illustrator 19.1.0, SVG Export Plug-In . SVG Version: 6.00 Build 0)  -->
<svg version="1.1" id="Layer_1" xmlns="http://www.w3.org/2000/svg" xmlns:xlink="http://www.w3.org/1999/xlink" x="0px" y="0px"
	 width="207.9px" height="98.2px" viewBox="472.6 -45.3 207.9 98.2" style="enable-background:new 472.6 -45.3 207.9 98.2;"
	 xml:space="preserve">
<style type="text/css">
	.st0{fill:#00B0E9;}
	.st1{fill:#EE0788;}
</style>
<title>Untitled 2</title>
<g id="Page-1">
	<g id="logo-lift">
		<g id="Shape">
			<path class="st0" d="M560.2,48.7c-1.1-0.4-2.2-1.1-2.8-1.9c-0.6-0.8-1.1-2-1.3-3.5c-0.2-1.7-0.2-3.7-0.2-6.3v-81.6L534.4-42v3.3
				h0.9c4.6,0,6.3,0.9,6.9,1.7c0.9,1.3,1.5,3.5,1.5,6.7v67.1c0,2.6,0,4.6-0.2,6.3c-0.2,1.5-0.6,2.8-1.1,3.5
				c-0.6,0.7-1.5,1.5-2.6,1.9c-1.3,0.4-3,0.7-5,0.9h-0.9v3.5h0.9c2.4-0.2,5-0.4,7.4-0.4c4.8-0.2,10.4-0.2,15.6,0
				c2.8,0,5.4,0.2,8,0.4h0.9v-3.5h-0.9C563.4,49.4,561.5,49.2,560.2,48.7L560.2,48.7z M595.9,49.2c-1.1-0.2-2.2-0.6-3-1.3
				c-0.7-0.6-1.1-1.3-1.5-2.4c-0.4-1.1-0.6-3-0.6-5V0.2l-22.1,1.5v3.5l0.7,0.2c2.2,0.2,3.9,0.7,5.2,1.3c1.1,0.6,2,1.5,2.6,2.4
				c0.6,0.9,0.9,2.2,1.1,3.7c0.2,1.7,0.2,3.5,0.2,5.6v22.1c0,2-0.2,3.9-0.6,5c-0.4,1.1-0.7,1.9-1.5,2.4c-0.7,0.6-1.7,0.9-2.6,1.3
				c-1.3,0.2-2.8,0.4-4.5,0.6h-0.9v3.5h0.9c2-0.2,4.1-0.4,5.9-0.4c1.9,0,3.9-0.2,5.9-0.2c3.2,0,6.3,0,9.5,0.2c3.2,0,6.3,0.2,9.5,0.4
				h0.9v-3.5h-0.9C598.8,49.6,597.2,49.4,595.9,49.2z M583.6-22.5c2.2,0,4.1-0.9,5.8-2.4c1.5-1.7,2.4-3.5,2.4-5.8
				c0-2.2-0.7-4.1-2.4-5.8c-1.5-1.7-3.5-2.4-5.8-2.4s-4.1,0.9-5.8,2.4c-1.5,1.7-2.4,3.5-2.4,5.8c0,2.2,0.7,4.1,2.4,5.8
				C579.5-23.4,581.4-22.5,583.6-22.5z M679.1,38.4l-0.7,0.7c-1.7,1.7-3.5,3.2-5.2,4.3c-1.7,1.1-3.7,1.7-6.1,1.7
				c-1.1,0-2-0.2-2.6-0.6c-0.6-0.4-1.1-0.9-1.5-1.7c-0.4-0.7-0.6-1.7-0.7-2.8c-0.2-1.1-0.2-2.2-0.2-3.3V4.8h18.4V0.3H662v-20.4h-3.5
				l-0.2,0.6c-0.7,2.2-1.7,4.6-2.8,7.2c-0.9,2.4-2.2,4.6-3.7,6.7c-1.3,1.9-3.9,3.9-6.1,4.8c-2,0.9-4.1,1.1-7.1,1.1h-12.8v-22.6
				c0-1.5,0.2-3.3,0.4-5.4c0.4-2,0.9-3.9,1.7-5.8c0.7-1.9,1.9-3.3,3.3-4.6c1.3-1.1,3-1.7,5-1.7c1.5,0,2.6,0.2,3.5,0.7
				c0.9,0.6,1.9,1.3,2.4,2c0.6,0.9,1.1,1.7,1.3,2.6c0.2,0.9,0.4,1.7,0.4,2.2c0,3.2,0.4,5,0.9,5.9c0.7,1.1,1.9,1.7,3.5,1.7
				c2.4,0,3.9-0.6,4.8-1.5c0.9-0.9,1.3-2.6,1.3-5c0-4.1-1.7-7.2-4.8-9.7c-3.2-2.4-7.1-3.5-11.5-3.5c-4.5,0-8.5,1.1-11.7,3.5
				c-3.2,2.2-5.8,5.2-7.6,8.5c-1.9,3.3-3.3,7.1-4.1,10.8c-0.9,3.9-1.3,5.9-1.3,9.1V0.1h-5.6l-1.3,4.5h6.9v32.5c0,2,0,3.7-0.2,5.4
				c-0.2,1.5-0.6,2.8-1.1,3.7c-0.6,0.9-1.5,1.7-2.6,2.2c-1.1,0.6-2.8,0.9-5,0.9h-0.9v3.5h0.9c2.8-0.2,5.6-0.4,8.4-0.4
				c5.6-0.2,12.1-0.2,17.6,0c3,0,6.1,0.2,9.1,0.4h0.9v-3.5h-0.9c-3.5,0-6.3-0.4-8.2-1.1c-1.9-0.6-3.2-1.3-4.1-2.4
				c-0.9-1.1-1.5-2.2-1.7-3.7s-0.4-3.3-0.4-5.4V4.8h23.8v36.4c0,3.3,0.7,6.1,2,8.5c1.5,2.6,4.3,3.9,8.4,3.9c2.2,0,4.3-0.4,6.3-1.1
				c1.9-0.7,3.7-1.7,5.4-2.8c1.7-1.1,3.2-2.4,4.6-3.9c1.5-1.3,3-2.8,4.5-4.1l0.7-0.6L679.1,38.4L679.1,38.4z"/>
		</g>
		<path class="st1" d="M493.3-45.3h12.1l20.1,44.9h-14.1L499.5-29L486.7-0.4h-14.1L493.3-45.3L493.3-45.3z"/>
	</g>
</g>
</svg>
