<?xml version="1.0" encoding="utf-8"?>
<!-- Generator: Adobe Illustrator 19.1.0, SVG Export Plug-In . SVG Version: 6.00 Build 0)  -->
<svg version="1.1" id="Layer_1" xmlns="http://www.w3.org/2000/svg" xmlns:xlink="http://www.w3.org/1999/xlink" x="0px" y="0px"
	 width="223px" height="231px" viewBox="-638 135 223 231" style="enable-background:new -638 135 223 231;" xml:space="preserve">
<style type="text/css">
	.st0{fill:#00B0E9;}
	.st1{fill:#FFFFFF;}
</style>
<title>Untitled 2</title>
<g>
	<path class="st0" d="M-426.8,251.1c9.6-8.6,13.8-22.4,9.6-35.5c-4.2-12.8-16.1-21.7-28.7-23.3l-142.7-4.5l-20.2,89.1
		c0,0,1.5,32.5,1.2,32.5c-2.5,12.5,2,26.5,13,34.5c11.2,8.1,25.6,8.4,36.8,1.9c5.3,11.8,17.1,20.1,30.9,20.1
		c13.8,0,25.7-8.2,30.9-20c11.2,6.5,25.7,6.2,36.8-1.9c11.2-8.1,15.9-21.7,13.2-34.3c12.9-1.3,24.4-10,28.7-23.1
		C-412.9,273.5-417.1,259.7-426.8,251.1L-426.8,251.1z"/>
	<path class="st0" d="M-445.9,192.3c2.3-12.4-2.2-26.4-13.1-34.3c-11.2-8.1-25.6-8.4-36.8-1.9c-5.2-11.8-17.1-20.1-30.9-20.1
		c-13.8,0-25.6,8.2-30.9,20.1c-11.2-6.5-25.7-6.2-36.8,1.9c-11.2,8.1-15.9,21.7-13.2,34.4c-12.9,1.3-24.4,10-28.7,23.2
		c-4.3,13.1-0.1,26.9,9.6,35.6c-9.6,8.6-13.8,22.5-9.6,35.6c4.2,12.9,16.2,21.5,28.9,23l51.2-89.4L-445.9,192.3L-445.9,192.3z"/>
	<path class="st1" d="M-462.8,281.3h-105l-5.2,28h-34.8l22.4-117h139.6L-462.8,281.3L-462.8,281.3z M-554.8,221.3l-6,29h69l6-29
		H-554.8z"/>
</g>
</svg>
