<svg id="Layer_1" data-name="Layer 1" xmlns="http://www.w3.org/2000/svg" viewBox="0 0 197 137"><defs><style>.cls-1{fill:#12abee;}.cls-2{fill:#e90090;}</style></defs><title>yes&amp;amp; logo</title><g id="Mj379s"><path class="cls-1" d="M34.28,47.89c-0.16.3-15.13,38.94-24.34,36.31-4.84-1.38-7.16-5.44-8.19-9.35C0.57,70.34.93,65.55,1.28,61c0.44-5.7.86-11.71,1.18-17.54C2.79,37.75,3.59,31.75,3,26.09a5.28,5.28,0,0,0-.63-1.52A6.37,6.37,0,0,1,2,23.81a0.4,0.4,0,0,1,.55-0.51,3,3,0,0,0,1.58.18,1.6,1.6,0,0,1,.58.24c3.41,1.2,6.81,3,8.89,6.11s1.23,6.32,1,9.71c-0.44,8.07-1.34,20.52-1.74,28.59C15.39,74.27,31,38.24,34.42,25.42c0.2-.74.33-1.49,0.53-2.23a1.63,1.63,0,0,0,.05-1,0.84,0.84,0,0,1,1-1.06,1.56,1.56,0,0,0,1.32.05,0.77,0.77,0,0,1,.29.08c3.63,0.65,7,2.87,8,6.59a21.67,21.67,0,0,1,.52,5.64c0,15.24-2.07,47.14-2,48,3.1-3.49,8.9-16,8.9-16C49.86,30.91,60,21,65,17s17.5,1.82,13.7,15.16c-1.95,6.84-12.12,26.34-14.06,30-0.7,1.32,1,9.22,3.45,10.49,7.3,3.78,22-37.14,24.24-43.76,0.21-.61.32-1.25,0.48-1.88a3,3,0,0,0-.38-1.66c-1-3.25-4.24-9.47-1.92-12.64s10,1.54,11.17,4.13a12.17,12.17,0,0,0,.47,1.16c1.21,2,.85,4.42.35,6.6-0.32,1.37-1.85,4.68-.92,6C114.22,49.25,116.09,66.53,115,72.27s-7.9,13.1-14,12.78c-6.62-.35-10.39-4.14-13.21-9.74-0.73-1.46.91-2,1.86-2.67l1.79,0.91a1.61,1.61,0,0,0,.25.09c4.09,1.26,7.81-.54,9.64-4.52,1.43-3.1,1.4-6.65,1.18-10.06-0.42-6.45-6.16-21.39-6.29-21.43S78.52,90.78,62.63,83.17c-2.23-1.07-6.5-8.49-5.84-9.17-0.18.19-8.12,15.88-12,20.35,0,0-2.6,18.93-6.72,32.13-2.49,8-5.77,9.95-9.91,9.52-6.22-.65-13.42-6.67-11.53-14.31C19.3,111,32.8,93.57,32.88,92.64c1.56-16.83,1.62-44.55,1.57-44.73H34.28ZM69.53,36.81c1.08-2.66,4-9.38,2.54-10.08s-3.51,6-4,7.51c-1.05,3.1-3.84,14.54-3.91,15.14C64.14,49.44,69,38,69.53,36.81ZM22.74,122.86c0.36,1,2.12,1.3,3.76-1.68,1-1.82,2.88-10.67,3.08-11.5a0.44,0.44,0,0,0-.35.16C27.91,111.79,21.82,120.18,22.74,122.86Z"/></g><path class="cls-2" d="M157.78,39.5l15.09,18.24,0.49-.54Q175.8,54.54,178,52c1.45-1.7,5.16-5.74,6.5-7.47l5.93,10.79q-1.52,2.17-4,5T180.53,67l15.53,19.17H180.31L172,75.87Q160.44,87.76,148,87.76a26.93,26.93,0,0,1-18.9-7.11A23.34,23.34,0,0,1,121.52,63q0-12.54,12.05-20.85l5.48-3.75a2.35,2.35,0,0,0,.38-0.27l0.76-.59q-8.3-8.85-8.3-17.43a18.27,18.27,0,0,1,5.54-13.79Q143.07,1,152,1q8.64,0,14.28,5.16a16.9,16.9,0,0,1,5.65,13A16.67,16.67,0,0,1,168.8,29Q165.76,33.37,157.78,39.5Zm-10,7.11L147,47.1q-7.76,5.38-10.59,8.63a10.51,10.51,0,0,0-2.77,6.9,14.31,14.31,0,0,0,13.74,13.73q7.32,0,16.88-9.61Zm2.72-16,1-.76c1.77-1.33,3.24-2.5,4.4-3.5a16.81,16.81,0,0,0,2.5-2.53A7.59,7.59,0,0,0,160,18.87a7,7,0,0,0-2.23-5.38,8.45,8.45,0,0,0-6-2.06,8.26,8.26,0,0,0-5.75,2.12,6.51,6.51,0,0,0-2.34,5.16A11.45,11.45,0,0,0,146.66,26l3.15,3.8A6.11,6.11,0,0,0,150.46,30.6Z"/></svg>