<?xml version="1.0" encoding="utf-8"?>
<!-- Generator: Adobe Illustrator 19.1.0, SVG Export Plug-In . SVG Version: 6.00 Build 0)  -->
<svg version="1.1" id="Layer_1" xmlns="http://www.w3.org/2000/svg" xmlns:xlink="http://www.w3.org/1999/xlink" x="0px" y="0px"
	 width="434.6px" height="116.7px" viewBox="-532 192.3 434.6 116.7" style="enable-background:new -532 192.3 434.6 116.7;"
	 xml:space="preserve">
<style type="text/css">
	.st0{fill:#00B0E9;}
</style>
<g>
	<g>
		<path class="st0" d="M-196.4,298.2c6.1,0.5,12.2,1,18.3,1.5V192.3h-18.3V298.2z M-490.7,258.3l-23.9-66H-532V309
			c6.1-0.9,12.2-1.7,18.3-2.5V243l21.2,60.9c6.7-0.8,13.3-1.5,20-2.2V192.3h-18.2V258.3z M-454.8,300c16.9-1.5,33.8-2.8,50.8-3.8
			v-18c-10.9,0.6-21.7,1.4-32.5,2.2v-27.3c7.1-0.1,16.4-0.3,24.7-0.2v-18c-6.6,0-17.2,0.1-24.7,0.2v-24.6h32.5v-18.2h-50.8V300z
			 M-392.3,210.5h19.2v84.3c6.1-0.2,12.2-0.4,18.3-0.6v-83.7h19.1v-18.2h-56.6V210.5z M-324,293.7h18.3v-41.6h24.8v-18h-24.8v-23.6
			h32.8v-18.2H-324V293.7L-324,293.7z M-97.4,192.3h-20.1l-13.2,30.7l-12-30.7h-19.8l21.3,54.9l-23.2,53.8c6.4,0.6,12.8,1.3,19.2,2
			l13.5-31.3l13.4,34.5c7,0.9,13.9,1.8,20.9,2.8l0,0l-23.8-61.5L-97.4,192.3z M-242.9,192.3h-18.3v102.3c16.6,0.6,33.2,1.4,49.7,2.5
			v-18c-10.4-0.7-20.9-1.3-31.4-1.8V192.3L-242.9,192.3z"/>
	</g>
</g>
</svg>
