<?xml version="1.0" encoding="utf-8"?>
<!-- Generator: Adobe Illustrator 19.1.0, SVG Export Plug-In . SVG Version: 6.00 Build 0)  -->
<svg version="1.1"
	 id="svg3743" sodipodi:docname="New document 3" inkscape:version="0.48.2 r9819" xmlns:dc="http://purl.org/dc/elements/1.1/" xmlns:inkscape="http://www.inkscape.org/namespaces/inkscape" xmlns:svg="http://www.w3.org/2000/svg" xmlns:rdf="http://www.w3.org/1999/02/22-rdf-syntax-ns#" xmlns:sodipodi="http://sodipodi.sourceforge.net/DTD/sodipodi-0.dtd" xmlns:cc="http://creativecommons.org/ns#"
	 xmlns="http://www.w3.org/2000/svg" xmlns:xlink="http://www.w3.org/1999/xlink" x="0px" y="0px" width="1000px" height="232.9px"
	 viewBox="-249 134.1 1000 232.9" style="enable-background:new -249 134.1 1000 232.9;" xml:space="preserve">
<style type="text/css">
	.st0{fill:#00B0E9;}
</style>
<sodipodi:namedview  id="base" inkscape:pageopacity="0.0" fit-margin-right="0.5" inkscape:window-y="-8" inkscape:window-x="-8" fit-margin-bottom="0.5" inkscape:window-maximized="1" inkscape:document-units="px" inkscape:window-width="1920" inkscape:window-height="1028" inkscape:pageshadow="2" inkscape:current-layer="layer1" showgrid="false" fit-margin-top="0.5" fit-margin-left="0.5" bordercolor="#666666" inkscape:cy="28.391303" inkscape:zoom="0.49497475" borderopacity="1.0" pagecolor="#ffffff" inkscape:cx="874.95827">
	</sodipodi:namedview>
<g id="layer1" transform="translate(1259.5404,-281.52527)" inkscape:groupmode="layer" inkscape:label="Layer 1">
	<path id="path3223" sodipodi:nodetypes="ccccccc" inkscape:connector-curvature="0" class="st0" d="M-521.8,419
		c7.7,1.3,12.8,6,12.8,14c0,2.7-1.1,6.4-1.8,9.6c-5.1,22.6-25.2,102.6-33.6,156l-7.8-7.8l24.7-164.2L-521.8,419z"/>
	<path id="path3201" sodipodi:nodetypes="cccc" inkscape:connector-curvature="0" class="st0" d="M-1021.4,440.8
		c-10.3,2.5-20.5,2.4-30.5,0l15.9,16.5L-1021.4,440.8z"/>
	<path id="path3193" sodipodi:nodetypes="cccc" inkscape:connector-curvature="0" class="st0" d="M-1179.9,440.8
		c10.3,2.5,20.5,2.4,30.5,0l-15.9,16.5L-1179.9,440.8z"/>
	<path id="path3181" sodipodi:nodetypes="ccccc" inkscape:connector-curvature="0" class="st0" d="M-1269.4,440.7
		c23.4,59.2,60.2,148.7,78.5,183l-27.1-8.3l-67.2-168L-1269.4,440.7z"/>
	<path id="path3175" sodipodi:nodetypes="cccc" inkscape:connector-curvature="0" class="st0" d="M-1290.7,440.7
		c7.5,2.5,13.7,2.7,21.3,0l-15.1,9.3L-1290.7,440.7z"/>
	<path id="path3177" sodipodi:nodetypes="cccccc" inkscape:connector-curvature="0" class="st0" d="M-1280,447.2l68.4,167.9
		c-4,4.4-5.9,6.7-9.8,8.7c-19.8-51.1-41.1-102.2-59.2-152.6l-8.9-15.1L-1280,447.2z"/>
	<path id="path3173" sodipodi:nodetypes="cccccc" inkscape:connector-curvature="0" class="st0" d="M-1338.8,623.7l-20.2-7.2
		l71.1-166.9l7.9-2.5v24.7C-1291,503.8-1319.1,573.8-1338.8,623.7L-1338.8,623.7z"/>
	<path id="path3167" sodipodi:nodetypes="ccccc" inkscape:connector-curvature="0" class="st0" d="M-1355.6,416.4l6.7,15.2l17.1-7.9
		l6.9-7.3C-1335.8,418.9-1345.7,418.9-1355.6,416.4z"/>
	<path id="path3165" sodipodi:nodetypes="ccccccc" inkscape:connector-curvature="0" class="st0" d="M-1403.8,549.3l-11.6,4.3
		l-7.3-12.8l72.6-115.9l5.2-1.8c7.2-1.6,15-3.4,20.1-6.8C-1336.4,431.9-1378.3,504.7-1403.8,549.3L-1403.8,549.3z"/>
	<path id="path3163" sodipodi:nodetypes="ccccccc" inkscape:connector-curvature="0" class="st0" d="M-1419.6,547.5l3-3l71.8-121.3
		l-10.8-6.7c-8.7,16.1-40.6,68.4-61,101.8l-9.8,18.3L-1419.6,547.5z"/>
	<path id="path3161" sodipodi:nodetypes="cccccc" inkscape:connector-curvature="0" class="st0" d="M-1477.5,416.4
		c15.9,28.2,40.3,67.7,61,101.8v26.2l-4.9,4.9l-71.4-126.9L-1477.5,416.4z"/>
	<path id="path3159" sodipodi:nodetypes="ccccc" inkscape:connector-curvature="0" class="st0" d="M-1489.3,424l11.8-7.7
		c-12.6,2.7-17.9,2.9-30.5,0l4.9,5.5L-1489.3,424z"/>
	<path id="path3157" sodipodi:nodetypes="cccccc" inkscape:connector-curvature="0" class="st0" d="M-1416.6,544.4l-5.5,7.9l-7.3-3
		c-13.6-23.5-53.6-95.3-78.6-132.9c5.1,3.7,11.9,5.7,19.8,7L-1416.6,544.4z"/>
	<path id="path3155" inkscape:connector-curvature="0" class="st0" d="M-1401.9,647.5l-20.7-9.8l1.8-86.6l4.3-6.7l12.8,4.9
		L-1401.9,647.5z"/>
	<path id="path3153" sodipodi:nodetypes="ccccc" inkscape:connector-curvature="0" class="st0" d="M-1416.6,640.8l-14.6,6.7
		l1.8-98.2l12.8-4.9V640.8z"/>
	<path id="path3171" sodipodi:nodetypes="cccccc" inkscape:connector-curvature="0" class="st0" d="M-1369,623.7
		c25.4-51.9,53.7-121.4,78.3-183l10.7,6.5l-69.5,169.9l-14.1,4.8L-1369,623.7z"/>
	<path id="path3179" sodipodi:nodetypes="ccccc" inkscape:connector-curvature="0" class="st0" d="M-1212.2,614.7l21.4,9
		c-8.2-2.1-19.3-2.9-30.4,0.1l4.2-10.3L-1212.2,614.7z"/>
	<path id="path3185" sodipodi:nodetypes="ccccccc" inkscape:connector-curvature="0" class="st0" d="M-1327.5,563.7l15-6.4
		c21.6,0.8,43.2,0.7,64.9,0l15.2,6.6l-14.2,3.1h-70.2L-1327.5,563.7z"/>
	<path id="path3183" sodipodi:nodetypes="ccccc" inkscape:connector-curvature="0" class="st0" d="M-1317.5,570.1l-10.1-6.3
		c31.7-0.5,63.4-0.4,95.2,0.2l-10.1,6.1C-1267.5,569.3-1292.5,569.3-1317.5,570.1z"/>
	<path id="path3191" sodipodi:nodetypes="cccccc" inkscape:connector-curvature="0" class="st0" d="M-1149.4,623.7l-21.3-7.3v-164
		l6.1-3l15.2-8.5C-1152.6,501.6-1152.7,562.6-1149.4,623.7z"/>
	<path id="path3189" sodipodi:nodetypes="cccccc" inkscape:connector-curvature="0" class="st0" d="M-1164.7,615.2v4.3l-15.2,4.3
		c2.4-60.9,2.7-121.9,0-183l15.2,8.5V615.2z"/>
	<path id="path3199" sodipodi:nodetypes="cccccc" inkscape:connector-curvature="0" class="st0" d="M-1051.9,623.7l21.3-7.3v-164
		l-6.1-3l-15.2-8.5C-1048.8,501.6-1048.7,562.6-1051.9,623.7z"/>
	<path id="path3205" sodipodi:nodetypes="ccccccc" inkscape:connector-curvature="0" class="st0" d="M-1164.6,531.9l12.8-5.7
		c34.1,0.9,68.2,0.8,102.3,0l12.9,5.7l-15.9,3.8h-99.3L-1164.6,531.9z"/>
	<path id="path3207" inkscape:connector-curvature="0" class="st0" d="M-913.8,440.7c-59.9,0-89.8,37.4-89.8,91.9
		c0,68.2,45.2,91.8,89,91.8c52,0,89.2-29.2,89.2-91.6C-825.3,472.7-860.6,440.7-913.8,440.7L-913.8,440.7z M-915.6,449.4
		c0.6,0,1.1,0,1.7,0c39.6,0,68.6,26.9,68.6,83.2c0,56.2-29,83.2-68.5,83.2c-43.1,0-68.5-30.9-68.5-83
		C-982.3,473.8-951,450.1-915.6,449.4z"/>
	<path id="path3209" inkscape:connector-curvature="0" class="st0" d="M-914,438.3c-64.7,0-98.6,41-98.6,94.2
		c0,58.2,37.1,93.7,98.5,93.7c66.5,0,98.9-40,98.9-93.1C-815.2,473.9-853.9,438.3-914,438.3z M-913.8,444.4
		c51.1,0,84.9,30.7,84.9,88.4c0,59.9-35.8,88-85.7,88c-42,0-85.5-22.7-85.5-88.2C-1000,480.3-971.3,444.4-913.8,444.4L-913.8,444.4z
		"/>
	<path id="path3213" inkscape:connector-curvature="0" class="st0" d="M-690.3,431.3c-60.8,0-102.4,34.4-102.4,101.4
		c0,65.7,38.7,102.4,102.7,102.4c48.4,0,101.5-24.9,101.5-101.5C-588.5,450.9-646.5,431.3-690.3,431.3z M-690.6,438.7
		c48.4,0,84,29.4,84,94.2c0,70.5-43.1,93.3-83.9,93.3c-43.6,0-83.4-25.6-83.4-94.7C-773.9,459.9-729.8,438.7-690.6,438.7z"/>
	<path id="path3215" inkscape:connector-curvature="0" class="st0" d="M-690.7,427.3c-64.4,0-113.7,36.6-113.7,104.6
		c0,56,32.8,105.4,114.2,105.4c68.9,0,114-37.9,114-104.4C-576.2,470.2-618.2,427.3-690.7,427.3L-690.7,427.3z M-690.3,434.1
		c42.6,0,99,19.1,99,99.5c0,74.5-51.6,98.7-98.7,98.7c-62.2,0-99.9-35.7-99.9-99.6C-789.9,467.5-749.4,434.1-690.3,434.1z"/>
	<path id="path3217" sodipodi:nodetypes="ccccc" inkscape:connector-curvature="0" class="st0" d="M-571.2,634.2
		c0-7.9,4.8-15.2,14.4-15.2c9.2,0,16.1,5.5,16.1,14.3c0,10.9-7.2,15-13.9,15C-563.8,648.2-571.2,643.5-571.2,634.2L-571.2,634.2z"/>
	<path id="path3221" sodipodi:nodetypes="ccccccc" inkscape:connector-curvature="0" class="st0" d="M-555.9,596.9
		c7.4-52.6,12-107.8,16.3-162.9c0-11,7.3-15.3,14.6-15.3c1.3,0,3.2,0.3,3.2,0.3l-2,13.2l-26.1,163.2L-555.9,596.9z"/>
	<path id="path3151" sodipodi:nodetypes="cccsc" inkscape:connector-curvature="0" class="st0" d="M-1431.2,647.5l14.7-10.7
		l14.6,10.7c0,0-8.1-1.5-14.6-1.5C-1422.4,646-1431.2,647.5-1431.2,647.5z"/>
	<path id="path3169" sodipodi:nodetypes="ccccc" inkscape:connector-curvature="0" class="st0" d="M-1369,623.7l20.5-8.8
		c3.1,3.7,5.9,6.9,9.7,8.8C-1346.2,621.7-1357.3,620.8-1369,623.7L-1369,623.7z"/>
	<path id="path3187" sodipodi:nodetypes="cccc" inkscape:connector-curvature="0" class="st0" d="M-1179.9,623.7
		c9.9-2.4,20-2.5,30.5,0l-15.2-8.5L-1179.9,623.7z"/>
	<path id="path3203" sodipodi:nodetypes="cccccc" inkscape:connector-curvature="0" class="st0" d="M-1151.8,538.6l-12.8-6.8
		c42.7,0.4,85.3,0.5,128,0l-12.8,6.7C-1083.6,538.1-1117.7,538.2-1151.8,538.6L-1151.8,538.6z"/>
	<path id="path3197" sodipodi:nodetypes="cccccc" inkscape:connector-curvature="0" class="st0" d="M-1036.7,615.2v4.3l15.2,4.3
		c-2.4-60.9-2.7-121.9,0-183l-15.2,8.5V615.2z"/>
	<path id="path3195" sodipodi:nodetypes="cccc" inkscape:connector-curvature="0" class="st0" d="M-1021.4,623.7
		c-9.9-2.4-20-2.5-30.5,0l15.2-8.5L-1021.4,623.7z"/>
	<path id="path3219" sodipodi:nodetypes="cccc" inkscape:connector-curvature="0" class="st0" d="M-549.2,590.8l-6.8,6.2
		c4.5-0.8,8,0.4,11.4,1.8L-549.2,590.8z"/>
	
		<path id="path3507" sodipodi:rx="22.494734" sodipodi:ry="21.289658" sodipodi:type="arc" sodipodi:cx="1214.9834" sodipodi:cy="1693.0604" class="st0" d="
		M-509.4,432.1c0,7.2-6.7,13-14.9,13s-14.9-5.8-14.9-13c0-7.2,6.7-13,14.9-13S-509.4,424.9-509.4,432.1z"/>
</g>
</svg>
