<?xml version="1.0" encoding="utf-8"?>
<!-- Generator: Adobe Illustrator 19.1.0, SVG Export Plug-In . SVG Version: 6.00 Build 0)  -->
<svg version="1.1" id="Layer_1" xmlns="http://www.w3.org/2000/svg" xmlns:xlink="http://www.w3.org/1999/xlink" x="0px" y="0px"
	 width="702px" height="150px" viewBox="-398 176 702 150" style="enable-background:new -398 176 702 150;" xml:space="preserve">
<style type="text/css">
	.st0{fill:#00B0E9;}
</style>
<title>Untitled 2</title>
<g>
	<path class="st0" d="M303.6,243.8v-12.3h-15.3v-19.2l-0.5,0.2l-14.4,4.4l-0.3,0.1v14.5h-22.7v-8.1c0-3.8,0.8-6.7,2.5-8.6
		c1.7-1.9,4-2.9,7-2.9c2.2,0,4.4,0.5,6.7,1.5l0.6,0.3v-13l-0.3-0.1c-2.1-0.8-5-1.1-8.5-1.1c-4.5,0-8.5,1-12.1,2.9
		c-3.5,1.9-6.3,4.7-8.3,8.2c-1.9,3.5-2.9,7.5-2.9,12v8.9h-10.7v12.3h10.7v52h15.3v-52h22.7v33c0,13.6,6.4,20.5,19.1,20.5
		c2.1,0,4.3-0.2,6.5-0.7c2.3-0.5,3.8-1,4.7-1.5l0.2-0.1v-12.5l-0.6,0.4c-0.8,0.6-1.9,1-3.1,1.3c-1.2,0.3-2.2,0.5-3,0.5
		c-3,0-5.2-0.8-6.5-2.4c-1.4-1.6-2.1-4.4-2.1-8.3v-30.4H303.6L303.6,243.8z M190.2,284.8c-5.6,0-9.9-1.8-13-5.5
		c-3.1-3.7-4.7-8.9-4.7-15.5c0-6.8,1.6-12.2,4.7-15.9c3.1-3.7,7.4-5.6,12.9-5.6c5.3,0,9.5,1.8,12.6,5.3c3,3.5,4.6,8.8,4.6,15.7
		c0,7-1.5,12.4-4.3,15.9C200.1,283,195.8,284.8,190.2,284.8L190.2,284.8z M190.9,229.9c-10.6,0-19,3.1-25,9.2c-6,6.1-9,14.6-9,25.2
		c0,10.1,3,18.2,8.8,24.1c5.9,5.9,13.8,8.9,23.7,8.9c10.3,0,18.5-3.1,24.5-9.4c6-6.2,9-14.6,9-25c0-10.2-2.9-18.4-8.5-24.3
		C208.8,232.8,200.9,229.9,190.9,229.9L190.9,229.9z M132.1,229.9c-7.2,0-13.2,1.8-17.7,5.5c-4.6,3.7-6.9,8.5-6.9,14.3
		c0,3,0.5,5.7,1.5,8c1,2.3,2.5,4.3,4.6,6c2,1.7,5.2,3.4,9.3,5.2c3.5,1.4,6.1,2.6,7.7,3.6c1.6,0.9,2.8,1.9,3.4,2.8
		c0.6,0.9,1,2.1,1,3.6c0,4.3-3.2,6.4-9.9,6.4c-2.5,0-5.3-0.5-8.4-1.5c-3.1-1-6-2.5-8.6-4.3l-0.6-0.5v14.7l0.2,0.1
		c2.2,1,4.9,1.8,8.1,2.5c3.2,0.7,6.1,1,8.7,1c7.8,0,14.1-1.9,18.7-5.5c4.6-3.7,7-8.6,7-14.6c0-4.3-1.3-8.1-3.8-11.1
		c-2.5-3-6.8-5.7-12.8-8.1c-4.8-1.9-7.8-3.5-9.1-4.7c-1.2-1.2-1.8-2.8-1.8-5c0-1.9,0.8-3.4,2.3-4.6c1.6-1.2,3.8-1.8,6.5-1.8
		c2.6,0,5.2,0.4,7.8,1.2c2.6,0.8,4.9,1.8,6.8,3.1l0.6,0.4v-14l-0.2-0.1c-1.8-0.8-4.1-1.4-6.9-1.9
		C136.9,230.1,134.3,229.9,132.1,229.9L132.1,229.9z M67.5,284.8c-5.6,0-9.9-1.8-13-5.5c-3.1-3.7-4.7-8.9-4.7-15.5
		c0-6.8,1.6-12.2,4.7-15.9c3.1-3.7,7.4-5.6,12.9-5.6c5.3,0,9.5,1.8,12.6,5.3c3,3.5,4.6,8.8,4.6,15.7c0,7-1.5,12.4-4.3,15.9
		C77.4,283,73.1,284.8,67.5,284.8L67.5,284.8z M68.2,229.9c-10.6,0-19,3.1-25,9.2c-6,6.1-9,14.6-9,25.2c0,10.1,3,18.2,8.8,24.1
		c5.9,5.9,13.8,8.9,23.7,8.9c10.3,0,18.5-3.1,24.5-9.4c6-6.2,9-14.6,9-25c0-10.2-2.9-18.4-8.5-24.3
		C86.1,232.8,78.2,229.9,68.2,229.9L68.2,229.9z M10.9,242.6v-11.1H-4.3v64.3h15.1v-32.9c0-5.6,1.3-10.2,3.8-13.7
		c2.5-3.4,5.8-5.2,9.8-5.2c1.4,0,2.9,0.2,4.5,0.7c1.6,0.4,2.8,0.9,3.5,1.4l0.6,0.5v-15.3l-0.2-0.1c-1.4-0.6-3.4-0.9-5.9-0.9
		c-3.8,0-7.2,1.2-10.1,3.6c-2.6,2.1-4.4,5-5.8,8.6L10.9,242.6L10.9,242.6z M-31.4,229.9c-6.9,0-13.1,1.5-18.4,4.4
		c-5.3,2.9-9.4,7.1-12.1,12.5c-2.8,5.3-4.2,11.5-4.2,18.5c0,6.1,1.4,11.7,4,16.6c2.7,4.9,6.5,8.8,11.3,11.4c4.8,2.7,10.4,4,16.5,4
		c7.2,0,13.3-1.4,18.3-4.3l0.2-0.1V279l-0.6,0.5c-2.2,1.6-4.7,2.9-7.4,3.9c-2.7,0.9-5.1,1.4-7.2,1.4c-5.9,0-10.7-1.9-14.2-5.5
		c-3.5-3.7-5.2-8.8-5.2-15.3c0-6.5,1.8-11.8,5.4-15.7c3.6-3.9,8.4-5.9,14.2-5.9c5,0,9.8,1.7,14.4,5l0.6,0.5v-14.6l-0.2-0.1
		c-1.7-1-4.1-1.8-7-2.4C-25.8,230.2-28.6,229.9-31.4,229.9L-31.4,229.9z M-76.5,231.4h-15.1v64.3h15.1V231.4z M-83.9,204
		c-2.5,0-4.7,0.8-6.4,2.5c-1.8,1.7-2.7,3.8-2.7,6.3c0,2.5,0.9,4.5,2.7,6.2c1.8,1.6,3.9,2.5,6.5,2.5c2.5,0,4.7-0.8,6.5-2.5
		c1.8-1.6,2.7-3.7,2.7-6.2c0-2.4-0.9-4.5-2.6-6.2C-79.1,204.9-81.3,204-83.9,204L-83.9,204z M-121.6,226.7v69.1h15.4V206h-21.4
		l-27.2,66.7l-26.4-66.7h-22.2v89.8h14.5v-69.1h0.5l27.8,69.1h10.9l27.4-69.1L-121.6,226.7L-121.6,226.7z M-326.8,247.2H-398V176
		h71.2V247.2z M-248.2,247.2h-71.2V176h71.2V247.2z M-326.8,325.8H-398v-71.2h71.2V325.8z M-248.2,325.8h-71.2v-71.2h71.2V325.8z"/>
</g>
</svg>
