<?xml version="1.0" encoding="utf-8"?>
<!-- Generator: Adobe Illustrator 19.1.0, SVG Export Plug-In . SVG Version: 6.00 Build 0)  -->
<svg version="1.1" id="Layer_1" xmlns="http://www.w3.org/2000/svg" xmlns:xlink="http://www.w3.org/1999/xlink" x="0px" y="0px"
	 width="453.5px" height="100px" viewBox="-522 201 453.5 100" style="enable-background:new -522 201 453.5 100;"
	 xml:space="preserve">
<style type="text/css">
	.st0{fill:#00B0E9;}
	.st1{fill:#8FD5F2;}
	.st2{fill:#B0E2F7;}
	.st3{fill:#48B6EC;}
</style>
<g>
	<path class="st0" d="M-384.2,261.1c2.8-2.2,3.2-0.9,5.6,1.4c1.2,1.2,4.5,3.3,2.3,5c-4.4,3.7-8.4,5.3-14.2,5.3
		c-12.9,0-22-9.6-21.3-22.3c0.3-5.7,2.5-11.1,7-14.9c4.1-3.4,9.1-5,14.4-4.9c2.7,0.1,5.1,0.4,7.6,1.4c1.6,0.6,3.2,1.4,4.6,2.5
		c2.8,2.2,1.5,3.4-0.7,5.6c-0.5,0.5-1,1-1.5,1.5c-1.1,1.1-1.9,1.9-3.4,0.9c-2.9-2-6.5-3-10-2.1c-11.1,2.9-10.5,22.6,3.1,22.6
		C-388.4,263.3-386,262.4-384.2,261.1L-384.2,261.1z M-75.5,272L-75.5,272c-1.9,0-3.4-1.5-3.4-3.4v-43.8c0-1.9,1.5-3.4,3.4-3.4h3.6
		c1.9,0,3.4,1.5,3.4,3.4v43.8c0,1.9-1.5,3.4-3.4,3.4H-75.5L-75.5,272z M-94.6,266.9L-94.6,266.9c-3.9,3.7-7.7,5.7-13.3,5.7
		c-11.3,0-16.7-9.4-16.7-19.8V235c0-1.9,1.5-3.4,3.4-3.4h3.6c1.9,0,3.4,1.5,3.4,3.4v17.7c0,5.9,3.1,10.4,9.3,10.4
		c6.1,0,9.9-5.2,9.9-10.9v-6.4c-0.1-0.2-0.1-0.5-0.1-0.7V235c0-1.9,1.5-3.4,3.4-3.4h3.6c1.9,0,3.4,1.5,3.4,3.4v33.6
		c0,1.8-1.5,3.4-3.3,3.4h-3.1c-1.9,0-3.2-1.5-3.3-3.3L-94.6,266.9L-94.6,266.9z M-138,231.7L-138,231.7h7c1.9,0,3.4,1.6,3.4,3.4v2.3
		c0,1.9-1.5,3.4-3.4,3.4h-7v27.7c0,1.9-1.5,3.4-3.4,3.4h-3.6c-1.9,0-3.4-1.5-3.4-3.4v-38.2c0-8.4,4.7-14.9,13.2-15.7
		c0.2,0,0.5,0,0.7,0c0.5,0,1,0,1.5,0h3.3c1.9,0,3.3,1.6,3.3,3.4v2c0,1.9-1.5,3.4-3.3,3.4h-2.4c-0.1,0-0.2,0-0.2,0
		c-4,0-5.7,3.1-5.7,6.9V231.7L-138,231.7z M-163.2,231.7L-163.2,231.7h7.7c1.8,0,3.3,1.5,3.3,3.3v2.3c0,1.8-1.5,3.3-3.3,3.3h-7.7
		v16.9c0,3.3,1.6,5.1,4.9,5.1h1.6c1.8,0,3.4,1.5,3.4,3.4v2.3c0,1.8-1.5,3.3-3.4,3.3h-3c-0.6,0-1.1,0-1.7,0
		c-8.4-0.5-12.1-5.9-12.1-14.1c0-10.9,0-21.9,0-32.9c0-1.8,1.5-3.3,3.4-3.3h3.6c1.8,0,3.3,1.5,3.3,3.3L-163.2,231.7L-163.2,231.7z
		 M-274.8,231.7L-274.8,231.7h7.7c1.8,0,3.3,1.5,3.3,3.3v2.3c0,1.8-1.5,3.3-3.3,3.3h-7.7v16.9c0,3.3,1.6,5.1,4.9,5.1h1.6
		c1.8,0,3.4,1.5,3.4,3.3v2.3c0,1.8-1.5,3.3-3.4,3.3h-2.3c-9.1,0-14.4-3.9-14.4-14.1c0-11,0-21.9,0-32.9c0-1.8,1.5-3.4,3.4-3.4h3.6
		c1.8,0,3.3,1.5,3.3,3.4L-274.8,231.7L-274.8,231.7z M-320.1,236.7L-320.1,236.7c3.7-3.5,7.7-5.7,12.9-5.7
		c11.3,0,17.1,9.2,17.1,19.8v17.8c0,1.9-1.5,3.4-3.4,3.4h-3.6c-1.9,0-3.4-1.5-3.4-3.4v-17.7c0-5.9-3.2-10.4-9.4-10.4
		c-6.1,0-9.9,5.1-9.9,10.9v17.3c0,1.8-1.5,3.4-3.4,3.4h-3.6c-1.8,0-3.3-1.5-3.3-3.4c0-10.7,0-21.5,0-32.2V235c0-1.8,1.5-3.3,3.3-3.3
		h3.1c1.9,0,3.2,1.5,3.4,3.3L-320.1,236.7L-320.1,236.7z M-208.3,236.7L-208.3,236.7c3.7-3.5,7.7-5.7,12.9-5.7
		c11.3,0,17.1,9.2,17.1,19.8v17.8c0,1.9-1.5,3.4-3.4,3.4h-3.6c-1.9,0-3.4-1.5-3.4-3.4v-17.7c0-5.9-3.2-10.4-9.4-10.4
		c-6.1,0-9.9,5.1-9.9,10.9v17.3c0,1.8-1.5,3.4-3.3,3.4h-3.6c-1.8,0-3.3-1.5-3.3-3.4v-33.8c0-1.8,1.5-3.3,3.3-3.3h3.1
		c1.9,0,3.2,1.5,3.3,3.3L-208.3,236.7L-208.3,236.7z M-354.3,230.8L-354.3,230.8c-12.2,0-20.9,8.9-20.9,21c0,12.3,8.5,21,20.9,21
		c12.4,0,21-8.7,21-21C-333.2,239.7-342.1,230.8-354.3,230.8L-354.3,230.8z M-252.6,255.6L-252.6,255.6c0.9,5.6,6.3,8,11.6,8
		c2.5,0,5.4-0.6,7.6-1.7c0.4-0.2,0.7-0.3,1.1-0.6c1.2-0.7,2.4-1.2,3.5,0c0.6,0.6,1.2,1.2,1.8,1.8c0.6,0.6,1.1,1.2,1.6,1.8
		c1.7,2.1,0.5,2.6-1.4,3.9c-4.1,2.8-9.5,4.2-14.5,4.2c-13.3,0-22.1-8-22.1-21.5c0-12.7,8.8-21.1,21.4-21.1
		c12.9,0,20.3,7.6,20.5,20.5c0.1,3.5,0.2,4.7-3.5,4.7L-252.6,255.6L-252.6,255.6z M-354.2,240.3L-354.2,240.3
		c6.3,0,10.6,5.5,10.6,11.5c0,6.4-3.9,11.4-10.6,11.4c-6.7,0-10.6-5.1-10.6-11.4C-364.8,245.6-360.8,240.3-354.2,240.3L-354.2,240.3
		z M-252.4,246.9L-252.4,246.9h20.8c-0.8-5.2-5.1-7.2-10-7.2C-246.6,239.7-250.8,242-252.4,246.9z"/>
	<g>
		<path class="st1" d="M-472,301c-16.7,0-32.1-8.2-41.5-22c-1.5-2.4-2.5-4.4-2.5-7.3c0-6.3,5.1-11.4,11.4-11.4
			c3.5,0,6.8,1.7,8.9,4.4c0.3,0.4,0.5,0.7,0.8,1.1c5,7.8,13.6,12.5,22.9,12.5s17.9-4.7,22.9-12.5c0.2-0.4,0.5-0.8,0.8-1.1
			c2.1-2.8,5.4-4.4,8.9-4.4c6.3,0,11.4,5.1,11.4,11.4c0,2.9-1,4.9-2.6,7.3C-439.8,292.8-455.3,301-472,301z"/>
		<path class="st1" d="M-472,201c16.7,0,32.1,8.2,41.5,22c1.6,2.4,2.6,4.4,2.6,7.3c0,6.3-5.1,11.4-11.4,11.4c-3.5,0-6.8-1.7-8.9-4.4
			c-0.3-0.4-0.5-0.7-0.8-1.1c-5-7.8-13.6-12.5-22.9-12.5c-5.2,0-10.2,1.5-14.5,4.2c-3.3,2.1-7.1,3.1-9.3,6.6
			c-0.2,0.4-0.5,0.8-0.8,1.1c-2.2,2.8-4.6,6.2-8.1,6.2c-6.3-0.1-11.4-5.2-11.4-11.5c0-2.9,1-4.9,2.6-7.3
			C-504.1,209.2-488.6,201-472,201z"/>
		<path class="st2" d="M-519.1,234.3c4.5-12.7,13.7-22.8,25.5-28.4c2.9-1.4,10.3,20.3,10.1,20.3c-6.7,3.1-11.8,8.7-14.3,15.6
			c-3.1,8.8-1.6,18.4,4.1,25.8l0.2,0.2l-18.1,13.7l-0.6-0.8C-522.1,267.3-524.7,250-519.1,234.3z"/>
		<path class="st3" d="M-502.6,263.2c6.3,0,11.4,5.1,11.4,11.4c0,6.3-5.1,11.4-11.4,11.4c-3.9,0-7.5-2.1-9.6-5.4
			c-1.1-1.8-1.8-3.8-1.8-6C-514,268.4-508.9,263.2-502.6,263.2z"/>
		<path class="st3" d="M-488.6,204.8c6.3,0,11.4,5.1,11.4,11.4s-5.1,11.4-11.4,11.4c-3.9,0-7.5-2-9.6-5.4c-1.1-1.8-1.8-3.8-1.8-6
			C-500,209.9-494.9,204.8-488.6,204.8z"/>
	</g>
</g>
</svg>
