<?xml version="1.0" encoding="utf-8"?>
<!-- Generator: Adobe Illustrator 19.1.0, SVG Export Plug-In . SVG Version: 6.00 Build 0)  -->
<svg version="1.1" id="Layer_1" xmlns="http://www.w3.org/2000/svg" xmlns:xlink="http://www.w3.org/1999/xlink" x="0px" y="0px"
	 width="213.9px" height="132.1px" viewBox="82 -41.1 213.9 132.1" style="enable-background:new 82 -41.1 213.9 132.1;"
	 xml:space="preserve">
<style type="text/css">
	.st0{fill:#00B0E9;}
	.st1{fill:#EE0788;}
</style>
<title>Untitled 2</title>
<g id="Page-1">
	<g id="logo-talky">
		<g id="Shape">
			<path class="st0" d="M88.6,60.1V32.3H82V21.9h6.6V7.4h11.9v14.5h14v10.4h-14v25.9c0,4.7,2.4,6.6,6.4,6.6c2.7,0,5-0.6,7.4-1.8v9.9
				c-3,1.7-6.3,2.7-10.7,2.7C94.8,75.6,88.6,71.7,88.6,60.1L88.6,60.1z M152.1,74.7v-6.5c-3.5,4.3-9,7.6-16.8,7.6
				c-9.8,0-18.5-5.7-18.5-16.3v-0.2c0-11.7,9-17.3,21.1-17.3c6.3,0,10.3,0.9,14.4,2.2v-1c0-7.3-4.5-11.3-12.8-11.3
				c-5.8,0-10.1,1.3-14.9,3.3l-3.2-9.7c5.7-2.6,11.3-4.4,19.8-4.4c15.4,0,22.8,8.2,22.8,22.3v31.3H152.1L152.1,74.7z M152.4,52.6
				c-3.1-1.2-7.3-2.1-11.9-2.1c-7.5,0-11.9,3.1-11.9,8.2v0.2c0,5,4.4,7.8,10,7.8c7.9,0,13.8-4.5,13.8-11.1L152.4,52.6L152.4,52.6z
				 M172.7,1.7h11.9v73h-11.9V1.7z M193.5,1.7h11.9v43.6L227,21.9h14.5l-20.7,21.5l21.4,31.3h-13.8l-15.6-22.8l-7.3,7.7v15.1h-11.9
				L193.5,1.7L193.5,1.7z M245.5,87.8l4-9c2.2,1.2,4.5,2,7,2c3.3,0,5.4-1.5,7.4-6.1l-21.6-52.8H255l14.8,39.2l13.5-39.2h12.4
				L275,76.2C270.9,87,266.2,91,257.9,91C252.7,91,249.1,89.8,245.5,87.8z"/>
		</g>
		<path class="st1" d="M269.4-41.1c-15.8-0.5-27.8,11.5-28.3,26.5v0.2c-0.1,5,1,9.7,3.2,13.8c-0.2,3.8-3.4,9.4-8.5,13.5
			c10.9,2,16.1-1.9,19.2-2.7c3.6,2.1,7.9,3.2,12.5,3.3C283.4,14,295.4,2,295.9-12.9v-0.2C296.4-28.1,285.2-40.6,269.4-41.1
			L269.4-41.1z M281.9-14.5L265.6,1.2c-1.2,1.1-2.3,0.9-2.5-0.6l-3.7-27.9c-0.2-1.5,0.8-2.1,2.3-1.3l19.8,10.7
			C282.9-17.2,283.1-15.7,281.9-14.5L281.9-14.5z"/>
	</g>
</g>
</svg>
