<?xml version="1.0" encoding="utf-8"?>
<!-- Generator: Adobe Illustrator 19.1.0, SVG Export Plug-In . SVG Version: 6.00 Build 0)  -->
<svg version="1.1" id="Layer_1" xmlns="http://www.w3.org/2000/svg" xmlns:xlink="http://www.w3.org/1999/xlink" x="0px" y="0px"
	 width="101px" height="51px" viewBox="-699 225 101 51" style="enable-background:new -699 225 101 51;" xml:space="preserve">
<style type="text/css">
	.st0{fill:#00B0E9;}
</style>
<title>Untitled 2</title>
<desc>Created with Sketch.</desc>
<g>
	<g>
		<g>
			<path class="st0" d="M-677.5,225.9c-0.5,0-1,0-1.5,0c-6.6,0.5-13,4.1-16.5,10.2c-5.7,9.8-2.3,22.4,7.6,28
				c9.7,5.6,22.3,2.3,28.1-7.1h17.6l3.7,8.9h7.7l3.7-8.9h17.5l3.7,8.9h7.3l-16.6-39.4h-6.7l-12.8,31l-12.8-31h-6.7l-10.6,24.9
				c-3.5,8.2-12.9,10.8-19.7,6.9c-6.7-3.8-9-12.2-5.1-18.8c3.9-6.6,12.3-8.9,19.1-5.1c0.4,0.2,0.8,0.5,1.3,0.8l2.9-6.1
				c-0.3-0.2-0.5-0.3-0.8-0.5C-670.4,226.8-673.9,225.9-677.5,225.9L-677.5,225.9z M-650.9,236.1l5.9,14.2h-11.9L-650.9,236.1
				L-650.9,236.1z M-618.5,236.1l6,14.2h-11.9L-618.5,236.1L-618.5,236.1z"/>
			<path class="st0" d="M-658.6,273.5v-2.9c0-0.9-0.6-1.4-1.7-1.4c-0.7,0-1.2,0.1-1.5,0.6l0.4,0.4c0.3-0.4,0.5-0.5,1.1-0.5
				c0.8,0,1.1,0.3,1.1,0.9v0.4h-1.3c-1,0-1.5,0.5-1.5,1.2c0,0.3,0.1,0.7,0.3,0.9c0.3,0.3,0.6,0.4,1.2,0.4c0.6,0,0.9-0.1,1.3-0.5v0.4
				H-658.6L-658.6,273.5z M-659.2,271.9c0,0.4-0.1,0.6-0.2,0.7c-0.3,0.3-0.6,0.3-1,0.3c-0.7,0-1-0.2-1-0.7c0-0.5,0.3-0.8,1-0.8h1.2
				L-659.2,271.9L-659.2,271.9z"/>
			<path class="st0" d="M-603.1,272.9l-0.4-0.4c-0.3,0.4-0.6,0.5-1,0.5c-0.4,0-0.8-0.2-1-0.5c-0.2-0.3-0.3-0.6-0.3-1.1
				c0-0.5,0.1-0.9,0.3-1.2c0.2-0.3,0.6-0.5,1-0.5c0.4,0,0.7,0.1,1,0.5l0.4-0.4c-0.5-0.5-0.8-0.6-1.4-0.6c-1.1,0-1.9,0.7-1.9,2.2
				c0,1.5,0.8,2.2,1.9,2.2C-603.9,273.5-603.6,273.3-603.1,272.9z"/>
			<path class="st0" d="M-662.6,271.5v-0.3c0-1.3-0.6-2.1-1.8-2.1c-1.1,0-1.8,0.8-1.8,2.2c0,1.5,0.8,2.2,1.9,2.2
				c0.7,0,1.2-0.2,1.6-0.7l-0.4-0.4c-0.3,0.3-0.6,0.5-1.1,0.5c-0.8,0-1.3-0.5-1.3-1.5L-662.6,271.5L-662.6,271.5z M-663.2,271h-2.3
				c0-0.4,0-0.5,0.1-0.7c0.2-0.4,0.6-0.7,1-0.7c0.5,0,0.8,0.3,1,0.7C-663.2,270.5-663.2,270.6-663.2,271L-663.2,271z"/>
			<path class="st0" d="M-615.2,273.5v-4.4h-0.6v0.5c-0.4-0.4-0.7-0.6-1.2-0.6c-0.4,0-0.8,0.1-1.1,0.4c-0.4,0.4-0.5,1.1-0.5,1.8
				c0,0.7,0.1,1.4,0.5,1.8c0.2,0.2,0.6,0.4,1.1,0.4c0.5,0,0.9-0.1,1.2-0.6v0.7c0,0.7-0.3,1.3-1.2,1.3c-0.5,0-0.7-0.1-1-0.4l-0.4,0.4
				c0.5,0.4,0.8,0.6,1.5,0.6C-615.9,275.3-615.2,274.6-615.2,273.5L-615.2,273.5z M-615.8,271.2c0,0.8-0.1,1.6-1.1,1.6
				c-0.9,0-1.1-0.8-1.1-1.6s0.1-1.6,1.1-1.6C-616,269.6-615.8,270.4-615.8,271.2L-615.8,271.2z"/>
			<path class="st0" d="M-655.1,273.5v-4.3h-0.6v4.3H-655.1L-655.1,273.5z M-655,267.9v-0.7h-0.7v0.7H-655z"/>
			<path class="st0" d="M-606.8,273.5v-2.7c0-0.5-0.1-0.9-0.4-1.2c-0.3-0.3-0.6-0.4-1.1-0.4c-0.5,0-0.9,0.2-1.2,0.5v-0.5h-0.6v4.3
				h0.6v-2.6c0-0.8,0.4-1.2,1.1-1.2c0.7,0,1.1,0.4,1.1,1.2v2.6H-606.8L-606.8,273.5z"/>
			<path class="st0" d="M-631,272.2c0-0.8-0.5-1.1-1.3-1.2l-0.7-0.1c-0.5-0.1-0.8-0.3-0.8-0.6c0-0.5,0.3-0.7,1-0.7
				c0.4,0,0.8,0.1,1.2,0.3l0.4-0.4c-0.4-0.3-0.9-0.5-1.6-0.5c-0.9,0-1.6,0.5-1.6,1.3c0,0.7,0.5,1.1,1.3,1.1l0.7,0.1
				c0.5,0,0.7,0.2,0.7,0.6c0,0.5-0.4,0.8-1.2,0.8c-0.5,0-1-0.1-1.3-0.5l-0.4,0.4c0.5,0.4,1,0.6,1.8,0.6
				C-631.7,273.5-631,273-631,272.2L-631,272.2z"/>
			<path class="st0" d="M-656.3,273.5v-0.5h-0.3c-0.4,0-0.6-0.2-0.6-0.6v-2.6h0.9v-0.5h-0.9v-1.3h-0.6v1.3h-0.5v0.5h0.5v2.7
				c0,0.6,0.4,1.2,1.1,1.2H-656.3L-656.3,273.5z"/>
			<path class="st0" d="M-650.9,269.2h-0.7l-1.2,3.4l-1.2-3.4h-0.7l1.6,4.3h0.6C-652.5,273.5-650.9,269.2-650.9,269.2z"/>
			<path class="st0" d="M-598.9,269.2h-0.7l-1.2,3.4l-1.2-3.4h-0.7l1.6,4.2l-0.3,0.8c-0.1,0.4-0.3,0.5-0.7,0.5h-0.2v0.6h0.3
				c0.3,0,0.6-0.1,0.8-0.3c0.1-0.1,0.2-0.3,0.3-0.5L-598.9,269.2L-598.9,269.2z"/>
			<path class="st0" d="M-641.6,273.5l-2.3-6.2h-0.6l-2.3,6.2h0.7l0.5-1.4h2.7l0.5,1.4L-641.6,273.5L-641.6,273.5z M-643,271.5h-2.3
				l1.2-3.3C-644.1,268.2-643,271.5-643,271.5z"/>
			<path class="st0" d="M-669.2,271.6h-0.7c-0.2,0.8-0.7,1.3-1.5,1.3c-0.4,0-0.8-0.1-1.1-0.4c-0.4-0.4-0.4-0.9-0.4-2.1
				c0-1.3,0.1-1.7,0.4-2.1c0.3-0.3,0.7-0.4,1.1-0.4c0.8,0,1.3,0.5,1.5,1.3h0.7c-0.2-1.2-1-1.9-2.2-1.9c-0.6,0-1.2,0.2-1.6,0.6
				c-0.6,0.6-0.6,1.1-0.6,2.5c0,1.4,0,2,0.6,2.6c0.4,0.4,0.9,0.6,1.6,0.6C-670.2,273.5-669.4,272.8-669.2,271.6L-669.2,271.6z"/>
			<path class="st0" d="M-647.2,271.5v-0.3c0-1.3-0.7-2.1-1.8-2.1c-1.1,0-1.8,0.8-1.8,2.2c0,1.5,0.7,2.2,1.9,2.2
				c0.7,0,1.2-0.2,1.6-0.7l-0.4-0.4c-0.3,0.3-0.6,0.5-1.1,0.5c-0.8,0-1.3-0.5-1.3-1.5L-647.2,271.5L-647.2,271.5z M-647.8,271h-2.3
				c0-0.4,0-0.5,0.1-0.7c0.2-0.4,0.5-0.7,1-0.7c0.5,0,0.8,0.3,1,0.7C-647.9,270.5-647.9,270.6-647.8,271L-647.8,271z"/>
			<path class="st0" d="M-639.2,269.1c-0.5,0-1,0.2-1.2,0.6v-0.5h-0.6v4.3h0.6v-2.6c0-0.6,0.4-1.1,1-1.1c0.1,0,0.2,0,0.3,0v-0.6
				C-639.1,269.1-639.2,269.1-639.2,269.1L-639.2,269.1z"/>
			<path class="st0" d="M-636.5,273.5v-0.5h-0.3c-0.4,0-0.6-0.2-0.6-0.6v-2.6h0.9v-0.5h-0.9v-1.3h-0.6v1.3h-0.5v0.5h0.5v2.7
				c0,0.6,0.4,1.2,1.1,1.2H-636.5L-636.5,273.5z"/>
			<path class="st0" d="M-635.2,273.5v-4.3h-0.6v4.3H-635.2z M-635.1,267.9v-0.7h-0.7v0.7H-635.1z"/>
			<path class="st0" d="M-628.4,273.5v-0.5h-0.3c-0.4,0-0.6-0.2-0.6-0.6v-2.6h0.9v-0.5h-0.9v-1.3h-0.6v1.3h-0.5v0.5h0.5v2.7
				c0,0.6,0.4,1.2,1.1,1.2H-628.4L-628.4,273.5z"/>
			<path class="st0" d="M-624.6,272.2c0-0.8-0.5-1.1-1.3-1.2l-0.7-0.1c-0.5-0.1-0.8-0.3-0.8-0.6c0-0.5,0.3-0.7,1-0.7
				c0.4,0,0.8,0.1,1.2,0.3l0.4-0.4c-0.4-0.3-0.9-0.5-1.6-0.5c-0.9,0-1.6,0.5-1.6,1.3c0,0.7,0.5,1.1,1.3,1.1l0.7,0.1
				c0.5,0,0.7,0.2,0.7,0.6c0,0.5-0.4,0.8-1.2,0.8c-0.5,0-1-0.1-1.3-0.5l-0.4,0.4c0.5,0.4,1,0.6,1.8,0.6
				C-625.3,273.5-624.6,273-624.6,272.2L-624.6,272.2z"/>
			<path class="st0" d="M-618.8,273.5l-2.3-6.2h-0.6l-2.3,6.2h0.7l0.5-1.4h2.7l0.5,1.4L-618.8,273.5L-618.8,273.5z M-620.2,271.5
				h-2.3l1.2-3.3L-620.2,271.5L-620.2,271.5z"/>
			<path class="st0" d="M-611,271.5v-0.3c0-1.3-0.6-2.1-1.8-2.1c-1.1,0-1.8,0.8-1.8,2.2c0,1.5,0.8,2.2,1.9,2.2
				c0.7,0,1.2-0.2,1.6-0.7l-0.4-0.4c-0.3,0.3-0.6,0.5-1.1,0.5c-0.8,0-1.3-0.5-1.3-1.5L-611,271.5L-611,271.5z M-611.6,271h-2.3
				c0-0.4,0-0.5,0.1-0.7c0.2-0.4,0.6-0.7,1-0.7c0.5,0,0.8,0.3,1,0.7C-611.7,270.5-611.7,270.6-611.6,271L-611.6,271z"/>
			<path class="st0" d="M-666.5,269.1c-0.5,0-1,0.2-1.2,0.6v-0.5h-0.6v4.3h0.6v-2.6c0-0.6,0.4-1.1,1-1.1c0.1,0,0.2,0,0.3,0v-0.6
				C-666.4,269.1-666.5,269.1-666.5,269.1L-666.5,269.1z"/>
		</g>
	</g>
</g>
</svg>
