<?xml version="1.0" encoding="utf-8"?>
<!-- Generator: Adobe Illustrator 19.1.0, SVG Export Plug-In . SVG Version: 6.00 Build 0)  -->
<svg version="1.1" id="Layer_1" xmlns="http://www.w3.org/2000/svg" xmlns:xlink="http://www.w3.org/1999/xlink" x="0px" y="0px"
	 width="711.8px" height="312px" viewBox="-393 95 711.8 312" style="enable-background:new -393 95 711.8 312;"
	 xml:space="preserve">
<style type="text/css">
	.st0{fill:#00B0E9;}
</style>
<g id="Layer_1_1_">
</g>
<g id="Layer_2">
	<g>
		<path class="st0" d="M-65.4,148.1C-70.7,162-165.2,407-165.2,407H-199c0,0,22.3-56.6,31.8-81.1c1.5-3.9,1.4-7.1-0.1-10.9
			c-20.7-54-63.7-167.3-63.7-167.3l32.8,0.2l49.8,127.7l47.9-128l68.3,0l50,128l48.3-127.9l34.5,0.1L34.8,320.5l-35.1-0.2
			C-0.3,320.3-64.4,150.3-65.4,148.1z"/>
		<polygon class="st0" points="224.9,292.7 318.8,292.7 318.8,320.1 186.3,320.1 186.3,291.5 279.1,175.6 188.6,175.4 188.5,148 
			317.9,148 317.7,174.4 		"/>
		<path class="st0" d="M-262.6,276c8.8,6.3,17,12.1,25.5,18.2c-9.6,13.3-22,22.1-37.3,26.8c-30.8,9.5-74,3.1-98.5-26.8
			c-19.2-23.5-23.2-50.7-18.2-79.6c4.3-25.1,16.9-45.4,39.2-58.1c28.1-15.9,57.7-18.9,87.5-4.5c8.6,4.2,15.9,11.2,24.7,17.7
			c-9.2,6.8-17,12.5-25.1,18.5c-1.9-1.7-3.6-3.3-5.2-4.8c-20.7-19.3-51.8-13.4-68.4,0.3c-16.7,13.8-23.2,32.2-22.2,53.2
			c1.1,22.3,9.6,41.3,29.9,52.8c20.8,11.7,47.3,11.6,66-10.6C-264.1,278-263.4,277.1-262.6,276z"/>
		<polygon class="st0" points="99.8,320.4 66.2,320.4 132.9,147.5 165.8,147.6 		"/>
		<polygon class="st0" points="185.9,95 172.6,128.8 139,128.9 151.4,95.1 		"/>
	</g>
</g>
</svg>
