<?xml version="1.0" encoding="utf-8"?>
<!-- Generator: Adobe Illustrator 19.1.0, SVG Export Plug-In . SVG Version: 6.00 Build 0)  -->
<svg version="1.1" id="Layer_1" xmlns="http://www.w3.org/2000/svg" xmlns:xlink="http://www.w3.org/1999/xlink" x="0px" y="0px"
	 width="198.1px" height="136.2px" viewBox="0 0 198.1 136.2" style="enable-background:new 0 0 198.1 136.2;" xml:space="preserve"
	>
<style type="text/css">
	.st0{fill:#16AFE5;}
	.st1{fill:#ED1588;}
</style>
<g id="Page-1">
	<g id="logo-talky">
		<g id="Shape">
			<path class="st0" d="M6.1,93.7V68H0v-9.6h6.1V44.9h11v13.4h13V68h-13v24c0,4.4,2.2,6.1,5.9,6.1c2.5,0,4.6-0.6,6.9-1.7v9.2
				c-2.8,1.6-5.8,2.5-9.9,2.5C11.9,108.1,6.1,104.5,6.1,93.7L6.1,93.7z M64.9,107.3v-6c-3.2,4-8.3,7-15.6,7
				c-9.1,0-17.1-5.3-17.1-15.1V93c0-10.8,8.3-16,19.5-16c5.8,0,9.5,0.8,13.3,2v-0.9c0-6.8-4.2-10.5-11.9-10.5
				c-5.4,0-9.4,1.2-13.8,3.1l-3-9c5.3-2.4,10.5-4.1,18.3-4.1c14.3,0,21.1,7.6,21.1,20.7v29H64.9L64.9,107.3z M65.2,86.8
				c-2.9-1.1-6.8-1.9-11-1.9c-6.9,0-11,2.9-11,7.6v0.2c0,4.6,4.1,7.2,9.3,7.2c7.3,0,12.8-4.2,12.8-10.3V86.8z M84,39.7h11v67.6H84
				V39.7z M103.3,39.7h11V80l20-21.7h13.4l-19.2,19.9l19.8,29h-12.8l-14.4-21.1l-6.8,7.1v14h-11L103.3,39.7L103.3,39.7z
				 M151.4,119.4l3.7-8.3c2,1.1,4.2,1.9,6.5,1.9c3.1,0,5-1.4,6.9-5.6l-20-48.9h11.8l13.7,36.3l12.5-36.3h11.5l-19.2,50.3
				c-3.8,10-8.1,13.7-15.8,13.7C158.1,122.4,154.8,121.2,151.4,119.4z"/>
		</g>
		<path class="st1" d="M173.6,0c-14.6-0.5-25.7,10.7-26.2,24.5v0.2c-0.1,4.6,0.9,9,3,12.8c-0.2,3.5-3.1,8.7-7.9,12.5
			c10.1,1.9,14.9-1.8,17.8-2.5c3.3,1.9,7.3,3,11.6,3.1c14.7,0.5,25.8-10.7,26.3-24.4v-0.2C198.6,12.1,188.2,0.5,173.6,0L173.6,0z
			 M185.1,24.6L170,39.2c-1.1,1-2.1,0.8-2.3-0.6l-3.4-25.8c-0.2-1.4,0.7-1.9,2.1-1.2l18.3,9.9C186.1,22.1,186.2,23.5,185.1,24.6
			L185.1,24.6z"/>
	</g>
</g>
<g>
	<path class="st1" d="M60,126.2L60,126.2c0-5.6,4.1-10.1,10-10.1c3,0,5,0.9,6.7,2.2c0.4,0.3,0.7,0.8,0.7,1.4c0,0.9-0.8,1.7-1.7,1.7
		c-0.5,0-0.8-0.2-1-0.3c-1.3-1.1-2.8-1.8-4.6-1.8c-3.7,0-6.4,3.1-6.4,6.9v0.1c0,3.8,2.7,6.9,6.4,6.9c2.1,0,3.4-0.7,4.9-1.9
		c0.2-0.2,0.6-0.4,1-0.4c0.9,0,1.6,0.7,1.6,1.6c0,0.5-0.2,0.9-0.6,1.2c-1.8,1.6-3.9,2.6-7.1,2.6C64.2,136.2,60,131.8,60,126.2z"/>
	<path class="st1" d="M79.9,126.2L79.9,126.2c0-5.5,4.2-10.1,10.2-10.1s10.1,4.5,10.1,10v0.1c0,5.5-4.2,10.1-10.2,10.1
		C84.1,136.2,79.9,131.7,79.9,126.2z M96.7,126.2L96.7,126.2c0-3.8-2.8-7-6.6-7s-6.6,3.1-6.6,6.9v0.1c0,3.8,2.8,6.9,6.6,6.9
		S96.7,130,96.7,126.2z"/>
	<path class="st1" d="M104.4,118.2c0-1,0.8-1.7,1.7-1.7h6.9c2.4,0,4.4,0.7,5.6,1.9c1,1.1,1.6,2.5,1.6,4.2v0.1c0,3.1-1.8,5-4.4,5.8
		l3.7,4.7c0.3,0.4,0.6,0.8,0.6,1.3c0,0.9-0.8,1.6-1.6,1.6c-0.8,0-1.3-0.4-1.7-0.9l-4.7-6h-4.3v5.2c0,0.9-0.8,1.7-1.7,1.7
		c-1,0-1.7-0.8-1.7-1.7V118.2z M112.8,126.1c2.4,0,4-1.3,4-3.3v-0.1c0-2.1-1.5-3.2-4-3.2h-5v6.5H112.8z"/>
	<path class="st1" d="M124.5,134.2v-16c0-1,0.8-1.7,1.7-1.7h11.3c0.8,0,1.5,0.7,1.5,1.5c0,0.9-0.7,1.5-1.5,1.5h-9.6v5.1h8.4
		c0.8,0,1.5,0.7,1.5,1.6c0,0.8-0.7,1.5-1.5,1.5h-8.4v5.2h9.8c0.8,0,1.5,0.7,1.5,1.5c0,0.9-0.7,1.5-1.5,1.5h-11.4
		C125.3,135.9,124.5,135.2,124.5,134.2z"/>
</g>
</svg>
