<?xml version="1.0" encoding="utf-8"?>
<!-- Generator: Adobe Illustrator 18.1.1, SVG Export Plug-In . SVG Version: 6.00 Build 0)  -->
<svg version="1.1" id="Layer_1" xmlns="http://www.w3.org/2000/svg" xmlns:xlink="http://www.w3.org/1999/xlink" x="0px" y="0px"
	 width="800px" height="121.5px" viewBox="0 239.2 800 121.5" enable-background="new 0 239.2 800 121.5" xml:space="preserve">
<g id="Layer_2">
</g>
<g id="Layer_1_1_">
	<g>
		<path fill="#727272" d="M62.4,286.5c0,5.4-4.2,9.6-10,9.6H35.5v-18.9h1h15.9C58.2,277.1,62.4,281.1,62.4,286.5z M134.3,306.6
			l-27.5,47.6c-2,3.6-7.2,6.6-11.4,6.6h-55c-4.2,0-9.2-3-11.4-6.6L1.6,306.6c-2-3.6-2-9.6,0-13.1l27.5-47.6c2-3.6,7.2-6.6,11.4-6.6
			h55c4.2,0,9.2,3,11.4,6.6l27.5,47.6C136.5,297,136.5,303,134.3,306.6z M70.9,286.5c0-9.4-7.4-16.5-17.1-16.5H31.3
			c-2.4,0-4.2,2-4.2,4.2c0,0,0,46.8,0,48.6c1.4,0,7.2,0,8.6,0c0-1.8,0-19.7,0-19.7H54C63.7,303,70.9,296,70.9,286.5z M111.2,300.6
			c0-9.6-7.6-16.9-17.7-16.9s-17.7,7.4-17.7,16.9c0,0,0,20.3,0,22.1c1.4,0,7,0,8.4,0c0-1.8,0-22.1,0-22.1c0-5.8,3.8-9.8,9.4-9.8
			c5.6,0,9.4,4,9.4,9.8c0,0,0,20.3,0,22.1c1.4,0,7,0,8.4,0C111.2,320.9,111.2,300.6,111.2,300.6z"/>
		<g>
			<path fill="#20262B" d="M198.4,303.8h-16.7v19.1h-10.2v-47.8c0-2.8,2.4-5,5-5h21.7c10.4,0,17.3,7.8,17.3,16.7
				S208.8,303.8,198.4,303.8z M196.8,278.9h-15.3V295h15.3c4.6,0,8.6-3.2,8.6-8.2C205.4,281.9,201.4,278.9,196.8,278.9z"/>
			<path fill="#20262B" d="M230.7,305.6v17.3h-9.6v-38.6h9.4v7c1.6-3.6,7.4-7.8,13.1-7.8v9.2C235.1,292.6,230.7,298,230.7,305.6z"/>
			<path fill="#20262B" d="M256.8,306.8c0.2,5.8,5.2,9.2,12.4,9.2c3.6,0,7.8-0.6,11.4-1.6l1.8,7c-4.4,1.4-8.4,2.2-13.1,2.2
				c-13.9,0-21.7-8.2-21.7-19.9c0-10.6,7-19.9,18.7-19.9c11.2,0,17.9,8.2,17.9,20.1v3H256.8z M266.1,291c-5,0-8.6,3-9.4,9h18.1
				C274.5,294.4,271.5,291,266.1,291z"/>
			<path fill="#20262B" d="M311,323.5c-12.7,0-21.3-8.8-21.3-19.9c0-11.2,8.6-19.9,21.3-19.9c3.6,0,7,0.4,10,1.6l-1.6,7
				c-2.8-0.6-5.4-0.8-7.8-0.8c-8.4,0-12.4,5-12.4,12.2c0,7.2,4,12.4,12.4,12.4c2.8,0,4.8-0.4,7.8-1.2l1.6,7
				C318.3,322.7,314.1,323.5,311,323.5z"/>
			<path fill="#20262B" d="M330.5,277.9v-9.4h9.6v9.4H330.5z M330.5,322.9v-38.6h9.6v38.6H330.5z"/>
			<path fill="#20262B" d="M364.7,323.5c-5,0-11-1.4-15.7-3.4l2.2-6.8c4.6,1.6,9.6,2.8,13.5,2.8c5,0,6.8-1.6,6.8-3.6
				c0-2.4-1.6-3-7.4-5.4c-10.4-4.2-13.7-6.2-13.7-12.7c0-7.2,5.6-10.8,15.5-10.8c3.8,0,9.4,0.6,13.5,2l-1.6,7
				c-3.2-0.8-8-1.6-11.8-1.6c-5,0-6.6,1-6.6,3c0,2.6,1.8,3.2,8.6,5.8c9.6,3.8,12.5,5.6,12.5,12.2
				C380.9,318.9,374.5,323.5,364.7,323.5z"/>
			<path fill="#20262B" d="M389.2,277.9v-9.4h9.6v9.4H389.2z M389.2,322.9v-38.6h9.6v38.6H389.2z"/>
			<path fill="#20262B" d="M426.7,323.5c-11.8,0-19.5-9.4-19.5-19.9s7.8-19.9,19.5-19.9c11.8,0,19.7,9.4,19.7,19.9
				C446.2,314.1,438.2,323.5,426.7,323.5z M426.7,291c-6.2,0-9.8,5-9.8,12.4s3.6,12.4,9.8,12.4c6.2,0,10-5,10-12.4
				S432.9,291,426.7,291z"/>
			<path fill="#20262B" d="M479.9,322.9v-23.1c0-4.8-2.2-7.6-7-7.6c-4.4,0-9,3.8-9,9.2v21.5h-9.6v-38.6h9.4v6.2
				c2.4-3.6,7.4-6.8,13.1-6.8c8.8,0,12.7,6,12.7,14.7v24.5H479.9z"/>
			<path fill="#20262B" d="M545.8,323.3c-1,0-2-0.2-2.8-1.2l-30.5-39.6v40.4h-7v-49.8c0-2,1.6-3.6,3.6-3.6c1.2,0,2,0.4,2.8,1.2
				l30.5,39.4v-40h7v49.6C549.4,321.7,547.6,323.3,545.8,323.3z"/>
			<path fill="#20262B" d="M586.5,322.9v-6.8c-2.6,4.2-7.6,7.4-13.3,7.4c-8.8,0-13.1-5.6-13.1-14.1v-25.1h7v24.1
				c0,5.8,2.4,8.8,8.2,8.8c5.4,0,11.2-4.8,11.2-12.4v-20.5h7v38.6H586.5z"/>
			<path fill="#20262B" d="M616.9,323.5c-6.4,0-10.4-3-10.4-11.2v-22.9h-5.2v-5.2h5.2v-11h7v11h7.6v5.2h-7.6V312c0,4.6,1.6,6,4.4,6
				c1,0,2.4-0.2,3.8-0.4l0.8,5.2C620.7,323.3,618.5,323.5,616.9,323.5z"/>
			<path fill="#20262B" d="M638,304.2v18.7h-7v-38.6h7v7.8c2.2-4.2,7.4-8.4,13.1-8.4v6.2C643.8,289.6,638,297,638,304.2z"/>
			<path fill="#20262B" d="M658.4,277.9v-8.6h7v8.6H658.4z M658.4,322.9v-38.6h7v38.6H658.4z"/>
			<path fill="#20262B" d="M691,323.5c-6.4,0-10.4-3-10.4-11.2v-22.9h-5.4v-5.2h5.2v-11h7v11h7.6v5.2h-7.6V312c0,4.6,1.6,6,4.4,6
				c1,0,2.4-0.2,3.8-0.4l0.8,5.2C694.8,323.3,692.6,323.5,691,323.5z"/>
			<path fill="#20262B" d="M705.2,277.9v-8.6h7v8.6H705.2z M705.2,322.9v-38.6h7v38.6H705.2z"/>
			<path fill="#20262B" d="M740.4,323.5c-11.4,0-18.7-9.4-18.7-19.9c0-10.8,7.4-19.9,18.7-19.9c11.4,0,18.7,9.4,18.7,19.9
				S752,323.5,740.4,323.5z M740.4,289.2c-7.4,0-11.8,5.8-11.8,14.3s4.4,14.3,11.8,14.3c7.4,0,11.8-5.8,11.8-14.3
				S747.8,289.2,740.4,289.2z"/>
			<path fill="#20262B" d="M793,322.9v-24.3c0-5.8-2.4-8.8-8.2-8.8c-5.4,0-11.2,4.8-11.2,12.5v20.5h-7v-38.6h7v6.8
				c2.6-4.2,7.6-7.4,13.3-7.4c8.8,0,12.9,5.8,12.9,14.3v24.9H793z"/>
		</g>
	</g>
</g>
</svg>
