<?xml version="1.0" encoding="UTF-8" standalone="no"?>
<svg width="201px" height="36px" viewBox="0 0 201 36" version="1.1" xmlns="http://www.w3.org/2000/svg" xmlns:xlink="http://www.w3.org/1999/xlink" xmlns:sketch="http://www.bohemiancoding.com/sketch/ns">
    <!-- Generator: Sketch 3.2.2 (9983) - http://www.bohemiancoding.com/sketch -->
    <title>Untitled 2</title>
    <desc>Created with Sketch.</desc>
    <defs></defs>
    <g id="Page-1" stroke="none" stroke-width="1" fill="none" fill-rule="evenodd" sketch:type="MSPage">
        <g id="Imported-Layers" sketch:type="MSLayerGroup" transform="translate(1.000000, 1.000000)">
            <path d="M134.452681,8.09842466 L138.985548,8.09842466 L138.985548,12.7002055 C140.205594,9.65184932 142.472261,7.56047945 145.958974,7.73979452 C146.365501,7.73979452 147.179021,7.91910959 147.179021,7.91910959 L144.389744,12.640274 C141.426107,13.0588356 138.927273,15.8674658 138.927273,20.7084932 L138.927273,28.4180822 L134.452681,28.4180822 L134.452681,8.09842466" id="Fill-1" fill="#12ACEF" sketch:type="MSShapeGroup"></path>
            <path d="M44.1552448,18.2028767 L44.1552448,18.1261644 C44.1552448,12.3343836 48.1463869,7.57773973 53.7780886,7.57773973 C60.0438228,7.57773973 63.213986,12.6412329 63.213986,18.4713699 C63.213986,18.8932877 63.17669,19.3152055 63.1393939,19.7759589 L48.6685315,19.7759589 C49.15338,23.0741096 51.427972,24.9152055 54.3375291,24.9152055 C56.5379953,24.9152055 58.1044289,24.0713699 59.6708625,22.4987671 L62.3188811,24.9152055 C60.4540793,27.2165753 57.8806527,28.7124658 54.2629371,28.7124658 C48.5561772,28.7124658 44.1552448,24.4549315 44.1552448,18.2028767 L44.1552448,18.2028767 Z M58.7384615,16.7069863 C58.4400932,13.7152055 56.7244755,11.3754795 53.7407925,11.3754795 C50.9808858,11.3754795 49.0410256,13.5617808 48.6307692,16.7069863 L58.7384615,16.7069863 L58.7384615,16.7069863 Z" id="Fill-2" fill="#12ACEF" sketch:type="MSShapeGroup"></path>
            <path d="M77.8153846,28.2521918 L77.8153846,25.7590411 C76.4727273,27.4083562 74.4214452,28.6741096 71.437296,28.6741096 C67.7076923,28.6741096 64.425641,26.4882877 64.425641,22.4220548 L64.425641,22.3453425 C64.425641,17.8576712 67.8195804,15.709726 72.406993,15.709726 C74.7939394,15.709726 76.3235431,16.0549315 77.8526807,16.5535616 L77.8526807,16.17 C77.8526807,13.37 76.1370629,11.8357534 73.0041958,11.8357534 C70.8037296,11.8357534 69.1622378,12.3343836 67.372028,13.1015068 L66.1412587,9.3809589 C68.3048951,8.38369863 70.4307692,7.69280822 73.6382284,7.69280822 C79.4564103,7.69280822 82.2909091,10.8384932 82.2909091,16.2467123 L82.2909091,28.2521918 L77.8153846,28.2521918 L77.8153846,28.2521918 Z M77.9272727,19.7759589 C76.7710956,19.3152055 75.167366,18.97 73.413986,18.97 C70.5794872,18.97 68.9016317,20.1590411 68.9016317,22.1152055 L68.9016317,22.1923973 C68.9016317,24.1102055 70.5794872,25.1836986 72.7058275,25.1836986 C75.6895105,25.1836986 77.9272727,23.4576712 77.9272727,20.9261644 L77.9272727,19.7759589 L77.9272727,19.7759589 Z" id="Fill-3" fill="#12ACEF" sketch:type="MSShapeGroup"></path>
            <path d="M82.7375291,7.99965753 L87.362704,7.99965753 L91.3160839,21.8850685 L95.6797203,7.92342466 L99.5216783,7.92342466 L103.922611,21.8850685 L107.950583,7.99965753 L112.463403,7.99965753 L106.011189,28.4060959 L101.983217,28.4060959 L97.5818182,14.5590411 L93.1435897,28.4060959 L89.1156177,28.4060959 L82.7375291,7.99965753" id="Fill-4" fill="#12ACEF" sketch:type="MSShapeGroup"></path>
            <path d="M111.67972,18.2412329 L111.67972,18.1645205 C111.67972,12.3727397 116.154779,7.57773973 122.197203,7.57773973 C128.239161,7.57773973 132.677855,12.2960274 132.677855,18.0878082 L132.677855,18.1645205 C132.677855,23.9179452 128.201865,28.7124658 122.122611,28.7124658 C116.117483,28.7124658 111.67972,23.9946575 111.67972,18.2412329 L111.67972,18.2412329 Z M128.164569,18.2412329 L128.164569,18.1645205 C128.164569,14.5973973 125.665734,11.6439726 122.122611,11.6439726 C118.504429,11.6439726 116.192075,14.5590411 116.192075,18.0878082 L116.192075,18.1645205 C116.192075,21.6937671 118.691375,24.6855479 122.197203,24.6855479 C125.852214,24.6855479 128.164569,21.7321233 128.164569,18.2412329 L128.164569,18.2412329 Z" id="Fill-5" fill="#12ACEF" sketch:type="MSShapeGroup"></path>
            <path d="M149.223776,22.6526712 L149.223776,12.2523973 L146.561305,12.2523973 L149.125408,7.78342466 L149.223776,7.78342466 L149.223776,2.4380137 L153.736597,2.4380137 L153.736597,7.78342466 L159.032634,7.78342466 L159.032634,12.2523973 L153.736597,12.2523973 L153.736597,21.9234247 C153.736597,23.7261644 154.632168,24.4549315 156.160839,24.4549315 C157.167832,24.4549315 158.062937,24.2247945 158.958042,23.7645205 L158.958042,27.5622603 C157.839627,28.2138356 156.571096,28.5978767 154.892774,28.5978767 C151.573427,28.5978767 149.223776,27.1019863 149.223776,22.6526712" id="Fill-6" fill="#12ACEF" sketch:type="MSShapeGroup"></path>
            <path d="M161.437762,0.251712329 L165.950117,0.251712329 L165.950117,11.1453425 C167.218648,9.22753425 169.046154,7.57773973 172.104429,7.57773973 C176.542657,7.57773973 179.11655,10.6462329 179.11655,15.3640411 L179.11655,28.2521918 L174.603263,28.2521918 L174.603263,16.7453425 C174.603263,13.600137 173.074126,11.7973973 170.388811,11.7973973 C167.778089,11.7973973 165.950117,13.6768493 165.950117,16.8220548 L165.950117,28.2521918 L161.437762,28.2521918 L161.437762,0.251712329" id="Fill-7" fill="#12ACEF" sketch:type="MSShapeGroup"></path>
            <path d="M180.338928,33.2773288 L181.868065,29.8247945 C182.688578,30.2850685 183.583683,30.5919178 184.516084,30.5919178 C185.784149,30.5919178 186.567366,30.0170548 187.313753,28.2521918 L179.108159,7.99965753 L183.919347,7.99965753 L189.513753,23.0357534 L194.62331,7.99965753 L199.322611,7.99965753 L191.490909,28.8275342 C189.924009,32.9704795 188.171096,34.504726 185.000932,34.504726 C183.098834,34.504726 181.718881,34.0439726 180.338928,33.2773288" id="Fill-8" fill="#12ACEF" sketch:type="MSShapeGroup"></path>
            <path d="M26.9151515,25.6439726 L28.9291375,22.4987671 C31.0550117,24.1480822 33.367366,24.9919178 35.381352,24.9919178 C37.3207459,24.9919178 38.4400932,24.1480822 38.4400932,22.8056164 L38.4400932,22.7289041 C38.4400932,21.1563014 36.351049,20.6193151 34.0386946,19.8905479 C31.1296037,19.0467123 27.8848485,17.8193151 27.8848485,13.944863 L27.8848485,13.8686301 C27.8848485,10.0325342 30.9804196,7.69280822 34.8965035,7.69280822 C37.358042,7.69280822 40.0438228,8.575 42.1324009,9.99465753 L40.3421911,13.2932877 C38.4400932,12.1042466 36.4261072,11.3754795 34.7846154,11.3754795 C33.0317016,11.3754795 32.0247086,12.2188356 32.0247086,13.4083562 L32.0247086,13.484589 C32.0247086,14.9421233 34.151049,15.5563014 36.4634033,16.3234247 C39.3351981,17.2439726 42.5799534,18.5864384 42.5799534,22.230274 L42.5799534,22.3069863 C42.5799534,26.5645205 39.3724942,28.6741096 35.2694639,28.6741096 C32.4722611,28.6741096 29.37669,27.6384932 26.9151515,25.6439726" id="Fill-9" fill="#12ACEF" sketch:type="MSShapeGroup"></path>
            <path d="M25.560373,20.6624658 L22.8699301,16.2150685 C22.848951,16.1805479 22.8121212,16.1589726 22.7724942,16.1575342 C22.7310023,16.1589726 22.6946387,16.1762329 22.6722611,16.2097945 L19.6568765,20.670137 C19.6265734,20.714726 19.6284382,20.7736986 19.6615385,20.8158904 C19.6848485,20.845137 19.7188811,20.8614384 19.7538462,20.8614384 C19.7692308,20.8614384 19.7846154,20.8585616 19.7990676,20.8523288 L21.2951049,20.2165753 C21.0811189,21.7469863 20.2820513,22.9691096 17.9687646,24.0445205 C17.6382284,24.1979452 17.0158508,24.3456164 16.413986,24.4889726 C15.7384615,24.6491096 15.0275058,24.8188356 14.3589744,25.0590411 L14.3589744,16.4921918 C15.0652681,16.3847945 15.6825175,16.2821918 16.2097902,16.1839041 C16.7449883,16.085137 17.195338,15.9825342 17.5613054,15.8760959 L18.0363636,13.1983562 C17.5776224,13.3091096 16.4097902,13.4831507 15.9379953,13.5718493 C15.4652681,13.6624658 14.9729604,13.7444521 14.4615385,13.8206849 L14.3589744,13.8374658 L14.3589744,8.61335616 C15.7538462,8.64835616 16.8135198,8.56013699 17.5337995,8.34486301 C18.2759907,8.13054795 18.8927739,7.71246575 19.3841492,7.09205479 C20.0965035,6.19260274 20.3715618,5.18575342 20.211655,4.06958904 C20.0512821,2.95486301 19.4918415,1.9959589 18.5319347,1.19239726 C17.5431235,0.36390411 16.4927739,-0.00910958904 15.383683,0.0733561644 C14.2876457,0.165890411 13.3552448,0.695684932 12.5888112,1.66369863 C11.8121212,2.64465753 11.4853147,4.02691781 11.606993,5.81143836 C11.5188811,5.80952055 11.4494172,5.80808219 11.3995338,5.80712329 C11.3501166,5.80760274 11.3160839,5.80568493 11.2993007,5.80136986 L9.87692308,5.67767123 C7.78508159,5.50506849 6.17249417,6.1360274 5.03729604,7.56958904 C4.08438228,8.7730137 3.70536131,10.1380137 3.9020979,11.6641096 C4.11981352,13.200274 4.84848485,14.4856849 6.08578089,15.5222603 C7.45361305,16.6676712 9.2997669,17.1025342 11.62331,16.8321233 L11.62331,25.0892466 C10.9291375,24.8317808 10.186014,24.654863 9.48111888,24.4880137 C8.87972028,24.3456164 8.25780886,24.1979452 7.92773893,24.0445205 C5.55244755,22.9403425 4.7030303,21.7853425 4.46013986,20.3896575 L5.93892774,21.0182192 C5.95384615,21.0244521 5.96876457,21.0273288 5.98414918,21.0273288 C6.01911422,21.0273288 6.05361305,21.0115068 6.07645688,20.9822603 C6.10955711,20.9400685 6.11142191,20.8806164 6.08158508,20.8360274 L3.06573427,16.3756849 C3.04289044,16.3426027 3.0004662,16.3219863 2.96550117,16.3234247 C2.92587413,16.324863 2.88904429,16.3464384 2.86806527,16.3809589 L0.177622378,20.8283562 C0.150582751,20.8734247 0.154778555,20.9314384 0.187878788,20.9717123 C0.220979021,21.0124658 0.276456876,21.0249315 0.324009324,21.005274 L1.7039627,20.4117123 C2.02517483,23.195411 3.63170163,25.135274 6.8009324,26.6081507 C7.37902098,26.8771233 8.1020979,27.0482877 8.86713287,27.2295205 C9.8013986,27.4505479 11.365035,27.8211644 11.6769231,28.329863 C11.9310023,28.744589 12.351049,29.000137 12.8055944,29.0279452 C12.8177156,29.029863 12.830303,29.0313014 12.8424242,29.0332192 C12.8988345,29.0399315 12.9543124,29.0432877 13.0097902,29.0432877 C13.4983683,29.0432877 13.9505828,28.7815068 14.2172494,28.3336986 C14.5193473,27.8259589 16.0904429,27.4529452 17.0293706,27.2304795 C17.7948718,27.0482877 18.5174825,26.8766438 19.0955711,26.6081507 C22.1841492,25.1726712 23.7412587,23.1829452 24.0400932,20.2482192 L25.413986,20.8393836 C25.4606061,20.8595205 25.5165501,20.8460959 25.5501166,20.8058219 C25.5832168,20.7655479 25.5874126,20.7075342 25.560373,20.6624658 L25.560373,20.6624658 Z M14.7454545,3.08383562 C15.030303,2.72376712 15.3939394,2.53869863 15.8354312,2.52575342 C16.2867133,2.50130137 16.7020979,2.64753425 17.0820513,2.96589041 C17.4983683,3.31445205 17.7365967,3.7109589 17.797669,4.1539726 C17.8578089,4.59746575 17.7384615,5.00787671 17.4386946,5.38664384 C17.1738928,5.72082192 16.8587413,5.92842466 16.4969697,6.00561644 C16.3188811,6.05308219 16.0652681,6.08089041 15.7370629,6.09 C15.409324,6.09863014 15.0060606,6.09479452 14.5291375,6.07561644 L14.2540793,6.06267123 C14.2480186,5.95527397 14.2494172,5.87808219 14.2554779,5.83157534 L14.24662,4.74082192 C14.2452214,4.05808219 14.4111888,3.50623288 14.7454545,3.08383562 L14.7454545,3.08383562 Z M7.53426573,13.4836301 C6.95431235,12.9979452 6.61258741,12.3142466 6.50862471,11.4320548 C6.43682984,10.5474658 6.63729604,9.80719178 7.10909091,9.21123288 C7.43822844,8.7960274 7.9039627,8.52993151 8.50675991,8.41486301 C9.11468531,8.3060274 10.0932401,8.3060274 11.4428904,8.41390411 L11.62331,8.42828767 L11.62331,14.1960959 C9.70815851,14.3993836 8.34405594,14.1615753 7.53426573,13.4836301 L7.53426573,13.4836301 Z" id="Fill-10" fill="#EB0091" sketch:type="MSShapeGroup"></path>
            <path d="M25.560373,20.6624658 L22.8699301,16.2150685 C22.848951,16.1805479 22.8121212,16.1589726 22.7724942,16.1575342 C22.7310023,16.1589726 22.6946387,16.1762329 22.6722611,16.2097945 L19.6568765,20.670137 C19.6265734,20.714726 19.6284382,20.7736986 19.6615385,20.8158904 C19.6848485,20.845137 19.7188811,20.8614384 19.7538462,20.8614384 C19.7692308,20.8614384 19.7846154,20.8585616 19.7990676,20.8523288 L21.2951049,20.2165753 C21.0811189,21.7469863 20.2820513,22.9691096 17.9687646,24.0445205 C17.6382284,24.1979452 17.0158508,24.3456164 16.413986,24.4889726 C15.7384615,24.6491096 15.0275058,24.8188356 14.3589744,25.0590411 L14.3589744,16.4921918 C15.0652681,16.3847945 15.6825175,16.2821918 16.2097902,16.1839041 C16.7449883,16.085137 17.195338,15.9825342 17.5613054,15.8760959 L18.0363636,13.1983562 C17.5776224,13.3091096 16.4097902,13.4831507 15.9379953,13.5718493 C15.4652681,13.6624658 14.9729604,13.7444521 14.4615385,13.8206849 L14.3589744,13.8374658 L14.3589744,8.61335616 C15.7538462,8.64835616 16.8135198,8.56013699 17.5337995,8.34486301 C18.2759907,8.13054795 18.8927739,7.71246575 19.3841492,7.09205479 C20.0965035,6.19260274 20.3715618,5.18575342 20.211655,4.06958904 C20.0512821,2.95486301 19.4918415,1.9959589 18.5319347,1.19239726 C17.5431235,0.36390411 16.4927739,-0.00910958904 15.383683,0.0733561644 C14.2876457,0.165890411 13.3552448,0.695684932 12.5888112,1.66369863 C11.8121212,2.64465753 11.4853147,4.02691781 11.606993,5.81143836 C11.5188811,5.80952055 11.4494172,5.80808219 11.3995338,5.80712329 C11.3501166,5.80760274 11.3160839,5.80568493 11.2993007,5.80136986 L9.87692308,5.67767123 C7.78508159,5.50506849 6.17249417,6.1360274 5.03729604,7.56958904 C4.08438228,8.7730137 3.70536131,10.1380137 3.9020979,11.6641096 C4.11981352,13.200274 4.84848485,14.4856849 6.08578089,15.5222603 C7.45361305,16.6676712 9.2997669,17.1025342 11.62331,16.8321233 L11.62331,25.0892466 C10.9291375,24.8317808 10.186014,24.654863 9.48111888,24.4880137 C8.87972028,24.3456164 8.25780886,24.1979452 7.92773893,24.0445205 C5.55244755,22.9403425 4.7030303,21.7853425 4.46013986,20.3896575 L5.93892774,21.0182192 C5.95384615,21.0244521 5.96876457,21.0273288 5.98414918,21.0273288 C6.01911422,21.0273288 6.05361305,21.0115068 6.07645688,20.9822603 C6.10955711,20.9400685 6.11142191,20.8806164 6.08158508,20.8360274 L3.06573427,16.3756849 C3.04289044,16.3426027 3.0004662,16.3219863 2.96550117,16.3234247 C2.92587413,16.324863 2.88904429,16.3464384 2.86806527,16.3809589 L0.177622378,20.8283562 C0.150582751,20.8734247 0.154778555,20.9314384 0.187878788,20.9717123 C0.220979021,21.0124658 0.276456876,21.0249315 0.324009324,21.005274 L1.7039627,20.4117123 C2.02517483,23.195411 3.63170163,25.135274 6.8009324,26.6081507 C7.37902098,26.8771233 8.1020979,27.0482877 8.86713287,27.2295205 C9.8013986,27.4505479 11.365035,27.8211644 11.6769231,28.329863 C11.9310023,28.744589 12.351049,29.000137 12.8055944,29.0279452 C12.8177156,29.029863 12.830303,29.0313014 12.8424242,29.0332192 C12.8988345,29.0399315 12.9543124,29.0432877 13.0097902,29.0432877 C13.4983683,29.0432877 13.9505828,28.7815068 14.2172494,28.3336986 C14.5193473,27.8259589 16.0904429,27.4529452 17.0293706,27.2304795 C17.7948718,27.0482877 18.5174825,26.8766438 19.0955711,26.6081507 C22.1841492,25.1726712 23.7412587,23.1829452 24.0400932,20.2482192 L25.413986,20.8393836 C25.4606061,20.8595205 25.5165501,20.8460959 25.5501166,20.8058219 C25.5832168,20.7655479 25.5874126,20.7075342 25.560373,20.6624658 L25.560373,20.6624658 Z M14.7454545,3.08383562 C15.030303,2.72376712 15.3939394,2.53869863 15.8354312,2.52575342 C16.2867133,2.50130137 16.7020979,2.64753425 17.0820513,2.96589041 C17.4983683,3.31445205 17.7365967,3.7109589 17.797669,4.1539726 C17.8578089,4.59746575 17.7384615,5.00787671 17.4386946,5.38664384 C17.1738928,5.72082192 16.8587413,5.92842466 16.4969697,6.00561644 C16.3188811,6.05308219 16.0652681,6.08089041 15.7370629,6.09 C15.409324,6.09863014 15.0060606,6.09479452 14.5291375,6.07561644 L14.2540793,6.06267123 C14.2480186,5.95527397 14.2494172,5.87808219 14.2554779,5.83157534 L14.24662,4.74082192 C14.2452214,4.05808219 14.4111888,3.50623288 14.7454545,3.08383562 L14.7454545,3.08383562 Z M7.53426573,13.4836301 C6.95431235,12.9979452 6.61258741,12.3142466 6.50862471,11.4320548 C6.43682984,10.5474658 6.63729604,9.80719178 7.10909091,9.21123288 C7.43822844,8.7960274 7.9039627,8.52993151 8.50675991,8.41486301 C9.11468531,8.3060274 10.0932401,8.3060274 11.4428904,8.41390411 L11.62331,8.42828767 L11.62331,14.1960959 C9.70815851,14.3993836 8.34405594,14.1615753 7.53426573,13.4836301 L7.53426573,13.4836301 Z" id="Stroke-11" stroke="#EB0091" stroke-width="1.051" sketch:type="MSShapeGroup"></path>
        </g>
    </g>
</svg>