<svg width="600" height="200" viewBox="0 0 600 200" xmlns="http://www.w3.org/2000/svg"><title>Untitled 2</title><g id="Page-1" fill="none" fill-rule="evenodd"><g id="logo-talky-consulting"><path fill="#FFF" d="M0 0h600v200H0z"/><g id="Group"><g id="Shape"><g fill="#00B0E9"><path d="M198.9 112.5V84.7h-6.6V74.3h6.6V59.8h11.9v14.5h14v10.4h-14v25.9c0 4.7 2.4 6.6 6.4 6.6 2.7 0 5-.6 7.4-1.8v9.9c-3 1.7-6.3 2.7-10.7 2.7-8.8 0-15-3.9-15-15.5zM262.5 127.1v-6.5c-3.5 4.3-9 7.6-16.8 7.6-9.8 0-18.5-5.7-18.5-16.3v-.2c0-11.7 9-17.3 21.1-17.3 6.3 0 10.3.9 14.4 2.2v-1c0-7.3-4.5-11.3-12.8-11.3-5.8 0-10.1 1.3-14.9 3.3l-3.2-9.7c5.7-2.6 11.3-4.4 19.8-4.4 15.4 0 22.8 8.2 22.8 22.3v31.3h-11.9zm.3-22.1c-3.1-1.2-7.3-2.1-11.9-2.1-7.5 0-11.9 3.1-11.9 8.2v.2c0 5 4.4 7.8 10 7.8 7.9 0 13.8-4.5 13.8-11.1v-3zM283 54.1h11.9v73H283v-73zM303.9 54.1h11.9v43.6l21.6-23.4h14.5l-20.7 21.5 21.4 31.3h-13.8l-15.6-22.8-7.3 7.7v15.1H304v-73h-.1zM355.8 140.2l4-9c2.2 1.2 4.5 2 7 2 3.3 0 5.4-1.5 7.4-6.1l-21.6-52.8h12.7l14.8 39.2 13.5-39.2H406l-20.7 54.3c-4.1 10.8-8.8 14.8-17.1 14.8-5.1 0-8.8-1.2-12.4-3.2z" id="Shape"/></g><path d="M379.8 11.3c-15.8-.5-27.8 11.5-28.3 26.5v.2c-.1 5 1 9.7 3.2 13.8-.2 3.8-3.4 9.4-8.5 13.5 10.9 2 16.1-1.9 19.2-2.7 3.6 2.1 7.9 3.2 12.5 3.3 15.9.5 27.9-11.5 28.4-26.4v-.2c.5-14.9-10.8-27.5-26.5-28zm12.5 26.6L376 53.6c-1.2 1.1-2.3.9-2.5-.6l-3.8-28c-.2-1.5.8-2.1 2.3-1.3l19.8 10.7c1.4.8 1.6 2.4.5 3.5z" fill="#EE0788"/></g><g fill="#00B0E9"><path d="M177 168.1c0-7.9 5.9-14.4 14.3-14.4 5.1 0 8.2 1.8 10.8 4.3l-3.1 3.6c-2.2-2.1-4.6-3.4-7.7-3.4-5.3 0-9.1 4.3-9.1 9.8v.1c0 5.4 3.8 9.8 9.1 9.8 3.4 0 5.6-1.4 7.9-3.6l3.1 3.2c-2.9 3-6 4.9-11.2 4.9-8.1-.1-14.1-6.4-14.1-14.3zM203.1 168.1c0-7.9 6-14.4 14.5-14.4s14.4 6.4 14.4 14.2v.1c0 7.8-6 14.3-14.5 14.3s-14.4-6.4-14.4-14.2zm23.9 0c0-5.5-3.9-9.9-9.4-9.9s-9.3 4.4-9.3 9.8v.1c0 5.4 3.9 9.8 9.4 9.8 5.4 0 9.3-4.4 9.3-9.8zM234.9 154.2h4.5l14.8 19.1v-19.1h4.8v27.7h-4l-15.3-19.7v19.7h-4.8v-27.7zM262.3 177.8l2.9-3.5c2.6 2.3 5.3 3.6 8.7 3.6 3 0 4.9-1.4 4.9-3.5v-.1c0-2-1.1-3-6.2-4.2-5.9-1.4-9.2-3.2-9.2-8.3v-.1c0-4.7 4-8 9.4-8 4 0 7.2 1.2 10 3.5l-2.6 3.7c-2.5-1.9-5-2.8-7.5-2.8-2.8 0-4.5 1.5-4.5 3.3v.1c0 2.1 1.3 3.1 6.6 4.3 5.9 1.4 8.9 3.5 8.9 8.1v.1c0 5.2-4.1 8.3-9.9 8.3-4.1 0-8.1-1.5-11.5-4.5zM287 170.1v-15.9h4.9v15.7c0 5.1 2.6 7.9 7 7.9 4.3 0 7-2.6 7-7.7v-15.9h4.9v15.7c0 8.3-4.7 12.4-11.9 12.4-7.3 0-11.9-4.2-11.9-12.2zM315.3 154.2h4.9v23.2h14.6v4.4h-19.4v-27.6h-.1zM340.5 158.7h-8.8v-4.5h22.5v4.5h-8.8v23.2h-4.9v-23.2zM359.5 154.2h4.9v27.7h-4.9v-27.7zM369.5 154.2h4.5l14.8 19.1v-19.1h4.8v27.7h-4.1l-15.3-19.7v19.7h-4.8v-27.7h.1zM397.1 168.1c0-7.8 5.9-14.4 14.3-14.4 4.8 0 7.8 1.3 10.6 3.8l-3.1 3.7c-2.1-1.8-4.2-3-7.7-3-5.1 0-9 4.5-9 9.8v.1c0 5.7 3.8 9.9 9.4 9.9 2.6 0 5-.8 6.7-2.1v-5.2h-7.1v-4.2H423V178c-2.7 2.3-6.6 4.3-11.5 4.3-8.7 0-14.4-6.1-14.4-14.2z"/></g></g></g></g></svg>