<?xml version="1.0" encoding="utf-8"?>
<!-- Generator: Adobe Illustrator 19.1.0, SVG Export Plug-In . SVG Version: 6.00 Build 0)  -->
<svg version="1.1" id="Layer_1" xmlns="http://www.w3.org/2000/svg" xmlns:xlink="http://www.w3.org/1999/xlink" x="0px" y="0px"
	 width="505.7px" height="227.6px" viewBox="-496 137.4 505.7 227.6" style="enable-background:new -496 137.4 505.7 227.6;"
	 xml:space="preserve">
<style type="text/css">
	.st0{fill:#00B0E9;}
</style>
<title  xml:lang="en">AT&amp;T</title>
<path id="forestripes" class="st0" d="M-491.6,220.5c1.8-6.5,4.2-12.8,7.1-18.7c-1.3,3.1-2,6.5-2,11.3c0,27.7,59.9,55.1,133.4,35
	c28.6-7.8,71.4-22.8,71.4-45.8c0-1.2,0.5-3.8-3.3-10.4c4.8,7.8,8.6,16.1,11.4,24.9c1.4,4.6,1.2,7.9,1.2,9.1c0,5.7-7,40.2-76,46.4
	c-6,0.5-49.8,1.2-87.8-8.4c-25.3-6.4-50.8-18.8-55.6-36C-492.6,225.3-492.2,222.8-491.6,220.5z M-384.5,330.5
	c-14.4,1.6-97.8,5.4-109.9-60.8c1.7,10.6,4.9,20.6,9.3,30c5.2,9.5,18.2,22.4,37.1,30.2c97.8,40.4,158-7.7,169.6-31.6
	c4.7-10.3,7.8-21.4,9.3-33C-270.5,274.1-279.6,318.8-384.5,330.5z M-386.9,353.4c-17.3,0-55-2.8-79.6-25.9
	c20.8,23,50.9,37.5,84.4,37.5c43.6,0,81.5-24.5,100.6-60.5C-287.5,314.9-313.6,353.4-386.9,353.4z M-454.1,297.8
	c24.6,10.1,63.7,17.7,85.9,16.9c80-2.9,97.8-43.3,99.6-55.1c0.2-2.8,0.3-5.6,0.3-8.4c0-9.3-1.1-18.3-3.2-27c0.9,3.8,1.1,7.4,1.1,9.3
	c0,3.9,0.8,38.9-79.1,56.7c-47.8,10.7-68.1,10.3-101,0c-28.8-9.1-44.5-30.2-45-48.3c-0.3,3.1-0.4,6.3-0.4,9.4c0,2.6,0.1,5.1,0.3,7.7
	C-493.5,274-473.9,289.7-454.1,297.8z M-416.9,221.6c12,1.5,43.7,5.9,68.3,3.8c49.6-4.1,60.6-21.4,60.6-32.7c0-3.1-1.7-7.6-3.3-10.2
	c-4.4-5.8-9.4-11.2-14.8-16.1c1.4,1.5,1.9,3.5,1.9,4.6c0.5,7.7-12.1,18-37.4,26.4c-15.8,5.2-36.7,10.3-62.6,10.3
	c-43.7,0-58.8-16.6-58.8-26.9c0-1.1-0.2-10,9.9-18.4c-9.3,7.4-17.4,16.3-23.9,26.2c-0.7,1.2-1.1,2.5-1.1,4.1
	C-478.2,203.4-452.4,217.1-416.9,221.6z M-449.5,165.2c0.8,11.4,31,20.3,67.4,19.4c36.4-1,64.3-11.4,64.3-22.8
	c0-3.3-2.4-6.2-6.8-8.7c-16.9-9.9-36.6-15.7-57.6-15.7c-22,0-42.4,6.2-59.8,17C-447.1,157.8-449.9,161.5-449.5,165.2z"/>
<path class="st0" d="M-167.4,291.8c-0.7-2.1-0.9-4.3-1-5.3l-0.1-41.3c0-19.8-14-26.9-27.2-26.9c-10.4,0-19.9,2.7-26,6.8
	c-1.1,0.8-1.2,2-0.6,2.9l4.8,6.5c1.2,1.3,2.4,1,3.6,0c4.8-3,10.4-4.7,16.1-4.7c16.2,0,15.7,12.7,15.7,14.3c0,0.8-0.5,1-1.1,1
	l-2.5-0.1c-12.6-0.5-44.5,3.8-44.5,29.1c0,14.8,12.4,22.4,23.9,22.4c11.2,0,20.2-4.4,24.7-9.9c0.3-0.3,0.5,0,0.5,0.1
	c0,0.7,0,2.3,0.1,3.6c0.2,3.3,0.9,4.4,2.5,4.5h9c1.2,0,2.1-0.9,2.1-2.1C-167.1,292.7-167.4,291.8-167.4,291.8L-167.4,291.8z
	 M-181.4,262.4c-1.8,13-8.2,20.4-20,22.4c-8.3,1.4-15.8-2.1-16.2-10.9c-0.5-9.8,10.9-18,31.8-17.1c0,0,1.5,0.1,2.6,0.2
	C-180.8,257.2-180.8,258.5-181.4,262.4z"/>
<path class="st0" d="M-135.6,198.6l-9.4,0.7c-1.1,0-2.1,1-2.1,2.2v15.7c0,0.6-0.5,1.1-1.1,1.1h-11.4c-1.2,0-2.2,1-2.2,2.2v7.9
	c0,0.6,0.3,1.1,0.7,1.5s1,0.6,1.6,0.6h11.3c0.6,0,1.1,0.5,1.1,1.1v37.9c0,20.4,15.3,27.6,28.8,27.6c0,0,1.6,0,2.8-0.1s2.1-1,2.1-2.1
	v-7.4c0-1.2-1-2.1-2.4-2.1c-11.5,0-17.6-6.1-17.6-18.2v-35.5c0-0.6,0.5-1.1,1.1-1.1h18.1c1.2,0,2.2-1,2.2-2.1v-7.9
	c0-1.2-1-2.2-2.2-2.2h-18c-0.7,0-1.2-0.5-1.2-1.2v-16.3C-133.4,199.7-134.3,198.6-135.6,198.6L-135.6,198.6z"/>
<path class="st0" d="M-67.3,278.1c-3.7,4.4-7.8,7.4-13.7,7.4c-7,0-12.5-5.1-12.5-11.5c0-5.7,2.4-9.1,9.7-13.5
	c0.5-0.3,1.1-0.2,1.4,0.1l15.1,15.8C-66.9,277.1-67.1,277.4-67.3,278.1L-67.3,278.1z M-79.7,245.2c-0.4,0.2-1.1,0.1-1.4-0.2
	c-2.2-2.4-4.9-6.4-4.9-9.2c0-4.8,3.4-8.5,8.4-8.5c4.8,0,7.4,3.3,7.4,7.4C-70.2,239.5-74.6,242.3-79.7,245.2z M-36.9,291.2
	l-14.4-14.9c-0.4-0.3-0.6-1.1-0.2-1.6l11-18.5c0.2-0.5,0.3-0.9,0.3-1c0-1.2-0.9-2.1-2.1-2.1h-8c-0.8,0-1.5,0.4-1.9,1.1l-7,12
	c-0.3,0.5-1,0.6-1.5,0.2l-11.2-11.6c-0.4-0.7-0.1-0.9,0.2-1.5c6.4-3.8,13.7-9.2,13.7-18.8c0-11-7.9-18.4-19.6-18.4
	c-11.5,0-20.2,7.7-20.2,19.2c0,5.1,2.1,10.1,6.6,15.9c0.1,0.7,0,1-0.3,1.2c-9.6,5.4-14.4,12.6-14.4,21.4c0,14.9,12.5,22.8,24.9,22.8
	c8.5,0,15.1-3.3,21.5-10.7c0.4-0.4,1.1-0.4,1.6,0l7.8,8.1c0.5,0.5,1.1,0.7,1.6,0.7h10.2c1.2,0,2.1-1,2.1-2.1
	C-36.3,292.2-36.5,291.6-36.9,291.2L-36.9,291.2z"/>
<path class="st0" d="M8.4,287.5c0-0.8-0.6-2.3-2.6-2.1c-11.5,0-17.4-6.1-17.4-18.2v-35.5c0-0.6,0.5-1.1,1.1-1.1h18
	c1.2,0,2.2-1,2.2-2.1v-7.9c0-1.2-1-2.2-2.2-2.2h-18c-0.7,0-1.2-0.5-1.2-1.2v-16.3c0-1.7-1.4-2.3-2.3-2.2l-9.3,0.7
	c-1.1,0-2.1,1-2.1,2.2v15.7c0,0.6-0.5,1.1-1.1,1.1h-11.4c-1.2,0-2.2,1-2.2,2.2v7.9c0,1.2,1.1,2.1,2.2,2.1h11.4
	c0.6,0,1.1,0.5,1.1,1.1v37.9c0,20.4,15.3,27.6,28.8,27.6c0,0,1.6,0,2.8-0.1s2.1-1,2.1-2.1L8.4,287.5L8.4,287.5z"/>
</svg>
