<?xml version="1.0" encoding="utf-8"?>
<!-- Generator: Adobe Illustrator 19.1.0, SVG Export Plug-In . SVG Version: 6.00 Build 0)  -->
<svg version="1.1" id="Layer_1" xmlns="http://www.w3.org/2000/svg" xmlns:xlink="http://www.w3.org/1999/xlink" x="0px" y="0px"
	 width="394px" height="192.8px" viewBox="-552 154.2 394 192.8" style="enable-background:new -552 154.2 394 192.8;"
	 xml:space="preserve">
<style type="text/css">
	.st0{fill:#00B0E9;}
	.st1{fill:#8FD5F2;}
</style>
<g>
	<g>
		<path class="st0" d="M-463.1,259.5v-70.8h33.8v10.6H-451v18.3h16.2v10.5H-451v31.4H-463.1L-463.1,259.5z"/>
	</g>
	<g>
		<path class="st0" d="M-423,259.5v-70.8h12.1v60.3h19v10.5H-423z"/>
	</g>
	<g>
		<path class="st0" d="M-375.3,259.5H-387l13-70.8h15l13,70.8h-11.7l-2.1-15.7h-13.3L-375.3,259.5z M-371.4,233.1h9.8l-4.8-30.4
			h-0.2L-371.4,233.1z"/>
	</g>
	<g>
		<path class="st0" d="M-336.1,199.1h-11.7v-10.6h35.5v10.6H-324v60.3h-12.1V199.1L-336.1,199.1z"/>
	</g>
	<g>
		<path class="st0" d="M-307.8,259.5v-70.8h12.1v70.8H-307.8z"/>
	</g>
	<g>
		<path class="st0" d="M-274.5,259.5h-12.1v-70.8h17c13.6,0,20.5,5.8,20.5,20.9c0,11.4-4.4,16-8.5,17.9l10.2,32h-12.3l-8.6-29.3
			c-1.6,0.2-4.1,0.3-6.2,0.3V259.5L-274.5,259.5z M-274.5,220.3h4.3c6.5,0,9-2.5,9-10.9s-2.4-10.9-9-10.9h-4.3V220.3z"/>
	</g>
	<g>
		<path class="st0" d="M-241.7,205.8c0-10,5.9-18.2,18.5-18.2c12.7,0,18.5,8.1,18.5,18.2v36.5c0,10-5.9,18.2-18.5,18.2
			c-12.7,0-18.5-8.1-18.5-18.2L-241.7,205.8L-241.7,205.8z M-229.6,241.9c0,5.3,1.6,7.8,6.4,7.8s6.4-2.6,6.4-7.8V206
			c0-5.3-1.6-7.8-6.4-7.8c-4.9,0-6.4,2.6-6.4,7.8V241.9z"/>
	</g>
	<g>
		<path class="st0" d="M-196,259.5v-70.8h11.2l14.7,40.5h0.2v-40.5h10.9v70.8h-10.5l-15.4-44.3h-0.2v44.3H-196z"/>
	</g>
	<g>
		<path class="st0" d="M-441.8,293c-0.5-6.1-3.7-7.9-6.4-7.9c-3.9,0-6,2.6-6,7c0,12.1,24.6,17.9,24.6,37.1
			c0,11.7-7.8,18.2-19.1,18.2c-11.2,0-17.7-9-18.1-19.6l11.5-1.7c0.5,7.2,3.3,10.7,7.2,10.7c4.2,0,7-2.3,7-6.5
			c0-14-24.6-17.8-24.6-38.1c0-11.3,6.8-17.7,18.7-17.7c9.9,0,15.7,7.2,16.8,17.2L-441.8,293z"/>
	</g>
	<g>
		<path class="st0" d="M-397.9,299.2v-5.5c0-6-2.7-8.5-5.9-8.5c-4.9,0-6.4,2.6-6.4,7.9V329c0,5.3,1.6,7.9,6.4,7.9
			c4.4,0,5.9-2.6,5.9-7.2v-8.5h12.1v8.1c0,10-5.9,18.2-18,18.2c-12.7,0-18.5-8.1-18.5-18.2v-36.6c0-10,5.9-18.2,18.5-18.2
			c12.1,0,18,8.8,18,19.4v5.2L-397.9,299.2L-397.9,299.2z"/>
	</g>
	<g>
		<path class="st0" d="M-377.6,346.5v-70.8h12.1v28.8h12.9v-28.8h12.1v70.8h-12.1V315h-12.9v31.4H-377.6z"/>
	</g>
	<g>
		<path class="st0" d="M-332.3,292.8c0-10,5.9-18.2,18.5-18.2s18.5,8.1,18.5,18.2v36.5c0,10-5.9,18.2-18.5,18.2s-18.5-8.1-18.5-18.2
			V292.8z M-320.2,329c0,5.3,1.6,7.9,6.4,7.9s6.4-2.6,6.4-7.9V293c0-5.3-1.6-7.9-6.4-7.9c-4.9,0-6.4,2.6-6.4,7.9V329z"/>
	</g>
	<g>
		<path class="st0" d="M-286.6,292.8c0-10,5.9-18.2,18.5-18.2s18.5,8.1,18.5,18.2v36.5c0,10-5.9,18.2-18.5,18.2s-18.5-8.1-18.5-18.2
			V292.8z M-274.5,329c0,5.3,1.6,7.9,6.4,7.9s6.4-2.6,6.4-7.9V293c0-5.3-1.6-7.9-6.4-7.9c-4.9,0-6.4,2.6-6.4,7.9V329z"/>
	</g>
	<g>
		<path class="st0" d="M-241.7,346.5v-70.8h12.1V336h19v10.5H-241.7z"/>
	</g>
</g>
<polygon class="st1" points="-537.1,257.8 -551.1,257.8 -520.4,153.6 -506.4,153.6 "/>
<polygon class="st1" points="-508.6,257.8 -522.6,257.8 -491.9,153.6 -477.9,153.6 "/>
</svg>
