<?xml version="1.0" encoding="utf-8"?>
<!-- Generator: Adobe Illustrator 19.1.0, SVG Export Plug-In . SVG Version: 6.00 Build 0)  -->
<svg version="1.1" id="Layer_1" xmlns="http://www.w3.org/2000/svg" xmlns:xlink="http://www.w3.org/1999/xlink" x="0px" y="0px"
	 width="168.9px" height="140.1px" viewBox="-665 180.9 168.9 140.1" style="enable-background:new -665 180.9 168.9 140.1;"
	 xml:space="preserve">
<style type="text/css">
	.st0{fill:#00B0E9;}
	.st1{fill:#8FD5F2;}
	.st2{fill:#FFFFFF;}
</style>
<g id="Layer_1_1_">
</g>
<g id="Layer_2">
	<g>
		<g>
			<path class="st0" d="M-650.6,291.9c8,0,14.4,6.5,14.4,14.6c0,8.1-6.4,14.5-14.4,14.5c-8,0-14.4-6.4-14.4-14.5
				S-658.6,291.9-650.6,291.9z M-650.6,315.7c5,0,9.2-4.2,9.2-9.3s-4.2-9.3-9.2-9.3c-5.1,0-9.2,4.2-9.2,9.3
				S-655.7,315.7-650.6,315.7z"/>
			<path class="st0" d="M-618.5,291.9c4,0,7,1.3,9.7,3.8c0.4,0.3,0.4,0.8,0,1.1l-2.4,2.5c-0.3,0.3-0.7,0.3-1,0
				c-1.7-1.5-3.9-2.4-6.2-2.4c-5.1,0-8.9,4.3-8.9,9.4c0,5.1,3.8,9.3,9,9.3c2.4,0,4.4-0.9,6.1-2.3c0.3-0.3,0.8-0.2,1,0l2.5,2.6
				c0.3,0.3,0.2,0.8,0,1.1c-2.7,2.7-6.2,3.9-9.7,3.9c-8,0-14.5-6.4-14.5-14.5C-633,298.4-626.5,291.9-618.5,291.9z"/>
			<path class="st0" d="M-599.7,297.1h-6.1c-0.4,0-0.8-0.4-0.8-0.8V293c0-0.4,0.3-0.8,0.8-0.8h17.5c0.4,0,0.8,0.4,0.8,0.8v3.3
				c0,0.4-0.3,0.8-0.8,0.8h-6.1v22.7c0,0.4-0.4,0.8-0.8,0.8h-3.7c-0.4,0-0.8-0.4-0.8-0.8L-599.7,297.1L-599.7,297.1z"/>
			<path class="st0" d="M-571.3,291.9c8,0,14.4,6.5,14.4,14.6c0,8.1-6.4,14.5-14.4,14.5c-8,0-14.4-6.4-14.4-14.5
				C-585.7,298.4-579.3,291.9-571.3,291.9z M-571.3,315.7c5.1,0,9.2-4.2,9.2-9.3s-4.2-9.3-9.2-9.3c-5.1,0-9.2,4.2-9.2,9.3
				S-576.4,315.7-571.3,315.7z"/>
			<path class="st0" d="M-555.5,293.3c-0.2-0.5,0.1-1.1,0.7-1.1h4.1c0.4,0,0.6,0.2,0.7,0.4l7.7,17.4h0.3l7.7-17.4
				c0.1-0.2,0.3-0.4,0.7-0.4h4.1c0.6,0,0.9,0.5,0.7,1.1l-12.4,27.2c-0.1,0.2-0.3,0.4-0.7,0.4h-0.4c-0.4,0-0.6-0.2-0.7-0.4
				L-555.5,293.3z"/>
			<path class="st0" d="M-525.3,293c0-0.4,0.4-0.8,0.8-0.8h3.7c0.4,0,0.8,0.4,0.8,0.8v26.8c0,0.4-0.4,0.8-0.8,0.8h-3.7
				c-0.4,0-0.8-0.4-0.8-0.8V293z"/>
			<path class="st0" d="M-514.4,316.6l1.4-2.5c0.3-0.6,1-0.6,1.4-0.3c0.2,0.1,3.4,2.5,6.1,2.5c2.1,0,3.6-1.4,3.6-3.1
				c0-2.1-1.7-3.5-5.1-4.9c-3.8-1.5-7.5-4-7.5-8.7c0-3.6,2.6-7.8,9-7.8c4.1,0,7.2,2.1,8,2.7c0.4,0.2,0.5,0.9,0.2,1.3l-1.5,2.3
				c-0.3,0.5-0.9,0.8-1.4,0.5c-0.3-0.2-3.4-2.2-5.6-2.2c-2.3,0-3.5,1.5-3.5,2.8c0,1.9,1.5,3.2,4.7,4.5c3.9,1.6,8.4,3.9,8.4,9.1
				c0,4.2-3.6,8-9.2,8c-5.1,0-8-2.4-8.8-3.2C-514.5,317.5-514.7,317.3-514.4,316.6z"/>
		</g>
		<path class="st1" d="M-538.3,220.9c-1.8,0-13.1-0.3-19.2-0.5c-0.6-1.8-1.3-3.5-2.2-5.1c2.2-5.2,5.1-12,5.8-13.4
			c1.2-2.4,1.3-4.1-0.3-5.5c-1.6-1.4-3.8-1.5-5.5,0.3c-0.9,1-5,5.4-8.8,9.4c-1.8-1.1-3.8-2-5.9-2.7c-1.6-4.6-5.6-16.7-6.2-18.8
			c-0.7-2.6-1.8-3.9-3.9-3.9s-3.9,1.4-3.9,3.9c0,1.8-0.3,12.5-0.5,18.7c-2.3,0.7-4.4,1.6-6.4,2.9c-5-2.1-10.9-4.7-12.2-5.4
			c-2.4-1.2-4.1-1.3-5.5,0.3c-1.4,1.6-1.5,3.8,0.3,5.5c0.9,0.8,5,4.7,8.9,8.4c-1.1,1.8-1.9,3.8-2.5,5.9c-4.9,1.7-16.2,5.5-18.2,6
			c-2.6,0.7-3.9,1.8-3.9,3.9c0,2.2,1.4,3.9,3.9,3.9c1.7,0,12.1,0.3,18.3,0.5c0.6,2,1.5,3.9,2.6,5.7c-2,5.2-4.4,11.6-5,13
			c-1.1,2.4-1.1,4.1,0.6,5.5c1.7,1.4,3.9,1.4,5.5-0.6c0.8-0.9,4.4-5.1,7.9-9.1c2,1.2,4.1,2.1,6.3,2.6c1.6,4.8,5.3,16.5,5.8,18.5
			c0.6,2.6,1.7,3.9,3.9,4c2.2,0,3.9-1.3,4-3.9c0.1-1.8,0.5-12.9,0.8-19c1.7-0.6,3.4-1.3,4.9-2.2c5.2,1.9,12.6,4.7,14.1,5.5
			c2.4,1.2,4.4,1.2,5.8-0.4c1.4-1.6,1.5-3.8-0.3-5.5c-1-0.9-5.7-5.4-9.9-9.3c0.9-1.6,1.6-3.3,2.1-5.2c4.3-1.5,16.9-5.8,19.1-6.3
			c2.6-0.7,3.9-1.8,3.9-3.9C-534.3,222.7-535.7,220.9-538.3,220.9z"/>
		<circle class="st2" cx="-581.4" cy="227.9" r="14.5"/>
		<path class="st0" d="M-576.3,227c-2.2,0-3.9-1.8-3.9-3.9c0-0.7,0.2-1.4,0.6-2c-0.5-0.1-1.1-0.2-1.7-0.2c-4,0-7.3,3.3-7.3,7.3
			s3.3,7.3,7.3,7.3c4,0,7.3-3.3,7.3-7.3c0-0.6-0.1-1.1-0.2-1.7C-574.9,226.7-575.6,227-576.3,227z"/>
	</g>
</g>
</svg>
