<?xml version="1.0" encoding="utf-8"?>
<!-- Generator: Adobe Illustrator 19.1.0, SVG Export Plug-In . SVG Version: 6.00 Build 0)  -->
<svg version="1.1" id="Layer_1" xmlns="http://www.w3.org/2000/svg" xmlns:xlink="http://www.w3.org/1999/xlink" x="0px" y="0px"
	 width="200px" height="211.3px" viewBox="-649 145.7 200 211.3" style="enable-background:new -649 145.7 200 211.3;"
	 xml:space="preserve">
<style type="text/css">
	.st0{fill:#FFFFFF;}
	.st1{fill:#5ACBE5;}
	.st2{fill:#00B0E9;}
</style>
<g>
	<path class="st0" d="M-449,157.9v-12.3h-198.9v12.3c0,0,0,68.9,0,69.3c0,14.9,2.4,29.5,7.2,43.5c4,11.6,9.5,22.6,16.5,32.7
		l-24.8,24.8l17.4,17.4l23.2-23.2c5.6,5.5,11.6,10.6,18,15.1c11.8,8.2,24.7,14.4,38.4,18.5l3.5,1l3.5-1
		c13.7-4.1,26.6-10.3,38.4-18.5c11.6-8.1,21.8-17.9,30.4-29.2c8.6-11.4,15.4-24,20-37.5c4.8-14,7.2-28.6,7.2-43.5
		C-449,226.8-449,157.9-449,157.9z"/>
	<path class="st1" d="M-461.3,157.8h-174.4c0,0,0,69,0,69.4c0,29.4,10.4,56.4,27.7,77.4l146.7-146.7
		C-461.3,157.8-461.3,157.8-461.3,157.8z"/>
	<path class="st0" d="M-548.5,344.1c50.4-15,87.2-61.7,87.2-117c0-0.4,0-65.9,0-69.2L-608,304.5
		C-592.7,323.1-572.1,337.1-548.5,344.1z"/>
	<g>
		<path class="st2" d="M-607.2,284.6l-1.1,1.1l3,3l-0.7,0.7l-3-3l-1.1,1.1l-0.6-0.6l2.8-2.8L-607.2,284.6z M-602.6,283.9l-1.5-3.4
			l1-1l3.5,3.5l-0.6,0.6l-2.8-2.7l0,0l1.7,3.8l-0.5,0.5l-3.8-1.7l0,0l2.7,2.7l-0.6,0.6l-3.5-3.5l1-1L-602.6,283.9z"/>
	</g>
	<g>
		<g>
			<polygon class="st0" points="-569.7,227 -567.4,233.8 -573.3,229.6 -579.1,233.8 -576.9,227 -582.7,222.8 -575.5,222.8 
				-573.3,215.9 -571,222.8 -563.8,222.8 			"/>
			<polygon class="st0" points="-603.2,227 -597.4,222.8 -604.6,222.8 -606.8,215.9 -609,222.8 -616.2,222.8 -610.4,227 
				-612.6,233.8 -606.8,229.6 -601,233.8 			"/>
			<polygon class="st0" points="-587.8,245.1 -590,238.2 -592.2,245.1 -599.4,245.1 -593.6,249.3 -595.8,256.1 -590,251.9 
				-584.2,256.1 -586.4,249.3 -580.6,245.1 			"/>
		</g>
		<g>
			<path class="st0" d="M-609.6,200.2l-6.6-15h-0.2v20.1c0,0.3-0.2,0.5-0.5,0.5h-5.9c-0.3,0-0.5-0.2-0.5-0.5v-34.6
				c0-0.3,0.2-0.5,0.5-0.5h6.2c0.4,0,0.7,0.2,0.8,0.5l9,20.3h0.2l8.9-20.3c0.2-0.4,0.4-0.5,0.8-0.5h6.1c0.3,0,0.5,0.2,0.5,0.5v34.6
				c0,0.3-0.2,0.5-0.5,0.5h-5.9c-0.3,0-0.5-0.2-0.5-0.5v-20.1h-0.2l-6.6,15c-0.2,0.5-0.5,0.7-1,0.7h-3.6
				C-609.1,200.9-609.4,200.8-609.6,200.2"/>
			<path class="st0" d="M-584.9,205.8h23.2c0.3,0,0.5-0.2,0.5-0.5v-5.8c0-0.3-0.2-0.5-0.5-0.5h-15.7c-0.2,0-0.3-0.1-0.3-0.3v-27.9
				c0-0.3-0.2-0.5-0.5-0.5h-6.7c-0.3,0-0.5,0.2-0.5,0.5v34.6C-585.4,205.5-585.2,205.8-584.9,205.8"/>
			<path class="st0" d="M-541.8,184.3l-1.9-0.3c-4.1-0.6-5.6-1.9-5.6-3.9c0-2.3,1.6-3.9,4.8-3.9c2.9,0,5.6,0.9,8.3,2.7
				c0.3,0.2,0.5,0.1,0.7-0.2l3.2-4.8c0.3-0.4,0.2-0.6-0.1-0.8c-3-2.3-7.4-3.7-12.1-3.7c-7.7,0-12.6,4.4-12.6,10.9
				c0,6.3,4,9.7,11.3,10.7l1.9,0.3c4.2,0.6,5.5,1.9,5.5,4c0,2.5-2.1,4.2-5.8,4.2c-3.8,0-7-1.8-9.3-3.7c-0.3-0.2-0.6-0.2-0.8,0.1
				l-4,4.6c-0.3,0.3-0.2,0.7,0.1,0.9c2.8,2.7,8.2,4.9,13.7,4.9c9.2,0,14-4.8,14-11.2C-530.6,188.6-534.4,185.3-541.8,184.3"/>
		</g>
	</g>
	<path class="st2" d="M-457.2,157.8v-4.1h-182.6v4.1c0,0,0,69,0,69.4c0,14,2.3,27.7,6.8,40.8c4.3,12.7,10.6,24.5,18.8,35.3
		c0.3,0.3,0.5,0.7,0.8,1l-24,24l5.8,5.8l23.4-23.4c6.7,7.6,14.2,14.3,22.5,20.1c11.1,7.7,23.2,13.6,36.1,17.4l1.2,0.3l1.2-0.3
		c12.9-3.8,25-9.7,36.1-17.4c10.9-7.6,20.5-16.8,28.5-27.4c8.1-10.7,14.4-22.6,18.8-35.3c4.5-13.1,6.8-26.8,6.8-40.8
		C-457.2,226.8-457.2,157.8-457.2,157.8z M-607.7,298.2c-7.6-10-13.5-21.1-17.5-33c-4.2-12.3-6.3-25.1-6.3-38.2c0-0.4,0-50.5,0-65.3
		h160.4l-136.5,136.7C-607.6,298.4-607.7,298.4-607.7,298.2z M-471.7,265.4c-4,11.8-10,22.9-17.5,33c-7.5,9.9-16.5,18.6-26.7,25.7
		c-10,7-21,12.3-32.6,15.9c-11.6-3.6-22.5-8.9-32.6-15.9c-7.9-5.5-15.1-11.9-21.4-19.2l137-137c0,19.1,0,59.1,0,59.4
		C-465.4,240.2-467.5,253-471.7,265.4z"/>
</g>
</svg>
