<?xml version="1.0" encoding="utf-8"?>
<!-- Generator: Adobe Illustrator 19.1.0, SVG Export Plug-In . SVG Version: 6.00 Build 0)  -->
<svg version="1.1" id="Layer_1" xmlns="http://www.w3.org/2000/svg" xmlns:xlink="http://www.w3.org/1999/xlink" x="0px" y="0px"
	 width="185px" height="50px" viewBox="-657 226 185 50" style="enable-background:new -657 226 185 50;" xml:space="preserve">
<style type="text/css">
	.st0{fill:#00B0E9;}
</style>
<title>logo-github</title>
<desc>Created with Sketch.</desc>
<g>
	<g>
		<path class="st0" d="M-621.4,247.4h-15.5c-0.4,0-0.7,0.3-0.7,0.7v7.6c0,0.4,0.3,0.7,0.7,0.7h6.1v9.4c0,0-1.4,0.5-5.1,0.5
			c-4.4,0-10.6-1.6-10.6-15.2c0-13.6,6.5-15.4,12.5-15.4c5.2,0,7.5,0.9,8.9,1.4c0.5,0.1,0.9-0.3,0.9-0.7l1.7-7.3
			c0-0.2-0.1-0.4-0.3-0.6c-0.6-0.4-4.1-2.4-13.1-2.4c-10.4,0-21,4.4-21,25.6c0,21.2,12.2,24.4,22.4,24.4c8.5,0,13.6-3.6,13.6-3.6
			c0.2-0.1,0.2-0.4,0.2-0.6v-23.7C-620.7,247.8-621,247.4-621.4,247.4"/>
		<path class="st0" d="M-541.4,228.6c0-0.4-0.3-0.7-0.7-0.7h-8.7c-0.4,0-0.7,0.3-0.7,0.7l0,16.9h-13.6v-16.9c0-0.4-0.3-0.7-0.7-0.7
			h-8.7c-0.4,0-0.7,0.3-0.7,0.7v45.7c0,0.4,0.3,0.7,0.7,0.7h8.7c0.4,0,0.7-0.3,0.7-0.7v-19.6h13.6l0,19.6c0,0.4,0.3,0.7,0.7,0.7h8.8
			c0.4,0,0.7-0.3,0.7-0.7V228.6"/>
		<path class="st0" d="M-604.9,234.6c0-3.1-2.5-5.7-5.6-5.7c-3.1,0-5.6,2.5-5.6,5.7c0,3.1,2.5,5.7,5.6,5.7
			C-607.5,240.3-604.9,237.7-604.9,234.6"/>
		<path class="st0" d="M-605.6,264.7v-21.1c0-0.4-0.3-0.7-0.7-0.7h-8.7c-0.4,0-0.8,0.4-0.8,0.8v30.2c0,0.9,0.6,1.2,1.3,1.2h7.8
			c0.9,0,1.1-0.4,1.1-1.2V264.7"/>
		<path class="st0" d="M-508.2,242.9h-8.7c-0.4,0-0.7,0.3-0.7,0.7v22.4c0,0-2.2,1.6-5.3,1.6s-4-1.4-4-4.5v-19.6
			c0-0.4-0.3-0.7-0.7-0.7h-8.8c-0.4,0-0.7,0.3-0.7,0.7v21c0,9.1,5.1,11.3,12,11.3c5.7,0,10.3-3.2,10.3-3.2s0.2,1.7,0.3,1.9
			c0.1,0.2,0.4,0.4,0.6,0.4l5.6,0c0.4,0,0.7-0.3,0.7-0.7l0-30.7C-507.5,243.2-507.8,242.9-508.2,242.9"/>
		<path class="st0" d="M-487.9,267.6c-3-0.1-5-1.5-5-1.5v-14.5c0,0,2-1.2,4.5-1.5c3.1-0.3,6.1,0.7,6.1,8.1
			C-482.4,266.2-483.7,267.8-487.9,267.6L-487.9,267.6z M-484.5,241.9c-4.9,0-8.3,2.2-8.3,2.2v-15.5c0-0.4-0.3-0.7-0.7-0.7h-8.8
			c-0.4,0-0.7,0.3-0.7,0.7v45.7c0,0.4,0.3,0.7,0.7,0.7h6.1c0.3,0,0.5-0.1,0.6-0.4c0.1-0.2,0.4-2.1,0.4-2.1s3.6,3.4,10.4,3.4
			c8,0,12.5-4,12.5-18.1C-472.3,243.7-479.6,241.9-484.5,241.9L-484.5,241.9z"/>
		<path class="st0" d="M-580.4,242.8h-6.6l0-8.7c0-0.3-0.2-0.5-0.5-0.5h-8.9c-0.3,0-0.5,0.2-0.5,0.5v8.9c0,0-4.5,1.1-4.8,1.2
			c-0.3,0.1-0.5,0.4-0.5,0.7v5.6c0,0.4,0.3,0.7,0.7,0.7h4.6v13.5c0,10,7,11,11.8,11c2.2,0,4.8-0.7,5.2-0.9c0.3-0.1,0.4-0.4,0.4-0.7
			l0-6.2c0-0.4-0.3-0.7-0.7-0.7c-0.4,0-1.4,0.2-2.4,0.2c-3.2,0-4.3-1.5-4.3-3.4v-12.9h6.6c0.4,0,0.7-0.3,0.7-0.7v-7
			C-579.7,243.2-580,242.8-580.4,242.8"/>
	</g>
</g>
</svg>
