<?xml version="1.0" encoding="utf-8"?>
<!-- Generator: Adobe Illustrator 19.1.0, SVG Export Plug-In . SVG Version: 6.00 Build 0)  -->
<svg version="1.1" id="Layer_1" xmlns="http://www.w3.org/2000/svg" xmlns:xlink="http://www.w3.org/1999/xlink" x="0px" y="0px"
	 width="286.9px" height="60.9px" viewBox="-606 220.1 286.9 60.9" style="enable-background:new -606 220.1 286.9 60.9;"
	 xml:space="preserve">
<style type="text/css">
	.st0{fill:#00B0E9;}
</style>
<g>
	<path class="st0" d="M-335.6,273.2h4.4c0-1.2-0.8-2-2.1-2C-334.5,271.2-335.4,272-335.6,273.2L-335.6,273.2z M-331,275.4l0.9,0.7
		c-0.8,1.1-1.8,1.5-3.1,1.5c-2.2,0-3.6-1.7-3.6-3.7c0-2.2,1.5-3.7,3.6-3.7c2,0,3.4,1.4,3.4,3.7v0.4h-5.7c0.1,1.2,1,2.3,2.3,2.3
		C-332.2,276.5-331.5,276.1-331,275.4L-331,275.4z M-341.1,277.4V272c0-0.6-0.1-1.2-0.1-1.7h1.1c0,0.4,0,0.8,0,1.2
		c0.3-0.7,1.2-1.3,2.4-1.3c0.2,0,0.3,0,0.5,0.1l-0.1,1.2c-0.2-0.1-0.4-0.1-0.6-0.1c-1.4,0-2.1,1-2.1,2.6v3.4L-341.1,277.4
		L-341.1,277.4z M-348.1,273.2h4.4c0-1.2-0.8-2-2.1-2C-347.1,271.2-347.9,272-348.1,273.2L-348.1,273.2z M-343.5,275.4l0.9,0.7
		c-0.8,1.1-1.8,1.5-3.1,1.5c-2.2,0-3.6-1.7-3.6-3.7c0-2.2,1.5-3.7,3.6-3.7c2,0,3.4,1.4,3.4,3.7v0.4h-5.7c0.1,1.2,1,2.3,2.3,2.3
		C-344.7,276.5-344.1,276.1-343.5,275.4L-343.5,275.4z M-356.5,277.4v-11.4h1.2v5.3c0.3-0.6,1.2-1.2,2.3-1.2c1.9,0,2.7,1.2,2.7,2.9
		v4.4h-1.2v-4.2c0-1.2-0.5-1.9-1.6-1.9c-1.5,0-2.2,1.1-2.2,2.7v3.4L-356.5,277.4L-356.5,277.4z M-357.6,270.3l-2.3,7.1h-1.2l-2-5.4
		l-1.8,5.4h-1.2l-2.3-7.1h1.3l1.6,5.4l1.9-5.4h1.2l1.9,5.4l1.6-5.4H-357.6L-357.6,270.3z M-369,270.3l-3.4,8.7c-0.5,1.2-0.9,2-2.4,2
		c-0.3,0-0.7,0-1.1-0.2l0.2-1c0.2,0.1,0.5,0.1,0.8,0.1c0.8,0,1.1-0.5,1.3-1.2l0.5-1.3l-2.9-7.1h1.4l2.2,5.5l2.1-5.5L-369,270.3
		L-369,270.3z M-382.7,277.4V272c0-0.6-0.1-1.2-0.1-1.7h1.1c0,0.4,0,0.8,0,1.2c0.3-0.7,1.2-1.3,2.4-1.3c1.9,0,2.7,1.2,2.7,2.9v4.4
		h-1.2v-4.2c0-1.2-0.5-1.9-1.6-1.9c-1.5,0-2.2,1.1-2.2,2.7v3.4H-382.7L-382.7,277.4z M-385.2,274h-1.2c-1.5,0-2.5,0.4-2.5,1.4
		c0,0.9,0.7,1.2,1.6,1.2c1.4,0,2.1-1,2.1-2.1V274L-385.2,274z M-389.1,272l-0.7-0.8c0.7-0.7,1.8-1.1,2.8-1.1c2.1,0,3,1,3,3v3
		c0,0.4,0,0.9,0.1,1.2h-1.1c-0.1-0.3-0.1-0.8-0.1-1.1c-0.5,0.7-1.3,1.2-2.4,1.2c-1.4,0-2.6-0.7-2.6-2.1c0-2.3,2.7-2.5,4.5-2.5h0.5
		v-0.2c0-1-0.7-1.6-1.8-1.6C-387.7,271.2-388.5,271.5-389.1,272L-389.1,272z M-395.3,275.8l-1.2,3.6h-1.2l1-3.6H-395.3L-395.3,275.8
		z M-403.9,273.2h4.4c0-1.2-0.8-2-2.1-2C-402.9,271.2-403.8,272-403.9,273.2L-403.9,273.2z M-399.4,275.4l0.9,0.7
		c-0.8,1.1-1.8,1.5-3.1,1.5c-2.2,0-3.6-1.7-3.6-3.7c0-2.2,1.5-3.7,3.6-3.7c2,0,3.4,1.4,3.4,3.7v0.4h-5.7c0.1,1.2,1,2.3,2.3,2.3
		C-400.6,276.5-399.9,276.1-399.4,275.4L-399.4,275.4z M-412.5,273.8c0,1.4,1.1,2.5,2.5,2.5c1.6,0,2.5-1.2,2.5-2.6
		c0-1.5-1-2.6-2.5-2.6C-411.5,271.2-412.5,272.4-412.5,273.8L-412.5,273.8z M-406.3,270.3v6.8c0,2.6-1.4,3.9-3.9,3.9
		c-1.4,0-2.5-0.4-3.5-1.3l0.8-1c0.7,0.8,1.5,1.2,2.6,1.2c2.1,0,2.7-1.4,2.7-2.9v-0.9c-0.6,0.9-1.6,1.3-2.5,1.3
		c-2.2,0-3.8-1.5-3.8-3.6c0-2.3,1.5-3.7,3.8-3.7c1,0,2,0.5,2.5,1.4l0-1.2L-406.3,270.3L-406.3,270.3z M-416,274h-1.2
		c-1.5,0-2.5,0.4-2.5,1.4c0,0.9,0.7,1.2,1.6,1.2c1.4,0,2.1-1,2.1-2.1L-416,274L-416,274z M-419.9,272l-0.7-0.8
		c0.7-0.7,1.8-1.1,2.8-1.1c2.1,0,3,1,3,3v3c0,0.4,0,0.9,0.1,1.2h-1.1c-0.1-0.3-0.1-0.8-0.1-1.1c-0.5,0.7-1.3,1.2-2.4,1.2
		c-1.4,0-2.6-0.7-2.6-2.1c0-2.3,2.7-2.5,4.5-2.5h0.5v-0.2c0-1-0.6-1.6-1.8-1.6C-418.5,271.2-419.3,271.5-419.9,272L-419.9,272z
		 M-427.5,276.2l0.9-0.7c0.5,0.6,1,1,1.8,1c0.7,0,1.6-0.3,1.6-1.1c0-0.8-0.8-1-1.5-1.1c-1.3-0.3-2.5-0.6-2.5-2.1
		c0-1.4,1.3-2.1,2.6-2.1c1,0,1.9,0.4,2.4,1.3l-1,0.7c-0.3-0.5-0.8-0.8-1.5-0.8c-0.6,0-1.4,0.3-1.4,1c0,0.6,0.8,0.8,1.8,1
		c1.3,0.2,2.3,0.7,2.3,2.1c0,1.6-1.4,2.2-2.8,2.2C-426,277.6-426.8,277.2-427.5,276.2L-427.5,276.2z M-433.9,276.2l0.9-0.7
		c0.5,0.6,1,1,1.8,1c0.7,0,1.6-0.3,1.6-1.1c0-0.8-0.8-1-1.5-1.1c-1.3-0.3-2.5-0.6-2.5-2.1c0-1.4,1.3-2.1,2.6-2.1
		c1,0,1.9,0.4,2.4,1.3l-1,0.7c-0.3-0.5-0.8-0.8-1.5-0.8c-0.7,0-1.4,0.3-1.4,1c0,0.6,0.8,0.8,1.8,1c1.3,0.2,2.3,0.7,2.3,2.1
		c0,1.6-1.4,2.2-2.8,2.2C-432.3,277.6-433.2,277.2-433.9,276.2L-433.9,276.2z M-440.4,273.2h4.4c0-1.2-0.8-2-2.1-2
		C-439.4,271.2-440.3,272-440.4,273.2L-440.4,273.2z M-435.8,275.4l0.9,0.7c-0.8,1.1-1.8,1.5-3.1,1.5c-2.2,0-3.6-1.7-3.6-3.7
		c0-2.2,1.5-3.7,3.6-3.7c2,0,3.4,1.4,3.4,3.7v0.4h-5.7c0.1,1.2,1,2.3,2.3,2.3C-437.1,276.5-436.4,276.1-435.8,275.4L-435.8,275.4z
		 M-453.2,277.4V272c0-0.6-0.1-1.2-0.1-1.7h1.1c0,0.4,0,0.8,0,1.2c0.3-0.7,1.2-1.3,2.4-1.3c1.5,0,2,0.9,2.2,1.3
		c0.5-0.8,1.2-1.3,2.2-1.3c2,0,2.7,1.1,2.7,3v4.3h-1.2v-4.2c0-1-0.3-1.9-1.7-1.9c-1,0-1.8,0.8-1.8,2.1v4.1h-1.2v-4
		c0-1.6-0.4-2.2-1.4-2.2c-1.5,0-2.2,1.1-2.2,2.7v3.4L-453.2,277.4L-453.2,277.4z M-457.9,270.3l-3.4,8.7c-0.5,1.2-0.9,2-2.4,2
		c-0.3,0-0.7,0-1.1-0.2l0.2-1c0.2,0.1,0.5,0.1,0.8,0.1c0.8,0,1.1-0.5,1.3-1.2l0.5-1.3l-2.9-7.1h1.4l2.2,5.5l2.1-5.5L-457.9,270.3
		L-457.9,270.3z M-471.5,277.4V272c0-0.6-0.1-1.2-0.1-1.7h1.1c0,0.4,0,0.8,0,1.2c0.3-0.7,1.2-1.3,2.4-1.3c1.9,0,2.7,1.2,2.7,2.9v4.4
		h-1.2v-4.2c0-1.2-0.5-1.9-1.6-1.9c-1.5,0-2.2,1.1-2.2,2.7v3.4H-471.5L-471.5,277.4z M-475.2,273.6l-2.1-5.3l-2.3,5.3H-475.2
		L-475.2,273.6z M-482.6,277.4l4.7-10.7h1.2l4.6,10.7h-1.5l-1.1-2.6h-5.4l-1.1,2.6H-482.6L-482.6,277.4z M-327.4,275.6
		c0.5,0,0.9,0.4,0.9,0.9s-0.4,0.9-0.9,0.9s-0.9-0.4-0.9-0.9S-327.9,275.6-327.4,275.6L-327.4,275.6z"/>
	<path class="st0" d="M-585.7,256.3c8.8,0,15.9-7.1,15.9-15.9c0-8.8-7.1-15.9-15.9-15.9c-8.8,0-15.9,7.1-15.9,15.9
		C-601.6,249.2-594.5,256.3-585.7,256.3L-585.7,256.3z M-565.4,240.4c0,11.2-9.1,20.3-20.3,20.3c-11.2,0-20.3-9.1-20.3-20.3
		c0-11.2,9.1-20.3,20.3-20.3C-574.5,220.1-565.4,229.2-565.4,240.4L-565.4,240.4z M-591,249.2c-4.8,0-8.7-3.9-8.7-8.7
		c0-4.8,3.9-8.7,8.7-8.7c4.8,0,8.7,3.9,8.7,8.7C-582.2,245.3-586.1,249.2-591,249.2L-591,249.2z M-338.8,220.7h5.1v32.2
		c0.1,3,1.1,3,3.8,3v4.5c-0.7,0.1-1.4,0.1-2.1,0.1c-6.7,0-6.9-4.3-6.8-7.5V220.7L-338.8,220.7z M-353.4,220.7h5.1v32.2
		c0.1,3,1.1,3,3.8,3v4.5c-0.7,0.1-1.4,0.1-2.1,0.1c-6.7,0-6.9-4.3-6.8-7.5L-353.4,220.7L-353.4,220.7z M-364.8,242.9
		c-0.3-4.5-2.7-7.8-7.4-7.8c-5,0-7.4,3.2-8.3,7.8H-364.8L-364.8,242.9z M-359.7,251.2c-0.2,1.1-0.5,2.7-1.8,4.6c-3.3,5-8.9,5-10.7,5
		c-1.9,0-3.7-0.2-5.4-0.8c-4.7-1.8-8.2-6.8-8.2-14c0-4.7,1.5-8.1,3.3-10.5c3.2-4,7-4.8,10.2-4.8c1.6,0,6.5,0.1,9.8,4.4
		c2.6,3.3,3.1,7.7,3,12h-21c0,5.5,2.9,9.5,8.6,9.5c5.8,0,6.7-4.3,7-5.7L-359.7,251.2L-359.7,251.2z M-398.7,222.6h5.1v8.7h4.9v4.3
		h-4.9v24.7h-5.1v-24.7h-4.8v-4.3h4.8V222.6L-398.7,222.6z M-423.9,235.5c-3.9,1.7-4.6,5.9-4.6,10.3c0,3.2,0.4,8.3,4.8,10.2
		c0.8,0.3,1.7,0.6,2.9,0.6c0.8,0,1.6-0.1,2.4-0.4c4-1.3,5.6-5.1,5.6-10.7c0-3.2-0.6-6.4-2.6-8.5c-2.1-2.2-4.5-2.2-5.3-2.2
		C-421.4,234.9-422.6,235-423.9,235.5L-423.9,235.5z M-412.6,255.9c-1.1,1.5-3.4,4.9-9.2,4.9c-7.9,0-11.9-6.4-11.9-15.1
		c0-9.7,5.2-14.9,12.1-14.9c2.9,0,5.8,0.8,7.9,3.1c0.4,0.4,0.7,0.8,1.1,1.3l-0.1-3.9h5.2v29h-5.1L-412.6,255.9L-412.6,255.9z
		 M-454.5,220.7v21.4l-0.1,1.5l11.3-12.3h6.4l-11.9,12.6l13.7,16.4h-6.8l-12.8-15.8l0.1,1.2v14.6h-5.1v-39.5H-454.5L-454.5,220.7z
		 M-464.4,249.8c-1,6.4-4.6,10.9-12.6,10.9c-10.3,0-13.3-8.2-13.3-15.1c0-6.9,3.1-15,13.4-15c7.4,0,9.6,3.7,10.4,5
		c1.2,2,1.4,3.5,1.6,4.8l-5.2,0.8c-0.2-1-0.4-2.3-1.2-3.6c-1.2-1.9-3.4-2.9-5.6-2.9c-0.9,0-8,0-8,10.7c0,2.6,0.3,5.1,1.6,7.4
		c1.5,2.6,3.7,3.5,6.5,3.5c4.5,0,6.8-3,7.4-7.1L-464.4,249.8L-464.4,249.8z M-496.1,231.2v29h-5.1v-29H-496.1L-496.1,231.2z
		 M-496.1,220.7v5.8h-5.1v-5.8H-496.1L-496.1,220.7z M-515.6,220.7h5.1v32.2c0.1,3,1.1,3,3.8,3v4.5c-0.7,0.1-1.4,0.1-2.1,0.1
		c-6.7,0-6.9-4.3-6.8-7.5V220.7L-515.6,220.7z M-526.3,234.1c-1.1-5.4-4.7-9.2-10.9-9.2c-8.8,0-12.6,7-12.6,15.8
		c0,3.4,0.7,7.6,2.7,10.5c2,2.9,5.4,5,9.8,5c3.8,0,7-1.7,9.2-4.3c1.6-2,2.1-3.9,2.5-5.1l5.2,0.6c-0.3,1.3-0.7,3.5-2.4,6.1
		c-4.6,6.9-12.2,7.2-14.7,7.2c-12.5,0-17.8-9.3-17.8-20.1c0-12.5,6.6-20.4,18.1-20.4c6.9,0,11.6,2.7,14.3,7.4c1.5,2.5,1.8,4.6,2,6
		L-526.3,234.1L-526.3,234.1z M-325.3,221.8h-1.7v4.6h-1.3v-4.6h-1.7v-1h4.6L-325.3,221.8L-325.3,221.8z M-324.8,226.4v-5.6h1.7
		l1.2,2.2l1.2-2.2h1.6v5.6h-1.2l0.1-4.4l-1.4,2.5h-0.7l-1.4-2.5l0.1,4.4H-324.8L-324.8,226.4z"/>
</g>
</svg>
