<?xml version="1.0" encoding="utf-8"?>
<!-- Generator: Adobe Illustrator 19.1.0, SVG Export Plug-In . SVG Version: 6.00 Build 0)  -->
<svg version="1.1" id="Layer_1" xmlns="http://www.w3.org/2000/svg" xmlns:xlink="http://www.w3.org/1999/xlink" x="0px" y="0px"
	 width="600px" height="95px" viewBox="-449 203 600 95" style="enable-background:new -449 203 600 95;" xml:space="preserve">
<style type="text/css">
	.st0{fill:#00B0E9;}
</style>
<g>
	<g>
		<path class="st0" d="M-438.7,294.1c30.9-19.8,65.9-5.6,83.3,4C-379.5,288.5-414.9,286.3-438.7,294.1z"/>
		<path class="st0" d="M-384.5,203.2c14.8,0,27.6,8.7,33.3,21.3h-11.6c-5.1-6.3-13-10.4-21.8-10.4c-8.7,0-16.5,3.9-21.6,10.1
			c0.3-0.2,0.6-0.4,0.9-0.6c12.1-8.7,28.3,0.8,28.3,0.8s-15.4-4.4-25.8,2.9c-10.4,7.3-8.7,21.9-8.7,21.9s-0.1-0.2-0.2-0.5
			c0,0.2,0.1,0.3,0.1,0.5c-2.5-1.8-5.5-3-8.8-3.3c-0.4-2.1-0.6-4.3-0.6-6.5C-421,219.4-404.6,203.2-384.5,203.2L-384.5,203.2z
			 M-431.1,285.6v-3.1c9.7-7.1,27.4-16.4,48.8-9.7c32.4,10.2,53.1,24,78.2,17.8s27.3-19.9,27.3-19.9s-4.5,19.3-29.2,23.6
			c-24.7,4.2-47.5-0.5-76.4-11.3C-402,275.7-420.9,281.3-431.1,285.6L-431.1,285.6z M-431.1,279.4c1.8-1.2,3.6-2.4,5.3-3.2
			c-0.8-0.5-1.6-1.1-2.3-1.8c-1.3-1.3-2.3-2.7-3-4.1v6.7l0.2,0.2c0.3,0.3,0.7,0.6,1,0.9c-0.4-0.2-0.8-0.4-1.2-0.6V279.4
			L-431.1,279.4z M-431.1,248.1v-11.4c2.4-0.8,4.9-1.3,7.5-1.4c-0.1,1.3-0.2,2.6-0.2,4c0,2.3,0.2,4.5,0.6,6.6
			C-426.1,246-428.8,246.8-431.1,248.1z M-431.1,236.7v11.5c-5.1,2.9-8.5,8.4-8.5,14.6c0,6.2,3.4,11.7,8.5,14.6v2
			c-2,1.4-4,2.9-5.7,4.1c-7.4-4.7-12.2-12.8-12.2-22C-449,250-441.5,240.2-431.1,236.7L-431.1,236.7z M-431.1,270.2
			c-3.3-6.3-2.1-13.4-2.1-13.4s-5.5,12.6,2.1,20.1V270.2L-431.1,270.2z M-431.1,282.5c-5,3.7-7.8,6.8-7.8,6.8c0,0.1,2.9-1.6,7.8-3.7
			V282.5z"/>
		<path class="st0" d="M-349.5,277.6c0,0,15.5,7.9,30.1,6.6c14.6-1.3,19-6.5,19-6.5s-5.3,9.9-19.4,10.4
			C-333.8,288.7-349.5,278-349.5,277.6z"/>
		<rect x="-361.4" y="227.5" class="st0" width="13" height="13"/>
		<rect x="-309.7" y="263.6" class="st0" width="10.1" height="10.1"/>
		<rect x="-345.7" y="215.6" class="st0" width="17.4" height="17.4"/>
		<rect x="-295.3" y="245.6" class="st0" width="17.4" height="17.4"/>
		<rect x="-326.7" y="234.3" class="st0" width="9.7" height="9.7"/>
		<rect x="-320.2" y="253.3" class="st0" width="9.7" height="9.7"/>
		<rect x="-340.6" y="254.3" class="st0" width="9.7" height="9.7"/>
		<rect x="-306.7" y="234.6" class="st0" width="9.7" height="9.7"/>
	</g>
	<g>
		<path class="st0" d="M-199.2,254c0,4.1-0.7,7.8-2,11.2c-1.4,3.4-3.3,6.3-5.7,8.8c-2.5,2.5-5.4,4.4-8.8,5.7c-3.4,1.4-7.3,2-11.4,2
			h-21.1v-55.4h21.1c4.2,0,8,0.7,11.4,2c3.4,1.4,6.4,3.3,8.8,5.7c2.5,2.4,4.4,5.4,5.7,8.7C-199.9,246.2-199.2,249.9-199.2,254z
			 M-209.7,254c0-3-0.4-5.8-1.2-8.2c-0.8-2.4-2-4.5-3.5-6.1c-1.5-1.7-3.3-3-5.5-3.8c-2.2-0.9-4.6-1.3-7.3-1.3H-238v39h10.8
			c2.7,0,5.1-0.4,7.3-1.3c2.2-0.9,4-2.2,5.5-3.8c1.5-1.7,2.7-3.7,3.5-6.1C-210.2,259.7-209.7,257-209.7,254z"/>
		<path class="st0" d="M-184,230.9c0,0.8-0.2,1.6-0.5,2.3s-0.8,1.3-1.3,1.9c-0.5,0.5-1.2,1-1.9,1.3c-0.7,0.3-1.5,0.5-2.4,0.5
			c-0.8,0-1.6-0.2-2.3-0.5c-0.7-0.3-1.4-0.7-1.9-1.3c-0.5-0.5-1-1.2-1.3-1.9s-0.5-1.5-0.5-2.3c0-0.8,0.2-1.6,0.5-2.4
			c0.3-0.7,0.7-1.4,1.3-1.9c0.5-0.5,1.2-1,1.9-1.3c0.7-0.3,1.5-0.5,2.3-0.5s1.6,0.2,2.4,0.5c0.7,0.3,1.4,0.7,1.9,1.3
			c0.5,0.5,1,1.2,1.3,1.9C-184.2,229.3-184,230.1-184,230.9z M-185.4,242.4v39.3h-9.5v-39.3H-185.4z"/>
		<path class="st0" d="M-165,241.7c1.7,0,3.3,0.2,4.7,0.5c1.5,0.3,2.8,0.8,4.1,1.5h11.3v3.5c0,0.6-0.2,1-0.5,1.4
			c-0.3,0.3-0.8,0.6-1.6,0.7l-3.5,0.7c0.3,0.7,0.5,1.4,0.6,2.1s0.2,1.5,0.2,2.3c0,1.9-0.4,3.7-1.2,5.3c-0.8,1.6-1.9,2.9-3.2,4
			c-1.4,1.1-3,1.9-4.9,2.5c-1.9,0.6-3.9,0.9-6.1,0.9c-1.5,0-2.9-0.1-4.3-0.4c-1.2,0.7-1.8,1.6-1.8,2.5c0,0.8,0.4,1.4,1.1,1.8
			s1.7,0.6,2.9,0.8c1.2,0.2,2.5,0.2,4,0.2s3,0.1,4.6,0.2c1.6,0.1,3.1,0.4,4.6,0.7c1.5,0.3,2.9,0.8,4,1.5c1.2,0.7,2.1,1.6,2.9,2.8
			c0.7,1.2,1.1,2.7,1.1,4.6c0,1.7-0.4,3.4-1.3,5.1c-0.9,1.6-2.1,3.1-3.7,4.4c-1.6,1.3-3.6,2.3-6,3.1c-2.3,0.8-5,1.2-8,1.2
			s-5.6-0.3-7.8-0.9c-2.2-0.6-4-1.3-5.5-2.3c-1.4-1-2.5-2.1-3.2-3.3c-0.7-1.3-1.1-2.6-1.1-3.9c0-1.8,0.6-3.4,1.7-4.6
			c1.1-1.3,2.7-2.2,4.7-3c-1-0.5-1.7-1.3-2.3-2.1c-0.6-0.9-0.9-2.1-0.9-3.5c0-0.6,0.1-1.2,0.3-1.8c0.2-0.6,0.5-1.2,0.9-1.9
			c0.4-0.6,1-1.2,1.6-1.7s1.4-1,2.3-1.5c-2-1.1-3.6-2.5-4.7-4.3c-1.1-1.8-1.7-3.9-1.7-6.3c0-1.9,0.4-3.7,1.2-5.3
			c0.8-1.6,1.9-2.9,3.3-4s3-2,4.9-2.5C-169.3,242-167.2,241.7-165,241.7z M-154.6,283.3c0-0.8-0.2-1.4-0.7-1.9s-1.1-0.9-1.9-1.2
			c-0.8-0.3-1.7-0.5-2.8-0.6c-1.1-0.1-2.2-0.2-3.4-0.2c-1.2,0-2.4,0-3.7,0c-1.3,0-2.5-0.1-3.7-0.4c-1.1,0.6-1.9,1.3-2.6,2.1
			c-0.7,0.8-1,1.7-1,2.8c0,0.7,0.2,1.3,0.5,1.9s0.9,1.1,1.6,1.6c0.8,0.4,1.7,0.8,2.9,1c1.2,0.2,2.7,0.4,4.4,0.4
			c1.8,0,3.3-0.1,4.6-0.4c1.3-0.3,2.3-0.7,3.2-1.1c0.8-0.5,1.4-1.1,1.8-1.7C-154.8,284.8-154.6,284.1-154.6,283.3z M-165,261.1
			c1.2,0,2.2-0.2,3.1-0.5c0.9-0.3,1.6-0.8,2.2-1.3c0.6-0.6,1-1.2,1.3-2c0.3-0.8,0.4-1.7,0.4-2.6c0-1.9-0.6-3.5-1.7-4.6
			c-1.2-1.1-2.9-1.7-5.2-1.7c-2.3,0-4.1,0.6-5.2,1.7c-1.2,1.1-1.7,2.7-1.7,4.6c0,0.9,0.1,1.8,0.4,2.6c0.3,0.8,0.7,1.5,1.3,2
			c0.6,0.6,1.3,1,2.2,1.3C-167.2,260.9-166.1,261.1-165,261.1z"/>
		<path class="st0" d="M-131.3,230.9c0,0.8-0.2,1.6-0.5,2.3s-0.8,1.3-1.3,1.9c-0.5,0.5-1.2,1-1.9,1.3c-0.7,0.3-1.5,0.5-2.4,0.5
			c-0.8,0-1.6-0.2-2.3-0.5c-0.7-0.3-1.4-0.7-1.9-1.3c-0.5-0.5-1-1.2-1.3-1.9s-0.5-1.5-0.5-2.3c0-0.8,0.2-1.6,0.5-2.4
			c0.3-0.7,0.7-1.4,1.3-1.9c0.5-0.5,1.2-1,1.9-1.3c0.7-0.3,1.5-0.5,2.3-0.5s1.6,0.2,2.4,0.5c0.7,0.3,1.4,0.7,1.9,1.3
			c0.5,0.5,1,1.2,1.3,1.9C-131.5,229.3-131.3,230.1-131.3,230.9z M-132.7,242.4v39.3h-9.5v-39.3H-132.7z"/>
		<path class="st0" d="M-113,282.3c-3.4,0-6-1-7.8-2.9s-2.8-4.6-2.8-8v-21.9h-4c-0.5,0-1-0.2-1.3-0.5c-0.4-0.3-0.6-0.8-0.6-1.5v-3.8
			l6.3-1l2-10.7c0.1-0.5,0.3-0.9,0.7-1.2c0.4-0.3,0.8-0.4,1.4-0.4h4.9v12.4h10.3v6.7h-10.3v21.3c0,1.2,0.3,2.2,0.9,2.9
			c0.6,0.7,1.4,1,2.5,1c0.6,0,1.1-0.1,1.5-0.2c0.4-0.1,0.7-0.3,1-0.4c0.3-0.2,0.6-0.3,0.8-0.4c0.2-0.1,0.5-0.2,0.7-0.2
			c0.3,0,0.5,0.1,0.7,0.2c0.2,0.1,0.4,0.4,0.6,0.6l2.8,4.6c-1.4,1.1-3,2-4.7,2.6C-109.2,282-111,282.3-113,282.3z"/>
		<path class="st0" d="M-69.3,281.7h-4.2c-0.9,0-1.6-0.1-2.1-0.4c-0.5-0.3-0.9-0.8-1.1-1.6l-0.8-2.8c-1,0.9-2,1.7-2.9,2.4
			c-1,0.7-1.9,1.2-3,1.7c-1,0.5-2.1,0.8-3.3,1c-1.1,0.2-2.4,0.3-3.8,0.3c-1.7,0-3.2-0.2-4.6-0.7c-1.4-0.4-2.6-1.1-3.6-2
			s-1.8-2-2.4-3.3c-0.6-1.3-0.8-2.9-0.8-4.6c0-1.5,0.4-3,1.2-4.4c0.8-1.4,2.1-2.8,3.9-3.9c1.8-1.2,4.2-2.1,7.2-2.9
			c3-0.8,6.8-1.2,11.2-1.2V257c0-2.6-0.6-4.6-1.7-5.9s-2.7-1.9-4.8-1.9c-1.5,0-2.8,0.2-3.8,0.5c-1,0.4-1.9,0.8-2.7,1.2
			c-0.8,0.4-1.4,0.8-2.1,1.2c-0.6,0.4-1.3,0.5-2.1,0.5c-0.6,0-1.2-0.2-1.6-0.5c-0.5-0.3-0.8-0.7-1.1-1.2l-1.7-3
			c4.5-4.1,10-6.2,16.3-6.2c2.3,0,4.3,0.4,6.1,1.1c1.8,0.8,3.3,1.8,4.6,3.1c1.2,1.3,2.2,2.9,2.9,4.8c0.7,1.9,1,3.9,1,6.1v24.9H-69.3
			z M-87.7,275.8c1,0,1.9-0.1,2.7-0.3c0.8-0.2,1.6-0.4,2.3-0.8c0.7-0.4,1.4-0.8,2.1-1.3s1.4-1.1,2-1.8V265c-2.8,0-5.1,0.2-6.9,0.5
			c-1.9,0.3-3.3,0.8-4.5,1.3c-1.1,0.5-1.9,1.2-2.4,1.9c-0.5,0.7-0.7,1.5-0.7,2.4c0,1.7,0.5,2.9,1.5,3.6
			C-90.5,275.4-89.2,275.8-87.7,275.8z"/>
		<path class="st0" d="M-53.7,224.8v56.9h-9.5v-56.9H-53.7z"/>
		<path class="st0" d="M6.8,254c0,4.1-0.7,7.8-2,11.3c-1.4,3.5-3.3,6.5-5.7,9c-2.5,2.5-5.4,4.5-8.8,5.9c-3.4,1.4-7.3,2.1-11.4,2.1
			c-4.2,0-8-0.7-11.5-2.1c-3.5-1.4-6.4-3.4-8.9-5.9s-4.4-5.5-5.7-9c-1.4-3.5-2-7.2-2-11.3c0-4.1,0.7-7.8,2-11.3
			c1.4-3.5,3.3-6.5,5.7-9c2.5-2.5,5.4-4.5,8.9-5.9c3.5-1.4,7.3-2.1,11.5-2.1s8,0.7,11.4,2.1c3.4,1.4,6.4,3.4,8.8,5.9
			c2.5,2.5,4.4,5.5,5.7,9C6.1,246.2,6.8,249.9,6.8,254z M-3.8,254c0-3-0.4-5.8-1.2-8.2c-0.8-2.4-2-4.5-3.5-6.1
			c-1.5-1.7-3.3-3-5.5-3.9c-2.2-0.9-4.6-1.3-7.3-1.3c-2.7,0-5.1,0.4-7.3,1.3c-2.2,0.9-4,2.2-5.5,3.9s-2.7,3.7-3.5,6.1
			c-0.8,2.4-1.2,5.1-1.2,8.2c0,3,0.4,5.8,1.2,8.2c0.8,2.4,2,4.5,3.5,6.1c1.5,1.7,3.4,3,5.5,3.8c2.2,0.9,4.6,1.3,7.3,1.3
			c2.7,0,5.1-0.4,7.3-1.3c2.2-0.9,4-2.2,5.5-3.8c1.5-1.7,2.7-3.7,3.5-6.1C-4.2,259.7-3.8,257-3.8,254z"/>
		<path class="st0" d="M38.1,250.7c-0.3,0.4-0.6,0.6-0.8,0.8c-0.3,0.2-0.7,0.3-1.2,0.3s-1-0.1-1.4-0.4c-0.5-0.3-1-0.6-1.6-1
			c-0.6-0.4-1.4-0.7-2.3-1c-0.9-0.3-2-0.4-3.3-0.4c-1.7,0-3.1,0.3-4.4,0.9s-2.3,1.5-3.1,2.6c-0.8,1.1-1.4,2.5-1.9,4.1
			c-0.4,1.6-0.6,3.4-0.6,5.4c0,2.1,0.2,4,0.7,5.6c0.4,1.6,1.1,3,1.9,4.1c0.8,1.1,1.9,2,3.1,2.5c1.2,0.6,2.6,0.9,4.1,0.9
			s2.7-0.2,3.7-0.6c0.9-0.4,1.7-0.8,2.4-1.2c0.6-0.4,1.2-0.9,1.7-1.2c0.5-0.4,1-0.6,1.6-0.6c0.8,0,1.3,0.3,1.7,0.9l2.7,3.4
			c-1,1.2-2.2,2.3-3.4,3.1c-1.2,0.8-2.5,1.5-3.8,2s-2.7,0.8-4.1,1.1c-1.4,0.2-2.8,0.3-4.2,0.3c-2.4,0-4.7-0.5-6.9-1.4
			c-2.1-0.9-4-2.2-5.6-4c-1.6-1.7-2.9-3.9-3.8-6.4s-1.4-5.4-1.4-8.6c0-2.9,0.4-5.6,1.2-8c0.8-2.5,2-4.6,3.7-6.4
			c1.6-1.8,3.6-3.2,6-4.2s5.1-1.5,8.2-1.5c2.9,0,5.5,0.5,7.7,1.4c2.2,0.9,4.2,2.3,6,4.1L38.1,250.7z"/>
		<path class="st0" d="M59.4,241.8c2.5,0,4.8,0.4,6.8,1.2c2.1,0.8,3.9,1.9,5.4,3.5c1.5,1.5,2.7,3.4,3.5,5.6c0.8,2.2,1.3,4.7,1.3,7.6
			c0,0.7,0,1.3-0.1,1.8s-0.2,0.8-0.3,1.1c-0.2,0.3-0.4,0.5-0.7,0.6c-0.3,0.1-0.6,0.2-1.1,0.2H50c0.3,4,1.4,7,3.3,8.9
			c1.9,1.9,4.4,2.8,7.5,2.8c1.5,0,2.9-0.2,4-0.5c1.1-0.4,2.1-0.8,2.9-1.2c0.8-0.4,1.6-0.8,2.2-1.2c0.6-0.4,1.2-0.5,1.8-0.5
			c0.4,0,0.7,0.1,1,0.2c0.3,0.2,0.5,0.4,0.7,0.7l2.8,3.4c-1,1.2-2.2,2.3-3.5,3.1c-1.3,0.8-2.7,1.5-4.1,2c-1.4,0.5-2.9,0.8-4.3,1.1
			c-1.5,0.2-2.9,0.3-4.3,0.3c-2.7,0-5.3-0.5-7.6-1.4c-2.3-0.9-4.4-2.2-6.1-4c-1.7-1.8-3.1-4-4.1-6.6s-1.5-5.6-1.5-9.1
			c0-2.7,0.4-5.2,1.3-7.6s2.1-4.4,3.7-6.2c1.6-1.7,3.6-3.1,5.9-4.2C53.9,242.3,56.5,241.8,59.4,241.8z M59.6,248.5
			c-2.8,0-4.9,0.8-6.5,2.3c-1.6,1.6-2.6,3.8-3,6.6h17.8c0-1.2-0.2-2.4-0.5-3.5c-0.3-1.1-0.8-2-1.5-2.9c-0.7-0.8-1.6-1.5-2.6-1.9
			C62.3,248.8,61,248.5,59.6,248.5z"/>
		<path class="st0" d="M111.1,281.7h-4.2c-0.9,0-1.6-0.1-2.1-0.4c-0.5-0.3-0.9-0.8-1.1-1.6l-0.8-2.8c-1,0.9-2,1.7-2.9,2.4
			c-1,0.7-1.9,1.2-3,1.7c-1,0.5-2.1,0.8-3.3,1c-1.1,0.2-2.4,0.3-3.8,0.3c-1.7,0-3.2-0.2-4.6-0.7c-1.4-0.4-2.6-1.1-3.6-2
			s-1.8-2-2.4-3.3c-0.6-1.3-0.8-2.9-0.8-4.6c0-1.5,0.4-3,1.2-4.4c0.8-1.4,2.1-2.8,3.9-3.9c1.8-1.2,4.2-2.1,7.2-2.9
			c3-0.8,6.8-1.2,11.2-1.2V257c0-2.6-0.6-4.6-1.7-5.9c-1.1-1.3-2.7-1.9-4.8-1.9c-1.5,0-2.8,0.2-3.8,0.5c-1,0.4-1.9,0.8-2.7,1.2
			c-0.8,0.4-1.4,0.8-2.1,1.2c-0.6,0.4-1.3,0.5-2.1,0.5c-0.6,0-1.2-0.2-1.6-0.5c-0.5-0.3-0.8-0.7-1.1-1.2l-1.7-3
			c4.5-4.1,10-6.2,16.3-6.2c2.3,0,4.3,0.4,6.1,1.1c1.8,0.8,3.3,1.8,4.6,3.1c1.2,1.3,2.2,2.9,2.9,4.8c0.7,1.9,1,3.9,1,6.1v24.9H111.1
			z M92.7,275.8c1,0,1.9-0.1,2.7-0.3s1.6-0.4,2.3-0.8c0.7-0.4,1.4-0.8,2.1-1.3c0.7-0.5,1.4-1.1,2-1.8V265c-2.8,0-5.1,0.2-6.9,0.5
			c-1.9,0.3-3.3,0.8-4.5,1.3c-1.1,0.5-1.9,1.2-2.4,1.9c-0.5,0.7-0.7,1.5-0.7,2.4c0,1.7,0.5,2.9,1.5,3.6
			C89.8,275.4,91.1,275.8,92.7,275.8z"/>
		<path class="st0" d="M116.6,281.7v-39.3h5.8c1.2,0,2,0.6,2.4,1.7l0.7,3.1c0.8-0.8,1.6-1.6,2.5-2.2c0.9-0.7,1.8-1.2,2.8-1.7
			s2-0.9,3.2-1.1c1.1-0.3,2.3-0.4,3.7-0.4c2.1,0,4,0.4,5.7,1.1c1.7,0.7,3,1.7,4.2,3.1c1.1,1.3,2,2.9,2.5,4.7c0.6,1.8,0.9,3.8,0.9,6
			v25h-9.5v-25c0-2.4-0.6-4.3-1.7-5.6c-1.1-1.3-2.8-2-5-2c-1.6,0-3.2,0.4-4.6,1.1c-1.4,0.7-2.8,1.7-4.1,3v28.4h-9.5V281.7z"/>
	</g>
</g>
</svg>
