<?xml version="1.0" encoding="utf-8"?>
<!-- Generator: Adobe Illustrator 18.1.1, SVG Export Plug-In . SVG Version: 6.00 Build 0)  -->
<svg version="1.1" id="Layer_1" xmlns="http://www.w3.org/2000/svg" xmlns:xlink="http://www.w3.org/1999/xlink" x="0px" y="0px"
	 viewBox="0 0 500 500" enable-background="new 0 0 500 500" xml:space="preserve">
<g>
	<polygon fill="#12ACEF" points="86,156.1 249.5,62.2 413,156.1 413,343.9 249.5,437.8 86,343.9 	"/>
	<g>
		<g>
			<path fill="#FFFFFF" d="M307,236.8v-34.1c0-31.3-25.3-56.6-56.6-56.6c-0.4,0-0.7,0-1.1,0c-0.3,0-0.7,0-1,0
				c-31.3,0-56.6,25.3-56.6,56.6v34.1h-20v117.1h155.9V236.8H307z M220,202.7c0-15.6,12.7-28.3,28.3-28.3c0.4,0,1.4,0,1.4,0
				s0.5,0,0.7,0c15.6,0,28.3,12.7,28.3,28.3v34.1H220V202.7z"/>
		</g>
	</g>
</g>
</svg>
