<svg width="600" height="200" viewBox="0 0 600 200" xmlns="http://www.w3.org/2000/svg"><title>Untitled 2</title><g id="Page-1" fill="none" fill-rule="evenodd"><g id="logo-requiresafe"><path d="M0 0h600v200H0V0z" id="Shape" fill="#FFF"/><g id="Shape" fill="#000"><path d="M9.4 77.3h11.3v11.2c3.1-7.4 8.7-12.5 17.4-12.1 1 0 3.1.4 3.1.4l-7 11.5c-7.4 1-13.7 7.8-13.7 19.6v18.7H9.4V77.3zm210.2.1H231v11.2c3.1-7.4 8.7-12.5 17.4-12.1 1 0 3.1.4 3.1.4l-7 11.5c-7.4 1-13.7 7.8-13.7 19.6v18.7h-11.3V77.4h.1zm27.5 24.7v-.1c0-14.1 10-25.7 24.1-25.7 15.7 0 23.7 12.4 23.7 26.6 0 1-.1 2-.1 3.2h-36.3c1.2 8 7 12.5 14.2 12.5 5.5 0 9.4-2 13.4-6l6.7 6c-4.6 5.7-11.2 9.3-20.2 9.3-14.4-.1-25.5-10.5-25.5-25.8zm36.6-3.6c-.7-7.3-5.1-12.9-12.5-12.9-7 0-11.8 5.4-12.8 12.9h25.3zM388.9 126.7v-6.1c-3.3 4.1-8.6 7.1-16 7.1-9.3 0-17.6-5.4-17.6-15.3v-.1c0-10.9 8.6-16.1 20.1-16.1 6 0 9.9.9 13.7 2v-.9c0-6.8-4.4-10.6-12.2-10.6-5.5 0-9.6 1.2-14.1 3.1l-3.1-9c5.4-2.5 10.8-4.1 18.7-4.1 14.5 0 21.6 7.7 21.6 20.8v29.2h-11.1zm.3-20.7c-2.9-1.2-7-2-11.3-2-7.1 0-11.3 2.9-11.3 7.7v.1c0 4.6 4.2 7.3 9.6 7.3 7.4 0 13.1-4.2 13.1-10.3l-.1-2.8zM36.7 102.1v-.1c0-14.1 10-25.7 24.1-25.7 15.7 0 23.7 12.4 23.7 26.6 0 1-.1 2-.1 3.2H48.1c1.2 8 7 12.5 14.2 12.5 5.5 0 9.4-2 13.4-6l6.7 6c-4.6 5.7-11.2 9.3-20.2 9.3-14.4-.1-25.5-10.5-25.5-25.8zm36.6-3.6c-.7-7.3-5.1-12.9-12.5-12.9-7 0-11.8 5.4-12.8 12.9h25.3zm56.3 19.9c-3.6 5.1-8.7 9.3-16.9 9.3-11.6 0-23-9.3-23-25.6v-.1c0-16.4 11.2-25.6 23-25.6 8.1 0 13.2 4.1 16.9 8.7v-7.7h11.3v64.4h-11.3v-23.4zm.1-16.3v-.1c0-9.6-6.7-15.8-14.2-15.8-7.7 0-14.2 6-14.2 15.8v.1c0 9.6 6.5 15.8 14.2 15.8 7.5 0 14.2-6.4 14.2-15.8zm18.8 6.5V77.3h11.3v28c0 7.7 3.8 12.1 10.6 12.1 6.5 0 11.2-4.6 11.2-12.2V77.3h11.3v49.4h-11.3V119c-3.2 4.6-7.7 8.7-15.4 8.7-11.4 0-17.7-7.4-17.7-19.1zM200 58.9h12.2v10.8H200V58.9zm.6 18.4h11.3v49.4h-11.3V77.3zm100.6 39.8l7-8.3c6.2 5.4 12.5 8.6 20.6 8.6 7.1 0 11.6-3.3 11.6-8.3v-.1c0-4.6-2.6-7.3-14.8-10-13.9-3.3-21.8-7.4-21.8-19.5v-.1c0-11.2 9.3-19 22.4-19 9.6 0 17.1 2.9 23.7 8.3l-6.1 8.7c-6-4.4-11.8-6.7-17.7-6.7-6.7 0-10.6 3.5-10.6 7.7v.1c0 5.1 3.1 7.3 15.5 10.3 13.8 3.3 21.1 8.3 21.1 19.2v.1c0 12.2-9.6 19.5-23.4 19.5-10.2-.1-19.7-3.4-27.5-10.5zM409 87h-6.2v-9.4h6.2v-3.5c0-5.5 1.5-9.6 4.1-12.2 2.6-2.6 6.2-3.9 11.2-3.9 3.9 0 6.7.6 9.2 1.3v9.4c-2.2-.7-4.2-1.2-6.7-1.2-4.4 0-6.5 2.3-6.5 7.4v2.8h12.6l-5.5 9.3h-7v39.7H409V87zm20 15.1v-.1c0-14.1 10-25.7 24.1-25.7 15.7 0 23.7 12.4 23.7 26.6 0 1-.1 2-.1 3.2h-36.3c1.2 8 7 12.5 14.2 12.5 5.5 0 9.4-2 13.4-6l6.7 6c-4.6 5.7-11.2 9.3-20.2 9.3-14.4-.1-25.5-10.5-25.5-25.8zm36.5-3.6c-.7-7.3-5.1-12.9-12.5-12.9-7 0-11.8 5.4-12.8 12.9h25.3z"/></g><path d="M486.7 96.7c0-17.7 8.9-30.7 25.9-40l4.9 7.6C504.3 73 498 82.8 498 96.7c0 13.9 6.2 23.7 19.5 32.4l-4.9 7.6c-17-9.2-25.9-22.3-25.9-40zm73.1 32.6c13.2-8.7 19.5-18.5 19.5-32.4 0-13.9-6.2-23.7-19.5-32.4l4.9-7.6c16.9 9.3 25.9 22.4 25.9 40 0 17.7-9 30.7-25.9 40l-4.9-7.6z" id="Shape" fill="#00B0E9"/><path d="M532 103.1h-22V90.3h22V68.4h13.2v21.9h22.1v12.8h-22.1v22.1H532v-22.1z" fill="#00B0E9"/></g></g></svg>