<?xml version="1.0" encoding="utf-8"?>
<!-- Generator: Adobe Illustrator 19.1.0, SVG Export Plug-In . SVG Version: 6.00 Build 0)  -->
<svg version="1.1" id="Layer_1" xmlns="http://www.w3.org/2000/svg" xmlns:xlink="http://www.w3.org/1999/xlink" x="0px" y="0px"
	 width="592.3px" height="139.6px" viewBox="-453 181.4 592.3 139.6" style="enable-background:new -453 181.4 592.3 139.6;"
	 xml:space="preserve">
<style type="text/css">
	.st0{fill:#00B0E9;}
</style>
<g>
	<g>
		<path class="st0" d="M-110.1,255.4c0-13.8-5.9-25.9-25.8-25.9c-10.2,0-18.3,2.9-22.8,5.4l3.2,11.1c4-2.6,10.5-4.7,16.6-4.7
			c10.1,0,11.8,5.7,11.8,9.4v0.9c-22,0-35.9,7.6-35.9,23.1c0,9.5,7.1,18.4,19.4,18.4c7.6,0,13.9-3,17.7-7.9h0.4
			c0,0,2.5,10.5,16.4,6.5c-0.7-4.4-1-9-1-14.7L-110.1,255.4L-110.1,255.4z M-126.5,270c0,1.1-0.1,2.3-0.4,3.3
			c-1.3,4.2-5.6,7.8-11.1,7.8c-4.6,0-8.2-2.6-8.2-8c0-8.4,9.2-10.7,19.7-10.6V270z"/>
		<path class="st0" d="M-453,210.7c0,0,14.4,58.9,16.7,68.5c2.7,11.2,7.5,15.3,21.4,12.5l9-36.5c2.3-9.1,3.8-15.5,5.3-24.8h0.3
			c1,9.3,2.5,15.7,4.4,24.8c0,0,3.7,16.6,5.5,25.3c1.9,8.7,7.1,14.2,20.7,11.2l21.4-81h-17.3l-7.3,35c-2,10.2-3.7,18.2-5.1,27.5
			h-0.2c-1.2-9.2-2.8-16.9-4.8-26.8l-7.6-35.7h-18l-8.1,34.8c-2.3,10.6-4.5,19.1-5.8,28.1h-0.5c-1.4-8.5-3.3-19.2-5.3-29.4
			c0,0-4.8-24.9-6.5-33.5C-434.8,210.7-453,210.7-453,210.7z"/>
		<path class="st0" d="M-299.3,255.4c0-13.8-5.9-25.9-25.8-25.9c-10.2,0-18.3,2.9-22.8,5.4l3.2,11.1c4-2.6,10.5-4.7,16.6-4.7
			c10.1,0,11.8,5.7,11.8,9.4v0.9c-22,0-35.9,7.6-35.9,23.1c0,9.5,7.1,18.4,19.4,18.4c7.6,0,13.9-3,17.7-7.9h0.4
			c0,0,2.5,10.5,16.4,6.5c-0.7-4.4-1-9-1-14.7L-299.3,255.4L-299.3,255.4z M-315.7,270c0,1.1-0.1,2.3-0.4,3.3
			c-1.3,4.2-5.6,7.8-11.1,7.8c-4.6,0-8.2-2.6-8.2-8c0-8.4,9.2-10.7,19.7-10.6V270z"/>
		<polygon class="st0" points="-271.9,274.5 -271.9,210.7 -288.3,210.7 -288.3,291.7 -271.9,291.7 		"/>
		<path class="st0" d="M-56.7,210.7c0,7.8,0,59.8,0,59.8c0,8.2,1.6,14,4.9,17.5c2.9,3.1,7.7,5.1,13.4,5.1c4.9,0,9.6-0.9,11.9-1.8
			l-0.2-12.9c-1.7,0.4-3.6,0.7-6.2,0.7c-5.6,0-7.5-3.6-7.5-11v-22.7h14.3v-15.5h-14.3v-19.2C-40.4,210.7-56.7,210.7-56.7,210.7z"/>
		<path class="st0" d="M-99.1,230.9v60.9h17v-31.2c0-1.7,0.1-3.1,0.4-4.5c1.3-6.5,6.2-10.7,13.4-10.7c2,0,3.4,0.2,4.9,0.4v-15.9
			c-1.3-0.3-2.1-0.4-3.7-0.4c-6.3,0-13.5,4.1-16.6,12.9h-0.5v-11.5H-99.1z"/>
		<path class="st0" d="M-260.3,230.9v60.9h16.5V256c0-1.7,0.2-3.4,0.8-5c1.4-3.6,4.7-7.8,10.1-7.8c6.7,0,9.8,5.6,9.8,13.8v34.7h16.5
			v-36.1c0-1.6,0.2-3.5,0.7-4.9c1.4-4.1,5-7.4,9.9-7.4c6.8,0,10,5.5,10,15.1c0,0,0,25.7,0,33.3h16.5v-35.8
			c0-18.9-9.6-26.4-20.4-26.4c-4.8,0-8.6,1.2-12,3.3c-2.9,1.8-5.5,4.3-7.7,7.6h-0.2c-2.6-6.6-8.8-10.9-16.8-10.9
			c-10.3,0-14.9,5.2-17.7,9.6h-0.2v-8.2C-244.6,230.9-260.3,230.9-260.3,230.9z"/>
	</g>
	<g>
		<g>
			<path class="st0" d="M62.8,228.4c3.3,0,6-1.7,6.3-3.9l3.2-36.5c0-3.6-4.2-6.6-9.5-6.6s-9.5,3-9.5,6.6l3.2,36.5
				C56.9,226.7,59.6,228.4,62.8,228.4L62.8,228.4z"/>
			<path class="st0" d="M43.1,239.8c1.6-2.8,1.5-6-0.2-7.4l-30-21.1c-3.1-1.8-7.8,0.4-10.5,5c-2.7,4.6-2.2,9.7,0.9,11.5l33.2,15.5
				C38.6,244.1,41.5,242.6,43.1,239.8L43.1,239.8z"/>
			<path class="st0" d="M82.6,239.8c1.6,2.8,4.5,4.3,6.5,3.5l33.2-15.5c3.1-1.8,3.6-6.9,0.9-11.5c-2.7-4.6-7.4-6.8-10.5-5l-30,21.1
				C81.1,233.8,80.9,237,82.6,239.8L82.6,239.8z"/>
		</g>
		<g>
			<path class="st0" d="M62.8,274c3.3,0,6,1.7,6.3,3.9l3.2,36.5c0,3.6-4.2,6.6-9.5,6.6s-9.5-3-9.5-6.6l3.2-36.5
				C56.9,275.7,59.6,274,62.8,274L62.8,274z"/>
			<path class="st0" d="M82.6,262.6c1.6-2.8,4.5-4.3,6.5-3.5l33.2,15.5c3.1,1.8,3.6,7,0.9,11.6c-2.7,4.6-7.4,6.8-10.5,5l-30-21
				C81.1,268.6,80.9,265.4,82.6,262.6L82.6,262.6z"/>
			<path class="st0" d="M43.1,262.6c1.6,2.8,1.5,6-0.2,7.4l-30,21c-3.1,1.8-7.8-0.4-10.5-5s-2.2-9.7,0.9-11.6l33.2-15.5
				C38.6,258.3,41.5,259.8,43.1,262.6L43.1,262.6z"/>
		</g>
		<g>
			<path class="st0" d="M134,283.6c2.9,0,5.3,2.3,5.3,5.2c0,3-2.3,5.3-5.3,5.3s-5.3-2.3-5.3-5.3C128.7,285.9,131,283.6,134,283.6
				L134,283.6z M134,284.5c-2.4,0-4.2,1.9-4.2,4.3s1.8,4.3,4.2,4.3s4.1-1.9,4.1-4.3C138.1,286.5,136.4,284.5,134,284.5L134,284.5z
				 M133.1,291.7h-1v-5.5c0.6-0.1,1.1-0.2,1.9-0.2c0.9,0,1.4,0.2,1.7,0.4s0.6,0.7,0.6,1.1c0,0.7-0.5,1.1-1.1,1.3v0.2
				c0.5,0.2,0.8,0.6,0.9,1.3c0.2,0.8,0.3,1.2,0.4,1.4h-1c-0.2-0.2-0.3-0.7-0.4-1.4c-0.1-0.6-0.5-0.8-1.3-0.8h-0.7L133.1,291.7
				L133.1,291.7z M133.1,288.6h0.7c0.8,0,1.4-0.2,1.4-0.9c0-0.5-0.3-0.9-1.3-0.9c-0.4,0-0.6,0-0.8,0.1L133.1,288.6L133.1,288.6z"/>
		</g>
	</g>
</g>
</svg>
