<?xml version="1.0" encoding="UTF-8"?><svg xmlns="http://www.w3.org/2000/svg" width="54" height="63" viewBox="0 0 54 63"><path class="shadow" d="M41.32,17.65v-4.67c0-2.02-1.51-3.7-3.46-3.96v-2.02c0-2.21-1.79-4-4-4h-9.52c-2.21,0-4,1.79-4,4v2.02c-1.95,.26-3.46,1.94-3.46,3.96v4.67c-7.26,4.3-11.86,12.24-11.86,20.73,0,13.28,10.8,24.08,24.08,24.08s24.08-10.8,24.08-24.08c0-8.49-4.6-16.43-11.86-20.73Z" fill="#14303f"/><path d="M33.13,17.62v-7.09H16.68v7.09c-6.98,3.14-11.86,10.15-11.86,18.31,0,11.09,8.99,20.08,20.08,20.08s20.08-8.99,20.08-20.08c0-8.16-4.87-15.16-11.86-18.31Z" fill="#eaebef"/><rect x="20.15" y="4.54" width="9.52" height="11.3" fill="#f9ba19" stroke="#14303f" stroke-linejoin="round" stroke-width="2"/><path d="M33.13,17.62v-7.09H16.68v7.09c-6.98,3.14-11.86,10.15-11.86,18.31,0,11.09,8.99,20.08,20.08,20.08s20.08-8.99,20.08-20.08c0-8.16-4.87-15.16-11.86-18.31Z" fill="none" stroke="#14303f" stroke-linejoin="round" stroke-width="2"/><path class="potion-2" d="M36.88,35.89c-6.2,1.51-11.77-5.25-18.36-5.25-4.31,0-7.59,1.63-9.36,2.76-.13,.81-.21,1.64-.21,2.48,0,8.82,7.15,15.96,15.96,15.96s15.96-7.15,15.96-15.96c0-.44-.03-.87-.07-1.29-1.12,.48-2.42,.93-3.92,1.29Z" fill="#5d73a2"/><path d="M23.41,39.29h-1.99l-1.73-1.72v-1.99c0-.28-.22-.5-.5-.5s-.5,.22-.5,.5v1.99l-1.72,1.72h-1.99c-.28,0-.5,.22-.5,.5s.22,.5,.5,.5h1.99l1.72,1.72v1.99c0,.28,.22,.5,.5,.5s.5-.22,.5-.5v-1.99l1.73-1.73h1.99c.28,0,.5-.22,.5-.5s-.22-.5-.5-.5Z" fill="#eaebef"/><path class="star1" d="M29.71,24.52h-1.51l-1.31-1.31v-1.51c0-.21-.17-.38-.38-.38s-.38,.17-.38,.38v1.51l-1.31,1.31h-1.51c-.21,0-.38,.17-.38,.38s.17,.38,.38,.38h1.51l1.31,1.31v1.51c0,.21,.17,.38,.38,.38s.38-.17,.38-.38v-1.51l1.31-1.31h1.51c.21,0,.38-.17,.38-.38s-.17-.38-.38-.38Z" fill="#5d73a2"/><path class="star2" d="M38.23,29.31h-1.51l-1.31-1.31v-1.51c0-.21-.17-.38-.38-.38s-.38,.17-.38,.38v1.51l-1.31,1.31h-1.51c-.21,0-.38,.17-.38,.38s.17,.38,.38,.38h1.51l1.31,1.31v1.51c0,.21,.17,.38,.38,.38s.38-.17,.38-.38v-1.51l1.31-1.31h1.51c.21,0,.38-.17,.38-.38s-.17-.38-.38-.38Z" fill="#5d73a2"/><g class="outline"><path d="M29.67,3.54c.55,0,1,.45,1,1v4.99h2.46c.55,0,1,.45,1,1v6.45c7.22,3.52,11.86,10.89,11.86,18.94,0,11.62-9.46,21.08-21.08,21.08S3.83,47.55,3.83,35.93c0-8.05,4.63-15.42,11.86-18.94v-6.45c0-.55,.45-1,1-1h2.46V4.54c0-.55,.45-1,1-1h9.52m0-3h-9.52c-2.21,0-4,1.79-4,4v2.02c-1.95,.26-3.46,1.94-3.46,3.96v4.67C5.43,19.49,.83,27.43,.83,35.93c0,13.28,10.8,24.08,24.08,24.08s24.08-10.8,24.08-24.08c0-8.49-4.6-16.43-11.86-20.73v-4.67c0-2.02-1.51-3.7-3.46-3.96v-2.02c0-2.21-1.79-4-4-4h0Z" fill="#fff"/></g></svg>
