<svg xmlns="http://www.w3.org/2000/svg" width="300" height="320" viewBox="0 0 300 320"><path d="M163.09 22.35c17.41-3 34.88 8.51 43.65 23.84s10.4 33.67 10.26 51.33c-.24 21.91-3 43.74-3.29 65.66s8.52 42.77 17.72 62.66c-17 6.06-130.18 26.27-159.59 4.55-.57-.42 33-31.45 28.17-85-1.77-19.71-7.41-39.1-6.9-58.88a99.15 99.15 0 0 1 9.51-39.78c2.73-5.75 5.9-11.45 10.48-15.87 19.74-19.1 49.99-8.51 49.99-8.51z" fill="#1e1e1e"/><path d="M163.27 23c13.4-1.94 26.51 4.43 35.57 14 10.16 10.81 14.68 25.56 16.33 40 1.83 16.12.71 32.51-.4 48.64-.58 8.55-1.22 17.1-1.63 25.66-.39 8.22-.69 16.43.41 24.61 2.11 15.71 8.06 30.57 14.54 44.93.82 1.82 1.66 3.64 2.49 5.45l.56-1.38a81.56 81.56 0 0 1-8.69 2.4c-4.67 1.11-9.38 2.07-14.1 3q-19.2 3.64-38.64 5.88a418.15 418.15 0 0 1-44 3c-12.65.14-25.63-.27-38-3.24a47.1 47.1 0 0 1-13.23-5c-.43-.25-.84-.52-1.25-.79a4 4 0 0 0-.6-.42c-.39-.14-.58-1.07.12.85 0-.08 0 .25-.07.18a.94.94 0 0 1 .12-.18c-.23.12 0 0 .12-.15.67-.78 1.34-1.55 2-2.33a113.78 113.78 0 0 0 16.35-25.77 112.05 112.05 0 0 0 10.13-49.54c-.6-23.45-8.59-46.19-7.15-69.77a97.54 97.54 0 0 1 8.07-33.34 69.9 69.9 0 0 1 8-14.25A36.78 36.78 0 0 1 121.13 26c11.77-6.77 26.43-6.77 39.3-3.5.81.21 1.63.41 2.43.69 1.08.38 1.55-1.35.47-1.72a57.73 57.73 0 0 0-9.63-2.3 58.87 58.87 0 0 0-21.38.43 40.47 40.47 0 0 0-22.83 13.63A64.86 64.86 0 0 0 101.32 47a99.82 99.82 0 0 0-5.87 16.14 103.15 103.15 0 0 0-3.06 34.77c.93 12 3.38 23.88 5.16 35.81 1.6 10.73 2.43 21.49 1.43 32.32a108.29 108.29 0 0 1-5.49 25.48 110.6 110.6 0 0 1-17.4 32c-1.55 2-3.26 3.82-4.8 5.79-1.07 1.37.32 2.13 1.48 2.87a37.07 37.07 0 0 0 6 3c10.91 4.39 23.23 5.35 34.86 5.76a343.37 343.37 0 0 0 44.2-1.69q21.07-2 42-5.6a285.78 285.78 0 0 0 28.26-5.91c1.19-.33 2.37-.68 3.53-1.09a1 1 0 0 0 .56-1.38c-6.84-14.78-13.45-29.94-16.28-46.08-1.45-8.31-1.42-16.59-1.09-25 .34-8.73 1-17.44 1.55-26.15 1.12-16.53 2.41-33.28.7-49.81-1.49-14.48-5.59-29.27-15.2-40.54-8.36-9.82-21.07-17.36-34.32-16.65a34.73 34.73 0 0 0-4.65.57c-.84.25-.46 1.51.38 1.39z" fill="#1e1e1e"/><path d="M34.75 192.67c-.28-8.2-2.39-31.64-6-31.64-1.24 0-2 1.4-2.25 2.61-1.27 5.64 1.23 17.15-.34 22.71l-1.81-.21a54.28 54.28 0 0 0-3-19c-5.37-13.56-8.08-2.31-7.87-.67.19 1.44 3.92 16.41 4 20.65l-2.68 1.13c-1.08-5.1-4.39-22.56-8.27-21.47-3.35 2.93 1.54 22.35 2.14 24.64.47 1.84.13 18 1.16 20.72 1.39 3.68 1.08 7.27 5.3 10.45 0 0 14.11 41.09 21.29 60.15 2.54 6.73 6.43 14.18 13.23 16.54 6.12 2.12 10.26.05 15.47-3.8 19.7-14.53 39.82-42.89 64.53-63 0 0-6.81-32.85-10.12-31C92 216.88 68.8 254 56.79 268.83l-30.74-54.55z" fill="#cbb591"/><path d="M35.27 192.67c-.14-3.84-.45-7.68-.84-11.51a125.86 125.86 0 0 0-1.85-13.1 30.56 30.56 0 0 0-1.34-4.78 5.16 5.16 0 0 0-1.63-2.54c-1.39-.92-2.82.45-3.37 1.68-.86 1.94-.77 4.37-.74 6.45.05 3.07.34 6.13.48 9.2a27 27 0 0 1-.44 8.12l.58-.44-1.81-.21.6.6A50.41 50.41 0 0 0 22.65 169a23.59 23.59 0 0 0-3.43-7.34c-.73-.95-1.84-2-3.16-1.71-2.15.51-2.93 3.77-3.16 5.62a6.86 6.86 0 0 0 .25 2.38c.38 1.76.79 3.52 1.18 5.28.57 2.55 1.13 5.11 1.63 7.67a40.7 40.7 0 0 1 .93 6.2l.46-.6-2.68 1.13.77.43c-.8-3.82-1.58-7.64-2.61-11.41a48.56 48.56 0 0 0-2-6.11 10.59 10.59 0 0 0-2.21-3.69c-.73-.68-1.95-1.18-2.71-.29a6.19 6.19 0 0 0-1.07 3.63c-.29 3.94.46 8 1.17 11.87.58 3.13 1.34 6.21 2 9.31a16.48 16.48 0 0 1 .24 3.06c.07 2 .09 4 .13 6 .05 2.21.1 4.42.21 6.63a27.45 27.45 0 0 0 .48 4.71c.2.84.53 1.64.76 2.47A38.15 38.15 0 0 0 11 218a11.1 11.1 0 0 0 1.92 3.29c.46.55 1.12 1 1.58 1.44.09.1.05 0 .12.08a6.92 6.92 0 0 1 .53 1.55c.38 1.08.75 2.16 1.12 3.25l3.53 10.17q4.88 14 9.85 28 2.34 6.56 4.73 13.08c1.77 4.8 3.49 9.69 6.46 13.91 3.16 4.49 7.84 7.94 13.53 8s10.54-4.08 14.73-7.48c9.31-7.56 17.46-16.48 25.6-25.25 9.12-9.83 18.2-19.73 28.15-28.73q3.63-3.28 7.41-6.38a.74.74 0 0 0 .19-.72q-1.56-7.54-3.49-15c-.91-3.5-1.86-7-3.07-10.41-.64-1.8-1.4-4.83-3.15-5.94-1.11-.7-2.19.29-3.14.85-2.36 1.4-4.64 2.93-6.85 4.55a123.93 123.93 0 0 0-13.17 11.27 244 244 0 0 0-22.77 26.13c-6.27 8.12-12.08 16.63-18.55 24.6l1.3.17q-2.7-4.82-5.42-9.61l-11.68-20.46-10.72-18.83-2.74-4.9a2.58 2.58 0 0 0-.29-.51c-.34-.32.34.28 0 .31a9.9 9.9 0 0 0 .83-2.09q3.8-9.53 7.58-19.05l.2-.48c.25-.62-.75-.89-1-.28-2.36 5.87-4.77 11.73-7.16 17.59l-1.4 3.43a1.26 1.26 0 0 0-.12 1.13 33 33 0 0 0 2 3.58l10 17.82 11.81 21.15q2.19 3.94 4.41 7.87c.74 1.31 1.4 2.72 2.24 4a1 1 0 0 1 .1.17.83.83 0 0 0 1.3.17c5.32-6.6 10.17-13.58 15.26-20.35a291.72 291.72 0 0 1 21.28-25.67 150 150 0 0 1 12.34-11.71c2.15-1.8 4.37-3.52 6.66-5.14s4.5-2.84 6.74-4.3c.4-.26.27-.11.11-.16a.81.81 0 0 1 .13.06 5.52 5.52 0 0 1 .56.7 16 16 0 0 1 1.45 3.08 96.15 96.15 0 0 1 3 9.78q2.26 8.38 4 16.9l.19-.72c-19.49 16-34.87 36-53 53.3a110.86 110.86 0 0 1-12.36 10.43c-2.36 1.67-4.95 3.27-7.87 3.69a13.21 13.21 0 0 1-8.53-1.92c-4.85-2.94-7.69-8.43-9.74-13.53-1.56-3.9-3-7.88-4.39-11.84-5.7-15.72-11.2-31.52-16.65-47.33l-.65-1.91c-.37-1-1.44-1.55-2.15-2.4-1.81-2.14-2.15-4.88-2.95-7.47a18.06 18.06 0 0 1-.81-4.19c-.31-4-.31-8.07-.4-12.09a30.64 30.64 0 0 0-.72-6.87c-.82-3.39-1.55-6.8-2.12-10.24s-1.41-7.56-.51-11c.27-1 .47-1.6 1.37-.81a10.09 10.09 0 0 1 2.25 4A83.4 83.4 0 0 1 13.31 184c.31 1.47.61 2.93.92 4.4a.63.63 0 0 0 .92.37l2.68-1.13a.6.6 0 0 0 .31-.54 61.82 61.82 0 0 0-1.8-10.53c-.7-3.27-1.52-6.51-2.17-9.79a7.31 7.31 0 0 1 1.35-5c2.33-3 5.36 5.74 5.75 6.91a48.76 48.76 0 0 1 2.44 17.45.61.61 0 0 0 .6.6l1.81.21a.62.62 0 0 0 .58-.44c1.15-4.31.44-9.09.17-13.47a56.41 56.41 0 0 1-.14-7c.06-.95.55-5.35 2.28-4.29.73.44 1.1 1.79 1.35 2.52a38.38 38.38 0 0 1 1.2 4.6A115.55 115.55 0 0 1 33.37 181c.4 3.87.73 7.76.86 11.65.03.68 1.06.69 1.04.02z" fill="#1e1e1e"/><path d="M13.26 189.5c3.07-2.59 7.4-2.91 11.41-3.12 1.3-.07 2.74-.09 3.71.76" fill="#f6a87b"/><path d="M13.51 189.94a19.39 19.39 0 0 1 3.43-1.74 18.44 18.44 0 0 1 3.59-.8c1.21-.16 2.44-.23 3.66-.29s2.65-.25 3.63.6a.8.8 0 1 0 1-1.26 6 6 0 0 0-3.89-.79c-1.46.07-2.92.17-4.37.37-2.6.35-5.82 1.05-7.63 3.11a.51.51 0 0 0 .61.8z" fill="#1e1e1e"/><path d="M19.85 210.68c0-14.37 13.16-14.86 13.16-14.86 2.24-5.93 14.66-9.7 15.36-9.47 1.46.47 3.13 5.61-3.16 8.84a19.4 19.4 0 0 0-7.94 8.56 72.14 72.14 0 0 1-2.84 6.71c-1.2 2.12-3.17 4-5.59 4.25 0 5.19 10 21.42 14.22 29.64 5.21 10.11 10.45 20.28 17.19 29.44" fill="#cbb591"/><path d="M20.41 210.68c.33-5 2-9.69 6.57-12.25a14.11 14.11 0 0 1 6-1.82.84.84 0 0 0 .76-.58c1.2-3 4.54-4.89 7.27-6.26a24.64 24.64 0 0 1 7.08-2.61c.17 0 0-.09.13 0a2.83 2.83 0 0 1 .56 1.09 4.58 4.58 0 0 1-1.05 3.94c-1.41 1.74-3.63 2.47-5.36 3.83a21.55 21.55 0 0 0-4.65 5.11c-2.69 4.13-3.16 11.92-9.13 12.74a.83.83 0 0 0-.61.8c0 2.7 1.41 5.42 2.51 7.82 1.69 3.69 3.63 7.26 5.57 10.81s3.84 6.85 5.67 10.31c2.5 4.73 4.89 9.51 7.48 14.19a157.73 157.73 0 0 0 10.24 16.4c.66.92 2.21 0 1.53-.89-6.68-9.05-11.88-19-17-29-3.57-6.93-7.64-13.59-11.06-20.59-.83-1.7-1.64-3.43-2.3-5.2a12 12 0 0 1-1-3.84l-.61.8c6-.83 7-7.59 9.23-12a18.68 18.68 0 0 1 5.76-6.61c2-1.4 4.17-2.22 5.52-4.35a6 6 0 0 0 .88-4.52c-.2-.93-.78-2.21-1.81-2.47a5.29 5.29 0 0 0-2.5.45 37.64 37.64 0 0 0-4.6 1.77c-3.59 1.63-7.71 4-9.23 7.83L33 195a15.58 15.58 0 0 0-7.14 2.26c-4.67 2.83-6.86 8-6.58 13.38a.56.56 0 0 0 1.12 0z" fill="#1e1e1e"/><path d="M182 230.34c-3.38-13.52-7.59-29-9.94-32.53-1.5-2.26-44.82-2.48-49.42 1.46-2.4 2-6 17.13-8.79 31.07z" fill="#fff"/><path d="M181.19 194.83c3.83-7.34-8.55-11.47-8.55-11.47S146.62 224 145.39 227c-5.49-4.49-25.08-39.65-25.08-39.65-17.46 3.87-8 17.22-7.12 17.76-12.65 8.61-30.72 27.57-55.63 58.27-1.53 1.88-4.3-3.78-9.13-14.42-7.14 2-21.25 14-21.25 14s6.23 35.32 25.5 39.6c8.47 1.88 36.22-25.83 52.64-41 2.66 16.58-9.19 45.38-10.51 63.1-3.09 31.88 96.33 14.58 101.88 4.69.65 5.36 1.33 11 2.07 17.17 7.42.18 17-2.36 22.79-7-6.93-37.4-10.77-120.69-40.36-144.69z" fill="#5db2a5"/><path d="M55 262.07c-1.59-2.27-3.73-6.82-6.61-13.16-7.14 2-21.25 14-21.25 14a95.18 95.18 0 0 0 3.88 14C37 268.89 53.34 262.19 55 262.07z" fill="#30877a"/><path d="M112.23 204.12c-5.21 3.66-9.92 8.41-13.38 11.68a365.66 365.66 0 0 0-25.4 27.11c-5.13 6-9.79 12.62-15.26 18.25-2.08 2.15-.84 1.68-2.34.5-.84-.66-5.13-9.84-6.66-13.19a.88.88 0 0 0-1-.41c-5.47 1.75-21.34 12.57-21.95 14.88-.37 1.41 3.86 14.46 5.65 18.67 3.7 8.69 9.74 19.06 19.6 21.61 7.82 2 16.94-7.24 22.33-11.69 10.85-9 20.84-18.89 31.22-28.39v-2.58c-6.93 6.42-13.76 13-20.75 19.31-7.44 6.76-15.06 13.93-23.75 19.13-2.64 1.57-5.42 3.16-8.54 2.44-4.22-1-7.86-4.12-10.6-7.32-5.59-6.52-8.91-14.95-11.29-23.1-.66-2.26-1.89-7.38-1.95-7.64.31.22 1.36-1.11 2-1.63 3.35-2.71 6.78-5.34 10.38-7.7 1.7-1.12 3.83-2.83 5.83-3.36 2.35-.61 1.74-.2 2.83 2.08.88 1.84 1.71 3.7 2.64 5.52.84 1.66 2.39 5.79 4.61 6.27a2 2 0 0 0 1.47-.31c.84-.4 6-7.24 7.62-9.2 8.17-9.84 16.53-19.56 25.38-28.81 6.94-7.25 14.2-14.55 22.52-20.24.26-.23-.56-1.41-1.21-1.88z" fill="#1e1e1e"/><path d="M103.55 249.16c-10.14 9.32-32.92 35.18-45.36 38s-29.63-14.81-29.63-14.81c2.78 5.45 11.6 28.72 22.26 29.87 16.54 1.79 39.87-31.65 54.5-40.67z" fill="#1e1e1e" opacity=".25"/><path d="M55 261.76c-4.11.34-8.37 3-11.89 5a46.9 46.9 0 0 0-11.55 8.66c-.76.82.48 2.06 1.22 1.22 5.5-6.26 14.44-11.2 22.39-13.6.65-.19.57-1.3-.17-1.24z" fill="#1e1e1e"/><path d="M53.05 260.07a13.93 13.93 0 0 0 6.35 7.16c1 .48 1.86-1 .87-1.51-2.73-1.53-4.39-3.8-6.35-6.16-.33-.4-1 0-.87.51zM209.91 259.62c-4.45-23.54-9.57-49.36-28-65.23a10 10 0 0 1-.62 1.85c12.06 11 18.57 26.08 22.51 42.37 4.47 18.54 7.55 37.55 10.55 56.38 1.29 8.13 2.46 16.29 3.58 24.45l2 14.53c.39 2.95 1.16 5.11-1.78 6.8a34.83 34.83 0 0 1-8.35 3.38c-2.27.62-5.84 1.82-8.11 1.38-1.46-.29-1 .51-2.12-.87-.33-.39-1.48-12-2-16.19q-.85.81-1.77 1.56 1 8.25 2.06 16.52a1 1 0 0 0 1 1c8.21 0 16.62-2.19 23.27-7.12a1 1 0 0 0 .46-.81c-3.7-26.81-7.67-53.45-12.68-80z" fill="#1e1e1e"/><path d="M193.21 274.72c-1-9.43-1.3-18.87-3.47-28.06-1.33 6.59-2.63 9.44-3 20-1.39 17.83 11.92 41.52 12.79 51.33s-4 6.72-1.19 22.11c15.35-19.65-3.86-52.91-5.13-65.38z" fill="#1e1e1e" opacity=".25"/><path fill="#d8d8d8" d="M144.49 226.87l3.12.28-.84 119.35-3.03.17.75-119.8z"/><path d="M146.61 227.36c.11-1.29-2.64-1.4-2.75-.21s2.65 1.49 2.75.21z" fill="#1e1e1e"/><path d="M102.37 242.82c1.34 12.37 4.3 24.78 1.36 37.09-2.73 11.44-6.34 22.61-8.37 34.23-.86 4.88-2.78 12-.83 16.8 1.85 4.51 7.77 6.34 12 7.66a74.22 74.22 0 0 0 37.51 1.6.92.92 0 0 0 .66-.87c-.77-25.84-.51-51.62.07-77.46q.24-10.05.38-20.11.07-5.92.12-11.85c0-1.52.36-3.25-.31-4.61-.76-1.54-2.72-3.05-3.85-4.31-2.51-2.82 2.16 4.67 2.57 5.66s-.27 4.11-.28 5.16v3.72q-.06 5.67-.15 11.34c-.18 10.78-.47 21.57-.71 32.35s-.38 21.37-.3 32.06c0 5.59 1.6 24.67.4 26.78-1.11 1.94-6.25 1.68-8.52 1.84-10.71.73-22.53-.27-32.38-4.84-3.92-1.82-6.06-4.2-6.19-8.87-.08-3.1 3.06-20 4.32-25.22 1.83-7.53 4.69-15.1 5.81-22.77.57-3.89 1.33-7.71 1-11.64-.7-7.92-1.87-15.86-2.92-23.74-.11-.86-1.47-.89-1.37 0zM200.35 321.19c-.4-9.12-4-16.73-7.25-24.74-1.51-9.47-3.34-18.87-5.38-28.22.24-8.94 1.76-17.91 2.74-26.91.09-.88-1.26-.86-1.38 0-1.68 12.74-4.3 25.91-2.5 38.75 1.4 9.94 6.3 18.08 9.49 27.39 1.85 5.41 5.17 15.92.81 20.67-3.24 3.54-9.72 4.9-14.2 6.11-10.19 2.74-21.38 4.3-31.92 3-.68-.08-2.64-.05-3.16-.51-.9-.78 0-26.86.13-33.22.22-10.15.53-20.3.7-30.46.18-11 .19-22 0-33-.07-3.59-.66-13.47-.28-14.54.64-1.74-1.59-1.31-2-.07-1 3.13.27 8.63.34 12q.13 6.22.2 12.44c.1 12.72-.15 25.43-.48 38.14-.43 16.46-.8 32.91-.73 49.38a.89.89 0 0 0 .65.85c10.7 2.46 22.43.88 33-1.47a67.1 67.1 0 0 0 14.39-4.62c5-2.38 7.07-5.39 6.83-10.97z" fill="#1e1e1e"/><path d="M147.58 297.84c3.65-.29 17.53-2.56 19.62-1.83-.6 2.4.76 5.18 1.29 6.5a16.75 16.75 0 0 0 4 5.85 21.05 21.05 0 0 0 5.1 3.46c1 .53 3.68 1 4.41 1.9.36.42.13 5 .25 6.54a85.72 85.72 0 0 0 2.12 13.88c.31 1.26 2.21.73 1.93-.53a82.85 82.85 0 0 1-2.3-18.49c0-2 .26-2.15-1.32-3.21-2-1.36-4.7-1.76-6.79-3.14-4.78-3.15-6.8-8-7.05-13.63a.87.87 0 0 0-.85-.85c-2.38-.26-16.12 1.61-20.38 2.1-.91.11-1 1.52 0 1.45z" fill="#1e1e1e"/><path d="M120.31 187.3c-13.38 8.13 4.67 17 6.75 19.29 2.32 2.59 14.05 15.24 15.59 17.65 0 0-11.61-17.3-12.87-19.81-5.41-11.07 7.91-28.41 7.91-28.41-4.06 0-24.28 0-21.74 12.39.05 0 4.63-1.29 4.36-1.11zM160.13 199.78c-.15 1.54-11.58 21.38-12.49 24.46 1.66-1.74 15.72-20.49 17.59-22.06 20.63-13.79 5.58-18.6 5.58-18.6a7.93 7.93 0 0 0 2 .16c.45-5.53-18.54-7.3-22.6-7.35-.02 0 10.79 9.28 9.92 23.39z" fill="#30877a"/><path d="M144.32 225.81c-3-7-8.28-13.15-12.41-19.48-6.5-10 1.2-21.14 6.5-29.89a.84.84 0 0 0-.72-1.25c-6.82.19-25.63 1.68-22.76 12.75a.89.89 0 0 0 .12.26c-5.69 3.22-9.14 10.87-3.82 16.37a13.94 13.94 0 0 0 4.93 2.75 51 51 0 0 1 9.36 4.8c6.27 4.23 11.71 9.58 17.43 14.48.55.47 1.72.03 1.37-.79zm-19.34-16c-3.41-2.15-7.19-3.11-10.65-5.05-3.64-2-4.38-6.71-3.1-10.43 1.45-4.25 5.45-6.29 9.65-6.34a.67.67 0 0 0 0-1.34 10.6 10.6 0 0 0-4.34.81c-2.26-8.8 13.1-10.28 19.64-10.57-5 8.08-11.77 18.76-7 28.08 3.19 6.27 8.22 11.59 11.75 17.7-5.14-4.5-10.17-9.19-15.93-12.84zM173.45 183.56c.92-6.94-19.54-7.9-23.26-8a.84.84 0 0 0-.59 1.42 29.69 29.69 0 0 1 9 15.58c1.36 5.58.44 9-2.13 13.85C153 213 148.18 219.1 145.41 226c-.34.83.84 1.32 1.4.81 6.07-5.49 11-12.09 17-17.7a36.63 36.63 0 0 1 10.91-7.28c2.85-1.22 5.29-2.5 6.68-5.41 3.6-7.42-1.84-11.1-7.95-12.86zm7.06 10.72c-1.14 4.76-5.57 5.42-9.24 7.25-9.15 4.59-15.28 13.61-22.37 20.93 3.48-6.62 8.23-12.65 11.1-19.58 3.44-8.3-1.59-19.12-7.62-25.5 5.65.49 20 2.16 19.46 5.76a43 43 0 0 0-4.84-.85c-.74-.09-.92 1.2-.18 1.32 4.1.67 12 1.35 13.63 6.1a9.68 9.68 0 0 1 .06 4.57z" fill="#1e1e1e"/><path d="M153.11 218.36c.88 21.77 1.82 43.42 1.7 65.23a.88.88 0 0 0 1.76 0c.06-11.14 0-22.28-.26-33.42-.24-10.57-.14-21.52-1.88-32-.12-.75-1.35-.58-1.32.17z" fill="#fff"/><path d="M157.47 280.38c1.2.18 1.75-1.61.51-1.85a20.37 20.37 0 0 0-4.18-.32.7.7 0 0 0-.17 1.26s3.17.81 3.84.91zM135.62 218.31c-1 11.57-1.21 23.24-2.08 34.83-.77 10.32-1.74 20.78-1 31.13.08 1.14 1.86 1.15 1.78 0-1.5-21.93 2.9-44 2.64-66a.67.67 0 0 0-1.33 0z" fill="#fff"/><path d="M134.71 281.12c1.22.05 1.18-1.75 0-1.86a7.13 7.13 0 0 0-3.71.74.59.59 0 0 0 .29 1.09s2.28-.01 3.42.03z" fill="#fff"/><path d="M165.09 37.78c-3.21 10.06-14 19.71-21.29 27.33-11.1 11.55-22.89 25.61-27.92 40.81-1.33 4-1.32 8.18-1.59 12.42-.9 14.21 10.42 30.14 13.89 44 2.7 10.73 1.69 19 1.32 30.06-.1 2.9-.13 6.4 1.53 8.77 1.94 2.78 5.59 4.42 8.94 4.86 5.48.72 11.56.56 15.85-2.92 3.22-2.61 4.89-7.77 6-11.75 2.46-8.64 3-17.78 6.13-26.21 1.83-5 8.36-9.2 13.65-15.69 7.72-9.46 10-18.58 12.68-29.44s-3.3-22.53-7.07-33.06c-3.07-8.57-8.64-16-13.44-23.69s-8.94-16.39-8.68-25.49z" fill="#cbb591"/><path d="M164.43 37.6c-2 5.92-6.1 11-10.24 15.59s-8.71 8.92-13 13.46c-9.18 9.74-18 20.36-23.6 32.63a43.72 43.72 0 0 0-3.24 9.13 66.5 66.5 0 0 0-1 10.65c-.2 6 1.57 11.9 3.68 17.44 2.29 6 5.12 11.77 7.49 17.73a60.5 60.5 0 0 1 4.48 18.59c.45 6.76-.21 13.52-.37 20.28-.07 2.84 0 6 1.66 8.48a12.82 12.82 0 0 0 6.56 4.6 26 26 0 0 0 9 1 19.4 19.4 0 0 0 8.24-1.91c5.22-2.66 7.18-8.46 8.69-13.74 2-7 2.74-14.31 4.61-21.35.77-2.88 1.58-5.72 3.44-8.1a69.24 69.24 0 0 1 6.2-6.39A57.11 57.11 0 0 0 188.8 140a86.15 86.15 0 0 0 5.76-17.16 33.88 33.88 0 0 0 1.34-9.54 41 41 0 0 0-1.62-9.59c-1-3.44-2.22-6.78-3.5-10.11-1.2-3.12-2.29-6.3-3.59-9.39-5.35-12.77-15.69-23-19.72-36.36A32.38 32.38 0 0 1 166 37.78a.94.94 0 0 0-1.88 0c-.3 13.84 8.54 25.18 15.5 36.33a89.4 89.4 0 0 1 4.73 8.43c1.47 3.08 2.54 6.32 3.77 9.5 2.44 6.3 5.14 12.77 5.76 19.57.56 6.25-1.43 12.5-3.25 18.41a55.49 55.49 0 0 1-7.93 16.45 59.87 59.87 0 0 1-6.76 7.65c-2.05 2-4.22 4-6.07 6.17-3.86 4.6-4.84 11-6 16.68-1.25 6.48-2.24 13.12-4.71 19.28-1.09 2.71-2.59 5.33-5.13 6.91a16.77 16.77 0 0 1-8.48 2.26c-5.44.15-13.36-.87-14.91-7.21-.76-3.07-.34-6.46-.2-9.59.14-3.32.31-6.63.33-10A63.33 63.33 0 0 0 128.4 160c-1.74-5.81-4.36-11.32-6.78-16.86s-4.92-11.5-6-17.62a36.45 36.45 0 0 1-.39-8.54c.2-3.64.35-7.29 1.48-10.79 4-12.55 12.42-23.54 21.07-33.3 4.11-4.64 8.48-9 12.8-13.45s8.55-9 11.8-14.2a31.6 31.6 0 0 0 3.36-7.24c.26-.88-1.03-1.22-1.31-.4z" fill="#1e1e1e"/><path d="M131 201.13a8.57 8.57 0 0 0 1.12 1.29c1.61-10.94 2.35-22 .92-33-1.54-11.92-8.1-22.25-9.63-34.09-1.68-13 .72-25.17 5.13-37.4a215.81 215.81 0 0 1 14.56-32.12c-10.9 11.42-22.32 25.21-27.25 40.11-1.33 4-1.32 8.18-1.59 12.42-.9 14.21 10.42 30.14 13.89 44 2.7 10.73 1.69 19 1.32 30.06-.07 2.86-.1 6.36 1.53 8.73z" fill="#1e1e1e" opacity=".15"/><path d="M147.3 145.84a4.87 4.87 0 0 0 2.64 1.87 15.71 15.71 0 0 0 3.66.78 19.18 19.18 0 0 0 3.63.27 7.31 7.31 0 0 0 3.56-.85c.8-.49.3-1.86-.65-1.56a11.28 11.28 0 0 1-3.13.71 20.09 20.09 0 0 1-3.19-.19 21 21 0 0 1-3.15-.58 6.92 6.92 0 0 1-1.34-.57 9.53 9.53 0 0 0-1.34-.78c-.54-.2-.91.46-.69.9zM135.9 74.67a2.92 2.92 0 0 0 1.62-.16l1.8-.45a76.033 76.033 0 0 1 7.32-1.38c.62-.09 1.25-.16 1.88-.24a4.74 4.74 0 0 0 1.71-.34.8.8 0 0 0-.18-1.44 4.75 4.75 0 0 0-1.8 0l-1.81.25c-1.27.19-2.54.41-3.8.67s-2.41.55-3.61.88c-.6.16-1.2.32-1.79.52a3 3 0 0 0-1.58.76.54.54 0 0 0 .24.89zM171.7 74.2a9.19 9.19 0 0 0 1.57.26 14.3 14.3 0 0 1 1.58.33 13.43 13.43 0 0 1 3 1.16 29.57 29.57 0 0 1 5.15 4.13.88.88 0 0 0 1.24-1.24 21.18 21.18 0 0 0-5.67-4.48 14 14 0 0 0-3.24-1.19 7.35 7.35 0 0 0-3.6-.21.65.65 0 0 0 0 1.24z" fill="#1e1e1e"/><path d="M121.33 77.35c-2.28.06-4.82.33-6.28 2.08-1.29 1.54-1.31 3.75-1.2 5.75a96.67 96.67 0 0 0 3.5 21.24 5.15 5.15 0 0 0 4.34 4.53 105.19 105.19 0 0 0 17.8 3.86c3 .39 6.4.57 8.88-1.21 1.89-1.35 13.37-20.72 10.22-28s-25.34-8.6-37.26-8.25z" fill="#fff"/><path d="M121.33 76.1c-2.71 0-5.73.32-7.5 2.61s-1.49 5.6-1.29 8.39a98.64 98.64 0 0 0 1.38 10.83 63.51 63.51 0 0 0 2.43 10 6.22 6.22 0 0 0 2.46 3.32 17.56 17.56 0 0 0 4.58 1.66q5.19 1.47 10.52 2.43a45.3 45.3 0 0 0 9.63 1.11c2.13-.09 4.66-.6 6.19-2.22 2-2.09 3.42-4.94 4.77-7.45a63.73 63.73 0 0 0 4.95-11.49c1-3.25 1.9-7.24.41-10.48-1.41-3.09-5-4.68-8-5.72a64.49 64.49 0 0 0-15.29-2.79c-2.7-.23-5.4-.36-8.11-.41a44.77 44.77 0 0 0-7.4.52c-1.14.16-.74 1.81.26 1.89 1.87.17 3.73.41 5.61.45 2.11 0 4.23.12 6.34.26a89.48 89.48 0 0 1 13 1.62c3.17.68 6.76 1.53 9.37 3.58 2.06 1.6 2.26 3.84 1.91 6.38a38.73 38.73 0 0 1-3.37 10.41 71.06 71.06 0 0 1-4.86 9.06c-.55.86-1.12 1.66-1.58 2.24a2 2 0 0 1-.25.25c-.05 0 .73-.41-.16.1a7.44 7.44 0 0 1-.68.38 9.4 9.4 0 0 1-4.33.67 58.11 58.11 0 0 1-9.09-1.25c-3.14-.6-6.26-1.36-9.33-2.25-1.36-.4-3.37-.69-4.29-1.89s-1.16-3.11-1.52-4.54A98.64 98.64 0 0 1 116 92.82a47.3 47.3 0 0 1-.71-9.93 4 4 0 0 1 1.85-3.35 10.48 10.48 0 0 1 4.22-.94 1.25 1.25 0 0 0-.03-2.5z" fill="#1e1e1e"/><path d="M170.65 85.26a3 3 0 0 0-1.51.69 3.27 3.27 0 0 0-.66 2 93 93 0 0 0 1.17 26.39 4.76 4.76 0 0 0 1.19 2.76 4.27 4.27 0 0 0 1.69.84 87.93 87.93 0 0 0 18.9 3.83 9.94 9.94 0 0 0 5-.45c2.34-1 3.67-3.58 4.65-6 2.58-6.43 8.41-17.62 5.94-23.3s-25.32-9.35-36.37-6.76z" fill="#fff"/><path d="M170.32 84.09c-2.92.58-3.14 3-3.35 5.54a81.68 81.68 0 0 0-.26 9.39c.1 3.06.3 6.1.67 9.14.17 1.39.36 2.78.59 4.16a18.17 18.17 0 0 0 .94 4.19c1.1 2.59 4.23 3 6.67 3.71a88.42 88.42 0 0 0 9 2 57.52 57.52 0 0 0 8.58 1 8.08 8.08 0 0 0 6.5-2.68 22 22 0 0 0 3.21-6c.86-2 1.76-4 2.61-6 1.66-4 3.34-8.19 3.56-12.54.15-3.16-.81-5.68-3.44-7.44a27.71 27.71 0 0 0-8.92-3.45A71.72 71.72 0 0 0 183 83.24a41.52 41.52 0 0 0-12.68 1 1.09 1.09 0 0 0 .58 2.1c6.66-1.25 13.8-.73 20.43.48a52.68 52.68 0 0 1 9.39 2.51c1.69.66 4.2 1.72 4.91 3.25 1.32 2.82.08 6.67-.78 9.43-1.19 3.79-2.82 7.42-4.36 11.08a24.78 24.78 0 0 1-2.56 5.25c-1.55 2.07-3.68 2.34-6.12 2.16a82.23 82.23 0 0 1-15.8-2.85 18.12 18.12 0 0 1-3.93-1.22c-1.22-.69-1.25-2.59-1.46-3.83a90 90 0 0 1-1.08-9c-.21-3-.22-6.1-.14-9.16 0-1.53.11-3 .23-4.57.06-.76.07-1.54.19-2.29s.4-.93 1.11-1.14a1.22 1.22 0 0 0-.61-2.35z" fill="#1e1e1e"/><path d="M159.56 90a2.62 2.62 0 0 0 .79-.08H160.69c.34 0 .67-.06 1-.06h1.63s.61.07.35 0a7.43 7.43 0 0 1 1 .22c.17.06.35.11.52.18-.33-.13.14.09.2.12l.32.19c.14.1.14.1 0 0l.19.16a3.89 3.89 0 0 1 .34.36c-.11-.15-.11-.15 0 0l.31.39a1.47 1.47 0 0 0 1.94.12 1.49 1.49 0 0 0 .38-1.91c-.81-1.58-2.76-2.42-4.42-2.67a19.85 19.85 0 0 0-2.77-.2 4.5 4.5 0 0 0-3.09.88 1.34 1.34 0 0 0-.27 1.45 1.37 1.37 0 0 0 1.21.81zM144 97.39a2 2 0 0 0-.22-.29l.18.24.12.28a1.48 1.48 0 0 0-.62-.81l-.32-.13a1.26 1.26 0 0 0-.72 0 1.77 1.77 0 0 0-1.29 1.26 1.83 1.83 0 0 0 .47 1.82 2 2 0 0 0 .84.48 2.28 2.28 0 0 0 1 0 2.13 2.13 0 0 0 1.34-.95 2.08 2.08 0 0 0 .3-.68 2.91 2.91 0 0 0 .07-.78 3.06 3.06 0 0 0-.43-1.44 2.45 2.45 0 0 0-1.35-1.08 2.17 2.17 0 0 0-1.8.3 3.89 3.89 0 0 0-1.07 1.07 3.24 3.24 0 0 0-.48 1.45 2.83 2.83 0 0 0 .29 1.43 2.77 2.77 0 0 0 .94 1.07 2.31 2.31 0 0 0 1.39.41 2.64 2.64 0 0 0 1.65-.67 2.3 2.3 0 0 0 .42-2.94 2.42 2.42 0 0 0-1.49-1 2.36 2.36 0 0 0-1.12 0 2.32 2.32 0 0 0-.94.53 2.45 2.45 0 0 0-.74 1.65 1.84 1.84 0 0 0 .09.74 2 2 0 0 0 .45.78 1.75 1.75 0 0 0 .77.44 1.47 1.47 0 0 0 .78 0 1.08 1.08 0 0 0 .51-.26 1.43 1.43 0 0 0 .58-1.16 1.51 1.51 0 0 0-.06-.53v-.16l.06.42a1 1 0 0 1 0-.3l-.06.41a.9.9 0 0 1 .06-.22l-.16.37a1 1 0 0 1 .1-.17l-.24.31a.62.62 0 0 1 .14-.14l-.32.24.14-.08-.37.15h.2-.41.18-.42a.94.94 0 0 1 .24.06l-.37-.15.18.1-.31-.24a1.06 1.06 0 0 1 .15.15l-.24-.32a.81.81 0 0 1 .1.18l-.19-.43a1.16 1.16 0 0 1 0 .18l-.05-.41v.18l.05-.41a1.16 1.16 0 0 1 0 .18l.15-.37a1 1 0 0 1-.13.22l.24-.31a1.21 1.21 0 0 1-.16.16l.31-.24a1.64 1.64 0 0 1-.22.14l.36-.16a.72.72 0 0 1-.25.07h.41-.23.41a.79.79 0 0 1-.22-.06l.36.16a1.09 1.09 0 0 1-.23-.14l.31.24a1.45 1.45 0 0 1-.22-.21l.24.31A2.38 2.38 0 0 1 143 98l.15.36a1.89 1.89 0 0 1-.09-.34l.05.4a1.71 1.71 0 0 1 0-.32l-.05.4a2.08 2.08 0 0 1 .11-.41l-.15.37a2.06 2.06 0 0 1 .23-.41l-.23.31a2.53 2.53 0 0 1 .36-.37l-.3.24a1.44 1.44 0 0 1 .31-.19l-.36.15h.17l-.39.06a.21.21 0 0 1 .11 0l-.4-.06h.18l-.36-.15.16.1-.3-.24.17.17-.24-.3a1.44 1.44 0 0 1 .19.31l-.15-.36a1.83 1.83 0 0 1 .12.46v-.4a1.28 1.28 0 0 1 0 .34l.06-.39a2.17 2.17 0 0 1-.07.24l.15-.35a1 1 0 0 1-.1.17l.23-.3a.68.68 0 0 1-.12.12l.3-.23-.18.1.35-.15a.66.66 0 0 1-.2.06h.39-.16.38-.15l.34.14h-.08l.29.22-.09-.09.22.29v-.08l.15.34v-.08.38-.12.38a.88.88 0 0 1 0-.15l-.15.34a2.25 2.25 0 0 1 .12-.21l-.22.28.06-.06-.27.21a1.41 1.41 0 0 0 .5-.5 1.62 1.62 0 0 0 .19-.69l-.36.85-.53.31h.05-.31a1.29 1.29 0 0 0 .57-.16 1.15 1.15 0 0 0 .41-.41 1.12 1.12 0 0 0 0-1.16zM178.5 100.19c-.16.06-.32.14-.48.21l.61-.16a1.18 1.18 0 0 0-.42.05 1.41 1.41 0 0 0-.63.38 2.51 2.51 0 0 0-.38.48 2.16 2.16 0 0 0-.32 1.16 2.22 2.22 0 0 0 .36 1.2 2.43 2.43 0 0 0 .92.85 2.34 2.34 0 0 0 .59.23 2.22 2.22 0 0 0 .85 0 1 1 0 0 0 .58-.18 1.5 1.5 0 0 0 .53-.53.83.83 0 0 0 .09-.16 5.79 5.79 0 0 0 .29-.68 3.86 3.86 0 0 0 .17-1.07 1.37 1.37 0 0 0 0-.35 4 4 0 0 0-.12-.76 2.13 2.13 0 0 0-.51-.9 2 2 0 0 0-1.31-.55 1.79 1.79 0 0 0-.69.11 3.07 3.07 0 0 0-.64.29 3.14 3.14 0 0 0-.95 1 2.79 2.79 0 0 0-.37 1.32 2.52 2.52 0 0 0 .37 1.33 2.47 2.47 0 0 0 .95.92 2.53 2.53 0 0 0 1 .29h.14l.46-.06h.11a2.27 2.27 0 0 0 .6-.26 2.66 2.66 0 0 0 .77-.76 2.23 2.23 0 0 0 .3-1.78 2.14 2.14 0 0 0-1-1.32 1.55 1.55 0 0 0-.29-.14c-.1 0-.2-.09-.3-.12a2.32 2.32 0 0 0-1.08 0 2.07 2.07 0 0 0-1.29 1 1.81 1.81 0 0 0-.16 1.19l.16.37a1.18 1.18 0 0 0 .4.43.7.7 0 0 0 .34.2 1.23 1.23 0 0 0 .6.14 1.61 1.61 0 0 0 1.09-.46l-.31.24.09-.06-.37.16h.14l-.42.06h.24l-.42-.06h.17l-.38-.16a1.29 1.29 0 0 1 .16.09l-.33-.25a.57.57 0 0 1 .11.11l-.25-.33a.75.75 0 0 1 .07.12l-.16-.39a.83.83 0 0 1 0 .15l-.06-.43v.14l.06-.43a1.05 1.05 0 0 1 0 .19l.16-.39a.5.5 0 0 1-.11.17l.26-.32a1 1 0 0 1-.15.14l.33-.25a1 1 0 0 1-.17.1l.38-.17a.6.6 0 0 1-.19.06l.43-.06H179l.43.06a.6.6 0 0 1-.19-.06l.38.17-.17-.1.33.25-.19-.19.25.33a1.71 1.71 0 0 1-.13-.23l.16.38a.79.79 0 0 1-.06-.22l.06.42a.57.57 0 0 1 0-.26l-.06.42a1.11 1.11 0 0 1 .07-.26l-.16.38a1.1 1.1 0 0 1 .15-.26l-.24.31a1.25 1.25 0 0 1 .23-.23l-.32.24a1.22 1.22 0 0 1 .29-.17l-.37.16a.64.64 0 0 1 .18-.06l-.41.06h.12-.41.09l-.37-.16h.05l-.31-.24a.46.46 0 0 1 .07.07l-.25-.32a.75.75 0 0 1 .07.12l-.16-.37a1.91 1.91 0 0 1 .12.47l-.06-.41a2.51 2.51 0 0 1 0 .67v-.4a2.61 2.61 0 0 1-.16.61l.15-.36-.08.16.89-.68h.4-.28.39a1 1 0 0 1-.25-.07l.35.15a1.28 1.28 0 0 1-.25-.15l.29.23a1.21 1.21 0 0 1-.16-.16l.22.29a1.71 1.71 0 0 1-.13-.23l.15.34a.79.79 0 0 1-.06-.22v.37a1.45 1.45 0 0 1 0-.36v.36a.9.9 0 0 1 .07-.27l-.13.32a.51.51 0 0 1 .09-.16 1.72 1.72 0 0 0 .19-.73l-.17.6-.19.24.1-.09-.23.18a1.22 1.22 0 0 0 .54-.7 1.24 1.24 0 0 0-.06-.76 1.08 1.08 0 0 0-.48-.55 1.13 1.13 0 0 0-.9-.12zM139.23 165.34a16.47 16.47 0 0 0 7.58 3.69 17.16 17.16 0 0 0 8.54-.3.92.92 0 0 0-.49-1.77 18.18 18.18 0 0 1-7.7.35 19 19 0 0 1-7.15-3c-.6-.41-1.34.54-.78 1zM153.67 114.22a6.36 6.36 0 0 0 4.69 7.51 6.07 6.07 0 0 0 4.85-1.08 12.51 12.51 0 0 0 1.92-1.64 4.58 4.58 0 0 0 1.46-2.22.68.68 0 0 0-1-.58c-.57.37-.88 1.11-1.33 1.63a9.57 9.57 0 0 1-1.58 1.47 4.85 4.85 0 0 1-3.84 1.09 4.77 4.77 0 0 1-3.11-2.13 6 6 0 0 1-.75-1.87 13.72 13.72 0 0 1-.14-2 .59.59 0 0 0-1.15-.16z" fill="#1e1e1e"/><path d="M155.85 126.92c-5-.9-17.55-8.38-21.43-5.91s3 12.42 6.27 14.94c5.89 4.51 20.59 6.35 26.57 4.4s14.63-9.6 12.25-12.4-18.64-.12-23.66-1.03z" fill="#5a2d22"/><path d="M144.2 137.28c3.23-1.43 7.31-2.55 10.8-2.05a11.91 11.91 0 0 1 8.66 5.46l-10.29-.19z" fill="#f67566"/><path d="M144.57 137.39a4.51 4.51 0 0 0 2.23-.47 27.83 27.83 0 0 1 2.83-.7 15.66 15.66 0 0 1 5.71-.08 12 12 0 0 1 4.32 1.68 10 10 0 0 1 1.93 1.56c.56.58.95 1.29 1.5 1.88a.81.81 0 0 0 1.34-.78 8.85 8.85 0 0 0-3.43-3.82 13.54 13.54 0 0 0-5.07-2.13 16.68 16.68 0 0 0-6.06 0 18.63 18.63 0 0 0-3.14.84c-.84.31-1.94.57-2.43 1.37a.46.46 0 0 0 .27.66z" fill="#1e1e1e"/><path d="M156 126.27c-3.85-.82-7.49-2.81-11.13-4.25a37.59 37.59 0 0 0-6-1.94 7.29 7.29 0 0 0-4.41.08c-3.34 1.49-1.63 5.92-.42 8.28 1.61 3.16 3.85 6.58 6.84 8.62 3.65 2.49 8.34 3.63 12.64 4.33s8.73 1.12 12.94.19 8.21-3.83 11.19-6.83c1.7-1.72 5.11-5.83 2.05-7.94a9 9 0 0 0-4.43-1.09 54.44 54.44 0 0 0-6.76.07c-4.22.23-8.44.9-12.68.63a.5.5 0 0 0-.13 1c3 .85 6.26.27 9.35.32 3.63 0 7.28-.35 10.91 0 .74.08 2.28.17 2.77.8.65.86-.52 2.39-1 3a24.27 24.27 0 0 1-9.68 7.38c-3.31 1.42-7.14 1.3-10.66 1.07a40.55 40.55 0 0 1-12.5-2.67 17.11 17.11 0 0 1-7.66-6.39 20.43 20.43 0 0 1-2.76-5.12c-.38-1.09-.9-2.83-.09-3.87s2.9-.79 4.11-.55a35.07 35.07 0 0 1 6 1.93c3.62 1.42 7.29 3.53 11.15 4.2.88.2 1.26-1.07.36-1.25z" fill="#1e1e1e"/><path d="M237.41 80.91a11.83 11.83 0 0 1-6.7 11.43 16.82 16.82 0 0 0 13.45-5.93 3.15 3.15 0 0 1 1.25-1.06 2.52 2.52 0 0 1 1.36 0Q255 87 263.3 87.73c7.56.71 15.58.81 22.28-3.23A22.87 22.87 0 0 0 295 73a23.43 23.43 0 0 0 .34-15.46 24.4 24.4 0 0 0-12.29-13.61c-5.39-2.74-11.37-3.74-17.3-4.31a51.31 51.31 0 0 0-11.88 0 34.6 34.6 0 0 0-21.5 12.31 22.41 22.41 0 0 0-4.72 8.6 17.78 17.78 0 0 0 9.64 20.33" fill="#fff"/><path d="M236.52 80.91a11.18 11.18 0 0 1-6.3 10.58c-.93.45-.4 1.78.49 1.82a17.3 17.3 0 0 0 9-2.07 18.51 18.51 0 0 0 3.44-2.41 21.1 21.1 0 0 0 1.7-1.71c.21-.23.46-.64.75-.77.59-.26 1.72.15 2.33.26a127.8 127.8 0 0 0 22.14 2.52c6.54.05 13.17-1.25 18.41-5.4a24.36 24.36 0 0 0 8.93-16.26 23.39 23.39 0 0 0-5.68-18.24c-4.26-4.84-10.19-7.73-16.39-9.21a73.13 73.13 0 0 0-10.52-1.56 49.44 49.44 0 0 0-11.21.11 34.85 34.85 0 0 0-16.76 7.49c-5.56 4.47-10.6 10.87-10.74 18.3a19.05 19.05 0 0 0 10.68 17.38c1.2.58 2.26-1.22 1.05-1.8a17 17 0 0 1-9.62-14.28c-.36-6.49 3.43-12 8-16.27a33.45 33.45 0 0 1 15.32-8.27c6.52-1.5 13.65-.79 20.18.36 6.07 1.06 12.06 3.17 16.66 7.41a21.48 21.48 0 0 1 7.08 16 22.31 22.31 0 0 1-7.27 16.43c-4.72 4.28-11 5.72-17.24 5.81-7.66.1-15.44-1.09-22.95-2.49-1.77-.33-3-.55-4.33.85a20.32 20.32 0 0 1-3.61 3.26 15.62 15.62 0 0 1-9.35 2.66l.5 1.82c4.74-2.31 7.16-7.11 7.08-12.27a.89.89 0 0 0-1.77 0z" fill="#1e1e1e"/><path d="M264.58 63a6.25 6.25 0 0 0-.47 2.55c-.08.85-.13 1.72-.15 2.58s0 1.7 0 2.56a6.08 6.08 0 0 0 .34 2.59.82.82 0 0 0 1.48-.2 3.34 3.34 0 0 0 0-1.3c0-.43-.06-.85-.07-1.27v-2.38c0-.79 0-1.6.07-2.4a7.66 7.66 0 0 0 0-2.57.68.68 0 0 0-1.23-.16zM266 57.64a.62.62 0 0 0-.24-.24l.2.2v-.06a.57.57 0 0 0-.16-.15h-.53l-.15.06-.16.12a.8.8 0 0 0-.2.36v.18a.83.83 0 0 0 0 .22l.07.17a.32.32 0 0 0 .06.08l.06.08.16.12h.08a.41.41 0 0 0 .19 0h.1a.76.76 0 0 0 .21 0l.18-.07.15-.12.12-.16a1.13 1.13 0 0 0 .09-.2.25.25 0 0 0 0-.07 2 2 0 0 0 0-.27 1.47 1.47 0 0 0-.05-.26.86.86 0 0 0-.23-.39l-.1-.08-.09-.07h-.11l-.12-.05h-.74a1.33 1.33 0 0 0-.19.14 1.83 1.83 0 0 0-.13.16 1.54 1.54 0 0 0-.08.19 1 1 0 0 0 0 .49l.08.19a.6.6 0 0 0 .2.22.42.42 0 0 0 .17.1.6.6 0 0 0 .3.07h.27l.2-.09h.05l.09-.07.09-.07.13-.17s.06-.13.08-.19a1.66 1.66 0 0 1 0-.22v-.2l-.08-.19a.59.59 0 0 0-.14-.18.94.94 0 0 0-.59-.24.53.53 0 0 0-.13 0L265 57a.84.84 0 0 0-.2.08s-.15.12-.16.13-.1.13-.12.17a1.42 1.42 0 0 0-.08.18.55.55 0 0 0 0 .12v.1a.65.65 0 0 0 .06.3c.06.13 0 .06 0 .09a.43.43 0 0 0 .13.17l.15.12.18.08h.19a.46.46 0 0 0 .28-.06.51.51 0 0 0 .16-.09.55.55 0 0 0 .19-.21l-.12.15-.15.12-.18.08a.82.82 0 0 0 .35-.2l-.16.12-.19.08.21-.09-.19.08h-.42l-.19-.08-.16-.13-.12-.16-.07-.6.08-.19a.09.09 0 0 1 0 .06l.13-.16h-.05l.16-.13h-.06l.19-.08h-.07.21-.05l.75.57V58.03a.09.09 0 0 1 0-.05l-.08.18-.12.16h.05l-.16.12h.06l-.19.08h.06-.21.05-.2l-.18-.07h.05l-.16-.12-.12-.16v.05l-.07-.18a.13.13 0 0 1 0 .06v-.2.1-.2a.15.15 0 0 1 0 .07l.07-.18.11-.15.15-.12-.18.14.52-.21h.19l.17.07.15.11.11.14-.12-.15.11.14.07.16v.34l-.07.15-.1.12-.12.09-.14.06a.53.53 0 0 0 .26-.15l-.39.17h-.15l-.13-.06h.13a.38.38 0 0 0 .21 0 .23.23 0 0 0 .14 0 .34.34 0 0 0 .17-.11l.09-.11.05-.13a.3.3 0 0 0 0-.21.36.36 0 0 0-.06-.2zM254.18 54.64a18.46 18.46 0 0 0-.25 4.7v4.54c0 3-.3 6.1.26 9 .21 1.07 1.84.62 1.64-.45a11.07 11.07 0 0 1 .07-4.86c.3-1.2.94-3.35 2.4-3.59 1.62-.26 2.08 2.06 2.18 3.19a42.37 42.37 0 0 1 .17 5.4c-.06 1.2 1.93 1.2 1.86 0-.14-2.36.08-5-.59-7.24-.48-1.66-2-3.19-3.83-2.89s-2.84 2.2-3.41 3.82a13.06 13.06 0 0 0-.49 6.62l1.64-.45a23.76 23.76 0 0 1-.18-4.38v-4.52-4.54a17.1 17.1 0 0 0-.25-4.35.61.61 0 0 0-1.17 0zM142.11 296.34a172.25 172.25 0 0 1-22 1.15.8.8 0 0 0-.78.78c-.22 3.85-.67 8.06-2.18 11.65-2.14 5.1-6.79 5.39-10.88 8.06a.79.79 0 0 0-.35.87 78.25 78.25 0 0 1 1.86 18.36.79.79 0 0 0 1.57 0 62.06 62.06 0 0 0-.57-11.64c-.15-1-1.85-5.85-1.6-6.33s2-.88 2.48-1.07c5.82-2.61 8.69-5.44 10.09-11.71.52-2.33 1.07-7.42 1.07-7.46.77-.09 15.26 0 21.52-1.17.81-.15.66-1.61-.23-1.49z" fill="#1e1e1e"/></svg>