<?xml version="1.0" encoding="UTF-8" standalone="no"?>
<!-- Created with Inkscape (http://www.inkscape.org/) -->

<svg
   xmlns:dc="http://purl.org/dc/elements/1.1/"
   xmlns:cc="http://creativecommons.org/ns#"
   xmlns:rdf="http://www.w3.org/1999/02/22-rdf-syntax-ns#"
   xmlns:svg="http://www.w3.org/2000/svg"
   xmlns="http://www.w3.org/2000/svg"
   xmlns:sodipodi="http://sodipodi.sourceforge.net/DTD/sodipodi-0.dtd"
   xmlns:inkscape="http://www.inkscape.org/namespaces/inkscape"
   id="svg2"
   version="1.1"
   inkscape:version="0.48.5 r10040"
   width="251.2025"
   height="265.44125"
   xml:space="preserve"
   sodipodi:docname="20th Season Brochure - English.pdf"><metadata
     id="metadata8"><rdf:RDF><cc:Work
         rdf:about=""><dc:format>image/svg+xml</dc:format><dc:type
           rdf:resource="http://purl.org/dc/dcmitype/StillImage" /><dc:title></dc:title></cc:Work></rdf:RDF></metadata><defs
     id="defs6"><clipPath
       clipPathUnits="userSpaceOnUse"
       id="clipPath16"><path
         d="M 0,0 612,0 612,792 0,792 0,0 z"
         id="path18"
         inkscape:connector-curvature="0" /></clipPath><clipPath
       clipPathUnits="userSpaceOnUse"
       id="clipPath30"><path
         d="M 0,792 612,792 612,0 0,0 0,792 z"
         id="path32"
         inkscape:connector-curvature="0" /></clipPath><clipPath
       clipPathUnits="userSpaceOnUse"
       id="clipPath38"><path
         d="m -9.002,800.993 630.043,0 0,-629.35 -630.043,0 0,629.35 z"
         id="path40"
         inkscape:connector-curvature="0" /></clipPath><linearGradient
       x1="0"
       y1="0"
       x2="1"
       y2="0"
       gradientUnits="userSpaceOnUse"
       gradientTransform="matrix(630.04303,0,0,-630.04303,-9.0019999,486.31766)"
       spreadMethod="pad"
       id="linearGradient46"><stop
         style="stop-opacity:1;stop-color:#1f2a53"
         offset="0"
         id="stop48" /><stop
         style="stop-opacity:1;stop-color:#4599d9"
         offset="1"
         id="stop50" /></linearGradient><linearGradient
       x1="0"
       y1="0"
       x2="1"
       y2="0"
       gradientUnits="userSpaceOnUse"
       gradientTransform="matrix(-570.3399,0,0,570.3399,561.33789,515.823)"
       spreadMethod="pad"
       id="linearGradient78"><stop
         style="stop-opacity:1;stop-color:#4599d9"
         offset="0"
         id="stop80" /><stop
         style="stop-opacity:1;stop-color:#1f2a53"
         offset="1"
         id="stop82" /></linearGradient><clipPath
       clipPathUnits="userSpaceOnUse"
       id="clipPath90"><path
         d="M 0,792 612,792 612,0 0,0 0,792 z"
         id="path92"
         inkscape:connector-curvature="0" /></clipPath><clipPath
       clipPathUnits="userSpaceOnUse"
       id="clipPath98"><path
         d="m 71.2891,540.167 549.6699,0 0,-549.1572 -549.6699,0 0,549.1572 z"
         id="path100"
         inkscape:connector-curvature="0" /></clipPath><linearGradient
       x1="0"
       y1="0"
       x2="1"
       y2="0"
       gradientUnits="userSpaceOnUse"
       gradientTransform="matrix(-549.66992,0,0,549.66992,620.95898,265.58865)"
       spreadMethod="pad"
       id="linearGradient106"><stop
         style="stop-opacity:1;stop-color:#4599d9"
         offset="0"
         id="stop108" /><stop
         style="stop-opacity:1;stop-color:#1f2a53"
         offset="1"
         id="stop110" /></linearGradient><clipPath
       clipPathUnits="userSpaceOnUse"
       id="clipPath132"><path
         d="M 0,792 612,792 612,0 0,0 0,792 z"
         id="path134"
         inkscape:connector-curvature="0" /></clipPath><linearGradient
       x1="0"
       y1="0"
       x2="1"
       y2="0"
       gradientUnits="userSpaceOnUse"
       gradientTransform="matrix(381.44141,0,0,-381.44141,239.51759,181.52049)"
       spreadMethod="pad"
       id="linearGradient200"><stop
         style="stop-opacity:1;stop-color:#e42226"
         offset="0"
         id="stop202" /><stop
         style="stop-opacity:1;stop-color:#751c2c"
         offset="1"
         id="stop204" /></linearGradient><linearGradient
       x1="0"
       y1="0"
       x2="1"
       y2="0"
       gradientUnits="userSpaceOnUse"
       gradientTransform="matrix(-342.08401,0,0,342.08401,620.95898,161.8623)"
       spreadMethod="pad"
       id="linearGradient220"><stop
         style="stop-opacity:1;stop-color:#e42226"
         offset="0"
         id="stop222" /><stop
         style="stop-opacity:1;stop-color:#751c2c"
         offset="1"
         id="stop224" /></linearGradient><clipPath
       clipPathUnits="userSpaceOnUse"
       id="clipPath232"><path
         d="M 0,792 612,792 612,0 0,0 0,792 z"
         id="path234"
         inkscape:connector-curvature="0" /></clipPath><clipPath
       clipPathUnits="userSpaceOnUse"
       id="clipPath240"><path
         d="m 405.071,206.941 215.888,0 0,-215.9312 -215.888,0 0,215.9312 z"
         id="path242"
         inkscape:connector-curvature="0" /></clipPath><linearGradient
       x1="0"
       y1="0"
       x2="1"
       y2="0"
       gradientUnits="userSpaceOnUse"
       gradientTransform="matrix(215.88771,0,0,-215.88771,405.07129,98.975601)"
       spreadMethod="pad"
       id="linearGradient248"><stop
         style="stop-opacity:1;stop-color:#751c2c"
         offset="0"
         id="stop250" /><stop
         style="stop-opacity:1;stop-color:#e42226"
         offset="1"
         id="stop252" /></linearGradient><linearGradient
       x1="0"
       y1="0"
       x2="1"
       y2="0"
       gradientUnits="userSpaceOnUse"
       gradientTransform="matrix(571.32434,0,0,-571.32434,-9,602.06201)"
       spreadMethod="pad"
       id="linearGradient280"><stop
         style="stop-opacity:1;stop-color:#1f2a53"
         offset="0"
         id="stop282" /><stop
         style="stop-opacity:1;stop-color:#4599d9"
         offset="1"
         id="stop284" /></linearGradient><clipPath
       clipPathUnits="userSpaceOnUse"
       id="clipPath292"><path
         d="M 0,792 612,792 612,0 0,0 0,792 z"
         id="path294"
         inkscape:connector-curvature="0" /></clipPath><linearGradient
       x1="0"
       y1="0"
       x2="1"
       y2="0"
       gradientUnits="userSpaceOnUse"
       gradientTransform="matrix(175.21968,0,0,-175.21968,218.875,558.50537)"
       spreadMethod="pad"
       id="linearGradient312"><stop
         style="stop-opacity:1;stop-color:#e42226"
         offset="0"
         id="stop314" /><stop
         style="stop-opacity:1;stop-color:#751c2c"
         offset="1"
         id="stop316" /></linearGradient><clipPath
       clipPathUnits="userSpaceOnUse"
       id="clipPath324"><path
         d="M 0,792 612,792 612,0 0,0 0,792 z"
         id="path326"
         inkscape:connector-curvature="0" /></clipPath><radialGradient
       fx="0"
       fy="0"
       cx="0"
       cy="0"
       r="1"
       gradientUnits="userSpaceOnUse"
       gradientTransform="matrix(94.837013,0,0,-94.837013,306.48825,538.53174)"
       spreadMethod="pad"
       id="radialGradient372"><stop
         style="stop-opacity:1;stop-color:#4599d9"
         offset="0"
         id="stop374" /><stop
         style="stop-opacity:1;stop-color:#1f2a53"
         offset="1"
         id="stop376" /></radialGradient></defs><sodipodi:namedview
     pagecolor="#ffffff"
     bordercolor="#666666"
     borderopacity="1"
     objecttolerance="10"
     gridtolerance="10"
     guidetolerance="10"
     inkscape:pageopacity="0"
     inkscape:pageshadow="2"
     inkscape:window-width="1920"
     inkscape:window-height="1017"
     id="namedview4"
     showgrid="false"
     fit-margin-top="0"
     fit-margin-left="0"
     fit-margin-right="0"
     fit-margin-bottom="0"
     inkscape:zoom="2.6970053"
     inkscape:cx="156.02938"
     inkscape:cy="134.49084"
     inkscape:window-x="-8"
     inkscape:window-y="-8"
     inkscape:window-maximized="1"
     inkscape:current-layer="g10" /><g
     id="g10"
     inkscape:groupmode="layer"
     inkscape:label="20th Season Brochure - English"
     transform="matrix(1.25,0,0,-1.25,-256.847,805.50125)"><g
       id="g288"><g
         id="g290"
         clip-path="url(#clipPath292)"><g
           id="g296"
           transform="translate(406.4346,632.062)"><path
             d="m 0,0 -0.003,12.339 -199.889,0 0,-12.339 c 0,0 -0.006,-69.201 -0.006,-69.613 0,-14.955 2.432,-29.65 7.23,-43.676 3.993,-11.686 9.564,-22.726 16.589,-32.893 l -24.878,-24.876 17.45,-17.45 23.312,23.309 c 5.576,-5.554 11.633,-10.624 18.128,-15.153 11.832,-8.25 24.819,-14.513 38.601,-18.615 l 3.52,-1.047 3.518,1.047 c 13.784,4.102 26.773,10.365 38.603,18.612 11.664,8.132 21.93,17.999 30.519,29.332 8.688,11.464 15.446,24.154 20.082,37.713 4.796,14.021 7.229,28.714 7.229,43.673 C 0.005,-69.225 0,0 0,0"
             style="fill:#ffffff;fill-opacity:1;fill-rule:nonzero;stroke:none"
             id="path298"
             inkscape:connector-curvature="0" /></g></g></g><g
       id="g300"><g
         id="g302"><g
           id="g308"><g
             id="g310"><path
               d="m 218.883,632.266 c 0,0 -0.008,-69.302 -0.008,-69.715 l 0,0 c 0,-29.536 10.441,-56.635 27.832,-77.806 l 0,0 147.388,147.386 0,0.135 -175.212,0 z"
               style="fill:url(#linearGradient312);stroke:none"
               id="path318"
               inkscape:connector-curvature="0" /></g></g></g></g><g
       id="g320"><g
         id="g322"
         clip-path="url(#clipPath324)"><g
           id="g328"
           transform="translate(306.4883,444.9722)"><path
             d="m 0,0 c 50.667,15.08 87.611,62.016 87.611,117.579 0,0.401 -0.005,66.23 -0.005,69.58 L -59.781,39.772 C -44.457,21.117 -23.734,7.064 0,0"
             style="fill:#ffffff;fill-opacity:1;fill-rule:nonzero;stroke:none"
             id="path330"
             inkscape:connector-curvature="0" /></g><g
           id="g332"
           transform="translate(252.1387,505.5454)"><path
             d="M 0,0 -1.545,3.466 -0.56,4.453 2.977,0.917 2.33,0.274 -0.431,3.038 -0.447,3.019 1.26,-0.8 0.78,-1.278 -3.041,0.428 -3.058,0.411 -0.293,-2.353 -0.937,-2.995 -4.473,0.541 -3.477,1.536 0,0 z m -4.635,-0.741 -1.082,-1.078 2.977,-2.98 -0.684,-0.683 -2.978,2.975 -1.082,-1.081 -0.557,0.56 2.847,2.847 0.559,-0.56 z"
             style="fill:#1f2a53;fill-opacity:1;fill-rule:nonzero;stroke:none"
             id="path334"
             inkscape:connector-curvature="0" /></g><g
           id="g336"
           transform="translate(285.1934,562.646)"><path
             d="m 0,0 2.233,-6.879 -5.85,4.252 -5.852,-4.252 2.235,6.879 -5.854,4.252 7.236,0 2.235,6.885 2.233,-6.885 7.234,0 L 0,0 z"
             style="fill:#ffffff;fill-opacity:1;fill-rule:nonzero;stroke:none"
             id="path338"
             inkscape:connector-curvature="0" /></g><g
           id="g340"
           transform="translate(251.5117,562.646)"><path
             d="m 0,0 5.854,4.252 -7.235,0 -2.239,6.885 -2.234,-6.885 -7.234,0 L -7.237,0 -9.471,-6.879 -3.62,-2.627 2.233,-6.879 0,0 z"
             style="fill:#ffffff;fill-opacity:1;fill-rule:nonzero;stroke:none"
             id="path342"
             inkscape:connector-curvature="0" /></g><g
           id="g344"
           transform="translate(266.9727,544.4927)"><path
             d="M 0,0 -2.239,6.882 -4.473,0 l -7.234,0 5.852,-4.251 -2.235,-6.883 5.851,4.252 5.854,-4.252 L 1.378,-4.251 7.231,0 0,0 z"
             style="fill:#ffffff;fill-opacity:1;fill-rule:nonzero;stroke:none"
             id="path346"
             inkscape:connector-curvature="0" /></g><g
           id="g348"
           transform="translate(245.0762,589.5913)"><path
             d="m 0,0 -6.637,15.111 -0.209,0 0,-20.171 c 0,-0.313 -0.211,-0.528 -0.525,-0.528 l -5.95,0 c -0.318,0 -0.531,0.215 -0.531,0.528 l 0,34.76 c 0,0.318 0.213,0.527 0.531,0.527 l 6.264,0 c 0.42,0 0.688,-0.156 0.84,-0.527 l 9.06,-20.434 0.216,0 8.896,20.434 c 0.156,0.371 0.42,0.527 0.846,0.527 l 6.16,0 c 0.314,0 0.524,-0.209 0.524,-0.527 l 0,-34.76 c 0,-0.313 -0.21,-0.528 -0.524,-0.528 l -5.951,0 c -0.318,0 -0.528,0.215 -0.528,0.528 l 0,20.171 -0.21,0 L 5.637,0 C 5.426,-0.477 5.108,-0.689 4.633,-0.689 l -3.631,0 C 0.527,-0.689 0.213,-0.477 0,0"
             style="fill:#ffffff;fill-opacity:1;fill-rule:nonzero;stroke:none"
             id="path350"
             inkscape:connector-curvature="0" /></g><g
           id="g352"
           transform="translate(269.9092,584.0034)"><path
             d="m 0,0 23.33,0 c 0.317,0 0.528,0.215 0.528,0.527 l 0,5.848 C 23.858,6.69 23.647,6.9 23.33,6.9 L 7.532,6.9 C 7.323,6.9 7.215,7.006 7.215,7.219 l 0,28.069 c 0,0.317 -0.21,0.526 -0.528,0.526 l -6.687,0 c -0.315,0 -0.525,-0.209 -0.525,-0.526 l 0,-34.761 C -0.525,0.215 -0.315,0 0,0"
             style="fill:#ffffff;fill-opacity:1;fill-rule:nonzero;stroke:none"
             id="path354"
             inkscape:connector-curvature="0" /></g><g
           id="g356"
           transform="translate(313.1982,605.5444)"><path
             d="m 0,0 -1.895,0.264 c -4.107,0.578 -5.582,1.894 -5.582,3.951 0,2.266 1.631,3.896 4.791,3.896 2.95,0 5.582,-0.947 8.321,-2.74 C 5.898,5.216 6.162,5.27 6.373,5.533 l 3.213,4.791 c 0.262,0.371 0.21,0.578 -0.104,0.791 -3.004,2.315 -7.429,3.739 -12.168,3.739 -7.743,0 -12.692,-4.373 -12.692,-10.957 0,-6.319 4.053,-9.74 11.324,-10.743 l 1.896,-0.259 c 4.265,-0.58 5.527,-1.901 5.527,-4.004 0,-2.528 -2.104,-4.269 -5.844,-4.269 -3.791,0 -7.004,1.792 -9.375,3.687 -0.26,0.211 -0.579,0.211 -0.788,-0.051 l -4.005,-4.583 c -0.261,-0.317 -0.159,-0.684 0.054,-0.894 2.791,-2.688 8.213,-4.898 13.801,-4.898 9.266,0 14.059,4.791 14.059,11.268 C 11.271,-4.371 7.374,-1.002 0,0"
             style="fill:#ffffff;fill-opacity:1;fill-rule:nonzero;stroke:none"
             id="path358"
             inkscape:connector-curvature="0" /></g></g></g><g
       id="g360"><g
         id="g362"><g
           id="g368"><g
             id="g370"><path
               d="m 214.768,636.38 0,-4.111 c 0,0 -0.006,-69.305 -0.006,-69.718 l 0,0 c 0,-14.046 2.283,-27.848 6.787,-41.023 l 0,0 c 4.353,-12.735 10.695,-24.658 18.855,-35.431 l 0,0 c 0.259,-0.341 0.522,-0.678 0.783,-1.017 l 0,0 -24.076,-24.076 5.816,-5.815 23.522,23.521 c 6.701,-7.601 14.279,-14.37 22.623,-20.189 l 0,0 c 11.11,-7.758 23.306,-13.64 36.243,-17.489 l 0,0 1.174,-0.349 1.171,0.349 c 12.939,3.849 25.136,9.731 36.245,17.489 l 0,0 c 10.956,7.643 20.599,16.922 28.667,27.576 l 0,0 c 8.16,10.773 14.501,22.696 18.856,35.431 l 0,0 c 4.503,13.175 6.787,26.977 6.787,41.023 l 0,0 c 0,0.413 -0.008,69.718 -0.008,69.718 l 0,0 0,4.111 -183.439,0 z m 32.193,-145.316 c -7.627,10.076 -13.559,21.22 -17.628,33.127 l 0,0 c -4.21,12.312 -6.346,25.218 -6.346,38.36 l 0,0 c 0,0.353 0.005,50.695 0.008,65.603 l 0,0 161.265,0 -137.207,-137.209 c -0.031,0.04 -0.061,0.078 -0.092,0.119 m 26.815,-25.799 c -7.939,5.543 -15.143,12.008 -21.498,19.275 l 0,0 137.705,137.701 c 10e-4,-19.216 0.005,-59.375 0.005,-59.69 l 0,0 c 0,-13.142 -2.135,-26.048 -6.343,-38.36 l 0,0 c -4.07,-11.907 -10.001,-23.051 -17.629,-33.127 l 0,0 c -7.545,-9.969 -16.569,-18.647 -26.818,-25.799 l 0,0 c -10.052,-7.014 -21.053,-12.39 -32.709,-15.994 l 0,0 c -11.659,3.604 -22.659,8.98 -32.713,15.994"
               style="fill:url(#radialGradient372);stroke:none"
               id="path378"
               inkscape:connector-curvature="0" /></g></g></g></g></g></svg>