<svg xmlns="http://www.w3.org/2000/svg" width="1677.89" height="1494.94" viewBox="0 0 1677.89 1494.94"><path d="M1024.94-2.24s-21.61 178.89 26.79 210.87L883.38 390.4 632.59 245.79s40.61-44.07 52.71-63.09-18.54-202.3-18.54-202.3" fill="#26cbff"/><path d="M1051.73 208.63c-21.32-21.1-29.56-89.76-29.56-89.76-58 92.15-187.78 116.4-286.38 120.55-71.12 3-126-4.48-126-4.48l309.89 185.53z" fill="#fff" opacity=".5"/><path d="M1161.52 616.84a260.48 260.48 0 0124.87-22.09 54.42 54.42 0 00-78.51 37.06c22.24-19.2 53.64-14.97 53.64-14.97z" fill="#222229"/><path d="M1098.41 643a62.79 62.79 0 0195.31-53.7c15.39-10.86 29-17.13 40.26-20.65a104.34 104.34 0 00-169.1 114.85l35.29-25.76a62.87 62.87 0 01-1.76-14.74zM1101.17 661.47l-35.58 23.69a100.69 100.69 0 005.37 10.56l34.12-24.56a62.91 62.91 0 01-3.91-9.69z" fill="#222229"/><path d="M1120.35 665.9c-.2.14-2.65 1.69-6.46 4.09a54.44 54.44 0 00100.94-36.37 258.17 258.17 0 01-30.9 16s-7.72 32.06-35 45.4c0 0 5.92-20.24.81-28.74l-16.94 3.11-8.25-12.07 9-14.65c-5.24-6.78-21.63-9-26-9.55a53.39 53.39 0 00-.1 19.3c7-5.09 11.58-8.45 11.82-8.61a2.32 2.32 0 112.65 3.81c-.25.18-5.6 3.75-13.57 9a54.08 54.08 0 003.48 9.6l5.77-4.14a2.32 2.32 0 112.66 3.81z" fill="#222229"/><path d="M1222.33 628.81a62.77 62.77 0 01-115.48 45.62c-10.39 6.54-24.71 15.55-35.35 22.23a104.4 104.4 0 007.19 10.51l28.36-20.38a2.33 2.33 0 012.66 3.82c-.48.33-14.43 9.15-29.39 18.61q3.35 4.08 7.12 7.87a104.34 104.34 0 00168.12-118.25c-7.21 9.21-17.77 19.56-33.23 29.97z" fill="#222229"/><path d="M1626.29 933.58c-12.39-189-92.26-537.88-148.86-570.51S1243 271.54 1243 271.54s12.71-11.14 4.62-20.69-43.89-50.15-57.75-66.86-47.36-5.57-47.36-5.57-16.17-50.94-55.44-49.35c-23.6 1-47.62 9.39-63 16 4.23 29 12.52 53.55 27.74 63.6l-83 73-120.58 67.51L735.6 290l-103-44.22s40.61-44.07 52.71-63.09c3.24-5.08 3.88-19.15 3.08-37-25.61-3.89-67.08-9.72-79.56-8.64a55.42 55.42 0 00-30 11.94s-78.55-2.39-84.32 16.71-19.64 70.84-34.65 79.59-34.66 20.7-31.19 38.21c0 0-160.56 57.3-206.76 75.61s-95.79 291.81-129.48 497.8S0 1494.94 0 1494.94h1677.89s-39.21-372.41-51.6-561.36zm-465.1-177.64a112.39 112.39 0 01-87.93-42.26l-29.73 18.78L1072 712a110.53 110.53 0 01-7.46-11l-7.53 4.73 7.24-5.21a113.07 113.07 0 01-5.61-10.76l-26.53 17.65 26-19a112.6 112.6 0 01185.21-122.26c17.7-3.68 27.81-.35 27.81-.35s-.54 10.4-10.06 25.29a112.61 112.61 0 01-99.8 164.74z" fill="#222229"/><path d="M632.59 245.79s40.61-44.07 52.71-63.09-18.54-202.3-18.54-202.3M1024.94-2.24s-21.61 178.89 26.79 210.87" fill="none" stroke="#222229" stroke-miterlimit="10" stroke-width="8"/><path d="M756.82 373.35c.89.55-1.79-1.69-1.15-.89a4.59 4.59 0 00.37.39c.93.95-1.3-1.84-.77-1 .14.21.3.41.44.63a30.9 30.9 0 011.91 3.54c.38.8.73 1.61 1.09 2.43.48 1.09-1-2.28-.41-1l.25.61c.21.52.42 1 .62 1.56.93 2.39 1.79 4.81 2.61 7.23a400 400 0 0111.89 45.61q3.42 16.39 6.06 32.94 1.5 9.35 2.8 18.7c.12.86.23 1.71.35 2.56.29 2.14-.21-1.57.08.59a951.603 951.603 0 011.96 15.81c3.76 32.34 6 64.85 6.94 97.38 1.22 40.25.58 80.55-1.62 120.75q-.47 8.29-1 16.6c-.26 3.92 3.63 7.67 7.5 7.5a7.69 7.69 0 007.5-7.5C807 696.28 808 654.63 807.18 613c-.7-33.68-2.66-67.34-6.24-100.84-2.77-25.85-6.42-51.64-11.48-77.14a441.32 441.32 0 00-12.15-48.89 166.68 166.68 0 00-5.85-15.72c-1.25-2.88-2.67-6-4.91-8.28a12 12 0 00-2.16-1.74 7.5 7.5 0 10-7.57 13zM918.42 358.45a145.48 145.48 0 00-8 30.16 350.1 350.1 0 00-4.28 39.82c-.8 14.59-1 29.21-.73 43.82.23 15.63.91 31.25 1.87 46.85 1 16 2.27 32 3.78 47.95q2.21 23.24 5 46.42 2.63 22.1 5.69 44.12 2.5 18.13 5.28 36.24 2.09 13.73 4.33 27.42c.9 5.5 1.83 11 2.75 16.49.11.69.23 1.38.34 2.07.63 3.88 5.66 6.39 9.23 5.24 4.2-1.36 5.91-5.07 5.23-9.23-.72-4.43-1.48-8.86-2.22-13.3q-2.05-12.43-4-24.89-2.65-17-5.08-34.1c-.46-3.25-.92-6.49-1.37-9.74-.22-1.64-.45-3.28-.67-4.92-.11-.84-.23-1.67-.34-2.5 0-.32-.23-1.74 0-.36s0-.36-.1-.75q-1.41-10.54-2.72-21.11-2.84-22.71-5.15-45.48-2.42-23.76-4.13-47.57c-1.11-15.75-2-31.52-2.41-47.3-.42-14.88-.5-29.77 0-44.65q.35-10.36 1.14-20.69c.25-3.27.54-6.53.89-9.78.16-1.55.33-3.1.52-4.65.09-.76.18-1.52.28-2.28 0-.34.09-.69.13-1 0-.17 0-.35.07-.52.11-.91-.26 1.86-.13 1 1.58-10.88 3.53-21.73 7-32.19.72-2.2 1.52-4.38 2.39-6.52 1.47-3.65-1.61-8.4-5.24-9.23-4.35-1-7.65 1.33-9.23 5.24z" fill="#e5e5e5"/><path fill="#686868" d="M842.16 355.33h11.53v1156.5h-11.53z"/><rect x="839.12" y="345.99" width="17.6" height="31.91" rx="3.5" fill="#b7b7b7"/><path d="M854.78 413.79h-13.72a4.55 4.55 0 01-4.53-4.53l3.88-32.26a4.55 4.55 0 014.54-4.53h5.95a4.55 4.55 0 014.53 4.53l3.89 32.26a4.55 4.55 0 01-4.54 4.53z" fill="#9b9b9b"/><path fill="#686868" d="M844.58 360.44h6.69v21.11h-6.69z"/><path d="M801.54 695.6l-9.16-1.19a35.38 35.38 0 00-4.34-.5 10.85 10.85 0 00-7.73 3.06c-3 3-3.63 7.65-2.52 11.65a20.22 20.22 0 005 8.32 21.85 21.85 0 006.87 4.95 19.53 19.53 0 009.88 2 18.47 18.47 0 005.56-1.34 16.08 16.08 0 004.34-2.77 17.3 17.3 0 004.67-7.23 16.68 16.68 0 00.52-9.31 14 14 0 00-6.19-8.56 7.5 7.5 0 10-7.57 13c.18.12.34.24.51.37l-1.52-1.18a6.62 6.62 0 011 1l-1.18-1.52a6.93 6.93 0 01.88 1.51l-.76-1.79a8.17 8.17 0 01.49 1.9l-.27-2a10.39 10.39 0 010 2.23l.26-2a10.7 10.7 0 01-.69 2.61l.75-1.79a11.38 11.38 0 01-1.36 2.37l1.17-1.52a9.93 9.93 0 01-1.62 1.62l1.52-1.17a9.33 9.33 0 01-1.61 1l1.79-.76a10 10 0 01-2.41.67l2-.27a11.65 11.65 0 01-2.89 0l2 .26a13.24 13.24 0 01-3.33-.9l1.79.76a16.42 16.42 0 01-3.53-2.07l1.51 1.17a18 18 0 01-3.11-3.12l1.17 1.51a12.72 12.72 0 01-1.59-2.62l.76 1.79a8.76 8.76 0 01-.57-2.06l.27 2a6.43 6.43 0 010-1.58l-.27 2a5.67 5.67 0 01.21-.81l-.74 1.71a3.68 3.68 0 01.39-.7l-1.17 1.52a3.57 3.57 0 01.43-.44l-1.52 1.17a4.42 4.42 0 01.54-.34l-1.79.75a4.45 4.45 0 01.88-.26l-2 .27a13.38 13.38 0 013.28.21l3.66.48 7.33 1c1.76.22 4.1-1 5.3-2.2a7.5 7.5 0 000-10.61l-1.52-1.17a7.4 7.4 0 00-3.78-1zM947.11 693.54a53.07 53.07 0 00-8.31-1.06 21 21 0 00-9.59 2.07 15.44 15.44 0 00-8.44 13.39c.05 6.44 5 11.51 11.06 12.9a30.72 30.72 0 007 .7 23 23 0 007.82-1.12 14.68 14.68 0 008.23-6.75 12.59 12.59 0 00.06-12 7.58 7.58 0 00-10.27-2.7 7.68 7.68 0 00-2.67 10.24 4 4 0 01.24.46l-.76-1.79a5.7 5.7 0 01.27 1l-.27-2a6 6 0 010 1.27l.26-2a6.59 6.59 0 01-.43 1.5l.75-1.79a7.36 7.36 0 01-.83 1.37l1.17-1.51a7.61 7.61 0 01-1.14 1.13l1.52-1.17a8.9 8.9 0 01-1.59.9l1.79-.75a12.69 12.69 0 01-3.15.81l2-.27a27.48 27.48 0 01-6.66 0l2 .27a13.27 13.27 0 01-3.15-.81l1.79.76a8.13 8.13 0 01-1.57-.89l1.52 1.18a6.5 6.5 0 01-1.09-1.07l1.17 1.51a6.55 6.55 0 01-.67-1.11l.76 1.79a5.82 5.82 0 01-.39-1.43l.27 2a6.56 6.56 0 010-1.47l-.27 2a7.09 7.09 0 01.48-1.69l-.76 1.79a9.3 9.3 0 011.05-1.8l-1.17 1.52a9.89 9.89 0 011.68-1.68l-1.52 1.18a9.16 9.16 0 011.82-1l-1.8.76a13.13 13.13 0 013-.77l-2 .27a22.42 22.42 0 015.61.15l-2-.27c1.06.15 2.1.33 3.15.52a8.07 8.07 0 005.78-.75 7.49 7.49 0 002.73-10.33 7.34 7.34 0 00-4.48-3.45z" fill="#e5e5e5"/></svg>