<svg xmlns="http://www.w3.org/2000/svg" width="1677.89" height="1494.94" viewBox="0 0 1677.89 1494.94"><title>neck</title><path d="M1024.94-2.24s-21.61,178.89,26.79,210.87L883.38,390.4,632.59,245.79s40.61-44.07,52.71-63.09S666.76-19.6,666.76-19.6" fill="#26cbff"/><path d="M1051.73,208.63c-21.32-21.1-29.56-89.76-29.56-89.76-58,92.15-187.78,116.4-286.38,120.55-71.12,3-126-4.48-126-4.48L919.68,420.47Z" fill="#fff" opacity="0.5"/><path d="M632.59,245.79s40.61-44.07,52.71-63.09S666.76-19.6,666.76-19.6" fill="none" stroke="#222229" stroke-miterlimit="10" stroke-width="8"/><path d="M1024.94-2.24s-21.61,178.89,26.79,210.87" fill="none" stroke="#222229" stroke-miterlimit="10" stroke-width="8"/><polygon points="1101.71 601.77 1152.7 677.44 1203.69 601.77 1101.71 601.77" fill="#222229"/><path d="M1626.29,933.58c-12.39-189-92.26-537.88-148.86-570.51S1243,271.54,1243,271.54s12.71-11.14,4.62-20.69-43.89-50.15-57.75-66.86-47.36-5.57-47.36-5.57-16.17-50.94-55.44-49.35c-23.6,1-47.62,9.39-63,16,4.23,29,12.52,53.55,27.74,63.6l-83,73L848.23,349.18,735.6,290l-103-44.22s40.61-44.07,52.71-63.09c3.24-5.08,3.88-19.15,3.08-37-25.61-3.89-67.08-9.72-79.56-8.64a55.42,55.42,0,0,0-30,11.94s-78.55-2.39-84.32,16.71-19.64,70.84-34.65,79.59-34.66,20.7-31.19,38.21c0,0-160.56,57.3-206.76,75.61S126.12,650.92,92.43,856.91,0,1494.94,0,1494.94H1677.89S1638.68,1122.53,1626.29,933.58ZM1050.73,677.44l102-151.33,51,75.67,51,75.66Z" fill="#222229"/><path d="M756.82,373.35c.89.55-1.79-1.69-1.15-.89a4.59,4.59,0,0,0,.37.39c.93.95-1.3-1.84-.77-1,.14.21.3.41.44.63a30.9,30.9,0,0,1,1.91,3.54c.38.8.73,1.61,1.09,2.43.48,1.09-1-2.28-.41-1l.25.61c.21.52.42,1,.62,1.56.93,2.39,1.79,4.81,2.61,7.23a400,400,0,0,1,11.89,45.61q3.42,16.39,6.06,32.94,1.5,9.35,2.8,18.7c.12.86.23,1.71.35,2.56.29,2.14-.21-1.57.08.59.23,1.74.46,3.49.68,5.24.45,3.52.87,7.05,1.28,10.57,3.76,32.34,6,64.85,6.94,97.38,1.22,40.25.58,80.55-1.62,120.75q-.47,8.29-1,16.6c-.26,3.92,3.63,7.67,7.5,7.5a7.69,7.69,0,0,0,7.5-7.5C807,696.28,808,654.63,807.18,613c-.7-33.68-2.66-67.34-6.24-100.84-2.77-25.85-6.42-51.64-11.48-77.14a441.32,441.32,0,0,0-12.15-48.89,166.68,166.68,0,0,0-5.85-15.72c-1.25-2.88-2.67-6-4.91-8.28a12,12,0,0,0-2.16-1.74,7.5,7.5,0,1,0-7.57,13Z" fill="#e5e5e5"/><path d="M918.42,358.45a145.48,145.48,0,0,0-8,30.16,350.1,350.1,0,0,0-4.28,39.82c-.8,14.59-1,29.21-.73,43.82.23,15.63.91,31.25,1.87,46.85,1,16,2.27,32,3.78,47.95q2.21,23.24,5,46.42,2.63,22.1,5.69,44.12,2.5,18.13,5.28,36.24,2.09,13.73,4.33,27.42c.9,5.5,1.83,11,2.75,16.49.11.69.23,1.38.34,2.07.63,3.88,5.66,6.39,9.23,5.24,4.2-1.36,5.91-5.07,5.23-9.23-.72-4.43-1.48-8.86-2.22-13.3q-2.05-12.43-4-24.89-2.65-17-5.08-34.1c-.46-3.25-.92-6.49-1.37-9.74-.22-1.64-.45-3.28-.67-4.92-.11-.84-.23-1.67-.34-2.5,0-.32-.23-1.74,0-.36s0-.36-.1-.75q-1.41-10.54-2.72-21.11-2.84-22.71-5.15-45.48-2.42-23.76-4.13-47.57c-1.11-15.75-2-31.52-2.41-47.3-.42-14.88-.5-29.77,0-44.65q.35-10.36,1.14-20.69c.25-3.27.54-6.53.89-9.78.16-1.55.33-3.1.52-4.65.09-.76.18-1.52.28-2.28,0-.34.09-.69.13-1,0-.17,0-.35.07-.52.11-.91-.26,1.86-.13,1,1.58-10.88,3.53-21.73,7-32.19.72-2.2,1.52-4.38,2.39-6.52,1.47-3.65-1.61-8.4-5.24-9.23-4.35-1-7.65,1.33-9.23,5.24Z" fill="#e5e5e5"/><rect x="842.16" y="355.33" width="11.53" height="1156.5" fill="#686868"/><rect x="839.12" y="345.99" width="17.6" height="31.91" rx="3.5" fill="#b7b7b7"/><path d="M854.78,413.79H841.06a4.55,4.55,0,0,1-4.53-4.53L840.41,377a4.55,4.55,0,0,1,4.54-4.53h5.95a4.55,4.55,0,0,1,4.53,4.53l3.89,32.26A4.55,4.55,0,0,1,854.78,413.79Z" fill="#9b9b9b"/><rect x="844.58" y="360.44" width="6.69" height="21.11" fill="#686868"/><path d="M801.54,695.6l-9.16-1.19a35.38,35.38,0,0,0-4.34-.5,10.85,10.85,0,0,0-7.73,3.06c-3,3-3.63,7.65-2.52,11.65a20.22,20.22,0,0,0,5,8.32,21.85,21.85,0,0,0,6.87,4.95,19.53,19.53,0,0,0,9.88,2,18.47,18.47,0,0,0,5.56-1.34,16.08,16.08,0,0,0,4.34-2.77,17.3,17.3,0,0,0,4.67-7.23,16.68,16.68,0,0,0,.52-9.31,14,14,0,0,0-6.19-8.56,7.5,7.5,0,1,0-7.57,13c.18.12.34.24.51.37l-1.52-1.18a6.62,6.62,0,0,1,1,1l-1.18-1.52a6.93,6.93,0,0,1,.88,1.51l-.76-1.79a8.17,8.17,0,0,1,.49,1.9l-.27-2a10.39,10.39,0,0,1,0,2.23l.26-2a10.7,10.7,0,0,1-.69,2.61l.75-1.79a11.38,11.38,0,0,1-1.36,2.37l1.17-1.52a9.93,9.93,0,0,1-1.62,1.62l1.52-1.17a9.33,9.33,0,0,1-1.61,1l1.79-.76a10,10,0,0,1-2.41.67l2-.27a11.65,11.65,0,0,1-2.89,0l2,.26a13.24,13.24,0,0,1-3.33-.9l1.79.76a16.42,16.42,0,0,1-3.53-2.07l1.51,1.17a18,18,0,0,1-3.11-3.12l1.17,1.51a12.72,12.72,0,0,1-1.59-2.62l.76,1.79a8.76,8.76,0,0,1-.57-2.06l.27,2a6.43,6.43,0,0,1,0-1.58l-.27,2a5.67,5.67,0,0,1,.21-.81L791.5,707a3.68,3.68,0,0,1,.39-.7l-1.17,1.52a3.57,3.57,0,0,1,.43-.44l-1.52,1.17a4.42,4.42,0,0,1,.54-.34l-1.79.75a4.45,4.45,0,0,1,.88-.26l-2,.27a13.38,13.38,0,0,1,3.28.21l3.66.48,7.33,1c1.76.22,4.1-1,5.3-2.2a7.5,7.5,0,0,0,0-10.61l-1.52-1.17a7.4,7.4,0,0,0-3.78-1Z" fill="#e5e5e5"/><path d="M947.11,693.54a53.07,53.07,0,0,0-8.31-1.06,21,21,0,0,0-9.59,2.07,15.44,15.44,0,0,0-8.44,13.39c.05,6.44,5,11.51,11.06,12.9a30.72,30.72,0,0,0,7,.7,23,23,0,0,0,7.82-1.12,14.68,14.68,0,0,0,8.23-6.75,12.59,12.59,0,0,0,.06-12,7.58,7.58,0,0,0-10.27-2.7A7.68,7.68,0,0,0,942,709.21a4,4,0,0,1,.24.46l-.76-1.79a5.7,5.7,0,0,1,.27,1l-.27-2a6,6,0,0,1,0,1.27l.26-2a6.59,6.59,0,0,1-.43,1.5l.75-1.79a7.36,7.36,0,0,1-.83,1.37l1.17-1.51a7.61,7.61,0,0,1-1.14,1.13l1.52-1.17a8.9,8.9,0,0,1-1.59.9l1.79-.75a12.69,12.69,0,0,1-3.15.81l2-.27a27.48,27.48,0,0,1-6.66,0l2,.27a13.27,13.27,0,0,1-3.15-.81l1.79.76a8.13,8.13,0,0,1-1.57-.89l1.52,1.18a6.5,6.5,0,0,1-1.09-1.07l1.17,1.51a6.55,6.55,0,0,1-.67-1.11l.76,1.79a5.82,5.82,0,0,1-.39-1.43l.27,2a6.56,6.56,0,0,1,0-1.47l-.27,2a7.09,7.09,0,0,1,.48-1.69l-.76,1.79a9.3,9.3,0,0,1,1.05-1.8l-1.17,1.52a9.89,9.89,0,0,1,1.68-1.68l-1.52,1.18a9.16,9.16,0,0,1,1.82-1l-1.8.76a13.13,13.13,0,0,1,3-.77l-2,.27a22.42,22.42,0,0,1,5.61.15l-2-.27c1.06.15,2.1.33,3.15.52a8.07,8.07,0,0,0,5.78-.75A7.49,7.49,0,0,0,951.59,697a7.34,7.34,0,0,0-4.48-3.45Z" fill="#e5e5e5"/></svg>