<?xml version="1.0" encoding="utf-8"?>
<!-- Generator: Adobe Illustrator 19.1.0, SVG Export Plug-In . SVG Version: 6.00 Build 0)  -->
<svg version="1.1" id="Layer_1" xmlns="http://www.w3.org/2000/svg" xmlns:xlink="http://www.w3.org/1999/xlink" x="0px" y="0px"
	 width="129px" height="50px" viewBox="-685 226 129 50" style="enable-background:new -685 226 129 50;" xml:space="preserve">
<style type="text/css">
	.st0{fill:#C12127;}
</style>
<title>Untitled 9</title>
<desc>Created with Sketch.</desc>
<g id="Page-1">
	<g>
		<g>
			<path class="st0" d="M-685,226h129v43.1h-64.5v6.9h-28.6v-6.9H-685V226z M-677.7,261.8h14.2v-21.5h7.2v21.5h7.1v-28.5h-28.5
				V261.8L-677.7,261.8z M-642.1,233.2l0.1,35.9h14.2v-7.2h14.4v-28.7H-642.1L-642.1,233.2z M-628,240.1h7.5v14.6h-7.5V240.1z
				 M-606.2,233.2v28.5h14.3v-21.4h7.1v21.4h7.1v-21.3h7.1v21.3h7.1v-28.5L-606.2,233.2L-606.2,233.2z"/>
		</g>
	</g>
</g>
</svg>
