<?xml version="1.0" encoding="UTF-8"?><svg id="airport-codes" xmlns="http://www.w3.org/2000/svg" width="1070" height="330" viewBox="0 0 1070 330"><g id="tag5" class="reveal"><g class="fill-white"><path d="M858.19,83.09v108.23h152.02V83.09l-35.71-25.31h-80.61l-35.71,25.31Zm76.01,11.07c-4.85,0-8.79-3.93-8.79-8.79s3.93-8.78,8.79-8.78,8.79,3.93,8.79,8.78-3.93,8.79-8.79,8.79Z" fill="#eaebef" stroke="#14303f" stroke-linejoin="round"/></g><rect x="858.19" y="118.86" width="152.02" height="152.13" fill="#14303f" stroke="#14303f" stroke-linejoin="round"/><g class="fill-yellow"><rect x="858.17" y="231.32" width="152.02" height="40.16" fill="#b4b9c5" stroke="#14303f" stroke-miterlimit="10"/></g><g class="fill-red"><path d="M944.78,68.1h-21.19l-6.84,6.84v20.88l6.84,6.84h21.19l6.84-6.84v-20.88l-6.84-6.84Zm-10.59,26.06c-4.85,0-8.79-3.93-8.79-8.79s3.93-8.78,8.79-8.78,8.79,3.93,8.79,8.78-3.93,8.79-8.79,8.79Z" fill="#b4b9c5" stroke="#14303f" stroke-linejoin="round" stroke-width=".5"/></g><text transform="translate(894.71 163.69)" fill="#fff" font-family="CabinetGrotesk-Variable" font-size="37.77" font-weight="800"><tspan x="0" y="0">ORD</tspan></text><g><line x1="858.27" y1="246.16" x2="860.77" y2="246.16" fill="none" stroke="#14303f" stroke-linecap="round" stroke-linejoin="round" stroke-width=".5"/><line x1="865.83" y1="246.16" x2="1005.1" y2="246.16" fill="none" stroke="#14303f" stroke-dasharray="0 0 5.06 5.06" stroke-linecap="round" stroke-linejoin="round" stroke-width=".5"/><line x1="1007.64" y1="246.16" x2="1010.14" y2="246.16" fill="none" stroke="#14303f" stroke-linecap="round" stroke-linejoin="round" stroke-width=".5"/></g><text transform="translate(881.17 203.06)" fill="#eaebef" font-family="CabinetGrotesk-Variable" font-size="10.7" font-weight="800"><tspan x="0" y="0">AÉROPORT DE PARIS</tspan><tspan x="-2.07" y="12.84">CHARLES-DE-GAULLE</tspan></text><line x1="865.48" y1="179.87" x2="1002.92" y2="179.87" fill="none" stroke="#eaebef" stroke-linecap="round" stroke-miterlimit="10" stroke-width=".5"/><line x1="934.2" y1="-5.73" x2="934.2" y2="78.66" fill="#eaebef" stroke="#14303f" stroke-linecap="round" stroke-linejoin="round"/><line x1="932.79" y1="55.56" x2="935.58" y2="78.66" fill="#eaebef" stroke="#14303f" stroke-linecap="round" stroke-linejoin="round"/><line x1="935.58" y1="55.56" x2="932.79" y2="78.66" fill="#eaebef" stroke="#14303f" stroke-linecap="round" stroke-linejoin="round"/></g><g id="tag4" class="reveal"><g class="fill-white-2"><path d="M660.54,156.03v114.34c0,4.93,4,8.93,8.93,8.93h134.16c4.93,0,8.93-4,8.93-8.93v-114.34h-152.02Z" fill="#eaebef" stroke="#14303f" stroke-miterlimit="10"/></g><g class="fill-red-2"><path d="M812.56,157.19V86.43c0-4.93-4-8.93-8.93-8.93h-134.16c-4.93,0-8.93,4-8.93,8.93v70.76h152.02Zm-84.67-63.01c.6-3.64,3.53-6.58,7.17-7.17,6.01-.99,11.14,4.14,10.15,10.15-.6,3.64-3.54,6.58-7.18,7.17-6.01,.99-11.14-4.14-10.15-10.15Z" fill="#14303f" stroke="#14303f" stroke-miterlimit="10"/></g><line x1="736.55" y1="-5.73" x2="736.55" y2="88.29" fill="#eaebef" stroke="#14303f" stroke-linecap="round" stroke-linejoin="round"/><line x1="735.13" y1="75.97" x2="737.93" y2="88.29" fill="#eaebef" stroke="#14303f" stroke-linecap="round" stroke-linejoin="round"/><line x1="737.93" y1="75.97" x2="735.13" y2="88.29" fill="#eaebef" stroke="#14303f" stroke-linecap="round" stroke-linejoin="round"/><g class="fill-white-3"><text transform="translate(703.45 141.52)" fill="#fff" font-family="CabinetGrotesk-Variable" font-size="30.36" font-weight="800"><tspan x="0" y="0">MSY</tspan></text></g><text transform="translate(686.62 178.92)" fill="#14303f" font-family="CabinetGrotesk-Variable" font-size="13.66" font-weight="800"><tspan x="0" y="0">New Orleans, LA</tspan></text><text transform="translate(674.33 212.02)" fill="#14303f" font-family="CabinetGrotesk-Variable" font-size="13.66" font-weight="800"><tspan x="0" y="0">LOUIS ARMSTRONG</tspan><tspan x="10.7" y="16.39">INTERNATIONAL</tspan></text><line x1="660.54" y1="188.75" x2="812.41" y2="188.75" fill="none" stroke="#14303f" stroke-miterlimit="10" stroke-width=".5"/><line x1="660.54" y1="252.21" x2="812.41" y2="252.21" fill="none" stroke="#14303f" stroke-miterlimit="10" stroke-width=".5"/><g><line x1="660.54" y1="242.75" x2="663.04" y2="242.75" fill="none" stroke="#14303f" stroke-linecap="round" stroke-linejoin="round" stroke-width=".5"/><line x1="668.1" y1="242.75" x2="807.38" y2="242.75" fill="none" stroke="#14303f" stroke-dasharray="0 0 5.06 5.06" stroke-linecap="round" stroke-linejoin="round" stroke-width=".5"/><line x1="809.91" y1="242.75" x2="812.41" y2="242.75" fill="none" stroke="#14303f" stroke-linecap="round" stroke-linejoin="round" stroke-width=".5"/></g><line x1="708.06" y1="252.21" x2="708.06" y2="279.3" fill="none" stroke="#14303f" stroke-miterlimit="10" stroke-width=".5"/></g><g class="default"><g class="fill-white-4"><path d="M560.73,48.95h-51.29l-50.36,29.37v199.28h152.02V78.32l-50.36-29.37Zm-25.64,27.13c-4.85,0-8.79-3.93-8.79-8.79s3.93-8.78,8.79-8.78,8.79,3.93,8.79,8.78-3.93,8.79-8.79,8.79Z" fill="#eaebef" stroke="#14303f" stroke-linejoin="round"/></g><g class="fill-turquoise"><rect x="459.07" y="111.8" width="152.02" height="93.44" fill="#14303f" stroke="#14303f" stroke-miterlimit="10"/></g><g class="fill-swap"><rect x="459.07" y="205.24" width="152.02" height="72.36" fill="#b4b9c5" stroke="#14303f" stroke-miterlimit="10"/><text transform="translate(473.84 241.16)" fill="#14303f" font-family="CabinetGrotesk-Variable" font-size="28.57" font-weight="800"><tspan x="0" y="0">PHOENIX</tspan></text><text transform="translate(472.87 258.27)" fill="#14303f" font-family="CabinetGrotesk-Variable" font-size="19.64" font-weight="800"><tspan x="0" y="0">SKY HARBOR</tspan></text></g><line x1="535.08" y1="-5.73" x2="535.08" y2="59.91" fill="#eaebef" stroke="#14303f" stroke-linecap="round" stroke-linejoin="round"/><line x1="533.67" y1="47.58" x2="536.46" y2="59.91" fill="#eaebef" stroke="#14303f" stroke-linecap="round" stroke-linejoin="round"/><line x1="536.46" y1="47.58" x2="533.67" y2="59.91" fill="#eaebef" stroke="#14303f" stroke-linecap="round" stroke-linejoin="round"/><g class="fill-navy"><text transform="translate(472.74 180.72)" fill="#fff" font-family="CabinetGrotesk-Variable" font-size="61.6" font-weight="800"><tspan x="0" y="0">PHX</tspan></text></g></g><g id="tag2" class="reveal"><g class="fill-yellow-2"><path d="M410.16,263.79V63.74h-69.06v200.04h69.06Zm-42.65-178.35c-3.25-7.37,4.14-14.76,11.51-11.5,1.98,.88,3.6,2.49,4.47,4.48,3.23,7.36-4.14,14.73-11.5,11.49-1.98-.87-3.6-2.49-4.48-4.47Z" fill="#eaebef" stroke="#14303f" stroke-linejoin="round"/></g><line x1="375.5" y1="-14.25" x2="375.5" y2="74.53" fill="#eaebef" stroke="#14303f" stroke-linecap="round" stroke-linejoin="round"/><line x1="374.08" y1="62.21" x2="376.87" y2="74.53" fill="#eaebef" stroke="#14303f" stroke-linecap="round" stroke-linejoin="round"/><line x1="376.87" y1="62.21" x2="374.08" y2="74.53" fill="#eaebef" stroke="#14303f" stroke-linecap="round" stroke-linejoin="round"/><text transform="translate(362.12 110.47) rotate(90)" fill="#14303f" font-family="CabinetGrotesk-Variable" font-size="39.75" font-weight="800"><tspan x="0" y="0">SFO</tspan></text><rect x="341.1" y="203.62" width="69.06" height="60.17" fill="#14303f"/><g class="fill-yellow-3"><path d="M391.38,233.84l-11.68-6.82v-4.5c0-1.06-1.02-2.56-1.33-3-.98-1.38-1.9-2.08-2.73-2.08s-1.75,.7-2.73,2.08c-.31,.44-1.33,1.95-1.33,3v4.5l-11.68,6.82c-.31,.18-.5,.52-.5,.88v2.03c0,.31,.14,.61,.39,.8,.18,.14,.4,.22,.63,.22,.08,0,.16,0,.25-.03l11.05-2.76,.84,8.44-4.65,3.72c-.24,.19-.38,.48-.38,.79v1.02c0,.32,.15,.62,.4,.81,.18,.13,.39,.2,.61,.2,.09,0,.19-.01,.28-.04l6.83-1.95,6.83,1.95c.09,.03,.19,.04,.28,.04,.22,0,.43-.07,.61-.2,.25-.19,.4-.49,.4-.81v-1.02c0-.31-.14-.6-.38-.79l-4.65-3.72,.84-8.44,11.05,2.76c.08,.02,.16,.03,.25,.03,.22,0,.44-.07,.63-.22,.25-.19,.39-.49,.39-.8v-2.03c0-.36-.19-.7-.5-.88Z" fill="#eaebef"/></g><path d="M330.52,274.66V74.61h-69.06v200.04h69.06Zm-42.65-178.35c-3.25-7.37,4.14-14.76,11.51-11.5,1.98,.88,3.6,2.49,4.47,4.48,3.23,7.36-4.14,14.73-11.5,11.49-1.98-.87-3.6-2.49-4.48-4.47Z" fill="#14303f" stroke="#14303f" stroke-linejoin="round"/><line x1="295.85" y1="-14.25" x2="295.85" y2="85.4" fill="#eaebef" stroke="#14303f" stroke-linecap="round" stroke-linejoin="round"/><line x1="294.44" y1="73.08" x2="297.23" y2="85.4" fill="#eaebef" stroke="#14303f" stroke-linecap="round" stroke-linejoin="round"/><line x1="297.23" y1="73.08" x2="294.44" y2="85.4" fill="#eaebef" stroke="#14303f" stroke-linecap="round" stroke-linejoin="round"/><g class="fill-white-5"><text transform="translate(282.48 127.74) rotate(90)" fill="#eaebef" font-family="CabinetGrotesk-Variable" font-size="39.75" font-weight="800"><tspan x="0" y="0">ICN</tspan></text></g><g class="fill-red-3"><rect x="261.46" y="214.49" width="69.06" height="60.17" fill="#eaebef" stroke="#14303f" stroke-linejoin="round"/></g><g class="fill-white-6"><path d="M311.73,244.71l-11.68-6.82v-4.5c0-1.06-1.02-2.56-1.33-3-.98-1.38-1.9-2.08-2.73-2.08s-1.75,.7-2.73,2.08c-.31,.44-1.33,1.95-1.33,3v4.5l-11.68,6.82c-.31,.18-.5,.52-.5,.88v2.03c0,.31,.14,.61,.39,.8,.18,.14,.4,.22,.63,.22,.08,0,.16,0,.25-.03l11.05-2.76,.84,8.44-4.65,3.72c-.24,.19-.38,.48-.38,.79v1.02c0,.32,.15,.62,.4,.81,.18,.13,.39,.2,.61,.2,.09,0,.19-.01,.28-.04l6.83-1.95,6.83,1.95c.09,.03,.19,.04,.28,.04,.22,0,.43-.07,.61-.2,.25-.19,.4-.49,.4-.81v-1.02c0-.31-.14-.6-.38-.79l-4.65-3.72,.84-8.44,11.05,2.76c.08,.02,.16,.03,.25,.03,.22,0,.44-.07,.63-.22,.25-.19,.39-.49,.39-.8v-2.03c0-.36-.19-.7-.5-.88Z" fill="#14303f"/></g></g><g id="tag1" class="reveal"><g class="fill-white-7"><path d="M210.48,272.62V78.61c0-4.93-4-8.93-8.93-8.93H67.39c-4.93,0-8.93,4-8.93,8.93v194.01H210.48ZM125.8,86.37c.6-3.64,3.53-6.58,7.17-7.17,6.01-.99,11.14,4.14,10.15,10.15-.6,3.64-3.54,6.58-7.18,7.17-6.01,.99-11.14-4.14-10.15-10.15Z" fill="#b4b9c5" stroke="#14303f" stroke-linejoin="round"/></g><rect x="58.46" y="231.32" width="152.02" height="41.3" fill="#14303f"/><g class="fill-red-4"><path d="M134.47,74.04c-7.63,0-13.82,6.19-13.82,13.82s6.19,13.82,13.82,13.82,13.82-6.19,13.82-13.82-6.19-13.82-13.82-13.82Zm8.66,15.31c-.6,3.64-3.54,6.58-7.18,7.17-6.01,.99-11.14-4.14-10.15-10.15,.6-3.64,3.53-6.58,7.17-7.17,6.01-.99,11.14,4.14,10.15,10.15Z" fill="#b4b9c5" stroke="#14303f" stroke-linejoin="round" stroke-width=".5"/></g><line x1="134.47" y1="-5.73" x2="134.47" y2="80.47" fill="#eaebef" stroke="#14303f" stroke-linecap="round" stroke-linejoin="round"/><line x1="133.05" y1="68.15" x2="135.84" y2="80.47" fill="#eaebef" stroke="#14303f" stroke-linecap="round" stroke-linejoin="round"/><line x1="135.84" y1="68.15" x2="133.05" y2="80.47" fill="#eaebef" stroke="#14303f" stroke-linecap="round" stroke-linejoin="round"/><g class="fill-swap"><rect x="58.46" y="113.82" width="152.02" height="89.39" fill="#eaebef" stroke="#14303f" stroke-linejoin="round"/><text transform="translate(88.95 180.88)" fill="#14303f" font-family="CabinetGrotesk-Variable" font-size="57.62" font-weight="800"><tspan x="0" y="0">IGY</tspan></text></g><g class="fill-navy-2"><text transform="translate(69.15 222.25)" fill="#14303f" font-family="CabinetGrotesk-Variable" font-size="10.77" font-weight="800"><tspan x="0" y="0">WRIGHT BROTHERS FIELD</tspan></text></g><text transform="translate(74.52 256.14)" fill="#fff" font-family="CabinetGrotesk-Variable" font-size="10.77" font-weight="800"><tspan x="0" y="0">JEZERO CRATER, MARS</tspan></text><g><line x1="58.53" y1="107.75" x2="61.03" y2="107.75" fill="none" stroke="#14303f" stroke-linecap="round" stroke-linejoin="round" stroke-width=".5"/><line x1="66.1" y1="107.75" x2="205.37" y2="107.75" fill="none" stroke="#14303f" stroke-dasharray="0 0 5.06 5.06" stroke-linecap="round" stroke-linejoin="round" stroke-width=".5"/><line x1="207.9" y1="107.75" x2="210.4" y2="107.75" fill="none" stroke="#14303f" stroke-linecap="round" stroke-linejoin="round" stroke-width=".5"/></g></g></svg>
