<?xml version="1.0" encoding="UTF-8"?>
<svg id="projects" xmlns="http://www.w3.org/2000/svg" width="1070" height="330" viewBox="0 0 1070 330"><symbol id="body"><g class="body"><path d="M490.76,258.33s13.81,5.43,45.53,4.42c31.72-1.01,43.1-8.09,43.1-8.09l4.49,76.49-35.47-.41-6.46-43.94-5.7,1.94-1.97,43.86-34.41-.05-9.11-74.22Z" fill="#14303f" stroke="#14303f" stroke-linecap="round" stroke-linejoin="round"/><g><g class="skin"><path d="M546.82,59.73s2.83-4.61,4.11-1.18c1.28,3.43-.82,5.58-1.28,7.93-.46,2.35-1.13,7.93-4.16,4.92" fill="#eaebef"/><path d="M508.53,59.97s-3.14-4.41-4.18-.89c-1.04,3.51,1.2,5.51,1.82,7.83s1.67,7.83,4.49,4.63" fill="#eaebef"/><path d="M529.18,106.51c14.93,0,17.91-9.15,18.49-11.69-1.65-.66-2.83-1.21-3.22-1.54-2-1.71-1.49-14.26-1.49-14.26l-29.09,1.33s1.35,8.54,0,12.01c-.31,.8-1.8,1.8-3.89,2.86,1.03,2.84,4.98,11.29,19.2,11.29Z" fill="#eaebef"/><path d="M547.4,54.15s.39,38.44-19,38.44-20.34-37.33-20.34-37.33l2.6-19.84h28.36l8.37,18.72Z" fill="#eaebef"/></g><path d="M547.4,52.82s.39,38.44-19,38.44-20.34-37.33-20.34-37.33" fill="none" stroke="#14303f" stroke-linecap="round" stroke-miterlimit="10"/><path d="M538.87,77.23c-1.52-5.13-5.93-4.79-10.22-3.64-5.02,.56-7.21,.03-8.54,5.27-1.57,3.59-8.33-6.29-9.81-8.75,4.03,23.92,27.56,30.34,34.28,4.19-.11,.17-4.28,6.1-5.71,2.94Zm-2.72,2.03c-1.01,5.51-3.97,3.63-6.67,3.71s-4.08,3.06-5.28,.08c-.91-2.25-4.03-3.56,.04-6.36,1.49-1.74,3.87,.41,5.58-.76,1.96-1.34,2.96,.08,4.31-.25,2.82-.67,2.44,2.32,2.02,3.57Z" fill="#14303f" opacity=".09"/><path d="M546.82,62.43s.46-9.5-4.23-13.97c0,0,4.02-17.66-16.09-9.16,0,0-20.56-6.93-16.09,11.4,0,0-1.92,5.91-1.92,8.82,0,0-2.32-3.9-2.55-7.25s.45-8.94-1.12-10.06c-1.56-1.12-5.57-5.95,.45-7.6,0,0-2.46-7.15,3.8-7.15,0,0,1.34-5.14,8.49-4.47,0,0,23.47-16.09,26.6,12.07,0,0,8.05-.89,4.47,15.2l-1.81,12.18Z" fill="#14303f" stroke="#14303f" stroke-linecap="round" stroke-linejoin="round"/><path d="M518.52,22.37s-2.89-2.45-5.17,.98" fill="none" stroke="#14303f" stroke-linecap="round" stroke-miterlimit="10"/><path d="M533.46,58.54c.98-.47,2.23-.85,3.56-.72" fill="none" stroke="#14303f" stroke-linecap="round" stroke-miterlimit="10" stroke-width=".5"/><path d="M542.01,55.7s-3.25-4.93-8.6-1.94c0,0-2.6-1.3-3.81,3.32,0,0,3.84-.41,6.16-1.59,2.32-1.18,6.26,.21,6.26,.21Z" fill="#14303f" stroke="#14303f" stroke-linecap="round" stroke-linejoin="round"/><circle cx="535.57" cy="59.22" r="1.45" fill="#14303f"/><circle cx="535.08" cy="58.8" r=".28" fill="#eaebef"/><circle cx="518.74" cy="59.97" r="1.45" fill="#14303f"/><circle cx="519.27" cy="59.51" r=".28" fill="#eaebef"/><path d="M516.71,58.96c1.08-.34,2.44-.54,3.78-.11" fill="none" stroke="#14303f" stroke-linecap="round" stroke-miterlimit="10" stroke-width=".5"/><path d="M523.88,56.14s-7.24-4.88-11.68,.07c0,0-.06,1.59,2.11,.91,4.35-1.37,10.7,1.38,9.56-.97Z" fill="#14303f" stroke="#14303f" stroke-linecap="round" stroke-miterlimit="10"/><path d="M508.53,59.97s-3.14-4.41-4.18-.89c-1.04,3.51,1.2,5.51,1.82,7.83s1.67,7.83,4.49,4.63" fill="none" stroke="#14303f" stroke-linecap="round" stroke-miterlimit="10"/><path d="M546.82,59.73s2.83-4.61,4.11-1.18c1.28,3.43-.82,5.58-1.28,7.93-.46,2.35-1.13,7.93-4.16,4.92" fill="none" stroke="#14303f" stroke-linecap="round" stroke-miterlimit="10"/><path d="M524.89,70.84s.3-.76,1.5,.23c1.19,.99,2.11,1.3,3.47-.25s1.92-.51,1.92-.51" fill="none" stroke="#14303f" stroke-linecap="round" stroke-linejoin="round" stroke-width=".5"/><path d="M527.01,82.85s1.97-1.75,4.95-.66" fill="none" stroke="#14303f" stroke-linecap="round" stroke-linejoin="round" stroke-width=".5"/><path d="M522.04,78.83s.85,.19,1.78,.19c1.7,0,2.06-.92,3.06-1.03,1.01-.1,.92,.42,2.29,.29s1.62-.84,2.96-.84,2.56,.52,3.84-.65" fill="none" stroke="#14303f" stroke-linecap="round" stroke-linejoin="round" stroke-width=".5"/><path d="M523.83,79.02s1.44-1.92,2.76-2.11c1.32-.18,1.51,.3,2.43,.24s1.88-.79,2.95-.83c1.07-.04,2.57,1.09,2.57,1.09,0,0-.71,1.13-2.25,1.38s-2.57,.22-3.59,.3-2.58,.85-4.87-.08" fill="#14303f"/><path d="M524.32,59.51s1.35,1.6,.9,4.5" fill="none" stroke="#14303f" stroke-linecap="round" stroke-linejoin="round" stroke-width=".5"/><path d="M542.96,79.02s-.51,12.55,1.49,14.26c.39,.33,1.57,.88,3.22,1.54" fill="none" stroke="#14303f" stroke-linecap="round" stroke-miterlimit="10"/><path d="M513.97,81.07s5.27,10.16,15.04,10.18c9.77,.01,13.95-12.23,13.95-12.23,0,0-1.47,17.45-13.48,17.45-12,0-15.51-15.4-15.51-15.4Z" fill="#14303f" stroke="#14303f" stroke-linecap="round" stroke-linejoin="round"/><path d="M505.33,60.67s1.51-2.32,3.62,2.48" fill="none" stroke="#14303f" stroke-linecap="round" stroke-miterlimit="10" stroke-width=".5"/><path d="M546.76,62.96s1.76-3.76,2.85-3.51" fill="none" stroke="#14303f" stroke-linecap="round" stroke-miterlimit="10" stroke-width=".5"/><path d="M513.87,80.35s1.35,8.54,0,12.01c-.29,.74-1.75,1.65-3.96,2.67" fill="none" stroke="#14303f" stroke-linecap="round" stroke-miterlimit="10"/></g><g><g class="skin"><path d="M492.6,294.89c1.41-2.28-2.89-3.54-2.89-3.54,.39-.2,.66-.6,.82-1.15,2.54-.18,.27-2.28,.23-2.31-.08-3.42-1.39-8.06-1.39-8.06,2.07-12.8-2.49-16.16-4.06-19.56-.16-.34-.28-.75-.36-1.2l1.14-21.15s3.07-24.79,5.56-30.1c.13-2.7,.4-8.09,.69-14.07,.59-12.05,1.31-26.55,1.31-26.55l-.92-1.71c-4.5,7.16-19.04,1.12-19.04,1.12v20.24s-2.58,6.62-2.42,17.59c.17,10.98,3.33,44.56,2.42,48.74-.91,4.18,1.43,6.85,1.43,6.85,0,0-.49,14.58-1.57,18.14-1.08,3.56,.08,4.89,1.16,6.05,1.08,1.16,5.14,9.7,5.14,9.7,0,0,6.63,3.98,8.04,4.14,1.41,.17,3.48,.66,3.48,.66,0,0,.52-.38,.65-.98l.03,.03c2.85-1.99,.55-2.88,.55-2.88Zm-7.84-15.73s-.35,1.16,0,4.56c.04,.42,.11,.87,.2,1.34l-.89-.38-1.9-3.36,2.59-2.15Zm-.92,10.06l-.21-.98s2.19,.51,2.5,.69l.49,1.36-2.78-1.06Z" fill="#eaebef"/></g><path d="M491.65,207.81s-5.5,22.62-5.59,30.99-2.32,18.07-.75,21.47c1.57,3.4,6.13,6.76,4.06,19.56,0,0,2.9,10.24,.33,11.52-2.57,1.28-4.6-4.23-4.95-7.62-.35-3.4,0-4.56,0-4.56l-2.09-2.57" fill="none" stroke="#14303f" stroke-linecap="round" stroke-miterlimit="10"/><path d="M484.76,279.17c-.92,.96-2.26,1.18-2.7,2.52-.22,1.12,.22,2.01,0,3.13,0,.45,0,.89,.22,1.34,1.12,1.56,1.56,3.13,1.79,4.92,1.12,.67,2.24,.89,2.91,2.01,.45,1.12,1.34,1.34,2.46,1.79,.89,.45,1.79,.67,2.24,1.56,.45,.67,.89,1.79-.22,2.24-1.12,.22-2.24-.22-3.35-.67-2.91-.67-5.14-2.46-7.82-3.8-.45-.22-.67-.67-.89-1.12-1.79-3.8-3.35-7.38-6.03-10.73-.22-.45-.22-1.12-.22-1.79,1.56-6.93,1.79-13.63,2.01-20.56-.89-1.12-1.34-2.24-1.56-3.58,0-4.25,.22-8.72,0-12.96-.67-14.98-2.68-29.5-2.24-44.48,.22-4.25,.89-8.27,2.46-12.29,0,0,0-17.43-.09-20.09" fill="none" stroke="#14303f" stroke-linecap="round" stroke-miterlimit="10"/><path d="M491.65,207.81c-.21,1.46-.65,3.25-1.14,4.9" fill="none" stroke="#14303f" stroke-linecap="round" stroke-miterlimit="10"/><polyline points="482.17 281.32 484.07 284.68 484.96 285.03" fill="none" stroke="#14303f" stroke-linecap="round" stroke-miterlimit="10"/><path d="M490.77,287.89s2.32,2.14-.23,2.32" fill="none" stroke="#14303f" stroke-linecap="round" stroke-miterlimit="10"/><line x1="483.25" y1="287.89" x2="486.28" y2="289.05" fill="none" stroke="#14303f" stroke-linecap="round" stroke-miterlimit="10"/><line x1="483.73" y1="289.41" x2="487.16" y2="290.46" fill="none" stroke="#14303f" stroke-linecap="round" stroke-miterlimit="10"/><path d="M489.71,291.35s4.42,1.04,3.01,3.32" fill="none" stroke="#14303f" stroke-linecap="round" stroke-miterlimit="10"/><path d="M487.16,293.12s9.85,1.44,4.89,4.65" fill="none" stroke="#14303f" stroke-linecap="round" stroke-miterlimit="10"/></g><g><g class="skin"><path d="M585.7,294.29l.02-.03c.2,.58,.77,.89,.77,.89,0,0,1.99-.75,3.37-1.1,1.38-.34,7.45-5.12,7.45-5.12,0,0,2.96-8.98,3.88-10.27,.92-1.29,1.91-2.75,.39-6.15-1.52-3.4-3.84-17.8-3.84-17.8,0,0,1.98-2.95,.55-6.98-1.43-4.03-2.52-37.74-3.73-48.65s-4.61-17.15-4.61-17.15l-2.42-19.06c-8.02,4.62-16.66,2.73-16.66,2.73,0,0,2.69,32.06,4.11,40.09,3.14,4.95,9.09,28.47,9.09,28.47l3.79,20.84c-.03,.47-.09,.88-.21,1.24-1.13,3.57-5.23,7.48-1.57,19.92,0,0-.72,4.77-.36,8.17-.03,.03-2.01,2.41,.52,2.27,.23,.52,.55,.89,.96,1.03,0,0-4.11,1.79-2.42,3.88,0,0-2.18,1.17,.91,2.79Zm7.73-17.56l-1.46,3.57-.84,.49c.03-.47,.04-.93,.03-1.35-.08-3.42-.57-4.52-.57-4.52l2.84,1.81Zm-3.29,9.46l.31-1.41c.29-.21,2.4-1,2.4-1l-.08,1-2.62,1.4Z" fill="#eaebef"/></g><g class="ring"><polygon points="593.63 282.14 592.78 285.97 597.72 287.5 599.17 283.56 593.63 282.14" fill="#fff"/></g><path d="M590.59,274.91l2.84,1.81,.59,4.69c-.94,.54-1.33,5.35-1.33,5.35-2.82,1.44-2.98,3.55-2.98,3.55-6.55,3-3.23,4.84-3.23,4.84,0,0,1.99-.75,3.37-1.1s7.45-5.12,7.45-5.12c0,0,2.96-8.98,3.88-10.27s1.91-2.75,.39-6.15-3.84-17.8-3.84-17.8c0,0,1.98-2.95,.55-6.98-1.43-4.03-2.52-37.74-3.73-48.65-1.21-10.91-4.61-17.15-4.61-17.15l-2.42-19.06" fill="none" stroke="#14303f" stroke-linecap="round" stroke-miterlimit="10"/><path d="M575.1,205.99s7.98,20.75,9.12,29.05c1.13,8.29,4.57,17.63,3.44,21.2-1.13,3.57-5.23,7.48-1.57,19.92,0,0-1.59,10.53,1.12,11.47,2.71,.94,4.03-4.77,3.95-8.19s-.57-4.52-.57-4.52l1.75-2.81" fill="none" stroke="#14303f" stroke-linecap="round" stroke-miterlimit="10"/><polyline points="593.43 276.73 591.97 280.3 591.13 280.75" fill="none" stroke="#14303f" stroke-linecap="round" stroke-miterlimit="10"/><path d="M585.73,284.32s-2.03,2.41,.52,2.27" fill="none" stroke="#14303f" stroke-linecap="round" stroke-miterlimit="10"/><line x1="593.18" y1="283.38" x2="590.33" y2="284.91" fill="none" stroke="#14303f" stroke-linecap="round" stroke-miterlimit="10"/><line x1="592.91" y1="284.95" x2="589.63" y2="286.41" fill="none" stroke="#14303f" stroke-linecap="round" stroke-miterlimit="10"/><path d="M587.21,287.62s-4.26,1.59-2.57,3.67" fill="none" stroke="#14303f" stroke-linecap="round" stroke-miterlimit="10"/><path d="M589.97,289.06s-9.59,2.66-4.27,5.23" fill="none" stroke="#14303f" stroke-linecap="round" stroke-miterlimit="10"/><path d="M599.23,283.38c-3.81,.2-5.61-1.44-5.61-1.44" fill="none" stroke="#14303f" stroke-linecap="round" stroke-miterlimit="10"/><path d="M592.78,285.97s1.57,1.66,4.94,1.54" fill="none" stroke="#14303f" stroke-linecap="round" stroke-miterlimit="10"/></g></g></symbol><use href="#body" x="456" y="0" id="david7-body" class="reveal" /><g id="david7" class="reveal"><g><polygon points="947.06 255.92 1035.91 254.66 1041.01 324.15 952.15 325.17 947.06 255.92" fill="#14303f" stroke="#14303f" stroke-linecap="round" stroke-linejoin="round" stroke-width="3.24"/><g><path d="M967.05,94.22s0,0,0,0c0,0,0,0,0,0Z" fill="#14303f"/><path d="M1052.96,208.82c-.86-12.49-5.11-27.86-5.11-27.86,0,0-3.26-68.61-11.82-74.19-2.43-1.59-32.7-13.01-32.7-13.01,0,0,.34,11.95-17.62,11.95-14.55,0-17.57-8.21-18.49-10.92-.16-.46-.17-.56-.17-.58-.23,.14-23.34,14.24-33.29,20.23-10,6.02-5.96,72.48-5.96,72.48,0,0-2.04,13.34-.81,28.64,1.24,15.29-.42,40.05,3.23,44.24l13.62-.34s-1.25-3.21-1.04-6.04c.51-6.75,1.24-23.3,3.43-30.22,1.1-3.46,2.18-8.28,3.11-12.35h.05c-.87,7.29-5.84,32.81-3.29,38.43,0,2.9-.29,10.39-.29,10.39,0,0,16.37,4.17,33.58,3.96,30.74-.37,58.31-5.28,58.31-5.28,0,0-.93-7.38-1.11-10.42,1.91-3.3,.17-17.46-1.84-30.14h.04c3.5,10.51,6.91,23.15,7.33,29.99,.37,5.9,.64,7.68,.64,7.68h12.99s1-1.49,1.18-4.22c.18-2.73-2.74-24.26-3.99-42.42Z" fill="#14303f" stroke="#14303f" stroke-linecap="round" stroke-linejoin="round"/></g><g><g><path d="M1005.95,143.78s2.22-.9,1.97-3.6c0,0,2.48-.13,3.39,.62,0,0-3.65,3.58-5.36,2.98Z" fill="#fff"/><path d="M1003.41,140.46s-.13,2.87,1.87,3.27c0,0-2.12,.44-4.7-2.01,0,0,1.34-1.28,2.83-1.26Z" fill="#fff"/><circle cx="1005" cy="140.85" r=".94" fill="#fff"/><path d="M999.62,140.13s4.09-7.27,11.02-1.6c0,0-6.9-4.1-10.31,2.19l-.71-.6Z" fill="#fff"/></g><g><path d="M988.56,132.19s2.22-.9,1.97-3.6c0,0,2.48-.13,3.39,.62,0,0-3.65,3.58-5.36,2.98Z" fill="#fff"/><path d="M986.02,128.87s-.13,2.87,1.87,3.27c0,0-2.12,.44-4.7-2.01,0,0,1.34-1.28,2.83-1.26Z" fill="#fff"/><circle cx="987.61" cy="129.26" r=".94" fill="#fff"/><path d="M982.22,128.54s4.09-7.27,11.02-1.6c0,0-6.9-4.1-10.31,2.19l-.71-.6Z" fill="#fff"/></g><g><path d="M951.72,133.14s2.22-.9,1.97-3.6c0,0,2.48-.13,3.39,.62,0,0-3.65,3.58-5.36,2.98Z" fill="#fff"/><path d="M949.18,129.83s-.13,2.87,1.87,3.27c0,0-2.12,.44-4.7-2.01,0,0,1.34-1.28,2.83-1.26Z" fill="#fff"/><circle cx="950.77" cy="130.21" r=".94" fill="#fff"/><path d="M945.39,129.49s4.09-7.27,11.02-1.6c0,0-6.9-4.1-10.31,2.19l-.71-.6Z" fill="#fff"/></g><g><path d="M1023.53,131.29s2.22-.9,1.97-3.6c0,0,2.48-.13,3.39,.62,0,0-3.65,3.58-5.36,2.98Z" fill="#fff"/><path d="M1021,127.97s-.13,2.87,1.87,3.27c0,0-2.12,.44-4.7-2.01,0,0,1.34-1.28,2.83-1.26Z" fill="#fff"/><circle cx="1022.58" cy="128.36" r=".94" fill="#fff"/><path d="M1017.2,127.64s4.09-7.27,11.02-1.6c0,0-6.9-4.1-10.31,2.19l-.71-.6Z" fill="#fff"/></g><g><path d="M951.07,107.84s2.22-.9,1.97-3.6c0,0,2.48-.13,3.39,.62,0,0-3.65,3.58-5.36,2.98Z" fill="#fff"/><path d="M948.56,105.24c-.73,.37-1.51,.66-2.18,1.14,2.26,1.77,4.01,1.41,4.01,1.41-1.35-.27-1.73-1.67-1.83-2.55Z" fill="#fff"/><path d="M950.47,104.04c-.43,.31-.86,.62-1.29,.92,.03,.51,.45,.9,.96,.89,.52-.01,.93-.45,.92-.97-.01-.39-.25-.71-.59-.85Z" fill="#fff"/></g><g><path d="M1022.88,105.99s2.22-.9,1.97-3.6c0,0,2.09-.08,3,.67,0,0-3.26,3.53-4.97,2.93Z" fill="#fff"/><path d="M1020.34,102.67s-.13,2.87,1.87,3.27c0,0-2.12,.44-4.7-2.01,0,0,1.34-1.28,2.83-1.26Z" fill="#fff"/><circle cx="1021.93" cy="103.06" r=".94" fill="#fff"/><path d="M1019.04,99.67c-1.62,1.11-2.5,2.66-2.5,2.66l.71,.6c.79-1.47,1.78-2.37,2.83-2.89-.1-.04-.79-.31-1.04-.37Z" fill="#fff"/></g><g><path d="M970.7,144.69s2.22-.9,1.97-3.6c0,0,2.48-.13,3.39,.62,0,0-3.65,3.58-5.36,2.98Z" fill="#fff"/><path d="M968.16,141.37s-.13,2.87,1.87,3.27c0,0-2.12,.44-4.7-2.01,0,0,1.34-1.28,2.83-1.26Z" fill="#fff"/><circle cx="969.75" cy="141.76" r=".94" fill="#fff"/><path d="M964.37,141.04s4.09-7.27,11.02-1.6c0,0-6.9-4.1-10.31,2.19l-.71-.6Z" fill="#fff"/></g><g><path d="M1006.6,168.79s2.22-.9,1.97-3.6c0,0,2.48-.13,3.39,.62,0,0-3.65,3.58-5.36,2.98Z" fill="#fff"/><path d="M1004.06,165.48s-.13,2.87,1.87,3.27c0,0-2.12,.44-4.7-2.01,0,0,1.34-1.28,2.83-1.26Z" fill="#fff"/><circle cx="1005.65" cy="165.86" r=".94" fill="#fff"/><path d="M1000.26,165.14s4.09-7.27,11.02-1.6c0,0-6.9-4.1-10.31,2.19l-.71-.6Z" fill="#fff"/></g><g><path d="M989.2,157.21s2.22-.9,1.97-3.6c0,0,2.48-.13,3.39,.62,0,0-3.65,3.58-5.36,2.98Z" fill="#fff"/><path d="M986.67,153.89s-.13,2.87,1.87,3.27c0,0-2.12,.44-4.7-2.01,0,0,1.34-1.28,2.83-1.26Z" fill="#fff"/><circle cx="988.25" cy="154.28" r=".94" fill="#fff"/><path d="M982.87,153.55s4.09-7.27,11.02-1.6c0,0-6.9-4.1-10.31,2.19l-.71-.6Z" fill="#fff"/></g><g><path d="M952.37,158.16s2.22-.9,1.97-3.6c0,0,2.48-.13,3.39,.62,0,0-3.65,3.58-5.36,2.98Z" fill="#fff"/><path d="M949.83,154.84c-.37,0-.72,.07-1.06,.18v2.4c1.71,.94,2.92,.69,2.92,.69-2-.4-1.87-3.27-1.87-3.27Z" fill="#fff"/><circle cx="951.42" cy="155.23" r=".94" fill="#fff"/><path d="M948.78,151.68v1.01c3.56-2.58,8.28,.22,8.28,.22-3.57-2.93-6.38-2.41-8.28-1.23Z" fill="#fff"/></g><g><path d="M1027.59,152.74c-.77-.07-1.44-.04-1.44-.04,.25,2.7-1.97,3.6-1.97,3.6,.95,.34,2.52-.64,3.72-1.56-.01-.06-.23-1.39-.3-2Z" fill="#fff"/><path d="M1021.64,152.98s-.13,2.87,1.87,3.27c0,0-2.12,.44-4.7-2.01,0,0,1.34-1.28,2.83-1.26Z" fill="#fff"/><circle cx="1023.23" cy="153.37" r=".94" fill="#fff"/><path d="M1027.16,149.88c-5.89-3.32-9.32,2.77-9.32,2.77l.71,.6c2.37-4.38,6.43-3.72,8.68-2.92-.02-.15-.05-.3-.08-.45Z" fill="#fff"/></g><g><path d="M971.35,169.71s2.22-.9,1.97-3.6c0,0,2.48-.13,3.39,.62,0,0-3.65,3.58-5.36,2.98Z" fill="#fff"/><path d="M968.81,166.39s-.13,2.87,1.87,3.27c0,0-2.12,.44-4.7-2.01,0,0,1.34-1.28,2.83-1.26Z" fill="#fff"/><circle cx="970.4" cy="166.78" r=".94" fill="#fff"/><path d="M965.01,166.06s4.09-7.27,11.02-1.6c0,0-6.9-4.1-10.31,2.19l-.71-.6Z" fill="#fff"/></g><g><path d="M1007.28,195.39s2.22-.9,1.97-3.6c0,0,2.48-.13,3.39,.62,0,0-3.65,3.58-5.36,2.98Z" fill="#fff"/><path d="M1004.75,192.07s-.13,2.87,1.87,3.27c0,0-2.12,.44-4.7-2.01,0,0,1.34-1.28,2.83-1.26Z" fill="#fff"/><circle cx="1006.33" cy="192.46" r=".94" fill="#fff"/><path d="M1000.95,191.74s4.09-7.27,11.02-1.6c0,0-6.9-4.1-10.31,2.19l-.71-.6Z" fill="#fff"/></g><g><path d="M989.89,183.8s2.22-.9,1.97-3.6c0,0,2.48-.13,3.39,.62,0,0-3.65,3.58-5.36,2.98Z" fill="#fff"/><path d="M987.36,180.49s-.13,2.87,1.87,3.27c0,0-2.12,.44-4.7-2.01,0,0,1.34-1.28,2.83-1.26Z" fill="#fff"/><circle cx="988.94" cy="180.87" r=".94" fill="#fff"/><path d="M983.56,180.15s4.09-7.27,11.02-1.6c0,0-6.9-4.1-10.31,2.19l-.71-.6Z" fill="#fff"/></g><g><path d="M953.06,184.76s2.22-.9,1.97-3.6c0,0,2.48-.13,3.39,.62,0,0-3.65,3.58-5.36,2.98Z" fill="#fff"/><path d="M950.52,181.44c-.5,0-.98,.13-1.4,.32v2.06c1.89,1.17,3.27,.89,3.27,.89-2-.4-1.87-3.27-1.87-3.27Z" fill="#fff"/><circle cx="952.11" cy="181.83" r=".94" fill="#fff"/><path d="M949.12,178.51v1.05c3.59-3.04,8.62-.05,8.62-.05-3.79-3.11-6.73-2.34-8.62-1Z" fill="#fff"/></g><g><path d="M1024.87,182.9s2.22-.9,1.97-3.6c0,0,2.48-.13,3.39,.62,0,0-3.65,3.58-5.36,2.98Z" fill="#fff"/><path d="M1022.33,179.58s-.13,2.87,1.87,3.27c0,0-2.12,.44-4.7-2.01,0,0,1.34-1.28,2.83-1.26Z" fill="#fff"/><circle cx="1023.92" cy="179.97" r=".94" fill="#fff"/><path d="M1018.53,179.25s4.09-7.27,11.02-1.6c0,0-6.9-4.1-10.31,2.19l-.71-.6Z" fill="#fff"/></g><g><path d="M972.03,196.31s2.22-.9,1.97-3.6c0,0,2.48-.13,3.39,.62,0,0-3.65,3.58-5.36,2.98Z" fill="#fff"/><path d="M969.5,192.99s-.13,2.87,1.87,3.27c0,0-2.12,.44-4.7-2.01,0,0,1.34-1.28,2.83-1.26Z" fill="#fff"/><circle cx="971.08" cy="193.38" r=".94" fill="#fff"/><path d="M965.7,192.65s4.09-7.27,11.02-1.6c0,0-6.9-4.1-10.31,2.19l-.71-.6Z" fill="#fff"/></g><g><path d="M1007.92,219.82s2.22-.9,1.97-3.6c0,0,2.48-.13,3.39,.62,0,0-3.65,3.58-5.36,2.98Z" fill="#fff"/><path d="M1005.38,216.5s-.13,2.87,1.87,3.27c0,0-2.12,.44-4.7-2.01,0,0,1.34-1.28,2.83-1.26Z" fill="#fff"/><circle cx="1006.97" cy="216.89" r=".94" fill="#fff"/><path d="M1001.58,216.17s4.09-7.27,11.02-1.6c0,0-6.9-4.1-10.31,2.19l-.71-.6Z" fill="#fff"/></g><g><path d="M990.52,208.23s2.22-.9,1.97-3.6c0,0,2.48-.13,3.39,.62,0,0-3.65,3.58-5.36,2.98Z" fill="#fff"/><path d="M987.99,204.91s-.13,2.87,1.87,3.27c0,0-2.12,.44-4.7-2.01,0,0,1.34-1.28,2.83-1.26Z" fill="#fff"/><circle cx="989.57" cy="205.3" r=".94" fill="#fff"/><path d="M984.19,204.58s4.09-7.27,11.02-1.6c0,0-6.9-4.1-10.31,2.19l-.71-.6Z" fill="#fff"/></g><g><path d="M953.69,209.19s2.22-.9,1.97-3.6c0,0,2.48-.13,3.39,.62,0,0-3.65,3.58-5.36,2.98Z" fill="#fff"/><path d="M951.15,205.87c-.52,0-1.03,.15-1.46,.35v2c1.92,1.22,3.33,.93,3.33,.93-2-.4-1.87-3.27-1.87-3.27Z" fill="#fff"/><circle cx="952.74" cy="206.26" r=".94" fill="#fff"/><path d="M949.69,202.99v1.06c3.59-3.13,8.68-.11,8.68-.11-3.83-3.14-6.8-2.32-8.68-.95Z" fill="#fff"/></g><g><path d="M1025.5,207.33s2.22-.9,1.97-3.6c0,0,2.48-.13,3.39,.62,0,0-3.65,3.58-5.36,2.98Z" fill="#fff"/><path d="M1022.96,204.01s-.13,2.87,1.87,3.27c0,0-2.12,.44-4.7-2.01,0,0,1.34-1.28,2.83-1.26Z" fill="#fff"/><circle cx="1024.55" cy="204.4" r=".94" fill="#fff"/><path d="M1019.17,203.68s4.09-7.27,11.02-1.6c0,0-6.9-4.1-10.31,2.19l-.71-.6Z" fill="#fff"/></g><g><path d="M991.21,234.69s2.22-.9,1.97-3.6c0,0,2.48-.13,3.39,.62,0,0-3.65,3.58-5.36,2.98Z" fill="#fff"/><path d="M988.67,231.37s-.13,2.87,1.87,3.27c0,0-2.12,.44-4.7-2.01,0,0,1.34-1.28,2.83-1.26Z" fill="#fff"/><circle cx="990.26" cy="231.76" r=".94" fill="#fff"/><path d="M984.87,231.04s4.09-7.27,11.02-1.6c0,0-6.9-4.1-10.31,2.19l-.71-.6Z" fill="#fff"/></g><g><path d="M954.37,235.64s2.22-.9,1.97-3.6c0,0,2.48-.13,3.39,.62,0,0-3.65,3.58-5.36,2.98Z" fill="#fff"/><path d="M951.84,232.32s-.13,2.87,1.87,3.27c0,0-2.12,.44-4.7-2.01,0,0,1.34-1.28,2.83-1.26Z" fill="#fff"/><circle cx="953.42" cy="232.71" r=".94" fill="#fff"/><path d="M948.04,231.99s4.09-7.27,11.02-1.6c0,0-6.9-4.1-10.31,2.19l-.71-.6Z" fill="#fff"/></g><g><path d="M1026.18,233.78s2.22-.9,1.97-3.6c0,0,2.48-.13,3.39,.62,0,0-3.65,3.58-5.36,2.98Z" fill="#fff"/><path d="M1023.65,230.46s-.13,2.87,1.87,3.27c0,0-2.12,.44-4.7-2.01,0,0,1.34-1.28,2.83-1.26Z" fill="#fff"/><circle cx="1025.23" cy="230.85" r=".94" fill="#fff"/><path d="M1019.85,230.13s4.09-7.27,11.02-1.6c0,0-6.9-4.1-10.31,2.19l-.71-.6Z" fill="#fff"/></g><g><path d="M972.67,220.73s2.22-.9,1.97-3.6c0,0,2.48-.13,3.39,.62,0,0-3.65,3.58-5.36,2.98Z" fill="#fff"/><path d="M970.13,217.42s-.13,2.87,1.87,3.27c0,0-2.12,.44-4.7-2.01,0,0,1.34-1.28,2.83-1.26Z" fill="#fff"/><circle cx="971.72" cy="217.8" r=".94" fill="#fff"/><path d="M966.33,217.08s4.09-7.27,11.02-1.6c0,0-6.9-4.1-10.31,2.19l-.71-.6Z" fill="#fff"/></g><g><path d="M1005.29,118.11s2.22-.9,1.97-3.6c0,0,2.48-.13,3.39,.62,0,0-3.65,3.58-5.36,2.98Z" fill="#fff"/><path d="M1002.75,114.79s-.13,2.87,1.87,3.27c0,0-2.12,.44-4.7-2.01,0,0,1.34-1.28,2.83-1.26Z" fill="#fff"/><circle cx="1004.34" cy="115.18" r=".94" fill="#fff"/><path d="M998.95,114.46s4.09-7.27,11.02-1.6c0,0-6.9-4.1-10.31,2.19l-.71-.6Z" fill="#fff"/></g><g><path d="M970.04,119.02s2.22-.9,1.97-3.6c0,0,2.48-.13,3.39,.62,0,0-3.65,3.58-5.36,2.98Z" fill="#fff"/><path d="M967.5,115.7s-.13,2.87,1.87,3.27c0,0-2.12,.44-4.7-2.01,0,0,1.34-1.28,2.83-1.26Z" fill="#fff"/><circle cx="969.09" cy="116.09" r=".94" fill="#fff"/><path d="M963.7,115.37s4.09-7.27,11.02-1.6c0,0-6.9-4.1-10.31,2.19l-.71-.6Z" fill="#fff"/></g><g><path d="M1040.41,150.28s2.12-1.1,1.62-3.77c0,0,2.46-.36,3.43,.3,0,0-3.3,3.9-5.05,3.47Z" fill="#fff"/><path d="M1037.57,147.21s.14,2.87,2.16,3.08c0,0-2.07,.64-4.87-1.56,0,0,1.21-1.4,2.7-1.52Z" fill="#fff"/><circle cx="1039.19" cy="147.45" r=".94" fill="#fff"/><path d="M1033.76,147.24s3.39-7.62,10.82-2.62c0,0-7.26-3.44-10.05,3.15l-.76-.53Z" fill="#fff"/></g><g><path d="M1047.4,171.31c-1.08-.15-2.38,.04-2.38,.04,.5,2.66-1.62,3.77-1.62,3.77,1.12,.28,2.89-1.23,4-2.34v-1.47Z" fill="#fff"/><path d="M1040.56,172.06s.14,2.87,2.16,3.08c0,0-2.07,.64-4.87-1.56,0,0,1.21-1.4,2.7-1.52Z" fill="#fff"/><circle cx="1042.17" cy="172.29" r=".94" fill="#fff"/><path d="M1047.21,169.23c-7.18-4.53-10.46,2.85-10.46,2.85l.76,.53c2.42-5.71,8.2-3.88,9.7-3.3v-.08Z" fill="#fff"/></g><g><path d="M1046.57,201.54s2.12-1.1,1.62-3.77c0,0,2.46-.36,3.43,.3,0,0-3.3,3.9-5.05,3.47Z" fill="#fff"/><path d="M1043.73,198.47s.14,2.87,2.16,3.08c0,0-2.07,.64-4.87-1.56,0,0,1.21-1.4,2.7-1.52Z" fill="#fff"/><circle cx="1045.35" cy="198.71" r=".94" fill="#fff"/><path d="M1039.92,198.5s3.39-7.62,10.82-2.62c0,0-7.26-3.44-10.05,3.15l-.76-.53Z" fill="#fff"/></g><g><path d="M1049.49,225.8s2.12-1.1,1.62-3.77c0,0,2.23-.36,3.21,.3,0,0-3.08,3.9-4.83,3.47Z" fill="#fff"/><path d="M1046.65,222.74s.14,2.87,2.16,3.08c0,0-2.07,.64-4.87-1.56,0,0,1.21-1.4,2.7-1.52Z" fill="#fff"/><circle cx="1048.27" cy="222.97" r=".94" fill="#fff"/><path d="M1042.84,222.76s3.39-7.62,10.82-2.62c0,0-7.26-3.44-10.05,3.15l-.76-.53Z" fill="#fff"/></g><g><path d="M934.92,154.91s2.27-.76,2.19-3.47c0,0,2.48,.03,3.34,.83,0,0-3.87,3.34-5.53,2.63Z" fill="#fff"/><path d="M932.59,151.43s-.31,2.86,1.66,3.38c0,0-2.14,.31-4.57-2.3,0,0,1.42-1.2,2.91-1.08Z" fill="#fff"/><circle cx="934.15" cy="151.92" r=".94" fill="#fff"/><path d="M928.82,150.86s4.54-7,11.1-.9c0,0-6.63-4.53-10.42,1.54l-.67-.64Z" fill="#fff"/></g><g><path d="M933.93,181.5s2.27-.76,2.19-3.47c0,0,2.48,.03,3.34,.83,0,0-3.87,3.34-5.53,2.63Z" fill="#fff"/><path d="M931.61,178.02s-.31,2.86,1.66,3.38c0,0-2.14,.31-4.57-2.3,0,0,1.42-1.2,2.91-1.08Z" fill="#fff"/><circle cx="933.17" cy="178.51" r=".94" fill="#fff"/><path d="M927.84,177.45s4.54-7,11.1-.9c0,0-6.63-4.53-10.42,1.54l-.67-.64Z" fill="#fff"/></g><g><path d="M933.03,205.92s2.27-.76,2.19-3.47c0,0,2.48,.03,3.34,.83,0,0-3.87,3.34-5.53,2.63Z" fill="#fff"/><path d="M930.71,202.44s-.31,2.86,1.66,3.38c0,0-2.14,.31-4.57-2.3,0,0,1.42-1.2,2.91-1.08Z" fill="#fff"/><circle cx="932.27" cy="202.93" r=".94" fill="#fff"/><path d="M926.94,201.88s4.54-7,11.1-.9c0,0-6.63-4.53-10.42,1.54l-.67-.64Z" fill="#fff"/></g><g><path d="M932.05,232.36s2.27-.76,2.19-3.47c0,0,2.48,.03,3.34,.83,0,0-3.87,3.34-5.53,2.63Z" fill="#fff"/><path d="M929.73,228.89c-.9-.07-1.77,.34-2.32,.67v.99c2.17,1.98,3.98,1.72,3.98,1.72-1.97-.52-1.66-3.38-1.66-3.38Z" fill="#fff"/><circle cx="931.29" cy="229.38" r=".94" fill="#fff"/><path d="M927.34,226.77v1.22c3.85-4.57,9.72-.57,9.72-.57-4.4-4.1-7.9-2.28-9.72-.65Z" fill="#fff"/></g></g><path d="M945.82,259.67s16.37,2.38,33.58,2.17c30.74-.37,58.31-3.5,58.31-3.5" fill="none" stroke="#5d73a2" stroke-linecap="round" stroke-linejoin="round" stroke-width=".5"/><g><line x1="1051.33" y1="248.91" x2="1051.33" y2="253.78" fill="none" stroke="#5d73a2" stroke-linecap="round" stroke-linejoin="round" stroke-width=".5"/><line x1="1047.82" y1="248.93" x2="1048.01" y2="253.77" fill="none" stroke="#5d73a2" stroke-linecap="round" stroke-linejoin="round" stroke-width=".5"/><line x1="1054.67" y1="248.89" x2="1054.24" y2="253.8" fill="none" stroke="#5d73a2" stroke-linecap="round" stroke-linejoin="round" stroke-width=".5"/><line x1="1044.55" y1="248.96" x2="1045.16" y2="253.74" fill="none" stroke="#5d73a2" stroke-linecap="round" stroke-linejoin="round" stroke-width=".5"/></g><g><line x1="937.25" y1="253.04" x2="937.7" y2="258.06" fill="none" stroke="#5d73a2" stroke-linecap="round" stroke-linejoin="round" stroke-width=".5"/><line x1="934.04" y1="253.16" x2="934.73" y2="258.07" fill="none" stroke="#5d73a2" stroke-linecap="round" stroke-linejoin="round" stroke-width=".5"/><line x1="930.7" y1="253.18" x2="931.57" y2="258.21" fill="none" stroke="#5d73a2" stroke-linecap="round" stroke-linejoin="round" stroke-width=".5"/><line x1="940.4" y1="253.03" x2="940.45" y2="257.99" fill="none" stroke="#5d73a2" stroke-linecap="round" stroke-linejoin="round" stroke-width=".5"/></g><g><line x1="992.94" y1="254.07" x2="993.33" y2="259.88" fill="none" stroke="#5d73a2" stroke-linecap="round" stroke-linejoin="round" stroke-width=".5"/><line x1="997.29" y1="253.86" x2="997.69" y2="259.66" fill="none" stroke="#5d73a2" stroke-linecap="round" stroke-linejoin="round" stroke-width=".5"/><line x1="1001.65" y1="253.77" x2="1002.05" y2="259.58" fill="none" stroke="#5d73a2" stroke-linecap="round" stroke-linejoin="round" stroke-width=".5"/><line x1="1006.01" y1="253.65" x2="1006.41" y2="259.45" fill="none" stroke="#5d73a2" stroke-linecap="round" stroke-linejoin="round" stroke-width=".5"/><line x1="1010.37" y1="253.53" x2="1010.76" y2="259.34" fill="none" stroke="#5d73a2" stroke-linecap="round" stroke-linejoin="round" stroke-width=".5"/><line x1="1014.72" y1="253.44" x2="1015.12" y2="259.25" fill="none" stroke="#5d73a2" stroke-linecap="round" stroke-linejoin="round" stroke-width=".5"/><line x1="1018.59" y1="253.19" x2="1018.79" y2="259" fill="none" stroke="#5d73a2" stroke-linecap="round" stroke-linejoin="round" stroke-width=".5"/><line x1="1022.75" y1="252.56" x2="1022.75" y2="258.79" fill="none" stroke="#5d73a2" stroke-linecap="round" stroke-linejoin="round" stroke-width=".5"/><line x1="962.6" y1="254.68" x2="962.83" y2="260.04" fill="none" stroke="#5d73a2" stroke-linecap="round" stroke-linejoin="round" stroke-width=".5"/><line x1="966.99" y1="254.5" x2="967.22" y2="260.3" fill="none" stroke="#5d73a2" stroke-linecap="round" stroke-linejoin="round" stroke-width=".5"/><line x1="971.26" y1="254.67" x2="971.65" y2="260.48" fill="none" stroke="#5d73a2" stroke-linecap="round" stroke-linejoin="round" stroke-width=".5"/><line x1="975.51" y1="254.58" x2="975.9" y2="260.38" fill="none" stroke="#5d73a2" stroke-linecap="round" stroke-linejoin="round" stroke-width=".5"/><line x1="948.98" y1="252.07" x2="948.98" y2="258.12" fill="none" stroke="#5d73a2" stroke-linecap="round" stroke-linejoin="round" stroke-width=".5"/><line x1="953.46" y1="253.09" x2="953.35" y2="259.25" fill="none" stroke="#5d73a2" stroke-linecap="round" stroke-linejoin="round" stroke-width=".5"/><line x1="958.02" y1="254.19" x2="958.02" y2="259.91" fill="none" stroke="#5d73a2" stroke-linecap="round" stroke-linejoin="round" stroke-width=".5"/><line x1="979.86" y1="254.49" x2="980.26" y2="260.3" fill="none" stroke="#5d73a2" stroke-linecap="round" stroke-linejoin="round" stroke-width=".5"/><line x1="984.21" y1="254.3" x2="984.61" y2="260.1" fill="none" stroke="#5d73a2" stroke-linecap="round" stroke-linejoin="round" stroke-width=".5"/><line x1="988.59" y1="254.16" x2="988.99" y2="259.97" fill="none" stroke="#5d73a2" stroke-linecap="round" stroke-linejoin="round" stroke-width=".5"/><line x1="1026.99" y1="252.11" x2="1027.04" y2="258.34" fill="none" stroke="#5d73a2" stroke-linecap="round" stroke-linejoin="round" stroke-width=".5"/><line x1="1031.19" y1="251.55" x2="1031.15" y2="257.77" fill="none" stroke="#5d73a2" stroke-linecap="round" stroke-linejoin="round" stroke-width=".5"/><line x1="1034.89" y1="251.05" x2="1035.12" y2="257.27" fill="none" stroke="#5d73a2" stroke-linecap="round" stroke-linejoin="round" stroke-width=".5"/></g><g><path d="M967.05,94.22s0,0,0,0c0,0,0,0,0,0Z" fill="none" stroke="#14303f" stroke-miterlimit="10"/><path d="M1056.95,251.24c.18-2.73-2.74-24.26-3.99-42.42-.86-12.49-5.11-27.86-5.11-27.86,0,0-3.26-68.61-11.82-74.19-2.43-1.59-32.7-13.01-32.7-13.01" fill="none" stroke="#14303f" stroke-linecap="round" stroke-linejoin="round"/><path d="M926.99,215.56c1.24,15.29-.42,40.05,3.23,44.24" fill="none" stroke="#14303f" stroke-linecap="round" stroke-linejoin="round"/><path d="M967.05,94.22c-.23,.14-23.34,14.24-33.29,20.23" fill="none" stroke="#14303f" stroke-linecap="round" stroke-linejoin="round"/></g></g></g><use href="#body" x="306.5" y="0" id="david6-body" class="reveal" /><g id="david6" class="reveal"><g><path d="M877.71,165.6c13.05,2.55,26.48-8.92,26.48-8.92,0,0-15.25-48.64-17.86-49.91-2.61-1.26-31.8-12.56-31.8-12.56,0,0-.56,12.29-18.52,12.29-14.55,0-19.44-12.04-19.44-12.06-.23,.15-29.9,18.75-32.51,20-.49,.23-3.46,3.78-3.53,10.11h0c-3.51,14.38-8.51,38.61-8.51,38.61,0,0,23.07,11.29,27.55,2.31h0s.92,1.71,.92,1.71l-4.46,90.75s20.45,5.71,47.1,4.82c26.65-.89,43.77-8.31,43.77-8.31l-9.18-88.84h0Z" fill="#fff" stroke="#14303f" stroke-linecap="round" stroke-linejoin="round"/><path d="M784,114.45c-.63,.3-5.42,6.15-2.72,16.37" fill="none" stroke="#14303f" stroke-linecap="round" stroke-linejoin="round"/><polyline points="877.71 165.6 877.34 162.73 879.62 156.36" fill="none" stroke="#14303f" stroke-linecap="round" stroke-miterlimit="10"/><path d="M788.94,131.32s2.72,19.6,5.93,25.57l5.54,10.3" fill="none" stroke="#14303f" stroke-linecap="round" stroke-miterlimit="10"/><path d="M878.56,132.31s-3.62,18.21-2.84,23.76c.56,4.04,1.2,4.76,1.62,6.65" fill="none" stroke="#14303f" stroke-linecap="round" stroke-miterlimit="10"/><path d="M889.03,120.33s1.52-5.21-.46-9.19" fill="none" stroke="#14303f" stroke-linecap="round" stroke-miterlimit="10"/><path d="M796.82,214.71c.58-2.69,1.03-5.7,1.59-6.9,.4-8.14,2-40.62,2-40.62l-.92-1.71c-4.5,7.16-19.04,1.12-19.04,1.12l.05,6.21c22.03-6.21,16.29,41.42,16.31,41.9Z" fill="#14303f"/><path d="M894.82,166.93l-.51-4.06c-8.02,4.62-16.66,2.73-16.66,2.73,0,0,2.69,32.06,4.11,40.09,.34,.53,.71,1.28,1.1,2.19-.23-2.43-5.02-40,11.97-40.94Z" fill="#14303f"/><g><path d="M803.04,136.84l5.15-.07c4.66-.07,8.65,1.84,8.74,8.39,.1,6.79-3.9,8.8-8.5,8.87l-5.15,.07-.24-17.26Zm5.57,13.43c3.2-.04,4.13-1.5,4.08-5-.04-3.19-1.04-4.67-4.26-4.63l-1.12,.02,.13,9.63,1.17-.02Z" fill="#14303f"/><path d="M818.37,145.25c-.09-6.32,3.79-9.01,7.59-9.06s7.73,2.53,7.82,8.85c.09,6.32-3.79,9.01-7.56,9.06s-7.75-2.53-7.84-8.85Zm11.16-.16c-.04-3.17-1.32-5.09-3.52-5.06s-3.45,1.98-3.4,5.16c.04,3.17,1.32,5.21,3.55,5.17s3.42-2.1,3.38-5.27Z" fill="#14303f"/><path d="M835.84,136.38l4.17-.06,5.88,9.6h.04s-.14-9.68-.14-9.68l3.88-.05,.24,17.26-3.92,.05-6.13-9.57h-.04s.14,9.65,.14,9.65l-3.88,.05-.24-17.26Z" fill="#14303f"/><path d="M853.54,140.33l-1.4,.02-.06-4.2,4.17-.06,.05,3.82-1.82,4.5-1.95,.03,1-4.12Z" fill="#14303f"/><path d="M862.14,139.88l-4.51,.06-.05-3.87,13.26-.19,.05,3.87-4.51,.06,.19,13.39-4.24,.06-.19-13.39Z" fill="#14303f"/></g></g></g><use href="#body" x="152" y="0" id="david5-body" class="reveal" /><g id="david5" class="reveal"><g><path d="M642.93,258.33l88.63-3.66,5.1,59.7c-46.74,8.6-88.85,.87-88.85,.87l-4.87-56.9Z" fill="#14303f" stroke="#14303f" stroke-linecap="round" stroke-linejoin="round"/><g><path d="M663.06,93.74s0,0,0,0c0,0,0,0,0,0Z" fill="#14303f" stroke="#14303f" stroke-linecap="round" stroke-linejoin="round"/><path d="M748.61,208.82c-.86-12.49-5.11-27.86-5.11-27.86,0,0-3.26-68.61-11.82-74.19-2.43-1.59-33.22-13.03-33.22-13.03,0,0,1.05,11.77-16.91,11.77-14.55,0-17.4-8.47-18.32-11.18-.16-.46-.17-.56-.17-.58-.23,.14-23.71,14.71-33.65,20.7-10,6.02-5.96,72.48-5.96,72.48,0,0-2.04,13.34-.81,28.64,1.24,15.29-.42,40.05,3.23,44.24l13.62-.34s-1.25-3.21-1.04-6.04c.51-6.75,1.24-23.3,3.43-30.22,1.1-3.46,2.19-7.92,3.11-11.99h.02c-.87,7.61-4.84,30.11-2.33,35.64,0,2.9-.53,13.38-.53,13.38,0,0,19.78,4.62,36.98,4.41,30.74-.37,54.29-6.79,54.29-6.79,0,0-.72-9.79-.9-12.83,1.88-3.24,0-14.77-2-26.93h0c3.43,10.41,6.82,23.02,7.23,29.69,.37,5.9,.64,7.68,.64,7.68h12.99s1-1.49,1.18-4.22c.18-2.73-2.74-24.26-3.99-42.42Z" fill="#14303f" stroke="#14303f" stroke-linecap="round" stroke-linejoin="round"/></g><g><polygon points="671.42 110.27 673.27 110.95 670.32 115.56 672.7 114.94 665.66 123.33 668.96 117.26 667.2 117.92 671.42 110.27" fill="#fff"/><polygon points="676.25 111.62 678.2 111.88 676.32 117.02 678.5 115.9 673.45 125.62 675.36 118.97 673.78 120 676.25 111.62" fill="#fff"/><polygon points="691.47 125.09 694.41 124.21 695.04 132.71 697.42 129.71 696.51 146.77 694.94 136.1 693.37 138.58 691.47 125.09" fill="#fff"/><polygon points="688.54 149.24 693.79 148.37 692.54 159.94 697.91 156.28 693.04 186.99 692.77 165.58 688.84 169.61 688.54 149.24" fill="#fff"/><polygon points="700.07 146.73 705.06 144.89 706 156.5 710.6 151.89 711.59 182.96 707.3 161.99 704.2 166.69 700.07 146.73" fill="#fff"/><polygon points="712.52 141.44 717.08 138.7 720.18 149.92 723.82 144.53 730.63 174.87 722.48 155.07 720.32 160.27 712.52 141.44" fill="#fff"/><polygon points="729.94 136.39 726.91 130.62 723.04 134.28 729.94 144.21 729.94 136.39" fill="#fff"/><polygon points="675.54 149.47 680.86 149.68 677.27 160.76 683.28 158.27 672.27 187.34 676.36 166.33 671.69 169.48 675.54 149.47" fill="#fff"/><polygon points="662.6 146.97 667.76 148.26 661.99 158.38 668.38 157.17 651.66 183.38 659.95 163.64 654.74 165.77 662.6 146.97" fill="#fff"/><path d="M637.26,141.05l5.65-3.99-4.13-3.36-1.54,1.4c0,1.98,.01,3.97,.02,5.95Z" fill="#fff"/><polygon points="654.26 143.87 649.55 141.4 641.32 152.6 641.32 157.24 643.06 156.98 641.32 159.33 641.32 163.66 652.77 152.67 646.27 152.34 654.26 143.87" fill="#fff"/><polygon points="681.36 111.91 683.33 111.82 682.4 117.21 684.35 115.71 681.12 126.18 681.81 119.31 680.44 120.6 681.36 111.91" fill="#fff"/><polygon points="667.28 108.08 668.91 109.18 664.95 112.95 667.41 112.91 658.58 119.39 663.23 114.28 661.36 114.5 667.28 108.08" fill="#fff"/><polygon points="663.98 105.28 665.34 106.71 660.66 109.53 663.07 110.03 653.04 114.44 658.69 110.46 656.81 110.27 663.98 105.28" fill="#fff"/><polygon points="661.65 101.94 662.66 103.63 657.47 105.34 659.7 106.36 648.95 108.44 655.34 105.81 653.55 105.21 661.65 101.94" fill="#fff"/><path d="M660.67,100.15l-.68-1.85-7.4,1.49c.03,.27-.04,.56-.21,.77l.68,.38-3.73,.77c.01,.22-.05,.43-.16,.62l8.07-.04-2.01-1.41,5.42-.73Z" fill="#fff"/><polygon points="686.16 111.53 688.07 111.07 688.17 116.54 689.8 114.71 688.59 125.6 687.98 118.71 686.88 120.24 686.16 111.53" fill="#fff"/><polygon points="690.74 110.38 692.52 109.55 693.73 114.88 694.95 112.75 695.98 123.66 693.98 117.04 693.21 118.76 690.74 110.38" fill="#fff"/><polygon points="695.29 108.06 696.84 106.85 699.18 111.8 699.91 109.45 703.29 119.88 699.9 113.85 699.52 115.7 695.29 108.06" fill="#fff"/><polygon points="698.85 104.91 700.1 103.39 703.46 107.71 703.67 105.26 709.23 114.69 704.61 109.55 704.65 111.44 698.85 104.91" fill="#fff"/><polygon points="701.07 101.97 702 100.24 706.15 103.8 705.86 101.36 713.2 109.5 707.65 105.38 708.06 107.22 701.07 101.97" fill="#fff"/><polygon points="702.87 98.48 703.42 96.59 708.21 99.23 707.43 96.9 716.27 103.37 710 100.48 710.78 102.19 702.87 98.48" fill="#fff"/><polygon points="683.69 126.28 686.83 125.97 685.82 134.68 688.81 132.11 684.55 149.17 685.05 138.09 682.97 140.28 683.69 126.28" fill="#fff"/><polygon points="675.45 126.07 678.6 126.35 675.93 134.71 679.36 132.77 671.92 148.69 674.53 137.91 672.07 139.67 675.45 126.07" fill="#fff"/><polygon points="659.81 120.51 662.54 122.09 656.61 128.56 660.54 128.23 647.1 139.56 653.99 130.87 651.02 131.43 659.81 120.51" fill="#fff"/><polygon points="667.52 124.2 670.53 125.15 666.14 132.75 669.9 131.58 659.24 145.55 664.09 135.58 661.31 136.77 667.52 124.2" fill="#fff"/><polygon points="653.89 115.76 656.2 117.92 648.95 122.87 652.85 123.44 637.18 131.41 645.87 124.53 642.85 124.4 653.89 115.76" fill="#fff"/><polygon points="645.79 104.59 647.26 107.38 638.8 109.7 642.29 111.51 638 112.11 631.64 113 631.64 113 644.52 105.03 645.79 104.59" fill="#fff"/><path d="M650.94,112.62l-1.86-2.55-12.46,6.42,2.94,.69-6.64,3.47c.03,.24,.05,.48,.09,.72l13.61-3.95-3.72-1.3,8.04-3.5Z" fill="#fff"/><polygon points="698.88 122.41 701.64 120.89 704.12 129.3 705.87 125.77 708.63 143.13 704.75 132.74 703.7 135.57 698.88 122.41" fill="#fff"/><polygon points="705.92 117.96 708.29 115.88 712.52 123.56 713.47 119.74 719.91 136.09 713.88 126.78 713.47 129.78 705.92 117.96" fill="#fff"/><polygon points="710.89 113.12 712.86 110.66 718.35 117.5 718.63 113.57 727.78 128.58 720.24 120.44 720.35 123.47 710.89 113.12" fill="#fff"/><path d="M730.03,116.51c.12-.4,.24-.8,.36-1.2l-7.69-8.77,.4,3.92-6.58-5.8-1.53,2.76,11.1,8.56-.62-2.96,4.56,3.47Z" fill="#fff"/></g><path d="M644.32,156.21s1.19,44.5,.86,53.22c-.19,4.8-5.24,31.35-2.49,37.42,0,2.9-.53,13.38-.53,13.38,0,0,19.78,4.62,36.98,4.41,30.74-.37,54.29-6.79,54.29-6.79,0,0-.72-9.79-.9-12.83,3.24-5.59-4.71-35.8-5.11-51.43-.27-10.64-3.6-37.39-3.6-37.39" fill="none" stroke="#14303f" stroke-linecap="round" stroke-linejoin="round"/><path d="M731.67,106.77c-2.43-1.59-33.22-13.03-33.22-13.03,0,0,1.05,11.77-16.91,11.77-14.55,0-17.4-8.47-18.32-11.18-.16-.46-.17-.56-.17-.58-.23,.15-23.71,14.71-33.65,20.7,6.04,7.18,14.91,41.76,14.91,41.76l.74,54.75,85.14,6.09-6.6-60.84s3.9-39.19,8.07-49.43Z" fill="none"/><path d="M663.06,93.74s0,0,0,0c0,0,0,0,0,0Z" fill="#14303f"/><path d="M644.32,156.21s1.19,44.5,.86,53.22c-.19,4.8-5.24,31.35-2.49,37.42,0,2.9-.53,13.38-.53,13.38,0,0,19.78,4.62,36.98,4.41,30.74-.37,54.29-6.79,54.29-6.79,0,0-.72-9.79-.9-12.83,3.24-5.59-4.71-35.8-5.11-51.43-.27-10.64-3.6-37.39-3.6-37.39" fill="none" stroke="#14303f" stroke-linecap="round" stroke-linejoin="round"/><path d="M642.16,260.23s19.78,4.62,36.98,4.41c30.74-.37,54.29-6.79,54.29-6.79" fill="none" stroke="#5d73a2" stroke-linecap="round" stroke-linejoin="round" stroke-width=".5"/><path d="M698.45,93.74s30.79,11.45,33.22,13.03" fill="none" stroke="#14303f" stroke-linecap="round" stroke-linejoin="round"/><path d="M623.45,186.92s-4.04-66.45,5.96-72.48c10-6.02,33.66-20.7,33.66-20.7" fill="none" stroke="#14303f" stroke-linecap="round" stroke-linejoin="round"/><path d="M730.2,217.05l-6.6-60.84s3.9-39.19,8.07-49.43l-1.47,110.27Z" fill="#14303f"/><path d="M647,212l-.74-54.75s-8.87-34.58-14.91-41.76l15.65,96.52Z" fill="#14303f"/></g></g><use href="#body" x="0" y="0" id="david4-body" class="default" /><g id="david4" class="default"><g><path d="M491.21,258.33l88.18-3.66,4.86,58.61c-46.74,8.6-88.85,.87-88.85,.87l-4.18-55.82Z" fill="#14303f" stroke="#14303f" stroke-linecap="round" stroke-linejoin="round"/><path d="M494.51,203.47s-2.6,12.82-4.79,19.74c-2.2,6.92-2.93,23.47-3.43,30.22-.21,2.83,1.04,6.04,1.04,6.04l-13.62,.34c-3.65-4.19-1.99-28.95-3.23-44.24s.81-28.64,.81-28.64c0,0-4.04-66.45,5.96-72.48,10-6.02,33.17-21.13,33.39-20.49,.92,2.72,4.4,11.32,18.94,11.65,16.84,.39,17.2-11.67,17.2-11.67,0,0,30.3,11.25,32.73,12.84,8.56,5.59,11.82,74.19,11.82,74.19,0,0,4.26,15.37,5.11,27.86,1.25,18.16,4.17,39.69,3.99,42.42s-1.18,4.22-1.18,4.22h-12.99s-.28-1.78-.64-7.68c-.55-8.9-6.93-29.96-10.74-39.61" fill="#fff" stroke="#14303f" stroke-linecap="round" stroke-linejoin="round"/><path d="M587.22,248.49s6.85-.86,11.7,0" fill="none" stroke="#5d73a2" stroke-linecap="round" stroke-linejoin="round" stroke-width=".5"/><path d="M473.06,252.4s6.85-.86,11.7,0" fill="none" stroke="#5d73a2" stroke-linecap="round" stroke-linejoin="round" stroke-width=".5"/><path d="M507.19,97.83s4.81,12.72,22.53,12.72,21.07-13.86,21.07-13.86" fill="none" stroke="#5d73a2" stroke-linecap="round" stroke-linejoin="round" stroke-width=".5"/><path d="M579.85,249.68s1.94,6.87,1.26,9.48c-.68,2.61-36.26,35.15-41.9,35.78-25.66,2.86-47.24-1.35-47.47-3.92-3.76-42.91-.08-50.22-.08-50.22l88.2,8.88Z" fill="#fff" stroke="#14303f" stroke-linecap="round" stroke-miterlimit="10"/><path d="M492.15,156.21s1.19,44.5,.86,53.22c-.19,4.8-4.99,29.17-2.24,35.25,0,2.9,26.86,1.92,26.86,1.92,0,0,.12,12.88,2.13,12.88,39.02,0,61.84-5.57,61.84-5.57,0,0-1.49-9.49-1.67-12.53,3.24-5.59-4.26-32.14-4.66-47.78-.27-10.64-3.6-37.39-3.6-37.39" fill="#fff" stroke="#14303f" stroke-linecap="round" stroke-linejoin="round"/><path d="M520.19,246.41c14.83,.51,36.15-.58,57.59-4.23" fill="none" stroke="#5d73a2" stroke-linecap="round" stroke-linejoin="round" stroke-width=".5"/><path d="M537.27,194.21l25.68-21.02-27.12-19.13-.15-4.26,27.09,18.52-.81-22.52-7.81-5.14,7.47-4.26-.29-8-20.75,11.83,14.41,9.49,.17,4.83-23.45-16.03-22.24,17.66-.17-4.83,13.7-10.49-21.54-10.32,.29,8,7.76,3.72-7.42,5.69,.81,22.52,25.69-20.41,.15,4.27-25.47,21,26.91,19.13,.16,4.42-27.09-18.52,.81,22.52,7.81,5.14-7.47,4.26,.29,8,20.75-11.83-14.41-9.49-.17-4.83,23.45,16.03,22.24-17.66,.17,4.83-13.7,10.49,21.54,10.32-.29-8-7.76-3.72,7.42-5.69-.81-22.52-25.69,20.41-.16-4.41Zm13.97-20.6l-14.29,11.69-.16-4.47,8.57-7.02-9.05-6.38-.16-4.47,15.09,10.64Zm-36.31,1.3l14.13-11.65,.16,4.43-8.57,7.02,9.05,6.38,.16,4.43-14.93-10.61Z" fill="#14303f"/></g></g><use href="#body" x="-152" y="0" id="david3-body" class="reveal" /><g id="david3" class="reveal"><g><path d="M444.25,208.83c-.86-12.49-5.11-27.86-5.11-27.86,0,0-3.26-68.61-11.82-74.19-2.43-1.59-31.8-12.56-31.8-12.56,0,0-.56,12.29-18.52,12.29-14.55,0-18.35-8.77-19.27-11.48-.16-.46-.17-.56-.17-.58-.23,.14-22.56,14.01-32.51,20-10,6.02-5.96,72.48-5.96,72.48,0,0-2.04,13.34-.81,28.64,1.24,15.29-.42,40.05,3.23,44.24l13.62-.34s-1.25-3.21-1.04-6.04c.51-6.75,1.24-23.3,3.43-30.22,2.2-6.92,4.79-19.74,4.79-19.74,.11,5.29,.07,9.44-.23,11.25-.8,4.9-7.08,22.97-3.97,29.74-.75,6.55-1.27,14.96-1.27,14.96,0,0,21.39,5.72,38.6,5.51,30.74-.37,53.68-7.94,53.68-7.94,0,0-.51-7.98-1.19-13.53,2.22-5.05-.94-18.67-4-31.95,3.82,10.54,8.99,28.3,9.49,36.28,.37,5.9,.64,7.68,.64,7.68h12.99s1-1.49,1.18-4.22c.18-2.73-2.74-24.26-3.99-42.42Z" fill="#14303f" stroke="#14303f" stroke-linecap="round" stroke-linejoin="round"/><path d="M336.85,259.42s21.39,5.72,38.6,5.51c30.74-.37,53.68-7.94,53.68-7.94" fill="none" stroke="#5d73a2" stroke-linecap="round" stroke-linejoin="round" stroke-width=".5"/><path d="M410.22,121.54c-6.36-.42-10.46,4.76-10.46,4.76,0,0-13.16-11.33-20.71,.97-7.55,12.3,.11,37.54,16.97,45.45,0,0,.29,3.53,2.34,3.64,2.05,.11,3.45-1.94,4.53-2.37,1.08-.43,1.4,.11,1.73-1.73,.32-1.83,5.83-12.41,7.98-15.64,2.16-3.24,7.12-15.53,7.34-21.58,.22-6.04-3.34-13.08-9.71-13.5Zm3.13,20.94c-1.83,7.55-12.51,21.14-12.51,21.14-8.09-5.61-11.11-14.02-12.73-20.05-1.62-6.03-.22-11.66,1.4-11.99,1.62-.32,4.32,.86,4.75,6.47,.43,5.61,2.48,7.34,6.58,7.11,4.1-.23,3.67-4.73,3.13-9.48s3.13-10.46,7.66-8.63c4.53,1.83,3.56,7.87,1.73,15.43Z" fill="#fff"/></g></g><use href="#body" x="-304" y="0" id="david2-body" class="reveal" /><g id="david2" class="reveal"><g><path d="M186.63,258.33l88.63-3.66,4.86,58.61c-46.74,8.6-88.85,.87-88.85,.87l-4.63-55.82Z" fill="#14303f" stroke="#14303f" stroke-linecap="round" stroke-linejoin="round"/><path d="M190.38,203.47s-2.6,12.82-4.79,19.74c-2.2,6.92-2.93,23.47-3.43,30.22-.21,2.83,1.04,6.04,1.04,6.04l-13.62,.34c-3.65-4.19-1.99-28.95-3.23-44.24s.81-28.64,.81-28.64c0,0-4.04-66.45,5.96-72.48,10-6.02,33.44-20.81,33.44-20.81,0,0-.05-.05,.16,.58,.92,2.72,4.11,11.29,18.65,11.29,17.96,0,16.79-11.88,16.79-11.88,0,0,30.79,11.56,33.22,13.15,8.56,5.59,11.82,74.19,11.82,74.19,0,0,4.26,15.37,5.11,27.86,1.25,18.16,4.17,39.69,3.99,42.42s-1.18,4.22-1.18,4.22h-12.99s-.28-1.78-.64-7.68c-.55-8.9-6.93-29.96-10.74-39.61" fill="#fff" stroke="#14303f" stroke-linecap="round" stroke-linejoin="round"/><path d="M186,137.51c2.03-.6,4-1.11,5.99-1.72,7.28-2,13.52,.05,20.49,2.39,12.53,4.32,31.5,14.69,38.87-.28,5.66-9.57,5.72-27.52,14.46-35.18-9.85-3.9-23.66-9.09-23.66-9.09,1.39,15.7-33.23,15.83-35.61,0-.23,.15-23.48,14.82-33.43,20.81-2.03,1.23-3.49,4.95-4.51,10.12,2.87,1.63,10.45,15.01,17.41,12.94Z" fill="#14303f" stroke="#14303f" stroke-linecap="round" stroke-linejoin="round"/><path d="M283.1,248.49s6.85-.86,11.7,0" fill="none" stroke="#5d73a2" stroke-linecap="round" stroke-linejoin="round" stroke-width=".5"/><path d="M168.94,252.4s6.85-.86,11.7,0" fill="none" stroke="#5d73a2" stroke-linecap="round" stroke-linejoin="round" stroke-width=".5"/><path d="M188.02,156.21s1.19,44.5,.86,53.22c-.19,4.8-4.92,35.12-2.17,41.19,0,2.9-1.41,9.61-1.41,9.61,0,0,20.33,4.62,37.54,4.41,30.74-.37,55.07-6.79,55.07-6.79,0,0-1.49-6.71-1.67-9.75,3.24-5.59-4.72-38.88-5.12-54.51-.27-10.64-3.6-37.39-3.6-37.39" fill="#fff" stroke="#14303f" stroke-linecap="round" stroke-linejoin="round"/><path d="M189.17,251.76s38.23,8.44,84.82-2.72" fill="none" stroke="#5d73a2" stroke-linecap="round" stroke-linejoin="round" stroke-width=".5"/></g></g><use href="#body" x="-454" y="0" id="david1-body" class="reveal" /><g id="david1" class="reveal"><g><path d="M116.79,167.52c13.05,2.55,26.48-8.92,26.48-8.92,0,0-15.25-48.64-17.86-49.91-2.34-1.13-25.88-10.27-30.87-12.2-1.95-3.06-4.52-5.58-4.52-5.58,0,0-2.28,5.88-9.46,9.12l-5.7,1.7-3.96-1.11c-7.2-3.14-11.69-9.72-11.69-9.72,0,0-2.37,2.52-4.25,5.88-4.48,2.81-29.44,18.43-31.82,19.58-.49,.23-3.46,3.78-3.53,10.11h0c-3.51,14.38-8.51,38.61-8.51,38.61,0,0,23.07,11.29,27.55,2.31h0s.92,1.71,.92,1.71l-4.46,90.75s20.45,5.71,47.1,4.82c26.65-.89,43.77-8.31,43.77-8.31l-9.48-91.72,.3,2.88Z" fill="#14303f" stroke="#14303f" stroke-linecap="round" stroke-linejoin="round"/><path d="M35.1,259.85s20.45,5.71,47.1,4.82c26.65-.89,43.77-8.31,43.77-8.31" fill="none" stroke="#5d73a2" stroke-linecap="round" stroke-linejoin="round" stroke-width=".5"/><line x1="38.65" y1="167.4" x2="38.65" y2="167.4" fill="none" stroke="#5d73a2" stroke-linecap="round" stroke-linejoin="round" stroke-width=".5"/><path d="M114.87,157.99c.77,5.55,1.44,4.89,1.92,9.53" fill="none" stroke="#262521" stroke-linecap="round" stroke-miterlimit="10"/><g><polygon points="89.66 124.01 99.45 124.41 91.88 118.24 94.55 127.57 97.84 118.45 89.66 124.01" fill="#fff" stroke="#fff" stroke-linecap="round" stroke-linejoin="round"/><polygon points="97.24 107.31 107.03 106.92 99.46 113.08 102.13 103.76 105.42 112.87 97.24 107.31" fill="#fff" stroke="#fff" stroke-linecap="round" stroke-linejoin="round"/><polyline points="71.08 104.66 71.08 132.55 77.78 132.55" fill="none" stroke="#5d73a2" stroke-linecap="round" stroke-linejoin="round" stroke-width=".5"/><circle cx="75.07" cy="108.99" r="1.55" fill="#5d73a2" stroke="#14303f" stroke-miterlimit="10"/><circle cx="75.07" cy="117.93" r="1.55" fill="#5d73a2" stroke="#14303f" stroke-miterlimit="10"/><circle cx="75.07" cy="126.86" r="1.55" fill="#5d73a2" stroke="#14303f" stroke-miterlimit="10"/><polygon points="42.83 106.99 52.62 106.6 45.05 112.77 47.73 103.44 51.01 112.55 42.83 106.99" fill="#fff" stroke="#fff" stroke-linecap="round" stroke-linejoin="round"/><polygon points="50.4 124.01 60.18 124.41 52.62 118.24 55.29 127.57 58.57 118.45 50.4 124.01" fill="#fff" stroke="#fff" stroke-linecap="round" stroke-linejoin="round"/></g><g><path d="M74.15,101.73l-15.42,13.84s-6.09-14.31-4.17-18.04" fill="none" stroke="#5d73a2" stroke-linecap="round" stroke-linejoin="round" stroke-width=".5"/><path d="M74.86,101.73l15.63,13.84s6.88-13.76,4.96-17.49" fill="none" stroke="#5d73a2" stroke-linecap="round" stroke-linejoin="round" stroke-width=".5"/></g><line x1="116.49" y1="164.64" x2="118.77" y2="158.27" fill="none" stroke="#5d73a2" stroke-linecap="round" stroke-linejoin="round" stroke-width=".5"/><path d="M28.09,133.23s2.72,19.6,5.93,25.57l5.54,10.3" fill="none" stroke="#5d73a2" stroke-linecap="round" stroke-linejoin="round" stroke-width=".5"/><path d="M117.71,134.22s-3.62,18.21-2.84,23.76,1.44,4.89,1.92,9.53" fill="none" stroke="#5d73a2" stroke-linecap="round" stroke-linejoin="round" stroke-width=".5"/></g></g>
</svg>
