<?xml version="1.0" encoding="UTF-8"?><svg id="dusting-zone" xmlns="http://www.w3.org/2000/svg" width="1070" height="250" xmlns:xlink="http://www.w3.org/1999/xlink" viewBox="0 0 1070 250"><defs><pattern id="New_Pattern_2" x="0" y="0" width="8.91" height="8.91" patternTransform="translate(-5984.81 -1195.94) scale(.61)" patternUnits="userSpaceOnUse" viewBox="0 0 8.91 8.91"><g><rect width="8.91" height="8.91" fill="none"/><path d="M0,1.46C.8,1.46,1.46,.8,1.46,0H0V1.46Z" fill="#14303f"/><circle cx="4.45" cy="4.45" r="1.46" fill="#14303f"/><path d="M7.45,0c0,.8,.65,1.46,1.46,1.46V0h-1.46Z" fill="#14303f"/><path d="M8.91,7.45c-.8,0-1.46,.65-1.46,1.46h1.46v-1.46Z" fill="#14303f"/><path d="M0,7.45v1.46H1.46c0-.8-.65-1.46-1.46-1.46Z" fill="#14303f"/></g></pattern></defs><g class="simple"><g class="fill-turquoise"><rect x="432.8" y="54.55" width="204.41" height="140.9" fill="#b4b9c5"/></g><path d="M481.1,178.7c4.5-5.66,10.12-10.45,16.01-14.61,11.84-8.38,22.79-14.1,34.39-22.83,2.95-2.22,6.27-5.49,8.71-8.26,2.51-2.85,6.54-5.41,8.56-8.62,4.19-6.69,7.87-13.63,12.54-20.02,9.31-12.72,20.94-23.52,31.47-35.23,6.86-7.63,11.21-10.01,17.18-14.57h-177.17V195.45h38.36c2.74-5.91,5.88-11.63,9.94-16.75Z" fill="url(#New_Pattern_2)"/><g><rect x="530.84" y="112.34" width="47.97" height="39.57" fill="#eaebef" stroke="#14303f" stroke-linejoin="round"/><g><polygon class="fill-white" points="548.25 137.07 548.25 121.6 553.57 121.6 555.61 119.03 560.12 119.03 562.28 122.88 566.65 124.16 569.28 128 571.94 129 571.94 131.88 571.94 147.78 569.37 147.78 569.37 152.69 566.8 152.69 566.8 158.15 550.83 158.15 550.83 155.58 548.27 155.58 548.27 153.02 545.7 153.02 545.7 150.45 543.13 150.45 543.13 145.01 540.56 145.01 540.56 142.44 537.82 142.44 537.82 137.07 548.25 137.07" fill="#eaebef"/><g><rect x="564.23" y="142.44" width="2.57" height="10.25" fill="#14303f"/><rect x="553.04" y="119.03" width="2.57" height="18.02" fill="#14303f"/><rect x="560.14" y="119.03" width="2.57" height="18.02" fill="#14303f"/><rect x="566.65" y="124.16" width="2.57" height="12.89" fill="#14303f"/><rect x="571.94" y="129" width="2.57" height="18.78" fill="#14303f"/><polygon points="566.8 158.15 564.1 158.15 564.1 160.72 569.37 160.72 569.37 152.69 566.8 152.69 566.8 158.15" fill="#14303f"/><rect x="569.37" y="147.78" width="2.57" height="4.92" fill="#14303f"/><rect x="561.4" y="155.58" width="2.7" height="2.57" fill="#14303f"/><polygon points="550.83 155.58 548.27 155.58 548.27 158.15 548.25 158.15 548.25 160.72 561.4 160.72 561.4 158.15 550.83 158.15 550.83 155.58" fill="#14303f"/><rect x="545.7" y="153.02" width="2.57" height="2.57" fill="#14303f"/><rect x="543.13" y="150.45" width="2.57" height="2.57" fill="#14303f"/><rect x="540.56" y="145.01" width="2.57" height="5.44" fill="#14303f"/><rect x="535.25" y="137.07" width="2.57" height="5.38" fill="#14303f"/><rect x="548.27" y="119.03" width="4.78" height="2.57" fill="#14303f"/><rect x="555.61" y="116.46" width="4.51" height="2.57" fill="#14303f"/><rect x="562.71" y="121.6" width="3.94" height="2.57" fill="#14303f"/><rect x="569.21" y="126.43" width="2.72" height="2.57" fill="#14303f"/><polygon points="542.98 139.62 545.7 139.62 545.7 142.44 548.27 142.44 548.27 121.6 545.7 121.6 545.7 137.05 542.98 137.05 542.98 134.5 537.82 134.5 537.82 137.07 542.98 137.07 542.98 139.62" fill="#14303f"/><rect x="537.82" y="142.44" width="2.75" height="2.57" fill="#14303f"/><rect x="553.57" y="142.44" width="2.57" height="10.25" fill="#14303f"/><rect x="558.86" y="142.44" width="2.57" height="10.25" fill="#14303f"/></g></g></g><rect x="424.48" y="47.23" width="221.04" height="7.32" fill="#eaebef" stroke="#14303f" stroke-linejoin="round"/><rect x="424.48" y="195.45" width="221.04" height="7.32" fill="#eaebef" stroke="#14303f" stroke-linejoin="round"/><polygon points="645.52 47.23 637.2 54.55 637.2 195.45 645.52 202.77 645.52 47.23" fill="#fff" stroke="#14303f" stroke-linejoin="round"/><polygon points="424.48 47.23 432.8 54.55 432.8 195.45 424.48 202.77 424.48 47.23" fill="#fff" stroke="#14303f" stroke-linejoin="round"/></g></svg>
