<?xml version="1.0" encoding="UTF-8"?><svg id="top-chef" xmlns="http://www.w3.org/2000/svg" width="1070" height="250" viewBox="0 0 1070 250"><g id="coat5" class="reveal"><path d="M982.82,157.19l-7.24-91.27c-.13-1.6-1.01-3.04-2.38-3.87l-9.58-5.84c-.25-.19-.52-.36-.81-.5l-.28-.14-34-16.84v-1.84c0-1.81-.97-3.47-2.55-4.36-.76-.43-1.61-.64-2.45-.64-.9,0-1.8,.24-2.59,.72-.16,.1-3.98,2.42-7.84,5.52-3.97,3.18-6.59,6.06-7.98,8.77-1.39-2.72-4.01-5.59-7.98-8.77-3.86-3.1-7.68-5.42-7.84-5.52-.8-.48-1.69-.72-2.59-.72-.85,0-1.69,.21-2.45,.64-1.57,.89-2.55,2.55-2.55,4.36v1.82l-38.17,18.45c-.19,.09-.38,.2-.56,.32l-15.14,9.91c-1.41,.92-2.26,2.5-2.26,4.18v86.55c-.95,.91-1.54,2.19-1.54,3.61v12.74c0,2.76,2.24,5,5,5h22.02l-.36,27.89c-.02,1.34,.5,2.63,1.44,3.58,.94,.95,2.22,1.49,3.56,1.49h22.44v.7c0,2.76,2.24,5,5,5h71.87c1.35,0,2.63-.54,3.57-1.5s1.45-2.26,1.42-3.61l-.74-33.55h21.46c2.76,0,5-2.24,5-5v-12.74c0-2.01-1.19-3.74-2.9-4.54Z" fill="#fff"/><g class="fill-yellow"><path d="M978.17,161.73l-7.57-95.42-10.01-6.1v-.03s-.28-.14-.28-.14h0s-36.75-18.2-36.75-18.2l-.03,.02v-4.97s-14.61,8.85-14.61,14.61v1.64l-7.61,.96v-2.6c0-5.76-14.61-14.61-14.61-14.61v4.96l-40.99,19.82-15.14,9.91v90.16h-1.54v12.74h27.09l-.43,32.96h27.44v5.7h71.87l-.86-38.66h26.57v-12.74h-2.55Z" fill="#eaebef"/></g><g class="fill-red"><polygon points="863.31 161.82 861.87 71.74 845.17 62.12 860.31 72.03 860.31 160.04 830.57 157.34 830.57 161.73 862.24 161.72 862.24 174.46 856.12 174.46 856.03 178.76 864.7 175.58 864.7 161.82 863.31 161.82" fill="#b4b9c5"/><polygon points="901.3 54.09 880.22 55.04 879.59 207.35 883.13 207.42 883.77 56.35 901.3 54.09" fill="#b4b9c5"/><polygon points="978.17 161.73 977.89 158.24 958.61 158.94 955.08 113.69 958.47 96.76 958.41 76.99 951.48 110.62 954.14 174.46 958.04 174.46 957.06 161.73 978.17 161.73" fill="#b4b9c5"/><circle cx="891.76" cy="65.71" r="2.76" fill="#b4b9c5"/><circle cx="917.12" cy="65.71" r="2.76" fill="#b4b9c5"/><circle cx="891.76" cy="94.75" r="2.76" fill="#b4b9c5"/><circle cx="917.12" cy="94.75" r="2.76" fill="#b4b9c5"/><circle cx="891.76" cy="155.51" r="2.76" fill="#b4b9c5"/><circle cx="917.12" cy="155.51" r="2.76" fill="#b4b9c5"/><circle cx="891.76" cy="185.79" r="2.76" fill="#b4b9c5"/><circle cx="917.12" cy="185.79" r="2.76" fill="#b4b9c5"/><circle cx="891.76" cy="125.37" r="2.76" fill="#b4b9c5"/><circle cx="917.12" cy="125.37" r="2.76" fill="#b4b9c5"/></g><path d="M909.03,53.1l-.02-1.52c0-5.98,13.68-14.1,14.26-14.44l.51,.86c-.14,.08-13.77,8.17-13.77,13.57l.02,1.51h-1Z" fill="#14303f"/><path d="M901.26,54.1h-1s.02-2.36,.02-2.36c0-5.4-13.63-13.49-13.77-13.57l.51-.86c.58,.34,14.26,8.46,14.26,14.43l-.02,2.35Z" fill="#14303f"/><polyline points="919.18 52.53 884.41 56.93 883.77 212.96" fill="none" stroke="#fff" stroke-miterlimit="10" stroke-width="2"/><path d="M978.17,161.73l-7.57-95.42-10.29-6.27-36.75-18.2-.03-4.95s-14.61,8.85-14.61,14.61v1.64l-7.61,.96v-2.6c0-5.76-14.61-14.61-14.61-14.61v4.96l-40.99,19.82-15.14,9.91v90.16h-1.54v12.74h27.09l-.43,32.96h27.44v5.7h71.87l-.86-38.66h26.57v-12.74h-2.55Z" fill="none" stroke="#14303f" stroke-linejoin="round"/><polyline points="919.18 51.87 883.77 56.35 883.13 207.46" fill="none" stroke="#14303f" stroke-linecap="round" stroke-linejoin="round"/><polyline points="860.31 161.72 860.31 72.03 845.18 62.12" fill="none" stroke="#14303f" stroke-linejoin="round"/><polyline points="856.12 174.46 862.24 174.46 862.24 161.72 830.57 161.72" fill="none" stroke="#14303f" stroke-linejoin="round"/><polyline points="954.14 174.46 951.48 110.62 958.63 75.91" fill="none" stroke="#14303f" stroke-linecap="round" stroke-miterlimit="10"/><line x1="978.17" y1="161.73" x2="953.63" y2="161.73" fill="none" stroke="#14303f" stroke-miterlimit="10"/><polyline points="972.43 89.4 963.33 90.3 965.11 112.51 974.16 111.57" fill="none" stroke="#14303f" stroke-linejoin="round"/><g><path d="M929.81,85.59v-2.14c0-.66-.52-.94-1.39-.94s-1.34,.3-1.34,.94v2.14c0,.64,.52,.94,1.34,.94,.87,0,1.39-.28,1.39-.94h0Zm-1.08-2.1v2.06c0,.15-.12,.23-.29,.23s-.29-.08-.29-.23v-2.06c0-.15,.12-.23,.28-.23,.18,0,.3,.07,.3,.23h0Z" fill="#14303f"/><polygon points="925.8 82.6 923.03 82.6 923.03 83.36 923.88 83.36 923.88 86.46 924.95 86.46 924.95 83.36 925.8 83.36 925.8 82.6 925.8 82.6" fill="#14303f"/><path d="M933.3,82.6c.4,0,.72,.33,.72,.72v1.07c0,.4-.33,.72-.72,.72h-.87v1.35h-1.08v-3.87h1.95Zm-.87,.76v.96h.37c.12,0,.22-.1,.22-.22v-.53c0-.12-.1-.22-.22-.22h-.37Z" fill="#14303f"/><path d="M941.99,83.45v.65h-1.08v-.62c0-.16-.12-.23-.3-.23-.16,0-.28,.07-.28,.23v2.06c0,.15,.12,.23,.29,.23s.29-.08,.29-.23v-.65h1.08v.69c0,.66-.52,.94-1.39,.94s-1.34-.3-1.34-.94v-2.14c0-.64,.52-.94,1.34-.94,.87,0,1.39,.28,1.39,.94h0Z" fill="#14303f"/><polygon points="943.39 82.6 944.47 82.6 944.47 84.08 945.04 84.08 945.04 82.6 946.12 82.6 946.12 86.46 945.04 86.46 945.04 84.87 944.47 84.87 944.47 86.46 943.39 86.46 943.39 82.6 943.39 82.6" fill="#14303f"/><polygon points="947.81 82.6 949.92 82.6 949.92 83.36 948.88 83.36 948.88 84.08 949.86 84.08 949.86 84.87 948.88 84.87 948.88 85.7 949.92 85.7 949.92 86.46 947.81 86.46 947.81 82.6 947.81 82.6" fill="#14303f"/><polygon points="951.36 82.6 953.48 82.6 953.48 83.36 952.43 83.36 952.43 84.08 953.41 84.08 953.41 84.87 952.43 84.87 952.43 86.46 951.36 86.46 951.36 82.6 951.36 82.6" fill="#14303f"/><path d="M936.61,79.3c.47,.57,1.05,3.52,1.04,5.49,0,.21-.03,.55-.09,.71-.06,.18-.22,.08-.35,.06-.08,0-.21-.01-.35,.04-.13,.05-.24,.15-.22,.25,.05,.35,.1,.64,.12,1.02,0,.48-.08,.87-.09,1.32,0,.22,.06,.33,.13,.39,.06,.06,.11,.07,.11,.2,0,.06-.11,.22-.23,.38-.07,.09-.13,.17-.2,.22-.05,.04-.18,.03-.24,.02-.13-.03-.29-.1-.31-.17-.04-.15-.05-.35-.05-.47,.06-2.91,.17-7.17,.72-9.44h0Z" fill="#14303f"/></g><g class="fill-yellow-2"><circle cx="891.76" cy="63.74" r="2.76" fill="#fff" stroke="#14303f" stroke-miterlimit="10"/><circle cx="917.12" cy="63.74" r="2.76" fill="#fff" stroke="#14303f" stroke-miterlimit="10"/><circle cx="891.76" cy="92.78" r="2.76" fill="#fff" stroke="#14303f" stroke-miterlimit="10"/><circle cx="917.12" cy="92.78" r="2.76" fill="#fff" stroke="#14303f" stroke-miterlimit="10"/><circle cx="891.76" cy="153.53" r="2.76" fill="#fff" stroke="#14303f" stroke-miterlimit="10"/><circle cx="917.12" cy="153.53" r="2.76" fill="#fff" stroke="#14303f" stroke-miterlimit="10"/><circle cx="891.76" cy="123.4" r="2.76" fill="#fff" stroke="#14303f" stroke-miterlimit="10"/><circle cx="917.12" cy="123.4" r="2.76" fill="#fff" stroke="#14303f" stroke-miterlimit="10"/><circle cx="891.76" cy="183.81" r="2.76" fill="#fff" stroke="#14303f" stroke-miterlimit="10"/><circle cx="917.12" cy="183.81" r="2.76" fill="#fff" stroke="#14303f" stroke-miterlimit="10"/></g><line x1="963.65" y1="94.3" x2="972.75" y2="93.48" fill="none" stroke="#14303f" stroke-miterlimit="10" stroke-width=".5"/></g><g id="coat4" class="reveal"><path d="M797.86,157.19l-7.24-91.27c-.13-1.6-1.01-3.04-2.38-3.87l-9.58-5.84c-.25-.19-.52-.36-.81-.5l-.28-.14-34-16.84v-1.84c0-1.81-.97-3.47-2.55-4.36-.76-.43-1.61-.64-2.45-.64-.9,0-1.8,.24-2.59,.72-.16,.1-3.98,2.42-7.84,5.52-3.97,3.18-6.59,6.06-7.98,8.77-1.39-2.72-4.01-5.59-7.98-8.77-3.86-3.1-7.68-5.42-7.84-5.52-.8-.48-1.69-.72-2.59-.72-.85,0-1.69,.21-2.45,.64-1.57,.89-2.55,2.55-2.55,4.36v1.82l-38.17,18.45c-.19,.09-.38,.2-.56,.32l-15.14,9.91c-1.41,.92-2.26,2.5-2.26,4.18v86.55c-.95,.91-1.54,2.19-1.54,3.61v12.74c0,2.76,2.24,5,5,5h22.02l-.36,27.89c-.02,1.34,.5,2.63,1.44,3.58,.94,.95,2.22,1.49,3.56,1.49h22.44v.7c0,2.76,2.24,5,5,5h71.87c1.35,0,2.63-.54,3.57-1.5s1.45-2.26,1.42-3.61l-.74-33.55h21.46c2.76,0,5-2.24,5-5v-12.74c0-2.01-1.19-3.74-2.9-4.54Z" fill="#fff"/><g class="fill-turquoise"><path d="M793.2,161.73l-7.57-95.42-10.01-6.1v-.03s-.28-.14-.28-.14h0s-36.75-18.2-36.75-18.2l-.03,.02v-4.97s-14.61,8.85-14.61,14.61v1.64l-7.61,.96v-2.6c0-5.76-14.61-14.61-14.61-14.61v4.96l-40.99,19.82-15.14,9.91v90.16h-1.54v12.74h27.09l-.43,32.96h27.44v5.7h71.87l-.86-38.66h26.57v-12.74h-2.55Z" fill="#eaebef"/></g><g class="fill-blue"><polygon points="678.35 161.82 676.9 71.74 660.21 62.12 675.35 72.03 675.35 160.04 645.61 157.34 645.61 161.73 677.27 161.72 677.27 174.46 671.16 174.46 671.07 178.76 679.74 175.58 679.74 161.82 678.35 161.82" fill="#b4b9c5"/><polygon points="716.34 54.09 695.25 55.04 694.63 207.35 698.17 207.42 698.8 56.35 716.34 54.09" fill="#b4b9c5"/><polygon points="793.2 161.73 792.93 158.24 773.64 158.94 770.12 113.69 773.51 96.76 773.45 76.99 766.52 110.62 769.18 174.46 773.08 174.46 772.1 161.73 793.2 161.73" fill="#b4b9c5"/><circle cx="706.8" cy="65.71" r="2.76" fill="#b4b9c5"/><circle cx="732.15" cy="65.71" r="2.76" fill="#b4b9c5"/><circle cx="706.8" cy="94.75" r="2.76" fill="#b4b9c5"/><circle cx="732.15" cy="94.75" r="2.76" fill="#b4b9c5"/><circle cx="706.8" cy="155.51" r="2.76" fill="#b4b9c5"/><circle cx="732.15" cy="155.51" r="2.76" fill="#b4b9c5"/><circle cx="706.8" cy="185.79" r="2.76" fill="#b4b9c5"/><circle cx="732.15" cy="185.79" r="2.76" fill="#b4b9c5"/><circle cx="706.8" cy="125.37" r="2.76" fill="#b4b9c5"/><circle cx="732.15" cy="125.37" r="2.76" fill="#b4b9c5"/></g><path d="M724.07,53.1l-.02-1.52c0-5.98,13.68-14.1,14.26-14.44l.51,.86c-.14,.08-13.77,8.17-13.77,13.57l.02,1.51h-1Z" fill="#14303f"/><path d="M716.3,54.1h-1s.02-2.36,.02-2.36c0-5.4-13.63-13.49-13.77-13.57l.51-.86c.58,.34,14.26,8.46,14.26,14.43l-.02,2.35Z" fill="#14303f"/><polyline points="734.22 52.53 699.45 56.93 698.81 212.96" fill="none" stroke="#fff" stroke-miterlimit="10" stroke-width="2"/><path d="M793.2,161.73l-7.57-95.42-10.29-6.27-36.75-18.2-.03-4.95s-14.61,8.85-14.61,14.61v1.64l-7.61,.96v-2.6c0-5.76-14.61-14.61-14.61-14.61v4.96l-40.99,19.82-15.14,9.91v90.16h-1.54v12.74h27.09l-.43,32.96h27.44v5.7h71.87l-.86-38.66h26.57v-12.74h-2.55Z" fill="none" stroke="#14303f" stroke-linejoin="round"/><polyline points="734.22 51.87 698.8 56.35 698.16 207.46" fill="none" stroke="#14303f" stroke-linecap="round" stroke-linejoin="round"/><polyline points="675.35 161.72 675.35 72.03 660.22 62.12" fill="none" stroke="#14303f" stroke-linejoin="round"/><polyline points="671.16 174.46 677.27 174.46 677.27 161.72 645.61 161.72" fill="none" stroke="#14303f" stroke-linejoin="round"/><polyline points="769.18 174.46 766.52 110.62 773.67 75.91" fill="none" stroke="#14303f" stroke-linecap="round" stroke-miterlimit="10"/><line x1="793.2" y1="161.73" x2="768.67" y2="161.73" fill="none" stroke="#14303f" stroke-miterlimit="10"/><polyline points="787.46 89.4 778.37 90.3 780.15 112.51 789.19 111.57" fill="none" stroke="#14303f" stroke-linejoin="round"/><g class="fill-white"><path d="M744.85,85.59v-2.14c0-.66-.52-.94-1.39-.94s-1.34,.3-1.34,.94v2.14c0,.64,.52,.94,1.34,.94,.87,0,1.39-.28,1.39-.94h0Zm-1.08-2.1v2.06c0,.15-.12,.23-.29,.23s-.29-.08-.29-.23v-2.06c0-.15,.12-.23,.28-.23,.18,0,.3,.07,.3,.23h0Z" fill="#14303f"/><polygon points="740.83 82.6 738.07 82.6 738.07 83.36 738.91 83.36 738.91 86.46 739.99 86.46 739.99 83.36 740.83 83.36 740.83 82.6 740.83 82.6" fill="#14303f"/><path d="M748.33,82.6c.4,0,.72,.33,.72,.72v1.07c0,.4-.33,.72-.72,.72h-.87v1.35h-1.08v-3.87h1.95Zm-.87,.76v.96h.37c.12,0,.22-.1,.22-.22v-.53c0-.12-.1-.22-.22-.22h-.37Z" fill="#14303f"/><path d="M757.03,83.45v.65h-1.08v-.62c0-.16-.12-.23-.3-.23-.16,0-.28,.07-.28,.23v2.06c0,.15,.12,.23,.29,.23s.29-.08,.29-.23v-.65h1.08v.69c0,.66-.52,.94-1.39,.94s-1.34-.3-1.34-.94v-2.14c0-.64,.52-.94,1.34-.94,.87,0,1.39,.28,1.39,.94h0Z" fill="#14303f"/><polygon points="758.43 82.6 759.51 82.6 759.51 84.08 760.08 84.08 760.08 82.6 761.16 82.6 761.16 86.46 760.08 86.46 760.08 84.87 759.51 84.87 759.51 86.46 758.43 86.46 758.43 82.6 758.43 82.6" fill="#14303f"/><polygon points="762.84 82.6 764.96 82.6 764.96 83.36 763.92 83.36 763.92 84.08 764.89 84.08 764.89 84.87 763.92 84.87 763.92 85.7 764.96 85.7 764.96 86.46 762.84 86.46 762.84 82.6 762.84 82.6" fill="#14303f"/><polygon points="766.4 82.6 768.51 82.6 768.51 83.36 767.47 83.36 767.47 84.08 768.44 84.08 768.44 84.87 767.47 84.87 767.47 86.46 766.4 86.46 766.4 82.6 766.4 82.6" fill="#14303f"/><path d="M751.64,79.3c.47,.57,1.05,3.52,1.04,5.49,0,.21-.03,.55-.09,.71-.06,.18-.22,.08-.35,.06-.08,0-.21-.01-.35,.04-.13,.05-.24,.15-.22,.25,.05,.35,.1,.64,.12,1.02,0,.48-.08,.87-.09,1.32,0,.22,.06,.33,.13,.39,.06,.06,.11,.07,.11,.2,0,.06-.11,.22-.23,.38-.07,.09-.13,.17-.2,.22-.05,.04-.18,.03-.24,.02-.13-.03-.29-.1-.31-.17-.04-.15-.05-.35-.05-.47,.06-2.91,.17-7.17,.72-9.44h0Z" fill="#14303f"/></g><g class="fill-turquoise-2"><circle cx="706.8" cy="63.74" r="2.76" fill="#fff" stroke="#14303f" stroke-miterlimit="10"/><circle cx="732.15" cy="63.74" r="2.76" fill="#fff" stroke="#14303f" stroke-miterlimit="10"/><circle cx="706.8" cy="92.78" r="2.76" fill="#fff" stroke="#14303f" stroke-miterlimit="10"/><circle cx="732.15" cy="92.78" r="2.76" fill="#fff" stroke="#14303f" stroke-miterlimit="10"/><circle cx="706.8" cy="153.53" r="2.76" fill="#fff" stroke="#14303f" stroke-miterlimit="10"/><circle cx="732.15" cy="153.53" r="2.76" fill="#fff" stroke="#14303f" stroke-miterlimit="10"/><circle cx="706.8" cy="123.4" r="2.76" fill="#fff" stroke="#14303f" stroke-miterlimit="10"/><circle cx="732.15" cy="123.4" r="2.76" fill="#fff" stroke="#14303f" stroke-miterlimit="10"/><circle cx="706.8" cy="183.81" r="2.76" fill="#fff" stroke="#14303f" stroke-miterlimit="10"/><circle cx="732.15" cy="183.81" r="2.76" fill="#fff" stroke="#14303f" stroke-miterlimit="10"/></g><line x1="778.69" y1="94.3" x2="787.79" y2="93.48" fill="none" stroke="#14303f" stroke-miterlimit="10" stroke-width=".5"/></g><g class="default"><path d="M612.95,157.19l-7.24-91.27c-.13-1.6-1.01-3.04-2.38-3.87l-9.58-5.84c-.25-.19-.52-.36-.81-.5l-.28-.14-34-16.84v-1.84c0-1.81-.97-3.47-2.55-4.36-.76-.43-1.61-.64-2.45-.64-.9,0-1.8,.24-2.59,.72-.16,.1-3.98,2.42-7.84,5.52-3.97,3.18-6.59,6.06-7.98,8.77-1.39-2.72-4.01-5.59-7.98-8.77-3.86-3.1-7.68-5.42-7.84-5.52-.8-.48-1.69-.72-2.59-.72-.85,0-1.69,.21-2.45,.64-1.57,.89-2.55,2.55-2.55,4.36v1.82l-38.17,18.45c-.19,.09-.38,.2-.56,.32l-15.14,9.91c-1.41,.92-2.26,2.5-2.26,4.18v86.55c-.95,.91-1.54,2.19-1.54,3.61v12.74c0,2.76,2.24,5,5,5h22.02l-.36,27.89c-.02,1.34,.5,2.63,1.44,3.58,.94,.95,2.22,1.49,3.56,1.49h22.44v.7c0,2.76,2.24,5,5,5h71.87c1.35,0,2.63-.54,3.57-1.5s1.45-2.26,1.42-3.61l-.74-33.55h21.46c2.76,0,5-2.24,5-5v-12.74c0-2.01-1.19-3.74-2.9-4.54Z" fill="#fff"/><g class="fill-white-2"><path d="M608.29,161.73l-7.57-95.42-10.01-6.1v-.03s-.28-.14-.28-.14h0s-36.75-18.2-36.75-18.2l-.03,.02v-4.97s-14.61,8.85-14.61,14.61v1.64l-7.61,.96v-2.6c0-5.76-14.61-14.61-14.61-14.61v4.96l-40.99,19.82-15.14,9.91v90.16h-1.54v12.74h27.09l-.43,32.96h27.44v5.7h71.87l-.86-38.66h26.57v-12.74h-2.55Z" fill="#eaebef"/></g><g class="fill-grey-light"><polygon points="493.43 161.82 491.99 71.74 475.29 62.12 490.44 72.03 490.44 160.04 460.7 157.34 460.7 161.73 492.36 161.72 492.36 174.46 486.25 174.46 486.16 178.76 494.83 175.58 494.83 161.82 493.43 161.82" fill="#b4b9c5"/><polygon points="531.43 54.09 510.34 55.04 509.72 207.35 513.26 207.42 513.89 56.35 531.43 54.09" fill="#b4b9c5"/><polygon points="608.29 161.73 608.01 158.24 588.73 158.94 585.21 113.69 588.6 96.76 588.54 76.99 581.6 110.62 584.27 174.46 588.16 174.46 587.18 161.73 608.29 161.73" fill="#b4b9c5"/><circle cx="521.89" cy="65.71" r="2.76" fill="#b4b9c5"/><circle cx="547.24" cy="65.71" r="2.76" fill="#b4b9c5"/><circle cx="521.89" cy="94.75" r="2.76" fill="#b4b9c5"/><circle cx="547.24" cy="94.75" r="2.76" fill="#b4b9c5"/><circle cx="521.89" cy="155.51" r="2.76" fill="#b4b9c5"/><circle cx="547.24" cy="155.51" r="2.76" fill="#b4b9c5"/><circle cx="521.89" cy="185.79" r="2.76" fill="#b4b9c5"/><circle cx="547.24" cy="185.79" r="2.76" fill="#b4b9c5"/><circle cx="521.89" cy="125.37" r="2.76" fill="#b4b9c5"/><circle cx="547.24" cy="125.37" r="2.76" fill="#b4b9c5"/></g><path d="M539.16,53.1l-.02-1.52c0-5.98,13.68-14.1,14.26-14.44l.51,.86c-.14,.08-13.77,8.17-13.77,13.57l.02,1.51h-1Z" fill="#14303f"/><path d="M531.39,54.1h-1s.02-2.36,.02-2.36c0-5.4-13.63-13.49-13.77-13.57l.51-.86c.58,.34,14.26,8.46,14.26,14.43l-.02,2.35Z" fill="#14303f"/><polyline points="549.31 52.53 514.54 56.93 513.9 212.96" fill="none" stroke="#fff" stroke-miterlimit="10" stroke-width="2"/><path d="M608.29,161.73l-7.57-95.42-10.29-6.27-36.75-18.2-.03-4.95s-14.61,8.85-14.61,14.61v1.64l-7.61,.96v-2.6c0-5.76-14.61-14.61-14.61-14.61v4.96l-40.99,19.82-15.14,9.91v90.16h-1.54v12.74h27.09l-.43,32.96h27.44v5.7h71.87l-.86-38.66h26.57v-12.74h-2.55Z" fill="none" stroke="#14303f" stroke-linejoin="round"/><polyline points="549.31 51.87 513.89 56.35 513.25 207.46" fill="none" stroke="#14303f" stroke-linecap="round" stroke-linejoin="round"/><polyline points="490.44 161.72 490.44 72.03 475.3 62.12" fill="none" stroke="#14303f" stroke-linejoin="round"/><polyline points="486.25 174.46 492.36 174.46 492.36 161.72 460.7 161.72" fill="none" stroke="#14303f" stroke-linejoin="round"/><polyline points="584.27 174.46 581.6 110.62 588.76 75.91" fill="none" stroke="#14303f" stroke-linecap="round" stroke-miterlimit="10"/><line x1="608.29" y1="161.73" x2="583.76" y2="161.73" fill="none" stroke="#14303f" stroke-miterlimit="10"/><polyline points="602.55 89.4 593.46 90.3 595.24 112.51 604.28 111.57" fill="none" stroke="#14303f" stroke-linejoin="round"/><g><g class="fill-red-2"><path d="M559.93,85.59v-2.14c0-.66-.52-.94-1.39-.94s-1.34,.3-1.34,.94v2.14c0,.64,.52,.94,1.34,.94,.87,0,1.39-.28,1.39-.94h0Zm-1.08-2.1v2.06c0,.15-.12,.23-.29,.23s-.29-.08-.29-.23v-2.06c0-.15,.12-.23,.28-.23,.18,0,.3,.07,.3,.23h0Z" fill="#14303f"/><polygon points="555.92 82.6 553.16 82.6 553.16 83.36 554 83.36 554 86.46 555.08 86.46 555.08 83.36 555.92 83.36 555.92 82.6 555.92 82.6" fill="#14303f"/><path d="M563.42,82.6c.4,0,.72,.33,.72,.72v1.07c0,.4-.33,.72-.72,.72h-.87v1.35h-1.08v-3.87h1.95Zm-.87,.76v.96h.37c.12,0,.22-.1,.22-.22v-.53c0-.12-.1-.22-.22-.22h-.37Z" fill="#14303f"/></g><g class="fill-blue-2"><path d="M572.12,83.45v.65h-1.08v-.62c0-.16-.12-.23-.3-.23-.16,0-.28,.07-.28,.23v2.06c0,.15,.12,.23,.29,.23s.29-.08,.29-.23v-.65h1.08v.69c0,.66-.52,.94-1.39,.94s-1.34-.3-1.34-.94v-2.14c0-.64,.52-.94,1.34-.94,.87,0,1.39,.28,1.39,.94h0Z" fill="#14303f"/><polygon points="573.52 82.6 574.6 82.6 574.6 84.08 575.17 84.08 575.17 82.6 576.24 82.6 576.24 86.46 575.17 86.46 575.17 84.87 574.6 84.87 574.6 86.46 573.52 86.46 573.52 82.6 573.52 82.6" fill="#14303f"/><polygon points="577.93 82.6 580.05 82.6 580.05 83.36 579.01 83.36 579.01 84.08 579.98 84.08 579.98 84.87 579.01 84.87 579.01 85.7 580.05 85.7 580.05 86.46 577.93 86.46 577.93 82.6 577.93 82.6" fill="#14303f"/><polygon points="581.48 82.6 583.6 82.6 583.6 83.36 582.56 83.36 582.56 84.08 583.53 84.08 583.53 84.87 582.56 84.87 582.56 86.46 581.48 86.46 581.48 82.6 581.48 82.6" fill="#14303f"/><path d="M566.73,79.3c.47,.57,1.05,3.52,1.04,5.49,0,.21-.03,.55-.09,.71-.06,.18-.22,.08-.35,.06-.08,0-.21-.01-.35,.04-.13,.05-.24,.15-.22,.25,.05,.35,.1,.64,.12,1.02,0,.48-.08,.87-.09,1.32,0,.22,.06,.33,.13,.39,.06,.06,.11,.07,.11,.2,0,.06-.11,.22-.23,.38-.07,.09-.13,.17-.2,.22-.05,.04-.18,.03-.24,.02-.13-.03-.29-.1-.31-.17-.04-.15-.05-.35-.05-.47,.06-2.91,.17-7.17,.72-9.44h0Z" fill="#14303f"/></g></g><g><circle cx="521.89" cy="63.74" r="2.76" fill="#fff" stroke="#14303f" stroke-miterlimit="10"/><circle cx="547.24" cy="63.74" r="2.76" fill="#fff" stroke="#14303f" stroke-miterlimit="10"/><circle cx="521.89" cy="92.78" r="2.76" fill="#fff" stroke="#14303f" stroke-miterlimit="10"/><circle cx="547.24" cy="92.78" r="2.76" fill="#fff" stroke="#14303f" stroke-miterlimit="10"/><circle cx="521.89" cy="153.53" r="2.76" fill="#fff" stroke="#14303f" stroke-miterlimit="10"/><circle cx="547.24" cy="153.53" r="2.76" fill="#fff" stroke="#14303f" stroke-miterlimit="10"/><circle cx="521.89" cy="123.4" r="2.76" fill="#fff" stroke="#14303f" stroke-miterlimit="10"/><circle cx="547.24" cy="123.4" r="2.76" fill="#fff" stroke="#14303f" stroke-miterlimit="10"/><circle cx="521.89" cy="183.81" r="2.76" fill="#fff" stroke="#14303f" stroke-miterlimit="10"/><circle cx="547.24" cy="183.81" r="2.76" fill="#fff" stroke="#14303f" stroke-miterlimit="10"/></g><line x1="593.78" y1="94.3" x2="602.88" y2="93.48" fill="none" stroke="#14303f" stroke-miterlimit="10" stroke-width=".5"/></g><g id="coat2" class="reveal"><path d="M427.98,157.19l-7.24-91.27c-.13-1.6-1.01-3.04-2.38-3.87l-9.58-5.84c-.25-.19-.52-.36-.81-.5l-.28-.14-34-16.84v-1.84c0-1.81-.97-3.47-2.55-4.36-.76-.43-1.61-.64-2.45-.64-.9,0-1.8,.24-2.59,.72-.16,.1-3.98,2.42-7.84,5.52-3.97,3.18-6.59,6.06-7.98,8.77-1.39-2.72-4.01-5.59-7.98-8.77-3.86-3.1-7.68-5.42-7.84-5.52-.8-.48-1.69-.72-2.59-.72-.85,0-1.69,.21-2.45,.64-1.57,.89-2.55,2.55-2.55,4.36v1.82l-38.17,18.45c-.19,.09-.38,.2-.56,.32l-15.14,9.91c-1.41,.92-2.26,2.5-2.26,4.18v86.55c-.95,.91-1.54,2.19-1.54,3.61v12.74c0,2.76,2.24,5,5,5h22.02l-.36,27.89c-.02,1.34,.5,2.63,1.44,3.58,.94,.95,2.22,1.49,3.56,1.49h22.44v.7c0,2.76,2.24,5,5,5h71.87c1.35,0,2.63-.54,3.57-1.5s1.45-2.26,1.42-3.61l-.74-33.55h21.46c2.76,0,5-2.24,5-5v-12.74c0-2.01-1.19-3.74-2.9-4.54Z" fill="#fff"/><g class="fill-pink"><path d="M423.33,161.73l-7.57-95.42-10.01-6.1v-.03s-.28-.14-.28-.14h0s-36.75-18.2-36.75-18.2l-.03,.02v-4.97s-14.61,8.85-14.61,14.61v1.64l-7.61,.96v-2.6c0-5.76-14.61-14.61-14.61-14.61v4.96l-40.99,19.82-15.14,9.91v90.16h-1.54v12.74h27.09l-.43,32.96h27.44v5.7h71.87l-.86-38.66h26.57v-12.74h-2.55Z" fill="#eaebef"/></g><g class="fill-red-3"><polygon points="308.47 161.82 307.03 71.74 290.33 62.12 305.48 72.03 305.48 160.04 275.74 157.34 275.74 161.73 307.4 161.72 307.4 174.46 301.28 174.46 301.2 178.76 309.86 175.58 309.86 161.82 308.47 161.82" fill="#b4b9c5"/><polygon points="346.47 54.09 325.38 55.04 324.76 207.35 328.29 207.42 328.93 56.35 346.47 54.09" fill="#b4b9c5"/><polygon points="423.33 161.73 423.05 158.24 403.77 158.94 400.24 113.69 403.63 96.76 403.57 76.99 396.64 110.62 399.31 174.46 403.2 174.46 402.22 161.73 423.33 161.73" fill="#b4b9c5"/><circle cx="336.92" cy="65.71" r="2.76" fill="#b4b9c5"/><circle cx="362.28" cy="65.71" r="2.76" fill="#b4b9c5"/><circle cx="336.92" cy="94.75" r="2.76" fill="#b4b9c5"/><circle cx="362.28" cy="94.75" r="2.76" fill="#b4b9c5"/><circle cx="336.92" cy="155.51" r="2.76" fill="#b4b9c5"/><circle cx="362.28" cy="155.51" r="2.76" fill="#b4b9c5"/><circle cx="336.92" cy="185.79" r="2.76" fill="#b4b9c5"/><circle cx="362.28" cy="185.79" r="2.76" fill="#b4b9c5"/><circle cx="336.92" cy="125.37" r="2.76" fill="#b4b9c5"/><circle cx="362.28" cy="125.37" r="2.76" fill="#b4b9c5"/></g><path d="M354.2,53.1l-.02-1.52c0-5.98,13.68-14.1,14.26-14.44l.51,.86c-.14,.08-13.77,8.17-13.77,13.57l.02,1.51h-1Z" fill="#14303f"/><path d="M346.42,54.1h-1s.02-2.36,.02-2.36c0-5.4-13.63-13.49-13.77-13.57l.51-.86c.58,.34,14.26,8.46,14.26,14.43l-.02,2.35Z" fill="#14303f"/><polyline points="364.34 52.53 329.57 56.93 328.93 212.96" fill="none" stroke="#fff" stroke-miterlimit="10" stroke-width="2"/><path d="M423.33,161.73l-7.57-95.42-10.29-6.27-36.75-18.2-.03-4.95s-14.61,8.85-14.61,14.61v1.64l-7.61,.96v-2.6c0-5.76-14.61-14.61-14.61-14.61v4.96l-40.99,19.82-15.14,9.91v90.16h-1.54v12.74h27.09l-.43,32.96h27.44v5.7h71.87l-.86-38.66h26.57v-12.74h-2.55Z" fill="none" stroke="#14303f" stroke-linejoin="round"/><polyline points="364.34 51.87 328.93 56.35 328.29 207.46" fill="none" stroke="#14303f" stroke-linecap="round" stroke-linejoin="round"/><polyline points="305.48 161.72 305.48 72.03 290.34 62.12" fill="none" stroke="#14303f" stroke-linejoin="round"/><polyline points="301.28 174.46 307.4 174.46 307.4 161.72 275.74 161.72" fill="none" stroke="#14303f" stroke-linejoin="round"/><polyline points="399.31 174.46 396.64 110.62 403.79 75.91" fill="none" stroke="#14303f" stroke-linecap="round" stroke-miterlimit="10"/><line x1="423.33" y1="161.73" x2="398.79" y2="161.73" fill="none" stroke="#14303f" stroke-miterlimit="10"/><polyline points="417.59 89.4 408.5 90.3 410.27 112.51 419.32 111.57" fill="none" stroke="#14303f" stroke-linejoin="round"/><g><path d="M374.97,85.59v-2.14c0-.66-.52-.94-1.39-.94s-1.34,.3-1.34,.94v2.14c0,.64,.52,.94,1.34,.94,.87,0,1.39-.28,1.39-.94h0Zm-1.08-2.1v2.06c0,.15-.12,.23-.29,.23s-.29-.08-.29-.23v-2.06c0-.15,.12-.23,.28-.23,.18,0,.3,.07,.3,.23h0Z" fill="#14303f"/><polygon points="370.96 82.6 368.2 82.6 368.2 83.36 369.04 83.36 369.04 86.46 370.12 86.46 370.12 83.36 370.96 83.36 370.96 82.6 370.96 82.6" fill="#14303f"/><path d="M378.46,82.6c.4,0,.72,.33,.72,.72v1.07c0,.4-.33,.72-.72,.72h-.87v1.35h-1.08v-3.87h1.95Zm-.87,.76v.96h.37c.12,0,.22-.1,.22-.22v-.53c0-.12-.1-.22-.22-.22h-.37Z" fill="#14303f"/><path d="M387.15,83.45v.65h-1.08v-.62c0-.16-.12-.23-.3-.23-.16,0-.28,.07-.28,.23v2.06c0,.15,.12,.23,.29,.23s.29-.08,.29-.23v-.65h1.08v.69c0,.66-.52,.94-1.39,.94s-1.34-.3-1.34-.94v-2.14c0-.64,.52-.94,1.34-.94,.87,0,1.39,.28,1.39,.94h0Z" fill="#14303f"/><polygon points="388.56 82.6 389.63 82.6 389.63 84.08 390.21 84.08 390.21 82.6 391.28 82.6 391.28 86.46 390.21 86.46 390.21 84.87 389.63 84.87 389.63 86.46 388.56 86.46 388.56 82.6 388.56 82.6" fill="#14303f"/><polygon points="392.97 82.6 395.09 82.6 395.09 83.36 394.04 83.36 394.04 84.08 395.02 84.08 395.02 84.87 394.04 84.87 394.04 85.7 395.09 85.7 395.09 86.46 392.97 86.46 392.97 82.6 392.97 82.6" fill="#14303f"/><polygon points="396.52 82.6 398.64 82.6 398.64 83.36 397.6 83.36 397.6 84.08 398.57 84.08 398.57 84.87 397.6 84.87 397.6 86.46 396.52 86.46 396.52 82.6 396.52 82.6" fill="#14303f"/><path d="M381.77,79.3c.47,.57,1.05,3.52,1.04,5.49,0,.21-.03,.55-.09,.71-.06,.18-.22,.08-.35,.06-.08,0-.21-.01-.35,.04-.13,.05-.24,.15-.22,.25,.05,.35,.1,.64,.12,1.02,0,.48-.08,.87-.09,1.32,0,.22,.06,.33,.13,.39,.06,.06,.11,.07,.11,.2,0,.06-.11,.22-.23,.38-.07,.09-.13,.17-.2,.22-.05,.04-.18,.03-.24,.02-.13-.03-.29-.1-.31-.17-.04-.15-.05-.35-.05-.47,.06-2.91,.17-7.17,.72-9.44h0Z" fill="#14303f"/></g><g class="fill-pink-2"><circle cx="336.92" cy="63.74" r="2.76" fill="#fff" stroke="#14303f" stroke-miterlimit="10"/><circle cx="362.28" cy="63.74" r="2.76" fill="#fff" stroke="#14303f" stroke-miterlimit="10"/><circle cx="336.92" cy="92.78" r="2.76" fill="#fff" stroke="#14303f" stroke-miterlimit="10"/><circle cx="362.28" cy="92.78" r="2.76" fill="#fff" stroke="#14303f" stroke-miterlimit="10"/><circle cx="336.92" cy="153.53" r="2.76" fill="#fff" stroke="#14303f" stroke-miterlimit="10"/><circle cx="362.28" cy="153.53" r="2.76" fill="#fff" stroke="#14303f" stroke-miterlimit="10"/><circle cx="336.92" cy="123.4" r="2.76" fill="#fff" stroke="#14303f" stroke-miterlimit="10"/><circle cx="362.28" cy="123.4" r="2.76" fill="#fff" stroke="#14303f" stroke-miterlimit="10"/><circle cx="336.92" cy="183.81" r="2.76" fill="#fff" stroke="#14303f" stroke-miterlimit="10"/><circle cx="362.28" cy="183.81" r="2.76" fill="#fff" stroke="#14303f" stroke-miterlimit="10"/></g><line x1="408.82" y1="94.3" x2="417.91" y2="93.48" fill="none" stroke="#14303f" stroke-miterlimit="10" stroke-width=".5"/></g><g id="coat1" class="reveal"><path d="M243.02,157.19l-7.24-91.27c-.13-1.6-1.01-3.04-2.38-3.87l-9.58-5.84c-.25-.19-.52-.36-.81-.5l-.28-.14-34-16.84v-1.84c0-1.81-.97-3.47-2.55-4.36-.76-.43-1.61-.64-2.45-.64-.9,0-1.8,.24-2.59,.72-.16,.1-3.98,2.42-7.84,5.52-3.97,3.18-6.59,6.06-7.98,8.77-1.39-2.72-4.01-5.59-7.98-8.77-3.86-3.1-7.68-5.42-7.84-5.52-.8-.48-1.69-.72-2.59-.72-.85,0-1.69,.21-2.45,.64-1.57,.89-2.55,2.55-2.55,4.36v1.82l-38.17,18.45c-.19,.09-.38,.2-.56,.32l-15.14,9.91c-1.41,.92-2.26,2.5-2.26,4.18v86.55c-.95,.91-1.54,2.19-1.54,3.61v12.74c0,2.76,2.24,5,5,5h22.02l-.36,27.89c-.02,1.34,.5,2.63,1.44,3.58,.94,.95,2.22,1.49,3.56,1.49h22.44v.7c0,2.76,2.24,5,5,5h71.87c1.35,0,2.63-.54,3.57-1.5s1.45-2.26,1.42-3.61l-.74-33.55h21.46c2.76,0,5-2.24,5-5v-12.74c0-2.01-1.19-3.74-2.9-4.54Z" fill="#fff"/><g class="fill-swap"><path d="M238.36,161.73l-7.57-95.42-10.01-6.1v-.03s-.28-.14-.28-.14h0s-36.75-18.2-36.75-18.2l-.03,.02v-4.97s-14.61,8.85-14.61,14.61v1.64l-7.61,.96v-2.6c0-5.76-14.61-14.61-14.61-14.61v4.96l-40.99,19.82-15.14,9.91v90.16h-1.54v12.74h27.09l-.43,32.96h27.44v5.7h71.87l-.86-38.66h26.57v-12.74h-2.55Z" fill="#eaebef"/></g><g class="fill-navy"><polygon points="123.51 161.82 122.06 71.74 105.37 62.12 120.51 72.03 120.51 160.04 90.77 157.34 90.77 161.73 122.44 161.72 122.44 174.46 116.32 174.46 116.23 178.76 124.9 175.58 124.9 161.82 123.51 161.82" fill="#b4b9c5"/><polygon points="161.5 54.09 140.42 55.04 139.79 207.35 143.33 207.42 143.97 56.35 161.5 54.09" fill="#b4b9c5"/><polygon points="238.36 161.73 238.09 158.24 218.81 158.94 215.28 113.69 218.67 96.76 218.61 76.99 211.68 110.62 214.34 174.46 218.24 174.46 217.26 161.73 238.36 161.73" fill="#b4b9c5"/><circle cx="151.96" cy="65.71" r="2.76" fill="#b4b9c5"/><circle cx="177.31" cy="65.71" r="2.76" fill="#b4b9c5"/><circle cx="151.96" cy="94.75" r="2.76" fill="#b4b9c5"/><circle cx="177.31" cy="94.75" r="2.76" fill="#b4b9c5"/><circle cx="151.96" cy="155.51" r="2.76" fill="#b4b9c5"/><circle cx="177.31" cy="155.51" r="2.76" fill="#b4b9c5"/><circle cx="151.96" cy="185.79" r="2.76" fill="#b4b9c5"/><circle cx="177.31" cy="185.79" r="2.76" fill="#b4b9c5"/><circle cx="151.96" cy="125.37" r="2.76" fill="#b4b9c5"/><circle cx="177.31" cy="125.37" r="2.76" fill="#b4b9c5"/></g><path d="M169.23,53.1l-.02-1.52c0-5.98,13.68-14.1,14.26-14.44l.51,.86c-.14,.08-13.77,8.17-13.77,13.57l.02,1.51h-1Z" fill="#14303f"/><path d="M161.46,54.1h-1s.02-2.36,.02-2.36c0-5.4-13.63-13.49-13.77-13.57l.51-.86c.58,.34,14.26,8.46,14.26,14.43l-.02,2.35Z" fill="#14303f"/><polyline points="179.38 52.53 144.61 56.93 143.97 212.96" fill="none" stroke="#fff" stroke-miterlimit="10" stroke-width="2"/><path d="M238.36,161.73l-7.57-95.42-10.29-6.27-36.75-18.2-.03-4.95s-14.61,8.85-14.61,14.61v1.64l-7.61,.96v-2.6c0-5.76-14.61-14.61-14.61-14.61v4.96l-40.99,19.82-15.14,9.91v90.16h-1.54v12.74h27.09l-.43,32.96h27.44v5.7h71.87l-.86-38.66h26.57v-12.74h-2.55Z" fill="none" stroke="#14303f" stroke-linejoin="round"/><polyline points="179.38 51.87 143.97 56.35 143.33 207.46" fill="none" stroke="#14303f" stroke-linecap="round" stroke-linejoin="round"/><polyline points="120.51 161.72 120.51 72.03 105.38 62.12" fill="none" stroke="#14303f" stroke-linejoin="round"/><polyline points="116.32 174.46 122.44 174.46 122.44 161.72 90.77 161.72" fill="none" stroke="#14303f" stroke-linejoin="round"/><polyline points="214.34 174.46 211.68 110.62 218.83 75.91" fill="none" stroke="#14303f" stroke-linecap="round" stroke-miterlimit="10"/><line x1="238.36" y1="161.73" x2="213.83" y2="161.73" fill="none" stroke="#14303f" stroke-miterlimit="10"/><polyline points="232.63 89.4 223.53 90.3 225.31 112.51 234.36 111.57" fill="none" stroke="#14303f" stroke-linejoin="round"/><g class="fill-white-3"><path d="M190.01,85.59v-2.14c0-.66-.52-.94-1.39-.94s-1.34,.3-1.34,.94v2.14c0,.64,.52,.94,1.34,.94,.87,0,1.39-.28,1.39-.94h0Zm-1.08-2.1v2.06c0,.15-.12,.23-.29,.23s-.29-.08-.29-.23v-2.06c0-.15,.12-.23,.28-.23,.18,0,.3,.07,.3,.23h0Z" fill="#14303f"/><polygon points="186 82.6 183.23 82.6 183.23 83.36 184.08 83.36 184.08 86.46 185.15 86.46 185.15 83.36 186 83.36 186 82.6 186 82.6" fill="#14303f"/><path d="M193.49,82.6c.4,0,.72,.33,.72,.72v1.07c0,.4-.33,.72-.72,.72h-.87v1.35h-1.08v-3.87h1.95Zm-.87,.76v.96h.37c.12,0,.22-.1,.22-.22v-.53c0-.12-.1-.22-.22-.22h-.37Z" fill="#14303f"/><path d="M202.19,83.45v.65h-1.08v-.62c0-.16-.12-.23-.3-.23-.16,0-.28,.07-.28,.23v2.06c0,.15,.12,.23,.29,.23s.29-.08,.29-.23v-.65h1.08v.69c0,.66-.52,.94-1.39,.94s-1.34-.3-1.34-.94v-2.14c0-.64,.52-.94,1.34-.94,.87,0,1.39,.28,1.39,.94h0Z" fill="#14303f"/><polygon points="203.59 82.6 204.67 82.6 204.67 84.08 205.24 84.08 205.24 82.6 206.32 82.6 206.32 86.46 205.24 86.46 205.24 84.87 204.67 84.87 204.67 86.46 203.59 86.46 203.59 82.6 203.59 82.6" fill="#14303f"/><polygon points="208.01 82.6 210.12 82.6 210.12 83.36 209.08 83.36 209.08 84.08 210.05 84.08 210.05 84.87 209.08 84.87 209.08 85.7 210.12 85.7 210.12 86.46 208.01 86.46 208.01 82.6 208.01 82.6" fill="#14303f"/><polygon points="211.56 82.6 213.67 82.6 213.67 83.36 212.63 83.36 212.63 84.08 213.6 84.08 213.6 84.87 212.63 84.87 212.63 86.46 211.56 86.46 211.56 82.6 211.56 82.6" fill="#14303f"/><path d="M196.8,79.3c.47,.57,1.05,3.52,1.04,5.49,0,.21-.03,.55-.09,.71-.06,.18-.22,.08-.35,.06-.08,0-.21-.01-.35,.04-.13,.05-.24,.15-.22,.25,.05,.35,.1,.64,.12,1.02,0,.48-.08,.87-.09,1.32,0,.22,.06,.33,.13,.39,.06,.06,.11,.07,.11,.2,0,.06-.11,.22-.23,.38-.07,.09-.13,.17-.2,.22-.05,.04-.18,.03-.24,.02-.13-.03-.29-.1-.31-.17-.04-.15-.05-.35-.05-.47,.06-2.91,.17-7.17,.72-9.44h0Z" fill="#14303f"/></g><g class="fill-swap"><circle cx="151.96" cy="63.74" r="2.76" fill="#fff" stroke="#14303f" stroke-miterlimit="10"/><circle cx="177.31" cy="63.74" r="2.76" fill="#fff" stroke="#14303f" stroke-miterlimit="10"/><circle cx="151.96" cy="92.78" r="2.76" fill="#fff" stroke="#14303f" stroke-miterlimit="10"/><circle cx="177.31" cy="92.78" r="2.76" fill="#fff" stroke="#14303f" stroke-miterlimit="10"/><circle cx="151.96" cy="153.53" r="2.76" fill="#fff" stroke="#14303f" stroke-miterlimit="10"/><circle cx="177.31" cy="153.53" r="2.76" fill="#fff" stroke="#14303f" stroke-miterlimit="10"/><circle cx="151.96" cy="123.4" r="2.76" fill="#fff" stroke="#14303f" stroke-miterlimit="10"/><circle cx="177.31" cy="123.4" r="2.76" fill="#fff" stroke="#14303f" stroke-miterlimit="10"/><circle cx="151.96" cy="183.81" r="2.76" fill="#fff" stroke="#14303f" stroke-miterlimit="10"/><circle cx="177.31" cy="183.81" r="2.76" fill="#fff" stroke="#14303f" stroke-miterlimit="10"/></g><line x1="223.85" y1="94.3" x2="232.95" y2="93.48" fill="none" stroke="#14303f" stroke-miterlimit="10" stroke-width=".5"/></g></svg>
