<?xml version="1.0" encoding="UTF-8"?><svg xmlns="http://www.w3.org/2000/svg" width="1070" height="310" viewBox="0 0 1070 310"><g id="cabinet5" class="reveal"><g class="fill-pink"><rect x="777.33" y="94.7" width="173.52" height="129.08" fill="#eaebef" stroke="#14303f" stroke-linecap="round" stroke-linejoin="round"/></g><rect x="783.59" y="100.83" width="161.01" height="116.83" fill="#14303f" stroke="#14303f" stroke-linecap="round" stroke-linejoin="round"/><g><circle cx="869.55" cy="180.8" r="32.19" fill="#b4b9c5"/><g class="fill-pink-2"><polyline points="855.19 198.75 855.19 189.22 859.39 195.89" fill="#eaebef" stroke="#14303f" stroke-linejoin="round" stroke-width=".5"/></g><path d="M849.91,206.3s4.25-12.54,19.08-12.54,20.85,12.04,20.85,12.04c0,0-7.46,7.19-20.28,7.19s-19.64-6.69-19.64-6.69Z" fill="#fff" stroke="#14303f" stroke-miterlimit="10" stroke-width=".5"/><circle cx="869.55" cy="180.8" r="32.19" fill="none" stroke="#14303f" stroke-miterlimit="10"/><rect x="867.31" y="180.49" width="12.84" height="14.39" transform="translate(34.15 -118.47) rotate(7.91)" fill="#14303f" stroke="#14303f" stroke-miterlimit="10" stroke-width=".5"/><g class="fill-turquoise"><rect x="866.72" y="189.04" width="12.84" height="5.79" transform="translate(34.72 -118.34) rotate(7.91)" fill="#eaebef" stroke="#14303f" stroke-miterlimit="10" stroke-width=".5"/></g><circle cx="863.35" cy="199.11" r="1.43" fill="#14303f"/><circle cx="869.87" cy="201.46" r="1.43" fill="#14303f"/><rect x="863.35" y="191.38" width="19.27" height="3.44" transform="translate(34.88 -118.31) rotate(7.91)" fill="#14303f" stroke="#14303f" stroke-miterlimit="10" stroke-width=".5"/><g class="fill-yellow"><rect x="845.8" y="207.22" width="47.8" height="10.44" fill="#b4b9c5"/></g><g class="fill-white"><rect x="857.61" y="207.22" width="7.18" height="10.44" fill="#fff"/><rect x="866.71" y="207.22" width="2.84" height="10.44" fill="#fff"/></g><rect x="845.8" y="207.22" width="47.8" height="10.44" fill="none" stroke="#14303f" stroke-linejoin="round"/><ellipse cx="859.39" cy="161.71" rx="13.34" ry="4.51" transform="translate(24.49 421.79) rotate(-27.96)" fill="#fff"/></g><line x1="786.03" y1="100.83" x2="777.66" y2="100.83" fill="#eaebef" stroke="#14303f" stroke-miterlimit="10"/><g class="fill-red"><rect x="783.59" y="100.83" width="161.01" height="14.97" fill="#b4b9c5" stroke="#14303f" stroke-linejoin="round"/></g><line x1="944.6" y1="100.83" x2="950.85" y2="100.83" fill="#eaebef" stroke="#14303f" stroke-miterlimit="10"/><line x1="783.59" y1="217.66" x2="783.59" y2="223.79" fill="#eaebef" stroke="#14303f" stroke-miterlimit="10"/><line x1="944.6" y1="215.52" x2="944.6" y2="223.79" fill="#eaebef" stroke="#14303f" stroke-miterlimit="10"/><g><g class="fill-red-2"><rect x="918.49" y="139.88" width="25.97" height="77.74" fill="#b4b9c5"/></g><g class="fill-white-2"><rect x="918.49" y="156.31" width="25.97" height="8.55" fill="#eaebef"/></g><rect x="918.49" y="139.88" width="12.98" height="77.74" fill="none" stroke="#14303f" stroke-linejoin="round"/><rect x="931.48" y="139.88" width="12.98" height="77.74" fill="none" stroke="#14303f" stroke-linejoin="round"/><line x1="918.49" y1="156.31" x2="944.46" y2="156.31" fill="none" stroke="#14303f" stroke-miterlimit="10" stroke-width=".5"/><line x1="918.49" y1="164.86" x2="944.46" y2="164.86" fill="none" stroke="#14303f" stroke-miterlimit="10" stroke-width=".5"/><g class="fill-yellow-2"><polygon points="934.94 137.62 939.07 137.62 939.07 179.78 935.29 183.56 934.94 137.62" fill="#fff" stroke="#14303f" stroke-miterlimit="10" stroke-width=".5"/></g></g><g><g class="fill-blue"><rect x="897.26" y="149.95" width="21.41" height="67.7" fill="#eaebef"/></g><rect x="907.96" y="149.95" width="10.71" height="67.7" fill="none" stroke="#14303f" stroke-linejoin="round"/><rect x="897.26" y="149.95" width="10.71" height="67.7" fill="none" stroke="#14303f" stroke-linejoin="round"/><line x1="899.42" y1="158.97" x2="904.95" y2="158.97" fill="none" stroke="#14303f" stroke-linecap="round" stroke-miterlimit="10"/><line x1="910.55" y1="158.97" x2="916.08" y2="158.97" fill="none" stroke="#14303f" stroke-linecap="round" stroke-miterlimit="10"/><line x1="899.63" y1="169.11" x2="905.16" y2="169.11" fill="none" stroke="#14303f" stroke-linecap="round" stroke-miterlimit="10"/><line x1="910.77" y1="169.11" x2="916.29" y2="169.11" fill="none" stroke="#14303f" stroke-linecap="round" stroke-miterlimit="10"/><line x1="899.63" y1="179.66" x2="905.16" y2="179.66" fill="none" stroke="#14303f" stroke-linecap="round" stroke-miterlimit="10"/><line x1="910.77" y1="179.66" x2="916.29" y2="179.66" fill="none" stroke="#14303f" stroke-linecap="round" stroke-miterlimit="10"/></g><g><g class="fill-turquoise-2"><polygon points="829.97 217.63 808.71 217.63 808.71 187.93 829.97 193.07 829.97 217.63" fill="#00ced4"/><polygon points="829.97 217.63 808.71 217.63 808.71 187.93 829.97 193.07 829.97 217.63" fill="#b4b9c5" stroke="#14303f" stroke-linejoin="round"/><polygon points="829.97 217.63 808.71 217.63 808.71 187.93 829.97 193.07 829.97 217.63" fill="none" stroke="#14303f" stroke-linejoin="round"/></g><g class="fill-yellow-3"><polygon points="787.45 217.63 808.71 217.63 808.71 187.93 787.45 193.07 787.45 217.63" fill="#eaebef" stroke="#14303f" stroke-linejoin="round"/></g><polyline points="787.45 202.3 808.71 198.43 829.97 201.62" fill="none" stroke="#14303f" stroke-miterlimit="10" stroke-width=".5"/><polyline points="787.45 210.52 808.91 208.28 829.97 210.04" fill="none" stroke="#14303f" stroke-miterlimit="10" stroke-width=".5"/><line x1="823.31" y1="191.56" x2="823.31" y2="217.63" fill="none" stroke="#14303f" stroke-miterlimit="10" stroke-width=".5"/><line x1="794.44" y1="191.56" x2="794.44" y2="217.63" fill="none" stroke="#14303f" stroke-miterlimit="10" stroke-width=".5"/><line x1="816.52" y1="189.82" x2="816.52" y2="217.63" fill="none" stroke="#14303f" stroke-miterlimit="10" stroke-width=".5"/><line x1="801.44" y1="189.82" x2="801.44" y2="217.63" fill="none" stroke="#14303f" stroke-miterlimit="10" stroke-width=".5"/></g></g><g id="cabinet1" class="reveal"><g class="fill-pink-3"><rect x="118.46" y="94.7" width="173.52" height="129.08" fill="#eaebef" stroke="#14303f" stroke-linecap="round" stroke-linejoin="round"/></g><rect x="124.71" y="100.83" width="161.01" height="116.83" fill="#14303f" stroke="#14303f" stroke-linecap="round" stroke-linejoin="round"/><g class="fill-red-3"><rect x="124.71" y="100.83" width="161.01" height="14.97" fill="#b4b9c5" stroke="#14303f" stroke-linecap="round" stroke-linejoin="round"/></g><line x1="127.16" y1="100.83" x2="118.78" y2="100.83" fill="#eaebef" stroke="#14303f" stroke-miterlimit="10"/><line x1="285.72" y1="100.83" x2="291.47" y2="100.83" fill="#eaebef" stroke="#14303f" stroke-miterlimit="10"/><line x1="124.71" y1="217.66" x2="124.71" y2="223.79" fill="#eaebef" stroke="#14303f" stroke-miterlimit="10"/><line x1="285.72" y1="218.04" x2="285.72" y2="223.79" fill="#eaebef" stroke="#14303f" stroke-miterlimit="10"/><g id="flag"><g class="fill-yellow-4"><rect x="147.93" y="130.84" width="85.23" height="28.41" fill="#fff" stroke="#14303f" stroke-linejoin="round" stroke-width=".5"/></g><g class="fill-blue-2"><rect x="147.93" y="159.24" width="85.22" height="28.41" fill="#b4b9c5" stroke="#14303f" stroke-linejoin="round" stroke-width=".5"/></g><g class="fill-red-4"><polygon points="185.07 159.24 147.93 159.24 147.93 150.86 180.3 156.35 185.07 159.24" fill="#eaebef" stroke="#14303f" stroke-linejoin="round" stroke-width=".5"/><polygon points="189.29 153.95 177.69 130.84 167.98 130.84 188.07 155.52 188.78 155.52 189.29 153.95" fill="#eaebef" stroke="#14303f" stroke-linejoin="round" stroke-width=".5"/><polygon points="196.34 130.84 192.46 150.98 191.34 147.61 190.25 150.98 186.4 130.84 196.34 130.84" fill="#eaebef" stroke="#14303f" stroke-linejoin="round" stroke-width=".5"/><polygon points="233.16 141.07 198.12 155.78 195.98 155.78 227.2 130.84 233.16 130.84 233.16 141.07" fill="#eaebef" stroke="#14303f" stroke-linejoin="round" stroke-width=".5"/><polygon points="233.16 150.94 202.71 156.15 197.66 159.24 233.16 159.24 233.16 150.94" fill="#eaebef" stroke="#14303f" stroke-linejoin="round" stroke-width=".5"/><polygon points="194.82 155.73 215.14 130.84 205.2 130.84 193.26 154.15 193.78 155.73 194.82 155.73" fill="#eaebef" stroke="#14303f" stroke-linejoin="round" stroke-width=".5"/><polygon points="187 155.78 156.02 130.84 147.93 130.84 147.93 140.92 183.73 155.78 187 155.78" fill="#eaebef" stroke="#14303f" stroke-linejoin="round" stroke-width=".5"/></g><g class="fill-pink-4"><polygon points="197.11 162.53 206.44 155.64 194.82 155.64 191.34 145.14 187.95 155.64 176.23 155.64 185.71 162.56 182.17 173.55 191.42 166.72 200.76 173.55 197.11 162.53" fill="#eaebef" stroke="#14303f" stroke-linejoin="round" stroke-width=".5"/></g></g><g><g class="fill-yellow-5"><rect x="133.9" y="181.99" width="43.36" height="35.67" fill="#eaebef" stroke="#14303f" stroke-linejoin="round"/><rect x="177.26" y="181.99" width="43.36" height="35.67" fill="#eaebef" stroke="#14303f" stroke-linejoin="round"/></g><line x1="133.9" y1="189.81" x2="177.26" y2="189.81" fill="none" stroke="#14303f" stroke-miterlimit="10" stroke-width=".5"/><rect x="145.63" y="196.62" width="18.09" height="7.85" fill="none" stroke="#14303f" stroke-linejoin="round" stroke-width=".5"/><rect x="147.19" y="197.98" width="14.97" height="5.12" fill="#fff" stroke="#14303f" stroke-linejoin="round" stroke-width=".5"/><line x1="177.26" y1="189.81" x2="220.62" y2="189.81" fill="none" stroke="#14303f" stroke-miterlimit="10" stroke-width=".5"/><rect x="188.99" y="196.62" width="18.09" height="7.85" fill="none" stroke="#14303f" stroke-linejoin="round" stroke-width=".5"/><rect x="190.55" y="197.98" width="14.97" height="5.12" fill="#fff" stroke="#14303f" stroke-linejoin="round" stroke-width=".5"/></g><g><g class="fill-yellow-6"><path d="M251.56,121.5s-1.43,7.28-.12,24.22c1.31,16.94,3.1,41.05,3.1,41.05l3.82-.72s-2.15-47.61-6.8-64.55Z" fill="#fff" stroke="#14303f" stroke-linejoin="round" stroke-width=".5"/></g><line x1="251.56" y1="121.5" x2="256.21" y2="182.47" fill="#fff" stroke="#14303f" stroke-linejoin="round" stroke-width=".5"/><g class="fill-red-5"><path d="M265.24,129.41s-3.24,6.67-6.3,23.39-7.48,40.48-7.48,40.48l3.87,.28s10.07-46.58,9.9-64.15Z" fill="#fff" stroke="#14303f" stroke-linejoin="round" stroke-width=".5"/></g><line x1="265.24" y1="129.41" x2="254.18" y2="189.55" fill="#fff" stroke="#14303f" stroke-linejoin="round" stroke-width=".5"/><g class="fill-pink-5"><path d="M243.2,132s-.42,7.41,3.22,24.01c3.63,16.6,8.73,40.23,8.73,40.23l3.68-1.24s-8.68-46.86-15.63-63Z" fill="#fff" stroke="#14303f" stroke-linejoin="round" stroke-width=".5"/></g><line x1="243.2" y1="132" x2="256.2" y2="191.76" fill="#fff" stroke="#14303f" stroke-linejoin="round" stroke-width=".5"/></g><g class="fill-turquoise-3"><path d="M278.81,200.15c0-4.5-4.31-8.45-10.76-10.65v-19.44h-23.68v19.45c-6.45,2.2-10.75,6.14-10.75,10.64s4.3,8.44,10.75,10.64v6.52h23.68v-6.52c6.46-2.2,10.76-6.15,10.76-10.65Z" fill="#eaebef"/></g><path d="M278.8,200.15c0-4.5-4.3-8.45-10.76-10.65v-19.44h-23.68v19.44c-6.45,2.2-10.76,6.15-10.76,10.65s4.3,8.45,10.76,10.65v6.52h23.68v-6.52c6.45-2.2,10.76-6.15,10.76-10.65Z" fill="none" stroke="#14303f" stroke-linejoin="round" stroke-width=".5"/><g class="fill-blue-3"><path d="M249.76,210.76c-6.4-2.21-10.66-6.13-10.66-10.6s4.42-8.53,11.01-10.72h-5.54c-6.57,2.19-10.96,6.17-10.96,10.72s4.25,8.39,10.63,10.6h5.52Z" fill="#b4b9c5"/><path d="M279.23,200.15c0-4.6-4.49-8.61-11.18-10.78v-19.31h-11.14v17.59h0v.43c5.57,1.47,9.74,5.94,9.74,11.74s-4.17,10.31-9.74,12.4v.42h0v4.67h11.14v-6.38c6.69-2.17,11.18-6.18,11.18-10.78Z" fill="#b4b9c5"/></g></g><g class="default"><g class="fill-pink-6"><rect x="452.98" y="94.7" width="164.04" height="129.08" fill="#eaebef" stroke="#14303f" stroke-linecap="round" stroke-linejoin="round"/></g><rect x="459.24" y="100.83" width="151.53" height="116.83" fill="#14303f" stroke="#14303f" stroke-linecap="round" stroke-linejoin="round"/><g><g class="fill-pink-7"><rect x="584.83" y="139.31" width="8.32" height="5.33" fill="#eaebef"/><rect x="584.83" y="139.31" width="8.32" height="5.33" fill="#eaebef" stroke="#14303f" stroke-linecap="round" stroke-linejoin="round"/><rect x="584.83" y="139.31" width="8.32" height="5.33" fill="none" stroke="#14303f" stroke-linecap="round" stroke-linejoin="round"/></g><g class="fill-blue-4"><rect x="584.83" y="144.64" width="8.32" height="16.73" fill="#b4b9c5" stroke="#14303f" stroke-linecap="round" stroke-linejoin="round"/><rect x="582.99" y="142.11" width="12.26" height="5.61" fill="#b4b9c5" stroke="#14303f" stroke-linecap="round" stroke-linejoin="round"/></g><g class="fill-turquoise-4"><path d="M588.35,151.33h1.55c8.6,0,15.59,6.98,15.59,15.59v50.74h-32.72v-50.74c0-8.6,6.98-15.59,15.59-15.59Z" fill="#eaebef"/></g><g class="fill-blue-5"><path d="M589.9,151.33h-1.55c-1.23,0-2.42,.16-3.57,.43,6.88,1.62,12.02,7.78,12.02,15.16v47.69h-23.74v3.04h32.43v-50.74c0-8.61-6.98-15.59-15.59-15.59Z" fill="#b4b9c5"/></g><path d="M588.35,151.33h1.55c8.6,0,15.59,6.98,15.59,15.59v50.74h-32.72v-50.74c0-8.6,6.98-15.59,15.59-15.59Z" fill="none" stroke="#14303f" stroke-linecap="round" stroke-linejoin="round"/><g class="fill-white-3"><rect x="573.05" y="177.28" width="18.19" height="22.06" fill="#fff" stroke="#14303f" stroke-linecap="round" stroke-linejoin="round" stroke-width=".5"/></g></g><g class="fill-yellow-7"><ellipse cx="505.34" cy="171.42" rx="44.95" ry="46.24" fill="#b4b9c5" stroke="#14303f" stroke-linecap="round" stroke-linejoin="round"/></g><g class="fill-red-6"><rect x="459.24" y="100.83" width="151.53" height="14.97" fill="#b4b9c5" stroke="#14303f" stroke-linejoin="round"/></g><ellipse cx="505.34" cy="171.38" rx="42.42" ry="43.63" fill="#14303f" stroke="#14303f" stroke-miterlimit="10"/><path d="M520.08,175.17c-16.87,0-27.77,12.07-27.77,20.5,0,4.34-.07,11.08,.64,17.08,3.92,1.33,8.08,2.05,12.39,2.05,17.53,0,32.58-11.81,39.04-28.66-3.85-5.23-11.67-10.97-24.3-10.97Z" fill="#b4b9c5" stroke="#14303f" stroke-linecap="round" stroke-linejoin="round"/><g class="fill-red-7"><path d="M474.72,201.57v-60.38s-11.79,11.77-11.79,30.19,11.79,30.19,11.79,30.19Z" fill="#b4b9c5" stroke="#14303f" stroke-miterlimit="10"/></g><g><path d="M470.97,97c-2.53,0-4.58,2.05-4.58,4.58s2.05,4.58,4.58,4.58,4.58-2.05,4.58-4.58-2.05-4.58-4.58-4.58Zm0,7.89c-1.83,0-3.32-1.49-3.32-3.32s1.49-3.32,3.32-3.32,3.32,1.49,3.32,3.32-1.49,3.32-3.32,3.32Z" fill="#fff" stroke="#14303f" stroke-linecap="round" stroke-linejoin="round" stroke-width=".5"/><g class="fill-pink-8"><path d="M464.09,106.51v9.03s2.89,3.6,7.04,3.6,6.9-3.63,6.9-3.63v-9h-13.94Zm6.92,6.73c-1.43,0-2.6-1.16-2.6-2.6s1.16-2.6,2.6-2.6,2.6,1.16,2.6,2.6-1.16,2.6-2.6,2.6Z" fill="#eaebef" stroke="#14303f" stroke-linecap="round" stroke-linejoin="round" stroke-width=".5"/></g><rect x="470.23" y="103.53" width="1.59" height="5.97" fill="#fff" stroke="#14303f" stroke-linecap="round" stroke-linejoin="round" stroke-width=".5"/><circle cx="471.01" cy="97.45" r="1.31" fill="#fff" stroke="#14303f" stroke-linecap="round" stroke-linejoin="round" stroke-width=".5"/></g><g><path d="M490.96,97c-2.53,0-4.58,2.05-4.58,4.58s2.05,4.58,4.58,4.58,4.58-2.05,4.58-4.58-2.05-4.58-4.58-4.58Zm0,7.89c-1.83,0-3.32-1.49-3.32-3.32s1.49-3.32,3.32-3.32,3.32,1.49,3.32,3.32-1.49,3.32-3.32,3.32Z" fill="#fff" stroke="#14303f" stroke-linecap="round" stroke-linejoin="round" stroke-width=".5"/><g class="fill-turquoise-5"><path d="M484.08,106.51v9.03s2.89,3.6,7.04,3.6,6.9-3.63,6.9-3.63v-9h-13.94Zm6.92,6.73c-1.43,0-2.6-1.16-2.6-2.6s1.16-2.6,2.6-2.6,2.6,1.16,2.6,2.6-1.16,2.6-2.6,2.6Z" fill="#eaebef" stroke="#14303f" stroke-linecap="round" stroke-linejoin="round" stroke-width=".5"/></g><rect x="490.22" y="103.53" width="1.59" height="5.97" fill="#fff" stroke="#14303f" stroke-linecap="round" stroke-linejoin="round" stroke-width=".5"/><circle cx="491" cy="97.45" r="1.31" fill="#fff" stroke="#14303f" stroke-linecap="round" stroke-linejoin="round" stroke-width=".5"/></g><g><path d="M510.9,97c-2.53,0-4.58,2.05-4.58,4.58s2.05,4.58,4.58,4.58,4.58-2.05,4.58-4.58-2.05-4.58-4.58-4.58Zm0,7.89c-1.83,0-3.32-1.49-3.32-3.32s1.49-3.32,3.32-3.32,3.32,1.49,3.32,3.32-1.49,3.32-3.32,3.32Z" fill="#fff" stroke="#14303f" stroke-linecap="round" stroke-linejoin="round" stroke-width=".5"/><g class="fill-yellow-8"><path d="M504.03,106.51v9.03s2.89,3.6,7.04,3.6,6.9-3.63,6.9-3.63v-9h-13.94Zm6.92,6.73c-1.43,0-2.6-1.16-2.6-2.6s1.16-2.6,2.6-2.6,2.6,1.16,2.6,2.6-1.16,2.6-2.6,2.6Z" fill="#eaebef" stroke="#14303f" stroke-linecap="round" stroke-linejoin="round" stroke-width=".5"/></g><rect x="510.16" y="103.53" width="1.59" height="5.97" fill="#fff" stroke="#14303f" stroke-linecap="round" stroke-linejoin="round" stroke-width=".5"/><circle cx="510.94" cy="97.45" r="1.31" fill="#fff" stroke="#14303f" stroke-linecap="round" stroke-linejoin="round" stroke-width=".5"/></g><line x1="461.68" y1="100.83" x2="453.31" y2="100.83" fill="#eaebef" stroke="#14303f" stroke-miterlimit="10"/><line x1="610.76" y1="100.83" x2="617.02" y2="100.83" fill="#eaebef" stroke="#14303f" stroke-miterlimit="10"/><line x1="459.24" y1="217.66" x2="459.24" y2="223.79" fill="#eaebef" stroke="#14303f" stroke-miterlimit="10"/><line x1="610.76" y1="217.66" x2="610.76" y2="223.79" fill="#eaebef" stroke="#14303f" stroke-miterlimit="10"/><g><path d="M559.98,183.53c-1.69-5.58-9.99-15.83-26.86-15.83s-27.77,12.07-27.77,20.5-.26,25.95,5.45,29.46h44.38c7.04-3.37,6.49-28.55,4.8-34.13Z" fill="#eaebef"/><path d="M518.04,209.59c.02-4.98,.21-9.96,.86-14.89,.59-4.4,1.46-8.85,3.31-12.91,2.35-5.19,5.89-9.96,10.01-14.06-16.36,.42-26.88,12.2-26.88,20.48s-.26,25.95,5.45,29.46h9.37c-.02-1.34-.48-3.38-2.18-4.36-.02-1.34,.05-2.36,.06-3.71Z" fill="#b4b9c5"/><path d="M559.31,209.76s0,3.95-3.56,7.9h-9.37c.02-1.34,.48-3.38,2.18-4.36,.02-1.34,9.35-4.39,10.76-3.54Z" fill="#b4b9c5"/><path d="M559.98,183.53c-1.69-5.58-9.99-15.83-26.86-15.83s-27.77,12.07-27.77,20.5-.26,25.95,5.45,29.46h44.38c7.04-3.37,6.49-28.55,4.8-34.13Z" fill="none" stroke="#14303f" stroke-linecap="round" stroke-linejoin="round"/><path d="M559.31,209.76s-13.11,.76-13.11,7.9" fill="none" stroke="#14303f" stroke-linecap="round" stroke-linejoin="round" stroke-width=".5"/><line x1="523.21" y1="215.24" x2="523.21" y2="217.66" fill="none" stroke="#14303f" stroke-linecap="round" stroke-linejoin="round" stroke-width=".5"/><line x1="526.54" y1="215.24" x2="526.54" y2="217.66" fill="none" stroke="#14303f" stroke-linecap="round" stroke-linejoin="round" stroke-width=".5"/><line x1="529.87" y1="215.24" x2="529.87" y2="217.66" fill="none" stroke="#14303f" stroke-linecap="round" stroke-linejoin="round" stroke-width=".5"/><line x1="533.2" y1="215.24" x2="533.2" y2="217.66" fill="none" stroke="#14303f" stroke-linecap="round" stroke-linejoin="round" stroke-width=".5"/><line x1="536.53" y1="215.24" x2="536.53" y2="217.66" fill="none" stroke="#14303f" stroke-linecap="round" stroke-linejoin="round" stroke-width=".5"/><line x1="539.86" y1="215.24" x2="539.86" y2="217.66" fill="none" stroke="#14303f" stroke-linecap="round" stroke-linejoin="round" stroke-width=".5"/><line x1="543.19" y1="215.24" x2="543.19" y2="217.66" fill="none" stroke="#14303f" stroke-linecap="round" stroke-linejoin="round" stroke-width=".5"/><rect x="514.22" y="188.29" width="15.87" height="13.76" rx="6.71" ry="6.71" fill="#14303f" stroke="#14303f" stroke-linecap="round" stroke-linejoin="round" stroke-width=".25"/><rect x="536.13" y="188.29" width="15.87" height="13.76" rx="6.71" ry="6.71" transform="translate(1088.12 390.33) rotate(-180)" fill="#14303f" stroke="#14303f" stroke-linecap="round" stroke-linejoin="round" stroke-width=".25"/><path d="M537.37,206.19c0-.62-.53-5.49-3.38-5.99v-.05c-.08,0-.16,.02-.24,.02-.08,0-.16-.02-.24-.02v.05c-2.85,.5-3.38,5.37-3.38,5.99s-.66,4.49,3.38,4.78v.03c.09,0,.16-.01,.24-.01,.08,0,.15,.01,.24,.01v-.03c4.04-.29,3.38-4.15,3.38-4.78Z" fill="#14303f" stroke="#14303f" stroke-linecap="round" stroke-linejoin="round" stroke-width=".25"/><path d="M507.06,209.76s7.2,.42,10.92,3.54c1.3,1.09,2.18,2.51,2.18,4.36" fill="none" stroke="#14303f" stroke-linecap="round" stroke-linejoin="round" stroke-width=".5"/></g></g><g id="cabinet2" class="reveal"><g class="fill-pink-9"><rect x="285.72" y="94.7" width="173.52" height="129.08" fill="#eaebef" stroke="#14303f" stroke-linecap="round" stroke-linejoin="round"/></g><rect x="291.97" y="100.83" width="161.01" height="116.83" fill="#14303f" stroke="#14303f" stroke-linecap="round" stroke-linejoin="round"/><g><line x1="340.14" y1="115.8" x2="340.14" y2="139.46" fill="none" stroke="#eaebef" stroke-miterlimit="10" stroke-width=".5"/><g class="fill-yellow-9"><circle cx="340.14" cy="145.52" r="12.16" fill="#eaebef"/></g><g class="fill-red-8"><path d="M331.59,145.52c0-6.1,4.5-11.14,10.35-12.01-.59-.09-1.19-.15-1.8-.15-6.71,0-12.16,5.44-12.16,12.16s5.44,12.16,12.16,12.16c.61,0,1.21-.06,1.8-.15-5.86-.87-10.35-5.91-10.35-12.01Z" fill="#b4b9c5"/></g><line x1="380.06" y1="115.8" x2="380.06" y2="139.46" fill="none" stroke="#eaebef" stroke-miterlimit="10" stroke-width=".5"/><g class="fill-turquoise-6"><circle cx="380.06" cy="139.46" r="9.66" fill="#eaebef"/></g><g class="fill-blue-6"><path d="M373.27,139.46c0-4.85,3.57-8.85,8.23-9.54-.47-.07-.94-.12-1.43-.12-5.33,0-9.66,4.32-9.66,9.66s4.32,9.66,9.66,9.66c.49,0,.96-.05,1.43-.12-4.65-.69-8.23-4.69-8.23-9.54Z" fill="#b4b9c5"/></g></g><g class="fill-red-9"><rect x="291.97" y="100.83" width="161.01" height="14.97" fill="#b4b9c5" stroke="#14303f" stroke-linecap="round" stroke-linejoin="round"/></g><line x1="294.42" y1="100.83" x2="286.04" y2="100.83" fill="#eaebef" stroke="#14303f" stroke-miterlimit="10"/><line x1="452.98" y1="100.83" x2="459.24" y2="100.83" fill="#eaebef" stroke="#14303f" stroke-miterlimit="10"/><line x1="291.97" y1="217.66" x2="291.97" y2="223.79" fill="#eaebef" stroke="#14303f" stroke-miterlimit="10"/><line x1="452.98" y1="216.93" x2="452.98" y2="223.79" fill="#eaebef" stroke="#14303f" stroke-miterlimit="10"/><g><g class="fill-red-10"><path d="M427.91,162.87h-53.59c-10.76,0-21.52,.57-21.52,11.51v40.59h96.63v-40.59c0-10.95-10.76-11.51-21.52-11.51Z" fill="#eaebef"/><rect x="352.8" y="214.97" width="20.86" height="2.69" fill="#b4b9c5" stroke="#14303f" stroke-linejoin="round"/><rect x="428.57" y="214.97" width="20.86" height="2.69" fill="#b4b9c5" stroke="#14303f" stroke-linejoin="round"/></g><circle cx="317.3" cy="192.68" r="24.29" fill="#fff"/><g class="fill-red-11"><path d="M318.89,201.51c11.38-.86,18.71-5.14,22.69-8.32,0-.17,.01-.33,.01-.5,0-13.42-10.88-24.29-24.29-24.29s-24.18,10.77-24.29,24.09c3.7,3.59,12.34,10.05,25.87,9.02Z" fill="#b4b9c5"/></g><path d="M293.31,190.19s21.47,21.2,48.22,.68l-.02,3.9s-24.25,20.79-48.33-.71l.14-3.87Z" fill="#14303f"/><g class="fill-blue-7"><path d="M427.91,162.87h-53.59c-10.76,0-21.52,.57-21.52,11.51v6.25c0-10.95,10.76-11.51,21.52-11.51h53.59c10.76,0,21.52,.57,21.52,11.51v-6.25c0-10.95-10.76-11.51-21.52-11.51Z" fill="#b4b9c5"/></g><g class="fill-yellow-10"><rect x="395.35" y="173.16" width="11.52" height="7.84" fill="#b4b9c5" stroke="#14303f" stroke-linejoin="round" stroke-width=".5"/><rect x="428.16" y="162.87" width="5.76" height="52.1" fill="#b4b9c5" stroke="#14303f" stroke-linejoin="round" stroke-width=".5"/><rect x="367.9" y="162.87" width="5.76" height="52.1" fill="#b4b9c5" stroke="#14303f" stroke-linejoin="round" stroke-width=".5"/></g><path d="M427.91,162.87h-53.59c-10.76,0-21.52,.57-21.52,11.51v40.59h96.63v-40.59c0-10.95-10.76-11.51-21.52-11.51Z" fill="none" stroke="#14303f" stroke-linecap="round" stroke-linejoin="round"/><line x1="352.8" y1="176.52" x2="449.43" y2="176.52" fill="none" stroke="#14303f" stroke-miterlimit="10"/><circle cx="317.3" cy="192.68" r="24.29" fill="none" stroke="#14303f" stroke-linejoin="round"/><circle cx="314.8" cy="201.51" r="7.44" fill="#14303f"/><g class="fill-blue-8"><circle cx="314.8" cy="201.51" r="4.09" fill="#b4b9c5"/></g><circle cx="314.8" cy="201.51" r="1.75" fill="#fff"/><path d="M299.55,192.68c0-11.68,7.81-22.35,22.82-23.76-1.64-.35-3.33-.53-5.07-.53-13.42,0-24.29,10.88-24.29,24.29s10.88,24.29,24.29,24.29c1.74,0,3.43-.19,5.07-.53-15.86-.76-22.82-12.08-22.82-23.76Z" fill="#14303f"/></g></g><g id="cabinet4" class="reveal"><g class="fill-pink-10"><rect x="610.07" y="94.7" width="173.52" height="129.08" fill="#eaebef" stroke="#14303f" stroke-linecap="round" stroke-linejoin="round"/></g><rect x="616.33" y="100.83" width="161.01" height="116.83" fill="#14303f" stroke="#14303f" stroke-linecap="round" stroke-linejoin="round"/><g><g class="fill-red-12"><polygon points="696.91 139.62 696.91 217.61 702.39 217.61 702.39 145.1 757.18 145.1 757.18 217.61 762.66 217.61 762.66 139.62 696.91 139.62" fill="#b4b9c5" stroke="#14303f" stroke-linejoin="round"/></g><g class="fill-green"><g><rect x="728.75" y="153.03" width=".5" height="22.04" fill="#b4b9c5"/><path d="M729.79,155.37s1.77-4.6,6.01-2.71c0,0,.61,4.24-6.01,2.71Z" fill="#b4b9c5"/><path d="M729.79,162.06s2.3-5.97,7.8-3.51c0,0,.79,5.5-7.8,3.51Z" fill="#b4b9c5"/><path d="M729.79,169.24s2.9-7.56,9.87-4.44c0,0,1.01,6.96-9.87,4.44Z" fill="#b4b9c5"/><path d="M729.79,177.94s3.59-9.35,12.21-5.5c0,0,1.24,8.61-12.21,5.5Z" fill="#b4b9c5"/><path d="M728.13,155.37s-1.77-4.6-6.01-2.71c0,0-.61,4.24,6.01,2.71Z" fill="#b4b9c5"/><path d="M728.13,162.06s-2.3-5.97-7.8-3.51c0,0-.79,5.5,7.8,3.51Z" fill="#b4b9c5"/><path d="M728.13,169.24s-2.9-7.56-9.87-4.44c0,0-1.01,6.96,9.87,4.44Z" fill="#b4b9c5"/><path d="M728.13,177.94s-3.59-9.35-12.21-5.5c0,0-1.24,8.61,12.21,5.5Z" fill="#b4b9c5"/><path d="M728.13,188.57s-4.32-11.24-14.68-6.61c0,0-1.5,10.36,14.68,6.61Z" fill="#b4b9c5"/><path d="M728.13,201.78s-5.01-13.03-17.02-7.67c0,0-1.73,12.01,17.02,7.67Z" fill="#b4b9c5"/></g><g><rect x="728.75" y="153.03" width=".5" height="22.04" fill="#b4b9c5"/><path d="M729.79,155.37s1.77-4.6,6.01-2.71c0,0,.61,4.24-6.01,2.71Z" fill="#b4b9c5"/><path d="M729.79,162.06s2.3-5.97,7.8-3.51c0,0,.79,5.5-7.8,3.51Z" fill="#b4b9c5"/><path d="M729.79,169.24s2.9-7.56,9.87-4.44c0,0,1.01,6.96-9.87,4.44Z" fill="#b4b9c5"/><path d="M729.79,177.94s3.59-9.35,12.21-5.5c0,0,1.24,8.61-12.21,5.5Z" fill="#b4b9c5"/><path d="M728.13,155.37s-1.77-4.6-6.01-2.71c0,0-.61,4.24,6.01,2.71Z" fill="#b4b9c5"/><path d="M728.13,162.06s-2.3-5.97-7.8-3.51c0,0-.79,5.5,7.8,3.51Z" fill="#b4b9c5"/><path d="M728.13,169.24s-2.9-7.56-9.87-4.44c0,0-1.01,6.96,9.87,4.44Z" fill="#b4b9c5"/><path d="M728.13,177.94s-3.59-9.35-12.21-5.5c0,0-1.24,8.61,12.21,5.5Z" fill="#b4b9c5"/><path d="M728.13,188.57s-4.32-11.24-14.68-6.61c0,0-1.5,10.36,14.68,6.61Z" fill="#b4b9c5"/><path d="M728.13,201.78s-5.01-13.03-17.02-7.67c0,0-1.73,12.01,17.02,7.67Z" fill="#b4b9c5"/></g></g></g><g class="fill-red-13"><rect x="616.33" y="100.83" width="161.01" height="14.97" fill="#b4b9c5" stroke="#14303f" stroke-linejoin="round"/></g><line x1="618.77" y1="100.83" x2="610.39" y2="100.83" fill="#eaebef" stroke="#14303f" stroke-miterlimit="10"/><line x1="777.33" y1="100.83" x2="783.59" y2="100.83" fill="#eaebef" stroke="#14303f" stroke-miterlimit="10"/><line x1="616.33" y1="217.66" x2="616.33" y2="223.79" fill="#eaebef" stroke="#14303f" stroke-miterlimit="10"/><line x1="777.33" y1="218.04" x2="777.33" y2="223.79" fill="#ffb29a" stroke="#14303f" stroke-miterlimit="10"/><g><rect x="621.15" y="133.87" width="43.86" height="83.74" fill="#b4b9c5"/><circle cx="642.63" cy="170.15" r="14.06" fill="#fff" stroke="#14303f" stroke-linejoin="round" stroke-width=".5"/><g class="fill-turquoise-7"><rect x="621.15" y="160.32" width="43.86" height="51.74" fill="#eaebef"/><path d="M632.3,160.64c-2.31,2.5-3.73,5.84-3.73,9.52,0,7.76,6.29,14.06,14.06,14.06s14.06-6.29,14.06-14.06c0-3.68-1.42-7.01-3.73-9.52h-20.65Z" fill="none" stroke="#14303f" stroke-linejoin="round" stroke-width=".5"/></g><g class="fill-green-2"><circle cx="640.9" cy="164.79" r="7.36" fill="#b4b9c5" stroke="#14303f" stroke-linejoin="round" stroke-width=".5"/></g><circle cx="641.22" cy="164.2" r="1.86" fill="#14303f" stroke="#14303f" stroke-linejoin="round"/><line x1="621.15" y1="160.32" x2="665.01" y2="160.32" fill="none" stroke="#14303f" stroke-miterlimit="10" stroke-width=".5"/><line x1="621.15" y1="212.06" x2="665.01" y2="212.06" fill="none" stroke="#14303f" stroke-miterlimit="10" stroke-width=".5"/><g class="fill-white-4"><rect x="625.37" y="139.62" width="6.83" height="77.98" fill="#eaebef"/></g><g class="fill-pink-11"><rect x="621.15" y="133.87" width="43.86" height="5.75" fill="#fff" stroke="#14303f" stroke-linejoin="round"/><rect x="618.77" y="128.18" width="48.62" height="5.68" rx="1.25" ry="1.25" fill="#fff" stroke="#14303f" stroke-linejoin="round"/></g><rect x="621.15" y="133.87" width="43.86" height="83.74" fill="none" stroke="#14303f" stroke-linejoin="round"/></g><g><rect x="661.43" y="156.37" width="26.35" height="60.81" fill="#b4b9c5"/><g class="fill-yellow-11"><rect x="661.43" y="177.28" width="26.35" height="32.73" fill="#eaebef"/></g><g class="fill-red-14"><circle cx="680.17" cy="189.35" r="2.99" fill="#fff" stroke="#14303f" stroke-linejoin="round" stroke-width=".5"/><circle cx="682.36" cy="204.97" r="2.99" fill="#fff" stroke="#14303f" stroke-linejoin="round" stroke-width=".5"/><circle cx="674.19" cy="205.2" r="2.99" fill="#fff" stroke="#14303f" stroke-linejoin="round" stroke-width=".5"/><circle cx="672.47" cy="197.48" r="2.99" fill="#fff" stroke="#14303f" stroke-linejoin="round" stroke-width=".5"/></g><line x1="661.43" y1="177.28" x2="687.78" y2="177.28" fill="none" stroke="#14303f" stroke-miterlimit="10" stroke-width=".5"/><line x1="661.43" y1="210" x2="687.78" y2="210" fill="none" stroke="#14303f" stroke-miterlimit="10" stroke-width=".5"/><g class="fill-white-5"><rect x="664.25" y="161.36" width="4.47" height="56.24" fill="#fff"/></g><g class="fill-pink-12"><rect x="661.43" y="156.8" width="26.35" height="4.39" fill="#fff" stroke="#14303f" stroke-linejoin="round"/><rect x="659.16" y="151.11" width="30.89" height="5.68" rx="1" ry="1" fill="#fff" stroke="#14303f" stroke-linejoin="round"/></g><rect x="661.43" y="156.8" width="26.35" height="60.81" fill="none" stroke="#14303f" stroke-linejoin="round"/></g><g><g><path d="M770.89,180.76l-48.46-6.8c-3.19-.45-4.37,1.52-3.94,7.3,.4,5.53,3.11,18.7,24.58,21.71,21.47,3.01,27.69-8.9,29.6-14.11,2-5.44,1.41-7.66-1.78-8.1Z" fill="#eaebef"/><path d="M725.09,174.33l-2.66-.37c-3.19-.45-4.37,1.52-3.94,7.3,.37,5.08,2.7,16.58,19.68,20.77-16.61-13.35-12.96-26.18-13.08-27.69Z" fill="#fff"/><path d="M770.89,180.76l-3.75-.53c-2.43,9.8-6.25,17.54-19.19,23.18,17.55,.69,22.96-9.76,24.72-14.55,2-5.44,1.41-7.66-1.78-8.1Z" fill="#fff"/><path d="M751.41,178.03l-9.5-1.33c-.63-.09-.86,.3-.77,1.43,.08,1.08,.61,3.67,4.82,4.26s5.43-1.75,5.8-2.77c.39-1.07,.28-1.5-.35-1.59Z" fill="#b4b9c5"/><path d="M770.89,180.76l-48.46-6.8c-3.19-.45-4.37,1.52-3.94,7.3,.4,5.53,3.11,18.7,24.58,21.71,21.47,3.01,27.69-8.9,29.6-14.11,2-5.44,1.41-7.66-1.78-8.1Z" fill="none" stroke="#14303f" stroke-linejoin="round"/></g><g><path d="M770.89,189.99l-48.93-.14c-3.22,0-4.12,2.1-2.91,7.77,1.15,5.43,5.63,18.1,27.3,18.16,21.68,.06,26.22-12.58,27.41-18,1.24-5.66,.36-7.78-2.87-7.79Z" fill="#eaebef"/><path d="M724.64,189.86h-2.68c-3.22-.02-4.12,2.09-2.91,7.76,1.06,4.98,4.93,16.06,22.32,17.9-18.27-10.97-16.4-24.18-16.73-25.66Z" fill="#fff"/><path d="M770.89,189.99h-3.79c-1.08,10.02-3.8,18.22-15.86,25.56,17.48-1.7,21.42-12.79,22.51-17.77,1.24-5.66,.36-7.78-2.87-7.79Z" fill="#fff"/><path d="M751.22,189.93l-9.59-.03c-.63,0-.81,.41-.57,1.52,.23,1.06,1.1,3.55,5.35,3.56s5.14-2.47,5.37-3.53c.24-1.11,.07-1.52-.56-1.53Z" fill="#b4b9c5"/><path d="M770.89,189.99l-48.93-.14c-3.22,0-4.12,2.1-2.91,7.77,1.15,5.43,5.63,18.1,27.3,18.16,21.68,.06,26.22-12.58,27.41-18,1.24-5.66,.36-7.78-2.87-7.79Z" fill="none" stroke="#14303f" stroke-linejoin="round"/></g><rect x="733.71" y="215.25" width="25.54" height="2.57" rx="1" ry="1" fill="#eaebef" stroke="#14303f" stroke-linejoin="round"/></g></g></svg>
