<?xml version="1.0" encoding="UTF-8"?><svg id="us-flags" xmlns="http://www.w3.org/2000/svg" width="1070" height="250" viewBox="0 0 1070 250"><g id="flag5" class="reveal"><g><g class="fill-blue"><rect x="878.8" y="60.26" width="179.26" height="126.59" fill="#b4b9c5" stroke="#14303f" stroke-linejoin="round"/></g><g class="fill-yellow"><polygon points="908.67 109.17 907.79 106.46 906.91 109.17 904.06 109.17 906.37 110.85 905.48 113.56 907.79 111.89 910.1 113.56 909.22 110.85 911.52 109.17 908.67 109.17" fill="#fff" stroke="#14303f" stroke-linejoin="round" stroke-width=".5"/><polygon points="929.81 117.02 928.93 114.31 928.05 117.02 925.2 117.02 927.51 118.7 926.63 121.41 928.93 119.73 931.24 121.41 930.36 118.7 932.66 117.02 929.81 117.02" fill="#fff" stroke="#14303f" stroke-linejoin="round" stroke-width=".5"/><polygon points="940.32 128.29 939.44 125.58 938.56 128.29 935.71 128.29 938.01 129.97 937.13 132.68 939.44 131 941.75 132.68 940.87 129.97 943.17 128.29 940.32 128.29" fill="#fff" stroke="#14303f" stroke-linejoin="round" stroke-width=".5"/><polygon points="950.07 137.35 949.19 140.06 946.34 140.06 948.65 141.74 947.77 144.45 950.07 142.77 952.38 144.45 951.5 141.74 953.81 140.06 950.95 140.06 950.07 137.35" fill="#fff" stroke="#14303f" stroke-linejoin="round" stroke-width=".5"/><polygon points="983.15 153.01 985.45 151.33 982.6 151.33 981.72 148.62 980.84 151.33 977.99 151.33 980.3 153.01 979.42 155.72 981.72 154.04 984.03 155.72 983.15 153.01" fill="#fff" stroke="#14303f" stroke-linejoin="round" stroke-width=".5"/><polygon points="949.56 156.65 948.68 153.94 947.8 156.65 944.95 156.65 947.26 158.32 946.37 161.03 948.68 159.36 950.99 161.03 950.11 158.32 952.41 156.65 949.56 156.65" fill="#fff" stroke="#14303f" stroke-linejoin="round" stroke-width=".5"/><polygon points="973.36 164.5 972.48 161.78 971.6 164.5 968.75 164.5 971.05 166.17 970.17 168.88 972.48 167.21 974.79 168.88 973.91 166.17 976.21 164.5 973.36 164.5" fill="#fff" stroke="#14303f" stroke-linejoin="round" stroke-width=".5"/><polygon points="1027.79 84.07 1031.66 81.26 1026.87 81.26 1025.4 76.71 1023.92 81.26 1019.14 81.26 1023.01 84.07 1021.53 88.62 1025.4 85.81 1029.27 88.62 1027.79 84.07" fill="#fff" stroke="#14303f" stroke-linejoin="round" stroke-width=".5"/></g></g><g class="dashed-lines"><g><line x1="878.88" y1="189.16" x2="878.88" y2="191.66" fill="none" stroke="#14303f" stroke-linecap="round" stroke-linejoin="round" stroke-width=".5"/><polyline points="878.88 192.81 878.88 195.31 881.38 195.31" fill="none" stroke="#14303f" stroke-linecap="round" stroke-linejoin="round" stroke-width=".5"/><line x1="886.35" y1="195.31" x2="1053.07" y2="195.31" fill="none" stroke="#14303f" stroke-dasharray="0 0 4.98 4.98" stroke-linecap="round" stroke-linejoin="round" stroke-width=".5"/><polyline points="1055.56 195.31 1058.06 195.31 1058.06 192.81" fill="none" stroke="#14303f" stroke-linecap="round" stroke-linejoin="round" stroke-width=".5"/><line x1="1058.06" y1="191.66" x2="1058.06" y2="189.16" fill="none" stroke="#14303f" stroke-linecap="round" stroke-linejoin="round" stroke-width=".5"/></g></g><g class="dashed"><g><line x1="878.88" y1="110.42" x2="881.38" y2="110.42" fill="none" stroke="#14303f" stroke-linecap="round" stroke-linejoin="round" stroke-width=".5"/><line x1="886.16" y1="110.42" x2="902.9" y2="110.42" fill="none" stroke="#14303f" stroke-dasharray="0 0 4.78 4.78" stroke-linecap="round" stroke-linejoin="round" stroke-width=".5"/><polyline points="905.29 110.42 907.79 110.42 907.79 112.92" fill="none" stroke="#14303f" stroke-linecap="round" stroke-linejoin="round" stroke-width=".5"/><line x1="907.79" y1="117.67" x2="907.79" y2="181.7" fill="none" stroke="#14303f" stroke-dasharray="0 0 4.74 4.74" stroke-linecap="round" stroke-linejoin="round" stroke-width=".5"/><line x1="907.79" y1="184.07" x2="907.79" y2="186.57" fill="none" stroke="#14303f" stroke-linecap="round" stroke-linejoin="round" stroke-width=".5"/></g><g><line x1="878.88" y1="118.09" x2="881.38" y2="118.09" fill="none" stroke="#14303f" stroke-linecap="round" stroke-linejoin="round" stroke-width=".5"/><line x1="886.38" y1="118.09" x2="923.93" y2="118.09" fill="none" stroke="#14303f" stroke-dasharray="0 0 5.01 5.01" stroke-linecap="round" stroke-linejoin="round" stroke-width=".5"/><polyline points="926.43 118.09 928.93 118.09 928.93 120.59" fill="none" stroke="#14303f" stroke-linecap="round" stroke-linejoin="round" stroke-width=".5"/><line x1="928.93" y1="125.47" x2="928.93" y2="181.63" fill="none" stroke="#14303f" stroke-dasharray="0 0 4.88 4.88" stroke-linecap="round" stroke-linejoin="round" stroke-width=".5"/><line x1="928.93" y1="184.07" x2="928.93" y2="186.57" fill="none" stroke="#14303f" stroke-linecap="round" stroke-linejoin="round" stroke-width=".5"/></g><g><line x1="878.88" y1="129.59" x2="881.38" y2="129.59" fill="none" stroke="#14303f" stroke-linecap="round" stroke-linejoin="round" stroke-width=".5"/><line x1="886.43" y1="129.59" x2="934.41" y2="129.59" fill="none" stroke="#14303f" stroke-dasharray="0 0 5.05 5.05" stroke-linecap="round" stroke-linejoin="round" stroke-width=".5"/><polyline points="936.94 129.59 939.44 129.59 939.44 132.09" fill="none" stroke="#14303f" stroke-linecap="round" stroke-linejoin="round" stroke-width=".5"/><line x1="939.44" y1="136.81" x2="939.44" y2="181.71" fill="none" stroke="#14303f" stroke-dasharray="0 0 4.73 4.73" stroke-linecap="round" stroke-linejoin="round" stroke-width=".5"/><line x1="939.44" y1="184.07" x2="939.44" y2="186.57" fill="none" stroke="#14303f" stroke-linecap="round" stroke-linejoin="round" stroke-width=".5"/></g><g><line x1="878.88" y1="141.2" x2="881.38" y2="141.2" fill="none" stroke="#14303f" stroke-linecap="round" stroke-linejoin="round" stroke-width=".5"/><line x1="886.47" y1="141.2" x2="945.03" y2="141.2" fill="none" stroke="#14303f" stroke-dasharray="0 0 5.09 5.09" stroke-linecap="round" stroke-linejoin="round" stroke-width=".5"/><polyline points="947.57 141.2 950.07 141.2 950.07 143.7" fill="none" stroke="#14303f" stroke-linecap="round" stroke-linejoin="round" stroke-width=".5"/><line x1="950.07" y1="147.96" x2="950.07" y2="171.42" fill="none" stroke="#14303f" stroke-dasharray="0 0 4.26 4.26" stroke-linecap="round" stroke-linejoin="round" stroke-width=".5"/><line x1="950.07" y1="173.55" x2="950.07" y2="176.05" fill="none" stroke="#14303f" stroke-linecap="round" stroke-linejoin="round" stroke-width=".5"/></g><line x1="950.07" y1="182" x2="950.07" y2="186.85" fill="none" stroke="#14303f" stroke-dasharray="0 4.85" stroke-linecap="round" stroke-linejoin="round" stroke-width=".5"/><g><line x1="878.88" y1="152.17" x2="881.38" y2="152.17" fill="none" stroke="#14303f" stroke-linecap="round" stroke-linejoin="round" stroke-width=".5"/><line x1="886.54" y1="152.17" x2="976.86" y2="152.17" fill="none" stroke="#14303f" stroke-dasharray="0 0 5.16 5.16" stroke-linecap="round" stroke-linejoin="round" stroke-width=".5"/><polyline points="979.44 152.17 981.94 152.17 981.94 154.67" fill="none" stroke="#14303f" stroke-linecap="round" stroke-linejoin="round" stroke-width=".5"/><line x1="981.94" y1="160.55" x2="981.94" y2="181.13" fill="none" stroke="#14303f" stroke-dasharray="0 0 5.88 5.88" stroke-linecap="round" stroke-linejoin="round" stroke-width=".5"/><line x1="981.94" y1="184.07" x2="981.94" y2="186.57" fill="none" stroke="#14303f" stroke-linecap="round" stroke-linejoin="round" stroke-width=".5"/></g><g><line x1="878.88" y1="165.48" x2="881.38" y2="165.48" fill="none" stroke="#14303f" stroke-linecap="round" stroke-linejoin="round" stroke-width=".5"/><line x1="886.59" y1="165.48" x2="967.37" y2="165.48" fill="none" stroke="#14303f" stroke-dasharray="0 0 5.21 5.21" stroke-linecap="round" stroke-linejoin="round" stroke-width=".5"/><polyline points="969.98 165.48 972.48 165.48 972.48 167.98" fill="none" stroke="#14303f" stroke-linecap="round" stroke-linejoin="round" stroke-width=".5"/><line x1="972.48" y1="173.35" x2="972.48" y2="181.39" fill="none" stroke="#14303f" stroke-dasharray="0 0 5.36 5.36" stroke-linecap="round" stroke-linejoin="round" stroke-width=".5"/><line x1="972.48" y1="184.07" x2="972.48" y2="186.57" fill="none" stroke="#14303f" stroke-linecap="round" stroke-linejoin="round" stroke-width=".5"/></g><g><line x1="878.88" y1="157.48" x2="881.38" y2="157.48" fill="none" stroke="#14303f" stroke-linecap="round" stroke-linejoin="round" stroke-width=".5"/><line x1="886.34" y1="157.48" x2="943.39" y2="157.48" fill="none" stroke="#14303f" stroke-dasharray="0 0 4.96 4.96" stroke-linecap="round" stroke-linejoin="round" stroke-width=".5"/><polyline points="945.88 157.48 948.38 157.48 948.38 159.98" fill="none" stroke="#14303f" stroke-linecap="round" stroke-linejoin="round" stroke-width=".5"/><line x1="948.38" y1="164.8" x2="948.38" y2="181.67" fill="none" stroke="#14303f" stroke-dasharray="0 0 4.82 4.82" stroke-linecap="round" stroke-linejoin="round" stroke-width=".5"/><line x1="948.38" y1="184.07" x2="948.38" y2="186.57" fill="none" stroke="#14303f" stroke-linecap="round" stroke-linejoin="round" stroke-width=".5"/></g><g><line x1="1025.4" y1="138.37" x2="1025.4" y2="140.87" fill="none" stroke="#14303f" stroke-linecap="round" stroke-linejoin="round" stroke-width=".5"/><line x1="1025.4" y1="145.7" x2="1025.4" y2="181.93" fill="none" stroke="#14303f" stroke-dasharray="0 0 4.83 4.83" stroke-linecap="round" stroke-linejoin="round" stroke-width=".5"/><line x1="1025.4" y1="184.35" x2="1025.4" y2="186.85" fill="none" stroke="#14303f" stroke-linecap="round" stroke-linejoin="round" stroke-width=".5"/></g><g><line x1="958.33" y1="83.46" x2="960.83" y2="83.46" fill="none" stroke="#14303f" stroke-linecap="round" stroke-linejoin="round" stroke-width=".5"/><line x1="965.61" y1="83.46" x2="1020.51" y2="83.46" fill="none" stroke="#14303f" stroke-dasharray="0 0 4.77 4.77" stroke-linecap="round" stroke-linejoin="round" stroke-width=".5"/><polyline points="1022.9 83.46 1025.4 83.46 1025.4 85.96" fill="none" stroke="#14303f" stroke-linecap="round" stroke-linejoin="round" stroke-width=".5"/><line x1="1025.4" y1="90.55" x2="1025.4" y2="124.99" fill="none" stroke="#14303f" stroke-dasharray="0 0 4.59 4.59" stroke-linecap="round" stroke-linejoin="round" stroke-width=".5"/><line x1="1025.4" y1="127.28" x2="1025.4" y2="129.78" fill="none" stroke="#14303f" stroke-linecap="round" stroke-linejoin="round" stroke-width=".5"/></g><g><line x1="878.8" y1="83.46" x2="881.3" y2="83.46" fill="none" stroke="#14303f" stroke-linecap="round" stroke-linejoin="round" stroke-width=".5"/><line x1="886.68" y1="83.46" x2="937.74" y2="83.46" fill="none" stroke="#14303f" stroke-dasharray="0 0 5.38 5.38" stroke-linecap="round" stroke-linejoin="round" stroke-width=".5"/><line x1="940.43" y1="83.46" x2="942.93" y2="83.46" fill="none" stroke="#14303f" stroke-linecap="round" stroke-linejoin="round" stroke-width=".5"/></g><g><line x1="1025.33" y1="76.45" x2="1027.83" y2="76.45" fill="none" stroke="#14303f" stroke-linecap="round" stroke-linejoin="round" stroke-width=".5"/><line x1="1032.7" y1="76.45" x2="1040" y2="76.45" fill="none" stroke="#14303f" stroke-dasharray="0 0 4.87 4.87" stroke-linecap="round" stroke-linejoin="round" stroke-width=".5"/><polyline points="1042.44 76.45 1044.94 76.45 1044.94 77.98" fill="none" stroke="#14303f" stroke-linecap="round" stroke-linejoin="round" stroke-width=".5"/></g><g><line x1="1025.33" y1="88.62" x2="1027.83" y2="88.62" fill="none" stroke="#14303f" stroke-linecap="round" stroke-linejoin="round" stroke-width=".5"/><line x1="1032.7" y1="88.62" x2="1040" y2="88.62" fill="none" stroke="#14303f" stroke-dasharray="0 0 4.87 4.87" stroke-linecap="round" stroke-linejoin="round" stroke-width=".5"/><polyline points="1042.44 88.62 1044.94 88.62 1044.94 87.1" fill="none" stroke="#14303f" stroke-linecap="round" stroke-linejoin="round" stroke-width=".5"/></g><g><line x1="981.72" y1="148.29" x2="984.22" y2="148.29" fill="none" stroke="#14303f" stroke-linecap="round" stroke-linejoin="round" stroke-width=".5"/><line x1="988.76" y1="148.29" x2="995.58" y2="148.29" fill="none" stroke="#14303f" stroke-dasharray="0 0 4.54 4.54" stroke-linecap="round" stroke-linejoin="round" stroke-width=".5"/><line x1="997.85" y1="148.29" x2="1000.35" y2="148.29" fill="none" stroke="#14303f" stroke-linecap="round" stroke-linejoin="round" stroke-width=".5"/></g><g><line x1="981.72" y1="155.72" x2="984.22" y2="155.72" fill="none" stroke="#14303f" stroke-linecap="round" stroke-linejoin="round" stroke-width=".5"/><line x1="988.76" y1="155.72" x2="995.58" y2="155.72" fill="none" stroke="#14303f" stroke-dasharray="0 0 4.54 4.54" stroke-linecap="round" stroke-linejoin="round" stroke-width=".5"/><line x1="997.85" y1="155.72" x2="1000.35" y2="155.72" fill="none" stroke="#14303f" stroke-linecap="round" stroke-linejoin="round" stroke-width=".5"/></g></g></g><g id="flag4" class="reveal"><g class="dashed-lines"><g><line x1="662.07" y1="203.82" x2="664.57" y2="203.83" fill="none" stroke="#14303f" stroke-linecap="round" stroke-linejoin="round" stroke-width=".5"/><line x1="669.65" y1="203.84" x2="717.92" y2="203.94" fill="none" stroke="#14303f" stroke-dasharray="0 0 5.08 5.08" stroke-linecap="round" stroke-linejoin="round" stroke-width=".5"/><polyline points="720.46 203.94 722.96 203.95 722.96 201.45" fill="none" stroke="#14303f" stroke-linecap="round" stroke-linejoin="round" stroke-width=".5"/><line x1="722.96" y1="198.41" x2="722.96" y2="193.86" fill="none" stroke="#14303f" stroke-dasharray="0 0 3.04 3.04" stroke-linecap="round" stroke-linejoin="round" stroke-width=".5"/><line x1="722.96" y1="192.34" x2="722.96" y2="189.84" fill="none" stroke="#14303f" stroke-linecap="round" stroke-linejoin="round" stroke-width=".5"/></g><g><line x1="668.12" y1="123.55" x2="668.12" y2="126.05" fill="none" stroke="#14303f" stroke-linecap="round" stroke-linejoin="round" stroke-width=".5"/><line x1="668.12" y1="131.16" x2="668.12" y2="189.83" fill="none" stroke="#14303f" stroke-dasharray="0 0 5.1 5.1" stroke-linecap="round" stroke-linejoin="round" stroke-width=".5"/><polyline points="668.12 192.38 668.12 194.88 670.62 194.87" fill="none" stroke="#14303f" stroke-linecap="round" stroke-linejoin="round" stroke-width=".5"/><line x1="675.29" y1="194.84" x2="710.37" y2="194.68" fill="none" stroke="#14303f" stroke-dasharray="0 0 4.68 4.68" stroke-linecap="round" stroke-linejoin="round" stroke-width=".5"/><polyline points="712.71 194.67 715.21 194.65 715.21 192.15" fill="none" stroke="#14303f" stroke-linecap="round" stroke-linejoin="round" stroke-width=".5"/><line x1="715.21" y1="187.07" x2="715.21" y2="128.6" fill="none" stroke="#14303f" stroke-dasharray="0 0 5.08 5.08" stroke-linecap="round" stroke-linejoin="round" stroke-width=".5"/><line x1="715.21" y1="126.05" x2="715.21" y2="123.55" fill="none" stroke="#14303f" stroke-linecap="round" stroke-linejoin="round" stroke-width=".5"/></g><g><line x1="848.53" y1="189.84" x2="848.53" y2="192.34" fill="none" stroke="#14303f" stroke-linecap="round" stroke-linejoin="round" stroke-width=".5"/><line x1="848.53" y1="197.76" x2="848.53" y2="205.9" fill="none" stroke="#14303f" stroke-dasharray="0 0 5.42 5.42" stroke-linecap="round" stroke-linejoin="round" stroke-width=".5"/><polyline points="848.53 208.61 848.53 211.11 846.03 211.11" fill="none" stroke="#14303f" stroke-linecap="round" stroke-linejoin="round" stroke-width=".5"/><line x1="841.08" y1="211.11" x2="665.16" y2="211.11" fill="none" stroke="#14303f" stroke-dasharray="0 0 4.96 4.96" stroke-linecap="round" stroke-linejoin="round" stroke-width=".5"/><polyline points="662.68 211.11 660.18 211.11 660.18 208.61" fill="none" stroke="#14303f" stroke-linecap="round" stroke-linejoin="round" stroke-width=".5"/><line x1="660.18" y1="203.18" x2="660.18" y2="195.05" fill="none" stroke="#14303f" stroke-dasharray="0 0 5.42 5.42" stroke-linecap="round" stroke-linejoin="round" stroke-width=".5"/><line x1="660.18" y1="192.34" x2="660.18" y2="189.84" fill="none" stroke="#14303f" stroke-linecap="round" stroke-linejoin="round" stroke-width=".5"/></g><g><line x1="850.87" y1="60.86" x2="853.37" y2="60.86" fill="none" stroke="#14303f" stroke-linecap="round" stroke-linejoin="round" stroke-width=".5"/><polyline points="856.23 60.86 858.73 60.86 858.73 63.36" fill="none" stroke="#14303f" stroke-linecap="round" stroke-linejoin="round" stroke-width=".5"/><line x1="858.73" y1="68.62" x2="858.73" y2="118.6" fill="none" stroke="#14303f" stroke-dasharray="0 0 5.26 5.26" stroke-linecap="round" stroke-linejoin="round" stroke-width=".5"/><polyline points="858.73 121.23 858.73 123.73 856.23 123.73" fill="none" stroke="#14303f" stroke-linecap="round" stroke-linejoin="round" stroke-width=".5"/><line x1="853.36" y1="123.73" x2="850.86" y2="123.73" fill="none" stroke="#14303f" stroke-linecap="round" stroke-linejoin="round" stroke-width=".5"/></g><g><line x1="858.73" y1="123.68" x2="858.73" y2="126.18" fill="none" stroke="#14303f" stroke-linecap="round" stroke-linejoin="round" stroke-width=".5"/><line x1="858.73" y1="131.45" x2="858.73" y2="181.42" fill="none" stroke="#14303f" stroke-dasharray="0 0 5.26 5.26" stroke-linecap="round" stroke-linejoin="round" stroke-width=".5"/><polyline points="858.73 184.05 858.73 186.55 856.23 186.55" fill="none" stroke="#14303f" stroke-linecap="round" stroke-linejoin="round" stroke-width=".5"/><line x1="853.36" y1="186.55" x2="850.86" y2="186.55" fill="none" stroke="#14303f" stroke-linecap="round" stroke-linejoin="round" stroke-width=".5"/></g></g><g><rect x="660.18" y="60.94" width="188.36" height="125.57" fill="#fff" stroke="#14303f" stroke-linejoin="round"/><g class="fill-red"><rect x="660.18" y="123.73" width="188.36" height="62.79" fill="#eaebef" stroke="#14303f" stroke-linejoin="round"/></g><g class="fill-blue-2"><rect x="660.18" y="60.94" width="62.79" height="125.57" fill="#b4b9c5" stroke="#14303f" stroke-linejoin="round"/></g><polygon points="700.12 126.51 713.96 116.45 696.86 116.45 691.57 100.18 686.29 116.45 669.18 116.45 683.02 126.51 677.73 142.77 691.57 132.72 705.41 142.77 700.12 126.51" fill="#fff" stroke="#14303f" stroke-linejoin="round" stroke-width=".5"/></g><g class="dashed"><g><g><line x1="715.21" y1="186.4" x2="715.21" y2="183.9" fill="none" stroke="#14303f" stroke-linecap="round" stroke-linejoin="round" stroke-width=".5"/><line x1="715.21" y1="178.64" x2="715.21" y2="128.68" fill="none" stroke="#14303f" stroke-dasharray="0 0 5.26 5.26" stroke-linecap="round" stroke-linejoin="round" stroke-width=".5"/><line x1="715.21" y1="126.05" x2="715.21" y2="123.55" fill="none" stroke="#14303f" stroke-linecap="round" stroke-linejoin="round" stroke-width=".5"/></g><g><line x1="668.12" y1="123.55" x2="668.12" y2="126.05" fill="none" stroke="#14303f" stroke-linecap="round" stroke-linejoin="round" stroke-width=".5"/><line x1="668.12" y1="131.33" x2="668.12" y2="181.48" fill="none" stroke="#14303f" stroke-dasharray="0 0 5.28 5.28" stroke-linecap="round" stroke-linejoin="round" stroke-width=".5"/><line x1="668.12" y1="184.12" x2="668.12" y2="186.62" fill="none" stroke="#14303f" stroke-linecap="round" stroke-linejoin="round" stroke-width=".5"/></g></g><g><line x1="669.18" y1="116.45" x2="669.18" y2="113.95" fill="none" stroke="#14303f" stroke-linecap="round" stroke-linejoin="round" stroke-width=".5"/><line x1="669.18" y1="108.6" x2="669.18" y2="89.87" fill="none" stroke="#14303f" stroke-dasharray="0 0 5.35 5.35" stroke-linecap="round" stroke-linejoin="round" stroke-width=".5"/><polyline points="669.18 87.19 669.18 84.69 671.68 84.69" fill="none" stroke="#14303f" stroke-linecap="round" stroke-linejoin="round" stroke-width=".5"/><line x1="676.1" y1="84.69" x2="709.25" y2="84.69" fill="none" stroke="#14303f" stroke-dasharray="0 0 4.42 4.42" stroke-linecap="round" stroke-linejoin="round" stroke-width=".5"/><polyline points="711.46 84.69 713.96 84.69 713.96 87.19" fill="none" stroke="#14303f" stroke-linecap="round" stroke-linejoin="round" stroke-width=".5"/><line x1="713.96" y1="92.54" x2="713.96" y2="111.27" fill="none" stroke="#14303f" stroke-dasharray="0 0 5.35 5.35" stroke-linecap="round" stroke-linejoin="round" stroke-width=".5"/><line x1="713.96" y1="113.95" x2="713.96" y2="116.45" fill="none" stroke="#14303f" stroke-linecap="round" stroke-linejoin="round" stroke-width=".5"/></g><circle cx="691.66" cy="123.55" r="23.54" fill="none" stroke="#14303f" stroke-dasharray="0 0 4.93 4.93" stroke-linecap="round" stroke-linejoin="round" stroke-width=".5"/></g></g><g class="default"><g class="dashed-lines"><g><line x1="640.33" y1="112.24" x2="640.33" y2="114.74" fill="none" stroke="#14303f" stroke-linecap="round" stroke-linejoin="round" stroke-width=".5"/><line x1="640.33" y1="120.49" x2="640.33" y2="129.12" fill="none" stroke="#14303f" stroke-dasharray="0 0 5.75 5.75" stroke-linecap="round" stroke-linejoin="round" stroke-width=".5"/><polyline points="640.33 131.99 640.33 134.49 637.83 134.49" fill="none" stroke="#14303f" stroke-linecap="round" stroke-linejoin="round" stroke-width=".5"/><line x1="632.8" y1="134.49" x2="524.69" y2="134.49" fill="none" stroke="#14303f" stroke-dasharray="0 0 5.03 5.03" stroke-linecap="round" stroke-linejoin="round" stroke-width=".5"/><line x1="522.17" y1="134.49" x2="519.67" y2="134.49" fill="none" stroke="#14303f" stroke-linecap="round" stroke-linejoin="round" stroke-width=".5"/></g><g><line x1="640.33" y1="134.49" x2="640.33" y2="136.99" fill="none" stroke="#14303f" stroke-linecap="round" stroke-linejoin="round" stroke-width=".5"/><line x1="640.33" y1="142.06" x2="640.33" y2="149.67" fill="none" stroke="#14303f" stroke-dasharray="0 0 5.07 5.07" stroke-linecap="round" stroke-linejoin="round" stroke-width=".5"/><polyline points="640.33 152.21 640.33 154.71 637.83 154.71" fill="none" stroke="#14303f" stroke-linecap="round" stroke-linejoin="round" stroke-width=".5"/><line x1="632.8" y1="154.71" x2="524.69" y2="154.71" fill="none" stroke="#14303f" stroke-dasharray="0 0 5.03 5.03" stroke-linecap="round" stroke-linejoin="round" stroke-width=".5"/><line x1="522.17" y1="154.71" x2="519.67" y2="154.71" fill="none" stroke="#14303f" stroke-linecap="round" stroke-linejoin="round" stroke-width=".5"/></g><g><line x1="514.99" y1="91.88" x2="517.49" y2="91.88" fill="none" stroke="#14303f" stroke-linecap="round" stroke-linejoin="round" stroke-width=".5"/><line x1="522.3" y1="91.88" x2="635.42" y2="91.88" fill="none" stroke="#14303f" stroke-dasharray="0 0 4.81 4.81" stroke-linecap="round" stroke-linejoin="round" stroke-width=".5"/><polyline points="637.83 91.88 640.33 91.88 640.33 94.38" fill="none" stroke="#14303f" stroke-linecap="round" stroke-linejoin="round" stroke-width=".5"/><line x1="640.33" y1="99.5" x2="640.33" y2="107.18" fill="none" stroke="#14303f" stroke-dasharray="0 0 5.12 5.12" stroke-linecap="round" stroke-linejoin="round" stroke-width=".5"/><polyline points="640.33 109.74 640.33 112.24 637.83 112.24" fill="none" stroke="#14303f" stroke-linecap="round" stroke-linejoin="round" stroke-width=".5"/><line x1="632.8" y1="112.24" x2="524.69" y2="112.24" fill="none" stroke="#14303f" stroke-dasharray="0 0 5.03 5.03" stroke-linecap="round" stroke-linejoin="round" stroke-width=".5"/><line x1="522.17" y1="112.24" x2="519.67" y2="112.24" fill="none" stroke="#14303f" stroke-linecap="round" stroke-linejoin="round" stroke-width=".5"/></g><g><line x1="437.56" y1="60.18" x2="435.06" y2="60.18" fill="none" stroke="#14303f" stroke-linecap="round" stroke-linejoin="round" stroke-width=".5"/><polyline points="432.17 60.18 429.67 60.18 429.67 62.68" fill="none" stroke="#14303f" stroke-linecap="round" stroke-linejoin="round" stroke-width=".5"/><line x1="429.67" y1="67.53" x2="429.67" y2="181.46" fill="none" stroke="#14303f" stroke-dasharray="0 0 4.85 4.85" stroke-linecap="round" stroke-linejoin="round" stroke-width=".5"/><polyline points="429.67 183.89 429.67 186.39 432.17 186.39" fill="none" stroke="#14303f" stroke-linecap="round" stroke-linejoin="round" stroke-width=".5"/><line x1="435.06" y1="186.39" x2="437.56" y2="186.39" fill="none" stroke="#14303f" stroke-linecap="round" stroke-linejoin="round" stroke-width=".5"/></g><g><line x1="441.36" y1="188.58" x2="441.36" y2="191.08" fill="none" stroke="#14303f" stroke-linecap="round" stroke-linejoin="round" stroke-width=".5"/><line x1="441.36" y1="193.83" x2="441.36" y2="197.96" fill="none" stroke="#14303f" stroke-dasharray="0 0 2.75 2.75" stroke-linecap="round" stroke-linejoin="round" stroke-width=".5"/><polyline points="441.36 199.34 441.36 201.84 443.86 201.84" fill="none" stroke="#14303f" stroke-linecap="round" stroke-linejoin="round" stroke-width=".5"/><line x1="448.81" y1="201.84" x2="624.39" y2="201.84" fill="none" stroke="#14303f" stroke-dasharray="0 0 4.95 4.95" stroke-linecap="round" stroke-linejoin="round" stroke-width=".5"/><polyline points="626.86 201.84 629.36 201.84 629.36 199.34" fill="none" stroke="#14303f" stroke-linecap="round" stroke-linejoin="round" stroke-width=".5"/><line x1="629.36" y1="196.58" x2="629.36" y2="192.45" fill="none" stroke="#14303f" stroke-dasharray="0 0 2.75 2.75" stroke-linecap="round" stroke-linejoin="round" stroke-width=".5"/><line x1="629.36" y1="191.08" x2="629.36" y2="188.58" fill="none" stroke="#14303f" stroke-linecap="round" stroke-linejoin="round" stroke-width=".5"/></g><g><line x1="504" y1="113.27" x2="504" y2="115.77" fill="none" stroke="#14303f" stroke-linecap="round" stroke-linejoin="round" stroke-width=".5"/><line x1="504" y1="120.86" x2="504" y2="189.63" fill="none" stroke="#14303f" stroke-dasharray="0 0 5.09 5.09" stroke-linecap="round" stroke-linejoin="round" stroke-width=".5"/><polyline points="504 192.18 504 194.68 506.5 194.68" fill="none" stroke="#14303f" stroke-linecap="round" stroke-linejoin="round" stroke-width=".5"/><line x1="511.74" y1="194.68" x2="561.49" y2="194.68" fill="none" stroke="#14303f" stroke-dasharray="0 0 5.24 5.24" stroke-linecap="round" stroke-linejoin="round" stroke-width=".5"/><polyline points="564.1 194.68 566.6 194.68 566.6 192.18" fill="none" stroke="#14303f" stroke-linecap="round" stroke-linejoin="round" stroke-width=".5"/><line x1="566.6" y1="187.11" x2="566.6" y2="118.7" fill="none" stroke="#14303f" stroke-dasharray="0 0 5.07 5.07" stroke-linecap="round" stroke-linejoin="round" stroke-width=".5"/><line x1="566.6" y1="116.17" x2="566.6" y2="113.67" fill="none" stroke="#14303f" stroke-linecap="round" stroke-linejoin="round" stroke-width=".5"/></g></g><g><g class="fill-yellow-2"><rect x="441.8" y="60.87" width="188" height="125.82" fill="#eaebef" stroke="#14303f" stroke-linejoin="round"/></g><path d="M560.45,131.8h-49.3c-.68,0-1.23-.55-1.23-1.23s.55-1.23,1.23-1.23h49.3c.68,0,1.23,.55,1.23,1.23s-.55,1.23-1.23,1.23Zm5.33-4.02h-59.96c-.68,0-1.23-.55-1.23-1.23s.55-1.23,1.23-1.23h59.96c.68,0,1.23,.55,1.23,1.23s-.55,1.23-1.23,1.23Zm0-4.01h-59.96c-.68,0-1.23-.55-1.23-1.23s.55-1.23,1.23-1.23h59.96c.68,0,1.23,.55,1.23,1.23s-.55,1.23-1.23,1.23Zm-5.33-4.02h-49.3c-.68,0-1.23-.55-1.23-1.23s.55-1.23,1.23-1.23h49.3c.68,0,1.23,.55,1.23,1.23s-.55,1.23-1.23,1.23Z" fill="#14303f"/><path d="M537.8,155.88c-.68,0-1.23-.55-1.23-1.23v-60.2c0-.68,.55-1.23,1.23-1.23s1.23,.55,1.23,1.23v60.2c0,.68-.55,1.23-1.23,1.23Zm-4,0c-.68,0-1.23-.55-1.23-1.23v-60.2c0-.68,.55-1.23,1.23-1.23s1.23,.55,1.23,1.23v60.2c0,.68-.55,1.23-1.23,1.23Zm8-5.35c-.68,0-1.23-.55-1.23-1.23v-49.49c0-.68,.55-1.23,1.23-1.23s1.23,.55,1.23,1.23v49.49c0,.68-.55,1.23-1.23,1.23Zm-12,0c-.68,0-1.23-.55-1.23-1.23v-49.49c0-.68,.55-1.23,1.23-1.23s1.23,.55,1.23,1.23v49.49c0,.68-.55,1.23-1.23,1.23Z" fill="#14303f"/><g class="fill-yellow-3"><ellipse cx="535.8" cy="125.32" rx="10.08" ry="10.11" fill="#eaebef"/></g><path d="M535.8,135.44c-5.98,0-10.85-4.88-10.85-10.89s4.87-10.89,10.85-10.89,10.85,4.88,10.85,10.89-4.87,10.89-10.85,10.89Zm0-20.23c-5.13,0-9.31,4.19-9.31,9.34s4.17,9.34,9.31,9.34,9.31-4.19,9.31-9.34-4.17-9.34-9.31-9.34Z" fill="#14303f"/></g><g class="dashed"><g><line x1="629.36" y1="134.49" x2="626.86" y2="134.49" fill="none" stroke="#14303f" stroke-linecap="round" stroke-linejoin="round" stroke-width=".5"/><line x1="621.88" y1="134.49" x2="524.67" y2="134.49" fill="none" stroke="#14303f" stroke-dasharray="0 0 4.99 4.99" stroke-linecap="round" stroke-linejoin="round" stroke-width=".5"/><line x1="522.17" y1="134.49" x2="519.67" y2="134.49" fill="none" stroke="#14303f" stroke-linecap="round" stroke-linejoin="round" stroke-width=".5"/></g><g><line x1="629.8" y1="154.71" x2="627.3" y2="154.71" fill="none" stroke="#14303f" stroke-linecap="round" stroke-linejoin="round" stroke-width=".5"/><line x1="622.3" y1="154.71" x2="524.68" y2="154.71" fill="none" stroke="#14303f" stroke-dasharray="0 0 5.01 5.01" stroke-linecap="round" stroke-linejoin="round" stroke-width=".5"/><line x1="522.17" y1="154.71" x2="519.67" y2="154.71" fill="none" stroke="#14303f" stroke-linecap="round" stroke-linejoin="round" stroke-width=".5"/></g><g><line x1="629.8" y1="112.24" x2="627.3" y2="112.24" fill="none" stroke="#14303f" stroke-linecap="round" stroke-linejoin="round" stroke-width=".5"/><line x1="622.3" y1="112.24" x2="524.68" y2="112.24" fill="none" stroke="#14303f" stroke-dasharray="0 0 5.01 5.01" stroke-linecap="round" stroke-linejoin="round" stroke-width=".5"/><line x1="522.17" y1="112.24" x2="519.67" y2="112.24" fill="none" stroke="#14303f" stroke-linecap="round" stroke-linejoin="round" stroke-width=".5"/></g><g><line x1="519.67" y1="91.88" x2="522.17" y2="91.88" fill="none" stroke="#14303f" stroke-linecap="round" stroke-linejoin="round" stroke-width=".5"/><line x1="527.18" y1="91.88" x2="624.8" y2="91.88" fill="none" stroke="#14303f" stroke-dasharray="0 0 5.01 5.01" stroke-linecap="round" stroke-linejoin="round" stroke-width=".5"/><line x1="627.3" y1="91.88" x2="629.8" y2="91.88" fill="none" stroke="#14303f" stroke-linecap="round" stroke-linejoin="round" stroke-width=".5"/></g><g><line x1="566.6" y1="186.39" x2="566.6" y2="183.89" fill="none" stroke="#14303f" stroke-linecap="round" stroke-linejoin="round" stroke-width=".5"/><line x1="566.6" y1="178.68" x2="566.6" y2="118.77" fill="none" stroke="#14303f" stroke-dasharray="0 0 5.21 5.21" stroke-linecap="round" stroke-linejoin="round" stroke-width=".5"/><line x1="566.6" y1="116.17" x2="566.6" y2="113.67" fill="none" stroke="#14303f" stroke-linecap="round" stroke-linejoin="round" stroke-width=".5"/></g><g><line x1="504" y1="113.27" x2="504" y2="115.77" fill="none" stroke="#14303f" stroke-linecap="round" stroke-linejoin="round" stroke-width=".5"/><line x1="504" y1="121.01" x2="504" y2="181.27" fill="none" stroke="#14303f" stroke-dasharray="0 0 5.24 5.24" stroke-linecap="round" stroke-linejoin="round" stroke-width=".5"/><line x1="504" y1="183.89" x2="504" y2="186.39" fill="none" stroke="#14303f" stroke-linecap="round" stroke-linejoin="round" stroke-width=".5"/></g></g></g><g id="flag2" class="reveal"><g class="dashed-lines"><g><line x1="221.06" y1="144.81" x2="218.56" y2="144.81" fill="none" stroke="#14303f" stroke-linecap="round" stroke-linejoin="round" stroke-width=".5"/><polyline points="218.34 144.81 215.84 144.81 215.84 147.31" fill="none" stroke="#14303f" stroke-linecap="round" stroke-linejoin="round" stroke-width=".5"/><line x1="215.84" y1="152.59" x2="215.84" y2="181.63" fill="none" stroke="#14303f" stroke-dasharray="0 0 5.28 5.28" stroke-linecap="round" stroke-linejoin="round" stroke-width=".5"/><polyline points="215.84 184.27 215.84 186.77 218.34 186.77" fill="none" stroke="#14303f" stroke-linecap="round" stroke-linejoin="round" stroke-width=".5"/><line x1="218.56" y1="186.77" x2="221.06" y2="186.77" fill="none" stroke="#14303f" stroke-linecap="round" stroke-linejoin="round" stroke-width=".5"/></g><g><line x1="221.06" y1="102.84" x2="218.56" y2="102.84" fill="none" stroke="#14303f" stroke-linecap="round" stroke-linejoin="round" stroke-width=".5"/><polyline points="218.34 102.84 215.84 102.84 215.84 105.34" fill="none" stroke="#14303f" stroke-linecap="round" stroke-linejoin="round" stroke-width=".5"/><line x1="215.84" y1="110.62" x2="215.84" y2="139.67" fill="none" stroke="#14303f" stroke-dasharray="0 0 5.28 5.28" stroke-linecap="round" stroke-linejoin="round" stroke-width=".5"/><line x1="215.84" y1="142.31" x2="215.84" y2="144.81" fill="none" stroke="#14303f" stroke-linecap="round" stroke-linejoin="round" stroke-width=".5"/></g><g><line x1="221.06" y1="60.88" x2="218.56" y2="60.88" fill="none" stroke="#14303f" stroke-linecap="round" stroke-linejoin="round" stroke-width=".5"/><polyline points="218.34 60.88 215.84 60.88 215.84 63.38" fill="none" stroke="#14303f" stroke-linecap="round" stroke-linejoin="round" stroke-width=".5"/><line x1="215.84" y1="68.66" x2="215.84" y2="97.7" fill="none" stroke="#14303f" stroke-dasharray="0 0 5.28 5.28" stroke-linecap="round" stroke-linejoin="round" stroke-width=".5"/><line x1="215.84" y1="100.34" x2="215.84" y2="102.84" fill="none" stroke="#14303f" stroke-linecap="round" stroke-linejoin="round" stroke-width=".5"/></g><g><line x1="412.95" y1="190.39" x2="412.95" y2="192.89" fill="none" stroke="#14303f" stroke-linecap="round" stroke-linejoin="round" stroke-width=".5"/><line x1="412.95" y1="197.42" x2="412.95" y2="204.22" fill="none" stroke="#14303f" stroke-dasharray="0 0 4.53 4.53" stroke-linecap="round" stroke-linejoin="round" stroke-width=".5"/><polyline points="412.95 206.48 412.95 208.98 410.45 208.98" fill="none" stroke="#14303f" stroke-linecap="round" stroke-linejoin="round" stroke-width=".5"/><line x1="405.48" y1="208.98" x2="229.09" y2="208.98" fill="none" stroke="#14303f" stroke-dasharray="0 0 4.97 4.97" stroke-linecap="round" stroke-linejoin="round" stroke-width=".5"/><polyline points="226.61 208.98 224.11 208.98 224.11 206.48" fill="none" stroke="#14303f" stroke-linecap="round" stroke-linejoin="round" stroke-width=".5"/><line x1="224.11" y1="201.64" x2="224.11" y2="97.55" fill="none" stroke="#14303f" stroke-dasharray="0 0 4.84 4.84" stroke-linecap="round" stroke-linejoin="round" stroke-width=".5"/><line x1="224.11" y1="95.13" x2="224.11" y2="92.63" fill="none" stroke="#14303f" stroke-linecap="round" stroke-linejoin="round" stroke-width=".5"/></g><g><line x1="261.88" y1="81.98" x2="261.88" y2="84.48" fill="none" stroke="#14303f" stroke-linecap="round" stroke-linejoin="round" stroke-width=".5"/><line x1="261.88" y1="89.31" x2="261.88" y2="193.05" fill="none" stroke="#14303f" stroke-dasharray="0 0 4.83 4.83" stroke-linecap="round" stroke-linejoin="round" stroke-width=".5"/><polyline points="261.88 195.47 261.88 197.97 259.38 197.97" fill="none" stroke="#14303f" stroke-linecap="round" stroke-linejoin="round" stroke-width=".5"/><line x1="254.7" y1="197.97" x2="228.95" y2="197.97" fill="none" stroke="#14303f" stroke-dasharray="0 0 4.68 4.68" stroke-linecap="round" stroke-linejoin="round" stroke-width=".5"/><line x1="226.61" y1="197.97" x2="224.11" y2="197.97" fill="none" stroke="#14303f" stroke-linecap="round" stroke-linejoin="round" stroke-width=".5"/></g><g><line x1="261.88" y1="197.97" x2="264.38" y2="197.97" fill="none" stroke="#14303f" stroke-linecap="round" stroke-linejoin="round" stroke-width=".5"/><line x1="269.5" y1="197.97" x2="338.65" y2="197.97" fill="none" stroke="#14303f" stroke-dasharray="0 0 5.12 5.12" stroke-linecap="round" stroke-linejoin="round" stroke-width=".5"/><polyline points="341.21 197.97 343.71 197.97 343.71 195.47" fill="none" stroke="#14303f" stroke-linecap="round" stroke-linejoin="round" stroke-width=".5"/><line x1="343.71" y1="190.64" x2="343.71" y2="86.78" fill="none" stroke="#14303f" stroke-dasharray="0 0 4.83 4.83" stroke-linecap="round" stroke-linejoin="round" stroke-width=".5"/><line x1="343.71" y1="84.36" x2="343.71" y2="81.86" fill="none" stroke="#14303f" stroke-linecap="round" stroke-linejoin="round" stroke-width=".5"/></g></g><g><rect x="224.11" y="102.84" width="188.84" height="41.96" fill="#fff" stroke="#14303f" stroke-linejoin="round"/><g class="fill-blue-3"><rect x="224.11" y="60.88" width="188.84" height="41.96" fill="#b4b9c5" stroke="#14303f" stroke-linejoin="round"/><rect x="224.11" y="144.81" width="188.84" height="41.96" fill="#b4b9c5" stroke="#14303f" stroke-linejoin="round"/></g><g class="fill-red-2"><path d="M343.44,109.88c-5.75-16.32-21.31-28.02-39.59-28.02-23.17,0-41.96,18.79-41.96,41.96s18.79,41.96,41.96,41.96c18.29,0,33.84-11.7,39.59-28.02l-39.59-13.94,39.59-13.94Z" fill="#eaebef" stroke="#14303f" stroke-linejoin="round"/></g><g class="fill-yellow-4"><circle cx="303.84" cy="123.83" r="20.98" fill="#fff" stroke="#14303f" stroke-linejoin="round"/></g></g><g class="dashed"><g><line x1="224.11" y1="81.86" x2="226.61" y2="81.86" fill="none" stroke="#14303f" stroke-linecap="round" stroke-linejoin="round" stroke-width=".5"/><line x1="231.58" y1="81.86" x2="338.45" y2="81.86" fill="none" stroke="#14303f" stroke-dasharray="0 0 4.97 4.97" stroke-linecap="round" stroke-linejoin="round" stroke-width=".5"/><line x1="340.94" y1="81.86" x2="343.44" y2="81.86" fill="none" stroke="#14303f" stroke-linecap="round" stroke-linejoin="round" stroke-width=".5"/></g><g><line x1="343.44" y1="165.79" x2="340.94" y2="165.79" fill="none" stroke="#14303f" stroke-linecap="round" stroke-linejoin="round" stroke-width=".5"/><line x1="336.05" y1="165.79" x2="231.01" y2="165.79" fill="none" stroke="#14303f" stroke-dasharray="0 0 4.89 4.89" stroke-linecap="round" stroke-linejoin="round" stroke-width=".5"/><line x1="228.57" y1="165.79" x2="226.07" y2="165.79" fill="none" stroke="#14303f" stroke-linecap="round" stroke-linejoin="round" stroke-width=".5"/></g><g><line x1="303.84" y1="144.81" x2="303.84" y2="142.31" fill="none" stroke="#14303f" stroke-linecap="round" stroke-linejoin="round" stroke-width=".5"/><line x1="303.84" y1="137.03" x2="303.84" y2="107.98" fill="none" stroke="#14303f" stroke-dasharray="0 0 5.28 5.28" stroke-linecap="round" stroke-linejoin="round" stroke-width=".5"/><line x1="303.84" y1="105.34" x2="303.84" y2="102.84" fill="none" stroke="#14303f" stroke-linecap="round" stroke-linejoin="round" stroke-width=".5"/></g><g><line x1="261.88" y1="81.98" x2="261.88" y2="84.48" fill="none" stroke="#14303f" stroke-linecap="round" stroke-linejoin="round" stroke-width=".5"/><line x1="261.88" y1="89.73" x2="261.88" y2="181.65" fill="none" stroke="#14303f" stroke-dasharray="0 0 5.25 5.25" stroke-linecap="round" stroke-linejoin="round" stroke-width=".5"/><line x1="261.88" y1="184.27" x2="261.88" y2="186.77" fill="none" stroke="#14303f" stroke-linecap="round" stroke-linejoin="round" stroke-width=".5"/></g><g><line x1="343.71" y1="186.62" x2="343.71" y2="184.12" fill="none" stroke="#14303f" stroke-linecap="round" stroke-linejoin="round" stroke-width=".5"/><line x1="343.71" y1="178.87" x2="343.71" y2="86.99" fill="none" stroke="#14303f" stroke-dasharray="0 0 5.25 5.25" stroke-linecap="round" stroke-linejoin="round" stroke-width=".5"/><line x1="343.71" y1="84.36" x2="343.71" y2="81.86" fill="none" stroke="#14303f" stroke-linecap="round" stroke-linejoin="round" stroke-width=".5"/></g><g><line x1="303.84" y1="81.86" x2="303.84" y2="84.36" fill="none" stroke="#14303f" stroke-linecap="round" stroke-linejoin="round" stroke-width=".5"/><line x1="303.84" y1="86.94" x2="303.84" y2="89.44" fill="none" stroke="#14303f" stroke-linecap="round" stroke-linejoin="round" stroke-width=".5"/></g><g><line x1="303.84" y1="97.07" x2="303.84" y2="99.57" fill="none" stroke="#14303f" stroke-linecap="round" stroke-linejoin="round" stroke-width=".5"/><line x1="303.84" y1="100.34" x2="303.84" y2="102.84" fill="none" stroke="#14303f" stroke-linecap="round" stroke-linejoin="round" stroke-width=".5"/></g><g><line x1="334.66" y1="117.06" x2="332.16" y2="117.06" fill="none" stroke="#14303f" stroke-linecap="round" stroke-linejoin="round" stroke-width=".5"/><line x1="328.45" y1="117.06" x2="322.88" y2="117.06" fill="none" stroke="#14303f" stroke-dasharray="0 0 3.71 3.71" stroke-linecap="round" stroke-linejoin="round" stroke-width=".5"/><line x1="321.03" y1="117.06" x2="318.53" y2="117.06" fill="none" stroke="#14303f" stroke-linecap="round" stroke-linejoin="round" stroke-width=".5"/></g><g><line x1="318.53" y1="130.3" x2="321.03" y2="130.3" fill="none" stroke="#14303f" stroke-linecap="round" stroke-linejoin="round" stroke-width=".5"/><line x1="324.74" y1="130.3" x2="330.3" y2="130.3" fill="none" stroke="#14303f" stroke-dasharray="0 0 3.71 3.71" stroke-linecap="round" stroke-linejoin="round" stroke-width=".5"/><line x1="332.16" y1="130.3" x2="334.66" y2="130.3" fill="none" stroke="#14303f" stroke-linecap="round" stroke-linejoin="round" stroke-width=".5"/></g><g><line x1="359.38" y1="109.88" x2="356.88" y2="109.88" fill="none" stroke="#14303f" stroke-linecap="round" stroke-linejoin="round" stroke-width=".5"/><line x1="352.68" y1="109.88" x2="337.99" y2="109.88" fill="none" stroke="#14303f" stroke-dasharray="0 0 4.2 4.2" stroke-linecap="round" stroke-linejoin="round" stroke-width=".5"/><line x1="335.89" y1="109.88" x2="333.39" y2="109.88" fill="none" stroke="#14303f" stroke-linecap="round" stroke-linejoin="round" stroke-width=".5"/></g><g><line x1="333.39" y1="137.77" x2="335.89" y2="137.77" fill="none" stroke="#14303f" stroke-linecap="round" stroke-linejoin="round" stroke-width=".5"/><line x1="340.09" y1="137.77" x2="354.78" y2="137.77" fill="none" stroke="#14303f" stroke-dasharray="0 0 4.2 4.2" stroke-linecap="round" stroke-linejoin="round" stroke-width=".5"/><line x1="356.88" y1="137.77" x2="359.38" y2="137.77" fill="none" stroke="#14303f" stroke-linecap="round" stroke-linejoin="round" stroke-width=".5"/></g><g><line x1="297.4" y1="102.84" x2="299.9" y2="102.84" fill="none" stroke="#14303f" stroke-linecap="round" stroke-linejoin="round" stroke-width=".5"/><line x1="302.53" y1="102.84" x2="306.47" y2="102.84" fill="none" stroke="#14303f" stroke-dasharray="0 0 2.63 2.63" stroke-linecap="round" stroke-linejoin="round" stroke-width=".5"/><line x1="307.79" y1="102.84" x2="310.29" y2="102.84" fill="none" stroke="#14303f" stroke-linecap="round" stroke-linejoin="round" stroke-width=".5"/></g><g><line x1="297.4" y1="144.81" x2="299.9" y2="144.81" fill="none" stroke="#14303f" stroke-linecap="round" stroke-linejoin="round" stroke-width=".5"/><line x1="302.53" y1="144.81" x2="306.47" y2="144.81" fill="none" stroke="#14303f" stroke-dasharray="0 0 2.63 2.63" stroke-linecap="round" stroke-linejoin="round" stroke-width=".5"/><line x1="307.79" y1="144.81" x2="310.29" y2="144.81" fill="none" stroke="#14303f" stroke-linecap="round" stroke-linejoin="round" stroke-width=".5"/></g></g></g><g id="flag1" class="reveal"><g class="dashed-lines"><g><polyline points="13.72 185.99 9.04 185.99 9.04 183.49" fill="none" stroke="#14303f" stroke-linecap="round" stroke-linejoin="round" stroke-width=".5"/><line x1="9.04" y1="178.68" x2="9.04" y2="65.71" fill="none" stroke="#14303f" stroke-dasharray="0 0 4.81 4.81" stroke-linecap="round" stroke-linejoin="round" stroke-width=".5"/><polyline points="9.04 63.31 9.04 60.81 11.54 60.81" fill="none" stroke="#14303f" stroke-linecap="round" stroke-linejoin="round" stroke-width=".5"/><line x1="11.82" y1="60.81" x2="14.32" y2="60.81" fill="none" stroke="#14303f" stroke-linecap="round" stroke-linejoin="round" stroke-width=".5"/></g><g><polyline points="17.11 189.19 17.11 194.11 19.61 194.11" fill="none" stroke="#14303f" stroke-linecap="round" stroke-linejoin="round" stroke-width=".5"/><line x1="24.56" y1="194.11" x2="190.55" y2="194.11" fill="none" stroke="#14303f" stroke-dasharray="0 0 4.95 4.95" stroke-linecap="round" stroke-linejoin="round" stroke-width=".5"/><polyline points="193.02 194.11 195.52 194.11 195.52 189.19" fill="none" stroke="#14303f" stroke-linecap="round" stroke-linejoin="round" stroke-width=".5"/></g></g><g><g class="fill-blue-4"><rect id="rect552" x="16.62" y="60.81" width="178.91" height="125.16" fill="#b4b9c5" stroke="#14303f" stroke-linejoin="round"/></g><path id="path557" d="M27.01,84.17c-5.29,17.65,15.99,31.91,30.49,19.11,15.21-15.97-1.76-37.53-19.38-30.65,12.86-2.21,20.53,12.65,11.88,21.92-8.35,8.53-23.59,2.93-22.98-10.39Z" fill="#fff" stroke="#14303f" stroke-linejoin="round" stroke-width=".5"/><path d="M122.95,165.67c-.92-.38-1.89-.69-2.9-.67-1.09-.1-2.2-.05-3.27-.21-.46-.33-.38-.04-.3,.06-.64,.92-1.79,.74-2.76,.91-1.36,.13-2.72,.26-4.01,.75-.89,.12-1.67-.67-2.31-1.21-.28-.39-.42-.9-.63-1.35-1.86,.05-3.73,0-5.58,.06-.8,.51-1.73,.85-2.36,1.59-.47,.67,.8,1.24,1.45,1.09,.33,.22,1.51-.21,1.31,.41-.31,.89-1.31,1.05-1.98,1.59-.41,.85,.56,1.91,1.29,1.09,.43-.41,.81-.46,1.11,.05,.51,.4-.35,1.47,.75,1.41,.72-.37,1.37-1,2.05-1.49,.45-.58,1.18-1.22,1.47-.13,.66,.57,1.49,.43,2.29,.37,.97-.03,2.04-.16,2.6-1.08,.91-.43,1.78,.45,2.24,1.16,.61,.4,1.64,.46,1.33-.57-.24-.67-.03-1.38,.77-.94,.88,.17,1.56,.84,2.41,1.07-.05-.64-.06-1.85,.83-1.03,.75,.54,1.54,1.07,2.44,1.31,.03-.38-.07-.79,.06-1.15,.58-.6,1.75,1.16,1.5-.18,.12-.46-.51-1.48,.13-1.41,.89,.37,1.82,.63,2.77,.8-.63-1.04-1.75-1.62-2.7-2.32Z" fill="#fff" stroke="#14303f" stroke-linecap="round" stroke-linejoin="round" stroke-width=".5"/><path d="M134.85,108.72c.64,.22,1.93-.16,2.18,.38,.63,.2,1.75-.06,2.56,0,1.13-.1,2.37,.06,3.43-.22,.37-.57,1.47-.76,1.45-1.5-.07-.69-.08-1.4-.2-2.08-.23-.26-.28-.78-.68-.8-1.07-.17-2.08-.47-3.09-.83-2.1-.05-4.21-.03-6.31-.16-.68-.04-1.49,.57-2.27,.53-1.21,.12-2.44,.02-3.61,.39-.45,.35-1.08-.15-.36-.24,.9-.24,1.82-.4,2.75-.39,.95-.03,1.91-.1,2.79-.49,.54-.37,.66,.26,.77-.42,.5-.19,2.08-.05,1.71-.58-1.96,.07-3.92,.09-5.87,.13-.7-.07-1.6,.37-2.3,.7-.82,.33-.14-.5,.36-.52,.87-.51,1.95-.39,2.79-.95,1.32-.61,2.55-1.39,3.83-2.06,.33-.29,1.26-.75,.28-.85-.77-.18-1.59,.27-2.39,.28-1.05,.19,0-.73,.4-.91,1.23-.63,2.43-1.32,3.6-2.05,.37-.28,1.47-.48,1.12-.95-1,.33-1.98,.81-3,1.09-.34,.08-1.91,.28-1.14-.33,1.5-.99,2.98-2.02,4.47-3.03,.5-.67,.14-.68-.46-.41-.69,.21-1.2,.77-1.84,1.1-.22,.39-1.46,.71-.8,.04,.66-.58,1.31-1.17,2.01-1.72,.35-.49,.71-1.65-.24-1.1-.61,.32-1.4,.37-1.83,.97-.76,.79-1.53,1.57-2.27,2.36-.55-.51,.87-1.08,1.04-1.62,.61-.7,1.26-1.39,1.81-2.14,.12-.62,.14-1.05-.48-.62-.3,.13-.61,.26-.91,.39,.09,.64-1.26,1.3-1.69,1.93-.72,.62-1.71,.88-2.35,1.61-.51-.54,.89-.96,1.25-1.28,1.02-.5,1.71-1.43,2.53-2.18-.9,.18-1.93,.14-2.46,1.04-1.36,1.29-2.68,2.63-4.07,3.88-1.7,1.18-3.42,2.33-5.16,3.43-.8,.32-1.93,.06-2.3,1.02-.66,.93-1.45,1.77-2.19,2.64,.8-.18,1.55,0,2.27,.36,.69,.24,1.28,.72,1.94,1.02-.15,.66-1.06,1.16-1.77,1.04-.45-.01-.85-.32-1.29-.45,.04-.52,.48-.1,.77-.03,.58,.31,1.36,.19,1.78-.32-.22-.45-1.4-.91-2.08-1.17-.62-.37-1.33-.12-2-.11-.79,.18,.22-.52,.34-.8,.88-.99,1.72-2,2.48-3.08-.06-.8,.83-1.36,1.12-2.1,.87-1.28,1.31-2.78,1.98-4.17,.28-.58,.14-1.25,.21-1.88-.02-.34,.1-.71-.02-1.03-.62,1.13-1.25,2.27-1.84,3.41-.73,.04-.08-1.11,.14-1.41,.56-1.13,1.19-2.25,1.72-3.39,.02-.48,.03-.96,.05-1.43-.47-.41-.71,.99-1.09,1.32-.82,1.37-1.58,2.78-2.43,4.12-.08,.45-.99,.78-.63,.14,1.22-2.25,2.48-4.49,3.73-6.72,.5-.89,.34-1.94,.41-2.92-.48-.76-.82,.41-1.21,.71-.5,.62-.68,1.42-1.06,2.11-.62,1.34-1.26,2.67-1.88,4.01-.7-.29,.4-1.34,.41-1.93,.6-1.55,1.2-3.11,1.8-4.67-.3-.62-.97,1.02-1.29,1.4-.57,1.28-1.23,2.51-1.87,3.76-.68-.29,.41-1.33,.38-1.9,.33-.94,.76-1.88,1.07-2.81-.05-.35,.45-1.27,0-1.28-.67,.31-1.17,1.23-1.46,1.95-.68,2.01-1.37,4.02-2.05,6.02-.35,.9-.7,1.82-1.05,2.72-.65-.09,.26-1.21,.21-1.69,.22-.98,.7-1.94,.74-2.95-.16-.75,.02-1.73-.36-2.34-.56,1.28-1.26,2.51-1.74,3.83-.36,1.58-.84,3.12-1.05,4.73-.12,.83-.27,1.65-.54,2.45-.67-.06-.49-1.24-.88-1.72-.36-1.13-1.07-2.11-1.59-3.17-.26-.26-.87-2.11-.86-1.08-.06,.74-.11,1.49-.18,2.23-1.48-2.77-2.97-5.53-4.45-8.3,.12,.9,0,1.87,.32,2.72,.72,1.55,1.38,3.13,2.06,4.69-.36,.34-.43-.22-.61-.45-1.37-2.42-2.74-4.84-4.11-7.26-.55,.39-.17,1.11-.24,1.67,.23,.79,.75,1.49,1.1,2.23,.65,1.21,1.31,2.42,1.98,3.62-.48,.53-.74-.96-1.08-1.3-1.24-2.15-2.46-4.31-3.74-6.43-.56,.19-.73,.6-.64,1.14-.09,.54,.13,1,.45,1.44,.96,1.66,1.93,3.31,2.89,4.97-.33,.38-.43-.18-.62-.4-1.56-2.46-3.11-4.92-4.67-7.38-.38-.17-.91-.62-.79,.13-.18,.94,.85,1.6,1.18,2.42,1.38,2.14,2.81,4.29,4.19,6.41-.29,.39-.42-.11-.61-.32-.87-1.24-1.75-2.48-2.62-3.72-.33-.09-.75-.3-.62,.23-.02,.34-.11,.69,.17,.94,1.4,2.1,2.82,4.19,4.2,6.29,.45,.92,.86,1.86,1.33,2.76,.8,.82,1.6,1.64,2.4,2.47-.57,.46-1.15-1-1.72-1.27-.6-.68-1.42-1.22-1.76-2.1-.41-.65-.65-1.42-1.29-1.9-.71-.53-1.25-1.5-2.08-1.74-.27,.59-.05,1.9,.75,2.36,.08,.22,1.2,.97,.58,.82-1.2-.13-2.33-.55-3.46-.97-.68,.65,1.62,1.17,.33,1.44-.94,.01-1.66-.84-2.51-1.15-2.13-1.17-4.31-2.24-6.49-3.31-.45-.14-.9-.27-1.36-.41-.13,.79,1.11,1.01,1.52,1.57,1.65,.89,3.35,1.74,5,2.64-.05,.5-.5,.12-.8,.07l-9.3-3c-.52-.12-.43,.15-.22,.5,.05,.41,.46,.43,.77,.54,2.43,.82,4.86,1.64,7.3,2.45,.1,.38,.18,.77,.26,1.16-.55-.46-1.1-.98-1.86-1.03-1.59-.39-3.22-.06-4.83-.04-.86-.21-.97,.49-.11,.63,.69,.53,1.57,.23,2.37,.28,1.3-.04,2.59-.08,3.89-.13,.23,.74-1.27,.24-1.32,.84-.15,.71,1.2,.71,1.68,.57,.74,.01,1.26-1.09,1.89-.9-.16,.71-1.4,.86-1.54,1.59-.09,.73,1.4,.52,1.83,.2,.5-.41,1.36-1.04,1.4,.07,.14,1,1.47,.61,2.19,.95,1.28,.2,2.6,.28,3.87,.49,1.22,.55,2.44,1.1,3.65,1.65-.25,.69-1.32-.36-1.87-.31-.92-.26-1.77-.78-2.74-.79-.84-.15-1.69-.14-2.54-.04-2.57,.21-5.14,.39-7.7,.63-2.38,.4-4.78,.79-7.16,1.18-.61,.19-1.92,.54-.66,.79,2.71-.13,5.41-.35,8.11-.56,.2,.47-.39,.31-.68,.39-2.25,.23-4.49,.46-6.74,.68-.69,.51-1.62,.79-1.99,1.63,.11,1.19,1.6,.1,2.34,.18,1.94-.33,3.88-.64,5.76-1.24,.56,.04,1.95-.95,2.04-.24-2.12,.65-4.25,1.32-6.38,1.91-.46,.11-.91,.21-1.37,.32-.13,1.09,1.52,.46,2.2,.63,1.48-.35,2.9-.95,4.36-1.36,.78-.06,1.97-.98,2.53-.6-.5,.51-1.67,.79-2.4,1.21-1.51,.66-3.04,1.27-4.51,2.02-.97,.98,1.03,.89,1.52,.38,1.57-.72,3.12-1.48,4.67-2.26,.38,.31-.18,.46-.38,.68-.88,.69-1.73,1.4-2.71,1.94-.38,.3-1,.41-1.07,.97,.86,.49,1.68-.1,2.45-.49,2.01-1.3,4.05-2.58,6.1-3.82,.89-.4,1.79-.74,2.69-1.1,.35,.35-.22,.45-.44,.66-.99,.66-1.98,1.32-2.97,1.98-1.08,1.11-2.05,2.34-3.33,3.25-.59,.5-1.2,.94-1.67,1.49-.93,.94-1.89,1.84-2.82,2.78-.29,.95-.9,1.85-.83,2.87,.01,1.1-.11,2.22,0,3.31,.11,.45,.38,1.49,.46,.46,.05-.47,.38-2.11,.73-.96,.19,.43,.38,1.72,.61,1.5,.33-.66,.4-1.6,.94-2.1,.48,.28,.86,.97,1.32,.18,.58-.68,.49-1.69,.78-2.52,.25-1.07,.5-2.14,.75-3.2,.46-.13,.35,.42,.46,.7,.15,.66,.29,1.32,.44,1.98,.99-.43,.59-1.77,.91-2.62,.06-.64,.27-2.31,.95-1.03,.4,.96,1.51-.15,1.48-.85,.23-1.11,.44-2.22,.68-3.33,.3,.53,.61,1.06,.91,1.58,1.04-.05,1.39-1.09,2.07-1.71,.6-.63,1.14-1.36,1.82-1.9,.76-.39,1.48-.92,2.27-1.26,.77,.71-.39,1.67-.83,2.28-.97,1.2-2.17,2.19-3.19,3.36-.4,.46-1.03,.85-.86,1.54,.51,.23,1.04,.44,1.56,.67-.78,.39-1.61,.73-2.33,1.2-.69,.6-1.44,1.13-2.17,1.69-.2,.53-.32,1.13,.46,.91,.56-.1,2.06,.14,.88,.69-1.11,.73-2.4,1.18-3.5,1.9-.3,.41-1.12,1.04-.13,1.02,.67-.1,1.66-1.11,2.15-.6-.7,.77-1.61,1.52-2.37,2.29-.39,.3-1.25,1.14-.74,1.38,1.21-.58,2.06-1.67,3.1-2.5,.36-.58,1.34-1.09,1.03,.04-1.2,1.49-2.36,3.03-3.59,4.48,.12,1.46,1.06-.42,1.53-.81,.72-.85,1.39-1.76,2.33-2.39,.33-.07,1.19-1.3,1.24-.8-.02,.42,.11,.88-.25,1.21-.75,1.01-1.24,2.15-1.85,3.24-.1,.47-.21,1.82,.47,1.18,.81-1.5,1.79-2.91,2.43-4.51,.65-1.37,1.09-2.83,1.64-4.24,.46-.69,.68-.45,.62,.26,.07,.67,.05,2.09,.51,2.19,.84-1.91,1.89-3.72,2.78-5.6,.31-.92,.68-1.82,1.06-2.71,.48-.05,.26,.47,.31,.77-.03,.61,.06,1.24-.05,1.83-.52,1.49-.91,3.02-1.63,4.43-.44,.91-1.06,1.72-1.48,2.63-.42,.55-.27,.56,.21,.23,.85-.39,1.41-1.11,2-1.81,.92-.74,.24,.94,.02,1.3-.5,1.42-.83,2.92-1.39,4.32,0,.43-.15,1.4,.39,.66,1.02-.8,1.39-2.07,2-3.16,.37,.54,1.06,.85,1.4,.19-.06-.84-.44-1.71-.07-2.53,.37-1.35,.68-2.72,.89-4.1,.1-.84,.16-1.69,.26-2.52,.47-.24,.27,.5,.31,.78v1.92c.46,.05,1.3-.76,1.54-.23-.46,.4-1.17,.64-1.58,1.07-.02,.54-.04,1.07-.05,1.61l1.71-1.04c.4,.28-.13,.48-.31,.72-.47,.44-.93,.87-1.4,1.31,0,.38-.02,.76-.02,1.13,.4-.12,.79-.24,1.19-.37,.32,.37-.24,.45-.47,.65-.26,.24-.85,.29-.77,.74-.03,1.15-.07,2.31-.12,3.46,.21-.41,.94-1.41,.84-1.46-.24,.47-1.12,.5-.52,.01,.25-.3,1.6-1.26,1.12-.3-.47,.67-.87,1.56-1.36,2.12-.14-.01-.31,.97,.12,.78,.35,.24,1.43,.35,.68,.76-.32,.32-.72,.6-.99,.95,.02,.97-.22,2.57-.03,3.13,.28-.4,1.22-1.12,1.03-1.31-.4,.19-1.6,.1-.76-.21,.51-.19,1.95-.25,1.03,.56-.49,.87-1.65,1.14-1.43,2.1,0,.7-.28,1.13,.58,1,.98-.09,1.05,.87,.17,1.14-.61,.36-1.14,.33-.77,1.14,.19,.53,1.5,.89,1.17,1.44-.05-.62-.19,.24-.53-.38-.42-.33-.96-1.13-.78-.07-.08,2.01-.16,4.01-.24,6.02,.41-.13,1.15,.45,1.16,.72-.43,.4-1.45-1.33-1.18,.04,.01,.62-.15,1.76-.02,2.04,.21-.17,.53,.32,.78,.41,.29,.2,.58,.4,.86,.6-.16,.49-.5-.02-.77-.15-.32-.22-.63-.44-.95-.66,.07,.82-.28,2.32,.04,2.74,.37,.28,1.35,1.07,1.33,1.51-.48,.13-1.18-1.31-1.49-1.23-.05,1.22-.09,2.43-.14,3.65,.51,.17,1.54,.83,1.81,1.25-.46,.39-1.43-1.06-1.83-.87-.07,.98-.01,1.99-.15,2.96-.19,.71,1.76,.53,1.34,1.25-.72-.24-1.71-1.26-1.72,.06-.15,1.06-1.12,2.14-.37,3.14,.29,.81,1.21,1.16,1.91,1.58,.82-.13,1.6-.53,2.45-.57,1.26-.19,2.53-.26,3.78-.47,.53-.39,1.18-.75,.39-1.24-.63-.78-.48-1.89-.85-2.77,0-.72-.15-1.03-.78-.51-.5,.1-1.27,1.16-1.55,.5,.74-.36,1.41-.83,2.17-1.17-.09-.94-.27-1.88-.25-2.83-.59,.38-1.47,1.18-2.04,1.07,.23-.53,1.37-.76,1.85-1.32,.35,0,.12-.5,.18-.8l-.02-2.46c-.55,.62-1.21,1.06-2.04,1.2-.62-.54,.94-.35,1.15-.81,.37-.42,1.07-.69,.88-1.35,0-.73-.01-1.45-.02-2.18-.48,.32-1.37,1.47-1.84,1,.51-.45,1.6-.88,1.83-1.55l-.03-2.83c-.52,.7-1.23,1.17-2.07,1.39-.41,.46-1.26,.05-.42-.18,.82-.27,1.65-.57,2.16-1.31,.46-.25,.31-.69,.32-1.15,0-.67-.01-1.34-.02-2.01-.98,.87-1.86,1.83-2.83,2.71-.51-.54,.95-1.01,1.16-1.54,.48-.58,1.3-1.14,1.68-1.64l-.02-2.2c-.37,.35-.98,.78-.21,.37,.34,.39-.26,.42-.51,.59-.35,.16-.69,.32-1.04,.49-.36-.68,1.17-1.01,1.48-1.61,.41,.1,.26-.29,.28-.69,0-.51-.01-1.02-.02-1.53-.51,.93-1.53,.39-2.34,.22-.6-.05-.04-.23,.21-.38,.64-.35,1.29-.69,1.93-1.04,.36,.37-.24,.44-.48,.62-.38,.2-.76,.4-1.14,.6,.71,.4,1.59,.14,1.81-.55,0-1.23-.03-2.43-.09-3.66-.56,.57-.89,1.19-1.59,1.44,.33-.15,1.68,.05,.77,.28-.52,.1-2.27,.17-1.05-.49,.62-.24,1.03-.7,1.42-1.22,.47-.27,.47-.46,.4-1.01-.03-.76-.06-1.51-.1-2.27-.29,.35-1.5,1.31-1.19,1.31,.36-.23,1.79-.3,.94,.12-.54-.03-1.72,.72-1.92,.06,.76-.44,1.32-1.12,1.95-1.72,.37,.05,.13-.5,.17-.84-.09-2.27-.18-4.54-.27-6.8-.36,.32-1.85,1.52-1.3,.33,.37-.42,.74-1.15,1.15-1.3,.27-.14,.02-.63,.09-.91,.06-.69-.36-1.29-.57-1.92-.01-.26-.5-.72-.09-.79,.45,.38,.67,1.43,1.03,2.04,.56,1.29,1.19,2.55,1.68,3.86,.27,1.09,.56,2.18,.6,3.32,.28-.1,.8,.07,.78-.37,.06-.43,.37-.87,.1-1.27-1.22-3.32-2.61-6.57-3.9-9.86,.31-.32,.41,.12,.53,.37,.75,1.5,1.24,3.1,1.87,4.65,.63,1.68,1.3,3.35,2.06,4.98,1.17-.68,.2-1.91,.04-2.9-.55-1.82-1.29-3.57-1.93-5.36-.19-.32-.6-.47-.88-.72-.4-.3-.82-.6-1.22-.9,.33-.63,1.07,.47,1.58,.53,.87,.92,1.09-.49,1.87-.66,.22,.8-1.26,1.44-.47,2.37,.57,1.93,1.07,3.88,1.82,5.75,.12,.34,.25,.67,.37,1.01-.25,.36,.11,1.92,.62,1.52,.18-.84,.72-1.68,.26-2.53-.67-2.57-1.59-5.06-2.37-7.59,.01-.92,.59,.39,.65,.79,.89,2.42,1.86,4.82,2.65,7.28-.17,.72-.16,2.25,.78,1.39,.04-.96,.12-1.95-.28-2.86-.82-2.17-1.46-4.4-2.19-6.61-.41,.45-1.19,.02-1.31-.48,.14-1.09-.76-1.06-1.58-.99-.36-.03,.62-.55,.74-.73,.44-.24,1.38-.98,.47-1.18-.29-.13-.58-.27-.87-.4,.43-.74,.88-1.47,1.45-2.12,.35-.64,.08-1.8-.6-2.19-.5-.27-.44-.9-.64-1.37-.26-.27,0-.8,.21-.41,.13,.44,.26,.89,.39,1.33,.75,.4,1.1,1.06,1.08,1.89,.34,.77-.56,1.25-.89,1.83-.2,.29-.36,.6-.55,.89,.42,.2,.84,.37,1.25,.58,.09,.78-1.26,1.3-1.17,1.57,1.31-.35,.52,1.48,1.5,1.62,.34,0,.63-.34,.95-.48,.57,.11-.24,.37-.1,.63,1.06,2.88,2.14,5.76,3.15,8.64-.1,1.05,.9,1.18,1.52,1.61,.09,.56,.35,1.62,.94,1.39,.03-1.49,.12-2.99,.12-4.47,.09-.51-.78-1.74-.07-1.8,.4,1.17,.92,2.3,1.2,3.5,.19,.78-.19,2.05,.93,2.16,.49,.2,.11-1.59,.64-1.1,.29,.23,.58,.46,.87,.69,1.18,.03,.3-1.27,.32-1.93-.37-.92-.73-1.86-1.09-2.79,.55-.23-.3,.08-.14-.51-.13-.91-.72-1.6-1.25-2.32-.22-.48-.21-1.06-.63-.37-.5,.41-.28,1.1,.07,1.53,.57,.88,.51,2.05,1.23,2.85,.31,.51,.73,1.03,.62,1.67,.03,.29,.05,.88-.32,.59-.05-.5,.13-1.04-.17-1.43-.38-.74-.92-1.21-1.07-2.04-.16-.84-.63-1.56-.98-2.32,.08-.18-1.18,.1-1.08-.29,.35-.05,.29-.2,.87-.07,.45-.38,.44-1.09,.14-1.56-.59-1.33-1.5-2.49-2.17-3.77-.17-.84,.17-1.87-.64-2.46-.83-.81-1.25-1.9-1.72-2.94-.53-.74-1.4-1.18-2.02-1.86-.34,.11-1.61,.15-.98-.23,.87-.35,1.47,.15,2.03,.74,.63,.49,1.3,1,1.52,1.81,.39,.94,.91,1.82,1.64,2.54,.64,.6,.31,1.57,.48,2.35,.79,1.44,1.85,2.75,2.39,4.32-.12,.68,.19-.22,.51-.14-.03-.78,.24-1.82-.26-2.55-.52-.97-1.13-1.91-1.61-2.91-.33-.71-.73-1.6-1.1-2.37-.39-.89-.95-1.7-1.48-2.51,.53-.55,.8,1.04,1.21,1.32,.92,1.63,1.5,3.43,2.51,5.02,.29,.7,.92,1.31,1.05,2.05,.1,.44-.18,1.88,.18,1.76,.18-.35,.36-.69,.54-1.04,.29-.14,.86-.05,.92-.36,.1-.97-.87-1.67-.97-2.62-.28-1.3-.79-2.52-1.44-3.67-.69-1.52-1.71-2.86-2.25-4.45-.14-.92,.6,.26,.62,.69,.53,1.21,1.31,2.3,1.86,3.5,.52,.98,1.02,1.97,1.31,3.05,.2,1.02,.62,1.96,1.15,2.85,.09,.41-.01,.72,.33,.76,.16,.37-.62,.18-.31,.76,.09,.36-.09,1.71-.36,.94,.02-.63,.32-1.67-.58-1.18-.24,.21-.33,.61-.52,.89-.15,.38-.72,.35-.33,.9,.51,.76,1.18,1.43,1.32,2.37,.11,.84,.81,1.41,1.23,2.14,.46,.47,1,1.91,1.45,1.65,.21-.89-.58-1.49-.87-2.27-.61-1.31-1.17-2.66-1.76-3.98,.48,.34,1.09,.54,1.36,1.11,1.09,1.45,2.17,2.92,3.29,4.36,1.18,.56,.45-.9,.09-1.36-.9-1.81-2.13-3.43-3.18-5.15-.23-.23-.97-1.38-.28-1.03,1.21,1.49,2.42,2.99,3.63,4.48,.41,.28,1.15,.51,.9-.18-1.04-1.89-2.36-3.61-3.51-5.44-1.21-1.72-2.23-3.55-3.32-5.35,.57-.46,1.32,.7,1.95,.85,1.02,.56,1.92,1.26,2.76,2.07,1.4,1.22,2.75,2.51,4.21,3.66,.73,.4,1.29,1.09,2.07,1.35,.01-.26-.8-1.25-.46-1.24,.82,.23,1.59,.57,2.35,.95,.51,.25,2.09,.85,1.3-.19-.25-.52-1.46-.8-1.26-1.36,.22-.12,.59,.26,.86,.33,.64,.38,1.35,.56,2.08,.66,1.07-.05,.4-1.16-.32-1.17-1.65-.88-3.3-1.79-4.94-2.68,.34-.69,1.46,.41,2.1,.37,.38-.12,1.76,.17,1.27-.49-.2-.25-.63-.26-.92-.41-2.26-.82-4.52-1.62-6.77-2.45-.96-.65-1.94-1.28-2.91-1.91,.15-.59,1.12,.17,1.6,.11,.84,.22,1.69,.4,2.57,.39,.56,.02,1.74,.16,1.95,.07-.37-.2-2.02-.68-1.08-.93,.47-.03,1.95-.06,.69-.11-.9-.09-1.83-.06-2.7-.3,.11-.32,.56-.2,1.14-.14Zm-25.92,35.49v-.15c.48,.29,1.69,.36,1.66,.9-.34-.05-1.6-.34-1.66-.75Zm4.27-14.62c-.82,.66,.97-.66,.83,0-.34,.24-1.58,1.02-2.01,.59,.54-.61,1.31-1.01,1.81-1.69,.75,.02-.41,.78-.62,1.1Zm.51-4.1l.02-.02c.91,.16-1.13,1.03-.69,1.05,.27-.19,.84-.17,.54,.17-.44,.14-.89,.27-1.33,.41-.33-.71,1.12-1.06,1.46-1.61Zm1.21-14.5c-.25,.43-.37,1.47-1.1,1.05,.53,.54-.07,1.68-.72,1.49-.14-.48-.16-1.05-.23-.22-.02,.69-.5,1.23-.75,1.85-.59,.33-1.66,.68-1.27-.42,.07-1.19,.16-2.37,.01-3.55-.01-.39,.2-1.61,0-1.37-.27,.55-.53,1.12-.81,1.67-.34-.51-.2-1.7-1.01-1.58-.44-.09-.6-.62-.71,.1-.2,.21-.44,1.4-.8,.87-.09-.65-.03-1.67-.78-.87-.14-.53-.27-1.07-.4-1.6,.44-.27,.36,.34,.48,.61-.03,.9,.94,.02,1.06-.45,.07-.14,.14-.28,.2-.42,.77,.32-.62,1.08-.4,1.58,.03,.52,.1,.9,.34,.17,.11-.34,.22-.68,.34-1.02,.31,.51,.72,.8,1.31,.8,.25,.43,.37,1.41,.64,.51,.24-.47,.43-1.01,.78-1.39,.57,.32-.08,1.48,.09,2.07-.05,.93,.15,1.87,.02,2.8,.08,.56-.47,1.97,.52,1.3,.34-.16,.39-.64,.6-.95,.38-.73,.24-1.63,.49-2.4,.73-.19,.07,2.04,.78,1.33,.21-.75-.35-1.39-.41-2.22v-1.48c.49-.15,.27,.42,.32,.71-.04,.59,.03,1.18,.28,1.73,.81,.44,.68-1.07,1.32-1.37,.7-.28,.31-1.74,1.02-1.58-.07,.9-.57,1.65-1.19,2.26Zm5.52,1.14c.84,1.7,1.73,3.38,2.63,5.06,.49,1.19,1.07,2.35,1.28,3.63-.19,.61,1.24,1.43,.54,1.59-.77-.6-.85-1.56-1.06-2.44-.5-1.57-1.23-3.07-2.04-4.51-.58-1.03-1.08-2.11-1.62-3.16,.09-.05,.18-.1,.27-.16Zm-1.45,2.88c.52,.08,.38,.82,.85,.94,1.18,.07-.13,1.74,1.08,1.5,.58,.46-.03,1.64,.88,1.95,.76,.36,.54,1.26,.9,1.88,.08,.48,.36,.41,.69,.17,.25-.16,.74-.42,.64,.03-.43,.21-.85,.42-1.28,.64-.34-.66-.64-1.34-.72-2.09-.67-.5-1.27-1.06-1.17-1.98,.16-.7-1.18,.01-.83-.87,.46-.9-.57-.78-.79-1.39-.06-.61-.97-.51-1.02-1.04,.15-.26,.34-.5,.49-.76,.8,.09-.73,.93,.27,1.02Zm1.68-6.51c.16-.65,.74-1.46,.25-2.2-.06-.82-.92-1.05-1.49-1.44l-1.3-.46c.04-.1,.07-.19,.11-.29,.73,.27,1.51,.45,2.13,.95,.8,.28,.84,1.2,1.07,1.89,.02,.44-.36,1.86-.77,1.56Zm3.89-5.81c-.6,.15-.34-1.17-1.05-1.29-.33-.57-.74-.42-1.18-.11-.35,.19-.71,.37-1.06,.56-.59-.8,.06-1.45,.91-1.55,.84-.13,1.33-.85,1.96-1.34h.02s.06-.02,.06-.02c.16,.62-.78,.9-1.17,1.39-.48,.18-2.21,.61-1.47,.99,.49-.26,.99-.52,1.48-.78,.63,.6,1.58,1.24,1.51,2.15Zm2.6-1.03c-.54,.26-1.08,1.06-1.56,1.05-.53-.1,.64-.62,.82-.9,.67-.54,1.36-1.04,2.25-1.14,.06,.7-1.18,.4-1.51,.99Zm16.14,6.38c-1.05,.22-2.12-.07-3.18,.06-.85,.3-1.54-.41-2.14-.57-.45,.27-.95,.33-1.46,.29h-2.21c-.15-.49,.42-.27,.71-.31,.74,0,1.48,.01,2.21,0,.32-.12,.63-.29,.97-.35,.63,.66,1.53,.78,2.44,.63,1.07-.07,2.16,.22,3.2-.18,.9-.08-.07,.51-.54,.45Zm.85-2.17c-.15,.65-1.51,.02-2.09,.22-1.72-.02-3.45-.02-5.15-.3-.33,0-.43-.04-.38-.36,1.53,.22,3.07,.35,4.62,.34,.98,.05,2.12-.04,3,.11Zm-10.27-1.3c.87,.1,1.75,.11,2.57-.26,.77-.14,1.58-.05,2.36-.13,1.48,.06,2.98,.13,4.46,.27,.16,.17-.3,.18-.23,.28-1.91-.09-3.82-.32-5.74-.16-.9-.12-1.68,.57-2.59,.38-.48,.09-1.6-.16-.84-.36Z" fill="#fff" stroke="#14303f" stroke-linejoin="round" stroke-width=".5"/></g></g></svg>
