<?xml version="1.0" encoding="UTF-8"?>
<svg id="projects" xmlns="http://www.w3.org/2000/svg" width="1070" height="330" viewBox="0 0 1070 330">
  <g class="logo">
    <g>
      <path d="M498.04,180.15l-8.59-21.37h-.13l.09,21.37h-4.62v-30.25h5.85l8.5,21.49h.13l-.04-21.49h4.44v30.25h-5.64Z" fill="#14303f"/>
      <path d="M510.49,180.15v-30.25h13.55v4.53h-8.63v8.03h7.99v4.19h-7.99v8.93h9.06v4.57h-13.97Z" fill="#14303f"/>
      <path d="M543.12,155.99c-1.11-1.3-2.51-1.95-4.19-1.95-.48,0-.95,.08-1.41,.23-.46,.15-.87,.39-1.24,.73-.37,.33-.66,.76-.88,1.29-.21,.53-.32,1.15-.32,1.87,0,1.25,.38,2.21,1.15,2.88,.77,.68,1.78,1.32,3.03,1.93,.74,.36,1.5,.77,2.26,1.25,.77,.47,1.47,1.04,2.09,1.7,.63,.66,1.14,1.45,1.54,2.37,.4,.91,.6,1.99,.6,3.24,0,1.44-.24,2.71-.71,3.82-.47,1.11-1.1,2.04-1.88,2.8-.78,.76-1.7,1.34-2.76,1.72-1.05,.39-2.17,.58-3.33,.58-1.68,0-3.23-.32-4.66-.95-1.42-.64-2.56-1.44-3.42-2.41l2.78-3.65c.66,.77,1.45,1.38,2.37,1.83,.93,.44,1.87,.66,2.84,.66,1.08,0,1.98-.36,2.69-1.08,.71-.72,1.07-1.73,1.07-3.03s-.43-2.28-1.28-3.03c-.85-.75-1.94-1.44-3.25-2.08-.83-.39-1.6-.82-2.33-1.29-.73-.47-1.37-1.03-1.92-1.68-.56-.65-1-1.41-1.32-2.28-.33-.87-.49-1.92-.49-3.13,0-1.52,.25-2.83,.75-3.92,.5-1.09,1.15-2,1.97-2.72,.81-.72,1.73-1.25,2.76-1.6,1.03-.35,2.07-.52,3.12-.52,1.54,0,2.91,.24,4.12,.73,1.21,.48,2.23,1.2,3.06,2.14l-2.82,3.57Z" fill="#14303f"/>
      <path d="M560.93,154.26v25.9h-5.04v-25.9h-5.68v-4.36h16.41v4.36h-5.68Z" fill="#14303f"/>
      <path d="M575.05,152.28v10.97h8.5v2.59h-8.5v14.3h-2.95v-30.59h12.09v2.72h-9.14Z" fill="#14303f"/>
      <path d="M590.05,180.15v-30.59h2.99v27.78h8.63v2.81h-11.62Z" fill="#14303f"/>
      <path d="M607.42,180.15v-30.59h2.99v30.59h-2.99Z" fill="#14303f"/>
      <path d="M631.75,180.15l-6.11-13.57-6.11,13.57h-3.16l7.65-16.12-6.88-14.47h3.16l5.43,12.1,5.38-12.1h3.08l-6.84,14.52,7.65,16.07h-3.25Z" fill="#14303f"/>
      <path d="M461.51,171.13c.43,2.13,1.7,5.32,1.7,5.32,0,0-.89,1.57-.55,2.55,.34,.98,4.38,1.15,6.68,1.15,2.3,0,6.34-.17,6.68-1.15,.34-.98-.55-2.55-.55-2.55,0,0,1.28-3.19,1.7-5.32,.43-2.13,.53-6.43-.6-8.89-.98-2.16-.72-3.66-.64-4.85,.09-1.19,.26-3.96-1.79-5.74-2.04-1.79-4.81-1.74-4.81-1.74,0,0-2.77-.04-4.81,1.74s-1.87,4.55-1.79,5.74c.09,1.19,.35,2.7-.64,4.85-1.12,2.46-1.02,6.77-.6,8.89Zm3.34-14.49c0-2.48,2.01-4.49,4.49-4.49s4.49,2.01,4.49,4.49c0,2.48-2.01,4.49-4.49,4.49s-4.49-2.01-4.49-4.49Z" fill="#14303f"/>
      <path d="M447.01,175c.46,2.76,1.46,4.72,1.46,4.72,0,0,1.95,.43,3.96,.43,2.01,0,3.96-.43,3.96-.43,0,0,1-1.96,1.46-4.72,.27-1.62,.38-5.21,0-7.11-.38-1.9-1.25-2.6-1.08-4.23s.11-3.8-1.14-4.94c-1.25-1.14-3.2-1.08-3.2-1.08,0,0-1.95-.05-3.2,1.08-1.25,1.14-1.3,3.31-1.14,4.94,.16,1.63-.71,2.33-1.09,4.23-.38,1.9-.27,5.49,0,7.11Zm2.87-12.96c0-1.41,1.15-2.56,2.56-2.56,1.41,0,2.56,1.15,2.56,2.56,0,1.41-1.15,2.56-2.56,2.56s-2.56-1.15-2.56-2.56Z" fill="#14303f"/>
      <path d="M435.17,176.54c.33,1.94,1.03,3.31,1.03,3.31,0,0,1.37,.3,2.78,.3s2.78-.3,2.78-.3c0,0,.7-1.38,1.03-3.31,.19-1.14,.27-3.66,0-4.99-.27-1.33-.88-1.83-.76-2.97s.08-2.67-.8-3.47c-.88-.8-2.25-.76-2.25-.76,0,0-1.37-.04-2.25,.76-.88,.8-.91,2.32-.8,3.47s-.5,1.64-.76,2.97c-.27,1.33-.19,3.85,0,4.99Zm2.16-9.16c0-.91,.74-1.65,1.65-1.65s1.65,.74,1.65,1.65-.74,1.65-1.65,1.65-1.65-.74-1.65-1.65Z" fill="#14303f"/>
    </g>
    <g>
      <path d="M498.04,180.15l-8.59-21.37h-.13l.09,21.37h-4.62v-30.25h5.85l8.5,21.49h.13l-.04-21.49h4.44v30.25h-5.64Z" fill="#14303f"/>
      <path d="M510.49,180.15v-30.25h13.55v4.53h-8.63v8.03h7.99v4.19h-7.99v8.93h9.06v4.57h-13.97Z" fill="#14303f"/>
      <path d="M543.12,155.99c-1.11-1.3-2.51-1.95-4.19-1.95-.48,0-.95,.08-1.41,.23-.46,.15-.87,.39-1.24,.73-.37,.33-.66,.76-.88,1.29-.21,.53-.32,1.15-.32,1.87,0,1.25,.38,2.21,1.15,2.88,.77,.68,1.78,1.32,3.03,1.93,.74,.36,1.5,.77,2.26,1.25,.77,.47,1.47,1.04,2.09,1.7,.63,.66,1.14,1.45,1.54,2.37,.4,.91,.6,1.99,.6,3.24,0,1.44-.24,2.71-.71,3.82-.47,1.11-1.1,2.04-1.88,2.8-.78,.76-1.7,1.34-2.76,1.72-1.05,.39-2.17,.58-3.33,.58-1.68,0-3.23-.32-4.66-.95-1.42-.64-2.56-1.44-3.42-2.41l2.78-3.65c.66,.77,1.45,1.38,2.37,1.83,.93,.44,1.87,.66,2.84,.66,1.08,0,1.98-.36,2.69-1.08,.71-.72,1.07-1.73,1.07-3.03s-.43-2.28-1.28-3.03c-.85-.75-1.94-1.44-3.25-2.08-.83-.39-1.6-.82-2.33-1.29-.73-.47-1.37-1.03-1.92-1.68-.56-.65-1-1.41-1.32-2.28-.33-.87-.49-1.92-.49-3.13,0-1.52,.25-2.83,.75-3.92,.5-1.09,1.15-2,1.97-2.72,.81-.72,1.73-1.25,2.76-1.6,1.03-.35,2.07-.52,3.12-.52,1.54,0,2.91,.24,4.12,.73,1.21,.48,2.23,1.2,3.06,2.14l-2.82,3.57Z" fill="#14303f"/>
      <path d="M560.93,154.26v25.9h-5.04v-25.9h-5.68v-4.36h16.41v4.36h-5.68Z" fill="#14303f"/>
      <path d="M575.05,152.28v10.97h8.5v2.59h-8.5v14.3h-2.95v-30.59h12.09v2.72h-9.14Z" fill="#14303f"/>
      <path d="M590.05,180.15v-30.59h2.99v27.78h8.63v2.81h-11.62Z" fill="#14303f"/>
      <path d="M607.42,180.15v-30.59h2.99v30.59h-2.99Z" fill="#14303f"/>
      <path d="M631.75,180.15l-6.11-13.57-6.11,13.57h-3.16l7.65-16.12-6.88-14.47h3.16l5.43,12.1,5.38-12.1h3.08l-6.84,14.52,7.65,16.07h-3.25Z" fill="#14303f"/>
      <path d="M461.51,171.13c.43,2.13,1.7,5.32,1.7,5.32,0,0-.89,1.57-.55,2.55,.34,.98,4.38,1.15,6.68,1.15,2.3,0,6.34-.17,6.68-1.15,.34-.98-.55-2.55-.55-2.55,0,0,1.28-3.19,1.7-5.32,.43-2.13,.53-6.43-.6-8.89-.98-2.16-.72-3.66-.64-4.85,.09-1.19,.26-3.96-1.79-5.74-2.04-1.79-4.81-1.74-4.81-1.74,0,0-2.77-.04-4.81,1.74s-1.87,4.55-1.79,5.74c.09,1.19,.35,2.7-.64,4.85-1.12,2.46-1.02,6.77-.6,8.89Zm3.34-14.49c0-2.48,2.01-4.49,4.49-4.49s4.49,2.01,4.49,4.49c0,2.48-2.01,4.49-4.49,4.49s-4.49-2.01-4.49-4.49Z" fill="#14303f"/>
      <path d="M447.01,175c.46,2.76,1.46,4.72,1.46,4.72,0,0,1.95,.43,3.96,.43,2.01,0,3.96-.43,3.96-.43,0,0,1-1.96,1.46-4.72,.27-1.62,.38-5.21,0-7.11-.38-1.9-1.25-2.6-1.08-4.23s.11-3.8-1.14-4.94c-1.25-1.14-3.2-1.08-3.2-1.08,0,0-1.95-.05-3.2,1.08-1.25,1.14-1.3,3.31-1.14,4.94,.16,1.63-.71,2.33-1.09,4.23-.38,1.9-.27,5.49,0,7.11Zm2.87-12.96c0-1.41,1.15-2.56,2.56-2.56,1.41,0,2.56,1.15,2.56,2.56,0,1.41-1.15,2.56-2.56,2.56s-2.56-1.15-2.56-2.56Z" fill="#14303f"/>
      <path d="M435.17,176.54c.33,1.94,1.03,3.31,1.03,3.31,0,0,1.37,.3,2.78,.3s2.78-.3,2.78-.3c0,0,.7-1.38,1.03-3.31,.19-1.14,.27-3.66,0-4.99-.27-1.33-.88-1.83-.76-2.97s.08-2.67-.8-3.47c-.88-.8-2.25-.76-2.25-.76,0,0-1.37-.04-2.25,.76-.88,.8-.91,2.32-.8,3.47s-.5,1.64-.76,2.97c-.27,1.33-.19,3.85,0,4.99Zm2.16-9.16c0-.91,.74-1.65,1.65-1.65s1.65,.74,1.65,1.65-.74,1.65-1.65,1.65-1.65-.74-1.65-1.65Z" fill="#14303f"/>
    </g>
  </g>
</svg>
