<?xml version="1.0" encoding="UTF-8"?><svg id="dusting-zone" xmlns="http://www.w3.org/2000/svg" width="1070" height="250" xmlns:xlink="http://www.w3.org/1999/xlink" viewBox="0 0 1070 250"><defs><pattern id="New_Pattern_2" x="0" y="0" width="8.91" height="8.91" patternTransform="translate(-6926.29 -2167.12) scale(.48)" patternUnits="userSpaceOnUse" viewBox="0 0 8.91 8.91"><g><rect width="8.91" height="8.91" fill="none"/><path d="m0,1.46c.8,0,1.46-.65,1.46-1.46H0v1.46Z" fill="#14303f"/><circle cx="4.45" cy="4.45" r="1.46" fill="#14303f"/><path d="m7.45,0c0,.8.65,1.46,1.46,1.46V0h-1.46Z" fill="#14303f"/><path d="m8.91,7.45c-.8,0-1.46.65-1.46,1.46h1.46v-1.46Z" fill="#14303f"/><path d="m0,7.45v1.46h1.46c0-.8-.65-1.46-1.46-1.46Z" fill="#14303f"/></g></pattern></defs><g class="simple"><g class="fill-turquoise"><rect x="453.85" y="69.06" width="162.3" height="111.88" fill="#b4b9c5"/></g><path d="m492.2,167.64c3.57-4.49,8.04-8.3,12.71-11.6,9.4-6.65,18.09-11.19,27.31-18.13,2.34-1.76,4.98-4.36,6.91-6.56,1.99-2.27,5.2-4.29,6.8-6.85,3.32-5.31,6.25-10.82,9.96-15.89,7.39-10.1,16.62-18.67,24.99-27.97,5.45-6.06,8.9-7.95,13.64-11.57h-140.68v111.88h30.46c2.18-4.69,4.67-9.24,7.9-13.3Z" fill="url(#New_Pattern_2)"/><g><rect x="531.7" y="114.94" width="38.09" height="31.42" fill="#eaebef" stroke="#14303f" stroke-linejoin="round"/><g><polygon class="fill-white" points="545.52 134.58 545.52 122.3 549.75 122.3 551.36 120.26 554.94 120.26 556.66 123.32 560.13 124.34 562.22 127.38 564.33 128.18 564.33 130.46 564.33 143.09 562.29 143.09 562.29 146.99 560.25 146.99 560.25 151.32 547.57 151.32 547.57 149.28 545.53 149.28 545.53 147.24 543.49 147.24 543.49 145.21 541.46 145.21 541.46 140.89 539.42 140.89 539.42 138.85 537.24 138.85 537.24 134.58 545.52 134.58" fill="#eaebef"/><g><rect x="558.21" y="138.85" width="2.04" height="8.14" fill="#14303f"/><rect x="549.33" y="120.26" width="2.04" height="14.31" fill="#14303f"/><rect x="554.96" y="120.26" width="2.04" height="14.31" fill="#14303f"/><rect x="560.13" y="124.34" width="2.04" height="10.23" fill="#14303f"/><rect x="564.33" y="128.18" width="2.04" height="14.91" fill="#14303f"/><polygon points="560.25 151.32 558.11 151.32 558.11 153.36 562.29 153.36 562.29 146.99 560.25 146.99 560.25 151.32" fill="#14303f"/><rect x="562.29" y="143.09" width="2.04" height="3.9" fill="#14303f"/><rect x="555.97" y="149.28" width="2.14" height="2.04" fill="#14303f"/><polygon points="547.57 149.28 545.53 149.28 545.53 151.32 545.52 151.32 545.52 153.36 555.97 153.36 555.97 151.32 547.57 151.32 547.57 149.28" fill="#14303f"/><rect x="543.49" y="147.24" width="2.04" height="2.04" fill="#14303f"/><rect x="541.46" y="145.21" width="2.04" height="2.04" fill="#14303f"/><rect x="539.42" y="140.89" width="2.04" height="4.32" fill="#14303f"/><rect x="535.2" y="134.58" width="2.04" height="4.27" fill="#14303f"/><rect x="545.53" y="120.26" width="3.79" height="2.04" fill="#14303f"/><rect x="551.36" y="118.22" width="3.58" height="2.04" fill="#14303f"/><rect x="557" y="122.3" width="3.13" height="2.04" fill="#14303f"/><rect x="562.17" y="126.14" width="2.16" height="2.04" fill="#14303f"/><polygon points="541.34 136.61 543.49 136.61 543.49 138.85 545.53 138.85 545.53 122.3 543.49 122.3 543.49 134.57 541.34 134.57 541.34 132.54 537.24 132.54 537.24 134.58 541.34 134.58 541.34 136.61" fill="#14303f"/><rect x="537.24" y="138.85" width="2.18" height="2.04" fill="#14303f"/><rect x="549.75" y="138.85" width="2.04" height="8.14" fill="#14303f"/><rect x="553.94" y="138.85" width="2.04" height="8.14" fill="#14303f"/></g></g></g><rect x="447.24" y="63.25" width="175.51" height="5.82" fill="#eaebef" stroke="#14303f" stroke-linejoin="round"/><rect x="447.24" y="180.94" width="175.51" height="5.82" fill="#eaebef" stroke="#14303f" stroke-linejoin="round"/><polygon points="622.76 63.25 616.15 69.06 616.15 180.94 622.76 186.75 622.76 63.25" fill="#fff" stroke="#14303f" stroke-linejoin="round"/><polygon points="447.24 63.25 453.85 69.06 453.85 180.94 447.24 186.75 447.24 63.25" fill="#fff" stroke="#14303f" stroke-linejoin="round"/></g></svg>
