<?xml version="1.0" encoding="UTF-8"?>
<svg id="projects" xmlns="http://www.w3.org/2000/svg" width="1070" height="250" viewBox="0 0 1070 250">
  <g class="logo">
    <path d="M430.67,114.38l-4.42,1.11c-.15,0-.3,.16-.34,.35l-2.8,14.83-4,.62,2.75-14.07c.04-.2-.05-.35-.2-.35l-4.51,1.29c-.15,0-.31,.16-.35,.35l-6.79,32.39c-.05,.22,.05,.41,.21,.41h4.64c.16,0,.33-.18,.37-.41l3.02-15.27,4.04-.62-3,15.89c-.04,.22,.05,.41,.22,.41h4.62c.16,0,.32-.18,.36-.41l6.39-36.17c.03-.2-.06-.35-.21-.35Z" fill="#14303f"/>
    <path d="M441.64,111.32s-2.28,.53-3.88,.92c-1.6,.39-2.51,.99-3.66,2.38-1.14,1.38-1.89,3.07-2.24,5.04l-4.22,23.73c-.37,2.13-.22,4,.47,5.54,.7,1.57,1.74,2.37,3.08,2.37h4.65c1.35,0,2.64-.81,3.84-2.4,1.17-1.56,1.92-3.42,2.23-5.52l3.71-23.74c.28-1.94,.22-4.15-.47-5.54-.69-1.4-2.25-2.78-3.51-2.78Zm-.96,8.32l-3.89,23.74c-.14,.92-.46,1.7-.98,2.37-.5,.66-1.01,.98-1.57,.98s-.94-.32-1.23-.98c-.3-.68-.37-1.45-.22-2.37l4.04-23.73c.14-.88,.5-2.03,.99-2.64,.47-.59,.95-.87,1.47-.87s.93,.28,1.21,.87c.29,.6,.32,1.76,.18,2.64Z" fill="#14303f"/>
    <path d="M455.04,146.72h-6.61s5-37.67,5-37.67c.03-.2-.08-.35-.23-.35l-4.51,1.03c-.15,0-.3,.16-.32,.35l-5.72,40.82c-.03,.22,.07,.41,.23,.41h11.62c.16,0,.31-.19,.34-.41l.44-3.76c.03-.22-.08-.4-.24-.4Z" fill="#14303f"/>
    <path d="M468.94,146.71h-6.62s4.01-40.38,4.01-40.38c.02-.2-.09-.35-.24-.35l-4.35,.94c-.15,0-.29,.16-.31,.35l-4.78,43.61c-.03,.22,.08,.41,.25,.41h11.63c.16,0,.31-.19,.33-.41l.33-3.77c.02-.22-.09-.4-.25-.4Z" fill="#14303f"/>
    <path d="M484.53,103l-4.33,.5c-.15,0-.28,.16-.3,.36l-1.74,22.44c-.06,.87-.3,1.59-.74,2.22-.43,.61-.9,.9-1.44,.9s-.95-.29-1.29-.9c-.35-.62-.49-1.35-.42-2.21l1.88-21.69c.01-.2-.1-.35-.25-.35l-4.41,.72c-.15,0-.34,.15-.36,.35l-1.88,20.97c-.36,4.21,.95,6.72,3.89,7.4l-1.31,17.16c-.02,.22,.1,.41,.26,.41h4.66c.16,0,.3-.19,.32-.41l1.15-17.17c3.02-.69,4.67-3.2,4.91-7.41l1.63-22.93c.01-.2-.1-.35-.25-.35Z" fill="#14303f"/>
    <path d="M508.69,100.07l-4.36,.29c-.15,0-.28,.16-.28,.36l-1.47,42.61c-.01,.92-.22,1.7-.64,2.38-.41,.66-.87,.98-1.41,.98h-2.04s1.85-45.52,1.85-45.52c0-.2-.11-.35-.27-.35l-4.35,.38c-.15,0-.28,.16-.29,.36l-2.02,41.78c-.03,.92-.26,1.7-.69,2.38-.42,.66-.9,.98-1.46,.98h-2.01s2.37-44.39,2.37-44.39c0-.2-.11-.35-.26-.35l-4.4,.46c-.15,0-.28,.16-.29,.36l-2.84,48.11c-.01,.22,.11,.41,.27,.41h6.03c1.15,0,2.16-.31,3.03-.9l-.02,.49c0,.22,.12,.41,.28,.41h6.01c2.28,0,4.27-1.35,5.89-3.97,1.6-2.58,2.41-5.66,2.42-9.15l1.19-37.71c0-.2-.12-.35-.27-.35Z" fill="#14303f"/>
    <path d="M519.32,99.02l-4.38,.25c-1.26,0-2.36,.71-3.27,2.1-.9,1.38-1.36,3.08-1.36,5.05l-.47,36.9c0,2.14,.49,4.01,1.45,5.56,.98,1.57,2.17,2.38,3.52,2.38h4.67c1.35,0,2.51-.82,3.44-2.41,.91-1.56,1.33-3.43,1.27-5.53l-.05-36.9c-.06-1.94-.56-3.63-1.5-5.02-.94-1.4-2.04-2.36-3.31-2.35Zm-.16,7.38l-.14,36.9c.02,.92-.17,1.7-.57,2.38-.39,.66-.85,.98-1.41,.98s-1-.32-1.41-.98c-.42-.68-.63-1.46-.64-2.38l.28-36.9c0-.88,.17-1.6,.56-2.21,.37-.59,.8-.87,1.32-.87s.98,.28,1.37,.87c.4,.61,.61,1.33,.62,2.2Z" fill="#14303f"/>
    <path d="M534.24,98.68h-4.37c-1.26,0-2.34,.71-3.21,2.11-.86,1.38-1.26,3.08-1.2,5.05l1.11,37.46c.07,2.14,.62,4.01,1.63,5.56,1.03,1.58,2.25,2.38,3.6,2.38h4.68c1.36,0,2.49-.82,3.36-2.41,.86-1.56,1.22-3.43,1.09-5.54l-1.63-37.47c-.12-1.94-.68-3.63-1.67-5.02-.99-1.4-2.13-2.11-3.4-2.11Zm.1,7.14l1.45,37.46c.05,.92-.11,1.7-.49,2.38-.37,.66-.82,.98-1.38,.98s-1.02-.32-1.44-.98c-.44-.68-.68-1.46-.72-2.38l-1.3-37.46c-.04-.88,.12-1.6,.49-2.21,.35-.59,.78-.87,1.29-.87s.99,.28,1.4,.87c.42,.61,.65,1.33,.7,2.21Z" fill="#14303f"/>
    <path d="M549.24,99.18l-8.74-.28c-.15,0-.26,.16-.25,.36l3.6,51.56c.01,.22,.16,.41,.32,.41h9.37c1.36,0,2.46-.82,3.28-2.42,.8-1.56,1.11-3.43,.91-5.54l-3.18-36.95c-.19-1.94-.81-3.63-1.84-5.03-1.04-1.41-2.2-2.11-3.47-2.11Zm-3.78,4.07h1.91c.54,0,1,.28,1.43,.87,.44,.61,.7,1.33,.77,2.21l2.99,36.95c.08,.92-.05,1.7-.41,2.38-.34,.66-.78,.98-1.35,.98h-2.01s-3.33-43.39-3.33-43.39Z" fill="#14303f"/>
    <path d="M570.35,100.66l-4.38-.28c-1.27,0-2.29,1-3.05,2.39-.76,1.39-1.03,3.08-.82,5.05l4.71,42.99c.02,.22,.18,.41,.34,.41h4.69c.16,0,.27-.19,.25-.41l-2.66-23.67,4,.22,2.75,23.44c.03,.22,.18,.41,.35,.41h4.66c.16,0,.27-.19,.24-.41l-5.46-43c-.27-1.94-.96-3.63-2.05-5.03-1.1-1.41-2.3-2.11-3.57-2.11Zm-1.44,22.12l-1.8-14.96c-.11-.88,0-1.6,.32-2.21,.31-.59,.71-.87,1.23-.87s1.02,.28,1.47,.87c.47,.61,.75,1.33,.87,2.21l1.88,15.19-3.96-.22Z" fill="#14303f"/>
    <path d="M593.24,124.64l-6.76-.32c-.16,0-.26,.17-.22,.38l.56,3.92c.03,.21,.19,.38,.35,.38h2s2.26,14.22,2.26,14.22c.29,2.2-.2,3.28-1.5,3.38-.55,0-1.06-.31-1.56-.96-.51-.66-.83-1.45-.98-2.4l-4.69-33.38c-.14-.88-.05-1.6,.25-2.21,.29-.59,.68-.87,1.2-.87h1.06c1.13,0,1.64,1.01,2.15,3.11,.05,.19,.19,.33,.33,.33h3.67c.08,0,.14-.04,.18-.12,.04-.07,.05-.17,.03-.27-.99-4.76-3.06-6.91-5.94-7.24-1.85-.2-4.3-.46-4.3-.46-1.3,0-2.32,1.3-3.01,2.71-.69,1.4-.9,3.09-.62,5.03l4.5,33.38c.31,2.14,1.06,4.02,2.25,5.57,1.21,1.58,2.51,2.38,3.87,2.38h4.69c1.2,0,2.22-.68,3.04-2.01,.82-1.33,1-3.34,.55-5.95l-3.02-18.22c-.04-.21-.19-.38-.35-.38Z" fill="#14303f"/>
    <path d="M603.38,105.32l-11.28-1.75c-.15,0-.25,.16-.21,.36l7.87,46.86c.04,.22,.2,.41,.37,.41h11.73c.16,0,.26-.19,.21-.42l-.76-3.78c-.04-.22-.21-.4-.37-.4h-6.68s-3.05-17.52-3.05-17.52l4.23,.35c.16,0,.25-.17,.21-.38l-.71-3.6c-.04-.21-.2-.38-.36-.38l-4.19-.35-2.67-16.03,6.52,.97c.15,0,.25-.16,.21-.36l-.73-3.62c-.04-.2-.19-.36-.35-.36Z" fill="#14303f"/>
    <path d="M627.92,128.33l-6.77-.32c-.16,0-.25,.17-.2,.38l.82,3.93c.05,.21,.22,.38,.37,.38h2.01s2.45,10.49,2.45,10.49c.44,2.2,.04,3.28-1.26,3.39-.55,0-1.08-.31-1.63-.96-.56-.66-.94-1.45-1.15-2.41l-5.99-27.49c-.2-.88-.42-1.75-.16-2.36,.25-.59,.62-.87,1.14-.87l1.32,.15c1.13,0,1.71,1.01,2.38,3.12,.06,.19,.21,.33,.36,.33h3.67c.08,0,.14-.04,.17-.12,.04-.07,.04-.17,.01-.27-1.33-4.76-3.39-6.72-6.32-7.32-2.8-.58-4.41-.58-4.41-.58-1.31,0-2.31,1.5-2.91,2.91-.59,1.4-.68,3.09-.27,5.04l5.8,27.48c.46,2.15,1.35,4.02,2.65,5.57,1.33,1.58,2.69,2.38,4.05,2.38h4.7c1.2,0,2.18-.68,2.9-2.02,.73-1.33,.77-3.34,.13-5.95l-3.5-14.49c-.05-.21-.22-.38-.38-.38Z" fill="#14303f"/>
    <path d="M634.92,112.02c-2.08-.44-3.31-.8-4.29-.91s-2.2,.71-2.77,2.1c-.57,1.39-.67,4.15-.18,6.12l7.84,31.43c.06,.23,.23,.41,.4,.41h4.71c.16,0,.25-.19,.19-.41l-4.76-18.23,4.09,.36,4.78,17.87c.06,.23,.24,.41,.4,.41h4.68c.16,0,.25-.19,.18-.41l-8.6-31.44c-.54-1.95-1.47-3.64-2.76-5.04-1.3-1.41-1.83-1.81-3.91-2.25Zm0,16.14l-2.22-8.84c-.23-.88-.22-1.61,.01-2.21,.23-.59,.59-.87,1.11-.88s1.06,.28,1.6,.87c.56,.61,.94,1.33,1.18,2.21l2.37,9.2-4.05-.35Z" fill="#14303f"/>
    <path d="M655.46,118.55c-1.35-1.41-2.75-1.92-3.9-2.32-3.13-1.09-9.56-2.34-9.56-2.34-.15,0-.23,.16-.18,.36l10.22,36.49c.06,.23,.25,.41,.41,.41h4.71c.16,0,.24-.19,.18-.41l-4.75-16.33,4.37,.15c1.32,0,2.24-.77,2.72-2.28,.47-1.48,.4-3.24-.22-5.23l-1.08-3.46c-.61-1.95-1.59-3.64-2.93-5.04Zm-7.23,1.03s1.41,.35,2.18,.59,1.37,.55,1.93,1.14c.58,.61,.78,1.41,1.05,2.29l1.04,3.46c.26,.87,.29,1.6,.07,2.23-.21,.61-.58,.91-1.13,.91l-2.05-.15-3.09-10.46Z" fill="#14303f"/>
  </g>
</svg>
