<?xml version="1.0" encoding="UTF-8"?><svg id="whyaz" xmlns="http://www.w3.org/2000/svg" width="1070" height="330" viewBox="0 0 1070 330"><g id="cactus2" class="reveal"><g class="cactus-left"><g><g class="fill-green"><path d="M268.55,339.69V142.25c0-8.69-7.11-15.81-15.81-15.81h0c-8.69,0-15.81,7.11-15.81,15.81v197.44s31.61,0,31.61,0Z" fill="#eaebef" stroke="#14303f" stroke-miterlimit="10"/></g><path d="M261.27,339.69V142.25c0-11.65-8.51-15.81-8.51-15.81" fill="none" stroke="#14303f" stroke-miterlimit="10" stroke-width=".5"/><path d="M244.21,339.69V142.25c0-11.45,8.51-15.81,8.51-15.81v213.24" fill="none" stroke="#14303f" stroke-miterlimit="10" stroke-width=".5"/></g><g><g class="fill-green-2"><path d="M225.3,339.69V90.25c0-8.69-7.11-15.81-15.81-15.81h0c-8.69,0-15.81,7.11-15.81,15.81v249.44s31.61,0,31.61,0Z" fill="#eaebef" stroke="#14303f" stroke-miterlimit="10"/></g><path d="M218.02,339.69V90.25c0-11.65-8.51-15.81-8.51-15.81" fill="none" stroke="#14303f" stroke-miterlimit="10" stroke-width=".5"/><path d="M200.96,339.69V90.25c0-11.45,8.51-15.81,8.51-15.81V339.69" fill="none" stroke="#14303f" stroke-miterlimit="10" stroke-width=".5"/></g><g><g class="fill-green-3"><path d="M103.18,339.69V68.72c0-8.69-7.11-15.81-15.81-15.81h0c-8.69,0-15.81,7.11-15.81,15.81V339.69s31.61,0,31.61,0Z" fill="#eaebef" stroke="#14303f" stroke-miterlimit="10"/></g><path d="M95.9,339.69V68.72c0-11.65-8.51-15.81-8.51-15.81" fill="none" stroke="#14303f" stroke-miterlimit="10" stroke-width=".5"/><path d="M78.84,339.69V68.72c0-11.45,8.51-15.81,8.51-15.81V339.69" fill="none" stroke="#14303f" stroke-miterlimit="10" stroke-width=".5"/></g><g><g class="fill-green-4"><path d="M49.88,101.73h0c6.87,0,12.48,5.62,12.48,12.48v42.38c0,12.75,9.2,11.87,9.2,11.87v22.96c-20.21,0-34.17-7.35-34.17-27.15v-50.06c0-6.87,5.62-12.48,12.49-12.48Z" fill="#eaebef" stroke="#14303f" stroke-miterlimit="10"/></g><path d="M71.56,173.96s-14.37,1.26-14.37-15.71c0-8.49,0-44.04,0-44.04,.27-9.05-7.3-12.48-7.3-12.48" fill="none" stroke="#14303f" stroke-miterlimit="10" stroke-width=".5"/><path d="M71.56,180.78s-21.7,.92-21.7-21.54c0-24.04,0-57.52,0-57.52,0,0-7.58,3.44-7.3,12.48,0,0,0,24.85,0,46.57,0,26.77,29.01,26.36,29.01,26.36" fill="none" stroke="#14303f" stroke-miterlimit="10" stroke-width=".5"/></g><g><g class="fill-green-5"><path d="M124.87,116.77h0c-6.87,0-12.48,5.62-12.48,12.48v91.18c0,12.75-9.2,11.87-9.2,11.87v22.96c20.21,0,34.17-7.35,34.17-27.15v-98.86c0-6.87-5.62-12.48-12.49-12.48Z" fill="#eaebef" stroke="#14303f" stroke-miterlimit="10"/></g><path d="M103.18,237.81s14.37,1.26,14.37-15.71c0-8.49,0-92.85,0-92.85-.27-9.05,7.3-12.48,7.3-12.48" fill="none" stroke="#14303f" stroke-miterlimit="10" stroke-width=".5"/><path d="M103.18,244.63s21.7,.92,21.7-21.54c0-24.04,0-106.32,0-106.32,0,0,7.58,3.44,7.3,12.48,0,0,0,73.65,0,95.38,0,26.77-29.01,26.36-29.01,26.36" fill="none" stroke="#14303f" stroke-miterlimit="10" stroke-width=".5"/></g></g><g class="cactus-right"><g><g class="fill-green-6"><path d="M801.45,339.69V142.25c0-8.69,7.11-15.81,15.81-15.81h0c8.69,0,15.81,7.11,15.81,15.81v197.44h-31.61Z" fill="#eaebef" stroke="#14303f" stroke-miterlimit="10"/></g><path d="M808.73,339.69V142.25c0-11.65,8.51-15.81,8.51-15.81" fill="none" stroke="#14303f" stroke-miterlimit="10" stroke-width=".5"/><path d="M825.79,339.69V142.25c0-11.45-8.51-15.81-8.51-15.81v213.24" fill="none" stroke="#14303f" stroke-miterlimit="10" stroke-width=".5"/></g><g><g class="fill-green-7"><path d="M844.7,339.69V90.25c0-8.69,7.11-15.81,15.81-15.81h0c8.69,0,15.81,7.11,15.81,15.81v249.44h-31.61Z" fill="#eaebef" stroke="#14303f" stroke-miterlimit="10"/></g><path d="M851.98,339.69V90.25c0-11.65,8.51-15.81,8.51-15.81" fill="none" stroke="#14303f" stroke-miterlimit="10" stroke-width=".5"/><path d="M869.04,339.69V90.25c0-11.45-8.51-15.81-8.51-15.81V339.69" fill="none" stroke="#14303f" stroke-miterlimit="10" stroke-width=".5"/></g><g><g class="fill-green-8"><path d="M966.82,339.69V68.72c0-8.69,7.11-15.81,15.81-15.81h0c8.69,0,15.81,7.11,15.81,15.81V339.69h-31.61Z" fill="#eaebef" stroke="#14303f" stroke-miterlimit="10"/></g><path d="M974.1,339.69V68.72c0-11.65,8.51-15.81,8.51-15.81" fill="none" stroke="#14303f" stroke-miterlimit="10" stroke-width=".5"/><path d="M991.16,339.69V68.72c0-11.45-8.51-15.81-8.51-15.81V339.69" fill="none" stroke="#14303f" stroke-miterlimit="10" stroke-width=".5"/></g><g><g class="fill-green-9"><path d="M1020.12,101.73h0c-6.87,0-12.48,5.62-12.48,12.48v42.38c0,12.75-9.2,11.87-9.2,11.87v22.96c20.21,0,34.17-7.35,34.17-27.15v-50.06c0-6.87-5.62-12.48-12.49-12.48Z" fill="#eaebef" stroke="#14303f" stroke-miterlimit="10"/></g><path d="M998.44,173.96s14.37,1.26,14.37-15.71v-44.04c-.27-9.05,7.3-12.48,7.3-12.48" fill="none" stroke="#14303f" stroke-miterlimit="10" stroke-width=".5"/><path d="M998.44,180.78s21.7,.92,21.7-21.54v-57.52s7.58,3.44,7.3,12.48c0,0,0,24.85,0,46.57,0,26.77-29.01,26.36-29.01,26.36" fill="none" stroke="#14303f" stroke-miterlimit="10" stroke-width=".5"/></g><g><g class="fill-green-10"><path d="M945.13,116.77h0c6.87,0,12.48,5.62,12.48,12.48v91.18c0,12.75,9.2,11.87,9.2,11.87v22.96c-20.21,0-34.17-7.35-34.17-27.15v-98.86c0-6.87,5.62-12.48,12.49-12.48Z" fill="#eaebef" stroke="#14303f" stroke-miterlimit="10"/></g><path d="M966.82,237.81s-14.37,1.26-14.37-15.71c0-8.49,0-92.85,0-92.85,.27-9.05-7.3-12.48-7.3-12.48" fill="none" stroke="#14303f" stroke-miterlimit="10" stroke-width=".5"/><path d="M966.82,244.63s-21.7,.92-21.7-21.54c0-24.04,0-106.32,0-106.32,0,0-7.58,3.44-7.3,12.48,0,0,0,73.65,0,95.38,0,26.77,29.01,26.36,29.01,26.36" fill="none" stroke="#14303f" stroke-miterlimit="10" stroke-width=".5"/></g></g></g><g id="flag"><g class="fill-yellow"><rect x="424.05" y="91.04" width="221.89" height="73.96" fill="#fff" stroke="#14303f" stroke-linejoin="round"/></g><g class="fill-blue"><rect x="424.06" y="165" width="221.88" height="73.96" fill="#14303f" stroke="#14303f" stroke-linejoin="round"/></g><g class="fill-red"><polygon points="520.74 165 424.06 165 424.06 143.18 508.31 157.47 520.74 165" fill="#eaebef" stroke="#14303f" stroke-linejoin="round"/><polygon points="531.73 151.21 501.51 91.04 476.25 91.04 528.55 155.29 530.41 155.29 531.73 151.21" fill="#eaebef" stroke="#14303f" stroke-linejoin="round"/><polygon points="550.07 91.04 539.97 143.49 537.05 134.71 534.22 143.49 524.2 91.04 550.07 91.04" fill="#eaebef" stroke="#14303f" stroke-linejoin="round"/><polygon points="645.93 117.68 554.71 155.99 549.13 155.99 630.41 91.04 645.94 91.04 645.93 117.68" fill="#eaebef" stroke="#14303f" stroke-linejoin="round"/><polygon points="645.93 143.37 566.67 156.94 553.51 165 645.93 165 645.93 143.37" fill="#eaebef" stroke="#14303f" stroke-linejoin="round"/><polygon points="546.13 155.85 599.03 91.04 573.14 91.04 542.05 151.73 543.42 155.85 546.13 155.85" fill="#eaebef" stroke="#14303f" stroke-linejoin="round"/><polygon points="525.75 155.99 445.12 91.04 424.06 91.04 424.06 117.3 517.24 155.99 525.75 155.99" fill="#eaebef" stroke="#14303f" stroke-linejoin="round"/></g><g class="fill-pink"><polygon points="552.08 173.55 576.39 155.62 546.13 155.62 537.05 128.27 528.23 155.62 497.72 155.62 522.41 173.64 513.18 202.23 537.26 184.47 561.59 202.23 552.08 173.55" fill="#b4b9c5" stroke="#14303f" stroke-linejoin="round"/></g></g><g id="cactus1" class="reveal"><g class="cactus-right"><g><g><g class="fill-green-11"><path d="M708.04,339.69V73.64c0-8.69,7.11-15.81,15.81-15.81h0c8.69,0,15.81,7.11,15.81,15.81V339.69h-31.61Z" fill="#eaebef" stroke="#14303f" stroke-miterlimit="10"/></g><path d="M715.32,339.69V73.64c0-11.65,8.51-15.81,8.51-15.81" fill="none" stroke="#14303f" stroke-miterlimit="10" stroke-width=".5"/><path d="M732.38,339.69V73.64c0-11.45-8.51-15.81-8.51-15.81V339.69" fill="none" stroke="#14303f" stroke-miterlimit="10" stroke-width=".5"/></g><g><g class="fill-green-12"><path d="M761.34,109.24h0c-6.87,0-12.48,5.62-12.48,12.48v42.38c0,12.75-9.2,11.87-9.2,11.87v22.96c20.21,0,34.17-7.35,34.17-27.15v-50.06c0-6.87-5.62-12.48-12.49-12.48Z" fill="#eaebef" stroke="#14303f" stroke-miterlimit="10"/></g><path d="M739.66,181.48s14.37,1.26,14.37-15.71v-44.04c-.27-9.05,7.3-12.48,7.3-12.48" fill="none" stroke="#14303f" stroke-miterlimit="10" stroke-width=".5"/><path d="M739.66,188.3s21.7,.92,21.7-21.54v-57.52s7.58,3.44,7.3,12.48c0,0,0,24.85,0,46.57,0,26.77-29.01,26.36-29.01,26.36" fill="none" stroke="#14303f" stroke-miterlimit="10" stroke-width=".5"/></g><g><g class="fill-swap"><path d="M725.1,332.23c.44-5.18-.35-11.18-3.76-15.99-7.1-10.01-18.72-13.97-25.95-8.84-6.62,4.69-7.25,15.37-1.87,24.82h31.59Z" fill="#fff" stroke="#14303f" stroke-linejoin="round"/><path d="M713.96,286.92c1.96,10.19-6.63,20.4-9.79,21.01s-10.75-5.49-16.87-15.89c-5.26-8.94,2.43-19.59,9.79-21.01,7.36-1.41,14.92,5.7,16.87,15.89Z" fill="#fff" stroke="#14303f" stroke-linejoin="round"/><path d="M700.63,261.91c-1.11,6.87,4.85,13.55,6.98,13.89s7.1-3.89,11-10.99c3.35-6.1-2.01-13.09-6.98-13.89s-9.89,4.12-11,10.99Z" fill="#fff" stroke="#14303f" stroke-linejoin="round"/><path d="M687.87,302.13c5.24,4.58,4.91,13.53,3.49,15.15s-7.95,1.53-15.48-1.44c-6.47-2.56-6.8-11.37-3.49-15.15,3.31-3.78,10.24-3.14,15.48,1.44Z" fill="#fff" stroke="#14303f" stroke-linejoin="round"/><ellipse cx="682.67" cy="266.73" rx="9.97" ry="13.8" transform="translate(-28.49 444.02) rotate(-35.34)" fill="#fff" stroke="#14303f" stroke-linejoin="round"/><path d="M675.48,242.07c-1.11,6.87,4.85,13.55,6.98,13.89,2.13,.34,7.1-3.89,11-10.99,3.35-6.1-2.01-13.09-6.98-13.89-4.96-.8-9.89,4.12-11,10.99Z" fill="#fff" stroke="#14303f" stroke-linejoin="round"/><ellipse cx="662.9" cy="257.04" rx="7.99" ry="11.06" transform="translate(53.2 622.79) rotate(-52.15)" fill="#fff" stroke="#14303f" stroke-linejoin="round"/></g><path d="M714.54,314.93c.97-.01,.94-1.51-.02-1.5s-.94,1.51,.02,1.5h0Z" fill="#14303f"/><path d="M697.25,312.25c.97-.01,.94-1.51-.02-1.5s-.94,1.51,.02,1.5h0Z" fill="#14303f"/><path d="M695.49,325.08c.97-.01,.94-1.51-.02-1.5s-.94,1.51,.02,1.5h0Z" fill="#14303f"/><path d="M711.53,321.86c.97-.01,.94-1.51-.02-1.5s-.94,1.51,.02,1.5h0Z" fill="#14303f"/><path d="M702.16,317.46c.97-.01,.94-1.51-.02-1.5s-.94,1.51,.02,1.5h0Z" fill="#14303f"/><path d="M719.59,326.9c.97-.01,.94-1.51-.02-1.5s-.94,1.51,.02,1.5h0Z" fill="#14303f"/><path d="M704.1,325.65c.97-.01,.94-1.51-.02-1.5s-.94,1.51,.02,1.5h0Z" fill="#14303f"/><path d="M709.46,283.69c.97-.01,.94-1.51-.02-1.5s-.94,1.51,.02,1.5h0Z" fill="#14303f"/><path d="M697.09,275.58c.97-.01,.94-1.51-.02-1.5s-.94,1.51,.02,1.5h0Z" fill="#14303f"/><path d="M691.25,284.83c.97-.01,.94-1.51-.02-1.5s-.94,1.51,.02,1.5h0Z" fill="#14303f"/><path d="M710.08,289.71c.97-.01,.94-1.51-.02-1.5s-.94,1.51,.02,1.5h0Z" fill="#14303f"/><path d="M700.81,280.61c.97-.01,.94-1.51-.02-1.5s-.94,1.51,.02,1.5h0Z" fill="#14303f"/><path d="M690.42,291.35c.97-.01,.94-1.51-.02-1.5s-.94,1.51,.02,1.5h0Z" fill="#14303f"/><path d="M710.2,298.47c.97-.01,.94-1.51-.02-1.5s-.94,1.51,.02,1.5h0Z" fill="#14303f"/><path d="M697.87,291.14c.97-.01,.94-1.51-.02-1.5s-.94,1.51,.02,1.5h0Z" fill="#14303f"/><path d="M703.82,303.9c.97-.01,.94-1.51-.02-1.5s-.94,1.51,.02,1.5h0Z" fill="#14303f"/><path d="M702.16,297.12c.97-.01,.94-1.51-.02-1.5s-.94,1.51,.02,1.5h0Z" fill="#14303f"/><path d="M700.5,286.61c.97-.01,.94-1.51-.02-1.5s-.94,1.51,.02,1.5h0Z" fill="#14303f"/><path d="M695.87,298.23c.97-.01,.94-1.51-.02-1.5s-.94,1.51,.02,1.5h0Z" fill="#14303f"/><path d="M706.39,257.55c.97-.01,.94-1.51-.02-1.5s-.94,1.51,.02,1.5h0Z" fill="#14303f"/><path d="M711.72,254.22c.97-.01,.94-1.51-.02-1.5s-.94,1.51,.02,1.5h0Z" fill="#14303f"/><path d="M715.82,260.31c.97-.01,.94-1.51-.02-1.5s-.94,1.51,.02,1.5h0Z" fill="#14303f"/><path d="M704.74,266.77c.97-.01,.94-1.51-.02-1.5s-.94,1.51,.02,1.5h0Z" fill="#14303f"/><path d="M710.08,262.47c.97-.01,.94-1.51-.02-1.5s-.94,1.51,.02,1.5h0Z" fill="#14303f"/><path d="M707.42,271.93c.97-.01,.94-1.51-.02-1.5s-.94,1.51,.02,1.5h0Z" fill="#14303f"/><path d="M712.66,267.18c.97-.01,.94-1.51-.02-1.5s-.94,1.51,.02,1.5h0Z" fill="#14303f"/><path d="M680.19,302.62c.97-.01,.94-1.51-.02-1.5s-.94,1.51,.02,1.5h0Z" fill="#14303f"/><path d="M673.96,303.45c.97-.01,.94-1.51-.02-1.5s-.94,1.51,.02,1.5h0Z" fill="#14303f"/><path d="M674.68,310.75c.97-.01,.94-1.51-.02-1.5s-.94,1.51,.02,1.5h0Z" fill="#14303f"/><path d="M681.3,309.03c.97-.01,.94-1.51-.02-1.5s-.94,1.51,.02,1.5h0Z" fill="#14303f"/><path d="M687.34,308.66c.97-.01,.94-1.51-.02-1.5s-.94,1.51,.02,1.5h0Z" fill="#14303f"/><path d="M688.57,314.35c.97-.01,.94-1.51-.02-1.5s-.94,1.51,.02,1.5h0Z" fill="#14303f"/><path d="M683.15,314.89c.97-.01,.94-1.51-.02-1.5s-.94,1.51,.02,1.5h0Z" fill="#14303f"/><path d="M682.67,259.9c.97-.01,.94-1.51-.02-1.5s-.94,1.51,.02,1.5h0Z" fill="#14303f"/><path d="M675.84,258.77c.97-.01,.94-1.51-.02-1.5s-.94,1.51,.02,1.5h0Z" fill="#14303f"/><path d="M675.93,264.57c.97-.01,.94-1.51-.02-1.5s-.94,1.51,.02,1.5h0Z" fill="#14303f"/><path d="M688.89,265.32c.97-.01,.94-1.51-.02-1.5s-.94,1.51,.02,1.5h0Z" fill="#14303f"/><path d="M677.3,270.58c.97-.01,.94-1.51-.02-1.5s-.94,1.51,.02,1.5h0Z" fill="#14303f"/><path d="M684.61,273.67c.97-.01,.94-1.51-.02-1.5s-.94,1.51,.02,1.5h0Z" fill="#14303f"/><path d="M688.96,275.65c.97-.01,.94-1.51-.02-1.5s-.94,1.51,.02,1.5h0Z" fill="#14303f"/><path d="M682.28,266.77c.97-.01,.94-1.51-.02-1.5s-.94,1.51,.02,1.5h0Z" fill="#14303f"/><path d="M682.82,236.17c.97-.01,.94-1.51-.02-1.5s-.94,1.51,.02,1.5h0Z" fill="#14303f"/><path d="M686.82,238.65c.97-.01,.94-1.51-.02-1.5s-.94,1.51,.02,1.5h0Z" fill="#14303f"/><path d="M690.7,241.78c.97-.01,.94-1.51-.02-1.5s-.94,1.51,.02,1.5h0Z" fill="#14303f"/><path d="M683.89,244.99c.97-.01,.94-1.51-.02-1.5s-.94,1.51,.02,1.5h0Z" fill="#14303f"/><path d="M682.28,252.09c.97-.01,.94-1.51-.02-1.5s-.94,1.51,.02,1.5h0Z" fill="#14303f"/><path d="M679.51,241.36c.97-.01,.94-1.51-.02-1.5s-.94,1.51,.02,1.5h0Z" fill="#14303f"/><path d="M688.11,249.48c.97-.01,.94-1.51-.02-1.5s-.94,1.51,.02,1.5h0Z" fill="#14303f"/><path d="M658.05,259.93c.97-.01,.94-1.51-.02-1.5s-.94,1.51,.02,1.5h0Z" fill="#14303f"/><path d="M657.07,253.57c.97-.01,.94-1.51-.02-1.5s-.94,1.51,.02,1.5h0Z" fill="#14303f"/><path d="M662.02,252.51c.97-.01,.94-1.51-.02-1.5s-.94,1.51,.02,1.5h0Z" fill="#14303f"/><path d="M664.96,256.36c.97-.01,.94-1.51-.02-1.5s-.94,1.51,.02,1.5h0Z" fill="#14303f"/><path d="M669.23,263.1c.97-.01,.94-1.51-.02-1.5s-.94,1.51,.02,1.5h0Z" fill="#14303f"/><path d="M663.8,261.43c.97-.01,.94-1.51-.02-1.5s-.94,1.51,.02,1.5h0Z" fill="#14303f"/><g class="fill-pink-2"><path d="M682.24,223.35c.29,.84,2.38,7.29-.94,8.72s-6.33-5.25-6.63-6.08,1.17-2.11,3.26-2.84,4.02-.64,4.31,.2Z" fill="#b4b9c5" stroke="#14303f" stroke-linejoin="round"/><path d="M692.71,224.19c-.16,.87-1.52,7.52-5.12,7.13-3.6-.39-2.93-7.69-2.77-8.56s2.05-1.26,4.23-.87,3.82,1.42,3.66,2.3Z" fill="#b4b9c5" stroke="#14303f" stroke-linejoin="round"/><ellipse cx="688.77" cy="223.47" rx="1.61" ry="4.01" transform="translate(346.07 861.36) rotate(-79.73)" fill="#b4b9c5" stroke="#14303f" stroke-linejoin="round"/><ellipse cx="678.45" cy="224.67" rx="4.01" ry="1.61" transform="translate(-36.15 235.86) rotate(-19.22)" fill="#b4b9c5" stroke="#14303f" stroke-linejoin="round"/></g></g><g><g class="fill-swap"><path d="M645.76,331.58c.77-9.42-9.3-16.18-16.36-15.15-6.08,.89-10.39,7.24-10.92,15.15h27.27Z" fill="#fff" stroke="#14303f" stroke-linejoin="round"/><path d="M623.06,308.99c3.31,6.12-.12,14.39-2.02,15.42s-7.99-1.34-14-6.75c-5.17-4.66-2.41-13.02,2.02-15.42s10.69,.63,14,6.75Z" fill="#fff" stroke="#14303f" stroke-linejoin="round"/><ellipse cx="641.61" cy="307.63" rx="13.8" ry="9.97" transform="translate(167.92 838.59) rotate(-73.88)" fill="#fff" stroke="#14303f" stroke-linejoin="round"/><path d="M640.27,281.98c3.31,6.12-.12,14.39-2.02,15.42s-7.99-1.34-14-6.75c-5.17-4.66-2.41-13.02,2.02-15.42,4.42-2.39,10.69,.63,14,6.75Z" fill="#fff" stroke="#14303f" stroke-linejoin="round"/><ellipse cx="657.08" cy="291.97" rx="11.06" ry="7.99" transform="translate(54.8 684.73) rotate(-57.07)" fill="#fff" stroke="#14303f" stroke-linejoin="round"/></g><path d="M626.39,325.7c-.92,.3-1.39-1.12-.47-1.42s1.39,1.12,.47,1.42h0Z" fill="#14303f"/><path d="M630.9,320.73c-.92,.3-1.39-1.12-.47-1.42s1.39,1.12,.47,1.42h0Z" fill="#14303f"/><path d="M639.46,327.54c-.92,.3-1.39-1.12-.47-1.42s1.39,1.12,.47,1.42h0Z" fill="#14303f"/><path d="M632.93,326.79c-.92,.3-1.39-1.12-.47-1.42s1.39,1.12,.47,1.42h0Z" fill="#14303f"/><path d="M616.18,306.77c-.92,.3-1.39-1.12-.47-1.42s1.39,1.12,.47,1.42h0Z" fill="#14303f"/><path d="M610.06,305.38c-.92,.3-1.39-1.12-.47-1.42s1.39,1.12,.47,1.42h0Z" fill="#14303f"/><path d="M608.19,312.48c-.92,.3-1.39-1.12-.47-1.42s1.39,1.12,.47,1.42h0Z" fill="#14303f"/><path d="M612.74,317.04c-.92,.3-1.39-1.12-.47-1.42s1.39,1.12,.47,1.42h0Z" fill="#14303f"/><path d="M620.78,313.74c-.92,.3-1.39-1.12-.47-1.42s1.39,1.12,.47,1.42h0Z" fill="#14303f"/><path d="M619.95,320.69c-.92,.3-1.39-1.12-.47-1.42s1.39,1.12,.47,1.42h0Z" fill="#14303f"/><path d="M614.2,311.73c-.92,.3-1.39-1.12-.47-1.42s1.39,1.12,.47,1.42h0Z" fill="#14303f"/><path d="M639.36,301.18c-.92,.3-1.39-1.12-.47-1.42s1.39,1.12,.47,1.42h0Z" fill="#14303f"/><path d="M645.43,297.86c-.92,.3-1.39-1.12-.47-1.42s1.39,1.12,.47,1.42h0Z" fill="#14303f"/><path d="M647.26,303.37c-.92,.3-1.39-1.12-.47-1.42s1.39,1.12,.47,1.42h0Z" fill="#14303f"/><path d="M636.13,310.81c-.92,.3-1.39-1.12-.47-1.42s1.39,1.12,.47,1.42h0Z" fill="#14303f"/><path d="M647.94,309.5c-.92,.3-1.39-1.12-.47-1.42s1.39,1.12,.47,1.42h0Z" fill="#14303f"/><path d="M642.71,313.74c-.92,.3-1.39-1.12-.47-1.42s1.39,1.12,.47,1.42h0Z" fill="#14303f"/><path d="M638.6,318.12c-.92,.3-1.39-1.12-.47-1.42s1.39,1.12,.47,1.42h0Z" fill="#14303f"/><path d="M641.53,307.3c-.92,.3-1.39-1.12-.47-1.42s1.39,1.12,.47,1.42h0Z" fill="#14303f"/><path d="M627.26,278.37c-.92,.3-1.39-1.12-.47-1.42s1.39,1.12,.47,1.42h0Z" fill="#14303f"/><path d="M625.81,286.71c-.92,.3-1.39-1.12-.47-1.42s1.39,1.12,.47,1.42h0Z" fill="#14303f"/><path d="M631.5,286.71c-.92,.3-1.39-1.12-.47-1.42s1.39,1.12,.47,1.42h0Z" fill="#14303f"/><path d="M637.73,287.05c-.92,.3-1.39-1.12-.47-1.42s1.39,1.12,.47,1.42h0Z" fill="#14303f"/><path d="M637.16,293.68c-.92,.3-1.39-1.12-.47-1.42s1.39,1.12,.47,1.42h0Z" fill="#14303f"/><path d="M633.39,281.43c-.92,.3-1.39-1.12-.47-1.42s1.39,1.12,.47,1.42h0Z" fill="#14303f"/><path d="M630.79,293.13c-.92,.3-1.39-1.12-.47-1.42s1.39,1.12,.47,1.42h0Z" fill="#14303f"/><path d="M662.61,293.1c-.92,.3-1.39-1.12-.47-1.42s1.39,1.12,.47,1.42h0Z" fill="#14303f"/><path d="M658.83,290.56c-.92,.3-1.39-1.12-.47-1.42s1.39,1.12,.47,1.42h0Z" fill="#14303f"/><path d="M658.95,285.54c-.92,.3-1.39-1.12-.47-1.42s1.39,1.12,.47,1.42h0Z" fill="#14303f"/><path d="M658.83,297.43c-.92,.3-1.39-1.12-.47-1.42s1.39,1.12,.47,1.42h0Z" fill="#14303f"/><path d="M653.42,293.13c-.92,.3-1.39-1.12-.47-1.42s1.39,1.12,.47,1.42h0Z" fill="#14303f"/><path d="M653.1,299.78c-.92,.3-1.39-1.12-.47-1.42s1.39,1.12,.47,1.42h0Z" fill="#14303f"/></g><g><g class="fill-swap"><path d="M756.23,331.13c1.5-1.47,2.82-3.15,3.83-5.09,5.65-10.89,3.85-23.04-4.02-27.12-7.87-4.08-22.82,.17-24.49,12.33-1.09,7.93-.75,14.94,.35,19.88h24.33Z" fill="#fff" stroke="#14303f" stroke-linejoin="round"/><path d="M765.38,289.67c-6.35,5.79-5.71,16.82-3.92,18.79s9.85,1.69,19.07-2.18c7.92-3.32,8.1-14.2,3.92-18.79-4.18-4.59-12.72-3.61-19.07,2.18Z" fill="#fff" stroke="#14303f" stroke-linejoin="round"/><ellipse cx="738.48" cy="281.89" rx="14.82" ry="20.51" transform="translate(-51.72 301.66) rotate(-22.33)" fill="#fff" stroke="#14303f" stroke-linejoin="round"/><path d="M773.89,271.32c-2.63,6.44,1.67,14.29,3.67,15.11s7.79-2.19,13.19-8.23c4.64-5.19,.99-13.21-3.67-15.11-4.66-1.9-10.56,1.78-13.19,8.23Z" fill="#fff" stroke="#14303f" stroke-linejoin="round"/><path d="M749.13,253.21c-.26,6.95-7.42,12.33-9.57,12.25s-6.2-5.21-8.63-12.93c-2.09-6.64,4.55-12.44,9.57-12.25,5.03,.19,8.89,5.98,8.63,12.93Z" fill="#fff" stroke="#14303f" stroke-linejoin="round"/><ellipse cx="798.83" cy="261.19" rx="11.06" ry="7.99" transform="translate(38.54 619.39) rotate(-43.33)" fill="#fff" stroke="#14303f" stroke-linejoin="round"/><ellipse cx="799.01" cy="242.29" rx="7.99" ry="11.06" transform="translate(-32.46 166.24) rotate(-11.64)" fill="#fff" stroke="#14303f" stroke-linejoin="round"/></g><path d="M758.63,319.77c.94,.2,1.26-1.26,.32-1.47s-1.26,1.26-.32,1.47h0Z" fill="#14303f"/><path d="M756.21,310.47c.94,.2,1.26-1.26,.32-1.47s-1.26,1.26-.32,1.47h0Z" fill="#14303f"/><path d="M753.09,303.17c.94,.2,1.26-1.26,.32-1.47s-1.26,1.26-.32,1.47h0Z" fill="#14303f"/><path d="M740.88,307.47c.94,.2,1.26-1.26,.32-1.47s-1.26,1.26-.32,1.47h0Z" fill="#14303f"/><path d="M754.79,325.82c.94,.2,1.26-1.26,.32-1.47s-1.26,1.26-.32,1.47h0Z" fill="#14303f"/><path d="M747.89,310.85c.94,.2,1.26-1.26,.32-1.47s-1.26,1.26-.32,1.47h0Z" fill="#14303f"/><path d="M735.33,312.92c.94,.2,1.26-1.26,.32-1.47s-1.26,1.26-.32,1.47h0Z" fill="#14303f"/><path d="M742.41,318.19c.94,.2,1.26-1.26,.32-1.47s-1.26,1.26-.32,1.47h0Z" fill="#14303f"/><path d="M742.01,326.88c.94,.2,1.26-1.26,.32-1.47s-1.26,1.26-.32,1.47h0Z" fill="#14303f"/><path d="M749.57,319.63c.94,.2,1.26-1.26,.32-1.47s-1.26,1.26-.32,1.47h0Z" fill="#14303f"/><path d="M735.35,323.31c.94,.2,1.26-1.26,.32-1.47s-1.26,1.26-.32,1.47h0Z" fill="#14303f"/><path d="M774.71,289.88c.94,.2,1.26-1.26,.32-1.47s-1.26,1.26-.32,1.47h0Z" fill="#14303f"/><path d="M782.41,290.74c.94,.2,1.26-1.26,.32-1.47s-1.26,1.26-.32,1.47h0Z" fill="#14303f"/><path d="M781.21,297.1c.94,.2,1.26-1.26,.32-1.47s-1.26,1.26-.32,1.47h0Z" fill="#14303f"/><path d="M778.62,304.04c.94,.2,1.26-1.26,.32-1.47s-1.26,1.26-.32,1.47h0Z" fill="#14303f"/><path d="M767.49,296.01c.94,.2,1.26-1.26,.32-1.47s-1.26,1.26-.32,1.47h0Z" fill="#14303f"/><path d="M764.66,304.57c.94,.2,1.26-1.26,.32-1.47s-1.26,1.26-.32,1.47h0Z" fill="#14303f"/><path d="M772.09,300.01c.94,.2,1.26-1.26,.32-1.47s-1.26,1.26-.32,1.47h0Z" fill="#14303f"/><path d="M746.33,273.71c.94,.2,1.26-1.26,.32-1.47s-1.26,1.26-.32,1.47h0Z" fill="#14303f"/><path d="M738.34,269.87c.94,.2,1.26-1.26,.32-1.47s-1.26,1.26-.32,1.47h0Z" fill="#14303f"/><path d="M731.34,267.72c.94,.2,1.26-1.26,.32-1.47s-1.26,1.26-.32,1.47h0Z" fill="#14303f"/><path d="M727.1,278.88c.94,.2,1.26-1.26,.32-1.47s-1.26,1.26-.32,1.47h0Z" fill="#14303f"/><path d="M748.31,280.02c.94,.2,1.26-1.26,.32-1.47s-1.26,1.26-.32,1.47h0Z" fill="#14303f"/><path d="M733.65,275.96c.94,.2,1.26-1.26,.32-1.47s-1.26,1.26-.32,1.47h0Z" fill="#14303f"/><path d="M729.63,288.86c.94,.2,1.26-1.26,.32-1.47s-1.26,1.26-.32,1.47h0Z" fill="#14303f"/><path d="M736.3,294.55c.94,.2,1.26-1.26,.32-1.47s-1.26,1.26-.32,1.47h0Z" fill="#14303f"/><path d="M750.33,289.37c.94,.2,1.26-1.26,.32-1.47s-1.26,1.26-.32,1.47h0Z" fill="#14303f"/><path d="M735.55,284.2c.94,.2,1.26-1.26,.32-1.47s-1.26,1.26-.32,1.47h0Z" fill="#14303f"/><path d="M744.68,296.56c.94,.2,1.26-1.26,.32-1.47s-1.26,1.26-.32,1.47h0Z" fill="#14303f"/><path d="M741.43,289.66c.94,.2,1.26-1.26,.32-1.47s-1.26,1.26-.32,1.47h0Z" fill="#14303f"/><path d="M740.83,280.01c.94,.2,1.26-1.26,.32-1.47s-1.26,1.26-.32,1.47h0Z" fill="#14303f"/><path d="M786.43,266.33c.94,.2,1.26-1.26,.32-1.47s-1.26,1.26-.32,1.47h0Z" fill="#14303f"/><path d="M788.78,274.46c.94,.2,1.26-1.26,.32-1.47s-1.26,1.26-.32,1.47h0Z" fill="#14303f"/><path d="M782.04,275.51c.94,.2,1.26-1.26,.32-1.47s-1.26,1.26-.32,1.47h0Z" fill="#14303f"/><path d="M778.25,282.62c.94,.2,1.26-1.26,.32-1.47s-1.26,1.26-.32,1.47h0Z" fill="#14303f"/><path d="M777.98,271.54c.94,.2,1.26-1.26,.32-1.47s-1.26,1.26-.32,1.47h0Z" fill="#14303f"/><path d="M784.52,281.39c.94,.2,1.26-1.26,.32-1.47s-1.26,1.26-.32,1.47h0Z" fill="#14303f"/><path d="M742.1,249.86c.94,.2,1.26-1.26,.32-1.47s-1.26,1.26-.32,1.47h0Z" fill="#14303f"/><path d="M739.76,243.49c.94,.2,1.26-1.26,.32-1.47s-1.26,1.26-.32,1.47h0Z" fill="#14303f"/><path d="M734.54,248.66c.94,.2,1.26-1.26,.32-1.47s-1.26,1.26-.32,1.47h0Z" fill="#14303f"/><path d="M737.61,254.95c.94,.2,1.26-1.26,.32-1.47s-1.26,1.26-.32,1.47h0Z" fill="#14303f"/><path d="M740.5,261.7c.94,.2,1.26-1.26,.32-1.47s-1.26,1.26-.32,1.47h0Z" fill="#14303f"/><path d="M744.47,256.04c.94,.2,1.26-1.26,.32-1.47s-1.26,1.26-.32,1.47h0Z" fill="#14303f"/><path d="M797.3,256.79c.94,.2,1.26-1.26,.32-1.47s-1.26,1.26-.32,1.47h0Z" fill="#14303f"/><path d="M803.73,256.8c.94,.2,1.26-1.26,.32-1.47s-1.26,1.26-.32,1.47h0Z" fill="#14303f"/><path d="M803.27,260.69c.94,.2,1.26-1.26,.32-1.47s-1.26,1.26-.32,1.47h0Z" fill="#14303f"/><path d="M796.57,262.05c.94,.2,1.26-1.26,.32-1.47s-1.26,1.26-.32,1.47h0Z" fill="#14303f"/><path d="M800.34,266.47c.94,.2,1.26-1.26,.32-1.47s-1.26,1.26-.32,1.47h0Z" fill="#14303f"/><path d="M792.45,267.35c.94,.2,1.26-1.26,.32-1.47s-1.26,1.26-.32,1.47h0Z" fill="#14303f"/><path d="M802.92,239.61c.94,.2,1.26-1.26,.32-1.47s-1.26,1.26-.32,1.47h0Z" fill="#14303f"/><path d="M797.65,235.92c.94,.2,1.26-1.26,.32-1.47s-1.26,1.26-.32,1.47h0Z" fill="#14303f"/><path d="M803.27,245.35c.94,.2,1.26-1.26,.32-1.47s-1.26,1.26-.32,1.47h0Z" fill="#14303f"/><path d="M793.91,243.57c.94,.2,1.26-1.26,.32-1.47s-1.26,1.26-.32,1.47h0Z" fill="#14303f"/><path d="M798.88,249.88c.94,.2,1.26-1.26,.32-1.47s-1.26,1.26-.32,1.47h0Z" fill="#14303f"/><path d="M798.88,242.98c.94,.2,1.26-1.26,.32-1.47s-1.26,1.26-.32,1.47h0Z" fill="#14303f"/><g class="fill-pink-3"><path d="M751.43,235.99c-.35,.82-3.17,6.98-6.59,5.79s-1.13-8.15-.77-8.96c.35-.82,2.28-.77,4.32,.11,2.03,.88,3.4,2.25,3.05,3.06Z" fill="#b4b9c5" stroke="#14303f" stroke-miterlimit="10"/><path d="M756.67,246.16c-.81,.37-7.05,3.03-8.77-.15s4.66-6.78,5.46-7.15,2.21,.97,3.12,2.99c.91,2.02,1,3.95,.19,4.32Z" fill="#b4b9c5" stroke="#14303f" stroke-miterlimit="10"/><path d="M811.51,230.18c-.58,.68-5.08,5.74-8,3.6-2.92-2.14,1.32-8.12,1.89-8.8s2.41-.06,4.1,1.37,2.59,3.14,2.01,3.82Z" fill="#b4b9c5" stroke="#14303f" stroke-miterlimit="10"/><ellipse cx="747.75" cy="234.41" rx="1.61" ry="4.01" transform="translate(236.84 828.58) rotate(-66.71)" fill="#b4b9c5" stroke="#14303f" stroke-miterlimit="10"/><ellipse cx="755.02" cy="242.51" rx="1.61" ry="4.01" transform="translate(-32.78 333.3) rotate(-24.38)" fill="#b4b9c5" stroke="#14303f" stroke-miterlimit="10"/><ellipse cx="808.46" cy="227.58" rx="1.61" ry="4.01" transform="translate(111.51 696.27) rotate(-49.64)" fill="#b4b9c5" stroke="#14303f" stroke-miterlimit="10"/></g></g></g></g><g class="cactus-left"><g><g><g class="fill-green-13"><path d="M361.96,339.69V73.64c0-8.69-7.11-15.81-15.81-15.81h0c-8.69,0-15.81,7.11-15.81,15.81V339.69s31.61,0,31.61,0Z" fill="#eaebef" stroke="#14303f" stroke-miterlimit="10"/></g><path d="M354.68,339.69V73.64c0-11.65-8.51-15.81-8.51-15.81" fill="none" stroke="#14303f" stroke-miterlimit="10" stroke-width=".5"/><path d="M337.62,339.69V73.64c0-11.45,8.51-15.81,8.51-15.81V339.69" fill="none" stroke="#14303f" stroke-miterlimit="10" stroke-width=".5"/></g><g><g class="fill-green-14"><path d="M308.66,109.24h0c6.87,0,12.48,5.62,12.48,12.48v42.38c0,12.75,9.2,11.87,9.2,11.87v22.96c-20.21,0-34.17-7.35-34.17-27.15v-50.06c0-6.87,5.62-12.48,12.49-12.48Z" fill="#eaebef" stroke="#14303f" stroke-miterlimit="10"/></g><path d="M330.34,181.48s-14.37,1.26-14.37-15.71c0-8.49,0-44.04,0-44.04,.27-9.05-7.3-12.48-7.3-12.48" fill="none" stroke="#14303f" stroke-miterlimit="10" stroke-width=".5"/><path d="M330.34,188.3s-21.7,.92-21.7-21.54c0-24.04,0-57.52,0-57.52,0,0-7.58,3.44-7.3,12.48,0,0,0,24.85,0,46.57,0,26.77,29.01,26.36,29.01,26.36" fill="none" stroke="#14303f" stroke-miterlimit="10" stroke-width=".5"/></g><g><g class="fill-swap"><path d="M344.9,332.23c-.44-5.18,.35-11.18,3.76-15.99,7.1-10.01,18.72-13.97,25.95-8.84,6.62,4.69,7.25,15.37,1.87,24.82h-31.59Z" fill="#fff" stroke="#14303f" stroke-linejoin="round"/><path d="M356.04,286.92c-1.96,10.19,6.63,20.4,9.79,21.01s10.75-5.49,16.87-15.89c5.26-8.94-2.43-19.59-9.79-21.01-7.36-1.41-14.92,5.7-16.87,15.89Z" fill="#fff" stroke="#14303f" stroke-linejoin="round"/><path d="M369.37,261.91c1.11,6.87-4.85,13.55-6.98,13.89s-7.1-3.89-11-10.99c-3.35-6.1,2.01-13.09,6.98-13.89s9.89,4.12,11,10.99Z" fill="#fff" stroke="#14303f" stroke-linejoin="round"/><path d="M382.13,302.13c-5.24,4.58-4.91,13.53-3.49,15.15s7.95,1.53,15.48-1.44c6.47-2.56,6.8-11.37,3.49-15.15-3.31-3.78-10.24-3.14-15.48,1.44Z" fill="#fff" stroke="#14303f" stroke-linejoin="round"/><ellipse cx="387.33" cy="266.73" rx="13.8" ry="9.97" transform="translate(-54.29 428.41) rotate(-54.66)" fill="#fff" stroke="#14303f" stroke-linejoin="round"/><path d="M394.52,242.07c1.11,6.87-4.85,13.55-6.98,13.89-2.13,.34-7.1-3.89-11-10.99-3.35-6.1,2.01-13.09,6.98-13.89,4.96-.8,9.89,4.12,11,10.99Z" fill="#fff" stroke="#14303f" stroke-linejoin="round"/><ellipse cx="407.1" cy="257.04" rx="11.06" ry="7.99" transform="translate(-72.07 303.85) rotate(-37.85)" fill="#fff" stroke="#14303f" stroke-linejoin="round"/></g><path d="M355.46,314.93c-.97-.01-.94-1.51,.02-1.5s.94,1.51-.02,1.5h0Z" fill="#14303f"/><path d="M372.75,312.25c-.97-.01-.94-1.51,.02-1.5s.94,1.51-.02,1.5h0Z" fill="#14303f"/><path d="M374.51,325.08c-.97-.01-.94-1.51,.02-1.5s.94,1.51-.02,1.5h0Z" fill="#14303f"/><path d="M358.47,321.86c-.97-.01-.94-1.51,.02-1.5s.94,1.51-.02,1.5h0Z" fill="#14303f"/><path d="M367.84,317.46c-.97-.01-.94-1.51,.02-1.5s.94,1.51-.02,1.5h0Z" fill="#14303f"/><path d="M350.41,326.9c-.97-.01-.94-1.51,.02-1.5s.94,1.51-.02,1.5h0Z" fill="#14303f"/><path d="M365.9,325.65c-.97-.01-.94-1.51,.02-1.5s.94,1.51-.02,1.5h0Z" fill="#14303f"/><path d="M360.54,283.69c-.97-.01-.94-1.51,.02-1.5s.94,1.51-.02,1.5h0Z" fill="#14303f"/><path d="M372.91,275.58c-.97-.01-.94-1.51,.02-1.5s.94,1.51-.02,1.5h0Z" fill="#14303f"/><path d="M378.75,284.83c-.97-.01-.94-1.51,.02-1.5s.94,1.51-.02,1.5h0Z" fill="#14303f"/><path d="M359.92,289.71c-.97-.01-.94-1.51,.02-1.5s.94,1.51-.02,1.5h0Z" fill="#14303f"/><path d="M369.19,280.61c-.97-.01-.94-1.51,.02-1.5s.94,1.51-.02,1.5h0Z" fill="#14303f"/><path d="M379.58,291.35c-.97-.01-.94-1.51,.02-1.5s.94,1.51-.02,1.5h0Z" fill="#14303f"/><path d="M359.8,298.47c-.97-.01-.94-1.51,.02-1.5s.94,1.51-.02,1.5h0Z" fill="#14303f"/><path d="M372.13,291.14c-.97-.01-.94-1.51,.02-1.5s.94,1.51-.02,1.5h0Z" fill="#14303f"/><path d="M366.18,303.9c-.97-.01-.94-1.51,.02-1.5s.94,1.51-.02,1.5h0Z" fill="#14303f"/><path d="M367.84,297.12c-.97-.01-.94-1.51,.02-1.5s.94,1.51-.02,1.5h0Z" fill="#14303f"/><path d="M369.5,286.61c-.97-.01-.94-1.51,.02-1.5s.94,1.51-.02,1.5h0Z" fill="#14303f"/><path d="M374.13,298.23c-.97-.01-.94-1.51,.02-1.5s.94,1.51-.02,1.5h0Z" fill="#14303f"/><path d="M363.61,257.55c-.97-.01-.94-1.51,.02-1.5s.94,1.51-.02,1.5h0Z" fill="#14303f"/><path d="M358.28,254.22c-.97-.01-.94-1.51,.02-1.5s.94,1.51-.02,1.5h0Z" fill="#14303f"/><path d="M354.18,260.31c-.97-.01-.94-1.51,.02-1.5s.94,1.51-.02,1.5h0Z" fill="#14303f"/><path d="M365.26,266.77c-.97-.01-.94-1.51,.02-1.5s.94,1.51-.02,1.5h0Z" fill="#14303f"/><path d="M359.92,262.47c-.97-.01-.94-1.51,.02-1.5s.94,1.51-.02,1.5h0Z" fill="#14303f"/><path d="M362.58,271.93c-.97-.01-.94-1.51,.02-1.5s.94,1.51-.02,1.5h0Z" fill="#14303f"/><path d="M357.34,267.18c-.97-.01-.94-1.51,.02-1.5s.94,1.51-.02,1.5h0Z" fill="#14303f"/><path d="M389.81,302.62c-.97-.01-.94-1.51,.02-1.5s.94,1.51-.02,1.5h0Z" fill="#14303f"/><path d="M396.04,303.45c-.97-.01-.94-1.51,.02-1.5s.94,1.51-.02,1.5h0Z" fill="#14303f"/><path d="M395.32,310.75c-.97-.01-.94-1.51,.02-1.5s.94,1.51-.02,1.5h0Z" fill="#14303f"/><path d="M388.7,309.03c-.97-.01-.94-1.51,.02-1.5s.94,1.51-.02,1.5h0Z" fill="#14303f"/><path d="M382.66,308.66c-.97-.01-.94-1.51,.02-1.5s.94,1.51-.02,1.5h0Z" fill="#14303f"/><path d="M381.43,314.35c-.97-.01-.94-1.51,.02-1.5s.94,1.51-.02,1.5h0Z" fill="#14303f"/><path d="M386.85,314.89c-.97-.01-.94-1.51,.02-1.5s.94,1.51-.02,1.5h0Z" fill="#14303f"/><path d="M387.33,259.9c-.97-.01-.94-1.51,.02-1.5s.94,1.51-.02,1.5h0Z" fill="#14303f"/><path d="M394.16,258.77c-.97-.01-.94-1.51,.02-1.5s.94,1.51-.02,1.5h0Z" fill="#14303f"/><path d="M394.07,264.57c-.97-.01-.94-1.51,.02-1.5s.94,1.51-.02,1.5h0Z" fill="#14303f"/><path d="M381.11,265.32c-.97-.01-.94-1.51,.02-1.5s.94,1.51-.02,1.5h0Z" fill="#14303f"/><path d="M392.7,270.58c-.97-.01-.94-1.51,.02-1.5s.94,1.51-.02,1.5h0Z" fill="#14303f"/><path d="M385.39,273.67c-.97-.01-.94-1.51,.02-1.5s.94,1.51-.02,1.5h0Z" fill="#14303f"/><path d="M381.04,275.65c-.97-.01-.94-1.51,.02-1.5s.94,1.51-.02,1.5h0Z" fill="#14303f"/><path d="M387.72,266.77c-.97-.01-.94-1.51,.02-1.5s.94,1.51-.02,1.5h0Z" fill="#14303f"/><path d="M387.18,236.17c-.97-.01-.94-1.51,.02-1.5s.94,1.51-.02,1.5h0Z" fill="#14303f"/><path d="M383.18,238.65c-.97-.01-.94-1.51,.02-1.5s.94,1.51-.02,1.5h0Z" fill="#14303f"/><path d="M379.3,241.78c-.97-.01-.94-1.51,.02-1.5s.94,1.51-.02,1.5h0Z" fill="#14303f"/><path d="M386.11,244.99c-.97-.01-.94-1.51,.02-1.5s.94,1.51-.02,1.5h0Z" fill="#14303f"/><path d="M387.72,252.09c-.97-.01-.94-1.51,.02-1.5s.94,1.51-.02,1.5h0Z" fill="#14303f"/><path d="M390.49,241.36c-.97-.01-.94-1.51,.02-1.5s.94,1.51-.02,1.5h0Z" fill="#14303f"/><path d="M381.89,249.48c-.97-.01-.94-1.51,.02-1.5s.94,1.51-.02,1.5h0Z" fill="#14303f"/><path d="M411.95,259.93c-.97-.01-.94-1.51,.02-1.5s.94,1.51-.02,1.5h0Z" fill="#14303f"/><path d="M412.93,253.57c-.97-.01-.94-1.51,.02-1.5s.94,1.51-.02,1.5h0Z" fill="#14303f"/><path d="M407.98,252.51c-.97-.01-.94-1.51,.02-1.5s.94,1.51-.02,1.5h0Z" fill="#14303f"/><path d="M405.04,256.36c-.97-.01-.94-1.51,.02-1.5s.94,1.51-.02,1.5h0Z" fill="#14303f"/><path d="M400.77,263.1c-.97-.01-.94-1.51,.02-1.5s.94,1.51-.02,1.5h0Z" fill="#14303f"/><path d="M406.2,261.43c-.97-.01-.94-1.51,.02-1.5s.94,1.51-.02,1.5h0Z" fill="#14303f"/><g class="fill-pink-4"><path d="M387.76,223.35c-.29,.84-2.38,7.29,.94,8.72s6.33-5.25,6.63-6.08-1.17-2.11-3.26-2.84-4.02-.64-4.31,.2Z" fill="#b4b9c5" stroke="#14303f" stroke-linejoin="round"/><path d="M377.29,224.19c.16,.87,1.52,7.52,5.12,7.13,3.6-.39,2.93-7.69,2.77-8.56s-2.05-1.26-4.23-.87-3.82,1.42-3.66,2.3Z" fill="#b4b9c5" stroke="#14303f" stroke-linejoin="round"/><ellipse cx="381.23" cy="223.47" rx="4.01" ry="1.61" transform="translate(-33.74 71.56) rotate(-10.27)" fill="#b4b9c5" stroke="#14303f" stroke-linejoin="round"/><ellipse cx="391.55" cy="224.67" rx="1.61" ry="4.01" transform="translate(50.51 520.44) rotate(-70.78)" fill="#b4b9c5" stroke="#14303f" stroke-linejoin="round"/></g></g><g><g class="fill-swap"><path d="M424.24,331.58c-.77-9.42,9.3-16.18,16.36-15.15,6.08,.89,10.39,7.24,10.92,15.15h-27.27Z" fill="#fff" stroke="#14303f" stroke-linejoin="round"/><path d="M446.94,308.99c-3.31,6.12,.12,14.39,2.02,15.42s7.99-1.34,14-6.75c5.17-4.66,2.41-13.02-2.02-15.42-4.42-2.39-10.69,.63-14,6.75Z" fill="#fff" stroke="#14303f" stroke-linejoin="round"/><ellipse cx="428.39" cy="307.63" rx="9.97" ry="13.8" transform="translate(-68.57 131.04) rotate(-16.12)" fill="#fff" stroke="#14303f" stroke-linejoin="round"/><path d="M429.73,281.98c-3.31,6.12,.12,14.39,2.02,15.42s7.99-1.34,14-6.75c5.17-4.66,2.41-13.02-2.02-15.42-4.42-2.39-10.69,.63-14,6.75Z" fill="#fff" stroke="#14303f" stroke-linejoin="round"/><ellipse cx="412.92" cy="291.97" rx="7.99" ry="11.06" transform="translate(-92.38 271.41) rotate(-32.93)" fill="#fff" stroke="#14303f" stroke-linejoin="round"/></g><path d="M443.61,325.7c.92,.3,1.39-1.12,.47-1.42s-1.39,1.12-.47,1.42h0Z" fill="#14303f"/><path d="M439.1,320.73c.92,.3,1.39-1.12,.47-1.42s-1.39,1.12-.47,1.42h0Z" fill="#14303f"/><path d="M430.54,327.54c.92,.3,1.39-1.12,.47-1.42s-1.39,1.12-.47,1.42h0Z" fill="#14303f"/><path d="M437.07,326.79c.92,.3,1.39-1.12,.47-1.42s-1.39,1.12-.47,1.42h0Z" fill="#14303f"/><path d="M453.82,306.77c.92,.3,1.39-1.12,.47-1.42s-1.39,1.12-.47,1.42h0Z" fill="#14303f"/><path d="M459.94,305.38c.92,.3,1.39-1.12,.47-1.42s-1.39,1.12-.47,1.42h0Z" fill="#14303f"/><path d="M461.81,312.48c.92,.3,1.39-1.12,.47-1.42s-1.39,1.12-.47,1.42h0Z" fill="#14303f"/><path d="M457.26,317.04c.92,.3,1.39-1.12,.47-1.42s-1.39,1.12-.47,1.42h0Z" fill="#14303f"/><path d="M449.22,313.74c.92,.3,1.39-1.12,.47-1.42s-1.39,1.12-.47,1.42h0Z" fill="#14303f"/><path d="M450.05,320.69c.92,.3,1.39-1.12,.47-1.42s-1.39,1.12-.47,1.42h0Z" fill="#14303f"/><path d="M455.8,311.73c.92,.3,1.39-1.12,.47-1.42s-1.39,1.12-.47,1.42h0Z" fill="#14303f"/><path d="M430.64,301.18c.92,.3,1.39-1.12,.47-1.42s-1.39,1.12-.47,1.42h0Z" fill="#14303f"/><path d="M424.57,297.86c.92,.3,1.39-1.12,.47-1.42s-1.39,1.12-.47,1.42h0Z" fill="#14303f"/><path d="M422.74,303.37c.92,.3,1.39-1.12,.47-1.42s-1.39,1.12-.47,1.42h0Z" fill="#14303f"/><path d="M433.87,310.81c.92,.3,1.39-1.12,.47-1.42s-1.39,1.12-.47,1.42h0Z" fill="#14303f"/><path d="M422.06,309.5c.92,.3,1.39-1.12,.47-1.42s-1.39,1.12-.47,1.42h0Z" fill="#14303f"/><path d="M427.29,313.74c.92,.3,1.39-1.12,.47-1.42s-1.39,1.12-.47,1.42h0Z" fill="#14303f"/><path d="M431.4,318.12c.92,.3,1.39-1.12,.47-1.42s-1.39,1.12-.47,1.42h0Z" fill="#14303f"/><path d="M428.47,307.3c.92,.3,1.39-1.12,.47-1.42s-1.39,1.12-.47,1.42h0Z" fill="#14303f"/><path d="M442.74,278.37c.92,.3,1.39-1.12,.47-1.42s-1.39,1.12-.47,1.42h0Z" fill="#14303f"/><path d="M444.19,286.71c.92,.3,1.39-1.12,.47-1.42s-1.39,1.12-.47,1.42h0Z" fill="#14303f"/><path d="M438.5,286.71c.92,.3,1.39-1.12,.47-1.42s-1.39,1.12-.47,1.42h0Z" fill="#14303f"/><path d="M432.27,287.05c.92,.3,1.39-1.12,.47-1.42s-1.39,1.12-.47,1.42h0Z" fill="#14303f"/><path d="M432.84,293.68c.92,.3,1.39-1.12,.47-1.42s-1.39,1.12-.47,1.42h0Z" fill="#14303f"/><path d="M436.61,281.43c.92,.3,1.39-1.12,.47-1.42s-1.39,1.12-.47,1.42h0Z" fill="#14303f"/><path d="M439.21,293.13c.92,.3,1.39-1.12,.47-1.42s-1.39,1.12-.47,1.42h0Z" fill="#14303f"/><path d="M407.39,293.1c.92,.3,1.39-1.12,.47-1.42s-1.39,1.12-.47,1.42h0Z" fill="#14303f"/><path d="M411.17,290.56c.92,.3,1.39-1.12,.47-1.42s-1.39,1.12-.47,1.42h0Z" fill="#14303f"/><path d="M411.05,285.54c.92,.3,1.39-1.12,.47-1.42s-1.39,1.12-.47,1.42h0Z" fill="#14303f"/><path d="M411.17,297.43c.92,.3,1.39-1.12,.47-1.42s-1.39,1.12-.47,1.42h0Z" fill="#14303f"/><path d="M416.58,293.13c.92,.3,1.39-1.12,.47-1.42s-1.39,1.12-.47,1.42h0Z" fill="#14303f"/><path d="M416.9,299.78c.92,.3,1.39-1.12,.47-1.42s-1.39,1.12-.47,1.42h0Z" fill="#14303f"/></g><g><g class="fill-swap"><path d="M313.77,331.13c-1.5-1.47-2.82-3.15-3.83-5.09-5.65-10.89-3.85-23.04,4.02-27.12,7.87-4.08,22.82,.17,24.49,12.33,1.09,7.93,.75,14.94-.35,19.88h-24.33Z" fill="#fff" stroke="#14303f" stroke-linejoin="round"/><path d="M304.62,289.67c6.35,5.79,5.71,16.82,3.92,18.79s-9.85,1.69-19.07-2.18c-7.92-3.32-8.1-14.2-3.92-18.79,4.18-4.59,12.72-3.61,19.07,2.18Z" fill="#fff" stroke="#14303f" stroke-linejoin="round"/><ellipse cx="331.52" cy="281.89" rx="20.51" ry="14.82" transform="translate(-55.17 481.48) rotate(-67.67)" fill="#fff" stroke="#14303f" stroke-linejoin="round"/><path d="M296.11,271.32c2.63,6.44-1.67,14.29-3.67,15.11s-7.79-2.19-13.19-8.23c-4.64-5.19-.99-13.21,3.67-15.11,4.66-1.9,10.56,1.78,13.19,8.23Z" fill="#fff" stroke="#14303f" stroke-linejoin="round"/><path d="M320.87,253.21c.26,6.95,7.42,12.33,9.57,12.25s6.2-5.21,8.63-12.93c2.09-6.64-4.55-12.44-9.57-12.25-5.03,.19-8.89,5.98-8.63,12.93Z" fill="#fff" stroke="#14303f" stroke-linejoin="round"/><ellipse cx="271.17" cy="261.19" rx="7.99" ry="11.06" transform="translate(-104.9 279.19) rotate(-46.67)" fill="#fff" stroke="#14303f" stroke-linejoin="round"/><ellipse cx="270.99" cy="242.29" rx="11.06" ry="7.99" transform="translate(-21.01 458.8) rotate(-78.36)" fill="#fff" stroke="#14303f" stroke-linejoin="round"/></g><path d="M311.37,319.77c-.94,.2-1.26-1.26-.32-1.47s1.26,1.26,.32,1.47h0Z" fill="#14303f"/><path d="M313.79,310.47c-.94,.2-1.26-1.26-.32-1.47s1.26,1.26,.32,1.47h0Z" fill="#14303f"/><path d="M316.91,303.17c-.94,.2-1.26-1.26-.32-1.47s1.26,1.26,.32,1.47h0Z" fill="#14303f"/><path d="M329.12,307.47c-.94,.2-1.26-1.26-.32-1.47s1.26,1.26,.32,1.47h0Z" fill="#14303f"/><path d="M315.21,325.82c-.94,.2-1.26-1.26-.32-1.47s1.26,1.26,.32,1.47h0Z" fill="#14303f"/><path d="M322.11,310.85c-.94,.2-1.26-1.26-.32-1.47s1.26,1.26,.32,1.47h0Z" fill="#14303f"/><path d="M334.67,312.92c-.94,.2-1.26-1.26-.32-1.47s1.26,1.26,.32,1.47h0Z" fill="#14303f"/><path d="M327.59,318.19c-.94,.2-1.26-1.26-.32-1.47s1.26,1.26,.32,1.47h0Z" fill="#14303f"/><path d="M327.99,326.88c-.94,.2-1.26-1.26-.32-1.47s1.26,1.26,.32,1.47h0Z" fill="#14303f"/><path d="M320.43,319.63c-.94,.2-1.26-1.26-.32-1.47s1.26,1.26,.32,1.47h0Z" fill="#14303f"/><path d="M334.65,323.31c-.94,.2-1.26-1.26-.32-1.47s1.26,1.26,.32,1.47h0Z" fill="#14303f"/><path d="M295.29,289.88c-.94,.2-1.26-1.26-.32-1.47s1.26,1.26,.32,1.47h0Z" fill="#14303f"/><path d="M287.59,290.74c-.94,.2-1.26-1.26-.32-1.47s1.26,1.26,.32,1.47h0Z" fill="#14303f"/><path d="M288.79,297.1c-.94,.2-1.26-1.26-.32-1.47s1.26,1.26,.32,1.47h0Z" fill="#14303f"/><path d="M291.38,304.04c-.94,.2-1.26-1.26-.32-1.47s1.26,1.26,.32,1.47h0Z" fill="#14303f"/><path d="M302.51,296.01c-.94,.2-1.26-1.26-.32-1.47s1.26,1.26,.32,1.47h0Z" fill="#14303f"/><path d="M305.34,304.57c-.94,.2-1.26-1.26-.32-1.47s1.26,1.26,.32,1.47h0Z" fill="#14303f"/><path d="M297.91,300.01c-.94,.2-1.26-1.26-.32-1.47s1.26,1.26,.32,1.47h0Z" fill="#14303f"/><path d="M323.67,273.71c-.94,.2-1.26-1.26-.32-1.47s1.26,1.26,.32,1.47h0Z" fill="#14303f"/><path d="M331.66,269.87c-.94,.2-1.26-1.26-.32-1.47s1.26,1.26,.32,1.47h0Z" fill="#14303f"/><path d="M338.66,267.72c-.94,.2-1.26-1.26-.32-1.47s1.26,1.26,.32,1.47h0Z" fill="#14303f"/><path d="M342.9,278.88c-.94,.2-1.26-1.26-.32-1.47s1.26,1.26,.32,1.47h0Z" fill="#14303f"/><path d="M321.69,280.02c-.94,.2-1.26-1.26-.32-1.47s1.26,1.26,.32,1.47h0Z" fill="#14303f"/><path d="M336.35,275.96c-.94,.2-1.26-1.26-.32-1.47s1.26,1.26,.32,1.47h0Z" fill="#14303f"/><path d="M340.37,288.86c-.94,.2-1.26-1.26-.32-1.47s1.26,1.26,.32,1.47h0Z" fill="#14303f"/><path d="M333.7,294.55c-.94,.2-1.26-1.26-.32-1.47s1.26,1.26,.32,1.47h0Z" fill="#14303f"/><path d="M319.67,289.37c-.94,.2-1.26-1.26-.32-1.47s1.26,1.26,.32,1.47h0Z" fill="#14303f"/><path d="M334.45,284.2c-.94,.2-1.26-1.26-.32-1.47s1.26,1.26,.32,1.47h0Z" fill="#14303f"/><path d="M325.32,296.56c-.94,.2-1.26-1.26-.32-1.47s1.26,1.26,.32,1.47h0Z" fill="#14303f"/><path d="M328.57,289.66c-.94,.2-1.26-1.26-.32-1.47s1.26,1.26,.32,1.47h0Z" fill="#14303f"/><path d="M329.17,280.01c-.94,.2-1.26-1.26-.32-1.47s1.26,1.26,.32,1.47h0Z" fill="#14303f"/><path d="M283.57,266.33c-.94,.2-1.26-1.26-.32-1.47s1.26,1.26,.32,1.47h0Z" fill="#14303f"/><path d="M281.22,274.46c-.94,.2-1.26-1.26-.32-1.47s1.26,1.26,.32,1.47h0Z" fill="#14303f"/><path d="M287.96,275.51c-.94,.2-1.26-1.26-.32-1.47s1.26,1.26,.32,1.47h0Z" fill="#14303f"/><path d="M291.75,282.62c-.94,.2-1.26-1.26-.32-1.47s1.26,1.26,.32,1.47h0Z" fill="#14303f"/><path d="M292.02,271.54c-.94,.2-1.26-1.26-.32-1.47s1.26,1.26,.32,1.47h0Z" fill="#14303f"/><path d="M285.48,281.39c-.94,.2-1.26-1.26-.32-1.47s1.26,1.26,.32,1.47h0Z" fill="#14303f"/><path d="M327.9,249.86c-.94,.2-1.26-1.26-.32-1.47s1.26,1.26,.32,1.47h0Z" fill="#14303f"/><path d="M330.24,243.49c-.94,.2-1.26-1.26-.32-1.47s1.26,1.26,.32,1.47h0Z" fill="#14303f"/><path d="M335.46,248.66c-.94,.2-1.26-1.26-.32-1.47s1.26,1.26,.32,1.47h0Z" fill="#14303f"/><path d="M332.39,254.95c-.94,.2-1.26-1.26-.32-1.47s1.26,1.26,.32,1.47h0Z" fill="#14303f"/><path d="M329.5,261.7c-.94,.2-1.26-1.26-.32-1.47s1.26,1.26,.32,1.47h0Z" fill="#14303f"/><path d="M325.53,256.04c-.94,.2-1.26-1.26-.32-1.47s1.26,1.26,.32,1.47h0Z" fill="#14303f"/><path d="M272.7,256.79c-.94,.2-1.26-1.26-.32-1.47s1.26,1.26,.32,1.47h0Z" fill="#14303f"/><path d="M266.27,256.8c-.94,.2-1.26-1.26-.32-1.47s1.26,1.26,.32,1.47h0Z" fill="#14303f"/><path d="M266.73,260.69c-.94,.2-1.26-1.26-.32-1.47s1.26,1.26,.32,1.47h0Z" fill="#14303f"/><path d="M273.43,262.05c-.94,.2-1.26-1.26-.32-1.47s1.26,1.26,.32,1.47h0Z" fill="#14303f"/><path d="M269.66,266.47c-.94,.2-1.26-1.26-.32-1.47s1.26,1.26,.32,1.47h0Z" fill="#14303f"/><path d="M277.55,267.35c-.94,.2-1.26-1.26-.32-1.47s1.26,1.26,.32,1.47h0Z" fill="#14303f"/><path d="M267.08,239.61c-.94,.2-1.26-1.26-.32-1.47s1.26,1.26,.32,1.47h0Z" fill="#14303f"/><path d="M272.35,235.92c-.94,.2-1.26-1.26-.32-1.47s1.26,1.26,.32,1.47h0Z" fill="#14303f"/><path d="M266.73,245.35c-.94,.2-1.26-1.26-.32-1.47s1.26,1.26,.32,1.47h0Z" fill="#14303f"/><path d="M276.09,243.57c-.94,.2-1.26-1.26-.32-1.47s1.26,1.26,.32,1.47h0Z" fill="#14303f"/><path d="M271.12,249.88c-.94,.2-1.26-1.26-.32-1.47s1.26,1.26,.32,1.47h0Z" fill="#14303f"/><path d="M271.12,242.98c-.94,.2-1.26-1.26-.32-1.47s1.26,1.26,.32,1.47h0Z" fill="#14303f"/><g class="fill-pink-5"><path d="M318.57,235.99c.35,.82,3.17,6.98,6.59,5.79s1.13-8.15,.77-8.96c-.35-.82-2.28-.77-4.32,.11-2.03,.88-3.4,2.25-3.05,3.06Z" fill="#b4b9c5" stroke="#14303f" stroke-miterlimit="10"/><path d="M313.33,246.16c.81,.37,7.05,3.03,8.77-.15,1.73-3.18-4.66-6.78-5.46-7.15s-2.21,.97-3.12,2.99c-.91,2.02-1,3.95-.19,4.32Z" fill="#b4b9c5" stroke="#14303f" stroke-miterlimit="10"/><path d="M258.49,230.18c.58,.68,5.08,5.74,8,3.6,2.92-2.14-1.32-8.12-1.89-8.8s-2.41-.06-4.1,1.37-2.59,3.14-2.01,3.82Z" fill="#b4b9c5" stroke="#14303f" stroke-miterlimit="10"/><ellipse cx="322.25" cy="234.41" rx="4.01" ry="1.61" transform="translate(-66.42 146.49) rotate(-23.29)" fill="#b4b9c5" stroke="#14303f" stroke-miterlimit="10"/><ellipse cx="314.98" cy="242.51" rx="4.01" ry="1.61" transform="translate(-35.93 429.3) rotate(-65.62)" fill="#b4b9c5" stroke="#14303f" stroke-miterlimit="10"/><ellipse cx="261.54" cy="227.58" rx="4.01" ry="1.61" transform="translate(-85.13 223.52) rotate(-40.36)" fill="#b4b9c5" stroke="#14303f" stroke-miterlimit="10"/></g></g></g></g></g></svg>
