<svg xmlns="http://www.w3.org/2000/svg" width="74" height="200" viewBox="0 0 74 200"><path d="M5.88.13v192.64a7.25 7.25 0 0 0 7.23 7.23h53.64a7.25 7.25 0 0 0 7.25-7.23V.13z" opacity=".15"/><path d="M0-.13v187.9A7.26 7.26 0 0 0 7.25 195h53.64a7.26 7.26 0 0 0 7.23-7.24V-.13z" fill="#fcf7f5"/><path d="M24 161.82a.17.17 0 0 1 .17-.18h2.24a2.07 2.07 0 1 1 0 4.14h-1V168a.18.18 0 0 1-.18.17H24.2a.17.17 0 0 1-.2-.17zm2.33 2.61a.73.73 0 0 0 .73-.74.71.71 0 0 0-.73-.69h-.88v1.43zM29.41 161.82a.18.18 0 0 1 .18-.18h1.14a.18.18 0 0 1 .18.18v3.76a1.15 1.15 0 1 0 2.3 0v-3.76a.17.17 0 0 1 .18-.18h1.14a.19.19 0 0 1 .18.18v3.83a2.65 2.65 0 0 1-5.3 0zM36.21 161.82a.17.17 0 0 1 .17-.18h1.11a.18.18 0 0 1 .17.18v5h2.22a.17.17 0 0 1 .17.17v1a.17.17 0 0 1-.17.17h-3.5a.17.17 0 0 1-.17-.17zM41 161.82a.17.17 0 0 1 .17-.18h1.11a.19.19 0 0 1 .18.18v5h2.21a.17.17 0 0 1 .17.17v1a.17.17 0 0 1-.17.17h-3.5A.17.17 0 0 1 41 168zM20.13 173.11l13.94 10.03 13.94-10.03H20.13z" fill="#333"/></svg>