<svg xmlns="http://www.w3.org/2000/svg" xmlns:xlink="http://www.w3.org/1999/xlink" width="2400" height="800" viewBox="0 0 2400 800"><defs><linearGradient id="a" x1="1311.02" y1="666.67" x2="1345.54" y2="666.67" gradientUnits="userSpaceOnUse"><stop offset="0" stop-color="#ee65de"/><stop offset="1" stop-color="#26cbff"/></linearGradient></defs><title>puppet</title><line x1="1478.57" y1="86.21" x2="1478.57" y2="555.49" fill="none" stroke="#222229" stroke-linecap="round" stroke-linejoin="round" stroke-width="8"/><line x1="1354.16" y1="83.49" x2="1354.16" y2="209.96" fill="none" stroke="#222229" stroke-linecap="round" stroke-linejoin="round" stroke-width="8"/><polyline points="1400.35 103.32 1476.43 406.71 1736.83 214.9 2087.28 296.89 2455.57 157.47" fill="none" stroke="#222229" stroke-linejoin="round" stroke-width="30"/><polyline points="1400.35 103.32 1476.43 406.71 1736.83 214.9 2087.28 296.89 2455.57 157.47" fill="none" stroke="#a8a8a8" stroke-miterlimit="10" stroke-width="5"/><circle cx="1478.43" cy="403.52" r="37.58" fill="#a8a8a8" stroke="#222229" stroke-linecap="round" stroke-linejoin="round" stroke-width="5"/><circle cx="1478.43" cy="403.52" r="16.48" fill="#a8a8a8" stroke="#222229" stroke-linecap="round" stroke-linejoin="round" stroke-width="5"/><circle cx="1737.44" cy="213.28" r="37.58" fill="#a8a8a8" stroke="#222229" stroke-linecap="round" stroke-linejoin="round" stroke-width="5"/><circle cx="1737.44" cy="213.28" r="16.48" fill="#a8a8a8" stroke="#222229" stroke-linecap="round" stroke-linejoin="round" stroke-width="5"/><circle cx="2086.48" cy="300.43" r="37.58" fill="#a8a8a8" stroke="#222229" stroke-linecap="round" stroke-linejoin="round" stroke-width="5"/><circle cx="2086.48" cy="300.43" r="16.48" fill="#a8a8a8" stroke="#222229" stroke-linecap="round" stroke-linejoin="round" stroke-width="5"/><polyline points="1454.29 103.32 1365.21 492.92 1690.86 576.5 2041.56 435.7 2443.25 574.88" fill="none" stroke="#222229" stroke-linejoin="round" stroke-width="30"/><polyline points="1454.29 103.32 1365.21 492.92 1690.86 576.5 2041.56 435.7 2443.25 574.88" fill="none" stroke="#a8a8a8" stroke-miterlimit="10" stroke-width="5"/><circle cx="1367.21" cy="489.72" r="37.58" fill="#a8a8a8" stroke="#222229" stroke-linecap="round" stroke-linejoin="round" stroke-width="5"/><circle cx="1367.21" cy="489.72" r="16.48" fill="#a8a8a8" stroke="#222229" stroke-linecap="round" stroke-linejoin="round" stroke-width="5"/><circle cx="1691.47" cy="574.88" r="37.58" fill="#a8a8a8" stroke="#222229" stroke-linecap="round" stroke-linejoin="round" stroke-width="5"/><circle cx="1691.47" cy="574.88" r="16.48" fill="#a8a8a8" stroke="#222229" stroke-linecap="round" stroke-linejoin="round" stroke-width="5"/><circle cx="2040.75" cy="439.24" r="37.58" fill="#a8a8a8" stroke="#222229" stroke-linecap="round" stroke-linejoin="round" stroke-width="5"/><circle cx="2040.75" cy="439.24" r="16.48" fill="#a8a8a8" stroke="#222229" stroke-linecap="round" stroke-linejoin="round" stroke-width="5"/><line x1="926.73" y1="102.36" x2="926.73" y2="676.97" fill="none" stroke="#222229" stroke-linecap="round" stroke-linejoin="round" stroke-width="8"/><polyline points="1012.16 102.36 898.31 408.62 582.05 148.34 289.99 262.83 -62.63 175.31" fill="none" stroke="#222229" stroke-linejoin="round" stroke-width="30"/><polyline points="1012.16 102.36 898.31 408.62 582.05 148.34 289.99 262.83 -62.63 175.31" fill="none" stroke="#a8a8a8" stroke-miterlimit="10" stroke-width="5"/><circle cx="896.31" cy="405.42" r="37.58" fill="#a8a8a8" stroke="#222229" stroke-linecap="round" stroke-linejoin="round" stroke-width="5"/><circle cx="896.31" cy="405.42" r="16.48" fill="#a8a8a8" stroke="#222229" stroke-linecap="round" stroke-linejoin="round" stroke-width="5"/><circle cx="581.44" cy="146.72" r="37.58" fill="#a8a8a8" stroke="#222229" stroke-linecap="round" stroke-linejoin="round" stroke-width="5"/><circle cx="581.44" cy="146.72" r="16.48" fill="#a8a8a8" stroke="#222229" stroke-linecap="round" stroke-linejoin="round" stroke-width="5"/><circle cx="290.79" cy="266.37" r="37.58" fill="#a8a8a8" stroke="#222229" stroke-linecap="round" stroke-linejoin="round" stroke-width="5"/><circle cx="290.79" cy="266.37" r="16.48" fill="#a8a8a8" stroke="#222229" stroke-linecap="round" stroke-linejoin="round" stroke-width="5"/><polygon points="1405.04 730.42 1012.16 730.42 1062.45 672.77 1352.63 672.77 1405.04 730.42" fill="#b28c3f" stroke="#222229" stroke-linecap="round" stroke-linejoin="round" stroke-width="6"/><ellipse cx="1203.45" cy="702.69" rx="97.53" ry="17.77" fill="#222229" opacity="0.3"/><rect x="1012.16" y="730.42" width="392.87" height="22.01" stroke-width="6" stroke="#222229" stroke-linecap="round" stroke-linejoin="round" fill="#b28c3f"/><line x1="1126.79" y1="97.49" x2="1126.79" y2="435.25" fill="none" stroke="#222229" stroke-linecap="round" stroke-linejoin="round" stroke-width="8"/><line x1="1097.3" y1="102.36" x2="1097.3" y2="555.49" fill="none" stroke="#222229" stroke-linecap="round" stroke-linejoin="round" stroke-width="8"/><line x1="1022.43" y1="102.36" x2="1022.43" y2="574.88" fill="none" stroke="#222229" stroke-linecap="round" stroke-linejoin="round" stroke-width="8"/><line x1="1284.23" y1="102.36" x2="1284.23" y2="636.42" fill="none" stroke="#222229" stroke-linecap="round" stroke-linejoin="round" stroke-width="8"/><line x1="1377.02" y1="102.36" x2="1377.02" y2="448.81" fill="none" stroke="#222229" stroke-linecap="round" stroke-linejoin="round" stroke-width="8"/><polyline points="926.69 97.49 998.69 483.45 730.1 587.43 470.03 413.63 -57.02 502.51" fill="none" stroke="#222229" stroke-linejoin="round" stroke-width="30"/><polyline points="926.69 97.49 998.69 483.45 730.1 587.43 470.03 413.63 -57.02 502.51" fill="none" stroke="#a8a8a8" stroke-miterlimit="10" stroke-width="5"/><circle cx="996.69" cy="480.26" r="37.58" fill="#a8a8a8" stroke="#222229" stroke-linecap="round" stroke-linejoin="round" stroke-width="5"/><circle cx="996.69" cy="480.26" r="16.48" fill="#a8a8a8" stroke="#222229" stroke-linecap="round" stroke-linejoin="round" stroke-width="5"/><circle cx="729.48" cy="585.81" r="37.58" fill="#a8a8a8" stroke="#222229" stroke-linecap="round" stroke-linejoin="round" stroke-width="5"/><circle cx="729.48" cy="585.81" r="16.48" fill="#a8a8a8" stroke="#222229" stroke-linecap="round" stroke-linejoin="round" stroke-width="5"/><circle cx="470.83" cy="417.17" r="37.58" fill="#a8a8a8" stroke="#222229" stroke-linecap="round" stroke-linejoin="round" stroke-width="5"/><circle cx="470.83" cy="417.17" r="16.48" fill="#a8a8a8" stroke="#222229" stroke-linecap="round" stroke-linejoin="round" stroke-width="5"/><path d="M1213.77,149.27c15.13-2.59,30.31,7.39,37.93,20.71s9,29.27,8.88,44.61c-.2,19-2.58,38-2.85,57.06s7.4,37.17,15.4,54.45c-14.79,5.28-113.13,22.84-138.69,4-.49-.37,28.66-27.33,24.48-73.89-1.54-17.12-6.44-34-6-51.16a86.09,86.09,0,0,1,8.27-34.57c2.37-5,5.12-9.95,9.11-13.79C1187.48,140.07,1213.77,149.27,1213.77,149.27Z" fill="#2d2b28" stroke="#1e1e1e" stroke-miterlimit="10" stroke-width="2"/><path d="M1240.53,686.7c-.8-9.35-2.93-29.74-2.36-30.29.33-.32,13.06.11,16.18-2.59.3-.25-.17,25.68-.49,32.09" fill="#fff" stroke="#1e1e1e" stroke-linecap="round" stroke-linejoin="round" stroke-width="2"/><path d="M1158.91,681.66c.11-8,0-24.15,0-24.15a23.46,23.46,0,0,0,14.74.73c-1,9.52-1.66,19.48-2.71,29" fill="#fff" stroke="#1e1e1e" stroke-linecap="round" stroke-linejoin="round" stroke-width="2"/><path d="M1253.34,680.17s.61,5.41,2.59,6.93c2.34,1.8,18.49,7.13,20.79,9a11.29,11.29,0,0,1,3.06,4.38A11.15,11.15,0,0,1,1281,706c-.09.85-2.62,6.74-16.56,3.28-2.85-.7-18.79-6.51-21.45-7.75a8.5,8.5,0,0,1-2.26-1.36c-1.21-1.1-1.65-1.16-1.73-2.79a52.22,52.22,0,0,1-.29-6.48,63.67,63.67,0,0,1,1-8,31.57,31.57,0,0,0,6.2,2.14c-.12-.86-.21-3.77-.21-3.77S1252.3,679.21,1253.34,680.17Z" fill="#525252" stroke="#1e1e1e" stroke-linecap="round" stroke-linejoin="round" stroke-width="2"/><path d="M1260.47,689.7c-.92.92-4.14,3.25-4.63,3.73" fill="none" stroke="#1e1e1e" stroke-linecap="round" stroke-linejoin="round" stroke-width="2"/><path d="M1257.68,688.84a62.91,62.91,0,0,1-5.13,4.8" fill="none" stroke="#1e1e1e" stroke-linecap="round" stroke-linejoin="round" stroke-width="2"/><path d="M1255.65,687.56a3.16,3.16,0,0,0-.86.64,35.76,35.76,0,0,1-3.69,3" fill="none" stroke="#1e1e1e" stroke-linecap="round" stroke-linejoin="round" stroke-width="2"/><path d="M1253.91,686.29c-.05-.11-.22,0-.32.05a8.63,8.63,0,0,1-3.75,2.28" fill="none" stroke="#1e1e1e" stroke-linecap="round" stroke-linejoin="round" stroke-width="2"/><path d="M1253.73,684.05a2.58,2.58,0,0,0-1,.32,24.81,24.81,0,0,1-3.33,1.27c-.14,0-.33.18-.24.3" fill="none" stroke="#1e1e1e" stroke-linecap="round" stroke-linejoin="round" stroke-width="2"/><path d="M1255,685.32a12.18,12.18,0,0,1,3.94-3.77,1.79,1.79,0,0,1,1.36.24,1.84,1.84,0,0,1,.47,2.29,3.56,3.56,0,0,1-1.89,1.62,7,7,0,0,1-2.54.56,2.52,2.52,0,0,1-1.43-.29" fill="none" stroke="#1e1e1e" stroke-linecap="round" stroke-linejoin="round" stroke-width="2"/><path d="M1255.35,686a6.36,6.36,0,0,0,2.57,0,10.14,10.14,0,0,1,6.12.72,1.14,1.14,0,0,1,.61.61c.08.28-2.07,2.82-5.74,1.55" fill="none" stroke="#1e1e1e" stroke-linecap="round" stroke-linejoin="round" stroke-width="2"/><g opacity="0.4"><path d="M1246.92,692.35c.17-4,1.54-8.15,2.81-12.12-2,.4-4.1,1-4.1,1s.09,2.91.21,3.77a31.57,31.57,0,0,1-6.2-2.14c-.68,2.87-.72,12.83-.66,14.47.16,4.23,17.5,9.43,22.94,11.19C1259.58,707.36,1246.64,698.82,1246.92,692.35Z" fill="#1e1e1e"/></g><path d="M1158.08,680.17s-.61,5.41-2.59,6.93c-2.34,1.8-18.49,7.13-20.8,9a11.37,11.37,0,0,0-3,4.38,11,11,0,0,0-1.2,5.55c.09.85,2.43,3.34,3.2,3.44a40.74,40.74,0,0,0,13.36-.16c2.88-.57,18.78-6.51,21.45-7.75a8.5,8.5,0,0,0,2.26-1.36c1.21-1.1,1.65-1.16,1.73-2.79a54.23,54.23,0,0,0,.29-6.48,63.67,63.67,0,0,0-1-8,31.8,31.8,0,0,1-6.2,2.14c.12-.86.21-3.77.21-3.77S1159.12,679.21,1158.08,680.17Z" fill="#525252"/><path d="M1157.2,679.93c-.35,2.12-.72,5.5-2.76,6.67a57,57,0,0,1-7.89,3.33c-3.13,1.21-6.28,2.38-9.36,3.72a18.29,18.29,0,0,0-2.77,1.37,11.77,11.77,0,0,0-3.83,5.32c-.78,1.83-1.83,4.67-.84,6.6a7.9,7.9,0,0,0,3.26,3.34,12,12,0,0,0,3.49.5,42.8,42.8,0,0,0,4.8.19,28.5,28.5,0,0,0,6.57-.77,78.28,78.28,0,0,0,8-2.74c3.24-1.23,6.48-2.45,9.71-3.71,1.09-.42,2.19-.84,3.27-1.31,1.66-.71,4-2,4.55-3.85a18.23,18.23,0,0,0,.37-3.39,31.4,31.4,0,0,0,.18-3.63,48.48,48.48,0,0,0-1-9,1.22,1.22,0,0,0-1.77-.72,32.45,32.45,0,0,1-5.91,2l1.51,1.16a36.62,36.62,0,0,0,.2-3.77,1.19,1.19,0,0,0-.86-1.14c-1.31-.39-2.65-.73-4-1a10.87,10.87,0,0,0-2.71-.33,2.92,2.92,0,0,0-1.2.34c-.18.1-.75.61-.49.41-.72.54,0,1.78.72,1.23-.35.27-.49-.07-.11.05a1.9,1.9,0,0,0,.25,0c.35.06.68.13,1,.18a22,22,0,0,1,2.53.46q1.68.38,3.33.9l-.87-1.14c0,1.25-.07,2.52-.23,3.77-.1.81.84,1.31,1.51,1.15a34.72,34.72,0,0,0,6.5-2.25l-1.77-.72a54.15,54.15,0,0,1,.93,7.92,49.15,49.15,0,0,1-.26,5.69c0,.87,0,1.32-.65,1.91a10.86,10.86,0,0,1-2.71,1.9c-.77.37-1.56.69-2.35,1-5.61,2.24-11.32,4.34-17.11,6.09a33.46,33.46,0,0,1-12.21.95,5.75,5.75,0,0,1-2.86-.54,7.39,7.39,0,0,1-1.71-1.82c-.56-.82-.28-2-.06-2.9a16.23,16.23,0,0,1,1.61-4,7.36,7.36,0,0,1,3-3.15c1.08-.57,2.22-1,3.35-1.5,3-1.23,6.05-2.37,9.07-3.56,2.38-.94,5.15-1.75,7.25-3.24s2.91-5.26,3.09-7.84C1159.07,679.16,1157.37,678.91,1157.2,679.93Z" fill="#1e1e1e"/><path d="M1151,689.7a20.82,20.82,0,0,0,3,2.49,11.86,11.86,0,0,1,1.65,1.24" fill="none" stroke="#1e1e1e" stroke-linecap="round" stroke-linejoin="round" stroke-width="2"/><path d="M1153.74,688.84a62.91,62.91,0,0,0,5.13,4.8" fill="none" stroke="#1e1e1e" stroke-linecap="round" stroke-linejoin="round" stroke-width="2"/><path d="M1155.77,687.56c.33.14,3.26,2.76,4.55,3.69l-.09-.11" fill="none" stroke="#1e1e1e" stroke-linecap="round" stroke-linejoin="round" stroke-width="2"/><path d="M1157.82,686.34a10.27,10.27,0,0,0,3.51,1.89" fill="none" stroke="#1e1e1e" stroke-linecap="round" stroke-linejoin="round" stroke-width="2"/><path d="M1157.69,684.05a2.58,2.58,0,0,1,1,.32,24.81,24.81,0,0,0,3.33,1.27c.14,0,.32.18.23.3" fill="none" stroke="#1e1e1e" stroke-linecap="round" stroke-linejoin="round" stroke-width="2"/><path d="M1156.47,685.32a7.28,7.28,0,0,0-2.66-3.2,3.64,3.64,0,0,0-1.29-.57,1.8,1.8,0,0,0-1.36.24,1.87,1.87,0,0,0-.47,2.29,3.61,3.61,0,0,0,1.9,1.62,7,7,0,0,0,2.54.56,2.52,2.52,0,0,0,1.43-.29" fill="none" stroke="#1e1e1e" stroke-linecap="round" stroke-linejoin="round" stroke-width="2"/><path d="M1156.07,686a6.42,6.42,0,0,1-2.58,0,10.1,10.1,0,0,0-6.11.72,1.14,1.14,0,0,0-.61.61.78.78,0,0,0,.27.78,1.94,1.94,0,0,0,.77.39,7.42,7.42,0,0,0,4.61-.1" fill="none" stroke="#1e1e1e" stroke-linecap="round" stroke-linejoin="round" stroke-width="2"/><path d="M1173.93,690.89a74.29,74.29,0,0,0-1-8.3,1.21,1.21,0,0,0-1.76-.72,31.72,31.72,0,0,1-4.27,1.57c0-.72.06-1.45.08-2.17a1.22,1.22,0,0,0-.88-1.16,33.24,33.24,0,0,0-6.24-1.36,1.21,1.21,0,0,0-1,1.81c1.34,2.36,2.54,4.91,3.66,7.39a7.37,7.37,0,0,1,.79,4.8,10.94,10.94,0,0,1-2.35,4,24.59,24.59,0,0,1-3.46,3.06c-1.32,1.06-2.65,2.13-4,3.16a60.77,60.77,0,0,1-8.29,5.45c-1.29.68-.33,2.39.92,2.19,4.54-.72,9-2.71,13.26-4.29,2.34-.87,4.68-1.75,7-2.67a18.45,18.45,0,0,0,5.92-3.3c1.2-1.09,1.3-2.29,1.41-3.84A33.4,33.4,0,0,0,1173.93,690.89Z" fill="#1e1e1e" opacity="0.4"/><path d="M1341,350.94c5.92-4,16.07,16.95,14.15,17.7-1.54.6-12.72,9-15.2,9.71-3.29.9-5.67,2.94-10,1.59,0,0-34.4,9.42-51.47,14-6,1.64-20.89-26.41-.16-20.14l50.2-7.53Z" fill="#f6a87b" stroke="#1e1e1e" stroke-linecap="round" stroke-linejoin="round" stroke-width="2"/><path d="M1354.14,364.48c.26-3.49-1.71-6.7-3.6-9.64a4.47,4.47,0,0,0-2.43-2.23" fill="#f6a87b"/><path d="M1354.8,364.66a6.87,6.87,0,0,0-.2-3.81,17,17,0,0,0-1.53-3.63c-.59-1.11-1.26-2.19-2-3.24a5.59,5.59,0,0,0-2.72-2.41c-1.32-.46-1.94,1.81-.58,2.09,1,.19,1.46,1,2,1.75.63,1,1.24,1.92,1.8,2.93a15.86,15.86,0,0,1,1.31,3,31.58,31.58,0,0,1,.6,3.34c.14.7,1.12.59,1.32,0Z" fill="#1e1e1e"/><path d="M1335.86,370.6c10.13-7.31,3.78-16.83,3.78-16.83,3-4.6.31-14.95-.21-15.33-1.08-.79-6,.71-5.06,6.78.47,3.09-.91,6.88-2.48,9.58-1.06,1.83-2.42,3.49-3.29,5.41a6.8,6.8,0,0,0-.15,6.1" fill="#f6a87b" stroke="#1e1e1e" stroke-linecap="round" stroke-linejoin="round" stroke-width="2"/><g opacity="0.2"><path d="M1302.57,370.2l10.77-1.22c.63,1.69-.4,9.16,3.27,10.12s11.93.57,11.93.57c-5.06,1.39-20.17,5.91-26,7.49C1303.86,381.63,1303.35,375.92,1302.57,370.2Z" fill="#1e1e1e"/></g><polyline points="1312.56 85.84 1346.97 366.01 1349.72 555.49" fill="none" stroke="#222229" stroke-linecap="round" stroke-linejoin="round" stroke-width="8"/><path d="M1342.89,358.57c-1.35.48-8.65,5.77,4,4.63,4.55-.41,12.22-3,11-5.5C1354.7,351,1344.08,358.15,1342.89,358.57Z" fill="#f6a87b" stroke="#1e1e1e" stroke-linecap="round" stroke-linejoin="round" stroke-width="2"/><path d="M1347,366c-1.06.36-7,5.35,2.75,4.55,3.53-.29,10.54-3.45,9-6.28C1356,359.2,1347.89,365.69,1347,366Z" fill="#f6a87b" stroke="#1e1e1e" stroke-linecap="round" stroke-linejoin="round" stroke-width="2"/><path d="M1341.73,350.69c-1.29.52-9.69,6.83,2.43,5.32,4.37-.55,12.59-3.43,10.94-7.15C1353.19,344.55,1342.87,350.23,1341.73,350.69Z" fill="#f6a87b" stroke="#1e1e1e" stroke-linecap="round" stroke-linejoin="round" stroke-width="2"/><path d="M1216.1,301.05c18.46,0,25.88,15.66,28.3,19.95,10.55,18.71,15.91,30.44,30.85,49.31,1.3,1.65,22-2.23,30.75-2.66,2.45,5.84,4,17.11,1.33,21.13-2.52.8-37.52,7.74-40.39,7.35-7.84-1.07-35.55-45.31-45-56.88" fill="#e45c4c" stroke="#1e1e1e" stroke-linecap="round" stroke-linejoin="round" stroke-width="2"/><path d="M1294,369c1.58,1.23,4.9,15.44,3.78,21.24" fill="#e45c4c" stroke="#1e1e1e" stroke-linecap="round" stroke-linejoin="round" stroke-width="2"/><g opacity="0.3"><path d="M1225.7,325.62c6.36,12.22,33.67,52.39,41,57.1s42.79,2.36,42.79,2.36a18.9,18.9,0,0,1-1.17,3.72c-2.9.89-37,8.49-40.26,8-9-1.35-40.19-49.62-50.88-63.08C1217.22,333.71,1223.31,325.2,1225.7,325.62Z" fill="#1e1e1e"/></g><path d="M1054.57,332.25c-5.07-5-19,13.61-17.24,14.71,1.4.88,10.78,11.27,13.09,12.4,3.07,1.51,5,4,9.57,3.46,0,0,32,15.74,47.9,23.51,5.62,2.75,12.78-8.16,18.9-9.48,7.37-1.59-62.82-27.14-62.82-27.14Z" fill="#f6a87b" stroke="#1e1e1e" stroke-linejoin="round" stroke-width="2"/><path d="M1039.09,343.06c.4-3.47,2.94-6.26,5.35-8.78a4.44,4.44,0,0,1,2.81-1.73" fill="#f6a87b"/><path d="M1039.75,343.24a29.61,29.61,0,0,1,1.12-3,16.68,16.68,0,0,1,1.82-2.66c.7-.84,1.44-1.63,2.19-2.42s1.37-1.55,2.37-1.56a1.08,1.08,0,1,0-.29-2.13,5.72,5.72,0,0,0-3.08,2c-.86.91-1.72,1.83-2.5,2.81a17.09,17.09,0,0,0-2.08,3.16,6.85,6.85,0,0,0-.9,3.61.69.69,0,0,0,1.35.18Z" fill="#1e1e1e"/><path d="M1055.88,352.52c-8.57-9.08-.53-17.24-.53-17.24-2.12-5.09,2.52-14.74,3.1-15,1.21-.57,5.74,1.82,3.68,7.61-1,2.95-.4,6.92.63,9.87a62.53,62.53,0,0,1,2.21,5.94c.5,2.06.38,4.42-1,6" fill="#f6a87b" stroke="#1e1e1e" stroke-linecap="round" stroke-linejoin="round" stroke-width="2"/><g opacity="0.2"><path d="M1087.31,358,1077,354.77c-1,1.54-1.35,9.08-5.13,9.32S1060,362.4,1060,362.4c4.72,2.32,18.7,9.62,24.09,12.26C1083.89,369,1085.46,363.48,1087.31,358Z" fill="#1e1e1e"/></g><polyline points="1082.65 85.84 1047.99 348.2 1045.49 624.77" fill="none" stroke="#222229" stroke-linecap="round" stroke-linejoin="round" stroke-width="8"/><path d="M1051.25,339.39c1.24.72,7.41,7.29-4.78,3.79-4.4-1.26-11.43-5.27-9.8-7.49C1041.08,329.72,1050.16,338.75,1051.25,339.39Z" fill="#f6a87b" stroke="#1e1e1e" stroke-linejoin="round" stroke-width="2"/><path d="M1045.84,345.91c1,.56,5.92,6.6-3.56,4-3.42-.95-9.7-5.38-7.68-7.87C1038.23,337.52,1045,345.43,1045.84,345.91Z" fill="#f6a87b"/><path d="M1045.24,347c.28.17-.2-.2,0,0l.28.27c.11.11.21.23.31.35l.15.17c.19.23-.14-.21,0,0a8.12,8.12,0,0,1,.59.93,2,2,0,0,0,.1.21c.07.14-.09-.3,0,0a1.55,1.55,0,0,0,.07.23c.07.22-.06.25,0,0,0,.12,0,.6,0,.13,0,.12-.14.3,0-.06-.13.26.09-.08,0,0s-.07.09,0,0c0,0-.31.18-.1.08s-.09,0-.15,0a.58.58,0,0,0-.14,0c-.23.08.26,0,0,0a12.19,12.19,0,0,1-4.47-.76,12.33,12.33,0,0,1-1.85-.85,19.29,19.29,0,0,1-2.14-1.36,12.15,12.15,0,0,1-1.68-1.5,5,5,0,0,1-.37-.42s-.13-.18,0,0a1.27,1.27,0,0,1-.13-.19,3.54,3.54,0,0,1-.26-.41l-.09-.18c0-.08,0,.17,0-.08s-.08-.26-.11-.4c.06.26,0,0,0-.11s0,0,0,.07a.42.42,0,0,0,0-.16c0-.17,0,.07,0,0l.11-.19c.15-.24-.1.11,0,0a2.09,2.09,0,0,1,.2-.22c0-.05.34-.3.18-.18a2.56,2.56,0,0,1,.35-.22,2.39,2.39,0,0,1,.22-.12c.13-.06-.18.06,0,0l.42-.11c.19,0-.29,0,0,0l.2,0h.39l.2,0h.08a6.94,6.94,0,0,1,.92.26l.22.09q.26.11.51.24a14.26,14.26,0,0,1,2,1.24l.23.17.07.06.43.35c.28.22.54.46.81.69a16.71,16.71,0,0,0,2.23,2,1.2,1.2,0,0,0,1.21-2.07c-.2-.12.18.17.1.08l-.17-.14-.47-.44c-.45-.42-.9-.84-1.36-1.24a19.5,19.5,0,0,0-3.82-2.75,6.37,6.37,0,0,0-4.72-.77c-1.55.47-3.08,1.89-3,3.61s1.45,3.2,2.69,4.26a18.75,18.75,0,0,0,4.93,3.06,14,14,0,0,0,5.56,1.18c1.22,0,2.58-.48,2.92-1.8a4,4,0,0,0-.83-3.07,6.45,6.45,0,0,0-1.84-2A1.2,1.2,0,0,0,1045.24,347Z" fill="#1e1e1e"/><path d="M1053.88,331.86c1.17.76,8.22,8.54-3.39,4.76-4.19-1.36-11.72-5.73-9.4-9.08C1043.78,323.67,1052.85,331.2,1053.88,331.86Z" fill="#f6a87b" stroke="#1e1e1e" stroke-linejoin="round" stroke-width="2"/><path d="M1182.06,305.16c-14.37-2-23.81,12.16-27,15.92-13.9,16.39-21.38,26.89-39.61,42.61-1.6,1.37-21.24-6.36-29.7-8.42-3.51,5.27-7.14,16-5.29,20.5,2.32,1.26,35.38,14.68,38.28,14.84,7.89.43,43.46-37.79,54.92-47.36" fill="#e45c4c" stroke="#1e1e1e" stroke-linecap="round" stroke-linejoin="round" stroke-width="2"/><path d="M1097.3,358.84c-.5.47-7.72,11.4-7.72,20.14" fill="#e45c4c" stroke="#1e1e1e" stroke-linecap="round" stroke-linejoin="round" stroke-width="2"/><g opacity="0.3"><path d="M1172.82,327.84c-8.38,10.94-42.23,45.77-50.31,49.14S1080,371.9,1080,371.9a19,19,0,0,0,.5,3.87c2.71,1.37,34.94,14.75,38.28,14.84,9.1.22,48.17-41.93,61-53.33C1179.78,337.28,1175.24,327.84,1172.82,327.84Z" fill="#1e1e1e"/></g><path d="M1159.57,430.86c-3.64,82.61-3.37,165.27-2.47,248,6.21,4.75,16.76,2.23,17.16-.92,1.27-9.74,2.31-26.6,3.58-36.33,1.62-12.55,3.25-25.1,4.58-37.68,4.89-46.33,9.79-137.88,12.27-140.9.71-.88,15.38-1.38,17,.37s7.09,38,10.22,72.33c1.88,20.68,9.23,71.81,11.93,92.4,1.89,14.42,2.22,49.28,3.43,50.16,8.4,6.18,20.07-1.34,20.12-3.07.6-18.93-4.4-191.27-17.74-245.67Z" fill="#4069aa" stroke="#1e1e1e" stroke-linecap="round" stroke-linejoin="round" stroke-width="2"/><path d="M1234.56,349s-9.34-41.44-13.15-47.18c-1.3-2-38.94-2.16-42.94,1.26s-11.64,48.34-11.64,48.34Z" fill="#fff"/><path d="M1235.47,348.77c-1.8-9.2-4-18.32-6.41-27.39a169.83,169.83,0,0,0-4.88-16.41c-.48-1.29-1-3.46-2.25-4.29s-2.8-.78-4-.92a145,145,0,0,0-17.06-.6,118.21,118.21,0,0,0-18,1.12,12.63,12.63,0,0,0-4.86,1.45,7.38,7.38,0,0,0-2.32,3.62,96.73,96.73,0,0,0-4.13,15c-2.24,10-4.12,20.08-5.88,30.17,0,.19-.07.39-.1.58a1.41,1.41,0,0,0,1.34,1.76c7.64-.26,15.29-.61,22.93-.89,12.16-.44,24.37-.7,36.5-1.6l6-.45,1.68-.13c.13,0,.71-.08.45,0h.17c.9,0,.91-1.43,0-1.4h-.12c-.15,0,.37,0-.13,0h-1.58l-5,0c-5.38,0-10.73.09-16.11.29-12.17.44-24.34.8-36.5,1.23-2.77.1-5.54.13-8.3.24l1.33,1.75c1.43-8.42,3-16.83,4.83-25.18,1.21-5.59,2.46-11.19,4.09-16.67.31-1,.63-2,1-3a12.05,12.05,0,0,1,.81-1.91q.19-.37.42-.72c-.2.31.36-.31,0-.05a4.19,4.19,0,0,1,.69-.38c-.3.13,0,0,.17-.06l.6-.19c4.85-1.41,10.25-1.5,15.27-1.72a175.76,175.76,0,0,1,18.22,0,37,37,0,0,1,5.49.57c.26.06.51.12.77.2s0,0,0,0,.07,0,.08,0-.2-.14-.2-.21.19.35.3.55.35.71.5,1.07a109.58,109.58,0,0,1,4.55,14.39c2.75,10,5.13,20.08,7.72,30.11.06.2.11.39.16.59C1234,350.46,1235.7,350,1235.47,348.77Z" fill="#1e1e1e"/><g opacity="0.2"><path d="M1234.56,349c-1.44-33.34-35.79-8.66-46.18-48C1157.26,317.48,1234.56,349,1234.56,349Z" fill="#1e1e1e"/></g><g opacity="0.3"><path d="M1224.41,493.85c-1.9-11.64-3.42-24.84-2-27,2.43-3.57,12.55-6,15.65-3.78,5.43,3.84,9.67,29.89,10.86,33.26-2.49-27.63-5.56-52-9.29-67.14l-80.42,1.35q-1.53,34.76-2.21,69.51c.12-1.05,4.33-26.52,6.46-33.74s15.41-5.45,18.94-2.95,2.27,11.29,1.76,18.73c-.92,13.4-14.88,174.47-15.23,199.63,2.79-.59,4.85-1.84,5-3.2,1.27-9.77,2.32-26.69,3.59-36.47,1.63-12.59,3.26-25.19,4.59-37.82,4.91-46.51,9.83-138.4,12.32-141.44.72-.88,15.44-1.38,17.11.37s7.11,38.12,10.26,72.61c1.89,20.76,9.27,72.08,12,92.75,1.89,14.48,2.23,49.47,3.43,50.36a12.72,12.72,0,0,0,8.32,2.38C1246.23,674,1228.14,516.76,1224.41,493.85Z" fill="#1e1e1e"/></g><path d="M1196.39,326.19l4.39.34c1.6,59.78,1.65,127.65,1.65,127.65l-6.11.15C1185.55,389.33,1196.39,326.19,1196.39,326.19Z" fill="#d8d8d8" stroke="#1e1e1e" stroke-linecap="round" stroke-linejoin="round"/><path d="M1199.76,445.35c-.51,2.85.59,6.19.7,9.09,5,.65,23.79-.54,28.8-1.38s15.06-5.75,15.16-5.93-.59-7.17-1.1-10.41" fill="#e45c4c" stroke="#1e1e1e" stroke-linecap="round" stroke-linejoin="round" stroke-width="2"/><path d="M1159.06,439.24c-.67,3.05-1.67,9.93-1.67,9.93s11,4.62,16.8,5.9,18,1.78,23.35-.65a78.7,78.7,0,0,1-.66-10.42" fill="#e45c4c" stroke="#1e1e1e" stroke-linecap="round" stroke-linejoin="round" stroke-width="2"/><path d="M1161.47,341l2.31,19.14c.8,6.65,1.6,13.36,1.06,20a80.45,80.45,0,0,1-1.38,9.13c-3,15.14-7.58,30-8.72,45.43-.16,2.16-.21,4.49,1,6.3a9.32,9.32,0,0,0,3.73,2.87c9.86,5,27.16,6.26,37.88,3.56-1.47-40.5-.12-80.41.05-121.06l-21-23.57" fill="#e45c4c" stroke="#1e1e1e" stroke-linecap="round" stroke-linejoin="round" stroke-width="2"/><path d="M1195.42,405.42c-6,1-18.27,1-18.27,1s-.94,9.06-3.56,12.63c-2,2.72-8.16,7.11-8.13,7.25a80.22,80.22,0,0,1,1.65,19.61" fill="none" stroke="#1e1e1e" stroke-linecap="round" stroke-linejoin="round" stroke-width="2"/><path d="M1236.82,339.65l-2.3,19.14a100.09,100.09,0,0,0-.44,20,82.56,82.56,0,0,0,1.37,9.14c3,15.14,10,27.64,11.11,43,.16,2.16.21,4.5-1,6.3a9.24,9.24,0,0,1-3.73,2.87c-9.86,5-31.58,8.26-42.3,5.56,0-41.1,1.58-79.21.18-119.9L1221.23,292" fill="#e45c4c" stroke="#1e1e1e" stroke-linecap="round" stroke-linejoin="round" stroke-width="2"/><path d="M1200.72,405.08c6.07-.58,17.59-1.84,17.59-1.71.19,13.89,13.45,16.42,13.15,17.65s.06,14.15,1.94,21.66" fill="none" stroke="#1e1e1e" stroke-linecap="round" stroke-linejoin="round" stroke-width="2"/><path d="M1177.27,292.74c-11.31-.75-16.22,14.71-4.55,17.09,8.48,1.73,17.68,11,24.24,16.53-1.3-3.36-10.86-16.59-12-18.77-2.38-4.75-.76-10.44,1.53-15.23,1.46-3.06,5.34-9.46,5.34-9.46-3.53,0-21.82-.65-19.51,10.17" fill="#e45c4c" stroke="#1e1e1e" stroke-linecap="round" stroke-linejoin="round" stroke-width="2"/><path d="M1218,291.55c15.83,2,15.47,10.84,3.91,13.52-8.47,2-16.06,15.74-22.62,21.46,1.29-3.49,11.28-19.12,12.09-23,1.95-9.22-8.64-20.33-8.64-20.33a47,47,0,0,1,10.5,1.33c2.5.61,12.67,2.55,10.71,7.72" fill="#e45c4c" stroke="#1e1e1e" stroke-linecap="round" stroke-linejoin="round" stroke-width="2"/><g opacity="0.3"><path d="M1176.78,292.7c-11.37,7.83,5,13.57,9.19,20.43,4.72,4.63,13.66,16.5,8.22,8.38-15-19.72-10.9-24.05-2.31-38.61C1181.49,279.55,1162.3,293.47,1176.78,292.7Z" fill="#1e1e1e"/></g><g opacity="0.3"><path d="M1211.38,303.55c-.12,1.34-10.06,18.58-10.85,21.26,14.59-24.42,27.92-23.76,23-32.82,6.06-3-16.57-9.56-20.75-8.77C1206.69,285.6,1212.15,297.32,1211.38,303.55Z" fill="#1e1e1e"/></g><path d="M1206.28,319.7c1.6,15,3.48,56.39,3.4,71.45" fill="none" stroke="#fff" stroke-linecap="round" stroke-linejoin="round" stroke-width="2"/><path d="M1208.19,387.06c1.09.15,2.17.32,3.25.5" fill="none" stroke="#fff" stroke-linecap="round" stroke-linejoin="round" stroke-width="2"/><path d="M1191.07,319.66l-.57,14.86c-.44,11.16-.62,45.66.25,56.79" fill="none" stroke="#fff" stroke-linecap="round" stroke-linejoin="round" stroke-width="2"/><path d="M1188.87,388a10.85,10.85,0,0,1,3-.25" fill="none" stroke="#fff" stroke-linecap="round" stroke-linejoin="round" stroke-width="2"/><g opacity="0.3"><path d="M1171.24,391.31c1.48-11.2-5.65-26.85-7.46-31.22a193,193,0,0,1,1.35,20.47c0,3.55-9.35,36.94-10.1,54.69-.38,9.06,9.68,11.11,10.84,11.69C1161.83,427.37,1169,408.5,1171.24,391.31Z" fill="#1e1e1e"/></g><g opacity="0.3"><path d="M1246.38,429.62c-1.69-17.68-7.57-27.54-12-44.74-2.29-8.89,1.67-39,1.72-39.38-1.66,5-9.64,24.38-9.66,35.94s7.08,28.42,8,38.13c.45,4.44-2.4,19.78-3.53,23.75C1234.47,442,1247.63,442.68,1246.38,429.62Z" fill="#1e1e1e"/></g><path d="M1215.46,162.52c-2.79,8.75-12.15,17.13-18.5,23.75-9.65,10-19.9,22.26-24.27,35.47-1.15,3.51-1.14,7.11-1.38,10.79-.78,12.35,9,26.2,12.07,38.2,2.35,9.33,1.47,16.52,1.15,26.13-.08,2.52-.12,5.56,1.33,7.62,1.68,2.41,4.85,3.84,7.77,4.22,4.76.62,10,.49,13.77-2.53,2.8-2.27,4.25-6.76,5.24-10.22,2.14-7.5,2.64-15.45,5.33-22.77,1.59-4.34,7.26-8,11.86-13.64,6.71-8.22,8.69-16.15,11-25.58s-2.87-19.58-6.15-28.73c-2.66-7.45-7.5-13.87-11.67-20.59S1215.23,170.43,1215.46,162.52Z" fill="#f6a87b" stroke="#1e1e1e" stroke-linecap="round" stroke-linejoin="round" stroke-width="2"/><path d="M1198.28,259.58c4.06,4.81,9,2.36,10.9,1.43" fill="#f6a87b" stroke="#1e1e1e" stroke-linecap="round" stroke-linejoin="round" stroke-width="2"/><path d="M1190.21,194.14a61.35,61.35,0,0,1,12-2.38" fill="none" stroke="#1e1e1e" stroke-linecap="round" stroke-miterlimit="10" stroke-width="2"/><path d="M1221.35,193.63c4.31-.41,8.93,3.9,10.19,5.12" fill="none" stroke="#1e1e1e" stroke-linecap="round" stroke-miterlimit="10" stroke-width="2"/><path d="M1177.43,196.91c-2,.06-4.19.29-5.45,1.81-1.12,1.34-1.14,3.26-1,5a83.75,83.75,0,0,0,3,18.46,5.91,5.91,0,0,0,1.35,2.73c2.43,2.39,12.65,3.89,17.89,4.56,2.64.34,5.56.49,7.72-1.06,1.64-1.17,11.62-18,8.88-24.36S1187.79,196.62,1177.43,196.91Z" fill="#fff" stroke="#1e1e1e" stroke-linecap="round" stroke-linejoin="round" stroke-width="3"/><path d="M1220.29,203.79a2.58,2.58,0,0,0-1.31.59,2.82,2.82,0,0,0-.58,1.74,81,81,0,0,0,1,22.94,4.7,4.7,0,0,0,1,2.4c1.87,1.94,12.33,3.55,17.9,4a8.65,8.65,0,0,0,4.32-.39c2-.9,11.34-20.53,9.2-25.47S1229.89,201.53,1220.29,203.79Z" fill="#fff" stroke="#1e1e1e" stroke-linecap="round" stroke-linejoin="round" stroke-width="3"/><path d="M1210.54,206.77a6.38,6.38,0,0,1,7.12,1.52" fill="none" stroke="#1e1e1e" stroke-linecap="round" stroke-linejoin="round" stroke-width="3"/><path d="M1198.84,214.39c-2.14-8.81-11.49,6.21-.91,3.09A3.71,3.71,0,0,0,1198.84,214.39Z" fill="#1e1e1e"/><path d="M1230.5,218.57c-1.18-9.62-11.92,5.05-.86,2.07A2.88,2.88,0,0,0,1230.5,218.57Z" fill="#1e1e1e"/><path d="M1193.81,274.29a15.3,15.3,0,0,0,13.41,2.57" fill="#f6a87b" stroke="#1e1e1e" stroke-linecap="round" stroke-linejoin="round" stroke-width="2"/><path d="M1206,229.09c-.15,6.07,7.34,6.67,10.14,2.09" fill="#f6a87b" stroke="#1e1e1e" stroke-linecap="round" stroke-linejoin="round" stroke-width="2"/><path d="M1207.55,242.86c-4.36-.79-15.25-7.29-18.62-5.14s2.58,10.8,5.45,13c5.12,3.91,17.89,5.51,23.08,3.81s12.72-8.34,10.66-10.77S1211.92,243.64,1207.55,242.86Z" fill="#5a2d22"/><path d="M1197.42,251.86c2.81-1.24,6.36-2.22,9.39-1.78a10.32,10.32,0,0,1,7.52,4.75l-8.94-.17Z" fill="#f67566"/><path d="M1207.55,242.86c-4.36-.79-15.25-7.29-18.62-5.14s2.58,10.8,5.45,13c5.12,3.91,17.89,5.51,23.08,3.81s12.72-8.34,10.66-10.77S1211.92,243.64,1207.55,242.86Z" fill="none" stroke="#1e1e1e" stroke-linecap="round" stroke-linejoin="round" stroke-width="2"/><rect x="873.29" y="70.59" width="653.42" height="42.69" fill="#b28c3f" stroke="#222229" stroke-linejoin="round" stroke-width="6"/><line x1="1107.67" y1="65.47" x2="1107.67" y2="118.79" fill="none" stroke="#222229" stroke-linecap="round" stroke-linejoin="round" stroke-width="8"/><line x1="1117.75" y1="65.47" x2="1117.75" y2="118.79" fill="none" stroke="#222229" stroke-linecap="round" stroke-linejoin="round" stroke-width="8"/><line x1="1273.75" y1="65.47" x2="1273.75" y2="118.79" fill="none" stroke="#222229" stroke-linecap="round" stroke-linejoin="round" stroke-width="8"/><line x1="1303.25" y1="65.47" x2="1303.25" y2="118.79" fill="none" stroke="#222229" stroke-linecap="round" stroke-linejoin="round" stroke-width="8"/><line x1="1323.61" y1="65.47" x2="1323.61" y2="118.79" fill="none" stroke="#222229" stroke-linecap="round" stroke-linejoin="round" stroke-width="8"/><line x1="1367.21" y1="65.47" x2="1367.21" y2="118.79" fill="none" stroke="#222229" stroke-linecap="round" stroke-linejoin="round" stroke-width="8"/><line x1="1439.8" y1="65.47" x2="1439.8" y2="118.79" fill="none" stroke="#222229" stroke-linecap="round" stroke-linejoin="round" stroke-width="8"/><line x1="1465.73" y1="65.47" x2="1465.73" y2="118.79" fill="none" stroke="#222229" stroke-linecap="round" stroke-linejoin="round" stroke-width="8"/><line x1="1086.41" y1="65.47" x2="1086.41" y2="118.79" fill="none" stroke="#222229" stroke-linecap="round" stroke-linejoin="round" stroke-width="8"/><line x1="1064.07" y1="65.47" x2="1064.07" y2="118.79" fill="none" stroke="#222229" stroke-linecap="round" stroke-linejoin="round" stroke-width="8"/><line x1="996.69" y1="65.47" x2="996.69" y2="118.79" fill="none" stroke="#222229" stroke-linecap="round" stroke-linejoin="round" stroke-width="8"/><line x1="963.55" y1="65.47" x2="963.55" y2="118.79" fill="none" stroke="#222229" stroke-linecap="round" stroke-linejoin="round" stroke-width="8"/><line x1="1356.02" y1="65.47" x2="1340.74" y2="118.79" fill="none" stroke="#222229" stroke-linecap="round" stroke-linejoin="round" stroke-width="8"/><line x1="942.43" y1="65.47" x2="950.33" y2="118.79" fill="none" stroke="#222229" stroke-linecap="round" stroke-linejoin="round" stroke-width="8"/><path d="M1305.42,689.14c0,9.11,46.24,9.34,46.25.11S1305.44,680,1305.42,689.14Z" fill="#222229" opacity="0.3"/><path d="M1309.76,626.83s3.48,58.75,3.54,60.35c0,6.58,30.54,6.58,30.32.5,0,0,3.32-59.08,3.27-60.36" fill="#fff"/><path d="M1330.18,679.53a1,1,0,0,1-.53-.16c-2-1.28-3-3.52-3.9-5.49l-.06-.13a99.82,99.82,0,0,0-8.3-14.92c.44,1.72,1.06,3.43,1.69,5.19a55.57,55.57,0,0,1,1.82,5.65,28.56,28.56,0,0,1,.8,7.31,1,1,0,0,1-.69.93c-.34.11-1.51.34-2.4-1.37-1.13-2.19-2.44-4.3-3.7-6.34s-2.61-4.21-3.78-6.48a1,1,0,0,1,1.78-.92c1.13,2.2,2.44,4.31,3.7,6.35,1,1.62,2,3.3,3,5a27.66,27.66,0,0,0-.66-4,56.47,56.47,0,0,0-1.76-5.44c-1.13-3.15-2.31-6.4-2.42-9.86a1,1,0,0,1,1.8-.62,101.23,101.23,0,0,1,10.93,18.71l.06.13a22.56,22.56,0,0,0,1.46,2.86,43.72,43.72,0,0,0-2.13-8.08,37.77,37.77,0,0,1-2.39-10.39c-.06-1.44.51-2.47,1.51-2.75.51-.13,1.8-.24,2.78,1.8,2.71,5.63,5.2,11.44,7.41,17.29a9.52,9.52,0,0,0-.08-1.61c-.47-3.67-.91-7.4-1.29-11.1a5.81,5.81,0,0,1,.11-2.43,2.66,2.66,0,0,1,2.38-1.93,1,1,0,0,1,1,.65,61.79,61.79,0,0,1,2.17,7.41c.3,1.21.61,2.44,1,3.68.53-1.73,1.11-3.48,2.5-4.62a1,1,0,0,1,1.41.14,1,1,0,0,1-.14,1.4c-1,.81-1.44,2.3-1.92,3.87a16.62,16.62,0,0,1-1,2.77,1,1,0,0,1-1.83-.12c-.79-2.23-1.35-4.47-1.89-6.64-.48-2-1-4-1.66-6a4.16,4.16,0,0,0,0,1.58c.38,3.68.81,7.41,1.28,11.06.14,1.07.5,3.91-1.52,5.17a1,1,0,0,1-.85.1,1,1,0,0,1-.62-.6c-2.38-6.51-5.12-13-8.12-19.23a2.14,2.14,0,0,0-.43-.65,1.83,1.83,0,0,0-.06.65c.12,3.33,1.17,6.49,2.28,9.84,1.21,3.63,2.46,7.39,2.39,11.33a1,1,0,0,1-.52.87A1,1,0,0,1,1330.18,679.53Z" fill="url(#a)"/><path d="M1309.76,626.83s3.48,58.75,3.54,60.35c0,6.58,30.54,6.58,30.32.5,0,0,3.32-59.08,3.27-60.36" fill="none" stroke="#1e1e1e" stroke-linecap="round" stroke-linejoin="round" stroke-width="2"/><path d="M1347.73,625.63l.06,12.35c0,6.9-38.44,6.89-38.47.08L1309,626.9" fill="#fff" stroke="#1e1e1e" stroke-linecap="round" stroke-linejoin="round" stroke-width="2"/><path d="M1348.59,623.59l-.25,2.7c0,6.9-39.86,6.67-39.86-.14l-.32-2.7" fill="#fff" stroke="#1e1e1e" stroke-linecap="round" stroke-linejoin="round" stroke-width="2"/><path d="M1308.16,623.64c0,5.8,40.43,6.05,40.42.18S1308.15,617.85,1308.16,623.64Z" fill="#fff" stroke="#1e1e1e" stroke-linecap="round" stroke-linejoin="round" stroke-width="2"/><ellipse cx="1328.07" cy="623.71" rx="3.83" ry="1.18" fill="#1e1e1e"/><path d="M1326.84,623.71c-.19-6.86-1.75-22.62-1.75-22.62l2.21-.8,1.69,23.33" fill="#fff" stroke="#1e1e1e" stroke-linecap="round" stroke-linejoin="round" stroke-width="2"/></svg>