<svg xmlns="http://www.w3.org/2000/svg" width="400" height="800" viewBox="0 0 400 800"><defs><clipPath id="a"><path fill="none" d="M0 0h14v8H0z"/></clipPath><clipPath id="b"><path fill="none" d="M0 0h14.68v8.16H0z"/></clipPath><pattern id="c" width="14" height="8" patternTransform="translate(-26.28 -1.65)" patternUnits="userSpaceOnUse" viewBox="0 0 14 8"><path fill="none" d="M0 0h14v8H0z"/><g clip-path="url(#a)" fill="#b70433"><ellipse rx="3" ry="2.85"/><ellipse cx="14" rx="3" ry="2.85"/><ellipse cx="14" cy="8" rx="3" ry="2.85"/><ellipse cy="8" rx="3" ry="2.85"/><ellipse cx="7" cy="4" rx="3" ry="2.85"/></g></pattern><pattern id="d" width="14.68" height="8.16" patternTransform="matrix(.99 0 0 .99 -40.19 .66)" patternUnits="userSpaceOnUse" viewBox="0 0 14.68 8.16"><path fill="none" d="M0 0h14.68v8.16H0z"/><g clip-path="url(#b)" fill="#683c1d"><circle r="2.98"/><circle cy="8.16" r="2.98"/><circle cx="14.68" r="2.98"/><circle cx="14.68" cy="8.16" r="2.98"/><circle cx="7.33" cy="4.08" r="2.98"/></g></pattern></defs><path d="M311.2 375.73a399.18 399.18 0 00-9.2-61.51c9.62-74.22-1.39-131.48-32.71-170.22a129.8 129.8 0 00-58.91-41.1C184.56 58.72 152 32 113.43 23.49 70.31 14 19.11 30-1 40.37c-1.55-.6-4-2-7.69-3.76v551.87l257.25-7a1 1 0 00.73-.35 257.08 257.08 0 0053.61-104.45c7.93-31.34 10.72-65.3 8.3-100.95z" fill="#f7e303"/><path d="M248.52 480.67c-1.27-27.28-3.38-54.65-4.75-81.35-7.53-37.47 1-55.08-16.25-101.3-17.93-47.1-24-63.63-74.44-74.35C133.7 219.55 43.15 161.93 36.81 159c-18.57 25.23-51.18 63.87-91 70.32 0 0 48-44 21.12-59.15 0 0-26.3 44.17-86.33 59.15 0 0 17.44-18.93 10.26-26.82 0 0-96.57 17.08-122.82 133.63 1.7 17 4.76 33.55 2.9 48.43h-.92c-3.31 26.76-5.77 51.38-7.36 74.09l.19 9.24c-.2 3.25-.39 6.46-.55 9.64l.76-.12 1.85 86.82c.07 8.74.65 18.6 1.7 29.36 11.16 61.42 37.74 100.6 80.94 134.35 123 106.35 294.57 32.54 317.33.83 57.88-42.65 77.87-101.5 83.1-165.54v-2.65z" fill="#e4e9df"/><path d="M248.52 480.67c-1.27-27.28-3.38-54.65-4.75-81.35-7.53-37.47 1-55.08-16.25-101.3-17.93-47.1-24-63.63-74.44-74.35C133.7 219.55 43.15 161.93 36.81 159c-18.57 25.23-51.18 63.87-91 70.32 0 0 48-44 21.12-59.15 0 0-26.3 44.17-86.33 59.15 0 0 17.44-18.93 10.26-26.82 0 0-96.57 17.08-122.82 133.63 1.7 17 4.76 33.55 2.9 48.43h-.92c-3.31 26.76-5.77 51.38-7.36 74.09l.19 9.24c-.2 3.25-.39 6.46-.55 9.64l.76-.12 1.85 86.82c.07 8.74.65 18.6 1.7 29.36 11.16 61.42 37.74 100.6 80.94 134.35 123 106.35 294.57 32.54 317.33.83 57.88-42.65 77.87-101.5 83.1-165.54v-2.65z" fill="url(#c)"/><path d="M187.24 522.26c-24.64-22.69-55.8 27.37-71 14.26-26.12-22.52-67.06-10.17-67.06-10.17C22 507.78 18 525.5 1.16 524.21a25.75 25.75 0 00-5.5.15v61.08c6.34 2 12.84 3.94 18.18 3.94 12.35 0 31.41-15.26 47.37-4.89S106.7 617.12 114 618c14.64 1.68 1 19.88-13.25 10.43-9.71-6.42-4.26 0-4.26 0-26.58 20.55-73.26 18.36-73.26 18.36s46.68 8.43 43.83 20.1c-1.94 7.87-44.75 22.11-71.4 38.89v46.81c32 16.46 93.44 24.33 131.48.42 52.72-33.12 84.74-208.01 60.1-230.75z" fill="#fff"/><path d="M226 458.9s9.29 181.36-49.67 260.25c0 0 47.48-42.47 62.49-94.09s5-225.74 5-225.74L226 458.9M67 473.21c-12.58-22.62-36.14-111.84-36.14-111.84l-35.2 3.37v96.31c16.93 3 39.78 15.18 34.7 29.83-5.76 16.57 24 26 38.75 21.14 4.81-1.58 10.56-16.19-2.11-38.81zM176.65 327.32s24.46 56 16 59.45-27.56-10.46-25.7-3 31.74 38.68 40.34 27.57-9.06-88.07-9.06-88.07z" fill="#fff"/><path d="M169.79 251.9c3.32 13.06 35 58.47 30 71.32s18.78 16.08 10.9-9-44.22-75.38-40.9-62.32zM110.73 323.22s21.58 11.2 21.58 26.94L123 383.89s-32.79 22.5-23.29 41.28c16.08 31.74 78.74 33.38 76.09 62.15l-39.46.15c-39.45.15-70.5-9.7-76.18-29.77s-29.3-102.92-29.3-102.92l46-25.6z" fill="#fff"/><path d="M204.51 330.84s29.51 83.71 5 138.88 34.27-70.4 34.27-70.4l-5-64zM45.84 492.54c5.68 5.68 7.64 12.92 4.39 16.18S39.72 510 34 504.34c-1-1 .11-4.84-.65-5.9-3.56-5-6.41-7.6-3.73-10.29 3.3-3.25 10.54-1.29 16.22 4.39z" fill="#222229"/><path d="M61.9 473.72s24.67 35.68-8.27 46.9c-15.15 5.16 9.31 2.44 9.31 2.44s23-8.53 7.92-44.5c-28.04-66.64-8.96-4.84-8.96-4.84z" fill="#222229"/><path d="M248.56 379.12l-1.12 179.6c1 128.49-108 223.22-242.21 223.22q-9.54 0-18.88-.61" fill="none" stroke="#222229" stroke-miterlimit="10" stroke-width="8"/><path d="M108 627.57s-8 4.22-25.11-6.56-25.64-16.68-48-11.71c-14.58 3.24-24.38 3.16-24.38 3.16s-9.8.08-24.38-3.16" fill="none" stroke="#222229" stroke-linecap="round" stroke-miterlimit="10" stroke-width="8"/><path d="M1 37.94a104.15 104.15 0 00-9.64-5.06v9.6c4.11 1.67 6.5 2.76 6.64 2.82a4 4 0 005.16-2.2A4 4 0 001 37.94z" fill="#222229"/><path d="M213.09 101.65c-26.28-45.08-59.59-72.35-99-81.07C63.34 9.37 10.48 32-8.66 41.66V55c24.29-12.8 77.09-36.36 121-26.65 37.18 8.22 68.76 34.23 93.87 77.31a4 4 0 006.86-4z" fill="#222229"/><path d="M301.05 318.15h-.52a4 4 0 01-3.42-4.44c9.42-72.78 3.28-132.89-31.57-166.42-41.2-39.65-97.41-54.19-95.22-54 2 .16 66.5 5.86 101.28 48.88 31.86 39.4 43.09 97.46 33.38 172.55a4 4 0 01-3.93 3.43z" fill="#222229"/><path d="M248.56 584.5a3.94 3.94 0 01-2.57-1c-1.67-1.42.61-18.67 2-20.34 25.14-29.56 40.35-49.3 50.08-87.75 7.8-30.82 9-64.27 6.66-99.39-4.07-59.9-20.4-109.12-18.37-109.94a4 4 0 015.16 2.19c.19.45 18.45 46.06 22.62 107.21 2.44 36-.38 70.24-8.38 101.88a260.1 260.1 0 01-54.18 105.74 4 4 0 01-3.02 1.4zM54 118.71c-2.48 1.77-29.29 49.72-62.67 80.7v11.74C27.87 182.74 57 137.61 59 135.22c8-9.55 3.67-22.69-5-16.51z" fill="#222229"/><path d="M229.07 335.43a179.66 179.66 0 00-8.39-46.72c-10.34-31.42-27.85-50.37-52.05-56.32-62-15.24-131.31-68-134.23-70.26a4 4 0 014.83-6.3c.17.14 17.9 13.68 42.9 28.88 23 14 56.94 32.24 88.39 40 26.7 6.56 53.67 27.39 64.76 61.21 8.22 25.09 13.22 48.5 13.24 49.46.04 2.17-19.41 2.22-19.45.05z" fill="#222229"/><path d="M235.28 307s30.14 66.23 57.81 84.2c0 3.57-52.55-26.06-56-64.09S235.28 307 235.28 307z" fill="#222229"/><path d="M238.81 341.49s30.14 66.23 57.82 84.2c0 3.57-52.16-21.75-55.61-59.78s-2.21-24.42-2.21-24.42zM68.32 140.46s46.53 56 76.62 57.44 58.76 39 58.76 39-10.42-41.24-50.22-50.27c-33.69-7.63-85.16-46.17-85.16-46.17zM218.4 184.07s6.4-71.85-78.18-87.22c0 0 46.1 18.74 78.18 87.22zM271 455.84s-.25 68.37-22.39 83.21v37.1s21.69-21.32 26.14-37.63 2.55-68.37-3.75-82.68zM96.49 50.67s-41-25.86-76.14 20c0 .01 32.53-27.27 76.14-20zM31.35 412.27S-3 348.93 49.76 297.56c0 0-25.34 39.44-18.41 114.71z" fill="#222229"/><path d="M17.32 369.15S3 333 34.61 308.83c0 0-16.13 19.49-17.29 60.32zM-13.65 513.29v5c27.08 25.24 40.4-5 40.4-5-17.83 16.51-40.4 0-40.4 0z" fill="#222229"/><path d="M85.46 358.62l35-16.89 49.89 28.92s-12.47 21.33-38 19.78-50-15.28-50-15.28l-6-8.31z" fill="#fff"/><circle cx="123.04" cy="364.47" r="19.43" fill="url(#d)"/><circle cx="123.04" cy="364.47" r="19.43" fill="none" stroke="#222229" stroke-miterlimit="10" stroke-width="5"/><circle cx="123.04" cy="361.37" r="10.26" fill="#222229"/><path d="M84.54 374.88c.39.09 4.34 1.07 23.73 10 12.78 5.89 26.8 3.77 36.65.78l19.7-8.8c.25-.16.59 0 .93.24 3.17.83 13.41 3.55 13.64 4.51.27 1.12-5.57.51-5.57.51l-1.52 4.93-9.1-4.58c-.89.48-1.92 1-3.08 1.59l6.44 3.83-10.23-2.08-.5.22 4.24 4.75-7.61-3.38c-1.26.49-2.57 1-3.94 1.42l3 2.84-6.82-1.66c-.81.23-1.61.44-2.42.63l2.51 2.55-6-1.76a61 61 0 01-16.73 1.07 45.24 45.24 0 01-15.26-3.93c-18.75-8.63-22.71-9.67-22.91-9.72a2 2 0 01.87-3.95zM119.79 338.87c19.79.21 62.64 27.79 59.41 28.1 0 0-3.25 13.38-21.07-.18s-22-16.08-22-16.08-25.39-8-57.74 16.54c-2.89 2.18-2.36-1.08-3.62-.31-1.48-.12 25.23-28.28 45.02-28.07z" fill="#222229"/><path d="M84.77 375.91s-8.3-5.06-5.64-10.63-3.07 1.25-3.07 1.25 3 11.29 6.72 11 1.99-1.62 1.99-1.62z" fill="#222229"/><path fill="#fff" d="M133.709 350.838l2.312 2.313-7.955 7.955-2.312-2.313zM267.48 326.31l-33.37-7.17c-17.71-5-50.78-8-70.52-9.05-20.6-1.12-71.52-2.71-99.22 6.53a70.87 70.87 0 00-17.49 8.43l-.14.1c-.37.26-.75.51-1.11.77a76.44 76.44 0 01-40.15 12A58.11 58.11 0 01-5.28 337v10.59c20.19 1.62 42.68 3.36 53.37 4.14 0 0 10.68-12.36 22.54-16.32 16.9-5.63 51.08-7.71 91.41-5.56 33.56 1.78 107.79 16.25 107.79 14.34l1.17-14.41c0-1.91-1.55-3.05-3.52-3.47z"/><path d="M59.31 335.36s-13.21 28-9.48 43.76c5.05 21.29 15.29 90 49.92 102.38l-18.43-5.95L56.34 444l-22-69L48 342.33zM257.8 367.53c1-10.94 12.4-5.49 13-9.27s-.65-15.77-.16-23.91c.25-4.37-26.53 7.49-26.53 7.49s13.13 31.64 13.69 25.69zM199.08 487.47l-4.64-7.62c13.56-8.28 31.56-50.75 35.14-95.22 1.39-17.12-1.94-30-9.91-38.34-10.23-10.67-24.74-10.23-24.88-10.23l-.34-8.92c.75 0 18.69-.56 31.67 13 9.81 10.23 14 25.46 12.35 45.24-3.64 44.55-21.68 91.31-39.39 102.09z" fill="#fff"/><path d="M267.48 331.27l-33.37-7.17c-17.71-5-50.78-8-70.52-9.05-20.6-1.12-71.52-2.71-99.22 6.53a70.87 70.87 0 00-17.5 8.42l-.14.1c-.37.26-.75.51-1.11.77a76.44 76.44 0 01-40.15 12A59 59 0 01-5.28 342V370.98a17.82 17.82 0 0110.73-3.47c15.75 0 20.48 19.91 20.48 19.91.6 3.45 1.3 6.45 1.86 8.82l.12.53a248.13 248.13 0 0016.14 48c12.63 27.1 28.44 43.9 47 49.93 15 4.87 35.43 7.35 56 7.35 32 0 64.19-6 76.51-18.32 16.58-16.59 32.36-70.51 33.87-109.75a16.7 16.7 0 00.12-2.15c0-19.32 10-18.77 10-18.77a3.48 3.48 0 003.47-3.47v-14.85c-.02-1.91-1.57-3.05-3.54-3.47zm-58 138.45c-4.69 4.69-21 10.22-46.89 12-24.13 1.66-49.2-.59-65.42-5.86-20.62-6.71-39.29-37.95-49.93-83.6l-.13-.54c-4.57-19.52-6.89-41.2 23.5-51.33 16.9-5.63 51.08-7.71 91.41-5.57 38.22 2 67.63 3.92 71.64 23.5 6.94 33.88-10.04 97.28-24.16 111.4z" fill="#222229"/></svg>