<svg xmlns="http://www.w3.org/2000/svg" xmlns:xlink="http://www.w3.org/1999/xlink" width="400" height="800" viewBox="0 0 400 800"><defs><linearGradient id="a" x1="-194.23" y1="594.51" x2="192.92" y2="269.65" gradientUnits="userSpaceOnUse"><stop offset="0" stop-color="#ee2ed3"/><stop offset="1" stop-color="#0acbff"/></linearGradient></defs><title>right-helmet</title><rect x="276.78" y="371.9" width="62.94" height="170.86" rx="19.32" stroke-width="8" stroke="#222229" stroke-linecap="round" stroke-linejoin="round" fill="#d9e6e8"/><g opacity="0.7"><path d="M-.79,233.67c-414.8,13.85-328.78,397.1-9.4,417.89C90.7,655.52,191.39,606.37,246,530.9,363.24,366.9,180,232.13-.79,233.67Z" fill="url(#a)"/></g><g opacity="0.2"><path d="M-7.5,605c.18,17.22.13,34.44-.38,51.64,119.33-4.46,196.74-86.51,196.74-86.51C164.32,594.55,79.28,614.93-7.5,605Z" fill="#222229"/></g><g opacity="0.4"><path d="M-7.41,624.3q0,13.2-.3,26.39C36,647.85,74.6,635.13,104.58,621.33,73.24,627.47,33.74,629-7.41,624.3Z" fill="#fff"/><path d="M171,581.24s-25.07,21.06-66.42,40.09C142.73,613.85,168.79,599.53,171,581.24Z" fill="#fff"/></g><g opacity="0.5"><path d="M-10.31,234.17v60.77c234.87,40.35,257.43,276.45,257.43,276.45C362.08,367.69,173.77,234.08-10.31,234.17Z" fill="#222229"/></g><path d="M0,27.31c-3,0-6,0-8.9.08v226q4.43-.09,8.9-.09c145.09,0,263.9,77.72,263.9,166.88C263.9,536.41,145.09,640.72,0,640.72c-3,0-5.95-.06-8.9-.14V793.87c3,.1,5.92.16,8.9.16,170.24,0,308.25-171.64,308.25-383.36C308.25,231.17,275,27.31,0,27.31Z" fill="#fff"/><g opacity="0.3"><path d="M260.06,353.74c-14.54-23.26-35.19-44.22-61.39-62.31-26-18-56.07-32.11-89.35-42.06A383.41,383.41,0,0,0,.93,233.61H-.79c-4.13,0-8.23.07-12.32.18v16.89q6.12-.18,12.32-.18H.85c145.09.54,263.5,84.23,263,179.72C263.42,529.89,144.66,639.92.06,639.92H-1c-3.44,0-6.86-.11-10.27-.24.07,5.63.12,11.27.2,16.91,3.32.12,6.65.2,10,.22H.06a309.55,309.55,0,0,0,109.63-20.1,309.14,309.14,0,0,0,89.41-52c25.36-21.19,46.39-46.18,60.82-72.27,14.94-27,22.91-55.43,23-82.18C283.08,404,275.38,378.24,260.06,353.74Z" fill="#222229"/></g><path d="M183.8,567.53A286.34,286.34,0,0,1,101,615.32,287.22,287.22,0,0,1,0,633.72c-3,0-5.94-.06-8.9-.16v8c3,.09,5.93.15,8.9.15a295.16,295.16,0,0,0,103.85-18.91,294,294,0,0,0,85.06-49.13c24.1-20,44-43.57,57.66-68.12,13.95-25.16,21.33-51.5,21.33-76.18,0-23.88-7.22-47.29-21.46-69.59C232.76,338.36,213.3,319,188.6,302.3,137.49,267.71,70.51,248.66,0,248.66c-3,0-5.94,0-8.9.1v8c3-.06,5.92-.1,8.9-.1,68.93,0,134.32,18.56,184.12,52.27,23.79,16.1,42.49,34.66,55.58,55.16,13.4,21,20.2,43,20.2,65.29C259.9,476.31,231.45,528,183.8,567.53Z" fill="#222229"/><path d="M260.72,149.67C237.63,110,205.78,79.26,166.06,58.42,121.62,35.12,65.76,23.31,0,23.31c-3,0-5.95,0-8.9.08v8c3-.05,5.91-.08,8.9-.08,64.45,0,119.07,11.5,162.34,34.2,38.37,20.12,69.15,49.79,91.47,88.18,44.71,76.89,50.44,177.72,50.44,257,0,101.49-31.75,196.87-89.4,268.57C157.4,750.68,81.1,790,0,790q-4.45,0-8.9-.17v8c3,.1,5.93.16,8.9.16,42.27,0,83.26-10.29,121.85-30.59,37.19-19.56,70.58-47.55,99.23-83.19,58.79-73.11,91.17-170.28,91.17-273.58C312.25,330.41,306.39,228.21,260.72,149.67Z" fill="#222229"/><path d="M245.91,286.79C195.29,226.46,112.55,195.87,0,195.87c-3.95,0-7.85,0-11.72.11v8c3.87-.07,7.77-.12,11.72-.12,255.65,0,293.83,159.74,293.83,255,0,53-31.33,107.24-85.94,148.87-27.38,20.86-58.86,37.35-93.55,49A358.72,358.72,0,0,1,0,675.21c-3.91,0-7.82-.08-11.72-.2v8c3.9.12,7.81.2,11.72.2a366.6,366.6,0,0,0,116.89-19c35.52-11.92,67.77-28.81,95.85-50.21,56.61-43.15,89.09-99.73,89.09-155.23C301.83,410.73,292.12,341.85,245.91,286.79Z" fill="#222229"/><line x1="0.05" y1="715.35" x2="0.05" y2="768.75" fill="#d9e6e8" stroke="#222229" stroke-linecap="round" stroke-linejoin="round" stroke-width="8"/><line x1="16.32" y1="722.92" x2="16.32" y2="761.18" fill="#d9e6e8" stroke="#222229" stroke-linecap="round" stroke-linejoin="round" stroke-width="8"/><line x1="31.8" y1="731.62" x2="31.8" y2="753.59" fill="#d9e6e8" stroke="#222229" stroke-linecap="round" stroke-linejoin="round" stroke-width="8"/><circle cx="95.91" cy="720.14" r="13.34" fill="#b22b4b"/><circle cx="132.41" cy="704.47" r="13.34" fill="#389e26"/><circle cx="166.95" cy="685.33" r="13.34" fill="#3987bc"/></svg>