<svg xmlns="http://www.w3.org/2000/svg" width="400" height="800" viewBox="0 0 400 800"><path d="M0 22.31h-4.25v757H0c209.05 0 378.52-169.47 378.52-378.52S209.05 22.31 0 22.31z" fill="#b28c3f"/><path d="M0 42.31a356.19 356.19 0 01139.54 28.17 357.27 357.27 0 01114 76.84 357.39 357.39 0 0176.84 114 356.28 356.28 0 0128.17 139.55 356.19 356.19 0 01-28.17 139.54 357.43 357.43 0 01-76.84 114 357.43 357.43 0 01-114 76.84A356.19 356.19 0 010 759.35h-6.48l-1-717H0m0-20h-27.49l1 757H-.03c209.05 0 378.52-169.47 378.52-378.52S209.05 22.31 0 22.31z" fill="#997330"/><path d="M-27.49 23.3q13.62-1 27.49-1c209.05 0 378.52 169.47 378.52 378.52S209.05 779.35 0 779.35c-3.25 0-6.49-.05-9.73-.13" fill="none" stroke="#222229" stroke-miterlimit="10" stroke-width="8"/><path d="M345.43 337.94c-3.38-10.46-10.84-20.6-19.1-28.79-77.57-63.24-49.89-79.38-85.23-133.94-22.69-27.56-53.16-36-66.76-44.09C109.12 74.44 63.89 80-4.25 88.76V729.6C146.13 650.89 183 739.75 265.89 599.86c61.05-96.79 59.78-97.56 64.07-165.24 4.37-32.48 25.61-65.15 15.47-96.68z" fill="#ea2d2d"/><path d="M323.84 439.1c-3.95-27.82-11.82-55.29-13.19-83.25-.72-14.76.37-29.61-2.21-44.24-5.55-31.36-27.22-58.07-50-81.27-25.07-25.5-44.18-53.33-71.48-76.5-22.41-19-53.32-33.6-79.44-47.14S51.1 85.63 22.9 91.61c0 0-16.8 2.78-26.51 1.87l-.64-.06v639.94c38.68 3.33 76.63-7.87 113.28-19.13 15.92-4.89 32.19-10 45.26-20 27.94-21.37 45.93-58.8 68.19-85.83 28.46-34.55 53.84-47.77 76.23-86.5 13.83-23.9 29.08-54.99 25.13-82.8z" fill="#ffd56c"/><circle cx="143.14" cy="210.29" r="48.48" fill="#aa1b1b"/><circle cx="240.1" cy="419.66" r="48.48" fill="#aa1b1b"/><circle cx="143.14" cy="602.48" r="48.48" fill="#aa1b1b"/><circle cx="112.06" cy="346.3" r="48.48" fill="#aa1b1b"/><path d="M8.37 419.66a48.16 48.16 0 00-12.62 1.67V515a48.48 48.48 0 1012.62-95.34z" fill="#aa1b1b"/><circle cx="33.83" cy="166.47" r="2.68" fill="#222229"/><circle cx="78.99" cy="279.49" r="2.68" fill="#222229"/><circle cx="236.81" cy="282.17" r="2.68" fill="#222229"/><circle cx="137.13" cy="436.41" r="2.68" fill="#222229"/><circle cx="198.74" cy="528.03" r="2.68" fill="#222229"/><circle cx="60.9" cy="556.81" r="2.68" fill="#222229"/><circle cx="79.69" cy="688.33" r="2.68" fill="#222229"/><path d="M-27.27 131.1s34 10.77 37.52 67.65M93.37 438s11.16-33.89 68.07-36.74M58.72 659.75s4.64-35.38 60-48.8M253.11 491.72s-32 15.89-26.63 72.63M166.33 221.32s33.82-11.37 70.19 32.5" fill="none" stroke="#369e23" stroke-miterlimit="10" stroke-width="7"/><circle cx="62.45" cy="223.33" r="13.04" fill="none" stroke="#222229" stroke-miterlimit="10" stroke-width="10"/><circle cx="8.37" cy="679.77" r="13.04" fill="none" stroke="#222229" stroke-miterlimit="10" stroke-width="10"/><circle cx="288.58" cy="477.48" r="13.04" fill="none" stroke="#222229" stroke-miterlimit="10" stroke-width="10"/><circle cx="8.37" cy="352.35" r="2.68" fill="#222229"/><circle cx="34.45" cy="418.46" r="13.04" fill="none" stroke="#222229" stroke-miterlimit="10" stroke-width="10"/></svg>