<svg xmlns="http://www.w3.org/2000/svg" xmlns:xlink="http://www.w3.org/1999/xlink" width="400" height="800" viewBox="0 0 400 800"><defs><clipPath id="a"><path d="M197,553.45c-17.06,0-28.6-5.85-29.39-6.26l10.17-19.51-.08,0c.92.46,22.8,11,49.31-5,25.4-15.4,46.61-49.27,63-100.65,22.39-70.06,34.9-170.85,37.19-299.56l22,.39c-2.34,131.4-15.3,234.61-38.53,306.76-18.2,56.55-42.76,94.34-73,112.3C222.72,550.76,208.61,553.45,197,553.45Z" fill="none"/></clipPath></defs><title>right-cyborg</title><path d="M234,473.67S364.08,722.91,377.81,76" fill="none" stroke="#222229" stroke-miterlimit="10" stroke-width="8"/><path d="M227.75,420.37s57.41,85,57.41-344.41" fill="none" stroke="#222229" stroke-miterlimit="10" stroke-width="8"/><path d="M205.38,388.77S311.53,393.42,311.53,76" fill="none" stroke="#222229" stroke-miterlimit="10" stroke-width="8"/><g clip-path="url(#a)"><path d="M197,553.45c-17.06,0-28.6-5.85-29.39-6.26l10.17-19.51-.08,0c.92.46,22.8,11,49.31-5,25.4-15.4,46.61-49.27,63-100.65,22.39-70.06,34.9-170.85,37.19-299.56l22,.39c-2.34,131.4-15.3,234.61-38.53,306.76-18.2,56.55-42.76,94.34-73,112.3C222.72,550.76,208.61,553.45,197,553.45Z" fill="#222229"/><rect x="270.04" y="468.84" width="3" height="48.45" transform="translate(-286.06 570.05) rotate(-69.02)" fill="#fff"/><rect x="257.46" y="489.06" width="3" height="48.45" transform="translate(-315.92 508) rotate(-62.7)" fill="#fff"/><rect x="237.08" y="506.4" width="3" height="48.45" transform="matrix(0.63, -0.77, 0.77, 0.63, -323.23, 379.45)" fill="#fff"/><rect x="214.37" y="516.49" width="3" height="48.45" transform="translate(-247.3 187.95) rotate(-30.94)" fill="#fff"/><rect x="298.6" y="402.59" width="3" height="48.45" transform="translate(-157.81 676.91) rotate(-83.53)" fill="#fff"/><rect x="315.13" y="141.99" width="48.45" height="3" transform="translate(-0.26 0.63) rotate(-0.11)" fill="#fff"/><rect x="315.17" y="163.87" width="48.45" height="3" transform="translate(-0.3 0.63) rotate(-0.11)" fill="#fff"/><rect x="315.21" y="185.75" width="48.45" height="3" transform="translate(-0.34 0.63) rotate(-0.11)" fill="#fff"/><rect x="315.25" y="207.63" width="48.45" height="3" transform="translate(-0.38 0.63) rotate(-0.11)" fill="#fff"/><rect x="315.29" y="229.51" width="48.45" height="3" transform="translate(-0.42 0.63) rotate(-0.11)" fill="#fff"/><rect x="315.33" y="251.39" width="48.45" height="3" transform="translate(-0.47 0.63) rotate(-0.11)" fill="#fff"/><rect x="309.78" y="273.28" width="48.45" height="3" transform="translate(-0.51 0.62) rotate(-0.11)" fill="#fff"/><rect x="300.79" y="295.18" width="48.45" height="3" transform="translate(-0.55 0.6) rotate(-0.11)" fill="#fff"/><rect x="322.01" y="294.33" width="3" height="48.45" transform="translate(-11.06 625.47) rotate(-87.09)" fill="#fff"/><rect x="318.71" y="316.45" width="3" height="48.45" transform="translate(-40.45 638.19) rotate(-86.29)" fill="#fff"/><rect x="308.5" y="337.71" width="3" height="48.45" transform="translate(-71.22 647.89) rotate(-86.29)" fill="#fff"/><rect x="307.08" y="359.55" width="3" height="48.45" transform="translate(-94.33 666.9) rotate(-86.29)" fill="#fff"/><rect x="301.06" y="380.85" width="3" height="48.45" transform="translate(-134.02 660.07) rotate(-83.53)" fill="#fff"/><rect x="288.22" y="425.17" width="3" height="48.45" transform="matrix(0.17, -0.98, 0.98, 0.17, -203.23, 656.5)" fill="#fff"/><rect x="281.02" y="447.16" width="3" height="48.45" transform="matrix(0.28, -0.96, 0.96, 0.28, -248.63, 612.42)" fill="#fff"/></g><path d="M244.78,455.75c-1.28-27.5,1.27-144.56-1.47-194.22-4.2-76-34.54-226.77-244.55-226.77q-3.37,0-6.69.05V760.93c82.2,1,154.17-35.18,168.4-55,58.37-43,78.53-102.36,83.8-166.93q0-1.35,0-2.67Z" fill="#bf9f17"/><path d="M-1.24,101.57s-2.43-.22-6.69-.3V337.8c16.53,1.91,50.52-21.54,50.52-21.54S29.34,284.4,55.9,272.58s45.15-1.69,62-15.21S82.05,116.73-1.24,101.57Z" fill="#fff" opacity="0.5"/><path d="M222.06,433.8S231.42,616.69,172,696.24c0,0,47.88-42.83,63-94.88s5-227.63,5-227.63L222.06,433.8" fill="#fff" opacity="0.5"/><path d="M183,497.7c-24.84-22.89-56.26,27.6-71.58,14.38-26.35-22.75-67.63-10.26-67.63-10.26-27.4-18.73-31.43-.85-48.43-2.16a27.61,27.61,0,0,0-3.27-.06v62.53c5.66,1.77,11.32,3.25,16.06,3.25,12.45,0,31.67-15.39,47.77-4.93s45.86,32.9,53.2,33.74c14.77,1.69,1.06,20-13.35,10.52-9.8-6.47-4.3,0-4.3,0-26.8,20.72-73.88,18.51-73.88,18.51s47.08,8.5,44.21,20.27C59.89,651.26,19,665-7.93,681.35v49.74c32.87,15.82,92.84,22.84,130.31-.7C175.54,697,207.83,520.58,183,497.7Z" fill="#fff" opacity="0.5"/><path d="M61.78,448.24c-12.73-22.81-33-119.42-33-119.42l-36.73,8v99.57c16.77,3.65,37.62,15.51,32.71,29.63C19,482.77,49,492.25,63.86,487.37,68.71,485.78,74.51,471.05,61.78,448.24Z" fill="#fff" opacity="0.5"/><path d="M172.3,301.12s24.67,56.47,16.15,59.95-27.79-10.54-25.92-3.07,32,39,40.68,27.8S194.08,297,194.08,297Z" fill="#fff" opacity="0.5"/><path d="M165.38,225.07c3.35,13.16,35.26,59,30.24,71.91s18.93,16.22,11-9.11S162,211.9,165.38,225.07Z" fill="#fff" opacity="0.5"/><path d="M105.83,297s21.76,11.29,21.76,27.17l-9.34,34S101.79,365,123,364.63,189.38,388,186.7,417s-15.21,45.5-55,45.64-71.1-9.78-76.82-30S25.3,328.82,25.3,328.82L71.68,303Z" fill="#fff" opacity="0.5"/><path d="M200.4,304.67s29.76,84.42,5,140.05,34.56-71,34.56-71l-5-64.5Z" fill="#222229"/><circle cx="118.25" cy="338.58" r="19.59" fill="#f22f7e"/><circle cx="118.25" cy="335.45" r="10.34" fill="#222229"/><path d="M67.33,355.23h.1l22.44-.5s-13.15-8-5.18-16.22c4.11-4.23,11.11-10.89,23-12.64,25.58-3.76,49.21,16.48,49.45,16.69,0,0-21.86-29.35-51.48-25C88.82,320.06,75.11,330,63.53,348.33a4.5,4.5,0,0,0,3.8,6.9Z" fill="#222229"/><ellipse cx="34.45" cy="473.67" rx="8.41" ry="14.66" transform="translate(-324.85 163.1) rotate(-45)" fill="#222229"/><path d="M26.71,461.92c-3.75.7-13.68,4.42-14.48,12.84-.68,7.13-5.2,10.63-10.62,10.63a9.94,9.94,0,0,1-9.54-6.19v8a26.87,26.87,0,0,0,9.54,2.1c11.26,0,22.74-12,30.38-6.85Z" fill="#222229"/><path d="M56.59,448.74s24.88,36-8.34,47.3,45.65,24.78,17.37-42.42S56.59,448.74,56.59,448.74Z" fill="#222229"/><circle cx="127.59" cy="335.45" r="4.58" fill="#fff"/><path d="M188.39,572.55c-17.29,13.92-85.34,31.34-85.34,31.34s-8.12,4.25-25.32-6.61-25.86-16.82-48.38-11.81c-14.71,3.27-24.59,3.18-24.59,3.18s-9.88.09-24.59-3.18" fill="none" stroke="#9b800e" stroke-miterlimit="10" stroke-width="8"/><line x1="-0.02" y1="34.76" x2="-0.02" y2="759.56" fill="none" stroke="#9b800e" stroke-miterlimit="10" stroke-width="8"/><circle cx="12.22" cy="85.23" r="2.68" fill="#9b800e"/><circle cx="12.22" cy="131.87" r="2.68" fill="#9b800e"/><circle cx="12.22" cy="178.52" r="2.68" fill="#9b800e"/><circle cx="12.22" cy="225.16" r="2.68" fill="#9b800e"/><circle cx="12.22" cy="271.81" r="2.68" fill="#9b800e"/><circle cx="12.22" cy="626.94" r="2.68" fill="#9b800e"/><circle cx="12.22" cy="673.59" r="2.68" fill="#9b800e"/><circle cx="12.22" cy="720.23" r="2.68" fill="#9b800e"/><circle cx="12.22" cy="383.61" r="2.68" fill="#9b800e"/><circle cx="12.22" cy="430.26" r="2.68" fill="#9b800e"/><circle cx="12.22" cy="510.58" r="2.68" fill="#9b800e"/><circle cx="12.22" cy="557.23" r="2.68" fill="#9b800e"/><path d="M244.82,463.93s-49.21,32.77-54.58,90.62S171.47,696,137.84,721.66" fill="none" stroke="#9b800e" stroke-miterlimit="10" stroke-width="8"/><path d="M189.54,113.66s-53.83,132.7-83.23,134.14S0,247.8,0,247.8" fill="none" stroke="#9b800e" stroke-miterlimit="10" stroke-width="8"/><path d="M-6.34,34.79q2.53,0,5.1,0c200.64,0,245,138.67,246,268.24" fill="none" stroke="#222229" stroke-miterlimit="10" stroke-width="8"/><path d="M244.82,353.36l-1.13,181.1C244.67,664,134.8,759.56-.55,759.56q-3.37,0-6.72-.08" fill="none" stroke="#222229" stroke-miterlimit="10" stroke-width="8"/><path d="M263.89,300.1l-33.65-7.23h0c-17.86-5.07-51.21-8.06-71.11-9.14C138.35,282.62,87,281,59.07,290.33a71.3,71.3,0,0,0-17.63,8.51v0a1,1,0,0,1-.14.11c-.37.25-.75.51-1.11.77A77.06,77.06,0,0,1-.3,311.82q-2.56,0-5.1-.18V322c18.73,1.5,38.29,3,48.07,3.71,0,0,10.77-12.46,22.73-16.45,17-5.68,51.5-7.78,92.18-5.61,33.83,1.8,108.68,16.38,108.68,14.46l1.13-14.55C267.39,301.68,265.88,300.53,263.89,300.1Z" fill="#fff"/><path d="M54,309.23s-13.32,28.26-9.56,44.13c5.09,21.46,15.42,88.8,50.34,101.23l-18.59-6L51,416.81,28.8,349.24l13.79-33Z" fill="#fff"/><path d="M254.14,341.67c1.05-11,12.5-5.54,13.09-9.35s-.65-15.91-.16-24.12c.26-4.4-26.75,7.56-26.75,7.56S253.57,347.66,254.14,341.67Z" fill="#fff"/><path d="M194.92,460.61l-4.68-7.68c13.71-8.35,31.77-49.18,35.43-94,1.41-17.28-1.94-30.29-10-38.67-10.32-10.76-24.95-10.32-25.09-10.31l-.35-9c.76,0,18.85-.57,31.94,13.08,9.89,10.33,14.08,25.68,12.45,45.63C231,404.59,212.79,449.74,194.92,460.61Z" fill="#fff"/><path d="M263.89,305.1l-33.65-7.23h0c-17.86-5.07-51.21-8.06-71.11-9.14C138.35,287.62,87,286,59.07,295.33a71.3,71.3,0,0,0-17.63,8.51v0a1,1,0,0,1-.14.11c-.37.25-.75.51-1.11.77A77.06,77.06,0,0,1-.3,316.82q-2.56,0-5.1-.18v25.71a18.65,18.65,0,0,1,5.1-.7c15.88,0,20.64,20.07,20.64,20.07h0c.62,3.48,1.32,4.51,1.88,6.9l.13.53a249.55,249.55,0,0,0,16.28,48.43C51.36,444.91,67.3,461.85,86,467.92c15.13,4.92,35.73,7.42,56.44,7.42,32.24,0,64.73-6.06,77.15-18.48,16.72-16.73,32.63-69.1,34.15-108.66a17.26,17.26,0,0,0,.12-2.17c0-19.49,10-18.94,10-18.94a3.5,3.5,0,0,0,3.5-3.5v-15C267.39,306.68,265.88,305.53,263.89,305.1ZM205.43,442.72c-4.73,4.73-21.19,10.31-47.29,12.1-24.33,1.67-49.61-.6-66-5.92-20.8-6.75-39.62-36.27-50.36-82.29l-.12-.55c-4.61-19.68-7-41.54,23.7-51.76,17-5.68,51.5-7.78,92.18-5.61,38.53,2.05,68.19,3.94,72.23,23.69C236.8,366.55,219.67,428.48,205.43,442.72Z" fill="#222229"/></svg>