<svg xmlns="http://www.w3.org/2000/svg" width="400" height="800" viewBox="0 0 400 800"><title>right-skull</title><path d="M247.7,410.92l.92.36c24.64-62.41,36.29-132.57,36.29-183.1,0-28.28-8.83-56-25.21-82.24-15.47-24.84-33.23-47.33-61-66.86C144.2,40.79,72.9,18.52,2.46,17.68a1.66,1.66,0,0,0-.32,0H-1.67a1.66,1.66,0,0,0-.32,0c-1.54,0-3.08.06-4.62.1V781H56.08a2.12,2.12,0,0,0,1.15-.34l150.43-72.43a2.09,2.09,0,0,0,.94-1.75V536.61c23.72-8.47,42-24.59,51.21-45.76,9.4-21.5,8-45.58-3.64-64.42A163.58,163.58,0,0,1,247.7,410.92Z" fill="#f9f9f9"/><path d="M284.91,228.18c.65-70.64-50.9-131.45-111.29-164.93A346.65,346.65,0,0,0-6.61,18V58.42C71.24,56.13,151.23,81,197,133.93c84.3,97.44,4.13,110.32,13.87,218.7-.82-9.08,41.21,67.94,36.79,58.29C274.13,352.69,284.26,277.26,284.91,228.18Z" fill="#c9c9c9"/><path d="M264.84,449s-42.15-66.86-34.21-133.43c-53.18-28.3,28.58,147.9-67.77,194.25-66.62,32-52.47,88.4-52.47,88.4l18.21,1.6s-.22,14.68-.12,21.9c0,0,24.87-50.48,32.64-16.75s-.58,49.93-13.17,71.31S57.23,780.62,57.23,780.62s152.05-71.21,151.37-74.21c.07-26.72-.14-143.24,0-168.52C247.25,519.22,271.36,490.46,264.84,449Z" fill="#c9c9c9"/><polyline points="206.95 535.75 206.95 706.79 56.52 779.22 -10.41 779.22" fill="none" stroke="#222229" stroke-linejoin="round" stroke-width="8"/><path d="M233.48,299.24s-17.85,65.37,21.36,128.64c24.27,39.18,1.78,99-62.31,111.43s-62.82,82.63-62.82,82.63" fill="none" stroke="#222229" stroke-linecap="round" stroke-linejoin="round" stroke-width="8"/><path d="M247.11,410.87c26.11-66.11,35.63-135.62,35.63-182.34,0-115.11-137.07-208.44-284-208.44H2.58" fill="none" stroke="#222229" stroke-linejoin="round" stroke-width="8"/><path d="M-28.95,632.23V597.61a14.74,14.74,0,0,1,14.7-14.69h0A14.73,14.73,0,0,1,.44,597.61v34.1Z" fill="none" stroke="#222229" stroke-linejoin="round" stroke-width="8"/><path d="M.44,632.23V597.61a14.73,14.73,0,0,1,14.69-14.69h0a14.73,14.73,0,0,1,14.7,14.69v34.1Z" fill="none" stroke="#222229" stroke-linejoin="round" stroke-width="8"/><path d="M29.83,632.23v-29.3a14.74,14.74,0,0,1,14.69-14.7h0a14.75,14.75,0,0,1,14.7,14.7v28.78Z" fill="none" stroke="#222229" stroke-linejoin="round" stroke-width="8"/><path d="M59.22,630.66V606.59a14.74,14.74,0,0,1,14.69-14.7h0a14.74,14.74,0,0,1,14.69,14.7v23.55Z" fill="none" stroke="#222229" stroke-linejoin="round" stroke-width="8"/><path d="M88.6,625.87V608a10.93,10.93,0,0,1,10.9-10.9h0A10.92,10.92,0,0,1,110.39,608v17.46Z" fill="none" stroke="#222229" stroke-linejoin="round" stroke-width="8"/><path d="M111.44,622.27v-15a9.16,9.16,0,0,1,9.13-9.13h0a9.16,9.16,0,0,1,9.14,9.13v14.64Z" fill="none" stroke="#222229" stroke-linejoin="round" stroke-width="8"/><path d="M29.83,632.23v34.62a14.73,14.73,0,0,1-14.7,14.69h0A14.73,14.73,0,0,1,.44,666.85v-34.1Z" fill="none" stroke="#222229" stroke-linejoin="round" stroke-width="8"/><path d="M.44,632.23v34.62a14.73,14.73,0,0,1-14.69,14.69h0a14.74,14.74,0,0,1-14.7-14.69v-34.1Z" fill="none" stroke="#222229" stroke-linejoin="round" stroke-width="8"/><path d="M29.83,632.23v29.3a14.73,14.73,0,0,0,14.69,14.7h0a14.74,14.74,0,0,0,14.7-14.7V632.75Z" fill="none" stroke="#222229" stroke-linejoin="round" stroke-width="8"/><path d="M59.22,630.66v24.08a14.73,14.73,0,0,0,14.69,14.69h0A14.73,14.73,0,0,0,88.6,654.74V631.18Z" fill="none" stroke="#222229" stroke-linejoin="round" stroke-width="8"/><path d="M88.6,625.87v17.85a10.93,10.93,0,0,0,10.9,10.89h0a10.92,10.92,0,0,0,10.89-10.89V626.26Z" fill="none" stroke="#222229" stroke-linejoin="round" stroke-width="8"/><path d="M111.44,622.27v15a9.16,9.16,0,0,0,9.13,9.13h0a9.16,9.16,0,0,0,9.14-9.13V622.59Z" fill="none" stroke="#222229" stroke-linejoin="round" stroke-width="8"/><line x1="89.13" y1="578.77" x2="89.13" y2="603.17" fill="none" stroke="#222229" stroke-linecap="round" stroke-linejoin="round" stroke-width="8"/><line x1="110.92" y1="578.77" x2="110.92" y2="603.17" fill="none" stroke="#222229" stroke-linecap="round" stroke-linejoin="round" stroke-width="8"/><line x1="29.83" y1="572.32" x2="29.83" y2="603.17" fill="none" stroke="#222229" stroke-linecap="round" stroke-linejoin="round" stroke-width="8"/><line x1="59.22" y1="572.32" x2="59.22" y2="603.17" fill="none" stroke="#222229" stroke-linecap="round" stroke-linejoin="round" stroke-width="8"/><line x1="0.44" y1="564.67" x2="0.44" y2="603.17" fill="none" stroke="#222229" stroke-linecap="round" stroke-linejoin="round" stroke-width="8"/><path d="M71.37,323.72c-28,9.47-36.7,46.57-22.89,73.75a56.23,56.23,0,0,0,29.57,26.59c7,2.75,14.47,4.05,19.38,10.21,4.66,5.83,9,9.88,16.29,12.52,47.48,17.34,64.19-24.11,68.8-37.28C191.63,383.46,179.5,287.09,71.37,323.72Z" fill="#222229"/><path d="M-.18,416.15a23.48,23.48,0,0,0-6.43,1V526.7c4.75-3.43,8.58-7.46,11.4-8.4,6-2,19.1,4.71,27.2,3s14.32-25.94,14.32-42.19C46.31,444.35,19,416.15-.18,416.15Z" fill="#222229"/><path d="M51.63,450.59c8,21.67,6.82,106.39,29.87,35.76,7.68-14,29.13-4.86,36.27-16.32s-19.63-10.84-40.16-23.09-50.73-58.15-59.14-45.72S43.63,428.92,51.63,450.59Zm59.09,14.26c.12.15.1.19,0,.06S110.71,464.84,110.72,464.85Zm.15.31c0-.05-.05-.09-.07-.13A.92.92,0,0,1,110.87,465.16Zm-.18-.32-.06-.11h0Zm.27.46c-.08-.14-.06-.09-.08-.14S110.93,465.26,111,465.3Z" fill="#c9c9c9"/><path d="M141.19,435.44C107.69,442,118,423.87,87.85,414.05c-29.18-9.48-42.74-38.92-45.8-44.81a60.77,60.77,0,0,0,6.41,28.51A56.27,56.27,0,0,0,78,424.33c7,2.76,14.47,4.06,19.38,10.22,4.65,5.83,9,9.87,16.29,12.51,47.48,17.35,64.19-24.1,68.8-37.27,1.79-5.14,2.76-13,2.33-22.07C184.27,388.93,174.7,428.89,141.19,435.44Z" fill="#5e5e5e"/></svg>