<svg xmlns="http://www.w3.org/2000/svg" width="400" height="800" viewBox="0 0 400 800"><path d="M247.7 410.92l.92.36c24.64-62.41 36.29-132.57 36.29-183.1 0-28.28-8.83-56-25.21-82.24-15.47-24.84-33.23-47.33-61-66.86C144.2 40.79 72.9 18.52 2.46 17.68a1.66 1.66 0 00-.32 0h-3.81a1.66 1.66 0 00-.32 0c-1.54 0-3.08.06-4.62.1V781s63.5-.12 63.84-.34l150.43-72.43a2.09 2.09 0 00.94-1.75V536.61c23.72-8.47 42-24.59 51.21-45.76 9.4-21.5 8-45.58-3.64-64.42a163.58 163.58 0 01-8.47-15.51z" fill="#f9f9f9"/><path d="M284.91 228.18c.65-70.64-50.9-131.45-111.29-164.93A346.65 346.65 0 00-6.61 18v40.42C71.24 56.13 151.23 81 197 133.93c84.3 97.44 4.13 110.32 13.87 218.7-.82-9.08 41.21 67.94 36.79 58.29 26.47-58.23 36.6-133.66 37.25-182.74z" fill="#c9c9c9"/><path d="M264.84 449s-42.15-66.86-34.21-133.43c-53.18-28.3 28.58 147.9-67.77 194.25-66.62 32-52.47 88.4-52.47 88.4l18.21 1.6s-.22 14.68-.12 21.9c0 0 24.87-50.48 32.64-16.75s-.58 49.93-13.17 71.31-90.72 104.34-90.72 104.34 152.05-71.21 151.37-74.21c.07-26.72-.14-143.24 0-168.52 38.65-18.67 62.76-47.43 56.24-88.89z" fill="#c9c9c9"/><path fill="none" stroke="#222229" stroke-linejoin="round" stroke-width="8" d="M206.95 535.75v171.04L56.52 779.22h-66.93"/><path d="M233.48 299.24s-17.85 65.37 21.36 128.64c24.27 39.18 1.78 99-62.31 111.43s-62.82 82.63-62.82 82.63" fill="none" stroke="#222229" stroke-linecap="round" stroke-linejoin="round" stroke-width="8"/><path d="M247.11 410.87c26.11-66.11 35.63-135.62 35.63-182.34 0-115.11-137.07-208.44-284-208.44h3.84M-28.95 632.23v-34.62a14.74 14.74 0 0114.7-14.69h0A14.73 14.73 0 01.44 597.61v34.1zM.44 632.23v-34.62a14.73 14.73 0 0114.69-14.69h0a14.73 14.73 0 0114.7 14.69v34.1zM29.83 632.23v-29.3a14.74 14.74 0 0114.69-14.7h0a14.75 14.75 0 0114.7 14.7v28.78zM59.22 630.66v-24.07a14.74 14.74 0 0114.69-14.7h0a14.74 14.74 0 0114.69 14.7v23.55zM88.6 625.87V608a10.93 10.93 0 0110.9-10.9h0a10.92 10.92 0 0110.89 10.9v17.46zM111.44 622.27v-15a9.16 9.16 0 019.13-9.13h0a9.16 9.16 0 019.14 9.13v14.64zM29.83 632.23v34.62a14.73 14.73 0 01-14.7 14.69h0A14.73 14.73 0 01.44 666.85v-34.1zM.44 632.23v34.62a14.73 14.73 0 01-14.69 14.69h0a14.74 14.74 0 01-14.7-14.69v-34.1zM29.83 632.23v29.3a14.73 14.73 0 0014.69 14.7h0a14.74 14.74 0 0014.7-14.7v-28.78zM59.22 630.66v24.08a14.73 14.73 0 0014.69 14.69h0a14.73 14.73 0 0014.69-14.69v-23.56zM88.6 625.87v17.85a10.93 10.93 0 0010.9 10.89h0a10.92 10.92 0 0010.89-10.89v-17.46zM111.44 622.27v15a9.16 9.16 0 009.13 9.13h0a9.16 9.16 0 009.14-9.13v-14.68z" fill="none" stroke="#222229" stroke-linejoin="round" stroke-width="8"/><path fill="none" stroke="#222229" stroke-linecap="round" stroke-linejoin="round" stroke-width="8" d="M89.13 578.77v24.4M110.92 578.77v24.4M29.83 572.32v30.85M59.22 572.32v30.85M.44 564.67v38.5"/><path d="M71.37 323.72c-28 9.47-36.7 46.57-22.89 73.75a56.23 56.23 0 0029.57 26.59c7 2.75 14.47 4.05 19.38 10.21 4.66 5.83 9 9.88 16.29 12.52 47.48 17.34 64.19-24.11 68.8-37.28 9.11-26.05-3.02-122.42-111.15-85.79zM-.18 416.15a23.48 23.48 0 00-6.43 1V526.7c4.75-3.43 8.58-7.46 11.4-8.4 6-2 19.1 4.71 27.2 3s14.32-25.94 14.32-42.19c0-34.76-27.31-62.96-46.49-62.96z" fill="#222229"/><path d="M51.63 450.59c8 21.67 6.82 106.39 29.87 35.76 7.68-14 29.13-4.86 36.27-16.32s-19.63-10.84-40.16-23.09-50.73-58.15-59.14-45.72 25.16 27.7 33.16 49.37zm59.09 14.26c.12.15.1.19 0 .06s-.01-.07 0-.06zm.15.31c0-.05-.05-.09-.07-.13a.92.92 0 01.07.13zm-.18-.32l-.06-.11zm.27.46c-.08-.14-.06-.09-.08-.14s.05.1.12.14z" fill="#c9c9c9"/><path d="M141.19 435.44c-33.5 6.56-23.19-11.57-53.34-21.39-29.18-9.48-42.74-38.92-45.8-44.81a60.77 60.77 0 006.41 28.51A56.27 56.27 0 0078 424.33c7 2.76 14.47 4.06 19.38 10.22 4.65 5.83 9 9.87 16.29 12.51 47.48 17.35 64.19-24.1 68.8-37.27 1.79-5.14 2.76-13 2.33-22.07-.53 1.21-10.1 41.17-43.61 47.72z" fill="#5e5e5e"/></svg>