<svg xmlns="http://www.w3.org/2000/svg" width="400" height="800" viewBox="0 0 400 800"><path d="M266.6 254.69s81.74-53 83.24 54.47c0 0 125.42 120.46-9 247.11 0 0 37.52 130.43-124.78 119.47s50.54-421.05 50.54-421.05z" fill="#222229"/><path d="M3.47 19.11q-4.44 0-8.79.09V626h242.85S445.27 19.11 3.47 19.11z" fill="#222229"/><path d="M227.78 277.76C199.25 202.77.62 122.85.62 122.85s-2.11.7-5.94 2.07v657.3c206.58-5.06 246.18-157.37 251.46-221.94 0-.91-1-235.91-18.36-282.52z" fill="#26cbff"/><path d="M.62 122.85l-5.94 2.71v233.59c16.79 1.14 49.77-21.61 49.77-21.61s-13.25-31.85 13.31-43.68 45.15-1.69 62-15.2S83.91 138 .62 122.85zM223.92 455.09s9.36 182.91-50.09 262.43c0 0 47.88-42.83 63-94.87s5-227.64 5-227.64l-17.93 60.08" fill="#fff" opacity=".5"/><path d="M184.84 519c-24.84-22.88-56.26 27.6-71.58 14.38-26.35-22.77-67.63-10.28-67.63-10.28-27.4-18.73-31.43-.85-48.43-2.16-.85-.06-1.69-.08-2.52-.07v62.78c5.41 1.66 10.78 3 15.31 3 12.45 0 31.67-15.4 47.77-4.94s45.86 32.9 53.2 33.74c14.77 1.7 1.06 20-13.35 10.52-9.8-6.47-4.3 0-4.3 0-26.8 20.72-73.88 18.52-73.88 18.52s47.08 8.5 44.21 20.26c-1.87 7.7-42 21.26-69 37.41v50.55c33 15.57 92.37 22.31 129.56-1.06 53.2-33.39 85.49-209.79 60.64-232.65zM63.64 469.52c-12.73-22.81-33-119.42-33-119.42l-36 7.87v99.91c16.63 3.83 36.8 15.54 32 29.46-5.8 16.71 24.21 26.2 39.08 21.31 4.85-1.59 10.65-16.32-2.08-39.13zM174.16 322.4s24.67 56.48 16.15 60-27.79-10.55-25.92-3.08 32 39 40.68 27.8-9.13-88.81-9.13-88.81z" fill="#fff" opacity=".5"/><path d="M167.24 246.35c3.35 13.17 35.26 59 30.24 71.92s18.93 16.21 11-9.11-44.58-75.98-41.24-62.81zM107.7 318.27s21.75 11.29 21.75 27.17l-9.34 34s-16.46 6.84 4.76 6.46 66.37 23.32 63.7 52.34-15.22 45.5-55 45.65-71.1-9.78-76.82-30S27.16 350.1 27.16 350.1l46.38-25.82z" fill="#fff" opacity=".5"/><path d="M202.26 326s29.76 84.42 5 140.05 34.56-71 34.56-71l-5-64.5z" fill="#222229"/><circle cx="120.11" cy="359.86" r="19.59" fill="#4c3b38"/><circle cx="120.11" cy="356.73" r="10.34" fill="#222229"/><path d="M69.2 376.51h.1l22.43-.5s-13.14-8-5.18-16.22c4.11-4.22 11.11-10.89 23-12.64 25.58-3.76 49.21 16.49 49.45 16.69 0 0-21.86-29.35-51.48-25-16.84 2.5-30.52 12.44-42.13 30.77a4.5 4.5 0 003.81 6.9zM42.26 489c-4.65-4.66-10.35-6.84-14.09-5.73-4 .87-13.3 4.61-14.08 12.76-.68 7.13-5.2 10.63-10.62 10.63a9.91 9.91 0 01-8.63-4.5c0 2.2-.08 4.41-.2 6.61a25.86 25.86 0 008.83 1.83c11.06 0 22.33-11.56 30-7.09 5.05 3.63 10.52 4.52 13.24 1.81C50 502 48 494.73 42.26 489z" fill="#222229"/><path d="M58.45 470s24.88 36-8.34 47.29 45.65 24.78 17.37-42.41-9.03-4.88-9.03-4.88z" fill="#222229"/><circle cx="129.45" cy="356.73" r="4.58" fill="#fff"/><path d="M246.68 374.64l-1.13 181.11c1 129.57-108.89 225.09-244.24 225.09q-3.33 0-6.62-.08" fill="none" stroke="#222229" stroke-miterlimit="10" stroke-width="8"/><path d="M104.91 625.18s-8.12 4.25-25.32-6.62-25.86-16.82-48.38-11.81C16.5 610 6.62 609.94 6.62 609.94s-9.88.06-24.62-3.19" fill="none" stroke="#222229" stroke-linecap="round" stroke-miterlimit="10" stroke-width="8"/><path d="M-7.82 125.62c5.4-1.84 8.44-2.77 8.44-2.77s236.2 70.09 237.18 199.66l3.83 6.73" fill="none" stroke="#222229" stroke-miterlimit="10" stroke-width="8"/><path d="M265.75 321.38l-33.64-7.22c-17.87-5.06-51.22-8.06-71.11-9.16-20.78-1.13-72.12-2.73-100.06 6.58a71.83 71.83 0 00-17.63 8.51l-.14.1c-.37.26-.75.51-1.11.77a77.06 77.06 0 01-40.5 12.14 55.93 55.93 0 01-7.23-.39v10.44c19.36 1.55 40.05 3.15 50.2 3.89 0 0 10.77-12.47 22.73-16.46 17-5.68 51.5-7.77 92.18-5.61 33.84 1.8 108.68 16.39 108.68 14.46l1.13-14.55c0-1.88-1.51-3.07-3.5-3.5z" fill="#fff"/><path d="M55.84 330.51s-13.32 28.26-9.56 44.13c5.09 21.47 15.42 90.8 50.34 103.23l-18.59-6-25.18-31.78-22.19-69.56 13.79-33zM256 363c1.05-11 12.5-5.53 13.09-9.35s-.65-15.9-.16-24.11c.26-4.41-26.75 7.55-26.75 7.55S255.43 369 256 363zM196.79 483.9l-4.68-7.69c13.7-8.34 31.76-51.18 35.43-96 1.41-17.27-1.95-30.28-10-38.67-10.31-10.76-25-10.32-25.09-10.31l-.35-9c.76 0 18.85-.58 31.94 13.08 9.89 10.32 14.08 25.67 12.46 45.62-3.66 44.94-21.85 92.07-39.71 102.97z" fill="#fff"/><path d="M265.75 326.38l-33.64-7.22c-17.87-5.06-51.22-8.06-71.11-9.16-20.78-1.13-72.12-2.73-100.06 6.58a71.83 71.83 0 00-17.63 8.51l-.14.1c-.37.26-.75.51-1.11.77a77.06 77.06 0 01-40.5 12.14 55.93 55.93 0 01-7.23-.39v26.68a18.13 18.13 0 017.23-1.46c15.88 0 20.65 20.08 20.65 20.08.61 3.48 1.31 6.5 1.87 8.89l.13.54a250.09 250.09 0 0016.28 48.42c12.73 27.33 28.67 44.27 47.36 50.35 15.13 4.91 35.73 7.41 56.44 7.41 32.24 0 64.73-6.06 77.15-18.48 16.72-16.72 32.63-71.09 34.15-110.66a17 17 0 00.13-2.17c0-19.49 10-18.93 10-18.93a3.51 3.51 0 003.5-3.5v-15c.03-1.88-1.48-3.07-3.47-3.5zM207.29 466c-4.73 4.73-21.18 10.31-47.29 12.1-24.33 1.67-49.6-.6-66-5.91-20.8-6.76-39.62-38.27-50.36-84.3l-.12-.54c-4.61-19.69-7-41.55 23.7-51.77 17-5.68 51.5-7.77 92.18-5.61 38.53 2 68.19 3.94 72.23 23.7 7.03 34.16-10.1 98.09-24.34 112.33z" fill="#222229"/></svg>