<svg xmlns="http://www.w3.org/2000/svg" width="400" height="800" viewBox="0 0 400 800"><path d="M267.39 303.6c0-1.92-1.51-3.07-3.5-3.5l-15.2-3.26C247.3 221.57 230.9 161.41 199.9 118 158.6 60.14 90.9 30.8-1.24 30.8h-5.15s-1.58 213.13-1.6 213.13l.63 519.56c2.26 0 4.55.08 6.81.08A273.68 273.68 0 00102.24 744a242.1 242.1 0 0082-53.95 217.06 217.06 0 0063.42-155.58l.92-147.42a234.57 234.57 0 005.12-38.87 17.26 17.26 0 00.12-2.17c0-1.38.06-2.65.15-3.84a1.21 1.21 0 00.14-.52c1.05-11 12.5-5.54 13.09-9.35a52.77 52.77 0 000-7.9 3.26 3.26 0 00.11-.83v-15a3.2 3.2 0 00-.28-1.33z" fill="#26cbff"/></svg>