<svg xmlns="http://www.w3.org/2000/svg" width="400" height="800" viewBox="0 0 400 800"><title>right-blue</title><path d="M262.79,254.69s81.74-53,83.24,54.47c0,0,125.42,120.46-9,247.11,0,0,37.51,130.43-124.79,119.47S262.79,254.69,262.79,254.69Z" fill="#222229"/><path d="M1.15,19.11q-8,0-15.81.27V626H235.22S443,19.11,1.15,19.11Z" fill="#222229"/><path d="M244.32,477c-1.27-27.51-3.4-55.1-4.78-82-7.6-37.78,3.29-70.64-14.07-117.25C196.93,202.77-1.69,122.85-1.69,122.85s-4.77,1.59-13,4.63V782.07C70.13,785,145.42,747.54,160,727.2c58.37-43,78.53-102.35,83.8-166.92,0-.91,0-1.8,0-2.68Z" fill="#26cbff"/><g opacity="0.5"><path d="M-1.69,122.85l-13,5.92V356.14c11.34,12.76,56.8-18.6,56.8-18.6s-13.26-31.85,13.31-43.68,45.15-1.69,62-15.2S81.6,138-1.69,122.85Z" fill="#fff"/></g><g opacity="0.5"><path d="M221.61,455.09S231,638,171.52,717.52c0,0,47.88-42.83,63-94.87s5-227.64,5-227.64l-17.93,60.08" fill="#fff"/></g><g opacity="0.5"><path d="M182.53,519c-24.84-22.88-56.27,27.6-71.58,14.38C84.6,510.61,43.32,523.1,43.32,523.1c-27.4-18.73-31.43-.85-48.43-2.16a25.67,25.67,0,0,0-9.55,1v59.43c7.6,2.48,15.83,5.28,22.34,5.28,12.45,0,31.67-15.4,47.77-4.94s45.86,32.9,53.2,33.74c14.77,1.7,1,20-13.35,10.52-9.8-6.47-4.3,0-4.3,0-26.81,20.72-73.88,18.52-73.88,18.52s47.07,8.5,44.21,20.26c-2,8.4-49.66,23.8-76,41.9v42.38c30.93,18.05,96.58,27.76,136.59,2.62C175.09,718.26,207.37,541.86,182.53,519Z" fill="#fff"/></g><g opacity="0.5"><path d="M61.33,469.52c-12.73-22.81-33-119.42-33-119.42l-43,9.41v97.21c17.17,1.58,44.54,14.65,39,30.62-5.8,16.71,24.2,26.2,39.08,21.31C68.26,507.06,74.06,492.33,61.33,469.52Z" fill="#fff"/></g><g opacity="0.5"><path d="M171.85,322.4s24.66,56.48,16.14,60-27.78-10.55-25.91-3.08,32,39,40.68,27.8-9.13-88.81-9.13-88.81Z" fill="#fff"/></g><g opacity="0.5"><path d="M164.93,246.35c3.35,13.17,35.26,59,30.24,71.92s18.93,16.21,11-9.11S161.58,233.18,164.93,246.35Z" fill="#fff"/></g><g opacity="0.5"><path d="M105.38,318.27s21.76,11.29,21.76,27.17l-9.34,34s-16.46,6.84,4.76,6.46,66.37,23.32,63.69,52.34-15.22,45.5-55,45.65-71.1-9.78-76.83-30S24.84,350.1,24.84,350.1l46.39-25.82Z" fill="#fff"/></g><path d="M199.94,326s29.77,84.42,5,140.05,34.56-71,34.56-71l-5-64.5Z" fill="#222229"/><circle cx="117.8" cy="359.86" r="19.59" fill="#4c3b38"/><circle cx="117.8" cy="356.73" r="10.34" fill="#222229"/><path d="M66.88,376.51H67l22.43-.5s-13.14-8-5.17-16.22c4.11-4.22,11.11-10.89,23-12.64,25.58-3.76,49.21,16.49,49.44,16.69,0,0-21.85-29.35-51.47-25-16.87,2.48-30.59,12.42-42.16,30.75a4.5,4.5,0,0,0,3.8,6.9Z" fill="#222229"/><ellipse cx="34" cy="494.96" rx="8.41" ry="14.66" transform="translate(-340.03 169.01) rotate(-45)" fill="#222229"/><path d="M26.26,483.2c-3.75.7-13.68,4.42-14.48,12.84-.68,7.13-5.2,10.63-10.63,10.63S-8.79,503.17-9.47,496a12.37,12.37,0,0,0-5.19-8.62v18.43c5,2.19,10.39,4.76,15.81,4.76,11.27,0,22.75-12,30.39-6.84Z" fill="#222229"/><path d="M56.14,470S81,506,47.8,517.32s45.65,24.78,17.37-42.41S56.14,470,56.14,470Z" fill="#222229"/><circle cx="127.14" cy="356.73" r="4.58" fill="#fff"/><path d="M240.37,374.62l-1.13,181.16a208,208,0,0,1-61.1,149.94A234.23,234.23,0,0,1,98.8,757.88,265.66,265.66,0,0,1-1,776.84c-4.57,0-9.12-.12-13.65-.33v8c4.53.2,9.08.32,13.65.32a273.5,273.5,0,0,0,102.8-19.54,242,242,0,0,0,82-53.94,217,217,0,0,0,63.43-155.59l1.13-181.1Z" fill="#222229"/><path d="M100.74,621.63l.13-.06c-.06,0-6.92,2.79-21.46-6.39l-1.23-.78C61.62,603.92,51.62,597.6,28,602.84a118.37,118.37,0,0,1-23.75,3.1,112.77,112.77,0,0,1-18.94-2.12V612a114.06,114.06,0,0,0,18.93,2c.45,0,10.52,0,25.49-3.29,20.37-4.53,27.82.19,44.15,10.51l1.23.78c10.27,6.49,17.82,8,22.69,8a14.73,14.73,0,0,0,6.62-1.27Z" fill="#222229"/><path d="M239.47,321.43C239,291.24,226,261.82,201,234c-20-22.25-47.75-43.57-82.48-63.36C59.62,137.06,0,119.19-.55,119l-1.16-.34-1.15.35c-.16,0-4.46,1.38-11.8,3.94v8.47c6.45-2.28,11-3.75,13-4.39,8.54,2.64,62.75,20,116.35,50.6,34,19.36,61,40.13,80.41,61.74C219,266,231.27,294,231.49,322.54v1l4.35,7.63,6.95-4Z" fill="#222229"/><path d="M263.44,321.38l-33.65-7.22h0c-17.86-5.06-51.21-8.06-71.12-9.14-20.77-1.12-72.11-2.72-100,6.59A71.13,71.13,0,0,0,41,320.12h0l-.14.1-1.12.77A77,77,0,0,1-.75,333.1a61.39,61.39,0,0,1-13.91-1.52v11c21.09,1.7,45.55,3.59,56.88,4.42,0,0,10.77-12.47,22.72-16.46,17-5.68,51.51-7.77,92.18-5.61,33.84,1.8,108.69,16.39,108.69,14.46l1.13-14.55C266.94,323,265.43,321.81,263.44,321.38Z" fill="#fff"/><path d="M53.53,330.51S40.21,358.77,44,374.64c5.09,21.47,15.42,90.8,50.34,103.23l-18.59-6L50.53,440.09,28.34,370.53l13.8-33Z" fill="#fff"/><path d="M253.69,363c1.05-11,12.5-5.53,13.09-9.35s-.65-15.9-.16-24.11c.26-4.41-26.75,7.55-26.75,7.55S253.12,369,253.69,363Z" fill="#fff"/><path d="M194.47,483.9l-4.68-7.69c13.71-8.34,31.77-51.18,35.43-96,1.41-17.27-1.95-30.28-10-38.67-10.32-10.76-25-10.32-25.09-10.31l-.35-9c.76,0,18.85-.58,31.94,13.08,9.89,10.32,14.08,25.67,12.45,45.62C230.52,425.87,212.33,473,194.47,483.9Z" fill="#fff"/><path d="M263.44,326.38l-33.65-7.22h0c-17.86-5.06-51.21-8.06-71.12-9.14-20.77-1.12-72.11-2.72-100,6.59A71.13,71.13,0,0,0,41,325.12h0l-.14.1-1.12.77A77,77,0,0,1-.75,338.1a61.39,61.39,0,0,1-13.91-1.52v32.64A18.36,18.36,0,0,1-.75,362.93c15.88,0,20.64,20.08,20.64,20.08h0c.61,3.48,1.32,6.5,1.88,8.89l.13.53a250.13,250.13,0,0,0,16.27,48.43c12.74,27.33,28.68,44.27,47.37,50.35,15.12,4.91,35.73,7.41,56.44,7.41,32.24,0,64.73-6.06,77.15-18.48,16.72-16.72,32.63-71.09,34.15-110.66a17.14,17.14,0,0,0,.12-2.17c0-19.49,10-18.93,10-18.93a3.51,3.51,0,0,0,3.5-3.5v-15C266.94,328,265.43,326.81,263.44,326.38ZM205,466c-4.73,4.73-21.19,10.31-47.29,12.1-24.33,1.67-49.61-.6-66-5.92-20.79-6.75-39.61-38.26-50.35-84.29l-.13-.54c-4.6-19.69-6.94-41.55,23.7-51.77,17-5.68,51.51-7.77,92.18-5.61,38.54,2,68.2,3.94,72.24,23.7C236.34,387.83,219.22,451.76,205,466Z" fill="#222229"/></svg>