<svg xmlns="http://www.w3.org/2000/svg" width="400" height="800" viewBox="0 0 400 800"><title>right-helmet-mask 46</title><path d="M320.4,367.9h-8.83c-2.48-71.68-13-153.09-50.85-218.23C237.63,110,205.78,79.26,166.06,58.42,121.62,35.12,65.76,23.31,0,23.31c-2.82,0-5.62,0-8.41.07v774.5c2.8.09,5.6.15,8.41.15,42.27,0,83.26-10.29,121.85-30.59,37.19-19.56,70.58-47.55,99.23-83.19,32-39.76,56.12-86.65,71.51-137.76a23.77,23.77,0,0,0,3.51.26h24.3a23.34,23.34,0,0,0,23.32-23.31V391.21A23.34,23.34,0,0,0,320.4,367.9Z" fill="#26cbff"/></svg>