<svg xmlns="http://www.w3.org/2000/svg" width="680" height="800" viewBox="0 0 680 800"><path fill="none" stroke="#222229" stroke-linecap="round" stroke-linejoin="round" stroke-width="8" d="M379.03 103.32v122.8M395.26 94.89v93.38"/><path fill="none" stroke="#222229" stroke-linejoin="round" stroke-width="30" d="M241.58 103.32l164.44 322.63 59.12-181.73 264.37-71.91"/><path fill="none" stroke="#a8a8a8" stroke-miterlimit="10" stroke-width="5" d="M241.58 103.32l164.44 322.63 59.12-181.73 264.37-71.91"/><circle cx="408.02" cy="422.76" r="37.58" fill="#a8a8a8" stroke="#222229" stroke-linecap="round" stroke-linejoin="round" stroke-width="5"/><circle cx="408.02" cy="422.76" r="16.48" fill="#a8a8a8" stroke="#222229" stroke-linecap="round" stroke-linejoin="round" stroke-width="5"/><circle cx="465.76" cy="242.6" r="37.58" fill="#a8a8a8" stroke="#222229" stroke-linecap="round" stroke-linejoin="round" stroke-width="5"/><circle cx="465.76" cy="242.6" r="16.48" fill="#a8a8a8" stroke="#222229" stroke-linecap="round" stroke-linejoin="round" stroke-width="5"/><path fill="none" stroke="#222229" stroke-linejoin="round" stroke-width="30" d="M339.05 103.32l-89.08 389.59 288.07 46 209.94-127.89"/><path fill="none" stroke="#a8a8a8" stroke-miterlimit="10" stroke-width="5" d="M339.05 103.32l-89.08 389.59 288.07 46 209.94-127.89"/><circle cx="251.97" cy="489.72" r="37.58" fill="#a8a8a8" stroke="#222229" stroke-linecap="round" stroke-linejoin="round" stroke-width="5"/><circle cx="251.97" cy="489.72" r="16.48" fill="#a8a8a8" stroke="#222229" stroke-linecap="round" stroke-linejoin="round" stroke-width="5"/><circle cx="538.65" cy="537.3" r="37.58" fill="#a8a8a8" stroke="#222229" stroke-linecap="round" stroke-linejoin="round" stroke-width="5"/><circle cx="538.65" cy="537.3" r="16.48" fill="#a8a8a8" stroke="#222229" stroke-linecap="round" stroke-linejoin="round" stroke-width="5"/><path fill="#b28c3f" stroke="#222229" stroke-linejoin="round" stroke-width="6" d="M165 113.27h1047.73V70.58H165"/><path fill="none" stroke="#222229" stroke-linecap="round" stroke-linejoin="round" stroke-width="8" d="M241.58 65.46v53.33M267.5 65.46v53.33M370.44 65.46v53.33M217.44 335.32h452.38L474.91 131.44h608.08"/><path d="M501.07 113.27c0 24.72-11.71 44.76-26.16 44.76s-26.15-20-26.15-44.76zM685.26 351.33c-24.72 0-44.76-11.71-44.76-26.16s20-26.16 44.76-26.16z" fill="#b28c3f" stroke="#222229" stroke-linejoin="round" stroke-width="6"/><path d="M195 327.45l-18.85-6.18-11.15-.39v13.22l2-.17c-3.85 12.13 15.39 11.85 16.51 13.08 1.4 1.52 17.3-15.46 11.49-19.56z" fill="#f6a87b"/><path fill="none" stroke="#222229" stroke-linecap="round" stroke-linejoin="round" stroke-width="8" d="M229.55 335.32H180.4l-5.67 212.91"/><path d="M187.06 344.59c3.34-1 5.64-4 7.7-6.82a4.52 4.52 0 001.21-3.06" fill="#f6a87b"/><path d="M187.06 345.27a6.49 6.49 0 003.35-1.41 16.91 16.91 0 002.68-2.46c.82-.93 1.57-1.91 2.31-2.9a6.22 6.22 0 001.65-3.79 1.08 1.08 0 10-2.13.29c.17 1-.8 2-1.34 2.78s-1.26 1.69-2 2.48a14.85 14.85 0 01-2.21 2.13c-.85.65-1.81 1.05-2.71 1.61a.69.69 0 00.35 1.27z" fill="#1e1e1e"/><path d="M174.78 329.73c10.45 6.83 17.07-2.52 17.07-2.52 5.38 1.2 14.06-5.07 14.23-5.7.35-1.28-2.8-5.32-8.15-2.28-2.71 1.55-6.74 1.62-9.82 1.12-2.09-.33-4.13-1-6.24-1.13a6.81 6.81 0 00-5.75 2" fill="#f6a87b" stroke="#1e1e1e" stroke-linecap="round" stroke-linejoin="round" stroke-width="2"/><path d="M188.07 332.38c-1-1-9.69-.63-3 6.31 3.18 3.29 7.86 9.84 9.61 7.73 4.79-5.72-5.68-13.13-6.61-14.04zM182.51 338.41c-.77-.8-7.72-2.62-2.89 5.95 1.74 3.09 7.54 8.13 9.48 5.57 3.48-4.59-5.91-10.81-6.59-11.52z" fill="#f6a87b" stroke="#1e1e1e" stroke-linecap="round" stroke-linejoin="round" stroke-width="2"/><path d="M194.33 328.79s-7.54-1.31-3.82 4.43c2.4 3.7 8.38 10 11.07 6.95 3.12-3.54-6.36-10.54-7.25-11.38z" fill="#f6a87b" stroke="#1e1e1e" stroke-linecap="round" stroke-linejoin="round" stroke-width="2"/><path d="M176.87 321.13c.12-.67.2.09.52-.5l-.95-.31a1 1 0 00-.29-.05L165 320v2l10.95.28zM178.86 344.94c-3.78-.72-8.68-2-10.57-5.1a6.55 6.55 0 01-.32-5.61 1 1 0 00-.16-.9 1 1 0 00-.79-.4l-2 .05v2h.71a8 8 0 00.87 5.92c2.36 3.88 8 5.29 12.16 6.07a6.79 6.79 0 01.1-2.03z" fill="#1e1e1e"/><path fill="none" stroke="#222229" stroke-linecap="round" stroke-linejoin="round" stroke-width="8" d="M379.03 65.46l16.23 53.33"/></svg>