<svg xmlns="http://www.w3.org/2000/svg" xmlns:xlink="http://www.w3.org/1999/xlink" width="400" height="800" viewBox="0 0 400 800"><defs><clipPath id="a"><rect width="14" height="8" fill="none"/></clipPath><clipPath id="b"><rect width="14.68" height="8.16" fill="none"/></clipPath><pattern id="c" width="14" height="8" patternTransform="translate(-9.63 -9.65)" patternUnits="userSpaceOnUse" viewBox="0 0 14 8"><rect width="14" height="8" fill="none"/><g clip-path="url(#a)"><ellipse rx="3" ry="2.85" fill="#b70433"/><ellipse cx="14" rx="3" ry="2.85" fill="#b70433"/><ellipse cx="14" cy="8" rx="3" ry="2.85" fill="#b70433"/><ellipse cy="8" rx="3" ry="2.85" fill="#b70433"/><ellipse cx="7" cy="4" rx="3" ry="2.85" fill="#b70433"/></g></pattern><pattern id="d" width="14.68" height="8.16" patternTransform="translate(3.01 0.66) scale(0.99)" patternUnits="userSpaceOnUse" viewBox="0 0 14.68 8.16"><rect width="14.68" height="8.16" fill="none"/><g clip-path="url(#b)"><circle r="2.98" fill="#683c1d"/><circle cy="8.16" r="2.98" fill="#683c1d"/><circle cx="14.68" r="2.98" fill="#683c1d"/><circle cx="14.68" cy="8.16" r="2.98" fill="#683c1d"/><circle cx="7.33" cy="4.08" r="2.98" fill="#683c1d"/></g></pattern></defs><title>right-pop</title><path d="M311.2,375.73A399.18,399.18,0,0,0,302,314.22C311.62,240,300.61,182.74,269.29,144a129.8,129.8,0,0,0-58.91-41.1C184.56,58.72,152,32,113.43,23.49,70.31,14,19.11,30-1,40.37c-1.58-.61-4.1-2-7.88-3.85v552l257.44-7a1,1,0,0,0,.73-.35A257,257,0,0,0,302.9,476.68C310.83,445.34,313.62,411.38,311.2,375.73Z" fill="#f8ed0a"/><path d="M248.52,480.67c-1.27-27.28-3.38-54.65-4.75-81.35-7.53-37.47,1-55.08-16.25-101.3-17.93-47.1-24-63.63-74.44-74.35C133.7,219.55,43.15,161.93,36.81,159c-11.1,15.08-27.22,35-46.88,49.87q.16,28.82.42,57.61c.8,91.18,2.08,182.35,3,273.53.83,81.08,1.37,162.17,1.06,243.25,83,2.06,156.18-34.54,170.5-54.49,57.88-42.65,77.87-101.5,83.1-165.54v-2.65Z" fill="#e4e9df"/><path d="M248.52,480.67c-1.27-27.28-3.38-54.65-4.75-81.35-7.53-37.47,1-55.08-16.25-101.3-17.93-47.1-24-63.63-74.44-74.35C133.7,219.55,43.15,161.93,36.81,159c-10.87,14.77-26.55,34.11-45.66,48.93V783.14c84.3,3.13,159.26-34.18,173.77-54.39,57.88-42.65,77.87-101.5,83.1-165.54v-2.65Z" fill="url(#c)"/><path d="M187.24,522.26c-24.64-22.69-55.8,27.37-71,14.26C90.12,514,49.18,526.35,49.18,526.35,22,507.78,18,525.5,1.16,524.21a25.46,25.46,0,0,0-8.13.64v59.74c7.15,2.34,14.73,4.79,20.81,4.79,12.35,0,31.41-15.26,47.38-4.89S106.7,617.12,114,618c14.64,1.68,1,19.88-13.25,10.43-9.71-6.42-4.26,0-4.26,0-26.58,20.55-73.26,18.36-73.26,18.36s46.68,8.43,43.83,20.1-94.4,37-92.31,64.19,99.7,55.11,152.41,22S211.88,545,187.24,522.26Z" fill="#fff"/><path d="M226,458.9s9.29,181.36-49.67,260.25c0,0,47.48-42.47,62.49-94.09s5-225.74,5-225.74L226,458.9" fill="#fff"/><path d="M67,473.21C54.42,450.59,30.86,361.37,30.86,361.37l-38.51,3.69c.32,31.9,1,63.79,1.33,95.68,17.06,2.34,42,14.91,36.68,30.14-5.76,16.57,24,26,38.75,21.14C73.92,510.44,79.67,495.83,67,473.21Z" fill="#fff"/><path d="M176.65,327.32s24.46,56,16,59.45-27.56-10.46-25.7-3,31.74,38.68,40.34,27.57-9.06-88.07-9.06-88.07Z" fill="#fff"/><path d="M169.79,251.9c3.32,13.06,35,58.47,30,71.32s18.78,16.08,10.9-9S166.47,238.84,169.79,251.9Z" fill="#fff"/><path d="M110.73,323.22s21.58,11.2,21.58,26.94L123,383.89s-32.79,22.5-23.29,41.28c16.08,31.74,78.74,33.38,76.09,62.15l-39.46.15c-39.45.15-70.5-9.7-76.18-29.77S30.86,354.78,30.86,354.78l46-25.6Z" fill="#fff"/><path d="M204.51,330.84s29.51,83.71,5,138.88,34.27-70.4,34.27-70.4l-5-64Z" fill="#222229"/><path d="M45.84,492.54c5.68,5.68,7.64,12.92,4.39,16.18S39.72,510,34,504.34c-1-1,.11-4.84-.65-5.9-3.56-5-6.41-7.6-3.73-10.29C32.92,484.9,40.16,486.86,45.84,492.54Z" fill="#222229"/><path d="M61.9,473.72s24.67,35.68-8.27,46.9c-15.15,5.16,9.31,2.44,9.31,2.44s23-8.53,7.92-44.5C42.82,411.92,61.9,473.72,61.9,473.72Z" fill="#222229"/><path d="M248.56,379.12l-1.12,179.6c1,128.49-108,223.22-242.21,223.22a290.77,290.77,0,0,1-30.62-1.61" fill="none" stroke="#222229" stroke-miterlimit="10" stroke-width="8"/><path d="M108,627.57s-8,4.22-25.11-6.56-25.64-16.68-48-11.71c-14.58,3.24-24.38,3.16-24.38,3.16s-9.8.08-24.38-3.16" fill="none" stroke="#222229" stroke-linecap="round" stroke-miterlimit="10" stroke-width="8"/><path d="M1,37.94a102.8,102.8,0,0,0-11.3-5.8c0,3.23,0,6.46,0,9.69,5.12,2,8.12,3.4,8.3,3.47a4,4,0,0,0,5.16-2.2A4,4,0,0,0,1,37.94Z" fill="#222229"/><path d="M213.09,101.65c-26.28-45.08-59.59-72.35-99-81.07C61.82,9,7.33,33.38-10.27,42.49q0,6.66,0,13.32C13.31,43.23,67.47,18.4,112.36,28.33c37.18,8.22,68.76,34.23,93.87,77.31a4,4,0,0,0,6.86-4Z" fill="#222229"/><path d="M301.05,318.15l-.52,0a4,4,0,0,1-3.42-4.44c9.42-72.78,3.28-132.89-31.57-166.42-41.2-39.65-97.41-54.19-95.22-54,2,.16,66.5,5.86,101.28,48.88,31.86,39.4,43.09,97.46,33.38,172.55A4,4,0,0,1,301.05,318.15Z" fill="#222229"/><path d="M248.56,584.5a3.94,3.94,0,0,1-2.57-1c-1.67-1.42.61-18.67,2-20.34,25.14-29.56,40.35-49.3,50.08-87.75,7.8-30.82,9-64.27,6.66-99.39-4.07-59.9-20.4-109.12-18.37-109.94a4,4,0,0,1,5.16,2.19c.19.45,18.45,46.06,22.62,107.21,2.44,36-.38,70.24-8.38,101.88A260.1,260.1,0,0,1,251.58,583.1,4,4,0,0,1,248.56,584.5Z" fill="#222229"/><path d="M54,118.71c-2.49,1.78-29.57,50.21-63.19,81.18q0,5.79.07,11.6C27.63,183.1,57,137.62,59,135.22,67,125.67,62.67,112.53,54,118.71Z" fill="#222229"/><path d="M229.07,335.43a179.66,179.66,0,0,0-8.39-46.72c-10.34-31.42-27.85-50.37-52.05-56.32-62-15.24-131.31-68-134.23-70.26a4,4,0,0,1,4.83-6.3c.17.14,17.9,13.68,42.9,28.88,23,14,56.94,32.24,88.39,40,26.7,6.56,53.67,27.39,64.76,61.21,8.22,25.09,13.22,48.5,13.24,49.46C248.56,337.55,229.11,337.6,229.07,335.43Z" fill="#222229"/><path d="M235.28,307s30.14,66.23,57.81,84.2c0,3.57-52.55-26.06-56-64.09S235.28,307,235.28,307Z" fill="#222229"/><path d="M238.81,341.49s30.14,66.23,57.82,84.2c0,3.57-52.16-21.75-55.61-59.78S238.81,341.49,238.81,341.49Z" fill="#222229"/><path d="M68.32,140.46s46.53,56,76.62,57.44,58.76,39,58.76,39-10.42-41.24-50.22-50.27C119.79,179,68.32,140.46,68.32,140.46Z" fill="#222229"/><path d="M218.4,184.07s6.4-71.85-78.18-87.22C140.22,96.85,186.32,115.59,218.4,184.07Z" fill="#222229"/><path d="M271,455.84s-.25,68.37-22.39,83.21l0,37.1s21.69-21.32,26.14-37.63S277.3,470.15,271,455.84Z" fill="#222229"/><path d="M96.49,50.67s-41-25.86-76.14,20C20.35,70.68,52.88,43.4,96.49,50.67Z" fill="#222229"/><path d="M31.35,412.27S-3,348.93,49.76,297.56C49.76,297.56,24.42,337,31.35,412.27Z" fill="#222229"/><path d="M17.32,369.15S3,333,34.61,308.83C34.61,308.83,18.48,328.32,17.32,369.15Z" fill="#222229"/><path d="M-13.65,513.29v5c27.08,25.24,40.4-5,40.4-5C8.92,529.8-13.65,513.29-13.65,513.29Z" fill="#222229"/><path d="M85.46,358.62l35-16.89,49.89,28.92s-12.47,21.33-38,19.78-50-15.28-50-15.28l-6-8.31Z" fill="#fff"/><circle cx="123.04" cy="364.47" r="19.43" fill="url(#d)"/><circle cx="123.04" cy="364.47" r="19.43" fill="none" stroke="#222229" stroke-miterlimit="10" stroke-width="5"/><circle cx="123.04" cy="361.37" r="10.26" fill="#222229"/><path d="M84.54,374.88c.39.09,4.34,1.07,23.73,10,12.78,5.89,26.8,3.77,36.65.78l19.7-8.8c.25-.16.59,0,.93.24,3.17.83,13.41,3.55,13.64,4.51.27,1.12-5.57.51-5.57.51l-1.52,4.93L163,382.47c-.89.48-1.92,1-3.08,1.59l6.44,3.83-10.23-2.08-.5.22,4.24,4.75-7.61-3.38c-1.26.49-2.57,1-3.94,1.42l3,2.84L144.5,390c-.81.23-1.61.44-2.42.63l2.51,2.55-6-1.76a61,61,0,0,1-16.73,1.07,45.24,45.24,0,0,1-15.26-3.93c-18.75-8.63-22.71-9.67-22.91-9.72a2,2,0,0,1,.87-3.95Z" fill="#222229"/><path d="M119.79,338.87c19.79.21,62.64,27.79,59.41,28.1,0,0-3.25,13.38-21.07-.18s-22-16.08-22-16.08-25.39-8-57.74,16.54c-2.89,2.18-2.36-1.08-3.62-.31C73.29,366.82,100,338.66,119.79,338.87Z" fill="#222229"/><path d="M84.77,375.91s-8.3-5.06-5.64-10.63-3.07,1.25-3.07,1.25,3,11.29,6.72,11S84.77,375.91,84.77,375.91Z" fill="#222229"/><rect x="129.25" y="350.35" width="3.27" height="11.25" transform="translate(290.05 11.71) rotate(45)" fill="#fff"/><path d="M267.48,326.31l-33.37-7.17h0c-17.71-5-50.78-8-70.52-9.05-20.6-1.12-71.52-2.71-99.22,6.53a70.87,70.87,0,0,0-17.49,8.43h0l-.14.1c-.37.26-.75.51-1.11.77a76.44,76.44,0,0,1-40.15,12A60.35,60.35,0,0,1-7.9,336.51l.45,10.93c20.72,1.67,44.46,3.5,55.54,4.31,0,0,10.68-12.36,22.54-16.32,16.9-5.63,51.08-7.71,91.41-5.56,33.56,1.78,107.79,16.25,107.79,14.34L271,329.78C271,327.87,269.45,326.73,267.48,326.31Z" fill="#fff"/><path d="M59.31,335.36s-13.21,28-9.48,43.76c5.05,21.29,15.29,90,49.92,102.38l-18.43-5.95L56.34,444l-22-69L48,342.33Z" fill="#fff"/><path d="M257.8,367.53c1-10.94,12.4-5.49,13-9.27s-.65-15.77-.16-23.91c.25-4.37-26.53,7.49-26.53,7.49S257.24,373.48,257.8,367.53Z" fill="#fff"/><path d="M199.08,487.47l-4.64-7.62C208,471.57,226,429.1,229.58,384.63c1.39-17.12-1.94-30-9.91-38.34-10.23-10.67-24.74-10.23-24.88-10.23l-.34-8.92c.75,0,18.69-.56,31.67,13,9.81,10.23,14,25.46,12.35,45.24C234.83,429.93,216.79,476.69,199.08,487.47Z" fill="#fff"/><path d="M267.48,331.27l-33.37-7.17h0c-17.71-5-50.78-8-70.52-9.05-20.6-1.12-71.52-2.71-99.22,6.53A70.87,70.87,0,0,0,46.87,330h0l-.14.1c-.37.26-.75.51-1.11.77a76.44,76.44,0,0,1-40.15,12,60.32,60.32,0,0,1-13.17-1.38Q-7.06,356.75-6.5,372a17.86,17.86,0,0,1,12-4.48c15.75,0,20.48,19.91,20.48,19.91h0c.6,3.45,1.3,6.45,1.86,8.82l.12.53a248.13,248.13,0,0,0,16.14,48c12.63,27.1,28.44,43.9,47,49.93,15,4.87,35.43,7.35,56,7.35,32,0,64.19-6,76.51-18.32,16.58-16.59,32.36-70.51,33.87-109.75a16.7,16.7,0,0,0,.12-2.15c0-19.32,10-18.77,10-18.77a3.48,3.48,0,0,0,3.47-3.47V334.74C271,332.83,269.45,331.69,267.48,331.27Zm-58,138.45c-4.69,4.69-21,10.22-46.89,12-24.13,1.66-49.2-.59-65.42-5.86-20.62-6.71-39.29-37.95-49.93-83.6l-.13-.54c-4.57-19.52-6.89-41.2,23.5-51.33,16.9-5.63,51.08-7.71,91.41-5.57,38.22,2,67.63,3.92,71.64,23.5C240.6,392.2,223.62,455.6,209.5,469.72Z" fill="#222229"/></svg>