<svg xmlns="http://www.w3.org/2000/svg" width="400" height="800" viewBox="0 0 400 800"><title>right-pizza</title><path d="M0,22.31c-3.35,0-6.68.05-10,.13V779.21c3.33.09,6.66.14,10,.14,209.05,0,378.52-169.47,378.52-378.52S209.05,22.31,0,22.31Z" fill="#b28c3f"/><path d="M0,22.31c-3.35,0-6.68.05-10,.13v20c3.33-.09,6.67-.15,10-.15A356.19,356.19,0,0,1,139.54,70.48a357.27,357.27,0,0,1,114,76.84,357.23,357.23,0,0,1,76.84,114,356.28,356.28,0,0,1,28.17,139.55,356.19,356.19,0,0,1-28.17,139.54,357.27,357.27,0,0,1-76.84,114,357.43,357.43,0,0,1-114,76.84A356.19,356.19,0,0,1,0,759.35c-3.34,0-6.68-.06-10-.15v20c3.33.09,6.66.14,10,.14,209.05,0,378.52-169.47,378.52-378.52S209.05,22.31,0,22.31Z" fill="#997330"/><path d="M-10,22.44c3.33-.08,6.66-.13,10-.13,209.05,0,378.52,169.47,378.52,378.52S209.05,779.35,0,779.35c-3.35,0-6.68-.05-10-.13" fill="none" stroke="#222229" stroke-miterlimit="10" stroke-width="8"/><path d="M345.43,337.94c-9.73-29.82-43.7-45.33-62.58-70.8-18.51-25-21.24-57.78-36.75-84.57-16.6-28.69-59.08-44.95-68.18-49.46S155.45,117,155.45,117c-21.71-20.73-52.66-30.61-83.21-32.9-27.46-2-55,1.47-82.25,5.55V730.79a100.55,100.55,0,0,0,19.15-5.38c14.67-5.78,27.52-15.15,42-21.3,43-18.25,95-6.18,138-24.57,47-20.12,70-69.88,96.27-112.29,14.72-23.71,31.91-46.85,38.34-73.75,5.09-21.27,3.08-43.58,7.24-65C336.89,398,355.08,367.5,345.43,337.94Z" fill="#ea2d2d"/><path d="M323.84,439.1c-3.95-27.82-11.82-55.29-13.19-83.25-.72-14.76.37-29.61-2.21-44.24-5.55-31.36-27.22-58.07-50-81.27-25.07-25.5-44.18-53.33-71.48-76.5-22.41-19-53.32-33.6-79.44-47.14S51.1,85.63,22.9,91.61c0,0-16.8,2.78-26.51,1.87-1.45-.13-3.64-.43-6.4-.78v640c.67.09,1.33.18,2,.25,40,4.43,79.2-7.14,117-18.76,15.92-4.89,32.19-10,45.26-20,27.94-21.37,45.93-58.8,68.19-85.83,28.46-34.55,53.84-47.77,76.23-86.5C312.54,498,327.79,466.91,323.84,439.1Z" fill="#ffd56c"/><path d="M62.45,469.85c-13.51-24.2-35-126.7-35-126.7l-37.83,8.28c0,21.76.08,43.51.29,65.27.13,13.69.26,27.38.52,41.07,17.41,4.33,37.78,16.54,32.76,31C17,506.49,48.87,516.55,64.65,511.37,69.8,509.68,76,494.05,62.45,469.85Z" fill="#fff" opacity="0.4"/><path d="M163.65,357.73s-29.21,26.7-71.41,12.91S105,335.94,105,335.94,143.76,335.77,163.65,357.73Z" fill="#fff"/><circle cx="122.36" cy="353.51" r="20.78" fill="#4c3b38"/><circle cx="122.36" cy="350.19" r="10.97" fill="#222229"/><path d="M68.34,371.18h.11l23.79-.53s-13.94-8.52-5.48-17.21C91.12,349,98.54,341.88,111.19,340c27.14-4,52.21,17.49,52.46,17.71,0,0-23.19-31.14-54.61-26.51-17.91,2.64-32.46,13.18-44.74,32.63a4.78,4.78,0,0,0,4,7.33Z" fill="#c19234"/><path d="M39.76,490.53c-4.94-4.94-11-7.25-14.94-6.07-4.24.92-14.12,4.88-14.94,13.53-.73,7.56-5.52,11.28-11.28,11.28a10.56,10.56,0,0,1-9-4.53v6.9a27.07,27.07,0,0,0,9,1.81c11.74,0,23.7-12.26,31.8-7.52,5.36,3.85,11.17,4.8,14.05,1.91C47.94,504.36,45.84,496.6,39.76,490.53Z" fill="#c19234"/><path d="M66.52,475.57c-30-71.29-9.58-5.18-9.58-5.18s26.39,38.18-8.85,50.18S96.52,546.86,66.52,475.57Z" fill="#c19234"/><circle cx="132.27" cy="350.19" r="4.86" fill="#fff"/><circle cx="143.14" cy="228.33" r="48.48" fill="#aa1b1b"/><circle cx="240.1" cy="419.66" r="48.48" fill="#aa1b1b"/><circle cx="143.14" cy="602.48" r="48.48" fill="#aa1b1b"/><path d="M276.88,326.69,241.18,319h0c-19-5.37-54.33-8.55-75.45-9.69-22-1.19-76.52-2.9-106.16,7a76,76,0,0,0-18.71,9h0l-.15.11c-.4.27-.8.54-1.18.82a81.82,81.82,0,0,1-43,12.86,59.82,59.82,0,0,1-6-.25q.13,5.53.26,11.07c20,1.59,40.89,3.2,51.33,4,0,0,11.42-13.23,24.11-17.45,18.08-6,54.65-8.26,97.8-6C200,332.4,279.4,347.88,279.4,345.83l1.2-15.43C280.6,328.36,279,327.14,276.88,326.69Z" fill="#fff" opacity="0.8"/><g opacity="0.8"><path d="M54.17,336.37S40,366.35,44,383.19c5.4,22.77,16.35,79.83,53.41,93l-19.72-6.36L51,436.13,27.45,378.82l14.63-35Z" fill="#fff"/><path d="M266.54,370.78c1.11-11.7,13.26-5.86,13.88-9.92s-.68-16.87-.17-25.58c.28-4.67-28.38,8-28.38,8S265.93,377.15,266.54,370.78Z" fill="#fff"/><path d="M203.71,482.61l-5-8.16c14.54-8.85,33.71-37.79,37.59-85.37,1.5-18.32-2.06-32.12-10.59-41-10.94-11.42-26.47-10.95-26.62-10.94l-.37-9.54c.8,0,20-.61,33.88,13.87,10.5,11,15,27.25,13.22,48.41C242,437.54,222.66,471.07,203.71,482.61Z" fill="#fff"/></g><path d="M276.88,332l-35.7-7.67h0c-19-5.37-54.33-8.55-75.45-9.69-22-1.19-76.52-2.89-106.16,7a76,76,0,0,0-18.71,9h0l-.15.1c-.4.28-.8.55-1.18.83a81.93,81.93,0,0,1-43,12.85,57.26,57.26,0,0,1-5.87-.23c.21,9.11.39,18.21.46,27.32a19.6,19.6,0,0,1,5.41-.74c16.85,0,21.9,21.29,21.9,21.29h0c.65,3.7,1.4,6.91,2,9.44l.13.57c5.53,23.69,12.44,24.52,17.27,34.88,13.51,29,30.42,47,50.26,53.41,16,5.22,37.9,7.87,59.87,7.87,34.21,0,68.68-6.43,81.85-19.61,17.75-17.74,34.63-58.93,36.24-100.91a17.23,17.23,0,0,0,.13-2.3c0-20.68,10.65-20.09,10.65-20.09a3.73,3.73,0,0,0,3.72-3.71V335.7C280.6,333.66,279,332.44,276.88,332Zm-62,131.63c-5,5-22.48,10.94-50.17,12.84-25.82,1.77-52.64-.64-70-6.28-22-7.17-42-24.1-53.42-72.93l-.13-.58c-4.89-20.89-7.37-44.08,25.14-54.92,18.08-6,54.65-8.25,97.8-6C205,338,236.44,340,240.72,360.94,248.13,397.18,230,448.51,214.86,463.62Z" fill="#934e1b"/><path d="M260.79,415.16l-23.21,0c-.26,1-.52,2-.79,3l23.25,0Q260.43,416.66,260.79,415.16Z" fill="#442109"/><path d="M50.26,425.76q-9.4.75-18.84,1.41c.74,1,1.46,1.9,2.16,2.84q9-.63,18-1.33C51.1,427.73,50.68,426.75,50.26,425.76Z" fill="#442109"/><path d="M235.84,421.53c-.3,1-.6,2-.91,3q11.56,0,23.1.82c.29-1,.58-1.95.86-2.94Q247.39,421.58,235.84,421.53Z" fill="#442109"/><path d="M254.6,435.7H231c-.4,1-.81,2-1.22,3h23.72C253.86,437.71,254.23,436.71,254.6,435.7Z" fill="#442109"/><path d="M55.43,436.51c-.54-1-1.08-2-1.61-3q-8.88-.18-17.77.09c.57.93,1.12,1.92,1.65,3Q46.57,436.35,55.43,436.51Z" fill="#442109"/><path d="M59.12,442.68q-9.19,0-18.39.12c.52,1,1,2,1.56,3q9.45-.09,18.9-.09Q60.14,444.23,59.12,442.68Z" fill="#442109"/><path d="M227.3,444.24c-.48,1-1,2-1.46,3,8.14-.08,16.29-.3,24.42-.71.44-1,.88-2,1.31-3Q239.45,444.11,227.3,444.24Z" fill="#442109"/><path d="M244.5,458.24c-4.21-1.15-8.39-2.41-12.55-3.63-2.91-.86-5.82-1.69-8.75-2.47-.54.93-1.07,1.82-1.61,2.67,1.71.45,3.42.91,5.13,1.4,5.39,1.54,10.8,3.22,16.26,4.72C243.49,460.05,244,459.16,244.5,458.24Z" fill="#442109"/><path d="M68.58,454.41q-10.39.4-20.78.88c.63,1,1.26,2,1.9,2.92q11-.51,21.94-.92Q70.08,455.92,68.58,454.41Z" fill="#442109"/><path d="M238.37,468.23q-11.55-2.67-23.15-5l-.36.39a15.15,15.15,0,0,1-2.69,2.05q6,1.18,12.07,2.48t12.24,2.72C237.12,470,237.74,469.13,238.37,468.23Z" fill="#442109"/><path d="M84.55,466h-.22c-9.32.34-18.64.76-28,1.21.81,1,1.62,1.94,2.45,2.87,10.67-.5,21.35-.95,32-1.29A68.68,68.68,0,0,1,84.55,466Z" fill="#442109"/><path d="M233.46,474.68q-15-3.06-30.24-5c-2.16.74-4.59,1.46-7.26,2.14,1.31.15,2.61.27,3.91.43q15.74,1.92,31.29,5C231.93,476.45,232.7,475.58,233.46,474.68Z" fill="#442109"/><path d="M172.65,475.77c-2.55.27-5.21.5-8,.69A232.52,232.52,0,0,1,111,474.07c-4.35-.09-8.71-.18-13.06-.24q-17.85-.25-35.69-.1,1.53,1.54,3.09,3c21.27-.15,42.53.23,63.79.79,23.8.63,47.63,1.19,71.42,2.22,8.64.37,17.29.92,25.88,1.88a31.86,31.86,0,0,0,3.14-2.63C210.68,476.6,191.61,476.32,172.65,475.77Z" fill="#442109"/><path d="M171.63,482.89q-37.83-2.64-75.78-2.53-12.84,0-25.67.42,2,1.55,4.09,2.89,27.17-.66,54.32.11,37.78,1.07,75.43,4.88c2.28.23,4.55.49,6.83.73,2.07-.73,4.05-1.51,5.91-2.34Q194.25,484.48,171.63,482.89Z" fill="#442109"/><path d="M192.36,493.34a100.62,100.62,0,0,0-26.59-4.65A54,54,0,0,0,152.13,490c-4.54,1-8.94,2.58-13.44,3.75a89.44,89.44,0,0,1-22.35,2.52c5.76.73,11.75,1.24,17.84,1.56,9.13-1.66,17.7-5.64,27-6.13,8.88-.46,17.91,1.1,26.47,3.39q3.31-.54,6.48-1.2Z" fill="#442109"/><circle cx="33.83" cy="166.47" r="2.68" fill="#222229"/><circle cx="78.99" cy="279.49" r="2.68" fill="#222229"/><circle cx="236.81" cy="282.17" r="2.68" fill="#222229"/><circle cx="137.13" cy="436.41" r="2.68" fill="#222229"/><circle cx="198.74" cy="528.03" r="2.68" fill="#222229"/><circle cx="94.66" cy="521.92" r="2.68" fill="#222229"/><circle cx="49.41" cy="705.81" r="2.68" fill="#222229"/><path d="M-27.27,131.1s34,10.77,37.52,67.65" fill="none" stroke="#369e23" stroke-miterlimit="10" stroke-width="7"/><path d="M93.37,438s11.16-33.89,68.07-36.74" fill="none" stroke="#369e23" stroke-miterlimit="10" stroke-width="7"/><path d="M58.72,659.75s4.64-35.38,60-48.8" fill="none" stroke="#369e23" stroke-miterlimit="10" stroke-width="7"/><path d="M253.11,491.72s-32,15.89-26.63,72.63" fill="none" stroke="#369e23" stroke-miterlimit="10" stroke-width="7"/><path d="M166.33,221.32s33.82-11.37,70.19,32.5" fill="none" stroke="#369e23" stroke-miterlimit="10" stroke-width="7"/><circle cx="62.45" cy="223.33" r="13.04" fill="none" stroke="#222229" stroke-miterlimit="10" stroke-width="10"/><circle cx="8.37" cy="679.77" r="13.04" fill="none" stroke="#222229" stroke-miterlimit="10" stroke-width="10"/><circle cx="288.58" cy="477.48" r="13.04" fill="none" stroke="#222229" stroke-miterlimit="10" stroke-width="10"/><circle cx="59.27" cy="395.23" r="2.68" fill="#222229"/><circle cx="111.38" cy="156.38" r="2.68" fill="#222229"/><circle cx="17.87" cy="301.05" r="2.68" fill="#222229"/><circle cx="47.8" cy="593.1" r="2.68" fill="#222229"/><circle cx="216.76" cy="353.51" r="2.68" fill="#222229"/></svg>