<svg xmlns="http://www.w3.org/2000/svg" width="400" height="800" viewBox="0 0 400 800"><path d="M285.52 280.74c-6.93-63.3-24.95-115.79-53.55-156-47.22-66.4-123.55-94.07-226.86-94.07q-9.21 0-18.11.33v661.74l246.11-48.61 3.78 1.31c.3-.86 30.11-87.43 44.36-194.13 8.34-62.76 9.75-120.15 4.27-170.57z" fill="#222229"/><path d="M-70.16 56.36S176.12-.43 242.77 185.53c44.68 124.67 26.62 314.72-18.24 404.17" fill="none" stroke="#487676" stroke-miterlimit="10" stroke-width="12"/><path d="M-58.86 78s226.52-49.35 284.4 130.19c40.64 126-3.89 335.62-55.74 403M-48.92 105.1s225-48.74 261.85 155.41M-41 124.32S161.21 96.34 195.17 288" fill="none" stroke="#487676" stroke-miterlimit="10" stroke-width="12"/><path d="M-24.57 143.41v647.53c131.39 7.69 237.76-98.46 236.8-225.63z" fill="#ebebeb"/><path d="M42 315.49s-3.76 15-19 10.19c-5.75-1.83-22.58-10.3-46.51-18v19.54A71.57 71.57 0 01.22 345.54c22 39 17.76 64.09-23.69 76.14v16.85c38-11.74 58.27-39.77 58.27-69.13 0-34.73 18-38.28 18-38.28z" fill="#222229"/><path d="M219.88 266.15C191 214.27 118.74 157-17.35 164.91L112 483.82s-87.74 25.36-98 28.65c-1.42 7.46-3.29 30 4.1 41.27 3 4.61 18.74 10.07 19.2 15.8.77 9.46-7.6 27.57-13 31.29.9.75 21.84 14 21.17 22.84-1.41 18.13-45.88 39.57-48.83 41.45-19.51 27.72 36.13 29.81 43.16 55.1 4.1 14.73-1.3 42-15.75 70.18-.08.15 221.47-19.67 223.14-225.09 0 0 4.47-179-9.37-245.37 0 0-12.25-43.57-17.94-53.79z" fill="#efaf4f"/><path d="M65.58 782.41C69.87 751 163.06 468 164.4 469.24c-.77-.73-71.16-49.85-81.07-56L112 483.82s-87.74 25.36-98 28.65c-1.42 7.46-3.29 30 4.1 41.27 3 4.61 18.74 10.07 19.2 15.8.77 9.46-7.6 27.57-13 31.29.9.75 21.84 14 21.17 22.84-1.41 18.13-45.88 39.57-48.83 41.45-19.51 27.72 36.13 29.81 43.16 55.1 4.1 14.73-1.3 42-15.75 70.18-.05.04 16.95-1.4 41.53-7.99z" fill="#8b694d"/><path d="M219.88 266.15C191 214.27 133.16 164.91 17.61 164.91M-22.89 789.26q12.72 1.13 25.89 1.14c135.35 0 245.22-95.52 244.24-225.09 0 0 6.79-223-13.08-268.57M-30.57 525.81l143.5-42L-29 133.8" fill="none" stroke="#222229" stroke-linecap="round" stroke-linejoin="round" stroke-width="8"/><path d="M14.15 512.47s-11.79 46.44 17.13 51.1c12.36 2-2.8 34.52-8.4 36.39s33.31 15.86 17.51 34.52-63.22 30.78-48.3 50.38 75.23 16 30.64 102.83M-24.9 402.55c7.8-6.41 15.61-15.26 23.26-27.11a102.54 102.54 0 00-19.61-25.39M189.57 316.24s-50.87-82.82-122.43-7.06M176.12 315.94s-42.4-61.71-95.53-1.72" fill="none" stroke="#222229" stroke-linecap="round" stroke-linejoin="round" stroke-width="8"/><circle cx="128.35" cy="314.23" r="25.62" fill="#222229"/><path d="M-49.4 606.22s18.57 7.77 48.7 0 64.92-17.24 98.4 0" fill="none" stroke="#222229" stroke-linecap="round" stroke-linejoin="round" stroke-width="8"/><path d="M120.2 257.77c-77.87-.8-74.66 62.62-74.66 62.62s9.1 33.21 34.21 38.37c41 8.42 119.93-2.24 136.79-10.27s43.35-57 43.35-68.24-61.82-21.68-139.69-22.48zM210.92 318c-1.61 18.47-57 41.45-102.76 31.31s-38.54-36.12-37.74-55.39S113 271.44 113 271.44c104.34-12.04 99.52 28.1 97.92 46.56zM13.46 653.92s-13.58 25.32 16.4 31.4 22.59 58.2.49 85.41c0 0 18.54-56.41-10.45-70.69s-48.06-21.46-6.44-46.12z" fill="#222229"/><path d="M16.57 154.45s51.49 221.12 50.29 218.16-91.09-222.2-91.09-222.2z" fill="#222229"/></svg>