<svg xmlns="http://www.w3.org/2000/svg" width="400" height="800" viewBox="0 0 400 800"><title>right-mustache</title><path d="M62.88,30.3C21.61,24.58-.39,37.69-.39,37.69a25.48,25.48,0,0,0-6.25-4v599H234.49S422.48,80.16,62.88,30.3Z" fill="#222229"/><path d="M243.59,483.68c-1.27-27.5-3.4-55.1-4.78-82-7.6-37.79-15-68.8-32.35-115.41C177.92,211.25-2.42,137-2.42,137s-3.39,1-9.35,3V788.81c83.3,1.81,156.67-34.92,171.06-55,58.37-43,78.53-102.36,83.8-166.93,0-.9,0-1.8,0-2.68Z" fill="#b5b5b5"/><g opacity="0.4"><path d="M112.52,682.47C68.49,635.8,32,664-4.61,659.65q.19,9.84.41,19.69C29.26,691,45,683.28,32.87,702.28,23.36,717.22-8.06,728.87-1.69,755.1c13,47.14,101.23,18.53,119.14,5.72C143.18,743.26,131.87,696.89,112.52,682.47Z" fill="#fff"/></g><path d="M81.77,538.84s-22.93-23,24.2-22.26,110.34,40.49,80.85,95.5S128.59,683.17,126,672.17s33.32-36.31,8.51-72.78-66.92-28.84-66.92-28.84" fill="#fff" opacity="0.3"/><path d="M-2.42,137l-9.35,3.58V365.14c15.19,5.25,53.18-20.95,53.18-20.95S28.16,312.33,54.72,300.5s45.15-1.69,62-15.2S80.87,152.16-2.42,137Z" fill="#fff" opacity="0.5"/><path d="M171.12,329.05s24.67,56.47,16.15,59.95-27.79-10.55-25.92-3.08,32,39,40.68,27.8-9.13-88.81-9.13-88.81Z" fill="#fff" opacity="0.4"/><path d="M164.2,253c3.35,13.17,35.26,59,30.24,71.92s18.93,16.21,11-9.11S160.86,239.82,164.2,253Z" fill="#fff" opacity="0.5"/><path d="M126.41,352.08l-9.34,34s-27,20.24-5.75,19.86,65.06,20.8,62.39,49.82-3.41,34.62-43.19,34.77-71.1-9.78-76.82-30-19.35-67.91-19.35-67.91S106.72,332.59,126.41,352.08Z" fill="#fff" opacity="0.5"/><path d="M199.22,332.59s29.76,84.42,5,140.05,34.56-71,34.56-71l-5-64.5Z" fill="#222229"/><circle cx="117.07" cy="366.51" r="19.59" fill="#494949"/><circle cx="117.07" cy="363.38" r="10.34" fill="#222229"/><path d="M66.15,383.16h.1l22.44-.5s-13.15-8-5.18-16.23c4.11-4.22,11.11-10.88,23-12.64,25.58-3.75,49.21,16.49,49.44,16.7,0,0-21.85-29.35-51.47-25C87.64,348,73.93,357.92,62.35,376.25a4.51,4.51,0,0,0,3.8,6.91Z" fill="#222229"/><ellipse cx="33.27" cy="501.6" rx="8.41" ry="14.66" transform="translate(-344.94 170.44) rotate(-45)" fill="#222229"/><path d="M55.41,476.67s24.87,36-8.34,47.29,45.65,24.78,17.37-42.41S55.41,476.67,55.41,476.67Z" fill="#222229"/><circle cx="126.41" cy="363.38" r="4.58" fill="#fff"/><path d="M243.64,381.28l-1.13,181.11c1,129.57-108.9,225.09-244.24,225.09q-5,0-10-.17" fill="none" stroke="#222229" stroke-miterlimit="10" stroke-width="8"/><path d="M-2.42,137s236.2,62.6,237.18,192.17l3.83,6.72" fill="none" stroke="#222229" stroke-miterlimit="10" stroke-width="8"/><path d="M173.54,587.71c-1.29-12.76-8.77-25.38-21-35.68-12.84-10.83-29.57-19.18-49.67-24.28-22.39-5.67-47.14-6.65-71-7.5q-22.92-.79-45.86-.94v101.8a21.78,21.78,0,0,0,10.49-7L-.67,611A36.26,36.26,0,0,0,10,614a55.56,55.56,0,0,0,21.12-1.86c4.65-1.26,10.34-3.76,15.18-3.49,2.36.13,5.51,1.65,6.34,3.17,3.77,6.9,19.29,7.09,23,0l1.34-2.59a97.22,97.22,0,0,1,7.7,8.09c3.84,4.55,17,5.08,20.56,0l4.52-6.43,4.41,3.06c5.34,3.69,14.77,2.28,18.7-1.49,1.29-1.24,2.57-2.75,3.95-4.19a32.66,32.66,0,0,0,6,2.68c6.8,2.18,15.32,2.11,21.21-1.15C173,604.74,174.26,594.8,173.54,587.71Z" fill="#222229"/><path d="M55.42,471.54c-6.23-4.8-31-35.85-21.21-110.14,1.53-11.64-26-11-46.88-7.55V551.4a52.59,52.59,0,0,0,8.87,1.22C20.66,554,38.69,536,42.67,532.26l.06,0c6.56,2.67,14.64,5.41,20.78.44C78.49,520.62,69,482,55.42,471.54Z" fill="#edb072"/><path d="M55.42,471.54c-6.23-4.8-31.08-54.28-21.33-128.57.68-5.15-17.14,70.54-16,89.1C20.35,466.4,37.37,484,45.4,491.71c18,17.34-.44,37.28-2.73,40.55,5.74,2,15.81,4.55,20.84.47C78.49,520.62,69,482,55.42,471.54Z" fill="#cc813e"/><path d="M41.29,532.33c43.81,14.38,29.42-38.58,17.66-49" fill="none" stroke="#222229" stroke-linecap="round" stroke-linejoin="round" stroke-width="8"/><path d="M-14,537.94v10.41l10.2,4.27c11.7,6.08,40.48-19.34,46.47-20.36Z" fill="#cc813e"/><path d="M.06,553.08c18.24.93,42.56-25.09,49-31.3" fill="none" stroke="#222229" stroke-linecap="round" stroke-linejoin="round" stroke-width="8"/><path d="M262.71,328l-33.65-7.23h0c-17.86-5.06-51.21-8.06-71.12-9.13-20.77-1.12-72.11-2.73-100,6.58a71.66,71.66,0,0,0-17.63,8.51h0l-.14.1-1.11.78A77.25,77.25,0,0,1-1.48,339.75a58.54,58.54,0,0,1-9-.63v10.54c19.87,1.59,41.52,3.26,52,4,0,0,10.77-12.47,22.73-16.45,17-5.68,51.5-7.78,92.18-5.62,33.83,1.81,108.68,16.39,108.68,14.47l1.13-14.55C266.21,329.6,264.7,328.45,262.71,328Z" fill="#fff"/><path d="M52.8,337.15s-13.32,28.26-9.56,44.13c5.09,21.47,15.42,90.8,50.34,103.24l-18.59-6L49.8,446.74,27.61,377.17l13.8-33Z" fill="#fff"/><path d="M253,369.59c1-11,12.5-5.53,13.09-9.35s-.65-15.9-.16-24.11c.26-4.41-26.75,7.55-26.75,7.55S252.39,375.59,253,369.59Z" fill="#fff"/><path d="M193.74,490.54l-4.68-7.69c13.71-8.34,31.77-51.17,35.43-96,1.41-17.27-2-30.28-10-38.66-10.32-10.77-24.95-10.32-25.09-10.32l-.35-9c.76,0,18.85-.57,31.94,13.08,9.89,10.32,14.08,25.67,12.45,45.62C229.79,432.52,211.61,479.67,193.74,490.54Z" fill="#fff"/><path d="M262.71,333l-33.65-7.23h0c-17.86-5.06-51.21-8.06-71.12-9.13-20.77-1.12-72.11-2.73-100,6.58a71.66,71.66,0,0,0-17.63,8.51h0l-.14.1-1.11.78A77.25,77.25,0,0,1-1.48,344.75a58.54,58.54,0,0,1-9-.63V371.9a18,18,0,0,1,9-2.32c15.88,0,20.64,20.07,20.64,20.07h0c.62,3.48,1.32,6.51,1.88,8.89l.13.54A250,250,0,0,0,37.44,447.5c12.74,27.33,28.68,44.27,47.37,50.35,15.13,4.91,35.73,7.41,56.44,7.41,32.24,0,64.73-6.05,77.15-18.47,16.72-16.73,32.63-71.1,34.15-110.67a17.14,17.14,0,0,0,.12-2.17c0-19.49,10-18.93,10-18.93a3.51,3.51,0,0,0,3.5-3.5v-15C266.21,334.6,264.7,333.45,262.71,333ZM204.25,472.64c-4.73,4.74-21.19,10.31-47.29,12.1-24.33,1.67-49.61-.6-66-5.91-20.79-6.76-39.61-38.27-50.35-84.3l-.12-.54c-4.61-19.69-7-41.55,23.7-51.76,17-5.68,51.5-7.78,92.18-5.62,38.53,2.06,68.19,3.95,72.23,23.7C235.62,394.48,218.49,458.41,204.25,472.64Z" fill="#222229"/><path d="M-12.4,631.2c30.48,9.3,41.49,2.53,60.51,2s63.43,18.5,63.43,18.5" fill="none" stroke="#222229" stroke-linecap="round" stroke-miterlimit="10" stroke-width="8"/><path d="M219,263.79c-3.52-3.5-8.91-3.92-13.36-2a17.91,17.91,0,0,0-3.94,2.42c-.79-1.49-1.5-3.05-2.23-4.34-2.25-3.93-8.13-5.72-11.75-2.25l-3,2.86c-.82-2.2-1.63-4.4-2.45-6.59-1.93-5.22-10.29-5.23-13-.85a91,91,0,0,1-5.4,7.76c-.23-.88-.45-1.76-.68-2.64-1.86-7.23-14.54-8.29-17.37-1.55-.63,1.48-4.19,2.23-5.69,2.27-3.08.07-2.23-1.43-5.09-2.87-4.15-2.09-8.19-8.57-12.88-8-2.16.26-5.14,6.46-7.3,7.88l-1.59-3.32c-2.27-4.74-5.78-9.27-11.89-8.09-4.49.88-7.53,4.91-10.39,8.06-1.08,1.19-2.15,2.39-3.33,3.49l-.2.17c-.06-.1-.12-.19-.17-.29l-3.26-5.64c-2.41-4.17-5.69-8.69-11.39-7.56-4.8.94-7.07,5.21-9.62,8.81l-.36.51-5.12-8.91a7.76,7.76,0,0,0-13-.85,79.73,79.73,0,0,0-6.61,9.63c-2.73-3.56-5.33-7.2-7.77-11-2.67-4.13-10.13-6.25-13-.85C11.49,250.68,9.94,263,10,274.8c.07,11.18,2,22.58,7.7,32.44,11.68,20.18,30.73,47.23,111.91,40.48,15.14-1.25,30.93.18,45.47-4.56a73.13,73.13,0,0,0,33-22.19,67.19,67.19,0,0,0,15.6-34.74C224.62,279.19,224.48,269.22,219,263.79Z" fill="#222229"/></svg>