<svg xmlns="http://www.w3.org/2000/svg" width="400" height="800" viewBox="0 0 400 800"><title>right-tina</title><path d="M.78,31.15s-2.46-.2-6.92-.26V288.27C-1.93,255.58.37,235.09.37,235.09L78.31,767s219.47-27.41,219.47-335.38C297.78,7.63.78,31.15.78,31.15Z" fill="#1e1e1e"/><path d="M215.66,441.94C197.46,359.81,182.85,277.5,131,211.26,112,187,48.6,176.25-9.87,178.93v610C44.37,791.6,101,765.27,118.91,721.84c28.51-69.17,95.66-139.45,98.49-214.2C218.24,485.36,220.49,463.71,215.66,441.94Z" fill="#f6a87b" stroke="#1e1e1e" stroke-miterlimit="10" stroke-width="8"/><path d="M-27.9,689.88c3.44,2.44,36,24,66.42-.18" fill="none" stroke="#1e1e1e" stroke-linecap="round" stroke-miterlimit="10" stroke-width="8"/><path d="M-23.22,351.74c4.77-3,10.48-4,16.06-4.64A52,52,0,0,1,7.74,347c4.91.83,9.74,3,13,6.75" fill="none" stroke="#1e1e1e" stroke-miterlimit="10" stroke-width="8"/><path d="M227.44,325.92c11.72,2.3,24.66,5.9,30.71,16.21,5.34,9.1,3.55,20.55,1.27,30.85a507.71,507.71,0,0,1-36.55,107c-2.65,5.62-5.62,11.45-10.75,15-4.54,3.11-10.19,4-15.64,4.74a557.26,557.26,0,0,1-95.57,4.59c-16.08-.62-33.61-2.58-44.95-14-8.59-8.64-51.32-118.88-28.66-154S166,313.88,227.44,325.92Z" fill="#fff" stroke="#1e1e1e" stroke-miterlimit="10" stroke-width="8"/><path d="M98.63,426.38h-.1a8.94,8.94,0,0,1-7.15-3.9,8.34,8.34,0,0,1-1.51-5.85,10.82,10.82,0,0,1,1.29-7.9c2.14-3.84,5.93-5.78,9.43-4.85a8.7,8.7,0,0,1,3.77,2.3,13.27,13.27,0,0,1,4.1,11.4A10.37,10.37,0,0,1,98.63,426.38Z" fill="#1e1e1e"/><path d="M-29.78,486.87s0,36,29.11,36,30.25-36,30.25-36" fill="none" stroke="#1e1e1e" stroke-linecap="round" stroke-miterlimit="10" stroke-width="8"/><path d="M71.59,290.69c25.27-9.44,71.65-15.92,102.75-1.7" fill="none" stroke="#1e1e1e" stroke-linecap="round" stroke-miterlimit="10" stroke-width="8"/><path d="M87.93,627.73C71.61,644,47.8,656.84,25.08,660.89a152.6,152.6,0,0,1-22,2c-15.79.5-32-.26-46.68-6-7.46-2.94-33.5-78.16-14.27-75a338.67,338.67,0,0,0,173.51-16.83S104.26,611.43,87.93,627.73Z" fill="#5a2d22"/><path d="M69.94,642.34c6.18-3.35,2.83-9,3.58-7.89-15-11.25-34.76-14-53.53-13.88-10.76.09-21.7,1.06-31.66,5.14-13.86,5.67-24.62,16.82-34.94,27.67C-46.61,653.38-4.74,682.73,69.94,642.34Z" fill="#f67566"/><path d="M87.93,627.73C71.61,644,47.8,656.84,25.08,660.89a152.6,152.6,0,0,1-22,2c-15.79.5-32-.26-46.68-6-7.46-2.94-33.5-78.16-14.27-75a338.67,338.67,0,0,0,173.51-16.83S104.26,611.43,87.93,627.73Z" fill="none" stroke="#1e1e1e" stroke-linecap="round" stroke-miterlimit="10" stroke-width="8"/><path d="M73.52,634.45c-15-11.25-34.76-14-53.53-13.88-10.76.09-21.7,1.06-31.66,5.14" fill="none" stroke="#1e1e1e" stroke-linecap="round" stroke-miterlimit="10" stroke-width="8"/><path d="M-6.14,175.64v27.44c17.48-16.34,29.81-29.43,29.81-29.43Z" fill="#1e1e1e"/><path d="M8.6,182.15S-46.8,253-12,266.63s166.07-93,166.07-93" fill="#1e1e1e"/><path d="M105.23,182.15S49.83,253,84.63,266.63s131.78-61.26,131.78-61.26" fill="#1e1e1e"/></svg>