<svg xmlns="http://www.w3.org/2000/svg" width="4000" height="2000" viewBox="0 0 4000 2000"><path fill="#bfbfbf" d="M1939.39 954.51h121.98V1046h-121.98z"/><circle cx="2048.8" cy="967.09" r="12.58" fill="none" stroke="#666" stroke-width=".5"/><path fill="none" stroke="#666" stroke-width=".25" d="M2048.49 954.52v25.15M2036.22 967.09h25.15M2036.22 966.63l25.07-1.01M2036.22 967.88l24.95 1.47M2049.98 954.57l-1.18 25.1M2046.96 954.65l1.18 25.02"/><circle cx="2048.8" cy="967.09" r="2.26" fill="#bfbfbf" stroke="#666" stroke-width=".25"/><path d="M2051.82 972.65a4.78 4.78 0 0 0 2.07-2.15M2053.66 975.31a6.48 6.48 0 0 0 3.13-3.21M2045.35 962a4.83 4.83 0 0 0-2.08 2.15M2043.51 959.37a6.49 6.49 0 0 0-3.13 3.21" fill="none" stroke="#666" stroke-width=".25"/><circle cx="1952.14" cy="967.09" r="12.58" fill="none" stroke="#666" stroke-width=".5"/><path fill="none" stroke="#666" stroke-width=".25" d="M1939.57 967.4h25.15M1952.14 979.67v-25.16M1951.69 979.67l-1.02-25.07M1952.93 979.67l1.47-24.95M1939.62 965.91l25.1 1.18M1939.7 968.92l25.02-1.18"/><circle cx="1952.14" cy="967.09" r="2.26" fill="#bfbfbf" stroke="#666" stroke-width=".25"/><path d="M1957.7 964.07a4.83 4.83 0 0 0-2.15-2.08M1960.36 962.23a6.44 6.44 0 0 0-3.21-3.13M1947.09 970.54a4.71 4.71 0 0 0 2.15 2.07M1944.43 972.38a6.48 6.48 0 0 0 3.2 3.13" fill="none" stroke="#666" stroke-width=".25"/><circle cx="2048.8" cy="1033.42" r="12.58" fill="none" stroke="#666" stroke-width=".5"/><path fill="none" stroke="#666" stroke-width=".25" d="M2061.37 1033.11h-25.15M2048.8 1020.84V1046M2049.25 1020.84l1.02 25.07M2048 1020.84l-1.47 24.95M2061.32 1034.6l-25.1-1.18M2061.24 1031.59l-25.02 1.18"/><circle cx="2048.8" cy="1033.42" r="2.26" fill="#bfbfbf" stroke="#666" stroke-width=".25"/><path d="M2043.24 1036.45a4.77 4.77 0 0 0 2.15 2.07M2040.58 1038.28a6.44 6.44 0 0 0 3.2 3.13M2053.85 1030a4.78 4.78 0 0 0-2.15-2.07M2056.51 1028.13a6.48 6.48 0 0 0-3.21-3.13" fill="none" stroke="#666" stroke-width=".25"/><circle cx="1951.97" cy="1033.42" r="12.58" fill="none" stroke="#666" stroke-width=".5"/><path fill="none" stroke="#666" stroke-width=".25" d="M1952.28 1045.99v-25.15M1964.55 1033.42h-25.16M1964.55 1033.88l-25.07 1.01M1964.55 1032.63l-24.95-1.47M1950.79 1045.94l1.18-25.1M1953.8 1045.86l-1.18-25.02"/><circle cx="1951.97" cy="1033.42" r="2.26" fill="#bfbfbf" stroke="#666" stroke-width=".25"/><path d="M1949 1027.86a4.83 4.83 0 0 0-2.08 2.15M1947.11 1025.2a6.44 6.44 0 0 0-3.13 3.21M1955.42 1038.48a4.78 4.78 0 0 0 2.07-2.15M1957.26 1041.14a6.53 6.53 0 0 0 3.13-3.21" fill="none" stroke="#666" stroke-width=".25"/><circle cx="2000.38" cy="1000.26" r="44.51" fill="none" stroke="#666" stroke-width=".5"/><circle cx="2000.38" cy="1000.14" r="22.15" fill="none" stroke="#666" stroke-width=".5"/><path fill="none" stroke="#666" stroke-width=".5" d="M1970.07 969.84l13.42 13.43M2017.21 983.27l13.33-12.96M1983.49 1017.08l-5.44 5.45M2017.21 1017.08l5.59 5.59M1971.44 1024.5h57.65M1978.23 1026.54h44.3M1983.17 1028.41h34.38M1986.54 1030.39h27.8M1989.75 1032.18h21.32M1991.95 1034.01h16.71M1994.52 1035.68h11.79M1996.24 1037.73h8.24M1997.25 1039.61h6.22M1997.84 1041.41h4.93M1998.7 1043.3h3.32"/><path fill="none" stroke="#666" stroke-width=".25" d="M2000.38 1005.4v16.89M1972.85 969.84h55.61"/><path d="M2013.36 1018.09s4.69-3.55 6.35-7.11l-15-8.2a4.1 4.1 0 0 1-1.44 1.67z" fill="#666" opacity=".4"/><path d="M2010.81 1014.64a14.71 14.71 0 0 0 5.19-5.64l-11.32-6.19a4.1 4.1 0 0 1-1.44 1.67z" fill="#666" opacity=".4"/><path fill="none" stroke="#666" stroke-width=".25" d="M2004.72 1002.78l14.99 8.2M2013.36 1018.09l-10.08-13.64"/><path d="M2008.23 1011.15a9.42 9.42 0 0 0 4-4.27l-7.49-4.1a4.1 4.1 0 0 1-1.44 1.67z" fill="#666" opacity=".4"/><path d="M2005.67 1007.68s2.17-1.24 2.65-2.93l-3.6-2a4.1 4.1 0 0 1-1.44 1.67z" fill="#666"/><path d="M1987.64 982.13s-4.81 3.56-6.54 7.18l15.21 8.49a4.09 4.09 0 0 1 1.48-1.69z" fill="#666" opacity=".4"/><path d="M1990.21 985.67a15 15 0 0 0-5.39 5.72l11.49 6.41a4.09 4.09 0 0 1 1.48-1.69z" fill="#666" opacity=".4"/><path fill="none" stroke="#666" stroke-width=".25" d="M1996.31 997.8l-15.21-8.49M1987.64 982.13l10.15 13.98"/><path d="M1992.81 989.25a9.61 9.61 0 0 0-4.11 4.3l7.61 4.25a4.09 4.09 0 0 1 1.48-1.69z" fill="#666" opacity=".4"/><path d="M1995.39 992.8s-2.23 1.24-2.74 3l3.66 2a4.09 4.09 0 0 1 1.48-1.69z" fill="#666"/><circle cx="2000.38" cy="1000.5" r="4.9" fill="none" stroke="#666" stroke-width=".25"/><circle cx="2000.38" cy="1000.5" r="3.95" fill="none" stroke="#666" stroke-width=".25"/><circle cx="2000.38" cy="1000.5" r="3.02" fill="none" stroke="#666" stroke-width=".25"/><path fill="none" stroke="#666" stroke-width=".25" d="M1997.11 978.23l1.99 17.54M1998.81 978.23l.69 17.37M2000.38 977.99v17.61M2003.66 978.23l-2 17.54M2001.95 978.23l-.68 17.37M1999.1 1005.4l-1.31 16.74M2007.32 988.63a11.44 11.44 0 0 1 4.28 4.22M2009.87 985s4 2 5.11 5.11M1993.51 1011.9a11.44 11.44 0 0 1-4.28-4.22M1991 1015.54s-4-2-5.1-5.11M2001.66 1005.23l1.75 17.06M1978.25 999.3l17.52-.44M1978.25 1001.09l17.51 1.02M1978.23 1000.14h17.25M2005.28 1000.5h17.25M2004.88 998.54l17.45-1.43M2005.04 1002.03l17.24 1.5M2005.23 1001.23l17.23.76M2005.15 999.38l17.34-.66M2000.38 957.35v19.21M2044.89 984.99h16.48M2046.15 984.99v5.75M2047.27 1000.5h14.1M2046.15 1009.94v5.48M2044.89 1015.42h16.48M2032.94 984.99h7.44M2018.69 984.99h9.77M2024.53 1000.26h3.93M2033.61 1000.26h9.63M2040.58 1015.54h-6.97M2028.46 1015.42h-9.77M2015.57 1018.09v21.76M2015.57 1031.16h12.89M2030.54 1036.33v9.66M2016.04 1044.76v1.23M2030.54 982.13v-9.48M2030.54 964.83v-10.31M2015.57 955.75v-1.23M2015.57 960.66v21.47M2030.54 986.54v1"/><path fill="none" stroke="#666" stroke-width=".25" stroke-dasharray="1.96 1.96" d="M2030.54 989.5v22.49"/><path fill="none" stroke="#666" stroke-width=".25" d="M2030.54 1012.97v1M1956.05 984.99h-16.48M1954.79 984.99v5.75M1953.67 1000.5h-14.1M1954.79 1009.94v5.48M1956.05 1015.42h-16.48M1968.01 984.99h-7.45M1982.25 984.99h-9.77M1976.42 1000.26h-3.94M1967.33 1000.26h-9.62M1960.37 1015.54h6.96M1972.48 1015.42h9.77M1985.37 1018.09v21.76M1985.37 1031.16h-12.89M1970.4 1036.33v9.66M1984.91 1044.76v1.23M1970.4 982.13v-9.48M1970.4 964.83v-10.31M1985.37 955.75v-1.23M1985.37 960.66v21.47M1970.4 986.54v1"/><path fill="none" stroke="#666" stroke-width=".25" stroke-dasharray="1.96 1.96" d="M1970.4 989.5v22.49"/><path fill="none" stroke="#666" stroke-width=".25" d="M1970.4 1012.97v1"/></svg>