<svg xmlns="http://www.w3.org/2000/svg" width="2000" height="1000" viewBox="0 0 2000 1000"><path fill="#fff" stroke="#411f19" stroke-width=".1" d="M977.8 504.77h71.79v26.97H977.8z"/><path fill="#411f19" opacity=".1" d="M977.8 510.17h71.79v5.39H977.8zM977.8 520.95h71.79v5.39H977.8z"/><rect x="1036.9" y="505.8" width="10.92" height="3.41" rx=".5" fill="#7dc0a1" stroke="#411f19" stroke-width=".1"/><rect x="1036.9" y="511.16" width="10.92" height="3.41" rx=".5" fill="#7dc0a1" stroke="#411f19" stroke-width=".1"/><rect x="1036.9" y="516.55" width="10.92" height="3.41" rx=".5" fill="#7dc0a1" stroke="#411f19" stroke-width=".1"/><rect x="1036.9" y="521.95" width="10.92" height="3.41" rx=".5" fill="#7dc0a1" stroke="#411f19" stroke-width=".1"/><rect x="1036.9" y="527.34" width="10.92" height="3.41" rx=".5" fill="#7dc0a1" stroke="#411f19" stroke-width=".1"/><circle cx="980.67" cy="507.52" r="1.31" fill="#e5ba21" stroke="#411f19" stroke-width=".1"/><circle cx="980.67" cy="512.86" r="1.31" fill="#e5ba21" stroke="#411f19" stroke-width=".1"/><circle cx="980.67" cy="518.29" r="1.31" fill="#e5ba21" stroke="#411f19" stroke-width=".1"/><circle cx="980.67" cy="523.65" r="1.31" fill="#e5ba21" stroke="#411f19" stroke-width=".1"/><circle cx="980.67" cy="529.02" r="1.31" fill="#e5ba21" stroke="#411f19" stroke-width=".1"/><path fill="none" stroke="#411f19" stroke-width=".1" d="M983.55 507.52h10.01M1009.98 507.52h10.01M1009.98 512.86h10.01M1009.98 518.29h10.01M1009.98 523.65h10.01M1009.98 529.02h10.01M983.55 512.86h14.37M983.55 529.02h14.37M983.55 518.29h7.18M983.55 523.71h12.23"/></svg>