<svg xmlns="http://www.w3.org/2000/svg" width="4000" height="2000" viewBox="0 0 4000 2000"><path fill="#bf3522" stroke="#411f19" stroke-width=".75" d="M-140.75 1195.08h4296.88v817.31H-140.75z"/><path fill="#411f19" stroke="#411f19" stroke-linejoin="round" stroke-width=".75" d="M362.8-25.48h3284.11v683.77H362.8z"/><path fill="#d1a197" stroke="#411f19" stroke-width=".75" d="M1547.1 702.86L456.39-13.24H-24.63l-15.5 1678.67 1587.23-517.71V702.86zM2516.67 1168.66l1523.04 496.77-15.5-1678.67H3543.2L2516.67 660.72v507.94z"/><path fill="#d95e47" d="M2516.67 1168.66l1523.04 496.77 28.42-446.32-1431.69-157.56-108.37 13.8-11.4 93.31z"/><path fill="#d9b0a5" stroke="#411f19" stroke-width=".75" d="M1893.04 805.82h213.92v401.51h529.48l-.4-625.16H1363.76v625.16h529.28V805.82z"/><path fill="#d95e47" d="M1483.19 1168.66L-39.85 1665.43l-28.41-446.32 1431.68-157.56 108.38 13.8 11.39 93.31z"/><path fill="#411f19" stroke="#411f19" stroke-linejoin="round" stroke-width=".75" d="M1363.42 1075.9L-35.96 1244.17l.59-47.55 1398.79-135.07v14.35z"/><path fill="#e5ba21" stroke="#411f19" stroke-width=".75" d="M1877.18 790.18v417.15h16.47V806.66h212.7v400.67h16.47V790.18h-245.64z"/><path fill="#b79013" stroke="#411f19" stroke-width=".75" d="M2100.05 1195.08l6.3 12.25V806.66h-212.7v400.67l6.28-12.25V815.59h200.14v379.49h-.02z"/><path fill="#411f19" opacity=".4" d="M1893.65 806.66l6.28 8.93h200.14l6.28-8.93h-212.7z"/><path fill="#411f19" opacity=".3" d="M1893.69 806.89v12.56l6.24 13.01V816.1h200.06v16.7h.08l6.24-13.44v-12.47h-212.62z"/><path fill="#f3f4e1" stroke="#411f19" stroke-miterlimit="10" stroke-width=".75" d="M1922.42 701.82h155.16v37.78h-155.16z"/><path d="M1944.36 713.54h5.36v2.32h-2.92v3.48h2.58v2.32h-2.58v3.56h3v2.32h-5.42zM1959 713.54h2.44v11.68h2.56v2.32h-5zM1973 713.54h5.36v2.32h-2.92v3.48h2.56v2.32h-2.58v3.56h3v2.32H1973zM1986.86 713.54h2.48l1.32 9.12 1.32-9.12h2.4l-2.5 14h-2.52zM2004.68 713.5h2.6l2.66 14h-2.44l-.46-2.78h-2.22l-.44 2.78H2002zm2 9.06l-.74-4.62-.76 4.62zM2019.38 715.86h-1.72v-2.32h5.88v2.32h-1.72v11.68h-2.44zM2031.92 720.9v-.72c0-4.62 1.5-6.84 3.72-6.84s3.72 2.22 3.72 6.84v.72c0 4.62-1.5 6.84-3.72 6.84s-3.72-2.22-3.72-6.84zm5 0v-.72c0-3.6-.5-4.6-1.24-4.6s-1.24 1-1.24 4.6v.72c0 3.6.5 4.6 1.24 4.6s1.2-1 1.2-4.6zM2048.56 713.54h2.52c2.5 0 4.32 1.32 4.32 4.46v.18a4.36 4.36 0 0 1-1.64 3.68l1.88 5.68H2053l-1.58-4.88h-.42v4.88h-2.44zm2.56 6.92c1.06 0 1.84-.62 1.84-2.26v-.2c0-1.76-.84-2.22-1.9-2.22h-.06v4.64zM2139.1 883.67h89.3v86.03h-89.3z" fill="#411f19"/><path d="M2152.3 898.33h1.54l.62 5.27.75-5.27h1.39l.74 5.27.64-5.27h1.5l-1.31 8.63h-1.57l-.71-5.1-.71 5.1h-1.58zM2164.9 898.33h3.29v1.43h-1.79v2.14h1.6v1.42h-1.58v2.19h1.83v1.42h-3.33zM2173.87 898.33h1.5v7.18h1.63v1.42h-3.09zM2182 902.78v-.29c0-3 1.12-4.22 2.52-4.22a2 2 0 0 1 1 .2V900a1.52 1.52 0 0 0-.83-.29c-.66 0-1.14.59-1.14 2.74v.32c0 2.28.48 2.74 1.16 2.74a1.64 1.64 0 0 0 .84-.27v1.48a2.16 2.16 0 0 1-1.11.25c-1.37.03-2.44-1.19-2.44-4.19zM2190.76 902.85v-.44c0-2.84.92-4.2 2.29-4.2s2.28 1.36 2.28 4.2v.44c0 2.84-.92 4.21-2.28 4.21s-2.29-1.37-2.29-4.21zm3 0v-.44c0-2.21-.31-2.82-.76-2.82s-.76.61-.76 2.82v.44c0 2.22.3 2.83.76 2.83s.81-.61.81-2.83zM2201 898.33h1.49l1.05 3.15 1.06-3.15h1.48v8.6h-1.43v-5.19l-1.1 3.25-1.09-3.25v5.19H2201zM2211.88 898.33h3.29v1.43h-1.79v2.14h1.62v1.42h-1.58v2.19h1.83v1.42h-3.33zM2161.43 917.19h1.27l.52 4.37.62-4.37h1.16l.61 4.37.53-4.37h1.25l-1.08 7.15H2165l-.59-4.23-.59 4.23h-1.3zM2168.59 920.94v-.37c0-2.35.76-3.48 1.89-3.48s1.89 1.13 1.89 3.48v.37c0 2.35-.76 3.48-1.89 3.48s-1.89-1.13-1.89-3.48zm2.52 0v-.37c0-1.83-.25-2.34-.63-2.34s-.63.51-.63 2.34v.37c0 1.83.25 2.34.63 2.34s.63-.51.63-2.34zM2174 917.19h1.16l1.25 3.6v-3.6h1.21v7.13h-1.1l-1.31-3.78v3.78H2174zM2179.37 917.19h1.16c1.59 0 2.5 1.15 2.5 3.44v.25c0 2.29-.91 3.44-2.5 3.44h-1.16zm1.3 6c.59 0 1.1-.52 1.1-2.3v-.25c0-1.78-.51-2.3-1.1-2.3h-.05v4.85zM2184.66 917.19h2.72v1.18h-1.48v1.77h1.31v1.18h-1.31v1.82h1.51v1.18h-2.75zM2189 917.19h1.28a2 2 0 0 1 2.2 2.27v.09a2.23 2.23 0 0 1-.83 1.88l1 2.89h-1.32l-.8-2.49h-.24v2.49H2189zm1.3 3.52c.54 0 .94-.31.94-1.15v-.08c0-.89-.43-1.13-1-1.13v2.36zM2194.1 917.19h2.6v1.18h-1.36v1.79h1.18v1.18h-1.18v3h-1.24zM2198.25 922.24v-5h1.23v5.17c0 .64.23.9.54.9s.54-.26.54-.9v-5.17h1.23v5c0 1.5-.75 2.17-1.77 2.17s-1.77-.67-1.77-2.17zM2203.52 917.19h1.25v5.95h1.31v1.18h-2.56zM2167.16 933h1.27l.52 4.37.62-4.37h1.15l.61 4.37.53-4.37h1.25l-1.08 7.15h-1.31l-.59-4.23-.59 4.23h-1.3zM2174.54 933h2.73v1.18h-1.49V936h1.31v1.18h-1.31V939h1.52v1.18h-2.76zM2178.94 933h1.24v7.13h-1.24zM2182 933h1.28a2 2 0 0 1 2.2 2.27v.09a2.26 2.26 0 0 1-.83 1.88l1 2.89h-1.32l-.8-2.49h-.24v2.49H2182zm1.3 3.52c.54 0 .94-.31.94-1.15v-.08c0-.89-.43-1.13-1-1.13v2.36zM2187 933h1.16c1.59 0 2.49 1.15 2.49 3.44v.25c0 2.29-.9 3.44-2.49 3.44H2187zm1.29 6c.59 0 1.1-.52 1.1-2.3v-.25c0-1.78-.51-2.3-1.1-2.3V939zM2192.18 936.77v-.37c0-2.35.76-3.48 1.89-3.48s1.89 1.13 1.89 3.48v.37c0 2.35-.76 3.48-1.89 3.48s-1.89-1.13-1.89-3.48zm2.52 0v-.37c0-1.83-.25-2.34-.63-2.34s-.63.51-.63 2.34v.37c0 1.83.25 2.34.63 2.34s.63-.51.63-2.34zM2197.39 939.9v-1.29a2.21 2.21 0 0 0 1.12.4.59.59 0 0 0 .66-.61c0-.33-.1-.57-.69-1.25-.85-1-1.2-1.41-1.2-2.28A1.72 1.72 0 0 1 2199 933a2.24 2.24 0 0 1 1.09.22v1.3a1.7 1.7 0 0 0-.94-.33.6.6 0 0 0-.64.61c0 .34.1.46.69 1.14 1 1.13 1.19 1.57 1.19 2.39a1.75 1.75 0 0 1-1.76 1.86 2.73 2.73 0 0 1-1.24-.29zM2162 952.6v-.37c0-2.35.76-3.48 1.89-3.48s1.89 1.13 1.89 3.48v.37c0 2.35-.76 3.48-1.89 3.48S2162 955 2162 952.6zm2.52 0v-.37c0-1.83-.25-2.34-.63-2.34s-.63.51-.63 2.34v.37c0 1.83.25 2.34.63 2.34s.6-.51.6-2.34zM2167.38 948.85h2.6V950h-1.36v1.8h1.18v1.2h-1.18v3h-1.24zM2174.85 950h-.85v-1.18h3V950h-.88v6h-1.24zM2178.5 948.85h1.25v3h1.08v-3h1.24V956h-1.24v-3h-1.08v3h-1.25zM2183.82 948.85h2.72V950h-1.48v1.78h1.31V953h-1.31v1.81h1.52V956h-2.76zM2190.49 948.85h1.28l.51 4.37.62-4.37h1.16l.61 4.37.53-4.37h1.24l-1.08 7.15h-1.3l-.59-4.23-.6 4.23h-1.3zM2197.87 948.85h2.73V950h-1.49v1.78h1.32V953h-1.32v1.81h1.52V956h-2.76zM2202.25 948.85h1.08c1.2 0 2.32.49 2.32 1.82v.05a1.66 1.66 0 0 1-1 1.6 1.63 1.63 0 0 1 1.12 1.59v.09c0 1.27-1 2-2.36 2h-1.13zm1.26 3a.85.85 0 0 0 .92-.94.81.81 0 0 0-.92-.89v1.85zm0 3a.9.9 0 0 0 1-.93.89.89 0 0 0-1-.92v1.9z" fill="#f3f4e1"/><path fill="#e2e2c9" stroke="#411f19" stroke-miterlimit="10" stroke-width=".75" d="M2074.04 751.46l3.54-11.86h-155.16l3.52 11.86h148.1z"/><path fill="#411f19" d="M1935.43 759.84h129.13v22.7h-129.13z"/><path fill="#ceceb6" stroke="#411f19" stroke-miterlimit="10" stroke-width=".75" d="M1938 762.32h17.73v17.73H1938z"/><path d="M1944.18 771h3v1.38h-3zM1948.08 768.69l-.83.27v-1.42l1.24-.39h1v8.12h-1.41z"/><path fill="#ceceb6" stroke="#411f19" stroke-miterlimit="10" stroke-width=".75" d="M1955.74 762.32h17.73v17.73h-17.73z"/><path d="M1962.61 771.46V771c0-2.79.69-3.93 2-3.93s2 1.14 2 3.93v.44c0 2.78-.71 3.92-2 3.92s-2-1.12-2-3.9zm2.59 0V771c0-2.28-.28-2.65-.6-2.65s-.61.37-.61 2.65v.41c0 2.29.28 2.65.61 2.65s.6-.33.6-2.62z"/><path fill="#f3f4e1" stroke="#411f19" stroke-miterlimit="10" stroke-width=".75" d="M1973.47 762.32h17.73v17.73h-17.73z"/><path fill="#ceceb6" stroke="#411f19" stroke-miterlimit="10" stroke-width=".75" d="M1991.2 762.32h17.73v17.73h-17.73zM2008.94 762.32h17.73v17.73h-17.73z"/><path d="M1981.87 768.69l-.83.27v-1.42l1.25-.39h1v8.12h-1.42zM1998.47 774.08l1.36-3.11a4.79 4.79 0 0 0 .55-1.76.66.66 0 0 0-.71-.7 2 2 0 0 0-1 .33v-1.36a3 3 0 0 1 1.35-.33 1.65 1.65 0 0 1 1.77 1.79v.06a5.25 5.25 0 0 1-.63 2.19l-1.15 2.67h1.75v1.41h-3.25zM2016.08 775.13v-1.33a2.42 2.42 0 0 0 1 .21 1 1 0 0 0 1-1.14v-.09c0-.84-.55-1.19-1.4-1.24v-.93l1.31-2h-1.82v-1.41h3.25v1.26l-1.36 2.09a2 2 0 0 1 1.4 2.13v.12a2.26 2.26 0 0 1-2.2 2.55 2.94 2.94 0 0 1-1.18-.22z"/><path fill="#ceceb6" stroke="#411f19" stroke-miterlimit="10" stroke-width=".75" d="M2026.67 762.32h17.73v17.73h-17.73z"/><path d="M2035.66 773.78h-2.18v-1.07l2.11-5.53h1.41v5.39h.65v1.21h-.65v1.49h-1.32zm0-1.21v-3l-1 3z"/><path fill="#ceceb6" stroke="#411f19" stroke-miterlimit="10" stroke-width=".75" d="M2044.4 762.32h17.73v17.73h-17.73z"/><path d="M2051.69 775.13v-1.37a2.06 2.06 0 0 0 .92.24c.66 0 1-.54 1-1.39v-.08c0-.86-.31-1.15-.77-1.15a1.35 1.35 0 0 0-.55.11l-.68-.45.22-3.84h2.87v1.34h-1.83l-.11 1.61a2.61 2.61 0 0 1 .54 0c.86 0 1.7.62 1.7 2.42v.1c0 1.74-.92 2.73-2.26 2.73a2.74 2.74 0 0 1-1.05-.27z"/><path fill="#e5ba21" stroke="#411f19" stroke-width=".75" d="M2139.1 987.29h28.06v58.29h-28.06z"/><circle cx="2153.13" cy="1005.47" r="6.71" fill="#f3f4e1" stroke="#411f19" stroke-miterlimit="10" stroke-width=".75"/><path fill="#411f19" d="M2156.15 1006.95h-6.04l3.02-4.05 3.02 4.05z"/><circle cx="2153.13" cy="1027.22" r="6.71" fill="#f3f4e1" stroke="#411f19" stroke-miterlimit="10" stroke-width=".75"/><path fill="#411f19" d="M2150.11 1025.74h6.04l-3.02 4.05-3.02-4.05z"/><path fill="#d95e47" stroke="#411f19" stroke-width=".75" d="M2122.82 1075.35h513.57v118.26h-513.57z"/><path fill="#411f19" stroke="#411f19" stroke-linejoin="round" stroke-width=".75" d="M2122.82 1061.63h513.57v13.72h-513.57zM2122.82 1193.61h513.57v13.72h-513.57z"/><path fill="none" stroke="#411f19" stroke-width=".75" d="M2122.82 1083.63h513.57M2122.82 1093.8h513.57M2122.82 1103.97h513.57M2122.82 1114.14h513.57M2122.82 1124.31h513.57M2122.82 1134.48h513.57M2122.82 1144.65h513.57M2122.82 1154.82h513.57M2122.82 1164.99h513.57M2122.82 1175.16h513.57M2122.82 1185.33h513.57M2158.95 1075.35v118.26M2195.07 1075.35v118.26M2231.2 1075.35v118.26M2267.32 1075.35v118.26M2491.94 1075.35v118.26M2528.07 1075.35v118.26M2564.19 1075.35v118.26M2600.31 1075.35v118.26"/><path fill="#d9b0a5" stroke="#411f19" stroke-linejoin="round" stroke-width=".75" d="M2321.33 558.06h147.54v661.05h-147.54z"/><path fill="#d1a197" stroke="#411f19" stroke-width=".75" d="M2303.45 582.65v624.28l17.88 12.18V558.06l-17.88 24.59z"/><path fill="#d95e47" stroke="#411f19" stroke-width=".75" d="M2321.33 1079.76h147.54v124.86h-147.54z"/><path fill="#411f19" stroke="#411f19" stroke-linejoin="round" stroke-width=".75" d="M2321.33 1065.27h147.54v14.49h-147.54zM2321.33 1204.62h147.54v14.49h-147.54z"/><path fill="none" stroke="#411f19" stroke-width=".75" d="M2321.33 1088.5h147.54M2321.33 1099.24h147.54M2321.33 1109.98h147.54M2321.33 1120.72h147.54M2321.33 1131.45h147.54M2321.33 1142.19h147.54M2321.33 1152.93h147.54M2321.33 1163.67h147.54M2321.33 1174.4h147.54M2321.33 1185.14h147.54M2321.33 1195.88h147.54M2359.47 1079.76v124.86M2397.61 1079.76v124.86M2435.75 1079.76v124.86"/><path fill="#411f19" stroke="#411f19" stroke-linejoin="round" stroke-width=".75" d="M2303.45 1061.59v13.56l17.88 4.42v-14.36l-17.88-3.62zM2303.45 1193.38v13.55l17.88 12.18v-14.37l-17.88-11.36z"/><path fill="#bc4535" stroke="#411f19" stroke-width=".75" d="M2303.45 1075.15l17.88 4.42v125.17l-17.88-11.36v-118.23z"/><path fill="none" stroke="#411f19" stroke-width=".75" d="M2303.44 1083.63l17.89 4.87M2303.44 1093.8l17.89 5.44M2303.44 1103.97l17.89 6.01M2303.44 1114.14l17.89 6.58M2303.44 1124.31l17.89 7.14M2303.44 1134.48l17.89 7.71M2303.44 1144.65l17.89 8.28M2303.44 1154.82l17.89 8.85M2303.44 1164.99l17.89 9.41M2303.44 1175.16l17.89 9.98M2303.44 1185.33l17.89 10.55"/><path fill="#d95e47" stroke="#411f19" stroke-width=".75" d="M1877.18 1193.61h-513.57v-118.26h513.57z"/><path fill="#411f19" stroke="#411f19" stroke-linejoin="round" stroke-width=".75" d="M1877.18 1075.34h-513.57v-13.72h513.57zM1877.18 1207.33h-513.57v-13.72h513.57z"/><path fill="none" stroke="#411f19" stroke-width=".75" d="M1877.18 1083.63h-513.57M1877.18 1093.8h-513.57M1877.18 1103.97h-513.57M1877.18 1114.14h-513.57M1877.18 1124.31h-513.57M1877.18 1134.48h-513.57M1877.18 1144.65h-513.57M1877.18 1154.82h-513.57M1877.18 1164.99h-513.57M1877.18 1175.16h-513.57M1877.18 1185.33h-513.57M1841.05 1075.35v118.26M1804.93 1075.35v118.26M1768.8 1075.35v118.26M1732.68 1075.35v118.26M1508.06 1075.35v118.26M1471.93 1075.35v118.26M1435.81 1075.35v118.26M1399.69 1075.35v118.26"/><path fill="#d9b0a5" stroke="#411f19" stroke-linejoin="round" stroke-width=".75" d="M1678.68 1219.11h-147.54V558.06h147.54z"/><path fill="#d1a197" stroke="#411f19" stroke-width=".75" d="M1696.56 582.65v624.28l-17.89 12.18V558.06l17.89 24.59z"/><path fill="#d95e47" stroke="#411f19" stroke-width=".75" d="M1678.68 1204.62h-147.54v-124.86h147.54z"/><path fill="#411f19" stroke="#411f19" stroke-linejoin="round" stroke-width=".75" d="M1678.68 1079.76h-147.54v-14.49h147.54zM1678.68 1219.11h-147.54v-14.49h147.54z"/><path fill="none" stroke="#411f19" stroke-width=".75" d="M1678.67 1088.5h-147.54M1678.67 1099.24h-147.54M1678.67 1109.98h-147.54M1678.67 1120.72h-147.54M1678.67 1131.45h-147.54M1678.67 1142.19h-147.54M1678.67 1152.93h-147.54M1678.67 1163.67h-147.54M1678.67 1174.4h-147.54M1678.67 1185.14h-147.54M1678.67 1195.88h-147.54M1640.53 1079.76v124.86M1602.39 1079.76v124.86M1564.25 1079.76v124.86"/><path fill="#411f19" stroke="#411f19" stroke-linejoin="round" stroke-width=".75" d="M1696.56 1061.59v13.56l-17.89 4.42v-14.36l17.89-3.62zM1696.56 1193.38v13.55l-17.89 12.18v-14.37l17.89-11.36z"/><path fill="#bc4535" stroke="#411f19" stroke-width=".75" d="M1696.56 1075.15l-17.89 4.42v125.17l17.89-11.36v-118.23z"/><path fill="none" stroke="#411f19" stroke-width=".75" d="M1696.56 1083.63l-17.89 4.87M1696.56 1093.8l-17.89 5.44M1696.56 1103.97l-17.89 6.01M1696.56 1114.14l-17.89 6.58M1696.56 1124.31l-17.89 7.14M1696.56 1134.48l-17.89 7.71M1696.56 1144.65l-17.89 8.28M1696.56 1154.82l-17.89 8.85M1696.56 1164.99l-17.89 9.41M1696.56 1175.16l-17.89 9.98M1696.56 1185.33l-17.89 10.55"/><path fill="#411f19" stroke="#411f19" stroke-linejoin="round" stroke-width=".75" d="M2636.44 1207.73l1403.27 457.7-.43-46.39-1402.84-425.75v14.44zM1363.76 1207.73l-1403.27 457.7.43-46.39 1402.84-425.75v14.44z"/><path fill="#411f19" stroke="#411f19" stroke-miterlimit="10" stroke-width=".75" opacity=".2" d="M2384.12 727.12h21.96v84.76h-21.96z"/><path d="M2410 806.66h-29.86V691.42a34.21 34.21 0 0 1 29.86 0z" fill="#f3f4e1" stroke="#411f19" stroke-miterlimit="10" stroke-width=".75"/><path d="M2385.87 689.23a27.52 27.52 0 0 0-5.7 2.19v115.24h5.7zM2404.33 689.23a27.83 27.83 0 0 1 5.7 2.19v115.24h-5.7z" fill="#411f19" stroke="#411f19" stroke-miterlimit="10" stroke-width=".75" opacity=".15"/><path fill="#411f19" stroke="#411f19" stroke-miterlimit="10" stroke-width=".75" d="M2380.17 734.11h29.86v29.86h-29.86z"/><path fill="#411f19" stroke="#411f19" stroke-miterlimit="10" stroke-width=".75" opacity=".2" d="M1591.41 727.12h21.96v84.76h-21.96z"/><path d="M1617.32 806.66h-29.86V691.42a34.21 34.21 0 0 1 29.86 0z" fill="#f3f4e1" stroke="#411f19" stroke-miterlimit="10" stroke-width=".75"/><path d="M1593.16 689.23a27.52 27.52 0 0 0-5.7 2.19v115.24h5.7zM1611.62 689.23a27.52 27.52 0 0 1 5.7 2.19v115.24h-5.7z" fill="#411f19" stroke="#411f19" stroke-miterlimit="10" stroke-width=".75" opacity=".15"/><path fill="#411f19" stroke="#411f19" stroke-miterlimit="10" stroke-width=".75" d="M1587.46 734.11h29.86v29.86h-29.86z"/><path fill="#411f19" stroke="#411f19" stroke-linejoin="round" stroke-width=".75" d="M2636.44 1075.4l1399.38 168.77-.59-47.55-1398.79-135.07v13.85z"/><path d="M3278.19 350.49l-314.46 159.78v505.48l314.46 5.11V350.49zM2913.52 535.79l-245.93 125v350.18l245.93 4V535.79zM3851.31 59.28L3340.5 318.83v703.05l510.81 8.3V59.28zM721.6 350.49v670.37l314.46-5.11V510.27L721.6 350.49zM148.49 59.28v970.9l510.81-8.3v-703L148.49 59.28zM1086.27 535.79v479.14l245.93-4V660.75l-245.93-125z" fill="#bf3522"/><path d="M3278.19 350.49l-314.46 159.78v505.48l314.46 5.11V350.49zM2913.52 535.79l-245.93 125v350.18l245.93 4V535.79zM3851.31 59.28L3340.5 318.83v703.05l510.81 8.3V59.28zM721.6 350.49v670.37l314.46-5.11V510.27L721.6 350.49zM148.49 59.28v970.9l510.81-8.3v-703L148.49 59.28zM1086.27 535.79v479.14l245.93-4V660.75l-245.93-125z" fill="#d9b0a5"/><path d="M3278.19 350.49l-314.46 159.78v505.48l314.46 5.11V350.49zM2913.52 535.79l-245.93 125v350.18l245.93 4V535.79zM3851.31 59.28L3340.5 318.83v703.05l510.81 8.3V59.28zM721.6 350.49v670.37l314.46-5.11V510.27L721.6 350.49zM148.49 59.28v970.9l510.81-8.3v-703L148.49 59.28zM1086.27 535.79v479.14l245.93-4V660.75l-245.93-125z" fill="none" stroke="#411f19" stroke-width=".75"/><path d="M3270.19 363.53v649.2l-298.46-4.85v-492.7l298.46-151.65m8-13l-314.46 159.74v505.48l314.46 5.11V350.49zM2908.52 543.94v465.91l-235.93-3.85V663.82l235.93-119.88m5-8.15l-245.93 125v350.18l245.93 4V535.79zM3840.31 77.21V1019l-488.81-8V325.58l488.81-248.37m11-17.93L3340.5 318.83v703.05l510.81 8.3V59.28zM729.6 363.53l298.46 151.65v492.7l-298.46 4.85v-649.2m-8-13v670.37l314.46-5.11V510.27L721.6 350.49zM159.49 77.21L648.3 325.58v685.47l-488.81 8V77.21m-11-17.93v970.9l510.81-8.3v-703L148.49 59.28zM1091.27 543.94l235.93 119.88V1006l-235.93 3.84v-465.9m-5-8.15v479.14l245.93-4V660.75l-245.93-125z" fill="#d1a197" stroke="#411f19" stroke-width=".75"/><path fill="#ad291c" d="M2137.68 1216.76h161.44l22.21 16.3h195.34l-36.64-17.23H2603l1656.05 594.32-223.23 202.24h-1391.1l-507.04-795.63zM1863.77 1216.76h-161.44l-22.2 16.3h-195.34l36.63-17.23h-122.96L-257.6 1810.15l223.24 202.24h1391.09l507.04-795.63z"/><path fill="#f3f4e1" stroke="#411f19" stroke-miterlimit="10" stroke-width=".75" d="M2044.31 358.6l2.51-37.3h-93.64l2.5 37.3h88.63z"/><path fill="#e2e2c9" stroke="#411f19" stroke-miterlimit="10" stroke-width=".75" d="M1953.18 309.48h93.64v11.81h-93.64zM2761.66 309.48h93.64v11.81h-93.64zM1144.7 309.48h93.64v11.81h-93.64z"/><path fill="#f3f4e1" stroke="#411f19" stroke-miterlimit="10" stroke-width=".75" d="M1278.82 358.6l-40.48-37.3h-93.64l45.5 37.3h88.62z"/><path fill="#f3f4e1" stroke="#411f19" stroke-miterlimit="10" stroke-width=".75" d="M1278.82 347.42l-40.48-37.93v11.81l40.48 37.3v-11.18zM2809.13 358.6l46.17-37.3h-93.64l-41.15 37.3h88.62z"/><path fill="#f3f4e1" stroke="#411f19" stroke-miterlimit="10" stroke-width=".75" d="M2720.51 358.6l41.15-37.3v-11.81l-41.15 37.93v11.18zM2035.33 500.93l2.01-29.74h-74.68l2 29.74h70.67z"/><path fill="#e2e2c9" stroke="#411f19" stroke-miterlimit="10" stroke-width=".75" d="M1962.66 461.76h74.67v9.42h-74.67zM2607.39 461.76h74.67v9.42h-74.67zM1317.94 461.76h74.67v9.42h-74.67z"/><path fill="#f3f4e1" stroke="#411f19" stroke-miterlimit="10" stroke-width=".75" d="M1424.89 500.93l-32.28-29.74h-74.67l36.28 29.74h70.67z"/><path fill="#f3f4e1" stroke="#411f19" stroke-miterlimit="10" stroke-width=".75" d="M1424.89 492.01l-32.28-30.25v9.43l32.28 29.74v-8.92zM2645.24 500.93l36.82-29.74h-74.67l-32.82 29.74h70.67z"/><path fill="#f3f4e1" stroke="#411f19" stroke-miterlimit="10" stroke-width=".75" d="M2574.57 500.93l32.82-29.74v-9.43l-32.82 30.25v8.92zM2044.31 358.6l2.51-37.3h-93.64l2.5 37.3h88.63z"/><path fill="#e2e2c9" stroke="#411f19" stroke-miterlimit="10" stroke-width=".75" d="M1953.18 309.48h93.64v11.81h-93.64zM2761.66 309.48h93.64v11.81h-93.64zM1144.7 309.48h93.64v11.81h-93.64z"/><path fill="#f3f4e1" stroke="#411f19" stroke-miterlimit="10" stroke-width=".75" d="M1278.82 358.6l-40.48-37.3h-93.64l45.5 37.3h88.62z"/><path fill="#f3f4e1" stroke="#411f19" stroke-miterlimit="10" stroke-width=".75" d="M1278.82 347.42l-40.48-37.93v11.81l40.48 37.3v-11.18zM2809.13 358.6l46.17-37.3h-93.64l-41.15 37.3h88.62z"/><path fill="#f3f4e1" stroke="#411f19" stroke-miterlimit="10" stroke-width=".75" d="M2720.51 358.6l41.15-37.3v-11.81l-41.15 37.93v11.18zM2035.33 500.93l2.01-29.74h-74.68l2 29.74h70.67z"/><path fill="#e2e2c9" stroke="#411f19" stroke-miterlimit="10" stroke-width=".75" d="M1962.66 461.76h74.67v9.42h-74.67zM2607.39 461.76h74.67v9.42h-74.67zM1317.94 461.76h74.67v9.42h-74.67z"/><path fill="#f3f4e1" stroke="#411f19" stroke-miterlimit="10" stroke-width=".75" d="M1424.89 500.93l-32.28-29.74h-74.67l36.28 29.74h70.67z"/><path fill="#f3f4e1" stroke="#411f19" stroke-miterlimit="10" stroke-width=".75" d="M1424.89 492.01l-32.28-30.25v9.43l32.28 29.74v-8.92zM2645.24 500.93l36.82-29.74h-74.67l-32.82 29.74h70.67z"/><path fill="#f3f4e1" stroke="#411f19" stroke-miterlimit="10" stroke-width=".75" d="M2574.57 500.93l32.82-29.74v-9.43l-32.82 30.25v8.92zM2059.17 118.65l3.36-49.91h-125.3l3.35 49.91h118.59z"/><path fill="#e2e2c9" stroke="#411f19" stroke-miterlimit="10" stroke-width=".75" d="M1937.23 52.94h125.3v15.81h-125.3zM3027.31 52.94h125.3v15.81h-125.3zM863.62 52.94h125.3v15.81h-125.3z"/><path fill="#f3f4e1" stroke="#411f19" stroke-miterlimit="10" stroke-width=".75" d="M1043.1 118.65l-54.18-49.91h-125.3l60.89 49.91h118.59zM1043.1 103.69l-54.18-50.75v15.8l54.18 49.91v-14.96zM3090.83 118.65l61.78-49.91h-125.3l-55.07 49.91h118.59z"/><path fill="#f3f4e1" stroke="#411f19" stroke-miterlimit="10" stroke-width=".75" d="M2972.24 118.65l55.07-49.91v-15.8l-55.07 50.75v14.96z"/></svg>