<svg xmlns="http://www.w3.org/2000/svg" width="4000" height="2000" viewBox="0 0 4000 2000"><path d="M4035.49-36.31h-4081V2018h4081.45zM2059 1043.38l-60.67 5.84-58.85-5.5-6.75-32.49 3.77-55.4 11.12-4.48 48.65-1.2L2059 954l2.81 45.44z" fill="#313c61"/><path d="M1930.28 946v99.13h139.42V946zm127.4 60.6c-.09 6-.37 11.9-.78 17.84-.23 3.48-.61 6.94-1.08 10.39-.42 3.06-1.71 4.34-4.76 4.85-4.88.81-9.8 1.17-14.72 1.64-7.44.72-14.9 1-22.36 1.31-6.76.28-13.54.32-20.31.19-7.58-.15-15.16-.44-22.72-1s-14.84-1.1-22.19-2.28c-2.65-.42-3.83-1.49-4.34-4.13a92.64 92.64 0 0 1-1.65-14.18c-.21-5.28-.65-10.55-.7-15.84v-7.4c0-7.7.12-15.39.68-23.07a95.83 95.83 0 0 1 1.26-12.3c.45-2.23 1.34-3.08 3.6-3.31 6.22-.61 12.45-1 18.68-1.38 5.78-.3 11.56-.38 17.34-.55 6.07-.17 12.14-.5 18.21-.43 7.55.09 15.11.23 22.66.53q12 .48 23.92 1.38a26.72 26.72 0 0 1 3.89.51 4.1 4.1 0 0 1 3.57 3.75c.55 3.7.85 7.44 1.1 11.18.72 10.7.87 21.47.7 32.25z" fill="#210f0c" opacity=".8"/><path fill="none" stroke="#af7a3a" stroke-width=".25" d="M2041.61 905.91l-17.22 33.15-18.26-33.15"/><path d="M1919 935.86v128.54h208.53V935.86zm141.71 106.41l-60.67 5.64-60.67-4.51-4-43.71 4-44.77 60.67-3.45 60.67 4.51 3.81 45.69z" fill="#8e5b30" stroke="#411f19" stroke-width=".25"/><path fill="#6d4225" stroke="#411f19" stroke-width=".25" d="M2082.75 939.13h41.46v121.53h-41.46z"/><path d="M1927 944.68v111.08h146.78V944.68zm133.68 97.59l-60.67 5.64-60.67-4.51-4-43.71 4-44.77 60.67-3.45 60.67 4.51 3.81 45.69z" fill="#aa7752" stroke="#411f19" stroke-width=".25"/><path d="M2066.84 969.86c-.29-4.38-.64-8.76-1.28-13.1a4.81 4.81 0 0 0-4.19-4.38 30.31 30.31 0 0 0-4.55-.6q-14-1.06-28-1.62c-8.84-.34-17.69-.51-26.53-.62-7.11-.09-14.22.3-21.33.51-6.76.19-13.54.28-20.3.64-7.3.39-14.6.9-21.88 1.62-2.64.26-3.69 1.25-4.22 3.87a116 116 0 0 0-1.48 14.4c-.64 9-.8 18-.79 27v8.67c0 6.19.57 12.36.81 18.54a109.06 109.06 0 0 0 1.93 16.61c.6 3.1 2 4.35 5.09 4.84 8.61 1.38 17.3 2 26 2.67 8.86.66 17.73 1 26.61 1.17 7.93.16 15.86.11 23.79-.21 8.73-.36 17.47-.69 26.18-1.53 5.75-.56 11.52-1 17.23-1.93 3.58-.59 5.09-2.09 5.58-5.68.55-4 1-8.09 1.27-12.17.48-7 .8-13.92.91-20.89.17-12.6-.01-25.21-.85-37.81zm-6.24 37.14q-.15 9.36-.81 18.71c-.25 3.65-.65 7.28-1.14 10.9-.44 3.21-1.8 4.55-5 5.08-5.12.85-10.29 1.23-15.44 1.73-7.8.75-15.63 1-23.45 1.37-7.1.29-14.2.33-21.31.2-8-.16-15.9-.47-23.83-1.06s-15.56-1.16-23.28-2.39c-2.78-.44-4-1.56-4.55-4.34a97.61 97.61 0 0 1-1.73-14.87c-.22-5.54-.69-11.07-.73-16.61v-7.77c0-8.07.13-16.14.71-24.2a99.66 99.66 0 0 1 1.32-12.89c.47-2.35 1.41-3.24 3.78-3.47 6.52-.64 13-1.1 19.6-1.45 6-.32 12.12-.4 18.18-.58 6.37-.18 12.73-.53 19.1-.45 7.92.1 15.85.25 23.77.56q12.56.5 25.09 1.44a28 28 0 0 1 4.08.54 4.31 4.31 0 0 1 3.75 3.93c.58 3.89.89 7.81 1.15 11.73.76 11.3.92 22.6.74 33.89z" fill="#6d4225" stroke="#411f19" stroke-width=".25"/><path fill="none" stroke="#411f19" stroke-width=".25" d="M1922.25 939.06h201.95v121.61h-201.95zM2078.25 939.06v121.6"/><path fill="#7c4e2c" stroke="#af7a3a" stroke-width=".25" d="M2086.47 944.68h31.9v66.41h-31.9z"/><circle cx="2095.32" cy="1022.32" r="2.81" fill="#411f19" opacity=".4"/><circle cx="2095.32" cy="1020.42" r="2.81" fill="#aa7752" stroke="#411f19" stroke-width=".25"/><ellipse cx="2095.32" cy="1019.26" rx="1.28" ry=".61" fill="#411f19"/><circle cx="2109.28" cy="1022.32" r="2.81" fill="#411f19" opacity=".4"/><circle cx="2109.28" cy="1020.42" r="2.81" fill="#aa7752" stroke="#411f19" stroke-width=".25"/><ellipse cx="2109.28" cy="1019.26" rx="1.28" ry=".61" fill="#411f19"/><circle cx="2095.32" cy="1034.84" r="2.81" fill="#411f19" opacity=".4"/><circle cx="2095.32" cy="1032.95" r="2.81" fill="#aa7752" stroke="#411f19" stroke-width=".25"/><ellipse cx="2095.32" cy="1031.78" rx="1.28" ry=".61" fill="#411f19"/><circle cx="2109.28" cy="1034.84" r="2.81" fill="#411f19" opacity=".4"/><circle cx="2109.28" cy="1032.95" r="2.81" fill="#aa7752" stroke="#411f19" stroke-width=".25"/><ellipse cx="2109.28" cy="1031.78" rx="1.28" ry=".61" fill="#411f19"/><path d="M2098.4 1000.85l.48-.62-1.24-1-.46.6a4.09 4.09 0 0 0-2-.51 4.22 4.22 0 0 0-3.08 7.11l-.37.48 1.24.95.39-.51a4.3 4.3 0 0 0 1.82.42 4.23 4.23 0 0 0 4.23-4.22 4.18 4.18 0 0 0-1.01-2.7z" fill="#411f19" opacity=".4"/><path fill="#411f19" opacity=".6" d="M1922.25 939.06v1.85h199.28v119.75h2.68v-121.6h-201.96z"/><circle cx="2095.21" cy="1001.99" r="4.23" fill="#b2a8a1" stroke="#411f19" stroke-width=".25"/><path d="M2099.44 1002a4.23 4.23 0 1 1-8.46 0z" fill="#411f19" opacity=".4"/><path fill="#b2a8a1" stroke="#411f19" stroke-width=".25" d="M2097.818 997.583l1.239.948-5.876 7.68-1.24-.948z"/><path d="M2113.51 1003.6a4.23 4.23 0 0 0-3.34-4.13v-.71h-1.56v.68a4.21 4.21 0 0 0 0 8.32v.67h1.56v-.7a4.23 4.23 0 0 0 3.34-4.13z" fill="#411f19" opacity=".4"/><circle cx="2109.17" cy="1001.84" r="4.23" fill="#b2a8a1" stroke="#411f19" stroke-width=".25"/><path d="M2113.39 1001.84a4.23 4.23 0 1 1-8.45 0z" fill="#411f19" opacity=".4"/><path fill="#b2a8a1" stroke="#411f19" stroke-width=".25" d="M2108.5 997.01h1.56v9.67h-1.56z"/><path fill="#aa7752" stroke="#411f19" stroke-width=".25" d="M2091.3 949.53h22.24v43.87h-22.24z"/><path fill="none" stroke="#411f19" stroke-width=".25" d="M2091.3 955.01h22.24M2091.3 960.5h22.24M2091.3 965.98h22.24M2091.3 971.46h22.24M2091.3 976.95h22.24M2091.3 982.43h22.24M2091.3 987.92h22.24"/><path d="M2061.37 952.38a30.31 30.31 0 0 0-4.55-.6q-14-1.06-28-1.62c-8.84-.34-17.69-.51-26.53-.62-7.11-.09-14.22.3-21.33.51-6.76.19-13.54.28-20.3.64-7.3.39-14.6.9-21.88 1.62a5 5 0 0 0-2.66.88l5.53 6.72c.54-1.62 1.51-2.3 3.52-2.5 6.52-.64 13-1.1 19.6-1.45 6-.32 12.12-.4 18.18-.58 6.37-.18 12.73-.53 19.1-.45 7.92.1 15.85.25 23.77.56q12.56.5 25.09 1.44a28 28 0 0 1 4.08.54 4.51 4.51 0 0 1 3 1.89l5.72-6a6.17 6.17 0 0 0-2.34-.98z" fill="#411f19" opacity=".6"/><path fill="#411f19" opacity=".4" d="M2113.54 949.53h-22.24v43.87h1.64v-41.93h20.6v-1.94z"/></svg>