<svg xmlns="http://www.w3.org/2000/svg" width="4000" height="3000" viewBox="0 0 4000 3000"><path fill="#89663d" d="M-7.57 1965.56h4015.15v1075.35H-7.57z"/><path fill="none" stroke="#2d1c0e" stroke-miterlimit="10" d="M2000 1726.55l-261.34 1290.3M1675.99 2526.41l-204.89 505.81M2000 1726.55l-280.7 692.95M2000 1726.55l-805.44 1325.57M1271.97 2625.17l-82.14 101.38M2000 1726.55l-632.35 780.52M2000 1726.55L693.31 3016.85M1560.86 2087.92l-776.11 638.63M724.09 2626.48l-347.01 244.76M1138.64 2334.09l-302.39 213.28M2000 1726.55l-694.36 489.76M2000 1726.55L-63.4 3000M2000 1726.55l-1822.87 1000M2000 1726.55l-2227.95 1000M282.79 2433.08l-713.29 293.47M2000 1726.55L518.84 2335.96M2000 1726.55l-2633.04 1000M779.57 2329.11l-804.98 397.44M2000 1726.55L942.2 2248.82M2000 2428.03v460.65M2146.48 2452.34l124.49 616.85M2000 1726.55l131.32 650.67M2000 1726.55l544.97 1350.13M2506.35 2562.86l286.85 473.76M2000 1726.55l432.62 714.53M2899.68 2841l161.38 199.91M2000 1726.55l803.56 995.38M2000 1726.55l1301.6 1289.86M3211.38 2726.93l350.21 289.2M2000 1726.55l1089.21 899.49M2000 1726.55l1822.87 1290.3M3257.37 2505.32l362.96 224.8M2000 1726.55l1124.44 696.44M1996.48 1727.08l1971.93 1085.63M2000 1726.55l2025.41 1003.57M2000 1726.55l1755.38 790.7M3316.52 2270.15l1113.98 459.97M2000 1726.55l1215.51 501.9M3504.3 2299.91l906.42 345.47M2000 1726.55l1357.9 517.56M1028.12 2259.72h77.47M975.71 2449.01h112.85M1367.65 2390.43h94.5M1434.78 2148.64h52.28M2323.43 2047.09h31.46M2431.67 2082.7h58.9M3113.98 2151.14h62.4M3126.6 2284.77h74.95M3001.58 2346.89h-71.08M3636.33 2463.63h91.64M3627.56 2346.89h-65.97M3492.06 2550.46h-108.81M2000 2493.15h135.45M2516.97 2366.94h-85.3M2726.86 2446.85h94.17M1392.38 2574.58s93.24-.9 92.34 0M328.44 2361.39h65.86M545.52 2256H606M980.14 2146.16h57.77M694.78 2370.98h-64.1M459.49 2571.66h122.72"/><path d="M1242.76 1044.29v947.27h1514.83l-.59-947.27zm881.6 572.55h-248.64v-233.68h248.64z" fill="#26282d"/><path fill="#4d5056" d="M-49.6-27.1h4125.58v1071.4H-49.6z"/><path fill="#3d4047" d="M3949.84-25.54L2756.92 1044.29l.16 948.84 1295.98 449.52V-25.54h-103.22zM50-27.1l1192.76 1071.39v947.27L-53.23 2441.08V-27.1H50z"/><path fill="#d8d8ba" stroke="#411f19" stroke-miterlimit="10" stroke-width=".75" d="M2757.08 1962.66v28.9l1295.98 449.52v-78.35l-1295.98-400.07zM1242.76 1962.99v28.57L-49.6 2441.08v-78.35l1292.36-399.74z"/><g opacity=".2" fill="#f3f4e1"><path d="M1863.81 2428.72l-18.91 97.69h314.49l-19.48-97.69h-276.1zM1812.41 2694.19h380.43l-27.07-135.81h-327.06l-26.3 135.81zM2252.31 2694.19h413.83l-93.49-135.81h-355.76l35.42 135.81zM2183.07 2428.72l25.48 97.69h342.09l-67.25-97.69h-300.32zM1796.63 2526.41l24.81-97.69h-306.01l-67.42 97.69h348.62zM2201.52 2737.71h-397.53L1753.2 3000h500.62l-52.3-262.29zM1332.22 2694.19h421.81l34.48-135.81h-362.56l-93.73 135.81zM2696.1 2737.71h-432.44l68.41 262.29h544.6l-180.57-262.29zM1742.98 2737.71h-440.79L1121.17 3000h555.21l66.6-262.29z"/></g><path fill="#210e0c" opacity=".3" d="M2756.92 1665.86h-582.04v-61.72l617.19-5.9-35.15 67.62zM2756.92 1461.15h-582.04v-35.87l617.19-12.75-35.15 48.62z"/><path fill="#999768" stroke="#411f19" stroke-miterlimit="10" stroke-width=".75" d="M1703.64 1649.85v-518.18l-4.72-9.52-334.35 524.29 25.92 3.41h313.15z"/><path fill="#d8d8ba" stroke="#411f19" stroke-miterlimit="10" stroke-width=".75" d="M1364.57 1122.15h334.35v524.29h-334.35z"/><circle cx="1531.47" cy="1324.91" r="98.93" fill="#ba0000" opacity=".2"/><path d="M1466 1399.11a98.89 98.89 0 0 0 130.86 0z" fill="#ba0000" opacity=".2"/><path d="M1445.77 1374.38a99 99 0 0 0 171.39 0z" fill="#ba0000" opacity=".2"/><path d="M1435.65 1349.65a99 99 0 0 0 191.64 0z" fill="#ba0000" opacity=".2"/><path d="M1531.47 1423.85a98.94 98.94 0 0 0 98.93-98.94h-197.86a98.94 98.94 0 0 0 98.93 98.94z" fill="#ba0000" opacity=".2"/><path d="M1435.65 1300.18a98.93 98.93 0 1 0 191.64 0z" fill="#ba0000" opacity=".2"/><path d="M1443.73 1279.16a98.94 98.94 0 1 0 175.47 0z" fill="#ba0000" opacity=".2"/><path d="M1596.9 1250.71H1466a98.93 98.93 0 1 0 130.86 0z" fill="#ba0000" opacity=".2"/><path fill="#ba0000" opacity=".2" d="M1382.87 1138.43h297.19v488.8h-297.19z"/><path fill="#210e0c" opacity=".4" d="M1223.432 1513.206l18.706-2.072 27.438 247.735-18.706 2.072z"/><path fill="#210e0c" opacity=".4" d="M1211.505 1592.064l14.626-11.844 119.49 147.557-14.627 11.844z"/><path fill="#f3f4e1" stroke="#411f19" stroke-miterlimit="10" stroke-width=".75" d="M1230.678 1504.292l18.705-2.072 27.438 247.735-18.706 2.072z"/><path fill="#411f19" opacity=".15" d="M1230.683 1504.285l9.353-1.036 27.438 247.736-9.353 1.035z"/><path fill="#f3f4e1" stroke="#411f19" stroke-linejoin="round" stroke-width=".75" d="M1256.701 1545.57l18.364-4.12 44.493 198.238-18.363 4.121z"/><path fill="#411f19" opacity=".15" d="M1256.694 1545.572l9.182-2.061 44.493 198.238-9.181 2.061z"/><path fill="#210e0c" opacity=".2" d="M1282.67 1745.73l-14.09 1.27-23.68-174.53 22.04-1.98 15.73 175.24z"/><path fill="#f3f4e1" stroke="#411f19" stroke-linejoin="round" stroke-width=".75" d="M1252.382 1565.644l18.745-1.683 15.732 175.236-18.745 1.682z"/><path fill="#411f19" opacity=".15" d="M1252.38 1565.64l9.372-.84 15.732 175.235-9.372.84z"/><path fill="#210e0c" opacity=".2" d="M1280.53 1669.26l-2.27-25.24-21.64-30.62 2.38 26.45 21.53 29.41z"/><path fill="#f3f4e1" stroke="#411f19" stroke-linejoin="round" stroke-width=".75" d="M1213.613 1565.774l15.514-10.654 129.833 189.05-15.513 10.655z"/><path fill="#411f19" opacity=".15" d="M1213.605 1565.773l7.757-5.327 129.833 189.05-7.757 5.327z"/><path fill="#f3f4e1" stroke="#411f19" stroke-linejoin="round" stroke-width=".75" d="M1230.59 1749.77v-18.82h230.94v18.82z"/><path fill="#411f19" opacity=".15" d="M1230.59 1749.77v-9.41h230.94v9.41z"/><path fill="#210e0c" opacity=".2" d="M1284.62 1669.37l2.84 12.65 25.81 29.08-28.65-41.73zM1242.76 1608.41l1.8 22.38 15.03 15.65-1.4-15.55-15.43-22.48z"/><path d="M2754.52 1302a15 15 0 0 1 8.05 2v101.3h-16.1V1304a15 15 0 0 1 8.05-2zM2732.86 1308.66h13.61v103.39h-13.61z" fill="#cfcc96" stroke="#411f19" stroke-width=".75"/><path fill="#7aa480" stroke="#411f19" stroke-width=".75" d="M2762.57 1308.66h10.05v103.39h-10.05zM2583.78 1361.56H2669v10.05h-85.22z"/><path fill="#cfcc96" stroke="#411f19" stroke-width=".75" d="M2568.07 1371.6h97.42v10.05h-97.42z"/><path d="M2702.72 1307.17a13.16 13.16 0 0 1 7.08 2.75l-11.29 97.53-14.6-1.69 11.29-97.53a13.08 13.08 0 0 1 7.52-1.06z" fill="#c69c63" stroke="#411f19" stroke-width=".75"/><path fill="#e5ba21" stroke="#411f19" stroke-width=".75" d="M2719.313 1405.06l4.245-81 9.407.494-4.245 80.998z"/><path d="M2716.89 1315.36a21 21 0 0 1 7.49 2.05l-11.28 97.5-15.25-1.77 11.28-97.5a21.18 21.18 0 0 1 7.76-.28zM2574.21 1345.9a8.48 8.48 0 0 1 1.57-5.21h79.8a9.5 9.5 0 0 1 0 10.43h-79.8a8.5 8.5 0 0 1-1.57-5.22z" fill="#c69c63" stroke="#411f19" stroke-width=".75"/><path d="M2579.91 1356.34a7.86 7.86 0 0 1 1.81-5.22h91.91a8.47 8.47 0 0 1 0 10.44h-91.91a7.86 7.86 0 0 1-1.81-5.22zM2562.65 1389.33a19.64 19.64 0 0 1 1.28-7.68h106.42a15.14 15.14 0 0 1 0 15.35h-106.42a19.61 19.61 0 0 1-1.28-7.67z" fill="#c69c63" stroke="#411f19" stroke-width=".75"/><path d="M2238.53 1308.21a16.34 16.34 0 0 1 8 1.78v90.56h-16.11V1310a16.36 16.36 0 0 1 8.11-1.79z" fill="#7aa480" stroke="#411f19" stroke-width=".75"/><path fill="#e5ba21" stroke="#411f19" stroke-width=".75" d="M2214.95 1319.18h15.52v87.05h-15.52z"/><path fill="#7aa480" stroke="#411f19" stroke-width=".75" d="M2244.481 1405.317l15.101-85.73 9.898 1.743-15.101 85.73zM2289.76 1312a16.86 16.86 0 0 1 8 1.71v86.88h-16.1v-86.88a16.81 16.81 0 0 1 8.1-1.71z"/><path fill="#c69c63" stroke="#411f19" stroke-width=".75" d="M2261.907 1406.084l8.783-97.636 11.294 1.016-8.782 97.635z"/><path d="M2314.69 1312.65a12.72 12.72 0 0 1 6.83 1.69v86.21h-13.66v-86.21a12.72 12.72 0 0 1 6.83-1.69z" fill="#d95e47" stroke="#411f19" stroke-width=".75"/><path d="M2328.74 1318.34a14.34 14.34 0 0 1 7.26 1.66v83.6h-14.44V1320a14.34 14.34 0 0 1 7.18-1.66z" fill="#cfcc96" stroke="#411f19" stroke-width=".75"/><path fill="#e5ba21" stroke="#411f19" stroke-width=".75" d="M2297.81 1319.18h10.05v87.05h-10.05z"/><path fill="#c69c63" stroke="#411f19" stroke-width=".75" d="M2336.306 1327.901l12.174-.937 5.552 72.157-12.174.937z"/><path d="M2182.73 1312.72a16.48 16.48 0 0 1 8 1.26l4.92 86.91-15.88.9-4.93-86.91a16.48 16.48 0 0 1 7.89-2.16z" fill="#957249" stroke="#411f19" stroke-width=".75"/><path fill="#cfcc96" stroke="#411f19" stroke-width=".75" d="M2205.87 1332.26h9.08v68.3h-9.08z"/><path d="M2196.07 1322.77a10 10 0 0 1 4.76.7l5 82.49-9.4.57-5-82.48a9.84 9.84 0 0 1 4.64-1.28z" fill="#9b936d" stroke="#411f19" stroke-width=".75"/><path fill="#c69c63" stroke="#411f19" stroke-width=".75" d="M2510.22 1315.15h-7.6v-8.97h7.6z"/><path fill="#b26429" stroke="#411f19" stroke-linejoin="round" stroke-width=".75" d="M2512.34 1336.82h-11.83v-25.37h11.83z"/><path d="M2486.83 1396v-45a19.65 19.65 0 0 1 19.59-19.59A19.65 19.65 0 0 1 2526 1351v45zM2513.78 1314.65h-14.57v-3.2h14.57z" fill="#b26429" stroke="#411f19" stroke-linejoin="round" stroke-width=".75"/><path fill="#e5ba21" d="M2516.29 1372.11h-19.74v-23.35h19.74z"/><path fill="#c69c63" stroke="#411f19" stroke-width=".75" d="M2465.17 1315.15h-7.6v-8.97h7.6z"/><path fill="#b26429" stroke="#411f19" stroke-linejoin="round" stroke-width=".75" d="M2467.29 1336.82h-11.83v-25.37h11.83z"/><path d="M2441.78 1396v-45a19.65 19.65 0 0 1 19.59-19.59A19.65 19.65 0 0 1 2481 1351v45zM2468.72 1314.65h-14.57v-3.2h14.57z" fill="#b26429" stroke="#411f19" stroke-linejoin="round" stroke-width=".75"/><path fill="#e5ba21" d="M2471.24 1372.11h-19.74v-23.35h19.74z"/><path fill="#c69c63" stroke="#411f19" stroke-width=".75" d="M2419.87 1315.15h-7.6v-8.97h7.6z"/><path fill="#b26429" stroke="#411f19" stroke-linejoin="round" stroke-width=".75" d="M2421.99 1336.82h-11.83v-25.37h11.83z"/><path d="M2396.49 1396v-45a19.64 19.64 0 0 1 19.58-19.59 19.65 19.65 0 0 1 19.59 19.59v45zM2423.43 1314.65h-14.57v-3.2h14.57z" fill="#b26429" stroke="#411f19" stroke-linejoin="round" stroke-width=".75"/><path fill="#e5ba21" d="M2425.95 1372.11h-19.74v-23.35h19.74z"/><path fill="#602f0f" stroke="#411f19" stroke-linejoin="round" stroke-width=".75" d="M2755.89 1427.03l36.18-14.5h-617.69v14.5h581.51z"/><path d="M2251.36 1507.21a15.38 15.38 0 0 0-4.26 1.39l18.12 85.14 9.29-2-18.12-85.15a23.79 23.79 0 0 0-5.03.62z" fill="#e5ba21" stroke="#411f19" stroke-width=".75"/><path d="M2510.68 1559.05a17.86 17.86 0 0 0 1.71 8.32h87.05a21.1 21.1 0 0 0 0-16.64h-87.05a17.86 17.86 0 0 0-1.71 8.32z" fill="#c69c63" stroke="#411f19" stroke-width=".75"/><path d="M2505.61 1575.69a16.64 16.64 0 0 0 1.87 8.32h95.4a19.44 19.44 0 0 0 0-16.64h-95.4a16.64 16.64 0 0 0-1.87 8.32z" fill="#e5ba21" stroke="#411f19" stroke-width=".75"/><path d="M2507 1546.28a15.55 15.55 0 0 0 .47 4.45h87a49.06 49.06 0 0 0 0-9.49h-87a24.13 24.13 0 0 0-.47 5.04z" fill="#7aa480" stroke="#411f19" stroke-width=".75"/><path d="M2514.22 1536.78a15.37 15.37 0 0 0 .48 4.46h87.05a49.16 49.16 0 0 0 0-9.5h-87.05a23.65 23.65 0 0 0-.48 5.04zM2508 1527.29a15.25 15.25 0 0 0 .48 4.45h87.05a49.06 49.06 0 0 0 0-9.49h-87.03a23.65 23.65 0 0 0-.5 5.04z" fill="#c69c63" stroke="#411f19" stroke-width=".75"/><path d="M2182.82 1493.5a16.88 16.88 0 0 0-8.06 1.71v87h16.11v-87a16.86 16.86 0 0 0-8.05-1.71z" fill="#957249" stroke="#411f19" stroke-width=".75"/><path d="M2198.92 1499.18a16.86 16.86 0 0 0-8.05 1.71v87H2207v-87a16.81 16.81 0 0 0-8.08-1.71z" fill="#9b936d" stroke="#411f19" stroke-width=".75"/><path d="M2236.46 1494.32c-6.85 0-10.65 1.71-10.65 1.71v87h21.29v-87s-3.8-1.71-10.64-1.71z" fill="#c69c63" stroke="#411f19" stroke-width=".75"/><path fill="#cfcc96" stroke="#411f19" stroke-width=".75" d="M2206.97 1497.36h9.42v90.52h-9.42zM2221.1 1487.17a8.2 8.2 0 0 0-4.71 1.28v106.37h9.42v-106.37a8.2 8.2 0 0 0-4.71-1.28z"/><path d="M2711.77 1500a17 17 0 0 0-8.23-.09l-18.56 84.2 15.73 3.46 18.56-84.19a17 17 0 0 0-7.5-3.38z" fill="#c69c63" stroke="#411f19" stroke-width=".75"/><path fill="#c69c63" stroke="#411f19" stroke-width=".75" d="M2718.94 1504.87h11.15v87.05h-11.15z"/><path d="M2678.49 1498.34a12.72 12.72 0 0 0-6.83 1.69v86.21h13.67V1500a12.74 12.74 0 0 0-6.84-1.66z" fill="#d95e47" stroke="#411f19" stroke-width=".75"/><path d="M2651.09 1490.29a15.86 15.86 0 0 0-8.05 1.85v94.36h16.1v-94.36a15.81 15.81 0 0 0-8.05-1.85z" fill="#cfcc96" stroke="#411f19" stroke-width=".75"/><path fill="#e5ba21" stroke="#411f19" stroke-width=".75" d="M2659.14 1493.85h12.52v98.07h-12.52z"/><path d="M2605 1512.64a14.09 14.09 0 0 0-6.24 3.16l19.07 73 13.23-3.46-19.08-73a14 14 0 0 0-6.98.3z" fill="#7aa480" stroke="#411f19" stroke-width=".75"/><path fill="#c69c63" stroke="#411f19" stroke-width=".75" d="M2632.99 1495.38h10.05v96.8h-10.05z"/><path d="M2762.34 1511.11a20.11 20.11 0 0 0-8.29 1.47v74.76h16.57v-74.76a20.09 20.09 0 0 0-8.28-1.47z" fill="#cfcc96" stroke="#411f19" stroke-width=".75"/><path fill="#e5ba21" stroke="#411f19" stroke-width=".75" d="M2730.08 1496.51h9.42v89.74h-9.42z"/><path d="M2746.78 1503a21 21 0 0 0-7.28 1.06v87.9h14.55V1504a21 21 0 0 0-7.27-1z" fill="#cfcc96" stroke="#411f19" stroke-width=".75"/><path fill="#d8d8ba" stroke="#411f19" stroke-miterlimit="10" stroke-width=".75" d="M1218.93 1761.05h1562.14v235.16H1218.93z"/><path fill="#210e0c" opacity=".3" d="M1218.93 1764.34h1562.41v12.28H1218.93z"/><path fill="#b26429" stroke="#411f19" stroke-linejoin="round" stroke-width=".75" d="M2174.38 1581.32h617.68v16.92h-617.68zM1207.94 1747.42h1584.13v16.92H1207.94z"/><path fill="#6b3917" stroke="#411f19" stroke-linejoin="round" stroke-width=".75" d="M2755.65 1604.14l36.42-5.9h-617.69v5.9h581.27z"/><path fill="#b26429" stroke="#411f19" stroke-linejoin="round" stroke-width=".75" d="M2174.38 1395.61h617.68v16.92h-617.68z"/><path fill="#210e0c" opacity=".4" d="M2174.03 1395.77h35.81v16.6h-35.81zM2174.03 1581.16h35.81v16.6h-35.81z"/><path fill="#210e0c" opacity=".3" d="M1761.61 1764.34h476.78v231.87h-476.78z"/><path fill="#210e0c" opacity=".3" d="M1757.82 1747.42h484.36v17.11h-484.36z"/><path fill="none" stroke="#411f19" stroke-miterlimit="10" stroke-width=".75" d="M2233.64 1772.31h260.8v215.92h-260.8zM2364.04 1772.31v215.92"/><circle cx="2349.81" cy="1880.01" r="5.17" fill="#411f19"/><circle cx="2378.28" cy="1880.01" r="5.17" fill="#411f19"/><path fill="none" stroke="#411f19" stroke-miterlimit="10" stroke-width=".75" d="M2508.52 1772.31h260.8v215.92h-260.8zM2638.92 1772.31v215.92"/><circle cx="2624.68" cy="1880.01" r="5.17" fill="#411f19"/><circle cx="2653.15" cy="1880.01" r="5.17" fill="#411f19"/><path fill="none" stroke="#411f19" stroke-miterlimit="10" stroke-width=".75" d="M1229.89 1772.31h260.8v215.92h-260.8zM1360.29 1772.31v215.92"/><circle cx="1346.06" cy="1880.01" r="5.17" fill="#411f19"/><circle cx="1374.53" cy="1880.01" r="5.17" fill="#411f19"/><path fill="none" stroke="#411f19" stroke-miterlimit="10" stroke-width=".75" d="M1504.77 1772.31h260.8v215.92h-260.8zM1635.17 1772.31v215.92"/><circle cx="1620.93" cy="1880.01" r="5.17" fill="#411f19"/><circle cx="1649.4" cy="1880.01" r="5.17" fill="#411f19"/><path d="M2298 1598.52a31 31 0 0 0 3.73-3.79c.28-.34.52-.67.77-1a47.92 47.92 0 0 1-.3 4.79h.76a48 48 0 0 0 .28-5.87 13.15 13.15 0 0 0 1.51-3.13c.75-2.42.24-5.23-.79-8h-16a24.52 24.52 0 0 0-1.92 4.12 24.22 24.22 0 0 0-.84 12.93zM2451.76 1592.8h.33v-.32a20.1 20.1 0 0 0-2.92-10.84h-17.82a10.45 10.45 0 0 0 2.21 6 12.87 12.87 0 0 0 4.12 2.87 26.36 26.36 0 0 0 11.26 2.53 24 24 0 0 0 2.82-.24zM2457.3 1589.29v.75c-.05 2.64-.08 6 1 8.44h14.07a14.56 14.56 0 0 0-14.34-9.59l-1.09-5.8c-.09-.47-.18-1-.28-1.47l.7.08c.52 0 1 .06 1.57.06a20.46 20.46 0 0 0 2.59-.16h-5.63c.11.55.21 1.1.31 1.63z" fill="#210e0c" opacity=".4"/><path d="M2358.92 1544.75c1.34-4.31 5.46-7.08 9.4-9.3 3.09-1.75 6.42-3.41 10-3.32 6.21.15 11.12 5.77 12.9 11.72s1.25 12.31 1.44 18.52 2.67 14.75 7 19.23M2338 1513.17a151 151 0 0 1 6.41 42.34M2358.3 1508.18a96.78 96.78 0 0 0-1.28 47" fill="none" stroke="#5b8e5c" stroke-miterlimit="10" stroke-width=".75"/><path d="M2356.28 1546c-1.72 5.2-9.7 8.55-14.65 10.89a23.75 23.75 0 0 1 9.42-32.7 31.06 31.06 0 0 1 5.77 16 15.18 15.18 0 0 1-.54 5.81z" fill="#5b8e5c"/><path d="M2337.38 1544.16a27.28 27.28 0 0 0-7.89-12.91c-3.88-3.33-9.24-5.14-14.23-4.06-6.53 1.42-11.3 7.52-12.83 14s-.36 13.34 1.42 19.79 4.18 12.74 5.15 19.35a46.23 46.23 0 0 1-3.52 25.48c-2.35 5.25-5.67 10-7.87 15.35-4.77 11.49-3.9 24.69-.23 36.59 2.44 7.91 6.11 15.63 6.43 23.91s-4 17.59-12 19.49" fill="none" stroke="#5b8e5c" stroke-linecap="round" stroke-miterlimit="10" stroke-width=".75"/><path fill="#e5b765" stroke="#411f19" stroke-linecap="round" stroke-linejoin="round" stroke-width=".75" d="M2326.63 1541.57h50.36v40.03h-50.36z"/><path d="M2366.17 1573.77c-8.26 1.07-17.62-.72-24.12-6.16-7.72-6.48-7.93-16.64-7.84-26h-7.58v40H2377V1570a26 26 0 0 1-10.83 3.77z" fill="#411f19" opacity=".15"/><path d="M2317.71 1540.83c-1.28-3.87-7.22-6.37-10.9-8.11a17.68 17.68 0 0 0 7 24.34 23.08 23.08 0 0 0 4.3-11.88 11.39 11.39 0 0 0-.4-4.35zM2388.9 1522.62c-4 .69-7.37 6.19-9.64 9.58a17.69 17.69 0 0 0 25.11-3.32c-3-3-7.11-.37-11.1-6-.85-1.21-2.93-.51-4.37-.26zM2349.7 1499.67c0 4.07 4.93 8.27 7.9 11a17.67 17.67 0 0 0 .77-25.32 23 23 0 0 0-7.72 10 11.29 11.29 0 0 0-.95 4.32zM2331.46 1534.58c2 3.57 8.26 5 12.2 6a17.68 17.68 0 0 0-11.32-22.66 23.14 23.14 0 0 0-2.07 12.46 11.57 11.57 0 0 0 1.19 4.2z" fill="#9dcc93"/><path d="M2319.69 1603.39c-1.28-3.87-7.22-6.37-10.9-8.11a17.68 17.68 0 0 0 7 24.34 23.17 23.17 0 0 0 4.3-11.87 11.42 11.42 0 0 0-.4-4.36zM2401.48 1549.68c-1.28-3.87-7.22-6.37-10.9-8.11a17.68 17.68 0 0 0 7 24.34 23.17 23.17 0 0 0 4.3-11.87 11.42 11.42 0 0 0-.4-4.36z" fill="#5b8e5c"/><path d="M2299 1556.27c3.07-2.67 3.08-9.12 3.27-13.19a17.69 17.69 0 0 0-19.75 15.87 23.16 23.16 0 0 0 12.62-.62 11.69 11.69 0 0 0 3.86-2.06zM2342 1517.72c3 2.77 9.4 2.1 13.47 1.84a17.69 17.69 0 0 0-17.88-17.94 23 23 0 0 0 2 12.48 11.53 11.53 0 0 0 2.41 3.62z" fill="#7aaa6f"/><path d="M2299 1556.27c3.07-2.67 3.08-9.12 3.27-13.19a17.69 17.69 0 0 0-19.75 15.87 23.16 23.16 0 0 0 12.62-.62 11.69 11.69 0 0 0 3.86-2.06zM2310.38 1528.53c3.5 2.09 9.62.09 13.55-1a17.68 17.68 0 0 0-21.23-13.82 23.06 23.06 0 0 0 4.52 11.79 11.25 11.25 0 0 0 3.16 3.03zM2368.56 1528.53c-3.5 2.09-9.62.09-13.55-1a17.68 17.68 0 0 1 21.23-13.82 23.06 23.06 0 0 1-4.52 11.79 11.25 11.25 0 0 1-3.16 3.03z" fill="#7aaa6f"/><path d="M2323.64 1509c2.28 4.58 10.1 6.61 15 8.11a22.18 22.18 0 0 0-13.07-29 29 29 0 0 0-3.2 15.51 14.28 14.28 0 0 0 1.27 5.38zM2297.39 1618.37c2.64-1 4.2-5.14 5.31-7.73a12.2 12.2 0 0 0-16.59 5.47 15.9 15.9 0 0 0 8.29 2.65 7.93 7.93 0 0 0 2.99-.39zM2397.26 1569.34c0-2.81-3.25-5.78-5.26-7.75a12.18 12.18 0 0 0-.95 17.44 16 16 0 0 0 5.49-6.76 7.7 7.7 0 0 0 .72-2.93z" fill="#5b8e5c"/><path d="M2311 1582.92c1.61-5.24-2.94-12.6-5.62-17.37a23.75 23.75 0 0 0-11.29 32.1A31 31 0 0 0 2308 1588a15.3 15.3 0 0 0 3-5.08z" fill="#90d67f"/><path d="M2299.53 1658.73c1.3-4.22-2.37-10.14-4.53-14a19.13 19.13 0 0 0-9.08 25.85 25 25 0 0 0 11.23-7.77 12.4 12.4 0 0 0 2.38-4.08z" fill="#9dcc93"/><path d="M2295 1632.83c-1.62-5.23 2.94-12.59 5.62-17.37a23.77 23.77 0 0 1 11.28 32.11 31.05 31.05 0 0 1-14-9.65 15.32 15.32 0 0 1-2.9-5.09zM2438.58 1582.55c-3.06-3.36-2.23-10.49-1.9-15a19.71 19.71 0 0 1 19.78 20.14 25.72 25.72 0 0 1-13.88-2.34 12.67 12.67 0 0 1-4-2.8z" fill="#7aaa6f"/><path d="M2297 1676.29c-1-3.14 1.77-7.56 3.38-10.43a14.27 14.27 0 0 1 6.78 19.29 18.76 18.76 0 0 1-8.39-5.8 9.21 9.21 0 0 1-1.77-3.06z" fill="#5b8e5c"/><path d="M2424.11 1581.16a26.09 26.09 0 0 1 7.87-10.53c3.67-3 7.82-5.62 12.48-6.47s9.92.36 13 4c2.38 2.82 3.15 6.63 3.83 10.26l3 15.95c1.25 6.66 3 14.11 8.86 17.58 4.89 2.92 11.47 1.9 16.08-1.46s7.45-8.68 9.06-14.15" fill="none" stroke="#5b8e5c" stroke-miterlimit="10" stroke-width=".75"/><path d="M2417.6 1567.24c.11 3.9 4.87 7.83 7.77 10.44a16.94 16.94 0 0 0 .27-24.26c-3.25 2.48-1.53 6.12-7.22 9.71-1.18.75-.86 2.7-.82 4.11z" fill="#90d67f"/><path d="M2458.31 1575.65c-3.22-1.63-4.64-7.16-5.69-10.62a15.68 15.68 0 0 1 20.43 9.31 20.45 20.45 0 0 1-11 2.23 10.24 10.24 0 0 1-3.74-.92z" fill="#9dcc93"/><path d="M2464.44 1595.29c-2.36-2.3-2.07-7.49-2-10.78a14.28 14.28 0 0 1 15.17 13.7 18.6 18.6 0 0 1-10.14-1.09 9.18 9.18 0 0 1-3.03-1.83zM2464 1613.59c2.35-2.29 2.06-7.49 2-10.78a14.28 14.28 0 0 0-15.18 13.71 18.68 18.68 0 0 0 10.14-1.09 9.26 9.26 0 0 0 3.04-1.84z" fill="#5b8e5c"/><path d="M1825.62 1026.55v635.7h348.76v-635.7zm298.69 590.29h-248.62v-233.68h248.62z" fill="#3d4047" stroke="#411f19" stroke-miterlimit="10" stroke-width=".75"/><path fill="#411f19" opacity=".15" d="M1909.44 1243.66v87.45l177.31 3.1v-94.46l-177.31 3.91z"/><path fill="#fcdd5e" stroke="#411f19" stroke-miterlimit="10" stroke-width=".75" d="M1912.58 1240.34v87.45l177.31 3.1v-94.46l-177.31 3.91z"/><path fill="#411f19" d="M2090.906 1230.13l3.832 3.832-10.804 10.805-3.833-3.833zM2093.296 1335.79l-4.51 3.007-8.474-12.716 4.51-3.005zM1908.947 1334.445l-3.165-4.4 12.406-8.922 3.164 4.4zM1906.304 1237.819l3.832-3.833 10.805 10.805-3.833 3.833z"/><path d="M1947.55 1287.58c4.76-2.35 11.12-6.73 11-13.29a5 5 0 0 0-2.17-4.19c-6-4.22-24 2-26.09 2.66l1.09 3.1c1.58-.55 3.44-1.13 5.4-1.68.69 4.65 3.52 24.55 3.51 38.53-1.37.39-2.6.68-3.56.88l.65 3.22c.94-.19 23.21-4.77 23-16.47-.06-7.67-7.47-11.2-12.83-12.76zm-7.51-14.22c6-1.42 12.2-2.18 14.5-.57a1.72 1.72 0 0 1 .77 1.54c.08 7.2-11.65 11.46-13.55 12.1-.76-6.29-1.46-11.3-1.76-13.07zm3.58 38.31c-.06-6.84-.73-14.89-1.49-21.9 2.22.32 14.9 2.48 15 10.63.11 5.24-7.13 9.06-13.51 11.27zM1966 1311.85v-17.07l10.22-1.17-.37-3.27-9.85 1.13v-18.75l11-.83-.25-3.28-12.47 1a1.65 1.65 0 0 0-1.52 1.64v42.49a1.65 1.65 0 0 0 1.64 1.65h.18l14.39-1.61-.37-3.27zM1988.79 1312.75l-1.08-43.7-3.29.08 1.13 45.65a1.67 1.67 0 0 0 1.65 1.61 1.1 1.1 0 0 0 .31 0l16.21-3.19-.64-3.23zM2007.29 1269.37a270.6 270.6 0 0 1 2.87 42.7h3.29a274.71 274.71 0 0 0-2.92-43.28zM2021.27 1308.26l-.82-14.07 11.38-.63-.18-3.28-11.39.63-1.18-20.17h11.57v-3.29h-13.31a1.63 1.63 0 0 0-1.64 1.74l2.39 41a1.65 1.65 0 0 0 .59 1.17 1.61 1.61 0 0 0 1 .38h.2l15.09-1.83-.4-3.26zM2049.12 1301.23l-7.37-32.5-3.21.73 8.89 39.18a1.64 1.64 0 0 0 1.58 1.28 1.64 1.64 0 0 0 1.59-1.24l9.61-38-3.19-.8zM2066.92 1292.23h12.85V1289H2067l.45-18.37 13.44-1.34-.32-3.28-14.89 1.5a1.63 1.63 0 0 0-1.48 1.59l-1 39.19a1.63 1.63 0 0 0 1.56 1.68l15.85.77.16-3.28-14.25-.69z" fill="#313c61"/><path fill="#af857d" stroke="#411f19" stroke-linejoin="round" stroke-width=".75" d="M2000 1726.56l236.81-51.91h-473.94l237.13 51.91"/><path fill="#d95e47" stroke="#411f19" stroke-linejoin="round" stroke-width=".75" d="M1999.84 1726.14l-250.43 317.81h501.26l-250.83-317.81z"/><path fill="none" stroke="#411f19" stroke-linejoin="round" stroke-width=".75" d="M1801.13 2044.04l198.71-317.9M1780.44 2044.04l219.4-317.9-209.06 317.9M1759.75 2044.04l240.09-317.9-229.74 317.9"/><path fill="#ba0000" stroke="#411f19" stroke-linejoin="round" stroke-width=".75" d="M1763.84 2026.4h472.26"/><path fill="none" stroke="#411f19" stroke-linejoin="round" stroke-width=".75" d="M2188.6 2044.04l-188.76-317.9 199.11 317.9M2229.98 2044.04l-230.14-317.9 240.48 317.9M2209.29 2044.04l-209.45-317.9 219.79 317.9"/><path fill="#d9b0a5" stroke="#411f19" stroke-miterlimit="10" stroke-width=".75" d="M1850 1727.98h297.65v270.99H1850z"/><path fill="#ba0000" stroke="#411f19" stroke-miterlimit="10" stroke-width=".75" d="M1777.59 1674.65h444.73v55.42h-444.73zM1818.97 1729.99v-55.43"/><path fill="#d95e47" stroke="#411f19" stroke-miterlimit="10" stroke-width=".75" d="M1850 1674.56h10.34v55.42H1850z"/><path fill="#ba0000" stroke="#411f19" stroke-miterlimit="10" stroke-width=".75" d="M1870.69 1729.99v-55.43M1881.04 1729.99v-55.43"/><path fill="#d95e47" stroke="#411f19" stroke-miterlimit="10" stroke-width=".75" d="M1891.38 1674.56h10.34v55.42h-10.34z"/><path fill="#e26b69" stroke="#411f19" stroke-linejoin="round" stroke-width=".75" d="M1901.73 1674.56h10.34v55.42h-10.34zM1922.42 1674.56h10.34v55.42h-10.34z"/><path fill="#ba0000" stroke="#411f19" stroke-miterlimit="10" stroke-width=".75" d="M1943.1 1729.99v-55.43"/><path fill="#d95e47" stroke="#411f19" stroke-miterlimit="10" stroke-width=".75" d="M1953.45 1674.56h10.34v55.42h-10.34z"/><path fill="#e26b69" stroke="#411f19" stroke-linejoin="round" stroke-width=".75" d="M1963.79 1674.56h10.34v55.42h-10.34zM1984.48 1674.56h10.34v55.42h-10.34z"/><path fill="#ba0000" stroke="#411f19" stroke-miterlimit="10" stroke-width=".75" d="M2005.17 1729.99v-55.43"/><path fill="#d95e47" stroke="#411f19" stroke-miterlimit="10" stroke-width=".75" d="M2015.52 1674.56h10.34v55.42h-10.34zM2025.86 1674.56h10.34v55.42h-10.34z"/><path fill="#e26b69" stroke="#411f19" stroke-linejoin="round" stroke-width=".75" d="M2036.21 1674.56h10.34v55.42h-10.34z"/><path fill="#d95e47" stroke="#411f19" stroke-miterlimit="10" stroke-width=".75" d="M2056.9 1674.56h10.34v55.42h-10.34z"/><path fill="#ba0000" stroke="#411f19" stroke-miterlimit="10" stroke-width=".75" d="M2077.58 1729.99v-55.43M2087.93 1729.99v-55.43M2098.27 1729.99v-55.43"/><path fill="#e26b69" stroke="#411f19" stroke-linejoin="round" stroke-width=".75" d="M2108.62 1674.56h10.34v55.42h-10.34z"/><path fill="#d95e47" stroke="#411f19" stroke-miterlimit="10" stroke-width=".75" d="M2129.31 1674.56h10.34v55.42h-10.34z"/><path fill="#e26b69" stroke="#411f19" stroke-linejoin="round" stroke-width=".75" d="M2150 1674.56h10.34v55.42H2150z"/><path fill="#d95e47" stroke="#411f19" stroke-miterlimit="10" stroke-width=".75" d="M2160.34 1674.56h10.34v55.42h-10.34z"/><path fill="#ba0000" stroke="#411f19" stroke-miterlimit="10" stroke-width=".75" d="M2181.03 1729.99v-55.43"/><path fill="#e26b69" stroke="#411f19" stroke-linejoin="round" stroke-width=".75" d="M2191.37 1674.56h10.34v55.42h-10.34zM2212.06 1674.56h10.34v55.42h-10.34z"/><path fill="#d95e47" stroke="#411f19" stroke-miterlimit="10" stroke-width=".75" d="M1787.94 1674.56h10.34v55.42h-10.34z"/><path fill="#e26b69" stroke="#411f19" stroke-linejoin="round" stroke-width=".75" d="M1798.28 1674.56h10.34v55.42h-10.34zM1829.31 1674.65h10.34v55.42h-10.34z"/><path fill="#d95e47" stroke="#411f19" stroke-miterlimit="10" stroke-width=".75" d="M1833.1 1730.07h55.65v29h-55.65zM1888.75 1730.07h55.65v29h-55.65zM1944.4 1730.07h55.65v29h-55.65z"/><path fill="#d95e47" stroke="#411f19" stroke-miterlimit="10" stroke-width=".75" d="M2000.04 1730.07h55.65v29h-55.65zM2055.69 1730.07h55.65v29h-55.65zM2111.34 1730.07h55.65v29h-55.65zM2166.89 1759.08v31.11h-29v-31.11z"/><path fill="#d95e47" stroke="#411f19" stroke-miterlimit="10" stroke-width=".75" d="M2166.89 1790.18v53.95h-29v-53.95zM2166.9 1844.13v53.95h-29v-53.95z"/><path fill="#d95e47" stroke="#411f19" stroke-miterlimit="10" stroke-width=".75" d="M2166.9 1894.92v55.65h-29v-55.65z"/><path fill="#d95e47" stroke="#411f19" stroke-miterlimit="10" stroke-width=".75" d="M2166.9 1950.57v57.74h-29v-57.74zM1862.1 1759.07v31.11h-29v-31.11z"/><path fill="#d95e47" stroke="#411f19" stroke-miterlimit="10" stroke-width=".75" d="M1862.1 1790.17v53.95h-29v-53.95zM1862.1 1844.13v53.95h-29v-53.95z"/><path fill="#d95e47" stroke="#411f19" stroke-miterlimit="10" stroke-width=".75" d="M1862.1 1898.08v53.95h-29v-53.95zM1862.1 1952.04v56.27h-29v-56.27z"/><path fill="#210e0c" opacity=".4" d="M2167.17 1730.01h-333.88v278.3h5.34v-267.95h322.23v267.95h5.84l.47-278.3z"/><path fill="#ba0000" stroke="#411f19" stroke-miterlimit="10" stroke-width=".75" d="M2222.37 1730.01v279.3h-55.42v-279.3zM2167.03 1771.39h55.42M2167.03 1802.43h55.42"/><path fill="#e26b69" stroke="#411f19" stroke-linejoin="round" stroke-width=".75" d="M2222.45 1812.77v10.34h-55.42v-10.34z"/><path fill="#d95e47" stroke="#411f19" stroke-miterlimit="10" stroke-width=".75" d="M2222.45 1823.12v10.34h-55.42v-10.34z"/><path fill="#e26b69" stroke="#411f19" stroke-linejoin="round" stroke-width=".75" d="M2222.46 1843.81v10.34h-55.42v-10.34zM2222.45 1885.18v10.34h-55.42v-10.34zM2222.45 1905.87v10.34h-55.42v-10.34z"/><path fill="#ba0000" stroke="#411f19" stroke-miterlimit="10" stroke-width=".75" d="M2167.03 1926.56h55.42"/><path fill="#e26b69" stroke="#411f19" stroke-linejoin="round" stroke-width=".75" d="M2222.45 1936.91v10.34h-55.42v-10.34z"/><path fill="#d95e47" stroke="#411f19" stroke-miterlimit="10" stroke-width=".75" d="M2222.45 1947.25v10.34h-55.42v-10.34zM2222.45 1957.6v10.34h-55.42v-10.34zM2222.45 1988.63v10.34h-55.42v-10.34z"/><path fill="#e26b69" stroke="#411f19" stroke-linejoin="round" stroke-width=".75" d="M2222.46 1978.29v10.34h-55.42v-10.34z"/><path fill="#d95e47" stroke="#411f19" stroke-miterlimit="10" stroke-width=".75" d="M1833.02 1998.97v10.34h-55.42v-10.34z"/><path fill="#e26b69" stroke="#411f19" stroke-linejoin="round" stroke-width=".75" d="M2222.37 1750.7v10.34h-55.42v-10.34z"/><path fill="#d95e47" stroke="#411f19" stroke-miterlimit="10" stroke-width=".75" d="M2222.36 1740.36v10.34h-55.42v-10.34zM2222.37 1781.63v10.34h-55.42v-10.34zM2222.45 1874.84v10.34h-55.42v-10.34z"/><path fill="#e26b69" stroke="#411f19" stroke-linejoin="round" stroke-width=".75" d="M2222.46 1864.5v10.34h-55.42v-10.34z"/><path fill="#ba0000" stroke="#411f19" stroke-miterlimit="10" stroke-width=".75" d="M1833.02 1730.01v268.96h-55.42v-268.96zM1777.68 1740.36h55.42"/><path fill="#d95e47" stroke="#411f19" stroke-miterlimit="10" stroke-width=".75" d="M1833.11 1771.39v10.34h-55.42v-10.34z"/><path fill="#ba0000" stroke="#411f19" stroke-miterlimit="10" stroke-width=".75" d="M1777.68 1792.08h55.42M1777.68 1802.43h55.42"/><path fill="#d95e47" stroke="#411f19" stroke-miterlimit="10" stroke-width=".75" d="M1833.1 1812.77v10.34h-55.42v-10.34z"/><path fill="#e26b69" stroke="#411f19" stroke-linejoin="round" stroke-width=".75" d="M1833.1 1823.12v10.34h-55.42v-10.34zM1833.11 1843.81v10.34h-55.42v-10.34z"/><path fill="#ba0000" stroke="#411f19" stroke-miterlimit="10" stroke-width=".75" d="M1777.68 1864.49h55.42"/><path fill="#d95e47" stroke="#411f19" stroke-miterlimit="10" stroke-width=".75" d="M1833.1 1874.84v10.34h-55.42v-10.34z"/><path fill="#e26b69" stroke="#411f19" stroke-linejoin="round" stroke-width=".75" d="M1833.11 1885.18v10.34h-55.42v-10.34zM1833.1 1905.87v10.34h-55.42v-10.34z"/><path fill="#ba0000" stroke="#411f19" stroke-miterlimit="10" stroke-width=".75" d="M1777.68 1926.56h55.42"/><path fill="#d95e47" stroke="#411f19" stroke-miterlimit="10" stroke-width=".75" d="M1833.1 1936.91v10.34h-55.42v-10.34zM1833.1 1947.25v10.34h-55.42v-10.34z"/><path fill="#e26b69" stroke="#411f19" stroke-linejoin="round" stroke-width=".75" d="M1833.1 1957.6v10.34h-55.42v-10.34z"/><path fill="#d95e47" stroke="#411f19" stroke-miterlimit="10" stroke-width=".75" d="M1833.11 1978.29v10.34h-55.42v-10.34z"/><path fill="#e26b69" stroke="#411f19" stroke-linejoin="round" stroke-width=".75" d="M1833.02 1750.7v10.34h-55.42v-10.34z"/><path fill="#bf9086" stroke="#411f19" stroke-miterlimit="10" stroke-width=".75" d="M2112.01 1971.2l-224.02.23v-212.24l224.02-.23v212.24z"/><path fill="none" stroke="#411f19" stroke-miterlimit="10" stroke-width=".75" d="M1887.99 1971.43l-25.89 27.54M2112.01 1971.43l25.89 27.54"/><path fill="#210e0c" opacity=".6" d="M1862.1 1873.47l24.21-25.16 226.38-.65 24.72 25.81.49-114.4h-275.8v114.4z"/><path fill="#d8d8ba" stroke="#411f19" stroke-miterlimit="10" stroke-width=".75" d="M1762.87 1649.85h473.94v24.8h-473.94z"/><path fill="#210e0c" opacity=".4" d="M1777.59 1674.56h444.82v18.04h-444.82z"/><path fill="#c69c63" opacity=".6" d="M1815.83 1810.91h365.85v208.74h-365.85z"/><path d="M1811.69 1805.75v216.42h376.62v-216.42zM2181 2014.89h-362.06V1813H2181z" fill="#c69c63" stroke="#411f19" stroke-linejoin="round" stroke-width=".75"/><path fill="#210e0c" opacity=".4" d="M1870.69 1620.77h258.61v12.92h-258.61z"/><path fill="#210e0c" opacity=".3" d="M1875.69 1383.16v233.68h4.15V1390.2h240.32v226.64h4.15v-233.68h-248.62z"/><path d="M1865.52 1373.61v252.78h269v-252.78zm258.79 243.23h-248.62v-233.68h248.62z" fill="#c69c63" stroke="#411f19" stroke-width=".75"/><path d="M2686.64 2329.65a3.28 3.28 0 0 0-1.21-.9 25.64 25.64 0 0 0-6-2.14l-.42-.36c1.07-1.06.47-3.2-.91-4a6.51 6.51 0 0 0-4.17-.44l-14.93-12.89H1325.86v.32c0 .93.16 1.86.17 2.79l-12.1 10.39a15.63 15.63 0 0 0-2.9-.08 4.39 4.39 0 0 0-3.26 1.64 2.47 2.47 0 0 0 .39 3.37 5.85 5.85 0 0 0-4.51 2 3.6 3.6 0 0 0-.9 1.87 2.07 2.07 0 0 0 .73 1.88 3.17 3.17 0 0 0 2.41.28 23.39 23.39 0 0 0 6.15-2h1.12a2.2 2.2 0 0 0 .65.77 5.07 5.07 0 0 0 2.64.65 10 10 0 0 0 3.5-.25 4.29 4.29 0 0 0 1.88-1.17h1.27a4.76 4.76 0 0 0 4.08 2.11 3.81 3.81 0 0 0 3-2.11h2a10.09 10.09 0 0 0 1.36 1.18 5.35 5.35 0 0 0 4.38 1 3.52 3.52 0 0 0 2.35-2.17h104.31a14.08 14.08 0 0 0 13 0h5.42a8.7 8.7 0 0 0 12.42 0h3.66c.2.35.39.71.57 1 1.29 2.27 4.5 2.81 6.94 1.89a12.44 12.44 0 0 0 4.24-2.92h96.75a22.38 22.38 0 0 0 9 0h11.12a16.21 16.21 0 0 0 6.24.92l6.7-.18a36.23 36.23 0 0 0 7.18-.74h20.23c2.07 1.13 4 2.76 6.28 2.6 2-.14 3.54-1.55 5.23-2.6h7.21c.22.08.44.16.66.22a9 9 0 0 0 5.76-.22h7.81a12.73 12.73 0 0 0 10.09 0h118.81a15.17 15.17 0 0 0 12.26 0h5.28c.35.48.67 1 1 1.44a5.68 5.68 0 0 0 8.79-.2c.26-.38.52-.82.79-1.24h5.29a9 9 0 0 0 8.08 0H1940a15.14 15.14 0 0 0 18 0h3.79c4 3.52 10.86 3.66 14.77 0h1.89a14.38 14.38 0 0 0 4.94 3c2.3.71 5.15.22 6.5-1.77.27-.4.49-.85.76-1.25h5.09c4.4 1.87 9.39 3.8 13.16 1.11.49-.34.93-.75 1.4-1.11h73.86a11.71 11.71 0 0 0 3.5 2.68c2.58 1.22 6.11.91 7.74-1.43.27-.38.53-.83.8-1.25h4.22a9.55 9.55 0 0 0 4.64 2.39 4.49 4.49 0 0 0 4.77-2.39h.67c3 2.18 6.12 4.33 9.75 4.83s7.93-1.36 9-4.83h23.15a17.29 17.29 0 0 0 6.52 2.94c2.42.37 5.21-.52 6.32-2.7a2.56 2.56 0 0 1 .11-.24h3.33c.29.44.58.9.86 1.28 1.62 2.17 5.72 1.34 6.38-1.28h19.54a17.52 17.52 0 0 0 4.19 1.64 6.75 6.75 0 0 0 5.6-1.64h6.42a18.27 18.27 0 0 0 1.4 2c1.2 1.41 3.35 2.4 4.88 1.35s2.37-3.69 4-3a3.12 3.12 0 0 1 1.18 1.28 6.49 6.49 0 0 0 5.66 2.87c1.45-.1 3.3-2.36 4.54-4.51h65.92a12.32 12.32 0 0 0 7.09 0h8.39a10.34 10.34 0 0 0 3.91 1.34 24.74 24.74 0 0 0 4.79-.06 85.94 85.94 0 0 1 23.51 1.69c2.14.45 4.34 1 6.49.58a5.27 5.27 0 0 0 4.18-3.55h1a17.15 17.15 0 0 0 5.84 3.47c2.55.74 5.68.19 7.2-2a14.26 14.26 0 0 1 1-1.48h3.08c.39.25.78.53 1.14.78a7.67 7.67 0 0 0 8.93-.78h6.13a14.24 14.24 0 0 0 5.71 2.79 8.2 8.2 0 0 0 7.91-2.79h89.36a16.9 16.9 0 0 0 5 1.64 10.22 10.22 0 0 0 7.29-1.64h10.48a8.59 8.59 0 0 0 2.29.77 6.32 6.32 0 0 0 4.19-.77h6.78a14.46 14.46 0 0 0 4 1.37 10.57 10.57 0 0 0 7.33-1.37h2a5.82 5.82 0 0 0 4.93 4 4.65 4.65 0 0 0 4.6-4h1.93a10.34 10.34 0 0 0 5.32 1.76 5.59 5.59 0 0 0 3.94-1.76h4.09a7.55 7.55 0 0 0 8 0h53.3a7.29 7.29 0 0 0 1.19.8 3.8 3.8 0 0 0 3.83-.07c.29-.22.56-.49.84-.73h2.37a11.68 11.68 0 0 1 1.35 1.46 6.75 6.75 0 0 0 11.14-1.31 1.09 1.09 0 0 1 .08-.15h3.27a8.87 8.87 0 0 0 5.42 2.75c.95 0 2.17-.52 2-1.46-.06-.29-.25-.64 0-.87s.47-.12.71 0a21.12 21.12 0 0 0 5.48 1.49 5.49 5.49 0 0 0 4.73-1.87h2.82c1.28 1.25 2.25 3 4 3.22a2.8 2.8 0 0 0 3-3.08 2.77 2.77 0 0 0 3.13 1 2 2 0 0 0 .9-2.85z" fill="#411f19" opacity=".5"/><path d="M2688 2322.44a3.28 3.28 0 0 0-1.21-.9 24.63 24.63 0 0 0-6-2.14l-.42-.37c1.07-1.05.47-3.2-.91-4a6.57 6.57 0 0 0-4.17-.44l-25.44-22.13a5.46 5.46 0 0 0-1.71-6.82c-2-1.26-4.49-1-6.84-.61l-.63-.55a5.36 5.36 0 0 0-2.62-4.6 10.51 10.51 0 0 0-4.26-1.4l-1.08-.93a4.08 4.08 0 0 0-.36-4.42 7.65 7.65 0 0 0-5-2.53c-1-.15-2-.21-2.94-.28l-64.83-56.4a3 3 0 0 0-.21-1.06 9 9 0 0 0-7.25-5.43l-2.13-1.85a11.42 11.42 0 0 0 0-2.48 5.46 5.46 0 0 0-2.07-3.75c-1.57-1.12-3.67-1-5.59-.8.54-1.9.71-4.22-.72-5.58-1.8-1.72-4.68-.76-7.19-1l-48.72-42.39a14.06 14.06 0 0 0 .48-3.5 2.71 2.71 0 0 0-1.57-2 3.35 3.35 0 0 0-1.83 0 9.52 9.52 0 0 0-2.37.88l-1.1-1a11.5 11.5 0 0 0-.14-2.27 3.85 3.85 0 0 0-2.21-3 5.32 5.32 0 0 0-1.82-.21h-2.16l-12.08-10.52a6.37 6.37 0 0 0-1-3.39 1.73 1.73 0 0 0-.71-.71 2.12 2.12 0 0 0-.79-.14 15.8 15.8 0 0 0-2.28.07l-20.76-18.06a6.41 6.41 0 0 0-7.28-6.34l-2.34-2a6.93 6.93 0 0 0-1.49-3.25 4.73 4.73 0 0 0-4.06-1.58l-1.76-1.53a21.89 21.89 0 0 0-.55-2.77 4.52 4.52 0 0 0-1.1-2.19c-1.24-1.17-3.08-.76-4.86-.7l-20.2-17.58a3.46 3.46 0 0 0-.16-2.13 5.17 5.17 0 0 0-5.7-3l-.37-.32c.1-1.43 0-3-1-3.92a3.26 3.26 0 0 0-3.64-.18 7 7 0 0 0-2.4 2.46h-.24a2 2 0 0 0-1.45-1.47 5.47 5.47 0 0 0-2.51.06 10.69 10.69 0 0 0-4.25 1.41h-29.4a5.06 5.06 0 0 0-3.28-1.77 5.12 5.12 0 0 0-4.27 1.77h-1.3a4.09 4.09 0 0 0-6.14 0h-.68a5.87 5.87 0 0 0-9.29-.89 1.3 1.3 0 0 1-.4.34 1.25 1.25 0 0 1-1-.08 12 12 0 0 0-4.88-1.15 4 4 0 0 0-3.08 1.78H2280a3.76 3.76 0 0 0-2-1.69 3 3 0 0 0-1.52 0 4.44 4.44 0 0 0-2.43 1.67h-17.71a4.14 4.14 0 0 0-3-.72 6.71 6.71 0 0 0-2.13.72h-2.78a11.63 11.63 0 0 0-1.65-2.4 3.22 3.22 0 0 0-1.09-.86c-1.55-.67-3.09.9-4.07 2.28a4.09 4.09 0 0 0-4.51-.8 5.58 5.58 0 0 0-2.22 1.78h-2.73a9.9 9.9 0 0 0-5.13-2.34 7.2 7.2 0 0 0-6.22 2.34s-465.11-1.22-466.28 0h-1.82a5.49 5.49 0 0 0-4.34-2.43 8.47 8.47 0 0 0-5.84 2.43l-92.66-.21c-.77-2.64-4-3.89-6.72-3.26a11.57 11.57 0 0 0-5.48 3.47h-2c-2-2.18-6-2.48-8.11-.26a3.07 3.07 0 0 1-.25.26h-1.18a5.43 5.43 0 0 1-.7-2c-.49-2-3.2-2.91-5.09-2a6.21 6.21 0 0 0-3.1 4h-1.51a20.9 20.9 0 0 0-4.26-2.31 5.07 5.07 0 0 0-3-.45 3.83 3.83 0 0 0-2.61 3.07 11.14 11.14 0 0 0 .21 4.22 9.33 9.33 0 0 0-7.35 3 6.23 6.23 0 0 0-1.37 4.61l-34.17 29.36a13.63 13.63 0 0 0-5.13-.09c-2.25.48-4.41 2.14-4.73 4.42-.21 1.51.31 3.32-.79 4.37-.79.76-2 .7-3.11.78a9.35 9.35 0 0 0-8.23 9.4l-.42.36c-2.66.29-5.79-1.86-7.72 0a4.69 4.69 0 0 0-1.08 2 37.82 37.82 0 0 0-1.49 6.83l-2 1.75a4.62 4.62 0 0 0-4.87.87 6.22 6.22 0 0 0-1.66 4.73l-37.47 32.19a5.91 5.91 0 0 0-3.75.68 5 5 0 0 0-2 4.21l-2.65 2.28-3.64-1a1.93 1.93 0 0 0-1.8.1 1.78 1.78 0 0 0-.47 1 11 11 0 0 0-.23 3.57 2.71 2.71 0 0 1-.06 1.27 1.81 1.81 0 0 1-1.75.93c-.7 0-1.39-.24-2.09-.26-2.07-.07-3.86 1.64-4.56 3.59a10.82 10.82 0 0 0-.52 3.84l-8.52 7.31h-5.92a2 2 0 0 0-1.35.32 2.06 2.06 0 0 0-.49 1.54c0 1.64-.09 3.29-.13 4.93l-.76.65c-1.87-1-4.19-1.67-5.56-.19a4.23 4.23 0 0 0-.83 1.62 13 13 0 0 0-.58 4.56l-1.15 1a6.92 6.92 0 0 0-10 6.83 10.76 10.76 0 0 1 .1 1.71l-2 1.74h-.31a8.22 8.22 0 0 0-9 8l-29.25 25.12a2.69 2.69 0 0 0-1.61.08 5 5 0 0 0-1.84 1.29 10.48 10.48 0 0 0-2.25 3.53l-.53.45a10.48 10.48 0 0 0-3.26.05 4.1 4.1 0 0 0-1.54.54 3.9 3.9 0 0 0-1.38 3.32c0 .45 0 .9.06 1.35l-22.15 19a4.6 4.6 0 0 0-5.35.35 10.91 10.91 0 0 0-3.22 5.08c-.32.88-.6 1.77-.85 2.67l-1.38 1.18a4.13 4.13 0 0 0-2.7-.41c-1.86.45-2.85 2.44-3.41 4.26-1.66-1-4-1.24-5.41.13a5.19 5.19 0 0 0-1.17 4c0 .92.16 1.86.17 2.78l-12.1 10.39a16.51 16.51 0 0 0-2.9-.08 4.42 4.42 0 0 0-3.26 1.64 2.48 2.48 0 0 0 .39 3.37 5.86 5.86 0 0 0-4.51 2 3.53 3.53 0 0 0-.9 1.87 2 2 0 0 0 .73 1.87 3.13 3.13 0 0 0 2.41.28 23.39 23.39 0 0 0 6.15-2h1.12a2 2 0 0 0 .66.77 5 5 0 0 0 2.63.65 10 10 0 0 0 3.5-.25 4.2 4.2 0 0 0 1.88-1.17h1.27a4.74 4.74 0 0 0 4.08 2.11 3.79 3.79 0 0 0 3-2.11h2a10.94 10.94 0 0 0 1.36 1.19 5.42 5.42 0 0 0 4.38 1 3.51 3.51 0 0 0 2.35-2.18H1446a14.05 14.05 0 0 0 13 0h5.36a8.7 8.7 0 0 0 12.42 0h3.66c.2.35.39.72.57 1 1.29 2.27 4.5 2.81 6.94 1.89a12.3 12.3 0 0 0 4.24-2.92H1589a22.38 22.38 0 0 0 9 0h11.12a16 16 0 0 0 6.24.92l6.7-.18a36.23 36.23 0 0 0 7.18-.74h20.23c2.07 1.14 4 2.77 6.28 2.6 2-.13 3.54-1.55 5.23-2.6h7.21l.66.23a9 9 0 0 0 5.76-.23h7.79a12.65 12.65 0 0 0 10.09 0h118.79a15.13 15.13 0 0 0 12.26 0h5.28c.35.48.67 1 1 1.45a5.7 5.7 0 0 0 8.79-.2c.27-.39.52-.83.79-1.25h5.29a9 9 0 0 0 8.08 0h88.58a15.12 15.12 0 0 0 18 0h3.79c4 3.53 10.86 3.66 14.77 0h1.89a14.56 14.56 0 0 0 4.94 3c2.3.7 5.15.22 6.5-1.77.27-.4.49-.86.76-1.26h5.09c4.4 1.88 9.39 3.8 13.17 1.11.48-.34.92-.75 1.39-1.11h73.86a11.71 11.71 0 0 0 3.5 2.68c2.58 1.23 6.11.91 7.74-1.42.27-.39.53-.84.8-1.26h4.22a9.45 9.45 0 0 0 4.65 2.39 4.51 4.51 0 0 0 4.77-2.39h.66c3 2.18 6.12 4.34 9.75 4.83s7.93-1.35 9-4.83h23.16a17.36 17.36 0 0 0 6.51 3c2.42.36 5.21-.53 6.32-2.71l.11-.24h3.3c.29.44.58.91.86 1.29 1.62 2.17 5.72 1.33 6.38-1.29h19.54a17.31 17.31 0 0 0 4.19 1.65 6.79 6.79 0 0 0 5.6-1.65h6.43a16.52 16.52 0 0 0 1.4 2c1.2 1.41 3.35 2.4 4.88 1.36s2.37-3.69 4-3a3.18 3.18 0 0 1 1.18 1.28 6.53 6.53 0 0 0 5.67 2.88c1.38-.1 2.8-2.34 3.79-4.52h66.66a12.23 12.23 0 0 0 7.09 0h8.39a10.53 10.53 0 0 0 3.91 1.35 26.44 26.44 0 0 0 4.79-.06 85.54 85.54 0 0 1 23.51 1.68c2.14.46 4.34 1 6.49.58a5.28 5.28 0 0 0 4.19-3.55h1a16.71 16.71 0 0 0 5.83 3.47c2.55.74 5.68.2 7.2-2a14.4 14.4 0 0 1 1-1.49h3.08c.39.25.78.53 1.14.78a7.66 7.66 0 0 0 8.93-.78h6.13a14.26 14.26 0 0 0 5.71 2.8 8.23 8.23 0 0 0 7.91-2.8h89.36a17.21 17.21 0 0 0 5 1.65 10.28 10.28 0 0 0 7.29-1.65H2519a8.59 8.59 0 0 0 2.29.77 6.32 6.32 0 0 0 4.19-.77h6.78a14.46 14.46 0 0 0 4 1.37 10.47 10.47 0 0 0 7.33-1.37h2a5.82 5.82 0 0 0 4.93 4 4.62 4.62 0 0 0 4.6-4h1.93a10.45 10.45 0 0 0 5.32 1.77 5.6 5.6 0 0 0 3.94-1.77h4.09a7.93 7.93 0 0 0 4.24 1.15 7.84 7.84 0 0 0 3.75-1.15h53.3a7 7 0 0 0 1.2.8 3.76 3.76 0 0 0 3.82-.07c.29-.21.56-.49.84-.73h2.45a13.35 13.35 0 0 1 1.34 1.47 6.76 6.76 0 0 0 11.14-1.31c0-.05.05-.11.08-.16h3.27a8.94 8.94 0 0 0 5.42 2.76c1 0 2.17-.53 2-1.46-.06-.3-.25-.64-.05-.87s.47-.13.71 0a21.2 21.2 0 0 0 5.48 1.48 5.47 5.47 0 0 0 4.73-1.87h2.82c1.28 1.25 2.25 3 4 3.22a3.62 3.62 0 0 1 6.14-2.07 2 2 0 0 0 .92-2.86z" fill="#cfcc96" stroke="#411f19" stroke-linecap="round" stroke-linejoin="round" stroke-width=".75"/><path d="M1380 2309.92a2.06 2.06 0 0 1-.47-2.71 5 5 0 0 1 2.34-1.86c2.13-1 4.91-1.48 6.62.13 1.16 1.08 1.44 2.78 1.66 4.35a4.33 4.33 0 0 1 3.6-2.87c1.62-.05 3.22 1.56 2.78 3.12a17.47 17.47 0 0 1 3.86-2.58 2.33 2.33 0 0 1 1.32-.34 2.14 2.14 0 0 1 1.08.59 5.69 5.69 0 0 1 1.77 5M1668.79 2300.75c0-1.5.12-3.21 1.32-4.11s3.25-.43 4.35.75a9.93 9.93 0 0 1 2 4.37c1.68-2.27 3.56-4.68 6.29-5.41a1.43 1.43 0 0 1 1.38.16c.3.29.33.77.56 1.12a1.71 1.71 0 0 0 1.86.5c.66-.17 1.26-.54 1.93-.7a3.4 3.4 0 0 1 4 3M1886.05 2182.72a6.9 6.9 0 0 1 12.84-2c-.18-2 2.49-3.18 4.53-2.88s4 1.35 6.07.92c2.28-.48 4.8-2.69 6.52-1.12.69.64.9 1.73 1.71 2.21 1.61 1 3.14-1.27 4.76-2.19 2.43-1.38 6 1.25 5.32 4M1935.81 2234.43a5.35 5.35 0 0 1 10 3.28c1.84-3.66 5.67-8 9.15-5.8 1 .62 1.68 1.72 2.73 2.28 2 1 4.3-.11 6.5-.37a8.23 8.23 0 0 1 8.81 7.57M2216.57 2153.61c-1.76-.93-1.07-4 .78-4.7s4 .17 5.52 1.41a11.56 11.56 0 0 0 2.87 2c2.23.84 4.63-.42 7-.85s5.55 1 5 3.32a17.2 17.2 0 0 1 5.76-4.32c2.26-.86 5.14-.58 6.65 1.3.81 1 1.16 2.36 2.12 3.21 2.75 2.44 8.1-.8 10.4 2.06M2326.1 2081.27c-1.64-1.79 1-4.79 3.42-4.31s3.89 2.76 5.13 4.84c1.38-2 2.85-4 5-5.1s5.14-.91 6.5 1.07c.66.95.91 2.23 1.87 2.87 1.78 1.19 3.89-.8 5.8-1.75a6.45 6.45 0 0 1 8.7 3.81M2435.15 2274c-.65-3.78 2.86-7.38 6.66-7.83s7.55 1.55 10.29 4.23a7.07 7.07 0 0 1 13.64 3.46c2 .07 3.76-1.19 5.39-2.34s3.51-2.31 5.48-2 3.47 3 2 4.38c2.58.15 4.22-2.6 6.3-4.14a7.53 7.53 0 0 1 11.61 8.51M2421.46 2195.1a5 5 0 0 1 7.39 2.3c.93-2.49 3.72-3.9 6.38-4s5.24.79 7.75 1.69M1719.3 2136.32c-5.63-4.21-15.23.22-15.68 7.23a8.19 8.19 0 0 0-11.48 0c-.79.84-1.66 2-2.79 1.75a3.53 3.53 0 0 1-1.62-1.13c-3.4-3.2-9.91-1.67-11.54 2.71M1597.07 2091.54a8.5 8.5 0 0 1 9.47.64c3-3.31 9.69-.53 9.46 3.92" fill="none" stroke="#411f19" stroke-linecap="round" stroke-linejoin="round" stroke-width=".75"/><ellipse cx="1998" cy="2216.6" rx="227.83" ry="58.61" fill="#411f19" opacity=".3"/><path fill="#ad6021" stroke="#411f19" stroke-linejoin="round" stroke-width=".75" d="M1807.17 2065.61l-29.47 148.54h8.1l51.58-142.95-30.21-5.59zM2195.31 2065.61l29.48 148.54h-8.11l-51.58-142.95 30.21-5.59zM2022.21 2109.89l-11.7 158.17h-8.1l-10.42-152.58 30.22-5.59z"/><path fill="#985845" stroke="#411f19" stroke-linejoin="round" stroke-width=".75" d="M1973.01 2039.29l-9.31 125.92h-6.46l-8.28-121.47 24.05-4.45z"/><path d="M2236.1 2057.91c0 34.08-107.4 61.71-239.88 61.71s-239.88-27.63-239.88-61.71v-11.35s132-50.35 239.88-50.35c109.9 0 239.88 50.35 239.88 50.35z" fill="#f3f4e1" stroke="#411f19" stroke-miterlimit="10" stroke-width=".75"/><ellipse cx="1996.22" cy="2046.56" rx="239.88" ry="61.71" fill="#f3f4e1" stroke="#411f19" stroke-miterlimit="10" stroke-width=".75"/><ellipse cx="1693" cy="2112.27" rx="33.68" ry="7.09" fill="#1b191a" opacity=".4"/><circle cx="1692.49" cy="2077.66" r="37.71" fill="#fcdd5e"/><path d="M1661.09 2081.15a37.71 37.71 0 0 1 52.71-34.6 37.71 37.71 0 1 0-36.3 65.72 37.67 37.67 0 0 1-16.41-31.12z" fill="#5eb6d1"/><circle cx="1692.49" cy="2077.66" r="37.71" fill="none" stroke="#411f19" stroke-miterlimit="10" stroke-width=".75"/><path fill="#e83f54" d="M1683.98 2058.38l16.65 11.57 12.72-11.57v19.66l11.34 10.93h-16.66l-7.63 19.37-4.39-16.88-21.05-2.49 15.72-10.93-6.7-19.66z"/><path d="M1724.11 2057.12a37.7 37.7 0 0 1-68.31 29.23 37.71 37.71 0 1 0 68.31-29.23z" fill="#1b191a" opacity=".1"/><path fill="#1b191a" opacity=".25" d="M1916.18 2053.33h158.89v12.34h-158.89z"/><path fill="#7aa480" stroke="#411f19" stroke-width=".75" d="M1915.67 2048.59h159.92v12.34h-159.92z"/><path fill="#fcdd5e" stroke="#411f19" stroke-linejoin="round" stroke-width=".75" d="M1928.09 2048.59h24.84v12.34h-24.84z"/><path fill="#7aa480" stroke="#411f19" stroke-width=".75" d="M1925.66 2010.42l-9.99 38.17h159.92l-8.96-38.17h-140.97z"/><path fill="#d95e47" stroke="#411f19" stroke-miterlimit="10" stroke-width=".75" d="M1931.2 2033.12h137.6v12.34h-137.6z"/><path fill="#fcdd5e" stroke="#411f19" stroke-linejoin="round" stroke-width=".75" d="M1960.61 2033.12h71.22v12.34h-71.22z"/><path fill="#e26b69" stroke="#411f19" stroke-linejoin="round" stroke-width=".75" d="M1937.53 2004.92l-6.33 28.2h137.6l-6.33-28.2h-124.94z"/><path fill="#a5a5a5" stroke="#411f19" stroke-linejoin="round" stroke-width=".75" d="M1864.15 2057.91h21.9v3.01h-21.9zM1879.23 2021.12l-15.08 36.79h21.9l12.65-36.79h-19.47z"/><path d="M1886.05 2060.93c5-12.38 8-25.38 12.82-37.62l-.17-2.19" fill="#a5a5a5" stroke="#411f19" stroke-linejoin="round" stroke-width=".75"/><path d="M2125.84 2040.47a4.93 4.93 0 0 0 1.91-.77 4.24 4.24 0 0 0 .94-1.23 22.06 22.06 0 0 0 2.72-7.88l.57-.11 6.36 4.15a2.27 2.27 0 0 0 1.19.49 2.78 2.78 0 0 0 1.58-.85 6.84 6.84 0 0 1 3.67-1.43 2.09 2.09 0 0 1 .93.1 2.65 2.65 0 0 1 .94.94 9.86 9.86 0 0 0 7.25 3.94c.1 2.48-1.87 4.52-2.58 6.9a1.09 1.09 0 0 0 0 .67.9.9 0 0 0 .43.43 8.69 8.69 0 0 0 2.15.61 2.11 2.11 0 0 1 1.63 1.37 2.54 2.54 0 0 1-.33 1.53c-.26.6-.53 1.21-.8 1.81a2.39 2.39 0 0 1-.59.92 2.52 2.52 0 0 1-1 .42l-15 3.84a10.73 10.73 0 0 1-5.34.44c-2.12-.55-3.66-2.3-5.22-3.83a36.32 36.32 0 0 0-9.29-6.64 5.15 5.15 0 0 1-2.54-2 53.32 53.32 0 0 1 10.42-3.82z" fill="#c19125" stroke="#411f19" stroke-linejoin="round" stroke-width=".75"/><path fill="#1b191a" opacity=".3" d="M2119.85 2044.7h8.8l3.78 12.06-12.58-12.06zM2149.86 2040.08l-3.75 4.62-10.66-4.62-.6 6.35 4.33-.87 7.21 7.6 3.47-13.08z"/><ellipse cx="2116.62" cy="2072.79" rx="55.05" ry="15.12" fill="#1b191a" opacity=".25"/><path d="M2171.67 2066.89c0 9.66-24.64 17.48-55.05 17.48s-55-7.82-55-17.48v-2.35s28.09-15.13 55-15.13c26.22 0 55 14.44 55 14.44s.05 1.71.05 3.04z" fill="#fff" stroke="#411f19" stroke-miterlimit="10" stroke-width=".75"/><ellipse cx="2116.62" cy="2064.54" rx="55.05" ry="15.12" fill="#fff" stroke="#411f19" stroke-miterlimit="10" stroke-width=".75"/><path d="M2083 2062.36a18.53 18.53 0 0 0-10.08 2c3 2.45 7.5 1.8 10.74 3.86 1 .64 3 2.68 3.21 2.76a21.68 21.68 0 0 0 5.22-1.39 18.24 18.24 0 0 1 2.4-1.06 8.75 8.75 0 0 1 3-.16c3 .23 5.88.89 8.84 1.29a22.44 22.44 0 0 0 8.87-.24c-1.3-.59-6.06-7.45-8.28-9" fill="#1b191a" opacity=".25"/><path d="M2108.17 2054.75a16.72 16.72 0 0 0 6.82-4c.22-.22.45-.49.39-.79s-.34-.46-.59-.59l-6.23-3.24a4.3 4.3 0 0 1-1-.68c-1-1-.92-2.63-.72-4l-.89.13c-2 .58-3.34 2.75-5.38 2.76-1.6 0-2.84-1.29-4-2.38a12.5 12.5 0 0 0-5-3 2.41 2.41 0 0 0-1.43-.06 2.77 2.77 0 0 0-1.14.93l-4.79 5.6a13.31 13.31 0 0 1-4 3.58 23.52 23.52 0 0 1-4 1.21 15.13 15.13 0 0 0-3.93 1.78c2.38 1.57 4.83 3.23 6.26 5.7 1.82 3.14 1.66 7 1.44 10.63l9-2.07a2.61 2.61 0 0 1 1.07-.09 2.87 2.87 0 0 1 1.31.85 20.82 20.82 0 0 0 7.31 4.45 3 3 0 0 0 1.94.2 3.28 3.28 0 0 0 1.59-1.74l2-3.7a2.79 2.79 0 0 1 3.74-1.62c2.93.45 5.85 1 8.72 1.76q-4.14-5.97-8.49-11.62z" fill="#c19125" stroke="#411f19" stroke-linejoin="round" stroke-width=".75"/><path fill="#1b191a" opacity=".3" d="M2082.34 2064.53l9.97-8.58v4.29l4.12-4.29v7.91l-2.08-1.9-2.99.79-9.02 1.78zM2099.59 2068.93v-6.65l2.06 4.61-2.06 2.04zM2109.09 2050.64l-12.66-3.08 6.33 9.41v-5.61l6.33.9 2.06-1.62h-2.06zM2082.34 2050.64l14.09 3.41-11.88-6.49-2.21 3.08z"/><path d="M2120.7 2071.25a.75.75 0 0 0 0-1.5.75.75 0 0 0 0 1.5zM2126.32 2065a.75.75 0 0 0 0-1.5.75.75 0 0 0 0 1.5zM2132.83 2070.58a.75.75 0 0 0 0-1.5.75.75 0 0 0 0 1.5zM2147.65 2068.11a.75.75 0 0 0 0-1.5.75.75 0 0 0 0 1.5zM2117.33 2062.27a.75.75 0 0 0 0-1.5.75.75 0 0 0 0 1.5z" fill="#ad6021"/><path d="M2335.62 2150.21s13.09 1.88 16.64.66 24-10.15 31.45-9.48 17.71 5.42 11.89 14.3-37.26 18.93-45.26 20.36-18.26-3.72-20.59-6.13c2.54-4.23 3.95-13.19 5.87-19.71z" fill="#1b191a" opacity=".4"/><path d="M2335.62 2145.46s13.09 1.88 16.64.67 24-10.15 31.45-9.49 17.71 5.42 11.89 14.31-37.26 18.93-45.26 20.36-18.26-3.73-20.59-6.13c2.54-4.18 3.95-13.18 5.87-19.72z" fill="#f2efed" stroke="#411f19" stroke-miterlimit="10" stroke-width=".75"/><path d="M2394.37 2145.11a12.58 12.58 0 0 1-2.7 1.8c-1 .52-2.1.82-3.12 1.29a5.13 5.13 0 0 0-2.07 1.79 17.49 17.49 0 0 1-2.4 3.07 15.33 15.33 0 0 1-3.59 2.24c-1.48.71-3 1.34-4.5 2-3.22 1.44-6.42 2.91-9.66 4.31-2.71 1.17-5.29 2.6-8 3.84a27.5 27.5 0 0 1-8.42 2.67 12.83 12.83 0 0 1-7.82-1.54c-2.52-1.41-4.59-3.46-7-5-.8-.52-2.39-1.3-3.2-1.78-.92 2-1.18 4.1-2.18 5.4 2.33 2.4 12.59 7.55 20.59 6.13s39.45-11.48 45.26-20.36c2.19-3.35 2.09-6.1.73-8.28a8.68 8.68 0 0 1-1.92 2.42z" fill="#1b191a" opacity=".1"/><path d="M2340.74 2170.58s3.37-8.63 7-10.8c0 0 5.06 4.28 5.8 10.82M2332.72 2167.29s5.42-12 6.29-21.4" fill="none" stroke="#411f19" stroke-miterlimit="10" stroke-width=".75"/><path d="M2346.93 2136a16.48 16.48 0 0 0-7.09-10.37c-3.61-2.33-13.9-3.23-13.9-3.23-5.48-.93-11 2.33-14.32 6.78s-4.91 9.93-6.43 15.27a3.15 3.15 0 0 0-.1 2.07 2.55 2.55 0 0 0 1.09 1.09c2.59 1.58 5.93 1.32 8.79.29s12 0 14.78-1.3c4.88-2.28 3.77-5.91 9.12-5.32a18.53 18.53 0 0 0 4.39.24 4.41 4.41 0 0 0 3.55-2.3 5.27 5.27 0 0 0 .12-3.22z" fill="#1b191a" opacity=".4"/><path d="M2346.18 2131.7a16.43 16.43 0 0 0-7.09-10.36c-3.61-2.34-13.9-3.23-13.9-3.23-5.48-.93-11 2.33-14.31 6.77s-4.92 9.93-6.43 15.27a3.09 3.09 0 0 0-.11 2.07 2.57 2.57 0 0 0 1.09 1.1c2.59 1.57 5.94 1.31 8.79.28s5.41-2.73 8.15-4a29.79 29.79 0 0 1 15.76-2.61 18.5 18.5 0 0 0 4.39.24 4.4 4.4 0 0 0 3.54-2.29 5.23 5.23 0 0 0 .12-3.24z" fill="#f2efed" stroke="#411f19" stroke-miterlimit="10" stroke-width=".75"/><path d="M2345.38 2129.06c.69 2.13-.33 5.55-3 5.88-2.15.27-9.42-5.32-11.53-4.8a24.11 24.11 0 0 0-7.13 2.81c-1.72 1.07-3.37 2.35-5.47 2.52a4.19 4.19 0 0 1-3.18-1c-1.84-1.69-2-4.71-2-7 0-1.75.15-3.49.25-5.24a20 20 0 0 0-2.45 2.69c-3.33 4.45-4.92 9.93-6.43 15.27a3.09 3.09 0 0 0-.11 2.07 2.57 2.57 0 0 0 1.09 1.1c2.59 1.57 5.94 1.31 8.79.28s5.41-2.73 8.15-4a29.79 29.79 0 0 1 15.76-2.61 18.5 18.5 0 0 0 4.39.24 4.4 4.4 0 0 0 3.54-2.29 5.23 5.23 0 0 0 .12-3.23 15.43 15.43 0 0 0-.79-2.69z" fill="#1b191a" opacity=".1"/><path d="M2310.88 2124.88s-3.12 11.18 2 18.95" fill="none" stroke="#411f19" stroke-miterlimit="10" stroke-width=".75"/><path d="M2337.92 2123s4.48 8.9 1.09 13.9" fill="#fff" stroke="#411f19" stroke-linecap="round" stroke-miterlimit="10" stroke-width=".75"/><ellipse cx="990.61" cy="466.57" rx="66.44" ry="17.45" fill="#637396" stroke="#411f19" stroke-miterlimit="10" stroke-width=".75"/><ellipse cx="990.61" cy="473.95" rx="50.79" ry="13.34" fill="#f3f4e1" stroke="#411f19" stroke-miterlimit="10" stroke-width=".75"/><ellipse cx="2000.72" cy="466.57" rx="66.44" ry="17.45" fill="#637396" stroke="#411f19" stroke-miterlimit="10" stroke-width=".75"/><ellipse cx="2000.72" cy="473.95" rx="50.79" ry="13.34" fill="#f3f4e1" stroke="#411f19" stroke-miterlimit="10" stroke-width=".75"/><ellipse cx="3008.09" cy="466.57" rx="66.44" ry="17.45" fill="#637396" stroke="#411f19" stroke-miterlimit="10" stroke-width=".75"/><ellipse cx="3008.09" cy="473.95" rx="50.79" ry="13.34" fill="#f3f4e1" stroke="#411f19" stroke-miterlimit="10" stroke-width=".75"/><ellipse cx="1530.46" cy="946.16" rx="30.88" ry="8.11" fill="#637396" stroke="#411f19" stroke-miterlimit="10" stroke-width=".75"/><ellipse cx="1530.46" cy="949.59" rx="23.61" ry="6.2" fill="#f3f4e1" stroke="#411f19" stroke-miterlimit="10" stroke-width=".75"/><ellipse cx="1999.99" cy="946.16" rx="30.88" ry="8.11" fill="#637396" stroke="#411f19" stroke-miterlimit="10" stroke-width=".75"/><ellipse cx="1999.99" cy="949.59" rx="23.61" ry="6.2" fill="#f3f4e1" stroke="#411f19" stroke-miterlimit="10" stroke-width=".75"/><ellipse cx="2468.25" cy="946.16" rx="30.88" ry="8.11" fill="#637396" stroke="#411f19" stroke-miterlimit="10" stroke-width=".75"/><ellipse cx="2468.25" cy="949.59" rx="23.61" ry="6.2" fill="#f3f4e1" stroke="#411f19" stroke-miterlimit="10" stroke-width=".75"/><ellipse cx="1330.37" cy="772.92" rx="44.06" ry="11.57" fill="#637396" stroke="#411f19" stroke-miterlimit="10" stroke-width=".75"/><ellipse cx="1330.37" cy="777.82" rx="33.68" ry="8.85" fill="#f3f4e1" stroke="#411f19" stroke-miterlimit="10" stroke-width=".75"/><ellipse cx="2668.33" cy="772.92" rx="44.06" ry="11.57" fill="#637396" stroke="#411f19" stroke-miterlimit="10" stroke-width=".75"/><ellipse cx="2668.33" cy="777.82" rx="33.68" ry="8.85" fill="#f3f4e1" stroke="#411f19" stroke-miterlimit="10" stroke-width=".75"/><ellipse cx="2000" cy="772.92" rx="44.06" ry="11.57" fill="#637396" stroke="#411f19" stroke-miterlimit="10" stroke-width=".75"/><ellipse cx="2000" cy="777.82" rx="33.68" ry="8.85" fill="#f3f4e1" stroke="#411f19" stroke-miterlimit="10" stroke-width=".75"/><path fill="#ddd" stroke="#411f19" stroke-linejoin="round" stroke-width=".75" d="M2490.77 2124.79h62.62l-4.62-4.55h-63.43l5.43 4.55zM2606.26 2209.79h356.99v7.37h-356.99z"/><path fill="#ddd" stroke="#411f19" stroke-linejoin="round" stroke-width=".75" d="M2948.69 2158.16v51.49l14.56 7.51-.19-50.09-14.37-8.91zM2966.43 2167.47v49.69h-3.18v-52.02l3.18 2.33z"/><path fill="#411f19" opacity=".45" d="M2743.61 2104.56h-263.56l173.84 129.56h351.1l-261.38-129.56z"/><path fill="#ddd" stroke="#411f19" stroke-linejoin="round" stroke-width=".75" d="M2484.34 2073.22v46.46l6.43 5.11v-47.98l-6.43-3.59zM2492.88 2079.45v45.34h-2.11v-46.53l2.11 1.19z"/><path d="M2748.94 1941.05h-257.1a13.32 13.32 0 0 0-13.32 13.32v117.24l141 103.26h353.18v-149.08c0-7.15-3.83-13.65-13.87-16.42z" fill="#bf6c2e" stroke="#411f19" stroke-miterlimit="10" stroke-width=".75"/><path d="M2589.9 2013.53a16 16 0 0 1 16-16h121.7l7.16-46.56h-218.02a13.62 13.62 0 0 0-13.62 13.62v65.07h86.78z" fill="#1b191a" opacity=".3"/><path d="M2734.81 1950.92h-218.07a13.62 13.62 0 0 0-13.62 13.62v65.07" fill="none" stroke="#411f19" stroke-linejoin="round" stroke-width=".75"/><path d="M2972.7 2174.87h-353.15v-149.08a16.42 16.42 0 0 1 16.41-16.42h320.32a16.42 16.42 0 0 1 16.42 16.42z" fill="#99501a" stroke="#411f19" stroke-miterlimit="10" stroke-width=".75"/><path d="M2589.9 2029.27h-85a5.17 5.17 0 0 0-5.15 5.15v50.06c0 2.83 3.35 5 5.37 6.4l84.76 62.27z" fill="none" stroke="#411f19" stroke-linejoin="round" stroke-width=".75"/><path fill="#c7d1d3" stroke="#411f19" stroke-linejoin="round" stroke-width=".75" d="M2589.9 2089.62l-89.76-57.1"/><path d="M2919.68 1997.48v-57c0-3.07-1-3.28-3-3.86-1.28-.38-89-23.45-105.29-27.74a29.76 29.76 0 0 0-8.87-1.15c-1.55 0-41.31-.63-53.05-.82-2 0-3.25 0-3.84 2.28l-22.94 88.31" fill="#bf6c2e" stroke="#411f19" stroke-miterlimit="10" stroke-width=".75"/><path d="M2836.39 1997.43l16.07-57.7c.79-2.12 1.49-1.72 1.95-2.29L2747.54 1907c-2 0-1.21-.48-1.79 1.78l-23 88.66" fill="#1b191a" opacity=".1"/><path fill="none" stroke="#411f19" stroke-linejoin="round" stroke-width=".75" d="M2853.89 1937.73l-107-30.48M2918.3 1937.39h-61.89c-.9 0-3.82-.39-4.67 3.34s-15.8 56.75-15.8 56.75M2619.55 2174.87l-29.65-21.71v-139.63a16 16 0 0 1 16-16h313.73c3.67 0 6 1.1 9.11 2.11"/><path d="M2702.14 1997.25c-13.12-.2-38.65 0-38.65 0 5.46 4.62 5.13 21.51 5.76 28.64 4.39 49.49 1.05 99.26-.79 148.91h72.86c10.24-6.41 20.28-13.22 30.39-19.77 2.68-1.73 6.14-12.57 9-13.89 3.18-1.45 5.79 6.71 9.14 5.71 10.6-3.16 21-6.87 31.45-10.57a21.11 21.11 0 0 0 6.34-3.09c4.41-3.55 5.23-9.85 5.54-15.5.99-17.44-131.04-120.44-131.04-120.44z" fill="#1b191a" opacity=".3"/><path d="M2687.78 2180.43v28.18M2696.43 2179.47v22.42M2703.8 2174v26.27M2710.53 2178.18v26.91M2715.87 2175.3q-.45 9.27-.19 18.58M2723.66 2172.74v19.86M2731.35 2167.29v24.35M2682 2184.59V2208M2737.75 2159.61v25.62M2743.52 2160.89v21.78M2749.6 2159.29v17M2757 2151v29.47M2760.82 2151.6v19.22M2767.54 2147.43v21.46M2776.19 2140.39v19.86M2772.59 2136.54l.28 27.87M2783.81 2132.69a184.48 184.48 0 0 0-.5 25M2792.87 2122.13a73.37 73.37 0 0 1-5.7 18.3M2792.54 2133.66a51.11 51.11 0 0 1-1.67 14.72M2802 2122.44a189 189 0 0 1-3.66 30.45M2805.1 2122.45c.53 10.13 1 20.49-1.75 30.25M2815 2114.77a108.86 108.86 0 0 1-4.94 27.19M2821.11 2123.41a94.72 94.72 0 0 1-2.93 19.23M2826.4 2117.65a89.08 89.08 0 0 1-1.05 22.12M2835.41 2106.76a97.68 97.68 0 0 1-3.39 31.73" fill="none" stroke="#ddd" stroke-linejoin="round" stroke-width="2"/><path d="M2836.92 2054.47a88.29 88.29 0 0 0-4.35-18.62c-2.6-6.86-6.6-13.1-10.57-19.27-5.47-8.51-11.78-17.63-21.5-20.42a42.19 42.19 0 0 0-11.11-1.16l-81.09-1.23c-13.13-.2-42 3.41-42 3.41a25.28 25.28 0 0 1 9 17.75 1188.62 1188.62 0 0 1 3.34 160.68c-.19 4-.24 8.4 2.42 11.35 3.62 4 10.06 3.1 15.23 1.56 29.76-8.88 55.4-27.57 81.47-44.45 2.68-1.73 6.14-12.57 9-13.89 3.18-1.45 5.8 6.71 9.14 5.71 10.6-3.16 21-6.87 31.45-10.57a21.11 21.11 0 0 0 6.34-3.09c4.41-3.55 5.23-9.85 5.54-15.5a263.26 263.26 0 0 0-2.31-52.26zM2784.81 2132.26c15.36-95.38-1.71-137.33-1.71-137.33" fill="#7dc0a1" stroke="#411f19" stroke-miterlimit="10" stroke-width=".75"/><path d="M2783.1 1994.93s15.24 30.14 2.22 136c0 0 2.45-3.44 6.33 2.36 2.75 4.09 5.79 2.18 5.79 2.18 7.61-67.3-1.47-121.49-8.05-140.44z" fill="#411f19" opacity=".15"/><path fill="#ddd" stroke="#411f19" stroke-linejoin="round" stroke-width=".75" d="M2596.73 2158.16v51.49l9.53 7.51v-52.02l-9.53-6.98zM2609.44 2167.47v49.69h-3.18v-52.02l3.18 2.33zM1497.37 2126.05h-62.62l4.62-4.56h63.43l-5.43 4.56zM1024.89 2210.28h356.99v7.37h-356.99z"/><path fill="#ddd" stroke="#411f19" stroke-linejoin="round" stroke-width=".75" d="M1039.45 2158.66v51.48l-14.56 7.51.2-50.09 14.36-8.9zM1021.72 2167.96v49.69h3.17v-52.02l-3.17 2.33z"/><path fill="#411f19" opacity=".45" d="M1244.53 2105.05h263.56l-173.83 129.56H983.15l261.38-129.56z"/><path fill="#ddd" stroke="#411f19" stroke-linejoin="round" stroke-width=".75" d="M1503.8 2074.47v46.46l-6.43 5.12v-47.98l6.43-3.6zM1495.27 2080.7v45.35h2.1v-46.54l-2.1 1.19z"/><path d="M1239.2 1941.54h257.1a13.32 13.32 0 0 1 13.32 13.32v117.24l-141 103.26h-353.18v-149.08c0-7.15 3.83-13.65 13.87-16.42z" fill="#bf6c2e" stroke="#411f19" stroke-miterlimit="10" stroke-width=".75"/><path d="M1398.24 2014a16 16 0 0 0-16-16h-121.7l-7.16-46.56h218.02A13.62 13.62 0 0 1 1485 1965v65.07h-86.78z" fill="#1b191a" opacity=".3"/><path d="M1253.33 1951.41h218.07A13.62 13.62 0 0 1 1485 1965v65.07" fill="none" stroke="#411f19" stroke-linejoin="round" stroke-width=".75"/><path d="M1015.44 2175.36h353.16v-149.08a16.42 16.42 0 0 0-16.42-16.42h-320.32a16.42 16.42 0 0 0-16.42 16.42z" fill="#99501a" stroke="#411f19" stroke-miterlimit="10" stroke-width=".75"/><path d="M1398.24 2029.77h85a5.16 5.16 0 0 1 5.15 5.14V2085c0 2.83-3.35 5-5.37 6.4l-84.76 62.27z" fill="none" stroke="#411f19" stroke-linejoin="round" stroke-width=".75"/><path fill="#c7d1d3" stroke="#411f19" stroke-linejoin="round" stroke-width=".75" d="M1398.24 2090.11l89.76-57.1"/><path d="M1068.46 1998v-57c0-3.08 1-3.29 3-3.87 1.28-.38 89-23.45 105.29-27.74a29.76 29.76 0 0 1 8.87-1.15c1.55 0 41.31-.63 53.05-.82 2 0 3.25 0 3.84 2.28l22.94 88.31" fill="#bf6c2e" stroke="#411f19" stroke-miterlimit="10" stroke-width=".75"/><path d="M1152.2 1998l-16-57.47c-.78-2.11-1.48-1.71-1.94-2.28l106.45-30.32c2 0 1.2-.49 1.79 1.76l22.94 88.31" fill="#1b191a" opacity=".1"/><path fill="none" stroke="#411f19" stroke-linejoin="round" stroke-width=".75" d="M1134.25 1938.22l107-30.48M1069.84 1937.88h61.89c.9 0 3.82-.38 4.67 3.34s15.8 56.75 15.8 56.75M1368.6 2175.36l29.64-21.7V2014a16 16 0 0 0-16-16h-313.78c-3.67 0-6 1.1-9.1 2.11"/><path fill="#ddd" stroke="#411f19" stroke-linejoin="round" stroke-width=".75" d="M1391.41 2158.66v51.48l-9.53 7.51v-52.02l9.53-6.97zM1378.7 2167.96v49.69h3.18v-52.02l-3.18 2.33z"/><path d="M1278.41 1943.4a40.41 40.41 0 0 1-2.55-9.84c-.27-3.12 0-6.74-2.32-8.83-2.78-2.51-7.14-1-10.56.46a205.65 205.65 0 0 1-33.81 11.42c-12.1 2.94-23.32 3.25-31.73 12.42-.33.36-2.34-.28-4.76 3.88-1.36 2.34 3.49 5.19 3.83 5.84a134.93 134.93 0 0 1 13.55 39.22h87.81z" fill="#e5ba21" stroke="#411f19" stroke-width=".75"/></svg>