<?xml version="1.0" encoding="utf-8"?>
<!-- Generator: Adobe Illustrator 27.0.1, SVG Export Plug-In . SVG Version: 6.00 Build 0)  -->
<svg version="1.1" xmlns="http://www.w3.org/2000/svg" xmlns:xlink="http://www.w3.org/1999/xlink" x="0px" y="0px"
	 viewBox="0 0 2000 1000" style="enable-background:new 0 0 2000 1000;" xml:space="preserve">
<style type="text/css">
	.st0{fill:#E8E8D1;stroke:#411F19;stroke-width:0.2;}
	.st1{fill:#D95E47;stroke:#411F19;stroke-width:0.2;}
	.st2{fill:#E5BA21;stroke:#411F19;stroke-width:0.2;}
	.st3{fill:#7DC0A1;stroke:#411F19;stroke-width:0.2;}
	.st4{fill:#D95E47;}
	.st5{fill:none;stroke:#411F19;stroke-width:0.2;stroke-linejoin:round;}
	.st6{fill:#E5A59C;stroke:#411F19;stroke-width:0.2;}
	.st7{opacity:0.2;fill:#411F19;enable-background:new    ;}
	.st8{opacity:0.3;fill:#411F19;enable-background:new    ;}
	.st9{fill:#E8E8D1;}
	.st10{opacity:8.000000e-02;fill:#411F19;enable-background:new    ;}
	.st11{fill:#FFFFFF;stroke:#411F19;stroke-width:0.2;stroke-linejoin:round;}
	.st12{opacity:0.8;}
	.st13{fill:#411F19;}
	.st14{fill:#E5BA21;}
	.st15{fill:#ADACA1;stroke:#411F19;stroke-width:0.2;stroke-linejoin:round;}
	.st16{opacity:0.1;fill:#411F19;enable-background:new    ;}
	.st17{fill:#686652;stroke:#411F19;stroke-width:0.2;stroke-linejoin:round;}
	.st18{fill:#9B9989;stroke:#411F19;stroke-width:0.2;stroke-linejoin:round;}
	.st19{fill:#D1E5E5;stroke:#411F19;stroke-width:0.2;stroke-linejoin:round;}
	.st20{fill:#411F19;stroke:#411F19;stroke-width:0.2;stroke-linejoin:round;}
	.st21{fill:#7DC0A1;}
	.st22{opacity:0.5;fill:#7DC0A1;enable-background:new    ;}
	.st23{fill:none;stroke:#E8E8D1;stroke-width:0.2;}
	.st24{fill:#A4F27D;stroke:#411F19;stroke-width:0.1;stroke-linejoin:round;}
	.st25{fill:#E7D9B2;stroke:#411F19;stroke-width:0.1;stroke-linejoin:round;}
	.st26{fill:#D37134;stroke:#411F19;stroke-width:0.1;stroke-linejoin:round;}
	.st27{fill:#FEF8F3;stroke:#411F19;stroke-width:0.1;stroke-linejoin:round;}
	.st28{fill:#743E22;stroke:#411F19;stroke-width:0.1;stroke-linejoin:round;}
	.st29{fill:#FFFFFF;stroke:#411F19;stroke-width:0.1;stroke-miterlimit:10;}
	.st30{fill:#FDFB43;stroke:#411F19;stroke-width:0.1;stroke-linejoin:round;}
	.st31{fill:none;stroke:#411F19;stroke-width:0.1;stroke-linecap:round;stroke-linejoin:round;}
	.st32{fill:#FFFFFF;}
	.st33{fill:#ECD045;stroke:#411F19;stroke-width:0.1;stroke-linejoin:round;}
	.st34{fill:#D37134;stroke:#411F19;stroke-width:0.1;stroke-linecap:round;stroke-linejoin:round;}
	.st35{fill:#9933CC;stroke:#411F19;stroke-width:0.2;}
	.st36{fill:#333333;}
	.st37{fill:#CBB591;stroke:#411F19;stroke-width:0.1;}
	.st38{opacity:0.3;fill:#411F19;stroke:#411F19;stroke-width:0.2;stroke-linejoin:round;enable-background:new    ;}
	.st39{fill:#7DC0A1;stroke:#411F19;stroke-width:0.1;}
	.st40{fill:#519372;stroke:#411F19;stroke-width:0.1;stroke-linejoin:round;}
	.st41{fill:none;stroke:#411F19;stroke-width:0.1;stroke-linecap:round;stroke-miterlimit:10;}
	.st42{fill:none;stroke:#411F19;stroke-width:8.000000e-02;stroke-linecap:round;stroke-miterlimit:10;}
	.st43{fill:#333300;stroke:#411F19;stroke-width:0.2;stroke-linejoin:round;}
	.st44{fill:#519372;stroke:#411F19;stroke-width:0.1;}
	.st45{fill:#FDFEFF;}
	.st46{fill:#FCF7F5;}
	.st47{fill:#C4D5F2;stroke:#411F19;stroke-width:0.1;stroke-linejoin:round;}
	.st48{fill:none;stroke:#7DC0A1;stroke-width:0.2;}
</style>
<g id="Layer_1">
	<g id="bg">
		<rect x="939.3" y="456.1" class="st0" width="120.3" height="8.9"/>
		<circle class="st1" cx="944.1" cy="462.8" r="0.9"/>
		<circle class="st2" cx="946.7" cy="462.8" r="0.9"/>
		<circle class="st3" cx="949.2" cy="462.8" r="0.9"/>
		<path class="st4" d="M884.5,429v141.2h231V429H884.5z M1058.5,537.2c0,1.1-0.9,2-2,2h-113c-1.1,0-2-0.9-2-2v-75c0-1.1,0.9-2,2-2
			h113c1.1,0,2,0.9,2,2V537.2z"/>
		<path class="st5" d="M943.5,460.2h113c1.1,0,2,0.9,2,2v75c0,1.1-0.9,2-2,2h-113c-1.1,0-2-0.9-2-2v-75
			C941.5,461.1,942.4,460.2,943.5,460.2z"/>
		<rect x="886.8" y="431.8" class="st6" width="226.4" height="4.3"/>
		<path class="st7" d="M1059.1,463.4h-0.6v74.1c0,1.1-0.9,2-2,2H944.1v0.8c0,1.1,0.9,2,2,2h113c1.1,0,2-0.9,2-2v-75
			C1061.1,464.2,1060.2,463.3,1059.1,463.4C1059.1,463.4,1059.1,463.4,1059.1,463.4z"/>
		<rect x="972" y="556.4" class="st6" width="55.9" height="11.3"/>
		<rect x="995" y="553.5" class="st7" width="11.7" height="11.7"/>
		<path class="st7" d="M1010.3,553.5h10.1c0.4,0,0.8,0.4,0.8,0.8v10.1c0,0.4-0.4,0.8-0.8,0.8h-10.1c-0.4,0-0.8-0.4-0.8-0.8v-10.1
			C1009.5,553.8,1009.9,553.5,1010.3,553.5z"/>
		<path class="st7" d="M981.2,553.5h10.1c0.4,0,0.8,0.4,0.8,0.8v10.1c0,0.4-0.4,0.8-0.8,0.8h-10.1c-0.4,0-0.8-0.4-0.8-0.8v-10.1
			C980.4,553.8,980.8,553.5,981.2,553.5z"/>
		<polygon class="st8" points="1099.1,458.2 1096.9,460.9 1096.9,468.1 1105.8,468.1 1105.8,458.2 		"/>
		<path class="st9" d="M2030.1-32.8H-44.2v858.2h2074.7L2030.1-32.8z M1116.7,570.2H885V430.6h231.7L1116.7,570.2z"/>
		<rect x="-43.7" y="580" class="st7" width="2074.5" height="475.4"/>
		<rect x="895.3" y="571.7" class="st10" width="210.1" height="9.2"/>
		<rect x="-44.2" y="581" class="st11" width="2074.5" height="475.4"/>
		<polygon class="st7" points="1193.3,527 1136.4,527 1136.4,458.3 1192,458.3 		"/>
		<g class="st12">
			<path class="st13" d="M1186.2,515.3L1186.2,515.3c0-3,2.5-5.5,5.5-5.5s5.5,2.5,5.5,5.5l0,0c0,3-2.5,5.5-5.5,5.5
				S1186.2,518.3,1186.2,515.3z M1194.8,515.3L1194.8,515.3c0.1-1.7-1.3-3.2-3-3.2c0,0-0.1,0-0.1,0c-1.7,0-3.1,1.4-3.1,3.1
				c0,0.1,0,0.1,0,0.2l0,0c-0.1,1.7,1.3,3.2,3,3.2c0,0,0.1,0,0.1,0c1.7,0,3.1-1.4,3.1-3.1C1194.8,515.4,1194.8,515.3,1194.8,515.3z"
				/>
			<path class="st13" d="M1199.2,510.1h2.4l2.7,4.4l2.7-4.4h2.4v10.3h-2.3v-6.7l-2.9,4.4h-0.1l-2.9-4.4v6.7h-2.2L1199.2,510.1z"/>
			<path class="st13" d="M1212,510.1h7.8v2h-5.5v2.1h4.9v2h-4.9v2.2h5.6v2h-7.8V510.1z"/>
		</g>
		<rect x="947.2" y="380.9" class="st13" width="105.6" height="30.8"/>
		<rect x="949.8" y="383.2" class="st7" width="100.5" height="30.8"/>
		<path class="st7" d="M854.9,521.1c0,0-32.4,1.8-47.4,1.8s-43.4-1.7-43.4-1.7v-29.4h90.8V521.1z"/>
		
			<rect x="1045.3" y="377.3" transform="matrix(0.4147 -0.91 0.91 0.4147 268.881 1176.9945)" class="st0" width="8.2" height="4.3"/>
		
			<rect x="945.1" y="376.9" transform="matrix(0.9778 -0.2094 0.2094 0.9778 -58.7965 206.8437)" class="st0" width="4.3" height="8.2"/>
		<path class="st14" d="M969.6,389.1h-2.1v-1.4h5.8v1.4h-2.1v5.6h-1.5V389.1z"/>
		<path class="st14" d="M974.4,387.7h1.6v2.8h2.8v-2.8h1.5v7h-1.6v-2.8H976v2.8h-1.5L974.4,387.7z"/>
		<path class="st14" d="M984.4,387.7h1.4l3,7h-1.6l-0.6-1.6h-3l-0.6,1.6h-1.6L984.4,387.7z M986,391.8l-0.9-2.3l-0.9,2.3H986z"/>
		<path class="st14" d="M1018.6,397.6h1.4l3,7h-1.6l-0.6-1.6h-3l-0.6,1.6h-1.6L1018.6,397.6z M1020.2,401.7l-0.9-2.3l-0.9,2.3
			H1020.2z"/>
		<path class="st14" d="M989.9,387.7h1.4l3.3,4.3v-4.3h1.5v7h-1.3l-3.4-4.5v4.5h-1.5V387.7z"/>
		<path class="st14" d="M997.8,387.7h1.5v3.1l2.8-3.1h1.9l-2.8,3l3,4h-1.8l-2.2-3l-0.8,0.8v2.1h-1.5L997.8,387.7z"/>
		<path class="st14" d="M1010.1,392l-2.7-4.2h1.8l1.7,2.8l1.7-2.8h1.8l-2.7,4.2v2.8h-1.5V392z"/>
		<path class="st14" d="M1024.5,401.9l-2.7-4.2h1.8l1.7,2.8l1.7-2.8h1.8l-2.7,4.2v2.8h-1.5V401.9z"/>
		<path class="st14" d="M1014.4,391.2L1014.4,391.2c0-2.1,1.7-3.7,3.7-3.7c2.1,0,3.7,1.7,3.7,3.7l0,0c0,2.1-1.7,3.7-3.7,3.7
			C1016,395,1014.4,393.3,1014.4,391.2z M1020.2,391.2L1020.2,391.2c0-1.2-0.9-2.2-2.1-2.2c0,0,0,0-0.1,0c-1.2,0-2.1,0.9-2.1,2.1
			c0,0,0,0.1,0,0.1l0,0c0,1.2,0.9,2.2,2.1,2.2c0,0,0,0,0.1,0c1.2,0,2.1-0.9,2.1-2.1C1020.2,391.3,1020.2,391.3,1020.2,391.2z"/>
		<path class="st14" d="M1023.1,391.7v-4h1.5v4c0,1.1,0.6,1.7,1.5,1.7s1.5-0.6,1.5-1.7v-4h1.5v4c0.2,1.5-0.9,3-2.4,3.2
			c-0.2,0-0.4,0-0.6,0c-1.5,0.2-2.9-1-3-2.5C1023,392.2,1023,391.9,1023.1,391.7z"/>
		<path class="st14" d="M1007.7,397.7h1.5v7h-1.5V397.7z"/>
		<path class="st14" d="M1012.6,399.1h-2.1v-1.4h5.8v1.4h-2.1v5.6h-1.5V399.1z"/>
		<rect x="758.9" y="408.4" class="st11" width="99.7" height="112.5"/>
		
			<rect x="755.6" y="408.5" transform="matrix(0.7767 -0.6299 0.6299 0.7767 -88.6361 571.2562)" class="st0" width="11.6" height="4.3"/>
		<rect x="853" y="402.3" transform="matrix(0.5 -0.866 0.866 0.5 72.7579 945.4399)" class="st0" width="4.3" height="14.9"/>
		
			<rect x="851.9" y="518.8" transform="matrix(0.7767 -0.6299 0.6299 0.7767 -136.5852 656.5987)" class="st0" width="11.6" height="4.3"/>
		<rect x="760.1" y="512.9" transform="matrix(0.5 -0.866 0.866 0.5 -68.6721 919.8651)" class="st0" width="4.3" height="13"/>
		<rect x="1134.7" y="456.3" class="st11" width="56.9" height="68.7"/>
		
			<rect x="1136.7" y="452.2" transform="matrix(0.9778 -0.2094 0.2094 0.9778 -70.3134 248.653)" class="st0" width="4.3" height="8.2"/>
		
			<rect x="1182.9" y="453.3" transform="matrix(8.176456e-02 -0.9967 0.9967 8.176456e-02 635.9581 1601.197)" class="st0" width="8.2" height="4.3"/>
		<path class="st13" d="M1139.3,484.4L1139.3,484.4c-0.1-2.9,2.3-5.3,5.1-5.3c0.1,0,0.1,0,0.2,0c1.5-0.1,3,0.5,4.1,1.6l-1.4,1.7
			c-0.7-0.7-1.6-1.1-2.6-1.2c-1.7,0-3,1.4-3,3.1c0,0,0,0.1,0,0.1l0,0c-0.1,1.7,1.2,3.1,2.9,3.2c0,0,0.1,0,0.1,0c1,0,2-0.5,2.7-1.2
			l1.4,1.5c-1.1,1.2-2.6,1.9-4.2,1.8c-2.9,0-5.2-2.2-5.3-5.1C1139.3,484.5,1139.3,484.4,1139.3,484.4z"/>
		<path class="st13" d="M1149.9,488l1.3-1.6c0.8,0.8,1.9,1.2,3.1,1.2c0.9,0,1.5-0.4,1.5-1l0,0c0-0.6-0.3-0.9-2.1-1.3
			c-2.1-0.5-3.4-1.1-3.4-3.1l0,0c0-1.9,1.5-3.1,3.6-3.1c1.4,0,2.7,0.4,3.8,1.3l-1.2,1.7c-0.8-0.6-1.7-0.9-2.7-1
			c-0.9,0-1.3,0.4-1.3,0.9l0,0c0,0.7,0.4,0.9,2.2,1.4c2.1,0.5,3.3,1.3,3.3,3.1l0,0c0,2-1.6,3.2-3.8,3.2
			C1152.7,489.6,1151.1,489.1,1149.9,488z"/>
		<path class="st13" d="M1159.2,488l1.3-1.6c0.8,0.8,1.9,1.2,3.1,1.2c0.9,0,1.5-0.4,1.5-1l0,0c0-0.6-0.4-0.9-2.1-1.3
			c-2.1-0.5-3.4-1.1-3.4-3.1l0,0c0-1.9,1.5-3.1,3.6-3.1c1.4,0,2.7,0.4,3.8,1.3l-1.2,1.7c-0.8-0.6-1.7-0.9-2.7-1
			c-0.9,0-1.3,0.4-1.3,0.9l0,0c0,0.7,0.4,0.9,2.2,1.4c2.1,0.5,3.3,1.3,3.3,3.1l0,0c0,2-1.6,3.2-3.8,3.2
			C1161.9,489.6,1160.4,489.1,1159.2,488z"/>
		<path class="st13" d="M1139.8,493.9h2.3v10.3h-2.3V493.9z"/>
		<path class="st13" d="M1144,502.7l1.3-1.6c0.8,0.8,1.9,1.2,3.1,1.2c0.9,0,1.5-0.4,1.5-1l0,0c0-0.6-0.4-0.9-2.1-1.3
			c-2.1-0.5-3.4-1.1-3.4-3.1l0,0c0-1.9,1.5-3.1,3.6-3.1c1.4,0,2.7,0.4,3.8,1.3l-1.2,1.7c-0.8-0.6-1.7-0.9-2.7-1
			c-0.9,0-1.3,0.4-1.3,0.9l0,0c0,0.7,0.4,0.9,2.2,1.4c2.1,0.5,3.3,1.3,3.3,3.1l0,0c0,2-1.6,3.2-3.8,3.2
			C1146.8,504.4,1145.2,503.8,1144,502.7z"/>
		<path class="st13" d="M1143.3,508.6h2.1l4.4,10.4h-2.4l-0.9-2.3h-4.4l-0.9,2.3h-2.3L1143.3,508.6z M1145.7,514.6l-1.4-3.3
			l-1.4,3.3H1145.7z"/>
		<path class="st13" d="M1149.2,508.6h2.4l2.1,7l2.3-7h1.9l2.3,7l2.1-7h2.4l-3.5,10.4h-2l-2.3-6.7l-2.3,6.7h-2L1149.2,508.6z"/>
		<path class="st13" d="M1166.6,508.6h7.8v2h-5.5v2.1h4.9v2h-4.9v2.2h5.6v2h-7.8V508.6z"/>
		<path class="st13" d="M1175.7,517.4l1.3-1.6c0.8,0.8,1.9,1.2,3.1,1.2c0.9,0,1.5-0.4,1.5-1l0,0c0-0.6-0.3-0.9-2.1-1.3
			c-2.1-0.5-3.4-1.1-3.4-3.1l0,0c0-1.9,1.5-3.1,3.6-3.1c1.4,0,2.7,0.4,3.8,1.3l-1.2,1.7c-0.8-0.6-1.7-0.9-2.7-1
			c-0.9,0-1.3,0.4-1.3,0.9l0,0c0,0.7,0.4,0.9,2.2,1.4c2.1,0.5,3.3,1.3,3.3,3.1l0,0c0,2-1.6,3.2-3.8,3.2
			C1178.5,519.1,1176.9,518.5,1175.7,517.4z"/>
		<path class="st13" d="M1191.6,516.9c-0.2,0.1-0.5,0.1-0.7,0.1c-1.7,0-3.1-1.4-3.1-3.1c0,0,0-0.1,0-0.1l0,0
			c-0.1-1.7,1.2-3.1,2.9-3.2c0.3,0,0.6,0,0.9,0.1v-2.1c-0.2,0-0.5-0.1-0.7-0.1c-2.9-0.1-5.4,2.2-5.5,5.2c0,0.1,0,0.1,0,0.2l0,0
			c0,2.9,2.3,5.3,5.3,5.3c0.1,0,0.1,0,0.2,0c0.3,0,0.5,0,0.8-0.1V516.9z"/>
		<polygon class="st15" points="974.4,584.3 970,599 1030.1,599 1025.6,584.3 		"/>
		<polygon class="st7" points="894.6,580.9 882.3,590.3 1117.7,590.3 1105.4,580.9 		"/>
		<polygon class="st16" points="1027.9,581 972.4,581 969.2,590.3 1031.2,590.3 		"/>
		<path class="st15" d="M1006.5,592.3c0,0-2,1.4-6.6,1.4s-6.5-1.4-6.5-1.4v-22.6h13L1006.5,592.3z"/>
		<path class="st7" d="M1006.5,575.6c-2.2,0.5-4.4,0.7-6.6,0.6c-2.2,0.1-4.3-0.1-6.5-0.6l0-6.6h13L1006.5,575.6z"/>
		<path class="st17" d="M1117.7,427.7H882.3v144h235.3V427.7z M1113.2,431.8v135.9H886.8V431.8H1113.2z"/>
		<rect x="970" y="599" class="st18" width="60.1" height="1.9"/>
		<path class="st8" d="M1105.4,445l-9.8,7.1c0,0.4,0.3,0.8,0.8,0.8l0,0h9c0.4,0,0.8-0.3,0.8-0.8v-6.4
			C1106.2,445.4,1105.9,445,1105.4,445z"/>
		<path class="st19" d="M1104.8,444.3h-5.1v-0.2c0-0.4-0.3-0.8-0.8-0.8l0,0h-3.2c-0.4,0-0.8,0.3-0.8,0.8c0,0,0,0,0,0v7.3
			c0,0.4,0.3,0.8,0.8,0.8l0,0h9c0.4,0,0.8-0.3,0.8-0.8c0,0,0,0,0,0v-6.4C1105.5,444.7,1105.2,444.3,1104.8,444.3z"/>
		<polygon class="st14" points="827.8,459.2 827.8,455.8 820.9,455.8 820.9,452.4 806.9,452.4 806.9,442.2 803.5,442.2 803.5,438.9 
			796.6,438.9 796.6,442.2 793.2,442.2 793.2,462.6 789.6,462.6 789.6,459.2 782.8,459.2 782.8,462.6 779.4,462.6 779.4,469.7 
			782.8,469.7 782.8,473.1 786.4,473.1 786.4,480.3 789.8,480.3 789.8,483.7 793.2,483.7 793.2,487 796.6,487 796.6,490.4 
			796.6,490.4 796.6,493.8 813.9,493.8 813.9,490.4 817.5,490.4 817.5,493.8 824.4,493.8 824.4,483.2 827.8,483.2 827.8,476.8 
			831.2,476.8 831.2,459.2 		"/>
		<polygon class="st9" points="800,459.2 800,438.9 807,438.9 807,452.4 831.2,452.4 831.2,473.4 827.8,473.4 827.8,479.9 
			824.4,479.9 824.4,487 803.3,487 803.3,483.7 800,483.7 800,480.3 796.6,480.3 796.6,476.9 793.2,476.9 793.2,469.7 789.8,469.7 
			789.8,466.3 786.2,466.3 786.2,459.2 		"/>
		<rect x="821" y="466.3" class="st9" width="3.4" height="13.5"/>
		<polygon class="st9" points="810.3,452.4 817.3,452.4 817.3,459.2 820.7,459.2 820.7,452.4 824.3,452.4 824.3,449 810.3,449 
			810.3,438.9 806.9,438.9 806.9,459.2 810.3,459.2 		"/>
		<rect x="831.2" y="455.8" class="st9" width="3.4" height="17.5"/>
		<polygon class="st9" points="824.4,487 820.8,487 820.8,490.4 827.8,490.4 827.8,479.9 824.4,479.9 		"/>
		<rect x="827.8" y="473.4" class="st9" width="3.4" height="6.5"/>
		<rect x="817.3" y="483.7" class="st9" width="3.6" height="3.4"/>
		<polygon class="st9" points="803.3,483.7 800,483.7 800,487 800,487 800,490.4 817.3,490.4 817.3,487 803.3,487 		"/>
		<rect x="796.6" y="480.3" class="st9" width="3.4" height="3.4"/>
		<rect x="793.2" y="476.9" class="st9" width="3.4" height="3.4"/>
		<rect x="789.8" y="469.7" class="st9" width="3.4" height="7.2"/>
		<rect x="782.8" y="459.2" class="st9" width="3.4" height="7.1"/>
		<polygon class="st9" points="827.7,459.2 827.7,455.8 831.2,455.8 831.2,452.4 824.3,452.4 824.3,459.2 		"/>
		<rect x="800" y="435.5" class="st9" width="6.9" height="3.4"/>
		<polygon class="st9" points="793,462.6 796.6,462.6 796.6,466.3 800,466.3 800,438.9 796.6,438.9 796.6,459.2 793,459.2 
			793,455.9 786.2,455.9 786.2,459.2 793,459.2 		"/>
		<rect x="786.2" y="466.3" class="st9" width="3.6" height="3.4"/>
		<rect x="807" y="466.3" class="st9" width="3.4" height="13.5"/>
		<rect x="813.9" y="466.3" class="st9" width="3.4" height="13.5"/>
		<rect x="821" y="466.3" class="st13" width="3.4" height="13.5"/>
		<polygon class="st13" points="810.3,452.4 817.3,452.4 817.3,459.2 820.7,459.2 820.7,452.4 824.3,452.4 824.3,449 810.3,449 
			810.3,438.9 806.9,438.9 806.9,459.2 810.3,459.2 		"/>
		<rect x="831.2" y="455.8" class="st13" width="3.4" height="17.5"/>
		<polygon class="st13" points="824.4,487 820.8,487 820.8,490.4 827.8,490.4 827.8,479.9 824.4,479.9 		"/>
		<rect x="827.8" y="473.4" class="st13" width="3.4" height="6.5"/>
		<rect x="817.3" y="483.7" class="st13" width="3.6" height="3.4"/>
		<polygon class="st13" points="803.3,483.7 800,483.7 800,487 800,487 800,490.4 817.3,490.4 817.3,487 803.3,487 		"/>
		<rect x="796.6" y="480.3" class="st13" width="3.4" height="3.4"/>
		<rect x="793.2" y="476.9" class="st13" width="3.4" height="3.4"/>
		<rect x="789.8" y="469.7" class="st13" width="3.4" height="7.2"/>
		<rect x="782.8" y="459.2" class="st13" width="3.4" height="7.1"/>
		<polygon class="st13" points="827.7,459.2 827.7,455.8 831.2,455.8 831.2,452.4 824.3,452.4 824.3,459.2 		"/>
		<rect x="800" y="435.5" class="st13" width="6.9" height="3.4"/>
		<polygon class="st13" points="793,462.6 796.6,462.6 796.6,466.3 800,466.3 800,438.9 796.6,438.9 796.6,459.2 793,459.2 
			793,455.9 786.2,455.9 786.2,459.2 793,459.2 		"/>
		<rect x="786.2" y="466.3" class="st13" width="3.6" height="3.4"/>
		<rect x="807" y="466.3" class="st13" width="3.4" height="13.5"/>
		<rect x="813.9" y="466.3" class="st13" width="3.4" height="13.5"/>
	</g>
	<g id="terminal">
		<path class="st7" d="M1059.6,510.9h48.1c0.9,0,1.7,0.8,1.7,1.7v49.6c0,0.9-0.8,1.7-1.7,1.7h-48.1c-0.9,0-1.7-0.8-1.7-1.7v-49.6
			C1057.9,511.7,1058.7,510.9,1059.6,510.9z"/>
		<path class="st20" d="M1057.3,509.1h48.1c0.9,0,1.7,0.8,1.7,1.7v49.6c0,0.9-0.8,1.7-1.7,1.7h-48.1c-0.9,0-1.7-0.8-1.7-1.7v-49.6
			C1055.6,509.8,1056.3,509.1,1057.3,509.1z"/>
		<path class="st0" d="M1107,513.7v-2.9c0-0.9-0.8-1.7-1.7-1.7h-48.1c-0.9,0-1.7,0.8-1.7,1.7v2.9H1107z"/>
		<circle class="st1" cx="1058.5" cy="511.4" r="0.9"/>
		<circle class="st2" cx="1061.1" cy="511.4" r="0.9"/>
		<circle class="st3" cx="1063.6" cy="511.4" r="0.9"/>
		<polygon class="st14" points="1081.1,518.6 1068.4,518.6 1068.4,516.4 1081.1,516.4 1082.6,517.5 		"/>
		<polygon class="st4" points="1070.3,518.6 1057.6,518.6 1057.6,516.4 1070.3,516.4 1071.8,517.5 		"/>
		<rect id="cursor" x="1057.6" y="519.9" class="st21" width="1.4" height="2.6"/>
	</g>
	<g id="terminal-icon">
		<path class="st20" d="M1009.5,552.6h10.1c0.4,0,0.8,0.4,0.8,0.8v10.1c0,0.4-0.4,0.8-0.8,0.8h-10.1c-0.4,0-0.8-0.4-0.8-0.8v-10.1
			C1008.7,552.9,1009.1,552.6,1009.5,552.6z"/>
		<path class="st21" d="M1011.5,556.2c0-0.1,0-0.2-0.1-0.3c-0.1-0.1-0.3-0.2-0.4-0.2l-0.3-0.1c-0.1,0-0.2-0.1-0.2-0.2
			c-0.1-0.1-0.1-0.1-0.2-0.2c0-0.1-0.1-0.2,0-0.3c0-0.1,0-0.2,0-0.3c0-0.1,0.1-0.2,0.1-0.2c0.1-0.1,0.1-0.1,0.2-0.2
			c0.1,0,0.2-0.1,0.3-0.1v-0.4h0.3v0.4c0.2,0,0.4,0.1,0.5,0.3c0.1,0.2,0.2,0.4,0.2,0.6h-0.3c0-0.1,0-0.2,0-0.2
			c0-0.1-0.1-0.1-0.1-0.2c0-0.1-0.1-0.1-0.2-0.1c-0.1,0-0.1-0.1-0.2,0c-0.1,0-0.2,0-0.3,0.1c-0.1,0.1-0.1,0.2-0.1,0.3
			c0,0.1,0,0.1,0,0.2c0,0,0.1,0.1,0.1,0.1c0.1,0,0.1,0.1,0.2,0.1c0.1,0,0.2,0.1,0.2,0.1l0.3,0.1c0.1,0,0.2,0.1,0.2,0.2
			c0.1,0.1,0.1,0.1,0.2,0.2c0,0.1,0,0.2,0,0.3c0,0.1,0,0.2,0,0.3c0,0.1-0.1,0.2-0.1,0.2c-0.1,0.1-0.1,0.1-0.2,0.2
			c-0.1,0-0.2,0.1-0.3,0.1v0.4h-0.3v-0.3c-0.1,0-0.2,0-0.3-0.1c-0.2-0.1-0.3-0.2-0.4-0.4c0-0.1-0.1-0.2-0.1-0.4h0.3
			c0,0.1,0,0.2,0,0.3c0,0.1,0.1,0.1,0.1,0.2c0.1,0,0.1,0.1,0.2,0.1c0.1,0,0.1,0,0.2,0c0.1,0,0.1,0,0.2,0c0.1,0,0.1,0,0.2-0.1
			c0,0,0.1-0.1,0.1-0.1C1011.5,556.3,1011.5,556.2,1011.5,556.2z"/>
		<rect x="1012.5" y="553.7" class="st22" width="1.8" height="3.5"/>
	</g>
	<g id="player">
		<path class="st7" d="M896.5,443.7h39.8c0.9,0,1.7,0.8,1.7,1.7v14.9c0,0.9-0.8,1.7-1.7,1.7h-39.8c-0.9,0-1.7-0.8-1.7-1.7v-14.9
			C894.8,444.4,895.6,443.7,896.5,443.7z"/>
		<path class="st20" d="M894.2,441.8h39.8c0.9,0,1.7,0.8,1.7,1.7v14.9c0,0.9-0.8,1.7-1.7,1.7h-39.8c-0.9,0-1.7-0.8-1.7-1.7v-14.9
			C892.6,442.5,893.3,441.8,894.2,441.8z"/>
		<line class="st23" x1="932.7" y1="443.2" x2="934.3" y2="444.8"/>
		<line class="st23" x1="934.3" y1="443.2" x2="932.7" y2="444.8"/>
		<rect x="895.6" y="444.7" class="st21" width="11.8" height="11.8"/>
		<rect x="909.8" y="454.4" class="st9" width="23.7" height="0.5"/>
		<rect x="909.8" y="454.4" class="st21" width="13.6" height="0.5"/>
		<polygon class="st9" points="926.7,447.6 926.7,449.3 927.8,448.4 		"/>
		<rect x="927.7" y="447.7" class="st9" width="0.2" height="1.5"/>
		<polygon class="st9" points="917,447.6 917,449.3 915.9,448.4 		"/>
		<rect x="915.7" y="447.7" class="st9" width="0.2" height="1.5"/>
		<circle class="st9" cx="921.8" cy="448.4" r="2.5"/>
		<polygon class="st13" points="921.4,447.3 921.4,449.5 922.8,448.4 		"/>
		<circle class="st24" cx="900.2" cy="446.8" r="0.2"/>
		<path class="st25" d="M900.9,446.6l0.3,0.3c0.1,0.1,0.1,0.4,0,0.5l-0.3,0.3c-0.1,0.1-0.4,0.1-0.5,0l-0.3-0.3
			c-0.1-0.1-0.1-0.4,0-0.5l0.3-0.3C900.5,446.5,900.8,446.5,900.9,446.6z"/>
		<circle class="st24" cx="901" cy="447.4" r="0.2"/>
		<path class="st26" d="M899.3,447.1c0,0,0.3-0.6,0-0.6S898.9,447,899.3,447.1z"/>
		<path class="st27" d="M903.4,452c0-0.7-0.1-4.2-0.1-4.2l-4.3,0.4c0,0,0.1,2.1,0,2.6c-0.1,0.9,0,1.9,0.3,2.8
			c0.3,0.5,3.1,0.4,3.3,0.4s0.2-0.1,0.2-0.2s0.5,0,0.6-0.3C903.3,453,903.4,452.5,903.4,452z"/>
		<path class="st28" d="M900.7,447.6c-0.1-0.1-0.2-0.2-0.4-0.1c0,0,0,0-0.1,0c-0.1-0.2-0.4-0.2-0.5-0.1c0,0,0,0,0,0
			c0,0-0.4-0.1-0.4,0.2c0,0-0.6-0.2-0.5,0.4c0,0-0.1,0.9,0.6,0.3c0,0,0.4,0.4,0.4,0c0,0,0.2,0.2,0.3-0.1c0,0,0.5,0.5,0.6-0.1
			c0,0,0.4,0.3,0.5-0.2S900.7,447.6,900.7,447.6z"/>
		<circle class="st29" cx="900.5" cy="449.9" r="1"/>
		<circle class="st29" cx="903.3" cy="449.9" r="1"/>
		<circle class="st13" cx="900.3" cy="449.7" r="0.3"/>
		<circle class="st13" cx="903.3" cy="449.7" r="0.3"/>
		<path class="st30" d="M902.3,446.5c0,0-0.5-0.7-0.9-0.5s-0.3,1-0.2,1.2c-0.2,0.2-0.2,0.6-0.1,0.8c0.3,0.4,0.8,0,0.8,0
			s0.4,0.5,0.8,0.3c0,0,1.1,0.6,0.8-0.4c0,0,0.7,0.1,0.6-0.5s-1-0.6-1-0.6s0.3-0.3,0-0.4S902.3,446.5,902.3,446.5z"/>
		<path class="st31" d="M899.5,451.1c-0.7,0-1.3,0.7-1.2,1.4c0,0,0,0,0,0.1"/>
		<path class="st31" d="M898.6,452.9c0,0-0.1-0.4-0.3-0.2c-0.2-0.1-0.4,0-0.5,0.2c0,0,0,0,0,0"/>
		<path class="st31" d="M898.2,453.2c0-0.2,0-0.4,0.1-0.5c-0.3,0-0.4,0.5-0.4,0.5"/>
		<path class="st31" d="M904.6,452.4c-0.2-0.6-0.6-1-1.2-1.1"/>
		<path class="st31" d="M905.1,452.5c0,0-0.2-0.3-0.5-0.1c-0.1,0-0.3,0.1-0.3,0.2c0,0,0,0,0,0.1"/>
		<path class="st31" d="M904.6,452.4c0.1,0.1,0.2,0.3,0.2,0.4"/>
		<path class="st31" d="M904.6,452.4c0,0,0.2,0,0.3,0.3"/>
		<path class="st13" d="M902,451c0.3,0,0.6-0.3,0.7-0.2c0.2,0.4-0.1,0.9-0.5,1.1c0,0,0,0-0.1,0c-0.8,0.3-1.1-1.1-0.8-1.1
			S901.7,451,902,451z"/>
		<path class="st31" d="M900.1,453.4c0.3,0,0.5,0.1,0.8,0c0.6,0,2,0,2,0"/>
		<line class="st31" x1="902.7" y1="453.8" x2="902.7" y2="453.4"/>
		<path class="st31" d="M902.1,454c0,0.4,0,0.7,0,1.1"/>
		<path class="st31" d="M900.2,453.9c0,0.4,0,0.8,0.2,1.1"/>
		<path class="st13" d="M900.4,455c-0.2,0-0.4,0.1-0.6,0.2c-0.1,0.1,0,0.2,0,0.2s0.6,0,0.7-0.1C900.5,455.2,900.5,455.1,900.4,455
			C900.4,455,900.4,455,900.4,455z"/>
		<path class="st13" d="M902.1,455.1c0,0,0.4-0.1,0.6,0s-0.1,0.2-0.2,0.2S901.7,455.4,902.1,455.1z"/>
		<circle class="st32" cx="900.2" cy="449.6" r="0.1"/>
		<circle class="st32" cx="903.2" cy="449.6" r="0.1"/>
		<path class="st32" d="M902.5,451v0.2C902.5,451.2,902.6,451.2,902.5,451L902.5,451z"/>
		<path class="st32" d="M902.4,451c0,0,0.1,0.2,0,0.2h-0.3V451L902.4,451z"/>
		<polygon class="st32" points="901.9,451.1 901.7,451.1 901.7,451.3 902,451.3 		"/>
		<path class="st32" d="M901.5,451l-0.2-0.1c0,0,0,0.2,0,0.2c0.1,0,0.1,0.1,0.2,0.1L901.5,451z"/>
		<path class="st33" d="M900.8,448c0,0,0.3,0.7,0.4,0.6s0.2-0.4,0.2-0.3s0,0.6,0.2,0.6s0-0.8,0.2-0.9S900.8,448,900.8,448z"/>
		<circle class="st26" cx="899.9" cy="447.4" r="0.2"/>
		<path class="st34" d="M902.7,448.3c0,0-0.2-0.1-0.2-0.2"/>
	</g>
	<g id="player-icon">
		<path class="st3" d="M980.4,552.6h10.1c0.4,0,0.8,0.4,0.8,0.8v10.1c0,0.4-0.4,0.8-0.8,0.8h-10.1c-0.4,0-0.8-0.4-0.8-0.8v-10.1
			C979.6,552.9,980,552.6,980.4,552.6z"/>
		<path class="st13" d="M987.5,558.2c-0.2-0.8-0.6-1.6-1.1-2.2c-0.3-0.5-0.4-1-0.5-1.5l0,0h-0.1l0,0v5.5c-0.5-0.3-1.1-0.3-1.5,0
			c-0.6,0.4-1,1-0.7,1.5c0.4,0.5,1.1,0.5,1.6,0.1c0.5-0.2,0.8-0.7,0.8-1.2v-4c0.6,0.4,1,1,1.2,1.7c0.2,0.6,0.1,1.3-0.2,1.9
			c-0.1,0.2,0,0.4,0.2,0.3C987.5,559.7,987.6,558.9,987.5,558.2z"/>
	</g>
	<g id="pic-window">
		<rect x="897.8" y="510.5" class="st7" width="49.9" height="49.9"/>
		<rect x="895.4" y="508.1" class="st0" width="49.9" height="49.9"/>
		<rect x="897.4" y="510.1" class="st35" width="46" height="46"/>
		<path class="st36" d="M927.7,547.9L927.7,547.9z"/>
		<path class="st37" d="M923.9,542.8c-0.1-0.2-0.1-0.4-0.2-0.7c-0.2-0.3-0.4-0.6-0.6-0.9c-0.2-0.3-0.4-0.6-0.5-1
			c-0.2-0.8-0.3-1.6-0.2-2.4c0-0.2,0-0.4,0-0.6c0,0,0.2-1.6-0.4-1.8c-0.3-0.1-0.6-0.1-0.9-0.1c-0.9,0-1.8,0.2-2.7,0.7
			c-0.3,0.1-0.5,0.3-0.7,0.6h0.1l0.6,0.1l0,0c0.2,0.8,0.4,1.6,0.5,2.5c0,0.4,0,0.8,0,1.3c0,0.4-0.1,0.8-0.2,1.3
			c-0.2,0.8-0.3,1.7-0.2,2.6c0.1,0.8,0.3,1.5,0.7,2.1c0.1,0.2,0.2,0.3,0.4,0.5c0,0,0,0.1,0,0.1c0.3,0.5,0.9,0.7,1.5,0.8
			c0.7-0.1,1.3-0.4,1.7-0.9c0.5-0.6,0.9-1.3,1.1-2C924,544.2,924.1,543.5,923.9,542.8C924,542.8,923.9,542.8,923.9,542.8z"/>
		<path class="st38" d="M924,542.9C924,542.8,923.9,542.8,924,542.9c-0.1-0.3-0.2-0.5-0.3-0.7c-0.2-0.3-0.4-0.6-0.6-0.9
			c-0.2-0.3-0.4-0.6-0.5-1c-0.2-0.8-0.3-1.6-0.2-2.4c0-0.2,0-0.4,0-0.6c0,0,0.2-1.6-0.4-1.8c-0.3-0.1-0.6-0.1-0.9-0.1
			c-0.9,0-1.8,0.2-2.7,0.7c-0.3,0.1-0.5,0.3-0.7,0.6h0.1l0.6,0.1l0,0c0.1,0.5,0.2,0.9,0.3,1.4c0.3-0.1,0.5-0.1,0.8-0.2
			c0.3-0.1,0.6-0.1,0.8,0c0.2,0.1,0.3,0.2,0.5,0.3c0.1,0.2,0.6,2.1,0.8,2.9c0.1,0.5,0.2,0.9,0.3,1.4c0.1,0.4,0.1,0.9,0,1.3
			c-0.1,0.3-0.2,0.7-0.5,0.9c-0.3,0.4-0.8,0.5-1.3,0.5c-0.7-0.1-1.4-0.6-1.8-1.2c0,0.1,0,0.2,0,0.2c0.1,0.8,0.3,1.5,0.7,2.1
			c0.1,0.2,0.2,0.3,0.4,0.5c0,0,0,0.1,0,0.1c0.3,0.5,0.9,0.7,1.5,0.8c0.7-0.1,1.3-0.4,1.7-0.9c0.5-0.6,0.9-1.3,1.1-2
			C924,544.2,924.1,543.5,924,542.9z"/>
		<path class="st39" d="M933.2,544.2c-0.8-0.7-6-1.7-6-1.7c0.3-0.5-0.4-1.1-0.6-1.5s-0.7-0.1-0.7-0.1s-0.2-1.1-0.8-1.1
			c-0.8,0-1.5,0-2.3,0.1c0.1,0.6,0.4,1.2,0.8,1.6l-1,1.6l-1.8,1.5l-1.7-1.3l-0.4-1.2c0.2-0.7,0.3-1.4,0.3-2.1
			c-0.5-0.1-1-0.2-1.5-0.2c-0.4,0.1-0.7,0.3-1,0.4c0,0-1-0.1-1.3,0.4s-0.9,1.2-0.9,1.6c-1.8,0.3-3.6,0.8-5.4,1.4
			c-1,0.7-2.9,12.3-2.9,12.3h30.5C936.3,556,934,545,933.2,544.2z"/>
		<path class="st40" d="M919,543.4l-0.4-1.2c0.2-0.7,0.3-1.4,0.3-2.1c-2.4-0.3-3,1.4-1.4,3.1c0.5,0.8,3.2,1.8,3.8,2.1L919,543.4z"/>
		<path class="st40" d="M921,544.6c2.5-0.6,6.6-4.7,1.6-4.6c0.1,0.6,0.4,1.2,0.8,1.6c-0.6,1.2-1.5,2.3-2.6,3.1L921,544.6z"/>
		<path class="st37" d="M912,528.2c-0.2-0.6-0.5-1.4-0.5-1.4s-1.3,2.9,0.7,3.9C912.2,529.8,912,529,912,528.2z"/>
		<path class="st37" d="M922.3,519.8c0,0-5.8,3.1-6.6,3.4c-3.7,1.2-2.5,7.8-2.3,7.7l0.1,0.1c0.1,0.7,0.2,1.4,0.4,2.2
			c0.1,0.5,0.2,1,0.4,1.5c0.1,0.2,0.1,0.5,0.2,0.7c0.1,0.2,0.1,0.4,0.2,0.6c0.1,0.2,0.3,0.3,0.5,0.3c0.2,0.1,0.5,0.1,0.8,0.1
			l1.6,0.2l0.6,0.1l4.1,0.4c0.5,0,1-0.1,1.6-0.1s1-0.1,1.5-0.2c0.2,0,0.4-0.1,0.6-0.2c0.2-0.1,0.3-0.3,0.3-0.6c0.3-1,0.6-2,0.9-3
			c0.2-0.6,0.3-1.2,0.5-1.8c0.1-0.1,0.2-0.1,0.2-0.1c0.3-0.1,0.4,0.1,0.7-0.1s0.4-1,0.4-1.4s0.2-4.9,0.3-5.3
			C927,522.7,924.7,521.2,922.3,519.8z"/>
		<path class="st38" d="M928.1,523.5c0.4,1.3-0.6,8.2-0.5,7.9c0.1-0.1,0.2-0.1,0.2-0.1c0.3-0.1,0.4,0.1,0.7-0.1s0.4-1,0.4-1.4
			s0.2-4.9,0.3-5.3C928.9,524.1,928.5,523.8,928.1,523.5z"/>
		<path class="st41" d="M922.4,519.8c-0.4,1.9-0.5,3.7-0.5,5.6c0,2,0.3,4,0.8,6c-0.9-0.3-1.8-0.5-2.8-0.4"/>
		<path class="st42" d="M916.8,532.2c0.1,0.4,0.3,0.8,0.6,1c1.7,1.3,4,1.3,5.7,0"/>
		<path class="st36" d="M928.5,532.1"/>
		<path class="st43" d="M931.3,526.6c0,1.2-0.1,2.4-0.3,3.7c-0.1,0.4-2.6,1.8-2.5,1.8c0.7-2.1,0.5-4.5-0.5-6.5c-0.9-1-1.9-2-3.1-2.8
			c-1.2-0.7-2.1-1.8-2.5-3.1c-0.9,1.2-2.2,2.1-3.7,2.5c-4.3,1-5.7,5.6-5.1,9.2c0,0.1-1.3-0.1-1.4-0.3c-0.4-1.2-1.5-1.9-1.7-3.3
			c-0.1-0.2-0.1-0.5,0.1-0.7c0.1-0.2,0.3-0.2,0.5-0.3c0.5-0.1,1-0.1,1.4,0.2c-1.3-2.7-2.3-5.6-3-8.5c0.5,0.1,0.9,0.3,1.4,0.4
			c0.2-0.4,0.1-0.9,0.1-1.4c0-0.5,0.2-1.1,0.7-1.1c0.3,0,0.6,0.3,0.9,0.2c0.4-0.1,0.5-0.7,0.8-1c0.5-0.4,1.2,0,1.7-0.2
			c0.4-0.2,0.5-0.7,0.9-0.9c0.5-0.3,1.1-0.2,1.6-0.2c1.1-0.1,2.1-0.8,3.2-0.6c0.5,0.1,0.9,0.4,1.4,0.5c0.5,0.2,1.1,0.1,1.4-0.2
			c0.2-0.3,0.3-0.8,0.6-1c0.2-0.1,0.4,0,0.6,0c1.9,0.6,3.4,2.5,3.7,4.5c0.1-0.4,0.5-0.5,0.9-0.4c0.4,0.1,0.6,0.4,0.9,0.7
			c0.5,0.7,0.9,1.4,1.2,2.2c0.1,0.4,0,0.9-0.3,0.9c0.9,0.1,0.1,9.5,0.2,10.4c0.1,0,0.3,0,0.4,0.1c-0.1-0.2-0.3-0.3-0.5-0.3
			c-0.7-0.1-1.5,0-2.2,0.2"/>
		<polygon class="st44" points="912.2,552.5 912.2,556 911.2,556 		"/>
		<polygon class="st44" points="930.2,552.4 930.2,556 931.1,556 		"/>
		<polygon points="923.8,531.5 923.8,530.2 923.1,530.2 923.1,529 922.3,529 922.3,527.7 920.6,527.7 920.6,529 919.9,529 
			919.9,530.2 919.1,530.2 919.1,531.5 913.9,531.5 913.9,530.2 913.2,530.2 913.2,529 912.5,529 912.5,527.7 911.7,527.7 
			911.7,526.4 909.6,526.4 909.6,527.7 907.1,527.7 907.1,526.3 908.7,526.3 908.7,525 930.5,525 930.5,527.7 929.8,527.7 
			929.8,529 929.2,529 929.2,530.2 928.5,530.2 928.5,531.5 		"/>
		<path class="st45" d="M930.5,525.1v2.5h-0.8v1.3h-0.6v1.3h-0.6v1.3h-4.5v-1.3h-0.7v-1.3h-0.8v-1.3h-1.9v1.3h-0.7v1.3H919v1.3h-5
			v-1.3h-0.7v-1.3h-0.7v-1.3h-0.8v-1.3h-2.3v1.3h-2.3v-1.3h1.6v-1.3L930.5,525.1 M930.6,524.9h-22v1.3H907v1.6h2.7v-1.3h2v1.3h0.8
			v1.3h0.7v1.3h0.7v1.3h5.3v-1.3h0.8v-1.3h0.7v-1.3h1.5v1.3h0.8v1.3h0.7v1.3h4.9v-1.3h0.6v-1.3h0.6v-1.3h0.8L930.6,524.9
			L930.6,524.9z"/>
		<rect x="913.3" y="526.4" class="st46" width="0.7" height="1.3"/>
		<rect x="914.9" y="526.4" class="st46" width="0.7" height="1.3"/>
		<rect x="914" y="527.6" class="st46" width="0.7" height="1.3"/>
		<rect x="915.5" y="527.6" class="st46" width="0.7" height="1.3"/>
		<rect x="914.6" y="528.9" class="st46" width="0.7" height="1.3"/>
		<rect x="916.2" y="528.9" class="st46" width="0.7" height="1.3"/>
		<rect x="923.3" y="526.4" class="st46" width="0.7" height="1.3"/>
		<rect x="924.9" y="526.4" class="st46" width="0.7" height="1.3"/>
		<rect x="924" y="527.6" class="st46" width="0.7" height="1.3"/>
		<rect x="925.5" y="527.6" class="st46" width="0.7" height="1.3"/>
		<rect x="924.6" y="528.9" class="st46" width="0.7" height="1.3"/>
		<rect x="926.2" y="528.9" class="st46" width="0.7" height="1.3"/>
	</g>
	<g id="pic-icon">
		<rect x="994.2" y="552.6" class="st0" width="11.7" height="11.7"/>
		<rect x="995.1" y="553.5" class="st47" width="9.8" height="8.2"/>
		<polygon class="st39" points="996.4,561.6 1000.1,556.8 1001.3,558.5 1003.2,556.3 1004.9,557.9 1004.9,561.6 		"/>
	</g>
	<g id="doc-window">
		<path class="st7" d="M1066.7,471.5h42.9c0.9,0,1.7,0.8,1.7,1.7v32.1c0,0.9-0.8,1.7-1.7,1.7h-42.9c-0.9,0-1.7-0.8-1.7-1.7v-32.1
			C1065,472.2,1065.7,471.5,1066.7,471.5z"/>
		<path class="st11" d="M1064.3,469.7h42.9c0.9,0,1.7,0.8,1.7,1.7v32.1c0,0.9-0.8,1.7-1.7,1.7h-42.9c-0.9,0-1.7-0.8-1.7-1.7v-32.1
			C1062.6,470.4,1063.4,469.7,1064.3,469.7z"/>
		<path class="st0" d="M1108.9,474.3v-2.9c0-0.9-0.8-1.7-1.7-1.7h-42.9c-0.9,0-1.7,0.8-1.7,1.7v2.9H1108.9z"/>
		<circle class="st1" cx="1065.6" cy="472" r="0.9"/>
		<circle class="st2" cx="1068.1" cy="472" r="0.9"/>
		<circle class="st3" cx="1070.7" cy="472" r="0.9"/>
		<line class="st48" x1="1098.7" y1="485.2" x2="1098.7" y2="489.2"/>
		<path d="M1065,476.6h0.5l0.6,2l0.7-2h0.4l0.7,2l0.6-2h0.5l-0.9,2.7h-0.4l-0.7-1.9l-0.7,1.9h-0.4L1065,476.6z"/>
		<path d="M1069.4,476.5h0.4v1.1c0.1-0.2,0.4-0.4,0.6-0.4c0.4,0,0.7,0.3,0.7,0.7c0,0,0,0.1,0,0.1v1.3h-0.5v-1.1
			c0-0.3-0.2-0.5-0.4-0.5c-0.2,0-0.5,0.2-0.5,0.4c0,0,0,0,0,0.1v1.1h-0.4V476.5z"/>
		<path d="M1071.6,478.3L1071.6,478.3c0-0.6,0.5-1.1,1-1.1c0,0,0,0,0,0c0.6,0,1,0.4,1.1,0.9c0,0,0,0,0,0.1l0,0c0,0.6-0.5,1.1-1,1.1
			c0,0,0,0,0,0C1072.1,479.3,1071.7,478.9,1071.6,478.3C1071.6,478.4,1071.6,478.3,1071.6,478.3z M1073.3,478.3L1073.3,478.3
			c0-0.3-0.2-0.6-0.6-0.6c0,0,0,0,0,0c-0.3,0-0.6,0.3-0.6,0.6c0,0,0,0,0,0l0,0c0,0.3,0.3,0.6,0.6,0.6c0,0,0,0,0,0
			C1073,479,1073.3,478.7,1073.3,478.3C1073.3,478.3,1073.3,478.3,1073.3,478.3z"/>
		<path d="M1075.4,476.5h0.5v1.6l0.8-0.9h0.6l-0.8,0.8l0.8,1.2h-0.5l-0.6-0.9l-0.3,0.3v0.6h-0.5L1075.4,476.5z"/>
		<path d="M1077.6,477.3h0.5v0.3c0.1-0.2,0.4-0.4,0.6-0.4c0.4,0,0.7,0.3,0.7,0.7c0,0,0,0.1,0,0.1v1.3h-0.5v-1.1
			c0-0.3-0.2-0.5-0.4-0.5c-0.2,0-0.5,0.2-0.5,0.4c0,0,0,0,0,0.1v1.1h-0.5V477.3z"/>
		<path d="M1079.8,478.3L1079.8,478.3c0-0.6,0.5-1.1,1.1-1.1c0.6,0,1.1,0.5,1.1,1.1l0,0l0,0c0,0.6-0.5,1.1-1.1,1.1c0,0,0,0,0,0
			c-0.6,0-1-0.4-1.1-0.9C1079.8,478.4,1079.8,478.3,1079.8,478.3z M1081.5,478.3L1081.5,478.3c0-0.3-0.3-0.6-0.6-0.6c0,0,0,0,0,0
			c-0.3,0-0.6,0.3-0.6,0.6c0,0,0,0,0,0l0,0c0,0.3,0.2,0.6,0.6,0.6c0,0,0,0,0,0C1081.2,479,1081.5,478.7,1081.5,478.3
			C1081.5,478.3,1081.5,478.3,1081.5,478.3z"/>
		<path d="M1082.2,477.3h0.5l0.4,1.4l0.4-1.4h0.4l0.4,1.4l0.4-1.4h0.5l-0.7,2h-0.4l-0.4-1.4l-0.4,1.4h-0.4L1082.2,477.3z"/>
		<path d="M1085.4,479l0.2-0.3c0.2,0.1,0.4,0.2,0.7,0.2c0.2,0,0.3-0.1,0.3-0.2l0,0c0-0.1-0.2-0.2-0.4-0.3s-0.6-0.2-0.6-0.6l0,0
			c0-0.3,0.3-0.6,0.6-0.6c0,0,0,0,0.1,0c0.3,0,0.5,0.1,0.7,0.2l-0.2,0.3c-0.2-0.1-0.4-0.2-0.6-0.2c-0.2,0-0.3,0.1-0.3,0.2l0,0
			c0,0.1,0.2,0.2,0.4,0.3s0.6,0.2,0.6,0.6l0,0c0,0.4-0.3,0.6-0.8,0.6C1085.9,479.3,1085.6,479.2,1085.4,479z"/>
		<path d="M1088.4,477.3h0.5l0.4,1.4l0.4-1.4h0.4l0.4,1.4l0.4-1.4h0.5l-0.7,2h-0.4l-0.4-1.3l-0.4,1.4h-0.4L1088.4,477.3z"/>
		<path d="M1091.9,476.5h0.4v1.1c0.1-0.2,0.4-0.4,0.6-0.4c0.4,0,0.7,0.3,0.7,0.7c0,0,0,0.1,0,0.1v1.3h-0.5v-1.1
			c0-0.3-0.2-0.5-0.4-0.5c-0.2,0-0.5,0.2-0.5,0.4c0,0,0,0,0,0.1v1.1h-0.4V476.5z"/>
		<path d="M1094.1,478.3L1094.1,478.3c0-0.6,0.4-1,0.9-1c0,0,0,0,0.1,0c0.6,0,1,0.4,1,1c0,0,0,0.1,0,0.1v0.1h-1.5
			c0,0.3,0.3,0.5,0.6,0.5c0.2,0,0.4-0.1,0.5-0.2l0.3,0.2c-0.3,0.5-0.9,0.6-1.4,0.4C1094.3,479.1,1094.1,478.7,1094.1,478.3
			L1094.1,478.3z M1095.6,478.2c0-0.3-0.2-0.5-0.5-0.5c0,0,0,0,0,0c-0.3,0-0.5,0.2-0.5,0.5H1095.6z"/>
		<path d="M1096.5,477.3h0.5v0.5c0.1-0.3,0.4-0.5,0.7-0.5v0.5l0,0c-0.4,0-0.7,0.3-0.7,0.8v0.8h-0.5L1096.5,477.3z"/>
		<path d="M1097.9,478.3L1097.9,478.3c0-0.6,0.4-1,0.9-1c0,0,0,0,0.1,0c0.6,0,1,0.4,1,1c0,0,0,0.1,0,0.1c0,0,0,0.1,0,0.1h-1.5
			c0,0.3,0.3,0.5,0.6,0.5c0.2,0,0.4-0.1,0.6-0.2l0.3,0.2c-0.3,0.5-0.9,0.6-1.4,0.4C1098.1,479.1,1097.9,478.7,1097.9,478.3
			L1097.9,478.3z M1099.4,478.2c0-0.3-0.2-0.5-0.5-0.5c0,0,0,0,0,0c-0.3,0-0.5,0.2-0.5,0.5H1099.4z"/>
		<path d="M1065.3,483.3v-1.1h-0.3v-0.4h0.3v-0.6h0.5v0.6h0.5v0.4h-0.5v1c0,0.2,0.1,0.3,0.2,0.3c0.1,0,0.2,0,0.3-0.1v0.4
			c-0.1,0.1-0.3,0.1-0.4,0.1c-0.3,0-0.5-0.2-0.6-0.5C1065.3,483.4,1065.3,483.4,1065.3,483.3z"/>
		<path d="M1066.7,481.1h0.5v1.1c0.1-0.2,0.4-0.4,0.6-0.4c0.4,0,0.7,0.3,0.7,0.7c0,0,0,0.1,0,0.1v1.3h-0.5v-1.1
			c0-0.3-0.2-0.5-0.4-0.5c-0.2,0-0.5,0.2-0.5,0.4c0,0,0,0,0,0.1v1.1h-0.5V481.1z"/>
		<path d="M1069,482.9L1069,482.9c0-0.6,0.4-1,0.9-1.1c0,0,0.1,0,0.1,0c0.6,0,1,0.4,1.1,0.9c0,0,0,0,0,0.1l0,0c0,0.6-0.4,1-0.9,1.1
			c0,0-0.1,0-0.1,0C1069.5,483.9,1069,483.5,1069,482.9C1069,482.9,1069,482.9,1069,482.9z M1070.7,482.9L1070.7,482.9
			c0-0.3-0.3-0.6-0.6-0.6c0,0,0,0,0,0c-0.3,0-0.6,0.3-0.6,0.6c0,0,0,0,0,0l0,0c0,0.3,0.2,0.6,0.6,0.6c0,0,0,0,0,0
			C1070.4,483.5,1070.7,483.2,1070.7,482.9C1070.7,482.9,1070.7,482.9,1070.7,482.9L1070.7,482.9z"/>
		<path d="M1071.6,483.1v-1.3h0.5v1.1c0,0.3,0.2,0.5,0.4,0.5c0.2,0,0.5-0.2,0.5-0.4c0,0,0,0,0-0.1v-1.1h0.5v2h-0.5v-0.3
			c-0.1,0.2-0.4,0.4-0.6,0.4c-0.4,0-0.7-0.3-0.7-0.7C1071.6,483.2,1071.6,483.2,1071.6,483.1z"/>
		<path d="M1074,484.2l0.2-0.4c0.2,0.1,0.5,0.2,0.7,0.2c0.3,0,0.6-0.2,0.6-0.5c0,0,0-0.1,0-0.1v-0.2c-0.2,0.2-0.4,0.4-0.7,0.4
			c-0.5,0-0.9-0.4-0.9-0.9c0,0,0,0,0-0.1l0,0c0-0.5,0.4-0.9,0.8-0.9c0,0,0,0,0.1,0c0.3,0,0.5,0.1,0.7,0.4v-0.3h0.5v1.6
			c0,0.3-0.1,0.5-0.2,0.8c-0.2,0.2-0.5,0.3-0.8,0.3C1074.6,484.5,1074.3,484.4,1074,484.2z M1075.5,482.8L1075.5,482.8
			c0-0.3-0.3-0.6-0.6-0.6c0,0,0,0,0,0c-0.3,0-0.6,0.2-0.6,0.5c0,0,0,0,0,0l0,0c0,0.3,0.2,0.6,0.5,0.6c0,0,0,0,0,0
			C1075.2,483.3,1075.5,483.1,1075.5,482.8L1075.5,482.8z"/>
		<path d="M1076.5,481.1h0.5v1.1c0.1-0.2,0.4-0.4,0.6-0.4c0.4,0,0.7,0.3,0.7,0.7c0,0,0,0.1,0,0.1v1.3h-0.5v-1.1
			c0-0.3-0.2-0.5-0.4-0.5c-0.2,0-0.5,0.2-0.5,0.4c0,0,0,0,0,0.1v1.1h-0.5V481.1z"/>
		<path d="M1079,483.3v-1.1h-0.3v-0.4h0.3v-0.6h0.5v0.6h0.5v0.4h-0.5v1c0,0.2,0.1,0.3,0.2,0.3c0.1,0,0.2,0,0.3-0.1v0.4
			c-0.1,0.1-0.3,0.1-0.4,0.1c-0.3,0-0.5-0.2-0.6-0.4C1079,483.4,1079,483.4,1079,483.3z"/>
		<path d="M1080.2,483.6l0.2-0.3c0.2,0.1,0.4,0.2,0.7,0.2c0.2,0,0.3-0.1,0.3-0.2l0,0c0-0.1-0.2-0.2-0.4-0.3s-0.6-0.2-0.6-0.6l0,0
			c0-0.3,0.3-0.6,0.6-0.6c0,0,0,0,0.1,0c0.3,0,0.5,0.1,0.7,0.2l-0.2,0.3c-0.2-0.1-0.4-0.2-0.6-0.2c-0.2,0-0.3,0.1-0.3,0.2l0,0
			c0,0.1,0.2,0.2,0.4,0.3s0.6,0.2,0.6,0.6l0,0c0,0.4-0.3,0.6-0.7,0.6C1080.8,483.9,1080.5,483.8,1080.2,483.6z"/>
		<path d="M1083.3,482.9L1083.3,482.9c0-0.6,0.4-1,0.9-1c0,0,0,0,0.1,0c0.3,0,0.6,0.1,0.8,0.4l-0.3,0.3c-0.1-0.2-0.3-0.2-0.5-0.2
			c-0.3,0-0.6,0.3-0.6,0.6c0,0,0,0,0,0l0,0c0,0.3,0.2,0.6,0.6,0.6c0,0,0,0,0,0c0.2,0,0.4-0.1,0.5-0.2l0.3,0.3
			c-0.4,0.4-1,0.5-1.5,0.1C1083.4,483.5,1083.3,483.2,1083.3,482.9L1083.3,482.9z"/>
		<path d="M1085.4,482.9L1085.4,482.9c0-0.6,0.5-1.1,1-1.1c0,0,0,0,0,0c0.6,0,1,0.4,1.1,0.9c0,0,0,0,0,0.1l0,0
			c0,0.6-0.5,1.1-1.1,1.1C1085.9,483.9,1085.4,483.4,1085.4,482.9L1085.4,482.9z M1087.1,482.9L1087.1,482.9c0-0.3-0.2-0.6-0.6-0.6
			c0,0,0,0,0,0c-0.3,0-0.6,0.3-0.6,0.6c0,0,0,0,0,0l0,0c0,0.3,0.3,0.6,0.6,0.6c0,0,0,0,0,0C1086.9,483.5,1087.1,483.3,1087.1,482.9
			C1087.1,482.9,1087.1,482.9,1087.1,482.9z"/>
		<path d="M1088.1,481.9h0.5v0.3c0.1-0.2,0.4-0.3,0.6-0.4c0.3,0,0.5,0.1,0.6,0.4c0.1-0.2,0.4-0.4,0.7-0.4c0.4,0,0.7,0.3,0.7,0.6
			c0,0,0,0.1,0,0.1v1.3h-0.5v-1.1c0-0.3-0.2-0.5-0.4-0.5s-0.4,0.2-0.4,0.5v1.1h-0.5v-1.1c0-0.3-0.2-0.5-0.4-0.5s-0.4,0.2-0.4,0.5
			v1.1h-0.5L1088.1,481.9z"/>
		<path d="M1091.6,482.9L1091.6,482.9c0-0.6,0.4-1,0.9-1c0,0,0,0,0.1,0c0.6,0,1,0.4,1,1c0,0,0,0.1,0,0.1c0,0,0,0.1,0,0.1h-1.6
			c0,0.3,0.3,0.5,0.6,0.5c0.2,0,0.4-0.1,0.5-0.2l0.3,0.2c-0.3,0.5-0.9,0.6-1.4,0.4C1091.7,483.7,1091.5,483.3,1091.6,482.9
			L1091.6,482.9z M1093.1,482.7c0-0.3-0.2-0.5-0.5-0.5c0,0,0,0,0,0c-0.3,0-0.5,0.2-0.5,0.5H1093.1z"/>
		<path d="M1095.2,482.2h-0.2v-0.4h0.3v-0.1c0-0.2,0-0.4,0.2-0.5c0.1-0.1,0.3-0.2,0.4-0.2c0.1,0,0.3,0,0.4,0v0.4c-0.1,0-0.2,0-0.3,0
			c-0.2,0-0.3,0.1-0.3,0.3v0.1h0.5v0.4h-0.5v1.6h-0.5L1095.2,482.2z"/>
		<path d="M1096.5,481.9h0.5v0.5c0.1-0.3,0.4-0.5,0.7-0.5v0.5l0,0c-0.4,0-0.7,0.3-0.7,0.8v0.8h-0.5L1096.5,481.9z"/>
		<path d="M1097.9,482.9L1097.9,482.9c0-0.6,0.5-1.1,1.1-1.1c0,0,0,0,0,0c0.6,0,1,0.4,1.1,0.9c0,0,0,0,0,0.1l0,0
			c0,0.6-0.5,1.1-1.1,1.1C1098.4,483.9,1097.9,483.4,1097.9,482.9L1097.9,482.9z M1099.6,482.9L1099.6,482.9c0-0.3-0.2-0.6-0.6-0.6
			c0,0,0,0,0,0c-0.3,0-0.6,0.3-0.6,0.6c0,0,0,0,0,0l0,0c0,0.3,0.3,0.6,0.6,0.6c0,0,0,0,0,0C1099.3,483.5,1099.6,483.2,1099.6,482.9
			C1099.6,482.9,1099.6,482.9,1099.6,482.9L1099.6,482.9z"/>
		<path d="M1100.5,481.9h0.5v0.3c0.1-0.2,0.4-0.3,0.6-0.4c0.3,0,0.5,0.1,0.6,0.4c0.2-0.2,0.4-0.4,0.7-0.4c0.4,0,0.7,0.3,0.7,0.6
			c0,0,0,0.1,0,0.1v1.3h-0.5v-1.1c0-0.3-0.2-0.5-0.4-0.5s-0.4,0.2-0.4,0.5v1.1h-0.5v-1.1c0-0.3-0.2-0.5-0.4-0.5
			c-0.2,0-0.4,0.2-0.4,0.4c0,0,0,0,0,0.1v1.1h-0.5L1100.5,481.9z"/>
		<path d="M1104.4,482.4L1104.4,482.4c0.5,0,0.7-0.2,0.7-0.4l0,0c0-0.2-0.2-0.4-0.4-0.4c-0.2,0-0.5,0.1-0.6,0.3l-0.3-0.3
			c0.2-0.3,0.6-0.4,0.9-0.4c0.4-0.1,0.8,0.2,0.9,0.7c0,0,0,0.1,0,0.1l0,0c0,0.5-0.3,0.7-0.8,0.8v0.3h-0.3L1104.4,482.4z
			 M1104.4,483.3h0.5v0.5h-0.5V483.3z"/>
		<path d="M1065.9,486.2h-0.8v-0.4h2.2v0.4h-0.8v2.2h-0.5L1065.9,486.2z"/>
		<path d="M1067.6,485.6h0.5v1.1c0.1-0.2,0.4-0.4,0.6-0.4c0.4,0,0.7,0.3,0.7,0.7c0,0,0,0.1,0,0.1v1.3h-0.4v-1.1
			c0-0.3-0.2-0.5-0.4-0.5c-0.2,0-0.5,0.2-0.5,0.4c0,0,0,0,0,0.1v1.1h-0.5L1067.6,485.6z"/>
		<path d="M1069.8,487.4L1069.8,487.4c0-0.6,0.4-1,0.9-1c0,0,0,0,0.1,0c0.6,0,1,0.4,1,1c0,0,0,0.1,0,0.1v0.1h-1.5
			c0,0.3,0.3,0.5,0.6,0.5c0.2,0,0.4-0.1,0.5-0.2l0.3,0.2c-0.3,0.5-0.9,0.6-1.4,0.4C1070,488.2,1069.8,487.8,1069.8,487.4
			L1069.8,487.4z M1071.3,487.3c0-0.3-0.2-0.5-0.5-0.5c0,0,0,0,0,0c-0.3,0-0.5,0.2-0.5,0.5H1071.3z"/>
		<path d="M1072.1,488.9l0.2-0.3c0.1,0,0.2,0.1,0.3,0.1c0.1,0,0.2,0,0.3-0.2l-0.8-2h0.5l0.6,1.5l0.5-1.5h0.5l-0.8,2.1
			c-0.2,0.4-0.3,0.6-0.7,0.6C1072.4,489,1072.2,489,1072.1,488.9z"/>
		<path d="M1075.2,489v-0.4h0.1c0.1,0,0.2-0.1,0.2-0.2v-2h0.5v2c0,0.3-0.2,0.5-0.4,0.6c0,0-0.1,0-0.1,0L1075.2,489z M1075.6,485.6
			h0.5v0.4h-0.5V485.6z"/>
		<path d="M1076.6,487.7v-1.3h0.5v1.1c0,0.3,0.2,0.5,0.4,0.5c0.2,0,0.5-0.2,0.5-0.4c0,0,0,0,0-0.1v-1.1h0.5v2h-0.4v-0.3
			c-0.1,0.2-0.4,0.4-0.6,0.4c-0.4,0-0.7-0.2-0.8-0.6C1076.6,487.8,1076.6,487.7,1076.6,487.7z"/>
		<path d="M1078.8,488.2l0.2-0.3c0.2,0.1,0.4,0.2,0.7,0.2c0.2,0,0.3-0.1,0.3-0.2l0,0c0-0.1-0.2-0.2-0.4-0.3s-0.6-0.2-0.6-0.6l0,0
			c0-0.3,0.3-0.6,0.6-0.6c0,0,0,0,0.1,0c0.3,0,0.5,0.1,0.7,0.2l-0.2,0.3c-0.2-0.1-0.4-0.2-0.6-0.2c-0.2,0-0.3,0.1-0.3,0.2l0,0
			c0,0.1,0.2,0.2,0.4,0.3s0.6,0.2,0.6,0.6l0,0c0,0.4-0.3,0.6-0.7,0.6C1079.4,488.5,1079.1,488.4,1078.8,488.2z"/>
		<path d="M1081,487.9v-1.1h-0.3v-0.4h0.3v-0.6h0.5v0.6h0.5v0.4h-0.5v1c0,0.2,0.1,0.3,0.2,0.3c0.1,0,0.2,0,0.3-0.1v0.4
			c-0.1,0.1-0.3,0.1-0.4,0.1c-0.3,0-0.5-0.2-0.6-0.4C1081,488,1081,487.9,1081,487.9z"/>
		<path d="M1084.8,488.4v-0.2c-0.2,0.2-0.4,0.3-0.7,0.3c-0.4,0-0.7-0.2-0.7-0.6c0,0,0,0,0-0.1l0,0c0-0.5,0.3-0.7,0.8-0.7
			c0.2,0,0.4,0,0.6,0.1l0,0c0-0.3-0.2-0.4-0.5-0.4c-0.2,0-0.4,0-0.6,0.1l-0.1-0.4c0.2-0.1,0.5-0.2,0.8-0.2c0.4-0.1,0.8,0.2,0.9,0.6
			c0,0.1,0,0.1,0,0.2v1.2L1084.8,488.4z M1084.8,487.6c-0.1-0.1-0.3-0.1-0.5-0.1c-0.3,0-0.5,0.1-0.5,0.3l0,0c0,0.2,0.2,0.3,0.4,0.3
			s0.5-0.2,0.5-0.4L1084.8,487.6z"/>
		<path d="M1085.8,486.4h0.5v0.3c0.1-0.2,0.4-0.4,0.7-0.4c0.5,0,1,0.5,0.9,1l0,0c0,0.5-0.4,1-0.9,1c-0.3,0-0.5-0.1-0.7-0.4v0.9h-0.5
			V486.4z M1087.4,487.4L1087.4,487.4c0-0.3-0.3-0.6-0.6-0.6c-0.3,0-0.6,0.3-0.6,0.6l0,0c0,0.3,0.2,0.6,0.6,0.6c0,0,0,0,0,0
			C1087.2,488.1,1087.4,487.8,1087.4,487.4C1087.4,487.5,1087.4,487.4,1087.4,487.4z"/>
		<path d="M1088.3,486.4h0.5v0.3c0.1-0.2,0.4-0.4,0.7-0.4c0.5,0,1,0.5,0.9,1l0,0c0,0.5-0.4,1-0.9,1c-0.3,0-0.5-0.1-0.7-0.4v0.9h-0.5
			V486.4z M1089.9,487.4L1089.9,487.4c0-0.3-0.2-0.6-0.5-0.6c0,0,0,0,0,0c-0.3,0-0.6,0.3-0.6,0.6c0,0,0,0,0,0l0,0
			c0,0.3,0.2,0.6,0.6,0.6c0,0,0,0,0,0c0.3,0,0.6-0.2,0.6-0.5C1090,487.5,1090,487.5,1089.9,487.4L1089.9,487.4z"/>
		<path d="M1090.8,487.4L1090.8,487.4c0-0.6,0.4-1,0.9-1c0,0,0,0,0.1,0c0.6,0,1,0.4,1,1c0,0,0,0.1,0,0.1v0.1h-1.5
			c0,0.3,0.3,0.5,0.6,0.5c0.2,0,0.4-0.1,0.5-0.2l0.3,0.2c-0.3,0.5-0.9,0.6-1.4,0.4C1091,488.2,1090.8,487.8,1090.8,487.4
			L1090.8,487.4z M1092.3,487.3c0-0.3-0.2-0.5-0.5-0.5c0,0,0,0,0,0c-0.3,0-0.5,0.2-0.5,0.5H1092.3z"/>
		<path d="M1094.4,488.4v-0.2c-0.2,0.2-0.4,0.3-0.7,0.3c-0.3,0-0.7-0.2-0.7-0.5c0,0,0,0,0-0.1l0,0c0-0.5,0.3-0.7,0.8-0.7
			c0.2,0,0.4,0,0.6,0.1l0,0c0-0.3-0.2-0.4-0.5-0.4c-0.2,0-0.4,0-0.6,0.1l-0.1-0.4c0.2-0.1,0.5-0.2,0.8-0.2c0.4-0.1,0.8,0.2,0.9,0.6
			c0,0.1,0,0.1,0,0.2v1.2L1094.4,488.4z M1094.4,487.6c-0.1-0.1-0.3-0.1-0.5-0.1c-0.3,0-0.5,0.1-0.5,0.3l0,0c0,0.2,0.2,0.3,0.4,0.3
			s0.5-0.2,0.5-0.4L1094.4,487.6z"/>
		<path d="M1095.4,486.4h0.5v0.5c0.1-0.3,0.4-0.5,0.7-0.5v0.5l0,0c-0.4,0-0.7,0.3-0.7,0.8v0.8h-0.5L1095.4,486.4z"/>
		<path d="M1096.6,487.9h0.5v0.5h-0.5V487.9z"/>
	</g>
	<g id="doc-icon">
		<polygon class="st0" points="1104.8,467.2 1095.9,467.2 1095.9,460 1098.1,457.4 1104.8,457.4 		"/>
		<polyline class="st5" points="1098.1,457.4 1098.1,460.1 1095.9,460.1 		"/>
	</g>
	<script>var docIcon = document.querySelector(&apos;#doc-icon&apos;);
docIcon.onclick = function() {
  var docWindow = document.querySelector(&apos;#doc-window&apos;);
  docWindow.classList.toggle(&apos;active&apos;);
}
var picIcon = document.querySelector(&apos;#pic-icon&apos;);
picIcon.onclick = function() {
  var picWindow = document.querySelector(&apos;#pic-window&apos;);
  picWindow.classList.toggle(&apos;active&apos;);
}
var terminalIcon = document.querySelector(&apos;#terminal-icon&apos;);
terminalIcon.onclick = function() {
  var terminalWindow = document.querySelector(&apos;#terminal&apos;);
  terminalWindow.classList.toggle(&apos;inactive&apos;);
}
var playerIcon = document.querySelector(&apos;#player-icon&apos;);
playerIcon.onclick = function() {
  var playerWindow = document.querySelector(&apos;#player&apos;);
  playerWindow.classList.toggle(&apos;inactive&apos;);
}
var playerBtn = document.querySelector(&apos;#player&apos;);
playerBtn.onclick = function() {
  window.open(&quot;https://www.youtube.com/watch?v=LiL_lSkAddk&quot;, &quot;_blank&quot;);
}
		</script>
</g>
<g id="Layer_2">
	<path class="st13" d="M1719.7,255.8c10-6.2,19.3-14.4,20.9-26.7c1.3-10-3.2-19.3-9.5-26.8c0.3-12.7-2.3-24.8-10.7-34.1
		c-12.2-13.6-31.5-12.2-47.9-9.8c-4.7,0.7-9.4,1.6-14.1,2.5c-2.2-0.8-4.4-1.7-6.6-2.5c-28.2-10.3-57.4-17.7-87.1-22
		c-33.7-4.9-67.8-6-101.7-3.1c-2,0.2-3.4,1.3-4.1,2.7c0-3.6-3.5-7.1-7.3-4.6l-20,13.3c-18.9-8.8-37.7-17.9-56.8-26.4
		c-72.7-32.3-149.2-61-229.7-62.3c-35.3-0.6-71.1,3.8-104.6,15c-34.1,11.4-62.8,29.8-89.8,53.2c-12.8,11.1-25.5,19.3-40.9,22.9
		c-32.5-13.1-66.4-22.7-101.1-28.4c-41.1-6.8-96.3-14.9-129,17.8c-1,1-1.9,2-2.8,3c-74.4,4.6-149.1,17.7-219.6,41.3
		c-61.8,20.7-124.2,52.5-164.4,105.5c-7.6,10-14,20.5-19.4,31.6c-14.9,2.8-29.5,6.8-43.5,12.6c-28.5,11.7-54.5,30.8-68,59.2
		c-16.1,33.8-12.8,72.8-4.1,108.1c9.3,37.7,24.3,77.3,55.6,102.1c5,4,12.1-3.1,7.1-7.1c-26.7-21.2-40.5-53.2-49.7-85.2
		c-9.6-33.4-15.7-70.6-3.8-104.2c15.5-43.9,57.7-64.7,101.4-74.2c-6.9,16.9-11.5,34.8-13.6,53.3c-4.6,40.3,1.9,81.3,12.6,120.1
		c16.9,61.4,47.9,126.9,104.1,161.4c13,8,27.2,13.8,42,17.4c6.3,1.5,8.9-8.1,2.7-9.6c-63.9-15.6-103.9-74.4-126.3-132.5
		c-25.4-65.8-40.1-145.9-9.8-212.3c12.5-2.2,24.9-3.5,36.7-4.3c45.9-3,92-0.3,137.2,8.1c3.9,0.7,8.3-3.4,5.6-7.3
		c-11.4-16.7-24.2-34.6-26.2-55.4c-2-20.2,6.6-37.2,25.1-45.8c9.4-4.3,19.8-6.8,29.7-9.4c11-2.8,22.1-5.3,33.3-7.5
		c22.7-4.4,45.6-7.2,68.7-8.6c25.9-1.6,52-1.2,77.9,0.9c3.2,0.3,5.8-3.4,4.8-6.3c-5-14.8-0.4-30.1,8.8-42c35.1-2,70.2-2,105.3,0
		c21.1,1.2,42.1,3.2,63,5.9c18.9,2.4,38,5.6,57.1,2.9c0.7-0.1,1.5-0.2,2.2-0.4c11.7,4.8,23.1,10.1,34.4,15.8
		c5.3,2.7,9.5-3.5,6.1-7.9c-3.7-4.7-2.7-11.3,0-16.2c3.5-6.4,10.1-9.7,17-11.1c13.3-2.7,28.1,0.2,41.2,3.1c24.4,5.4,47.6,15,69.9,26
		c45.1,22.3,87.3,50.8,135,67.6c25.9,9.2,53.3,14.1,80.8,11.9c2.5-0.2,5.3-2.1,5-5c-0.4-4,0.3-7.5,2.1-10.7
		c5.6,3.6,13.6,2.1,20.1-1.1c7.2-3.5,13.7-8.8,20.4-13.2c7.8-5.2,15.7-10.4,23.5-15.6c22.7-15.1,45.5-30.3,68.2-45.4
		c34.3,15.9,69.5,33.4,107.5,36.7c38.6,3.3,75.1-11.3,112-20.1c1.8-0.4,3.5-0.8,5.3-1.2c14.9,5.8,29.6,12.4,43.6,20.1
		c6.8,3.7,13.6,8.3,19.1,13.9c-0.2,3.3-0.7,6.5-1.1,9.4c-1.9,11.7-4.9,23.3-8.2,34.8c-22.8,13.7-51,20-77,20.3
		c-5.7,0.1-6.8,8.2-1.3,9.8c26.2,7.8,43.9,27.8,55.3,51.5c0,0.1-0.1,0.3-0.1,0.4c-12.2,41.6-25.2,82.9-39.2,124
		c-6.7,19.6-13.5,39.2-20.5,58.7c-1.4,4,2.8,6.6,6.2,6.2c25.7-3.6,50.4,16.1,54.5,41.2c1,6.3,10.7,3.6,9.6-2.7
		c-4.6-28.2-30.6-48.4-58.3-48.7c19.5-54.4,37.4-109.2,53.9-164.6c5.2,14.3,8.5,29.3,10.3,43.5c3.7,29.4,3.5,59,7.3,88.4
		c1.9,14.5,5.7,28.4,8.5,42.7c1.2,6.3,2.1,13.1,0.6,19.5c-1.7,7.3-6.4,12.8-12,17.5c-12.1,10.3-26,18.9-39.3,27.5
		c-14.3,9.2-28.9,17.9-43.8,26c-2.5,1.4-3,4.5-1.8,6.8c7,14.3,17.6,26.3,30.7,35.3c5.3,3.6,10.3-5,5-8.6
		c-10.3-7.1-18.7-16.3-24.8-27.2c26.3-14.6,52.2-30.7,76.2-49c11.1-8.5,19.4-18.4,20.3-32.9c1-14.9-4.9-29.7-7.6-44.1
		c-9.9-53.5-2.2-110.4-25.2-160.7c6.7-23.1,13.2-46.3,19.5-69.6C1718.7,259.1,1719.2,257.5,1719.7,255.8z M1724.3,239.8
		c1.9-6.9,3.8-14.1,5.1-21.4C1732.2,226.3,1729.9,233.8,1724.3,239.8z M661.6,187.2c-48.1-3.4-96.6-0.4-143.9,8.8
		c-12.4,2.4-24.6,5.2-36.8,8.5c-10.3,2.8-20.7,5.6-30.1,10.5c-17.8,9.2-27.4,26.5-27.7,46.4c-0.3,21.4,10,40.3,21.5,57.7
		c-38.5-6.3-77.6-8.8-116.7-7c-14.1,0.6-28.3,1.8-42.3,3.9c30.8-56.4,88.8-92.3,147-115.4c72.5-28.8,151.8-43.7,229.4-49.9
		c2.4-0.2,4.8-0.4,7.2-0.5C662.5,161.3,659.3,174.4,661.6,187.2z M833.6,143.2c-43.7-4.8-87.8-6.4-131.8-4.8
		c-3.2,0.1-6.3,0.2-9.5,0.4c14.5-11.2,33.7-15.1,51.8-15.6c43.1-1.4,87.9,8.3,128.7,21.2c4.7,1.5,9.3,3.1,14,4.7
		C869,148.6,851.3,145.2,833.6,143.2z M924.4,153.3c5.9-2.4,11.4-5.4,16.7-8.9c-2.6,4.6-3.9,9.9-3.5,15
		C933.2,157.3,928.9,155.3,924.4,153.3z M1337.3,207.5c-2.7,1.8-29,22-31.8,14.7c-1.4-3.5-5.4-4.9-8.4-2.2c-5,4.6-8,10.6-8.5,17.2
		c-53.2,2.6-101.7-22.1-147.2-47.1c-47.4-26-95.6-54.9-150.2-61.7c-10-1.2-21.4-1.8-31.4,1.3c12-10.2,23.9-20.1,37.5-28.2
		c30.3-18,64.7-28.5,99.6-32.9c75.4-9.5,149.8,8.9,219.7,36.2c35.8,14,70.7,30.2,105.6,46.2l-47.6,31.7
		C1362.2,190.9,1349.8,199.2,1337.3,207.5z M1613.7,172.5c-19.7,5.4-39.7,10.3-60.2,10.5c-21.6,0.2-42.6-5.3-62.7-12.9
		c-16.4-6.2-32.6-13.2-48.6-20.5c4.8-3.2,9.6-6.4,14.4-9.6c0.7-0.5,1.2-1,1.6-1.7c-0.2,2.6,1.4,5.2,4.8,4.9
		c54.7-4.7,109.9,1,162.4,16.9c5.1,1.5,10.2,3.2,15.3,4.9C1631.7,167.4,1622.7,170,1613.7,172.5z M1693.2,176
		c-5.8-2.8-11.6-5.5-17.5-8c1.9-0.3,3.9-0.5,5.8-0.7c9.9-1,21.2-1.3,29.3,5.5c5.7,4.8,8.4,11.7,9.4,19.1
		C1711.9,185.4,1702.6,180.6,1693.2,176z M1692.2,317.5c-9.3-15.9-21.9-29.8-37.6-39.1c18.4-2.4,36.3-7.8,53-15.9
		c-0.6,2.2-1.2,4.4-1.8,6.6C1701.3,285.2,1696.8,301.3,1692.2,317.5z"/>
	<path class="st13" d="M1460.1,630.2c-8.1-8.5-18.1-14.9-27.8-21.4c-11.5-7.8-23.1-15.5-34.6-23.3c-23.1-15.5-46.1-31.1-69.2-46.6
		c-10.9-7.3-21.9-14.5-32.7-22.1c-8.8-6.2-17.7-13-23.9-21.9c-6.3-9.2-9-19.7-4.7-30.3c3.4-8.3,11.1-16.3,20.7-14.4
		c2.9,0.6,5.1-0.8,6.2-3.5c25.7-65.1,59.2-126.9,99.6-184.1c1.4-1.9,0.6-4.4-0.8-6.1c-5-6-13-7.3-20.3-5.6
		c-8.6,2-14.8,8.3-20.5,14.7c-6.3,7-12.7,13-21.8,16.1c-8.5,2.9-17.7,3.4-26.6,2.4c-20.4-2.4-38.8-13.5-56.4-23.3
		c-18.1-10.1-36.7-19.2-55.8-27.3c-38.5-16.4-78.7-28.7-119.8-36.5c-34.7-6.6-71.8-12.7-107-6.4c-14.1,2.6-28.2,7.5-39.6,16.5
		c-5.5,4.3-10.2,9.5-13.8,15.5c-4.4,7.5-5.4,16.3-9.5,23.8c-4.3,8-13.5,10.3-21.9,11.3c-9.4,1.1-18.9,1.4-28.4,2.3
		c-19.4,1.8-38.8,4.3-58.1,7.5c-77.6,13.2-153.9,39.7-219.3,84.1c-31.4,21.4-61.1,46.7-82.5,78.3c-21.8,32.2-33.7,71.6-27.8,110.5
		c1.4,9.4,4,18.6,7.7,27.3c2.4,5.9,12.1,3.3,9.6-2.7c-15.1-36.1-9.7-77.5,8-111.7c17.4-33.6,45.3-60.6,75.4-82.9
		c61.7-45.8,134.6-74.1,209.6-89.4c19.1-3.9,38.4-7,57.7-9.2c9.3-1.1,18.7-2,28-2.8c8.8-0.7,17.6-0.9,26.3-2.4
		c7.7-1.4,15.5-4.4,20.7-10.4c5.9-6.9,6.8-15.8,10.3-23.8c5.6-12.7,16.9-21.5,29.5-26.6c30.3-12.2,65-8.1,96.4-3.6
		c40.1,5.7,79.6,15.7,117.6,29.7c19.3,7.1,38.2,15.2,56.7,24.4c18.3,9.1,35.7,20.3,54.4,28.5c16.5,7.3,34.1,11.5,52.2,8.6
		c8.3-1.4,16.5-4.5,23.3-9.5c7.1-5.2,11.9-12.5,18.5-18.3c4.3-3.9,11.4-7.2,16.8-4.6c-38.9,55.7-71.3,115.8-96.5,179
		c-16.8-0.4-29,15.5-30.8,31.7c-2.5,22,15.5,39.2,31.7,51c22.5,16.4,46.3,31.4,69.4,47c23.9,16.1,47.8,32.2,71.6,48.2
		c11.1,7.5,23.2,15,30.7,26.4c5.3,7.9,8.1,18.9,4.9,28c-3.7-7.4-6-15.3-6.7-23.6c-0.5-6.4-10.5-6.4-10,0c1.1,13,5.1,25.2,12.3,36.1
		c1.6,2.4,5.7,3.7,7.9,1C1481.3,668.5,1474.2,645,1460.1,630.2z"/>
</g>
</svg>
