<svg xmlns="http://www.w3.org/2000/svg" width="4000" height="2000" viewBox="0 0 4000 2000"><defs><linearGradient id="a" x1="792.65" y1="347.51" x2="792.65" y2="1044.69" gradientUnits="userSpaceOnUse"><stop offset="0" stop-color="#43aaab" stop-opacity=".7"/><stop offset="1" stop-color="#43aaab"/></linearGradient></defs><path d="M1053 1044.69l3.77-646.44s-118.21-50.74-260.83-50.74-256.41 35.37-256.41 35.37l-10.9 658.73" opacity=".67" fill="url(#a)"/><path d="M1032.07 426.44c0-19.64-118.14-53.7-239.42-53.7s-233.4 20.64-233.4 40.26l-10.55 639.43 481.33 4 1.8-628.47a5 5 0 0 0 .24-1.52zm-212.87 27.1zm-3.73 0h-3zm-4.89 0h-3.81zm-5.93 0z" fill="#64d5a1" opacity=".51"/><path d="M1056.72 1048s-230-101.67-532.36-6.4c0 .01 274.58 249.29 532.36 6.4z" fill="#2a5f4e" stroke="#000" stroke-linejoin="round" stroke-width="3.73"/><path d="M1024.6 1060.84s-224.71-70.84-457.43-2.59" fill="none" stroke="#000" stroke-miterlimit="10" stroke-width="1.87"/><path d="M1033.4 1058.53l-1.4-631.71v-.38c0-19.64-118.14-53.7-239.42-53.7S559.4 393.35 559.26 413h-.21l-10.56 639.41 4.93.08L563.86 420c22.53 17.34 124.51 33.67 231.53 33.67 106.51 0 208.46-5.83 231.73-20.55l1.35 625.45z" fill="#fff" opacity=".65"/><path d="M1053 1049l3.77-650.79s-118.21-50.74-260.83-50.74-256.41 35.37-256.41 35.37l-10.9 658.73" fill="none" stroke="#fff" stroke-miterlimit="10" stroke-width="5" opacity=".77"/><path d="M927.86 491c-68.42-43.29-175.5 7.41-175.53 7.41s-58.31-1-81.48 51.81c-17.62 40.18-16.7 59.16-15.45 65.91-42.18 11.64-18.35 52.74-15.46 56.81-2.71 1.8-14.94 8.89-6.81 22.89a62.88 62.88 0 0 0 6.6 18.31c-3.17 2.14-12.58 6.55-3.35 19.27-4.23 7.59-24.69 46.41-36.38 106.75-15.11 77.62 66 128.22 69.54 130.45 21.36 14.24 27.24 42.15 26.75 42.22 12.46 11.11 29 12.6 85.24 16.28 61.81 4 92.43-8 97.51-12 1.17-.92 1-44.27 1-44.27 0-11.52 18.69-55.18 32.07-82.77 10.08-20.78 10.52-34.46 10.53-37.58a63.12 63.12 0 0 0 13.42-6.6c20-13.17 31.6-56.73 31.92-73.34.2-10.21 1-27.11-7.66-38 6.08-12.32 35.96-200.3-32.46-243.55z" fill="#b6c798"/><path d="M733 788.11c-18.45 6.5-33.21 18-53 21.39-11.75 2-23.81 2.3-35.33-.2a129.81 129.81 0 0 1-18.49-4c10.12 24.24 44.9 21 58.05 17.46 22.69-3.6 46-12.93 56.2-34.61a9.31 9.31 0 0 0-7.43-.04zM910.13 844c-10 42.56-33.4 91.94-69 118.2-30.61 22.56-68.19 25.07-104 14.77-57-16.41-116.84-65.77-139-125.17C593 922.91 666.66 969.13 670 971.25c11.08 7 22 24.11 25.1 37.77 3.94 10 30.2 16.73 86.39 20.4 61.81 4 93.32-7.87 98.4-11.9 0-20.79.11-44.38.11-44.38 0-11.52 18.69-55.17 32.07-82.76 10.08-20.78 10.52-34.46 10.53-37.59 3.73-1.26-12.47-8.79-12.47-8.79z" fill="#828d6e"/><path d="M799.92 871.1c-9.75-9-28.18-10.61-60.84-7.87-15.25 1.28-50.51 14.77-50.51 14.77l6.77 21.11s62.92 6.75 79.95 10c15.09 3.28 23.51-3.6 26.28-8.11 7.27-11.7 2.5-26.08-1.65-29.9zM705.39 714.56s-17.9-11.7-34.57-17.48c-19.33-6.7-37.69-1-37.69-1s2.28 29.62 30.47 34.83c24.49 4.54 34.68-.3 34.68-.3z" fill="#a5e3fa"/><path d="M745.85 498.68s-52.27 0-75 51.82-15.45 65.9-15.45 65.9-25 3.64-24.55 26.82 9.09 30 9.09 30a14.55 14.55 0 0 0-9.09 10.9c-1.82 8.64 2.28 12 2.28 12 36.36-10.29 71.19 17.65 71.19 17.65" fill="none" stroke="#000" stroke-linecap="round" stroke-miterlimit="10" stroke-width="1.87"/><path d="M707.67 698.28s-1.37 40.39-32.27 53.11-55.91 22.27-52.27 44.55 22.72 28.18 35 29.08 51.82-4.09 68.64-19.54 15-20 12.72-28.63-19.09-1.37-19.09-1.37M633.13 696.1s3 46.95 65.15 34.53M639.94 738.21s-15.87-16.24-.21-23.8" fill="none" stroke="#000" stroke-linecap="round" stroke-miterlimit="10" stroke-width="1.87"/><path d="M695.34 1010s-5.85-26.36-25.85-39.09S586.76 908.2 600 840.48s36.43-106.8 36.43-106.8M756.75 784.12s11.82 43.63 31.82 56.36 41.82 43.18 48.18 72.72M715.85 643.22s15.91 19.54 51.36 0" fill="none" stroke="#000" stroke-linecap="round" stroke-miterlimit="10" stroke-width="1.87"/><path d="M772.21 698.28s-8.18 28.57 10 39.93c0 0 34.54-18.63 73.17-8.18 0 0 10-4.09 6.82-26.82 0 0-45.6-20-91.74 6.35" fill="#a5e3fa"/><path d="M772.21 698.28s-8.18 28.57 10 39.93c0 0 34.54-18.63 73.17-8.18 0 0 10-4.09 6.82-26.82 0 0-45.6-20-91.74 6.35M791.45 749.12s8.54 10 29.19 5.45M690.85 915.47s2.73 9.55 21.82 18.64M678.21 832.8s-7.6 18.26-20.39 23.44-20.39 20.39-2.73 27.08 51.43-17 84-19.78 66.34-.67 66.34 21-12.78 28-30.13 24.68-79.95-10-79.95-10L688.57 878M714.49 868.8l8.31 32.28M742.77 863.25l10.95 42.73M774.68 864.45l6.98 45.53M922.59 853.92s.67 13.37-10.53 36.46-32.18 71.36-32.18 84.62v41.09" fill="none" stroke="#000" stroke-linecap="round" stroke-miterlimit="10" stroke-width="1.87"/><path d="M862.83 649.42c-4.88-1.24-17.63-5.78-42.19 2.48s-39.95 16.1-46.92 16.4-19.76-1.74-16.85 3.78 2 14.52 19.46 13.65 43.86-8.71 59-13.07 33.41.87 35.73-1.74 2.47-18.78-8.23-21.5zM699.94 674.69c-9-4.65-58.09-27-65.65-30.21s-9.29 7.85-9.29 10.75 5.78 14.77 14.94 18 41.29 16.58 48.17 18.61 16.48 4.94 16.48-4.36-4.65-12.79-4.65-12.79z"/><path d="M960.77 530.2s8.63-49.3-59.16-68.61-140.44-4.76-155.76 11.09c-13.92 14.38-9 26-9 26s2.8 0 7.92-.16c-2.28 5.6-3.82 13.6 1.07 21 8.68 13.15 35.17 16 55.82 8.63s50.23-20.55 51.05-16.44-4.93 17.26 7 14.39 51.35-15.2 64.09-5.34 17.66 27.11 17.66 27.11-22.59 2.88-30 41.09 11.12 67 11.12 67-23.86 18.59-32.48 42.37-10.27 55.82-7 59.52 17.08 9.2 30.4 8.63 47.61-30.49 47.61-30.49 32.1-61.54 35.38-105.09 1.26-91.25-35.72-100.7z"/><path fill="#767d90" stroke="#000" stroke-linecap="round" stroke-linejoin="round" stroke-width="1.87" d="M685.36 1016.42l-14.81 6.16v15.2l15.35 5.02M894.21 1016.12l11.96 4.56V1032l-11.16 9.61"/><path d="M800 698.28s.54 9.8 10.29 9.6 8.3-11.78 8.3-11.78zM653.07 693.84s-.16 10.14 6 11.34c10.23 2 11.79-8.1 11.79-8.1l-8.4-2.12z"/><path d="M904 764.63s13.39-37.43 39-37.43 25.25 30.13 24.95 45.65-13 60.87-31.92 73.34-32 6.09-32 6.09" fill="#b6c798"/><path d="M944.81 727.27c14.07 24.1 7.21 56-3.9 81.09-6 13.67-23.18 34.24-36.89 30 0 0-13.32 8.06 0 13.95 11.7 5.17 23.65-1.11 32-6.09 19.63-11.7 31.62-57.82 31.92-73.34.29-15.17.57-44.19-23.13-45.61z" fill="#828d6e"/><path d="M903.39 766.83s14-39.63 39.59-39.63 25.25 30.13 24.95 45.65-13 60.87-31.92 73.34-32 6.09-32 6.09" fill="none" stroke="#000" stroke-linecap="round" stroke-miterlimit="10" stroke-width="1.87"/><path d="M946.63 749.12s-17.35 6.08-19.78 16.73-1.83 17-1.83 17 8.45-1.21 10.77 6.09-13.2 28.61-13.2 28.61" fill="none" stroke="#000" stroke-linecap="round" stroke-miterlimit="10" stroke-width="1.87"/><path d="M879.88 1000.87s14.14 3.9 15.49 7 3 39.59-2.9 47.94S856 1075.28 787 1074.66s-102-21.34-103-25.66 0-25.41 0-34.69 6.82-8.05 6.82-8.05c11.46 13.28 29.36 16.4 90.81 20.42s98.22-9 102.46-12.37-4.24-4.34-4.24-4.34z" fill="#495365" stroke="#000" stroke-linecap="round" stroke-miterlimit="10" stroke-width="1.87"/><path fill="#767d90" stroke="#000" stroke-linecap="round" stroke-linejoin="round" stroke-width="1.87" d="M711.16 1033.47l16.98 1.26-.83 14.31h-14.06l-2.09-15.57zM791.45 1041.26l.87 16.59 14.23-.01.87-15.14-15.97-1.44zM872.87 1033.47h-13.75v19.08h15.63l-1.88-19.08z"/><path d="M1061.23 1081.7s7.22 3.8 7.25 20.63l.17 98.57s-125 41.88-277.61 42.15-278.54-54-278.54-54l-.15-85.74c0-16 12.25-26.36 12.25-26.36l-.24-.46s-15.66-15 0-34.87c0 0 91.81 47.68 269 49.82s263.36-43.44 263.36-43.44 12.1 7.12 4.27 34.16z" fill="#3e210e" stroke="#000" stroke-miterlimit="10" stroke-width="3.73"/><path d="M578.85 1121.32s82.83 18.68 166.14 21 155.47 0 155.47 0-1 22.37 17 17.43v44s-15.89-7.41-16.47 12.59c0 0-58.12 11.14-159.84 5.33S574.49 1195 574.49 1195s1.94-22.14-15-22.7l2.42-32.52s19.85 2.76 16.94-18.46z" fill="#593f0d" stroke="#000" stroke-linejoin="round" stroke-width="1.87"/><path d="M524.36 1076.48s108.18 44.84 269.63 44.84 267-39.15 267-39.15" fill="none" stroke="#000" stroke-miterlimit="10" stroke-width="1.87"/><path d="M587.62 1147.06c.49 11.39-1 22.73-1.27 34.11a.75.75 0 0 0 1.5 0c.26-11.38 1.76-22.72 1.27-34.11 0-1-1.54-1-1.5 0z" fill="#2b1508"/><path d="M589.19 1148a33.06 33.06 0 0 1 6.88.48c2.18.42 4.54 1.14 6.09 2.82 1.7 1.85 1.62 4.85.9 7.11a8.53 8.53 0 0 1-4.86 5.1 16.83 16.83 0 0 1-8.8 1c-1-.12-.95 1.38 0 1.5 5.43.67 12.31-.68 14.74-6.23 1.08-2.49 1.36-5.92 0-8.35-1.28-2.22-3.78-3.41-6.17-4a31 31 0 0 0-8.75-.88.75.75 0 0 0 0 1.5zM599 1166.13c-.06 5.84 2.49 11.21 3.17 16.94.12 1 1.62 1 1.5 0-.68-5.72-3.23-11.13-3.17-16.94a.75.75 0 0 0-1.5 0zM616.18 1154.26c.09 10-.06 20.07-.63 30.08-.06 1 1.44 1 1.5 0 .57-10 .72-20 .63-30.08a.75.75 0 0 0-1.5 0zM647.44 1156.9c-2.92.16-5.84-.2-8.76-.05-2.23.12-5.62.5-7.12 2.38a26.45 26.45 0 0 0-4.92 10.64c-1.41 6.49-.08 14.07 6 17.78 3.91 2.41 8.7 2.54 13.12 1.87.95-.15.55-1.59-.4-1.45-6.65 1-14.05-.61-16.71-7.49-2.42-6.27-.37-13.58 3.14-19a11.34 11.34 0 0 1 .92-1.34 4 4 0 0 1 1.73-1 13.84 13.84 0 0 1 4.27-.84c2.92-.15 5.84.21 8.76.05 1-.05 1-1.55 0-1.5zM655.58 1159.56c.33 10.25-.35 20.48-.63 30.71a.75.75 0 0 0 1.5 0c.28-10.23 1-20.46.63-30.71 0-1-1.53-1-1.5 0zM658.87 1176.83a47.57 47.57 0 0 1 14.42 1.25.75.75 0 0 0 .4-1.45 48.93 48.93 0 0 0-14.82-1.3c-1 .06-1 1.56 0 1.5zM676.34 1162.1c-.07 10.45-.8 20.9-.21 31.35 0 1 1.55 1 1.5 0-.59-10.45.14-20.9.21-31.35a.75.75 0 0 0-1.5 0zM687.35 1195.35c3.21-10.4 6.41-20.84 10.94-30.75.39-.87-.9-1.64-1.3-.76-4.58 10-7.84 20.59-11.09 31.11-.29.92 1.16 1.32 1.45.4z" fill="#2b1508"/><path d="M698.19 1164.63c1.82 10.93 4.95 21.58 8 32.2a.75.75 0 0 0 1.45-.4c-3.1-10.62-6.22-21.27-8-32.2-.16-1-1.6-.54-1.44.4zM691.92 1184.67c3.18.08 6.44-.32 9.54.61a.75.75 0 0 0 .4-1.45c-3.23-1-6.62-.57-9.94-.66a.75.75 0 0 0 0 1.5zM718.07 1167.19c.43 10.83-1 21.6-1.48 32.4 0 1 1.46 1 1.5 0 .44-10.8 1.91-21.57 1.48-32.4 0-1-1.54-1-1.5 0z" fill="#2b1508"/><path d="M720.94 1167.72c3.85-.46 10.57-.57 11.78 4.3.93 3.74-2.15 7.43-5.11 9.25a14.86 14.86 0 0 1-8.15 2.11.75.75 0 0 0 0 1.5c5.23.1 10.65-2.2 13.45-6.78 2.18-3.57 2-8.24-1.88-10.54-3-1.77-6.77-1.73-10.09-1.34-1 .12-1 1.62 0 1.5z" fill="#2b1508"/><path d="M727.63 1183.7c2.06 5.15 4.26 10.24 6.14 15.46.33.9 1.78.51 1.45-.4-1.89-5.22-4.08-10.31-6.14-15.46-.36-.89-1.81-.5-1.45.4zM745.82 1168.46c.27 11.23-.44 22.45-.64 33.68a.75.75 0 0 0 1.5 0c.2-11.23.91-22.45.64-33.68a.75.75 0 0 0-1.5 0z" fill="#2b1508"/><path d="M748 1169.6a12.4 12.4 0 0 1 9.07 1.55 13.64 13.64 0 0 1 5.07 6.81c2 5.47 2 12.77-.94 17.94-1.16 2-4 3.49-6.08 4.28a14.39 14.39 0 0 1-7.54.81c-1-.17-1.35 1.28-.4 1.45a16.82 16.82 0 0 0 13.35-3.67 7.5 7.5 0 0 0 2-2.22 21.54 21.54 0 0 0 1.07-2.53 24 24 0 0 0 1.16-5.07c.8-6.43-.69-14.2-6-18.42a13.7 13.7 0 0 0-11.15-2.37c-.95.17-.55 1.61.4 1.44zM785.24 1202.77v-24.9-2.4a3.56 3.56 0 0 0 0-.66l-.26.11c-.3 0-.34.12-.13.26 0 .16.44.54.55.69 1.22 1.61 2.43 3.23 3.61 4.86 2.29 3.16 4.5 6.36 6.6 9.65 2.38 3.73 4.61 7.55 6.64 11.49a.76.76 0 0 0 1.4-.38c.27-9.18-1.24-18.35-.38-27.53.09-1-1.41-1-1.5 0-.86 9.18.65 18.35.38 27.53l1.4-.38a169.68 169.68 0 0 0-14.07-22.27q-.88-1.21-1.8-2.43a16.57 16.57 0 0 0-1.88-2.43c-.76-.68-1.8-.52-2 .53a7.31 7.31 0 0 0 0 1.62v26.64a.75.75 0 0 0 1.5 0zM814 1173.75c0 9.61-.16 19.21.21 28.81 0 1 1.53 1 1.5 0-.37-9.6-.17-19.2-.21-28.81a.75.75 0 0 0-1.5 0zM824.72 1174.55c5.42 9.07 12.45 17.29 16 27.36.32.91 1.77.52 1.45-.4-3.62-10.21-10.68-18.52-16.18-27.71a.75.75 0 0 0-1.29.75z" fill="#2b1508"/><path d="M838.91 1172.31c-4.37 9.79-9.91 19-13.84 29-.36.9 1.09 1.29 1.44.4 3.89-9.86 9.38-19 13.7-28.63.39-.87-.91-1.64-1.3-.76zM868.67 1187.51c.73-5.24-.83-11.34-5.22-14.64a9 9 0 0 0-7.53-1.73 9.36 9.36 0 0 0-5.29 3.88c-2.67 4-2.63 9.5-1.89 14.09.8 5 2.54 9.94 7.25 12.42 2.57 1.36 5.78 1.64 8-.53 1.38-1.35 2-3.36 2.58-5.15.69-2.17 1.2-4.4 2.08-6.5.38-.88-.91-1.64-1.29-.76-1.29 3.05-1.82 6.36-3.17 9.38a4.72 4.72 0 0 1-6.25 2.79c-4.61-1.57-6.47-5.94-7.43-10.32-.89-4-1.15-8.63.34-12.58 1.58-4.17 5.8-6.7 10.11-4.73 5 2.3 7 8.86 6.25 14-.13.94 1.31 1.35 1.45.4zM879.92 1199c-.12-9.22-1.61-18.54 0-27.71l-1.25.33a267.59 267.59 0 0 1 17.45 23.19.76.76 0 0 0 1.4-.38c.86-8.4-1.21-16.7-1.29-25.09a.75.75 0 0 0-1.5 0c.08 8.39 2.15 16.69 1.29 25.09l1.39-.38a271 271 0 0 0-17.68-23.49.76.76 0 0 0-1.26.34c-1.63 9.31-.17 18.73-.05 28.1a.75.75 0 0 0 1.5 0z" fill="#2b1508"/></svg>