<svg xmlns="http://www.w3.org/2000/svg" width="4000" height="2000" viewBox="0 0 4000 2000"><path d="M3251.12 182.11c-5.6 1.68-2.38 13-9 16.31-4.9 2.44-10.81 1.09-16.06 2.58-6.23 1.76-10.8 7.33-13.46 13.34s-3.8 12.58-5.67 18.88a9 9 0 0 1-2.15 4.17c-1.49 1.38-3.67 1.61-5.68 1.72a114 114 0 0 1-28.4-2.11c-1.37-.28-2.95-.53-4 .35a5.12 5.12 0 0 0-1.38 2.56c-2.33 7.25-6.65 14.6-13.73 17-4.7 1.61-9.81.8-14.75.37a90 90 0 0 0-18.27.26 7.31 7.31 0 0 0-7.54 5.93c-1.95 5.47-3 11.37-5.94 16.34a22.87 22.87 0 0 1-21 10.93c-4.81-.38-9.95-2.28-14.24 0-2.22 1.17-4.67 10.09-6.85 15s-1.09 26.93-1.09 26.93l53.82 43.2 134.84-79.32 51.56-115.06s-45.42-1.07-51.01.62z" fill="#ad8350" stroke="#411f19" stroke-linejoin="round" stroke-width=".75"/><path d="M3291 187.05l.78 2.63c-9.25-2.31-16.63-12.4-24.22-6.48-2.17 1.69-7.19 12-9.11 14-10 10.39-20.46.79-28.08 13.19-4 6.5-10.83 28.66-16.81 33.26-8.24 6.34-20.16 2-29.95 5.18-8.74 2.86-18.4 12.88-26.66 17-10.7 5.33-15.82-4.72-27.45-2.2a15.87 15.87 0 0 0-5.4 2c-2.44 1.59-4.11 4.14-5.81 6.55-7 9.95-6.43 23.91-29.78 30.89-6 1.79-19.61 14.12-19.28 20.53.17 3.25 10.2-.3 12.08 2.32 2.56 3.55 222.45-54.78 218-127.15-.31-5.44-3.08-11.92-8.31-11.72z" fill="#bf3522"/><path d="M3292.92 181.36c-1 2.14-15.53 12.76-22.84 15-.34 8.77-1.71 19.22-9.57 23.07-5.19 2.55-11.45 1.14-17 2.68-6.6 1.84-11.44 7.65-14.27 13.91s-4 13.11-6 19.68a9.35 9.35 0 0 1-2.27 4.35c-1.59 1.44-3.89 1.67-6 1.78a122.31 122.31 0 0 1-30.07-2.17c-1.45-.29-3.12-.56-4.29.36a5.32 5.32 0 0 0-1.47 2.68c-2.47 7.55-7 15.21-14.55 17.74-5 1.69-10.39.84-15.63.39a96.47 96.47 0 0 0-19.37.27 10.16 10.16 0 0 0-5.16 1.61 9.76 9.76 0 0 0-2.82 4.57c-2.08 5.7-3.14 11.85-6.3 17a24.38 24.38 0 0 1-22.31 11.44c-5.1-.4-10.55-2.38-15.1 0-2.34 1.21-4 3.4-5.69 5.44a39 39 0 0 1-10.5 8.9c1.25 21.88 4 42.18 5.6 60l213.86-45.74L3328.33 182c-11.71-.4-23.7-.34-35.41-.64z" fill="#d6af80" stroke="#411f19" stroke-width=".75"/><path d="M3796.06 183.89c-14.58-19.74-300.44 4-445.56-1.06q-19-.68-38.07-1.15a29.39 29.39 0 0 1-4.12 6.42c-5.36 6.31-13 10.34-20.92 12.77-.37 9.48-1.85 20.77-10.37 24.93-5.62 2.75-12.41 1.23-18.44 2.9-7.15 2-12.4 8.26-15.46 15s-4.36 14.17-6.52 21.27a9.89 9.89 0 0 1-2.46 4.69c-1.71 1.56-4.21 1.81-6.52 1.93a132.93 132.93 0 0 1-32.59-2.35c-1.57-.31-3.38-.6-4.65.4a5.8 5.8 0 0 0-1.59 2.89c-2.67 8.16-7.62 16.43-15.76 19.17-5.4 1.82-11.27.9-16.94.42a105.82 105.82 0 0 0-21 .29 11 11 0 0 0-5.59 1.74 10.47 10.47 0 0 0-3.07 4.94c-2.24 6.16-3.4 12.81-6.82 18.41a26.46 26.46 0 0 1-24.08 12.31c-5.52-.44-11.43-2.57-16.35 0-2.54 1.32-4.34 3.69-6.17 5.88a34.71 34.71 0 0 1-10.26 8.86c1.36 23.63 3.23 46.35 4.95 65.57 19.08 212.19-2.9 446.46 2.54 659.44.14 5.25.36 10.78 3.07 15.28 5.44 9 17.89 10 28.41 10 114.77-.4 237.64 7.3 352.41 6.9 16.37-.06 32.77-.11 49.06 1.48 21.59 2.12 271.41 16 289.43-10.39s4.53-515.68 3.88-746.32c-.13-54.23 14.15-142.89-.44-162.62z" fill="#c69c63" stroke="#411f19" stroke-width=".75"/><circle cx="3731.51" cy="396.19" r="11.33" fill="#ab8354" stroke="#411f19" stroke-width=".75"/><circle cx="3157.8" cy="396.19" r="11.33" fill="#ab8354" stroke="#411f19" stroke-width=".75"/><circle cx="3157.8" cy="637.79" r="11.33" fill="#ab8354" stroke="#411f19" stroke-width=".75"/><path d="M3752.69 951.48c19.72-196.62-22.9-336.24-12.66-394 2.93-16.49 5.86-33.32 3.45-49.89-2.62-18.07-11.42-34.66-15.48-52.46-9.38-41.15 7.18-83.17 13.16-124.95s-5.27-93.69-45.16-107.44c-24.64-8.49-52.36.81-77.57-5.79l-12.59.36c-41.92-7.23-83.61 12.46-126.08 14.88-22 1.26-44-2.16-65.83-5.17q-63.84-8.83-128.2-13.26c-1.4 5.21-4 9.74-8.71 12.06-5.62 2.75-12.41 1.23-18.44 2.9-7.15 2-12.4 8.26-15.46 15s-4.36 14.17-6.52 21.27a9.89 9.89 0 0 1-2.46 4.69c-1.71 1.56-4.21 1.81-6.52 1.93a132.93 132.93 0 0 1-32.59-2.35c-1.57-.31-3.38-.6-4.65.4a5.8 5.8 0 0 0-1.59 2.89c-2.67 8.16-7.62 16.43-15.76 19.17-5.4 1.82-11.27.9-16.94.42-3.11-.27-6.23-.39-9.36-.38 4.43 20.05 12.32 39.45 15.09 59.84 9.74 71.61-44.31 143.11-25.73 212.95 7.85 29.52 28.41 56.53 26.21 87-2.37 32.71-30.54 58.78-34.8 91.3-3.25 24.86 7.94 49.09 11.88 73.85 7.51 47.35-11.7 129.29-11.06 177.23.26 19.73 3.67 50.49 27.91 56.65 47.65 12.12 151.82-32.73 201.81-18.79 40.48 11.29 81.23 33.86 122 23.71 23.11-5.75 43.11-21.65 66.69-25 28.06-4 55.18 10.44 83.22 14.58 38.71 5.71 94.41 1.26 119.7-28.59 12.69-14.93 1.09-45.49 3.04-65.01z" fill="#f9f7f4" stroke="#411f19" stroke-width=".75"/><path fill="none" stroke="#bf3522" stroke-miterlimit="10" stroke-width="6" d="M3239.88 328.71l9.17 17.03"/><path fill="none" stroke="#e5ba21" stroke-miterlimit="10" stroke-width="6" d="M3436.45 522.27v22.97"/><path fill="none" stroke="#7dc0a1" stroke-miterlimit="10" stroke-width="6" d="M3555.44 392.14l-7.31 17.02"/><path fill="none" stroke="#ef7b6c" stroke-miterlimit="10" stroke-width="6" d="M3602.14 513.76l9.17 17.03"/><path fill="none" stroke="#bf3522" stroke-miterlimit="10" stroke-width="6" d="M3442.21 301.33l-5.76 14.12m222.51-7.06l8.63 14.9m-231.14 109.8l9.97 17.25m-161.56 130.98l-8.63 14.9m130.19 103.53l10.2 11.76m67.45-94.74l10.19-10.35m39.22 54.9l9.41 16.47m110.58 19.6l16.47-10.98m-33.72 126.27l-.79 16.47m-92.54 99.67l14.12 10.13m-54.12-105.87l7.06-12.16m-129.41 50.59l-10.98 19.6m-89.02-48.62l-12.94-10.98M3264.47 717l9.6-11.37m-91.17 238.03l10.2 12.55m109.01-476.85l-18.04-7.84M3153.1 507.6l9.41-12.55m159.21-240.78l-4.71-14.12"/><path fill="none" stroke="#7dc0a1" stroke-miterlimit="10" stroke-width="6" d="M3298.19 328.71l14.12 8.51m41.56 122.32l10.98 15.9m-145.09 38.32l-7.84 17.03m37.13-45.15l-9.17-18.15m414.38-58.33l13.33-8.51m-94.9-99.32l-13.33-14.12m109.8-21.96l12.55-10.19m-110.59-24.32l-10.98-8.62m109.02 300.15l15.68 4.93m-21.56 68.24l-8.24 16.15m-173.33-66.35l13.34 7.06m5.49 117.25v22.35m-116.08-54.11h-17.25m-138.04 42.94l19.88 7.25m-87.33 94.9l15.69 8.63m69.02 111.37v17.25m79.99 21.18l11.77 16.47m117.64 27.45l18.04-6.28m138.82-4.7l19.61 2.35m-33.73-112.94l14.12 13.34m101.17 48.62l-3.13-22.74m-339.6-94.9l13.33 12.94m73.73-43.53l15.68-10.19m167.05-36.87l14.91 11.77"/><path fill="none" stroke="#ef7b6c" stroke-miterlimit="10" stroke-width="6" d="M3356.23 382.89l10.98-10.98m-171.76 37.25l11.76 14.52m160-157.64l14.11-9.42m166.81 89.12l17.89 9.7m-89.8 7.85l12.16-9.41m.78-84.71l16.87 7.06m129.4 171.76h16.47m-85.48 163.6l8.62 12.08m-259.6-41.57l22.75 6.67m5.49-70.98l18.04-7.84m-160.39 72.15l5.1 14.12M3188 713.86l13.33 13.34m98.43 37.64l15.68-7.06m11.38-96.46l13.72 19.41M3188 881.31l20.78-10.98m208.62 58.49l24.81-8.69m-36.57-147.84l18.04 14.9m123.13-7.45l14.12-13.33m-29.81 114.9l14.91-5.49m123.13 20v18.43m17.25 67.84h14.9m-183.52-505.53l12.55 12.21"/><path fill="none" stroke="#e5ba21" stroke-miterlimit="10" stroke-width="6" d="M3397.01 585.44l14.51 11.56m-154.9 44.71l17.45-3.92m-13.53-77.65v-18.82m4.81-149.18l15.19 8.51m-99.6-67.68h20.39m79.21-90.46l8.24 13.33m63.92 45.49l14.51-2.35m130.39 9.41h16.27m-82.14 69.01l14.69 14.74m51.18 37.03l16.27-12.75m88.27-44.51h21.53m4.71-91.76l-4.71-14.11m66.66 96.46l15.69-11.91m-263.81-89.26l-10.48-14.12m145.67 224.31h20.39m109.01 0l-8.62 11.15m-62.35 77.47v16.47m-101.57 0l17.53-8.23m-51.25 167.84l14.11 8.23m-178.03 42.74l16.08-14.11m-132.15 0l18.56 14.11m-69.54 63.92l11.76-14.11m71.37 134.11l21.37 4.31m33.53-72.54l11.77-14.9m138.82-32.16l18.03 7.06m12.94 61.6v16.04m112.98 13.34l13.69-13.34m-18.04-229.21l13.52-17.13m40.59 85.56l17.26 7.45m-239.35-129.01l21.32 7.84m-104.31-249.6h20.39M3157.8 585.44l-6.27-21.38"/><path fill="none" stroke="#bf3522" stroke-miterlimit="10" stroke-width="6" d="M3706.65 626.46l13.53 22.65M3707.64 837l12.54-22.55"/><path fill="none" stroke="#e5ba21" stroke-miterlimit="10" stroke-width="6" d="M3702.49 730.1l17.69 17.71m-17.69-179.43l11.42-13.41"/><path fill="none" stroke="#7dc0a1" stroke-miterlimit="10" stroke-width="6" d="M3169.57 1014.7l18.43 6.83"/><path fill="none" stroke="#bf3522" stroke-miterlimit="10" stroke-width="6" d="M3458.52 1045.15l19.27-13.67m-63.13-49.39l-10.83-20.22m-157.4 56.25l22.84-8.39"/><path fill="none" stroke="#e5ba21" stroke-miterlimit="10" stroke-width="6" d="M3711.34 949.54l12.55 13.58m-185.32 44.12l8.82-19.26m-221.24 22.99l18.51 7.15"/><path fill="none" stroke="#ef7b6c" stroke-miterlimit="10" stroke-width="6" d="M3648.37 1014.54l17.1 10.72"/><path d="M3796.06 183.89c-3.15-4.27-24.37-6.5-48.69-7.43 2.76 2.49 8.81 3.49 13.37 7.78a68 68 0 0 1 9 11.28s12.3 12.3 15 24.6-1.36 36.9-1.36 80-4.1 90.8-2.74 139.56 8.2 223.21 11 296.51-1.46 199.78-.09 250.7-12.3 88.48-20.5 97.6-140.77 16.85-200.33 12.75-386-12.3-425.61-12.75-58.77-11.85-62.9-25.33 1.4-147.54 0-177.88 5.5-158.26 8.5-189.41-1.63-124.65-.27-158.14-2.73-79.94-8.88-124.6c-3.14-22.78-9.64-71.16-1.57-79.71-.58.67-6.41 5.57-7 6.24a34.71 34.71 0 0 1-10.26 8.86c1.36 23.63 3.23 46.35 4.95 65.57 19.08 212.19-2.9 446.46 2.54 659.44.14 5.25.36 10.78 3.07 15.28 5.44 9 17.89 10 28.41 10 114.77-.4 237.64 7.3 352.41 6.9 16.37-.06 32.77-.11 49.06 1.48 21.59 2.12 271.41 16 289.43-10.39s4.53-515.68 3.88-746.32c-.11-54.2 14.17-142.86-.42-162.59z" fill="#411f19" opacity=".2"/><path d="M3075.92 351.81c1.43 21.35 3 38.3 5.65 57.35 6.15 44.66 10.25 91.11 8.88 124.6s3.26 127 .27 158.14-9.9 159.07-8.5 189.41-4.14 164.4 0 177.88 23.27 24.88 62.9 25.33 366.05 8.65 425.61 12.75 192.13-3.63 200.33-12.75 21.86-46.69 20.5-97.6 2.92-177.41.09-250.7-9.66-247.76-11-296.51 2.74-96.42 2.74-139.56 4.1-67.73 1.36-80-15-24.6-15-24.6" fill="none" stroke="#411f19" stroke-width=".75"/></svg>