<?xml version="1.0" encoding="UTF-8"?><svg id="a" xmlns="http://www.w3.org/2000/svg" viewBox="0 0 20.16 20.16"><path d="M13.38,11.96v-4.39c0-.95-.43-1.38-1.2-1.38-.86,0-1.29.52-1.29,1.64v2.41h-1.72v-2.41c0-1.12-.43-1.64-1.29-1.64-.77,0-1.2.43-1.2,1.38v4.39h-1.81v-4.56c0-.95.26-1.64.69-2.24.52-.52,1.12-.86,1.89-.86.95,0,1.64.34,2.07,1.03l.43.77.43-.77c.43-.69,1.12-1.03,2.07-1.03.77,0,1.46.26,1.89.86.43.52.69,1.29.69,2.24v4.56h-1.64Z" fill="none" stroke="#14303f" stroke-linecap="round" stroke-linejoin="round" stroke-width="1.01"/><path d="M18.03,7.14c0-3.7-2.41-4.82-2.41-4.82-1.2-.6-3.36-.77-5.59-.86h0c-2.24,0-4.3.26-5.51.86,0,0-2.41,1.12-2.41,4.82v2.93c.09,3.61.69,7.23,4.04,8.17,1.55.43,2.93.52,3.96.43,1.98-.09,3.01-.69,3.01-.69l-.09-1.38s-1.38.43-2.93.34-3.18-.17-3.44-2.07v-.52s1.55.34,3.44.43c1.2.09,2.32-.09,3.44-.17,2.15-.26,4.04-1.55,4.3-2.84.26-1.89.17-4.65.17-4.65h0Z" fill="none" stroke="#14303f" stroke-linecap="round" stroke-linejoin="round" stroke-width="1.01"/></svg>