<?xml version="1.0" encoding="UTF-8"?><svg id="a" xmlns="http://www.w3.org/2000/svg" viewBox="0 0 20.16 20.16"><path d="M10.04,1.32C5.19,1.32,1.16,5.27,1.16,10.2c0,3.77,2.42,7.18,6.1,8.43.27.09.54,0,.63-.27v-1.7c-2.51.54-3.05-1.17-3.05-1.17-.18-.54-.54-.99-.99-1.25-.72-.63.09-.63.09-.63.54.09,1.08.45,1.44.9.45.9,1.61,1.25,2.51.81h.09c.09-.45.27-.81.54-1.17-2.06-.18-4.13-.99-4.13-4.3,0-.9.36-1.7.9-2.42-.27-.81-.27-1.61.09-2.42,0,0,.72-.18,2.51.9.72-.09,1.44-.18,2.15-.18.81,0,1.53.09,2.24.36,1.7-1.17,2.51-.9,2.51-.9.27.72.36,1.61.09,2.42.54.63.9,1.53.9,2.42,0,3.5-2.06,4.13-4.04,4.3.45.45.63.99.63,1.61v2.42c0,.18.09.54.63.45,3.59-1.25,6.01-4.66,6.01-8.43-.09-5.03-4.03-8.98-8.97-9.07Z" fill="none" stroke="#14303f" stroke-linecap="round" stroke-linejoin="round" stroke-width="1.01"/></svg>