<?xml version="1.0" encoding="utf-8"?>
<!-- Generator: Adobe Illustrator 23.1.1, SVG Export Plug-In . SVG Version: 6.00 Build 0)  -->
<svg version="1.1" id="Layer_1" xmlns="http://www.w3.org/2000/svg" xmlns:xlink="http://www.w3.org/1999/xlink" x="0px" y="0px"
	 viewBox="0 0 16 16" style="enable-background:new 0 0 16 16;" xml:space="preserve">
<g id="Dribbble_1">
	<path d="M8,0C3.6,0,0,3.6,0,8s3.6,8,8,8s8-3.6,8-8S12.4,0,8,0z M14,8c0,0.2,0,0.4,0,0.6c-1-0.3-1.9-0.5-3-0.5c-0.2,0-0.4,0-0.5,0
		c-0.1-0.5-0.3-1-0.5-1.5c1-0.5,2-1.2,2.8-2.1C13.6,5.5,14,6.7,14,8z M11.7,3.3C10.9,4,10.1,4.7,9.1,5.1C8.4,4,7.5,3,6.4,2.2
		C6.9,2.1,7.4,2,8,2C9.4,2,10.6,2.5,11.7,3.3z M4.6,3.1c1.2,0.7,2.2,1.6,2.9,2.7c-1.7,0.5-3.4,0.5-5.1,0C2.9,4.7,3.6,3.8,4.6,3.1z
		 M2,8c0-0.2,0-0.4,0-0.6c1,0.3,2,0.4,3,0.4c1.1,0,2.3-0.2,3.3-0.5C8.5,7.7,8.6,8,8.8,8.4c-2.1,0.5-4,1.7-5.4,3.4
		C2.5,10.8,2,9.4,2,8z M4.6,12.9c1.1-1.4,2.7-2.4,4.5-2.9c0,0.3,0,0.6,0,0.9c0,1-0.2,2-0.5,3c-0.2,0-0.4,0-0.6,0
		C6.7,14,5.6,13.6,4.6,12.9z M10.6,13.4c0.2-0.8,0.3-1.6,0.3-2.4c0-0.4,0-0.8-0.1-1.1c0.1,0,0.1,0,0.2,0c0.9,0,1.7,0.1,2.6,0.4
		C13,11.6,11.9,12.8,10.6,13.4z"/>
</g>
</svg>
