<?xml version="1.0" encoding="UTF-8"?><svg id="projects" xmlns="http://www.w3.org/2000/svg" width="70" height="70" viewBox="0 0 70 70"><path d="M35,70h-.04c-.68,0-1.31-.22-1.83-.58L1.54,48.46c-.36-.23-.68-.52-.94-.89-.02-.04-.05-.07-.07-.11,0,0,0,0,0,0,0,0,0,0,0,0C.16,46.89,0,46.25,0,45.61V24.39c0-.62,.16-1.26,.52-1.82,.03-.04,.05-.08,.08-.12H.6s0,0,0,0c.26-.37,.58-.67,.94-.9L33.13,.58c.51-.35,1.13-.56,1.8-.58h0s.04,0,.06,0,.07,0,.06,0h0c.67,.01,1.29,.23,1.8,.58l31.58,20.96c.36,.23,.68,.53,.95,.9h0s.05,.08,.08,.12c.36,.57,.53,1.2,.52,1.82v21.23c0,.63-.16,1.27-.53,1.84t0,0s-.05,.07-.07,.11c-.26,.37-.58,.66-.94,.89l-31.58,20.96c-.52,.36-1.15,.57-1.83,.58h-.04Zm3.31-22.85v13.36l22.41-14.87-10-6.73-12.41,8.24Zm-29.04-1.51l22.41,14.87v-13.36l-12.41-8.24-10,6.73Zm15.95-10.73l9.77,6.49,9.77-6.49-9.77-6.57-9.77,6.57Zm31.47,.04l6.68,4.49v-8.92l-6.68,4.43ZM6.63,30.52v8.92l6.68-4.49-6.68-4.43Zm31.69-7.94l12.43,8.37,9.95-6.6-22.38-14.85v13.09Zm-29.01,1.76l9.95,6.6,12.43-8.37V9.49L9.31,24.34Z" fill="#14303f"/></svg>
