<?xml version="1.0" encoding="utf-8"?>
<!-- Generator: Adobe Illustrator 27.0.0, SVG Export Plug-In . SVG Version: 6.00 Build 0)  -->
<svg version="1.1" id="Layer_1" xmlns="http://www.w3.org/2000/svg" xmlns:xlink="http://www.w3.org/1999/xlink" x="0px" y="0px"
	 viewBox="0 0 160 20" style="enable-background:new 0 0 160 20;" xml:space="preserve">
<style type="text/css">
	.st0{fill:#411F19;}
	.st1{fill-rule:evenodd;clip-rule:evenodd;fill:#411F19;}
	.st2{fill-rule:evenodd;clip-rule:evenodd;fill:#F3F4E1;}
	.st3{fill:#5DB2A5;}
</style>
<path class="st0" d="M50,0c-5.5,0-10,4.5-10,10s4.5,10,10,10s10-4.5,10-10S55.5,0,50,0z M57.5,10v0.8c-1.2-0.4-2.5-0.6-3.8-0.6h-0.6
	c-0.1-0.6-0.4-1.3-0.6-1.9C53.8,7.6,55,6.7,56,5.6C57,6.9,57.5,8.4,57.5,10z M54.6,4.1c-0.9,0.9-2,1.7-3.2,2.2
	c-0.9-1.4-2-2.6-3.4-3.6c0.7-0.1,1.3-0.2,2-0.2C51.7,2.5,53.3,3.1,54.6,4.1z M45.8,3.9c1.5,0.8,2.7,2,3.6,3.4
	c-2.1,0.6-4.3,0.6-6.4,0C43.6,5.9,44.5,4.7,45.8,3.9z M42.5,10V9.2c1.2,0.4,2.5,0.5,3.8,0.5c1.4,0,2.8-0.2,4.1-0.6
	c0.2,0.5,0.4,0.9,0.6,1.4c-2.7,0.6-5,2.1-6.8,4.2C43.1,13.4,42.5,11.7,42.5,10z M45.8,16.1c1.4-1.8,3.4-3,5.6-3.6v1.1
	c0,1.3-0.2,2.5-0.6,3.8H50C48.5,17.5,47,17,45.8,16.1z M53.2,16.7c0.2-1,0.4-2,0.4-3c0-0.5,0-0.9-0.1-1.4h0.2c1.1,0,2.2,0.2,3.2,0.5
	C56.2,14.6,54.9,15.9,53.2,16.7z"/>
<path class="st0" d="M20,3.8c-0.7,0.3-1.5,0.5-2.4,0.6c0.9-0.5,1.5-1.3,1.7-2.2c-0.8,0.5-1.7,0.9-2.6,1c-0.8-0.8-1.9-1.2-3-1.2
	C11.6,2,9.8,3.8,9.8,6c0,0.3,0,0.6,0.1,0.9C6.6,6.8,3.5,5.2,1.5,2.7C1.1,3.3,1,4,1,4.8c0.1,1.4,0.9,2.6,2,3.4
	c-0.6,0-1.6-0.2-1.6-0.5c-0.1,1.9,1.2,3.6,3.1,4c-0.4,0.1-0.8,0.2-1.2,0.1c-0.3,0-0.6,0-0.9-0.1c0.5,1.7,2,2.8,3.7,2.9
	c-1.5,1.1-3.3,1.7-5.1,1.7H0c1.9,1.2,4.1,1.9,6.3,1.9c6.4,0,11.5-5.1,11.5-11.4c0,0,0-0.1,0-0.1V6C18.7,5.4,19.5,4.7,20,3.8z"/>
<path class="st0" d="M22.6,0.1h-1.2c-0.7,0-1.2,0.5-1.2,1.1c0,0,0,0.1,0,0.1v17.2c0,0.7,0.5,1.2,1.1,1.2c0,0,0.1,0,0.1,0h17.2
	c0.7,0,1.2-0.5,1.2-1.1c0,0,0-0.1,0-0.1V1.4c0-0.7-0.5-1.2-1.1-1.2c0,0-0.1,0-0.1,0H22.6z M30,7.5c1.4,0,2.5,1.1,2.5,2.5
	c0,1.4-1.1,2.5-2.5,2.5c-1.4,0-2.5-1.1-2.5-2.5v0C27.5,8.6,28.6,7.5,30,7.5z M37.4,17.4H22.6V10h2.5c0,2.7,2.2,4.9,4.9,4.9
	s4.9-2.2,4.9-4.9h2.5V17.4z M37.4,6.3h-3.7V2.6h3.7V6.3z"/>
<path class="st1" d="M69.9,0.3c-5.4,0-9.9,4.4-9.9,9.9c0,4.2,2.7,8,6.8,9.4c0.3,0.1,0.6,0,0.7-0.3c0-0.1,0-0.1,0-0.2v-1.7
	c-2.8,0.6-3.4-1.3-3.4-1.3c-0.2-0.6-0.6-1.1-1.1-1.4C62.2,14,63.1,14,63.1,14c0.6,0.1,1.2,0.5,1.6,1c0.5,1,1.8,1.4,2.8,0.9
	c0,0,0,0,0.1,0c0.1-0.5,0.3-0.9,0.6-1.3c-2.3-0.2-4.6-1.1-4.6-4.8c0-1,0.4-1.9,1-2.7c-0.3-0.9-0.3-1.8,0.1-2.7c0,0,0.8-0.2,2.8,1
	c0.8-0.1,1.6-0.2,2.4-0.2c0.9,0,1.7,0.1,2.5,0.4c1.9-1.3,2.8-1,2.8-1c0.3,0.8,0.4,1.8,0.1,2.7c0.6,0.7,1,1.7,1,2.7
	c0,3.9-2.3,4.6-4.5,4.8c0.5,0.5,0.7,1.1,0.7,1.8v2.7c0,0.2,0.1,0.6,0.7,0.5c4-1.4,6.7-5.2,6.7-9.4C79.8,4.8,75.4,0.4,69.9,0.3z"/>
<polygon class="st0" points="84.9,9.1 84.9,10.9 86.2,10 "/>
<polygon class="st0" points="89.5,7.8 89.5,5.3 85.3,8.1 87.2,9.4 "/>
<polygon class="st0" points="94.7,8.1 90.5,5.3 90.5,7.8 92.8,9.4 "/>
<polygon class="st0" points="85.3,11.9 89.5,14.7 89.5,12.2 87.2,10.6 "/>
<polygon class="st0" points="90.5,12.2 90.5,14.7 94.7,11.9 92.8,10.6 "/>
<polygon class="st0" points="90,8.7 88.1,10 90,11.3 91.9,10 "/>
<path class="st0" d="M90,0c-5.5,0-10,4.5-10,10s4.5,10,10,10s10-4.5,10-10S95.5,0,90,0z M96.2,11.9V12l0,0l0,0l0,0l0,0l0,0l0,0l0,0
	l0,0l0,0l0,0l0,0l0,0l0,0l-5.7,3.8c-0.2,0.1-0.4,0.1-0.6,0L84.3,12l0,0l0,0l0,0l0,0l0,0l0,0l0,0l0,0l0,0l0,0l0,0l0,0l0,0V8l0,0l0,0
	l0,0l0,0l0,0l0,0l0,0l0,0l0,0l0,0l0,0l0,0l0,0l5.7-3.8c0.2-0.1,0.4-0.1,0.6,0L96,7.7l0,0l0,0l0,0l0,0l0,0l0,0l0,0l0,0l0,0l0,0l0,0V8
	l0,0v3.9L96.2,11.9z"/>
<polygon class="st0" points="95.1,10.9 95.1,9.1 93.8,10 "/>
<path class="st2" d="M109.9,0.3c-5.4,0-9.9,4.4-9.9,9.9c0,4.2,2.7,8,6.8,9.4c0.3,0.1,0.6,0,0.7-0.3c0-0.1,0-0.1,0-0.2v-1.7
	c-2.8,0.6-3.4-1.3-3.4-1.3c-0.2-0.6-0.6-1.1-1.1-1.4c-0.8-0.6,0.1-0.6,0.1-0.6c0.6,0.1,1.2,0.5,1.6,1c0.5,1,1.8,1.4,2.8,0.9
	c0,0,0,0,0.1,0c0.1-0.5,0.3-0.9,0.6-1.3c-2.3-0.2-4.6-1.1-4.6-4.8c0-1,0.4-1.9,1-2.7c-0.3-0.9-0.3-1.8,0.1-2.7c0,0,0.8-0.2,2.8,1
	c0.8-0.1,1.6-0.2,2.4-0.2c0.9,0,1.7,0.1,2.5,0.4c1.9-1.3,2.8-1,2.8-1c0.3,0.8,0.4,1.8,0.1,2.7c0.6,0.7,1,1.7,1,2.7
	c0,3.9-2.3,4.6-4.5,4.8c0.5,0.5,0.7,1.1,0.7,1.8v2.7c0,0.2,0.1,0.6,0.7,0.5c4-1.3,6.8-5.1,6.8-9.4C119.9,4.8,115.4,0.4,109.9,0.3z"
	/>
<path class="st3" d="M140,3.8c-0.7,0.3-1.6,0.5-2.4,0.6c0.9-0.5,1.5-1.3,1.8-2.2c-0.8,0.5-1.7,0.9-2.6,1c-0.8-0.8-1.9-1.2-3-1.2
	c-2.2,0.1-4,1.9-4,4.1c0,0.3,0,0.6,0.1,0.9c-3.3-0.1-6.4-1.6-8.5-4.2c-0.4,0.6-0.5,1.4-0.5,2.1c0.1,1.4,0.9,2.6,2,3.4
	c-0.6,0-1.6-0.2-1.6-0.5c-0.1,1.9,1.2,3.6,3.1,4c-0.4,0.1-0.8,0.1-1.2,0.1c-0.3,0-0.6,0-0.9-0.1c0.5,1.7,2,2.8,3.7,2.9
	c-1.5,1.1-3.3,1.8-5.1,1.7H120c1.9,1.2,4.1,1.9,6.4,1.9c6.4,0,11.6-5.1,11.6-11.5c0,0,0,0,0,0V6C138.8,5.4,139.5,4.7,140,3.8z"/>
<path class="st1" d="M159.3,6.6c0-4.3-2.8-5.6-2.8-5.6c-1.4-0.7-3.9-0.9-6.5-1H150c-2.6,0-5,0.3-6.4,1c0,0-2.8,1.3-2.8,5.6
	c0,1,0,2.2,0,3.4c0.1,4.2,0.8,8.4,4.7,9.5c1.8,0.5,3.4,0.6,4.6,0.5c2.3-0.1,3.5-0.8,3.5-0.8l-0.1-1.6c0,0-1.6,0.5-3.4,0.4
	c-1.8-0.1-3.7-0.2-4-2.4c0-0.2,0-0.4,0-0.6c0,0,1.8,0.4,4,0.5c1.4,0.1,2.7-0.1,4-0.2c2.5-0.3,4.7-1.8,5-3.3
	C159.4,9.8,159.3,6.6,159.3,6.6z M156,12.2h-2.1V7.1c0-1.1-0.5-1.6-1.4-1.6c-1,0-1.5,0.6-1.5,1.9v2.8H149V7.4c0-1.3-0.5-1.9-1.5-1.9
	c-0.9,0-1.4,0.5-1.4,1.6v5.1H144V6.9c0-1.1,0.3-1.9,0.8-2.6c0.6-0.6,1.3-1,2.2-1c1.1,0,1.9,0.4,2.4,1.2l0.5,0.9l0.5-0.9
	c0.5-0.8,1.3-1.2,2.4-1.2c0.9,0,1.7,0.3,2.2,1c0.5,0.6,0.8,1.5,0.8,2.6V12.2z"/>
</svg>
