<?xml version="1.0" encoding="utf-8"?>
<!-- Generator: Adobe Illustrator 23.1.1, SVG Export Plug-In . SVG Version: 6.00 Build 0)  -->
<svg version="1.1" id="Layer_1" xmlns="http://www.w3.org/2000/svg" xmlns:xlink="http://www.w3.org/1999/xlink" x="0px" y="0px"
	 viewBox="0 0 16.4 16" style="enable-background:new 0 0 16.4 16;" xml:space="preserve">
<style type="text/css">
	.st0{fill-rule:evenodd;clip-rule:evenodd;}
</style>
<path class="st0" d="M8.2,0C3.7,0,0,3.7,0,8.2c0,3.6,2.4,6.7,5.6,7.8c0.4,0.1,0.6-0.2,0.6-0.4s0-0.7,0-1.4c-2.3,0.5-2.8-1.1-2.8-1.1
	c-0.4-0.9-0.9-1.2-0.9-1.2c-0.7-0.5,0.1-0.5,0.1-0.5c0.8,0.1,1.3,0.8,1.3,0.8c0.7,1.3,1.9,0.9,2.4,0.7c0.1-0.5,0.3-0.9,0.5-1.1
	C4.9,11.6,3,10.9,3,7.8c0-0.9,0.3-1.6,0.8-2.2c-0.1-0.2-0.4-1,0.1-2.2c0,0,0.7-0.2,2.3,0.8C6.8,4.1,7.5,4,8.2,4s1.4,0.1,2.1,0.3
	c1.6-1.1,2.3-0.8,2.3-0.8c0.4,1.1,0.2,2,0.1,2.2c0.5,0.6,0.8,1.3,0.8,2.2c0,3.2-1.9,3.8-3.7,4c0.3,0.3,0.6,0.8,0.6,1.5
	c0,1.1,0,2,0,2.3c0,0.2,0.1,0.5,0.6,0.4c3.3-1.1,5.6-4.2,5.6-7.8C16.4,3.7,12.7,0,8.2,0z"/>
</svg>
