<svg xmlns="http://www.w3.org/2000/svg" width="16" height="16" viewBox="0 0 16 16"><path d="M3.9 7.29v1.42L4.97 8 3.9 7.29zM7.58 6.26V4.27L4.24 6.49l1.49 1 1.85-1.23zM11.76 6.49L8.43 4.27v1.99l1.84 1.23 1.49-1zM4.24 9.51l3.34 2.22V9.74L5.73 8.51l-1.49 1zM8.43 9.74v1.99l3.33-2.22-1.49-1-1.84 1.23zM8 6.99L6.5 8 8 9.01 9.5 8 8 6.99z"/><path d="M8 0a8 8 0 108 8 8 8 0 00-8-8zm5 9.51a.09.09 0 010 .05V9.71l-4.52 3a.45.45 0 01-.48 0l-4.52-3v-.15a.09.09 0 010-.05V6.26l4.52-3a.42.42 0 01.48 0l4.52 3v.07z"/><path d="M12.1 8.71V7.29L11.03 8l1.07.71z"/></svg>