<?xml version="1.0" encoding="UTF-8"?><svg id="a" xmlns="http://www.w3.org/2000/svg" viewBox="0 0 20.16 20.16"><path d="M6.73,2.04c-.86.04-1.45.18-1.96.38-.53.21-.98.49-1.43.94-.45.45-.72.9-.93,1.43-.2.52-.33,1.1-.37,1.96-.04.86-.05,1.14-.04,3.34,0,2.2.01,2.47.06,3.34.04.86.18,1.45.38,1.96.21.53.49.98.94,1.43.45.45.9.72,1.44.93.51.2,1.1.33,1.96.37.86.04,1.14.05,3.34.04,2.2,0,2.47-.01,3.34-.05.86-.04,1.45-.18,1.96-.38.53-.21.98-.49,1.43-.94.45-.45.72-.9.93-1.44.2-.51.33-1.1.37-1.96.04-.86.05-1.14.04-3.34,0-2.2-.01-2.47-.06-3.34-.04-.86-.18-1.45-.38-1.96-.21-.53-.49-.98-.94-1.43-.45-.45-.9-.72-1.44-.93-.51-.2-1.1-.34-1.96-.37-.86-.04-1.14-.05-3.34-.04-2.2,0-2.47.01-3.34.06M6.33,10.11c0,2.07,1.69,3.75,3.76,3.74,2.07,0,3.75-1.69,3.75-3.76,0-2.07-1.69-3.75-3.76-3.74-2.07,0-3.75,1.69-3.74,3.76" fill="none" stroke="#14303f" stroke-linecap="round" stroke-linejoin="round" stroke-width="1.01"/><path d="M13.74,5.37c0,.59.48,1.06,1.07,1.06.59,0,1.06-.48,1.06-1.07,0-.59-.48-1.06-1.07-1.06s-1.06.48-1.06,1.07" fill="#14303f"/></svg>