<svg xmlns="http://www.w3.org/2000/svg" viewBox="0 0 20.16 20.16"><path fill="none" stroke="#14303f" stroke-linecap="round" stroke-linejoin="round" stroke-width="1.01" d="M14.96 3.49c-1.98 1.49-4.1 4.51-4.88 6.12C9.3 7.99 7.17 4.97 5.2 3.49c-1.43-1.07-3.74-1.9-3.74.74 0 .53.3 4.44.48 5.07.62 2.21 2.86 2.77 4.85 2.43-3.49.6-4.37 2.57-2.46 4.54 3.64 3.74 5.23-.94 5.63-2.14.08-.22.11-.32.11-.23 0-.09.04.01.11.23.41 1.2 2 5.88 5.63 2.14 1.91-1.97 1.03-3.94-2.46-4.54 1.99.34 4.24-.22 4.85-2.43.18-.63.48-4.54.48-5.07 0-2.64-2.31-1.81-3.74-.74Z"/></svg>