<?xml version="1.0" encoding="UTF-8"?><svg id="Layer_1" xmlns="http://www.w3.org/2000/svg" width="70" height="70" viewBox="0 0 70 70"><path d="M67.29,23.06c0-15.02-9.78-19.57-9.78-19.57C52.62,1.05,43.88,.35,34.8,0h0C25.71,0,17.33,1.05,12.44,3.49c0,0-9.78,4.54-9.78,19.57v11.88c.35,14.67,2.8,29.35,16.42,33.19,6.29,1.75,11.88,2.1,16.07,1.75,8.04-.35,12.23-2.8,12.23-2.8l-.35-5.59s-5.59,1.75-11.88,1.4c-6.29-.35-12.93-.7-13.98-8.39v-2.1s6.29,1.4,13.98,1.75c4.89,.35,9.43-.35,13.98-.7,8.73-1.05,16.42-6.29,17.47-11.53,1.05-7.69,.7-18.87,.7-18.87Zm-11.53,19.57h-7.34V24.81c0-3.84-1.75-5.59-4.89-5.59-3.49,0-5.24,2.1-5.24,6.64v9.78h-6.99v-9.78c0-4.54-1.75-6.64-5.24-6.64-3.14,0-4.89,1.75-4.89,5.59v17.82h-7.34V24.11c0-3.84,1.05-6.64,2.8-9.08,2.1-2.1,4.54-3.49,7.69-3.49,3.84,0,6.64,1.4,8.39,4.19l1.75,3.14,1.75-3.14c1.75-2.8,4.54-4.19,8.39-4.19,3.14,0,5.94,1.05,7.69,3.49,1.75,2.1,2.8,5.24,2.8,9.08v18.52h.7Z" fill="#14303f"/></svg>
