<?xml version="1.0" encoding="UTF-8"?><svg id="a" xmlns="http://www.w3.org/2000/svg" viewBox="0 0 20.16 20.16"><path d="M19.4,4.16c-.65.28-1.49.47-2.24.56.84-.47,1.4-1.21,1.68-2.05-.75.47-1.58.84-2.42.93-.75-.75-1.77-1.12-2.8-1.12-2.05.09-3.73,1.77-3.73,3.82,0,.28,0,.56.09.84-3.08-.09-5.97-1.49-7.92-3.91-.37.56-.47,1.31-.47,1.96.09,1.31.84,2.42,1.86,3.17-.56,0-1.49-.19-1.49-.47-.09,1.77,1.12,3.36,2.89,3.73-.37.09-.75.09-1.12.09-.28,0-.56,0-.84-.09.47,1.58,1.86,2.61,3.45,2.7-1.4,1.02-3.08,1.68-4.75,1.58h-.83c1.77,1.12,3.82,1.77,5.97,1.77,5.97,0,10.81-4.75,10.81-10.72h0v-.75c.75-.56,1.4-1.21,1.86-2.05h0Z" fill="none" stroke="#14303f" stroke-linecap="round" stroke-linejoin="round" stroke-width="1.01"/></svg>