<svg xmlns="http://www.w3.org/2000/svg" width="1100" height="430" viewBox="0 0 1100 430"><defs><linearGradient id="a" x1="548.78" y1="443.87" x2="548.78" y2="-15.63" gradientUnits="userSpaceOnUse"><stop offset="0" stop-color="#256d88"/><stop offset="1" stop-color="#203763"/></linearGradient><linearGradient id="d" x1="438.68" y1="295.88" x2="656.31" y2="113.26" gradientUnits="userSpaceOnUse"><stop offset="0" stop-color="#ee2ed3"/><stop offset="1" stop-color="#0acbff"/></linearGradient><clipPath id="b"><path d="M-7.5-472.5c119.38 25.58 285.87 233.13 263.94 317.08H-7.5z" fill="none"/></clipPath><clipPath id="c"><path d="M-35.74-373.34s86-108 112.46-47.42-86.87 118.82 28.12 276c31.78 43.45-119.27-10.68-119.27-10.68z" fill="none"/></clipPath></defs><path fill="url(#a)" d="M-17.8-15.63h1133.16v459.51H-17.8z"/><circle cx="53.76" cy="30.29" r="2.84" fill="#fff"/><circle cx="182" cy="247.67" r="2.84" fill="#fff"/><circle cx="335.33" cy="68.87" r="2.84" fill="#fff"/><circle cx="74.8" cy="378.81" r="2.84" fill="#fff"/><circle cx="356.89" cy="313.98" r="2.84" fill="#fff"/><circle cx="36.74" cy="212.95" r="2.84" fill="#fff"/><circle cx="961.04" cy="26.95" r="2.84" fill="#fff"/><circle cx="998.1" cy="254.48" r="2.84" fill="#fff"/><circle cx="816.15" cy="237.79" r="2.84" fill="#fff"/><circle cx="765.46" cy="41.64" r="2.84" fill="#fff"/><circle cx="927.82" cy="188.09" r="2.84" fill="#fff"/><circle cx="1072.89" cy="345.96" r="2.84" fill="#fff"/><circle cx="930.66" cy="388.7" r="2.84" fill="#fff"/><circle cx="718.99" cy="329.27" r="2.84" fill="#fff"/><circle cx="844.02" cy="119.94" r="2.84" fill="#fff"/><circle cx="1053.86" cy="29.79" r="2.84" fill="#fff"/><circle cx="1048.18" cy="122.77" r="2.84" fill="#fff"/><circle cx="238.48" cy="132.05" r="2.84" fill="#fff"/><circle cx="215.96" cy="354.43" r="2.84" fill="#fff"/><circle cx="226.87" cy="20.46" r="2.84" fill="#fff"/><circle cx="172.13" cy="80.77" r="1.63" fill="#fff" opacity=".6"/><circle cx="104.78" cy="170.1" r="1.63" fill="#fff" opacity=".6"/><circle cx="104.78" cy="52.65" r="1.63" fill="#fff" opacity=".6"/><circle cx="160.08" cy="123.36" r="1.63" fill="#fff" opacity=".6"/><circle cx="335.33" cy="102.49" r="1.63" fill="#fff" opacity=".6"/><circle cx="361.85" cy="32.13" r="1.63" fill="#fff" opacity=".6"/><circle cx="277.77" cy="26.95" r="1.63" fill="#fff" opacity=".6"/><circle cx="344.52" cy="256.04" r="1.63" fill="#fff" opacity=".6"/><circle cx="250.5" cy="293.15" r="1.63" fill="#fff" opacity=".6"/><circle cx="279.4" cy="330.08" r="1.63" fill="#fff" opacity=".6"/><circle cx="194.65" cy="379.59" r="1.63" fill="#fff" opacity=".6"/><circle cx="17.58" cy="340.34" r="1.63" fill="#fff" opacity=".6"/><circle cx="128.57" cy="285.48" r="1.63" fill="#fff" opacity=".6"/><circle cx="105.83" cy="415.27" r="1.63" fill="#fff" opacity=".6"/><circle cx="258.66" cy="188.24" r="1.63" fill="#fff" opacity=".6"/><circle cx="39.58" cy="107.07" r="1.63" fill="#fff" opacity=".6"/><circle cx="197.55" cy="203.7" r="1.63" fill="#fff" opacity=".6"/><circle cx="50.81" cy="268.97" r="1.63" fill="#fff" opacity=".6"/><circle cx="788.51" cy="166.59" r="1.63" fill="#fff" opacity=".6"/><circle cx="883.47" cy="237.79" r="1.63" fill="#fff" opacity=".6"/><circle cx="1007.67" cy="187.53" r="1.63" fill="#fff" opacity=".6"/><circle cx="920.27" cy="135.27" r="1.63" fill="#fff" opacity=".6"/><circle cx="740.46" cy="92.99" r="1.63" fill="#fff" opacity=".6"/><circle cx="846.86" cy="19.31" r="1.63" fill="#fff" opacity=".6"/><circle cx="706.54" cy="29.79" r="1.63" fill="#fff" opacity=".6"/><circle cx="906.83" cy="239.42" r="1.63" fill="#fff" opacity=".6"/><circle cx="1018.01" cy="313.98" r="1.63" fill="#fff" opacity=".6"/><circle cx="1075.73" cy="236.16" r="1.63" fill="#fff" opacity=".6"/><circle cx="897.55" cy="56.79" r=".81" fill="#fff" opacity=".6"/><circle cx="995.26" cy="78.99" r="1.63" fill="#fff" opacity=".6"/><circle cx="1082.47" cy="57.6" r="1.63" fill="#fff" opacity=".6"/><circle cx="797.48" cy="312.36" r="1.63" fill="#fff" opacity=".6"/><circle cx="861.42" cy="391.54" r="1.63" fill="#fff" opacity=".6"/><circle cx="1030.45" cy="408.03" r="1.63" fill="#fff" opacity=".6"/><circle cx="908.45" cy="315.61" r="1.63" fill="#fff" opacity=".6"/><circle cx="213.12" cy="264.96" r="2.84" fill="#fff"/><circle cx="346.14" cy="116.65" r="2.84" fill="#fff"/><circle cx="374.58" cy="285.48" r="2.84" fill="#fff"/><circle cx="172.13" cy="10.38" r="2.84" fill="#fff"/><circle cx="53.76" cy="406.41" r="2.84" fill="#fff"/><circle cx="963.88" cy="162.68" r="2.84" fill="#fff"/><circle cx="918.64" cy="91.37" r="2.84" fill="#fff"/><circle cx="1051.02" cy="158.04" r="2.84" fill="#fff"/><circle cx="786.88" cy="266.59" r="2.84" fill="#fff"/><circle cx="947.3" cy="373.99" r="2.84" fill="#fff"/><circle cx="905.2" cy="201.75" r="1.63" fill="#fff" opacity=".6"/><circle cx="765.46" cy="74.97" r="1.63" fill="#fff" opacity=".6"/><circle cx="875.16" cy="29.79" r="1.63" fill="#fff" opacity=".6"/><circle cx="796.1" cy="156.57" r="1.63" fill="#fff" opacity=".6"/><circle cx="813.31" cy="172.94" r="1.63" fill="#fff" opacity=".6"/><circle cx="721.83" cy="297.53" r="1.63" fill="#fff" opacity=".6"/><circle cx="885.09" cy="332.11" r="1.63" fill="#fff" opacity=".6"/><circle cx="1077.35" cy="82.39" r="1.63" fill="#fff" opacity=".6"/><circle cx="1056.7" cy="250.51" r="1.63" fill="#fff" opacity=".6"/><circle cx="886.72" cy="285.48" r="1.63" fill="#fff" opacity=".6"/><circle cx="1031.13" cy="373.99" r="1.63" fill="#fff" opacity=".6"/><circle cx="966.72" cy="398.88" r="1.63" fill="#fff" opacity=".6"/><circle cx="955.56" cy="294.77" r="1.63" fill="#fff" opacity=".6"/><circle cx="1094.12" cy="409.66" r="1.63" fill="#fff" opacity=".6"/><circle cx="280.97" cy="106.43" r="1.63" fill="#fff" opacity=".6"/><circle cx="169.29" cy="168.48" r="1.63" fill="#fff" opacity=".6"/><circle cx="417.23" cy="13.22" r="1.63" fill="#fff" opacity=".6"/><circle cx="103.15" cy="35.38" r="1.63" fill="#fff" opacity=".6"/><circle cx="213.12" cy="66.03" r="1.63" fill="#fff" opacity=".6"/><circle cx="15.95" cy="52.65" r="1.63" fill="#fff" opacity=".6"/><circle cx="88.18" cy="104.8" r="1.63" fill="#fff" opacity=".6"/><circle cx="19.2" cy="7.55" r="1.63" fill="#fff" opacity=".6"/><circle cx="332.49" cy="200.12" r="1.63" fill="#fff" opacity=".6"/><circle cx="101.52" cy="221.19" r="1.63" fill="#fff" opacity=".6"/><circle cx="15.95" cy="155.5" r="1.63" fill="#fff" opacity=".6"/><circle cx="272.04" cy="236.16" r="1.63" fill="#fff" opacity=".6"/><circle cx="248.87" cy="385.3" r="1.63" fill="#fff" opacity=".6"/><circle cx="195.92" cy="308.63" r="1.63" fill="#fff" opacity=".6"/><circle cx="128.57" cy="345.81" r="1.63" fill="#fff" opacity=".6"/><circle cx="49.18" cy="385.3" r="1.63" fill="#fff" opacity=".6"/><circle cx="107.45" cy="300.35" r="1.63" fill="#fff" opacity=".6"/><circle cx="184.47" cy="119.49" r="2.84" fill="#fff"/><circle cx="151.31" cy="144.19" r="2.84" fill="#fff"/><path d="M336.36 356.21c-25.89-35.57-31.94-86.16-18-150.36 12-55.23 3.52-104.21-25.27-145.59-22.85-32.83-57.68-60-103.75-81-31.62-2.53-63.38-.1-95.08.23 37.43 8.1 129.72 33.92 174.27 98 23.78 34.23 30.69 75.27 20.52 122-15.88 72.93-8.14 131.61 23 174.4 40.62 55.68 57.03 27.26 24.31-17.68z" fill="#fff"/><path d="M293.76 340.33s11.54-13.66 28.87-8.62M289.05 326.57s11.54-13.67 28.87-8.63M285 311.15s11.54-13.67 28.87-8.63M282.72 294.77a27.6 27.6 0 0128.86-6.58M281 278.74a32 32 0 0130.13-4.93M281.15 262.12s12.17-9.9 30-4M282.15 243.9s12.18-8.4 30-2.51M284 225.47s13.56-5.9 31.38 0M287.72 207.24s11-5.89 28.88 0M291.72 188.93s11-5.9 28.88 0M293.34 172.53s11.05-5.9 28.88 0M294.58 155.87s10.62-6.65 28.81-2M292.75 140.64s9.52-8.15 28.2-6.25M289.67 123.53s9-8.67 27.79-7.84M284.65 106.69s8.18-9.49 26.94-10.42M277 90.88s7.14-10.29 25.7-13.17M267 75s6.45-10.74 24.77-14.85M256.31 59.85S262 48.7 280 43.35M241.36 45.23s5.22-11.39 23-17.51M224 32.06s5.21-11.39 23-17.52M208.05 20.46s5.21-11.39 23-17.52M190.16 10.38s5.22-11.39 23-17.52M299.43 353.23s11.57-13.67 28.87-8.63" fill="none" stroke="#afafaf" stroke-miterlimit="10" stroke-width="4.5"/><path d="M336.36 356.21c-25.89-35.57-31.94-86.16-18-150.36 12-55.23 3.52-104.21-25.27-145.59-22.85-32.83-57.68-60-103.75-81-31.62-2.53-63.38-.1-95.08.23 37.43 8.1 129.72 33.92 174.27 98 23.78 34.23 30.69 75.27 20.52 122-15.88 72.93-8.14 131.61 23 174.4 40.62 55.68 57.03 27.26 24.31-17.68z" fill="none" stroke="#222229" stroke-linecap="round" stroke-linejoin="round" stroke-width="4.5"/><path d="M547.59 16.38c-224.91 0-120.74 309-120.74 309h239.9s105.75-309-119.16-309z" fill="#222229"/><path d="M671.38 249.51c-.65-14-1.73-28-2.43-41.76-3.87-19.24 1.67-36-7.16-59.69-14.53-38.18-115.65-78.87-115.65-78.87s-107.9 35.87-121.34 88.87c-2.3 14.55 3 29.48 1.44 42.1h-.47c-1.71 13.74-3 26.37-3.79 38l.11 4.75c-.11 1.66-.21 3.32-.29 4.94l.39-.06.95 44.57c0 4.49.33 9.55.87 15.08 5.73 31.53 19.38 51.64 41.55 69 63.14 54.59 151.22 16.7 162.91.42 29.71-21.89 40-52.11 42.66-85v-1.36z" fill="#26cbff"/><path d="M449.62 170.69s-17.21 13-10.8 72.25c3.37 31.18-14.7-64.7-14.7-64.7l25.5-7.55" fill="#222229"/><path d="M524.55 173.46s-8.55-17.64-21.62-19.79-11.8-13.76 6.91-8.6 30.65 18.24 28.51 37 30.1-3.54 30.1-3.54-6.74-16.22 6.78-22.24 23-.86 31.59-7.74-18.28-71.59-60.68-79.32c0 0-51.42 23.47-63.61 29.06s-44.21 59.8-13.06 68.32 55.8 5.56 55.8 5.56M659.82 238.33s4.77 93.11-25.5 133.61c0 0 24.38-21.81 32.08-48.31s2.6-115.88 2.6-115.88l-9.13 30.58" fill="#fff" opacity=".5"/><path d="M593.33 325.34s-2.8-3.3 2.19 0c7.33 4.85 14.31-4.5 6.8-5.36-3.74-.42-18.89-11.85-27.09-17.17s-18 2.51-24.32 2.51-15.88-5.21-20.24-4.55-23.23 12.34-9.57-8.92c8.65-13.46 14.65-20.66 23.3-20s10.71-8.44 24.65 1.1c0 0 21-6.36 34.44 5.22 7.79 6.73 23.79-19 36.44-7.32s-3.79 101.45-30.85 118.46S531.91 392 530.83 378s45.93-27 47.39-32.95-22.5-10.32-22.5-10.32 24 1.13 37.61-9.42M488.39 271c-1.84-4.64-29.6-1.05-27.22 5.28s9.87 13.73 16.42 9.5 12.68-10.02 10.8-14.78zM535.33 190.6l-8.76 36.08s3.18 12.14 11.78 12.4 24 7.16 21 15.67 12.32 13.34 19.89 10.85c2.47-.81 5.42-8.31-1.06-19.92s-16.79-60.8-16.79-60.8zM513 177.66c-3.52-6.45-44-5.91-44-5.91s-6.92 14.5 3.3 15.51l-2.13 2.6s1.62 7.41 7.64 8.84 1 4.53-7.64 3.8c-16.06-1.34-31.15 7.84-31 21s4.2 30.05 12.42 30.12 56 1.93 58.71-56.27c.06.03 10.7-5.02 2.7-19.69z" fill="#fff" opacity=".5"/><path d="M450.54 181c2.88-.14-5.86 31.86-8.62 30.79s5.75-30.61 8.62-30.79zM634.49 170.78s12.56 28.75 8.22 30.53-14.15-5.37-13.19-1.57 16.29 19.86 20.7 14.15-4.64-45.21-4.64-45.21z" fill="#fff" opacity=".5"/><path d="M631 132.07c1.7 6.7 17.95 30 15.39 36.61S656 176.93 652 164s-22.74-38.64-21-31.93zM600.65 168.68s11.08 5.75 11.08 13.83L607 199.83s-8.38 3.48 2.42 3.28 33.79 11.88 32.43 26.65-7.75 23.16-28 23.24-36.19-5-39.11-15.28-15.06-52.84-15.06-52.84l23.61-13.14z" fill="#fff" opacity=".5"/><path d="M648.79 172.59s15.15 43 2.57 71.3S669 207.75 669 207.75l-2.55-32.84z" fill="#222229"/><circle cx="487.8" cy="189.86" r="9.97" fill="#4c3b38"/><circle cx="487.8" cy="188.26" r="5.27" fill="#222229"/><path d="M513.72 198.33h-.05l-11.42-.25s6.69-4.09 2.63-8.26a19.9 19.9 0 00-11.72-6.44c-13-1.91-25.05 8.4-25.17 8.5s11.12-14.94 26.2-12.72c8.59 1.26 15.57 6.33 21.47 15.66a2.29 2.29 0 01-1.94 3.51z" fill="#222229"/><circle cx="606.97" cy="189.86" r="9.97" fill="#4c3b38"/><circle cx="606.97" cy="188.26" r="5.27" fill="#222229"/><path d="M581.05 198.33h.05l11.42-.25s-6.69-4.09-2.63-8.26a19.9 19.9 0 0111.72-6.44c13-1.91 25 8.4 25.17 8.5s-11.12-14.94-26.2-12.72c-8.59 1.26-15.57 6.33-21.47 15.66a2.29 2.29 0 001.94 3.51z" fill="#222229"/><ellipse cx="530.83" cy="258.63" rx="7.47" ry="4.28" transform="rotate(-45 530.838 258.63)" fill="#222229"/><ellipse cx="564.31" cy="258.63" rx="4.28" ry="7.47" transform="rotate(-45 564.31 258.635)" fill="#222229"/><path d="M563.06 263.11l-2.69-10.47c-1.91.36-7 2.26-7.37 6.54-.35 3.63-2.65 5.41-5.41 5.41s-5.06-1.78-5.41-5.41c-.41-4.28-5.46-6.18-7.37-6.54l-2.69 10.47c4.12-2.15 9.74 3.49 15.47 3.49s11.58-6.11 15.47-3.49zM517.62 245.94S505 264.26 521.86 270s-23.23 12.62-8.84-21.59 4.6-2.47 4.6-2.47zM575.58 245.94s12.67 18.32-4.24 24.07 23.24 12.62 8.84-21.59-4.6-2.48-4.6-2.48z" fill="#222229"/><circle cx="492.52" cy="188.26" r="2.33" fill="#fff"/><circle cx="611.73" cy="188.26" r="2.33" fill="#fff"/><path d="M671.41 197.38l-.58 92.2c.5 66-55.43 114.59-124.34 114.59s-123.15-46.76-123.65-112.72l-2-92.2" fill="none" stroke="#222229" stroke-miterlimit="10" stroke-width="4.07"/><path d="M599.23 324.92s-4.13 2.17-12.89-3.37-13.16-8.56-24.63-6a49.15 49.15 0 01-25 0c-11.47-2.55-15.87.48-24.63 6s-12.89 3.37-12.89 3.37" fill="none" stroke="#222229" stroke-linecap="round" stroke-miterlimit="10" stroke-width="4.07"/><path fill="#fff" d="M534.57 182.51l1.65 4.75 6.15-4.75h-7.8z"/><path d="M423.45 176.1l.54-3.42c-.5-66 122.15-103.49 122.15-103.49s120.25 35.69 120.74 101.65l2 3.43" fill="none" stroke="#222229" stroke-miterlimit="10" stroke-width="4.07"/><path d="M466.2 172.09c20.7-1.1 53.34 5.65 55.36 7.44 5.39.59 36.69 3.05 46.93 3.79 0 0 5.49-6.34 11.57-8.37 8.68-2.89 26.22-4 46.93-2.86 17.23.92 55.33 8.34 55.33 7.36l.58-7.4c0-1-.77-1.57-1.78-1.78L664 166.59c-9.09-2.58-26.06-4.1-36.2-4.65-10.57-.57-36.71-1.39-50.93 3.35a36.28 36.28 0 00-9 4.33h-.07l-.57.39a39.16 39.16 0 01-20.61 6.17c-9.25.12-18.06-4.64-21.35-6.65-.44-.29-.88-.57-1.35-.85a38 38 0 00-7.56-3.42c-14.22-4.74-40.36-3.92-50.93-3.35-10.14.55-27.12 2.07-36.21 4.65l-17.13 3.68c-1 .21-1.78.8-1.78 1.78l.87 6.89s40.1-6.02 55.02-6.82z" fill="#fff"/><path d="M574.25 174.91s-6.78 14.39-4.86 22.47c2.59 10.93 7.84 46.22 25.63 52.55l-9.47-3.05-12.82-16.18-11.3-35.42 7-16.79zM424.12 178.24s-13.75-6.09-13.62-3.85c.25 4.18-.38 10.33-.08 12.28s6.13-.86 6.66 4.76c.29 3.05 7.04-13.19 7.04-13.19zM676.15 191.43c.54-5.62 6.37-2.82 6.67-4.76s-.33-8.1-.09-12.28c.14-2.24-13.61 3.85-13.61 3.85s6.74 16.24 7.03 13.19zM497.37 250.08l-.63-1.93c10.26-3.34 21.57-22.29 26.88-45.06l.07-.28c2.17-9.29 2.71-20.61-12.52-25.68l.65-1.93c17 5.65 16 18.73 13.85 28.08l-.06.27c-5.56 23.8-17.17 42.93-28.24 46.53zM646 253l-2.39-3.91c7-4.25 16.18-26.06 18-48.88.72-8.8-1-15.42-5.08-19.69-5.25-5.48-12.7-5.25-12.77-5.25l-.18-4.58c.38 0 9.59-.29 16.26 6.66 5 5.26 7.17 13.07 6.34 23.23-1.82 22.88-11.08 46.88-20.18 52.42zM447.24 253c-9.09-5.54-18.35-29.54-20.22-52.42-.83-10.16 1.31-18 6.35-23.23 6.66-6.95 15.86-6.67 16.25-6.66l-.17 4.58.08-2.29-.08 2.29c-.07 0-7.61-.18-12.81 5.29-4.07 4.27-5.77 10.88-5.05 19.65 1.86 22.82 11.06 44.63 18 48.88z" fill="#fff"/><path d="M681.12 172.81L664 169.13c-9.09-2.57-26.06-4.1-36.2-4.65-10.57-.57-36.71-1.39-50.93 3.36a35.93 35.93 0 00-9 4.33l-.07.05-.57.4a39.25 39.25 0 01-20.61 6.17c-9.25.11-18.06-4.64-21.35-6.65-.44-.29-.88-.58-1.35-.86a38 38 0 00-7.56-3.42c-14.22-4.75-40.36-3.93-50.93-3.36-10.14.55-27.12 2.08-36.21 4.65l-17.13 3.68c-1 .22-1.78.8-1.78 1.78v7.64a1.78 1.78 0 001.78 1.78s5.11-.29 5.11 9.64a8.88 8.88 0 00.06 1.1c.78 20.14 8.88 47.82 17.39 56.34 6.32 6.32 22.86 9.4 39.28 9.4 10.54 0 21-1.27 28.73-3.77 9.51-3.09 17.63-11.72 24.11-25.63a126.73 126.73 0 008.23-24.67l.06-.27c.33-1.42.77-3.28 1.1-5.43s2.33-9.32 10.41-9.32 10.51 10.22 10.51 10.22c.31 1.77.67 3.31 1 4.53l.06.27a126.73 126.73 0 008.29 24.65c6.48 13.91 14.59 22.54 24.11 25.63 7.7 2.5 18.19 3.77 28.73 3.77 16.42 0 33-3.08 39.28-9.4 8.51-8.52 16.61-36.2 17.38-56.34a8.72 8.72 0 00.07-1.1c0-9.93 5.11-9.64 5.11-9.64a1.78 1.78 0 001.78-1.78v-7.64c.01-.98-.76-1.59-1.77-1.78zm-155.93 31l-.07.27c-5.46 23.43-15.05 39.48-25.63 42.92-8.33 2.7-21.2 3.86-33.58 3-13.29-.91-21.67-3.75-24.08-6.16-7.25-7.25-16-39.8-12.41-57.19 2.06-10 17.16-11 36.78-12.06 20.7-1.1 38.25 0 46.92 2.85 15.61 5.26 14.41 16.38 12.07 26.41zm126.17 40c-2.41 2.41-10.79 5.25-24.08 6.16-12.38.85-25.25-.31-33.58-3-10.59-3.44-20.17-19.49-25.64-42.92l-.06-.27c-2.34-10-3.54-21.15 12.06-26.36 8.68-2.89 26.22-4 46.93-2.85 19.62 1 34.72 2 36.78 12.06 3.55 17.46-5.17 50.01-12.41 57.26z" fill="#222229"/><path d="M887.37 472.09s-29.31-88.09-68.63-102.2-280.31-48-280.31-48c-50.18 7.31-241.77 35.73-275.88 48-39.32 14.11-66.35 102.2-66.35 102.2l347.13 24.72z" fill="#fff" stroke="#222229" stroke-linecap="round" stroke-linejoin="round" stroke-width="4.5"/><path d="M548.71 320.16c-50.18 7.32-252 37.48-286.16 49.73-39.32 14.11-66.35 102.2-66.35 102.2l352.51 24.72z" fill="#222229" opacity=".2"/><path d="M417.23 353.23s-144.18 20.5-157.08 39.6-51.08 92-51.08 92M657.08 353.23s151.73 20.5 164.63 39.6 51.08 92 51.08 92" fill="none" stroke="#222229" stroke-linecap="round" stroke-linejoin="round" stroke-width="4.5"/><path d="M398.66 310.73C419.65 391.49 472.93 450 546.14 450c77.76 0 122.62-60.72 136.71-147.33 3.25-20.03-34.56 109.97-284.19 8.06z" fill="#222229" opacity=".2"/><g clip-path="url(#b)"><path fill="none" stroke="#fc5b41" stroke-miterlimit="10" stroke-width="5.64" d="M-96.74-341.71l271.87 354.4"/></g><g clip-path="url(#c)"><path fill="none" stroke="#ebebeb" stroke-miterlimit="10" stroke-width="5.64" d="M-96.74-341.71l271.87 354.4" opacity=".33"/></g><circle cx="1089.45" cy="55.98" r="139.32" fill="#26cbff"/><path d="M1133.38 167.49a139.32 139.32 0 01-95.1-241.13 139.33 139.33 0 10146.26 231.43 138.89 138.89 0 01-51.16 9.7z" fill="#222229" opacity=".2"/><rect x="347.69" y="193.76" width="18.41" height="49.99" rx="5.65" stroke-width="4.5" stroke="#222229" stroke-linecap="round" stroke-linejoin="round" fill="#d9e6e8"/><rect x="729.62" y="193.76" width="18.41" height="49.99" rx="5.65" stroke-width="4.5" stroke="#222229" stroke-linecap="round" stroke-linejoin="round" fill="#d9e6e8"/><rect x="703.45" y="170.74" width="35.38" height="96.04" rx="10.86" stroke-width="4.5" stroke="#222229" stroke-linecap="round" stroke-linejoin="round" fill="#d9e6e8"/><rect x="356.89" y="170.74" width="35.38" height="96.04" rx="10.86" stroke-width="4.5" stroke="#222229" stroke-linecap="round" stroke-linejoin="round" fill="#d9e6e8"/><path d="M547.42 93c-233.18 7.79-184.82 223.23-5.29 234.91 56.72 2.23 113.32-25.4 144-67.83C752.05 167.92 649.07 92.17 547.42 93z" fill="url(#d)" opacity=".8"/><path d="M422.27 147c-59.27 47.77-29.76 119.2 11.38 148C559.17 382.71 654 282.15 654 282.15 621.47 314.59 399.51 334.31 422.27 147z" fill="#222229" opacity=".2"/><path d="M412.23 154.86c-48.94 47.66-9.12 117.82 32.82 145.41C548.71 368.47 644 288.41 644 288.41c-5.5 45.42-272.48 47.28-231.77-133.55z" fill="#fff" opacity=".4"/><path d="M456.88 127.57c252.29-40.78 229.9 155.31 229.9 155.31 88.65-157.09-143.54-240-250.27-156.49 6.79.26 13.65 2.27 20.37 1.18z" fill="#222229" opacity=".5"/><path d="M547.86-23C393.25-23 374.58 92.7 374.58 192.5c0 119 77.58 215.5 173.28 215.5s173.28-96.48 173.28-215.5C721.14 91.63 702.48-23 547.86-23zm0 344.82c-81.56 0-148.35-55.07-148.35-125.68 0-56.09 66.79-92.13 148.35-92.13s148.35 43.7 148.35 93.82c0 65.38-66.79 124.02-148.35 124.02z" fill="#fff"/><path d="M547.86 320.16c-77.23 0-148.35-53.84-148.35-117.11 0-67.65 70.33-97 147.88-99.34V-23c-154.18.24-172.81 115.8-172.81 215.5 0 118.82 77.33 215.18 172.81 215.5z" fill="#222229" opacity=".2"/><path d="M547.42 102.49h.92c81.56.3 148.12 47.35 147.87 101-.27 56-67 117.89-148.31 117.89h-.6c-81.56-.3-148-62.82-147.79-119 .29-59.83 66.77-99.91 147.91-99.91m0-9.5c-42.34 0-81.63 10.44-110.63 29.37-14.93 9.76-26.66 21.4-34.85 34.62a85.85 85.85 0 00-13.14 45.38c-.07 15.08 4.28 31.12 12.57 46.41 8 14.76 19.75 28.92 33.95 40.94a175.43 175.43 0 00111.93 41.18h.65a175.72 175.72 0 00111.88-40.51c14.26-11.92 26.08-26 34.19-40.63 8.4-15.18 12.88-31.16 12.95-46.2.07-14.77-4.26-29.25-12.87-43-8.17-13.08-19.78-24.86-34.51-35a177.71 177.71 0 00-50.23-23.64A215.53 215.53 0 00548.39 93z" fill="#222229" opacity=".3"/><path d="M547.86-23C393.25-23 374.58 92.7 374.58 192.5c0 119 77.58 215.5 173.28 215.5s173.28-96.48 173.28-215.5C721.14 91.63 702.48-23 547.86-23zm0 343.13c-81.56 0-148.35-61.57-148.35-117.11 0-59.39 66.79-99.34 148.35-99.34S696.21 150 696.21 203.05c0 55.54-66.79 117.11-148.35 117.11z" fill="none" stroke="#222229" stroke-linecap="round" stroke-linejoin="round" stroke-width="4.5"/><path d="M439.88 165.27c-9.83 24.39-8.2 48 3.64 52.79s-6-26.81 20.73-47.86c39.5-31.14 33.86-43.89 14.87-40.43-12.56 2.28-29.41 11.12-39.24 35.5z" fill="#fff" opacity=".5"/><path d="M547.86 343.49c-92 0-167.42-61.16-167.42-123.89 0-67.08 26.61-145.6 167.42-145.6s167.42 85.66 167.42 145.6c0 62.73-75.37 123.89-167.42 123.89z" fill="none" stroke="#222229" stroke-linecap="round" stroke-linejoin="round" stroke-width="4.5"/><path fill="#d9e6e8" stroke="#222229" stroke-linecap="round" stroke-linejoin="round" stroke-width="4.5" d="M547.89 363.8v30.02M557.04 368.06v21.51M565.74 372.95v12.35M529.42 372.95v12.35M538.69 368.06v21.51"/><circle cx="601.78" cy="366.5" r="7.5" fill="#b22b4b"/><circle cx="622.3" cy="357.69" r="7.5" fill="#389e26"/><circle cx="641.71" cy="346.93" r="7.5" fill="#3987bc"/><path d="M396.51 297.53s-7.3 88.89 76.61 88.89c36.72 0 31.91-39.49 0-39.49-44.23 0-76.61-49.4-76.61-49.4zM464.65 347.36s-22.08 18.64 0 38.27M443.83 339.86s-22 19.14-2.42 41.25M484.63 348.94s-19.62 15.37 2.47 35M426.1 328.82s-19.63 6.42-10.61 34M409.86 314s-11.75 2-10 16.91" fill="#fff" stroke="#222229" stroke-linecap="round" stroke-linejoin="round" stroke-width="4.5"/></svg>