<svg xmlns="http://www.w3.org/2000/svg" viewBox="0 0 800 860"><path d="M86.91 123.47c-.18-.94-1.69-2.32-2.23-3.09a64.16 64.16 0 0 1-11.05-47.52c1.63-11.16 4.1-22.08 1.62-33.33-2.16-9.81-9-30.48-34.5-23.06 0 0-21-3.16-26.35 24.64a77.52 77.52 0 0 0-.08 23.36c6.46 33.4 0 45.06-4.26 55.63a.49.49 0 0 0 .18.66c4.27 2.07 9.06 3.16 13.66 4.21 39.21 9.08 63.03 2.63 63.01-1.5zM191.78 115.45c-3-4-11.26-15.18-11-34.63.25-9.56 3-18.86 3.57-28.39C185.29 38 179.22 6.89 152 15c0 0-28.14-11.25-32.4 31.27-.53 9.76 2.11 19.26 3.19 28.88 3.1 28.32-13.63 43.48-13.77 44.05-.48 1.81 5.19 3.92 6.53 4.47 28 10.34 65.49 4.78 76.06-1.42a14.94 14.94 0 0 0 3-2.36c.82-.81-2.34-3.78-2.83-4.44zM299 120.4c-3.51-7.54-7.7-14.93-9.62-23.09-1.4-5.44-.86-22.75-.86-27.39 0-14.55 2.13-32.35-8.57-44-4.72-5.14-11.48-8.41-18.51-7.37 0 0-23.47-9.83-32.74 16.54-4.14 11.25-3.1 22.51-1.17 34.08 5.42 29.38-3.42 45.12-6.7 50.68-.4.67-1.62 2-1.71 2.76-.14 1.28 2.15 2 3.15 2.46 20.18 9 71.81-2.32 76.45-3.94a.49.49 0 0 0 .28-.73zM395.63 120.4c-3.63-7.93-12.18-20.91-7.73-51.4.93-14.29 4.16-50.19-26.58-50.51 0 0-24.35-9.91-33.33 18.23-3.73 11.42-2.17 22.7-.27 34.29 7.23 33-12.45 50.62-12.68 51.51-.31 1.2 1.84 1.9 2.75 2.32 20.07 7.36 55.38.85 63.21-.54a92.11 92.11 0 0 0 14.34-3.23.49.49 0 0 0 .29-.67zM491.51 115.15c-2.66-4.16-9.91-15.78-9.27-35 .37-9.5 1.84-18.9 2-28.43.26-33.62-19.45-42.2-32.46-37 0 0-26.73-10-32 27.24-1.23 9.14.38 18.28 1.62 27.32 4.83 27.85-7.29 45.39-8.29 46.94a17.75 17.75 0 0 0-1.64 2.42c-.77 1.89 3.76 3.59 5.18 4.24 23.38 10.3 66 5.11 74.11-.82a17.29 17.29 0 0 0 3.38-2.7c.14-.24-2.14-3.5-2.63-4.21zM589.25 111.47c-2.65-3.31-9.49-11.4-9-30.92 0-13.63 8.12-34-.36-51.79-2.68-6.2-9.33-18.28-27-14.4-2.1.4-4.07-.31-6.79-.49-6.24-.67-21.5-.15-26 24.37-3.63 17.19 4.17 34 2.34 51.25-1 15.42-10.58 24.56-10.56 25 .05 1 2.57 2.13 3.27 2.53 22 11.91 64.41 6.09 73 .32a15.11 15.11 0 0 0 3.17-2.51c.68-.75-1.7-2.9-2.07-3.36zM682.6 100.41c-4.52-14.26-.9-28.7.94-43.06.89-6.92 2.17-23.24-11.59-35.89-8.34-6-20.62-6.65-30.33-4.44-24.77 6.16-23.49 35.82-20.88 46.15 5.72 29.35.18 41.19-4.92 47.44-1.15 1.41-1.09 1.59.62 2.81 14.39 10.9 59.73 8.87 69 1.46a17.87 17.87 0 0 0 3.39-2.79c.36-.45-3.91-3.64-6.23-11.68zM788.59 106.48c-.66-1.43-10.81-16.75-6.66-42.52.75-6.52 1.8-13.33.88-19.89-1.46-10.5-12.56-34.51-47-22.45-9.31 4.15-14.42 13.56-15.45 23.38-.73 7 .27 14.34 1.18 21.32 5.35 26.17-6.67 38.78-6.42 41.22.27 1.67 2.82 2.55 3.71 3.05 19.81 11.14 62.82 6.54 70-2.52.43-.48-.07-1.22-.24-1.59zM80.07 265.82a71.45 71.45 0 0 1-6.5-38.82c1-9.51 3.61-18.87 3.37-28.49.39-19.73-15.1-39.93-25.39-32.61 0 0-31.9-10-38.23 23-4.23 17.71 4.56 35.14 1.74 52.94-1.18 14.37-13.59 28-13.63 28.49-.08 1 2 1.93 2.67 2.35 24.56 12.85 68.49 7.21 78-1.86.53-.56-1.44-3.82-2.03-5zM168.65 201.55a54.59 54.59 0 0 1 1.24-13.43 17.38 17.38 0 0 0-1.22-10c-2.54-5.36-11.28-16.58-17.93-12.83-1.54.69-26.11-7.59-36.24 4.75-11.5 14.78-8.83 32.61-6 39.7 1.46 3.67 3.25 7.21 4.62 10.92 4.62 11.84 1.34 35.4-5 46.29-.46.91-2.33 3.15-2 4.24.21.66 5.41 3.83 6.9 4.56 20 10.06 49.8-1.11 55.79-8.15.83-.81-.63-3.34-.88-4.13-1.3-4.18-4.55-17-2.69-35.4.76-8.84 3.14-17.56 3.41-26.52zM291.43 268.59c-.75-1.14-13.34-17.65-10.69-40.57.73-9.78 1-19.52.8-29.33-.32-13.25-7.32-40.94-29.86-33.71-4.11-1.34-19.54-4.45-28.36 9.05a49.25 49.25 0 0 0-6.69 24.15c-.16 9.78 2.59 19.27 3.45 29 2.58 22.49-11.65 39.38-12.73 40.67-.29.34-1.19 1.06-1.28 1.53-.36 1.9 5.76 4.1 7.16 4.65 17.88 7.74 60.67 6.33 75.47-1.65a15.06 15.06 0 0 0 3-2.37c.5-.57-.08-1.15-.27-1.42zM392.45 272.24c-.74-1.17-12.8-18.22-11.84-40 .29-9.28 2.82-18.3 3.53-27.54a51.06 51.06 0 0 0-4.26-25c-3.64-9.36-14.2-18.55-28-13.27 0 0-26.6-10.2-32 27.17-1.23 9.07.53 18 2 26.92 5.2 32.76-9.49 49.24-11.11 52.07-.35.62-.8.92 0 1.69 23.65 14.66 76.76 7.94 82.05-.49.44-.66-.18-1.24-.37-1.55zM496 267.05c-2.68-3.23-10-10.57-12.46-30.33-.8-9.43 1.36-18.59 2.66-27.86 1.25-8.86 1.09-17.64-1.79-26.18-2.48-9.12-11.05-24.28-32.71-18-16.79-7.15-26.39 12.38-28.69 24.47-1.72 9-.42 17.86 1.07 26.76 5.87 30.6-5.83 44.68-11.84 52.37-.2.27-.91.76-.29 1.27 15.33 13.23 74.45 10.7 84.11 1.14 2.29-1.53 1.44-1.87-.06-3.64zM588.3 271.81c-3-4.16-13.49-17.51-11.42-41.4 1-11.88 2.75-24.4.8-36.26-1.75-11.33-6.61-21.43-16.87-25.89-5.35-2.32-14.93-1.39-18.26.27-13.91-2.11-23.59 11.1-26 23.31-3.28 16.63 1.33 33.49.44 50.2-.54 10-4.61 19.39-8.75 28.36a.49.49 0 0 0 .29.71c13 4.59 47.33 7.24 55 7.22 15 0 23.56-3.3 25-4.79.62-.75.35-.93-.23-1.73zM687.22 272.29c-2.94-4.39-4.29-9.13-6-14.14-3.19-9.46-3.46-41.33-3.6-47.53-.13-5.67 0-11.41-1.12-17-1.91-10.52-6.79-21.17-17.26-24.77-8.51-2.93-17.59.44-17.63.47-14.11-2.14-23.76 11.38-26.08 23.73a77.55 77.55 0 0 0-.36 23.61c1 8.52 3 17.09 2.64 25.72-.43 10.17-3.56 19.7-7.77 28.81a.5.5 0 0 0 .29.71c19.84 7.22 59.74 9.1 71.7 5 1.31-.45 5.19-1.44 5.83-2.81.34-.71-.26-1.23-.64-1.8zM790.13 268.32a71.19 71.19 0 0 1-6.39-14.12 65.86 65.86 0 0 1-3.25-22.38c.29-9.28 2.82-18.3 3.53-27.54a51.27 51.27 0 0 0-4.26-25c-3-6.52-7.08-11.64-14.63-14-3.59-1.12-10-1-13.42.73a23.36 23.36 0 0 0-6.44-1.39c-6.38-.32-22 2.56-25.53 28.56-1.23 9.07.53 18 2 26.91 1.38 8.68 1.8 17.27.1 25.94a61.23 61.23 0 0 1-11.21 26.14c-.42.57-.58.74-.16 1.35 1.86 2.69 13.22 6.25 17.74 6.92 50 7.48 64.72-7.12 64.76-7.3.03-.45-2.14-3.63-2.84-4.82z" fill="#2d2b28"/><path d="M31.21 722.29c.34-3.91.68-7.83 1-10.69.93-7.22 1.87-14.44 2.63-21.68 2.28-21.54 5.21-61.22 7-76.57H25.56c-1.39 36.3-2.24 72.61-2.06 108.94zM69.3 722.29h8.6c.06-21.46-.52-74.1-4-108.94H58c2.82 19.78 8.62 79.83 10 90.5.57 4.3 1 11.98 1.3 18.44z" fill="#f6a87b"/><path d="M23 722.29h.9v-4.72-14.47q.07-14.22.31-28.44.48-28.2 1.54-56.37c.06-1.65.13-3.29.19-4.94h-.87q-1.61 40.13-2 80.27-.07 12.72-.07 25.44v3.23zM31.7 722.29c.57-6 1.21-12 2-18.07 2.93-23.05 4.59-46.23 6.62-69.37.63-7.16 1.19-14.36 2.08-21.5h-.93c-.35 2.91-.65 5.82-.93 8.73-1.11 11.56-2 23.12-3 34.69s-1.95 23.11-3.2 34.63c-.92 8.48-2.23 16.91-3 25.4-.18 1.83-.33 3.66-.49 5.49zM77.29 702.37q.12 10 .09 19.92h1v-10.64q-.15-28.56-1.29-57.11c-.57-13.7-1.19-27.5-2.61-41.19h-1.07c.77 7.68 1.31 15.39 1.77 23.09 1.3 21.95 1.87 43.94 2.11 65.93zM60.77 640.79c1.88 17.2 3.61 34.41 5.45 51.62.58 5.49 1.35 11 1.78 16.48.35 4.46.57 8.93.8 13.4h1c-.37-6.78-.69-13.55-1.49-20.3s-1.49-13.55-2.2-20.33c-2-19.32-3.95-38.66-6.27-57.94-.4-3.38-.66-6.91-1.17-10.37h-1.18c.2 1.4.39 2.8.57 4.19 1 7.74 1.86 15.46 2.71 23.25z" fill="#1e1e1e"/><path d="M231.24 721.91c.33-3.78.66-7.54 1-10.31.93-7.22 1.87-14.44 2.63-21.68 2-18.66 3.09-50.91 4.07-69.19h-16.09c-.57 33.72.14 67.45.59 101.18zM269.28 721.91h8.48c-.36-20.2-2.07-66.88-5.54-101.18h-15.6c3.79 24.36 10.13 73.56 11.39 83.12.55 4.22.99 11.68 1.27 18.06z" fill="#f6a87b"/><path d="M223 719.06v2.85h.9l-.06-4.34q-.11-7.25-.2-14.47-.21-14.22-.39-28.44c-.2-18-.25-35.95 0-53.93h-.87c-.44 24.29-.17 48.6.17 72.89.15 8.48.29 16.96.45 25.44zM231.73 721.91c.56-5.91 1.19-11.8 1.94-17.69 2.93-23.05 4-46.18 5.07-69.37.22-4.7.4-9.41.65-14.12h-.9c0 .45-.05.9-.07 1.35-.6 11.56-1.07 23.13-1.67 34.69s-1.23 23.13-2.48 34.63c-.92 8.48-2.23 16.91-3 25.4-.16 1.7-.31 3.41-.46 5.11zM266 692.41c.72 5.48 1.56 11 2 16.48.34 4.33.55 8.68.78 13h1c-.35-6.65-.64-13.31-1.51-19.92q-1.32-10.15-2.66-20.33c-2.54-19.23-5.08-38.47-8-57.65-.16-1.08-.31-2.18-.46-3.28h-1.05c1 6.55 2 13.11 2.9 19.67 2.45 17.34 4.75 34.68 7 52.03zM276.72 702.37c.22 6.51.41 13 .52 19.54h1q-.09-5.13-.23-10.26-.8-28.57-2.61-57.11c-.71-11.25-1.47-22.56-2.62-33.81h-1.1q.8 7.86 1.4 15.71c1.79 21.94 2.92 43.93 3.64 65.93z" fill="#1e1e1e"/><path d="M369.42 721.59h8.45c-.47-19.86-2.42-64.42-5.87-98.26h-15.44c4 25.1 10.39 71.29 11.6 80.52.55 4.15.93 11.44 1.26 17.74zM331.43 721.59c.32-3.67.64-7.3 1-10 .93-7.22 1.87-14.44 2.63-21.68 1.88-17.8 2.65-48 3.37-66.59h-16.1c-.31 32.74.75 65.5 1.26 98.26z" fill="#f6a87b"/><path d="M366.79 590.05zM331.92 721.59q.85-8.94 2-17.87c2.9-22.88 3.77-45.84 4.58-68.87.14-3.84.24-7.68.38-11.52H338c-.44 11-.77 22.07-1.24 33.11-.49 11.66-1 23.35-2.29 35-.92 8.48-2.24 16.91-3 25.4-.15 1.6-.28 3.2-.42 4.79zM323.09 719.06v2.53h.9c0-1.34 0-2.68-.07-4q-.12-7.25-.26-14.47c-.18-9.32-.39-18.63-.56-28-.33-17.27-.53-34.54-.38-51.82h-.88c-.24 23.43.25 46.87.72 70.29.21 8.51.44 16.99.53 25.47zM376.73 702.61c.25 6.33.47 12.66.62 19h1c-.08-3.31-.18-6.63-.3-9.94q-1-28.57-2.95-57.11c-.73-10.39-1.49-20.82-2.55-31.21h-1.1q.66 6.55 1.22 13.11c1.92 22 3.17 44.08 4.06 66.15zM366.06 692c.76 5.51 1.64 11 2.08 16.58.34 4.32.56 8.65.78 13h1c-.34-6.54-.63-13.09-1.5-19.59q-1.35-10.07-2.76-20.11c-2.69-19.28-5.4-38.57-8.48-57.79 0-.26-.07-.51-.11-.77h-1q1.38 8.55 2.65 17.11 3.83 25.78 7.34 51.57z" fill="#1e1e1e"/><path d="M431.28 721.45c.32-3.62.63-7.19 1-9.85.93-7.22 1.87-14.44 2.63-21.68 1-9.71 2.35-23.11 3.69-36.31H425c-.87 22.61-1.48 45.23-1.47 67.84zM469.26 721.45H478c.16-14.31.22-41.27-.64-67.84h-14.12c2 21.71 4 44.11 4.77 50.24.54 4.15.92 11.33 1.25 17.6z" fill="#f6a87b"/><path d="M424 721.45v-4.38q0-7 .12-14 .19-14.24.63-28.44.3-10.53.72-21h-.91c-.5 13.17-.92 26.33-1.18 39.51q-.25 13-.28 25.94v2.39zM431.78 721.45c.55-5.75 1.16-11.49 1.89-17.23 2.14-16.83 3.74-33.73 5.41-50.61h-1c-.11 1-.22 2.11-.32 3.16-1.19 11.71-2.3 23.43-3.58 35.13-.92 8.31-2.2 16.58-3 24.9-.15 1.55-.28 3.1-.42 4.65zM477.45 721.45h1q.06-5 .08-10c.1-19-.09-37.93-.69-56.89v-.93h-1c.54 16.25.72 32.51.73 48.76q0 9.52-.12 19.06zM468 708.89c.32 4.18.54 8.37.76 12.56h1c-.36-6.46-.69-12.92-1.43-19.36-.77-6.76-1.35-13.54-2-20.32q-1.29-14.07-2.56-28.16h-1c1.19 13 2.34 25.95 3.58 38.92.49 5.47 1.22 10.9 1.65 16.36z" fill="#1e1e1e"/><path d="M131.21 722.29c.34-3.91.68-7.83 1-10.69.93-7.22 1.87-14.44 2.63-21.68 2.28-21.54 4.07-61.22 5.42-76.57h-16.33c-1 36.3-.84 72.61-.47 108.94zM169.3 722.29h8.52c-.21-21.46-1.67-74.1-5.49-108.94h-16c3.22 19.78 10.26 79.83 11.66 90.5.58 4.3 1.01 11.98 1.31 18.44z" fill="#f6a87b"/><path d="M176.93 702.37q.25 10 .36 19.92h1q0-5.32-.15-10.64-.55-28.56-2.13-57.11c-.76-13.71-1.57-27.51-3.13-41.19h-1.09c.85 7.68 1.49 15.39 2.05 23.09 1.62 21.94 2.52 43.94 3.09 65.93zM159.68 640.79c2.23 17.19 4.31 34.41 6.41 51.62.67 5.48 1.48 11 1.91 16.48.35 4.46.57 8.93.8 13.4h1c-.36-6.78-.66-13.56-1.51-20.3s-1.67-13.55-2.5-20.33c-2.34-19.23-4.66-38.47-7.34-57.65-.49-3.48-.83-7.11-1.42-10.66h-1.15c.21 1.33.42 2.65.62 4 1.15 7.78 2.17 15.65 3.18 23.44zM131.7 722.29c.57-6 1.21-12 2-18.07 2.93-23 4.2-46.2 5.63-69.37.44-7.16.81-14.35 1.49-21.5h-.95c-.27 2.91-.46 5.82-.66 8.73-.79 11.56-1.43 23.13-2.17 34.69s-1.49 23.12-2.74 34.63c-.92 8.48-2.23 16.91-3 25.4-.18 1.83-.33 3.66-.49 5.49zM123 719.06v3.23h.9v-4.72l-.12-14.47q-.1-14.22-.13-28.44c0-18.79.14-37.58.6-56.37l.15-4.94h-.87c-.8 26.75-.87 53.52-.72 80.27q.04 12.72.19 25.44z" fill="#1e1e1e"/><path d="M670.21 426.67l-1.36-17.2s7.4.14 9.2-1.41c.17-.15-.17 18.15-.17 18.15" fill="#fff"/><path d="M678.5 407.65a.47.47 0 0 0-.57-.07c-2.13 1.55-5.56 1.22-8.07 1.37-1.21.07-1.41.07-1.49 1.26-.2 2.57 1.55 13 1.57 16.76 0 .33.53.23.55-.07.2-2.32-1.22-16.4-1.2-17.08 0-.28 6 0 8.45-1 0 .12 0 13.26-.33 17.62 0 .6.92.6.94 0 .18-3.83.5-18.39.15-18.79z" fill="#1e1e1e"/><path d="M671.91 409.3l-3.06.17 1.36 17.43 3.16-.19a92.15 92.15 0 0 1-1.46-17.41z" fill="#1e1e1e" opacity=".15"/><path d="M623.25 424c.06-4.64 0-13.9 0-13.9a13.45 13.45 0 0 0 8.48.42c-.6 5.48-1 11.21-1.56 16.68" fill="#fff"/><path d="M631.64 410.08a12.92 12.92 0 0 1-8.26-.36c-.24-.1-.49.15-.49.38.05 4.63-.09 9.27.07 13.9a.29.29 0 0 0 .58 0c.27-4.43.13-8.91.13-13.35a14.11 14.11 0 0 0 7.57.45c-.6 5.36-.94 10.74-1.51 16.1-.06.6.88.59.94 0 .6-5.55 1-11.12 1.55-16.68a.46.46 0 0 0-.58-.44z" fill="#1e1e1e"/><path d="M628.75 410.87c.12 2.14-.22 12.52-.41 15.56l1.86.77c.61-5.47 1-11.2 1.56-16.68a15.29 15.29 0 0 1-3.01.35z" fill="#1e1e1e" opacity=".15"/><path d="M677.58 423.14s.35 3.11 1.49 4c1.35 1 13.3 4.19 13.73 7.67.45 1 2.38 5.79-4.31 5.44-1.91 1.06-18.09-5.08-18.62-5.76-2-2.54-.17-9.77-.17-9.77l3.57 1.23-.13-2.17s3.86-1.19 4.44-.64z" fill="#525252"/><path d="M669.24 431.94c3.42 3.19 12.9 5.68 14.4 6 7 1.32 8.44.21 9.78-1.22.08.43.78 4.69-7.74 3.34-2.69-.12-16-4.88-16-5.82-.06-.32-.41-1.88-.44-2.3z" fill="#fff"/><path d="M689.79 431.2c-2.35-1.08-4.81-1.91-7.21-2.87-1-.39-4.29-1.15-4.67-5.28-.22-1.22-3.69-.06-4.88.3a.44.44 0 0 0-.32.42c0 .52 0 1.05.07 1.57a20.21 20.21 0 0 1-2.85-1 .47.47 0 0 0-.67.27c-.52 2.55-1.32 6.73-.23 9.22 1.2 2.85 15.27 7.29 21.33 6.69 5.75-.59 3.23-7.58-.57-9.32zm1 8.49c-6.24 1.26-18.15-4-19.66-4.95-2.49-1.59-1.63-6.67-1.1-9.4a24.24 24.24 0 0 0 3.12 1 .45.45 0 0 0 .56-.43c-.05-.54-.1-1.81-.11-1.85a13.3 13.3 0 0 1 3.67-.74c.14 1.38.48 3.1 1.54 4a12.63 12.63 0 0 0 3.57 1.65c2.15.87 8.07 2.53 9.36 4.58s2.03 5.54-.95 6.14z" fill="#1e1e1e"/><path d="M693 436.75c-3.48 3.13-8.91.76-12.82-.36-3.67-1.05-7.76-2.06-10.62-4.71-.39-.36-1 .22-.59.58 3.35 3.08 8.4 4.21 12.67 5.36 3.79 1 8.59 2.77 11.83-.4.31-.3-.15-.76-.47-.47zM681.52 428.35a22.64 22.64 0 0 0-3 2.31.45.45 0 1 0 .72.54c.33-.49 2.36-1.93 2.69-2.42.18-.26-.18-.61-.44-.43zM679.81 427.86c-1 .93-2 1.82-3 2.7-.46.4.2 1 .66.66a24.91 24.91 0 0 0 2.89-2.83.38.38 0 0 0-.54-.53zM678.82 427a26.25 26.25 0 0 0-2.76 2.08c-.53.27-.06 1.08.47.79a24.52 24.52 0 0 0 2.56-2.21c.32-.17.14-.77-.27-.66zM678.15 426.52c-.27-.47-1.83.71-2.28.88-1.07-.06-.68 1.23-.17 1.07a6 6 0 0 0 2.45-1.95zM677.89 425.06c-.53-.12-3.72.7-3.17 1.58.39.53 2.84-.8 3.25-1a.32.32 0 0 0-.08-.58z" fill="#1e1e1e"/><path d="M684.46 427c-.28-.67-2.36-1-2.53-1 .38-.44 1.1-3.48-1.75-2.29-2 1.35-1.83 2.81-1.63 3 .62.48 2.93.11 3.3.14 2-.14 2.82 1.49-.91.67a.38.38 0 0 0-.2.74c.78.27 4.44.53 3.72-1.26zm-3-2.32c.21.64-1 1.85-2.62 1.45.66-1.51 2.4-2.23 2.65-1.43z" fill="#1e1e1e"/><path d="M675.5 423.17l-2.36.6s.06 1.67.13 2.17a18.6 18.6 0 0 1-3.57-1.23 66.38 66.38 0 0 0-.38 8.32c0 2.35 13.2 6.44 13.2 6.44s-12.47-5.35-7.02-16.3z" fill="#1e1e1e" opacity=".3"/><path d="M622.77 423.14s-.35 3.11-1.49 4c-1.34 1-13.29 4.19-13.72 7.67-.45 1-2.38 5.79 4.3 5.44 1.91 1.06 18.09-5.08 18.63-5.76 2-2.54.17-9.77.17-9.77l-3.57 1.23.12-2.17s-3.84-1.19-4.44-.64z" fill="#525252"/><path d="M631.11 431.94c-3.41 3.19-12.9 5.68-14.4 6-7 1.32-8.44.21-9.77-1.22-.08.43-.68 9.52 23.78-2.48.01-.32.36-1.88.39-2.3z" fill="#fff"/><path d="M610 440.5c6.07.6 19.13-3.63 21.33-6.69 1-2.53.3-6.67-.23-9.22a.45.45 0 0 0-.66-.27 19.89 19.89 0 0 1-2.86 1c0-.52.06-1 .08-1.57a.45.45 0 0 0-.32-.42c-1.2-.36-4.43-1.59-4.88-.3-.2 1.3 0 4-4.67 5.28-2.4 1-4.86 1.79-7.21 2.87-3.81 1.76-6.33 8.75-.58 9.32zm-1.38-6.88a5.89 5.89 0 0 1 2.89-2c2.13-.91 9.11-3.4 10-4.21s1.4-2.66 1.55-4a13.3 13.3 0 0 1 3.66.74s0 1.31-.11 1.85a.45.45 0 0 0 .56.43 23.74 23.74 0 0 0 3.12-1c.54 2.73 1.39 7.81-1.1 9.4-1.51 1-13.19 6.12-19.66 4.95-2.96-.63-2.31-4.25-.92-6.16z" fill="#1e1e1e"/><path d="M607.4 436.75c3.47 3.13 8.91.76 12.81-.36 3.67-1.05 7.76-2.06 10.63-4.71.39-.36 1 .22.58.58-3.34 3.08-8.39 4.21-12.66 5.36-3.79 1-8.59 2.77-11.84-.4-.31-.3.16-.76.48-.47zM618.83 428.35a22.1 22.1 0 0 1 3 2.31.45.45 0 1 1-.72.54c-.33-.49-2.36-1.93-2.7-2.42a.32.32 0 0 1 .44-.43zM620.54 427.86c1 .93 2 1.82 3 2.7.45.4-.21 1-.67.66a25.64 25.64 0 0 1-2.88-2.83.37.37 0 0 1 .53-.53zM621.54 427a26.25 26.25 0 0 1 2.76 2.08c.53.27.05 1.08-.47.79a25.86 25.86 0 0 1-2.57-2.21c-.32-.17-.13-.77.28-.66zM622.21 426.52c.18-.88 1.82.71 2.27.88 1.22 0 .68 1.23.18 1.07a6.17 6.17 0 0 1-2.45-1.95zM622.46 425.06a6.93 6.93 0 0 1 3.09 1 .52.52 0 0 1 .08.61c-.38.53-2.84-.8-3.24-1a.32.32 0 0 1 .07-.58z" fill="#1e1e1e"/><path d="M620.05 423.65c-.79-.39-3.27.12-1.63 2.34-.78-.08-2.25.36-2.52 1-.72 1.77 2.94 1.51 3.72 1.2a.38.38 0 0 0-.21-.74c-1.63.85-4.56-.35-.91-.67.38 0 2.89.26 3.51-.22.17-.9-1.01-2.43-1.96-2.91zm-1.19 1.05c.26-.8 1.78-.61 2.63 1.45-1.59.31-2.84-.81-2.63-1.45z" fill="#1e1e1e"/><path d="M624.85 423.17l2.36.6s-.05 1.67-.12 2.17a19.08 19.08 0 0 0 3.57-1.23A64.36 64.36 0 0 1 631 433c0 2.35-13.2 6.44-13.2 6.44s12.51-5.32 7.05-16.27z" fill="#1e1e1e" opacity=".3"/><path d="M620.18 778.52c1-.23 7.87-1.91 10.36-2.27-.53 17.63-.92 45.23-.87 46.24.15 3.32 11.81 7.89 11.43 10.36-.52 3.45-8.12-1-8.46-.93-3.42.42-2.8 17.34-6.31 16.74-3.78-.66.77-10.87-1.35-11.2-1.68-.27-5.83 10.73-7.75 9.84-3.29-1.53 4.25-11 2.22-12-2-.06-12.71 6.7-10.11.66.22-.5 9.5-3.18 11.25-13.93 0 .04-.93-39.68-.41-43.51z" fill="#f6a87b"/><path d="M619.88 778.58l.61-.13c-.48 5.56.12 31.51.47 42.3 0 8.54-7.44 13.49-9.2 14.47-4.12 1.88-2 3-.56 2.84 2.51-.3 7.81-4.81 8.91-2.38 1 2.17-2.72 7.24-3.08 8.38-.51 1.69.19 4.2 2 1.64 2.88-3.86 4.23-9.57 6.37-8.47 1.47.76 0 7.33-.09 8.54-.25 3.71 1.77 2.82 2.44 1 1.45-3.89 1.45-12.52 3.58-14.51 2.33-2.18 5.67 2.27 8.46 1.41 4.51-1.4-8.25-6.66-9.76-9.38-.93-1.68-.7-3.64-.68-5.47.09-8.7.65-37.05.82-42.53l.73-.11c-.09 2.86-.65 28.73-.78 38.81-.34 8.85-.48 8.91 4.77 12.13 2 1.22 4.44 2.5 6 4.33 2.44 2.54-.89 4.38-4.92 2.33s-4.43-.5-4.88.7c-1 2.8-1.25 13-3.93 14.58-3.6 1.72-2.57-5-2.13-7.63.1-1.15.63-4.06-1.13-2.62-1 1.66-6.11 13.6-7.89 7.32-.44-2 1.2-4.41 2.08-6.11 3-5.32-.13-3.91-1.2-3.46-1.24.51-8.05 4.51-8.45.68-.25-2 4.69-2.85 7.62-6.42a15.78 15.78 0 0 0 4.15-8.81c.04-1.15-1.21-34.01-.33-43.43z" fill="#1e1e1e"/><path d="M627.08 827c0 4.17-3.51 6.12-5.07 6.6a.39.39 0 1 1-.22-.75c1.49-.43 3.94-1.7 4.79-5.9 0-.24.49-.21.5.05z" fill="#1e1e1e"/><path d="M464.71 843.52c-4.58 2.36 3 4.17 5.94 1.82-6.87 6.53 3.19 6 6.22-2.19-1.42 4.4 2.59 6.33 4.73-2.39.79-3.14.84-5.61-2.44-13.61 0 0 2-19 2.46-25.56.5-7.46-.66-31.49-.88-36h-11.8c1.77 6.22 1.86 23.71 1.92 27.3.11 6.21 1.71 32.73 1.62 33-3.13 3.65-4.05 7.51-3.38 11.2 0 0-2 2.78-2.67 3-7.97-.43-3.43 4.22-1.72 3.43z" fill="#f6a87b"/><path d="M474.91 834.41c0 1.85 2.16 2.44 2.89 3.83.6 1.14-.07 2.71-.32 3.89s-1.21 5.33 1.18 4c1.19-.65 2.14-3.64 2.51-4.86 1.82-6-1.13-10.43-1.86-12.52a9.06 9.06 0 0 1-.2-4.6c.7-6.76 1.44-13.51 2-20.29 1-12.46-.61-36.4-.7-38.35h.9c.57 9.83 1.08 19.68 1 29.49-.09 9.23-2.59 30.16-2.62 31.41-.05 1.8 3.43 7.74 2.76 11.74-1.07 9.83-6.77 12.26-5.92 5.09.15-1.29 1.2-3.43.64-4.64-.73-1.56-3-2.14-3-4.18-.01-.42.73-.49.74-.01zM463.18 839.85a9.41 9.41 0 0 1 2.25-.1 4 4 0 0 0 3.1-2.43 11.2 11.2 0 0 0 .06-3.07 12.42 12.42 0 0 1 1.51-5.55c.58-.87 1.84-2.29 2-3.18s-.16-7.2-.24-9.12c-.42-10.31-1.35-20.53-1.45-30.87a127.19 127.19 0 0 0-1.92-20h.78a124.14 124.14 0 0 1 1.8 16.53c.21 5.91 0 11.82.37 17.73.3 5.24.86 10.46 1.09 15.7.09 2 .51 8.86.26 10.06-.35 1.64-2 2.94-2.65 4.54a12.6 12.6 0 0 0-.93 5.32 4.63 4.63 0 0 1 0 2 5.35 5.35 0 0 1-2.78 2.85c-1 .32-3.14-.39-3.79.66-1 1.67 1.09 2.4 2.14 2.28.33 0 .34.46 0 .5-2.23.37-4.72-2.49-1.6-3.85z" fill="#1e1e1e"/><path d="M470.77 839.4c-1.11 2.55-3.21 3.52-5.69 4.36-1.63.52-2.1 1.84.43 2.32a7 7 0 0 0 5.68-1.86c.31-.28.79.14.49.46-4.43 4.42-11.79 1.12-7.49-1.34a9 9 0 0 0 6.09-4.19.28.28 0 0 1 .49.25z" fill="#1e1e1e"/><path d="M473.26 841.77a24.84 24.84 0 0 1-2.11 3.86c-4.88 3.22-1.79 5.11.6 3.18 1-.76 2.63-1.08 4.79-5.84.26-.41.94-.07.68.35-1.26 2-1.94 3.87-3.9 5.37-1.09.83-3.41 2.46-4.8 1.39-.82-.63-1.51-2 1.69-4.52a26.78 26.78 0 0 0 2.49-4.08.32.32 0 0 1 .56.29z" fill="#1e1e1e"/><path d="M470.27 838.45c.37.28 2.46 2.52 4.08 2.53.57-.08.63.85 0 .9-1.67 0-4-2.12-4.57-3.06a.29.29 0 0 1 .44-.37z" fill="#1e1e1e"/><path d="M365.73 838.29c2.16-7.31-1.13-7.35 4.54-16.12 1.47-2.76 1.67-48.91-.5-56.63h9.82c.81 6.35-.16 57.12.52 60.38 1.84 22.47-4.4 21-4.4 21-2.74 5.8-4 2.42-4 1.62 0 0-5.29 3.89-1.88-8.88-.01.04-4.83 7.53-4.1-1.37z" fill="#f6a87b"/><path d="M366.87 827.61c.8-2.06 2.57-3.77 3-5.94.37-1.71.35-3.58.58-5.31 1.45-10.84.42-25 .06-34.2a159.82 159.82 0 0 0-1.39-16.62h1.06c1.36 9.21 1.37 18.71 1.52 27.94.12 7 .48 14.07-.2 21-.21 2.16-.45 4.33-.7 6.49-.23 2-1.26 3.36-2.25 5.07-2.06 3.57-1.29 7.56-2.24 11.44-.27 1.08-1.14 7.83 3 1.82.2-.29.67-.09.5.23-.84 1.65-3.36 5.59-4.43 1.86-.49-1.72 0-3.18.37-4.87.58-2.89.06-6.13 1.12-8.91zM375.78 847c3.43-1.95 3.68-6.07 4.09-9.58.46-3.92-.17-7.6-.21-11.5 0-3.62 0-7.24-.12-10.86-.16-4.52-.22-9-.19-13.53l.12-23.24v-7.85a45.11 45.11 0 0 0-.3-4.92h.92c.16 1.7.27 3.4.26 5.1l-.12 23.82c0 5.85-.44 11.83 0 17.66.35 4.57.25 9.15.28 13.73 0 2.31.47 4.57.53 6.87a37.24 37.24 0 0 1-.49 6.15c-.46 3.42-1 7-4.28 8.86-.45.29-.99-.41-.49-.71z" fill="#1e1e1e"/><path d="M377.74 836.13a20.24 20.24 0 0 1-2.5 12.55c-1.19 1.91-3.48 3.1-4 0-.08-.55.76-.64.85-.1.48 3 2.34-.08 2.58-.49a23 23 0 0 0 2.52-11.92c0-.3.48-.28.51 0z" fill="#1e1e1e"/><path d="M375.07 834.66c.55 2.57-1.28 13.14-4.16 14.71-1.66.89-2.65-.67-2.66-2.19 0-1.93 2.43-10.68 1.24-14.83a.4.4 0 0 1 .8-.1 35.66 35.66 0 0 1-.52 10.61c-1.9 7.43.92 6 1.84 4.42 2.17-3.83 2.18-8.42 2.94-12.62a.26.26 0 0 1 .52 0z" fill="#1e1e1e"/><path d="M269.12 842.22c0-4.16 2.83-2.55 5.25-8.91-2.76-5.5-3.29-55.48-7.94-67.77h11.85c3.7 23.7 4.08 60.47 2.06 71.2.05 8.4-11.13 21.73-9.4 12.54-5.18 2-5.2-2.07-2.5-2.66-1.59-.29-5.25-1.52.68-4.4z" fill="#f6a87b"/><path d="M269 841.9a4.17 4.17 0 0 0 .23.65c-1.46.74-5.68 2.55-.84 3.79-.06.24-.13.48-.19.72-6.3-1.93-1.1-4.17.8-5.16z" fill="#1e1e1e"/><path d="M266.21 847.72c.78-1.59 3.46-1.5 4.59-2.58a16.45 16.45 0 0 0 1.86-3.41c.43-.36.88-.69 1.31-1.05-.47 1-2 4.61-3.11 5.26-.7.42-7 2.33-2.16 3.64a3.62 3.62 0 0 0 2.22-.6 10.11 10.11 0 0 0-.42 1c-2.64 1.02-4.98-.81-4.29-2.26zM266.88 765.71a59.27 59.27 0 0 1 2.12 10.38c1.39 9.95 2 20 2.73 30 .58 8.14.7 18.1 2.81 26.43.17.66-.32.82-.46 1.14-.71-1.29-1.73-9.88-2-12.64-.68-7.9-1.15-15.82-1.74-23.72s-2.09-27.75-4.45-31.75c.11-.01.93-.03.99.16z" fill="#1e1e1e"/><path d="M274.17 840.63c.05 0 .64-.79.9-1.1-.82 5.47-3.47 8.23-3.94 10.32-.09.4-.61 3.65 2.36.67a20.22 20.22 0 0 0 6.12-11.3c1.58-9.75 1.51-17.54 1.48-26.37 0-15.75-.58-31.72-3.13-47.31h.69c1 6.39 1.58 12.85 2.07 19.26q1 13.71 1.06 27.46v5.56c0 8.09-.19 17-2.25 24.88-.35 1.32-6.78 12.6-9 9.23-1.32-1.93 2.94-7.54 3.64-11.3z" fill="#1e1e1e"/><path d="M276.37 838.35c-1.19 1.53-4.47 5.44-6.5 5.09-1.4-.24-2.07-2.8.85-5.17 2.23-1.89 3.26-4.63 4.16-7.37a.39.39 0 1 1 .73.25c-2.32 8.27-6.57 7.5-6.12 10.58s5.76-3 6.51-3.71a.25.25 0 0 1 .37.33z" fill="#1e1e1e"/><path d="M171 823.39s-.49-49.52-1-54c1.68-.34 9.28-2.33 11.44-2.79l.15 13.93c.09 7.47-1 45.69-1 45.69 4.57 3.68.53 7.38 5.61 12.22 3 2.75-3.29 6.33-6.48-1.08-3.43 19-8.17 14.13-8.56 13.72 0 0-4.17 3.15-3.38-3.43-2.16 3.37-3.27.91-3.23-.28.23-8.37 2.32-15.24 6.45-23.98z" fill="#f6a87b"/><path d="M175.25 840.32c-.35 2.86-2.3 11.11-5.07 11.74-2.84 1-3.21-2.76-2.8-4.59.14-.59 1.06-.32.9.26-.28 1-.61 3.11.81 3.56 2.22.29 3.29-4.23 5.68-11.11.1-.23.51-.11.48.14zM181 766.64c.29-.07.57-.13.86-.18 0 5.3.05 10.6.11 15.89.1 10-.88 19.82-1 29.77-.07 4-.1 13 0 13.4a11.36 11.36 0 0 1 2.4 4.87 14.25 14.25 0 0 0 3.65 8.29c3.29 4.46-6.31 5.82-7.52-1a.41.41 0 0 1 .72-.39c.52 5.52 10.2 5.41 4.77.32a10.91 10.91 0 0 1-1.43-2.67c-.61-1.58-.76-7.29-3.37-8.74-.39-1.12-.07-10.6 0-13.81.11-7.86 1-15.66 1.06-23.53 0-7.39-.11-14.81-.25-22.22z" fill="#1e1e1e"/><path d="M170.57 770.63c1.14 10.65.17 21.27.46 32 .13 5 .59 18.5.42 20.16a14.46 14.46 0 0 1-1.57 4.18 58.31 58.31 0 0 0-4.53 15.55c-.51 3.22-.55 8.52 2 4.87 1.71-2.35 2.29-5.14 3.11-7.88a.34.34 0 0 1 .66.19c-.57 2.33-2.3 9.7-5.24 10.1-4.53 0 .58-17.74 3.14-23.09 2.48-4.32 1.59-8.6 1.58-10.66 0-5.79-.49-11.57-.55-17.36-.06-6.29.79-20.77-.51-29.21.28-.11.98.69 1.03 1.15zM176.71 826.27c1.26 2.49-1.31 9-2.23 9.78a.44.44 0 0 1-.61-.64c.83-.84 3-6.11 2.26-9.07 0-.36.47-.36.58-.07z" fill="#1e1e1e"/><path d="M177 838.93c-1.87.85-5.86-.08-7-1.9-.28-.46.36-.83.71-.52 1.71 1.5 3.93 1.83 6.14 1.91.25 0 .38.39.13.51zM180 837c-.58 3-2.91 18.86-8.68 14.55-.41-.31 0-1 .41-.68 4.71 3.59 6.58-11.94 7.8-14.08.15-.27.52-.06.47.21z" fill="#1e1e1e"/><path d="M85.29 838.78c-4.09-3.56-1.12-11.45-6-15.27 0 0 4.18-34.51 2.51-55.85-3.81.6-7.57 1.78-11.36 2.49 1.38 9.25-.27 33.81 1.4 55.09-.29 7-9.69 29-3.52 26 1.16 2.91 3.6.41 3.6.41 4.8 1.75 7.6-14 7.6-14 6.28 7.89 8.84 3.81 5.77 1.13z" fill="#f6a87b"/><path d="M77 827.26c.63 3.31.58 7.47-2.29 9.77-.44.35-1-.28-.6-.64 2.86-2.38 2.14-5.83 2.32-9.06 0-.32.51-.41.57-.07zM77.31 839.88c-1 1-3.61.34-4.62-.39-.39-.27-.14-1 .36-.8a7.09 7.09 0 0 0 4.15.73.28.28 0 0 1 .11.46z" fill="#1e1e1e"/><path d="M71 769.94a127.14 127.14 0 0 1 .7 18.42c-.33 8.82-.24 17.58.16 26.41.87 13.66.62 11-.72 17.44-1.41 5-6.12 18-4 18.77 1.85.52 4-8 4.69-10.21a.34.34 0 0 1 .66.19c-.63 2.53-1.73 7.26-3.77 10.37 2.75 4 5.17-7.74 6.21-10.11.1-.24.56-.24.51.08-.38 2.56-1.89 7.92-3.3 10.13 4.23-.63 4.46-5.09 8.29-16.72.14-.26.53-.06.46.21-.21 1-.5 1.89-.79 2.83a12.37 12.37 0 0 0 2.9 3.11c1.22 1 3.66 1.23 2.66-.75s-1.33-1.32-2.62-3.93.92-9.41-4-12.33c-.16-.49 2.66-23.9 2.72-35.82 0-6.76 0-13.53-.09-20.3a2 2 0 0 1 .81-.07l.06 11.89A287.54 287.54 0 0 1 81.06 811c-.24 2.32-1.37 12.35-1.28 12.55 0 0 3.58 1.58 3.4 7.81.14 4.36.14 4.36 3.21 8.29a2.12 2.12 0 0 1 .08 2.17c-1.59 2.2-5.24-1.25-6.64-3.11-.32 1-.64 2-.9 3-.52 2-2.51 11.4-7.18 10.35a2.09 2.09 0 0 1-3.66-.1c-3.6 1.83-2-4.86-1.84-5.88 1-6 3.64-11.5 4.84-17.41.67-3.28.25-6.49.08-9.81-.56-11-.55-22-.28-33a116.61 116.61 0 0 0-.74-15.64 4.9 4.9 0 0 1 .85-.28z" fill="#1e1e1e"/><path d="M15.16 838.78c4.09-3.56 1.12-11.45 6-15.27 0 0-4.19-34.51-2.51-55.85 3.8.6 7.57 1.78 11.35 2.49-1.37 9.25.28 33.81-1.39 55.09.29 7 9.69 29 3.52 26-1.16 2.91-3.6.41-3.6.41-4.81 1.75-7.61-14-7.61-14-6.27 7.89-8.84 3.81-5.76 1.13z" fill="#f6a87b"/><path d="M23.41 827.26c-.63 3.31-.57 7.47 2.3 9.77.43.35 1-.28.6-.64-2.87-2.38-2.15-5.83-2.32-9.06 0-.32-.51-.41-.58-.07zM23.14 839.88c1 1 3.61.34 4.62-.39.38-.27.14-1-.36-.8a7.12 7.12 0 0 1-4.16.73.27.27 0 0 0-.1.46z" fill="#1e1e1e"/><path d="M29.41 769.94a128.58 128.58 0 0 0-.7 18.42c.34 8.82.25 17.58-.15 26.41-.87 13.66-.63 11 .72 17.44 1.4 5 6.12 18 4 18.77-1.85.52-4-8-4.68-10.21a.34.34 0 0 0-.66.19c.63 2.53 1.73 7.26 3.77 10.37-2.75 4-5.17-7.74-6.21-10.11-.11-.24-.56-.24-.51.08.37 2.56 1.88 7.92 3.29 10.13-4.28-.63-4.48-5.09-8.28-16.72-.15-.26-.53-.06-.47.21.22 1 .5 1.89.8 2.83a12.56 12.56 0 0 1-2.85 3.11c-1.22 1-3.66 1.23-2.67-.75s1.33-1.32 2.63-3.93-.92-9.41 4-12.33c.16-.49-2.67-23.9-2.72-35.82 0-6.76 0-13.53.09-20.3a2.06 2.06 0 0 0-.82-.07q0 6-.05 11.89A287.53 287.53 0 0 0 19.38 811c.24 2.32 1.37 12.35 1.29 12.55 0 0-3.58 1.58-3.41 7.81-.14 4.36-.14 4.36-3.21 8.29a2.12 2.12 0 0 0-.08 2.17c1.6 2.2 5.25-1.25 6.64-3.11.32 1 .64 2 .9 3 .52 2 2.52 11.4 7.19 10.35a2.08 2.08 0 0 0 3.65-.1c3.61 1.83 2-4.86 1.85-5.88-1-6-3.64-11.5-4.85-17.41-.67-3.28-.24-6.49-.07-9.81.56-11 .54-22 .27-33a118.29 118.29 0 0 1 .74-15.64 4.4 4.4 0 0 0-.88-.28z" fill="#1e1e1e"/><path d="M129.05 823.39s.48-49.52 1-54c-1.67-.34-9.27-2.33-11.43-2.79l-.16 13.93c-.09 7.47 1 45.69 1 45.69-4.58 3.68-.53 7.38-5.62 12.22-3 2.75 3.29 6.33 6.49-1.08 3.43 19 8.16 14.13 8.56 13.72 0 0 4.16 3.15 3.38-3.43 2.16 3.37 3.27.91 3.23-.28-.26-8.37-2.34-15.24-6.45-23.98z" fill="#f6a87b"/><path d="M124.77 840.32c.35 2.86 2.3 11.11 5.07 11.74 2.84 1 3.22-2.76 2.8-4.59-.13-.59-1.06-.32-.9.26.28 1 .62 3.11-.8 3.56-2.22.29-3.29-4.23-5.68-11.11a.27.27 0 0 0-.49.14zM119 766.64c-.28-.07-.57-.13-.86-.18 0 5.3 0 10.6-.1 15.89-.1 10 .88 19.82 1 29.77.06 4 .09 13 0 13.4a11.48 11.48 0 0 0-2.4 4.87 14.18 14.18 0 0 1-3.65 8.29c-3.28 4.46 6.32 5.82 7.52-1a.41.41 0 0 0-.71-.39c-.53 5.52-10.21 5.41-4.77.32a10.91 10.91 0 0 0 1.43-2.67c.61-1.58.75-7.29 3.36-8.74.39-1.12.08-10.6 0-13.81-.12-7.86-1-15.66-1.07-23.53.03-7.39.14-14.81.25-22.22z" fill="#1e1e1e"/><path d="M129.45 770.63c-1.13 10.65-.16 21.27-.45 32-.14 5-.59 18.5-.42 20.16a14.43 14.43 0 0 0 1.56 4.18 58 58 0 0 1 4.54 15.55c.51 3.22.55 8.52-2 4.87-1.71-2.35-2.29-5.14-3.1-7.88a.34.34 0 0 0-.66.19c.56 2.33 2.3 9.7 5.24 10.1 4.53 0-.58-17.74-3.15-23.09-2.48-4.32-1.59-8.6-1.57-10.66 0-5.79.48-11.57.54-17.36.06-6.29-.78-20.77.52-29.21-.29-.11-1 .69-1.05 1.15zM123.31 826.27c-1.25 2.49 1.32 9 2.24 9.78a.44.44 0 0 0 .6-.64c-.83-.84-3-6.11-2.26-9.07 0-.36-.47-.36-.58-.07z" fill="#1e1e1e"/><path d="M123 838.93c1.87.85 5.85-.08 7-1.9.28-.46-.35-.83-.71-.52-1.71 1.5-3.93 1.83-6.14 1.91a.27.27 0 0 0-.12.51zM120 837c.58 3 2.91 18.86 8.68 14.55.41-.31 0-1-.42-.68-4.71 3.59-6.58-11.94-7.79-14.08-.16-.27-.53-.06-.47.21z" fill="#1e1e1e"/><path d="M231.4 842.22c0-4.16-2.83-2.55-5.24-8.91 2.75-5.5 3.29-55.48 7.93-67.77h-11.84c-3.7 23.7-4.09 60.47-2.06 71.2-.06 8.4 11.12 21.73 9.4 12.54 5.17 2 5.19-2.07 2.5-2.66 1.58-.29 5.25-1.52-.69-4.4z" fill="#f6a87b"/><path d="M231.55 841.9a4 4 0 0 1-.24.65c1.47.74 5.68 2.55.84 3.79.07.24.14.48.2.72 6.28-1.93 1.08-4.17-.8-5.16z" fill="#1e1e1e"/><path d="M234.31 847.72c-.77-1.59-3.46-1.5-4.58-2.58a16.58 16.58 0 0 1-1.87-3.41c-.42-.36-.87-.69-1.3-1.05.47 1 2 4.61 3.11 5.26.7.42 7 2.33 2.15 3.64a3.6 3.6 0 0 1-2.21-.6 10.11 10.11 0 0 1 .42 1c2.64 1.02 4.97-.81 4.28-2.26zM233.65 765.71a59.29 59.29 0 0 0-2.17 10.38c-1.39 9.95-2 20-2.73 30-.58 8.14-.7 18.1-2.81 26.43-.16.66.32.82.46 1.14.7-1.29 1.73-9.88 2-12.64.68-7.9 1.14-15.82 1.74-23.72s2.08-27.75 4.45-31.75c-.01-.01-.88-.03-.94.16z" fill="#1e1e1e"/><path d="M226.36 840.63c-.05 0-.65-.79-.91-1.1.82 5.47 3.48 8.23 4 10.32.09.4.61 3.65-2.37.67a20.2 20.2 0 0 1-6.11-11.3c-1.58-9.75-1.51-17.54-1.49-26.37 0-15.75.58-31.72 3.13-47.31h-.68c-1 6.39-1.58 12.85-2.07 19.26-.7 9.14-1 18.3-1.07 27.46v5.56c0 8.09.19 17 2.25 24.88.34 1.32 6.78 12.6 9 9.23 1.27-1.93-2.98-7.54-3.68-11.3z" fill="#1e1e1e"/><path d="M224.15 838.35c1.2 1.53 4.48 5.44 6.51 5.09 1.4-.24 2.07-2.8-.85-5.17-2.23-1.89-3.26-4.63-4.17-7.37a.38.38 0 1 0-.72.25c2.32 8.27 6.56 7.5 6.12 10.58s-5.76-3-6.51-3.71a.25.25 0 0 0-.38.33z" fill="#1e1e1e"/><path d="M332.42 838.29c-2.16-7.31 1.13-7.35-4.54-16.12-1.47-2.76-1.67-48.91.5-56.63h-9.82c-.8 6.35.17 57.12-.52 60.38-1.83 22.47 4.4 21 4.4 21 2.74 5.8 4 2.42 4 1.62 0 0 5.29 3.89 1.88-8.88.01.04 4.87 7.53 4.1-1.37z" fill="#f6a87b"/><path d="M331.28 827.61c-.8-2.06-2.57-3.77-3-5.94-.37-1.71-.35-3.58-.58-5.31-1.45-10.84-.42-25-.06-34.2a159.82 159.82 0 0 1 1.36-16.62h-1.05c-1.37 9.21-1.38 18.71-1.53 27.94-.12 7-.47 14.07.2 21 .21 2.16.45 4.33.7 6.49.23 2 1.26 3.36 2.25 5.07 2.06 3.57 1.29 7.56 2.24 11.44.27 1.08 1.14 7.83-3 1.82-.2-.29-.68-.09-.51.23.84 1.65 3.36 5.59 4.43 1.86.49-1.72-.05-3.18-.37-4.87-.54-2.89-.02-6.13-1.08-8.91zM322.37 847c-3.43-1.95-3.68-6.07-4.09-9.58-.46-3.92.17-7.6.21-11.5 0-3.62 0-7.24.12-10.86.16-4.52.22-9 .19-13.53l-.12-23.24v-7.85a42.72 42.72 0 0 1 .29-4.92H318c-.16 1.7-.27 3.4-.26 5.1l.12 23.82c0 5.85.44 11.83 0 17.66-.35 4.57-.25 9.15-.28 13.73 0 2.31-.47 4.57-.53 6.87a37.24 37.24 0 0 0 .49 6.15c.46 3.42 1 7 4.28 8.86.51.29 1.05-.41.55-.71z" fill="#1e1e1e"/><path d="M320.41 836.13a20.24 20.24 0 0 0 2.5 12.55c1.19 1.91 3.49 3.1 4 0 .08-.55-.76-.64-.85-.1-.48 3-2.34-.08-2.58-.49a23.06 23.06 0 0 1-2.51-11.92c0-.3-.48-.28-.52 0z" fill="#1e1e1e"/><path d="M323.08 834.66c-.55 2.57 1.28 13.14 4.17 14.71 1.65.89 2.64-.67 2.65-2.19 0-1.93-2.43-10.68-1.24-14.83a.4.4 0 0 0-.79-.1 35.33 35.33 0 0 0 .51 10.61c1.9 7.43-.92 6-1.83 4.42-2.18-3.83-2.19-8.42-2.95-12.62a.26.26 0 0 0-.52 0z" fill="#1e1e1e"/><path d="M530.69 837c-.51-2.23.23-4.52.46-6.79a80.37 80.37 0 0 0-.67-14s-.29-34.3-.85-50.74h-10.58c2.05 20.05 3 50.18 3 50.18.19.71-.71 10.29-.73 12 0 0-6.8 7.6-2.58 9.34.09 2.38-.63 11 1.17 11.18 2.46.3 2.06-6.64 2.81-6.79s.24 7.43 2.73 7.43 1.87-5.77 1.87-5.77c6.14 10.89 3.77-4.27 3.37-6.04z" fill="#f6a87b"/><path d="M531 833.69a62.32 62.32 0 0 0 .55-8.85c-.1-2.86-1-11.53-.76-14-.09-9.33-.47-39.54-.7-45.3h-.82c.13 3.88.54 29.59.64 38.57.06 4.35-.3 8.91.29 13.24a62.76 62.76 0 0 1 0 16.67c-.39 2.44.54 6.92.77 10.27 0 .76.32 4.32-1.86.87-1.47-2.32-.89-5.2-1.42-7.77a.4.4 0 0 0-.71-.18c-.43.48.54 11-1.22 11.21-2.31.27-2.33-8.48-2.56-10.77a.39.39 0 0 0-.76 0 31.44 31.44 0 0 1-1.08 8.49c-.32 1-2.85 3.38-2.24-2.92.15-3.09-.33-6.54.44-9.49.11-.39-.47-.64-.58-.24a11.85 11.85 0 0 0-.41 3.1c-2.94-3 2.65-6.64 3.2-9.32a111.22 111.22 0 0 0 .73-11.27c-.06-4-.31-8-.49-11.92-.39-8.77-2.1-34.44-2.5-38.52h-.82c.43 4.21 3.07 38.17 3 50.89 0 2.36 0 10-1.09 11.52-1.67 2.41-5.62 6.65-2.09 9.54 0 0 .05 4.47-.19 7.47-.32 3.6 3.2 6.68 4.42-2.43.39 3.66 1.27 7.84 3.45 6.48 1.25-.78 1.46-4.77 1.46-4.86 2.68 5.75 4.15 2.74 4.12 1.55-.08-4.02-1.16-8.05-.77-12.03z" fill="#1e1e1e"/><path d="M432.41 840c-.63-.18-2.67-3-2.67-3 .67-3.69-.25-7.55-3.37-11.2-.09-.26 1.5-26.78 1.61-33 .06-3.59.15-21.08 1.92-27.3h-11.82c-.22 4.55-1.38 28.58-.88 36 .44 6.53 2.46 25.56 2.46 25.56-3.28 8-3.22 10.47-2.44 13.61 2.14 8.72 6.15 6.79 4.73 2.39 3 8.22 13.09 8.72 6.23 2.19 3 2.35 10.51.54 5.93-1.82 1.71.88 6.27-3.77-1.7-3.43z" fill="#f6a87b"/><path d="M423.94 834.41c0 1.85-2.17 2.44-2.9 3.83-.6 1.14.07 2.71.32 3.89s1.21 5.33-1.18 4c-1.19-.65-2.14-3.64-2.51-4.86-1.82-6 1.13-10.43 1.86-12.52.61-1.74.39-2.78.2-4.6-.7-6.76-1.43-13.51-2-20.29-1-12.46.61-36.4.7-38.35h-.9c-.57 9.83-1.08 19.68-1 29.49.09 9.23 2.59 30.16 2.62 31.41.05 1.8-3.43 7.74-2.76 11.74 1.07 9.83 6.77 12.26 5.92 5.09-.15-1.29-1.2-3.43-.64-4.64.73-1.56 3-2.14 3-4.18.01-.42-.73-.49-.73-.01zM435.66 839.85a9.39 9.39 0 0 0-2.25-.1 4 4 0 0 1-3.1-2.43 11.2 11.2 0 0 1-.06-3.07 12.42 12.42 0 0 0-1.51-5.55c-.58-.87-1.84-2.29-2.05-3.18s.16-7.2.24-9.12c.42-10.31 1.36-20.53 1.45-30.87a126 126 0 0 1 1.93-20h-.79a124.14 124.14 0 0 0-1.8 16.53c-.21 5.91 0 11.82-.37 17.73-.3 5.24-.86 10.46-1.09 15.7-.08 2-.51 8.86-.25 10.06.34 1.64 2 2.94 2.64 4.54a12.44 12.44 0 0 1 .93 5.32 4.78 4.78 0 0 0 0 2 5.38 5.38 0 0 0 2.78 2.85c1 .32 3.14-.39 3.79.66 1 1.67-1.09 2.4-2.14 2.28-.33 0-.34.46 0 .5 2.28.37 4.77-2.49 1.65-3.85z" fill="#1e1e1e"/><path d="M428.07 839.4c1.12 2.55 3.21 3.52 5.69 4.36 1.63.52 2.1 1.84-.43 2.32a7 7 0 0 1-5.67-1.86c-.32-.28-.8.14-.5.46 4.43 4.42 11.79 1.12 7.49-1.34a9 9 0 0 1-6.09-4.19.28.28 0 0 0-.49.25z" fill="#1e1e1e"/><path d="M425.58 841.77a24.84 24.84 0 0 0 2.11 3.86c4.88 3.22 1.79 5.11-.6 3.18-1-.76-2.62-1.08-4.79-5.84-.26-.41-.93-.07-.67.35 1.25 2 1.93 3.87 3.89 5.37 1.09.83 3.41 2.46 4.8 1.39.82-.63 1.51-2-1.69-4.52a26.78 26.78 0 0 1-2.49-4.08.32.32 0 0 0-.56.29z" fill="#1e1e1e"/><path d="M428.57 838.45c-.37.28-2.46 2.52-4.08 2.53-.57-.08-.63.85-.05.9 1.67 0 4-2.12 4.57-3.06a.29.29 0 0 0-.44-.37z" fill="#1e1e1e"/><path d="M579.74 778.52c-1-.23-7.87-1.91-10.35-2.27.53 17.63.91 45.23.86 46.24-.15 3.32-11.81 7.89-11.43 10.36.53 3.45 8.13-1 8.46-.93 3.42.42 2.8 17.34 6.32 16.74 3.77-.66-.78-10.87 1.34-11.2 1.69-.27 5.84 10.73 7.75 9.84 3.3-1.53-4.25-11-2.22-12 2-.06 12.71 6.7 10.11.66-.22-.5-9.5-3.18-11.25-13.93 0 .04.93-39.68.41-43.51z" fill="#f6a87b"/><path d="M580 778.58l-.61-.13c.48 5.56-.12 31.51-.47 42.3 0 8.54 7.44 13.49 9.2 14.47 4.12 1.88 2 3 .57 2.84-2.52-.3-7.82-4.81-8.92-2.38-1 2.17 2.72 7.24 3.08 8.38.51 1.69-.18 4.2-2 1.64-2.87-3.86-4.23-9.57-6.37-8.47-1.47.76 0 7.33.09 8.54.26 3.71-1.76 2.82-2.44 1-1.45-3.89-1.45-12.52-3.58-14.51-2.33-2.18-5.67 2.27-8.46 1.41-4.51-1.4 8.26-6.66 9.77-9.38.93-1.68.7-3.64.68-5.47-.1-8.7-.66-37.05-.83-42.53l-.72-.11c.08 2.86.64 28.73.78 38.81.33 8.85.48 8.91-4.78 12.13-2 1.22-4.44 2.5-6 4.33-2.44 2.54.89 4.38 4.92 2.33s4.43-.5 4.88.7c1 2.8 1.26 13 3.93 14.58 3.6 1.72 2.57-5 2.13-7.63-.1-1.15-.63-4.06 1.13-2.62 1 1.66 6.11 13.6 7.89 7.32.44-2-1.2-4.41-2.07-6.11-3-5.32.12-3.91 1.19-3.46 1.24.51 8.06 4.51 8.45.68.25-2-4.69-2.85-7.62-6.42a15.84 15.84 0 0 1-4.15-8.81c0-1.15 1.27-34.01.33-43.43z" fill="#1e1e1e"/><path d="M572.84 827c0 4.17 3.51 6.12 5.07 6.6a.39.39 0 1 0 .22-.75c-1.49-.43-3.94-1.7-4.79-5.9-.05-.24-.49-.21-.5.05z" fill="#1e1e1e"/><path d="M683.52 786l-12 2.69s.61.93.86 1.37c0 0 3.66 28.41 2.18 31.34-3.4-1.29-5.77 4.91-11.37 5.74-3.5.51-7.11 5.19 4.3 3.22-1.07 2.06-5.26 15.39-3.46 15.73 2.67.49 4.36-8.88 6.18-11.13l.79.46a27.22 27.22 0 0 0-2.39 9.33c-.21 7.29 3.25 2.65 3.48 1.85s1.44-8.3 2.22-10.28h1.45c-.51 2.56-2.43 11.23-.43 11.5 2.12-.69 3.7-10.58 3.88-11.74.14-1 5.66-11.42 3.17-15.6 0 0 .88-21.74 1.33-31.91a19.32 19.32 0 0 0-.19-2.57z" fill="#f6a87b"/><path d="M682.91 786.18a27.57 27.57 0 0 1 .35 5.69c-.22 5.28-1 23.75-1.14 27.7 0 1.51 1.89 3.4-.78 10.21-2.9 5.18-3.69 13-4.85 16.08-1.48 3.87-2.4-1.87-.4-9.45.06-.21-2-.28-2.05-.19-1.19 3.3-.79 10.53-3.34 11.81-3.85 1.94-.77-9.59.6-12.46.07-.16-1.23-.87-1.3-.77-1.42 1.94-3.29 9.24-4.63 10.37-1.94 1.64-1.47-.89-1.33-1.87a60.4 60.4 0 0 1 3.69-12.77c.24-.24-.48-.22-.48-.17-1.2 3.12-5.64 14.09-3.57 15.84 3 2.51 5.26-10.34 6.63-10.81.65-.23-4.59 12.14-.87 13.66 4.5 1.85 4.34-12 5.07-12.38.08 0 .91 0 .87.13-1 4.21-2 10.61-.37 11.28 2.5 1 3.89-9.31 4.53-11.92.72-2.94 5.4-10.8 3.19-15.82.28-2.54.91-22.16 1.25-30a18.44 18.44 0 0 0-.3-4.38z" fill="#1e1e1e"/><path d="M676.74 835.83c-1.23.17-5.4 0-7.07-1.88-.26-.44-1 0-.65.46 1.89 2 6.44 2.42 7.83 1.91a.25.25 0 0 0-.11-.49zM677.66 824.93c-1.76 3.19-4.87 5.36-8.56 4-.12 0-.31-.08-.4 0-1.52 2-11.28 2.32-7.65-.67 1.44-1.18 4.2-.94 5.94-1.89 2.52-1.38 4.29-5.11 7.52-4.55a.52.52 0 0 0 .45-.24c1.34-1.82-1.54-28.7-2.11-31.2a6.67 6.67 0 0 0-.82-1.75c-.29.05-.57.08-.86.11a6.35 6.35 0 0 1 .85 1.73c.53 2 3.13 27.38 2.44 29.56-.34 1-.38.7-1.45.92-3 .62-4.32 4.13-7.46 5.18-1.46.49-6.81.89-6.06 3.83.45 1.74 5.63 1.39 7.43.84a7.85 7.85 0 0 0 1.87-1.17 7.7 7.7 0 0 0 9.38-4.49c.16-.3-.34-.52-.51-.21z" fill="#1e1e1e"/><path d="M666.78 491.32s-5.38-23.85-7.57-27.15c-.75-1.13-22.41-1.24-24.7.73-4.95 28.1 32.27 26.42 32.27 26.42z" fill="#fff"/><path d="M666.87 491.45s-.82-4.23-2.19-9.76c-1.25-.06-21.28-1.77-23.63-17.85-2.85.25-6 .64-6.7 1.19-3.35 26.42 32.52 26.42 32.52 26.42z" fill="#1e1e1e" opacity=".2"/><path d="M34.7 307.45c3 9.7 25.81 23.35 25.4 40.27.45 7.11-5.21 15.08-7 22-1.35 5.37-.84 9.51-.66 15 1.29 8-13.27 11.12-16.17-.53-1.23-4.31-1.52-8.88-3.07-13.1-.91-2.5-10.66-9-13.16-22.56C17.2 333 35 319.31 34.7 307.45z" fill="#f6a87b"/><path d="M20.22 351.06a33.15 33.15 0 0 0 9.37 16.21 12.17 12.17 0 0 1 3.49 4.82c1.19 2.76 2.38 11.75 3.62 14.81 1.91 4.74 6.61 6.11 11.41 5 6.64-1.59 4.61-8.81 4.57-13.91-.06-7.35 2.78-13.17 5.48-19.81 8.16-18.14-5.74-30-10.22-34.87S37.62 314 35.17 307.72c0-.92-1-.9-1-.27 0 8.88-7 15.07-10.39 22.74-1.45 3.42-5.78 14.13-3.56 20.87zM28.45 324c3-4.6 6.05-9.25 6.63-14.74 2.26 4.88 6.61 8.6 10.26 12.43 5.16 5.39 10.24 11.34 13 18.36 5 12.76-5.83 23.11-6.48 35.5-.16 3.19.16 6.36.2 9.55-.1 6.13-6.44 6.2-7.85 6.13-8.06-.42-8-10.42-9.38-16.38-.58-2.54-1.23-4.74-3-6.69-2.21-2.46-4.72-4.47-6.57-7.27-4.68-7.58-8.5-18.75 3.19-36.89z" fill="#1e1e1e"/><path d="M49.22 325.9a57.61 57.61 0 0 0-7-1.26c-.44-.09-.33-.77.1-.77 8.16.63 7.17 2.05 6.9 2zM31.39 325.66a8.83 8.83 0 0 0-5.63 2.94c-.41.38 0-3.36 5.55-3.58.32 0 .47.56.08.64z" fill="#1e1e1e"/><path d="M59.72 328.27c2.17 16.1-3.77 18.18-16.66 17.08-1.06-.47-6.69-10.35-5.11-14s18.5-5.45 21.77-3.08zM32.67 331.53c2.51 18.63-2.83 17.53-13.63 17.69-1.08-.69-7.34-10.93-5.29-14.66 1.48-2.72 15.6-4.97 18.92-3.03z" fill="#fff"/><path d="M15.28 344.56c1.14 2.64 2 5.57 5.4 5.6 1.77 0 9.59-1.28 11.07-2.23 1.09-.71 1.24-1.73 1.47-3a96.27 96.27 0 0 0 .78-10.7c.87-.9 1.9-.68 3-.7.06 1.27 2.22 11.53 6.86 13 3 1 7.15-.33 10.07-1.07 3.41-.86 4.77-1.36 5.64-4.79S61.34 333.43 61 330c-.24-2.56-3.05-3.88-4.44-3.39-1.87.13-11.83-.17-16.49 2a4.77 4.77 0 0 0-3 3.45 3.56 3.56 0 0 0-3.36.42 2.39 2.39 0 0 0-1.69-1.86c-3.14-1-11.75-.54-16.33 1.52-5.26 2.38-2.14 8.43-.41 12.42zm23.16-12.12c.29-2.08 2.7-2.77 4.45-3.27 5.33-1.5 13.57-1.33 13.69-1.32 5.88 0 1.54 13 1.31 13.73-.53 2.38-5.8 2.9-7.43 3.21-2.62.5-6.07 1.51-7.78-1.07-2.22-2.62-4.53-9.22-4.24-11.28zM15 334.22c2.59-2.77 14-3.07 16.79-2.45 2 .69.58 13.12-.47 14.45-1 1.58-12.47 4.81-13.73.26-.98-1.94-5.23-10.31-2.59-12.26z" fill="#1e1e1e"/><path d="M45.43 336.25a1.31 1.31 0 0 1 1.53.61 1.47 1.47 0 0 1 .08 1.56 1.29 1.29 0 0 1-1.48.62 1.25 1.25 0 0 1-.87-1.29 1.36 1.36 0 0 1 .74-1.5zM26.66 339a1 1 0 0 1 1.38-.64 1.39 1.39 0 0 1 .89 1.19c0 2-2 1.11-2.14 1a1.26 1.26 0 0 1-.13-1.55zM47.63 371.23a8.9 8.9 0 0 1-8.07 1.71.48.48 0 0 1 .26-.92 9.21 9.21 0 0 0 7.42-1.3c.3-.19.67.27.39.51zM40.41 345.67a3.23 3.23 0 0 1-2.13 3.69c-1.71.53-3.51-.77-4.29-2.24-.16-.32.28-.72.53-.41.77.94 1.62 2.13 3 2.08 1.68-.06 2.3-1.62 2.32-3.05 0-.31.52-.41.58-.07z" fill="#1e1e1e"/><path d="M654 384.05c-.11-18.5 12.34-27.5 12-36.06-.83-24.09-17.61-31.33-20.71-42.63-1.39 12.19-17.29 24.11-18.79 36.38-2.37 17.18 10.68 20.1 10.63 42.31.75 10.15 16.39 11.25 16.87 0z" fill="#f6a87b"/><path d="M626.15 350.33c1.45 7.76 7.16 13.91 9.16 21.48 1.12 4.27.94 8.13 1.42 12.48a9 9 0 0 0 3.95 6.67c8.9 4.74 12.59-2.67 12.54-2.79 1.51-3.4 1.26-7.15 1.79-10.78a36.76 36.76 0 0 1 3.51-11.39c3.26-6.37 7.69-11.93 8-19.34.35-8.91-5.74-21.21-14.07-30.34-2.76-3.33-5.64-6.76-6.68-11.05a.45.45 0 0 0-.85 0c-2 10.54-10.88 19.9-13.29 23.67-4.15 6.43-6.93 13.63-5.48 21.39zm1-9.3c1.75-7.38 6.39-13.51 10.89-19.42a42.74 42.74 0 0 0 7.32-14.61c2.11 6.05 7.47 10.67 11.08 15.79 7.57 9.88 12.67 21.95 6.14 34.31-1.76 3.3-3.87 6.42-5.44 9.82a36.24 36.24 0 0 0-2.78 9.46c-.62 3.8-.25 7.93-1.76 11.51-1.51 3.26-5.48 4.41-9.35 3.26-6.16-2.59-5.65-7.86-5.78-10.18a42.13 42.13 0 0 0-4.87-18.09C629 356 625.29 349 627.19 341z" fill="#1e1e1e"/><path d="M645.66 372.66c2.57.8 5.07 1.13 7.5-.22a.48.48 0 0 1 .49.82c-2.52 1.55-5.66 1.21-8.24 0-.33-.15-.09-.69.25-.59z" fill="#1e1e1e"/><path d="M626.83 332.23c1.33 8-.49 19.87 19.25 14.11.88-.75 4.88-11.32 2.73-14.67s-20.46-2.67-21.98.56z" fill="#fff"/><path d="M640.7 339.09a1.58 1.58 0 0 1 1-1.31c.88-.29 1.58.57 1.57 1.37a1.23 1.23 0 0 1-.23 1 1.27 1.27 0 0 1-1.59.34 1.42 1.42 0 0 1-.75-1.4z" fill="#1e1e1e"/><path d="M670.05 332.94c1.54 1.76-3.08 12.49-3.08 12.49-11.56 4.8-14.45-3.87-12.72-12.54 1.93-3.36 13.1-3.05 15.8.05z" fill="#fff"/><path d="M626 335.36c.42 2.19 2.55 9.8 4.16 11.38 1.66 1.95 5.67 1.57 8 1.64 2.49.08 6.51.55 8.43-1.54.89-1 2.44-4 3.49-13.15 1-.16 2.07-.59 3 .15-.93 3.48.55 8.93 2.4 11.65 1.42 2.06 4.5 1.9 6.68 1.7 2.53-.22 5.14-.33 6.3-2.83a30.78 30.78 0 0 0 2.43-9.07c.3-2.5-.65-4-3.16-4.41-.13 0-11.12-3.51-14 1.5a3.63 3.63 0 0 0-4-.13c-1.83-5.94-15.08-3.53-19.75-2.12-.13-.05-5.48.05-3.98 5.23zm29.73-3c3.26-2.63 11.56-.3 11.67-.27 3.23 1 1.74 5.07 1.19 7.44-.6 2.57-1.18 5.17-4 5.89-1.86.47-4.64.88-6.51.25-3.32-1.24-5.14-11.06-2.33-13.32zm-28.54 1.31c.22-1.75 2.1-3.49 16.52-3.29 1.93.27 4.31.58 4.83 2.75.88 3.38-1.6 10.31-2.55 11.93-1.74 3.43-11 1.94-12.4 1.6-4.98-.99-5.3-8.01-6.38-13z" fill="#1e1e1e"/><path d="M659.86 339.16V339a1.41 1.41 0 0 1 1-1.29 1.33 1.33 0 0 1 1.41.92 1.48 1.48 0 0 1-.27 1.58 1.28 1.28 0 0 1-1.57.24 1.26 1.26 0 0 1-.57-1.29zM648.88 346.17c.3 1.7 1.36 2.86 3.19 2.68s1.95-2.5 2.2-3c.17-.36.68-.09.61.26-.29 3.18-2.26 3.46-3.12 3.46a3.26 3.26 0 0 1-3.45-3.31c0-.32.51-.41.57-.08zM654.66 325a2.75 2.75 0 0 1 3.79-.55.43.43 0 0 1-.43.75c-1.46-1.28-2.47.21-3.17.26-.24 0-.34-.3-.19-.46zM635.63 324.1a11.59 11.59 0 0 1 8.58.52c.49.27.06 1-.44.75-2.48-1.25-5.39-1-8.06-.68-.36 0-.37-.48-.08-.59z" fill="#1e1e1e"/><path d="M255.37 307.45c-3 9.7-25.82 23.35-25.4 40.27-.45 7.11 5.21 15.08 6.95 22 1.35 5.37.84 9.51.66 15-1.29 8 13.27 11.12 16.17-.53 1.23-4.31 1.52-8.88 3.06-13.1.92-2.5 10.67-9 13.17-22.56 2.89-15.53-14.98-29.22-14.61-41.08z" fill="#f6a87b"/><path d="M266.24 330.19c-3.37-7.67-10.37-13.86-10.39-22.74 0-.63-1-.65-.95.27-2.45 6.25-8.35 10.72-12.77 15.56s-18.38 16.72-10.22 34.87c2.7 6.64 5.54 12.46 5.48 19.81 0 5.1-2.07 12.32 4.57 13.91 4.8 1.14 9.5-.23 11.41-5 1.23-3.06 2.43-12 3.62-14.81a12.25 12.25 0 0 1 3.48-4.82 33.09 33.09 0 0 0 9.38-16.21c2.21-6.71-2.11-17.42-3.61-20.84zm-1.45 30.71c-1.85 2.8-4.36 4.81-6.57 7.27-1.75 1.95-2.4 4.15-3 6.69-1.36 6-1.32 16-9.38 16.38-1.41.07-7.75 0-7.86-6.13.05-3.19.37-6.36.2-9.55-.64-12.39-11.49-22.74-6.47-35.5 2.76-7 7.84-13 13-18.36 3.65-3.83 8-7.55 10.26-12.43.58 5.49 3.66 10.14 6.62 14.74 11.72 18.13 7.89 29.3 3.2 36.89z" fill="#1e1e1e"/><path d="M240.85 325.9a57.61 57.61 0 0 1 7-1.26c.44-.09.33-.77-.11-.77a16.06 16.06 0 0 0-7 1.54.27.27 0 0 0 .14.49zM258.68 325.66a8.83 8.83 0 0 1 5.63 2.94c.41.38 1-.22.62-.62-1.62-1.61-3.73-3.27-6.17-3-.32 0-.48.56-.08.64z" fill="#1e1e1e"/><path d="M230.35 328.27c-2.17 16.1 3.77 18.18 16.66 17.08 1.06-.47 6.69-10.35 5.11-14s-18.5-5.45-21.77-3.08zM257.4 331.53c-2.51 18.63 2.83 17.53 13.63 17.69 1.08-.69 7.34-10.93 5.29-14.66-1.48-2.72-15.6-4.97-18.92-3.03z" fill="#fff"/><path d="M274.32 332.12c-4.58-2.06-13.19-2.54-16.33-1.52a2.39 2.39 0 0 0-1.69 1.86 3.56 3.56 0 0 0-3.36-.42 4.77 4.77 0 0 0-3-3.45c-4.67-2.15-14.62-1.85-16.49-2-1.39-.49-4.21.83-4.44 3.39-.32 3.43.59 7.35 1.43 10.65s2.23 3.93 5.64 4.79c2.92.74 7.06 2 10.07 1.07 4.64-1.45 6.8-11.71 6.86-13 1.08 0 2.11-.2 3 .7a93.94 93.94 0 0 0 .82 10.74c.23 1.23.37 2.25 1.46 3 1.49.95 9.31 2.24 11.08 2.23 3.36 0 4.25-3 5.4-5.6 1.75-3.99 4.86-10.04-.45-12.44zm-26.94 11.6c-1.7 2.58-5.15 1.57-7.77 1.07-1.63-.31-6.9-.83-7.43-3.21-.23-.71-4.57-13.74 1.31-13.73.12 0 8.36-.18 13.69 1.32 1.75.5 4.16 1.19 4.45 3.27s-2.02 8.66-4.25 11.28zm25.13 2.76c-1.26 4.55-12.7 1.32-13.74-.26-1-1.33-2.47-13.76-.46-14.45 2.82-.62 14.2-.32 16.79 2.45 2.61 1.95-1.64 10.32-2.59 12.26z" fill="#1e1e1e"/><path d="M244.64 336.25a1.3 1.3 0 0 0-1.53.61 1.47 1.47 0 0 0-.08 1.56 1.29 1.29 0 0 0 1.48.62 1.25 1.25 0 0 0 .87-1.29 1.36 1.36 0 0 0-.74-1.5zM263.41 339a1 1 0 0 0-1.38-.64 1.39 1.39 0 0 0-.89 1.19c0 2 2 1.11 2.14 1a1.28 1.28 0 0 0 .13-1.55zM242.44 371.23a8.9 8.9 0 0 0 8.07 1.71.48.48 0 0 0-.26-.92 9.21 9.21 0 0 1-7.42-1.3c-.3-.19-.68.27-.39.51zM249.66 345.67a3.23 3.23 0 0 0 2.13 3.69c1.71.53 3.51-.77 4.28-2.24.17-.32-.27-.72-.53-.41-.76.94-1.62 2.13-3 2.08-1.68-.06-2.3-1.62-2.32-3.05 0-.31-.52-.41-.58-.07z" fill="#1e1e1e"/><path d="M153.55 385.59a59.56 59.56 0 0 1 3-16.34c2.42-6.69 10.88-15.37 9.21-27.42-2.49-17.09-19.31-28.06-20.54-36.38C143 318.26 125 323.72 125 348.08c.27 7.12 6.95 14.48 9.38 21.17a60.32 60.32 0 0 1 3 16.34c2.85 9.88 15.74 7.01 16.17 0z" fill="#f6a87b"/><path d="M152.34 316.38c-2.75-3.32-5.64-6.76-6.68-11.05a.44.44 0 0 0-.84 0c-1.9 7.84-9 13.69-13.15 20.37-4.3 6.88-7.76 14.48-7.1 22.74.59 7.33 6 13.13 8.84 19.65a44.14 44.14 0 0 1 3.13 12.54c.93 15.9 13.7 13 16.32 8 1.2-2.22 1.3-7.57 1.93-11.19a39.89 39.89 0 0 1 3.65-11.42c3.26-6.37 7.67-11.93 8-19.33.31-7.75-2.83-18.48-14.1-30.31zm10.16 40.81c-1.7 3.19-3.72 6.22-5.27 9.49-5.36 11.32-2.55 15.2-5.2 21.5-2.11 3.71-6.83 4.36-10.39 2.35-4.58-2.6-3.76-8-4.46-12.49-1.65-10.56-4.28-12.53-9.72-23-4.47-9.64-.59-19.55 4.58-28.07 4-6.62 10.78-12.41 13.21-19.91 2.06 6 7.28 10.49 10.86 15.51 14.22 17.19 9.79 27.08 6.39 34.62z" fill="#1e1e1e"/><path d="M141.68 373.35a8.92 8.92 0 0 0 8.23-.5.48.48 0 0 0-.48-.82 9.28 9.28 0 0 1-7.5.73c-.35-.1-.59.43-.25.59z" fill="#1e1e1e"/><path d="M120.39 332.33c-.06 17.93 10.55 17 19.25 14.1.85-.79 4.88-11.31 2.73-14.66s-19.25-2.85-21.98.56z" fill="#fff"/><path d="M136.79 339.25s0-1.28-1-1.41a1.31 1.31 0 0 0-1.4.91 1.44 1.44 0 0 0 .27 1.58 1.28 1.28 0 0 0 1.57.24 1.26 1.26 0 0 0 .56-1.32z" fill="#1e1e1e"/><path d="M169.82 332.33c.44.9-1 12.91-4.38 14.55-5.19.56-19.87 6.73-17.59-15.11 2.15-3.35 20.67-2.18 21.97.56z" fill="#fff"/><path d="M166.7 330.22a34.73 34.73 0 0 0-15.09-1.07c-2.5.43-4 1.49-4.65 3.15a4.14 4.14 0 0 0-3.64 0 4.52 4.52 0 0 0-3-2.77c-5-1.66-11.81-.84-16.8.67a4.06 4.06 0 0 0-4.1 4.29c.33 3.4 4 12.26 4.93 12.92 2.17 1.61 11.36 1.72 14.31.46 4.66-1.53 5.14-12.78 5-14.12 1-.15 2-.55 2.93.1-.16 6.39 2.61 12.08 3.5 13.06 2.67 3.09 14.73 1.85 16.4-.1 1.09-1.28 3.74-9.18 4.15-11.38.56-2.96-.74-5.43-3.94-5.21zM139.64 345c-1.58 3.73-10.93 2.17-12.47 1.76a4.09 4.09 0 0 1-3.19-2.46c-.4-.9-2.19-5.86-2.6-7.46-1.71-5.48 2.31-5.52 2.38-5.59 4.41-.37 8.81-1.22 13.25-.8 1.89.18 4.44.48 5.07 2.58.92 3.9-1.63 10.24-2.44 11.97zm27.87-3.87c-1 2.68-1.34 4.9-4.46 5.63-1.43.34-10.53 2.3-12.4-1.6-1-1.62-3.39-8.21-2.56-11.93.52-2.17 2.9-2.54 4.83-2.75 4.53-.49 16.53.09 16.53 3.29.11.91-1.45 5.94-1.94 7.34z" fill="#1e1e1e"/><path d="M156 339.18a1.58 1.58 0 0 0-1-1.31 1.29 1.29 0 0 0-1.57 1.37 1.23 1.23 0 0 0 .23 1 1.25 1.25 0 0 0 1.58.33 1.41 1.41 0 0 0 .76-1.39zM141.92 346.34a3.26 3.26 0 0 0 3.45 3.31 3 3 0 0 0 2.14-.81 4.29 4.29 0 0 0 1-2.64c.07-.35-.43-.63-.61-.26a5.77 5.77 0 0 0-.34 1.42 2 2 0 0 1-1.86 1.58c-1.83.19-2.89-1-3.19-2.67-.05-.34-.57-.25-.57.07zM149.14 325.35c3-.73 5.7-1.57 8.7-.44.53.19.11-3.48-8.91-.05a.27.27 0 0 0 .21.49zM133 324.78a12.31 12.31 0 0 1 7.31.93c.49.25.92-.48.44-.74a10.1 10.1 0 0 0-7.83-.77c-.29.11-.29.62.08.58z" fill="#1e1e1e"/><path d="M353.07 385.9c.37-5.52 1.11-8.1 3-13.3 2.42-6.69 11-15.64 9.21-27.42-1.74-7.82-5.65-18.41-10.58-24.71-3.26-4.16-9.72-4.18-10-9-1.55 5.06-6.46 5.13-9.72 9.29-4.93 6.3-8.59 16.64-10.33 24.46-1.8 12.33 6.79 20.73 9.21 27.42 1.89 5.2 2.55 7.12 2.93 12.64.34 7.39 13.76 9.36 16.28.62z" fill="#f6a87b"/><path d="M365.85 346.07c-1-7.17-4.14-14.8-7.66-21.06-1.48-2.61-3.12-5.37-5.67-7.07s-7.35-2.87-7.34-6.51a.45.45 0 0 0-.87-.12c-1 3.83-4.56 4.84-7.42 7-2.6 1.94-4.32 4.92-5.83 7.74-4.33 8-7 18.07-7.13 21.81a23.53 23.53 0 0 0 2 10.64c1.72 3.81 7.87 12.64 9.65 20.95.61 3.15 0 6.83 2.23 9.44 3.75 4.4 11.73 4.74 14.77-.6 1.43-2 1.07-6.85 1.94-10.11a46.31 46.31 0 0 1 4.15-10.18c3.89-7 8.33-13.44 7.18-21.93zm-2.45 11.6c-1.61 3.71-3.91 7.07-5.81 10.64a49.3 49.3 0 0 0-3.68 9.15c-1 3.34-.84 8.44-2.14 10.32-1.71 3-8 5.56-12.81.87-1.69-1.72-1.8-3.91-2-6.18-.47-5.65-2.71-11.05-5.49-15.94-3.94-6.95-8-13.55-6.17-21.9a68 68 0 0 1 7.52-19.78 20.43 20.43 0 0 1 7.6-7.7 10 10 0 0 0 4.2-4.17 7.48 7.48 0 0 0 2.83 3.14c3.1 2 5.9 3 8.08 6.22 4.41 6.42 13.47 23.9 7.87 35.33z" fill="#1e1e1e"/><path d="M341.17 374.45a8.5 8.5 0 0 0 8 0c.53-.3 0-1.11-.48-.82-2.37 1.31-4.77 1-7.26.23-.34-.11-.58.43-.25.59z" fill="#1e1e1e"/><path d="M319.89 334.73c.36 16.44 7.69 16.44 19.25 13.53.89-.7 4.88-10.85 2.72-14.06s-18.43-3.04-21.97.53z" fill="#fff"/><path d="M336.29 341.77v-.13a1.41 1.41 0 0 0-1-1.29 1.31 1.31 0 0 0-1.4.92 1.46 1.46 0 0 0 .26 1.58 1.28 1.28 0 0 0 1.57.24 1.26 1.26 0 0 0 .57-1.32z" fill="#1e1e1e"/><path d="M369.32 334.73c1.39 3.23-3.89 13.63-4.38 13.95-6.28 1.35-20.36 5.4-17.6-14.48 2.16-3.2 20.76-2.32 21.98.53z" fill="#fff"/><path d="M366.19 332.7a36.19 36.19 0 0 0-14.81-1.09c-2.64.39-4.26 1.42-5 3.19a3.41 3.41 0 0 0-3.59 0 4.55 4.55 0 0 0-3.24-2.85c-5-1.49-11.62-.75-16.58.71a3.94 3.94 0 0 0-4.1 4.14 32.54 32.54 0 0 0 3 9.27c1.37 3 2.38 3.6 5.67 3.92s7.43.91 10.5-.31c4.71-1.71 5.21-12.14 5.08-13.42 1-.15 2-.55 2.9.08 0 6.89 2.66 11.47 3.53 12.38 2 2.12 6.33 1.57 8.87 1.47 2.3-.08 6.14.29 7.69-1.8 2.08-2.82 3.31-7.33 4-10.68.62-2.92-1.11-5.55-3.92-5.01zM339 347.1c-2.16 3-12.41 1.86-13.85 1.2-2.16-.83-5.19-10.5-4.9-12.2.28-3.29 11.79-3.56 16.23-3.16 1.83.17 4.47.42 5.09 2.49s-.42 9.11-2.57 11.67zm25 1.2c-1.35.61-3.65.45-5.13.52-2.43.11-7.14.76-8.65-1.59-1-1.51-3.17-7.84-2.7-11.48.49-2.24 2.88-2.58 4.86-2.78 4.53-.46 16.17-.07 16.52 3.13.16.9-1.96 11.08-4.9 12.2z" fill="#1e1e1e"/><path d="M355.46 341.7a1.59 1.59 0 0 0-1-1.31c-.88-.29-2.31.67-1.33 2.38a1.25 1.25 0 0 0 1.58.34 1.44 1.44 0 0 0 .75-1.41zM341.42 349.81a3.26 3.26 0 0 0 3.45 3.31c2.65 0 2.95-2.51 3.12-3.46.06-.35-.44-.63-.62-.26s-.13 2.66-2.19 3c-1.83.19-2.89-1-3.19-2.67-.06-.33-.57-.24-.57.08zM349.66 326.77c2.85-.71 5.28-1.55 8.19-.45.53.2.74-.63.23-.84a9.84 9.84 0 0 0-8.63.79.28.28 0 0 0 .21.5zM331.51 327.16a11.11 11.11 0 0 1 6.82.92.43.43 0 0 0 .43-.74 9.22 9.22 0 0 0-7.33-.77c-.28.11-.28.63.08.59z" fill="#1e1e1e"/><path d="M453.63 383.84c.31-6.66 11.61-20.46 12.05-28.56.56-16.22-5.13-21.82-10.06-28.12-3.26-4.16-10.8-5.39-10.65-7.63-2.06 3.54-8.49 4.17-11.75 8.33-4.94 6.31-8.81 11.2-8.45 27.42.26 7.12 12.11 23.82 12.29 28.56 1.99 12.72 17.16 8.47 16.57 0z" fill="#f6a87b"/><path d="M466.21 349.42c-.09-6.93-3.25-13.15-7.29-18.64-1.89-2.56-3.7-5.15-6.45-6.83-1.31-.8-7.06-2.59-7.06-4.42 0-.41-.63-.64-.81-.22-1.12 2.51-5.49 3.63-7.7 4.95-2.9 1.74-12.57 10.07-12.55 25.14 0 3.2-.33 6.66.58 9.76 1 3.54 3.17 6.63 5 9.8 2 3.5 3.31 7.33 5.23 10.89a13.07 13.07 0 0 1 1.48 4.73c1.11 10.21 13.11 9.25 16.21 3.79.44-.65 1.49-7.21 2.81-9.34 4-9.21 9.07-16.9 10-20.61a36.15 36.15 0 0 0 .55-9zm-1.36 8.78c-1 3.89-7.66 15.1-10.16 20.95-1.23 2.86-1.25 5.73-2.44 8.53a.46.46 0 0 0-.24.2c-1.68 3-8.86 5.64-12.63 1-1.47-1.81-1.54-3.59-1.91-5.74-.42-2.44-2-4.46-3-6.67-1.56-3.28-2.81-6.52-4.69-9.66-1.76-2.94-3.62-5.94-4.29-9.36a41.56 41.56 0 0 1-.35-9c1.13-13.25 8.65-22.51 14.78-24.79 1.55-.8 3.76-1.63 4.93-3.12a6.46 6.46 0 0 0 2.46 1.75c2.88 1.47 5.85 2.62 8 5.16 4.84 5.71 9.71 13 10 20.68.17 3.24.31 6.92-.46 10.07z" fill="#1e1e1e"/><path d="M441.41 378.34a8.45 8.45 0 0 0 8 0 .48.48 0 0 0-.48-.82c-2.37 1.3-4.76 1-7.25.22-.34-.1-.58.43-.25.59z" fill="#1e1e1e"/><path d="M420.13 342.05c.36 14.61 7 16.22 19.24 12.78.89-.66 5.33-10.63 2.73-13.29-5.28-5.42-21.4-.38-21.97.51z" fill="#fff"/><path d="M436.52 350.73a.57.57 0 0 0 0-.13 1.4 1.4 0 0 0-1-1.29 1.33 1.33 0 0 0-1.4.91 1.49 1.49 0 0 0 .27 1.59 1.28 1.28 0 0 0 1.57.24 1.25 1.25 0 0 0 .56-1.32z" fill="#1e1e1e"/><path d="M469.56 342.05c.53.77-1.51 10.85-4.38 13.18-7.59.76-19.36 5.12-17.6-13.69 2.16-3.04 20.26-1.98 21.98.51z" fill="#fff"/><path d="M466.43 340.09a37.34 37.34 0 0 0-14.72-1c-2.68.37-4.42 1.33-5.12 3.19a3.77 3.77 0 0 0-3.47 0 4.47 4.47 0 0 0-3.3-2.86c-5-1.42-11.59-.75-16.57.69-1.45-.68-4.38 1.39-4.1 3.94.34 3.07 1.79 6.29 3.12 9.05 1.44 3 2.77 3.23 6 3.49s7.16.83 10.13-.36c3.84-1 5.09-11.43 5-12.46 1-.16 2-.54 2.87.07 0 4.95 2.65 10.61 3.54 11.51 2 2 6 1.49 8.43 1.42 2.22-.07 6.22.33 7.91-1.45 1.08-1.13 1.68-3 2.26-4.44a34.9 34.9 0 0 0 1.95-6c.64-2.88-1.17-4.58-3.93-4.79zm-27.08 13.45c-1.67 3.39-10.94 1.69-12.45 1.51-2.59-.31-3-1.77-4-3.91-.69-1.59-2.53-7.06-2.42-7.8.21-1.38 2.92-2.17 3-2.24 4.42-.27 8.81-1.08 13.25-.7 1.66.13 4.24.32 5 2.08s-.47 8.27-2.38 11.06zm24.18 1.4c-1.64.44-10.93 2-13.12-1.26-1-1.46-3.5-7.84-2.56-10.93.62-2 3.33-2.2 5.09-2.35 4.44-.39 16-.1 16.24 2.94.1.74-1.74 10.66-5.65 11.6z" fill="#1e1e1e"/><path d="M455.69 350.66a1.56 1.56 0 0 0-1-1.31c-.88-.3-1.58.57-1.57 1.36a1.21 1.21 0 0 0 .23 1 1.25 1.25 0 0 0 1.59.33 1.4 1.4 0 0 0 .75-1.38zM441.65 355.29a3.27 3.27 0 0 0 3.46 3.31c2.66 0 2.95-2.51 3.12-3.45.06-.35-.44-.63-.62-.26s0 2.75-2.2 3c-1.82.19-2.89-1-3.18-2.67-.06-.34-.57-.25-.58.07zM451.05 335c3.1-.73 6.17-1 9.2.17.45.18.79-.6.33-.79-2.72-1.16-7.13-1.56-9.74.12a.27.27 0 0 0 .21.5zM429.3 334.46c2.84-.31 6-.43 8.63.88.49.25.93-.47.44-.74a12.57 12.57 0 0 0-9.15-.73c-.29.11-.29.63.08.59z" fill="#1e1e1e"/><path d="M554.57 383.83c1.91-8.9 15.29-13.53 11.63-37.56-1.73-7.82-19.05-14.64-21-18.76-3.32 4.72-19.86 10.81-20.79 18.76-2.89 24.78 11.08 30.34 11.88 37.81 5.93 13.4 17.56 6.67 18.28-.25z" fill="#f6a87b"/><path d="M559.27 337.88c-5.16-3.55-13-8.13-14.11-10.37-2.6 3.7-13.32 8.24-18.29 13.85 14.97-9.03 29.34-4.83 32.4-3.48z" fill="#1e1e1e" opacity=".15"/><path d="M566.3 345.18c-1.58-4.15-5.95-7.1-9.45-9.51-2.37-1.64-11.45-6.25-11.25-8.16 0-.5-.72-.59-.86-.12-.62 2.35-6.58 4.64-13.7 10.1a23.85 23.85 0 0 0-6.11 6.2c-3.41 7.51-1.07 19.81 2.31 25.88 1.84 3.3 4 6.37 6.08 9.54 2.38 3.29 2.59 5.94 3.2 7.22 2.92 6.12 12.68 8.78 16.51 2a44.25 44.25 0 0 0 2.54-6.39 54.31 54.31 0 0 1 4-6.41c3-4.54 6.23-9.18 7-14.68.43-3.15 1.09-12.85-.27-15.67zm-.21 11.82a24.59 24.59 0 0 1-2 9.32c-1.45 3.57-7.58 12.14-8.9 14.65-.85 1.7-1.18 3.75-2.71 6.65a.45.45 0 0 0-.27.21c-2 3.48-6.38 4.22-9.9 2.77a9.27 9.27 0 0 1-4.54-4.07 26 26 0 0 1-1.38-4c-.87-2.28-6.12-8.94-9-14.83-2.9-5.71-2.86-12.76-2.68-19 .16-5.82 5.37-9.38 9.75-12.44 2.53-1.76 9.72-6 10.67-7.64 1.11 1.8 4.58 3.42 5.83 4.21 4.38 2.8 9.14 5.55 12.58 9.51s2.85 9.73 2.55 14.66z" fill="#1e1e1e"/><path d="M541.6 382a8.45 8.45 0 0 0 8 0 .48.48 0 0 0-.48-.82c-2.37 1.3-4.77 1-7.25.22-.35-.1-.59.43-.25.59z" fill="#1e1e1e"/><path d="M520.31 349.46c-1.81 1.77 3.9 11.63 4.38 11.9 20.31 4.64 18.14-7.45 17.6-12.36-2.16-2.74-19.74-1.73-21.98.46z" fill="#fff"/><path d="M536.71 358.38a.48.48 0 0 0 0-.12 1.38 1.38 0 0 0-1-1.29 1.31 1.31 0 0 0-1.4.91 1.44 1.44 0 0 0 .27 1.58 1.28 1.28 0 0 0 1.57.24 1.26 1.26 0 0 0 .56-1.32z" fill="#1e1e1e"/><path d="M569.74 349.46c.53.69-.75 9.72-4.38 11.9-4.28-.08-20 6.36-17.59-12.36 2.16-2.74 20.13-1.95 21.97.46z" fill="#fff"/><path d="M566.52 347.62a39.93 39.93 0 0 0-14.52-1c-2.66.32-4.66 1.15-5.33 3.18a4.58 4.58 0 0 0-3.31.06c-.46-1.5-1.64-2.55-3.82-3a36.42 36.42 0 0 0-16 .72c-1.68-.05-4 .67-4.23 2.7-.3 2.73 1.67 6.26 2.88 8.62 1.38 2.69 2.32 3.36 5.36 3.62 3.25.29 7 .72 10.23 0 3.64-.84 4.87-5.49 5.56-8.71a10.15 10.15 0 0 0 .26-2.42c1-.15 1.94-.53 2.84.06 0 2.65 1.56 8.63 4 10.34 3.26 2.29 14.68 1.25 16.23-.74a23.45 23.45 0 0 0 4-9.72c.39-2.6-1.67-3.44-4.15-3.71zm-26.91 12c-1.84 2.87-10.1 1.68-11.62 1.55s-2.62 0-3.71-1.37c-1-1.16-2.5-5.21-3-6.88-1.66-4.48 2.33-4.24 2.39-4.3 10.52-2 16.44-.61 17.71.5 2.33 1.97-.85 9.08-1.77 10.54zm29.32-7.13c-.47 1.67-1.47 8.4-6.41 8.64-1.52.14-10.46 1.7-12-1.37a17.75 17.75 0 0 1-2-5c-1.09-3.36-.37-5.06 0-5.48 1.13-1.19 3.73-1.22 5.22-1.29 8.15-.55 14.18 1.05 14.95 1.88.9 1 .58 1.5.24 2.66z" fill="#1e1e1e"/><path d="M555.88 358.31a1.58 1.58 0 0 0-1-1.31 1.29 1.29 0 0 0-1.57 1.37 1.2 1.2 0 0 0 .23 1 1.24 1.24 0 0 0 1.58.34 1.41 1.41 0 0 0 .76-1.4zM541.84 361.51a3.27 3.27 0 0 0 3.45 3.31c2.54 0 3-2.51 3.12-3.46.07-.35-.43-.63-.61-.26s-.37 2.91-2.2 3-2.89-1-3.19-2.67c0-.33-.57-.24-.57.08zM552.07 340.94c3.42-.81 7.22-1.08 10.56.17.46.17.79-.6.34-.79-3-1.26-8.25-1.66-11.11.12a.28.28 0 0 0 .21.5zM527.42 341.23c3.15-.37 7.15-1 10.14.38.5.23.93-.48.44-.74-1.41-.76-5.67-1.49-10.66-.23-.28.11-.28.63.08.59z" fill="#1e1e1e"/><path d="M354.11 483.76c.46-24.29 11.37-38.28 11.55-50.24-2.2-26.16-18.58-18.25-20.2-26.7-1 9.5-17 .41-19.71 26.7 1.38 19.74 9.9 18.09 11.05 50.24 1.01 10.65 17.01 10.47 17.31 0z" fill="#f6a87b"/><path d="M356.42 414c-3.45-2.77-9.16-2.08-10.54-7.32a.44.44 0 0 0-.86.11c0 3.68-5 5.07-7.75 5.85-3.74 1.21-9 7.67-10.67 11.2-5.05 9.56 2.56 25.14 6.3 36.33 3.63 9.57 2.93 20.09 3.57 25.06 1.26 7.51 13 9.71 16.86 3a.44.44 0 0 0 0-.4c2.49-3.93 1.3-14.53 3-20.5 1.18-6.28 4-12.22 6-18.27 2.67-7.63 10.07-24.43-5.91-35.06zm5.9 32.5c-1.85 5.89-4.49 11.61-6.05 17.57-2.37 7.47-1.59 18.92-3.54 23.51a.4.4 0 0 0-.23.2c-2.28 4-7.8 4.28-11.5 2.22-4.35-2.43-3.78-7.6-4.07-11.91-.38-11.82-3-17.83-4.09-20.9-5.58-15.16-10.51-27.68-3.52-36a29.62 29.62 0 0 1 7-7.06c1.23-.84 3.06-.94 4.63-1.65s3.87-2.23 4.65-4.15a8.61 8.61 0 0 0 3.77 3.56c1.62.86 3.38 1.06 5 1.72 1.05.42 8.22 7.68 9.65 10.71 3.22 6.78.41 15.48-1.7 22.21z" fill="#1e1e1e"/><path d="M351.09 414.19c7.58-4.85 10.5 5.55 10.5 5.55" fill="#f6a87b"/><path d="M351.16 414.48c7.22-3.52 8.66 3.22 9.4 4.43.24.4 1 .14.79-.34-.66-1.63-2.19-9-10.4-4.58-.23.16-.1.61.21.49z" fill="#1e1e1e"/><path d="M340.58 414.52c-1.71-1-7-3-9.73 4.17" fill="#f6a87b"/><path d="M340.74 414.27c-6.63-3.93-9.83 2.67-10.3 4.31a.43.43 0 0 0 .79.33c.75-1.36 2.88-7.43 9.28-4.1.32.13.5-.37.23-.54zM342.21 456.8a8.87 8.87 0 0 0 8.24.5c.5-.21.14-1.07-.36-.87a9.31 9.31 0 0 1-7.56-.18.32.32 0 0 0-.32.55z" fill="#1e1e1e"/><path d="M321 421.05c-1.33 12.38 13.34 10.92 19.25 9.29.82-.54 4.88-7.45 2.73-9.66s-19.25-1.8-21.98.37z" fill="#fff"/><path d="M337.39 426a1.38 1.38 0 0 0-1-1.29 1.29 1.29 0 0 0-1.4.91 1.44 1.44 0 0 0 .27 1.58 1.27 1.27 0 0 0 1.56.24 1.18 1.18 0 0 0 .57-1.44z" fill="#1e1e1e"/><path d="M370.42 421.05c.91 1.17-1.63 6.66-3.36 8.64-6.88 3-21.17 3.74-18.61-9 2.15-2.21 20.66-1.34 21.97.36z" fill="#fff"/><path d="M367.5 419.41a.56.56 0 0 0-.29.06c-2.8-.68-13.21-1.45-17.07-.41a3.58 3.58 0 0 0-3 3.65 4.15 4.15 0 0 0-2.89.05 3.49 3.49 0 0 0-2.8-3.64c-2.64-.78-11.65-1-17.27.35-2.94 0-4.7 1-4 3.7.62 2.49 2.53 7 5 8.14 1.76.79 9.5.39 12.33.52a5.26 5.26 0 0 0 4.7-3 17.08 17.08 0 0 0 1.86-4.42c2.35-.93 3.3.21 3.33.23.38 1.47 1.62 6.63 6.12 7.18 2.14.28 10.59.23 12.35-.37 2.75-.93 4.37-5.33 5.22-7.85.98-2.95-.92-3.96-3.59-4.19zm-25 5.28c-.44 1.44-1 5.91-8.33 5.86-3.24 0-7.75.55-9.91-2.3a17.42 17.42 0 0 1-1.84-3.33c-2.62-4.41 1.87-4.35 1.93-4.41 10.72-.16 12.75-1.15 16.76 0 2.02.68 1.89 2.35 1.36 4.18zm26.83-.45a18.53 18.53 0 0 1-1.88 3.65c-2.23 3.1-6.24 2.65-9.69 2.66-2.09 0-5.22.37-6.65-1.42a13.93 13.93 0 0 1-2.14-4.44c-.51-1.71-.72-3.39 1.19-4.08 4.07-1.51 17.1 0 17.2 0 1.04.25 3.4.66 1.94 3.63z" fill="#1e1e1e"/><path d="M356.56 426a1.6 1.6 0 0 0-1-1.31 1.29 1.29 0 0 0-1.57 1.37 1.23 1.23 0 0 0 .23 1 1.25 1.25 0 0 0 1.58.33 1.44 1.44 0 0 0 .76-1.39zM342.43 430.13a3.26 3.26 0 0 0 3.46 3.3c2.84 0 2.95-2.51 3.12-3.45.06-.35-.44-.63-.62-.26s0 2.67-2.19 3c-1.83.19-2.89-1-3.19-2.67-.06-.34-.57-.25-.58.08z" fill="#1e1e1e"/><path d="M453.92 483.91c.42-22.81 11.06-37 11.8-50.24.45-8-4.07-19.95-11-24.78-2.45-1.7-15.94-1.53-17.93 0-5.59 2.82-11.57 16-11 24.78 0 13.6 10.71 21.44 11.05 50.24 1.73 12.32 17.53 8.76 17.08 0z" fill="#f6a87b"/><path d="M464.61 423.13c-1.48-3.62-6.46-13.28-10.35-15-3.44-1.6-13-.92-15.71-.32-2 .45-3.48 1.94-4.77 3.5a45.73 45.73 0 0 0-5.66 9.08c-4.93 8.71-2.18 18.24-1.29 21.57 1.9 7.16 4.79 13.95 7.05 21 1.36 4.25 1.66 8.87 2 13.29.39 3.69.17 9.58 1.38 11.63 3 5.66 12.65 6.32 15.89.62a.46.46 0 0 0 0-.41c1.84-3.79 1.42-14.58 3.64-22.4 1.66-6.95 4.82-13.58 6.88-20.43 2.19-7.26 3.91-14.89.94-22.13zM462.89 445c-2 6.67-5 13.1-6.72 19.84-2.19 7.69-2.1 19.31-3.63 22.93a.45.45 0 0 0-.24.2c-1.83 3.21-8.4 5.58-13.5.38-1.53-1.82-1.45-4.33-1.59-6.58-.38-6.29-.44-13.05-2.39-19.11s-4.4-11.91-6.22-18c-2.06-6.93-3.68-14.23-.85-21.19 5.11-10.44 8.3-13.91 10.35-14.6 4.39-1.16 12.39-1.16 15.11-.21 3.93 1.51 9.17 11.3 10.6 14.77 2.93 7.05 1.19 14.51-.92 21.57z" fill="#1e1e1e"/><path d="M442.26 456.45a8.91 8.91 0 0 0 8.25.24c.49-.21.14-1.07-.36-.87a9.34 9.34 0 0 1-7.56.07.33.33 0 0 0-.33.56z" fill="#1e1e1e"/><path d="M421.05 415.17c-1.34 1.06 2.61 7.65 4.38 7.77 17.77 3 18.4-3.14 17.59-8.07-2.15-1.79-19.86-1.35-21.97.3z" fill="#fff"/><path d="M437.45 419.1v-.1a1.39 1.39 0 0 0-1-1.29 1.3 1.3 0 0 0-1.4.91 1.47 1.47 0 0 0 .26 1.59 1.29 1.29 0 0 0 1.57.23 1.26 1.26 0 0 0 .57-1.34z" fill="#1e1e1e"/><path d="M470.48 415.17c1.31 1-2.37 5.91-3.91 7.65-14.62 2.36-19.14 0-18.06-7.95 4.59-3.44 21.36-.18 21.97.3z" fill="#fff"/><path d="M467.28 413.79c-2.81-.63-12.09-1.32-16.63-.45-1.54.28-4.52.76-3.45 3.83a5.39 5.39 0 0 0-2.88.05c.08-.46.63-3.5-3.44-3.88a62.87 62.87 0 0 0-16.62.45c-2.38-.22-4.8.55-4 3.14.66 2.19 2.76 5.82 5 6.69 1.57.62 10 .63 12.33.43 4.72-.21 5.82-4.17 6.26-5.2 3.53-1 3.86.33 4 .33a16.23 16.23 0 0 0 1.49 2.45 5.52 5.52 0 0 0 4.62 2.42c3.34 0 10.64.23 12.33-.43 2.18-.85 4.37-4.51 5-6.69.71-2.57-1.91-3.2-4.01-3.14zm-24.68 4.1a9.75 9.75 0 0 1-2.38 3.95c-1.63 1.36-4.91.92-6.94.9-2.79 0-6.89.41-8.93-1.72-4.62-5.56-2-5.75-.21-6.07a.59.59 0 0 0 .24-.11c3.6.1 7.22-.4 10.83-.39 6.87-.33 8.07 1.43 7.39 3.44zm25 2.54c-2 2.7-5.83 2.27-8.93 2.31-2.07 0-5.54.51-7.28-.79a9.49 9.49 0 0 1-2.49-4.06c-.62-1.86.09-2.72 1.89-3.07 3.43-.62 12.62.12 16.33 0 .26.39 1.2.19 1.57.36 2.67.44-.43 4.41-1.06 5.25z" fill="#1e1e1e"/><path d="M455.65 417.71c-.88-.29-1.58.57-1.56 1.37a1.23 1.23 0 0 0 1.81 1.35c1.61-.76.61-2.5-.25-2.72zM442.49 422.34a3.27 3.27 0 0 0 3.46 3.31c2.65.11 2.95-2.51 3.12-3.46.06-.34-.44-.63-.62-.26s-.1 2.77-2.2 3c-1.82.18-2.89-1-3.18-2.68-.06-.33-.57-.24-.58.08z" fill="#1e1e1e"/><path d="M520.84 408.17c3.52 8.45 28.19 3.14 22.38-.06z" fill="#fff"/><path d="M544.28 408c-.37-1.86-16-1.68-19.73-.74-8.81-.27-1.53 5.14 1.15 5.46 3.55.68 7.7.29 11.31.21 6.66-.08 8.11-3.65 7.27-4.93zm-5.15 3.58c-3.32.06-6.24.13-12.72-.19a7 7 0 0 1-3.79-2c-1.06-1.27.47-.81 1.62-.95.12 0 16.53-.59 18.57.26.62.84-1.58 2.41-3.68 2.92z" fill="#1e1e1e"/><path d="M570.56 408.26c1.88 4.92-23.22 6.67-21.89-.15 2.15-.87 21.33-.11 21.89.15z" fill="#fff"/><path d="M567.65 407.23c-5.12-1.05-20.5-.94-20 .81-.84 1.24 2.33 5.14 7.27 4.93 3.57.09 7.8.51 11.31-.21 1.58-.32 4.7-2 5.28-3.64.67-2.03-2.76-1.89-3.86-1.89zm-2.17 4.2c-2.27.35-12 .56-13.9-.17-.71-.27-3.12-1.72-2.5-2.52.4-.51 3.19-.36 3.79-.39 1.65-.07 14.66.11 14.78.13 5.05-.48-.82 2.9-2.17 2.95z" fill="#1e1e1e"/><path d="M549.45 410.87c-3.58-11.4-6.93 0-6.93 0s-14.95 3.2-13.68 22.55c.43 18 8.35 28.51 8.3 50.24 2.88 13.27 17.55 8 17.07 0 .64-19.23 6.81-25.89 8.55-50.24.93-19.26-12.65-22.42-13.31-22.55z" fill="#f6a87b"/><path d="M563 427.08c-1.39-6.08-2.89-13.92-13.26-16.58-.43-4.82-4-7.44-6.56-3a10.47 10.47 0 0 0-1.06 3.07c-1 .68-4.11 1.2-7.5 4.21-11.51 9.08-4.18 32.66-2 42.7.89 3.31 3.7 10.82 3.86 22.23-.24 12.69 7.59 12.67 10.55 12.41 7.75-.68 7.55-8.43 8.17-14.4.27-8.17 4.5-20.72 5.26-24.36.88-4.36 4.01-17.98 2.54-26.28zm-5 32.59c-1.35 4.56-3.67 12.76-3.93 20.65-.26 2.95-.19 11.84-10.08 10.7a7.7 7.7 0 0 1-6.36-7.33c-.42-4.86-.54-9.74-1.18-14.58-.6-4.55-3.73-13.07-6.44-28.92-3.87-22.83 7.7-27.46 12.67-28.86a.45.45 0 0 0 .32-.43c2.13-9 6.39-2.79 6.06.09a.46.46 0 0 0 .31.31c10.31 2.38 11.88 11.84 12.83 16 1.55 8.89-2.8 27.53-4.2 32.37z" fill="#1e1e1e"/><path d="M541.8 448.45a8.91 8.91 0 0 0 8.25.25c.49-.21.13-1.08-.37-.87a9.32 9.32 0 0 1-7.55.07.32.32 0 0 0-.33.55z" fill="#1e1e1e"/><path d="M47.46 405.53c2.13 32.9-11.59 48.41-11.51 50.53.12 3 1.9 27.29 1.94 30.47.06 5.06 13 9.55 15.61-.11.94-24.35 10.77-20.72 10.66-28.63 0 0 4.84-1 4.34-3.66-4.88-26.78-7.1-34.61-21.04-48.6z" fill="#f6a87b"/><path d="M66.73 444.61c-2.52-9.82-3.38-20.56-9.9-28.83-3-3.78-6.18-7.4-9.37-11-.27-.3-.9-.07-.85.35 3.48 21.84-5 39.83-10.71 50-1 2.48.18 6.7.47 9.57.62 6.07.38 12.23.75 18.32.12 1.92-.2 4.05.92 5.73 5.42 6.54 12.07 3.7 14.19.87 1.79-2.38 2.23-5.35 2.5-8.17A47.88 47.88 0 0 1 56.84 471c1.6-4.81 7.6-7.5 7.79-12.95 0-.06 1.21-.26 1.82-.45 4.98-1.5 1.1-9.81.28-12.99zm-7 12.85a30.76 30.76 0 0 0-10.06 1.61.31.31 0 0 0 .17.6c6.11-1.86 11.69-1.12 13.87-1.5-.31 4.67-5.08 6.84-7.09 10.58-2.33 4.32-2.58 10.07-3.05 14.85C53 488 48.91 494 42 490.67c-2.9-1.4-3.66-3.49-3.8-6.6-.12-2.56-.08-17.38-1.52-25a6.69 6.69 0 0 1 .88-5c11.69-20.11 11.26-36.78 10.2-47.44 2.86 3.22 5.72 6.47 8.37 9.86 4 5.15 6 11.84 7.54 18.09.61 2.42 4.12 15 4.24 18.89.09 4.38-5.04 3.96-8.2 3.99z" fill="#1e1e1e"/><path d="M53.62 470.88a18.47 18.47 0 0 0 2.88-.05.45.45 0 0 0 0-.9 19.83 19.83 0 0 0-3 .22c-.43.07-.29.71.1.73z" fill="#1e1e1e"/><path d="M51.14 432.36c3.44 20 10.37 15.09 11.34 13.91.74-.9.58-12.41-1.89-15.54s-8.29-.41-9.45 1.63z" fill="#fff"/><path d="M60.66 438.69a1.29 1.29 0 0 0-1.22-1.25c-1.25 0-1.68 1.82-.82 2.57a1.28 1.28 0 0 0 1.58.14 1.25 1.25 0 0 0 .46-1.46z" fill="#1e1e1e"/><path d="M65.41 431.59c2.72-.32 3.15 9.79 1.46 10.05s-3.79-9.77-1.46-10.05z" fill="#fff"/><path d="M68.12 436.5c-.1-1.32-.3-5.95-2.07-5.44-2-.57-2.5 1.3-2.5 3.11 0 0-.6.17-.73.22a17.23 17.23 0 0 0-.54-1.9c-2-5.61-8.07-4.73-11.28-.73-1.51.69-.23 4.69.5 6.41-1.47.22-6.9.69-8 1.21a.52.52 0 0 0 .12.94c1.47.33 7.22-.47 8.54-.65a68.06 68.06 0 0 0 3.11 6.22c1.19 2.08 2.14 2.39 4.69 2.31a3.31 3.31 0 0 0 3.37-2.09c1-2.3 0-8.8-.2-10.22l.56-.16c0 .06.5 7.51 3.45 6.67 2.21-.67 1.11-4.26.98-5.9zM62 445.22c-.42 1.73-2 1.7-3.61 1.56-2.57.05-7.38-12.78-6.75-14.11 0-.05 4-4 7.24-2.32 1.71.94 2.14 2.95 2.51 4.72.61 2.93 1.39 7.12.61 10.15zm4.45-4.22a13.73 13.73 0 0 1-1.45-7.15c0-1.81 1.09-1.61 1.11-1.61.58.2.58 4.88.77 6.58.05.49.86 3.12-.43 2.18zM50 424.45c3.77-2.37 6.49-.72 7.94-.25a.46.46 0 0 0 .36-.84c-1.87-.94-7.84-2.22-8.65.82a.24.24 0 0 0 .35.27z" fill="#1e1e1e"/><path d="M64.27 441c13.78 5.18 3.28 11.33.36 10.84" fill="#f6a87b"/><path d="M64.11 441.26c12.4 4.47 3.8 10.45.52 10.09-.62 0-.62.93 0 1 3.49.23 14.1-6.5-.28-11.62a.31.31 0 0 0-.24.57z" fill="#1e1e1e"/><path d="M153.67 483.93c.34-19.33 11.11-28.29 11.8-40.81.51-21-19.33-30.71-20.71-37.89-1.46 7.65-21.56 18-20.2 37.89.37 12.08 11.75 21 12 40.81 1.33 11.48 17.18 9.82 17.11 0z" fill="#f6a87b"/><path d="M152.37 414.26c-2.84-2.81-6.16-5.05-7.18-9.14a.44.44 0 0 0-.85 0c-1 4.19-4.44 6.47-7.17 9.53-12.68 14.16-14.38 23.76-12.66 31.63 1.52 7 5.16 13.35 8 19.83a41.11 41.11 0 0 1 3.26 12.66c.31 3.33-.22 7.55 2.11 10.27 3.77 4.41 12 4.79 15-.58a.46.46 0 0 0 0-.41c1.53-3.43 1.25-7.22 1.7-10.89a43.79 43.79 0 0 1 3.61-12.26c2.74-6.29 6.22-12.69 7.41-19.51 1.4-7.92-.12-17.25-13.23-31.13zm12.35 31.48c-1.38 7-4.95 13.43-7.71 19.92a41.07 41.07 0 0 0-3 9.8c-.63 4.05-.36 10.3-2 12.51-1.73 3-7.07 5.6-12.86 1-1.84-1.75-2-4-2.19-6.43a52.45 52.45 0 0 0-4.47-18.74c-2.67-5.94-6-11.95-7.2-18.4-1.6-8.32 1.78-19.44 14.52-32.12 2.05-2 3.93-4 4.93-6.65a16 16 0 0 0 4.45 5.87c13.75 13.68 17.32 24.19 15.53 33.24z" fill="#1e1e1e"/><path d="M141.56 466a8.92 8.92 0 0 0 8.23-.49.48.48 0 0 0-.48-.82 9.28 9.28 0 0 1-7.5.72c-.35-.1-.59.44-.25.59z" fill="#1e1e1e"/><path d="M120.27 425.09c-.63.59 2.18 10.07 4.38 11.78 18.61 3.74 17.15-3.5 17.85-12.23-2.16-2.71-19.22-2.36-22.23.45z" fill="#fff"/><path d="M136.68 431.66a1.42 1.42 0 0 0-1-1.29 1.32 1.32 0 0 0-1.4.92 1.44 1.44 0 0 0 .27 1.58c1.97 1.13 2.13-1.16 2.13-1.21z" fill="#1e1e1e"/><path d="M169.7 425.09c-.76 5.26.69 15.83-19.24 11.42-.93-.51-5.09-9.33-2.73-11.87 3.8-4.11 21.4-.34 21.97.45z" fill="#fff"/><path d="M166.49 423.27c-2.92-.77-12.45-2.06-17.53-.29a3.8 3.8 0 0 0-2.38 2.5 3.73 3.73 0 0 0-3.17 0A3.82 3.82 0 0 0 141 423c-4.58-2.06-17.71.23-17.82.24-2.58-.15-4.4 1.52-3.73 4.44.46 2.06 3 8.91 5 9.89 1.69.87 10.45.91 12.51.61 2.63-.39 3.53-1.51 4.57-3.76.88-1.9 2.13-4.86 2.08-7.35.93-.16 1.85-.5 2.71 0 0 2.49 1.21 5.43 2.08 7.32 1.05 2.25 1.94 3.37 4.58 3.76a34.79 34.79 0 0 0 6.29.1c1.84-.07 4.53.16 6.22-.71 2.44-1.15 4.54-7.83 5-9.89a3.49 3.49 0 0 0-4-4.38zm-26.92 11.91c-1.46 2.17-4.7 1.77-7.06 1.74-1.52 0-6.92.39-8.27-1.56a32.24 32.24 0 0 1-3-6.81c-1.89-4.61 2.33-4.18 2.39-4.24 4.14-.16 8.23-.84 12.38-.66 1.59.07 4 0 5.33 1.15 1.45 1.27.46 7.29-1.77 10.38zm29.32-7.05A30.62 30.62 0 0 1 167 433c-1.09 2.26-1.88 3.47-4.54 3.72-1.52.14-10.1 1.37-12-1.35-1-1.36-4.07-9-2-10.38 3.75-2.85 13.67-.79 17.9-.63 3.91.2 2.87 2.64 2.53 3.77z" fill="#1e1e1e"/><path d="M155.84 431.72a1.58 1.58 0 0 0-1-1.31 1.29 1.29 0 0 0-1.57 1.37 1.2 1.2 0 0 0 .23 1 1.25 1.25 0 0 0 1.58.34 1.41 1.41 0 0 0 .76-1.4zM141.8 436.61a3.27 3.27 0 0 0 3.45 3.31c2.54 0 2.95-2.51 3.12-3.46.07-.35-.43-.63-.61-.26s-.37 2.91-2.2 3-2.89-1-3.19-2.67c-.05-.33-.57-.24-.57.08zM148.89 419.17a8.92 8.92 0 0 1 6.44-.33c.54.11.77-.71.23-.84-2.21-.52-4.94-.77-6.88.67a.27.27 0 0 0 .21.5zM134.17 418.9c2.17-.23 3.82-.41 5.81.68.49.27.92-.47.44-.74a7.35 7.35 0 0 0-6.33-.52c-.28.11-.29.62.08.58z" fill="#1e1e1e"/><path d="M236.69 483.79c.11-18.49-12.34-27.5-12.05-36.06.83-24.08 17.61-31.33 20.71-42.63 1.39 12.19 17.29 24.12 18.79 36.38 2.37 17.18-10.68 20.1-10.63 42.31-.71 10.15-16.36 11.21-16.82 0z" fill="#f6a87b"/><path d="M259.06 428.65c-2.41-3.77-11.27-13.13-13.29-23.67a.44.44 0 0 0-.84 0c-1.05 4.29-3.93 7.73-6.68 11-8.34 9.13-14.43 21.43-14.08 30.35.29 7.4 4.72 13 8 19.33a36.76 36.76 0 0 1 3.51 11.42c.53 3.63.28 7.39 1.79 10.78 0 .12 3.64 7.53 12.54 2.8a9 9 0 0 0 3.95-6.68c.48-4.35.3-8.2 1.42-12.47 2-7.58 7.71-13.73 9.16-21.48s-1.35-14.92-5.48-21.38zm-1 34a42.31 42.31 0 0 0-4.87 18.09c-.13 2.32.38 7.59-5.78 10.18-3.87 1.16-7.84 0-9.34-3.26-1.52-3.58-1.15-7.71-1.77-11.51a36.06 36.06 0 0 0-2.78-9.45c-1.57-3.41-3.68-6.53-5.44-9.83-6.53-12.35-1.43-24.43 6.15-34.31 3.6-5.12 9-9.74 11.07-15.78a42.78 42.78 0 0 0 7.28 14.6c4.5 5.91 9.14 12 10.89 19.42 1.91 7.98-1.8 14.97-5.4 21.82z" fill="#1e1e1e"/><path d="M245 472.41c-2.57.79-5.07 1.12-7.5-.23a.48.48 0 0 0-.48.82c2.52 1.56 5.66 1.21 8.23 0 .33-.16.1-.7-.25-.59z" fill="#1e1e1e"/><path d="M263.84 432c-1.33 7.95.49 19.87-19.25 14.1-.88-.75-4.88-11.32-2.73-14.66s20.46-2.67 21.98.56z" fill="#fff"/><path d="M250 438.83a1.61 1.61 0 0 0-1-1.31c-.88-.29-1.58.57-1.57 1.37a1.21 1.21 0 0 0 .24 1 1.24 1.24 0 0 0 1.58.34 1.44 1.44 0 0 0 .75-1.4z" fill="#1e1e1e"/><path d="M220.62 432.68c-1.54 1.76 3.08 12.5 3.08 12.5 11.57 4.79 14.46-3.88 12.72-12.55-1.92-3.36-13.1-3.05-15.8.05z" fill="#fff"/><path d="M260.71 429.87c-4.67-1.4-17.92-3.82-19.75 2.12a3.63 3.63 0 0 0-4 .13c-2.92-5-13.91-1.52-14-1.5-2.5.41-3.46 1.91-3.16 4.41a30.92 30.92 0 0 0 2.43 9.07c1.16 2.5 3.77 2.61 6.3 2.83 2.18.2 5.27.36 6.68-1.7 1.85-2.72 3.33-8.17 2.4-11.65 1-.74 2-.31 3-.15 1.05 9.11 2.6 12.17 3.5 13.15 1.91 2.09 5.93 1.62 8.42 1.54 2.3-.07 6.31.31 8-1.64 1.61-1.58 3.74-9.19 4.16-11.38 1.48-5.18-3.87-5.27-3.98-5.23zm-28.14 15.53c-1.86.63-4.65.22-6.51-.25-2.82-.71-3.4-3.32-4-5.89-.55-2.37-2-6.46 1.19-7.44.12 0 8.41-2.36 11.67.27 2.81 2.26.99 12.08-2.35 13.31zm24.49 1c-1.42.34-10.66 1.83-12.4-1.6-.95-1.62-3.43-8.54-2.55-11.93.52-2.17 2.9-2.48 4.83-2.75 14.42-.2 16.3 1.55 16.52 3.29-1.08 4.98-1.4 12-6.4 12.98z" fill="#1e1e1e"/><path d="M230.81 438.9v-.12a1.41 1.41 0 0 0-1-1.3 1.33 1.33 0 0 0-1.41.92 1.48 1.48 0 0 0 .27 1.58 1.28 1.28 0 0 0 1.57.24 1.26 1.26 0 0 0 .57-1.32zM241.79 445.91c-.3 1.71-1.36 2.86-3.19 2.68s-1.95-2.5-2.19-3c-.18-.36-.69-.09-.62.26.29 3.18 2.26 3.46 3.12 3.46a3.26 3.26 0 0 0 3.45-3.31c0-.32-.51-.41-.57-.08zM236 424.74a2.75 2.75 0 0 0-3.79-.55.43.43 0 0 0 .43.75c1.47-1.28 2.47.21 3.17.26.24 0 .34-.3.19-.46zM255 423.85a11.5 11.5 0 0 0-8.58.52c-.49.26-.05 1 .44.74 2.48-1.25 5.39-1 8.06-.68.36 0 .37-.47.08-.58z" fill="#1e1e1e"/><path d="M765.14 356.37c6-19-9.21-38.16-18.56-51.42 1.4 24.85-20.29 42-20.21 44.13 0 10.05 10.57 18.38 11 34.81.77 12.07 16.45 9.16 16.06 0a69.85 69.85 0 0 1 7.31-26.13z" fill="#f6a87b"/><path d="M737.5 354.54c2.89-5 7.6-34.46 7.6-36-4.75 17.37-18.8 28.82-18.73 30.53 0 8.59 7.71 15.93 10.26 28.14-.09-9.58-2.03-17.68.87-22.67z" fill="#1e1e1e" opacity=".15"/><path d="M755.4 316.56c-2.92-3.86-5.67-7.86-8.39-11.86a.5.5 0 0 0-.93.25c.35 22.11-13 35.27-15.51 38.16-1.38 1.59-3.17 3.13-4.26 4.94-3.19 3.51 7.52 17.56 9.28 27.61.83 3.22.94 6.47 1.49 9.72 2 8.2 10.51 7.83 13.61 5.47 4.74-3.4 3.26-12 4.51-16a148.21 148.21 0 0 1 5.93-16.73c1.72-.21 3.76-.59 4.59-1.81 1.44-2.1 3.72-20.81-10.32-39.75zm8.6 39.89c-1.71 1-12.62 2.16-21 .81-.39-.06-.57.51-.17.61a49.64 49.64 0 0 0 17.32.42s-2.86 7.08-4.21 10.57c-2.78 6.42-2.55 13.95-3.22 16.73-1.49 6.12-8.48 7.58-12.83 3.26-2.29-2.27-1.91-5.65-2.33-8.6-.74-3.46.71-4.63-9.18-24.59-2.92-6.38-.63-7.82-.2-8.32 3.89-4.54 7.83-8.93 11-14 5-8.06 8.1-17.18 8-26.7 2.35 3.45 4.74 6.88 7.25 10.21 13.4 17.8 12.64 37.58 9.57 39.6z" fill="#1e1e1e"/><path d="M752.41 371.86s1.92 0 2.87-.05a.45.45 0 0 0 0-.9 18.39 18.39 0 0 0-3 .22c-.44.06-.3.7.1.73zM755.07 361c1.45.05 3 .55 4.4-.15.42-.21.13-.89-.32-.76-1.37.4-2.69.12-4.08.26a.33.33 0 0 0 0 .65zM743.92 323.82c3.72-.93 6.49 1 7.67 1.66.46.27 1-.4.59-.76-2-1.69-6-2.88-8.41-1.43a.29.29 0 0 0 .15.53zM756 348.08a4.54 4.54 0 0 0 5.28 3.42c2.85-.37 2.56-3.53 1.62-5.5-.2-.42-.89-.12-.75.32.26.83 1.41 4.39-2 4.29-.88-.07-2.5-.15-3.55-2.8a.35.35 0 0 0-.64.27z" fill="#1e1e1e"/><path d="M733.83 332.86c1.71 17.42 6.32 16.72 20 14.41.94-.69 5.16-11.62 3-15s-20.52-2.35-23 .59z" fill="#fff"/><path d="M754.49 339.66a1.38 1.38 0 0 0-1-1.29 1.32 1.32 0 0 0-1.4.91 1.46 1.46 0 0 0 .27 1.59 1.28 1.28 0 0 0 1.57.23 1.11 1.11 0 0 0 .56-1.44z" fill="#1e1e1e"/><path d="M774.77 333.36c1 1.09 1 15.84-10.75 10.86-.82-.82-4.84-8-2.73-11.42 2.71-4.31 12.76-.32 13.48.56z" fill="#fff"/><path d="M771.69 331.25c-3.64-1.36-9.18-2.77-11.27 1.59a2.4 2.4 0 0 0-2.68 0 4.88 4.88 0 0 0-3.7-3c-5.22-1.31-11.89-.69-17.06.85-.11-.05-4.87-.26-4.08 4.48a37.48 37.48 0 0 0 3.51 10.69c1.31 2.77 3.5 2.73 6.33 2.93 3.15.22 7.3.82 10.3-.4 4.4-1.45 5.2-13 5.05-14.17a1.5 1.5 0 0 1 1.89.08c-.51 3.28 1.37 7.58 3.19 9.89 1.19 1.5 3.12 1.73 4.94 1.74 2.93 0 4.8-.39 6-3.16a25.09 25.09 0 0 0 1.62-7.1 4 4 0 0 0-4.04-4.42zM754 345.67c-1.89 3.53-11.29 1.92-12.85 1.66-3.25-.53-3.65-1.53-6.22-9.54-1.79-5.85 2.19-6 2.26-6 12.67-2.21 18.53-.39 19.27 1.59.96 2.93-1.46 10.71-2.46 12.29zm20.19-9.56c-.13.77-.12 4.53-1.65 6.77-1.19 1.93-6.18 2.53-8 .84-.61-.56-5.68-8.4-1.75-11.56 2.23-1.88 8.79.23 8.91.26 1.96.58 2.86 1.49 2.5 3.69z" fill="#1e1e1e"/><path d="M768.38 339.37a1.6 1.6 0 0 0-1-1.31c-2.42-.27-1.57 2.09-1.34 2.38a1.24 1.24 0 0 0 1.58.33 1.43 1.43 0 0 0 .76-1.4z" fill="#1e1e1e"/><path d="M414 512.46c-3.41 4.64 14.75 4 12.35.07-.87-1.15-10.87-1.88-12.35-.07z" fill="#5a2d22"/><path d="M416.49 515.39c.72.52 5.7.36 7.45 0 0-.02-3.69-3.78-7.45 0z" fill="#f67566"/><path d="M421.54 511.25s-7.8-1.19-8.44 2.1c-.46 2.45 3.84 2.55 5.3 2.64 1.89.13 7.94.61 8.61-2.31.62-2.68-3.74-2.63-5.47-2.43zm3.86 3c-1.87 1.3-5.25 1-7.39 1-1.12-.05-5-.11-4.05-2.1s7.53-1.28 7.58-1.31c1.46.08 6.46.62 3.86 2.41z" fill="#1e1e1e"/><path d="M416.49 515.39c4.27-3 6.16-.48 7.26.08.44.22.83-.43.39-.67-1.18-.67-3.89-3.23-7.91.15a.27.27 0 0 0 .26.44z" fill="#1e1e1e"/><path d="M27.25 514.41a12.14 12.14 0 0 1-10.47 3.05c-3.88-.7-6.64-4-8-7.52 3.7.4 7.23 1.34 11 1.23a33.75 33.75 0 0 0 9.66-1.75 51.87 51.87 0 0 1-2.19 4.99z" fill="#787878"/><path d="M30 508.86c-1.59.31-8.75 3.33-21.94.59 2.36 9.93 18.82 13.24 21.94-.59z" fill="#5a2d22"/><path d="M14.86 516.72c3.77-4.38 10.65-2.32 11.38-1.17-2.12 2.45-10.68 3.63-11.38 1.17z" fill="#f67566"/><path d="M26.32 515c-1.81-1.36-7.94-3-12 1.8-.41.43.24 1.08.65.65a8.46 8.46 0 0 1 10.92-1.8.38.38 0 0 0 .43-.65z" fill="#1e1e1e"/><path d="M30 508.26a33 33 0 0 1-11.12 2c-3.66 0-7.15-1-10.77-1.31a.45.45 0 0 0-.43.56c1.29 3.89 4.25 7.79 8.47 8.65 9.07 1.72 13-3.36 14.42-9.37a.46.46 0 0 0-.57-.53zm-2.77 6.15c-2.41 3.33-13.83 7.19-18.47-4.47 3.7.4 7.23 1.34 11 1.23a33.75 33.75 0 0 0 9.66-1.75 51.87 51.87 0 0 1-2.17 4.99z" fill="#1e1e1e"/><path d="M68.38 508.94c-2.17-.62-10.91 3.67-21.44.46 2.25 8.54 16.49 11.04 21.44-.46z" fill="#5a2d22"/><path d="M50.86 514.42c3.18-1.8 10.78.17 11.5 1.32-2.11 2.44-10.79 1.13-11.5-1.32z" fill="#f67566"/><path d="M68.39 508.37c-3.39.38-6.7 1.3-10.12 1.53a45.49 45.49 0 0 1-11.27-.84c-.31-.05-.7.21-.56.57.55 1.51 2.11 4.17 2.83 4.48 6.47 5.64 17.11 3.4 19.56-5.18.06-.25-.15-.6-.44-.56zm-18.63 5.24a37.36 37.36 0 0 1-2.13-3.5 47 47 0 0 0 9.76.74c3.52-.15 6.9-1.06 10.37-1.51-2.62 7.46-12.07 9.22-18 4.27z" fill="#1e1e1e"/><path d="M62.73 515.43c-1.57-1.22-8.57-3.11-12-1.33a.39.39 0 0 0 .4.67c3.07-1.55 9.67.29 11 1.31.42.36 1.07-.28.6-.65z" fill="#1e1e1e"/><path d="M110.51 509.06c-1.58.31-12.49 3.16-23-.05 2.67 8.34 18.05 11.56 23 .05z" fill="#5a2d22"/><path d="M92.27 514.19c3.5-2.81 10.78.17 11.51 1.32-2.12 2.49-10.78 1.14-11.51-1.32z" fill="#f67566"/><path d="M110.51 508.62c-3.77.41-7.45 1.41-11.26 1.51a35.55 35.55 0 0 1-11.64-1.57.47.47 0 0 0-.52.68c.84 1.46 2.19 3.7 3.53 4.62a13 13 0 0 0 11.71 2.8c3.38-.82 7.54-4.09 8.61-7.48a.45.45 0 0 0-.43-.56zm-19.38 4.74a43.17 43.17 0 0 0-2.57-3.56 36.61 36.61 0 0 0 9.83 1.2c3.89 0 7.6-1 11.44-1.45-1.17 3.25-9.41 10.93-18.7 3.81z" fill="#1e1e1e"/><path d="M104.1 515.18c-1.58-1.39-7.57-4.17-12-1.32a.38.38 0 0 0 .39.65c3.21-1.92 8.27-1.08 11 1.32.4.4 1.06-.25.61-.65z" fill="#1e1e1e"/><path d="M127.07 509.79c5.21 8.95 19.33 9.4 24.77 0-2.2-.52-17.56-.27-24.77 0" fill="#5a2d22"/><path d="M144.23 515.76c-.38-.18-6.18-1.9-9.26.17a11.33 11.33 0 0 0 9.26-.17z" fill="#f67566"/><path d="M151.84 509.4a165.16 165.16 0 0 0-24.77-.07.47.47 0 0 0-.33.78c2.64 3.38 3.91 4 4 4 9.11 7.41 20.5-.63 21.57-4.18a.45.45 0 0 0-.47-.53zm-20.63 4.23c-.05 0-2.07-2.37-3.12-3.43a163.53 163.53 0 0 1 23.11 0c-1.2 2.9-11.43 10-19.99 3.43z" fill="#1e1e1e"/><path d="M144.09 515.2c-2.61-1.08-7-1.43-9.35.39a.4.4 0 0 0 .4.7c2.3-1.49 6.27-1.2 8.69-.2.56.22.8-.67.26-.89z" fill="#1e1e1e"/><path d="M219.69 504.34c-8.82 0-12.28 10.56-13 13.34 2.62 2.71 19.72 5.41 26.34-.45.02 0-3.1-12.89-13.34-12.89z" fill="#5a2d22"/><path d="M224.46 520.17c-.38-.18-5.46-4.34-10.5-.33.04.05 2.43 1.46 10.5.33z" fill="#f67566"/><path d="M232.23 513.44c-.9-1.76-2.88-5.24-4.08-5.85-4.13-3.64-11.81-5.3-16-.69-1.92 2.1-7.39 10.08-5.28 11.57 2.84 2.69 8.91 2.65 12.5 2.65 2.7 0 12.5-1.06 13.89-3.27.81-1.24-.46-3.3-1.03-4.41zm-2 5.07c-4.7 1.9-17.11 2.77-21.92-.13-1-.55-1.22-.7-.81-1.8.93-2.83 4.34-9 6.62-10.32 4.37-2.59 9.88-1.26 13.5 1.84 0 0 4.84 5.82 4.81 8.24.24 1.39-.95 1.66-2.17 2.17z" fill="#1e1e1e"/><path d="M224.7 519.77c-1.6-.83-4.82-4.68-11-.2-.36.3.12.83.48.62 5.75-4.24 9.15-.13 10.1.37.48.28.94-.51.42-.79z" fill="#1e1e1e"/><path d="M179.94 519.84c8.61 0 12.11-8.25 13.23-11.09-2.62-2.71-19.73-5.41-26.34.45 0 0 4.49 10.64 13.11 10.64z" fill="#5a2d22"/><path d="M186 518.68a8.11 8.11 0 0 0-10.51-.33c-.05 1.11 6.85 2.23 10.51.33z" fill="#f67566"/><path d="M192.85 507.83c-3-2.44-17.85-4.39-25.67.3-2.42 1.77 3 7.43 4.54 8.7 4.16 3.67 11.12 5 15.67 1.1 2.02-1.74 8.23-8.49 5.46-10.1zm-8.77 11c-4.72 1.82-12.61-1.07-15.57-7.07-.55-.81-1.54-1.91-.86-2.86 4.13-2.66 12.56-3 17.28-2.5 2.09.23 7.69 1 7.68 2.66.15.94-4.03 8.38-8.53 9.79z" fill="#1e1e1e"/><path d="M185.93 518c-1.52-.76-5.24-4.19-10.8.05-.36.3.12.83.48.62 5.29-3.82 8.79-.41 9.84.12.55.3 1.01-.49.48-.79z" fill="#1e1e1e"/><path d="M259.68 510.43c-2.55-.12-9.24-3-11-1.56-1.35 11.06 22.86 11.45 22.81.56-1.37-1.24-9.26 1.13-11.81 1z" fill="#5a2d22"/><path d="M254.81 516.32c4.1-4 9.62-.65 9.62.44 0 .85-8.56 1.08-9.62-.44z" fill="#f67566"/><path d="M264.65 516.57c-2.35-3-7.34-3-10.09-.52a.23.23 0 0 0 .22.38c5.06-2.77 8-.64 9.3.7.37.39.92-.13.57-.56z" fill="#1e1e1e"/><path d="M271.92 509.17c-1.47-1.93-9.43 1-12.24.92-3.2-.28-9.21-3.3-11.38-1.35-2 2.19 2.58 6.49 4.25 7.48 3.54 2.11 9.82 2.28 13.58.72 1.87-.76 7.92-5.27 5.79-7.77zm-4.76 6a12.24 12.24 0 0 1-6.55 1.89c-4.65.16-9.21-1.17-11.49-5.63-1.93-3.75 3.55-2.35 5.28-1.9a30 30 0 0 0 5.28 1.22c3.84 0 9.44-1.88 11-1.34 2.51.86-2.47 5.06-3.52 5.78z" fill="#1e1e1e"/><path d="M301.92 510.15c-2.77 0-9.86-2.48-10.62-1.26-1.05 9.31 19.72 6.68 20.69.6-.81-1.18-8.48.66-10.07.66z" fill="#5a2d22"/><path d="M296.34 514.47c3.25-2.33 6.79-1.37 7.75.08-2.09 1.26-7.75-.08-7.75-.08z" fill="#f67566"/><path d="M312.43 509.37c-.67-1.56-9.26.43-10.51.46a29.07 29.07 0 0 1-7.62-1.37c-.83-.25-4.65-1.24-3.25 2.34 2 4.29 7.84 5.19 11.79 4.61a20.2 20.2 0 0 0 8-3.35c.61-.52 2.06-1.67 1.59-2.69zm-2.71 2.36a22.64 22.64 0 0 1-5.16 2.58c-7.73 2.49-13.77-2.68-13.11-4.7.37-1.15 2.19-.68 3.12-.4a27.89 27.89 0 0 0 7.35 1.25c2 0 5.34-.76 7.93-.9 3.2-.18 1.6 1.01-.13 2.17z" fill="#1e1e1e"/><path d="M304.29 514.22c-1.38-.88-4.3-3.3-8.2 0-.26.3.07.78.43.57 3.46-3 5.93-.77 7.38.07a.39.39 0 0 0 .39-.64z" fill="#1e1e1e"/><path d="M341.51 512.45c-2.78.07-9.8-2-10.65-1-.83 8.6 18.91 6.88 18.34.33-.84-1.11-6.1.63-7.69.67z" fill="#5a2d22"/><path d="M336.05 516.93c3.2-2.79 6-1.2 7.75-.13 0 0-6.45 1.62-7.75.13z" fill="#f67566"/><path d="M341.51 512.13c-4.11.54-7.9-2.29-10.2-1.42a1.61 1.61 0 0 0-.87 2.11c1 4.15 6.9 5.38 10.41 5.11 6.13-.6 8.65-4.19 8.62-5.46-.05-2.89-7.91-.34-7.96-.34zm7.17.73c-.12 1.11-3.62 4.27-8.6 4.25-3 .15-7.79-.78-8.88-4.19-.74-2.35 2.6-1.27 3.82-1a27.3 27.3 0 0 0 6.49.83c.08.02 7.37-1.75 7.17.11z" fill="#1e1e1e"/><path d="M344 516.46c-1.4-.83-4.84-2.89-8.19.25-.25.3.06.79.43.56 2.92-3 5.9-.94 7.37-.14a.39.39 0 0 0 .39-.67z" fill="#1e1e1e"/><path d="M379.15 511.64c-2.95 0-5.7-1.38-6.07-.06-1.93 7.57 15 5.95 12.61-.25-.85-1.15-3.58.31-6.54.31z" fill="#5a2d22"/><path d="M376.1 516.16c1.72 1 6.34.68 7.19-.47a4.76 4.76 0 0 0-7.19.47z" fill="#f67566"/><path d="M380.25 511.36a19.19 19.19 0 0 1-3.29-.07c-.84-.16-4.35-1.75-4.45 1.15-.16 3.37 4.22 4.72 6.82 4.71s6.94-1.14 7.11-4.52-4.19-1.74-6.19-1.27zm-1.3 5c-1.92 0-6.42-1.22-5.74-4.11.4-2 3.57.6 7.08-.35 1.65-.1 5.22-1.54 5.24.74.02 2.9-4.53 3.69-6.53 3.71z" fill="#1e1e1e"/><path d="M376.1 516.45c3.23-2.81 5.55-1.33 7.3-.41.45.23.83-.42.4-.67-1.45-.82-5.16-2.6-7.93.69-.09.16 0 .42.23.39z" fill="#1e1e1e"/><path d="M459.18 511.85c-3 .09-7.24-1.12-8.06 0s1.58 3.12 8.64 3 10.58-2.17 9.7-3.3-7.29.2-10.28.3z" fill="#5a2d22"/><path d="M457.17 514.85c2.84-2.47 4.86-1.48 6.64-.48z" fill="#f67566"/><path d="M461.8 511.37a37.76 37.76 0 0 1-6.38 0c-1-.12-5.24-1.6-4.77 1.16.61 3.11 8.55 2.75 10.44 2.67 1.66-.06 9-.4 9-3.29-.09-2.58-8.23-.54-8.29-.54zm-1.59 3c-2.19.1-7 .44-8.57-1.57-1.43-1.79 3.14-.85 3.73-.79a35.41 35.41 0 0 0 6.43 0c.07 0 7.18-1.15 7.15.24-.02.75-3.51 2.25-8.74 2.17z" fill="#1e1e1e"/><path d="M464.24 514.18c-1.28-.71-4.35-2.7-7.21.61a.74.74 0 0 0 .39.09c3.31-2.67 5.4-.55 6.43 0 .44.19.83-.46.39-.7z" fill="#1e1e1e"/><path d="M529.65 513.81c0 .85 20.91.62 20.91-.49s-20.91-.32-20.91.49z" fill="#5a2d22"/><path d="M538.87 512.7c-3.12.1-6.59-.26-9.66.32a.39.39 0 0 0-.16.68c1 1.58 5.1.85 6.5.84 4.49 0 15.5.6 15.5-1.24 0-1.37-8.6-.72-12.18-.6zm-8.47 1c2.4-.28 15.34-.43 19.14-.37.46.29-10.99.67-19.14.35z" fill="#1e1e1e"/><path d="M572.51 513c0 .79 15.17.62 15.17-.24s-15.17-.56-15.17.24z" fill="#5a2d22"/><path d="M581.4 512c-3 .07-9.71-.43-9.5 1 .28.79.93.78 1.71.84 2 .17 14.69 1.13 14.52-1.13-.13-1.48-5.84-.71-6.73-.71zm-8.27 1c1.67-.2 10.87-.37 13.65-.31 1.5.53-11.98.9-13.65.31z" fill="#1e1e1e"/><path d="M490.81 513.11c.28 1.9 17.79 1.62 17.79-.42-.74-1.23-18.08-.58-17.79.42z" fill="#5a2d22"/><path d="M508.74 512.23c-.4-.6-11.16-.52-15-.14-1 0-3.56-.07-3.41.81.24 1.27 1 1.34 2.13 1.47a57.86 57.86 0 0 0 7.09.23c.81-.01 10.92.17 9.19-2.37zm-.66.84c-.12.23-3.45.84-7.41.75-1.52 0-8.16.73-9.42-.84 1.86-.47 17.69-1.31 16.83.09z" fill="#1e1e1e"/><path d="M700.89 516.35c-6.45 1-7.87-7.36-.48-8.88 6.39.77 6.86 8.88.48 8.88z" fill="#5a2d22"/><path d="M696.42 514.76c.69 1.5 6 2.37 7.67.2-1.81-1.82-5.51-2.96-7.67-.2z" fill="#f67566"/><path d="M705.82 512c-.43-2.77-3-5.27-5.87-5-2.58.26-4.89 3.35-4.79 5.9.1 3.3 2.93 3.72 4.33 3.69 2.87.31 6.88-1.04 6.33-4.59zm-6.33 4s-3.78-.16-3.65-3.68a4.55 4.55 0 0 1 9-.8c1.03 3.48-2.76 4.53-5.35 4.48z" fill="#1e1e1e"/><path d="M696.8 514.76c2.63-2.9 5.67-.43 6.72.15.4.23.72-.35.36-.61-2.34-1.67-5.36-2.3-7.44.11-.21.24.14.59.36.35z" fill="#1e1e1e"/><path d="M659.62 509.49c4.2 0 4.62 7.51 0 7.51s-4.2-7.51 0-7.51z" fill="#5a2d22"/><path d="M662.69 511.08a3.26 3.26 0 0 0-5-1.3 4.85 4.85 0 0 0-1.19 5.66c.83 1.71 3.5 2.71 5.15 1.49s1.87-4.14 1.04-5.85zm-1.29 5.09c-1.61 1.49-4.14-.11-4.56-1.82-.34-1.39.35-3.5 1.22-4.05 3.6-2.53 5.85 3.56 3.34 5.87z" fill="#1e1e1e"/><path d="M620.57 515.12c-2.84 0-2.76-5-.12-5s2.96 5 .12 5z" fill="#5a2d22"/><path d="M622.4 510.85a2.18 2.18 0 0 0-3.56-.22c-1 1-.76 3-.3 3.74a2.58 2.58 0 0 0 3.63.66c1.1-.93 1-3.03.23-4.18zm-1.3 3.84a1.84 1.84 0 0 1-2.24-1.36 4.58 4.58 0 0 1 .53-2.4c2.45-2.12 4.21 3.22 1.71 3.76zM132.88 543.6c5.46 3 13 1.4 15.44-.1.59-.35 0-1.29-.53-.91-4.31 2.9-10 1.44-14.69.49a.29.29 0 0 0-.22.52zM211.39 543.63c5.46 2.23 12.44 1 17.78-.94.59-.21.32-1.16-.26-.93a28.1 28.1 0 0 1-9 2c-2.89.14-5.58-.45-8.43-.68-.36 0-.36.46-.08.57zM772.57 514.39a119.42 119.42 0 0 1 15.94 0c.58 0 .59-.88 0-.91-5.26-.22-10.83-.82-16 .32a.32.32 0 0 0 .09.63zM8.53 545c7.38-.18 14.56-.9 21.94 0 .57.06.6-.9 0-.91-7.39-.16-14.64-1-22 .32-.35.06-.27.63.09.63zM47.87 544.79c4.38-.12 8.72-.91 13.1-1a45 45 0 0 1 11 1c.58.12.81-.79.24-.88a74 74 0 0 0-24.4.31c-.36.06-.27.63.08.62zM734.34 515c2.52-.43 5.42-1.91 8-1.69a7.81 7.81 0 0 1 3.16 1.53c.51.31 1-.56.46-.79-1.16-.51-2.11-1.47-3.42-1.59-2.61-.24-6 1-8.38 1.93a.32.32 0 0 0 .17.61zM93.73 543.69c3.84.78 9 1.19 12.7-.39.61-.26.08-1.15-.52-.89-3.54 1.52-8.36.77-12.08.55-.41 0-.51.65-.1.73zM248.89 542.85c7.46 3.68 15.72 3.52 22.4-1.69.51-.4-.21-1.12-.72-.71-3.06 2.46-10.79 6.38-21.4 1.73-.39-.12-.66.49-.28.67zM288.54 541.91c3.49 1.78 8 3.31 12 2.63s7.79-1.58 11-3.89c.51-.37 0-1.22-.51-.87a27.58 27.58 0 0 1-9.63 3.52c-4.5 1-8.35-.73-12.59-2-.37-.11-.62.45-.27.62zM171.5 544.46c5.51 2.11 10.83 1.68 16.24-.29a.46.46 0 1 0-.35-.84c-5.25 2.47-10.25 1.65-15.72.51a.32.32 0 0 0-.17.62zM701.59 402.65c1.59 1.39 5 1.18 6.71.14a.42.42 0 0 0-.43-.73 7.31 7.31 0 0 1-6 .09c-.28-.12-.51.31-.29.5z" fill="#1e1e1e"/></svg>