<svg xmlns="http://www.w3.org/2000/svg" xmlns:xlink="http://www.w3.org/1999/xlink" width="3190" height="740" viewBox="0 0 3190 740"><defs><pattern id="New_Pattern_3" width="8.44" height="8.44" x="0" y="0" data-name="New Pattern 3" patternTransform="matrix(.39 0 0 .39 -4486.34 -3092.93)" patternUnits="userSpaceOnUse" viewBox="0 0 8.44 8.44"><g stroke-width="0"><path fill="none" d="M0 0h8.44v8.44H0z"/><path fill="var(--color1, var(--dawn-light))" d="M4.22 4.22h4.22v4.22H4.22zM0 0h4.22v4.22H0z"/></g></pattern><pattern xlink:href="#New_Pattern_3" id="New_Pattern_3-2" data-name="New Pattern 3" patternTransform="matrix(.39 0 0 .39 -4488.78 -3092.93)"/><pattern xlink:href="#New_Pattern_3" id="New_Pattern_3-3" data-name="New Pattern 3" patternTransform="matrix(.39 0 0 .39 -4488.78 -3092.93)"/><pattern xlink:href="#New_Pattern_3" id="New_Pattern_3-4" data-name="New Pattern 3" patternTransform="matrix(.39 0 0 .39 -4488.78 -3092.93)"/><pattern xlink:href="#New_Pattern_3" id="New_Pattern_3-5" data-name="New Pattern 3" patternTransform="matrix(.39 0 0 .39 -4488.78 -3092.93)"/><pattern xlink:href="#New_Pattern_3" id="New_Pattern_3-6" data-name="New Pattern 3" patternTransform="matrix(.39 0 0 .39 -4488.78 -3092.93)"/><pattern xlink:href="#New_Pattern_3" id="New_Pattern_3-7" data-name="New Pattern 3" patternTransform="matrix(.39 0 0 .39 -4488.78 -3092.93)"/><pattern xlink:href="#New_Pattern_3" id="New_Pattern_3-8" data-name="New Pattern 3" patternTransform="matrix(.39 0 0 .39 -4488.78 -3092.93)"/><pattern xlink:href="#New_Pattern_3" id="New_Pattern_3-9" data-name="New Pattern 3" patternTransform="matrix(.39 0 0 .39 -4488.78 -3092.93)"/><pattern xlink:href="#New_Pattern_3" id="New_Pattern_3-10" data-name="New Pattern 3" patternTransform="matrix(.39 0 0 .39 -4488.78 -3092.93)"/><pattern xlink:href="#New_Pattern_3" id="New_Pattern_3-11" data-name="New Pattern 3" patternTransform="matrix(.39 0 0 .39 -4488.78 -3092.93)"/><pattern xlink:href="#New_Pattern_3" id="New_Pattern_3-12" data-name="New Pattern 3" patternTransform="matrix(.39 0 0 .39 -4488.78 -3092.93)"/><pattern xlink:href="#New_Pattern_3" id="New_Pattern_3-13" data-name="New Pattern 3" patternTransform="matrix(.39 0 0 .39 -4488.78 -3092.93)"/><pattern xlink:href="#New_Pattern_3" id="New_Pattern_3-14" data-name="New Pattern 3" patternTransform="matrix(.39 0 0 .39 -4488.78 -3092.93)"/><pattern xlink:href="#New_Pattern_3" id="New_Pattern_3-15" data-name="New Pattern 3" patternTransform="matrix(.39 0 0 .39 -4488.78 -3092.93)"/><pattern xlink:href="#New_Pattern_3" id="New_Pattern_3-16" data-name="New Pattern 3" patternTransform="matrix(.39 0 0 .39 -4488.78 -3092.93)"/><pattern xlink:href="#New_Pattern_3" id="New_Pattern_3-17" data-name="New Pattern 3" patternTransform="matrix(.39 0 0 .39 -4488.78 -3092.93)"/><pattern xlink:href="#New_Pattern_3" id="New_Pattern_3-18" data-name="New Pattern 3" patternTransform="matrix(.38 0 0 .39 -4625.39 -3092.93)"/><pattern xlink:href="#New_Pattern_3" id="New_Pattern_3-19" data-name="New Pattern 3" patternTransform="matrix(.39 0 0 .39 -4486.96 -3092.93)"/></defs><g id="walking"><g stroke="#0d090f"><path fill="#c18952" stroke-miterlimit="10" d="M1460.45 210.53a7.5 7.5 0 0 1-7.61-1.61l-14.01-13.15c-3.02-2.83-3.17-7.58-.34-10.6 2.83-3.02 7.58-3.17 10.6-.34l14.01 13.15c3.02 2.83 3.17 7.58.34 10.6a7.6 7.6 0 0 1-2.99 1.95Z"/><path fill="var(--hoodie-dark, var(--dawn-light))" stroke-miterlimit="10" d="M1436.29 158.84s-1.89-35.91-11.84-43.54c-12.09-9.26-26.45 4.53-21.72 20.14s18.34 41.95 18.34 41.95l27.36 33.15 17.72-18.44-29.86-33.26Z"/><path fill="none" stroke-linecap="round" stroke-linejoin="round" stroke-width=".5" d="m1459.14 187.26-14.6 15.62"/></g><rect width="69.26" height="6.53" x="128.92" y="327.16" fill="#0d090f" stroke-width="0" opacity=".2" rx="3.27" ry="3.27"/><rect width="59.73" height="6.53" x="436.02" y="327.16" fill="#0d090f" stroke-width="0" opacity=".2" rx="3.27" ry="3.27"/><rect width="95" height="6.53" x="730.9" y="327.16" fill="#0d090f" stroke-width="0" opacity=".2" rx="3.27" ry="3.27"/><rect width="132.94" height="6.53" x="1044.49" y="327.16" fill="#0d090f" stroke-width="0" opacity=".2" rx="3.27" ry="3.27"/><rect width="109.9" height="6.53" x="1375.52" y="327.16" fill="#0d090f" stroke-width="0" opacity=".2" rx="3.27" ry="3.27"/><rect width="72.86" height="6.53" x="1720.5" y="327.16" fill="#0d090f" stroke-width="0" opacity=".2" rx="3.27" ry="3.27"/><rect width="61.2" height="6.53" x="2031.2" y="327.16" fill="#0d090f" stroke-width="0" opacity=".2" rx="3.27" ry="3.27"/><rect width="91.87" height="6.53" x="2326.08" y="327.16" fill="#0d090f" stroke-width="0" opacity=".2" rx="3.27" ry="3.27"/><rect width="132.94" height="6.53" x="2639.67" y="327.16" fill="#0d090f" stroke-width="0" opacity=".2" rx="3.27" ry="3.27"/><rect width="110.7" height="6.53" x="2969.9" y="327.16" fill="#0d090f" stroke-width="0" opacity=".2" rx="3.27" ry="3.27"/><path fill="none" stroke="#0d090f" stroke-linecap="round" stroke-linejoin="round" stroke-width=".5" d="M3014.89 99.51s12.87-2.04 16.68 5.11"/><path fill="none" stroke="#0d090f" stroke-linecap="round" stroke-linejoin="round" stroke-width=".5" d="M3010.22 98.68s12.37.63 18.45 5.95c0 0-8.08-3.1-11.19-3.11M3041.87 50.16l-1.25 22.21"/><path fill="var(--pants-dark, var(--dawn-light))" stroke="#0d090f" stroke-miterlimit="10" d="M3045.53 178.35h-42.09l30.99 137.76 18.25-.83-7.15-136.93z"/><path fill="var(--pants, var(--dawn-light))" stroke="#0d090f" stroke-miterlimit="10" d="m2994.31 178.35 11.76 83.06-23.25 33.01 13.25 12.93 33.75-34.56 6.58-94.44h-42.09z"/><path fill="var(--shoes-check, var(--dawn-light))" stroke-width="0" d="m2985.7 297.05-11.99 8.91 13.38 24.46h15.57l-8.93-5.24 1.21-18.9 3.63-3.63s-3.19-4.73-7.48-.44l-5.39-5.17Z"/><path fill="url(#New_Pattern_3)" stroke="#0d090f" stroke-linejoin="round" stroke-width=".5" d="m2985.7 297.05-11.99 8.91 13.38 24.46h15.57l-8.93-5.24 1.21-18.9 3.63-3.63s-3.19-4.73-7.48-.44l-5.39-5.17Z"/><path fill="var(--color1, var(--dawn-light))" stroke="#0d090f" stroke-linejoin="round" stroke-width=".5" d="m2976.57 303.84-2.86 2.12 13.38 24.47h15.57l-4.55-2.67h-8.56l-12.98-23.92z"/><path fill="var(--shoes-fill, var(--dawn-light))" stroke="#0d090f" stroke-linejoin="round" stroke-width=".5" d="m2991.09 302.22-5.39-5.17-3.83 2.85s4.83 5.54-1.72 10.54l3.03 5.58 6.64-.64 1.28-13.16Z"/><path fill="var(--shoes-check, var(--dawn-light))" stroke-width="0" d="m3037.98 315.65-2.18 14.78h41.38l-26.13-14.78v-5.13s-5.6-1.09-5.6 4.98l-7.47.16Z"/><path fill="url(#New_Pattern_3)" stroke="#0d090f" stroke-linejoin="round" stroke-width=".5" d="m3037.98 315.65-2.18 14.78h41.38l-26.13-14.78v-5.13s-5.6-1.09-5.6 4.98l-7.47.16Z"/><path fill="var(--shoes-fill, var(--dawn-light))" stroke="#0d090f" stroke-linejoin="round" stroke-width=".5" d="m3045.45 315.49-7.47.16-.65 4.44s5.42-.35 5.42 6.92h6.06l2.62-5.88-5.99-5.64Z"/><path fill="var(--color1, var(--dawn-light))" stroke="#0d090f" stroke-linejoin="round" stroke-width=".5" d="M3071.14 327.01h-34.83l-.51 3.42h41.38l-6.04-3.42z"/><circle cx="3053.16" cy="78.81" r="7.62" fill="none" stroke="#0d090f" stroke-linecap="round" stroke-linejoin="round" stroke-width=".5"/><path fill="#dd9b54" stroke="#0d090f" stroke-miterlimit="10" d="m3030.51 67.47 23.29-3.58s5.5 21.41 5.38 22.9-3.31 1.43-3.31 1.43-1.41 21.62-24.19 11.94"/><path fill="#0d090f" stroke-width="0" d="M3058.09 67.82s-39.51-5.25-30.64 30.57c0 0-19.27-4.42-21.23-23.15-1.96-18.73 17.58-28.73 31.06-26.27 13.49 2.46 19.88 13.73 20.81 18.84Z"/><circle cx="3051.61" cy="80.38" r="1.57" fill="#0d090f" stroke-width="0"/><circle cx="3048.9" cy="80.38" r="8.15" fill="none" stroke="#0d090f" stroke-linecap="round" stroke-linejoin="round" stroke-width=".5"/><path fill="none" stroke="#0d090f" stroke-linecap="round" stroke-linejoin="round" stroke-width=".5" d="M3013.13 100.65s12.87-2.04 16.68 5.11"/><path fill="var(--hoodie, var(--dawn-light))" stroke="#0d090f" stroke-miterlimit="10" d="M3041.26 119.22c4.78-2.48 6.37-62.13 7.03-66.85.8-5.7-7.76-3.46-7.76-3.46-56.22-12.11-41.5 40.74-39.64 45.66 1.86 4.92 5.68 4.07 5.68 5.19s-3.31 1.88-4.18 3.05c-.68.92-.54 7.26-.45 9.92-23.86 36.73-18.9 84.99-11.37 93.26 8.39 9.22 65.49 0 65.49 0-15.99-42.42-13.31-73.12-14.81-86.78Z"/><path fill="none" stroke="#0d090f" stroke-linecap="round" stroke-linejoin="round" stroke-width=".5" d="M3008.46 99.81s12.37.63 18.45 5.95c0 0-8.08-1.6-11.19-1.61M3040.11 51.29l-1.25 22.21"/><g fill="#ea5c5c" stroke-width="0"><path d="M2659.19 212.36a7.504 7.504 0 0 1-3.39-7l1.81-19.12c.39-4.12 4.05-7.15 8.17-6.76 4.12.39 7.15 4.05 6.76 8.17l-1.81 19.12c-.39 4.12-4.05 7.15-8.17 6.76a7.423 7.423 0 0 1-3.37-1.17Z"/><path d="M2684.39 162.51s32.46-28.94 25.9-41.23c-6.89-12.93-27.55-5.71-33.42 3.19-5.87 8.9-19.8 33.22-19.8 33.22l-5.54 46.66 24.61-.32 8.24-41.52ZM2676.65 193.36l-21.63.1"/></g><g stroke="#0d090f"><path fill="#c18952" stroke-miterlimit="10" d="M2659.19 212.36a7.504 7.504 0 0 1-3.39-7l1.81-19.12c.39-4.12 4.05-7.15 8.17-6.76 4.12.39 7.15 4.05 6.76 8.17l-1.81 19.12c-.39 4.12-4.05 7.15-8.17 6.76a7.423 7.423 0 0 1-3.37-1.17Z"/><path fill="var(--hoodie-dark, var(--dawn-light))" stroke-miterlimit="10" d="M2684.39 162.51s32.46-28.94 25.9-41.23c-6.89-12.93-27.55-5.71-33.42 3.19-5.87 8.9-19.8 33.22-19.8 33.22l-5.54 46.66 24.61-.32 8.24-41.52Z"/><path fill="none" stroke-linecap="round" stroke-linejoin="round" stroke-width=".5" d="m2676.65 193.36-21.63.1"/></g><circle cx="2730.82" cy="80.31" r="7.62" fill="none" stroke="#0d090f" stroke-linecap="round" stroke-linejoin="round" stroke-width=".5"/><path fill="#dd9b54" stroke="#0d090f" stroke-miterlimit="10" d="m2708.17 68.97 23.29-3.58s5.5 21.41 5.38 22.9-3.31 1.43-3.31 1.43-1.41 21.62-24.19 11.94"/><path fill="#0d090f" stroke-width="0" d="M2735.75 69.32s-39.51-5.25-30.64 30.57c0 0-19.27-4.42-21.23-23.15s17.58-28.73 31.06-26.27c13.49 2.46 19.88 13.73 20.81 18.84Z"/><circle cx="2729.27" cy="81.88" r="1.57" fill="#0d090f" stroke-width="0"/><circle cx="2726.56" cy="81.88" r="8.15" fill="none" stroke="#0d090f" stroke-linecap="round" stroke-linejoin="round" stroke-width=".5"/><path fill="var(--pants-dark, var(--dawn-light))" stroke="#0d090f" stroke-miterlimit="10" d="M2723.09 178.35H2681l48.01 140.01 16.71-5.34-22.63-134.67z"/><path fill="var(--pants, var(--dawn-light))" stroke="#0d090f" stroke-miterlimit="10" d="m2681 178.35-39.42 129.56 17.23 5.19 64.28-134.75H2681z"/><path fill="none" stroke="#0d090f" stroke-linecap="round" stroke-linejoin="round" stroke-width=".5" d="M2690.79 102.15s12.87-2.04 16.68 5.11"/><path fill="var(--hoodie, var(--dawn-light))" stroke="#0d090f" stroke-miterlimit="10" d="M2718.92 120.72c4.78-2.48 6.37-62.13 7.03-66.85.8-5.7-7.76-3.46-7.76-3.46-56.22-12.11-41.5 40.74-39.64 45.66 1.86 4.92 5.68 4.07 5.68 5.19s-3.31.88-4.18 2.05c-.79 1.07-.48 10.29-.42 11.86-24.39 39.44-18.95 82.52-11.4 90.82 8.39 9.22 65.49 0 65.49 0-15.99-42.42-13.31-71.62-14.81-85.28Z"/><path fill="none" stroke="#0d090f" stroke-linecap="round" stroke-linejoin="round" stroke-width=".5" d="M2686.12 101.31s12.37.63 18.45 5.95c0 0-8.08-3.1-11.19-3.11M2717.77 52.79 2716.52 75"/><path fill="var(--shoes-check, var(--dawn-light))" stroke-width="0" d="m2731.95 317.53 2.02 12.83 6.96-.15 32.83-10.26-29.35-6.31-1.53-4.9s-5.67.63-3.86 6.42l-7.08 2.38Z"/><path fill="url(#New_Pattern_3)" stroke="#0d090f" stroke-linejoin="round" stroke-width=".5" d="m2731.95 317.53 2.02 12.83 6.96-.15 32.83-10.26-29.35-6.31-1.53-4.9s-5.67.63-3.86 6.42l-7.08 2.38Z"/><path fill="var(--shoes-fill, var(--dawn-light))" stroke="#0d090f" stroke-linejoin="round" stroke-width=".5" d="m2739.04 315.15-7.08 2.38.54 3.41s5.61-.96 7.4 6.01l5.79-1.81.75-6.39-7.4-3.59Z"/><path fill="var(--color1, var(--dawn-light))" stroke="#0d090f" stroke-linejoin="round" stroke-width=".5" d="m2766.99 318.48-27.09 8.47-6.42.23.5 3.17 6.24.08 33.56-10.49-6.79-1.46z"/><path fill="var(--shoes-check, var(--dawn-light))" stroke-width="0" d="m2645.04 308.99-6.43 13.48 25.01 7.7 17.37.1-11.13-6.87-12.33-10.57 1.51-4.91s-5.03-2.69-6.82 3.11l-7.18-2.05Z"/><path fill="url(#New_Pattern_3)" stroke="#0d090f" stroke-linejoin="round" stroke-width=".5" d="m2645.04 308.99-6.43 13.48 25.01 7.7 17.37.1-11.13-6.87-12.33-10.57 1.51-4.91s-5.03-2.69-6.82 3.11l-7.18-2.05Z"/><path fill="var(--shoes-fill, var(--dawn-light))" stroke="#0d090f" stroke-linejoin="round" stroke-width=".5" d="m2652.22 311.04-7.18-2.05-1.93 4.05s5.28 1.27 3.15 8.21l5.79 1.78 4.24-4.85-4.06-7.15Z"/><path fill="var(--color1, var(--dawn-light))" stroke="#0d090f" stroke-linejoin="round" stroke-width=".5" d="m2676.54 327.53-11.43-.15-25.01-8.02-1.49 3.12 25.01 7.7 17.38.1-4.46-2.75z"/><path fill="var(--pants-dark, var(--dawn-light))" stroke="#0d090f" stroke-miterlimit="10" d="m2387.08 176.22-32.44 22.36 48.52 51.4-12.35 32.03 14.74 10.04 25.67-44.08-44.14-71.75z"/><g stroke="#0d090f"><path fill="#c18952" stroke-miterlimit="10" d="M2344.01 209.66a7.515 7.515 0 0 1-3.16-7.11l2.43-19.05c.52-4.11 4.28-7.01 8.39-6.49 4.11.52 7.01 4.28 6.49 8.39l-2.43 19.05c-.52 4.11-4.28 7.01-8.39 6.49a7.465 7.465 0 0 1-3.33-1.28Z"/><path fill="var(--hoodie-dark, var(--dawn-light))" stroke-miterlimit="10" d="M2370.82 160.65s35.75-30.85 29.6-43.35c-6.47-13.15-27.35-6.6-33.51 2.1-6.16 8.7-23.23 32.6-23.23 32.6l-8.54 49.31 25.11.53 10.58-41.2Z"/><path fill="none" stroke-linecap="round" stroke-linejoin="round" stroke-width=".5" d="m2361.08 191.2-21.62-.63"/></g><path fill="var(--pants, var(--dawn-light))" stroke="#0d090f" stroke-miterlimit="10" d="m2375.02 176.22-41.43 139.61 17.55-.33 58.05-139.28h-34.17z"/><circle cx="2416.92" cy="77.68" r="7.62" fill="none" stroke="#0d090f" stroke-linecap="round" stroke-linejoin="round" stroke-width=".5"/><path fill="#dd9b54" stroke="#0d090f" stroke-miterlimit="10" d="m2394.26 66.34 23.29-3.58s5.5 21.41 5.38 22.9-3.31 1.43-3.31 1.43-1.41 21.62-24.19 11.94"/><path fill="#0d090f" stroke-width="0" d="M2421.84 66.69s-39.51-5.25-30.64 30.57c0 0-19.27-4.42-21.23-23.15-1.96-18.73 17.58-28.73 31.06-26.27s19.88 13.73 20.81 18.84Z"/><circle cx="2415.36" cy="79.25" r="1.57" fill="#0d090f" stroke-width="0"/><circle cx="2412.66" cy="79.25" r="8.15" fill="none" stroke="#0d090f" stroke-linecap="round" stroke-linejoin="round" stroke-width=".5"/><path fill="var(--hoodie, var(--dawn-light))" stroke="#0d090f" stroke-miterlimit="10" d="M2405.01 118.59c4.78-2.48 6.37-62.63 7.03-67.35.8-5.7-7.76-3.46-7.76-3.46-56.22-12.11-41.5 40.74-39.64 45.66 1.86 4.92 5.68 4.07 5.68 5.19s-3.31.88-4.18 2.05c-.72.98-.52 9.1-.44 11.75-17.64 32.03-16.88 84.84-11.38 91.43 7.98 9.58 65.49 0 65.49 0-15.99-42.42-13.31-71.62-14.81-85.28Z"/><path fill="var(--shoes-check, var(--dawn-light))" stroke-width="0" d="m2336.42 315.65-3.68 14.78h42.88l-26.13-14.78v-5.13s-5.6-1.09-5.6 4.98l-7.47.16Z"/><path fill="url(#New_Pattern_3-2)" stroke="#0d090f" stroke-linejoin="round" stroke-width=".5" d="m2336.42 315.65-3.68 14.78h42.88l-26.13-14.78v-5.13s-5.6-1.09-5.6 4.98l-7.47.16Z"/><path fill="var(--shoes-fill, var(--dawn-light))" stroke="#0d090f" stroke-linejoin="round" stroke-width=".5" d="m2343.89 315.49-7.47.16-1.11 4.45s5.83-.36 5.83 6.91h6.11l2.62-5.88-5.99-5.64Z"/><path fill="var(--color1, var(--dawn-light))" stroke="#0d090f" stroke-linejoin="round" stroke-width=".5" d="M2369.58 327.01h-35.99l-.85 3.42h42.88l-6.04-3.42z"/><path fill="var(--shoes-check, var(--dawn-light))" stroke-width="0" d="m2393.04 283.23-10.38 10.74 33.64 24.1-12.64-27.23 2.99-4.17s-3.92-4.15-7.45.78l-6.16-4.22Z"/><path fill="url(#New_Pattern_3-3)" stroke="#0d090f" stroke-linejoin="round" stroke-width=".5" d="m2393.04 283.23-10.38 10.74 33.64 24.1-12.64-27.23 2.99-4.17s-3.92-4.15-7.45.78l-6.16-4.22Z"/><path fill="var(--shoes-fill, var(--dawn-light))" stroke="#0d090f" stroke-linejoin="round" stroke-width=".5" d="m2399.2 287.45-6.16-4.22-3.12 3.23s4.61 2.88.38 8.79l4.93 3.53 5.56-3.25-1.59-8.07Z"/><path fill="var(--color1, var(--dawn-light))" stroke="#0d090f" stroke-linejoin="round" stroke-width=".5" d="m2413.38 311.78-28.32-20.29-2.4 2.49 33.64 24.1-2.92-6.3z"/><g stroke="#0d090f"><path fill="#c18952" stroke-miterlimit="10" d="M2049.52 219.72a7.505 7.505 0 0 1-5.71-5.29l-5.29-18.47a7.492 7.492 0 0 1 5.15-9.27 7.492 7.492 0 0 1 9.27 5.15l5.29 18.47a7.492 7.492 0 0 1-5.15 9.27c-1.2.34-2.42.38-3.57.14Z"/><path fill="var(--hoodie-dark, var(--dawn-light))" stroke-miterlimit="10" d="M2055.27 162.95s16.78-31.81 12.15-43.46c-5.63-14.15-25.03-9.67-28.97 6.16-3.93 15.83-5.75 45.42-5.75 45.42l6.51 42.49 24.66-6.75-8.6-43.86Z"/><path fill="none" stroke-linecap="round" stroke-linejoin="round" stroke-width=".5" d="m2060.32 199.07-20.55 5.92"/></g><path fill="var(--pants-dark, var(--dawn-light))" stroke="#0d090f" stroke-miterlimit="10" d="m2026.14 178.35 51.21 71.87-17.44 30.11 14.19 14.76 28.58-41.75-30.53-74.99h-46.01z"/><path fill="var(--shoes-check, var(--dawn-light))" stroke-width="0" d="m2064.08 283.7-12.55 8.11 27.28 31.11-6.12-29.39 3.24-4.2s-3.94-4.69-6.82-.11l-5.04-5.51Z"/><path fill="url(#New_Pattern_3-4)" stroke="#0d090f" stroke-linejoin="round" stroke-width=".5" d="m2064.08 283.7-12.55 8.11 27.28 31.11-6.12-29.39 3.24-4.2s-3.94-4.69-6.82-.11l-5.04-5.51Z"/><path fill="var(--shoes-fill, var(--dawn-light))" stroke="#0d090f" stroke-linejoin="round" stroke-width=".5" d="m2069.12 289.21-5.04-5.51-3.77 2.44s3.84 3.85-1.63 8.64l4 4.56 6.15-1.9.29-8.22Z"/><path fill="var(--color1, var(--dawn-light))" stroke="#0d090f" stroke-linejoin="round" stroke-width=".5" d="m2077.4 316.12-22.97-26.18-2.9 1.87 27.29 31.11-1.42-6.8z"/><path fill="var(--pants, var(--dawn-light))" stroke="#0d090f" stroke-miterlimit="10" d="M2051.21 188.27h42.09l-34.94 127.34h-18.4l11.25-127.34z"/><circle cx="2095.15" cy="75" r="7.62" fill="none" stroke="#0d090f" stroke-linecap="round" stroke-linejoin="round" stroke-width=".5"/><path fill="#dd9b54" stroke="#0d090f" stroke-miterlimit="10" d="m2072.5 63.66 23.29-3.58s5.5 21.41 5.38 22.9c-.12 1.49-3.31 1.43-3.31 1.43s-1.41 21.62-24.19 11.94"/><path fill="#0d090f" stroke-width="0" d="M2100.08 64.01s-39.51-5.25-30.64 30.57c0 0-19.27-4.42-21.23-23.15-1.96-18.73 17.58-28.73 31.06-26.27s19.88 13.73 20.81 18.84Z"/><circle cx="2093.6" cy="76.57" r="1.57" fill="#0d090f" stroke-width="0"/><circle cx="2090.9" cy="76.57" r="8.15" fill="none" stroke="#0d090f" stroke-linecap="round" stroke-linejoin="round" stroke-width=".5"/><path fill="none" stroke="#0d090f" stroke-linecap="round" stroke-linejoin="round" stroke-width=".5" d="M2055.13 96.84s12.87-2.04 16.68 5.11"/><path fill="var(--hoodie, var(--dawn-light))" stroke="#0d090f" stroke-miterlimit="10" d="M2083.25 119.22c4.78-2.48 6.37-65.94 7.03-70.66.8-5.7-7.76-3.46-7.76-3.46-56.22-12.11-41.5 40.74-39.64 45.66 1.86 4.92 5.68 4.07 5.68 5.19s-3.31 1.88-4.18 3.05c-.52.7-.56 5.83-.52 9.88-24.84 37.91-18.86 88.81-11.31 97.11 8.39 9.22 65.49 0 65.49 0-15.99-42.42-13.31-73.12-14.81-86.78Z"/><path fill="none" stroke="#0d090f" stroke-linecap="round" stroke-linejoin="round" stroke-width=".5" d="M2050.46 96s12.37.63 18.45 5.95c0 0-8.37-3.41-11.48-3.43M2082.1 47.49l-1.24 22.21"/><path fill="var(--shoes-check, var(--dawn-light))" stroke-width="0" d="m2043.73 315.65-3.18 14.78h42.38l-26.13-14.78v-5.13s-5.6-1.09-5.6 4.98l-7.47.16Z"/><path fill="url(#New_Pattern_3-5)" stroke="#0d090f" stroke-linejoin="round" stroke-width=".5" d="m2043.73 315.65-3.18 14.78h42.38l-26.13-14.78v-5.13s-5.6-1.09-5.6 4.98l-7.47.16Z"/><path fill="var(--shoes-fill, var(--dawn-light))" stroke="#0d090f" stroke-linejoin="round" stroke-width=".5" d="m2051.2 315.49-7.47.16-.94 4.39s5.71-.3 5.71 6.97h6.06l2.62-5.88-5.99-5.64Z"/><path fill="var(--color1, var(--dawn-light))" stroke="#0d090f" stroke-linejoin="round" stroke-width=".5" d="M2076.89 327.01h-35.6l-.73 3.42h42.37l-6.04-3.42z"/><path fill="var(--pants-dark, var(--dawn-light))" stroke="#0d090f" stroke-miterlimit="10" d="m1710.91 178.35 37.65 70.52-12.08 30.26 7.61 17.19 30.51-39.72-18.18-78.25h-45.51z"/><path fill="var(--shoes-check, var(--dawn-light))" stroke-width="0" d="m1738.02 282.43-14.5 3.59 15.69 38.29 3.76-29.79 3.78-4.1s-2.51-4.41-5.76-1.14l-2.98-6.85Z"/><path fill="url(#New_Pattern_3-6)" stroke="#0d090f" stroke-linejoin="round" stroke-width=".5" d="m1738.02 282.43-14.5 3.59 15.69 38.29 3.76-29.79 3.78-4.1s-2.51-4.41-5.76-1.14l-2.98-6.85Z"/><path fill="var(--shoes-fill, var(--dawn-light))" stroke="#0d090f" stroke-linejoin="round" stroke-width=".5" d="m1741 289.28-2.98-6.85-4.36 1.08s2.38 4.89-4.35 7.64l2.3 5.61 6.44.2 2.95-7.68Z"/><path fill="var(--color1, var(--dawn-light))" stroke="#0d090f" stroke-linejoin="round" stroke-width=".5" d="m1740.08 317.42-13.2-32.23-3.36.83 15.69 38.29.87-6.89z"/><path fill="var(--pants, var(--dawn-light))" stroke="#0d090f" stroke-miterlimit="10" d="M1773.91 178.35h-38.3l12.69 137.76 18.02-.83 7.59-136.93z"/><circle cx="1779.42" cy="71.5" r="7.62" fill="none" stroke="#0d090f" stroke-linecap="round" stroke-linejoin="round" stroke-width=".5"/><path fill="#dd9b54" stroke="#0d090f" stroke-miterlimit="10" d="m1756.77 60.16 23.29-3.58s5.5 21.41 5.38 22.9-3.31 1.43-3.31 1.43-1.41 21.62-24.19 11.94"/><path fill="#0d090f" stroke-width="0" d="M1784.35 60.51s-39.51-5.25-30.64 30.57c0 0-19.27-4.42-21.23-23.15-1.96-18.73 17.58-28.73 31.06-26.27 13.49 2.46 19.88 13.73 20.81 18.84Z"/><circle cx="1777.87" cy="73.07" r="1.57" fill="#0d090f" stroke-width="0"/><circle cx="1775.16" cy="73.07" r="8.15" fill="none" stroke="#0d090f" stroke-linecap="round" stroke-linejoin="round" stroke-width=".5"/><path fill="none" stroke="#0d090f" stroke-linecap="round" stroke-linejoin="round" stroke-width=".5" d="M1739.4 93.34s12.87-2.04 16.68 5.11"/><path fill="var(--hoodie, var(--dawn-light))" stroke="#0d090f" stroke-miterlimit="10" d="M1767.52 119.22c4.78-2.48 6.37-69.44 7.03-74.16.8-5.7-7.76-3.46-7.76-3.46-56.22-12.11-41.5 40.74-39.64 45.66 1.86 4.92 5.68 4.07 5.68 5.19s-3.31 1.88-4.18 3.05c-.4.54-.52 4.44-.53 8.52-24.38 34.61-18.83 93.69-11.29 101.98 8.39 9.22 65.49 0 65.49 0-15.99-42.42-13.31-73.12-14.81-86.78Z"/><path fill="none" stroke="#0d090f" stroke-linecap="round" stroke-linejoin="round" stroke-width=".5" d="M1734.72 92.5s12.37.63 18.45 5.95c0 0-8.08-1.6-11.19-1.61M1766.37 43.99l-1.24 22.21"/><path fill="var(--shoes-check, var(--dawn-light))" stroke-width="0" d="m1751.76 315.65-2.18 14.78h41.38l-26.13-14.78v-5.13s-5.6-1.09-5.6 4.98l-7.47.16Z"/><path fill="url(#New_Pattern_3-7)" stroke="#0d090f" stroke-linejoin="round" stroke-width=".5" d="m1751.76 315.65-2.18 14.78h41.38l-26.13-14.78v-5.13s-5.6-1.09-5.6 4.98l-7.47.16Z"/><path fill="var(--shoes-fill, var(--dawn-light))" stroke="#0d090f" stroke-linejoin="round" stroke-width=".5" d="m1759.22 315.49-7.47.16-.65 4.44s5.42-.35 5.42 6.92h6.06l2.62-5.88-5.99-5.64Z"/><path fill="var(--color1, var(--dawn-light))" stroke="#0d090f" stroke-linejoin="round" stroke-width=".5" d="M1784.92 327.01h-34.84l-.5 3.42h41.38l-6.04-3.42z"/><path fill="var(--pants-dark, var(--dawn-light))" stroke="#0d090f" stroke-miterlimit="10" d="m1404.65 178.35 7.27 83.06-23.26 33.01 13.26 12.93 33.74-34.56 6.58-94.44h-37.59z"/><path fill="var(--pants, var(--dawn-light))" stroke="#0d090f" stroke-miterlimit="10" d="M1451.38 178.35h-42.09l30.99 137.76 18.24-.83-7.14-136.93z"/><path fill="var(--shoes-check, var(--dawn-light))" stroke-width="0" d="m1391.16 297.05-11.99 8.91 13.38 24.46h15.57l-8.93-5.24 1.21-18.9 3.63-3.63s-3.19-4.73-7.48-.44l-5.39-5.17Z"/><path fill="url(#New_Pattern_3-8)" stroke="#0d090f" stroke-linejoin="round" stroke-width=".5" d="m1391.16 297.05-11.99 8.91 13.38 24.46h15.57l-8.93-5.24 1.21-18.9 3.63-3.63s-3.19-4.73-7.48-.44l-5.39-5.17Z"/><path fill="var(--color1, var(--dawn-light))" stroke="#0d090f" stroke-linejoin="round" stroke-width=".5" d="m1382.02 303.84-2.85 2.12 13.38 24.47h15.57l-4.55-2.67H1395l-12.98-23.92z"/><path fill="var(--shoes-fill, var(--dawn-light))" stroke="#0d090f" stroke-linejoin="round" stroke-width=".5" d="m1396.55 302.22-5.39-5.17-3.83 2.85s4.83 5.54-1.72 10.54l3.03 5.58 6.64-.64 1.28-13.16Z"/><path fill="var(--shoes-check, var(--dawn-light))" stroke-width="0" d="m1443.44 315.65-2.18 14.78h41.38l-26.13-14.78v-5.13s-5.6-1.09-5.6 4.98l-7.47.16Z"/><path fill="url(#New_Pattern_3-9)" stroke="#0d090f" stroke-linejoin="round" stroke-width=".5" d="m1443.44 315.65-2.18 14.78h41.38l-26.13-14.78v-5.13s-5.6-1.09-5.6 4.98l-7.47.16Z"/><path fill="var(--shoes-fill, var(--dawn-light))" stroke="#0d090f" stroke-linejoin="round" stroke-width=".5" d="m1450.91 315.49-7.47.16-.65 4.44s5.42-.35 5.42 6.92h6.06l2.62-5.88-5.99-5.64Z"/><path fill="var(--color1, var(--dawn-light))" stroke="#0d090f" stroke-linejoin="round" stroke-width=".5" d="M1476.6 327.01h-34.84l-.5 3.42h41.38l-6.04-3.42z"/><circle cx="1459.01" cy="78.81" r="7.62" fill="none" stroke="#0d090f" stroke-linecap="round" stroke-linejoin="round" stroke-width=".5"/><path fill="#dd9b54" stroke="#0d090f" stroke-miterlimit="10" d="m1436.35 67.47 23.29-3.58s5.5 21.41 5.38 22.9-3.31 1.43-3.31 1.43-1.41 21.62-24.19 11.94"/><path fill="#0d090f" stroke-width="0" d="M1463.93 67.82s-39.51-5.25-30.64 30.57c0 0-19.27-4.42-21.23-23.15-1.96-18.73 17.58-28.73 31.06-26.27 13.49 2.46 19.88 13.73 20.81 18.84Z"/><circle cx="1457.45" cy="80.38" r="1.57" fill="#0d090f" stroke-width="0"/><circle cx="1454.75" cy="80.38" r="8.15" fill="none" stroke="#0d090f" stroke-linecap="round" stroke-linejoin="round" stroke-width=".5"/><path fill="none" stroke="#0d090f" stroke-linecap="round" stroke-linejoin="round" stroke-width=".5" d="M1418.98 100.65s12.87-2.04 16.68 5.11"/><path fill="var(--hoodie, var(--dawn-light))" stroke="#0d090f" stroke-miterlimit="10" d="M1447.45 119.22c0-.09-.03-.17-.04-.25 4.54-4.82 6.08-61.98 6.72-66.6.8-5.7-7.76-3.46-7.76-3.46-56.22-12.11-41.5 40.74-39.64 45.66 1.86 4.92 5.68 4.07 5.68 5.19s-3.31 1.88-4.18 3.05c-.73.99-.52 8.19-.43 10.43-23.49 36.67-18.53 84.51-11.03 92.75 8.39 9.22 65.49 0 65.49 0-15.99-42.42-13.31-73.12-14.81-86.78Z"/><path fill="none" stroke="#0d090f" stroke-linecap="round" stroke-linejoin="round" stroke-width=".5" d="M1414.31 99.81s12.37.63 18.45 5.95c0 0-8.08-3.1-11.19-3.11M1445.96 51.29l-1.25 22.21"/><path fill="var(--pants-dark, var(--dawn-light))" stroke="#0d090f" stroke-miterlimit="10" d="m1091.73 178.35-43.45 130.32 17.31 4.43 67.91-134.75h-41.77z"/><g stroke="#0d090f"><path fill="#c18952" stroke-miterlimit="10" d="M1157.95 207.76a7.485 7.485 0 0 1-7.76-.54l-15.7-11.07c-3.38-2.39-4.19-7.07-1.81-10.45a7.502 7.502 0 0 1 10.45-1.81l15.7 11.07c3.38 2.39 4.19 7.07 1.81 10.45a7.54 7.54 0 0 1-2.69 2.35Z"/><path fill="var(--hoodie-dark, var(--dawn-light))" stroke-miterlimit="10" d="M1126.83 159.93s-6.87-35.3-17.79-41.47c-13.26-7.49-25.56 8.17-18.7 22.96 6.86 14.8 24 38.99 24 38.99l31.71 29.02 14.98-20.72-34.2-28.78Z"/><path fill="none" stroke-linecap="round" stroke-linejoin="round" stroke-width=".5" d="m1153.41 184.89-12.29 17.5"/></g><circle cx="1137.59" cy="81.81" r="7.62" fill="none" stroke="#0d090f" stroke-linecap="round" stroke-linejoin="round" stroke-width=".5"/><path fill="#dd9b54" stroke="#0d090f" stroke-miterlimit="10" d="m1114.94 70.47 23.29-3.58s5.5 21.41 5.38 22.9-3.31 1.43-3.31 1.43-1.41 21.62-24.19 11.94"/><path fill="#0d090f" stroke-width="0" d="M1142.52 70.82s-39.51-5.25-30.64 30.57c0 0-19.27-4.42-21.23-23.15-1.96-18.73 17.58-28.73 31.06-26.27 13.49 2.46 19.88 13.73 20.81 18.84Z"/><circle cx="1136.04" cy="83.38" r="1.57" fill="#0d090f" stroke-width="0"/><circle cx="1133.34" cy="83.38" r="8.15" fill="none" stroke="#0d090f" stroke-linecap="round" stroke-linejoin="round" stroke-width=".5"/><path fill="var(--pants, var(--dawn-light))" stroke="#0d090f" stroke-miterlimit="10" d="M1129.86 178.35h-42.09l48.01 140.01 16.72-5.34-22.64-134.67z"/><path fill="none" stroke="#0d090f" stroke-linecap="round" stroke-linejoin="round" stroke-width=".5" d="M1097.57 103.65s12.87-2.04 16.68 5.11"/><path fill="var(--hoodie, var(--dawn-light))" stroke="#0d090f" stroke-miterlimit="10" d="M1125.69 120.72c4.78-2.48 6.37-60.63 7.03-65.35.8-5.7-7.76-3.46-7.76-3.46-56.22-12.11-41.5 40.74-39.64 45.66 1.86 4.92 5.68 4.07 5.68 5.19s-3.31.88-4.18 2.05c-.87 1.17-.41 10.6-.41 10.6l.7.09c-25.21 39.51-19.73 82.12-12.11 90.49 8.39 9.22 65.49 0 65.49 0-15.99-42.42-13.31-71.62-14.81-85.28Z"/><path fill="none" stroke="#0d090f" stroke-linecap="round" stroke-linejoin="round" stroke-width=".5" d="M1092.9 102.81s12.37.63 18.45 5.95c0 0-8.08-3.1-11.19-3.11M1124.55 54.29l-1.25 22.21"/><path fill="var(--shoes-check, var(--dawn-light))" stroke-width="0" d="m1050.92 309.14-6.43 13.48 25.01 7.7 17.37.1-11.13-6.87-12.33-10.57 1.51-4.91s-5.03-2.69-6.82 3.11l-7.18-2.05Z"/><path fill="url(#New_Pattern_3-10)" stroke="#0d090f" stroke-linejoin="round" stroke-width=".5" d="m1050.92 309.14-6.43 13.48 25.01 7.7 17.37.1-11.13-6.87-12.33-10.57 1.51-4.91s-5.03-2.69-6.82 3.11l-7.18-2.05Z"/><path fill="var(--shoes-fill, var(--dawn-light))" stroke="#0d090f" stroke-linejoin="round" stroke-width=".5" d="m1058.1 311.19-7.18-2.05-1.93 4.05s5.28 1.27 3.15 8.21l5.79 1.78 4.24-4.85-4.06-7.15Z"/><path fill="var(--color1, var(--dawn-light))" stroke="#0d090f" stroke-linejoin="round" stroke-width=".5" d="m1082.42 327.68-11.44-.15-25-8.02-1.49 3.11 25.01 7.71 17.37.1-4.45-2.75z"/><path fill="var(--shoes-check, var(--dawn-light))" stroke-width="0" d="m1137.22 317.44 2.02 12.83 6.96-.15 32.83-10.26-29.35-6.31-1.53-4.9s-5.67.63-3.86 6.42l-7.08 2.38Z"/><path fill="url(#New_Pattern_3-11)" stroke="#0d090f" stroke-linejoin="round" stroke-width=".5" d="m1137.22 317.44 2.02 12.83 6.96-.15 32.83-10.26-29.35-6.31-1.53-4.9s-5.67.63-3.86 6.42l-7.08 2.38Z"/><path fill="var(--shoes-fill, var(--dawn-light))" stroke="#0d090f" stroke-linejoin="round" stroke-width=".5" d="m1144.3 315.06-7.08 2.38.54 3.41s5.61-.96 7.4 6.01l5.79-1.81.75-6.39-7.4-3.59Z"/><path fill="var(--color1, var(--dawn-light))" stroke="#0d090f" stroke-linejoin="round" stroke-width=".5" d="m1172.26 318.39-27.1 8.47-6.42.23.5 3.18 6.24.07 33.56-10.49-6.78-1.46z"/><g stroke="#0d090f"><path fill="#c18952" stroke-miterlimit="10" d="M823.28 208.77c-2.55.89-5.5.37-7.61-1.6l-14.02-13.13c-3.02-2.83-3.18-7.58-.35-10.6 2.83-3.03 7.58-3.18 10.6-.35l14.02 13.13c3.02 2.83 3.18 7.58.35 10.6a7.46 7.46 0 0 1-2.99 1.95Z"/><path fill="var(--hoodie-dark, var(--dawn-light))" stroke-miterlimit="10" d="M799.06 157.11s-1.93-35.91-11.89-43.53c-12.1-9.25-26.45 4.56-21.7 20.16 4.75 15.6 18.39 41.93 18.39 41.93l27.4 33.12 17.7-18.46-29.9-33.22Z"/><path fill="none" stroke-linecap="round" stroke-linejoin="round" stroke-width=".5" d="m821.94 185.51-14.58 15.63"/></g><path fill="var(--pants-dark, var(--dawn-light))" stroke="#0d090f" stroke-miterlimit="10" d="m779.21 176.22-41.42 139.61 17.55-.33 58.04-139.28h-34.17z"/><path fill="var(--pants, var(--dawn-light))" stroke="#0d090f" stroke-miterlimit="10" d="m794.28 176.22-30.5 25.63 43.58 48.13-11.83 31.48 14.74 10.03 25.15-43.52-41.14-71.75z"/><path fill="var(--shoes-check, var(--dawn-light))" stroke-width="0" d="m741.35 315.65-3.68 14.78h42.88l-26.13-14.78 1.27-4.81s-5.47-1.41-6.87 4.66l-7.47.16Z"/><path fill="url(#New_Pattern_3-12)" stroke="#0d090f" stroke-linejoin="round" stroke-width=".5" d="m741.35 315.65-3.68 14.78h42.88l-26.13-14.78 1.27-4.81s-5.47-1.41-6.87 4.66l-7.47.16Z"/><path fill="var(--shoes-fill, var(--dawn-light))" stroke="#0d090f" stroke-linejoin="round" stroke-width=".5" d="m748.82 315.49-7.47.16-1.11 4.45s5.83-.36 5.83 6.91h6.11l2.62-5.88-5.99-5.64Z"/><path fill="var(--color1, var(--dawn-light))" stroke="#0d090f" stroke-linejoin="round" stroke-width=".5" d="M774.51 327.01h-35.99l-.85 3.42h42.88l-6.04-3.42z"/><path fill="var(--shoes-check, var(--dawn-light))" stroke-width="0" d="m797.97 283.23-10.38 10.74 33.64 24.1-12.64-27.23 2.99-4.17s-3.92-4.15-7.45.78l-6.16-4.22Z"/><path fill="url(#New_Pattern_3-13)" stroke="#0d090f" stroke-linejoin="round" stroke-width=".5" d="m797.97 283.23-10.38 10.74 33.64 24.1-12.64-27.23 2.99-4.17s-3.92-4.15-7.45.78l-6.16-4.22Z"/><path fill="var(--shoes-fill, var(--dawn-light))" stroke="#0d090f" stroke-linejoin="round" stroke-width=".5" d="m804.13 287.45-6.16-4.22-3.12 3.23s4.61 2.88.38 8.79l4.93 3.53 5.56-3.25-1.59-8.07Z"/><path fill="var(--color1, var(--dawn-light))" stroke="#0d090f" stroke-linejoin="round" stroke-width=".5" d="m818.31 311.78-28.32-20.29-2.4 2.49 33.64 24.1-2.92-6.3z"/><circle cx="821.11" cy="77.68" r="7.62" fill="none" stroke="#0d090f" stroke-linecap="round" stroke-linejoin="round" stroke-width=".5"/><path fill="#dd9b54" stroke="#0d090f" stroke-miterlimit="10" d="m798.46 66.34 23.29-3.58s5.5 21.41 5.38 22.9-3.31 1.43-3.31 1.43-1.41 21.62-24.19 11.94"/><path fill="#0d090f" stroke-width="0" d="M826.04 66.69s-39.51-5.25-30.64 30.57c0 0-19.27-4.42-21.23-23.15-1.96-18.73 17.58-28.73 31.06-26.27 13.49 2.46 19.88 13.73 20.81 18.84Z"/><circle cx="819.56" cy="79.25" r="1.57" fill="#0d090f" stroke-width="0"/><circle cx="816.86" cy="79.25" r="8.15" fill="none" stroke="#0d090f" stroke-linecap="round" stroke-linejoin="round" stroke-width=".5"/><path fill="none" stroke="#0d090f" stroke-linecap="round" stroke-linejoin="round" stroke-width=".5" d="M781.09 99.51s12.87-2.04 16.68 5.11"/><path fill="var(--hoodie, var(--dawn-light))" stroke="#0d090f" stroke-miterlimit="10" d="M809.21 118.59c4.78-2.48 6.37-62.63 7.03-67.35.8-5.7-7.76-3.46-7.76-3.46-56.22-12.11-41.5 40.74-39.64 45.66 1.86 4.92 5.68 4.07 5.68 5.19s-3.31.88-4.18 2.05c-.72.98-.52 9.1-.44 11.75-17.64 32.03-16.88 84.84-11.38 91.43 7.98 9.58 65.49 0 65.49 0-15.99-42.42-13.31-71.62-14.81-85.28Z"/><path fill="none" stroke="#0d090f" stroke-linecap="round" stroke-linejoin="round" stroke-width=".5" d="M776.42 98.68s12.37.63 18.45 5.95c0 0-8.08-3.1-11.19-3.11M808.06 50.16l-1.24 22.21"/><path fill="var(--pants-dark, var(--dawn-light))" stroke="#0d090f" stroke-miterlimit="10" d="M450.21 188.27h34.68l-21.08 127.34H445.4l4.81-127.34z"/><path fill="var(--pants, var(--dawn-light))" stroke="#0d090f" stroke-miterlimit="10" d="m429.59 178.35 51.32 73.94-15.9 27.7 14.19 14.76 28.81-38.06-32.42-78.34h-46z"/><path fill="var(--shoes-check, var(--dawn-light))" stroke-width="0" d="m449.39 315.65-3.18 14.78h42.38l-26.13-14.78v-5.13s-5.6-1.09-5.6 4.98l-7.47.16Z"/><path fill="url(#New_Pattern_3-14)" stroke="#0d090f" stroke-linejoin="round" stroke-width=".5" d="m449.39 315.65-3.18 14.78h42.38l-26.13-14.78v-5.13s-5.6-1.09-5.6 4.98l-7.47.16Z"/><path fill="var(--shoes-fill, var(--dawn-light))" stroke="#0d090f" stroke-linejoin="round" stroke-width=".5" d="m456.86 315.49-7.47.16-.94 4.39s5.71-.3 5.71 6.97h6.06l2.62-5.88-5.99-5.64Z"/><path fill="var(--color1, var(--dawn-light))" stroke="#0d090f" stroke-linejoin="round" stroke-width=".5" d="M482.55 327.01h-35.6l-.74 3.42h42.38l-6.04-3.42z"/><path fill="var(--shoes-check, var(--dawn-light))" stroke-width="0" d="m468.58 283.7-12.55 8.11 27.28 31.11-6.12-29.39 3.9-4.58s-4-3.9-7.48.27l-5.04-5.51Z"/><path fill="url(#New_Pattern_3-15)" stroke="#0d090f" stroke-linejoin="round" stroke-width=".5" d="m468.58 283.7-12.55 8.11 27.28 31.11-6.12-29.39 3.9-4.58s-4-3.9-7.48.27l-5.04-5.51Z"/><path fill="var(--shoes-fill, var(--dawn-light))" stroke="#0d090f" stroke-linejoin="round" stroke-width=".5" d="m473.62 289.21-5.04-5.51-3.77 2.44s3.84 3.85-1.63 8.64l4 4.56 6.15-1.9.29-8.22Z"/><path fill="var(--color1, var(--dawn-light))" stroke="#0d090f" stroke-linejoin="round" stroke-width=".5" d="m481.91 316.12-22.97-26.18-2.9 1.87 27.28 31.11-1.41-6.8z"/><circle cx="498.09" cy="75" r="7.62" fill="none" stroke="#0d090f" stroke-linecap="round" stroke-linejoin="round" stroke-width=".5"/><path fill="#dd9b54" stroke="#0d090f" stroke-miterlimit="10" d="m475.44 63.66 23.29-3.58s5.5 21.41 5.38 22.9-3.31 1.43-3.31 1.43-1.41 21.62-24.19 11.94"/><path fill="#0d090f" stroke-width="0" d="M503.02 64.01s-39.51-5.25-30.64 30.57c0 0-19.27-4.42-21.23-23.15-1.96-18.73 17.58-28.73 31.06-26.27 13.49 2.46 19.88 13.73 20.81 18.84Z"/><circle cx="496.54" cy="76.57" r="1.57" fill="#0d090f" stroke-width="0"/><circle cx="493.84" cy="76.57" r="8.15" fill="none" stroke="#0d090f" stroke-linecap="round" stroke-linejoin="round" stroke-width=".5"/><path fill="none" stroke="#0d090f" stroke-linecap="round" stroke-linejoin="round" stroke-width=".5" d="M458.07 96.84s12.87-2.04 16.68 5.11"/><path fill="var(--hoodie, var(--dawn-light))" stroke="#0d090f" stroke-miterlimit="10" d="M486.19 119.22c4.78-2.48 6.37-65.94 7.03-70.66.8-5.7-7.76-3.46-7.76-3.46-56.22-12.11-41.5 40.74-39.64 45.66 1.86 4.92 5.68 4.07 5.68 5.19s-3.31 1.88-4.18 3.05c-.52.7-.56 5.83-.52 9.88-24.84 37.91-18.86 88.81-11.31 97.11 8.39 9.22 65.49 0 65.49 0-15.99-42.42-13.31-73.12-14.81-86.78Z"/><path fill="none" stroke="#0d090f" stroke-linecap="round" stroke-linejoin="round" stroke-width=".5" d="M453.4 96s12.37.63 18.45 5.95c0 0-8.37-3.41-11.48-3.43M485.05 47.49 483.8 69.7"/><path fill="var(--pants-dark, var(--dawn-light))" stroke="#0d090f" stroke-miterlimit="10" d="M176.02 178.35h-42.1l21.5 71.95-2.73 65.81 18.81-.83 2.5-54.98 2.02-81.95z"/><path fill="var(--pants, var(--dawn-light))" stroke="#0d090f" stroke-miterlimit="10" d="m115.47 178.35 37.65 70.52-13.18 32.15 9.08 15.11 30.14-39.53-18.18-78.25h-45.51z"/><path fill="var(--shoes-check, var(--dawn-light))" stroke-width="0" d="m157.15 315.65-2.18 14.78h41.38l-26.13-14.78v-5.13s-5.6-1.09-5.6 4.98l-7.47.16Z"/><path fill="url(#New_Pattern_3-16)" stroke="#0d090f" stroke-linejoin="round" stroke-width=".5" d="m157.15 315.65-2.18 14.78h41.38l-26.13-14.78v-5.13s-5.6-1.09-5.6 4.98l-7.47.16Z"/><path fill="var(--shoes-fill, var(--dawn-light))" stroke="#0d090f" stroke-linejoin="round" stroke-width=".5" d="m164.62 315.49-7.47.16-.65 4.44s5.42-.35 5.42 6.92h6.06l2.62-5.88-5.99-5.64Z"/><path fill="var(--color1, var(--dawn-light))" stroke="#0d090f" stroke-linejoin="round" stroke-width=".5" d="M190.31 327.01h-34.84l-.5 3.42h41.38l-6.04-3.42z"/><path fill="var(--shoes-check, var(--dawn-light))" stroke-width="0" d="m143.42 282.43-14.5 3.59 15.69 38.29 3.76-29.79 3.99-4.83s-3.51-4.09-5.97-.41l-2.98-6.85Z"/><path fill="url(#New_Pattern_3-17)" stroke="#0d090f" stroke-linejoin="round" stroke-width=".5" d="m143.42 282.43-14.5 3.59 15.69 38.29 3.76-29.79 3.99-4.83s-3.51-4.09-5.97-.41l-2.98-6.85Z"/><path fill="var(--shoes-fill, var(--dawn-light))" stroke="#0d090f" stroke-linejoin="round" stroke-width=".5" d="m146.39 289.28-2.98-6.85-4.36 1.08s2.38 4.89-4.35 7.64l2.3 5.61 6.44.2 2.95-7.68Z"/><path fill="var(--color1, var(--dawn-light))" stroke="#0d090f" stroke-linejoin="round" stroke-width=".5" d="m145.48 317.42-13.21-32.23-3.35.83 15.69 38.29.87-6.89z"/><circle cx="183.98" cy="71.5" r="7.62" fill="none" stroke="#0d090f" stroke-linecap="round" stroke-linejoin="round" stroke-width=".5"/><path fill="#dd9b54" stroke="#0d090f" stroke-miterlimit="10" d="m161.33 60.16 23.29-3.58s5.5 21.41 5.38 22.9-3.31 1.43-3.31 1.43-1.41 21.62-24.19 11.94"/><path fill="#0d090f" stroke-width="0" d="M188.91 60.51s-39.51-5.25-30.64 30.57c0 0-19.27-4.42-21.23-23.15-1.96-18.73 17.58-28.73 31.06-26.27s19.88 13.73 20.81 18.84Z"/><circle cx="182.43" cy="73.07" r="1.57" fill="#0d090f" stroke-width="0"/><circle cx="179.72" cy="73.07" r="8.15" fill="none" stroke="#0d090f" stroke-linecap="round" stroke-linejoin="round" stroke-width=".5"/><path fill="none" stroke="#0d090f" stroke-linecap="round" stroke-linejoin="round" stroke-width=".5" d="M143.95 93.34s12.87-2.04 16.68 5.11"/><path fill="var(--hoodie, var(--dawn-light))" stroke="#0d090f" stroke-miterlimit="10" d="M172.08 119.22c4.78-2.48 6.37-69.44 7.03-74.16.8-5.7-7.76-3.46-7.76-3.46-56.22-12.11-41.5 40.74-39.64 45.66 1.86 4.92 5.68 4.07 5.68 5.19s-3.31 1.88-4.18 3.05c-.4.54-.52 4.44-.53 8.52-24.38 34.61-18.83 93.69-11.29 101.98 8.39 9.22 65.49 0 65.49 0-15.99-42.42-13.31-73.12-14.81-86.78Z"/><path fill="none" stroke="#0d090f" stroke-linecap="round" stroke-linejoin="round" stroke-width=".5" d="M139.28 92.5s12.37.63 18.45 5.95c0 0-8.08-1.6-11.19-1.61M170.93 43.99l-1.25 22.21"/><rect width="72.14" height="6.53" x="124.59" y="697.16" fill="#0d090f" stroke-width="0" opacity=".2" rx="3.27" ry="3.27"/><path fill="var(--pants-dark, var(--dawn-light))" stroke="#0d090f" stroke-miterlimit="10" d="M174.48 548.35h-40.14l20.19 137.76 17.4-.83 2.55-136.93z"/><path fill="var(--shoes-check, var(--dawn-light))" stroke-width="0" d="m157.54 685.65-2.08 14.78h39.46L170 685.65v-5.13s-5.34-1.09-5.34 4.98l-7.12.16Z"/><path fill="url(#New_Pattern_3-18)" stroke="#0d090f" stroke-linejoin="round" stroke-width=".5" d="m157.54 685.65-2.08 14.78h39.46L170 685.65v-5.13s-5.34-1.09-5.34 4.98l-7.12.16Z"/><path fill="var(--shoes-fill, var(--dawn-light))" stroke="#0d090f" stroke-linejoin="round" stroke-width=".5" d="m164.66 685.49-7.12.16-.62 4.44s5.17-.35 5.17 6.92h5.78l2.5-5.88-5.71-5.64Z"/><path fill="var(--color1, var(--dawn-light))" stroke="#0d090f" stroke-linejoin="round" stroke-width=".5" d="M189.16 697.01h-33.22l-.48 3.42h39.46l-5.76-3.42z"/><path fill="var(--pants, var(--dawn-light))" stroke="#0d090f" stroke-miterlimit="10" d="M175.38 548.35h-42.09l-1.91 137.76 18.25-.83 25.75-136.93z"/><path fill="var(--shoes-check, var(--dawn-light))" stroke-width="0" d="m134.54 685.65-2.18 14.78h41.38l-26.13-14.78v-5.13s-5.6-1.09-5.6 4.98l-7.47.16Z"/><path fill="url(#New_Pattern_3-19)" stroke="#0d090f" stroke-linejoin="round" stroke-width=".5" d="m134.54 685.65-2.18 14.78h41.38l-26.13-14.78v-5.13s-5.6-1.09-5.6 4.98l-7.47.16Z"/><path fill="var(--shoes-fill, var(--dawn-light))" stroke="#0d090f" stroke-linejoin="round" stroke-width=".5" d="m142.01 685.49-7.47.16-.65 4.44s5.42-.35 5.42 6.92h6.06l2.62-5.88-5.99-5.64Z"/><path fill="var(--color1, var(--dawn-light))" stroke="#0d090f" stroke-linejoin="round" stroke-width=".5" d="M167.7 697.01h-34.83l-.51 3.42h41.38l-6.04-3.42z"/><circle cx="183.01" cy="447.31" r="7.62" fill="none" stroke="#0d090f" stroke-linecap="round" stroke-linejoin="round" stroke-width=".5"/><path fill="#dd9b54" stroke="#0d090f" stroke-miterlimit="10" d="m160.35 435.97 23.29-3.58s5.5 21.41 5.38 22.9-3.31 1.43-3.31 1.43-1.41 21.62-24.19 11.94"/><path fill="#0d090f" stroke-width="0" d="M187.93 436.32s-39.51-5.25-30.64 30.57c0 0-19.27-4.42-21.23-23.15-1.96-18.73 17.58-28.73 31.06-26.27 13.49 2.46 19.88 13.73 20.81 18.84Z"/><circle cx="181.45" cy="448.88" r="1.57" fill="#0d090f" stroke-width="0"/><circle cx="178.75" cy="448.88" r="8.15" fill="none" stroke="#0d090f" stroke-linecap="round" stroke-linejoin="round" stroke-width=".5"/><path fill="none" stroke="#0d090f" stroke-linecap="round" stroke-linejoin="round" stroke-width=".5" d="M142.98 469.15s12.87-2.04 16.68 5.11"/><path fill="var(--hoodie, var(--dawn-light))" stroke="#0d090f" stroke-miterlimit="10" d="M171.1 487.72c4.78-2.48 6.37-62.13 7.03-66.85.8-5.7-7.76-3.46-7.76-3.46-56.22-12.11-41.5 40.74-39.64 45.66 1.86 4.92 5.68 4.07 5.68 5.19s-3.31 1.88-4.18 3.05c-.71.96-.53 7.71-.44 10.19-22.99 37.09-14.74 86.99-11.38 94.5 5.09 11.38 65.49 0 65.49 0-15.99-42.42-13.31-74.62-14.81-88.28Z"/><path fill="none" stroke="#0d090f" stroke-linecap="round" stroke-linejoin="round" stroke-width=".5" d="M138.31 468.31s12.37.63 18.45 5.95c0 0-8.08-3.1-11.19-3.11M169.96 419.79 168.71 442M2404.03 50.34l-1.25 22.21M2373.14 98.54s12.37.63 18.45 5.95c0 0-8.08-3.1-11.19-3.11"/></g><g id="walking-shrinking"><path fill="var(--pants-dark, var(--dawn-light))" stroke="#0d090f" stroke-miterlimit="10" d="M150.14 108.02c2.55 0 4.58.48 6.02 1.43 7.14 4.71 9.13 9.97 6.65 17.57-.19.49-2.54 5.44-25.49 29.17-8.71 9.01-16.66 16.86-21.61 21.6l-10.13-29.91 25.68-34.64c3.74-1.82 12.14-5.23 18.88-5.23m0-5c-10.27 0-22.19 6.3-22.19 6.3L100 147l13.41 39.6c2.51-1.34 51.46-49.79 54.14-57.99 2.68-8.2 1.74-16.51-8.63-23.34-2.48-1.63-5.55-2.26-8.77-2.26Z"/><path fill="var(--pants-dark, var(--dawn-light))" stroke="#0d090f" stroke-miterlimit="10" d="M131.8 106.03s-28.52-17.62-39.25 1.98c-8.04 14.69-3.1 85.06 1.85 85.78s19.55.55 24.01-1.12c0 0-9.59-44.49 10.43-76.96l2.96-9.68Z"/><path fill="var(--pants, var(--dawn-light))" stroke="#0d090f" stroke-miterlimit="10" d="m105.7 122.32 2.9-33.51 9.21.89-3.13 32.6"/><path fill="none" stroke="var(--color4, var(--dawn-light))" stroke-linecap="round" stroke-linejoin="round" stroke-width=".5" d="M95.9 122.44h24.52M111.76 156.38H93.5s.3 21.52 4.02 32.87"/><path fill="var(--pants-dark, var(--dawn-light))" stroke="#0d090f" stroke-miterlimit="10" d="M467.5 109.96c2.42 0 4.37.5 5.82 1.47 6.03 4.07 7.15 9.83 3.88 19.85-.19.49-2.54 5.44-25.49 29.17-8.71 9.01-16.66 16.86-21.61 21.6l-10.13-29.91 25.8-34.79c2.88-1.68 13.29-7.4 21.73-7.4m0-5c-11.45 0-25.16 8.62-25.16 8.62l-27.95 37.69 13.41 39.6c2.51-1.34 51.46-49.79 54.14-57.99s4.48-18.65-5.82-25.6c-2.48-1.67-5.46-2.33-8.62-2.33Z"/><path fill="var(--pants-dark, var(--dawn-light))" stroke="#0d090f" stroke-miterlimit="10" d="M446.19 110.28s-28.52-17.62-39.25 1.98c-8.04 14.69-3.1 85.06 1.85 85.78s19.55.55 24.01-1.12c0 0-9.59-44.49 10.43-76.96l2.96-9.68Z"/><path fill="var(--pants, var(--dawn-light))" stroke="#0d090f" stroke-miterlimit="10" d="m420.09 126.58 2.9-33.51 9.21.89-3.13 32.59"/><path fill="none" stroke="var(--color4, var(--dawn-light))" stroke-linecap="round" stroke-linejoin="round" stroke-width=".5" d="M410.3 126.69h24.51M426.15 160.64h-18.26s.3 21.52 4.02 32.87"/><path fill="var(--pants-dark, var(--dawn-light))" stroke="#0d090f" stroke-miterlimit="10" d="M1101.24 114.64c1.77 0 3.29.36 4.66 1.1 11 5.93 8.78 10.96 5.43 18.58-.54 1.22-1.1 2.48-1.56 3.73-1.96 5.18-29.05 38.31-40.93 51.75l-9.98-29.47 25.9-38.76c2.93-2.27 10.23-6.93 16.49-6.93m0-5c-10.03 0-20.22 8.51-20.22 8.51l-27.69 41.44 13.41 39.6c2.51-1.34 44.66-51.31 47.71-59.38 3.13-8.28 11.25-19.09-6.17-28.48-2.24-1.21-4.63-1.69-7.03-1.69Z"/><path fill="var(--pants-dark, var(--dawn-light))" stroke="#0d090f" stroke-miterlimit="10" d="M1085.12 118.61s-28.52-17.62-39.25 1.98c-8.04 14.69-3.1 85.06 1.85 85.78s19.55.55 24.01-1.12c0 0-9.59-44.49 10.43-76.96l2.96-9.68Z"/><path fill="var(--pants, var(--dawn-light))" stroke="#0d090f" stroke-miterlimit="10" d="m1059.02 134.91 2.9-33.51 9.21.88-3.13 32.6"/><path fill="none" stroke="var(--color4, var(--dawn-light))" stroke-linecap="round" stroke-linejoin="round" stroke-width=".5" d="M1049.23 135.02h24.51M1065.08 168.97h-18.26s.3 21.52 4.02 32.87"/><path fill="var(--pants-dark, var(--dawn-light))" stroke="#0d090f" stroke-miterlimit="10" d="M782.78 109.9c2.25 0 4.58.43 6.94 1.29 3.31 1.2 5.37 2.85 6.3 5.03 1.27 2.98.63 7.52-1.84 13.15-1.04 2.37-8.6 13.19-23.13 32.01-7.62 9.87-14.52 18.52-19 23.94l-9.9-29.22 20.33-32.61.06-.09.05-.08c.08-.13 7.82-13.41 20.2-13.41m0-5c-15.56 0-24.55 15.94-24.55 15.94l-21.58 34.62 13.41 39.6c2.51-1.34 45.22-55.78 48.7-63.67 3.5-7.94 6.42-19.89-7.33-24.89-3.07-1.12-5.96-1.59-8.65-1.59Z"/><path fill="var(--pants-dark, var(--dawn-light))" stroke="#0d090f" stroke-miterlimit="10" d="M768.44 114.48s-28.52-17.62-39.25 1.98c-8.04 14.69-3.1 85.06 1.85 85.78s19.55.55 24.01-1.12c0 0-9.59-44.49 10.43-76.96l2.96-9.68Z"/><path fill="var(--pants, var(--dawn-light))" stroke="#0d090f" stroke-miterlimit="10" d="m742.35 130.77 2.89-33.51 9.22.89-3.14 32.6"/><path fill="none" stroke="var(--color4, var(--dawn-light))" stroke-linecap="round" stroke-linejoin="round" stroke-width=".5" d="M732.55 130.89h24.51M748.4 164.84h-18.26s.3 21.52 4.02 32.87"/><path fill="var(--pants-dark, var(--dawn-light))" stroke="#0d090f" stroke-miterlimit="10" d="M1426.39 113.74c3.56 0 6.5 1.22 8.97 3.73 4.68 4.75 1.77 12.01-2.53 20.99-.64 1.33-1.24 2.59-1.76 3.78-4.69 10.74-29.51 35.23-40.53 45.34l-10.2-30.12 26.02-35.09c2.02-1.61 11.32-8.64 20.03-8.64m0-5c-11.82 0-23.67 10.16-23.67 10.16l-27.95 37.69 13.41 39.6c2.51-1.34 40.94-36.95 47.48-51.94 3.53-8.09 11.98-21.43 3.26-30.28-3.77-3.83-8.15-5.23-12.53-5.23Z"/><path fill="var(--pants-dark, var(--dawn-light))" stroke="#0d090f" stroke-miterlimit="10" d="M1406.56 115.61s-28.52-17.62-39.25 1.98c-8.04 14.69-3.1 85.06 1.85 85.78s19.55.55 24.01-1.12c0 0-9.59-44.49 10.43-76.96l2.96-9.68Z"/><path fill="var(--pants, var(--dawn-light))" stroke="#0d090f" stroke-miterlimit="10" d="m1380.47 131.91 2.89-33.51 9.22.88-3.14 32.6"/><path fill="none" stroke="var(--color4, var(--dawn-light))" stroke-linecap="round" stroke-linejoin="round" stroke-width=".5" d="M1370.67 132.02h24.51M1386.52 165.97h-18.26s.3 21.52 4.02 32.87"/><path fill="var(--pants-dark, var(--dawn-light))" stroke="#0d090f" stroke-miterlimit="10" d="M1742.19 107.99c3.56 0 6.98.89 10.16 2.64 2.48 1.37 3.94 3.75 4.45 7.27.48 3.29.03 7.4-1.23 11.24-.18.48-2.43 5.33-24.3 28.18-8.2 8.56-15.72 16.05-20.48 20.65l-10.12-29.89 25.92-34.96c1.76-1.21 8.06-5.12 15.6-5.12m0-5c-10.81 0-19.15 6.52-19.15 6.52l-27.95 37.69 13.41 39.6c2.51-1.34 49.13-47.87 51.81-56.07 2.68-8.2 3-19.76-5.55-24.47-4.33-2.39-8.61-3.26-12.57-3.26Z"/><path fill="var(--pants-dark, var(--dawn-light))" stroke="#0d090f" stroke-miterlimit="10" d="M1726.88 106.2s-28.52-17.62-39.25 1.98c-8.04 14.69-3.1 85.06 1.85 85.78s19.55.55 24.01-1.12c0 0-9.59-44.49 10.43-76.96l2.96-9.68Z"/><path fill="var(--pants, var(--dawn-light))" stroke="#0d090f" stroke-miterlimit="10" d="m1700.79 122.5 2.89-33.51 9.22.89-3.14 32.6"/><path fill="none" stroke="var(--color4, var(--dawn-light))" stroke-linecap="round" stroke-linejoin="round" stroke-width=".5" d="M1690.99 122.61h24.51M1706.84 156.56h-18.26s.3 21.52 4.02 32.87"/><path fill="var(--pants-dark, var(--dawn-light))" stroke="#0d090f" stroke-miterlimit="10" d="M2062.03 111.73c3.29 0 5.79.91 7.66 2.78 5.3 5.34 2.88 13.02-.83 22.51-.67 1.72-1.31 3.34-1.79 4.81-.17.46-2.27 5.02-22.19 24.51-6.99 6.84-13.86 13.23-18.37 17.28l-10.21-30.15 25.83-34.84c2.58-1.58 11.86-6.91 19.91-6.91m0-5c-11.09 0-23.37 8.18-23.37 8.18l-27.95 37.69 13.41 39.6c2.51-1.34 45.01-40.59 47.69-48.79 2.68-8.2 11.05-22.74 1.42-32.42-3.1-3.12-7.07-4.26-11.2-4.26Z"/><path fill="var(--pants-dark, var(--dawn-light))" stroke="#0d090f" stroke-miterlimit="10" d="M2042.5 111.61s-28.52-17.62-39.25 1.98c-8.04 14.69-3.1 85.06 1.85 85.78s19.55.55 24.01-1.12c0 0-9.59-44.49 10.43-76.96l2.96-9.68Z"/><path fill="var(--pants, var(--dawn-light))" stroke="#0d090f" stroke-miterlimit="10" d="m2016.41 127.9 2.89-33.51 9.22.89-3.14 32.6"/><path fill="none" stroke="var(--color4, var(--dawn-light))" stroke-linecap="round" stroke-linejoin="round" stroke-width=".5" d="M2006.61 128.02h24.51M2022.46 161.96h-18.26s.3 21.52 4.02 32.87"/><path fill="var(--pants-dark, var(--dawn-light))" stroke="#0d090f" stroke-miterlimit="10" d="M2381.29 116.78c3.5 0 5.76 1.4 7.31 4.52 5.37 10.78.09 23.56-3.45 28.82-3.3 4.9-23.81 28.36-33.48 38.83l-11.73-29.31 23.9-36.16c3.34-2.25 11.23-6.7 17.45-6.7m0-5c-9.86 0-21.09 8.15-21.09 8.15l-25.87 39.15 15.53 38.81c2.43-1.47 35.08-38.5 39.44-44.97 4.36-6.47 10.13-21.1 3.78-33.84-2.71-5.45-7.1-7.29-11.79-7.29Z"/><path fill="var(--pants-dark, var(--dawn-light))" stroke="#0d090f" stroke-miterlimit="10" d="M2363.86 116.43s-29.43-16.05-39.09 4.11c-7.24 15.11 1.51 85.1 6.49 85.55s19.56-.51 23.92-2.42c0 0-11.99-43.91 6.25-77.41l2.43-9.83Z"/><path fill="var(--pants, var(--dawn-light))" stroke="#0d090f" stroke-miterlimit="10" d="m2338.68 134.11 1.08-33.62 9.25.39-1.37 32.72"/><path fill="none" stroke="var(--color4, var(--dawn-light))" stroke-linecap="round" stroke-linejoin="round" stroke-width=".5" d="m2328.88 134.75 24.47-1.32M2346.57 167.79l-18.23.99s1.47 21.48 5.8 32.61"/><path fill="var(--pants-dark, var(--dawn-light))" stroke="#0d090f" stroke-miterlimit="10" d="M2695.31 115.36c2.31 0 4.57.61 6.88 1.86 7.58 4.1 7.23 18.12 5.24 25.96-.16.49-2.11 5.45-22.6 29.05-7.44 8.57-14.65 16.49-19.23 21.36l-12.15-29.27 23.92-37.24c.29-.42 8.13-11.72 17.94-11.72m0-5c-12.92 0-22.12 13.98-22.12 13.98l-25.36 39.48 16.03 38.61c2.42-1.5 46.28-49.61 48.4-57.98s3.23-25.72-7.7-31.63c-3.23-1.75-6.34-2.46-9.26-2.46Z"/><path fill="var(--pants-dark, var(--dawn-light))" stroke="#0d090f" stroke-miterlimit="10" d="M2676.81 120.8s-29.63-15.67-39.03 4.61c-7.04 15.2 2.6 85.08 7.59 85.46s19.55-.76 23.89-2.73c0 0-12.55-43.75 5.25-77.48l2.3-9.86Z"/><path fill="var(--pants, var(--dawn-light))" stroke="#0d090f" stroke-miterlimit="10" d="m2651.87 138.8.64-33.63 9.25.27-.94 32.74"/><path fill="none" stroke="var(--color4, var(--dawn-light))" stroke-linecap="round" stroke-linejoin="round" stroke-width=".5" d="m2642.06 139.57 24.46-1.64M2660.19 172.38l-18.22 1.22s1.74 21.46 6.21 32.53"/><path fill="var(--pants-dark, var(--dawn-light))" stroke="#0d090f" stroke-miterlimit="10" d="M148.17 482.24c2.48 0 4.89.56 7.16 1.67.8.39 1.95 1.18 2.57 3.5 1.81 6.7-2.23 19.27-6.98 26.37-4.04 6.03-24.8 31.1-34.53 42.25l-11.17-29.15 24.68-36.19c1.54-1.46 9.37-8.45 18.27-8.45m0-5c-12.22 0-22.12 10.22-22.12 10.22l-26.44 38.76 14.96 39.03c2.46-1.44 35.7-41.53 40.5-48.7 6.38-9.52 13.62-31.7 2.45-37.15-3.18-1.55-6.34-2.18-9.35-2.18Z"/><path fill="var(--pants-dark, var(--dawn-light))" stroke="#0d090f" stroke-miterlimit="10" d="M129.75 484.01s-29.19-16.48-39.14 3.54c-7.46 15 .27 85.11 5.25 85.64s19.56-.23 23.95-2.07c0 0-11.35-44.08 7.37-77.31l2.57-9.79Z"/><path fill="var(--pants, var(--dawn-light))" stroke="#0d090f" stroke-miterlimit="10" d="m104.32 501.33 1.57-33.6 9.24.52-1.84 32.7"/><path fill="none" stroke="var(--color4, var(--dawn-light))" stroke-linecap="round" stroke-linejoin="round" stroke-width=".5" d="m94.52 501.83 24.49-.97M111.72 535.12l-18.25.72s1.16 21.5 5.32 32.69"/><path fill="var(--pants-dark, var(--dawn-light))" stroke="#0d090f" stroke-miterlimit="10" d="M3017.41 113.82c3.59 0 7.35.91 11.15 2.71.94.45 2.27 1.36 2.88 4.12 1.4 6.29-2.04 16.43-6.06 21.31-5.27 6.39-29.31 33.79-40.05 45.42l-10.68-29.41 25.52-36.03c.72-.87 7.02-8.13 17.24-8.13m0-5c-13.37 0-21.23 10.11-21.23 10.11l-27.12 38.29 14.27 39.29c2.48-1.39 40.42-44.72 45.91-51.37 6.66-8.07 12.24-28.03 1.46-33.13-4.87-2.3-9.33-3.19-13.29-3.19Z"/><path fill="var(--pants-dark, var(--dawn-light))" stroke="#0d090f" stroke-miterlimit="10" d="M2999.95 115.55s-28.9-16.99-39.2 2.84c-7.72 14.87-1.24 85.11 3.73 85.72s19.56.12 23.98-1.65c0 0-10.56-44.27 8.74-77.17l2.74-9.74Z"/><path fill="var(--pants, var(--dawn-light))" stroke="#0d090f" stroke-miterlimit="10" d="m2974.22 132.41 2.16-33.56 9.23.68-2.42 32.66"/><path fill="none" stroke="var(--color4, var(--dawn-light))" stroke-linecap="round" stroke-linejoin="round" stroke-width=".5" d="m2964.41 132.74 24.51-.54M2981.01 166.33l-18.26.4s.77 21.51 4.74 32.78"/></g><g id="walking-growing"><circle cx="153.88" cy="70.13" r="11.94" fill="var(--color6, var(--dawn-light))" stroke-width="0"/><circle cx="153.88" cy="70.64" r="6.76" fill="var(--pants, var(--dawn-light))" stroke-width="0"/><circle cx="153.88" cy="70.64" r="2.95" fill="none" stroke="#0d090f" stroke-linecap="round" stroke-linejoin="round" stroke-width=".5"/><path fill="none" stroke="#0d090f" stroke-linecap="round" stroke-linejoin="round" stroke-width="2" d="M153.88 47.7v22.76"/><rect width="9.23" height="16.28" x="149.27" y="38.82" fill="var(--color6, var(--dawn-light))" stroke-width="0" rx=".96" ry=".96"/><circle cx="152.91" cy="445.98" r="11.94" fill="var(--color6, var(--dawn-light))" stroke-width="0"/><circle cx="152.91" cy="446.48" r="6.76" fill="var(--pants, var(--dawn-light))" stroke-width="0"/><circle cx="152.91" cy="446.48" r="2.95" fill="none" stroke="#0d090f" stroke-linecap="round" stroke-linejoin="round" stroke-width=".5"/><path fill="none" stroke="#0d090f" stroke-linecap="round" stroke-linejoin="round" stroke-width="2" d="M152.91 429.06v17.25"/><rect width="9.23" height="16.78" x="148.3" y="414.16" fill="var(--color6, var(--dawn-light))" stroke-width="0" rx=".96" ry=".96"/><circle cx="468" cy="73.57" r="11.94" fill="var(--color6, var(--dawn-light))" stroke-width="0"/><circle cx="468" cy="74.08" r="6.76" fill="var(--pants, var(--dawn-light))" stroke-width="0"/><circle cx="468" cy="74.08" r="2.95" fill="none" stroke="#0d090f" stroke-linecap="round" stroke-linejoin="round" stroke-width=".5"/><path fill="none" stroke="#0d090f" stroke-linecap="round" stroke-linejoin="round" stroke-width="2" d="M468 51.14V73.9"/><rect width="9.23" height="16.28" x="463.39" y="42.25" fill="var(--color6, var(--dawn-light))" stroke-width="0" rx=".96" ry=".96"/><circle cx="791.02" cy="76.57" r="11.94" fill="var(--color6, var(--dawn-light))" stroke-width="0"/><circle cx="791.02" cy="77.08" r="6.76" fill="var(--pants, var(--dawn-light))" stroke-width="0"/><circle cx="791.02" cy="77.08" r="2.95" fill="none" stroke="#0d090f" stroke-linecap="round" stroke-linejoin="round" stroke-width=".5"/><rect width="9.23" height="16.28" x="786.4" y="45.25" fill="var(--color6, var(--dawn-light))" stroke-width="0" rx=".96" ry=".96"/><path fill="none" stroke="#0d090f" stroke-linecap="round" stroke-linejoin="round" stroke-width="2" d="M791.02 54.14V76.9"/><circle cx="1107.5" cy="80.44" r="11.94" fill="var(--color6, var(--dawn-light))" stroke-width="0"/><circle cx="1107.5" cy="80.95" r="6.76" fill="var(--pants, var(--dawn-light))" stroke-width="0"/><circle cx="1107.5" cy="80.95" r="2.95" fill="none" stroke="#0d090f" stroke-linecap="round" stroke-linejoin="round" stroke-width=".5"/><path fill="none" stroke="#0d090f" stroke-linecap="round" stroke-linejoin="round" stroke-width="2" d="M1107.5 58.01v22.76"/><rect width="9.23" height="16.28" x="1102.89" y="49.13" fill="var(--color6, var(--dawn-light))" stroke-width="0" rx=".96" ry=".96"/><circle cx="1428.9" cy="77.6" r="11.94" fill="var(--color6, var(--dawn-light))" stroke-width="0"/><circle cx="1428.9" cy="78.11" r="6.76" fill="var(--pants, var(--dawn-light))" stroke-width="0"/><circle cx="1428.9" cy="78.11" r="2.95" fill="none" stroke="#0d090f" stroke-linecap="round" stroke-linejoin="round" stroke-width=".5"/><path fill="none" stroke="#0d090f" stroke-linecap="round" stroke-linejoin="round" stroke-width="2" d="M1428.9 55.17v22.76"/><rect width="9.23" height="16.28" x="1424.29" y="46.29" fill="var(--color6, var(--dawn-light))" stroke-width="0" rx=".96" ry=".96"/><circle cx="1749.33" cy="70.12" r="11.94" fill="var(--color6, var(--dawn-light))" stroke-width="0"/><circle cx="1749.33" cy="70.63" r="6.76" fill="var(--pants, var(--dawn-light))" stroke-width="0"/><circle cx="1749.33" cy="70.63" r="2.95" fill="none" stroke="#0d090f" stroke-linecap="round" stroke-linejoin="round" stroke-width=".5"/><path fill="none" stroke="#0d090f" stroke-linecap="round" stroke-linejoin="round" stroke-width="2" d="M1749.33 47.69v22.76"/><rect width="9.23" height="16.28" x="1744.71" y="38.81" fill="var(--color6, var(--dawn-light))" stroke-width="0" rx=".96" ry=".96"/><circle cx="2386.98" cy="76.49" r="11.94" fill="var(--color6, var(--dawn-light))" stroke-width="0"/><circle cx="2386.98" cy="76.99" r="6.76" fill="var(--pants, var(--dawn-light))" stroke-width="0"/><circle cx="2386.98" cy="76.99" r="2.95" fill="none" stroke="#0d090f" stroke-linecap="round" stroke-linejoin="round" stroke-width=".5"/><path fill="none" stroke="#0d090f" stroke-linecap="round" stroke-linejoin="round" stroke-width="2" d="M2386.98 54.05v22.77"/><rect width="9.23" height="16.28" x="2382.37" y="45.17" fill="var(--color6, var(--dawn-light))" stroke-width="0" rx=".96" ry=".96"/><circle cx="2700.72" cy="78.98" r="11.94" fill="var(--color6, var(--dawn-light))" stroke-width="0"/><circle cx="2700.72" cy="79.48" r="6.76" fill="var(--pants, var(--dawn-light))" stroke-width="0"/><circle cx="2700.72" cy="79.48" r="2.95" fill="none" stroke="#0d090f" stroke-linecap="round" stroke-linejoin="round" stroke-width=".5"/><path fill="none" stroke="#0d090f" stroke-linecap="round" stroke-linejoin="round" stroke-width="2" d="M2700.72 56.54V79.3"/><rect width="9.23" height="16.28" x="2696.11" y="47.66" fill="var(--color6, var(--dawn-light))" stroke-width="0" rx=".96" ry=".96"/><circle cx="3023.06" cy="77.54" r="11.94" fill="var(--color6, var(--dawn-light))" stroke-width="0"/><circle cx="3023.06" cy="78.05" r="6.76" fill="var(--pants, var(--dawn-light))" stroke-width="0"/><circle cx="3023.06" cy="78.05" r="2.95" fill="none" stroke="#0d090f" stroke-linecap="round" stroke-linejoin="round" stroke-width=".5"/><path fill="none" stroke="#0d090f" stroke-linecap="round" stroke-linejoin="round" stroke-width="2" d="M3023.06 55.11v22.76"/><rect width="9.23" height="16.28" x="3018.45" y="46.22" fill="var(--color6, var(--dawn-light))" stroke-width="0" rx=".96" ry=".96"/><circle cx="2065.15" cy="73.6" r="11.94" fill="var(--color6, var(--dawn-light))" stroke-width="0"/><circle cx="2065.15" cy="74.11" r="6.76" fill="var(--pants, var(--dawn-light))" stroke-width="0"/><circle cx="2065.15" cy="74.11" r="2.95" fill="none" stroke="#0d090f" stroke-linecap="round" stroke-linejoin="round" stroke-width=".5"/><path fill="none" stroke="#0d090f" stroke-linecap="round" stroke-linejoin="round" stroke-width="2" d="M2065.15 51.17v22.76"/><rect width="9.23" height="16.28" x="2060.54" y="42.29" fill="var(--color6, var(--dawn-light))" stroke-width="0" rx=".96" ry=".96"/></g><g id="walking-top" stroke="#0d090f"><path fill="#dd9b54" stroke-miterlimit="10" d="M155.73 215.47a7.495 7.495 0 0 1-6.23-4.66L142.3 193c-1.55-3.84.3-8.21 4.14-9.76 3.84-1.55 8.21.3 9.76 4.14l7.2 17.81c1.55 3.84-.3 8.21-4.14 9.76-1.16.47-2.37.63-3.53.51Z"/><path fill="var(--hoodie, var(--dawn-light))" stroke-linecap="round" stroke-miterlimit="10" d="M134.33 127.33c-1.67 16.26-1.31 39.18-1.31 39.18l9.01 45.13 24.32-8.3-9.71-43.23s14.59-38.56 6.35-46.19c-6.58-6.09-14.39-7.43-20.16-4.21"/><path fill="none" stroke-linecap="round" stroke-linejoin="round" stroke-width=".5" d="m162.66 195.78-20.31 7.05"/><path fill="#dd9b54" stroke-miterlimit="10" d="M438.57 214.66c-2.43-1.18-4.15-3.64-4.23-6.53l-.58-19.2a7.491 7.491 0 0 1 7.27-7.72c4.14-.13 7.6 3.13 7.72 7.27l.58 19.2c.13 4.14-3.13 7.6-7.27 7.72-1.25.04-2.44-.23-3.49-.74Z"/><path fill="var(--hoodie, var(--dawn-light))" stroke-linecap="round" stroke-miterlimit="10" d="M446.14 131.05c-6.21 14.53-11.91 32.32-11.91 32.32l-4.15 42.78 25.57-.47 2.47-44.63s24.1-26.7 22.47-39.13c-1.27-9.68-9.9-13.33-17.96-10.92"/><path fill="none" stroke-linecap="round" stroke-linejoin="round" stroke-width=".5" d="m454.12 197.3-21.37.69"/><path fill="#dd9b54" stroke-miterlimit="10" d="M148.79 591.99a7.496 7.496 0 0 1-6.07-4.86l-6.6-18.04c-1.42-3.89.57-8.2 4.46-9.62 3.89-1.43 8.2.58 9.62 4.46l6.6 18.04c1.42 3.89-.57 8.2-4.46 9.62-1.17.43-2.39.55-3.55.4Z"/><path fill="var(--hoodie, var(--dawn-light))" stroke-linecap="round" stroke-miterlimit="10" d="M129.58 494.41c-2.79 16.07-4.1 44.94-4.1 44.94l9.12 47.35 24.9-6.6-9.15-45.52s15.67-40.5 7.69-48.4"/><path fill="none" stroke-linecap="round" stroke-linejoin="round" stroke-width=".5" d="m155.29 572.53-20.08 5.51"/><path fill="#dd9b54" stroke-miterlimit="10" d="M3049.68 217.61c-2.68.35-5.46-.76-7.12-3.13l-11.04-15.72a7.503 7.503 0 0 1 1.83-10.45 7.503 7.503 0 0 1 10.45 1.83l11.04 15.72a7.503 7.503 0 0 1-1.83 10.45 7.39 7.39 0 0 1-3.32 1.3Z"/><path fill="var(--hoodie, var(--dawn-light))" stroke-linecap="round" stroke-miterlimit="10" d="M3006.31 129.75c1.46 16.24 8.5 44.66 8.5 44.66l20.18 42.67 21.1-14.45-19.6-39.31s4.93-43.3-4.82-48.87c0 0-4.76-3.56-12.65-.76"/><path fill="none" stroke-linecap="round" stroke-linejoin="round" stroke-width=".5" d="m3050.77 196.11-17.47 12.31"/><path fill="#dd9b54" stroke-miterlimit="10" d="M2755.4 211.9a7.505 7.505 0 0 1-7.76-.53l-15.7-11.06c-3.39-2.38-4.2-7.06-1.81-10.45 2.38-3.39 7.06-4.2 10.45-1.81l15.7 11.06c3.39 2.38 4.2 7.06 1.81 10.45a7.54 7.54 0 0 1-2.69 2.35Z"/><path fill="var(--hoodie, var(--dawn-light))" stroke-linecap="round" stroke-miterlimit="10" d="M2684.84 143.69c.18 2.17.68 4.14 1.5 5.76 4.81 9.51 18.01 36.43 18.01 36.43l38.17 30.39 14.45-21.9-32.35-29.09s-7.41-48.39-22.06-47.84"/><path fill="none" stroke-linecap="round" stroke-linejoin="round" stroke-width=".5" d="m2748.54 188.96-12.6 18.91"/><path fill="#dd9b54" stroke-miterlimit="10" d="M2432.81 204.64a7.478 7.478 0 0 1-7.74-.77l-15.37-11.52c-3.31-2.48-3.99-7.19-1.5-10.5 2.48-3.32 7.19-3.98 10.5-1.5l15.37 11.52c3.31 2.48 3.99 7.19 1.5 10.5-.75 1-1.7 1.76-2.76 2.26Z"/><path fill="var(--hoodie, var(--dawn-light))" stroke-linecap="round" stroke-miterlimit="10" d="M2367.78 140.8c4.53 9.65 16.29 31.32 16.29 31.32l35.13 35.48 14.84-20.94-30.6-30.05s-5-25.89-13.51-38.68c-.94-1.41-6.47-2.7-10.28-1.43"/><path fill="none" stroke-linecap="round" stroke-linejoin="round" stroke-width=".5" d="m2425.2 180.68-11.63 16.75"/><path fill="#dd9b54" stroke-miterlimit="10" d="M2096.74 208.45c-2.62.66-5.51-.13-7.44-2.29l-12.77-14.35a7.5 7.5 0 0 1 .62-10.59c3.09-2.76 7.84-2.48 10.59.62l12.77 14.35a7.5 7.5 0 0 1-.62 10.59c-.93.83-2.02 1.39-3.15 1.67Z"/><path fill="var(--hoodie, var(--dawn-light))" stroke-linecap="round" stroke-miterlimit="10" d="M2048.52 131.2c3.31 15.97 11.16 38.96 11.16 38.96l25.09 37.21 19.3-16.77-24.23-34.07s1.34-34.94-7.88-43.43c0 0-3.74-3.61-9.27-1.11"/><path fill="none" stroke-linecap="round" stroke-linejoin="round" stroke-width=".5" d="m2097.53 185.15-15 13.39"/><path fill="#dd9b54" stroke-miterlimit="10" d="M1765.98 213.45a7.49 7.49 0 0 1-6.94-3.51l-10.16-16.3a7.496 7.496 0 0 1 2.4-10.33 7.496 7.496 0 0 1 10.33 2.4l10.16 16.3a7.496 7.496 0 0 1-2.4 10.33 7.486 7.486 0 0 1-3.39 1.12Z"/><path fill="var(--hoodie, var(--dawn-light))" stroke-linecap="round" stroke-miterlimit="10" d="M1729.79 131.52c1.27 16.19 5.38 37.62 5.38 37.62l16.17 42.98 21.86-13.27-15.86-40.09s7.72-40.5-1.71-46.6c-4.8-3.1-9.75-4.21-14.05-3.54"/><path fill="none" stroke-linecap="round" stroke-linejoin="round" stroke-width=".5" d="m1768.25 192.05-18.12 11.34"/><path fill="#dd9b54" stroke-miterlimit="10" d="M1413.24 221.84a7.484 7.484 0 0 1-5.31-5.69l-3.94-18.8a7.505 7.505 0 0 1 5.8-8.88 7.505 7.505 0 0 1 8.88 5.8l3.94 18.8a7.505 7.505 0 0 1-5.8 8.88c-1.22.26-2.44.2-3.57-.12Z"/><path fill="var(--hoodie, var(--dawn-light))" stroke-linecap="round" stroke-miterlimit="10" d="M1408.06 124c-5.07 15.5-10.32 42.39-10.32 42.39l2.2 48.17 25.59-2.95-2.5-46.36s21.12-36.34 14.36-45.3"/><path fill="none" stroke-linecap="round" stroke-linejoin="round" stroke-width=".5" d="m1422.47 203.53-20.66 2.56"/><path fill="#dd9b54" stroke-miterlimit="10" d="M1064.31 212.36a7.504 7.504 0 0 1-3.39-7l1.81-19.12c.39-4.12 4.05-7.15 8.17-6.76 4.12.39 7.15 4.05 6.76 8.17l-1.81 19.12c-.39 4.12-4.05 7.15-8.17 6.76a7.423 7.423 0 0 1-3.37-1.17Z"/><path fill="var(--hoodie, var(--dawn-light))" stroke-linecap="round" stroke-miterlimit="10" d="M1086.23 120.09c-1.75 1.34-3.21 2.83-4.23 4.37-5.87 8.9-18.8 33.22-18.8 33.22l-7.04 46.66 25.11-.32 8.24-41.52s32.46-28.94 25.9-41.23c-3.31-6.21-9.8-7.77-16.3-6.73"/><path fill="none" stroke-linecap="round" stroke-linejoin="round" stroke-width=".5" d="m1081.77 193.36-22.12.1"/><path fill="#dd9b54" stroke-miterlimit="10" d="M741.09 209.66a7.515 7.515 0 0 1-3.16-7.11l2.43-19.05c.52-4.11 4.28-7.01 8.39-6.49 4.11.52 7.01 4.28 6.49 8.39l-2.43 19.05c-.52 4.11-4.28 7.01-8.39 6.49a7.465 7.465 0 0 1-3.33-1.28Z"/><path fill="var(--hoodie, var(--dawn-light))" stroke-linecap="round" stroke-miterlimit="10" d="M770.31 114.52c-1.46.58-5.53 3.77-6.31 4.89-6.16 8.7-22.73 32.6-22.73 32.6l-9.04 49.31 25.61.53 10.08-41.2s35.75-30.85 29.6-43.35c-2.65-5.38-7.71-7.46-13.18-7.45"/><path fill="none" stroke-linecap="round" stroke-linejoin="round" stroke-width=".5" d="m758.16 191.2-21.61-.63"/></g></svg>
